<?xml version="1.0" encoding="utf-8" standalone="no"?>
<!DOCTYPE svg PUBLIC "-//W3C//DTD SVG 1.1//EN"
  "http://www.w3.org/Graphics/SVG/1.1/DTD/svg11.dtd">
<!-- Created with matplotlib (https://matplotlib.org/) -->
<svg height="345.6pt" version="1.1" viewBox="0 0 460.8 345.6" width="460.8pt" xmlns="http://www.w3.org/2000/svg" xmlns:xlink="http://www.w3.org/1999/xlink">
 <defs>
  <style type="text/css">
*{stroke-linecap:butt;stroke-linejoin:round;}
  </style>
 </defs>
 <g id="figure_1">
  <g id="patch_1">
   <path d="M 0 345.6 
L 460.8 345.6 
L 460.8 0 
L 0 0 
z
" style="fill:#ffffff;"/>
  </g>
  <g id="axes_1">
   <g id="patch_2">
    <path d="M 57.6 263.808 
L 414.72 263.808 
L 414.72 85.248 
L 57.6 85.248 
z
" style="fill:#ffffff;"/>
   </g>
   <g id="PathCollection_1">
    <defs>
     <path d="M 0 3 
C 0.795609 3 1.55874 2.683901 2.12132 2.12132 
C 2.683901 1.55874 3 0.795609 3 0 
C 3 -0.795609 2.683901 -1.55874 2.12132 -2.12132 
C 1.55874 -2.683901 0.795609 -3 0 -3 
C -0.795609 -3 -1.55874 -2.683901 -2.12132 -2.12132 
C -2.683901 -1.55874 -3 -0.795609 -3 0 
C -3 0.795609 -2.683901 1.55874 -2.12132 2.12132 
C -1.55874 2.683901 -0.795609 3 0 3 
z
" id="mdc7f16f5d6" style="stroke:#000000;"/>
    </defs>
    <g clip-path="url(#p48f1ec6fca)">
     <use style="stroke:#000000;" x="104.176595" xlink:href="#mdc7f16f5d6" y="230.495633"/>
    </g>
   </g>
   <g id="patch_3">
    <path clip-path="url(#p48f1ec6fca)" d="M 161.76 211.728 
C 171.625555 211.728 181.088371 207.808373 188.064372 200.832372 
C 195.040373 193.856371 198.96 184.393555 198.96 174.528 
C 198.96 164.662445 195.040373 155.199629 188.064372 148.223628 
C 181.088371 141.247627 171.625555 137.328 161.76 137.328 
C 151.894445 137.328 142.431629 141.247627 135.455628 148.223628 
C 128.479627 155.199629 124.56 164.662445 124.56 174.528 
C 124.56 184.393555 128.479627 193.856371 135.455628 200.832372 
C 142.431629 207.808373 151.894445 211.728 161.76 211.728 
z
" style="fill:#cc0000;fill-opacity:0.1;stroke:#cc0000;stroke-dasharray:7.4,3.2;stroke-dashoffset:0;stroke-linejoin:miter;stroke-width:2;"/>
   </g>
   <g id="patch_4">
    <path clip-path="url(#p48f1ec6fca)" d="M 310.56 196.848 
C 316.479333 196.848 322.157023 194.496224 326.342623 190.310623 
C 330.528224 186.125023 332.88 180.447333 332.88 174.528 
C 332.88 168.608667 330.528224 162.930977 326.342623 158.745377 
C 322.157023 154.559776 316.479333 152.208 310.56 152.208 
C 304.640667 152.208 298.962977 154.559776 294.777377 158.745377 
C 290.591776 162.930977 288.24 168.608667 288.24 174.528 
C 288.24 180.447333 290.591776 186.125023 294.777377 190.310623 
C 298.962977 194.496224 304.640667 196.848 310.56 196.848 
z
" style="fill:#cc0000;fill-opacity:0.1;stroke:#cc0000;stroke-dasharray:7.4,3.2;stroke-dashoffset:0;stroke-linejoin:miter;stroke-width:2;"/>
   </g>
   <g id="matplotlib.axis_1">
    <g id="xtick_1">
     <g id="line2d_1">
      <defs>
       <path d="M 0 0 
L 0 3.5 
" id="m03d433f292" style="stroke:#000000;stroke-width:0.8;"/>
      </defs>
      <g>
       <use style="stroke:#000000;stroke-width:0.8;" x="87.36" xlink:href="#m03d433f292" y="263.808"/>
      </g>
     </g>
     <g id="text_1">
      <!-- 0.0 -->
      <defs>
       <path d="M 31.78125 66.40625 
Q 24.171875 66.40625 20.328125 58.90625 
Q 16.5 51.421875 16.5 36.375 
Q 16.5 21.390625 20.328125 13.890625 
Q 24.171875 6.390625 31.78125 6.390625 
Q 39.453125 6.390625 43.28125 13.890625 
Q 47.125 21.390625 47.125 36.375 
Q 47.125 51.421875 43.28125 58.90625 
Q 39.453125 66.40625 31.78125 66.40625 
z
M 31.78125 74.21875 
Q 44.046875 74.21875 50.515625 64.515625 
Q 56.984375 54.828125 56.984375 36.375 
Q 56.984375 17.96875 50.515625 8.265625 
Q 44.046875 -1.421875 31.78125 -1.421875 
Q 19.53125 -1.421875 13.0625 8.265625 
Q 6.59375 17.96875 6.59375 36.375 
Q 6.59375 54.828125 13.0625 64.515625 
Q 19.53125 74.21875 31.78125 74.21875 
z
" id="DejaVuSans-48"/>
       <path d="M 10.6875 12.40625 
L 21 12.40625 
L 21 0 
L 10.6875 0 
z
" id="DejaVuSans-46"/>
      </defs>
      <g transform="translate(79.408438 278.406437)scale(0.1 -0.1)">
       <use xlink:href="#DejaVuSans-48"/>
       <use x="63.623047" xlink:href="#DejaVuSans-46"/>
       <use x="95.410156" xlink:href="#DejaVuSans-48"/>
      </g>
     </g>
    </g>
    <g id="xtick_2">
     <g id="line2d_2">
      <g>
       <use style="stroke:#000000;stroke-width:0.8;" x="161.76" xlink:href="#m03d433f292" y="263.808"/>
      </g>
     </g>
     <g id="text_2">
      <!-- 0.5 -->
      <defs>
       <path d="M 10.796875 72.90625 
L 49.515625 72.90625 
L 49.515625 64.59375 
L 19.828125 64.59375 
L 19.828125 46.734375 
Q 21.96875 47.46875 24.109375 47.828125 
Q 26.265625 48.1875 28.421875 48.1875 
Q 40.625 48.1875 47.75 41.5 
Q 54.890625 34.8125 54.890625 23.390625 
Q 54.890625 11.625 47.5625 5.09375 
Q 40.234375 -1.421875 26.90625 -1.421875 
Q 22.3125 -1.421875 17.546875 -0.640625 
Q 12.796875 0.140625 7.71875 1.703125 
L 7.71875 11.625 
Q 12.109375 9.234375 16.796875 8.0625 
Q 21.484375 6.890625 26.703125 6.890625 
Q 35.15625 6.890625 40.078125 11.328125 
Q 45.015625 15.765625 45.015625 23.390625 
Q 45.015625 31 40.078125 35.4375 
Q 35.15625 39.890625 26.703125 39.890625 
Q 22.75 39.890625 18.8125 39.015625 
Q 14.890625 38.140625 10.796875 36.28125 
z
" id="DejaVuSans-53"/>
      </defs>
      <g transform="translate(153.808437 278.406437)scale(0.1 -0.1)">
       <use xlink:href="#DejaVuSans-48"/>
       <use x="63.623047" xlink:href="#DejaVuSans-46"/>
       <use x="95.410156" xlink:href="#DejaVuSans-53"/>
      </g>
     </g>
    </g>
    <g id="xtick_3">
     <g id="line2d_3">
      <g>
       <use style="stroke:#000000;stroke-width:0.8;" x="236.16" xlink:href="#m03d433f292" y="263.808"/>
      </g>
     </g>
     <g id="text_3">
      <!-- 1.0 -->
      <defs>
       <path d="M 12.40625 8.296875 
L 28.515625 8.296875 
L 28.515625 63.921875 
L 10.984375 60.40625 
L 10.984375 69.390625 
L 28.421875 72.90625 
L 38.28125 72.90625 
L 38.28125 8.296875 
L 54.390625 8.296875 
L 54.390625 0 
L 12.40625 0 
z
" id="DejaVuSans-49"/>
      </defs>
      <g transform="translate(228.208437 278.406437)scale(0.1 -0.1)">
       <use xlink:href="#DejaVuSans-49"/>
       <use x="63.623047" xlink:href="#DejaVuSans-46"/>
       <use x="95.410156" xlink:href="#DejaVuSans-48"/>
      </g>
     </g>
    </g>
    <g id="xtick_4">
     <g id="line2d_4">
      <g>
       <use style="stroke:#000000;stroke-width:0.8;" x="310.56" xlink:href="#m03d433f292" y="263.808"/>
      </g>
     </g>
     <g id="text_4">
      <!-- 1.5 -->
      <g transform="translate(302.608437 278.406437)scale(0.1 -0.1)">
       <use xlink:href="#DejaVuSans-49"/>
       <use x="63.623047" xlink:href="#DejaVuSans-46"/>
       <use x="95.410156" xlink:href="#DejaVuSans-53"/>
      </g>
     </g>
    </g>
    <g id="xtick_5">
     <g id="line2d_5">
      <g>
       <use style="stroke:#000000;stroke-width:0.8;" x="384.96" xlink:href="#m03d433f292" y="263.808"/>
      </g>
     </g>
     <g id="text_5">
      <!-- 2.0 -->
      <defs>
       <path d="M 19.1875 8.296875 
L 53.609375 8.296875 
L 53.609375 0 
L 7.328125 0 
L 7.328125 8.296875 
Q 12.9375 14.109375 22.625 23.890625 
Q 32.328125 33.6875 34.8125 36.53125 
Q 39.546875 41.84375 41.421875 45.53125 
Q 43.3125 49.21875 43.3125 52.78125 
Q 43.3125 58.59375 39.234375 62.25 
Q 35.15625 65.921875 28.609375 65.921875 
Q 23.96875 65.921875 18.8125 64.3125 
Q 13.671875 62.703125 7.8125 59.421875 
L 7.8125 69.390625 
Q 13.765625 71.78125 18.9375 73 
Q 24.125 74.21875 28.421875 74.21875 
Q 39.75 74.21875 46.484375 68.546875 
Q 53.21875 62.890625 53.21875 53.421875 
Q 53.21875 48.921875 51.53125 44.890625 
Q 49.859375 40.875 45.40625 35.40625 
Q 44.1875 33.984375 37.640625 27.21875 
Q 31.109375 20.453125 19.1875 8.296875 
z
" id="DejaVuSans-50"/>
      </defs>
      <g transform="translate(377.008437 278.406437)scale(0.1 -0.1)">
       <use xlink:href="#DejaVuSans-50"/>
       <use x="63.623047" xlink:href="#DejaVuSans-46"/>
       <use x="95.410156" xlink:href="#DejaVuSans-48"/>
      </g>
     </g>
    </g>
   </g>
   <g id="matplotlib.axis_2">
    <g id="ytick_1">
     <g id="line2d_6">
      <defs>
       <path d="M 0 0 
L -3.5 0 
" id="mf1db92b745" style="stroke:#000000;stroke-width:0.8;"/>
      </defs>
      <g>
       <use style="stroke:#000000;stroke-width:0.8;" x="57.6" xlink:href="#mf1db92b745" y="248.928"/>
      </g>
     </g>
     <g id="text_6">
      <!-- 0.0 -->
      <g transform="translate(34.696875 252.727219)scale(0.1 -0.1)">
       <use xlink:href="#DejaVuSans-48"/>
       <use x="63.623047" xlink:href="#DejaVuSans-46"/>
       <use x="95.410156" xlink:href="#DejaVuSans-48"/>
      </g>
     </g>
    </g>
    <g id="ytick_2">
     <g id="line2d_7">
      <g>
       <use style="stroke:#000000;stroke-width:0.8;" x="57.6" xlink:href="#mf1db92b745" y="219.168"/>
      </g>
     </g>
     <g id="text_7">
      <!-- 0.2 -->
      <g transform="translate(34.696875 222.967219)scale(0.1 -0.1)">
       <use xlink:href="#DejaVuSans-48"/>
       <use x="63.623047" xlink:href="#DejaVuSans-46"/>
       <use x="95.410156" xlink:href="#DejaVuSans-50"/>
      </g>
     </g>
    </g>
    <g id="ytick_3">
     <g id="line2d_8">
      <g>
       <use style="stroke:#000000;stroke-width:0.8;" x="57.6" xlink:href="#mf1db92b745" y="189.408"/>
      </g>
     </g>
     <g id="text_8">
      <!-- 0.4 -->
      <defs>
       <path d="M 37.796875 64.3125 
L 12.890625 25.390625 
L 37.796875 25.390625 
z
M 35.203125 72.90625 
L 47.609375 72.90625 
L 47.609375 25.390625 
L 58.015625 25.390625 
L 58.015625 17.1875 
L 47.609375 17.1875 
L 47.609375 0 
L 37.796875 0 
L 37.796875 17.1875 
L 4.890625 17.1875 
L 4.890625 26.703125 
z
" id="DejaVuSans-52"/>
      </defs>
      <g transform="translate(34.696875 193.207219)scale(0.1 -0.1)">
       <use xlink:href="#DejaVuSans-48"/>
       <use x="63.623047" xlink:href="#DejaVuSans-46"/>
       <use x="95.410156" xlink:href="#DejaVuSans-52"/>
      </g>
     </g>
    </g>
    <g id="ytick_4">
     <g id="line2d_9">
      <g>
       <use style="stroke:#000000;stroke-width:0.8;" x="57.6" xlink:href="#mf1db92b745" y="159.648"/>
      </g>
     </g>
     <g id="text_9">
      <!-- 0.6 -->
      <defs>
       <path d="M 33.015625 40.375 
Q 26.375 40.375 22.484375 35.828125 
Q 18.609375 31.296875 18.609375 23.390625 
Q 18.609375 15.53125 22.484375 10.953125 
Q 26.375 6.390625 33.015625 6.390625 
Q 39.65625 6.390625 43.53125 10.953125 
Q 47.40625 15.53125 47.40625 23.390625 
Q 47.40625 31.296875 43.53125 35.828125 
Q 39.65625 40.375 33.015625 40.375 
z
M 52.59375 71.296875 
L 52.59375 62.3125 
Q 48.875 64.0625 45.09375 64.984375 
Q 41.3125 65.921875 37.59375 65.921875 
Q 27.828125 65.921875 22.671875 59.328125 
Q 17.53125 52.734375 16.796875 39.40625 
Q 19.671875 43.65625 24.015625 45.921875 
Q 28.375 48.1875 33.59375 48.1875 
Q 44.578125 48.1875 50.953125 41.515625 
Q 57.328125 34.859375 57.328125 23.390625 
Q 57.328125 12.15625 50.6875 5.359375 
Q 44.046875 -1.421875 33.015625 -1.421875 
Q 20.359375 -1.421875 13.671875 8.265625 
Q 6.984375 17.96875 6.984375 36.375 
Q 6.984375 53.65625 15.1875 63.9375 
Q 23.390625 74.21875 37.203125 74.21875 
Q 40.921875 74.21875 44.703125 73.484375 
Q 48.484375 72.75 52.59375 71.296875 
z
" id="DejaVuSans-54"/>
      </defs>
      <g transform="translate(34.696875 163.447219)scale(0.1 -0.1)">
       <use xlink:href="#DejaVuSans-48"/>
       <use x="63.623047" xlink:href="#DejaVuSans-46"/>
       <use x="95.410156" xlink:href="#DejaVuSans-54"/>
      </g>
     </g>
    </g>
    <g id="ytick_5">
     <g id="line2d_10">
      <g>
       <use style="stroke:#000000;stroke-width:0.8;" x="57.6" xlink:href="#mf1db92b745" y="129.888"/>
      </g>
     </g>
     <g id="text_10">
      <!-- 0.8 -->
      <defs>
       <path d="M 31.78125 34.625 
Q 24.75 34.625 20.71875 30.859375 
Q 16.703125 27.09375 16.703125 20.515625 
Q 16.703125 13.921875 20.71875 10.15625 
Q 24.75 6.390625 31.78125 6.390625 
Q 38.8125 6.390625 42.859375 10.171875 
Q 46.921875 13.96875 46.921875 20.515625 
Q 46.921875 27.09375 42.890625 30.859375 
Q 38.875 34.625 31.78125 34.625 
z
M 21.921875 38.8125 
Q 15.578125 40.375 12.03125 44.71875 
Q 8.5 49.078125 8.5 55.328125 
Q 8.5 64.0625 14.71875 69.140625 
Q 20.953125 74.21875 31.78125 74.21875 
Q 42.671875 74.21875 48.875 69.140625 
Q 55.078125 64.0625 55.078125 55.328125 
Q 55.078125 49.078125 51.53125 44.71875 
Q 48 40.375 41.703125 38.8125 
Q 48.828125 37.15625 52.796875 32.3125 
Q 56.78125 27.484375 56.78125 20.515625 
Q 56.78125 9.90625 50.3125 4.234375 
Q 43.84375 -1.421875 31.78125 -1.421875 
Q 19.734375 -1.421875 13.25 4.234375 
Q 6.78125 9.90625 6.78125 20.515625 
Q 6.78125 27.484375 10.78125 32.3125 
Q 14.796875 37.15625 21.921875 38.8125 
z
M 18.3125 54.390625 
Q 18.3125 48.734375 21.84375 45.5625 
Q 25.390625 42.390625 31.78125 42.390625 
Q 38.140625 42.390625 41.71875 45.5625 
Q 45.3125 48.734375 45.3125 54.390625 
Q 45.3125 60.0625 41.71875 63.234375 
Q 38.140625 66.40625 31.78125 66.40625 
Q 25.390625 66.40625 21.84375 63.234375 
Q 18.3125 60.0625 18.3125 54.390625 
z
" id="DejaVuSans-56"/>
      </defs>
      <g transform="translate(34.696875 133.687219)scale(0.1 -0.1)">
       <use xlink:href="#DejaVuSans-48"/>
       <use x="63.623047" xlink:href="#DejaVuSans-46"/>
       <use x="95.410156" xlink:href="#DejaVuSans-56"/>
      </g>
     </g>
    </g>
    <g id="ytick_6">
     <g id="line2d_11">
      <g>
       <use style="stroke:#000000;stroke-width:0.8;" x="57.6" xlink:href="#mf1db92b745" y="100.128"/>
      </g>
     </g>
     <g id="text_11">
      <!-- 1.0 -->
      <g transform="translate(34.696875 103.927219)scale(0.1 -0.1)">
       <use xlink:href="#DejaVuSans-49"/>
       <use x="63.623047" xlink:href="#DejaVuSans-46"/>
       <use x="95.410156" xlink:href="#DejaVuSans-48"/>
      </g>
     </g>
    </g>
   </g>
   <g id="line2d_12">
    <path clip-path="url(#p48f1ec6fca)" d="M 236.16 248.928 
L 236.16 100.128 
" style="fill:none;stroke:#cc0000;stroke-dasharray:7.4,3.2;stroke-dashoffset:0;stroke-width:2;"/>
   </g>
   <g id="line2d_13">
    <path clip-path="url(#p48f1ec6fca)" d="M 87.36 248.928 
L 384.96 248.928 
" style="fill:none;stroke:#009900;stroke-linecap:square;stroke-width:2;"/>
   </g>
   <g id="line2d_14">
    <path clip-path="url(#p48f1ec6fca)" d="M 384.96 248.928 
L 384.96 100.128 
" style="fill:none;stroke:#009900;stroke-linecap:square;stroke-width:2;"/>
   </g>
   <g id="line2d_15">
    <path clip-path="url(#p48f1ec6fca)" d="M 384.96 100.128 
L 87.36 100.128 
" style="fill:none;stroke:#009900;stroke-linecap:square;stroke-width:2;"/>
   </g>
   <g id="line2d_16">
    <path clip-path="url(#p48f1ec6fca)" d="M 87.36 100.128 
L 87.36 248.928 
" style="fill:none;stroke:#009900;stroke-linecap:square;stroke-width:2;"/>
   </g>
   <g id="line2d_17">
    <path clip-path="url(#p48f1ec6fca)" d="M 104.176595 230.495633 
L 105.824277 236.214613 
L 107.69934 241.863128 
L 109.798782 247.432142 
L 110.406568 248.928 
L 112.566315 243.382094 
L 114.502558 237.754257 
L 116.212198 232.053493 
L 117.692501 226.288922 
L 118.941099 220.469765 
L 119.955994 214.605333 
L 120.735562 208.705006 
L 121.278556 202.778225 
L 121.584108 196.83447 
L 121.651729 190.883251 
L 121.48131 184.934088 
L 121.073125 178.996499 
L 120.427826 173.079982 
L 119.546445 167.194003 
L 118.430393 161.347978 
L 117.081455 155.551259 
L 115.50179 149.813121 
L 113.693923 144.142741 
L 111.660748 138.549193 
L 109.405517 133.041425 
L 106.931838 127.628247 
L 104.243668 122.31832 
L 101.345308 117.120139 
L 98.241395 112.042019 
L 94.936894 107.092084 
L 91.437091 102.278254 
L 89.775944 100.128 
L 87.36 103.282735 
L 91.00994 107.983747 
L 94.844951 112.53504 
L 98.858898 116.929334 
L 103.045358 121.159597 
L 107.397636 125.219063 
L 111.908767 129.101237 
L 116.571536 132.799908 
L 121.378482 136.30916 
L 126.321916 139.623378 
L 131.393929 142.737261 
L 136.586407 145.645826 
L 137.642933 146.20474 
L 141.045139 149.093738 
L 144.267988 152.181547 
L 147.299879 155.457055 
L 150.129903 158.908473 
L 152.747873 162.52338 
L 155.144368 166.288766 
L 157.310762 170.191079 
L 159.23926 174.216277 
L 160.922921 178.349871 
L 162.355686 182.576987 
L 163.532397 186.88241 
L 164.44882 191.250646 
L 165.101658 195.665974 
L 165.48856 200.112504 
L 165.608134 204.574232 
L 165.459949 209.035102 
L 165.256617 211.563303 
L 163.676411 217.301293 
L 162.326927 223.097885 
L 161.210325 228.943804 
L 160.32839 234.8297 
L 159.682534 240.746156 
L 159.273789 246.683707 
L 159.181307 248.928 
L 158.862236 242.984956 
L 158.305762 237.059425 
L 157.512775 231.160887 
L 156.484544 225.298778 
L 155.222713 219.482476 
L 153.729302 213.721287 
L 152.828448 210.639873 
L 148.727654 214.953233 
L 144.802629 219.42713 
L 141.059651 224.054407 
L 137.504709 228.827663 
L 134.14349 233.73926 
L 130.981371 238.781342 
L 128.023411 243.945841 
L 125.421704 248.928 
L 122.660896 243.655475 
L 119.691451 238.49757 
L 116.518121 233.462537 
L 113.145982 228.558431 
L 109.580427 223.793098 
L 105.827163 219.17416 
L 101.892192 214.709008 
L 97.781811 210.404784 
L 93.502594 206.268374 
L 89.061388 202.306396 
L 87.36 200.870573 
L 91.859985 196.975484 
L 96.200608 192.903559 
L 100.374925 188.661313 
L 104.376259 184.255531 
L 108.198208 179.693264 
L 111.834658 174.981808 
L 115.279791 170.128702 
L 118.528096 165.141709 
L 121.574376 160.028808 
L 124.413758 154.798178 
L 127.041699 149.458187 
L 129.453995 144.017377 
L 131.646788 138.484454 
L 133.616569 132.868268 
L 135.360186 127.177804 
L 136.874851 121.422166 
L 138.15814 115.610561 
L 139.208 109.752287 
L 140.022753 103.856716 
L 140.414691 100.128 
L 141.080648 106.042227 
L 141.982578 111.925092 
L 143.119038 117.767184 
L 144.488211 123.559157 
L 146.087906 129.291744 
L 147.915564 134.955775 
L 150.928542 143.634482 
L 152.073755 147.94839 
L 152.958227 152.323207 
L 153.578777 156.743189 
L 153.93317 161.192428 
L 154.020131 165.654911 
L 153.839347 170.114578 
L 153.391469 174.555381 
L 152.678108 178.961335 
L 151.701833 183.316585 
L 150.466156 187.605457 
L 148.975525 191.812515 
L 147.235304 195.922619 
L 145.251756 199.920975 
L 143.03202 203.793196 
L 141.713189 205.864327 
L 144.176814 202.142517 
L 146.85918 198.575132 
L 149.750635 195.175013 
L 152.840771 191.954395 
L 156.118467 188.92487 
L 159.571928 186.09734 
L 163.188724 183.481981 
L 166.95584 181.088206 
L 170.859717 178.92463 
L 174.886306 176.99904 
L 179.021116 175.318365 
L 183.249265 173.888653 
L 187.555537 172.715052 
L 191.924434 171.801783 
L 196.340232 171.152135 
L 198.783452 170.908058 
L 194.335069 171.273025 
L 189.872805 171.370593 
L 185.41272 171.20041 
L 180.970866 170.763089 
L 176.563228 170.060204 
L 172.205669 169.094283 
L 167.913873 167.868804 
L 163.703283 166.388177 
L 159.589055 164.657731 
L 155.585995 162.683693 
L 151.708509 160.473167 
L 147.970553 158.03411 
L 144.385579 155.375298 
L 140.966488 152.506302 
L 137.725587 149.437446 
L 136.023098 147.668144 
L 139.060406 150.93863 
L 141.896137 154.38536 
L 144.520085 157.99593 
L 146.922807 161.757345 
L 149.095657 165.656069 
L 151.030813 169.678069 
L 152.721312 173.808872 
L 154.161069 178.033611 
L 155.344903 182.337081 
L 156.268554 186.703795 
L 156.928697 191.118036 
L 157.322956 195.56392 
L 157.449913 200.025444 
L 157.309111 204.486553 
L 156.901056 208.931191 
L 156.563157 211.363212 
L 157.255564 206.953916 
L 158.211124 202.594074 
L 159.426398 198.299376 
L 160.897012 194.085279 
L 162.617674 189.966949 
L 164.582192 185.959208 
L 166.783495 182.076479 
L 169.21366 178.332736 
L 171.863942 174.741452 
L 174.724804 171.315551 
L 177.785947 168.067365 
L 181.036357 165.008581 
L 184.464335 162.15021 
L 188.057543 159.502537 
L 191.803051 157.075092 
L 193.92339 155.836924 
L 190.029843 158.019034 
L 186.012453 159.963745 
L 181.88568 161.664058 
L 177.664376 163.113853 
L 173.363732 164.307913 
L 168.999226 165.241941 
L 164.586566 165.912574 
L 160.141632 166.3174 
L 155.680422 166.454962 
L 151.218991 166.324764 
L 146.773395 165.927275 
L 142.359634 165.263925 
L 137.993593 164.337102 
L 133.690984 163.150142 
L 129.467292 161.707316 
L 124.438166 159.656934 
L 118.881987 157.523756 
L 113.244947 155.614471 
L 107.536066 153.932135 
L 101.764475 152.47944 
L 95.939409 151.258708 
L 90.070186 150.271893 
L 87.36 149.897202 
L 93.246374 149.018466 
L 99.0929 147.90504 
L 104.890225 146.558707 
L 110.629072 144.98162 
L 116.300263 143.176301 
L 121.894724 141.145639 
L 127.403505 138.892883 
L 132.817794 136.421636 
L 138.128928 133.735853 
L 143.328411 130.839828 
L 148.407925 127.738197 
L 153.359344 124.43592 
L 158.174746 120.938281 
L 162.846429 117.250874 
L 167.366917 113.3796 
L 171.72898 109.330651 
L 175.925639 105.110504 
L 179.95018 100.725912 
L 180.474521 100.128 
L 184.475572 104.534039 
L 188.649616 108.776553 
L 192.989978 112.848757 
L 197.489712 116.744136 
L 202.14162 120.456457 
L 206.938261 123.979782 
L 211.87196 127.308475 
L 216.934825 130.437209 
L 222.118756 133.36098 
L 227.41546 136.075111 
L 232.816464 138.575259 
L 236.16 139.99412 
L 230.699582 142.361697 
L 225.33821 144.945739 
L 220.084461 147.742111 
L 214.946739 150.746341 
L 209.933264 153.953621 
L 205.052056 157.358822 
L 200.310925 160.956495 
L 197.266092 163.430368 
L 203.203278 163.844371 
L 209.152271 164.020619 
L 215.103554 163.958829 
L 221.047605 163.659101 
L 226.974916 163.121914 
L 232.876003 162.348127 
L 237.642126 161.680823 
L 245.041833 160.909425 
L 252.419945 159.953295 
L 259.77185 158.81303 
L 267.092954 157.489343 
L 274.378682 155.983061 
L 281.624481 154.295125 
L 288.825821 152.426591 
L 295.978202 150.378626 
L 303.077154 148.15251 
L 310.118241 145.749635 
L 317.097062 143.171501 
L 324.009256 140.419721 
L 330.850502 137.496013 
L 337.616526 134.402206 
L 344.303098 131.140233 
L 350.90604 127.712132 
L 357.421225 124.120046 
L 363.844581 120.36622 
L 370.172094 116.453 
L 376.39981 112.382831 
L 382.523836 108.158257 
L 384.96 106.413881 
L 378.878818 102.127865 
L 375.926888 100.128 
L 369.794792 104.340851 
L 363.769922 108.705672 
L 357.856044 113.219735 
L 352.056854 117.880219 
L 346.375976 122.684211 
L 340.81696 127.628709 
L 335.383282 132.710624 
L 330.078335 137.926778 
L 324.905437 143.273911 
L 319.86782 148.748683 
L 316.186825 152.928897 
L 313.31399 158.141229 
L 310.235015 163.234508 
L 306.954826 168.200587 
L 303.478671 173.031522 
L 299.812111 177.719583 
L 295.961011 182.257271 
L 291.859313 186.712691 
L 297.492501 184.792073 
L 303.197987 183.098259 
L 308.966644 181.633958 
L 314.789243 180.401514 
L 320.65647 179.402897 
L 326.558937 178.639705 
L 332.591342 178.106042 
L 327.132737 175.734289 
L 321.773343 173.146147 
L 316.521734 170.345757 
L 311.386311 167.337599 
L 306.375291 164.126484 
L 301.496689 160.717551 
L 296.676509 157.051413 
L 299.116554 162.479835 
L 301.337569 168.00149 
L 303.335999 173.607545 
L 305.108649 179.289032 
L 306.652681 185.036862 
L 307.965627 190.841839 
L 309.06223 196.79769 
L 310.912028 191.140851 
L 312.986559 185.562509 
L 315.282506 180.071588 
L 317.796194 174.676873 
L 320.523602 169.386993 
L 323.460368 164.210413 
L 326.658681 159.067894 
L 321.482799 162.005892 
L 316.19357 164.73456 
L 310.799453 167.249533 
L 305.309079 169.546786 
L 299.731231 171.622646 
L 294.074833 173.473791 
L 288.24795 175.123683 
L 294.053239 176.435246 
L 299.801436 177.97791 
L 305.483345 179.749207 
L 311.089876 181.746303 
L 316.61206 183.966002 
L 322.041063 186.404755 
L 327.460662 189.107096 
L 324.050567 184.229306 
L 320.83826 179.21905 
L 317.828879 174.084344 
L 315.027238 168.833402 
L 312.43782 163.474625 
L 310.064768 158.016584 
L 307.876106 152.369951 
L 303.731874 146.191274 
L 299.434486 140.118122 
L 294.986627 134.154292 
L 290.391079 128.30351 
L 285.650712 122.569433 
L 280.768489 116.955645 
L 275.747462 111.465654 
L 270.590768 106.10289 
L 264.529048 100.128 
L 259.221104 105.341103 
L 254.045132 110.685262 
L 249.004367 116.157136 
L 244.101961 121.753307 
L 239.340976 127.470276 
L 236.16 131.457918 
L 240.822298 137.255649 
L 245.628068 142.935024 
L 250.574306 148.492492 
L 255.65792 153.92458 
L 260.875733 159.227894 
L 266.224486 164.399119 
L 271.700834 169.435023 
L 277.301355 174.332459 
L 283.022549 179.088366 
L 288.860841 183.699773 
L 291.049165 185.368189 
L 291.812216 192.768762 
L 292.760025 200.147947 
L 293.891997 207.501134 
L 295.207427 214.823726 
L 296.705491 222.111148 
L 298.385253 229.358846 
L 300.245664 236.562288 
L 302.285561 243.716975 
L 303.894135 248.928 
L 306.064796 241.811895 
L 308.056896 234.643754 
L 309.869188 227.428054 
L 311.50054 220.169307 
L 312.949933 212.872049 
L 314.21646 205.54084 
L 315.29933 198.180262 
L 315.547992 196.283513 
L 315.374712 190.334433 
L 315.439471 184.383182 
L 315.742164 178.439281 
L 316.282308 172.512239 
L 317.059038 166.611538 
L 318.071112 160.746618 
L 319.316911 154.926861 
L 319.517561 154.084309 
L 316.111873 158.965177 
L 312.513726 163.705949 
L 308.728877 168.299041 
L 304.76338 172.737106 
L 300.623581 177.013043 
L 296.316101 181.120012 
L 291.847831 185.051443 
L 291.184644 185.608523 
L 296.828038 183.718102 
L 302.542514 182.054869 
L 308.31893 180.621484 
L 314.148047 179.420241 
L 320.020537 178.453061 
L 325.927007 177.721492 
L 331.858007 177.226704 
L 332.722547 177.174491 
L 327.063988 175.32996 
L 321.483717 173.260623 
L 315.990661 170.96979 
L 310.593608 168.461125 
L 305.301192 165.738643 
L 300.121879 162.806698 
L 295.063956 159.669981 
L 294.338545 159.196764 
L 297.783757 164.049814 
L 301.032143 169.036754 
L 304.078506 174.149605 
L 306.917973 179.380189 
L 309.546001 184.720138 
L 311.958386 190.160908 
L 314.151269 195.693796 
L 314.451862 196.506076 
L 314.576825 190.555785 
L 314.939637 184.61525 
L 315.539717 178.693976 
L 316.376105 172.801436 
L 317.447462 166.947055 
L 318.752076 161.1402 
L 320.287857 155.39016 
L 320.530465 154.558718 
L 316.88454 159.262845 
L 313.053416 163.817411 
L 309.043223 168.21513 
L 304.860376 172.448966 
L 300.511566 176.512146 
L 296.003751 180.39817 
L 291.344142 184.100822 
L 290.65388 184.623979 
L 296.384891 183.018645 
L 302.175513 181.643773 
L 308.016484 180.501564 
L 313.898459 179.593846 
L 319.812028 178.92207 
L 325.74773 178.48731 
L 331.696071 178.290264 
L 332.562141 178.281426 
L 327.003091 176.15574 
L 321.533492 173.80945 
L 316.162095 171.246313 
L 310.897493 168.470426 
L 305.748108 165.486232 
L 300.722177 162.298505 
L 295.827742 158.912344 
L 295.126949 158.403381 
L 288.403039 155.219083 
L 281.601632 152.20386 
L 274.726976 149.359597 
L 267.78337 146.68807 
L 260.775153 144.190951 
L 253.706704 141.8698 
L 246.582441 139.726066 
L 239.406816 137.76109 
L 236.16 136.93495 
L 243.35729 135.050879 
L 250.505235 132.987482 
L 257.599366 130.74605 
L 264.635251 128.327984 
L 271.608492 125.734794 
L 278.51473 122.968103 
L 285.349651 120.029637 
L 292.108982 116.921235 
L 298.788498 113.644838 
L 305.384026 110.202495 
L 311.891444 106.596356 
L 318.306683 102.828675 
L 322.690119 100.128 
L 329.039219 104.006099 
L 335.483277 107.724275 
L 342.018266 111.280204 
L 348.640102 114.671665 
L 355.344647 117.896537 
L 362.127709 120.952805 
L 368.985051 123.83856 
L 375.912387 126.551996 
L 382.905387 129.09142 
L 384.96 129.800183 
L 377.948641 132.288468 
L 371.001674 134.951241 
L 364.12344 137.786838 
L 357.318237 140.793487 
L 350.59032 143.969309 
L 343.943892 147.312319 
L 337.383108 150.820428 
L 330.912067 154.491443 
L 325.356359 157.81722 
L 328.365623 151.013173 
L 331.203863 144.13603 
L 333.869306 137.190086 
L 336.360285 130.179684 
L 338.675244 123.109204 
L 340.812736 115.983066 
L 342.771425 108.805723 
L 344.550088 101.581661 
L 344.884946 100.128 
L 346.627375 107.360887 
L 348.550063 114.547958 
L 350.651809 121.684721 
L 352.931298 128.766715 
L 355.387106 135.789516 
L 358.017698 142.748733 
L 360.821431 149.640017 
L 363.796552 156.459062 
L 366.941202 163.201605 
L 370.253415 169.863434 
L 373.731121 176.440385 
L 377.372147 182.928346 
L 381.174218 189.323264 
L 384.96 195.350192 
L 381.006089 201.652359 
L 377.210951 208.051394 
L 373.576958 214.543298 
L 370.106382 221.124013 
L 366.801391 227.789428 
L 363.66405 234.535375 
L 360.696322 241.357641 
L 357.636605 248.928 
L 354.857159 242.026884 
L 351.906072 235.197404 
L 348.785188 228.443827 
L 345.496457 221.770375 
L 342.041935 215.181217 
L 338.423781 208.680473 
L 334.644255 202.272205 
L 330.705721 195.960417 
L 326.725293 189.918442 
L 322.972243 185.29933 
L 319.406911 180.53383 
L 316.035 175.629567 
L 312.861905 170.594386 
L 309.892701 165.436343 
L 307.132139 160.163689 
L 304.584635 154.78486 
L 303.895007 153.22635 
L 304.934791 159.086421 
L 305.739403 164.983385 
L 306.307555 170.907808 
L 306.63834 176.850211 
L 306.731226 182.80109 
L 306.586067 188.750922 
L 306.203095 194.690191 
L 306.049715 196.387546 
L 307.984505 190.759209 
L 310.14282 185.212746 
L 312.521208 179.757029 
L 315.115865 174.400786 
L 317.922638 169.152586 
L 320.937038 164.020825 
L 324.154243 159.013712 
L 325.112084 157.604074 
L 320.688952 161.586221 
L 316.110116 165.388304 
L 311.382899 169.004241 
L 306.514864 172.428247 
L 301.5138 175.654845 
L 296.387706 178.678873 
L 291.144784 181.495493 
L 289.623197 182.263159 
L 283.406839 186.350654 
L 277.294601 190.592264 
L 271.290301 194.985339 
L 265.397694 199.527133 
L 259.620461 204.214807 
L 253.962212 209.045433 
L 248.426485 214.01599 
L 243.016739 219.123373 
L 237.736354 224.36439 
L 236.16 225.980821 
L 241.400471 231.261748 
L 246.771313 236.410026 
L 252.269171 241.422438 
L 257.890608 246.295852 
L 261.048556 248.928 
L 266.736777 244.132704 
L 272.30335 239.196716 
L 277.744797 234.12312 
L 283.057717 228.915088 
L 288.238789 223.575874 
L 293.284776 218.108815 
L 298.192524 212.517328 
L 302.958966 206.804908 
L 307.581123 200.975123 
L 310.713523 196.847472 
L 312.680277 191.230225 
L 314.870088 185.696121 
L 317.279452 180.254013 
L 319.904515 174.912606 
L 322.741078 169.680447 
L 325.784603 164.565905 
L 328.185534 160.834097 
L 322.530194 162.688474 
L 316.805223 164.315215 
L 311.019778 165.711716 
L 305.183117 166.875744 
L 299.304575 167.805437 
L 293.393558 168.499308 
L 288.971008 168.862504 
L 293.882052 172.224532 
L 298.654722 175.780259 
L 303.281384 179.523999 
L 307.754635 183.449761 
L 312.067319 187.551265 
L 316.212537 191.821949 
L 319.190134 195.112052 
L 318.872859 189.168911 
L 318.793499 183.217837 
L 318.952183 177.26835 
L 319.348656 171.329967 
L 319.982284 165.412189 
L 320.852052 159.524483 
L 321.653368 155.159996 
L 317.128182 159.025778 
L 312.452025 162.707508 
L 307.632379 166.199297 
L 302.676953 169.495559 
L 297.593677 172.59102 
L 292.39068 175.480727 
L 288.438556 177.49854 
L 294.259182 178.740271 
L 300.025495 180.213772 
L 305.728273 181.916685 
L 311.35839 183.846286 
L 316.90684 185.999489 
L 322.364747 188.372848 
L 326.369847 190.283353 
L 323.816221 184.907427 
L 321.479618 179.433684 
L 319.363775 173.87088 
L 317.472077 168.227914 
L 315.807551 162.513815 
L 314.372859 156.737723 
L 313.454141 152.396431 
L 310.739133 157.692685 
L 307.814502 162.876132 
L 304.684929 167.938478 
L 301.355419 172.871626 
L 297.831299 177.667682 
L 294.118207 182.318975 
L 291.230414 185.688176 
L 297.085925 184.623009 
L 302.979346 183.792852 
L 308.901252 183.199033 
L 314.842166 182.842502 
L 320.792586 182.723829 
L 326.742992 182.843205 
L 331.173727 183.08701 
L 326.767498 179.086169 
L 322.524785 174.912326 
L 318.452375 170.572159 
L 314.556782 166.07261 
L 310.844239 161.420878 
L 307.320686 156.624405 
L 304.819995 152.958699 
L 304.323164 158.889529 
L 303.589561 164.795746 
L 302.620358 170.667903 
L 301.417108 176.496605 
L 299.981733 182.272528 
L 298.316532 187.986431 
L 296.927037 192.200711 
L 301.937491 188.988714 
L 307.072384 185.979651 
L 312.3235 183.178337 
L 317.682438 180.589251 
L 323.140625 178.216537 
L 328.68933 176.06399 
L 332.879869 174.604458 
L 327.283185 172.57993 
L 321.771938 170.333214 
L 316.354944 167.867904 
L 311.040869 165.187944 
L 305.838214 162.297621 
L 300.755303 159.201559 
L 297.048432 156.762305 
L 298.84444 162.436451 
L 300.412106 168.17788 
L 301.748922 173.977406 
L 302.852749 179.825752 
L 303.721822 185.71356 
L 304.35475 191.631413 
L 304.672359 196.05747 
L 308.08481 191.181328 
L 311.689525 186.445548 
L 315.480737 181.857707 
L 319.452382 177.425143 
L 323.598104 173.154948 
L 327.911273 169.053954 
L 331.231881 166.110415 
L 325.285787 166.366438 
L 319.334211 166.384475 
L 313.386675 166.164498 
L 307.452692 165.706859 
L 301.541757 165.01229 
L 295.663325 164.081903 
L 291.307326 163.235659 
L 295.126277 167.800437 
L 298.75963 172.514281 
L 302.201574 177.36965 
L 305.446602 182.358775 
L 308.489522 187.473677 
L 311.325466 192.706172 
L 313.30245 196.678877 
L 314.604089 190.871355 
L 316.136926 185.12053 
L 317.898508 179.435602 
L 319.886018 173.825665 
L 322.096276 168.299695 
L 324.525745 162.866533 
L 326.477416 158.88133 
L 321.075464 161.379429 
L 315.577936 163.659508 
L 309.993626 165.717922 
L 304.331468 167.551376 
L 298.600522 169.156938 
L 292.809953 170.532038 
L 288.459426 171.405976 
L 293.727425 174.175411 
L 298.880462 177.153295 
L 303.910293 180.334863 
L 308.808873 183.715026 
L 313.568363 187.288376 
L 318.181151 191.049196 
L 321.520418 193.97155 
L 328.379698 196.852693 
L 335.308857 199.561472 
L 342.303562 202.096194 
L 349.359443 204.455273 
L 356.47209 206.637238 
L 363.637058 208.640722 
L 370.849869 210.464475 
L 378.106016 212.107357 
L 384.96 213.485402 
L 377.667265 214.957383 
L 370.413604 216.611203 
L 363.203551 218.445828 
L 356.041611 220.460113 
L 348.932262 222.652799 
L 341.879946 225.022514 
L 334.88907 227.567779 
L 327.964003 230.287001 
L 321.109074 233.178483 
L 314.328567 236.240417 
L 307.626719 239.470888 
L 301.007718 242.86788 
L 294.475702 246.429267 
L 290.112723 248.928 
L 283.641805 245.256769 
L 277.081138 241.748441 
L 270.434822 238.405209 
L 263.707011 235.229162 
L 256.901909 232.222285 
L 250.02377 229.386458 
L 243.076891 226.723453 
L 236.16 224.267128 
L 231.378408 220.723407 
L 226.458931 217.373732 
L 221.409437 214.223464 
L 216.238005 211.277641 
L 210.952908 208.540977 
L 205.562601 206.01785 
L 200.075707 203.712295 
L 194.501005 201.628002 
L 189.033929 199.825684 
L 185.236934 197.479591 
L 181.587453 194.910037 
L 178.09862 192.12627 
L 174.782991 189.138307 
L 171.652498 185.956903 
L 168.718408 182.593506 
L 165.991281 179.060223 
L 163.480931 175.369767 
L 161.196392 171.535422 
L 159.145888 167.570987 
L 157.336796 163.490728 
L 155.775629 159.309332 
L 154.468004 155.041846 
L 153.418627 150.703629 
L 152.631276 146.310294 
L 152.108784 141.877651 
L 151.897177 138.659285 
L 153.889451 142.653301 
L 155.638642 146.759595 
L 157.138455 150.963388 
L 158.383494 155.249552 
L 159.369276 159.60266 
L 160.092255 164.007046 
L 160.549829 168.44686 
L 160.740349 172.906122 
L 160.663132 177.368785 
L 160.318455 181.818787 
L 159.707558 186.240112 
L 158.83264 190.616851 
L 157.696849 194.933249 
L 156.304274 199.173774 
L 154.659925 203.323164 
L 152.769722 207.366486 
L 151.254713 210.213837 
L 147.352666 214.70779 
L 143.633451 219.354188 
L 140.103017 224.145599 
L 136.767012 229.074356 
L 133.630774 234.132576 
L 130.699319 239.312166 
L 127.977337 244.60484 
L 125.94753 248.928 
L 123.396805 243.550698 
L 120.633085 238.279698 
L 117.660792 233.123434 
L 114.484682 228.090155 
L 111.109834 223.187912 
L 107.541648 218.424549 
L 103.785833 213.807685 
L 99.848397 209.344706 
L 95.735639 205.042753 
L 91.454138 200.908707 
L 87.36 197.249029 
L 91.791124 193.275778 
L 96.059815 189.128507 
L 100.159246 184.813852 
L 104.082857 180.338715 
L 107.824372 175.710254 
L 111.377805 170.935875 
L 114.737471 166.023216 
L 117.897997 160.980135 
L 120.854324 155.814701 
L 123.601725 150.535178 
L 126.135803 145.15001 
L 128.452505 139.667814 
L 130.548125 134.09736 
L 132.419309 128.447559 
L 134.063065 122.72745 
L 135.476763 116.946184 
L 136.658141 111.113009 
L 137.60531 105.237258 
L 138.234478 100.128 
L 138.977833 106.032998 
L 139.956732 111.903547 
L 141.169606 117.730254 
L 142.614516 123.503798 
L 144.289151 129.214943 
L 146.190831 134.854553 
L 150.51721 146.958981 
L 151.61529 151.285126 
L 152.451982 155.669333 
L 153.024274 160.095821 
L 153.330105 164.548661 
L 153.368377 169.011828 
L 153.13895 173.469258 
L 152.64265 177.904909 
L 151.881264 182.302819 
L 150.857532 186.647159 
L 149.575139 190.922295 
L 148.038698 195.11284 
L 146.25374 199.203713 
L 144.22669 203.180192 
L 141.640045 207.572639 
L 138.66721 212.728591 
L 135.902937 217.9993 
L 133.351647 223.376335 
L 131.017422 228.851093 
L 128.903996 234.414815 
L 127.01475 240.058602 
L 125.352707 245.773424 
L 124.540229 248.928 
L 123.003685 243.178164 
L 121.238438 237.494373 
L 119.247311 231.885719 
L 117.033492 226.361175 
L 114.60052 220.92958 
L 111.952289 215.599622 
L 109.093034 210.379828 
L 106.02733 205.27855 
L 102.760082 200.303947 
L 99.296516 195.463979 
L 95.642174 190.766388 
L 91.802901 186.218689 
L 87.78484 181.828158 
L 87.36 181.384021 
L 91.396162 177.010124 
L 95.254186 172.478322 
L 98.9279 167.795865 
L 102.411427 162.970244 
L 105.699195 158.009179 
L 108.785943 152.920606 
L 111.666733 147.712667 
L 114.336957 142.393693 
L 116.792343 136.972193 
L 119.028963 131.456841 
L 121.043238 125.856459 
L 122.831946 120.180008 
L 124.392227 114.436567 
L 125.721583 108.635327 
L 126.817887 102.785566 
L 127.236466 100.128 
L 128.226831 105.996625 
L 129.451086 111.820951 
L 130.907273 117.591662 
L 132.593063 123.299524 
L 134.505757 128.935408 
L 136.642297 134.490296 
L 138.999264 139.955301 
L 140.810287 143.787969 
L 142.938125 147.71144 
L 144.826867 151.755444 
L 146.469716 155.905428 
L 147.860759 160.146456 
L 148.99499 164.463265 
L 149.868327 168.840319 
L 150.477627 173.261865 
L 150.820696 177.711991 
L 150.896301 182.174681 
L 150.704169 186.633874 
L 150.244992 191.073522 
L 149.520421 195.477647 
L 148.533066 199.830399 
L 147.286479 204.116112 
L 145.849677 208.153907 
L 148.156726 204.333064 
L 150.688737 200.657436 
L 153.436596 197.140252 
L 156.390416 193.794169 
L 159.539565 190.631231 
L 162.87271 187.662819 
L 166.377854 184.899618 
L 170.042384 182.351572 
L 173.853111 180.027851 
L 177.79632 177.936817 
L 181.85782 176.085997 
L 186.022994 174.482052 
L 190.276852 173.130753 
L 194.604085 172.036964 
L 203.142943 170.1446 
L 208.86072 168.49275 
L 214.507866 166.61357 
L 220.075349 164.510068 
L 225.55426 162.185609 
L 230.935835 159.643911 
L 236.16 156.917225 
L 236.16 156.917225 
" style="fill:none;stroke:#1f77b4;stroke-linecap:square;stroke-width:1.5;"/>
   </g>
   <g id="patch_5">
    <path d="M 57.6 263.808 
L 57.6 85.248 
" style="fill:none;stroke:#000000;stroke-linecap:square;stroke-linejoin:miter;stroke-width:0.8;"/>
   </g>
   <g id="patch_6">
    <path d="M 414.72 263.808 
L 414.72 85.248 
" style="fill:none;stroke:#000000;stroke-linecap:square;stroke-linejoin:miter;stroke-width:0.8;"/>
   </g>
   <g id="patch_7">
    <path d="M 57.6 263.808 
L 414.72 263.808 
" style="fill:none;stroke:#000000;stroke-linecap:square;stroke-linejoin:miter;stroke-width:0.8;"/>
   </g>
   <g id="patch_8">
    <path d="M 57.6 85.248 
L 414.72 85.248 
" style="fill:none;stroke:#000000;stroke-linecap:square;stroke-linejoin:miter;stroke-width:0.8;"/>
   </g>
  </g>
 </g>
 <defs>
  <clipPath id="p48f1ec6fca">
   <rect height="178.56" width="357.12" x="57.6" y="85.248"/>
  </clipPath>
 </defs>
</svg>
