<?xml version="1.0" encoding="utf-8" standalone="no"?>
<!DOCTYPE svg PUBLIC "-//W3C//DTD SVG 1.1//EN"
  "http://www.w3.org/Graphics/SVG/1.1/DTD/svg11.dtd">
<!-- Created with matplotlib (https://matplotlib.org/) -->
<svg height="345.6pt" version="1.1" viewBox="0 0 460.8 345.6" width="460.8pt" xmlns="http://www.w3.org/2000/svg" xmlns:xlink="http://www.w3.org/1999/xlink">
 <defs>
  <style type="text/css">
*{stroke-linecap:butt;stroke-linejoin:round;}
  </style>
 </defs>
 <g id="figure_1">
  <g id="patch_1">
   <path d="M 0 345.6 
L 460.8 345.6 
L 460.8 0 
L 0 0 
z
" style="fill:#ffffff;"/>
  </g>
  <g id="axes_1">
   <g id="patch_2">
    <path d="M 82.520165 307.584 
L 389.799835 307.584 
L 389.799835 41.472 
L 82.520165 41.472 
z
" style="fill:#ffffff;"/>
   </g>
   <g id="patch_3">
    <path clip-path="url(#p9a8b72aa6e)" d="M 236.16 225.741278 
C 249.74192 225.741278 262.769389 220.345124 272.373256 210.741256 
C 281.977124 201.137389 287.373278 188.10992 287.373278 174.528 
C 287.373278 160.94608 281.977124 147.918611 272.373256 138.314744 
C 262.769389 128.710876 249.74192 123.314722 236.16 123.314722 
C 222.57808 123.314722 209.550611 128.710876 199.946744 138.314744 
C 190.342876 147.918611 184.946722 160.94608 184.946722 174.528 
C 184.946722 188.10992 190.342876 201.137389 199.946744 210.741256 
C 209.550611 220.345124 222.57808 225.741278 236.16 225.741278 
z
" style="fill:#009900;fill-opacity:0.5;stroke:#009900;stroke-linejoin:miter;stroke-width:2;"/>
   </g>
   <g id="matplotlib.axis_1">
    <g id="xtick_1">
     <g id="line2d_1">
      <defs>
       <path d="M 0 0 
L 0 3.5 
" id="m8c1eb8186d" style="stroke:#000000;stroke-width:0.8;"/>
      </defs>
      <g>
       <use style="stroke:#000000;stroke-width:0.8;" x="108.126804" xlink:href="#m8c1eb8186d" y="307.584"/>
      </g>
     </g>
     <g id="text_1">
      <!-- −2 -->
      <defs>
       <path d="M 10.59375 35.5 
L 73.1875 35.5 
L 73.1875 27.203125 
L 10.59375 27.203125 
z
" id="DejaVuSans-8722"/>
       <path d="M 19.1875 8.296875 
L 53.609375 8.296875 
L 53.609375 0 
L 7.328125 0 
L 7.328125 8.296875 
Q 12.9375 14.109375 22.625 23.890625 
Q 32.328125 33.6875 34.8125 36.53125 
Q 39.546875 41.84375 41.421875 45.53125 
Q 43.3125 49.21875 43.3125 52.78125 
Q 43.3125 58.59375 39.234375 62.25 
Q 35.15625 65.921875 28.609375 65.921875 
Q 23.96875 65.921875 18.8125 64.3125 
Q 13.671875 62.703125 7.8125 59.421875 
L 7.8125 69.390625 
Q 13.765625 71.78125 18.9375 73 
Q 24.125 74.21875 28.421875 74.21875 
Q 39.75 74.21875 46.484375 68.546875 
Q 53.21875 62.890625 53.21875 53.421875 
Q 53.21875 48.921875 51.53125 44.890625 
Q 49.859375 40.875 45.40625 35.40625 
Q 44.1875 33.984375 37.640625 27.21875 
Q 31.109375 20.453125 19.1875 8.296875 
z
" id="DejaVuSans-50"/>
      </defs>
      <g transform="translate(100.755711 322.182437)scale(0.1 -0.1)">
       <use xlink:href="#DejaVuSans-8722"/>
       <use x="83.789062" xlink:href="#DejaVuSans-50"/>
      </g>
     </g>
    </g>
    <g id="xtick_2">
     <g id="line2d_2">
      <g>
       <use style="stroke:#000000;stroke-width:0.8;" x="172.143402" xlink:href="#m8c1eb8186d" y="307.584"/>
      </g>
     </g>
     <g id="text_2">
      <!-- −1 -->
      <defs>
       <path d="M 12.40625 8.296875 
L 28.515625 8.296875 
L 28.515625 63.921875 
L 10.984375 60.40625 
L 10.984375 69.390625 
L 28.421875 72.90625 
L 38.28125 72.90625 
L 38.28125 8.296875 
L 54.390625 8.296875 
L 54.390625 0 
L 12.40625 0 
z
" id="DejaVuSans-49"/>
      </defs>
      <g transform="translate(164.772308 322.182437)scale(0.1 -0.1)">
       <use xlink:href="#DejaVuSans-8722"/>
       <use x="83.789062" xlink:href="#DejaVuSans-49"/>
      </g>
     </g>
    </g>
    <g id="xtick_3">
     <g id="line2d_3">
      <g>
       <use style="stroke:#000000;stroke-width:0.8;" x="236.16" xlink:href="#m8c1eb8186d" y="307.584"/>
      </g>
     </g>
     <g id="text_3">
      <!-- 0 -->
      <defs>
       <path d="M 31.78125 66.40625 
Q 24.171875 66.40625 20.328125 58.90625 
Q 16.5 51.421875 16.5 36.375 
Q 16.5 21.390625 20.328125 13.890625 
Q 24.171875 6.390625 31.78125 6.390625 
Q 39.453125 6.390625 43.28125 13.890625 
Q 47.125 21.390625 47.125 36.375 
Q 47.125 51.421875 43.28125 58.90625 
Q 39.453125 66.40625 31.78125 66.40625 
z
M 31.78125 74.21875 
Q 44.046875 74.21875 50.515625 64.515625 
Q 56.984375 54.828125 56.984375 36.375 
Q 56.984375 17.96875 50.515625 8.265625 
Q 44.046875 -1.421875 31.78125 -1.421875 
Q 19.53125 -1.421875 13.0625 8.265625 
Q 6.59375 17.96875 6.59375 36.375 
Q 6.59375 54.828125 13.0625 64.515625 
Q 19.53125 74.21875 31.78125 74.21875 
z
" id="DejaVuSans-48"/>
      </defs>
      <g transform="translate(232.97875 322.182437)scale(0.1 -0.1)">
       <use xlink:href="#DejaVuSans-48"/>
      </g>
     </g>
    </g>
    <g id="xtick_4">
     <g id="line2d_4">
      <g>
       <use style="stroke:#000000;stroke-width:0.8;" x="300.176598" xlink:href="#m8c1eb8186d" y="307.584"/>
      </g>
     </g>
     <g id="text_4">
      <!-- 1 -->
      <g transform="translate(296.995348 322.182437)scale(0.1 -0.1)">
       <use xlink:href="#DejaVuSans-49"/>
      </g>
     </g>
    </g>
    <g id="xtick_5">
     <g id="line2d_5">
      <g>
       <use style="stroke:#000000;stroke-width:0.8;" x="364.193196" xlink:href="#m8c1eb8186d" y="307.584"/>
      </g>
     </g>
     <g id="text_5">
      <!-- 2 -->
      <g transform="translate(361.011946 322.182437)scale(0.1 -0.1)">
       <use xlink:href="#DejaVuSans-50"/>
      </g>
     </g>
    </g>
   </g>
   <g id="matplotlib.axis_2">
    <g id="ytick_1">
     <g id="line2d_6">
      <defs>
       <path d="M 0 0 
L -3.5 0 
" id="mf5838587a3" style="stroke:#000000;stroke-width:0.8;"/>
      </defs>
      <g>
       <use style="stroke:#000000;stroke-width:0.8;" x="82.520165" xlink:href="#mf5838587a3" y="302.561196"/>
      </g>
     </g>
     <g id="text_6">
      <!-- −2.0 -->
      <defs>
       <path d="M 10.6875 12.40625 
L 21 12.40625 
L 21 0 
L 10.6875 0 
z
" id="DejaVuSans-46"/>
      </defs>
      <g transform="translate(51.237353 306.360414)scale(0.1 -0.1)">
       <use xlink:href="#DejaVuSans-8722"/>
       <use x="83.789062" xlink:href="#DejaVuSans-50"/>
       <use x="147.412109" xlink:href="#DejaVuSans-46"/>
       <use x="179.199219" xlink:href="#DejaVuSans-48"/>
      </g>
     </g>
    </g>
    <g id="ytick_2">
     <g id="line2d_7">
      <g>
       <use style="stroke:#000000;stroke-width:0.8;" x="82.520165" xlink:href="#mf5838587a3" y="270.552897"/>
      </g>
     </g>
     <g id="text_7">
      <!-- −1.5 -->
      <defs>
       <path d="M 10.796875 72.90625 
L 49.515625 72.90625 
L 49.515625 64.59375 
L 19.828125 64.59375 
L 19.828125 46.734375 
Q 21.96875 47.46875 24.109375 47.828125 
Q 26.265625 48.1875 28.421875 48.1875 
Q 40.625 48.1875 47.75 41.5 
Q 54.890625 34.8125 54.890625 23.390625 
Q 54.890625 11.625 47.5625 5.09375 
Q 40.234375 -1.421875 26.90625 -1.421875 
Q 22.3125 -1.421875 17.546875 -0.640625 
Q 12.796875 0.140625 7.71875 1.703125 
L 7.71875 11.625 
Q 12.109375 9.234375 16.796875 8.0625 
Q 21.484375 6.890625 26.703125 6.890625 
Q 35.15625 6.890625 40.078125 11.328125 
Q 45.015625 15.765625 45.015625 23.390625 
Q 45.015625 31 40.078125 35.4375 
Q 35.15625 39.890625 26.703125 39.890625 
Q 22.75 39.890625 18.8125 39.015625 
Q 14.890625 38.140625 10.796875 36.28125 
z
" id="DejaVuSans-53"/>
      </defs>
      <g transform="translate(51.237353 274.352116)scale(0.1 -0.1)">
       <use xlink:href="#DejaVuSans-8722"/>
       <use x="83.789062" xlink:href="#DejaVuSans-49"/>
       <use x="147.412109" xlink:href="#DejaVuSans-46"/>
       <use x="179.199219" xlink:href="#DejaVuSans-53"/>
      </g>
     </g>
    </g>
    <g id="ytick_3">
     <g id="line2d_8">
      <g>
       <use style="stroke:#000000;stroke-width:0.8;" x="82.520165" xlink:href="#mf5838587a3" y="238.544598"/>
      </g>
     </g>
     <g id="text_8">
      <!-- −1.0 -->
      <g transform="translate(51.237353 242.343817)scale(0.1 -0.1)">
       <use xlink:href="#DejaVuSans-8722"/>
       <use x="83.789062" xlink:href="#DejaVuSans-49"/>
       <use x="147.412109" xlink:href="#DejaVuSans-46"/>
       <use x="179.199219" xlink:href="#DejaVuSans-48"/>
      </g>
     </g>
    </g>
    <g id="ytick_4">
     <g id="line2d_9">
      <g>
       <use style="stroke:#000000;stroke-width:0.8;" x="82.520165" xlink:href="#mf5838587a3" y="206.536299"/>
      </g>
     </g>
     <g id="text_9">
      <!-- −0.5 -->
      <g transform="translate(51.237353 210.335518)scale(0.1 -0.1)">
       <use xlink:href="#DejaVuSans-8722"/>
       <use x="83.789062" xlink:href="#DejaVuSans-48"/>
       <use x="147.412109" xlink:href="#DejaVuSans-46"/>
       <use x="179.199219" xlink:href="#DejaVuSans-53"/>
      </g>
     </g>
    </g>
    <g id="ytick_5">
     <g id="line2d_10">
      <g>
       <use style="stroke:#000000;stroke-width:0.8;" x="82.520165" xlink:href="#mf5838587a3" y="174.528"/>
      </g>
     </g>
     <g id="text_10">
      <!-- 0.0 -->
      <g transform="translate(59.61704 178.327219)scale(0.1 -0.1)">
       <use xlink:href="#DejaVuSans-48"/>
       <use x="63.623047" xlink:href="#DejaVuSans-46"/>
       <use x="95.410156" xlink:href="#DejaVuSans-48"/>
      </g>
     </g>
    </g>
    <g id="ytick_6">
     <g id="line2d_11">
      <g>
       <use style="stroke:#000000;stroke-width:0.8;" x="82.520165" xlink:href="#mf5838587a3" y="142.519701"/>
      </g>
     </g>
     <g id="text_11">
      <!-- 0.5 -->
      <g transform="translate(59.61704 146.31892)scale(0.1 -0.1)">
       <use xlink:href="#DejaVuSans-48"/>
       <use x="63.623047" xlink:href="#DejaVuSans-46"/>
       <use x="95.410156" xlink:href="#DejaVuSans-53"/>
      </g>
     </g>
    </g>
    <g id="ytick_7">
     <g id="line2d_12">
      <g>
       <use style="stroke:#000000;stroke-width:0.8;" x="82.520165" xlink:href="#mf5838587a3" y="110.511402"/>
      </g>
     </g>
     <g id="text_12">
      <!-- 1.0 -->
      <g transform="translate(59.61704 114.310621)scale(0.1 -0.1)">
       <use xlink:href="#DejaVuSans-49"/>
       <use x="63.623047" xlink:href="#DejaVuSans-46"/>
       <use x="95.410156" xlink:href="#DejaVuSans-48"/>
      </g>
     </g>
    </g>
    <g id="ytick_8">
     <g id="line2d_13">
      <g>
       <use style="stroke:#000000;stroke-width:0.8;" x="82.520165" xlink:href="#mf5838587a3" y="78.503103"/>
      </g>
     </g>
     <g id="text_13">
      <!-- 1.5 -->
      <g transform="translate(59.61704 82.302322)scale(0.1 -0.1)">
       <use xlink:href="#DejaVuSans-49"/>
       <use x="63.623047" xlink:href="#DejaVuSans-46"/>
       <use x="95.410156" xlink:href="#DejaVuSans-53"/>
      </g>
     </g>
    </g>
    <g id="ytick_9">
     <g id="line2d_14">
      <g>
       <use style="stroke:#000000;stroke-width:0.8;" x="82.520165" xlink:href="#mf5838587a3" y="46.494804"/>
      </g>
     </g>
     <g id="text_14">
      <!-- 2.0 -->
      <g transform="translate(59.61704 50.294023)scale(0.1 -0.1)">
       <use xlink:href="#DejaVuSans-50"/>
       <use x="63.623047" xlink:href="#DejaVuSans-46"/>
       <use x="95.410156" xlink:href="#DejaVuSans-48"/>
      </g>
     </g>
    </g>
   </g>
   <g id="line2d_15">
    <path clip-path="url(#p9a8b72aa6e)" d="M 300.176598 63.648 
L 172.143402 63.648 
" style="fill:none;stroke:#009900;stroke-linecap:square;stroke-width:2;"/>
   </g>
   <g id="line2d_16">
    <path clip-path="url(#p9a8b72aa6e)" d="M 172.143402 63.648 
L 108.126804 174.528 
" style="fill:none;stroke:#009900;stroke-linecap:square;stroke-width:2;"/>
   </g>
   <g id="line2d_17">
    <path clip-path="url(#p9a8b72aa6e)" d="M 108.126804 174.528 
L 172.143402 285.408 
" style="fill:none;stroke:#009900;stroke-linecap:square;stroke-width:2;"/>
   </g>
   <g id="line2d_18">
    <path clip-path="url(#p9a8b72aa6e)" d="M 172.143402 285.408 
L 300.176598 285.408 
" style="fill:none;stroke:#009900;stroke-linecap:square;stroke-width:2;"/>
   </g>
   <g id="line2d_19">
    <path clip-path="url(#p9a8b72aa6e)" d="M 300.176598 285.408 
L 364.193196 174.528 
" style="fill:none;stroke:#009900;stroke-linecap:square;stroke-width:2;"/>
   </g>
   <g id="line2d_20">
    <path clip-path="url(#p9a8b72aa6e)" d="M 364.193196 174.528 
L 300.176598 63.648 
" style="fill:none;stroke:#009900;stroke-linecap:square;stroke-width:2;"/>
   </g>
   <g id="line2d_21">
    <path clip-path="url(#p9a8b72aa6e)" d="M 180.87655 108.467471 
L 176.090746 110.289717 
L 171.381641 112.301887 
L 166.756767 114.500761 
L 162.223525 116.882822 
L 157.789165 119.444259 
L 153.460783 122.180974 
L 149.245303 125.088589 
L 145.149468 128.162453 
L 141.179831 131.397647 
L 137.342742 134.788997 
L 133.644341 138.331077 
L 130.090543 142.01822 
L 126.687035 145.844528 
L 123.43926 149.803879 
L 120.352415 153.889939 
L 118.663141 156.278529 
L 116.560691 160.948026 
L 114.646652 165.697864 
L 112.924088 170.520443 
L 111.395753 175.40805 
L 110.501233 178.640631 
L 115.467133 179.891366 
L 120.479077 180.942517 
L 125.529047 181.792404 
L 130.608963 182.439665 
L 135.7107 182.883267 
L 140.826096 183.122498 
L 145.946966 183.156977 
L 151.065119 182.986648 
L 156.172367 182.611784 
L 161.260539 182.032984 
L 166.321495 181.251175 
L 171.347138 180.267607 
L 176.32943 179.083853 
L 181.260399 177.701808 
L 184.985269 176.514643 
L 179.994737 175.366126 
L 174.962268 174.418096 
L 169.895914 173.672069 
L 164.803779 173.129239 
L 159.69401 172.790475 
L 154.574781 172.656317 
L 149.454282 172.726982 
L 144.340705 173.002355 
L 139.24223 173.481997 
L 134.167014 174.165139 
L 129.123176 175.05069 
L 124.118785 176.137232 
L 119.161847 177.423027 
L 114.260292 178.906018 
L 111.243693 179.926609 
L 115.064756 176.517213 
L 118.746423 172.957743 
L 122.282804 169.253892 
L 125.668241 165.411586 
L 128.89732 161.436973 
L 131.964874 157.33641 
L 134.865995 153.116457 
L 137.596042 148.783866 
L 140.150648 144.345568 
L 142.525726 139.808664 
L 144.717477 135.18041 
L 146.722393 130.468212 
L 148.537269 125.679608 
L 150.159199 120.822258 
L 151.58559 115.903934 
L 152.814159 110.932504 
L 153.842942 105.915921 
L 154.670292 100.86221 
L 155.294885 95.779456 
L 155.604515 92.294193 
L 159.776712 89.324804 
L 163.826828 86.190947 
L 167.748384 82.897635 
L 171.535105 79.450137 
L 175.180934 75.853968 
L 178.680039 72.114881 
L 182.026821 68.238858 
L 185.215926 64.2321 
L 185.659401 63.648 
L 188.825504 67.672959 
L 192.150029 71.568089 
L 195.627659 75.327157 
L 199.252829 78.94415 
L 203.019741 82.413282 
L 206.922368 85.729003 
L 210.954467 88.886008 
L 215.109587 91.879247 
L 219.381081 94.703931 
L 223.762116 97.355541 
L 228.245682 99.829836 
L 232.824608 102.122857 
L 237.491567 104.230935 
L 242.239093 106.150698 
L 247.059593 107.879076 
L 251.945353 109.413302 
L 256.888557 110.750923 
L 261.881299 111.889799 
L 266.915589 112.828107 
L 271.983375 113.564347 
L 277.076549 114.09734 
L 282.186962 114.426234 
L 287.306441 114.550504 
L 292.426794 114.469949 
L 297.539829 114.184699 
L 302.637368 113.695211 
L 307.711255 113.002267 
L 312.753374 112.106975 
L 317.755656 111.010769 
L 322.710102 109.715402 
L 326.176681 108.681465 
L 322.476154 112.221324 
L 318.920144 115.906333 
L 315.51434 119.730598 
L 312.264189 123.687999 
L 309.174893 127.772206 
L 306.251392 131.976685 
L 303.498363 136.29471 
L 300.920212 140.719372 
L 298.521063 145.243594 
L 296.304753 149.860138 
L 294.274828 154.561617 
L 292.434537 159.340511 
L 290.786822 164.189174 
L 289.334319 169.099851 
L 288.079354 174.064683 
L 287.266682 177.830569 
L 287.718944 182.931546 
L 288.374829 188.010356 
L 289.233287 193.058876 
L 290.292946 198.069028 
L 291.55211 203.032798 
L 293.008765 207.942244 
L 294.66058 212.789512 
L 296.504912 217.566848 
L 298.538812 222.266609 
L 300.759025 226.881276 
L 303.162 231.403468 
L 305.743892 235.825948 
L 308.500571 240.141643 
L 311.427627 244.343648 
L 314.520377 248.425241 
L 317.773873 252.379892 
L 318.656761 253.399419 
L 313.614316 252.505969 
L 308.540176 251.814879 
L 303.442459 251.327252 
L 298.329319 251.04387 
L 293.208937 250.965185 
L 288.089505 251.091324 
L 282.979211 251.422085 
L 277.886232 251.956939 
L 272.818716 252.695029 
L 267.784768 253.635176 
L 262.792443 254.775875 
L 257.849728 256.115301 
L 252.964528 257.651312 
L 248.144661 259.38145 
L 243.397836 261.302948 
L 238.731647 263.41273 
L 234.153559 265.707423 
L 229.670897 268.183356 
L 225.290831 270.836566 
L 221.020369 273.66281 
L 216.866342 276.657566 
L 212.835397 279.816044 
L 208.933981 283.133189 
L 206.431819 285.408 
L 202.61937 281.988975 
L 198.673246 278.725142 
L 194.599759 275.621722 
L 190.405428 272.683681 
L 186.096961 269.915719 
L 181.681252 267.322263 
L 177.165364 264.907463 
L 172.556522 262.675182 
L 167.862099 260.628991 
L 163.089606 258.772164 
L 158.246677 257.107671 
L 155.275641 256.192181 
L 156.377364 251.19111 
L 157.278216 246.149983 
L 157.976755 241.076863 
L 158.471866 235.979867 
L 158.762754 230.867149 
L 158.848956 225.746888 
L 158.730334 220.627276 
L 158.407076 215.516502 
L 157.8797 210.422744 
L 157.14905 205.354149 
L 156.216295 200.318827 
L 155.082927 195.324833 
L 153.750759 190.380156 
L 152.221922 185.492706 
L 150.498862 180.670304 
L 148.584336 175.920663 
L 146.481406 171.251381 
L 144.193437 166.66993 
L 141.724089 162.183637 
L 139.077312 157.799681 
L 136.257341 153.525074 
L 133.268687 149.366655 
L 130.116131 145.331077 
L 127.066913 141.722769 
L 132.108371 142.621773 
L 137.181746 143.318453 
L 142.278923 143.811695 
L 147.391748 144.10071 
L 152.51204 144.185035 
L 157.631608 144.064535 
L 162.742263 143.739404 
L 167.835828 143.210161 
L 172.904154 142.477653 
L 177.939134 141.543053 
L 182.932713 140.407854 
L 187.876901 139.073873 
L 192.763789 137.543245 
L 197.58556 135.818418 
L 202.334499 133.90215 
L 207.003009 131.797509 
L 211.583622 129.507861 
L 216.069009 127.036868 
L 220.451995 124.388485 
L 224.725568 121.566947 
L 228.882891 118.576768 
L 232.917314 115.422733 
L 236.822381 112.109887 
L 240.591847 108.64353 
L 244.21968 105.029207 
L 247.700076 101.272701 
L 251.027469 97.38002 
L 254.196534 93.357394 
L 257.202202 89.211256 
L 260.039665 84.948239 
L 262.704383 80.575165 
L 265.192093 76.099028 
L 267.498815 71.52699 
L 269.62086 66.866364 
L 270.957551 63.648 
L 272.951965 68.364653 
L 275.133399 72.997778 
L 277.498363 77.539963 
L 280.043075 81.983941 
L 282.763463 86.322604 
L 285.655176 90.549009 
L 288.713586 94.656396 
L 291.933802 98.638194 
L 295.310671 102.488032 
L 298.838792 106.199752 
L 302.512519 109.767416 
L 306.325977 113.185317 
L 310.273064 116.447985 
L 314.347465 119.550203 
L 318.542663 122.487007 
L 322.851947 125.253698 
L 327.268421 127.845851 
L 331.785021 130.259318 
L 336.394521 132.490239 
L 341.107528 134.54245 
L 340.530096 139.630778 
L 340.156604 144.738126 
L 339.987651 149.856324 
L 340.023506 154.977185 
L 340.264113 160.092516 
L 340.709085 165.194134 
L 341.357712 170.273876 
L 342.208956 175.323618 
L 343.261455 180.335279 
L 344.513524 185.300843 
L 345.963162 190.212365 
L 347.608049 195.061989 
L 349.500485 199.976521 
L 344.441257 200.769436 
L 339.417784 201.764032 
L 334.438103 202.958718 
L 329.510179 204.351583 
L 324.641897 205.940397 
L 319.841045 207.72262 
L 315.115303 209.695401 
L 310.472231 211.855582 
L 305.919257 214.199709 
L 301.463665 216.724032 
L 297.112583 219.424511 
L 292.872972 222.296827 
L 288.751614 225.336385 
L 284.755103 228.538322 
L 280.889832 231.897515 
L 277.161984 235.408591 
L 273.577524 239.065933 
L 270.142186 242.863689 
L 266.861466 246.795785 
L 263.740611 250.855929 
L 260.784616 255.037626 
L 257.998208 259.334187 
L 255.385846 263.738737 
L 252.951708 268.244231 
L 250.699689 272.843461 
L 248.633392 277.529068 
L 246.756121 282.293557 
L 245.645934 285.408 
L 243.89232 280.596624 
L 241.947706 275.859222 
L 239.815201 271.203374 
L 237.498217 266.636527 
L 235.000462 262.165988 
L 232.325931 257.798908 
L 229.478902 253.542274 
L 226.463931 249.402896 
L 223.285841 245.387396 
L 219.949715 241.502197 
L 216.460892 237.753516 
L 212.824952 234.147349 
L 209.047712 230.689465 
L 205.135215 227.385396 
L 201.09372 224.240429 
L 196.929693 221.259594 
L 192.649794 218.447659 
L 188.260872 215.809125 
L 183.769948 213.348211 
L 179.184205 211.068854 
L 174.510981 208.974702 
L 169.75775 207.069104 
L 164.932119 205.355108 
L 160.041805 203.835457 
L 155.094634 202.512583 
L 150.098519 201.3886 
L 145.061453 200.465308 
L 139.991494 199.744184 
L 134.896754 199.22638 
L 129.785382 198.912726 
L 124.665556 198.803723 
L 122.154749 198.825113 
L 124.707808 194.385925 
L 127.081304 189.848192 
L 129.271442 185.219175 
L 131.274716 180.506278 
L 133.087922 175.717042 
L 134.708159 170.859127 
L 136.132835 165.940306 
L 137.359672 160.968448 
L 138.386705 155.951506 
L 139.212294 150.897507 
L 139.835115 145.814536 
L 140.254174 140.710725 
L 140.4688 135.594238 
L 140.478649 130.473261 
L 140.283706 125.355986 
L 139.884282 120.250601 
L 139.821767 119.630715 
L 144.453556 117.446446 
L 148.994293 115.078703 
L 153.436713 112.531272 
L 157.77371 109.808229 
L 161.998345 106.913931 
L 166.10386 103.853008 
L 170.083686 100.630357 
L 173.931458 97.251132 
L 177.641018 93.720741 
L 181.206434 90.044831 
L 184.622 86.229283 
L 187.882253 82.2802 
L 190.981977 78.203901 
L 193.916213 74.006907 
L 196.680267 69.695932 
L 199.269716 65.277872 
L 200.166216 63.648 
L 202.691205 68.103214 
L 205.392336 72.453891 
L 208.265287 76.693072 
L 211.305461 80.813975 
L 214.507997 84.810007 
L 217.867769 88.674775 
L 221.379403 92.402097 
L 225.037281 95.986009 
L 228.835552 99.420778 
L 232.768139 102.70091 
L 236.82875 105.821157 
L 241.01089 108.776526 
L 245.307868 111.56229 
L 249.712809 114.173993 
L 254.218667 116.607456 
L 258.818234 118.858787 
L 263.504151 120.924383 
L 268.268921 122.80094 
L 273.104922 124.485455 
L 278.004418 125.975235 
L 282.95957 127.267896 
L 287.962451 128.36137 
L 293.005057 129.253907 
L 298.079322 129.944079 
L 303.177128 130.430783 
L 308.290318 130.71324 
L 313.410714 130.790998 
L 318.530124 130.663933 
L 323.640358 130.332247 
L 328.73324 129.796472 
L 333.800623 129.057464 
L 337.547787 128.376799 
L 334.255965 132.299605 
L 331.123646 136.350911 
L 328.155842 140.524236 
L 325.3573 144.812903 
L 322.732498 149.210051 
L 320.285634 153.708647 
L 318.020623 158.301492 
L 315.941089 162.98124 
L 314.050358 167.740403 
L 312.351456 172.571369 
L 310.847099 177.466409 
L 309.539696 182.417691 
L 308.431336 187.417296 
L 307.523794 192.457223 
L 306.818521 197.529411 
L 306.316646 202.625745 
L 306.018971 207.738073 
L 305.925973 212.858215 
L 306.0378 217.97798 
L 306.354274 223.089178 
L 306.874888 228.183632 
L 307.59881 233.253192 
L 308.524881 238.289748 
L 309.651619 243.285242 
L 310.977223 248.231683 
L 312.499571 253.121157 
L 314.216229 257.945843 
L 314.945472 259.82756 
L 309.894878 260.673733 
L 304.882163 261.721199 
L 299.915344 262.968282 
L 295.002369 264.412988 
L 290.151096 266.053005 
L 285.369287 267.885708 
L 280.664591 269.908168 
L 276.044536 272.117147 
L 271.516512 274.509112 
L 267.087762 277.080236 
L 262.765373 279.826407 
L 258.556259 282.743231 
L 255.002087 285.408 
L 250.896692 282.346916 
L 246.67217 279.452453 
L 242.33528 276.72924 
L 237.89296 274.181636 
L 233.352315 271.813714 
L 228.720612 269.629264 
L 224.005258 267.63178 
L 219.213798 265.824458 
L 214.353897 264.210189 
L 209.43333 262.791555 
L 204.459969 261.570826 
L 199.44177 260.549955 
L 194.38676 259.730575 
L 189.303028 259.113996 
L 184.198706 258.701206 
L 179.081959 258.492865 
L 173.960974 258.489306 
L 168.843943 258.690534 
L 163.739052 259.096228 
L 158.654467 259.705739 
L 157.408654 259.886668 
L 160.518949 255.818429 
L 163.464069 251.629065 
L 166.239304 247.325279 
L 168.840214 242.913956 
L 171.262637 238.402153 
L 173.502698 233.797088 
L 175.556815 229.106127 
L 177.421699 224.336777 
L 179.094369 219.496665 
L 180.572148 214.593537 
L 181.852673 209.635235 
L 182.933893 204.629691 
L 183.814081 199.584915 
L 184.491827 194.508975 
L 184.966047 189.409993 
L 185.235984 184.296126 
L 185.303758 180.564766 
L 183.987816 175.615747 
L 182.475018 170.723309 
L 180.767785 165.895281 
L 178.868848 161.139386 
L 176.781244 156.463232 
L 174.508315 151.8743 
L 172.053695 147.379932 
L 169.421311 142.987318 
L 166.615376 138.703485 
L 163.640377 134.535285 
L 160.501075 130.489388 
L 157.202491 126.572266 
L 153.749902 122.790186 
L 150.148833 119.149197 
L 146.405043 115.655125 
L 143.55104 113.171424 
L 148.402574 114.810669 
L 153.315779 116.254593 
L 158.282796 117.500886 
L 163.295678 118.547555 
L 168.346405 119.392924 
L 173.426899 120.035643 
L 178.529031 120.474681 
L 183.644638 120.709338 
L 188.765537 120.739237 
L 193.883536 120.56433 
L 198.990446 120.184899 
L 204.078098 119.601549 
L 209.138353 118.815213 
L 214.163115 117.827151 
L 219.144346 116.638942 
L 224.074077 115.252487 
L 228.944421 113.670005 
L 233.747587 111.894026 
L 238.47589 109.927393 
L 243.121768 107.773251 
L 247.677786 105.435047 
L 252.136657 102.916521 
L 256.491247 100.221702 
L 260.734589 97.354902 
L 264.859896 94.320706 
L 268.860568 91.123969 
L 272.730204 87.769805 
L 276.462615 84.26358 
L 280.051828 80.610903 
L 283.492102 76.817617 
L 286.777933 72.889791 
L 289.904064 68.833709 
L 292.865496 64.655859 
L 293.543079 63.648 
L 296.464748 67.853752 
L 299.552266 71.939304 
L 302.800692 75.898121 
L 306.204831 79.723868 
L 309.759235 83.410426 
L 313.825271 87.288195 
L 315.023432 92.267041 
L 316.419737 97.193991 
L 318.011949 102.061163 
L 319.797523 106.86077 
L 321.773602 111.585134 
L 323.937025 116.226696 
L 326.28433 120.778033 
L 328.811762 125.231861 
L 331.515278 129.581057 
L 334.390553 133.818662 
L 337.432987 137.937896 
L 340.637713 141.932171 
L 343.999604 145.795097 
L 347.513282 149.520492 
L 351.173125 153.102398 
L 352.570489 154.396882 
L 353.768651 159.375728 
L 355.164955 164.302678 
L 356.757168 169.16985 
L 358.542742 173.969457 
L 360.518821 178.693821 
L 361.073604 179.931291 
L 355.987537 180.528301 
L 350.929411 181.328221 
L 345.907321 182.329773 
L 340.929298 183.531354 
L 336.003308 184.931041 
L 331.137231 186.526596 
L 326.338851 188.315465 
L 321.615846 190.294788 
L 316.97577 192.461397 
L 312.426046 194.811827 
L 307.973955 197.342317 
L 303.626617 200.048819 
L 299.390987 202.927004 
L 295.273843 205.972266 
L 291.281769 209.179734 
L 287.421154 212.544277 
L 283.698172 216.060512 
L 280.11878 219.722814 
L 276.688704 223.525324 
L 273.413432 227.461959 
L 270.298203 231.526421 
L 267.348001 235.712208 
L 264.567546 240.012623 
L 261.961286 244.420787 
L 259.53339 248.929647 
L 257.287742 253.531991 
L 255.227935 258.220455 
L 253.357265 262.987539 
L 251.678723 267.825618 
L 250.194995 272.726949 
L 248.908455 277.683694 
L 247.821162 282.687922 
L 247.317344 285.408 
L 246.338421 280.381449 
L 245.159273 275.398066 
L 243.781786 270.465822 
L 242.208164 265.592608 
L 240.440924 260.78622 
L 238.482893 256.054347 
L 236.337204 251.40456 
L 234.007289 246.844297 
L 231.496877 242.380853 
L 228.809982 238.02137 
L 225.950903 233.77282 
L 222.924215 229.642002 
L 219.734759 225.635523 
L 216.403062 221.77695 
L 211.293405 222.117411 
L 206.201451 222.661932 
L 201.135345 223.409641 
L 196.103191 224.359342 
L 191.113041 225.509515 
L 186.172876 226.858322 
L 181.290602 228.403604 
L 176.474027 230.142888 
L 171.730858 232.073393 
L 167.068682 234.19203 
L 162.494959 236.495409 
L 158.017005 238.979846 
L 153.641984 241.641366 
L 149.376894 244.475712 
L 148.759846 244.906493 
L 149.339774 244.635394 
L 153.928931 242.362918 
L 158.423541 239.908742 
L 162.816416 237.276793 
L 167.100527 234.471282 
L 171.26902 231.496695 
L 175.315228 228.357793 
L 179.232676 225.059596 
L 183.015098 221.607382 
L 186.656443 218.006672 
L 190.150885 214.263228 
L 193.492834 210.383037 
L 196.371357 206.771817 
L 191.796901 209.073742 
L 187.318157 211.556755 
L 182.94229 214.216884 
L 178.676299 217.049873 
L 174.52701 220.05119 
L 170.501061 223.216034 
L 166.604893 226.539341 
L 162.844737 230.015795 
L 159.226611 233.639835 
L 155.756301 237.405662 
L 152.43936 241.307252 
L 149.127446 245.543194 
L 154.199053 244.833753 
L 159.238233 243.922069 
L 164.236924 242.809601 
L 169.18713 241.498129 
L 174.080932 239.98975 
L 178.9105 238.286878 
L 183.668108 236.392236 
L 188.346145 234.308857 
L 192.937128 232.040072 
L 197.433711 229.589512 
L 201.8287 226.961097 
L 206.115066 224.159031 
L 210.28595 221.187798 
L 212.159223 219.76916 
L 211.94395 224.88562 
L 211.933454 230.006595 
L 212.12775 235.123895 
L 212.526528 240.229331 
L 213.129151 245.314736 
L 213.934653 250.371975 
L 214.941746 255.392958 
L 216.14882 260.369651 
L 217.553943 265.294093 
L 219.154867 270.158407 
L 220.949031 274.954809 
L 222.933565 279.675628 
L 225.105294 284.31331 
L 225.651381 285.408 
L 227.867322 280.79128 
L 229.896872 276.089639 
L 231.736782 271.310598 
L 233.384111 266.461803 
L 234.836221 261.551011 
L 236.090791 256.586078 
L 237.145812 251.574948 
L 237.999599 246.525636 
L 238.650783 241.44622 
L 239.098324 236.344828 
L 239.341506 231.229618 
L 239.37323 225.640376 
L 239.519396 226.912332 
L 240.231019 231.983633 
L 241.14487 237.022421 
L 242.259487 242.020633 
L 243.573089 246.970275 
L 245.083572 251.863428 
L 246.788521 256.692263 
L 248.685208 261.449056 
L 250.770599 266.126197 
L 253.041358 270.716203 
L 255.493852 275.211731 
L 258.124157 279.60559 
L 260.928066 283.890751 
L 261.980896 285.408 
L 264.846321 281.163728 
L 267.539727 276.808265 
L 270.056808 272.348578 
L 272.393535 267.791802 
L 274.546171 263.145226 
L 276.511271 258.416285 
L 278.285692 253.612544 
L 279.866595 248.741687 
L 281.251452 243.811507 
L 282.438046 238.829891 
L 283.42448 233.804809 
L 284.209174 228.7443 
L 284.790875 223.656459 
L 285.168651 218.549426 
L 285.341898 213.431371 
L 285.310339 208.310482 
L 285.074024 203.194951 
L 284.633331 198.092962 
L 283.970147 192.885281 
L 287.85231 189.545623 
L 291.597817 186.053392 
L 295.200676 182.414174 
L 298.655123 178.633791 
L 301.955632 174.718291 
L 305.096923 170.673937 
L 308.07397 166.507201 
L 310.88201 162.224747 
L 313.516553 157.833428 
L 315.973381 153.340267 
L 318.248566 148.752453 
L 320.338468 144.077326 
L 322.239743 139.322365 
L 323.949349 134.495176 
L 325.464551 129.603483 
L 326.782926 124.655111 
L 327.902365 119.657975 
L 328.821075 114.620072 
L 328.989115 113.552744 
L 324.181522 111.788786 
L 319.307235 110.21849 
L 314.374052 108.844371 
L 309.389865 107.668625 
L 304.362647 106.693134 
L 299.300441 105.919458 
L 294.211346 105.348835 
L 289.103502 104.982179 
L 283.985082 104.820075 
L 278.864274 104.862782 
L 273.749269 105.110234 
L 268.648252 105.562033 
L 263.569382 106.217457 
L 258.520784 107.075457 
L 253.510536 108.134661 
L 248.546652 109.393374 
L 243.637074 110.849583 
L 238.789656 112.500958 
L 234.012152 114.344857 
L 229.312207 116.37833 
L 224.697338 118.598124 
L 220.174928 121.000689 
L 215.752213 123.582179 
L 211.436268 126.338466 
L 207.233997 129.26514 
L 203.152124 132.35752 
L 199.197177 135.610656 
L 195.375485 139.019347 
L 191.693161 142.578138 
L 188.156096 146.281336 
L 184.769949 150.123016 
L 181.540137 154.097034 
L 178.471826 158.19703 
L 175.569926 162.416447 
L 172.839079 166.748534 
L 170.283653 171.18636 
L 167.907738 175.722826 
L 165.715133 180.350675 
L 163.709346 185.062503 
L 161.893587 189.850772 
L 160.27076 194.707822 
L 158.843461 199.625883 
L 157.613974 204.597086 
L 156.584265 209.613479 
L 155.755982 214.667037 
L 155.13045 219.749676 
L 154.70867 224.853263 
L 154.491317 229.969635 
L 154.478737 235.090606 
L 154.670952 240.207983 
L 155.067653 245.313581 
L 155.668207 250.399231 
L 156.471652 255.456798 
L 157.310982 259.717495 
L 161.177598 263.075141 
L 165.17539 266.275478 
L 169.297965 269.313385 
L 173.538725 272.184004 
L 177.890888 274.882741 
L 182.34749 277.40528 
L 186.901401 279.747584 
L 191.545338 281.905907 
L 196.271869 283.876796 
L 200.364732 285.408 
L 205.15577 283.599558 
L 209.870656 281.600971 
L 214.501849 279.415439 
L 219.04194 277.046456 
L 223.483665 274.497813 
L 227.819918 271.773587 
L 232.043763 268.878136 
L 236.148442 265.816092 
L 240.127389 262.592355 
L 243.974238 259.21208 
L 247.682835 255.680677 
L 251.247247 252.003793 
L 254.661771 248.187313 
L 257.920946 244.237341 
L 261.019558 240.160196 
L 263.952648 235.962401 
L 266.715525 231.650671 
L 269.303769 227.231905 
L 271.713239 222.713171 
L 273.940081 218.101699 
L 275.980731 213.404865 
L 277.831926 208.630184 
L 279.490704 203.785294 
L 280.687703 199.827872 
L 284.124877 196.031777 
L 287.407498 192.101268 
L 290.530314 188.042633 
L 293.488331 183.862365 
L 296.276816 179.567152 
L 298.891307 175.163865 
L 301.327622 170.659548 
L 303.581864 166.061408 
L 305.650427 161.3768 
L 307.53 156.613219 
L 309.217577 151.778285 
L 310.710459 146.879734 
L 312.006257 141.925401 
L 313.102898 136.923214 
L 313.998628 131.881173 
L 314.692013 126.807347 
L 315.181944 121.70985 
L 315.467639 116.596839 
L 315.548638 111.476494 
L 315.424814 106.357004 
L 315.096364 101.246562 
L 314.563813 96.153342 
L 313.828014 91.085492 
L 312.890144 86.05112 
L 312.764271 85.450489 
L 308.889315 82.102472 
L 304.883574 78.912089 
L 300.753455 75.884446 
L 296.505567 73.024385 
L 292.146705 70.336482 
L 287.683842 67.825038 
L 283.124117 65.494069 
L 279.156419 63.648 
L 274.519698 65.82178 
L 269.973614 68.179241 
L 265.52544 70.716611 
L 261.182291 73.42983 
L 256.951116 76.314559 
L 252.838684 79.366183 
L 248.851574 82.579819 
L 244.996165 85.950326 
L 241.278624 89.472312 
L 237.704898 93.140144 
L 234.280705 96.947952 
L 231.011522 100.889646 
L 227.902581 104.958919 
L 224.958853 109.149261 
L 222.18505 113.45397 
L 219.585607 117.866158 
L 217.164685 122.378766 
L 214.926155 126.984576 
L 214.384149 128.174875 
L 209.422671 126.906713 
L 204.414448 125.837972 
L 199.367493 124.970362 
L 194.28988 124.305269 
L 189.189732 123.843759 
L 184.075208 123.58657 
L 178.95449 123.534113 
L 173.835771 123.686472 
L 168.727239 124.043403 
L 163.637066 124.604335 
L 158.573396 125.368372 
L 153.544331 126.33429 
L 148.557914 127.500544 
L 143.622123 128.865269 
L 138.744855 130.426281 
L 133.933913 132.181084 
L 132.17312 132.878559 
L 132.984184 137.93491 
L 133.996799 142.954781 
L 135.209345 147.930144 
L 136.619883 152.853038 
L 138.226156 157.715588 
L 140.025595 162.510014 
L 142.015319 167.228647 
L 144.192148 171.863938 
L 146.552597 176.408471 
L 149.092891 180.854976 
L 151.808966 185.19634 
L 154.696476 189.425617 
L 157.750803 193.536042 
L 160.96706 197.521038 
L 164.340101 201.37423 
L 167.864531 205.089455 
L 171.534711 208.660769 
L 175.34477 212.082457 
L 179.288612 215.349047 
L 183.359928 218.455313 
L 187.552206 221.396284 
L 191.858737 224.167257 
L 196.272633 226.763798 
L 200.786832 229.181753 
L 205.394113 231.417254 
L 210.087105 233.466725 
L 214.858299 235.326887 
L 219.700064 236.994764 
L 224.604653 238.467689 
L 229.564221 239.743303 
L 234.570832 240.819568 
L 239.616478 241.69476 
L 244.693086 242.367481 
L 249.792535 242.836653 
L 254.906667 243.101526 
L 260.0273 243.161677 
L 265.146242 243.017009 
L 270.255305 242.667754 
L 275.346315 242.11447 
L 280.411126 241.358042 
L 285.441638 240.399681 
L 290.429801 239.24092 
L 295.367637 237.883612 
L 300.247244 236.329929 
L 305.060818 234.582357 
L 309.800658 232.643691 
L 314.45918 230.517033 
L 319.028931 228.205785 
L 323.502603 225.713644 
L 327.873037 223.044597 
L 332.133241 220.202915 
L 336.276401 217.193143 
L 340.295888 214.020096 
L 342.426879 212.228366 
L 343.275089 207.178114 
L 343.920664 202.097983 
L 344.362571 196.996099 
L 344.600104 191.880624 
L 344.632883 186.759743 
L 344.460855 181.641646 
L 344.084295 176.534524 
L 343.503806 171.446544 
L 342.720316 166.385848 
L 341.735079 161.360531 
L 340.549671 156.378633 
L 339.165989 151.448123 
L 337.586245 146.57689 
L 335.812968 141.772726 
L 333.848994 137.043318 
L 331.697465 132.39623 
L 329.361823 127.838897 
L 326.845805 123.378611 
L 324.153435 119.022507 
L 321.289021 114.777553 
L 318.257145 110.65054 
L 315.062659 106.648071 
L 311.710671 102.776549 
L 308.206545 99.042168 
L 304.555887 95.450902 
L 300.764536 92.008495 
L 296.838558 88.720456 
L 292.784235 85.592044 
L 288.608051 82.628264 
L 284.316688 79.833858 
L 279.917011 77.213296 
L 275.416059 74.77077 
L 270.821033 72.510187 
L 266.139282 70.435165 
L 261.378298 68.549023 
L 256.545697 66.854779 
L 251.649209 65.355142 
L 246.696669 64.052511 
L 244.971192 63.648 
L 240.001095 64.881953 
L 235.084319 66.31367 
L 230.228729 67.94086 
L 225.442094 69.760921 
L 220.73207 71.77094 
L 216.106193 73.967702 
L 211.571863 76.347693 
L 207.136334 78.907104 
L 202.806703 81.641842 
L 198.589895 84.547532 
L 194.492657 87.619525 
L 190.521543 90.852907 
L 186.682906 94.242504 
L 182.982888 97.782895 
L 179.427407 101.468414 
L 176.022151 105.293168 
L 172.772569 109.251035 
L 169.683858 113.335686 
L 166.760961 117.540584 
L 164.008552 121.859004 
L 161.431036 126.284037 
L 159.032536 130.808603 
L 156.816889 135.425464 
L 154.787639 140.127235 
L 152.948034 144.906393 
L 151.301015 149.755293 
L 149.849217 154.666178 
L 148.594964 159.63119 
L 147.540262 164.642388 
L 146.686798 169.691755 
L 146.035938 174.771211 
L 145.588722 179.872633 
L 145.345866 184.987857 
L 145.307759 190.108702 
L 145.474462 195.226974 
L 145.845707 200.334486 
L 146.420902 205.423067 
L 147.199126 210.484576 
L 148.179133 215.510915 
L 149.359356 220.494044 
L 150.737908 225.425991 
L 152.312582 230.298865 
L 154.080859 235.104871 
L 156.039911 239.836321 
L 158.186604 244.485645 
L 160.517502 249.045405 
L 163.028878 253.508307 
L 165.716714 257.867211 
L 168.576709 262.115143 
L 171.604289 266.245308 
L 174.794609 270.251099 
L 178.142567 274.126106 
L 181.642805 277.864131 
L 185.289725 281.459195 
L 189.077492 284.905544 
L 189.655897 285.408 
L 193.46422 281.984379 
L 197.132587 278.411203 
L 200.655132 274.694191 
L 204.026218 270.839287 
L 207.240452 266.85266 
L 210.292693 262.740686 
L 213.178057 258.509944 
L 215.891929 254.167203 
L 218.429966 249.71941 
L 220.788109 245.173679 
L 222.962586 240.537285 
L 224.949916 235.817643 
L 226.746921 231.022304 
L 228.350727 226.15894 
L 228.645618 225.186997 
L 228.728021 230.30732 
L 229.015117 235.420252 
L 229.506445 240.517614 
L 230.201221 245.591251 
L 231.098332 250.633046 
L 232.196344 255.634932 
L 233.493499 260.58891 
L 234.987724 265.487052 
L 236.676626 270.321523 
L 238.557505 275.084589 
L 240.627351 279.76863 
L 242.882853 284.366152 
L 243.426152 285.408 
L 245.723751 280.83137 
L 247.836497 276.166522 
L 249.761008 271.420918 
L 251.494206 266.60215 
L 253.033318 261.717927 
L 254.375883 256.776063 
L 255.519752 251.784463 
L 256.463095 246.751114 
L 257.204403 241.684067 
L 257.74249 236.591429 
L 258.076496 231.481346 
L 258.205886 226.361995 
L 258.11423 220.796906 
L 262.021278 224.107416 
L 266.057586 227.259038 
L 270.216696 230.24673 
L 274.491956 233.065712 
L 278.876525 235.711474 
L 283.363389 238.179783 
L 287.94537 240.466692 
L 292.615138 242.568541 
L 297.365222 244.481968 
L 302.188023 246.203912 
L 307.075826 247.731617 
L 312.020811 249.062641 
L 317.015067 250.194853 
L 320.157204 250.800575 
L 316.774582 246.95579 
L 313.240914 243.24935 
L 309.561856 239.687184 
L 305.743291 236.27499 
L 301.79133 233.018227 
L 297.712294 229.922106 
L 293.512709 226.991579 
L 289.199293 224.231335 
L 284.778947 221.64579 
L 280.258743 219.239079 
L 275.645912 217.015053 
L 270.947833 214.977271 
L 268.695722 214.078305 
L 269.694583 219.100932 
L 270.893496 224.079597 
L 272.290543 229.006337 
L 273.883491 233.873268 
L 275.669789 238.672606 
L 277.646581 243.396671 
L 279.810703 248.037908 
L 282.158695 252.58889 
L 284.686799 257.042337 
L 287.390972 261.391124 
L 290.266886 265.628295 
L 293.309942 269.747071 
L 296.515271 273.740862 
L 299.877744 277.60328 
L 302.851689 280.774606 
L 297.861698 279.623743 
L 292.829675 278.673348 
L 287.763672 277.92494 
L 282.671793 277.379717 
L 277.562183 277.038551 
L 272.443018 276.901988 
L 267.322487 276.970246 
L 262.208781 277.243216 
L 257.110081 277.720461 
L 252.034544 278.401218 
L 246.990291 279.284398 
L 241.98539 280.368588 
L 237.027848 281.652053 
L 232.125597 283.132741 
L 227.286479 284.808282 
L 225.693085 285.408 
L 220.876674 283.668261 
L 215.994546 282.122518 
L 211.054509 280.773245 
L 206.064467 279.6226 
L 201.032403 278.672424 
L 195.966367 277.924236 
L 190.874464 277.379235 
L 185.76484 277.038291 
L 180.645669 276.901951 
L 175.525141 276.970432 
L 170.411446 277.243624 
L 167.568737 277.484448 
L 170.457113 273.255761 
L 173.174075 268.914953 
L 175.715279 264.468968 
L 178.076657 259.924917 
L 180.254434 255.290072 
L 182.245123 250.571846 
L 184.045542 245.777788 
L 185.65281 240.915567 
L 187.064355 235.992962 
L 188.277919 231.017847 
L 189.291561 225.998183 
L 190.103659 220.941998 
L 190.712914 215.857383 
L 191.118351 210.752472 
L 191.319322 205.63543 
L 191.315505 200.514445 
L 191.281486 199.200229 
L 186.988171 196.408823 
L 182.586664 193.791336 
L 178.084006 191.351957 
L 173.4874 189.094587 
L 168.8042 187.022838 
L 164.041899 185.140024 
L 159.208114 183.449158 
L 154.31058 181.952944 
L 149.35713 180.653776 
L 144.35569 179.553732 
L 139.31426 178.654573 
L 134.240906 177.957736 
L 129.143744 177.464336 
L 124.030929 177.175163 
L 118.910639 177.09068 
L 113.791067 177.211021 
L 109.811717 177.446355 
L 112.610583 173.157899 
L 115.235718 168.760949 
L 117.682921 164.262539 
L 119.948279 159.669864 
L 122.028166 154.990274 
L 123.919257 150.231253 
L 125.618524 145.400415 
L 126.444133 142.801456 
L 129.860155 138.986316 
L 133.12088 135.037623 
L 136.221091 130.961694 
L 139.155829 126.765051 
L 141.920398 122.454406 
L 144.510375 118.036655 
L 146.921619 113.518867 
L 149.15027 108.908269 
L 151.192764 104.212237 
L 153.045832 99.438283 
L 154.706512 94.594044 
L 155.216438 92.966362 
L 158.63246 89.151222 
L 161.893185 85.202529 
L 164.993396 81.1266 
L 167.928133 76.929957 
L 170.692702 72.619312 
L 173.28268 68.201562 
L 175.7121 63.648 
L 178.121927 68.166543 
L 180.71052 72.585105 
L 183.473738 76.896616 
L 186.40716 81.094179 
L 189.506094 85.171079 
L 192.765581 89.120794 
L 196.180407 92.937005 
L 199.74511 96.613606 
L 203.453986 100.144716 
L 207.301102 103.524687 
L 211.280303 106.74811 
L 215.385224 109.809829 
L 219.609298 112.704946 
L 223.945767 115.42883 
L 228.387693 117.977122 
L 232.927971 120.345746 
L 237.559337 122.530912 
L 239.620349 123.431759 
L 244.530358 121.977004 
L 249.378266 120.327065 
L 254.156315 118.484581 
L 258.856863 116.4525 
L 263.472389 114.234073 
L 267.99551 111.832848 
L 272.418989 109.252668 
L 276.73575 106.497659 
L 280.938888 103.57223 
L 285.021677 100.48106 
L 288.977587 97.229094 
L 292.800289 93.821536 
L 296.483667 90.263836 
L 300.021828 86.561686 
L 303.409113 82.721008 
L 306.640102 78.747948 
L 307.926586 77.071373 
L 302.857614 77.799397 
L 297.821809 78.729543 
L 292.827228 79.860324 
L 287.881861 81.189929 
L 282.993621 82.716234 
L 278.170326 84.436795 
L 273.419693 86.34886 
L 268.749323 88.44937 
L 264.166687 90.734965 
L 259.679115 93.201988 
L 255.293788 95.846493 
L 251.01772 98.664249 
L 246.857754 101.650748 
L 242.820542 104.801213 
L 238.912545 108.110603 
L 235.140015 111.573624 
L 231.508986 115.184736 
L 228.025267 118.938162 
L 224.694432 122.827897 
L 222.899637 125.061217 
L 218.109108 123.251428 
L 213.250039 121.634658 
L 208.330203 120.213491 
L 203.357471 118.990202 
L 198.339797 117.966748 
L 193.285211 117.144766 
L 188.201796 116.525571 
L 183.097687 116.110154 
L 177.981049 115.899179 
L 172.860066 115.892984 
L 167.742932 116.091578 
L 162.637832 116.494644 
L 157.552935 117.101538 
L 152.496374 117.911287 
L 147.476239 118.922598 
L 142.500562 120.133851 
L 138.958323 121.126243 
L 140.255399 126.080241 
L 141.749544 130.978407 
L 143.438368 135.812905 
L 145.319169 140.576002 
L 147.38894 145.260076 
L 149.644367 149.857635 
L 152.081844 154.361323 
L 154.697471 158.763936 
L 157.487063 163.05843 
L 160.446158 167.237935 
L 163.570021 171.295764 
L 166.853655 175.225427 
L 170.291808 179.020636 
L 173.878978 182.675319 
L 177.609427 186.183631 
L 181.477187 189.539958 
L 185.476071 192.738931 
L 189.544556 195.736495 
L 189.127174 200.840444 
L 188.914229 205.957001 
L 188.906062 211.077981 
L 189.102686 216.195191 
L 189.503787 221.300445 
L 190.108722 226.385576 
L 190.916525 231.442448 
L 191.925903 236.462972 
L 193.13524 241.439116 
L 194.542603 246.362918 
L 196.14574 251.226503 
L 197.942086 256.022089 
L 199.928767 260.742004 
L 202.102605 265.378697 
L 204.460123 269.924752 
L 206.997549 274.372894 
L 209.710823 278.716009 
L 212.595606 282.947148 
L 214.390986 285.408 
L 217.375612 281.246689 
L 220.191443 276.969354 
L 222.833974 272.582836 
L 225.298977 268.094155 
L 227.582509 263.51049 
L 229.680916 258.839175 
L 231.590843 254.087682 
L 233.309232 249.263613 
L 234.833336 244.374686 
L 236.160716 239.428721 
L 237.289248 234.433632 
L 238.217127 229.397409 
L 238.77024 225.674716 
L 240.060904 230.630388 
L 241.54871 235.530483 
L 243.231277 240.367163 
L 245.105914 245.132689 
L 247.169622 249.819437 
L 249.419099 254.419911 
L 251.850747 258.926749 
L 254.460675 263.332743 
L 257.244708 267.630842 
L 260.198392 271.814173 
L 263.317002 275.876041 
L 266.595549 279.809949 
L 270.028788 283.609603 
L 271.753592 285.408 
L 275.260127 281.675881 
L 278.614613 277.806523 
L 281.811682 273.806117 
L 284.84622 269.681062 
L 287.713373 265.437957 
L 290.408553 261.083591 
L 292.92745 256.624929 
L 295.266032 252.069105 
L 297.42056 247.423407 
L 299.387586 242.695267 
L 301.163963 237.892248 
L 302.74685 233.022036 
L 304.133714 228.09242 
L 305.322337 223.111288 
L 306.310816 218.086608 
L 307.097572 213.026418 
L 307.681344 207.938815 
L 308.0612 202.831936 
L 308.236531 197.713952 
L 308.207058 192.59305 
L 307.972826 187.477423 
L 307.534211 182.375255 
L 306.891915 177.294708 
L 306.046965 172.24391 
L 305.000712 167.230941 
L 303.754831 162.263821 
L 302.311315 157.350496 
L 300.672473 152.498826 
L 298.840927 147.716574 
L 296.819607 143.011389 
L 294.611746 138.390799 
L 292.220878 133.862195 
L 289.650825 129.432824 
L 286.905701 125.10977 
L 283.989897 120.899949 
L 280.908077 116.810098 
L 277.665172 112.846757 
L 274.266369 109.016268 
L 270.717106 105.32476 
L 267.023062 101.778136 
L 263.190145 98.382073 
L 259.224488 95.142001 
L 255.132434 92.063105 
L 250.920531 89.15031 
L 246.595516 86.408277 
L 242.164309 83.841391 
L 237.633998 81.453759 
L 233.011831 79.249202 
L 228.305202 77.231245 
L 223.521642 75.403117 
L 218.668802 73.767743 
L 213.754446 72.327739 
L 208.786437 71.085409 
L 203.772722 70.04274 
L 198.721321 69.2014 
L 193.640316 68.562735 
L 188.537836 68.127767 
L 183.422043 67.897192 
L 178.301122 67.871378 
L 173.183264 68.050367 
L 169.451568 68.310394 
L 171.722365 72.900381 
L 174.174897 77.395889 
L 176.805239 81.789726 
L 179.609184 86.074862 
L 182.582246 90.244443 
L 185.719668 94.291798 
L 189.016432 98.210452 
L 192.467263 101.994137 
L 196.066641 105.636798 
L 199.808807 109.132609 
L 203.687775 112.475976 
L 207.697339 115.661553 
L 211.831086 118.684241 
L 216.082401 121.539205 
L 220.444483 124.221879 
L 222.222351 125.247762 
L 224.606182 120.715451 
L 226.806863 116.091436 
L 228.820871 111.383117 
L 230.644986 106.598025 
L 232.27629 101.743816 
L 233.712172 96.828254 
L 234.950335 91.859204 
L 235.988799 86.844616 
L 236.825903 81.792512 
L 237.460306 76.710973 
L 237.890995 71.60813 
L 238.11728 66.492146 
L 238.154523 63.648 
L 238.200886 66.848411 
L 238.44141 71.963746 
L 238.886301 77.06537 
L 239.534847 82.145123 
L 240.386009 87.194878 
L 241.438427 92.206556 
L 242.690417 97.17214 
L 244.139976 102.083686 
L 245.784785 106.933336 
L 247.622213 111.713332 
L 249.649319 116.416027 
L 251.862862 121.033897 
L 254.2593 125.559556 
L 255.023 126.915112 
L 259.888433 125.317593 
L 264.68609 123.526785 
L 269.408296 121.545556 
L 274.047496 119.377073 
L 278.59627 117.024806 
L 283.04734 114.492518 
L 287.393585 111.784261 
L 291.628051 108.904366 
L 295.743966 105.857442 
L 299.734744 102.648362 
L 303.594 99.28226 
L 307.315562 95.764522 
L 310.893475 92.100775 
L 314.373367 88.237525 
L 309.364174 89.30171 
L 304.401544 90.565358 
L 299.493416 92.026447 
L 294.647642 93.68264 
L 289.871974 95.531288 
L 285.174053 97.569433 
L 280.561393 99.793814 
L 276.041375 102.200874 
L 271.621228 104.78676 
L 267.308025 107.547337 
L 263.108666 110.478187 
L 259.029869 113.574623 
L 255.078159 116.83169 
L 251.259857 120.244179 
L 247.581073 123.806629 
L 246.936176 124.461305 
L 245.083009 119.687389 
L 243.040419 114.991399 
L 240.811673 110.380846 
L 238.400337 105.863108 
L 235.810269 101.445411 
L 233.045611 97.134823 
L 230.110788 92.938239 
L 227.010493 88.862374 
L 223.749687 84.913748 
L 220.333587 81.098678 
L 216.767657 77.423267 
L 213.057602 73.893396 
L 209.209357 70.51471 
L 205.22908 67.292616 
L 201.123136 64.232268 
L 200.298765 63.648 
L 196.168798 66.67585 
L 192.163216 69.866432 
L 188.288427 73.214642 
L 184.55063 76.715125 
L 180.955806 80.36228 
L 177.509704 84.150272 
L 174.217837 88.073041 
L 171.085473 92.124312 
L 168.117622 96.297603 
L 165.319032 100.586239 
L 162.694181 104.983358 
L 160.247267 109.481926 
L 157.982205 114.074746 
L 155.902618 118.754471 
L 154.011834 123.513613 
L 152.312878 128.34456 
L 150.808466 133.239583 
L 149.501007 138.190851 
L 148.392592 143.190443 
L 147.484993 148.23036 
L 146.779664 153.30254 
L 146.277731 158.398869 
L 145.98 163.511193 
L 145.886944 168.631334 
L 145.998714 173.7511 
L 146.315131 178.862302 
L 146.835688 183.956762 
L 147.559553 189.02633 
L 148.485567 194.062896 
L 149.61225 199.058403 
L 150.937798 204.004859 
L 152.460092 208.89435 
L 154.176696 213.719054 
L 156.084863 218.471254 
L 158.181541 223.143346 
L 160.463375 227.727856 
L 162.926716 232.21745 
L 165.567623 236.604945 
L 168.38187 240.883323 
L 171.364955 245.045738 
L 174.512107 249.085532 
L 177.81829 252.996243 
L 181.278215 256.771613 
L 184.886347 260.405604 
L 188.636913 263.892401 
L 192.523915 267.226426 
L 196.541132 270.402345 
L 200.682139 273.415078 
L 204.940311 276.259806 
L 209.308836 278.931976 
L 213.780724 281.427315 
L 218.348823 283.741829 
L 221.94874 285.408 
L 226.586347 283.236111 
L 231.133392 280.880504 
L 235.582601 278.344948 
L 239.926855 275.6335 
L 244.159206 272.750496 
L 248.272882 269.70055 
L 252.261302 266.48854 
L 256.118086 263.119605 
L 259.837063 259.599135 
L 263.412284 255.932761 
L 266.83803 252.12635 
L 270.108819 248.18599 
L 273.21942 244.117985 
L 276.164855 239.928843 
L 278.940414 235.625266 
L 281.541656 231.214138 
L 283.964418 226.702517 
L 286.204826 222.097621 
L 288.259295 217.406815 
L 290.124539 212.637604 
L 291.797573 207.797619 
L 293.275721 202.894601 
L 294.556618 197.936396 
L 295.638215 192.930934 
L 296.518782 187.886223 
L 297.19691 182.810335 
L 297.671515 177.711389 
L 297.941836 172.597542 
L 298.007441 167.476976 
L 297.868226 162.357882 
L 297.524414 157.24845 
L 296.976553 152.156854 
L 296.225521 147.091239 
L 295.27252 142.05971 
L 294.119073 137.070315 
L 292.767026 132.131036 
L 291.218542 127.249776 
L 289.476099 122.434343 
L 287.542483 117.692442 
L 285.420789 113.031657 
L 283.11441 108.459445 
L 280.627036 103.983122 
L 277.962647 99.609847 
L 275.125504 95.346618 
L 272.120147 91.200254 
L 268.951384 87.177389 
L 265.624284 83.284459 
L 262.144169 79.527691 
L 258.516608 75.913096 
L 254.747403 72.446455 
L 250.842584 69.133316 
L 246.808398 65.978978 
L 243.598715 63.648 
L 239.468748 66.67585 
L 235.463166 69.866432 
L 231.588377 73.214642 
L 227.85058 76.715125 
L 224.255756 80.36228 
L 220.809654 84.150272 
L 217.517787 88.073041 
L 214.385423 92.124312 
L 211.417572 96.297603 
L 208.618983 100.586239 
L 205.994131 104.983358 
L 203.547217 109.481926 
L 201.282155 114.074746 
L 199.202568 118.754471 
L 197.311784 123.513613 
L 195.612828 128.34456 
L 194.108417 133.239583 
L 192.800957 138.190851 
L 191.692542 143.190443 
L 190.784943 148.23036 
L 190.267303 151.797839 
L 186.703404 155.475219 
L 183.289412 159.292176 
L 180.030789 163.242603 
L 176.932747 167.320181 
L 174.000242 171.518385 
L 171.237967 175.8305 
L 168.65034 180.249628 
L 166.2415 184.768698 
L 164.015302 189.380481 
L 161.975307 194.077599 
L 160.124779 198.852539 
L 158.466677 203.69766 
L 157.003655 208.605212 
L 155.738052 213.567344 
L 154.671895 218.576117 
L 153.806887 223.623519 
L 153.144414 228.701474 
L 152.685535 233.80186 
L 152.430984 238.916516 
L 152.381168 244.03726 
L 152.536167 249.1559 
L 152.690612 251.71478 
L 156.991183 254.494994 
L 161.399493 257.101007 
L 165.90849 259.528651 
L 170.510959 261.774041 
L 175.199539 263.833585 
L 179.966728 265.703988 
L 184.804901 267.382259 
L 189.706316 268.865712 
L 194.663132 270.151974 
L 199.667421 271.238987 
L 204.711175 272.125013 
L 209.786327 272.808633 
L 214.884757 273.288755 
L 219.998308 273.56461 
L 225.1188 273.635756 
L 230.238042 273.502081 
L 235.347843 273.163798 
L 240.440029 272.621447 
L 245.506453 271.875898 
L 250.539011 270.928342 
L 255.529651 269.780295 
L 260.47039 268.433594 
L 265.353323 266.890393 
L 270.170638 265.153162 
L 274.91463 263.224679 
L 279.577708 261.108029 
L 284.152412 258.806599 
L 288.631425 256.324071 
L 293.00758 253.664415 
L 297.273877 250.831888 
L 301.423491 247.83102 
L 305.449783 244.666612 
L 309.346311 241.343726 
L 313.106843 237.867679 
L 316.725361 234.244031 
L 320.196078 230.47858 
L 323.513441 226.577349 
L 326.672143 222.546579 
L 329.667131 218.392719 
L 332.493612 214.122414 
L 335.147066 209.742496 
L 337.623248 205.259972 
L 339.918196 200.682012 
L 342.028238 196.01594 
L 343.95 191.269222 
L 345.680406 186.449451 
L 347.216689 181.564337 
L 348.55639 176.621696 
L 349.697367 171.629434 
L 350.637794 166.595539 
L 351.376166 161.528064 
L 351.911303 156.435115 
L 352.119342 153.615472 
L 347.488287 151.429647 
L 342.773526 149.430764 
L 337.982603 147.622019 
L 333.123182 146.006307 
L 328.203036 144.586213 
L 323.230037 143.364007 
L 318.212141 142.341647 
L 313.157375 141.520766 
L 308.073826 140.902679 
L 302.969627 140.488374 
L 297.852942 140.278514 
L 292.731959 140.273434 
L 287.614868 140.473144 
L 282.509856 140.877322 
L 277.425091 141.485324 
L 275.523079 141.766011 
L 277.117247 136.89948 
L 278.515532 131.973091 
L 279.715694 126.994727 
L 280.715816 121.972351 
L 281.514296 116.913999 
L 282.109857 111.827761 
L 282.501546 106.721776 
L 282.688737 101.604212 
L 282.671131 96.483256 
L 282.448755 91.3671 
L 282.021965 86.26393 
L 281.391444 81.181908 
L 280.558201 76.129165 
L 279.523568 71.113785 
L 278.289201 66.143791 
L 277.588892 63.648 
L 276.25416 68.591986 
L 275.118203 73.585391 
L 274.182837 78.620229 
L 273.449559 83.688444 
L 272.919542 88.781929 
L 272.593634 93.892534 
L 272.472357 99.012084 
L 272.555904 104.132389 
L 272.844142 109.245257 
L 273.336609 114.342509 
L 274.032518 119.415991 
L 274.930756 124.457585 
L 276.029885 129.459226 
L 277.328147 134.412913 
L 278.823466 139.310721 
L 280.513448 144.144815 
L 282.395391 148.907461 
L 284.466284 153.591039 
L 286.722813 158.188057 
L 289.161369 162.691161 
L 291.77805 167.093147 
L 294.568671 171.386973 
L 297.528767 175.565769 
L 300.653603 179.622849 
L 303.938178 183.551725 
L 307.37724 187.34611 
L 310.965286 190.999934 
L 314.696575 194.507352 
L 318.56514 197.862752 
L 322.56479 201.060767 
L 326.689127 204.096281 
L 330.931554 206.964437 
L 335.285282 209.660647 
L 339.743348 212.180598 
L 341.821657 213.276641 
L 340.741041 212.589979 
L 336.351542 209.952404 
L 331.860079 207.492472 
L 327.273838 205.214119 
L 322.600156 203.120988 
L 317.846509 201.21643 
L 313.020503 199.50349 
L 308.129857 197.984908 
L 303.182397 196.663116 
L 298.186036 195.540226 
L 293.148768 194.618035 
L 288.078652 193.898019 
L 283.751065 193.445991 
L 287.828927 196.543658 
L 292.027401 199.475776 
L 296.339771 202.237655 
L 300.759136 204.824876 
L 305.278428 207.2333 
L 309.890415 209.459074 
L 314.587721 211.498637 
L 319.362831 213.348726 
L 324.208105 215.006383 
L 329.115791 216.468954 
L 334.078039 217.7341 
L 338.678517 218.720721 
L 335.238816 214.926915 
L 331.650155 211.273695 
L 327.918275 207.766906 
L 324.049146 204.412157 
L 320.048957 201.214815 
L 315.924109 198.179996 
L 311.681199 195.312554 
L 307.327017 192.617077 
L 302.868527 190.097877 
L 298.312862 187.758985 
L 293.66731 185.604141 
L 288.939304 183.636793 
L 286.70366 182.782591 
L 291.817766 182.517207 
L 296.917168 182.047526 
L 301.993709 181.374299 
L 307.039267 180.498603 
L 312.045771 179.421839 
L 317.005211 178.14573 
L 321.909653 176.672316 
L 326.751252 175.003956 
L 331.522261 173.143318 
L 336.215048 171.093379 
L 340.822106 168.857418 
L 345.336064 166.439012 
L 349.7497 163.842031 
L 354.055955 161.070629 
L 355.75332 159.909706 
L 355.174618 160.183414 
L 350.595741 162.47653 
L 346.112226 164.950919 
L 341.731247 167.602621 
L 337.459812 170.427394 
L 333.304754 173.420719 
L 329.272721 176.577809 
L 325.370163 179.893611 
L 321.603324 183.362821 
L 317.978229 186.97989 
L 314.500677 190.739031 
L 311.176234 194.63423 
L 308.010215 198.659255 
L 305.007687 202.807668 
L 302.173454 207.072832 
L 299.512048 211.447923 
L 297.027728 215.925942 
L 294.724469 220.499726 
L 292.605954 225.161957 
L 290.675573 229.905177 
L 288.936415 234.721797 
L 287.391261 239.604112 
L 286.042584 244.544311 
L 284.892541 249.534492 
L 283.942972 254.566671 
L 283.195395 259.632796 
L 282.651008 264.724765 
L 282.310681 269.83443 
L 282.174958 274.953618 
L 282.244056 280.074138 
L 282.534269 285.408 
L 282.816897 280.294819 
L 282.894827 275.174425 
L 282.767933 270.055011 
L 282.436418 264.944767 
L 281.900813 259.851867 
L 281.161976 254.784459 
L 280.221086 249.75065 
L 279.079651 244.758494 
L 277.739496 239.815976 
L 276.202765 234.931003 
L 274.471916 230.11139 
L 272.549719 225.364849 
L 270.439248 220.698971 
L 268.14388 216.121222 
L 267.544903 214.997591 
L 271.37369 218.398309 
L 275.335408 221.643197 
L 279.423717 224.727063 
L 283.632078 227.644973 
L 287.953758 230.39226 
L 292.381843 232.964528 
L 296.90925 235.357662 
L 301.528734 237.567835 
L 306.232908 239.591509 
L 311.014243 241.425447 
L 315.865092 243.066716 
L 320.777695 244.512691 
L 323.39281 245.19634 
L 319.759636 241.587386 
L 315.985049 238.126608 
L 312.075086 234.81954 
L 308.036003 231.671475 
L 303.874263 228.687449 
L 299.596522 225.872234 
L 295.209624 223.230335 
L 290.720587 220.765979 
L 286.136593 218.483107 
L 281.464976 216.385372 
L 276.713208 214.476131 
L 271.888892 212.758436 
L 270.677629 212.360964 
L 271.89746 217.334546 
L 273.315206 222.255369 
L 274.928598 227.115561 
L 276.735055 231.907347 
L 278.731688 236.623061 
L 280.915302 241.255159 
L 283.282404 245.79623 
L 285.829207 250.239011 
L 288.551636 254.576392 
L 291.445337 258.801437 
L 294.50568 262.907384 
L 297.727769 266.887666 
L 301.106449 270.735915 
L 304.636316 274.445974 
L 305.822786 275.628515 
L 300.860998 274.361565 
L 295.852514 273.294047 
L 290.805348 272.427669 
L 285.727573 271.763817 
L 280.627312 271.303552 
L 275.512725 271.047612 
L 270.391995 270.996405 
L 265.273313 271.150014 
L 260.164868 271.508192 
L 255.074833 272.070368 
L 250.01135 272.835641 
L 244.98252 273.802787 
L 239.996388 274.970259 
L 235.060931 276.336189 
L 230.184044 277.898392 
L 225.37353 279.65437 
L 220.637084 281.601311 
L 215.982284 283.736103 
L 212.646217 285.408 
L 208.055606 283.138464 
L 203.37791 281.054318 
L 198.620612 279.158898 
L 193.791323 277.455235 
L 188.897769 275.946055 
L 183.947777 274.633772 
L 178.949268 273.520485 
L 173.910237 272.607976 
L 168.838747 271.897705 
L 164.065585 271.41681 
L 166.162711 266.744919 
L 168.071334 261.992903 
L 169.788401 257.168363 
L 171.311163 252.279018 
L 172.637187 247.332689 
L 173.764349 242.337291 
L 174.690847 237.300813 
L 175.415198 232.231315 
L 175.936244 227.136905 
L 176.253151 222.025734 
L 176.365413 216.905978 
L 176.272848 211.785828 
L 175.975607 206.673475 
L 175.474164 201.577099 
L 174.769321 196.504851 
L 173.862206 191.464846 
L 172.754271 186.465148 
L 171.447287 181.513755 
L 169.943345 176.618588 
L 168.244852 171.787478 
L 166.354525 167.028154 
L 164.275388 162.34823 
L 162.010766 157.755192 
L 159.564284 153.25639 
L 156.939854 148.859019 
L 154.141676 144.570114 
L 151.174226 140.396538 
L 148.04225 136.344966 
L 144.750761 132.421881 
L 141.305022 128.633559 
L 137.710547 124.986059 
L 137.081519 124.376963 
L 142.028651 125.699983 
L 147.024733 126.824113 
L 152.061772 127.747553 
L 157.13171 128.468826 
L 162.226435 128.986779 
L 167.337798 129.300584 
L 172.457621 129.409737 
L 177.577713 129.314065 
L 182.689885 129.01372 
L 187.785956 128.509183 
L 192.857775 127.801261 
L 197.897228 126.891086 
L 202.896252 125.780116 
L 207.846851 124.470126 
L 212.741105 122.963213 
L 217.571182 121.261787 
L 222.329358 119.368571 
L 227.008019 117.286593 
L 231.599681 115.019184 
L 236.096997 112.569971 
L 240.492774 109.942872 
L 244.779979 107.142091 
L 248.951753 104.172107 
L 253.001423 101.037673 
L 256.922509 97.743802 
L 260.708739 94.295764 
L 264.354056 90.699076 
L 267.852627 86.959491 
L 271.198857 83.082991 
L 274.387392 79.075779 
L 277.41313 74.944265 
L 280.271231 70.695058 
L 282.957124 66.334957 
L 284.495647 63.648 
L 287.07532 68.071775 
L 289.829834 72.388852 
L 292.754782 76.592325 
L 295.845484 80.675469 
L 299.096995 84.631752 
L 302.504116 88.454844 
L 306.061393 92.13863 
L 309.763138 95.677216 
L 313.603427 99.064941 
L 317.576117 102.296385 
L 321.674853 105.36638 
L 325.967396 108.318973 
L 325.967396 108.318973 
" style="fill:none;stroke:#1f77b4;stroke-linecap:square;stroke-width:1.5;"/>
   </g>
   <g id="patch_4">
    <path d="M 82.520165 307.584 
L 82.520165 41.472 
" style="fill:none;stroke:#000000;stroke-linecap:square;stroke-linejoin:miter;stroke-width:0.8;"/>
   </g>
   <g id="patch_5">
    <path d="M 389.799835 307.584 
L 389.799835 41.472 
" style="fill:none;stroke:#000000;stroke-linecap:square;stroke-linejoin:miter;stroke-width:0.8;"/>
   </g>
   <g id="patch_6">
    <path d="M 82.520165 307.584 
L 389.799835 307.584 
" style="fill:none;stroke:#000000;stroke-linecap:square;stroke-linejoin:miter;stroke-width:0.8;"/>
   </g>
   <g id="patch_7">
    <path d="M 82.520165 41.472 
L 389.799835 41.472 
" style="fill:none;stroke:#000000;stroke-linecap:square;stroke-linejoin:miter;stroke-width:0.8;"/>
   </g>
   <g id="PathCollection_1">
    <defs>
     <path d="M 0 2.236068 
C 0.593012 2.236068 1.161816 2.000462 1.581139 1.581139 
C 2.000462 1.161816 2.236068 0.593012 2.236068 0 
C 2.236068 -0.593012 2.000462 -1.161816 1.581139 -1.581139 
C 1.161816 -2.000462 0.593012 -2.236068 0 -2.236068 
C -0.593012 -2.236068 -1.161816 -2.000462 -1.581139 -1.581139 
C -2.000462 -1.161816 -2.236068 -0.593012 -2.236068 0 
C -2.236068 0.593012 -2.000462 1.161816 -1.581139 1.581139 
C -1.161816 2.000462 -0.593012 2.236068 0 2.236068 
z
" id="me162c4737b" style="stroke:#000000;"/>
    </defs>
    <g clip-path="url(#p9a8b72aa6e)">
     <use style="stroke:#000000;" x="325.967396" xlink:href="#me162c4737b" y="108.318973"/>
    </g>
   </g>
   <g id="Quiver_1">
    <path clip-path="url(#p9a8b72aa6e)" d="M 326.580902 108.282997 
L 326.976641 115.031556 
L 328.167675 114.346099 
L 326.686921 120.589081 
L 324.486643 114.561956 
L 325.74963 115.103509 
L 325.353891 108.354949 
L 326.580902 108.282997 
"/>
   </g>
  </g>
 </g>
 <defs>
  <clipPath id="p9a8b72aa6e">
   <rect height="266.112" width="307.27967" x="82.520165" y="41.472"/>
  </clipPath>
 </defs>
</svg>
