<?xml version="1.0" encoding="utf-8" standalone="no"?>
<!DOCTYPE svg PUBLIC "-//W3C//DTD SVG 1.1//EN"
  "http://www.w3.org/Graphics/SVG/1.1/DTD/svg11.dtd">
<!-- Created with matplotlib (https://matplotlib.org/) -->
<svg height="345.6pt" version="1.1" viewBox="0 0 460.8 345.6" width="460.8pt" xmlns="http://www.w3.org/2000/svg" xmlns:xlink="http://www.w3.org/1999/xlink">
 <defs>
  <style type="text/css">
*{stroke-linecap:butt;stroke-linejoin:round;}
  </style>
 </defs>
 <g id="figure_1">
  <g id="patch_1">
   <path d="M 0 345.6 
L 460.8 345.6 
L 460.8 0 
L 0 0 
z
" style="fill:#ffffff;"/>
  </g>
  <g id="axes_1">
   <g id="patch_2">
    <path d="M 82.520165 307.584 
L 389.799835 307.584 
L 389.799835 41.472 
L 82.520165 41.472 
z
" style="fill:#ffffff;"/>
   </g>
   <g id="patch_3">
    <path clip-path="url(#p35493bc845)" d="M 236.16 225.741278 
C 249.74192 225.741278 262.769389 220.345124 272.373256 210.741256 
C 281.977124 201.137389 287.373278 188.10992 287.373278 174.528 
C 287.373278 160.94608 281.977124 147.918611 272.373256 138.314744 
C 262.769389 128.710876 249.74192 123.314722 236.16 123.314722 
C 222.57808 123.314722 209.550611 128.710876 199.946744 138.314744 
C 190.342876 147.918611 184.946722 160.94608 184.946722 174.528 
C 184.946722 188.10992 190.342876 201.137389 199.946744 210.741256 
C 209.550611 220.345124 222.57808 225.741278 236.16 225.741278 
z
" style="fill:#009900;fill-opacity:0.5;stroke:#009900;stroke-linejoin:miter;stroke-width:2;"/>
   </g>
   <g id="matplotlib.axis_1">
    <g id="xtick_1">
     <g id="line2d_1">
      <defs>
       <path d="M 0 0 
L 0 3.5 
" id="m215736674e" style="stroke:#000000;stroke-width:0.8;"/>
      </defs>
      <g>
       <use style="stroke:#000000;stroke-width:0.8;" x="108.126804" xlink:href="#m215736674e" y="307.584"/>
      </g>
     </g>
     <g id="text_1">
      <!-- −2 -->
      <defs>
       <path d="M 10.59375 35.5 
L 73.1875 35.5 
L 73.1875 27.203125 
L 10.59375 27.203125 
z
" id="DejaVuSans-8722"/>
       <path d="M 19.1875 8.296875 
L 53.609375 8.296875 
L 53.609375 0 
L 7.328125 0 
L 7.328125 8.296875 
Q 12.9375 14.109375 22.625 23.890625 
Q 32.328125 33.6875 34.8125 36.53125 
Q 39.546875 41.84375 41.421875 45.53125 
Q 43.3125 49.21875 43.3125 52.78125 
Q 43.3125 58.59375 39.234375 62.25 
Q 35.15625 65.921875 28.609375 65.921875 
Q 23.96875 65.921875 18.8125 64.3125 
Q 13.671875 62.703125 7.8125 59.421875 
L 7.8125 69.390625 
Q 13.765625 71.78125 18.9375 73 
Q 24.125 74.21875 28.421875 74.21875 
Q 39.75 74.21875 46.484375 68.546875 
Q 53.21875 62.890625 53.21875 53.421875 
Q 53.21875 48.921875 51.53125 44.890625 
Q 49.859375 40.875 45.40625 35.40625 
Q 44.1875 33.984375 37.640625 27.21875 
Q 31.109375 20.453125 19.1875 8.296875 
z
" id="DejaVuSans-50"/>
      </defs>
      <g transform="translate(100.755711 322.182437)scale(0.1 -0.1)">
       <use xlink:href="#DejaVuSans-8722"/>
       <use x="83.789062" xlink:href="#DejaVuSans-50"/>
      </g>
     </g>
    </g>
    <g id="xtick_2">
     <g id="line2d_2">
      <g>
       <use style="stroke:#000000;stroke-width:0.8;" x="172.143402" xlink:href="#m215736674e" y="307.584"/>
      </g>
     </g>
     <g id="text_2">
      <!-- −1 -->
      <defs>
       <path d="M 12.40625 8.296875 
L 28.515625 8.296875 
L 28.515625 63.921875 
L 10.984375 60.40625 
L 10.984375 69.390625 
L 28.421875 72.90625 
L 38.28125 72.90625 
L 38.28125 8.296875 
L 54.390625 8.296875 
L 54.390625 0 
L 12.40625 0 
z
" id="DejaVuSans-49"/>
      </defs>
      <g transform="translate(164.772308 322.182437)scale(0.1 -0.1)">
       <use xlink:href="#DejaVuSans-8722"/>
       <use x="83.789062" xlink:href="#DejaVuSans-49"/>
      </g>
     </g>
    </g>
    <g id="xtick_3">
     <g id="line2d_3">
      <g>
       <use style="stroke:#000000;stroke-width:0.8;" x="236.16" xlink:href="#m215736674e" y="307.584"/>
      </g>
     </g>
     <g id="text_3">
      <!-- 0 -->
      <defs>
       <path d="M 31.78125 66.40625 
Q 24.171875 66.40625 20.328125 58.90625 
Q 16.5 51.421875 16.5 36.375 
Q 16.5 21.390625 20.328125 13.890625 
Q 24.171875 6.390625 31.78125 6.390625 
Q 39.453125 6.390625 43.28125 13.890625 
Q 47.125 21.390625 47.125 36.375 
Q 47.125 51.421875 43.28125 58.90625 
Q 39.453125 66.40625 31.78125 66.40625 
z
M 31.78125 74.21875 
Q 44.046875 74.21875 50.515625 64.515625 
Q 56.984375 54.828125 56.984375 36.375 
Q 56.984375 17.96875 50.515625 8.265625 
Q 44.046875 -1.421875 31.78125 -1.421875 
Q 19.53125 -1.421875 13.0625 8.265625 
Q 6.59375 17.96875 6.59375 36.375 
Q 6.59375 54.828125 13.0625 64.515625 
Q 19.53125 74.21875 31.78125 74.21875 
z
" id="DejaVuSans-48"/>
      </defs>
      <g transform="translate(232.97875 322.182437)scale(0.1 -0.1)">
       <use xlink:href="#DejaVuSans-48"/>
      </g>
     </g>
    </g>
    <g id="xtick_4">
     <g id="line2d_4">
      <g>
       <use style="stroke:#000000;stroke-width:0.8;" x="300.176598" xlink:href="#m215736674e" y="307.584"/>
      </g>
     </g>
     <g id="text_4">
      <!-- 1 -->
      <g transform="translate(296.995348 322.182437)scale(0.1 -0.1)">
       <use xlink:href="#DejaVuSans-49"/>
      </g>
     </g>
    </g>
    <g id="xtick_5">
     <g id="line2d_5">
      <g>
       <use style="stroke:#000000;stroke-width:0.8;" x="364.193196" xlink:href="#m215736674e" y="307.584"/>
      </g>
     </g>
     <g id="text_5">
      <!-- 2 -->
      <g transform="translate(361.011946 322.182437)scale(0.1 -0.1)">
       <use xlink:href="#DejaVuSans-50"/>
      </g>
     </g>
    </g>
   </g>
   <g id="matplotlib.axis_2">
    <g id="ytick_1">
     <g id="line2d_6">
      <defs>
       <path d="M 0 0 
L -3.5 0 
" id="m3d7e21aa5a" style="stroke:#000000;stroke-width:0.8;"/>
      </defs>
      <g>
       <use style="stroke:#000000;stroke-width:0.8;" x="82.520165" xlink:href="#m3d7e21aa5a" y="302.561196"/>
      </g>
     </g>
     <g id="text_6">
      <!-- −2.0 -->
      <defs>
       <path d="M 10.6875 12.40625 
L 21 12.40625 
L 21 0 
L 10.6875 0 
z
" id="DejaVuSans-46"/>
      </defs>
      <g transform="translate(51.237353 306.360414)scale(0.1 -0.1)">
       <use xlink:href="#DejaVuSans-8722"/>
       <use x="83.789062" xlink:href="#DejaVuSans-50"/>
       <use x="147.412109" xlink:href="#DejaVuSans-46"/>
       <use x="179.199219" xlink:href="#DejaVuSans-48"/>
      </g>
     </g>
    </g>
    <g id="ytick_2">
     <g id="line2d_7">
      <g>
       <use style="stroke:#000000;stroke-width:0.8;" x="82.520165" xlink:href="#m3d7e21aa5a" y="270.552897"/>
      </g>
     </g>
     <g id="text_7">
      <!-- −1.5 -->
      <defs>
       <path d="M 10.796875 72.90625 
L 49.515625 72.90625 
L 49.515625 64.59375 
L 19.828125 64.59375 
L 19.828125 46.734375 
Q 21.96875 47.46875 24.109375 47.828125 
Q 26.265625 48.1875 28.421875 48.1875 
Q 40.625 48.1875 47.75 41.5 
Q 54.890625 34.8125 54.890625 23.390625 
Q 54.890625 11.625 47.5625 5.09375 
Q 40.234375 -1.421875 26.90625 -1.421875 
Q 22.3125 -1.421875 17.546875 -0.640625 
Q 12.796875 0.140625 7.71875 1.703125 
L 7.71875 11.625 
Q 12.109375 9.234375 16.796875 8.0625 
Q 21.484375 6.890625 26.703125 6.890625 
Q 35.15625 6.890625 40.078125 11.328125 
Q 45.015625 15.765625 45.015625 23.390625 
Q 45.015625 31 40.078125 35.4375 
Q 35.15625 39.890625 26.703125 39.890625 
Q 22.75 39.890625 18.8125 39.015625 
Q 14.890625 38.140625 10.796875 36.28125 
z
" id="DejaVuSans-53"/>
      </defs>
      <g transform="translate(51.237353 274.352116)scale(0.1 -0.1)">
       <use xlink:href="#DejaVuSans-8722"/>
       <use x="83.789062" xlink:href="#DejaVuSans-49"/>
       <use x="147.412109" xlink:href="#DejaVuSans-46"/>
       <use x="179.199219" xlink:href="#DejaVuSans-53"/>
      </g>
     </g>
    </g>
    <g id="ytick_3">
     <g id="line2d_8">
      <g>
       <use style="stroke:#000000;stroke-width:0.8;" x="82.520165" xlink:href="#m3d7e21aa5a" y="238.544598"/>
      </g>
     </g>
     <g id="text_8">
      <!-- −1.0 -->
      <g transform="translate(51.237353 242.343817)scale(0.1 -0.1)">
       <use xlink:href="#DejaVuSans-8722"/>
       <use x="83.789062" xlink:href="#DejaVuSans-49"/>
       <use x="147.412109" xlink:href="#DejaVuSans-46"/>
       <use x="179.199219" xlink:href="#DejaVuSans-48"/>
      </g>
     </g>
    </g>
    <g id="ytick_4">
     <g id="line2d_9">
      <g>
       <use style="stroke:#000000;stroke-width:0.8;" x="82.520165" xlink:href="#m3d7e21aa5a" y="206.536299"/>
      </g>
     </g>
     <g id="text_9">
      <!-- −0.5 -->
      <g transform="translate(51.237353 210.335518)scale(0.1 -0.1)">
       <use xlink:href="#DejaVuSans-8722"/>
       <use x="83.789062" xlink:href="#DejaVuSans-48"/>
       <use x="147.412109" xlink:href="#DejaVuSans-46"/>
       <use x="179.199219" xlink:href="#DejaVuSans-53"/>
      </g>
     </g>
    </g>
    <g id="ytick_5">
     <g id="line2d_10">
      <g>
       <use style="stroke:#000000;stroke-width:0.8;" x="82.520165" xlink:href="#m3d7e21aa5a" y="174.528"/>
      </g>
     </g>
     <g id="text_10">
      <!-- 0.0 -->
      <g transform="translate(59.61704 178.327219)scale(0.1 -0.1)">
       <use xlink:href="#DejaVuSans-48"/>
       <use x="63.623047" xlink:href="#DejaVuSans-46"/>
       <use x="95.410156" xlink:href="#DejaVuSans-48"/>
      </g>
     </g>
    </g>
    <g id="ytick_6">
     <g id="line2d_11">
      <g>
       <use style="stroke:#000000;stroke-width:0.8;" x="82.520165" xlink:href="#m3d7e21aa5a" y="142.519701"/>
      </g>
     </g>
     <g id="text_11">
      <!-- 0.5 -->
      <g transform="translate(59.61704 146.31892)scale(0.1 -0.1)">
       <use xlink:href="#DejaVuSans-48"/>
       <use x="63.623047" xlink:href="#DejaVuSans-46"/>
       <use x="95.410156" xlink:href="#DejaVuSans-53"/>
      </g>
     </g>
    </g>
    <g id="ytick_7">
     <g id="line2d_12">
      <g>
       <use style="stroke:#000000;stroke-width:0.8;" x="82.520165" xlink:href="#m3d7e21aa5a" y="110.511402"/>
      </g>
     </g>
     <g id="text_12">
      <!-- 1.0 -->
      <g transform="translate(59.61704 114.310621)scale(0.1 -0.1)">
       <use xlink:href="#DejaVuSans-49"/>
       <use x="63.623047" xlink:href="#DejaVuSans-46"/>
       <use x="95.410156" xlink:href="#DejaVuSans-48"/>
      </g>
     </g>
    </g>
    <g id="ytick_8">
     <g id="line2d_13">
      <g>
       <use style="stroke:#000000;stroke-width:0.8;" x="82.520165" xlink:href="#m3d7e21aa5a" y="78.503103"/>
      </g>
     </g>
     <g id="text_13">
      <!-- 1.5 -->
      <g transform="translate(59.61704 82.302322)scale(0.1 -0.1)">
       <use xlink:href="#DejaVuSans-49"/>
       <use x="63.623047" xlink:href="#DejaVuSans-46"/>
       <use x="95.410156" xlink:href="#DejaVuSans-53"/>
      </g>
     </g>
    </g>
    <g id="ytick_9">
     <g id="line2d_14">
      <g>
       <use style="stroke:#000000;stroke-width:0.8;" x="82.520165" xlink:href="#m3d7e21aa5a" y="46.494804"/>
      </g>
     </g>
     <g id="text_14">
      <!-- 2.0 -->
      <g transform="translate(59.61704 50.294023)scale(0.1 -0.1)">
       <use xlink:href="#DejaVuSans-50"/>
       <use x="63.623047" xlink:href="#DejaVuSans-46"/>
       <use x="95.410156" xlink:href="#DejaVuSans-48"/>
      </g>
     </g>
    </g>
   </g>
   <g id="line2d_15">
    <path clip-path="url(#p35493bc845)" d="M 300.176598 63.648 
L 172.143402 63.648 
" style="fill:none;stroke:#009900;stroke-linecap:square;stroke-width:2;"/>
   </g>
   <g id="line2d_16">
    <path clip-path="url(#p35493bc845)" d="M 172.143402 63.648 
L 108.126804 174.528 
" style="fill:none;stroke:#009900;stroke-linecap:square;stroke-width:2;"/>
   </g>
   <g id="line2d_17">
    <path clip-path="url(#p35493bc845)" d="M 108.126804 174.528 
L 172.143402 285.408 
" style="fill:none;stroke:#009900;stroke-linecap:square;stroke-width:2;"/>
   </g>
   <g id="line2d_18">
    <path clip-path="url(#p35493bc845)" d="M 172.143402 285.408 
L 300.176598 285.408 
" style="fill:none;stroke:#009900;stroke-linecap:square;stroke-width:2;"/>
   </g>
   <g id="line2d_19">
    <path clip-path="url(#p35493bc845)" d="M 300.176598 285.408 
L 364.193196 174.528 
" style="fill:none;stroke:#009900;stroke-linecap:square;stroke-width:2;"/>
   </g>
   <g id="line2d_20">
    <path clip-path="url(#p35493bc845)" d="M 364.193196 174.528 
L 300.176598 63.648 
" style="fill:none;stroke:#009900;stroke-linecap:square;stroke-width:2;"/>
   </g>
   <g id="line2d_21">
    <path clip-path="url(#p35493bc845)" d="M 273.550734 221.797308 
L 275.76562 217.180081 
L 277.794094 212.477975 
L 279.632911 207.698514 
L 281.27913 202.849342 
L 282.730117 197.938218 
L 284.359766 192.100595 
L 286.697877 187.544529 
L 288.851925 182.898608 
L 290.818461 178.170264 
L 292.594342 173.367062 
L 294.176725 168.496686 
L 295.56308 163.566927 
L 296.751187 158.585672 
L 297.739148 153.560889 
L 298.52538 148.500619 
L 299.108626 143.412955 
L 299.487954 138.306037 
L 299.662756 133.188034 
L 299.632753 128.067136 
L 299.397992 122.951533 
L 298.95885 117.849411 
L 298.316028 112.76893 
L 297.470556 107.718219 
L 296.423785 102.705359 
L 295.177391 97.738367 
L 293.733366 92.825192 
L 292.094023 87.973691 
L 290.261982 83.191628 
L 288.240176 78.486652 
L 286.031837 73.86629 
L 283.6405 69.337934 
L 281.06999 64.908828 
L 280.294121 63.648 
L 277.67257 68.047088 
L 275.229034 72.547491 
L 272.967419 77.14201 
L 270.891346 81.823294 
L 269.004134 86.583854 
L 267.308804 91.416075 
L 265.808067 96.312226 
L 264.504325 101.264473 
L 263.399662 106.264896 
L 262.495847 111.305493 
L 261.794324 116.378201 
L 261.296217 121.474905 
L 261.002323 126.587451 
L 260.923677 129.699882 
L 265.166017 126.831598 
L 269.290264 123.795961 
L 273.289818 120.597826 
L 277.158281 117.242309 
L 280.889466 113.73478 
L 284.477402 110.080848 
L 287.91635 106.28636 
L 291.200808 102.357386 
L 294.325522 98.300211 
L 297.285492 94.121327 
L 300.075984 89.827418 
L 302.692534 85.425353 
L 305.130955 80.922176 
L 307.435733 76.22119 
L 302.326654 75.872166 
L 297.207705 75.727729 
L 292.087074 75.788111 
L 286.972955 76.053215 
L 281.873527 76.522618 
L 276.796949 77.195568 
L 271.751343 78.070989 
L 266.744781 79.147479 
L 261.785271 80.423318 
L 256.880748 81.896464 
L 252.039059 83.56456 
L 247.267948 85.424937 
L 242.575049 87.474621 
L 237.967869 89.71033 
L 233.453779 92.128489 
L 229.040001 94.725229 
L 224.733594 97.496397 
L 220.54145 100.437558 
L 216.470274 103.544007 
L 212.52658 106.810775 
L 208.716675 110.232636 
L 205.046657 113.804115 
L 201.522395 117.5195 
L 198.149527 121.372845 
L 194.933451 125.357986 
L 191.87931 129.468549 
L 188.99199 133.697956 
L 186.276112 138.039443 
L 183.736019 142.486063 
L 181.375775 147.030703 
L 179.199156 151.666092 
L 177.209645 156.384815 
L 175.410423 161.179322 
L 173.80437 166.041945 
L 172.394054 170.964902 
L 171.181732 175.94032 
L 170.169344 180.960237 
L 169.358509 186.016624 
L 168.750524 191.101391 
L 168.346361 196.206404 
L 168.146668 201.323495 
L 168.151764 206.444479 
L 168.36164 211.561163 
L 168.775961 216.665361 
L 169.394065 221.748908 
L 170.214961 226.803671 
L 171.237338 231.821564 
L 172.459559 236.794559 
L 173.879669 241.7147 
L 175.495396 246.574116 
L 177.304156 251.365034 
L 179.303055 256.079788 
L 181.488894 260.710836 
L 183.858178 265.25077 
L 186.407115 269.692326 
L 189.131628 274.028399 
L 192.027359 278.252052 
L 195.089675 282.356528 
L 197.53854 285.408 
L 200.724841 281.399011 
L 203.748276 277.265811 
L 206.604009 273.015012 
L 209.28747 268.653415 
L 211.794368 264.187996 
L 214.120692 259.6259 
L 216.26272 254.974425 
L 218.217025 250.241013 
L 219.98048 245.433235 
L 221.550266 240.558784 
L 222.923869 235.625457 
L 224.099093 230.641146 
L 225.074058 225.613826 
L 225.251136 224.565951 
L 225.084366 225.184012 
L 223.861865 230.156938 
L 222.839207 235.174774 
L 222.018027 240.229491 
L 221.399638 245.313003 
L 220.98503 250.417178 
L 220.774867 255.53385 
L 220.769484 260.654834 
L 220.96889 265.771936 
L 221.372766 270.876972 
L 221.980465 275.961773 
L 222.791017 281.018205 
L 223.664564 285.408 
L 224.651359 280.382989 
L 225.436418 275.322536 
L 226.018485 270.234737 
L 226.396629 265.127731 
L 226.570244 260.009688 
L 226.539054 254.888797 
L 226.303107 249.773249 
L 225.862782 244.671228 
L 225.218782 239.590897 
L 224.372139 234.540382 
L 223.324206 229.527764 
L 222.07666 224.561062 
L 221.838173 223.697962 
L 218.094177 227.191813 
L 214.492893 230.832589 
L 211.040081 234.614467 
L 207.741266 238.531394 
L 204.601726 242.577106 
L 201.626481 246.74513 
L 198.820294 251.028798 
L 196.187651 255.421257 
L 193.732767 259.91548 
L 191.459566 264.504278 
L 189.371687 269.180309 
L 187.47247 273.936092 
L 185.764952 278.76402 
L 184.251866 283.656368 
L 183.761724 285.408 
L 182.318293 280.49465 
L 180.679534 275.642952 
L 178.84807 270.860668 
L 176.826831 266.155448 
L 174.619049 261.53482 
L 172.228258 257.006176 
L 169.658282 252.57676 
L 166.913232 248.253659 
L 163.9975 244.043789 
L 160.91575 239.953884 
L 157.672913 235.990488 
L 154.274176 232.159941 
L 150.724977 228.468371 
L 147.030993 224.921685 
L 143.198135 221.525555 
L 139.232533 218.285415 
L 135.140533 215.206449 
L 130.92868 212.293582 
L 129.328742 211.250833 
L 128.988227 206.14118 
L 128.443653 201.049231 
L 127.695892 195.983133 
L 126.746138 190.950989 
L 125.595912 185.960851 
L 124.247054 181.020701 
L 122.701721 176.138442 
L 120.962386 171.321885 
L 119.031832 166.578737 
L 116.913146 161.916583 
L 116.224942 160.501614 
L 121.327541 160.068047 
L 126.408721 159.430777 
L 131.460353 158.590824 
L 136.474354 157.549532 
L 141.442705 156.308566 
L 146.357455 154.869911 
L 151.210744 153.23587 
L 155.994806 151.409056 
L 160.701989 149.392391 
L 165.324761 147.189103 
L 169.855727 144.802715 
L 174.287639 142.237046 
L 178.613407 139.4962 
L 182.82611 136.584562 
L 186.919008 133.50679 
L 190.885555 130.267807 
L 194.719404 126.872796 
L 198.414422 123.327187 
L 201.964698 119.636653 
L 205.364553 115.807098 
L 208.608546 111.844648 
L 211.691489 107.755642 
L 214.608449 103.546623 
L 217.35476 99.224323 
L 219.926028 94.795657 
L 222.31814 90.26771 
L 224.52727 85.647726 
L 226.549882 80.943096 
L 228.382741 76.161347 
L 230.022915 71.310127 
L 231.46778 66.397199 
L 232.184236 63.648 
L 233.519735 68.591778 
L 235.051865 73.478196 
L 236.778174 78.299437 
L 238.6959 83.047787 
L 240.801975 87.71565 
L 243.093031 92.295559 
L 245.565401 96.780187 
L 248.215131 101.162359 
L 251.037982 105.435065 
L 254.029437 109.591469 
L 257.184712 113.624922 
L 260.498758 117.528972 
L 263.966273 121.297372 
L 267.58171 124.924095 
L 271.339285 128.403337 
L 275.232988 131.729533 
L 279.256588 134.897363 
L 283.403649 137.901757 
L 287.667537 140.73791 
L 292.04143 143.401284 
L 296.518331 145.887619 
L 301.091078 148.192936 
L 305.752355 150.313549 
L 310.494705 152.246064 
L 315.310542 153.98739 
L 320.192162 155.53474 
L 325.131754 156.88564 
L 330.121417 158.037929 
L 335.153167 158.989763 
L 340.218956 159.739619 
L 345.310679 160.286297 
L 350.420191 160.628924 
L 355.539317 160.766951 
L 356.249966 160.769922 
L 353.784985 165.258616 
L 351.501475 169.842292 
L 349.403091 174.513618 
L 347.493188 179.26512 
L 345.774822 184.089197 
L 344.250742 188.978132 
L 342.923387 193.924103 
L 341.794879 198.919197 
L 340.867025 203.955425 
L 340.141308 209.024728 
L 339.61889 214.118998 
L 339.385596 217.496022 
L 335.157191 220.384809 
L 331.047688 223.440376 
L 327.063663 226.657835 
L 323.211488 230.032039 
L 319.497327 233.55759 
L 315.927122 237.228848 
L 312.506583 241.039939 
L 309.241183 244.984767 
L 306.136147 249.057021 
L 303.19644 253.250185 
L 300.426767 257.557553 
L 297.831559 261.972232 
L 295.414966 266.487161 
L 293.180855 271.095116 
L 291.132801 275.788726 
L 289.274078 280.560482 
L 287.605972 285.408 
L 285.939765 280.56566 
L 284.081249 275.793824 
L 282.033396 271.100126 
L 279.799484 266.492075 
L 277.383086 261.977042 
L 274.788067 257.562251 
L 272.01858 253.254764 
L 269.079054 249.061473 
L 265.974193 244.989086 
L 262.708963 241.044117 
L 259.288589 237.232878 
L 255.718541 233.561467 
L 252.004532 230.035756 
L 248.152503 226.661386 
L 245.89669 224.807188 
L 243.479218 229.321646 
L 241.244209 233.929165 
L 239.19524 238.622376 
L 237.335589 243.39377 
L 235.668229 248.235713 
L 234.19583 253.14046 
L 232.920745 258.100164 
L 231.845016 263.10689 
L 230.970363 268.152629 
L 230.298186 273.229309 
L 229.829559 278.328808 
L 229.565232 283.442968 
L 229.518135 285.408 
L 229.472457 283.488063 
L 229.209933 278.37381 
L 228.743103 273.274147 
L 228.072715 268.19723 
L 227.19984 263.151183 
L 226.125875 258.144078 
L 224.852539 253.183925 
L 223.381868 248.27866 
L 221.716215 243.436129 
L 219.858244 238.66408 
L 217.810929 233.970148 
L 215.577544 229.361841 
L 213.161663 224.846531 
L 210.56715 220.431443 
L 208.999 217.945507 
L 203.904357 217.426741 
L 198.793045 217.11212 
L 193.673239 217.00215 
L 188.553131 217.097005 
L 183.440912 217.396534 
L 178.34476 217.900257 
L 173.272828 218.607369 
L 168.23323 219.516739 
L 163.234029 220.626911 
L 158.283221 221.936111 
L 153.388727 223.442242 
L 148.558377 225.142897 
L 143.7999 227.035353 
L 139.532584 228.924407 
L 140.055557 228.555203 
L 144.171558 225.508395 
L 148.162426 222.299428 
L 152.021778 218.933435 
L 155.743439 215.415802 
L 159.321455 211.752156 
L 162.750103 207.948359 
L 166.023896 204.010494 
L 169.137599 199.944862 
L 172.086228 195.757968 
L 174.865068 191.456509 
L 177.469673 187.047367 
L 179.895876 182.537595 
L 182.139795 177.934408 
L 184.197841 173.245171 
L 185.060683 171.11337 
L 183.733476 166.167359 
L 182.209543 161.278379 
L 180.491321 156.45425 
L 178.581561 151.702691 
L 176.483316 147.031302 
L 174.199944 142.447558 
L 171.735097 137.95879 
L 169.09272 133.572181 
L 166.277038 129.294747 
L 163.292557 125.133333 
L 160.144051 121.094594 
L 156.836557 117.184992 
L 153.375366 113.410782 
L 149.766015 109.778002 
L 147.006147 107.187003 
L 151.916028 108.642191 
L 156.880173 109.899872 
L 161.890642 110.958035 
L 166.939418 111.814986 
L 172.018424 112.469354 
L 177.119535 112.920092 
L 182.234591 113.16648 
L 187.355408 113.208124 
L 192.473794 113.044956 
L 197.581561 112.677237 
L 202.670538 112.105557 
L 207.732583 111.330829 
L 212.759598 110.354292 
L 217.74354 109.17751 
L 222.676438 107.802365 
L 227.550398 106.231057 
L 232.357625 104.466098 
L 237.090426 102.510314 
L 241.741232 100.366833 
L 246.3026 98.039084 
L 250.767235 95.53079 
L 255.127994 92.845965 
L 259.3779 89.988904 
L 263.510155 86.964177 
L 267.518148 83.776624 
L 271.395466 80.431343 
L 275.135908 76.933687 
L 278.733489 73.289251 
L 282.182453 69.503865 
L 285.477284 65.583585 
L 287.008523 63.648 
L 290.227176 67.631061 
L 293.602534 71.482225 
L 297.129197 75.195329 
L 300.801525 78.764435 
L 304.61364 82.183832 
L 308.559446 85.44805 
L 312.63263 88.551866 
L 315.881577 90.849821 
L 316.374797 95.947 
L 317.071457 101.020379 
L 317.97044 106.06184 
L 319.070308 111.063319 
L 320.369303 116.016814 
L 321.865345 120.914401 
L 323.556042 125.748245 
L 325.438689 130.510612 
L 327.510274 135.193884 
L 329.767483 139.790569 
L 332.206705 144.293312 
L 334.824037 148.694911 
L 337.615292 152.988324 
L 340.576006 157.166682 
L 343.701441 161.223301 
L 346.986598 165.151691 
L 350.42622 168.945568 
L 354.014806 172.598861 
L 357.746614 176.105727 
L 361.433247 179.308371 
L 356.590254 177.644064 
L 351.68458 176.174757 
L 346.724073 174.9028 
L 341.71667 173.830227 
L 336.67038 172.958755 
L 331.593277 172.289778 
L 326.493484 171.824366 
L 321.379158 171.563263 
L 316.258482 171.506888 
L 311.139648 171.65533 
L 306.030844 172.008353 
L 300.940243 172.56539 
L 295.875991 173.325552 
L 290.846187 174.287622 
L 287.370352 175.075514 
L 292.34673 176.283884 
L 297.36745 177.292285 
L 302.424479 178.099105 
L 307.509727 178.703052 
L 312.615059 179.10316 
L 317.732308 179.298789 
L 322.853286 179.289627 
L 327.969802 179.075687 
L 333.073669 178.657313 
L 338.156724 178.035172 
L 343.210833 177.210262 
L 348.227913 176.183901 
L 353.199935 174.957731 
L 358.118947 173.533714 
L 362.73387 172.000374 
L 358.909057 175.405562 
L 355.223475 178.960978 
L 351.683019 182.660935 
L 348.293354 186.499512 
L 345.059903 190.470569 
L 341.987838 194.567753 
L 339.082074 198.78451 
L 336.34726 203.114093 
L 333.78777 207.549577 
L 331.4077 212.083865 
L 329.210857 216.709703 
L 327.200755 221.419692 
L 325.38061 226.206296 
L 323.753334 231.061857 
L 322.321531 235.978608 
L 321.08749 240.948683 
L 320.053187 245.964131 
L 319.220275 251.016928 
L 318.967761 252.86075 
L 314.961579 256.050578 
L 311.086159 259.398058 
L 307.347704 262.897837 
L 303.752192 266.544315 
L 300.305377 270.331657 
L 297.012772 274.253807 
L 293.879645 278.304488 
L 290.911008 282.47722 
L 288.971377 285.408 
L 286.118389 281.155359 
L 283.097622 277.020208 
L 279.91391 273.009164 
L 276.572345 269.128642 
L 273.078274 265.384851 
L 269.437286 261.783781 
L 265.655206 258.331192 
L 261.738084 255.032607 
L 257.692188 251.893304 
L 253.523989 248.918305 
L 249.240156 246.112369 
L 244.847542 243.479985 
L 240.353175 241.025364 
L 235.764244 238.752434 
L 231.08809 236.66483 
L 226.332195 234.765892 
L 221.504167 233.058658 
L 216.61173 231.545859 
L 211.66271 230.229916 
L 206.665026 229.112933 
L 201.626671 228.196698 
L 196.555707 227.482676 
L 191.460247 226.97201 
L 186.34844 226.665516 
L 181.228466 226.563686 
L 176.108516 226.666681 
L 170.996779 226.974337 
L 165.901435 227.486162 
L 160.830633 228.201337 
L 155.792487 229.118717 
L 150.795057 230.236837 
L 145.846337 231.553905 
L 141.770335 232.800304 
L 145.504041 229.295459 
L 149.094605 225.64411 
L 152.536281 221.852096 
L 155.823565 217.925486 
L 158.951196 213.87056 
L 161.914172 209.693806 
L 164.707752 205.401905 
L 167.327467 201.001724 
L 169.769127 196.500302 
L 172.028824 191.90484 
L 174.102945 187.22269 
L 175.98817 182.461343 
L 177.681485 177.628416 
L 179.180179 172.731639 
L 180.481856 167.778848 
L 181.584433 162.777966 
L 182.486146 157.736992 
L 183.185552 152.663992 
L 183.681533 147.56708 
L 183.973295 142.454412 
L 184.060372 137.334166 
L 183.942623 132.214534 
L 183.620239 127.103705 
L 183.093733 122.009856 
L 182.363949 116.941137 
L 181.432054 111.905655 
L 180.299539 106.911468 
L 178.968216 101.966563 
L 177.440214 97.078853 
L 175.717978 92.256156 
L 173.804263 87.506188 
L 171.702131 82.836547 
L 169.414944 78.254705 
L 166.946362 73.767991 
L 166.622779 73.21 
L 171.743145 73.130292 
L 176.856228 72.845888 
L 181.953848 72.357243 
L 187.02785 71.665139 
L 192.070116 70.770682 
L 197.07258 69.675303 
L 202.027239 68.380756 
L 206.926167 66.889111 
L 211.761527 65.202754 
L 215.743328 63.648 
L 220.519699 65.49483 
L 225.366103 67.149179 
L 230.274787 68.608401 
L 235.237897 69.87016 
L 240.247495 70.932438 
L 245.295565 71.793537 
L 250.374032 72.452077 
L 255.474771 72.907006 
L 260.589623 73.157597 
L 265.710404 73.203447 
L 270.828922 73.044484 
L 275.93699 72.680962 
L 281.026434 72.113462 
L 286.089114 71.342893 
L 291.11693 70.370487 
L 296.101837 69.1978 
L 301.035863 67.826708 
L 302.35632 67.42339 
L 298.663434 70.971219 
L 295.115376 74.663886 
L 291.717825 78.495484 
L 288.476213 82.459883 
L 285.395729 86.550741 
L 282.481299 90.761513 
L 279.737586 95.085463 
L 277.16898 99.515673 
L 274.77959 104.045057 
L 272.573238 108.666367 
L 270.553454 113.372212 
L 268.723469 118.155062 
L 267.086211 123.007267 
L 265.644299 127.921063 
L 264.619003 131.950012 
L 268.710092 128.869836 
L 272.674735 125.628523 
L 276.506589 122.23126 
L 280.199524 118.683481 
L 283.747631 114.990862 
L 287.145235 111.15931 
L 290.3869 107.194955 
L 293.467439 103.104138 
L 296.381926 98.893406 
L 299.125697 94.569493 
L 301.694363 90.139317 
L 304.083815 85.609966 
L 306.290229 80.988685 
L 307.96183 77.132418 
L 302.87235 76.565231 
L 297.764261 76.202024 
L 292.645732 76.043376 
L 287.524954 76.089541 
L 282.410118 76.340446 
L 277.309407 76.795689 
L 272.23098 77.454542 
L 267.182963 78.315951 
L 262.173431 79.378538 
L 257.210398 80.640602 
L 252.301804 82.100126 
L 247.455502 83.754773 
L 242.679245 85.601898 
L 237.980674 87.638544 
L 233.367305 89.861454 
L 228.846518 92.267071 
L 224.425547 94.851547 
L 220.111464 97.610748 
L 215.91117 100.540259 
L 211.831386 103.635393 
L 207.878637 106.8912 
L 204.059247 110.30247 
L 200.379327 113.863746 
L 196.844763 117.569331 
L 193.461211 121.413297 
L 190.234082 125.389495 
L 187.168541 129.491562 
L 184.26949 133.712937 
L 181.541569 138.046867 
L 178.98914 142.486418 
L 176.616288 147.024487 
L 174.426808 151.653816 
L 172.424204 156.366997 
L 170.611678 161.156491 
L 168.992131 166.014635 
L 167.568153 170.933658 
L 166.342023 175.905691 
L 165.315701 180.922778 
L 164.490831 185.976894 
L 163.868731 191.059954 
L 163.450397 196.163825 
L 163.236498 201.280342 
L 163.227376 206.40132 
L 163.423046 211.518567 
L 163.823195 216.623896 
L 164.427182 221.709139 
L 165.234042 226.766162 
L 166.242483 231.786874 
L 167.450893 236.763243 
L 168.857338 241.687308 
L 170.459567 246.551191 
L 172.255019 251.347112 
L 174.24082 256.067398 
L 176.413794 260.704497 
L 178.770464 265.250991 
L 181.30706 269.699606 
L 184.019525 274.043227 
L 186.903518 278.274903 
L 189.954426 282.387865 
L 192.363435 285.408 
L 195.537044 281.388956 
L 198.547395 277.246217 
L 201.389672 272.98641 
L 204.05933 268.616349 
L 206.552096 264.143026 
L 208.863983 259.573597 
L 210.991292 254.915372 
L 212.93062 250.175804 
L 214.678865 245.362474 
L 216.233229 240.483084 
L 217.591227 235.545438 
L 218.750685 230.557436 
L 219.709749 225.527059 
L 220.090183 223.15475 
L 217.776804 227.723424 
L 215.647974 232.380954 
L 213.707099 237.119889 
L 211.957283 241.932648 
L 210.401325 246.811531 
L 209.041715 251.748733 
L 207.880629 256.736355 
L 206.919922 261.766419 
L 206.161134 266.830878 
L 205.605476 271.921629 
L 205.253839 277.030528 
L 205.106784 282.149403 
L 205.119838 285.408 
L 205.044023 278.36747 
L 204.745803 273.255174 
L 204.243383 268.158894 
L 203.537569 263.086781 
L 202.629489 258.04695 
L 201.520596 253.047465 
L 200.212663 248.096322 
L 198.707784 243.201443 
L 197.008366 238.370658 
L 195.117127 233.611696 
L 193.037094 228.932171 
L 190.771593 224.339567 
L 188.324249 219.841233 
L 185.698977 215.444365 
L 182.899977 211.155996 
L 179.931728 206.982988 
L 176.798976 202.932017 
L 173.506735 199.009562 
L 170.060271 195.221899 
L 166.465098 191.575088 
L 162.726967 188.074963 
L 158.851858 184.727123 
L 154.845971 181.536923 
L 150.715715 178.509468 
L 146.467696 175.649601 
L 142.108711 172.961897 
L 137.645734 170.450656 
L 133.085903 168.119895 
L 128.436514 165.973343 
L 123.705005 164.014434 
L 118.898946 162.246302 
L 115.808556 161.222815 
L 119.658217 164.599887 
L 123.639846 167.820312 
L 127.747072 170.878938 
L 131.973325 173.770873 
L 136.311844 176.491489 
L 140.755689 179.036435 
L 145.297749 181.401638 
L 149.93076 183.583316 
L 154.647308 185.577977 
L 159.439849 187.382431 
L 164.300715 188.993792 
L 169.22213 190.40948 
L 174.196221 191.627233 
L 179.21503 192.6451 
L 184.270529 193.461455 
L 188.800358 194.018105 
L 185.638278 198.046225 
L 182.639809 202.197573 
L 179.809749 206.465507 
L 177.152624 210.843199 
L 174.672685 215.323646 
L 172.3739 219.89968 
L 170.259947 224.563981 
L 168.334206 229.309086 
L 166.59976 234.127405 
L 165.059382 239.01123 
L 163.715538 243.952746 
L 162.570376 248.944049 
L 161.625729 253.977154 
L 160.883109 259.044009 
L 160.343702 264.136507 
L 160.283284 264.865672 
L 164.951262 266.971492 
L 169.699718 268.888958 
L 174.521053 270.615002 
L 179.407555 272.146864 
L 184.351406 273.482093 
L 189.344698 274.618552 
L 194.379442 275.554424 
L 199.447583 276.288211 
L 204.541014 276.81874 
L 209.651587 277.145161 
L 214.771125 277.266953 
L 219.891438 277.183921 
L 225.004335 276.896197 
L 230.101636 276.404242 
L 235.175188 275.708842 
L 240.216872 274.811111 
L 245.218624 273.712485 
L 250.172441 272.41472 
L 255.0704 270.919894 
L 259.904663 269.230397 
L 264.667498 267.348933 
L 269.351284 265.278511 
L 273.948529 263.022444 
L 278.451878 260.58434 
L 282.854127 257.968101 
L 287.148233 255.177912 
L 291.327326 252.218236 
L 295.384721 249.093808 
L 299.313927 245.809627 
L 303.108657 242.370947 
L 306.762842 238.783268 
L 310.270635 235.052331 
L 313.626424 231.184104 
L 316.824841 227.184775 
L 319.860769 223.060743 
L 322.729351 218.818605 
L 325.425999 214.465147 
L 327.946398 210.007335 
L 330.286515 205.452299 
L 332.442608 200.807327 
L 334.411227 196.07985 
L 336.189223 191.27743 
L 337.773751 186.407751 
L 339.162276 181.478603 
L 340.352577 176.497872 
L 341.34275 171.473525 
L 342.131211 166.413601 
L 342.716698 161.326194 
L 343.098275 156.219444 
L 343.275331 151.101519 
L 343.247583 145.980608 
L 343.015075 140.864903 
L 342.73763 137.365869 
L 338.50081 134.489437 
L 334.152353 131.784733 
L 329.699215 129.256085 
L 325.14852 126.907537 
L 320.507548 124.742847 
L 315.783724 122.765478 
L 310.984605 120.978593 
L 306.117868 119.385051 
L 301.1913 117.987401 
L 296.212781 116.78788 
L 291.190276 115.788405 
L 286.131821 114.990577 
L 281.045507 114.395671 
L 275.939472 114.00464 
L 270.821884 113.818108 
L 265.70093 113.836374 
L 260.584803 114.059409 
L 255.481687 114.486856 
L 250.399746 115.118032 
L 245.347111 115.951926 
L 240.331864 116.987204 
L 235.362029 118.222211 
L 230.445557 119.654971 
L 225.590312 121.28319 
L 220.804062 123.104266 
L 216.094465 125.115283 
L 211.469053 127.313026 
L 206.935228 129.693978 
L 202.500242 132.25433 
L 198.171191 134.989986 
L 193.954999 137.89657 
L 189.858412 140.969431 
L 185.887984 144.203655 
L 182.050066 147.594066 
L 178.350798 151.135241 
L 174.796099 154.821514 
L 171.391654 158.646989 
L 168.142911 162.605546 
L 165.055067 166.690851 
L 162.133061 170.896369 
L 159.381568 175.215373 
L 156.80499 179.640952 
L 154.40745 184.166026 
L 152.192781 188.783357 
L 150.164528 193.485558 
L 148.325936 198.265106 
L 146.679945 203.114355 
L 145.229189 208.025547 
L 143.975989 212.990826 
L 142.922349 218.002247 
L 142.069956 223.051794 
L 141.420172 228.131389 
L 141.092388 231.626066 
L 145.760367 233.731886 
L 150.508822 235.649352 
L 155.330157 237.375396 
L 160.216659 238.907258 
L 165.16051 240.242487 
L 170.153802 241.378946 
L 175.188546 242.314818 
L 180.256688 243.048605 
L 185.350119 243.579134 
L 190.460691 243.905555 
L 195.580229 244.027347 
L 200.700542 243.944315 
L 205.813439 243.656591 
L 210.910741 243.164636 
L 215.984292 242.469236 
L 221.025976 241.571505 
L 226.027728 240.472879 
L 230.981546 239.175114 
L 235.879504 237.680288 
L 240.713768 235.990791 
L 245.476602 234.109327 
L 250.160389 232.038905 
L 254.757634 229.782838 
L 259.260983 227.344734 
L 263.663232 224.728495 
L 267.957338 221.938306 
L 272.136431 218.97863 
L 276.193826 215.854202 
L 280.123031 212.570021 
L 283.917762 209.131341 
L 287.571946 205.543662 
L 291.079739 201.812725 
L 294.435528 197.944498 
L 297.633945 193.945169 
L 300.669873 189.821137 
L 303.538456 185.578999 
L 306.235103 181.225541 
L 308.755502 176.767729 
L 311.09562 172.212693 
L 313.251713 167.567721 
L 315.220332 162.840244 
L 316.998328 158.037824 
L 318.582856 153.168145 
L 319.971381 148.238997 
L 321.161682 143.258266 
L 322.151855 138.233919 
L 322.940316 133.173995 
L 323.525803 128.086588 
L 323.907379 122.979838 
L 324.084435 117.861913 
L 324.056687 112.741002 
L 323.824179 107.625297 
L 323.546734 104.126263 
L 319.309915 101.249831 
L 314.961458 98.545127 
L 310.508319 96.016479 
L 305.957624 93.667931 
L 301.316653 91.503241 
L 296.592829 89.525872 
L 291.79371 87.738987 
L 286.926973 86.145445 
L 282.000404 84.747795 
L 277.021885 83.548274 
L 271.999381 82.548799 
L 266.940925 81.750971 
L 261.854611 81.156065 
L 256.748576 80.765034 
L 251.630988 80.578502 
L 246.510034 80.596768 
L 241.393907 80.819803 
L 236.290791 81.24725 
L 231.208851 81.878426 
L 226.156216 82.71232 
L 221.140969 83.747598 
L 216.171134 84.982605 
L 211.254661 86.415364 
L 206.399416 88.043584 
L 201.613167 89.86466 
L 196.903569 91.875677 
L 192.278158 94.07342 
L 187.744333 96.454372 
L 183.309347 99.014724 
L 178.980295 101.75038 
L 174.764104 104.656964 
L 170.667517 107.729825 
L 166.697088 110.964049 
L 162.859171 114.35446 
L 159.159903 117.895635 
L 155.605203 121.581908 
L 152.200759 125.407383 
L 148.952016 129.36594 
L 145.864171 133.451245 
L 142.942165 137.656763 
L 140.190673 141.975767 
L 137.614095 146.401346 
L 135.216554 150.92642 
L 133.001886 155.543751 
L 130.973633 160.245952 
L 129.13504 165.0255 
L 127.48905 169.874749 
L 126.038294 174.785941 
L 124.785093 179.75122 
L 123.731454 184.762641 
L 122.87906 189.812188 
L 122.229276 194.891783 
L 121.901493 198.38646 
L 126.569471 200.49228 
L 131.317927 202.409746 
L 136.139262 204.13579 
L 141.025764 205.667652 
L 145.969615 207.002881 
L 150.962907 208.13934 
L 155.997651 209.075212 
L 161.065792 209.808999 
L 166.159223 210.339528 
L 171.269796 210.665949 
L 176.389334 210.787741 
L 181.509647 210.704709 
L 186.622544 210.416985 
L 191.719845 209.92503 
L 196.793397 209.22963 
L 198.274103 208.987522 
L 197.043974 213.958567 
L 196.013619 218.974827 
L 195.184684 224.028279 
L 194.558497 229.110836 
L 194.136058 234.214369 
L 193.918045 239.330713 
L 193.904805 244.451682 
L 194.09636 249.569085 
L 194.492403 254.674734 
L 195.0923 259.760461 
L 195.895093 264.818131 
L 196.899496 269.839652 
L 198.103904 274.816991 
L 199.506388 279.742186 
L 201.104706 284.607356 
L 201.388583 285.408 
L 203.019145 280.553541 
L 204.454276 275.637761 
L 205.69168 270.668522 
L 206.729379 265.653775 
L 207.56571 260.601543 
L 208.199338 255.519908 
L 208.629247 250.416999 
L 208.85475 245.30098 
L 208.875487 240.180035 
L 208.691424 235.062358 
L 208.302856 229.956134 
L 207.710404 224.869534 
L 206.915017 219.810694 
L 206.189444 216.05589 
L 201.114842 216.74358 
L 196.0718 217.633651 
L 191.068384 218.724678 
L 186.112601 220.014915 
L 181.212377 221.502298 
L 176.375553 223.184448 
L 171.609865 225.058675 
L 166.922939 227.121978 
L 162.322271 229.371059 
L 157.815223 231.802318 
L 153.409005 234.411866 
L 149.110665 237.195528 
L 145.690837 239.590813 
L 150.324298 237.410093 
L 154.866848 235.045829 
L 159.311218 232.501802 
L 163.650299 229.782082 
L 167.87715 226.891021 
L 171.985009 223.833244 
L 175.967303 220.613642 
L 179.817661 217.237366 
L 183.529925 213.709817 
L 187.098155 210.03664 
L 190.516643 206.223709 
L 193.414709 202.73509 
L 188.509425 204.205701 
L 183.666874 205.871295 
L 178.894803 207.729207 
L 174.200845 209.776465 
L 169.592511 212.009794 
L 165.077172 214.42562 
L 160.662052 217.020079 
L 156.354215 219.789021 
L 152.160551 222.728015 
L 148.087771 225.83236 
L 144.142389 229.09709 
L 141.162302 231.74716 
L 146.015578 230.113082 
L 150.799627 228.286232 
L 155.506794 226.269532 
L 160.129549 224.066208 
L 164.660497 221.679786 
L 169.09239 219.114084 
L 173.418137 216.373205 
L 177.630818 213.461535 
L 181.723693 210.383732 
L 185.690215 207.144719 
L 189.524039 203.749678 
L 192.354739 201.059095 
L 187.516517 202.737222 
L 182.749272 204.607483 
L 178.060631 206.666887 
L 173.458095 208.91214 
L 168.949026 211.339649 
L 164.540638 213.945531 
L 160.239984 216.725617 
L 156.053944 219.67546 
L 151.989215 222.79034 
L 148.052299 226.065274 
L 144.249495 229.495023 
L 141.435033 232.219544 
L 146.352692 230.790863 
L 151.209286 229.16667 
L 155.997044 227.349565 
L 160.708308 225.342454 
L 165.33554 223.148548 
L 169.871338 220.771357 
L 174.308446 218.214684 
L 178.639765 215.482619 
L 182.858366 212.579533 
L 186.9575 209.51007 
L 190.930609 206.279141 
L 193.99647 203.597514 
L 189.484492 206.019611 
L 185.072982 208.620203 
L 180.768995 211.395127 
L 176.579419 214.339945 
L 172.510956 217.449946 
L 168.570114 220.720155 
L 164.763197 224.145339 
L 161.096296 227.72002 
L 157.575278 231.438478 
L 154.205775 235.294765 
L 150.993177 239.282712 
L 147.912332 243.438556 
L 153.000006 242.855391 
L 158.060289 242.069239 
L 163.085087 241.081359 
L 168.066361 239.893331 
L 172.996142 238.507056 
L 177.866544 236.92475 
L 182.669774 235.148947 
L 187.398149 233.182485 
L 192.044105 231.028512 
L 196.600208 228.690473 
L 201.05917 226.172109 
L 205.413858 223.477449 
L 209.657305 220.610803 
L 211.401507 219.358981 
L 211.149373 224.473757 
L 211.101976 229.594524 
L 211.259394 234.713091 
L 211.621373 239.821268 
L 212.187336 244.910883 
L 212.956377 249.973795 
L 213.927264 255.001904 
L 215.098446 259.987166 
L 216.468049 264.921605 
L 218.03388 269.797328 
L 219.793436 274.606534 
L 221.743902 279.34153 
L 223.882157 283.994741 
L 224.576897 285.408 
L 226.772223 280.781441 
L 228.780779 276.070794 
L 230.599354 271.283593 
L 232.225037 266.427498 
L 233.655227 261.510278 
L 234.887637 256.539798 
L 235.920296 251.524011 
L 236.75155 246.470941 
L 237.38007 241.388671 
L 237.804851 236.285333 
L 238.025213 231.16909 
L 238.034564 225.706959 
L 238.151836 227.623855 
L 238.604971 232.724754 
L 239.261726 237.803453 
L 240.121049 242.851825 
L 241.181566 247.861796 
L 242.44158 252.82535 
L 243.899075 257.734546 
L 245.55172 262.581531 
L 247.39687 267.358551 
L 249.431575 272.057964 
L 251.652578 276.672251 
L 254.056328 281.194031 
L 256.51208 285.408 
L 259.086307 280.981053 
L 261.481445 276.454706 
L 263.693661 271.8362 
L 265.719416 267.132923 
L 267.555471 262.352399 
L 269.198886 257.502277 
L 270.647034 252.590315 
L 271.897598 247.624371 
L 272.948576 242.612391 
L 273.798288 237.562392 
L 274.445374 232.482453 
L 274.888799 227.380701 
L 275.127854 222.265297 
L 275.162156 217.144425 
L 274.99165 212.026278 
L 274.731515 208.218327 
L 279.839315 207.851067 
L 284.928343 207.279842 
L 289.990457 206.505568 
L 295.017559 205.529483 
L 300.001608 204.353148 
L 304.934628 202.978445 
L 309.80873 201.407573 
L 314.616114 199.643046 
L 319.349091 197.687687 
L 324.000089 195.544622 
L 328.561666 193.217282 
L 333.026526 190.709389 
L 337.387526 188.024955 
L 341.637688 185.168275 
L 345.770214 182.143919 
L 349.778493 178.956725 
L 353.656111 175.611792 
L 357.396866 172.114471 
L 360.80878 168.666019 
L 355.85667 169.970286 
L 350.960678 171.471541 
L 346.128637 173.167383 
L 341.368276 175.055099 
L 336.687212 177.131668 
L 332.092933 179.393768 
L 327.592788 181.837782 
L 323.193978 184.459798 
L 318.903539 187.255622 
L 314.728335 190.220782 
L 310.675045 193.350534 
L 306.750155 196.63987 
L 302.959942 200.08353 
L 299.31047 203.676002 
L 295.807579 207.411541 
L 292.456871 211.284171 
L 289.263707 215.287695 
L 286.233196 219.415709 
L 283.370185 223.66161 
L 280.679255 228.018604 
L 278.164711 232.479721 
L 275.830575 237.037825 
L 273.680582 241.685624 
L 271.718171 246.415682 
L 269.946481 251.220431 
L 268.368348 256.092186 
L 266.986295 261.023153 
L 265.802533 266.005442 
L 264.818957 271.031085 
L 264.03714 276.09204 
L 263.458333 281.18021 
L 263.133387 285.408 
L 263.093308 284.769091 
L 262.657789 279.666657 
L 262.018576 274.585721 
L 261.176691 269.534412 
L 260.133481 264.520809 
L 258.890615 259.552933 
L 257.45008 254.638733 
L 255.814183 249.78607 
L 253.985539 245.002707 
L 251.967075 240.296296 
L 249.762018 235.674367 
L 247.373898 231.144313 
L 244.806534 226.713383 
L 243.849705 225.16068 
L 242.64262 230.137371 
L 241.635514 235.158351 
L 240.83 240.215588 
L 240.227365 245.300992 
L 239.828575 250.406427 
L 239.634267 255.523726 
L 239.644751 260.644701 
L 239.860011 265.761162 
L 240.279703 270.864921 
L 240.903155 275.947815 
L 241.72937 281.001711 
L 242.620755 285.408 
L 243.623887 280.386225 
L 244.4254 275.328352 
L 245.024011 270.242473 
L 245.418762 265.136724 
L 245.609022 260.019273 
L 245.594486 254.898307 
L 245.375177 249.782019 
L 244.951447 244.678593 
L 244.323974 239.596194 
L 243.49376 234.542953 
L 242.462135 229.526953 
L 241.471713 225.465075 
L 241.329952 230.584099 
L 241.39301 235.704697 
L 241.660788 240.818677 
L 242.132856 245.917859 
L 242.808459 250.994084 
L 243.686517 256.039232 
L 244.765624 261.045231 
L 246.044055 266.004074 
L 247.519764 270.907826 
L 249.19039 275.748643 
L 251.053261 280.51878 
L 253.196682 285.408 
L 255.256784 280.719665 
L 257.127755 275.952699 
L 258.806602 271.114727 
L 260.290638 266.213488 
L 261.57749 261.256825 
L 262.665099 256.252666 
L 263.551726 251.209017 
L 264.23595 246.133946 
L 264.716679 241.035574 
L 264.993143 235.922056 
L 265.064899 230.801572 
L 264.931833 225.682315 
L 264.594158 220.572473 
L 264.273585 217.334848 
L 268.767728 219.789879 
L 273.356451 222.063229 
L 278.032414 224.151261 
L 282.788135 226.050634 
L 287.616007 227.758309 
L 292.508306 229.271555 
L 297.457205 230.587951 
L 302.454788 231.705391 
L 307.493058 232.622086 
L 312.563957 233.336572 
L 317.659371 233.847704 
L 322.771149 234.154665 
L 327.891114 234.256964 
L 329.716196 234.243914 
L 327.130367 229.823735 
L 324.369845 225.510497 
L 321.439048 221.3111 
L 318.342665 217.232263 
L 315.085648 213.280512 
L 311.673208 209.462167 
L 308.110805 205.783337 
L 304.404138 202.249908 
L 300.559136 198.867533 
L 296.581951 195.641622 
L 292.478945 192.577337 
L 288.256682 189.679579 
L 285.578659 187.9666 
L 290.694318 187.733071 
L 295.796546 187.295156 
L 300.877182 186.653557 
L 305.928096 185.809301 
L 310.941208 184.763736 
L 315.908499 183.518537 
L 320.822022 182.075696 
L 325.673917 180.43752 
L 330.456421 178.60663 
L 335.161883 176.585956 
L 339.782777 174.378729 
L 344.311708 171.988482 
L 348.741433 169.419038 
L 353.064863 166.674507 
L 357.275084 163.759281 
L 357.768879 163.400757 
L 353.12873 165.567211 
L 348.578928 167.917488 
L 344.126752 170.447829 
L 339.779323 173.154185 
L 335.543597 176.032228 
L 331.42635 179.077352 
L 327.434169 182.284686 
L 323.573441 185.6491 
L 319.850341 189.16521 
L 316.270827 192.827392 
L 312.840624 196.629787 
L 309.56522 200.566312 
L 306.449854 204.63067 
L 303.499512 208.816358 
L 300.718913 213.11668 
L 298.112505 217.524756 
L 295.684457 222.033535 
L 293.438655 226.635804 
L 291.378691 231.324199 
L 289.507861 236.091221 
L 287.829157 240.929242 
L 286.345265 245.830524 
L 285.058559 250.787226 
L 283.971098 255.791417 
L 283.084621 260.835092 
L 282.400545 265.910183 
L 281.919967 271.008569 
L 281.643654 276.122096 
L 281.572049 281.242582 
L 281.664905 285.408 
L 281.687985 284.768251 
L 281.757424 279.647735 
L 281.622043 274.528539 
L 281.282056 269.418851 
L 280.738008 264.326846 
L 279.990769 259.26067 
L 279.041535 254.228428 
L 277.891824 249.238171 
L 276.543476 244.297882 
L 274.998648 239.415464 
L 273.259811 234.598728 
L 271.329746 229.855379 
L 269.211542 225.193007 
L 266.908587 220.61907 
L 264.879728 216.93056 
L 265.279191 217.430801 
L 268.563906 221.35956 
L 272.003101 225.153824 
L 275.591276 228.807521 
L 279.322689 232.314808 
L 283.191372 235.670072 
L 287.191135 238.867946 
L 291.315579 241.903314 
L 295.558107 244.77132 
L 299.911931 247.467377 
L 304.370085 249.98717 
L 308.925439 252.326669 
L 313.570703 254.482132 
L 317.15788 255.995556 
L 313.06005 252.924353 
L 308.842682 250.019477 
L 304.512523 247.285573 
L 300.076501 244.727017 
L 295.541712 242.347901 
L 290.915411 240.152031 
L 286.205 238.142921 
L 281.418013 236.323783 
L 276.56211 234.697529 
L 271.645057 233.266761 
L 266.674723 232.033766 
L 261.659057 231.000518 
L 256.606085 230.16867 
L 251.523889 229.539552 
L 246.420601 229.114171 
L 241.304384 228.893207 
L 236.183423 228.877014 
L 231.065911 229.065618 
L 225.960034 229.458717 
L 220.873962 230.055682 
L 215.81583 230.855558 
L 210.79373 231.857066 
L 205.815697 233.058603 
L 200.889695 234.458247 
L 196.023604 236.05376 
L 191.225209 237.842587 
L 186.502186 239.821869 
L 181.862091 241.988438 
L 177.312347 244.338828 
L 172.860233 246.869279 
L 168.512871 249.575743 
L 164.277217 252.453891 
L 160.160046 255.499117 
L 156.545564 258.391752 
L 161.312181 256.519891 
L 166.000131 254.458913 
L 170.601913 252.212115 
L 175.110167 249.783093 
L 179.51768 247.175732 
L 183.8174 244.394203 
L 188.00245 241.442955 
L 192.066134 238.326711 
L 196.001951 235.050456 
L 199.803604 231.619431 
L 203.465012 228.039124 
L 206.980317 224.315264 
L 210.343895 220.453808 
L 211.296813 219.301003 
L 209.739896 224.17958 
L 208.379316 229.116514 
L 207.217248 234.103909 
L 206.255553 239.133784 
L 205.495768 244.198093 
L 204.93911 249.288735 
L 204.586468 254.397565 
L 204.438407 259.51641 
L 204.495163 264.637082 
L 204.756647 269.751389 
L 205.222439 274.851147 
L 205.891794 279.9282 
L 206.84829 285.408 
L 207.737544 280.364814 
L 208.424413 275.290101 
L 208.907798 270.191979 
L 209.186926 265.078606 
L 209.261351 259.95816 
L 209.130952 254.838834 
L 208.79594 249.728818 
L 208.256849 244.636286 
L 207.514543 239.569385 
L 206.570208 234.536221 
L 205.425356 229.544847 
L 204.081818 224.603248 
L 202.541743 219.719328 
L 200.807595 214.900901 
L 198.882149 210.155677 
L 198.466263 209.197613 
L 193.917269 206.845772 
L 189.277866 204.677724 
L 184.555474 202.696936 
L 179.75765 200.906578 
L 174.892068 199.309514 
L 169.966512 197.908299 
L 164.988863 196.705174 
L 159.967083 195.702064 
L 154.909206 194.900575 
L 149.823324 194.301988 
L 144.717573 193.90726 
L 139.600122 193.717024 
L 134.479156 193.731584 
L 129.362869 193.950916 
L 124.259445 194.374669 
L 119.889583 194.901731 
L 122.951187 190.796723 
L 125.846185 186.572568 
L 128.569946 182.236023 
L 131.118113 177.794025 
L 133.48661 173.25368 
L 135.671646 168.622253 
L 137.669727 163.907152 
L 139.477656 159.115921 
L 141.09254 154.256225 
L 142.511797 149.335837 
L 143.733156 144.362631 
L 144.754662 139.344561 
L 145.574682 134.289655 
L 146.191904 129.206001 
L 146.60534 124.101731 
L 146.814329 118.985011 
L 146.818537 113.864026 
L 146.617956 108.74697 
L 146.567977 107.945936 
L 151.114629 105.58957 
L 155.563414 103.053272 
L 159.907216 100.341098 
L 164.139085 97.457388 
L 168.252252 94.406755 
L 172.240136 91.194079 
L 176.096357 87.824501 
L 179.814747 84.30341 
L 183.389356 80.636439 
L 186.814466 76.829456 
L 190.084597 72.88855 
L 193.194519 68.820025 
L 196.139255 64.630392 
L 196.794227 63.648 
L 199.700202 67.864611 
L 202.772472 71.961642 
L 206.006122 75.932537 
L 209.395979 79.770944 
L 212.93662 83.470723 
L 216.62238 87.025955 
L 220.447364 90.430952 
L 224.405451 93.680266 
L 228.490311 96.7687 
L 232.695407 99.691313 
L 237.014013 102.443429 
L 241.43922 105.020646 
L 245.963949 107.41884 
L 250.58096 109.634175 
L 255.282868 111.663106 
L 260.06215 113.502389 
L 264.911162 115.14908 
L 269.822145 116.600545 
L 274.787242 117.854462 
L 279.798511 118.908825 
L 284.847936 119.761947 
L 289.927436 120.412464 
L 295.028888 120.859335 
L 300.144129 121.101845 
L 305.264976 121.139605 
L 310.383237 120.972556 
L 315.490724 120.600965 
L 320.579266 120.025426 
L 325.640722 119.24686 
L 330.666995 118.266513 
L 331.593103 118.062984 
L 328.202446 121.900684 
L 324.967969 125.870905 
L 321.894845 129.967295 
L 318.987991 134.183301 
L 316.252057 138.512177 
L 313.691421 142.946999 
L 311.310179 147.480672 
L 309.11214 152.105942 
L 307.10082 156.815411 
L 305.279438 161.601544 
L 303.650908 166.456684 
L 302.217833 171.373065 
L 300.982508 176.342821 
L 299.946908 181.358001 
L 299.11269 186.410583 
L 298.481189 191.492483 
L 298.053415 196.595572 
L 297.830052 201.711684 
L 297.811458 206.832637 
L 297.997662 211.950237 
L 298.388366 217.056297 
L 298.982946 222.142649 
L 299.780451 227.201156 
L 300.779603 232.223725 
L 301.978806 237.20232 
L 303.37614 242.128978 
L 304.96937 246.995817 
L 306.755947 251.795051 
L 308.733014 256.519001 
L 310.897406 261.160112 
L 312.431162 264.182473 
L 307.319624 264.493418 
L 302.22461 265.008523 
L 297.15427 265.726961 
L 292.116716 266.647584 
L 287.120006 267.768919 
L 282.172134 269.089173 
L 277.281017 270.606232 
L 272.454477 272.317671 
L 267.700238 274.22075 
L 263.025905 276.312426 
L 258.438955 278.589353 
L 253.946727 281.047887 
L 249.556408 283.684096 
L 246.885564 285.408 
L 242.562046 282.663607 
L 238.13224 280.094303 
L 233.603232 277.7042 
L 228.982269 275.497121 
L 224.276742 273.476596 
L 219.49418 271.645859 
L 214.642233 270.007837 
L 209.728664 268.565152 
L 204.761333 267.320111 
L 199.748187 266.274706 
L 194.697247 265.430609 
L 189.616591 264.789172 
L 184.514349 264.35142 
L 179.398683 264.118053 
L 174.277776 264.089445 
L 169.159822 264.265641 
L 164.053007 264.64636 
L 160.387834 265.046759 
L 163.391623 260.899259 
L 166.227153 256.634957 
L 168.889888 252.260675 
L 171.375569 247.783411 
L 173.680219 243.210328 
L 175.800151 238.548741 
L 177.731973 233.806108 
L 179.472595 228.990017 
L 181.019233 224.108172 
L 182.369412 219.168382 
L 183.520972 214.178552 
L 184.47207 209.146662 
L 185.221186 204.080763 
L 185.767121 198.988961 
L 186.109002 193.879399 
L 186.246281 188.760253 
L 186.234428 185.940147 
L 183.987499 181.338428 
L 181.558347 176.830244 
L 178.95086 172.422806 
L 176.169208 168.123165 
L 173.217841 163.9382 
L 170.10148 159.874605 
L 166.825112 155.938882 
L 163.393978 152.137327 
L 159.813567 148.476022 
L 156.089607 144.960823 
L 152.228054 141.597355 
L 148.235088 138.390999 
L 144.117096 135.346883 
L 139.880666 132.469878 
L 135.532574 129.764586 
L 134.366572 129.079389 
L 137.72577 130.941628 
L 142.28871 133.266295 
L 146.940962 135.406634 
L 151.675084 137.35922 
L 156.483502 139.12093 
L 161.358523 140.688945 
L 166.292348 142.060757 
L 171.277085 143.234172 
L 176.304759 144.207311 
L 181.367326 144.978619 
L 186.456687 145.546861 
L 191.564702 145.911129 
L 193.628096 146.000172 
L 191.427316 141.376205 
L 189.043388 136.843944 
L 186.480124 132.41064 
L 183.741626 128.083386 
L 180.832275 123.869104 
L 177.756724 119.774535 
L 174.519894 115.806231 
L 171.126964 111.970541 
L 167.583361 108.273599 
L 163.894754 104.72132 
L 160.067044 101.319389 
L 156.106355 98.073245 
L 153.444666 96.035161 
L 158.187301 97.966977 
L 163.003395 99.707594 
L 167.885242 101.254225 
L 172.825033 102.604398 
L 177.814865 103.755952 
L 182.846756 104.707044 
L 187.912655 105.456154 
L 193.004459 106.002083 
L 198.114021 106.343957 
L 203.233167 106.48123 
L 208.353708 106.413681 
L 213.467452 106.14142 
L 218.566218 105.664881 
L 223.641849 104.984827 
L 228.686225 104.102346 
L 233.691276 103.01885 
L 238.648995 101.736072 
L 243.551451 100.256064 
L 248.390802 98.581193 
L 253.159304 96.714141 
L 257.84933 94.657892 
L 262.453376 92.415737 
L 266.964078 89.991263 
L 271.374218 87.388348 
L 275.676742 84.611157 
L 279.864766 81.664132 
L 283.93159 78.551988 
L 287.870709 75.279704 
L 291.675821 71.852514 
L 295.340838 68.275902 
L 298.859897 64.55559 
L 299.676764 63.648 
L 301.054849 65.169175 
L 302.680788 70.025184 
L 304.499616 74.812288 
L 306.508422 79.522829 
L 308.703993 84.149272 
L 311.082816 88.684215 
L 313.641085 93.120402 
L 316.374708 97.450738 
L 319.279312 101.668294 
L 322.35025 105.766323 
L 325.582608 109.73827 
L 329.058127 113.672277 
L 330.684067 118.528286 
L 332.502895 123.31539 
L 334.511701 128.025931 
L 336.707272 132.652374 
L 339.086095 137.187316 
L 341.644364 141.623504 
L 344.377987 145.953839 
L 347.282591 150.171396 
L 350.353528 154.269425 
L 353.585887 158.241371 
L 357.061406 162.175378 
L 358.687346 167.031387 
L 360.506174 171.818491 
L 362.51498 176.529033 
L 362.74486 177.036592 
L 357.658377 177.630055 
L 352.599696 178.426449 
L 347.576908 179.424499 
L 342.598049 180.622608 
L 337.671084 182.018861 
L 332.803896 183.611022 
L 328.00427 185.396546 
L 323.279886 187.372575 
L 318.6383 189.535949 
L 314.086939 191.883206 
L 309.633084 194.410591 
L 305.28386 197.114062 
L 301.046225 199.989293 
L 296.926958 203.031684 
L 292.93265 206.236368 
L 289.069689 209.598218 
L 285.344257 213.111857 
L 281.762313 216.771662 
L 278.329587 220.57178 
L 275.051571 224.50613 
L 271.933509 228.568419 
L 268.980389 232.752148 
L 266.196936 237.050624 
L 263.587603 241.456969 
L 261.156564 245.964136 
L 258.907708 250.564913 
L 256.844633 255.25194 
L 254.970639 260.017719 
L 253.288725 264.854625 
L 251.80158 269.754922 
L 250.511585 274.710768 
L 249.420802 279.714237 
L 248.530978 284.757322 
L 248.431255 285.408 
L 247.567371 280.360406 
L 246.502328 275.351396 
L 245.23783 270.388982 
L 243.7759 265.481105 
L 242.118876 260.635615 
L 240.26941 255.860264 
L 238.23046 251.162691 
L 236.005288 246.550413 
L 233.597455 242.030807 
L 231.010811 237.611104 
L 228.249495 233.298374 
L 225.317925 229.099517 
L 222.22079 225.021251 
L 220.937985 223.426774 
L 216.048347 224.948596 
L 211.223477 226.664733 
L 206.471093 228.572441 
L 201.798798 230.668667 
L 197.214068 232.950059 
L 192.724236 235.412966 
L 188.336486 238.053449 
L 184.057836 240.867282 
L 179.895132 243.849966 
L 175.855034 246.996727 
L 171.944004 250.302532 
L 168.168299 253.762092 
L 164.53396 257.369873 
L 161.046801 261.120102 
L 159.284266 263.135323 
L 164.298487 262.095086 
L 169.267098 260.855166 
L 174.182152 259.417547 
L 179.035785 257.784528 
L 183.820231 255.958721 
L 188.527839 253.943048 
L 193.151075 251.740733 
L 197.682543 249.3553 
L 202.114996 246.790565 
L 206.44134 244.05063 
L 210.654656 241.139879 
L 214.748203 238.062969 
L 218.715432 234.824821 
L 222.549996 231.430617 
L 226.245761 227.885787 
L 228.84341 225.215941 
L 231.255441 229.733309 
L 233.846188 234.150608 
L 236.611509 238.460771 
L 239.546977 242.656903 
L 242.647899 246.732291 
L 245.909312 250.680416 
L 249.325999 254.494961 
L 252.892494 258.169823 
L 256.603091 261.699124 
L 260.451855 265.077218 
L 264.432628 268.2987 
L 268.539042 271.358417 
L 272.764527 274.251474 
L 277.102324 276.973242 
L 281.545492 279.519368 
L 286.086925 281.885777 
L 290.719355 284.068685 
L 293.825003 285.408 
L 298.513476 283.348214 
L 302.473392 281.429836 
L 302.088224 276.323355 
L 301.499159 271.236362 
L 300.70714 266.176993 
L 299.713434 261.153344 
L 298.51963 256.173451 
L 297.127639 251.245281 
L 295.539687 246.376717 
L 293.758314 241.57555 
L 291.786371 236.849458 
L 289.627012 232.206003 
L 287.283691 227.652614 
L 284.760158 223.196576 
L 282.06045 218.845015 
L 279.188885 214.604896 
L 276.150057 210.483 
L 274.54194 208.434143 
L 278.955297 211.0316 
L 283.468994 213.450492 
L 288.075811 215.68695 
L 292.768377 217.737395 
L 297.539185 219.598547 
L 302.380604 221.267429 
L 307.284888 222.741371 
L 312.24419 224.018015 
L 317.250578 225.095319 
L 322.296042 225.971559 
L 327.37251 226.645333 
L 332.471861 227.115564 
L 333.781159 227.203194 
L 333.781159 227.203194 
" style="fill:none;stroke:#1f77b4;stroke-linecap:square;stroke-width:1.5;"/>
   </g>
   <g id="patch_4">
    <path d="M 82.520165 307.584 
L 82.520165 41.472 
" style="fill:none;stroke:#000000;stroke-linecap:square;stroke-linejoin:miter;stroke-width:0.8;"/>
   </g>
   <g id="patch_5">
    <path d="M 389.799835 307.584 
L 389.799835 41.472 
" style="fill:none;stroke:#000000;stroke-linecap:square;stroke-linejoin:miter;stroke-width:0.8;"/>
   </g>
   <g id="patch_6">
    <path d="M 82.520165 307.584 
L 389.799835 307.584 
" style="fill:none;stroke:#000000;stroke-linecap:square;stroke-linejoin:miter;stroke-width:0.8;"/>
   </g>
   <g id="patch_7">
    <path d="M 82.520165 41.472 
L 389.799835 41.472 
" style="fill:none;stroke:#000000;stroke-linecap:square;stroke-linejoin:miter;stroke-width:0.8;"/>
   </g>
   <g id="PathCollection_1">
    <defs>
     <path d="M 0 2.236068 
C 0.593012 2.236068 1.161816 2.000462 1.581139 1.581139 
C 2.000462 1.161816 2.236068 0.593012 2.236068 0 
C 2.236068 -0.593012 2.000462 -1.161816 1.581139 -1.581139 
C 1.161816 -2.000462 0.593012 -2.236068 0 -2.236068 
C -0.593012 -2.236068 -1.161816 -2.000462 -1.581139 -1.581139 
C -2.000462 -1.161816 -2.236068 -0.593012 -2.236068 0 
C -2.236068 0.593012 -2.000462 1.161816 -1.581139 1.581139 
C -1.161816 2.000462 -0.593012 2.236068 0 2.236068 
z
" id="m2d2b97d9d5" style="stroke:#000000;"/>
    </defs>
    <g clip-path="url(#p35493bc845)">
     <use style="stroke:#000000;" x="333.781159" xlink:href="#m2d2b97d9d5" y="227.203194"/>
    </g>
   </g>
   <g id="Quiver_1">
    <path clip-path="url(#p35493bc845)" d="M 333.268896 227.542708 
L 329.534234 221.90782 
L 328.849224 223.099112 
L 326.990864 216.957942 
L 331.922799 221.062024 
L 330.558759 221.228791 
L 334.293421 226.863679 
L 333.268896 227.542708 
"/>
   </g>
  </g>
 </g>
 <defs>
  <clipPath id="p35493bc845">
   <rect height="266.112" width="307.27967" x="82.520165" y="41.472"/>
  </clipPath>
 </defs>
</svg>
