<?xml version="1.0" encoding="utf-8" standalone="no"?>
<!DOCTYPE svg PUBLIC "-//W3C//DTD SVG 1.1//EN"
  "http://www.w3.org/Graphics/SVG/1.1/DTD/svg11.dtd">
<!-- Created with matplotlib (https://matplotlib.org/) -->
<svg height="345.6pt" version="1.1" viewBox="0 0 460.8 345.6" width="460.8pt" xmlns="http://www.w3.org/2000/svg" xmlns:xlink="http://www.w3.org/1999/xlink">
 <defs>
  <style type="text/css">
*{stroke-linecap:butt;stroke-linejoin:round;}
  </style>
 </defs>
 <g id="figure_1">
  <g id="patch_1">
   <path d="M 0 345.6 
L 460.8 345.6 
L 460.8 0 
L 0 0 
z
" style="fill:#ffffff;"/>
  </g>
  <g id="axes_1">
   <g id="patch_2">
    <path d="M 82.520165 307.584 
L 389.799835 307.584 
L 389.799835 41.472 
L 82.520165 41.472 
z
" style="fill:#ffffff;"/>
   </g>
   <g id="patch_3">
    <path clip-path="url(#pb383e44b0a)" d="M 236.16 225.741278 
C 249.74192 225.741278 262.769389 220.345124 272.373256 210.741256 
C 281.977124 201.137389 287.373278 188.10992 287.373278 174.528 
C 287.373278 160.94608 281.977124 147.918611 272.373256 138.314744 
C 262.769389 128.710876 249.74192 123.314722 236.16 123.314722 
C 222.57808 123.314722 209.550611 128.710876 199.946744 138.314744 
C 190.342876 147.918611 184.946722 160.94608 184.946722 174.528 
C 184.946722 188.10992 190.342876 201.137389 199.946744 210.741256 
C 209.550611 220.345124 222.57808 225.741278 236.16 225.741278 
z
" style="fill:#009900;fill-opacity:0.5;stroke:#009900;stroke-linejoin:miter;stroke-width:2;"/>
   </g>
   <g id="matplotlib.axis_1">
    <g id="xtick_1">
     <g id="line2d_1">
      <defs>
       <path d="M 0 0 
L 0 3.5 
" id="m23a8045b7a" style="stroke:#000000;stroke-width:0.8;"/>
      </defs>
      <g>
       <use style="stroke:#000000;stroke-width:0.8;" x="108.126804" xlink:href="#m23a8045b7a" y="307.584"/>
      </g>
     </g>
     <g id="text_1">
      <!-- −2 -->
      <defs>
       <path d="M 10.59375 35.5 
L 73.1875 35.5 
L 73.1875 27.203125 
L 10.59375 27.203125 
z
" id="DejaVuSans-8722"/>
       <path d="M 19.1875 8.296875 
L 53.609375 8.296875 
L 53.609375 0 
L 7.328125 0 
L 7.328125 8.296875 
Q 12.9375 14.109375 22.625 23.890625 
Q 32.328125 33.6875 34.8125 36.53125 
Q 39.546875 41.84375 41.421875 45.53125 
Q 43.3125 49.21875 43.3125 52.78125 
Q 43.3125 58.59375 39.234375 62.25 
Q 35.15625 65.921875 28.609375 65.921875 
Q 23.96875 65.921875 18.8125 64.3125 
Q 13.671875 62.703125 7.8125 59.421875 
L 7.8125 69.390625 
Q 13.765625 71.78125 18.9375 73 
Q 24.125 74.21875 28.421875 74.21875 
Q 39.75 74.21875 46.484375 68.546875 
Q 53.21875 62.890625 53.21875 53.421875 
Q 53.21875 48.921875 51.53125 44.890625 
Q 49.859375 40.875 45.40625 35.40625 
Q 44.1875 33.984375 37.640625 27.21875 
Q 31.109375 20.453125 19.1875 8.296875 
z
" id="DejaVuSans-50"/>
      </defs>
      <g transform="translate(100.755711 322.182437)scale(0.1 -0.1)">
       <use xlink:href="#DejaVuSans-8722"/>
       <use x="83.789062" xlink:href="#DejaVuSans-50"/>
      </g>
     </g>
    </g>
    <g id="xtick_2">
     <g id="line2d_2">
      <g>
       <use style="stroke:#000000;stroke-width:0.8;" x="172.143402" xlink:href="#m23a8045b7a" y="307.584"/>
      </g>
     </g>
     <g id="text_2">
      <!-- −1 -->
      <defs>
       <path d="M 12.40625 8.296875 
L 28.515625 8.296875 
L 28.515625 63.921875 
L 10.984375 60.40625 
L 10.984375 69.390625 
L 28.421875 72.90625 
L 38.28125 72.90625 
L 38.28125 8.296875 
L 54.390625 8.296875 
L 54.390625 0 
L 12.40625 0 
z
" id="DejaVuSans-49"/>
      </defs>
      <g transform="translate(164.772308 322.182437)scale(0.1 -0.1)">
       <use xlink:href="#DejaVuSans-8722"/>
       <use x="83.789062" xlink:href="#DejaVuSans-49"/>
      </g>
     </g>
    </g>
    <g id="xtick_3">
     <g id="line2d_3">
      <g>
       <use style="stroke:#000000;stroke-width:0.8;" x="236.16" xlink:href="#m23a8045b7a" y="307.584"/>
      </g>
     </g>
     <g id="text_3">
      <!-- 0 -->
      <defs>
       <path d="M 31.78125 66.40625 
Q 24.171875 66.40625 20.328125 58.90625 
Q 16.5 51.421875 16.5 36.375 
Q 16.5 21.390625 20.328125 13.890625 
Q 24.171875 6.390625 31.78125 6.390625 
Q 39.453125 6.390625 43.28125 13.890625 
Q 47.125 21.390625 47.125 36.375 
Q 47.125 51.421875 43.28125 58.90625 
Q 39.453125 66.40625 31.78125 66.40625 
z
M 31.78125 74.21875 
Q 44.046875 74.21875 50.515625 64.515625 
Q 56.984375 54.828125 56.984375 36.375 
Q 56.984375 17.96875 50.515625 8.265625 
Q 44.046875 -1.421875 31.78125 -1.421875 
Q 19.53125 -1.421875 13.0625 8.265625 
Q 6.59375 17.96875 6.59375 36.375 
Q 6.59375 54.828125 13.0625 64.515625 
Q 19.53125 74.21875 31.78125 74.21875 
z
" id="DejaVuSans-48"/>
      </defs>
      <g transform="translate(232.97875 322.182437)scale(0.1 -0.1)">
       <use xlink:href="#DejaVuSans-48"/>
      </g>
     </g>
    </g>
    <g id="xtick_4">
     <g id="line2d_4">
      <g>
       <use style="stroke:#000000;stroke-width:0.8;" x="300.176598" xlink:href="#m23a8045b7a" y="307.584"/>
      </g>
     </g>
     <g id="text_4">
      <!-- 1 -->
      <g transform="translate(296.995348 322.182437)scale(0.1 -0.1)">
       <use xlink:href="#DejaVuSans-49"/>
      </g>
     </g>
    </g>
    <g id="xtick_5">
     <g id="line2d_5">
      <g>
       <use style="stroke:#000000;stroke-width:0.8;" x="364.193196" xlink:href="#m23a8045b7a" y="307.584"/>
      </g>
     </g>
     <g id="text_5">
      <!-- 2 -->
      <g transform="translate(361.011946 322.182437)scale(0.1 -0.1)">
       <use xlink:href="#DejaVuSans-50"/>
      </g>
     </g>
    </g>
   </g>
   <g id="matplotlib.axis_2">
    <g id="ytick_1">
     <g id="line2d_6">
      <defs>
       <path d="M 0 0 
L -3.5 0 
" id="mf91c4db5cd" style="stroke:#000000;stroke-width:0.8;"/>
      </defs>
      <g>
       <use style="stroke:#000000;stroke-width:0.8;" x="82.520165" xlink:href="#mf91c4db5cd" y="302.561196"/>
      </g>
     </g>
     <g id="text_6">
      <!-- −2.0 -->
      <defs>
       <path d="M 10.6875 12.40625 
L 21 12.40625 
L 21 0 
L 10.6875 0 
z
" id="DejaVuSans-46"/>
      </defs>
      <g transform="translate(51.237353 306.360414)scale(0.1 -0.1)">
       <use xlink:href="#DejaVuSans-8722"/>
       <use x="83.789062" xlink:href="#DejaVuSans-50"/>
       <use x="147.412109" xlink:href="#DejaVuSans-46"/>
       <use x="179.199219" xlink:href="#DejaVuSans-48"/>
      </g>
     </g>
    </g>
    <g id="ytick_2">
     <g id="line2d_7">
      <g>
       <use style="stroke:#000000;stroke-width:0.8;" x="82.520165" xlink:href="#mf91c4db5cd" y="270.552897"/>
      </g>
     </g>
     <g id="text_7">
      <!-- −1.5 -->
      <defs>
       <path d="M 10.796875 72.90625 
L 49.515625 72.90625 
L 49.515625 64.59375 
L 19.828125 64.59375 
L 19.828125 46.734375 
Q 21.96875 47.46875 24.109375 47.828125 
Q 26.265625 48.1875 28.421875 48.1875 
Q 40.625 48.1875 47.75 41.5 
Q 54.890625 34.8125 54.890625 23.390625 
Q 54.890625 11.625 47.5625 5.09375 
Q 40.234375 -1.421875 26.90625 -1.421875 
Q 22.3125 -1.421875 17.546875 -0.640625 
Q 12.796875 0.140625 7.71875 1.703125 
L 7.71875 11.625 
Q 12.109375 9.234375 16.796875 8.0625 
Q 21.484375 6.890625 26.703125 6.890625 
Q 35.15625 6.890625 40.078125 11.328125 
Q 45.015625 15.765625 45.015625 23.390625 
Q 45.015625 31 40.078125 35.4375 
Q 35.15625 39.890625 26.703125 39.890625 
Q 22.75 39.890625 18.8125 39.015625 
Q 14.890625 38.140625 10.796875 36.28125 
z
" id="DejaVuSans-53"/>
      </defs>
      <g transform="translate(51.237353 274.352116)scale(0.1 -0.1)">
       <use xlink:href="#DejaVuSans-8722"/>
       <use x="83.789062" xlink:href="#DejaVuSans-49"/>
       <use x="147.412109" xlink:href="#DejaVuSans-46"/>
       <use x="179.199219" xlink:href="#DejaVuSans-53"/>
      </g>
     </g>
    </g>
    <g id="ytick_3">
     <g id="line2d_8">
      <g>
       <use style="stroke:#000000;stroke-width:0.8;" x="82.520165" xlink:href="#mf91c4db5cd" y="238.544598"/>
      </g>
     </g>
     <g id="text_8">
      <!-- −1.0 -->
      <g transform="translate(51.237353 242.343817)scale(0.1 -0.1)">
       <use xlink:href="#DejaVuSans-8722"/>
       <use x="83.789062" xlink:href="#DejaVuSans-49"/>
       <use x="147.412109" xlink:href="#DejaVuSans-46"/>
       <use x="179.199219" xlink:href="#DejaVuSans-48"/>
      </g>
     </g>
    </g>
    <g id="ytick_4">
     <g id="line2d_9">
      <g>
       <use style="stroke:#000000;stroke-width:0.8;" x="82.520165" xlink:href="#mf91c4db5cd" y="206.536299"/>
      </g>
     </g>
     <g id="text_9">
      <!-- −0.5 -->
      <g transform="translate(51.237353 210.335518)scale(0.1 -0.1)">
       <use xlink:href="#DejaVuSans-8722"/>
       <use x="83.789062" xlink:href="#DejaVuSans-48"/>
       <use x="147.412109" xlink:href="#DejaVuSans-46"/>
       <use x="179.199219" xlink:href="#DejaVuSans-53"/>
      </g>
     </g>
    </g>
    <g id="ytick_5">
     <g id="line2d_10">
      <g>
       <use style="stroke:#000000;stroke-width:0.8;" x="82.520165" xlink:href="#mf91c4db5cd" y="174.528"/>
      </g>
     </g>
     <g id="text_10">
      <!-- 0.0 -->
      <g transform="translate(59.61704 178.327219)scale(0.1 -0.1)">
       <use xlink:href="#DejaVuSans-48"/>
       <use x="63.623047" xlink:href="#DejaVuSans-46"/>
       <use x="95.410156" xlink:href="#DejaVuSans-48"/>
      </g>
     </g>
    </g>
    <g id="ytick_6">
     <g id="line2d_11">
      <g>
       <use style="stroke:#000000;stroke-width:0.8;" x="82.520165" xlink:href="#mf91c4db5cd" y="142.519701"/>
      </g>
     </g>
     <g id="text_11">
      <!-- 0.5 -->
      <g transform="translate(59.61704 146.31892)scale(0.1 -0.1)">
       <use xlink:href="#DejaVuSans-48"/>
       <use x="63.623047" xlink:href="#DejaVuSans-46"/>
       <use x="95.410156" xlink:href="#DejaVuSans-53"/>
      </g>
     </g>
    </g>
    <g id="ytick_7">
     <g id="line2d_12">
      <g>
       <use style="stroke:#000000;stroke-width:0.8;" x="82.520165" xlink:href="#mf91c4db5cd" y="110.511402"/>
      </g>
     </g>
     <g id="text_12">
      <!-- 1.0 -->
      <g transform="translate(59.61704 114.310621)scale(0.1 -0.1)">
       <use xlink:href="#DejaVuSans-49"/>
       <use x="63.623047" xlink:href="#DejaVuSans-46"/>
       <use x="95.410156" xlink:href="#DejaVuSans-48"/>
      </g>
     </g>
    </g>
    <g id="ytick_8">
     <g id="line2d_13">
      <g>
       <use style="stroke:#000000;stroke-width:0.8;" x="82.520165" xlink:href="#mf91c4db5cd" y="78.503103"/>
      </g>
     </g>
     <g id="text_13">
      <!-- 1.5 -->
      <g transform="translate(59.61704 82.302322)scale(0.1 -0.1)">
       <use xlink:href="#DejaVuSans-49"/>
       <use x="63.623047" xlink:href="#DejaVuSans-46"/>
       <use x="95.410156" xlink:href="#DejaVuSans-53"/>
      </g>
     </g>
    </g>
    <g id="ytick_9">
     <g id="line2d_14">
      <g>
       <use style="stroke:#000000;stroke-width:0.8;" x="82.520165" xlink:href="#mf91c4db5cd" y="46.494804"/>
      </g>
     </g>
     <g id="text_14">
      <!-- 2.0 -->
      <g transform="translate(59.61704 50.294023)scale(0.1 -0.1)">
       <use xlink:href="#DejaVuSans-50"/>
       <use x="63.623047" xlink:href="#DejaVuSans-46"/>
       <use x="95.410156" xlink:href="#DejaVuSans-48"/>
      </g>
     </g>
    </g>
   </g>
   <g id="line2d_15">
    <path clip-path="url(#pb383e44b0a)" d="M 300.176598 63.648 
L 172.143402 63.648 
" style="fill:none;stroke:#009900;stroke-linecap:square;stroke-width:2;"/>
   </g>
   <g id="line2d_16">
    <path clip-path="url(#pb383e44b0a)" d="M 172.143402 63.648 
L 108.126804 174.528 
" style="fill:none;stroke:#009900;stroke-linecap:square;stroke-width:2;"/>
   </g>
   <g id="line2d_17">
    <path clip-path="url(#pb383e44b0a)" d="M 108.126804 174.528 
L 172.143402 285.408 
" style="fill:none;stroke:#009900;stroke-linecap:square;stroke-width:2;"/>
   </g>
   <g id="line2d_18">
    <path clip-path="url(#pb383e44b0a)" d="M 172.143402 285.408 
L 300.176598 285.408 
" style="fill:none;stroke:#009900;stroke-linecap:square;stroke-width:2;"/>
   </g>
   <g id="line2d_19">
    <path clip-path="url(#pb383e44b0a)" d="M 300.176598 285.408 
L 364.193196 174.528 
" style="fill:none;stroke:#009900;stroke-linecap:square;stroke-width:2;"/>
   </g>
   <g id="line2d_20">
    <path clip-path="url(#pb383e44b0a)" d="M 364.193196 174.528 
L 300.176598 63.648 
" style="fill:none;stroke:#009900;stroke-linecap:square;stroke-width:2;"/>
   </g>
   <g id="line2d_21">
    <path clip-path="url(#pb383e44b0a)" d="M 202.648014 74.781517 
L 205.071575 79.292709 
L 207.673598 83.703376 
L 210.449919 88.006461 
L 213.396096 92.195082 
L 216.507417 96.262536 
L 219.778904 100.202317 
L 223.205324 104.008122 
L 226.781194 107.673862 
L 230.500795 111.193674 
L 234.358175 114.561925 
L 238.347164 117.773229 
L 242.46138 120.822447 
L 246.694241 123.704701 
L 248.402929 124.799632 
L 253.498756 124.292634 
L 258.570233 123.582264 
L 263.609245 122.669656 
L 268.607733 121.556271 
L 273.557698 120.243891 
L 278.451223 118.734615 
L 283.280479 117.030858 
L 288.03774 115.135344 
L 292.715395 113.051107 
L 297.305962 110.781481 
L 301.802095 108.330096 
L 306.196603 105.700875 
L 310.482455 102.898024 
L 314.652794 99.926026 
L 319.116445 96.452778 
L 314.368121 98.370568 
L 309.700286 100.476707 
L 305.120408 102.767824 
L 300.635814 105.240255 
L 296.253677 107.890044 
L 291.98101 110.712953 
L 287.824646 113.704464 
L 283.791235 116.859793 
L 279.88723 120.173891 
L 276.118877 123.641457 
L 272.492203 127.256943 
L 269.013011 131.014566 
L 266.840508 133.521826 
L 267.191953 132.986758 
L 269.906316 128.644324 
L 272.444857 124.196818 
L 274.803515 119.651354 
L 276.978516 115.015206 
L 278.966381 110.295789 
L 280.763929 105.500654 
L 282.368285 100.637471 
L 283.776883 95.714022 
L 284.987468 90.738182 
L 285.998104 85.717911 
L 286.807175 80.661242 
L 287.413385 75.576263 
L 287.815766 70.471109 
L 288.013673 65.353949 
L 288.034134 63.648 
L 288.091203 66.848238 
L 288.348836 71.962739 
L 288.810789 77.062847 
L 289.476323 82.140403 
L 290.344372 87.187282 
L 291.413548 92.195412 
L 292.682141 97.15678 
L 294.148121 102.063449 
L 295.809142 106.907571 
L 297.662548 111.681394 
L 299.705374 116.377282 
L 301.934351 120.987723 
L 304.345913 125.50534 
L 306.936203 129.922907 
L 309.701077 134.233357 
L 312.636111 138.429793 
L 315.73661 142.505502 
L 318.997614 146.453965 
L 322.413906 150.268864 
L 325.98002 153.944096 
L 329.690252 157.473781 
L 333.538666 160.852274 
L 337.519106 164.074168 
L 341.625202 167.134311 
L 345.850388 170.027805 
L 350.187902 172.750023 
L 354.630807 175.296608 
L 359.171994 177.663488 
L 361.683296 178.875273 
L 357.423822 176.032496 
L 353.054075 173.362326 
L 348.581044 170.869035 
L 344.011886 168.556612 
L 339.353911 166.428757 
L 334.61457 164.488873 
L 329.801446 162.740063 
L 324.922238 161.185126 
L 319.984751 159.826549 
L 314.996886 158.666506 
L 309.966621 157.706852 
L 304.902004 156.949122 
L 299.811137 156.39453 
L 294.702164 156.043961 
L 289.583259 155.897977 
L 284.46261 155.956812 
L 283.894908 155.975955 
L 287.726479 152.578372 
L 291.419117 149.030284 
L 294.966916 145.337369 
L 298.3642 141.505533 
L 301.605534 137.540908 
L 304.685732 133.449834 
L 307.599868 129.238859 
L 310.343278 124.914717 
L 312.911574 120.484327 
L 315.300647 115.954776 
L 317.506676 111.333311 
L 319.526131 106.627325 
L 321.355781 101.844347 
L 321.688601 100.907882 
L 316.638011 100.061687 
L 311.557623 99.418138 
L 306.455563 98.978265 
L 301.339994 98.742772 
L 296.2191 98.712035 
L 291.101073 98.886105 
L 285.994101 99.264701 
L 280.906353 99.847219 
L 275.84597 100.632727 
L 270.821046 101.619968 
L 265.839621 102.807362 
L 260.909664 104.193011 
L 256.039061 105.774697 
L 251.235605 107.54989 
L 246.50698 109.515749 
L 241.86075 111.669131 
L 237.30435 114.006591 
L 232.845067 116.524387 
L 228.490036 119.218494 
L 224.246225 122.084601 
L 220.120422 125.118122 
L 218.323402 126.521171 
L 213.211529 126.826547 
L 208.115956 127.3361 
L 203.044837 128.049013 
L 198.006282 128.964147 
L 193.008353 130.080037 
L 188.059046 131.394899 
L 183.166279 132.906628 
L 178.337878 134.612806 
L 173.581568 136.510705 
L 168.904958 138.597287 
L 164.31553 140.869214 
L 159.820626 143.322852 
L 155.427437 145.954276 
L 151.142991 148.759276 
L 146.974142 151.733364 
L 142.927559 154.871782 
L 139.009717 158.169511 
L 135.226882 161.621273 
L 131.585107 165.221548 
L 128.090218 168.964574 
L 124.747805 172.844366 
L 121.563216 176.854714 
L 118.541546 180.989204 
L 115.687628 185.241222 
L 114.967059 186.375669 
L 120.079719 186.083763 
L 125.176617 185.587638 
L 130.249597 184.888088 
L 135.290545 183.986233 
L 140.291397 182.883515 
L 145.244151 181.581698 
L 150.140885 180.082866 
L 154.973765 178.389415 
L 159.735059 176.504055 
L 164.41715 174.429802 
L 169.012548 172.169975 
L 173.513901 169.728188 
L 177.914008 167.108348 
L 182.20583 164.314647 
L 186.742821 161.083959 
L 184.65931 156.40598 
L 182.390396 151.815061 
L 179.93971 147.318547 
L 177.311171 142.923631 
L 174.508985 138.637344 
L 171.537635 134.466544 
L 168.401874 130.417901 
L 165.106719 126.497894 
L 161.657441 122.712794 
L 158.059559 119.068656 
L 154.318827 115.571309 
L 150.441232 112.22635 
L 146.088182 108.776964 
L 146.678733 109.02407 
L 151.446106 110.894006 
L 156.284443 112.571801 
L 161.186004 114.054772 
L 166.142947 115.340547 
L 171.147342 116.427069 
L 176.191184 117.312599 
L 181.266403 117.995721 
L 186.364879 118.475342 
L 191.478458 118.750695 
L 196.598957 118.821339 
L 201.718185 118.687161 
L 206.827953 118.348375 
L 211.920085 117.805525 
L 216.986437 117.059477 
L 222.018902 116.111427 
L 227.009429 114.96289 
L 231.950035 113.615703 
L 236.832817 112.072023 
L 241.649961 110.334319 
L 246.393763 108.405369 
L 251.056633 106.288262 
L 255.631112 103.986383 
L 260.109881 101.503414 
L 264.485775 98.843329 
L 268.751794 96.010383 
L 272.901112 93.009107 
L 276.927093 89.844304 
L 280.823295 86.521035 
L 284.583485 83.044619 
L 288.201648 79.420616 
L 291.671995 75.654823 
L 294.988975 71.753266 
L 298.147281 67.722186 
L 300.588844 64.36203 
L 295.497998 64.916825 
L 290.433411 65.674755 
L 285.403184 66.634608 
L 280.415365 67.794848 
L 275.477932 69.153621 
L 270.598785 70.708751 
L 265.78573 72.457751 
L 261.046466 74.397823 
L 256.388575 76.525862 
L 251.819509 78.838466 
L 247.346577 81.331934 
L 242.976935 84.002277 
L 238.717574 86.845223 
L 234.575307 89.856224 
L 230.556761 93.030463 
L 226.668365 96.362861 
L 222.916341 99.848089 
L 219.306689 103.48057 
L 215.845185 107.254493 
L 212.537367 111.16382 
L 209.388526 115.202298 
L 206.403699 119.363465 
L 203.587663 123.640665 
L 200.944922 128.027055 
L 198.479703 132.515618 
L 196.195951 137.099173 
L 194.097318 141.770388 
L 192.187164 146.521789 
L 190.052888 152.018278 
L 187.216536 156.282033 
L 184.552957 160.655801 
L 182.066412 165.132586 
L 179.760881 169.705225 
L 177.64005 174.366402 
L 175.707313 179.108662 
L 173.965762 183.924418 
L 172.418183 188.805965 
L 171.067051 193.745494 
L 169.914529 198.735102 
L 168.96246 203.766809 
L 168.212367 208.832562 
L 167.66545 213.92426 
L 167.322584 219.033755 
L 167.184318 224.152875 
L 167.250872 229.273429 
L 167.522141 234.387225 
L 167.99769 239.486084 
L 168.676759 244.561846 
L 169.558261 249.606394 
L 170.640786 254.611655 
L 171.922602 259.569623 
L 173.401658 264.472367 
L 175.075589 269.312042 
L 176.941716 274.080907 
L 178.997055 278.771332 
L 181.238316 283.375813 
L 182.301345 285.408 
L 184.624722 280.844403 
L 186.763746 276.191546 
L 188.714994 271.456872 
L 190.475345 266.647957 
L 192.041982 261.772493 
L 193.4124 256.83828 
L 194.584406 251.853212 
L 195.556124 246.825263 
L 196.326001 241.762479 
L 196.892805 236.672956 
L 197.255629 231.564839 
L 197.413892 226.446299 
L 197.367342 221.325524 
L 197.116053 216.210707 
L 196.660426 211.11003 
L 196.052117 206.373841 
L 191.250505 204.593665 
L 186.381546 203.006926 
L 181.453029 201.616163 
L 176.472839 200.423601 
L 171.448943 199.431147 
L 166.389377 198.640388 
L 161.302237 198.052592 
L 156.19566 197.668696 
L 151.077816 197.489317 
L 145.956893 197.51474 
L 140.841082 197.744925 
L 135.738569 198.179503 
L 130.657516 198.817781 
L 125.606051 199.658735 
L 122.940877 200.186726 
L 126.278071 196.302446 
L 129.457267 192.28782 
L 132.473378 188.149272 
L 135.321578 183.893423 
L 137.997311 179.527079 
L 140.496297 175.057228 
L 142.814537 170.491019 
L 144.948324 165.835758 
L 146.894243 161.098892 
L 148.649181 156.287999 
L 150.210331 151.410775 
L 151.575196 146.475023 
L 152.741591 141.488639 
L 153.707651 136.4596 
L 154.47183 131.395952 
L 155.032907 126.305795 
L 155.389982 121.197273 
L 155.542485 116.078558 
L 155.490173 110.957839 
L 155.233128 105.843308 
L 154.771762 100.743147 
L 154.106813 95.665515 
L 154.012403 95.051812 
L 158.7517 93.11182 
L 163.409626 90.983858 
L 167.978732 88.671332 
L 172.451706 86.177939 
L 176.821392 83.50767 
L 181.080802 80.664796 
L 185.22312 77.653865 
L 189.241719 74.479694 
L 193.13017 71.14736 
L 196.882254 67.662196 
L 200.854976 63.648 
L 204.449712 67.295242 
L 208.187424 70.795815 
L 212.062131 74.14412 
L 216.067636 77.334799 
L 220.197529 80.362749 
L 224.445205 83.223125 
L 228.803868 85.911351 
L 233.266545 88.423127 
L 237.826096 90.754434 
L 242.475228 92.901543 
L 247.206502 94.861019 
L 252.01235 96.629727 
L 256.885083 98.204838 
L 261.816906 99.583831 
L 266.799929 100.764501 
L 271.826181 101.744959 
L 276.88762 102.523636 
L 281.976149 103.099287 
L 287.083628 103.47099 
L 292.201885 103.638151 
L 297.322733 103.600503 
L 302.437979 103.358106 
L 307.539441 102.911347 
L 312.618956 102.260942 
L 317.668399 101.40793 
L 321.52023 100.616255 
L 318.137123 104.460614 
L 314.910456 108.437185 
L 311.845391 112.539608 
L 308.94683 116.76132 
L 306.219411 121.095566 
L 303.667498 125.535413 
L 301.295172 130.073757 
L 299.106229 134.703339 
L 297.104171 139.416753 
L 295.292201 144.206457 
L 293.673217 149.064789 
L 292.24981 153.983978 
L 291.024256 158.956152 
L 289.998517 163.973359 
L 289.174233 169.02757 
L 288.552722 174.110702 
L 288.13498 179.214621 
L 287.921675 184.331164 
L 287.913147 189.452143 
L 288.10941 194.569367 
L 288.510151 199.674649 
L 289.114728 204.759823 
L 289.922175 209.816752 
L 290.931198 214.837347 
L 292.140185 219.813576 
L 293.547201 224.737477 
L 295.149995 229.601175 
L 296.946003 234.396887 
L 298.932351 239.116942 
L 301.105863 243.753789 
L 303.463061 248.30001 
L 306.000173 252.748331 
L 308.713141 257.091637 
L 311.597625 261.322979 
L 312.980986 263.230149 
L 307.882195 262.75388 
L 302.768437 262.481888 
L 297.647892 262.41461 
L 292.528753 262.552153 
L 287.41921 262.894297 
L 282.327435 263.440494 
L 277.261575 264.189871 
L 272.229734 265.141229 
L 267.239963 266.293047 
L 262.300243 267.64348 
L 257.418478 269.190369 
L 252.602476 270.93124 
L 247.859943 272.863306 
L 243.198465 274.983478 
L 238.625501 277.288364 
L 234.148365 279.774276 
L 229.77422 282.437236 
L 225.315975 285.408 
L 221.057063 282.564381 
L 216.687844 279.893347 
L 212.215306 277.399172 
L 207.646606 275.085846 
L 202.989051 272.957069 
L 198.250094 271.016248 
L 193.437315 269.266487 
L 188.558415 267.710586 
L 183.621197 266.351033 
L 178.633561 265.190003 
L 173.603486 264.229355 
L 168.539018 263.470624 
L 163.448261 262.915025 
L 158.97283 262.595899 
L 161.199987 257.98458 
L 163.24096 253.287886 
L 165.092482 248.513332 
L 166.751592 243.668556 
L 168.215636 238.761308 
L 169.482271 233.79944 
L 170.549471 228.790888 
L 171.415528 223.743667 
L 172.079058 218.665849 
L 172.538999 213.565559 
L 172.794614 208.450957 
L 172.845495 203.330223 
L 172.691561 198.211551 
L 172.333058 193.103128 
L 171.77056 188.013129 
L 171.004965 182.949694 
L 170.037499 177.920926 
L 168.869711 172.934868 
L 167.503467 167.999498 
L 165.940954 163.122711 
L 164.184671 158.312308 
L 162.237428 153.575986 
L 160.102341 148.921321 
L 157.782824 144.355761 
L 155.282589 139.886608 
L 152.605636 135.521012 
L 149.756246 131.265959 
L 146.738979 127.128254 
L 143.558662 123.114517 
L 140.118247 119.117195 
L 145.149327 120.072571 
L 150.214586 120.825994 
L 155.305923 121.376258 
L 160.415192 121.722482 
L 165.53422 121.864113 
L 170.654816 121.800924 
L 175.76879 121.533017 
L 180.86796 121.060819 
L 185.944168 120.385087 
L 190.989293 119.506901 
L 195.995265 118.427667 
L 200.954075 117.14911 
L 205.85779 115.673276 
L 210.698564 114.002527 
L 215.468655 112.139535 
L 220.160429 110.08728 
L 224.766383 107.849045 
L 229.279147 105.428412 
L 233.691502 102.829253 
L 237.996388 100.055726 
L 242.18692 97.112268 
L 246.256393 94.003588 
L 250.198296 90.734659 
L 254.006325 87.31071 
L 257.674385 83.73722 
L 261.19661 80.019905 
L 264.567365 76.164712 
L 267.781257 72.177808 
L 270.833145 68.065572 
L 273.839746 63.648 
L 276.717383 67.884001 
L 279.762113 72.00154 
L 282.969065 75.994028 
L 286.333108 79.855078 
L 289.848862 83.578515 
L 293.510701 87.15838 
L 297.312768 90.588947 
L 301.248979 93.864728 
L 305.313038 96.980483 
L 309.498444 99.931226 
L 313.798499 102.712237 
L 318.206326 105.319067 
L 322.714873 107.747546 
L 326.793408 109.749667 
L 326.460736 114.859836 
L 326.332683 119.979221 
L 326.409453 125.099632 
L 326.690923 130.212878 
L 327.176644 135.310777 
L 327.865837 140.385175 
L 328.757402 145.427953 
L 329.84991 150.431045 
L 331.141615 155.386446 
L 332.630449 160.286229 
L 334.314032 165.122555 
L 336.18967 169.887688 
L 338.254362 174.574003 
L 340.504805 179.174004 
L 342.937398 183.680331 
L 345.548251 188.085777 
L 348.333187 192.383292 
L 351.389741 196.704235 
L 346.290758 196.230021 
L 341.176891 195.960093 
L 336.056319 195.89488 
L 330.937236 196.034487 
L 325.827831 196.378692 
L 320.736277 196.926943 
L 315.67072 197.678363 
L 310.639263 198.631751 
L 305.649957 199.78558 
L 300.710782 201.138006 
L 295.829641 202.686864 
L 291.014342 204.429677 
L 286.272588 206.363656 
L 281.611966 208.485708 
L 277.039932 210.792438 
L 272.563799 213.280155 
L 268.190728 215.94488 
L 263.927717 218.782349 
L 259.781584 221.788024 
L 255.758962 224.957096 
L 251.866287 228.284494 
L 248.109786 231.764897 
L 244.495469 235.392736 
L 241.029117 239.162207 
L 237.716278 243.06728 
L 234.562249 247.101707 
L 231.572077 251.259035 
L 228.750546 255.532612 
L 226.102169 259.915603 
L 223.631184 264.400994 
L 221.341543 268.98161 
L 219.236909 273.650123 
L 217.320649 278.399065 
L 215.59583 283.220839 
L 214.884236 285.408 
L 213.24631 280.556021 
L 211.415667 275.773423 
L 209.395235 271.067856 
L 207.188247 266.446849 
L 204.798233 261.917794 
L 202.229018 257.487937 
L 199.48471 253.164365 
L 196.569701 248.953994 
L 193.488653 244.863561 
L 190.246496 240.899608 
L 186.848417 237.068478 
L 183.299851 233.376299 
L 179.606477 229.828978 
L 175.774201 226.43219 
L 171.809156 223.19137 
L 167.717684 220.111701 
L 163.506331 217.198111 
L 159.181834 214.455261 
L 154.751111 211.887538 
L 150.221251 209.499052 
L 145.5995 207.293621 
L 140.893253 205.274776 
L 136.110038 203.445745 
L 131.257507 201.809455 
L 126.343423 200.368523 
L 122.476632 199.38263 
L 123.84028 194.446542 
L 125.005446 189.459871 
L 125.970267 184.430594 
L 126.733199 179.366758 
L 127.293021 174.276463 
L 127.648837 169.167853 
L 127.800079 164.049101 
L 127.746505 158.928395 
L 127.4882 153.813927 
L 127.025577 148.71388 
L 126.359377 143.636412 
L 126.2758 143.093017 
L 131.014497 141.15156 
L 135.671766 139.022158 
L 140.240155 136.708218 
L 144.712358 134.213443 
L 149.081219 131.541823 
L 153.339749 128.697632 
L 157.481136 125.68542 
L 161.498753 122.510006 
L 165.386174 119.176471 
L 169.13718 115.690147 
L 172.74577 112.056611 
L 176.20617 108.281676 
L 179.512845 104.371382 
L 182.660506 100.331984 
L 185.644115 96.169944 
L 188.458901 91.891921 
L 191.10036 87.504758 
L 193.564267 83.015475 
L 195.846679 78.431252 
L 197.943945 73.759424 
L 199.852711 69.007465 
L 201.569922 64.182977 
L 201.74706 63.648 
L 203.44302 68.48 
L 205.330851 73.240315 
L 207.407534 77.921328 
L 209.669747 82.515553 
L 212.11387 87.015638 
L 214.735993 91.414384 
L 217.531922 95.704755 
L 220.497183 99.879887 
L 223.627033 103.9331 
L 226.916465 107.857911 
L 230.360217 111.64804 
L 233.952778 115.297424 
L 237.688403 118.800225 
L 241.561114 122.150838 
L 243.674554 123.869029 
L 248.396374 121.886878 
L 253.035151 119.71749 
L 257.583466 117.364336 
L 262.034041 114.831179 
L 266.379758 112.122074 
L 270.613662 109.241353 
L 274.728982 106.193626 
L 278.719134 102.983767 
L 282.577734 99.616913 
L 286.298609 96.098449 
L 289.875807 92.434003 
L 293.303604 88.62944 
L 296.576518 84.690844 
L 299.689312 80.624517 
L 302.637007 76.436964 
L 305.239733 72.417607 
L 300.125762 72.685566 
L 295.026597 73.157815 
L 289.950396 73.833599 
L 284.905279 74.711836 
L 279.899318 75.791121 
L 274.940521 77.069728 
L 270.036822 78.545611 
L 265.196064 80.216409 
L 260.425992 82.07945 
L 255.734238 84.131752 
L 251.128307 86.370033 
L 246.615568 88.790711 
L 242.203239 91.389915 
L 237.898381 94.163486 
L 233.707879 97.106986 
L 229.638437 100.215708 
L 225.696567 103.484677 
L 221.888573 106.908664 
L 218.220549 110.482191 
L 214.698361 114.199542 
L 211.327645 118.054769 
L 208.113794 122.041705 
L 205.061948 126.153971 
L 202.176989 130.38499 
L 199.463535 134.727992 
L 196.925924 139.176029 
L 194.568217 143.721986 
L 193.093347 146.814046 
L 189.826095 150.75734 
L 186.719146 154.828134 
L 183.777471 159.019918 
L 181.005775 163.325984 
L 178.408493 167.739444 
L 175.98978 172.253237 
L 173.753506 176.860143 
L 171.703247 181.55279 
L 169.842284 186.323672 
L 168.173594 191.165157 
L 166.699847 196.069499 
L 165.423399 201.028853 
L 164.346294 206.035283 
L 163.470255 211.080782 
L 162.796682 216.157277 
L 162.326654 221.256647 
L 162.060922 226.370734 
L 161.999912 231.491357 
L 162.14372 236.610324 
L 162.492118 241.719445 
L 163.044548 246.810548 
L 163.800125 251.875486 
L 164.757641 256.906159 
L 165.915565 261.894517 
L 167.272044 266.83258 
L 168.824907 271.712448 
L 170.571672 276.526315 
L 172.509542 281.26648 
L 174.38815 285.408 
L 176.49314 280.739647 
L 178.409761 275.990851 
L 180.134948 271.169209 
L 181.665941 266.282435 
L 183.000291 261.338346 
L 184.135862 256.344852 
L 185.070838 251.309942 
L 185.803724 246.24167 
L 186.333347 241.148145 
L 186.65886 236.037514 
L 186.779741 230.917955 
L 186.695798 225.797656 
L 186.407165 220.68481 
L 185.914303 215.587597 
L 185.218002 210.514169 
L 184.319374 205.472645 
L 183.219858 200.471088 
L 181.921213 195.517501 
L 180.425515 190.619809 
L 178.735159 185.785846 
L 176.852848 181.023346 
L 174.781593 176.339928 
L 172.524708 171.743084 
L 170.085804 167.240169 
L 167.468782 162.838385 
L 164.677829 158.544775 
L 161.71741 154.366209 
L 158.592261 150.309369 
L 155.307381 146.380748 
L 151.868026 142.586629 
L 148.279698 138.933083 
L 144.548137 135.425953 
L 140.679313 132.070852 
L 136.679415 128.873146 
L 135.15184 127.719266 
L 139.892662 129.655526 
L 144.707122 131.400656 
L 149.587517 132.951863 
L 154.526041 134.306665 
L 159.514791 135.462896 
L 164.545788 136.418704 
L 169.610983 137.172562 
L 174.702273 137.723263 
L 179.811512 138.069926 
L 184.930528 138.211997 
L 190.05113 138.149249 
L 195.165126 137.881781 
L 200.264337 137.410021 
L 200.95928 137.329759 
L 201.739152 132.268504 
L 202.316005 127.180111 
L 202.688915 122.07272 
L 202.857285 116.954502 
L 202.820846 111.833646 
L 202.579657 106.718342 
L 202.134104 101.616775 
L 201.484898 96.537107 
L 200.633079 91.487462 
L 199.58001 86.475921 
L 198.327375 81.5105 
L 196.877178 76.599143 
L 195.231739 71.749706 
L 193.39369 66.969949 
L 191.984459 63.648 
L 190.012441 68.37406 
L 188.230992 73.1752 
L 186.642962 78.043738 
L 185.250893 82.971886 
L 184.05701 87.95176 
L 183.063224 92.975393 
L 182.271124 98.034749 
L 181.681979 103.121733 
L 181.29673 108.228208 
L 181.115993 113.346004 
L 181.140059 118.466934 
L 181.368887 123.582805 
L 181.802113 128.685434 
L 182.439043 133.766656 
L 183.278659 138.818344 
L 184.319616 143.832415 
L 185.56025 148.800848 
L 186.998576 153.715695 
L 188.060625 156.942495 
L 183.717879 159.65636 
L 179.487133 162.541718 
L 175.375155 165.593952 
L 171.388522 168.80818 
L 167.533614 172.17926 
L 163.816596 175.701799 
L 160.243415 179.370161 
L 156.819787 183.178478 
L 153.551191 187.120657 
L 150.442854 191.190392 
L 147.499749 195.381172 
L 144.726585 199.686293 
L 142.127798 204.098867 
L 139.707546 208.611835 
L 137.4697 213.217977 
L 135.417841 217.909925 
L 134.495939 220.200681 
L 139.573295 220.867737 
L 144.673264 221.331219 
L 149.787688 221.590386 
L 154.908385 221.644823 
L 160.027163 221.494443 
L 165.135833 221.139487 
L 170.226222 220.580522 
L 175.290187 219.818444 
L 180.319626 218.85447 
L 185.306493 217.690144 
L 190.242811 216.327327 
L 195.120682 214.768201 
L 199.932303 213.015259 
L 201.625736 212.34578 
L 200.245552 217.27727 
L 199.06368 222.260008 
L 198.082009 227.286023 
L 197.30211 232.347274 
L 196.725231 237.435664 
L 196.352295 242.543053 
L 196.183898 247.66127 
L 196.22031 252.782126 
L 196.461473 257.897431 
L 196.907 262.999 
L 197.556179 268.078672 
L 198.407972 273.128321 
L 199.461015 278.139868 
L 200.713625 283.105295 
L 201.366956 285.408 
L 202.712172 280.466857 
L 203.858718 275.475872 
L 204.804762 270.443029 
L 205.548789 265.376381 
L 206.089608 260.284032 
L 206.426356 255.174129 
L 206.558492 250.054848 
L 206.485806 244.934378 
L 206.208414 239.82091 
L 205.72676 234.722624 
L 205.041614 229.647678 
L 204.154072 224.60419 
L 203.065554 219.600229 
L 201.777803 214.643799 
L 200.903344 211.673229 
L 195.912838 210.524598 
L 190.880391 209.576453 
L 185.814054 208.83031 
L 180.721931 208.287364 
L 175.61217 207.948483 
L 170.492944 207.814208 
L 165.372444 207.884756 
L 160.25886 208.160012 
L 155.160374 208.639537 
L 150.085143 209.322564 
L 145.041284 210.207999 
L 140.036869 211.294427 
L 135.079901 212.580108 
L 130.831147 213.853076 
L 134.547335 210.329661 
L 138.11965 206.660456 
L 141.542379 202.851332 
L 144.810046 198.908382 
L 147.917423 194.837914 
L 150.85954 190.64644 
L 153.631688 186.340665 
L 156.229434 181.927479 
L 158.648622 177.41394 
L 160.885382 172.80727 
L 162.936134 168.114838 
L 164.797599 163.344152 
L 166.466799 158.502842 
L 167.941062 153.598655 
L 169.218031 148.639436 
L 170.295663 143.633119 
L 171.172233 138.587713 
L 171.84634 133.511289 
L 172.316905 128.411968 
L 172.583175 123.297909 
L 172.644724 118.177292 
L 172.501454 113.058311 
L 172.153594 107.949153 
L 171.6017 102.857992 
L 170.846656 97.792974 
L 169.889669 92.762201 
L 168.73227 87.773721 
L 167.376311 82.835515 
L 165.82396 77.955483 
L 165.091443 75.862351 
L 170.112076 74.853515 
L 175.08835 73.644715 
L 180.012304 72.237883 
L 184.876062 70.635271 
L 189.671842 68.839443 
L 194.391971 66.853271 
L 199.028899 64.679933 
L 201.07434 63.648 
L 205.671638 65.903959 
L 210.355473 67.974271 
L 215.118352 69.855623 
L 219.952655 71.545007 
L 224.850649 73.039718 
L 229.804497 74.337366 
L 234.806275 75.435875 
L 239.84798 76.333488 
L 244.921548 77.028768 
L 250.018861 77.520603 
L 255.131764 77.808207 
L 260.25208 77.89112 
L 265.371615 77.769207 
L 270.482179 77.442666 
L 275.575598 76.912018 
L 280.643722 76.178112 
L 285.678444 75.242121 
L 290.671709 74.105545 
L 295.615529 72.7702 
L 300.501995 71.238223 
L 303.874858 70.053574 
L 300.009603 73.412787 
L 296.281773 76.923881 
L 292.69733 80.58124 
L 289.262011 84.379013 
L 285.981309 88.311124 
L 282.860474 92.371283 
L 279.904499 96.552995 
L 277.118112 100.849569 
L 274.505771 105.254132 
L 272.071655 109.759638 
L 269.819659 114.358878 
L 267.753384 119.044496 
L 265.876137 123.808994 
L 264.19092 128.644751 
L 263.399135 131.15947 
L 267.097209 127.617048 
L 270.650665 123.929576 
L 274.05382 120.102953 
L 277.301228 116.143302 
L 280.387695 112.056956 
L 283.308282 107.850452 
L 286.058319 103.530521 
L 288.633404 99.104074 
L 291.029419 94.578191 
L 293.24253 89.960114 
L 295.269197 85.257229 
L 297.106178 80.477062 
L 298.750534 75.627258 
L 300.199634 70.715577 
L 301.433706 65.825374 
L 296.506674 64.429359 
L 293.360699 63.648 
L 288.399905 64.918835 
L 283.493898 66.387032 
L 278.650528 68.050243 
L 273.877543 69.905806 
L 269.182579 71.950754 
L 264.573146 74.181815 
L 260.056619 76.595419 
L 255.640223 79.187705 
L 251.331023 81.954527 
L 247.135914 84.891457 
L 243.061606 87.993798 
L 239.114618 91.256586 
L 235.301264 94.674601 
L 231.627644 98.242377 
L 228.099636 101.954203 
L 224.722883 105.804144 
L 221.502788 109.786039 
L 218.444501 113.893518 
L 215.552917 118.120011 
L 212.83266 122.458756 
L 210.288082 126.902811 
L 207.923255 131.445067 
L 207.661511 131.976431 
L 202.558946 132.410403 
L 197.477817 133.048076 
L 192.426252 133.88843 
L 187.412333 134.930121 
L 182.444082 136.171482 
L 177.529445 137.610526 
L 172.676286 139.244953 
L 167.892369 141.072147 
L 163.185347 143.089185 
L 158.562749 145.29284 
L 154.031972 147.679587 
L 149.600264 150.245608 
L 145.274714 152.986798 
L 141.062242 155.89877 
L 136.969588 158.976867 
L 133.003298 162.216165 
L 129.169719 165.611481 
L 125.474982 169.157383 
L 121.924999 172.848199 
L 118.525449 176.678024 
L 115.28177 180.640731 
L 113.216125 183.342963 
L 118.289975 182.649743 
L 123.332044 181.754178 
L 128.334268 180.6577 
L 133.288642 179.362064 
L 138.187242 177.869342 
L 143.022231 176.181922 
L 147.785874 174.302504 
L 152.470549 172.234094 
L 157.068763 169.980002 
L 161.573159 167.543834 
L 165.976531 164.929486 
L 170.271835 162.141141 
L 174.4522 159.183261 
L 178.510936 156.060577 
L 182.441553 152.778084 
L 186.23776 149.341034 
L 189.893485 145.754926 
L 193.40288 142.025496 
L 196.760331 138.158711 
L 199.960466 134.160756 
L 202.998165 130.038029 
L 205.86857 125.797123 
L 208.567088 121.444824 
L 211.089401 116.988095 
L 213.431475 112.434065 
L 215.589564 107.79002 
L 217.560213 103.063388 
L 219.340272 98.261733 
L 220.926892 93.392735 
L 222.317534 88.464184 
L 223.509975 83.483965 
L 224.502306 78.460044 
L 225.292941 73.400459 
L 225.880613 68.313304 
L 226.23932 63.648 
L 226.278322 64.286976 
L 226.70524 69.390136 
L 227.335888 74.472142 
L 228.169258 79.524864 
L 229.204017 84.540218 
L 230.438508 89.510181 
L 231.870758 94.426802 
L 233.498474 99.282216 
L 235.319053 104.068654 
L 237.329582 108.77846 
L 239.526845 113.4041 
L 241.907327 117.938172 
L 244.467219 122.373423 
L 245.585133 124.189479 
L 249.629125 121.047722 
L 253.544245 117.746763 
L 257.324231 114.29188 
L 260.963034 110.688603 
L 264.454834 106.942694 
L 267.794045 103.060146 
L 270.975324 99.047172 
L 273.993582 94.91019 
L 276.843991 90.655819 
L 279.521991 86.290865 
L 282.023296 81.822312 
L 284.343907 77.257307 
L 286.480109 72.603154 
L 288.428487 67.867298 
L 289.981785 63.648 
L 291.762678 68.449346 
L 293.73415 73.175634 
L 295.893045 77.819305 
L 298.23591 82.372928 
L 300.758998 86.829219 
L 303.458272 91.181048 
L 306.329414 95.421455 
L 309.36783 99.543655 
L 312.568659 103.541053 
L 315.926782 107.407255 
L 319.436825 111.136075 
L 323.093173 114.721548 
L 326.889978 118.157938 
L 330.821164 121.439747 
L 334.880444 124.561726 
L 335.685103 125.150535 
L 336.319623 130.232059 
L 337.156842 135.284144 
L 338.19542 140.298708 
L 339.433698 145.26773 
L 340.869692 150.183258 
L 342.501107 155.03743 
L 344.325331 159.822481 
L 346.339448 164.530754 
L 348.540234 169.154718 
L 350.924169 173.686975 
L 353.487439 178.120275 
L 356.225944 182.447525 
L 358.061619 185.148202 
L 352.951827 184.809789 
L 347.832589 184.675983 
L 342.712095 184.746999 
L 337.598536 185.022723 
L 332.500095 185.502715 
L 327.424925 186.186206 
L 322.381148 187.072103 
L 317.376832 188.158989 
L 312.419982 189.445124 
L 307.518529 190.928452 
L 302.680315 192.606599 
L 297.913078 194.476881 
L 293.224445 196.536305 
L 288.621918 198.781578 
L 284.11286 201.209106 
L 279.704484 203.815007 
L 276.840329 205.639264 
L 275.349619 210.538476 
L 274.056017 215.493383 
L 272.961594 220.496056 
L 272.0681 225.538493 
L 271.376964 230.612627 
L 270.889292 235.71034 
L 270.605864 240.823477 
L 270.527135 245.943858 
L 270.653228 251.063292 
L 270.983944 256.173588 
L 271.518752 261.266572 
L 272.256798 266.334095 
L 273.1969 271.36805 
L 274.337555 276.360385 
L 275.676937 281.303113 
L 276.953088 285.408 
L 278.457643 280.513021 
L 279.765247 275.561792 
L 280.87381 270.562233 
L 281.781556 265.522342 
L 282.487035 260.450183 
L 282.989116 255.353869 
L 283.286998 250.241553 
L 283.380204 245.121415 
L 283.268584 240.001645 
L 282.952318 234.890434 
L 282.43191 229.795959 
L 281.708194 224.72637 
L 280.782327 219.689776 
L 279.655791 214.694237 
L 278.330388 209.747742 
L 276.998022 205.431978 
L 282.117782 205.544067 
L 287.237928 205.45133 
L 292.350271 205.153916 
L 297.446631 204.652302 
L 302.518855 203.947288 
L 307.558829 203.040003 
L 312.558489 201.931899 
L 317.509839 200.624748 
L 322.404955 199.120642 
L 327.236008 197.421986 
L 331.995268 195.531499 
L 336.675122 193.452204 
L 341.268083 191.187428 
L 345.766804 188.740794 
L 350.164086 186.116216 
L 354.452896 183.317893 
L 358.626373 180.350302 
L 362.607172 177.275074 
L 363.216063 172.835557 
L 358.469551 170.913286 
L 353.649965 169.182364 
L 348.765016 167.645557 
L 343.822518 166.305326 
L 338.830379 165.163814 
L 333.796585 164.222848 
L 328.729189 163.483932 
L 323.636297 162.948249 
L 318.526057 162.616656 
L 313.406645 162.489683 
L 308.286251 162.567534 
L 303.173065 162.850084 
L 298.075268 163.33688 
L 293.001016 164.027145 
L 287.958426 164.919773 
L 286.519011 165.212965 
L 298.418942 162.718428 
L 303.348711 161.332108 
L 308.219098 159.749758 
L 313.022312 157.973911 
L 317.75067 156.007407 
L 322.396606 153.853392 
L 326.952688 151.515312 
L 331.411627 148.996907 
L 335.76629 146.302207 
L 340.009711 143.435523 
L 344.381061 140.212376 
L 339.685806 142.256656 
L 335.076056 144.487061 
L 330.559186 146.900023 
L 326.142421 149.491682 
L 321.832828 152.25789 
L 317.637301 155.194224 
L 313.562552 158.295985 
L 309.6151 161.558212 
L 305.80126 164.975686 
L 302.127133 168.542938 
L 298.598597 172.254263 
L 295.221296 176.103724 
L 292.000635 180.085161 
L 288.941765 184.192205 
L 286.049579 188.418287 
L 284.930433 190.15633 
L 284.745062 195.27396 
L 284.764489 200.39491 
L 284.988683 205.510986 
L 285.417288 210.614005 
L 286.049615 215.695802 
L 286.884654 220.748248 
L 287.92107 225.76326 
L 289.157203 230.732815 
L 290.591077 235.648963 
L 292.220397 240.503838 
L 294.042558 245.289675 
L 296.054643 249.998817 
L 298.253434 254.62373 
L 300.635414 259.157015 
L 303.196771 263.59142 
L 305.933408 267.919852 
L 308.287257 271.359927 
L 303.179817 270.98769 
L 298.061577 270.819994 
L 292.940725 270.857107 
L 287.825453 271.09897 
L 282.723945 271.545195 
L 277.644362 272.19507 
L 272.59483 273.047554 
L 267.583428 274.101284 
L 262.618172 275.354573 
L 257.707005 276.805417 
L 252.857786 278.451495 
L 248.078271 280.290173 
L 243.376106 282.31851 
L 238.758815 284.533261 
L 237.056721 285.408 
L 232.473049 283.124484 
L 227.801726 281.026092 
L 223.050227 279.116182 
L 218.226152 277.397808 
L 213.33722 275.873721 
L 208.391251 274.546358 
L 203.396158 273.417843 
L 198.359932 272.489981 
L 193.290629 271.764257 
L 188.196361 271.241831 
L 183.085275 270.923539 
L 177.96555 270.809891 
L 172.845376 270.901068 
L 167.732943 271.196925 
L 164.130392 271.52906 
L 167.062621 267.330663 
L 169.824613 263.018366 
L 172.41195 258.599069 
L 174.820492 254.07984 
L 177.046387 249.467911 
L 179.086073 244.770658 
L 180.936288 239.995597 
L 182.594072 235.150367 
L 184.056771 230.242719 
L 185.322048 225.280504 
L 186.387876 220.271661 
L 187.252552 215.224202 
L 187.914691 210.146203 
L 188.373235 205.045787 
L 188.62745 199.931115 
L 188.67693 194.810367 
L 188.660134 193.673825 
L 185.105961 189.987044 
L 181.4072 186.44534 
L 177.569766 183.054381 
L 173.5998 179.81959 
L 169.503652 176.746143 
L 165.287876 173.838957 
L 160.959215 171.102682 
L 156.524595 168.541696 
L 151.991111 166.160097 
L 147.366014 163.961693 
L 142.656703 161.950002 
L 137.870714 160.128243 
L 133.015702 158.49933 
L 128.099434 157.065868 
L 123.129775 155.830151 
L 119.380541 155.035956 
L 122.823619 158.826697 
L 126.415532 162.476719 
L 130.150534 165.980183 
L 134.02265 169.331485 
L 138.025685 172.525262 
L 142.153235 175.556406 
L 146.398696 178.420068 
L 150.755278 181.111666 
L 155.21601 183.626894 
L 159.773756 185.961728 
L 164.421225 188.112434 
L 169.150982 190.07557 
L 173.95546 191.847996 
L 178.826973 193.426876 
L 183.757727 194.809685 
L 188.739835 195.99421 
L 189.763709 196.211728 
L 187.439196 200.774747 
L 185.299015 205.427072 
L 183.346588 210.161259 
L 181.585041 214.969737 
L 180.01719 219.844811 
L 178.645545 224.778682 
L 177.472299 229.763459 
L 176.499329 234.791165 
L 175.728192 239.853758 
L 175.160122 244.943139 
L 174.796027 250.051166 
L 174.63649 255.169667 
L 174.681765 260.290453 
L 174.931782 265.405332 
L 175.386139 270.506123 
L 176.04411 275.584663 
L 176.904642 280.63283 
L 177.91196 285.408 
L 178.964254 280.396296 
L 179.815291 275.34652 
L 180.463711 270.266751 
L 180.908475 265.165115 
L 181.148872 260.049774 
L 181.184518 254.928912 
L 181.015355 249.81072 
L 180.641655 244.703387 
L 180.064015 239.615084 
L 179.283359 234.55395 
L 178.300936 229.528082 
L 177.118318 224.545521 
L 175.737397 219.614237 
L 174.160381 214.74212 
L 172.389794 209.936964 
L 170.428468 205.206456 
L 168.279542 200.558165 
L 165.946452 195.999525 
L 163.432931 191.537831 
L 160.743001 187.180219 
L 157.880965 182.933662 
L 154.851401 178.804952 
L 151.659155 174.800696 
L 148.309336 170.927298 
L 144.807302 167.190955 
L 141.158655 163.597645 
L 137.369232 160.153116 
L 133.445096 156.862879 
L 129.392525 153.732198 
L 125.218001 150.76608 
L 122.780538 149.146989 
L 123.351348 149.436794 
L 127.968532 151.65177 
L 132.670598 153.680336 
L 137.450023 155.519247 
L 142.299163 157.16556 
L 147.210258 158.616643 
L 152.175453 159.870174 
L 157.186805 160.924148 
L 162.236295 161.776877 
L 167.315847 162.426999 
L 172.417333 162.873473 
L 177.532593 163.115585 
L 182.653443 163.152947 
L 186.247967 163.056781 
L 181.688307 160.725687 
L 177.039075 158.578796 
L 172.307709 156.619542 
L 167.501778 154.851059 
L 162.628971 153.276176 
L 157.697083 151.897414 
L 152.714005 150.716977 
L 147.687707 149.736755 
L 142.626232 148.958315 
L 137.537676 148.382903 
L 132.43018 148.011439 
L 127.311915 147.844517 
L 123.527764 147.852756 
L 126.101746 152.279845 
L 128.850705 156.600461 
L 131.770244 160.807692 
L 134.855693 164.894808 
L 138.102114 168.855268 
L 141.504314 172.682739 
L 145.056852 176.371097 
L 148.754042 179.91444 
L 152.589971 183.307101 
L 156.558503 186.543653 
L 160.653287 189.618916 
L 164.867773 192.527971 
L 169.19522 195.266166 
L 173.628704 197.829118 
L 178.161132 200.212728 
L 182.785253 202.413183 
L 187.493671 204.426962 
L 192.278852 206.250844 
L 197.357591 207.952137 
L 198.242454 212.996096 
L 199.328313 218.000635 
L 200.613432 222.957748 
L 202.095754 227.859505 
L 203.772909 232.698064 
L 205.642213 237.465685 
L 207.700676 242.154739 
L 209.945004 246.757727 
L 212.371607 251.267283 
L 214.976604 255.676194 
L 217.755826 259.977406 
L 220.704828 264.164038 
L 223.818892 268.229393 
L 227.093035 272.166967 
L 230.522021 275.97046 
L 234.100363 279.633788 
L 237.822336 283.15109 
L 240.375816 285.408 
L 244.190084 281.991004 
L 247.864658 278.424212 
L 251.393659 274.713329 
L 254.771442 270.864292 
L 257.992602 266.883258 
L 261.051987 262.776597 
L 263.944702 258.550878 
L 266.666119 254.212861 
L 269.211886 249.769487 
L 271.577928 245.227863 
L 273.760461 240.595256 
L 275.755993 235.879076 
L 277.561333 231.086869 
L 279.173591 226.2263 
L 280.590188 221.305147 
L 281.808859 216.33128 
L 282.827654 211.312659 
L 283.644942 206.257311 
L 284.259416 201.173324 
L 284.670094 196.068832 
L 284.876318 190.951999 
L 284.888064 190.287937 
L 287.739402 186.034189 
L 290.418355 181.66982 
L 292.920637 177.201813 
L 295.242244 172.637315 
L 297.379463 167.983629 
L 299.328875 163.248199 
L 301.08736 158.438601 
L 302.652107 153.56253 
L 304.020611 148.627786 
L 305.190683 143.642264 
L 306.160452 138.613939 
L 306.928365 133.550856 
L 307.493195 128.461114 
L 307.854038 123.352857 
L 308.010316 118.234255 
L 307.96178 113.113499 
L 307.708507 107.998779 
L 307.250903 102.898279 
L 306.589699 97.820159 
L 305.725953 92.772541 
L 304.661047 87.763501 
L 303.396685 82.801053 
L 301.934889 77.893136 
L 300.277998 73.0476 
L 298.428662 68.272199 
L 296.423443 63.648 
L 294.387585 68.346913 
L 292.541262 73.12348 
L 290.887428 77.97006 
L 289.428728 82.878898 
L 288.167495 87.842143 
L 287.105749 92.851853 
L 286.245187 97.900014 
L 285.587186 102.978551 
L 285.132798 108.079339 
L 284.882751 113.194217 
L 284.837445 118.315003 
L 284.996952 123.433505 
L 285.361016 128.541534 
L 285.929056 133.630918 
L 286.700163 138.693516 
L 287.673103 143.721228 
L 288.846319 148.706011 
L 290.217935 153.639891 
L 291.785757 158.514974 
L 293.547276 163.323462 
L 295.499674 168.057661 
L 297.639828 172.709999 
L 299.964314 177.273031 
L 302.469413 181.73946 
L 305.151117 186.102138 
L 308.005138 190.354087 
L 311.026908 194.488504 
L 314.211593 198.498776 
L 317.554099 202.378487 
L 321.049079 206.121429 
L 324.690941 209.721616 
L 328.473858 213.173287 
L 332.39178 216.470921 
L 336.438438 219.609243 
L 337.651031 220.500377 
L 332.93291 218.509439 
L 328.138947 216.708767 
L 323.276811 215.101243 
L 318.35428 213.689439 
L 313.37923 212.475612 
L 308.359618 211.461706 
L 303.303477 210.649341 
L 298.218894 210.039818 
L 293.114004 209.634112 
L 287.996973 209.432871 
L 282.875988 209.436418 
L 277.759241 209.644747 
L 273.085463 210.014759 
L 272.893051 215.132129 
L 272.905434 220.253101 
L 273.12259 225.369481 
L 273.544174 230.473084 
L 274.16951 235.555747 
L 274.997598 240.609337 
L 276.027114 245.62577 
L 277.256409 250.59702 
L 278.683519 255.515136 
L 280.306159 260.372248 
L 282.121734 265.160587 
L 284.127339 269.872492 
L 286.319766 274.500426 
L 288.695507 279.036983 
L 291.250762 283.474908 
L 292.439358 285.408 
L 295.072866 281.01606 
L 297.528638 276.522321 
L 299.802743 271.933972 
L 301.891544 267.258353 
L 303.791699 262.502945 
L 305.500169 257.675354 
L 307.01422 252.783304 
L 308.331431 247.834622 
L 309.449693 242.837223 
L 310.367218 237.799103 
L 311.082538 232.728323 
L 311.594509 227.632993 
L 311.902311 222.521265 
L 312.005452 217.401317 
L 311.903768 212.281341 
L 311.597421 207.169525 
L 311.0869 202.07405 
L 310.373023 197.003066 
L 309.456932 191.964685 
L 308.340093 186.966968 
L 307.024291 182.017911 
L 305.511632 177.125431 
L 303.804536 172.297354 
L 301.905734 167.541405 
L 299.818264 162.865192 
L 297.545465 158.276195 
L 295.090973 153.781758 
L 292.458715 149.389069 
L 289.652901 145.105155 
L 286.678021 140.936871 
L 283.538834 136.890885 
L 280.240361 132.973669 
L 276.78788 129.19149 
L 273.186914 125.550399 
L 269.443223 122.056221 
L 265.562797 118.714545 
L 261.551844 115.530718 
L 257.41678 112.509833 
L 253.16422 109.656723 
L 248.800968 106.975952 
L 244.334003 104.471809 
L 239.770473 102.1483 
L 235.117678 100.009143 
L 230.383061 98.057758 
L 225.574196 96.297268 
L 220.698777 94.73049 
L 215.764604 93.35993 
L 210.77957 92.187781 
L 205.751649 91.215917 
L 200.688886 90.445894 
L 195.599381 89.878943 
L 190.491274 89.515972 
L 185.372738 89.357561 
L 180.251962 89.403964 
L 175.137138 89.655106 
L 170.036448 90.110585 
L 164.958052 90.769673 
L 159.910074 91.631316 
L 155.446347 92.568148 
L 157.051949 97.430919 
L 158.850726 102.225594 
L 160.839799 106.944501 
L 163.015988 111.580092 
L 165.37581 116.124951 
L 167.91549 120.571807 
L 170.630966 124.913545 
L 173.517893 129.143221 
L 176.571652 133.254067 
L 179.787359 137.239507 
L 183.159869 141.093165 
L 186.683786 144.808876 
L 190.353473 148.380696 
L 191.508386 149.447465 
L 186.564754 148.111425 
L 181.571649 146.974146 
L 176.537059 146.037448 
L 171.469038 145.30283 
L 166.375693 144.771465 
L 161.265175 144.444205 
L 156.145657 144.321574 
L 151.02533 144.403766 
L 145.912386 144.690651 
L 140.815004 145.18177 
L 135.741338 145.876337 
L 130.699507 146.773241 
L 125.697575 147.871047 
L 123.14695 148.512344 
L 124.596609 153.42386 
L 126.241517 158.273477 
L 128.079042 163.053435 
L 130.106244 167.756089 
L 132.319881 172.373915 
L 134.71641 176.899525 
L 137.291999 181.325679 
L 140.042527 185.645297 
L 142.963594 189.851468 
L 146.050525 193.937463 
L 149.298384 197.896745 
L 152.701974 201.722981 
L 156.25585 205.410048 
L 159.954326 208.952049 
L 163.791487 212.343318 
L 167.761193 215.578428 
L 171.857093 218.652205 
L 176.072635 221.55973 
L 180.401076 224.296353 
L 184.835489 226.857696 
L 189.368782 229.239661 
L 193.993703 231.438437 
L 198.702851 233.450506 
L 203.488694 235.272651 
L 208.343575 236.901955 
L 213.259727 238.335813 
L 218.229286 239.57193 
L 223.244301 240.608329 
L 228.29675 241.443351 
L 233.37855 242.075662 
L 238.48157 242.504249 
L 243.597647 242.728428 
L 248.718597 242.747838 
L 253.836226 242.562449 
L 258.942349 242.172558 
L 264.028795 241.578788 
L 269.087429 240.78209 
L 274.110157 239.783738 
L 279.088943 238.585328 
L 284.015824 237.188779 
L 288.882917 235.596325 
L 293.682435 233.810512 
L 298.4067 231.834198 
L 303.048156 229.670545 
L 307.599375 227.323014 
L 312.053078 224.79536 
L 316.402139 222.091628 
L 320.639601 219.216142 
L 324.758685 216.173503 
L 328.7528 212.968579 
L 332.615558 209.606496 
L 336.340779 206.092633 
L 339.922503 202.432612 
L 343.355 198.632287 
L 346.632779 194.697739 
L 349.750597 190.635263 
L 352.703464 186.451356 
L 355.486658 182.152713 
L 358.095726 177.74621 
L 360.526494 173.238897 
L 361.881144 170.523408 
L 356.767271 170.253583 
L 351.646698 170.188474 
L 346.527618 170.328185 
L 341.418219 170.672493 
L 336.326676 171.220847 
L 331.261134 171.972369 
L 326.229697 172.925859 
L 321.240414 174.079789 
L 316.301267 175.432315 
L 311.420157 176.981272 
L 306.604893 178.724182 
L 301.863179 180.658257 
L 297.2026 182.780403 
L 292.630612 185.087225 
L 288.154529 187.575033 
L 285.177598 189.362923 
L 287.398707 193.97716 
L 289.802559 198.498884 
L 292.38531 202.920864 
L 295.142826 207.236024 
L 298.070698 211.437461 
L 301.164239 215.518453 
L 304.418503 219.472473 
L 307.828282 223.293194 
L 311.388122 226.974504 
L 315.092327 230.510514 
L 318.934972 233.895566 
L 322.909909 237.124246 
L 326.496489 239.820611 
L 325.91133 239.560996 
L 321.184823 237.590049 
L 316.383279 235.809688 
L 311.514382 234.222761 
L 306.585918 232.831808 
L 301.605774 231.639054 
L 296.581915 230.646406 
L 291.52238 229.855453 
L 286.435263 229.267461 
L 281.328701 228.883369 
L 276.210864 228.703792 
L 271.089939 228.729018 
L 265.97412 228.959006 
L 260.87159 229.393388 
L 255.790512 230.031469 
L 250.739015 230.872229 
L 245.72518 231.914323 
L 240.757028 233.156083 
L 235.842507 234.595523 
L 230.989479 236.230339 
L 226.205709 238.057918 
L 221.498849 240.075334 
L 216.876429 242.279361 
L 212.345843 244.666472 
L 207.914341 247.232849 
L 203.589012 249.974386 
L 199.376774 252.886697 
L 195.284367 255.965123 
L 191.318338 259.20474 
L 187.485031 262.600364 
L 183.790579 266.146563 
L 180.240893 269.837664 
L 176.841651 273.667762 
L 173.59829 277.63073 
L 170.237553 282.106972 
L 175.322596 281.501303 
L 180.379352 280.692771 
L 185.39973 279.682669 
L 190.375699 278.472614 
L 195.299299 277.064541 
L 200.162652 275.460703 
L 204.957979 273.663665 
L 209.677607 271.676303 
L 214.313987 269.501796 
L 218.859702 267.143622 
L 223.307478 264.605555 
L 227.650201 261.891654 
L 231.880924 259.006262 
L 235.992877 255.953993 
L 239.979483 252.739732 
L 243.834364 249.36862 
L 247.551353 245.846051 
L 251.124503 242.177659 
L 254.548099 238.369314 
L 257.816663 234.427108 
L 260.924967 230.357347 
L 263.868037 226.166543 
L 266.641165 221.861399 
L 269.239916 217.448804 
L 271.660131 212.935816 
L 273.125675 209.972869 
L 277.598915 207.479954 
L 281.968887 204.810151 
L 286.228599 201.967731 
L 290.371238 198.957241 
L 294.390176 195.783499 
L 298.278983 192.45158 
L 302.031438 188.966816 
L 305.641538 185.334781 
L 309.103508 181.561286 
L 312.411809 177.652367 
L 315.561149 173.614278 
L 318.546489 169.45348 
L 321.363054 165.176627 
L 324.006337 160.790564 
L 326.47211 156.302305 
L 328.756428 151.719032 
L 330.855637 147.048077 
L 332.766379 142.296912 
L 334.485596 137.473138 
L 336.010539 132.584472 
L 337.273468 127.901664 
L 332.323433 126.589546 
L 327.324886 125.476426 
L 322.285825 124.564086 
L 317.214311 123.853984 
L 312.118457 123.347256 
L 307.006415 123.044713 
L 301.886364 122.94684 
L 296.766495 123.053792 
L 291.654998 123.365399 
L 286.56005 123.881162 
L 281.489803 124.600256 
L 276.452368 125.521531 
L 271.455803 126.643512 
L 266.508102 127.964406 
L 261.617181 129.482097 
L 260.940416 129.709133 
L 259.652645 124.752708 
L 258.167699 119.851745 
L 256.487955 115.014085 
L 254.6161 110.247465 
L 252.555128 105.559513 
L 250.308336 100.957727 
L 247.87932 96.449471 
L 245.271964 92.041955 
L 242.49044 87.742231 
L 239.539198 83.557177 
L 236.422959 79.49349 
L 233.146709 75.557669 
L 229.715688 71.756011 
L 226.135386 68.094599 
L 222.411531 64.579289 
L 221.373296 63.648 
L 217.611369 67.122536 
L 213.991395 70.74473 
L 210.519165 74.508787 
L 207.200236 78.408686 
L 204.039915 82.438186 
L 201.043259 86.590843 
L 198.215063 90.860012 
L 195.559849 95.238864 
L 193.081867 99.720394 
L 190.785081 104.297431 
L 188.673164 108.962655 
L 186.749496 113.708601 
L 185.017154 118.527677 
L 183.478909 123.412173 
L 182.137223 128.354276 
L 180.994241 133.346078 
L 180.051792 138.379595 
L 179.311384 143.446774 
L 178.774201 148.539507 
L 178.441103 153.649649 
L 178.312623 158.769023 
L 178.388965 163.889441 
L 178.670009 169.002709 
L 179.155304 174.100649 
L 179.844075 179.175105 
L 180.735218 184.217958 
L 181.827309 189.22114 
L 183.1186 194.176649 
L 184.607026 199.076557 
L 186.290205 203.913023 
L 188.165445 208.678312 
L 190.229746 213.364799 
L 192.479805 217.964988 
L 194.912023 222.471519 
L 197.522508 226.877182 
L 200.307085 231.174929 
L 203.261299 235.357886 
L 206.380423 239.419359 
L 209.659467 243.352852 
L 213.093187 247.152072 
L 216.676088 250.810941 
L 220.402439 254.323605 
L 224.266279 257.684445 
L 228.261425 260.888085 
L 232.381488 263.929398 
L 236.619875 266.80352 
L 240.969805 269.505854 
L 245.424321 272.032074 
L 249.976296 274.378141 
L 254.618447 276.540301 
L 259.343348 278.515095 
L 264.14344 280.299363 
L 269.011045 281.890252 
L 273.938375 283.285216 
L 278.917547 284.482023 
L 283.546039 285.408 
L 288.565942 284.395542 
L 293.541343 283.183152 
L 298.464281 281.772768 
L 303.171029 280.221493 
L 302.124201 275.208644 
L 300.877749 270.241667 
L 299.433669 265.328508 
L 297.794269 260.477026 
L 295.962174 255.694984 
L 293.940313 250.990031 
L 291.731921 246.369695 
L 289.340532 241.841366 
L 286.769971 237.41229 
L 284.02435 233.089552 
L 281.108062 228.880066 
L 278.025772 224.790569 
L 274.782412 220.827601 
L 271.383169 216.997503 
L 268.642548 214.121989 
L 271.60636 218.29815 
L 274.734804 222.352449 
L 278.022874 226.278401 
L 281.46531 230.069725 
L 285.056605 233.720355 
L 288.791013 237.224452 
L 292.662561 240.576409 
L 296.665055 243.770865 
L 300.792091 246.802708 
L 305.037068 249.667089 
L 309.393193 252.359424 
L 313.853499 254.875408 
L 316.891093 256.457645 
L 316.354869 256.107967 
L 312.003506 253.407941 
L 307.547651 250.884082 
L 302.994433 248.540429 
L 298.351136 246.380731 
L 293.625188 244.408443 
L 288.824151 242.62672 
L 283.955703 241.038412 
L 279.027635 239.646061 
L 274.047829 238.451894 
L 269.024252 237.457821 
L 263.964942 236.665433 
L 258.877991 236.075997 
L 253.771538 235.690456 
L 248.653752 235.509427 
L 243.532821 235.5332 
L 238.416937 235.761737 
L 233.314284 236.194671 
L 228.233025 236.831311 
L 223.181289 237.670638 
L 218.167159 238.711309 
L 213.198655 239.95166 
L 208.283726 241.389705 
L 203.430234 243.023145 
L 198.645946 244.849366 
L 193.938513 246.865447 
L 189.315468 249.068162 
L 184.784206 251.453988 
L 180.351976 254.019108 
L 176.025869 256.759418 
L 171.812805 259.670534 
L 167.719525 262.747799 
L 163.752577 265.98629 
L 161.871851 267.617152 
L 166.694347 265.894353 
L 171.444092 263.980084 
L 176.113487 261.877407 
L 180.695062 259.589686 
L 185.181489 257.12058 
L 189.565588 254.474041 
L 193.840348 251.654301 
L 197.998929 248.665872 
L 202.034678 245.513534 
L 205.941139 242.202331 
L 209.712062 238.73756 
L 213.341415 235.124764 
L 216.823392 231.369722 
L 220.152422 227.478442 
L 222.911717 223.99802 
L 223.675286 229.06176 
L 224.64074 234.090915 
L 225.806534 239.07744 
L 227.170803 244.013356 
L 228.731365 248.890768 
L 230.485723 253.701873 
L 232.431071 258.438974 
L 234.564296 263.094492 
L 236.881986 267.660981 
L 239.380433 272.131133 
L 242.05564 276.497799 
L 244.903327 280.753992 
L 247.918938 284.892904 
L 248.312303 285.408 
L 251.348828 281.284407 
L 254.218024 277.042683 
L 256.915301 272.689616 
L 259.436344 268.232168 
L 261.77712 263.67747 
L 263.933885 259.03281 
L 265.903187 254.305618 
L 267.681877 249.503455 
L 269.267109 244.634005 
L 270.656347 239.705058 
L 271.847369 234.724499 
L 272.838268 229.700296 
L 273.62746 224.640486 
L 274.213683 219.553164 
L 274.595998 214.446468 
L 274.773794 209.328569 
L 274.785691 208.156201 
L 274.785691 208.156201 
" style="fill:none;stroke:#1f77b4;stroke-linecap:square;stroke-width:1.5;"/>
   </g>
   <g id="patch_4">
    <path d="M 82.520165 307.584 
L 82.520165 41.472 
" style="fill:none;stroke:#000000;stroke-linecap:square;stroke-linejoin:miter;stroke-width:0.8;"/>
   </g>
   <g id="patch_5">
    <path d="M 389.799835 307.584 
L 389.799835 41.472 
" style="fill:none;stroke:#000000;stroke-linecap:square;stroke-linejoin:miter;stroke-width:0.8;"/>
   </g>
   <g id="patch_6">
    <path d="M 82.520165 307.584 
L 389.799835 307.584 
" style="fill:none;stroke:#000000;stroke-linecap:square;stroke-linejoin:miter;stroke-width:0.8;"/>
   </g>
   <g id="patch_7">
    <path d="M 82.520165 41.472 
L 389.799835 41.472 
" style="fill:none;stroke:#000000;stroke-linecap:square;stroke-linejoin:miter;stroke-width:0.8;"/>
   </g>
   <g id="PathCollection_1">
    <defs>
     <path d="M 0 2.236068 
C 0.593012 2.236068 1.161816 2.000462 1.581139 1.581139 
C 2.000462 1.161816 2.236068 0.593012 2.236068 0 
C 2.236068 -0.593012 2.000462 -1.161816 1.581139 -1.581139 
C 1.161816 -2.000462 0.593012 -2.236068 0 -2.236068 
C -0.593012 -2.236068 -1.161816 -2.000462 -1.581139 -1.581139 
C -2.000462 -1.161816 -2.236068 -0.593012 -2.236068 0 
C -2.236068 0.593012 -2.000462 1.161816 -1.581139 1.581139 
C -1.161816 2.000462 -0.593012 2.236068 0 2.236068 
z
" id="m27d4b2b7fc" style="stroke:#000000;"/>
    </defs>
    <g clip-path="url(#pb383e44b0a)">
     <use style="stroke:#000000;" x="274.785691" xlink:href="#m27d4b2b7fc" y="208.156201"/>
    </g>
   </g>
   <g id="Quiver_1">
    <path clip-path="url(#pb383e44b0a)" d="M 274.697694 207.547974 
L 281.388189 206.580012 
L 280.603969 205.451555 
L 286.950226 206.39627 
L 281.131948 209.100916 
L 281.564182 207.796466 
L 274.873687 208.764427 
L 274.697694 207.547974 
"/>
   </g>
  </g>
 </g>
 <defs>
  <clipPath id="pb383e44b0a">
   <rect height="266.112" width="307.27967" x="82.520165" y="41.472"/>
  </clipPath>
 </defs>
</svg>
