<?xml version="1.0" encoding="utf-8" standalone="no"?>
<!DOCTYPE svg PUBLIC "-//W3C//DTD SVG 1.1//EN"
  "http://www.w3.org/Graphics/SVG/1.1/DTD/svg11.dtd">
<!-- Created with matplotlib (https://matplotlib.org/) -->
<svg height="345.6pt" version="1.1" viewBox="0 0 460.8 345.6" width="460.8pt" xmlns="http://www.w3.org/2000/svg" xmlns:xlink="http://www.w3.org/1999/xlink">
 <defs>
  <style type="text/css">
*{stroke-linecap:butt;stroke-linejoin:round;}
  </style>
 </defs>
 <g id="figure_1">
  <g id="patch_1">
   <path d="M 0 345.6 
L 460.8 345.6 
L 460.8 0 
L 0 0 
z
" style="fill:#ffffff;"/>
  </g>
  <g id="axes_1">
   <g id="patch_2">
    <path d="M 57.6 263.808 
L 414.72 263.808 
L 414.72 85.248 
L 57.6 85.248 
z
" style="fill:#ffffff;"/>
   </g>
   <g id="PathCollection_1">
    <defs>
     <path d="M 0 3 
C 0.795609 3 1.55874 2.683901 2.12132 2.12132 
C 2.683901 1.55874 3 0.795609 3 0 
C 3 -0.795609 2.683901 -1.55874 2.12132 -2.12132 
C 1.55874 -2.683901 0.795609 -3 0 -3 
C -0.795609 -3 -1.55874 -2.683901 -2.12132 -2.12132 
C -2.683901 -1.55874 -3 -0.795609 -3 0 
C -3 0.795609 -2.683901 1.55874 -2.12132 2.12132 
C -1.55874 2.683901 -0.795609 3 0 3 
z
" id="m2b6368ef69" style="stroke:#000000;"/>
    </defs>
    <g clip-path="url(#p62a029252d)">
     <use style="stroke:#000000;" x="165.377343" xlink:href="#m2b6368ef69" y="132.383425"/>
    </g>
   </g>
   <g id="patch_3">
    <path clip-path="url(#p62a029252d)" d="M 161.76 211.728 
C 171.625555 211.728 181.088371 207.808373 188.064372 200.832372 
C 195.040373 193.856371 198.96 184.393555 198.96 174.528 
C 198.96 164.662445 195.040373 155.199629 188.064372 148.223628 
C 181.088371 141.247627 171.625555 137.328 161.76 137.328 
C 151.894445 137.328 142.431629 141.247627 135.455628 148.223628 
C 128.479627 155.199629 124.56 164.662445 124.56 174.528 
C 124.56 184.393555 128.479627 193.856371 135.455628 200.832372 
C 142.431629 207.808373 151.894445 211.728 161.76 211.728 
z
" style="fill:#cc0000;fill-opacity:0.1;stroke:#cc0000;stroke-dasharray:7.4,3.2;stroke-dashoffset:0;stroke-linejoin:miter;stroke-width:2;"/>
   </g>
   <g id="patch_4">
    <path clip-path="url(#p62a029252d)" d="M 310.56 196.848 
C 316.479333 196.848 322.157023 194.496224 326.342623 190.310623 
C 330.528224 186.125023 332.88 180.447333 332.88 174.528 
C 332.88 168.608667 330.528224 162.930977 326.342623 158.745377 
C 322.157023 154.559776 316.479333 152.208 310.56 152.208 
C 304.640667 152.208 298.962977 154.559776 294.777377 158.745377 
C 290.591776 162.930977 288.24 168.608667 288.24 174.528 
C 288.24 180.447333 290.591776 186.125023 294.777377 190.310623 
C 298.962977 194.496224 304.640667 196.848 310.56 196.848 
z
" style="fill:#cc0000;fill-opacity:0.1;stroke:#cc0000;stroke-dasharray:7.4,3.2;stroke-dashoffset:0;stroke-linejoin:miter;stroke-width:2;"/>
   </g>
   <g id="matplotlib.axis_1">
    <g id="xtick_1">
     <g id="line2d_1">
      <defs>
       <path d="M 0 0 
L 0 3.5 
" id="ma8c09de4eb" style="stroke:#000000;stroke-width:0.8;"/>
      </defs>
      <g>
       <use style="stroke:#000000;stroke-width:0.8;" x="87.36" xlink:href="#ma8c09de4eb" y="263.808"/>
      </g>
     </g>
     <g id="text_1">
      <!-- 0.0 -->
      <defs>
       <path d="M 31.78125 66.40625 
Q 24.171875 66.40625 20.328125 58.90625 
Q 16.5 51.421875 16.5 36.375 
Q 16.5 21.390625 20.328125 13.890625 
Q 24.171875 6.390625 31.78125 6.390625 
Q 39.453125 6.390625 43.28125 13.890625 
Q 47.125 21.390625 47.125 36.375 
Q 47.125 51.421875 43.28125 58.90625 
Q 39.453125 66.40625 31.78125 66.40625 
z
M 31.78125 74.21875 
Q 44.046875 74.21875 50.515625 64.515625 
Q 56.984375 54.828125 56.984375 36.375 
Q 56.984375 17.96875 50.515625 8.265625 
Q 44.046875 -1.421875 31.78125 -1.421875 
Q 19.53125 -1.421875 13.0625 8.265625 
Q 6.59375 17.96875 6.59375 36.375 
Q 6.59375 54.828125 13.0625 64.515625 
Q 19.53125 74.21875 31.78125 74.21875 
z
" id="DejaVuSans-48"/>
       <path d="M 10.6875 12.40625 
L 21 12.40625 
L 21 0 
L 10.6875 0 
z
" id="DejaVuSans-46"/>
      </defs>
      <g transform="translate(79.408438 278.406437)scale(0.1 -0.1)">
       <use xlink:href="#DejaVuSans-48"/>
       <use x="63.623047" xlink:href="#DejaVuSans-46"/>
       <use x="95.410156" xlink:href="#DejaVuSans-48"/>
      </g>
     </g>
    </g>
    <g id="xtick_2">
     <g id="line2d_2">
      <g>
       <use style="stroke:#000000;stroke-width:0.8;" x="161.76" xlink:href="#ma8c09de4eb" y="263.808"/>
      </g>
     </g>
     <g id="text_2">
      <!-- 0.5 -->
      <defs>
       <path d="M 10.796875 72.90625 
L 49.515625 72.90625 
L 49.515625 64.59375 
L 19.828125 64.59375 
L 19.828125 46.734375 
Q 21.96875 47.46875 24.109375 47.828125 
Q 26.265625 48.1875 28.421875 48.1875 
Q 40.625 48.1875 47.75 41.5 
Q 54.890625 34.8125 54.890625 23.390625 
Q 54.890625 11.625 47.5625 5.09375 
Q 40.234375 -1.421875 26.90625 -1.421875 
Q 22.3125 -1.421875 17.546875 -0.640625 
Q 12.796875 0.140625 7.71875 1.703125 
L 7.71875 11.625 
Q 12.109375 9.234375 16.796875 8.0625 
Q 21.484375 6.890625 26.703125 6.890625 
Q 35.15625 6.890625 40.078125 11.328125 
Q 45.015625 15.765625 45.015625 23.390625 
Q 45.015625 31 40.078125 35.4375 
Q 35.15625 39.890625 26.703125 39.890625 
Q 22.75 39.890625 18.8125 39.015625 
Q 14.890625 38.140625 10.796875 36.28125 
z
" id="DejaVuSans-53"/>
      </defs>
      <g transform="translate(153.808437 278.406437)scale(0.1 -0.1)">
       <use xlink:href="#DejaVuSans-48"/>
       <use x="63.623047" xlink:href="#DejaVuSans-46"/>
       <use x="95.410156" xlink:href="#DejaVuSans-53"/>
      </g>
     </g>
    </g>
    <g id="xtick_3">
     <g id="line2d_3">
      <g>
       <use style="stroke:#000000;stroke-width:0.8;" x="236.16" xlink:href="#ma8c09de4eb" y="263.808"/>
      </g>
     </g>
     <g id="text_3">
      <!-- 1.0 -->
      <defs>
       <path d="M 12.40625 8.296875 
L 28.515625 8.296875 
L 28.515625 63.921875 
L 10.984375 60.40625 
L 10.984375 69.390625 
L 28.421875 72.90625 
L 38.28125 72.90625 
L 38.28125 8.296875 
L 54.390625 8.296875 
L 54.390625 0 
L 12.40625 0 
z
" id="DejaVuSans-49"/>
      </defs>
      <g transform="translate(228.208437 278.406437)scale(0.1 -0.1)">
       <use xlink:href="#DejaVuSans-49"/>
       <use x="63.623047" xlink:href="#DejaVuSans-46"/>
       <use x="95.410156" xlink:href="#DejaVuSans-48"/>
      </g>
     </g>
    </g>
    <g id="xtick_4">
     <g id="line2d_4">
      <g>
       <use style="stroke:#000000;stroke-width:0.8;" x="310.56" xlink:href="#ma8c09de4eb" y="263.808"/>
      </g>
     </g>
     <g id="text_4">
      <!-- 1.5 -->
      <g transform="translate(302.608437 278.406437)scale(0.1 -0.1)">
       <use xlink:href="#DejaVuSans-49"/>
       <use x="63.623047" xlink:href="#DejaVuSans-46"/>
       <use x="95.410156" xlink:href="#DejaVuSans-53"/>
      </g>
     </g>
    </g>
    <g id="xtick_5">
     <g id="line2d_5">
      <g>
       <use style="stroke:#000000;stroke-width:0.8;" x="384.96" xlink:href="#ma8c09de4eb" y="263.808"/>
      </g>
     </g>
     <g id="text_5">
      <!-- 2.0 -->
      <defs>
       <path d="M 19.1875 8.296875 
L 53.609375 8.296875 
L 53.609375 0 
L 7.328125 0 
L 7.328125 8.296875 
Q 12.9375 14.109375 22.625 23.890625 
Q 32.328125 33.6875 34.8125 36.53125 
Q 39.546875 41.84375 41.421875 45.53125 
Q 43.3125 49.21875 43.3125 52.78125 
Q 43.3125 58.59375 39.234375 62.25 
Q 35.15625 65.921875 28.609375 65.921875 
Q 23.96875 65.921875 18.8125 64.3125 
Q 13.671875 62.703125 7.8125 59.421875 
L 7.8125 69.390625 
Q 13.765625 71.78125 18.9375 73 
Q 24.125 74.21875 28.421875 74.21875 
Q 39.75 74.21875 46.484375 68.546875 
Q 53.21875 62.890625 53.21875 53.421875 
Q 53.21875 48.921875 51.53125 44.890625 
Q 49.859375 40.875 45.40625 35.40625 
Q 44.1875 33.984375 37.640625 27.21875 
Q 31.109375 20.453125 19.1875 8.296875 
z
" id="DejaVuSans-50"/>
      </defs>
      <g transform="translate(377.008437 278.406437)scale(0.1 -0.1)">
       <use xlink:href="#DejaVuSans-50"/>
       <use x="63.623047" xlink:href="#DejaVuSans-46"/>
       <use x="95.410156" xlink:href="#DejaVuSans-48"/>
      </g>
     </g>
    </g>
   </g>
   <g id="matplotlib.axis_2">
    <g id="ytick_1">
     <g id="line2d_6">
      <defs>
       <path d="M 0 0 
L -3.5 0 
" id="mb4b64c46a2" style="stroke:#000000;stroke-width:0.8;"/>
      </defs>
      <g>
       <use style="stroke:#000000;stroke-width:0.8;" x="57.6" xlink:href="#mb4b64c46a2" y="248.928"/>
      </g>
     </g>
     <g id="text_6">
      <!-- 0.0 -->
      <g transform="translate(34.696875 252.727219)scale(0.1 -0.1)">
       <use xlink:href="#DejaVuSans-48"/>
       <use x="63.623047" xlink:href="#DejaVuSans-46"/>
       <use x="95.410156" xlink:href="#DejaVuSans-48"/>
      </g>
     </g>
    </g>
    <g id="ytick_2">
     <g id="line2d_7">
      <g>
       <use style="stroke:#000000;stroke-width:0.8;" x="57.6" xlink:href="#mb4b64c46a2" y="219.168"/>
      </g>
     </g>
     <g id="text_7">
      <!-- 0.2 -->
      <g transform="translate(34.696875 222.967219)scale(0.1 -0.1)">
       <use xlink:href="#DejaVuSans-48"/>
       <use x="63.623047" xlink:href="#DejaVuSans-46"/>
       <use x="95.410156" xlink:href="#DejaVuSans-50"/>
      </g>
     </g>
    </g>
    <g id="ytick_3">
     <g id="line2d_8">
      <g>
       <use style="stroke:#000000;stroke-width:0.8;" x="57.6" xlink:href="#mb4b64c46a2" y="189.408"/>
      </g>
     </g>
     <g id="text_8">
      <!-- 0.4 -->
      <defs>
       <path d="M 37.796875 64.3125 
L 12.890625 25.390625 
L 37.796875 25.390625 
z
M 35.203125 72.90625 
L 47.609375 72.90625 
L 47.609375 25.390625 
L 58.015625 25.390625 
L 58.015625 17.1875 
L 47.609375 17.1875 
L 47.609375 0 
L 37.796875 0 
L 37.796875 17.1875 
L 4.890625 17.1875 
L 4.890625 26.703125 
z
" id="DejaVuSans-52"/>
      </defs>
      <g transform="translate(34.696875 193.207219)scale(0.1 -0.1)">
       <use xlink:href="#DejaVuSans-48"/>
       <use x="63.623047" xlink:href="#DejaVuSans-46"/>
       <use x="95.410156" xlink:href="#DejaVuSans-52"/>
      </g>
     </g>
    </g>
    <g id="ytick_4">
     <g id="line2d_9">
      <g>
       <use style="stroke:#000000;stroke-width:0.8;" x="57.6" xlink:href="#mb4b64c46a2" y="159.648"/>
      </g>
     </g>
     <g id="text_9">
      <!-- 0.6 -->
      <defs>
       <path d="M 33.015625 40.375 
Q 26.375 40.375 22.484375 35.828125 
Q 18.609375 31.296875 18.609375 23.390625 
Q 18.609375 15.53125 22.484375 10.953125 
Q 26.375 6.390625 33.015625 6.390625 
Q 39.65625 6.390625 43.53125 10.953125 
Q 47.40625 15.53125 47.40625 23.390625 
Q 47.40625 31.296875 43.53125 35.828125 
Q 39.65625 40.375 33.015625 40.375 
z
M 52.59375 71.296875 
L 52.59375 62.3125 
Q 48.875 64.0625 45.09375 64.984375 
Q 41.3125 65.921875 37.59375 65.921875 
Q 27.828125 65.921875 22.671875 59.328125 
Q 17.53125 52.734375 16.796875 39.40625 
Q 19.671875 43.65625 24.015625 45.921875 
Q 28.375 48.1875 33.59375 48.1875 
Q 44.578125 48.1875 50.953125 41.515625 
Q 57.328125 34.859375 57.328125 23.390625 
Q 57.328125 12.15625 50.6875 5.359375 
Q 44.046875 -1.421875 33.015625 -1.421875 
Q 20.359375 -1.421875 13.671875 8.265625 
Q 6.984375 17.96875 6.984375 36.375 
Q 6.984375 53.65625 15.1875 63.9375 
Q 23.390625 74.21875 37.203125 74.21875 
Q 40.921875 74.21875 44.703125 73.484375 
Q 48.484375 72.75 52.59375 71.296875 
z
" id="DejaVuSans-54"/>
      </defs>
      <g transform="translate(34.696875 163.447219)scale(0.1 -0.1)">
       <use xlink:href="#DejaVuSans-48"/>
       <use x="63.623047" xlink:href="#DejaVuSans-46"/>
       <use x="95.410156" xlink:href="#DejaVuSans-54"/>
      </g>
     </g>
    </g>
    <g id="ytick_5">
     <g id="line2d_10">
      <g>
       <use style="stroke:#000000;stroke-width:0.8;" x="57.6" xlink:href="#mb4b64c46a2" y="129.888"/>
      </g>
     </g>
     <g id="text_10">
      <!-- 0.8 -->
      <defs>
       <path d="M 31.78125 34.625 
Q 24.75 34.625 20.71875 30.859375 
Q 16.703125 27.09375 16.703125 20.515625 
Q 16.703125 13.921875 20.71875 10.15625 
Q 24.75 6.390625 31.78125 6.390625 
Q 38.8125 6.390625 42.859375 10.171875 
Q 46.921875 13.96875 46.921875 20.515625 
Q 46.921875 27.09375 42.890625 30.859375 
Q 38.875 34.625 31.78125 34.625 
z
M 21.921875 38.8125 
Q 15.578125 40.375 12.03125 44.71875 
Q 8.5 49.078125 8.5 55.328125 
Q 8.5 64.0625 14.71875 69.140625 
Q 20.953125 74.21875 31.78125 74.21875 
Q 42.671875 74.21875 48.875 69.140625 
Q 55.078125 64.0625 55.078125 55.328125 
Q 55.078125 49.078125 51.53125 44.71875 
Q 48 40.375 41.703125 38.8125 
Q 48.828125 37.15625 52.796875 32.3125 
Q 56.78125 27.484375 56.78125 20.515625 
Q 56.78125 9.90625 50.3125 4.234375 
Q 43.84375 -1.421875 31.78125 -1.421875 
Q 19.734375 -1.421875 13.25 4.234375 
Q 6.78125 9.90625 6.78125 20.515625 
Q 6.78125 27.484375 10.78125 32.3125 
Q 14.796875 37.15625 21.921875 38.8125 
z
M 18.3125 54.390625 
Q 18.3125 48.734375 21.84375 45.5625 
Q 25.390625 42.390625 31.78125 42.390625 
Q 38.140625 42.390625 41.71875 45.5625 
Q 45.3125 48.734375 45.3125 54.390625 
Q 45.3125 60.0625 41.71875 63.234375 
Q 38.140625 66.40625 31.78125 66.40625 
Q 25.390625 66.40625 21.84375 63.234375 
Q 18.3125 60.0625 18.3125 54.390625 
z
" id="DejaVuSans-56"/>
      </defs>
      <g transform="translate(34.696875 133.687219)scale(0.1 -0.1)">
       <use xlink:href="#DejaVuSans-48"/>
       <use x="63.623047" xlink:href="#DejaVuSans-46"/>
       <use x="95.410156" xlink:href="#DejaVuSans-56"/>
      </g>
     </g>
    </g>
    <g id="ytick_6">
     <g id="line2d_11">
      <g>
       <use style="stroke:#000000;stroke-width:0.8;" x="57.6" xlink:href="#mb4b64c46a2" y="100.128"/>
      </g>
     </g>
     <g id="text_11">
      <!-- 1.0 -->
      <g transform="translate(34.696875 103.927219)scale(0.1 -0.1)">
       <use xlink:href="#DejaVuSans-49"/>
       <use x="63.623047" xlink:href="#DejaVuSans-46"/>
       <use x="95.410156" xlink:href="#DejaVuSans-48"/>
      </g>
     </g>
    </g>
   </g>
   <g id="line2d_12">
    <path clip-path="url(#p62a029252d)" d="M 236.16 248.928 
L 236.16 100.128 
" style="fill:none;stroke:#cc0000;stroke-dasharray:7.4,3.2;stroke-dashoffset:0;stroke-width:2;"/>
   </g>
   <g id="line2d_13">
    <path clip-path="url(#p62a029252d)" d="M 87.36 248.928 
L 384.96 248.928 
" style="fill:none;stroke:#009900;stroke-linecap:square;stroke-width:2;"/>
   </g>
   <g id="line2d_14">
    <path clip-path="url(#p62a029252d)" d="M 384.96 248.928 
L 384.96 100.128 
" style="fill:none;stroke:#009900;stroke-linecap:square;stroke-width:2;"/>
   </g>
   <g id="line2d_15">
    <path clip-path="url(#p62a029252d)" d="M 384.96 100.128 
L 87.36 100.128 
" style="fill:none;stroke:#009900;stroke-linecap:square;stroke-width:2;"/>
   </g>
   <g id="line2d_16">
    <path clip-path="url(#p62a029252d)" d="M 87.36 100.128 
L 87.36 248.928 
" style="fill:none;stroke:#009900;stroke-linecap:square;stroke-width:2;"/>
   </g>
   <g id="line2d_17">
    <path clip-path="url(#p62a029252d)" d="M 165.377343 132.383425 
L 161.461669 127.90134 
L 157.369892 123.579427 
L 153.108557 119.424597 
L 148.684482 115.443499 
L 144.104745 111.642502 
L 139.376671 108.027685 
L 134.507825 104.604832 
L 129.505996 101.379419 
L 127.440053 100.128 
L 122.386528 103.271798 
L 117.462763 106.615169 
L 112.676637 110.152763 
L 108.035805 113.878921 
L 103.547691 117.787683 
L 99.219477 121.872795 
L 95.058085 126.127722 
L 91.070174 130.545656 
L 87.36 134.997202 
L 91.172865 139.567065 
L 95.165425 143.980798 
L 99.331294 148.231341 
L 103.663807 152.311893 
L 108.156034 156.215928 
L 112.800787 159.937198 
L 117.590635 163.469751 
L 122.517917 166.807936 
L 125.064315 168.423353 
L 129.192455 170.120344 
L 133.211408 172.061822 
L 137.106711 174.240798 
L 140.864343 176.649431 
L 144.470783 179.279053 
L 147.91305 182.1202 
L 151.178757 185.162646 
L 154.25615 188.395442 
L 157.134154 191.806954 
L 159.802411 195.384903 
L 162.251319 199.116414 
L 164.472063 202.988056 
L 166.456652 206.985896 
L 168.223791 211.162129 
L 168.449215 206.704495 
L 168.941531 202.268399 
L 169.698967 197.869807 
L 170.718797 193.52455 
L 171.997351 189.248264 
L 173.530028 185.056341 
L 175.311311 180.963866 
L 177.334789 176.985568 
L 179.593182 173.135766 
L 182.07836 169.428312 
L 184.78138 165.876552 
L 187.692513 162.493267 
L 190.801284 159.290633 
L 194.150679 156.233631 
L 189.872402 157.505507 
L 185.525558 158.518553 
L 181.125789 159.269121 
L 176.68893 159.754511 
L 172.230949 159.972975 
L 167.767891 159.923728 
L 163.315816 159.606947 
L 158.890748 159.023771 
L 154.508613 158.176301 
L 150.18518 157.067584 
L 145.936011 155.701613 
L 141.776397 154.083302 
L 137.721308 152.218476 
L 133.72341 150.078264 
L 136.347398 153.688804 
L 138.750162 157.450193 
L 140.923055 161.348892 
L 142.858256 165.370871 
L 144.548801 169.501655 
L 145.988605 173.726378 
L 147.172487 178.029835 
L 148.096186 182.396538 
L 148.756378 186.810773 
L 149.150687 191.256652 
L 149.277693 195.718175 
L 149.136941 200.179285 
L 148.728935 204.623928 
L 148.042216 209.106352 
L 150.572867 205.429787 
L 153.319426 201.911587 
L 156.272007 198.564412 
L 159.419986 195.400309 
L 162.752032 192.430665 
L 166.256154 189.666167 
L 169.919741 187.116765 
L 173.729608 184.791635 
L 177.672043 182.699143 
L 181.732858 180.84682 
L 185.897439 179.241334 
L 190.150797 177.888461 
L 194.477625 176.793072 
L 198.932892 175.947906 
L 194.623442 174.786026 
L 190.391419 173.367825 
L 186.252051 171.698407 
L 182.220237 169.78378 
L 178.310488 167.630835 
L 174.536872 165.247319 
L 170.912973 162.641811 
L 167.451831 159.823689 
L 164.165903 156.803093 
L 161.067015 153.590896 
L 158.16632 150.198657 
L 155.474256 146.638585 
L 153.000514 142.923492 
L 150.719942 139.003964 
L 146.83301 134.496932 
L 142.768954 130.14894 
L 138.534275 125.966946 
L 134.135749 121.957638 
L 129.580412 118.127432 
L 124.87555 114.482454 
L 120.028692 111.028536 
L 115.047592 107.771204 
L 109.940216 104.715668 
L 104.714738 101.866816 
L 101.258652 100.128 
L 95.960875 102.840036 
L 90.775788 105.761757 
L 87.36 107.839923 
L 92.464715 110.899901 
L 97.687713 113.753298 
L 103.020639 116.395548 
L 108.45496 118.822424 
L 113.981984 121.030044 
L 119.592868 123.014876 
L 125.278637 124.773745 
L 131.030193 126.303837 
L 136.838336 127.602704 
L 142.693774 128.668269 
L 148.587139 129.498826 
L 154.509004 130.093047 
L 160.449894 130.449981 
L 166.400306 130.569058 
L 172.35072 130.450086 
L 178.291617 130.093256 
L 184.213492 129.49914 
L 190.106872 128.668686 
L 195.962329 127.603225 
L 201.770495 126.30446 
L 207.522078 124.774469 
L 213.207877 123.0157 
L 218.818796 121.030967 
L 224.345859 118.823444 
L 229.780223 116.396663 
L 235.113196 113.754507 
L 236.16 113.204243 
L 230.848195 110.519786 
L 225.43329 108.049891 
L 219.923946 105.798511 
L 214.328978 103.769246 
L 208.657336 101.965344 
L 202.918095 100.38969 
L 201.868322 100.128 
L 196.117776 101.661884 
L 190.433169 103.424501 
L 184.823594 105.413032 
L 179.298027 107.624296 
L 173.865307 110.054754 
L 168.534124 112.700519 
L 163.313008 115.557359 
L 158.210312 118.620702 
L 153.234198 121.885648 
L 148.392628 125.346975 
L 143.693347 128.999143 
L 139.143872 132.836312 
L 134.751483 136.852341 
L 130.523205 141.040807 
L 126.465803 145.395009 
L 122.585768 149.90798 
L 118.889308 154.572502 
L 115.382335 159.381111 
L 112.070461 164.326116 
L 108.958984 169.399604 
L 106.05288 174.593461 
L 103.3568 179.899376 
L 100.875057 185.308861 
L 98.611621 190.813263 
L 96.570112 196.403775 
L 94.753797 202.071453 
L 93.165582 207.807232 
L 91.808007 213.601934 
L 90.683245 219.446289 
L 89.793094 225.330948 
L 89.138978 231.246496 
L 88.721945 237.183471 
L 88.542661 243.132373 
L 88.596842 248.928 
L 88.649365 242.976629 
L 88.463854 237.027917 
L 88.040606 231.091383 
L 87.36 225.023275 
L 88.026452 219.109104 
L 88.455866 213.173012 
L 88.647557 207.224497 
L 88.601217 201.273074 
L 88.316921 195.328265 
L 87.795124 189.39958 
L 87.36 185.790971 
L 88.026452 179.876799 
L 88.455866 173.940708 
L 88.647557 167.992192 
L 88.601217 162.04077 
L 88.316921 156.09596 
L 87.795124 150.167275 
L 87.36 146.558666 
L 88.026452 140.644495 
L 88.455866 134.708403 
L 88.647557 128.759888 
L 88.601217 122.808465 
L 88.316921 116.863656 
L 87.795124 110.934971 
L 87.36 107.326362 
L 88.026452 101.41219 
L 88.1396 100.128 
L 88.754788 106.047723 
L 89.60621 111.938111 
L 90.692504 117.789738 
L 92.011931 123.593245 
L 93.562381 129.339347 
L 95.341374 135.018851 
L 97.346063 140.622671 
L 99.573242 146.141843 
L 102.019347 151.567536 
L 104.680466 156.891072 
L 107.552341 162.103932 
L 110.630377 167.197779 
L 113.909651 172.164462 
L 117.384916 176.996037 
L 121.050612 181.684773 
L 124.900876 186.223171 
L 127.552353 189.145691 
L 128.013745 195.079382 
L 128.712053 200.989877 
L 129.646159 206.867719 
L 130.814568 212.703505 
L 132.215413 218.487899 
L 133.84645 224.211648 
L 135.705072 229.865594 
L 137.788305 235.440692 
L 140.092816 240.928024 
L 142.614919 246.31881 
L 143.93185 248.928 
L 146.559345 243.58779 
L 148.971188 238.146779 
L 151.163519 232.613672 
L 153.13283 226.997322 
L 154.875973 221.306713 
L 156.390157 215.550948 
L 157.318109 211.461855 
L 158.180228 207.082577 
L 159.303394 202.762876 
L 160.683566 198.518298 
L 162.315776 194.364118 
L 164.19415 190.315288 
L 166.311928 186.386378 
L 168.661488 182.591528 
L 171.234375 178.944396 
L 174.021329 175.458107 
L 177.01232 172.145209 
L 180.196583 169.017625 
L 183.562658 166.086609 
L 187.098432 163.362711 
L 190.79118 160.855733 
L 194.627611 158.574699 
L 196.482285 157.480091 
L 201.486021 154.257638 
L 206.35689 150.837666 
L 211.087102 147.225646 
L 215.669087 143.427358 
L 220.095516 139.448878 
L 224.359308 135.29657 
L 228.453641 130.977077 
L 232.371965 126.49731 
L 236.16 121.797222 
L 232.426599 117.162214 
L 228.510833 112.68021 
L 224.418968 108.35838 
L 220.157548 104.203638 
L 215.623792 100.128 
L 211.195764 104.1047 
L 206.930303 108.255294 
L 202.834234 112.57314 
L 198.914108 117.051331 
L 195.176199 121.682704 
L 191.626485 126.459848 
L 188.270644 131.375122 
L 185.114047 136.420663 
L 182.161743 141.588397 
L 180.671659 144.233936 
L 178.2524 147.984737 
L 175.612582 151.58372 
L 172.761705 155.017932 
L 169.710028 158.275015 
L 166.468535 161.343246 
L 163.048892 164.211583 
L 159.463405 166.869703 
L 155.724979 169.30804 
L 151.847067 171.517818 
L 147.843626 173.491085 
L 143.729064 175.220738 
L 139.51819 176.700553 
L 135.226157 177.925205 
L 130.868412 178.890285 
L 126.460639 179.592321 
L 124.93161 179.772966 
L 126.399209 179.527565 
L 130.827336 178.968093 
L 135.281043 178.675155 
L 139.744302 178.649806 
L 144.201049 178.892138 
L 148.635245 179.401278 
L 153.030932 180.175394 
L 157.37229 181.2117 
L 161.643694 182.506467 
L 165.829773 184.055034 
L 169.915461 185.851829 
L 173.886054 187.890385 
L 177.727263 190.163365 
L 181.425262 192.662589 
L 184.966743 195.379063 
L 188.338961 198.30301 
L 189.460604 199.357751 
L 188.328876 198.391696 
L 185.052742 195.360481 
L 181.964267 192.13827 
L 179.074566 188.736661 
L 176.39404 185.167894 
L 173.932334 181.444814 
L 171.698309 177.58082 
L 169.700004 173.589818 
L 167.944612 169.486171 
L 166.43845 165.284649 
L 165.186938 161.000371 
L 164.19458 156.648757 
L 163.464949 152.245467 
L 163.000669 147.80635 
L 162.803412 143.347381 
L 162.873888 138.884607 
L 162.960276 137.347369 
L 162.948288 138.835296 
L 162.733877 143.293473 
L 162.252522 147.730771 
L 161.505954 152.131221 
L 160.496862 156.478985 
L 159.228876 160.758416 
L 157.70656 164.954113 
L 155.935392 169.050975 
L 153.921747 173.03426 
L 151.672873 176.88963 
L 149.196861 180.603211 
L 146.502624 184.161638 
L 143.599857 187.552105 
L 140.499008 190.762409 
L 137.211235 193.780997 
L 133.748373 196.597005 
L 130.072694 199.218966 
L 125.291238 202.762871 
L 120.655326 206.495148 
L 116.172373 210.409828 
L 111.849551 214.500646 
L 107.693776 218.761059 
L 103.711697 223.18425 
L 99.909683 227.763144 
L 96.293817 232.490416 
L 92.869884 237.358502 
L 89.643362 242.359615 
L 87.36 246.186245 
L 88.980169 248.928 
L 91.960206 243.776208 
L 94.731842 238.509367 
L 97.290644 233.135903 
L 99.632517 227.664413 
L 101.753717 222.103649 
L 103.650848 216.462507 
L 105.320876 210.750014 
L 106.76113 204.975306 
L 107.969304 199.147622 
L 108.943468 193.276286 
L 109.682061 187.370691 
L 110.183902 181.440283 
L 110.448189 175.494551 
L 110.474499 169.543005 
L 110.26279 163.595169 
L 109.813399 157.660556 
L 109.127047 151.748661 
L 108.204832 145.868942 
L 107.048227 140.030805 
L 105.659085 134.243589 
L 104.039627 128.516553 
L 102.192444 122.85886 
L 100.120492 117.279559 
L 97.827084 111.787578 
L 95.31589 106.391701 
L 92.590927 101.100562 
L 92.060495 100.128 
L 89.296216 105.398706 
L 87.36 109.42749 
L 89.96472 114.778847 
L 92.781353 120.021762 
L 95.805394 125.147848 
L 99.032005 130.148904 
L 102.456024 135.01693 
L 106.071973 139.744137 
L 109.874067 144.322964 
L 113.856225 148.746086 
L 118.012075 153.006425 
L 122.334969 157.097167 
L 127.032792 161.191546 
L 130.811288 163.567316 
L 134.440524 166.165385 
L 137.907439 168.976402 
L 141.199556 171.990252 
L 144.305026 175.196086 
L 147.212673 178.582368 
L 149.912033 182.136911 
L 152.393391 185.846922 
L 154.647817 189.699049 
L 156.667197 193.679429 
L 158.444263 197.773736 
L 159.972621 201.967236 
L 161.24677 206.244836 
L 162.262123 210.591142 
L 162.481483 211.721003 
L 164.626229 217.272728 
L 166.991268 222.734245 
L 169.572818 228.096817 
L 172.366749 233.351865 
L 175.368591 238.490982 
L 178.573542 243.505947 
L 181.976474 248.388737 
L 182.370404 248.928 
L 185.795216 244.060532 
L 189.022642 239.060002 
L 192.047518 233.934409 
L 194.865006 228.691953 
L 197.470598 223.341021 
L 199.860125 217.890173 
L 202.029765 212.34813 
L 203.976047 206.723757 
L 205.695857 201.026053 
L 207.186444 195.264132 
L 208.445424 189.447213 
L 209.470781 183.584601 
L 210.260877 177.685674 
L 210.814446 171.759871 
L 211.130604 165.816671 
L 211.208844 159.865583 
L 211.049042 153.916125 
L 210.651452 147.977817 
L 210.016712 142.060158 
L 209.145836 136.172616 
L 208.040217 130.324608 
L 206.701626 124.525492 
L 205.132202 118.784543 
L 203.334457 113.110947 
L 201.311266 107.51378 
L 199.065867 102.001996 
L 198.243044 100.128 
L 195.922047 105.608379 
L 193.822063 111.177189 
L 191.946451 116.825522 
L 190.298214 122.544341 
L 188.879986 128.324498 
L 187.694037 134.156745 
L 186.742265 140.031752 
L 185.990163 146.301431 
L 191.725758 144.712553 
L 197.393226 142.895583 
L 202.983502 140.853428 
L 208.487642 138.589355 
L 213.89684 136.106986 
L 219.202444 133.410293 
L 224.395964 130.503589 
L 229.469093 127.391524 
L 234.413714 124.079078 
L 236.16 122.839125 
L 231.263567 119.455854 
L 226.235755 116.271095 
L 221.084609 113.289942 
L 215.818368 110.517164 
L 210.445459 107.957198 
L 204.974476 105.614139 
L 199.414172 103.491735 
L 193.773442 101.593382 
L 188.813242 100.128 
L 183.109945 101.829171 
L 177.479239 103.757052 
L 171.930131 105.908559 
L 166.471499 108.28025 
L 161.112076 110.868331 
L 155.860435 113.668662 
L 150.724979 116.676762 
L 145.713922 119.88782 
L 140.835282 123.296698 
L 136.096863 126.897942 
L 131.506245 130.685793 
L 127.070773 134.654189 
L 122.797542 138.796783 
L 118.69339 143.106946 
L 114.76488 147.577785 
L 111.018299 152.202145 
L 107.45964 156.97263 
L 104.094596 161.881607 
L 100.92855 166.921224 
L 97.966568 172.083417 
L 95.213387 177.359929 
L 92.673414 182.742319 
L 90.35071 188.221974 
L 88.248991 193.79013 
L 87.36 196.370814 
L 89.35923 201.976585 
L 91.581031 207.497923 
L 94.02185 212.925997 
L 96.677781 218.252122 
L 99.544577 223.467778 
L 102.61765 228.56462 
L 105.892084 233.534496 
L 109.36264 238.369454 
L 113.023768 243.061759 
L 116.869609 247.603904 
L 118.051086 248.928 
L 121.950822 244.432042 
L 125.667648 239.783732 
L 129.195618 234.990507 
L 132.529088 230.060035 
L 135.662726 225.000203 
L 138.591518 219.819107 
L 141.310778 214.525034 
L 143.816157 209.126455 
L 145.173126 206.155091 
L 147.2822 202.221502 
L 149.623352 198.421459 
L 152.188157 194.768639 
L 154.967385 191.276188 
L 157.951033 187.956676 
L 161.128363 184.822048 
L 164.487941 181.883587 
L 168.017675 179.151866 
L 171.704863 176.636719 
L 175.536233 174.347196 
L 179.497999 172.291537 
L 183.575901 170.47714 
L 187.755263 168.910536 
L 192.021045 167.597362 
L 196.357893 166.542345 
L 198.018234 166.210521 
L 196.578418 166.58602 
L 192.217958 167.538756 
L 187.808214 168.228308 
L 183.365058 168.652192 
L 178.904479 168.808885 
L 174.44253 168.697821 
L 169.995271 168.319401 
L 165.578706 167.674986 
L 161.20873 166.766896 
L 156.90107 165.598398 
L 152.671229 164.173699 
L 148.534431 162.497925 
L 144.505563 160.577108 
L 140.599124 158.41816 
L 136.829174 156.028852 
L 133.20928 153.417781 
L 131.878216 152.371308 
L 133.09919 153.221774 
L 136.656678 155.917251 
L 140.046133 158.821199 
L 143.255357 161.923167 
L 146.272799 165.211991 
L 149.0876 168.675834 
L 151.68963 172.302232 
L 154.069525 176.078132 
L 156.218719 179.989945 
L 158.129477 184.023593 
L 159.794924 188.16456 
L 161.209065 192.397942 
L 162.36681 196.708504 
L 163.263994 201.080733 
L 163.897387 205.498892 
L 164.264709 209.947082 
L 164.33413 211.638832 
L 164.187251 210.158124 
L 163.924638 205.702526 
L 163.929673 201.239198 
L 164.202337 196.784204 
L 164.741651 192.353577 
L 165.545672 187.963262 
L 166.611507 183.629059 
L 167.935321 179.366567 
L 169.512348 175.191126 
L 171.336914 171.117764 
L 173.402452 167.161141 
L 175.701528 163.335494 
L 178.225867 159.654594 
L 180.966386 156.131687 
L 183.913221 152.779452 
L 187.055767 149.609953 
L 188.296616 148.457941 
L 187.266517 149.531703 
L 184.050304 152.626423 
L 180.654306 155.522716 
L 177.090745 158.210161 
L 173.372448 160.679083 
L 169.512794 162.9206 
L 165.525676 164.926642 
L 161.425442 166.689991 
L 157.226849 168.2043 
L 152.945007 169.46412 
L 148.595326 170.464917 
L 144.19346 171.203088 
L 139.755251 171.675978 
L 135.296673 171.881884 
L 130.833771 171.820065 
L 126.382606 171.490744 
L 123.231965 171.057202 
L 117.335502 170.248929 
L 111.411433 169.677098 
L 105.469236 169.342624 
L 99.518417 169.246042 
L 93.568495 169.387507 
L 87.36 169.789624 
L 93.298807 170.179684 
L 99.248463 170.331942 
L 105.199448 170.246157 
L 111.142242 169.922464 
L 117.067338 169.361382 
L 122.965258 168.563807 
L 125.099463 168.215709 
L 129.560679 168.353077 
L 134.00563 168.757709 
L 138.418319 169.428151 
L 142.782866 170.361988 
L 147.083562 171.555861 
L 151.304929 173.005473 
L 155.431776 174.705606 
L 159.44925 176.650142 
L 163.342893 178.832083 
L 167.098691 181.243576 
L 170.703128 183.875942 
L 174.143232 186.719708 
L 177.406622 189.764639 
L 180.481553 192.999777 
L 183.35696 196.413478 
L 186.022492 199.993458 
L 187.175338 201.692325 
L 183.701748 198.889561 
L 180.402473 195.883549 
L 177.289388 192.68511 
L 174.373696 189.305752 
L 171.66589 185.757639 
L 169.175716 182.05354 
L 166.912135 178.206785 
L 164.883295 174.231219 
L 163.096496 170.141149 
L 161.55817 165.951296 
L 160.273852 161.676738 
L 159.248164 157.332859 
L 158.484799 152.935293 
L 157.986503 148.499865 
L 157.75507 144.042539 
L 157.791332 139.579356 
L 157.897887 137.529026 
L 158.975023 141.860434 
L 159.790492 146.248638 
L 160.341359 150.677843 
L 160.625642 155.132111 
L 160.642318 159.59541 
L 160.391326 164.051678 
L 159.873571 168.484876 
L 159.090915 172.879051 
L 158.046175 177.218387 
L 156.74311 181.487267 
L 155.186412 185.670329 
L 153.381681 189.752518 
L 151.335414 193.719143 
L 149.054974 197.555927 
L 146.548569 201.249063 
L 143.825219 204.785259 
L 142.502481 206.355472 
L 144.258667 202.252165 
L 146.257744 198.26155 
L 148.492517 194.397988 
L 150.954944 190.675385 
L 153.636161 187.107137 
L 156.526521 183.706087 
L 159.615619 180.484475 
L 162.89234 177.453894 
L 166.344891 174.625252 
L 169.960845 172.008729 
L 173.72719 169.613741 
L 177.63037 167.448908 
L 181.656339 165.522021 
L 185.790607 163.840015 
L 190.018295 162.408942 
L 194.324189 161.233954 
L 196.326631 160.780709 
L 192.449402 162.991684 
L 188.44657 164.966185 
L 184.332542 166.697108 
L 180.122124 168.178222 
L 175.830469 169.404198 
L 171.473022 170.370623 
L 167.065466 171.074019 
L 162.623663 171.511854 
L 158.163597 171.682553 
L 153.701322 171.585502 
L 149.252896 171.221049 
L 144.834329 170.590506 
L 140.461523 169.696144 
L 136.150215 168.54118 
L 131.915922 167.12977 
L 127.773881 165.466996 
L 125.903892 164.619444 
L 130.329626 165.197535 
L 134.712733 166.039971 
L 139.037436 167.14372 
L 143.288172 168.504809 
L 147.449642 170.11834 
L 151.50687 171.978506 
L 155.445255 174.078612 
L 159.250621 176.411101 
L 162.909275 178.967577 
L 166.408049 181.738841 
L 169.73435 184.714918 
L 172.876209 187.885099 
L 175.822317 191.237973 
L 178.562072 194.761474 
L 181.085613 198.442922 
L 183.38386 202.269066 
L 184.362961 204.073662 
L 181.183724 200.940969 
L 178.198056 197.623273 
L 175.416703 194.132514 
L 172.849675 190.481256 
L 170.50621 186.682639 
L 168.394743 182.750334 
L 166.522872 178.698493 
L 164.897334 174.541698 
L 163.523979 170.294909 
L 162.407749 165.97341 
L 161.552663 161.592754 
L 160.961797 157.168707 
L 160.637278 152.71719 
L 160.580274 148.254223 
L 160.79099 143.79587 
L 161.268667 139.358174 
L 161.577561 137.328447 
L 162.220857 141.745176 
L 162.59815 146.192531 
L 162.708084 150.654507 
L 162.550261 155.115047 
L 162.125251 159.558096 
L 161.434582 163.967664 
L 160.480741 168.327883 
L 159.26716 172.623059 
L 157.798207 176.837735 
L 156.079169 180.956743 
L 154.116231 184.965258 
L 151.916459 188.848855 
L 149.48777 192.593556 
L 146.838903 196.185885 
L 143.979393 199.612912 
L 140.91953 202.862306 
L 139.447923 204.293941 
L 141.601479 200.384527 
L 143.985583 196.611284 
L 146.591656 192.987791 
L 149.410319 189.527089 
L 152.431428 186.241632 
L 155.644109 183.143246 
L 159.0368 180.24308 
L 162.597293 177.551573 
L 166.312772 175.07841 
L 170.169865 172.832492 
L 174.154693 170.821902 
L 178.252912 169.053877 
L 182.449775 167.534779 
L 186.730178 166.270075 
L 191.078714 165.264317 
L 195.479735 164.521125 
L 197.517196 164.268228 
L 193.440234 166.084736 
L 189.261684 167.653504 
L 184.996583 168.968887 
L 180.660281 170.02615 
L 176.268384 170.821489 
L 171.836699 171.35204 
L 167.381175 171.615896 
L 162.917846 171.612105 
L 158.462776 171.340682 
L 154.031998 170.802604 
L 149.641459 169.999807 
L 145.306959 168.93518 
L 141.044099 167.612555 
L 136.868219 166.036692 
L 132.794348 164.213262 
L 128.837148 162.148827 
L 127.060192 161.120415 
L 131.407014 162.133558 
L 135.685262 163.40553 
L 139.879539 164.931754 
L 143.97475 166.706738 
L 147.956156 168.724093 
L 151.80943 170.976558 
L 155.520702 173.456029 
L 159.076618 176.15358 
L 162.464379 179.059504 
L 165.671793 182.163343 
L 168.687316 185.453926 
L 171.500097 188.91941 
L 174.100012 192.547325 
L 176.477704 196.324612 
L 178.624616 200.237678 
L 180.533022 204.27244 
L 181.328771 206.165054 
L 182.711568 211.95379 
L 184.324746 217.682597 
L 186.165725 223.342312 
L 188.23156 228.923881 
L 190.518946 234.418373 
L 193.024223 239.817 
L 195.743384 245.111123 
L 197.874242 248.928 
L 200.747742 243.716035 
L 203.41052 238.393329 
L 205.858316 232.968399 
L 208.087215 227.449922 
L 210.093651 221.846727 
L 211.874415 216.167777 
L 213.426656 210.422159 
L 214.747892 204.619064 
L 215.83601 198.767775 
L 216.689268 192.877654 
L 217.306301 186.958122 
L 217.686123 181.018651 
L 217.828126 175.068742 
L 217.732081 169.117914 
L 217.398145 163.175687 
L 216.826849 157.251566 
L 216.019109 151.35503 
L 214.976216 145.495512 
L 213.69984 139.682385 
L 212.192021 133.92495 
L 210.455173 128.232416 
L 208.492073 122.613891 
L 206.305862 117.078364 
L 203.900038 111.63469 
L 201.278449 106.291577 
L 198.44529 101.057574 
L 197.913376 100.128 
L 195.042619 105.341476 
L 192.382641 110.665581 
L 189.937698 116.091799 
L 187.711702 121.611447 
L 185.708213 127.215697 
L 183.930438 132.895582 
L 182.381219 138.642016 
L 181.384754 142.925642 
L 179.586228 147.010568 
L 177.545989 150.980297 
L 175.271382 154.820541 
L 172.770591 158.517481 
L 170.052616 162.057811 
L 167.12724 165.428789 
L 164.004991 168.618284 
L 160.697106 171.614817 
L 157.215488 174.407604 
L 153.572669 176.986594 
L 149.781759 179.342505 
L 145.8564 181.466858 
L 141.81072 183.352008 
L 137.659279 184.991171 
L 133.417017 186.378448 
L 129.099203 187.508845 
L 127.064568 187.946905 
L 121.119568 188.227187 
L 115.190532 188.74498 
L 109.286945 189.499458 
L 103.418251 190.489413 
L 97.593839 191.713262 
L 91.823026 193.169045 
L 87.36 194.465601 
L 93.082534 196.100895 
L 98.865885 197.506041 
L 104.7008 198.678791 
L 110.577946 199.617268 
L 116.487919 200.319971 
L 122.421266 200.785776 
L 128.368495 201.013939 
L 134.32009 201.004092 
L 135.595004 200.971014 
L 139.739189 199.313592 
L 143.975302 197.907654 
L 148.288099 196.75826 
L 152.662057 195.869547 
L 157.081435 195.244713 
L 161.530328 194.886008 
L 165.992725 194.794721 
L 170.452565 194.971182 
L 174.8938 195.414755 
L 179.300444 196.123844 
L 183.656638 197.095897 
L 187.946706 198.327416 
L 189.817857 198.953328 
L 187.899513 194.923282 
L 186.226279 190.785455 
L 184.804176 186.554741 
L 183.638323 182.246365 
L 182.732916 177.875832 
L 182.091212 173.458872 
L 181.715522 169.011382 
L 181.607197 164.549366 
L 181.766627 160.088884 
L 182.193239 155.645988 
L 182.885497 151.236669 
L 183.84091 146.876794 
L 184.346215 144.969535 
L 180.446715 147.14099 
L 176.424023 149.074708 
L 172.292616 150.763729 
L 168.067362 152.201975 
L 163.763469 153.384271 
L 159.396426 154.30636 
L 154.981948 154.964924 
L 150.535924 155.357594 
L 146.074355 155.482955 
L 141.613296 155.340557 
L 137.168804 154.930913 
L 132.756874 154.255496 
L 130.821271 153.872855 
L 133.236996 157.625932 
L 135.423324 161.517113 
L 137.372388 165.532392 
L 139.077172 169.65732 
L 140.531542 173.877051 
L 141.730262 178.176398 
L 142.669019 182.539889 
L 143.344434 186.95182 
L 143.754077 191.396312 
L 143.896474 195.857371 
L 143.771111 200.31894 
L 143.37844 204.764964 
L 143.12002 206.72103 
L 146.711395 204.07087 
L 150.455221 201.640832 
L 154.338025 199.439661 
L 158.345833 197.47528 
L 162.464221 195.754758 
L 166.678368 194.284287 
L 170.973107 193.069159 
L 175.332982 192.113748 
L 179.742301 191.421491 
L 184.185197 190.994881 
L 188.645679 190.835452 
L 193.107695 190.943778 
L 195.076259 191.076923 
L 200.726788 189.207936 
L 206.298056 187.114483 
L 211.781153 184.799914 
L 217.167305 182.26793 
L 222.447897 179.522583 
L 227.614481 176.568264 
L 232.65879 173.409701 
L 236.16 171.046998 
L 231.207373 167.746534 
L 226.126724 164.646762 
L 220.926181 161.752641 
L 215.614064 159.068801 
L 210.198872 156.599536 
L 204.689266 154.348796 
L 199.094063 152.320182 
L 193.422211 150.51694 
L 189.107594 149.309969 
L 187.944264 143.473168 
L 186.548454 137.687557 
L 184.922398 131.962391 
L 183.068697 126.30683 
L 180.990317 120.729921 
L 178.690582 115.240586 
L 176.173172 109.847606 
L 173.442114 104.55961 
L 170.940913 100.128 
L 168.030637 105.31952 
L 165.330295 110.623266 
L 162.844205 116.030756 
L 160.576347 121.533337 
L 158.530347 127.122207 
L 156.709478 132.788424 
L 155.278553 137.896991 
L 151.793733 133.072303 
L 148.118764 128.390831 
L 144.259525 123.860063 
L 140.222191 119.487247 
L 136.013221 115.27938 
L 131.639347 111.243192 
L 127.107568 107.385141 
L 122.425133 103.711399 
L 117.455046 100.128 
L 112.625338 103.605858 
L 107.93857 107.274071 
L 103.40224 111.12677 
L 99.023606 115.157793 
L 94.809672 119.360689 
L 90.767179 123.728737 
L 87.36 127.699756 
L 91.246419 132.207231 
L 95.309981 136.555685 
L 99.544183 140.738161 
L 103.942254 144.747969 
L 108.497155 148.578693 
L 113.201602 152.224206 
L 118.048067 155.678675 
L 123.028797 158.936574 
L 126.981452 161.326008 
L 130.949628 163.369265 
L 134.788141 165.646793 
L 138.483177 168.150396 
L 142.021439 170.871062 
L 145.390191 173.799001 
L 148.57731 176.923675 
L 151.571327 180.233839 
L 154.361465 183.717579 
L 156.937683 187.362359 
L 159.29071 191.15506 
L 161.412077 195.082033 
L 163.29415 199.129146 
L 164.930155 203.281833 
L 166.314204 207.525148 
L 167.317044 211.310595 
L 167.150878 206.850358 
L 167.252464 202.388184 
L 167.621436 197.940131 
L 168.256469 193.522207 
L 169.155274 189.150312 
L 170.314619 184.84018 
L 171.730331 180.607323 
L 173.397314 176.466974 
L 175.309569 172.434035 
L 177.460214 168.523019 
L 179.84151 164.748003 
L 182.444885 161.122571 
L 185.260972 157.659772 
L 188.279634 154.372068 
L 191.086317 151.641167 
L 187.281174 153.974021 
L 183.342991 156.074504 
L 179.285941 157.935059 
L 175.124625 159.548988 
L 170.87402 160.910484 
L 166.549422 162.014647 
L 162.166397 162.857503 
L 157.740717 163.436018 
L 153.288311 163.748111 
L 148.825203 163.792659 
L 144.367455 163.5695 
L 139.93111 163.079438 
L 135.532134 162.324237 
L 131.186359 161.306615 
L 127.429773 160.200561 
L 131.329313 162.371945 
L 135.09163 164.773254 
L 138.703186 167.395845 
L 142.150982 170.23028 
L 145.422609 173.266359 
L 148.506294 176.493154 
L 151.390938 179.899053 
L 154.06616 183.471798 
L 156.522332 187.19853 
L 158.750614 191.065839 
L 160.742988 195.059805 
L 162.492282 199.166055 
L 163.992201 203.369811 
L 165.237347 207.655943 
L 166.116394 211.472036 
L 166.095548 207.008755 
L 166.342376 202.552254 
L 166.85599 198.118574 
L 167.63454 193.723671 
L 168.675226 189.383361 
L 169.974301 185.113264 
L 171.527091 180.92875 
L 173.328006 176.844876 
L 175.370567 172.876342 
L 177.647421 169.037429 
L 180.150375 165.341953 
L 182.87042 161.803214 
L 185.797768 158.433948 
L 188.921882 155.24628 
L 191.816 152.608218 
L 187.936913 154.815932 
L 183.932423 156.787068 
L 179.816942 158.514532 
L 175.60528 159.992106 
L 171.312596 161.214473 
L 166.954338 162.177234 
L 162.546192 162.876925 
L 158.104022 163.311026 
L 153.643815 163.477975 
L 149.181623 163.377172 
L 144.733505 163.00898 
L 140.31547 162.374723 
L 135.943417 161.476685 
L 131.633082 160.318097 
L 127.914503 159.090308 
L 131.741271 161.387516 
L 135.423403 163.910059 
L 138.947647 166.648858 
L 142.301321 169.594056 
L 145.472353 172.735055 
L 148.449333 176.060549 
L 151.221546 179.55857 
L 153.779015 183.21653 
L 156.112535 187.021264 
L 158.21371 190.959079 
L 160.074977 195.015802 
L 161.689637 199.176835 
L 163.051879 203.427201 
L 164.156801 207.751605 
L 164.911124 211.594298 
L 165.035621 207.132704 
L 165.427429 202.686604 
L 166.085139 198.271999 
L 167.006382 193.904777 
L 168.187843 189.600655 
L 169.625271 185.375123 
L 171.313492 181.243388 
L 173.246431 177.220322 
L 175.41713 173.320401 
L 177.817779 169.557662 
L 180.439736 165.945646 
L 183.273566 162.497353 
L 186.309071 159.225193 
L 189.535324 156.140942 
L 192.513808 153.598516 
L 188.564891 155.67875 
L 184.49834 157.518447 
L 180.328792 159.110988 
L 176.071252 160.45064 
L 171.741041 161.532582 
L 167.353746 162.35292 
L 162.925154 162.908703 
L 158.471204 163.197929 
L 154.007926 163.219558 
L 149.551383 162.973512 
L 145.117613 162.460677 
L 140.722573 161.682898 
L 136.38208 160.642974 
L 132.111756 159.344648 
L 128.435128 157.996428 
L 132.185065 160.417024 
L 135.783107 163.058125 
L 139.216302 165.910227 
L 142.472297 168.963065 
L 145.539372 172.205652 
L 148.406489 175.626318 
L 151.06333 179.212753 
L 153.500334 182.952049 
L 155.708728 186.830748 
L 157.680567 190.834893 
L 159.408753 194.950071 
L 160.887066 199.161473 
L 162.110187 203.453942 
L 163.073713 207.812031 
L 163.702512 211.677248 
L 163.97222 207.222074 
L 164.508593 202.79109 
L 165.3097 198.400242 
L 166.372659 194.065333 
L 167.693644 189.801963 
L 169.2679 185.625477 
L 171.089762 181.550905 
L 173.152673 177.592912 
L 175.44921 173.76574 
L 177.971106 170.083166 
L 180.709287 166.558441 
L 183.653896 163.20425 
L 186.794338 160.032667 
L 190.11931 157.055103 
L 193.178999 154.61101 
L 189.16444 156.561557 
L 185.040143 158.267866 
L 180.820949 159.723794 
L 176.522045 160.924103 
L 172.158901 161.864472 
L 167.747221 162.541518 
L 163.30288 162.952803 
L 158.841875 163.096848 
L 154.380259 162.973134 
L 149.93409 162.582106 
L 145.51937 161.925172 
L 141.151986 161.004695 
L 136.847657 159.823989 
L 132.621873 158.387303 
L 128.991095 156.92008 
L 132.660225 159.461497 
L 136.17036 162.218356 
L 139.508866 165.180736 
L 142.663728 168.337976 
L 145.623593 171.678713 
L 148.377807 175.190923 
L 150.916459 178.861967 
L 153.230412 182.678633 
L 155.311339 186.627185 
L 157.15175 190.693412 
L 158.745023 194.862681 
L 160.085422 199.119986 
L 161.168124 203.450007 
L 161.989232 207.837158 
L 162.491839 211.720801 
L 162.906473 207.276771 
L 163.586842 202.865602 
L 164.530498 198.503167 
L 165.734045 194.205169 
L 167.193151 189.987074 
L 168.902566 185.864063 
L 170.856137 181.850974 
L 173.046833 177.962251 
L 175.466771 174.211888 
L 178.107241 170.613384 
L 180.958741 167.179687 
L 184.011007 163.923157 
L 187.253056 160.855513 
L 190.673219 157.987796 
L 193.810869 155.644627 
L 189.734926 157.463419 
L 185.557255 159.034529 
L 181.292892 160.352301 
L 176.957183 161.411994 
L 172.565733 162.209793 
L 168.134346 162.742828 
L 163.67897 163.00918 
L 159.21564 163.007891 
L 154.760418 162.738964 
L 150.32934 162.203369 
L 145.938351 161.403032 
L 141.603256 160.340834 
L 137.339655 159.020598 
L 133.162892 157.447075 
L 129.581815 155.862406 
L 133.166247 158.521948 
L 136.584752 161.391642 
L 139.825028 164.461158 
L 142.875412 167.719452 
L 145.724927 171.154795 
L 148.363317 174.754825 
L 150.781088 178.506585 
L 152.969537 182.396573 
L 154.920789 186.41079 
L 156.627821 190.534788 
L 158.08449 194.753725 
L 159.285553 199.052419 
L 160.226688 203.415398 
L 160.904508 207.826959 
L 161.280391 211.724908 
L 161.839509 207.296736 
L 162.663153 202.91006 
L 163.748357 198.580666 
L 165.091215 194.324136 
L 166.686897 190.155789 
L 168.529657 186.090625 
L 170.612865 182.143276 
L 172.929023 178.327948 
L 175.469796 174.658372 
L 178.226039 171.147753 
L 181.187834 167.808727 
L 184.34452 164.653311 
L 187.684737 161.69286 
L 191.196464 158.93803 
L 194.408748 156.698271 
L 190.275743 158.383379 
L 186.04913 159.817623 
L 181.744119 160.995842 
L 177.376204 161.913795 
L 172.961105 162.568178 
L 168.514711 162.956637 
L 164.053025 163.077773 
L 159.592103 162.931151 
L 155.148001 162.517298 
L 150.736712 161.837703 
L 146.374112 160.894812 
L 142.075902 159.69202 
L 137.857551 158.233654 
L 133.73424 156.524963 
L 130.206661 154.824528 
L 133.702594 157.599375 
L 137.025844 160.578859 
L 140.164453 163.752257 
L 143.107124 167.108148 
L 145.843267 170.634455 
L 148.363035 174.318486 
L 150.65736 178.146983 
L 152.717984 182.106168 
L 154.537492 186.181792 
L 156.109334 190.359187 
L 157.427855 194.623319 
L 158.488309 198.958842 
L 159.286879 203.350152 
L 159.820692 207.781446 
L 160.069451 211.689567 
L 160.772462 207.281949 
L 161.738506 202.924418 
L 162.964107 198.632656 
L 164.444853 194.422109 
L 166.175417 190.30793 
L 168.149569 186.304925 
L 170.360204 182.427503 
L 172.799368 178.689616 
L 175.458281 175.104717 
L 178.327374 171.685708 
L 181.396322 168.444894 
L 184.65408 165.393938 
L 188.088923 162.54382 
L 191.68849 159.904798 
L 194.972002 157.770824 
L 194.972002 157.770824 
" style="fill:none;stroke:#1f77b4;stroke-linecap:square;stroke-width:1.5;"/>
   </g>
   <g id="patch_5">
    <path d="M 57.6 263.808 
L 57.6 85.248 
" style="fill:none;stroke:#000000;stroke-linecap:square;stroke-linejoin:miter;stroke-width:0.8;"/>
   </g>
   <g id="patch_6">
    <path d="M 414.72 263.808 
L 414.72 85.248 
" style="fill:none;stroke:#000000;stroke-linecap:square;stroke-linejoin:miter;stroke-width:0.8;"/>
   </g>
   <g id="patch_7">
    <path d="M 57.6 263.808 
L 414.72 263.808 
" style="fill:none;stroke:#000000;stroke-linecap:square;stroke-linejoin:miter;stroke-width:0.8;"/>
   </g>
   <g id="patch_8">
    <path d="M 57.6 85.248 
L 414.72 85.248 
" style="fill:none;stroke:#000000;stroke-linecap:square;stroke-linejoin:miter;stroke-width:0.8;"/>
   </g>
  </g>
 </g>
 <defs>
  <clipPath id="p62a029252d">
   <rect height="178.56" width="357.12" x="57.6" y="85.248"/>
  </clipPath>
 </defs>
</svg>
