<?xml version="1.0" encoding="utf-8" standalone="no"?>
<!DOCTYPE svg PUBLIC "-//W3C//DTD SVG 1.1//EN"
  "http://www.w3.org/Graphics/SVG/1.1/DTD/svg11.dtd">
<!-- Created with matplotlib (https://matplotlib.org/) -->
<svg height="345.6pt" version="1.1" viewBox="0 0 460.8 345.6" width="460.8pt" xmlns="http://www.w3.org/2000/svg" xmlns:xlink="http://www.w3.org/1999/xlink">
 <defs>
  <style type="text/css">
*{stroke-linecap:butt;stroke-linejoin:round;}
  </style>
 </defs>
 <g id="figure_1">
  <g id="patch_1">
   <path d="M 0 345.6 
L 460.8 345.6 
L 460.8 0 
L 0 0 
z
" style="fill:#ffffff;"/>
  </g>
  <g id="axes_1">
   <g id="patch_2">
    <path d="M 57.6 263.808 
L 414.72 263.808 
L 414.72 85.248 
L 57.6 85.248 
z
" style="fill:#ffffff;"/>
   </g>
   <g id="PathCollection_1">
    <defs>
     <path d="M 0 3 
C 0.795609 3 1.55874 2.683901 2.12132 2.12132 
C 2.683901 1.55874 3 0.795609 3 0 
C 3 -0.795609 2.683901 -1.55874 2.12132 -2.12132 
C 1.55874 -2.683901 0.795609 -3 0 -3 
C -0.795609 -3 -1.55874 -2.683901 -2.12132 -2.12132 
C -2.683901 -1.55874 -3 -0.795609 -3 0 
C -3 0.795609 -2.683901 1.55874 -2.12132 2.12132 
C -1.55874 2.683901 -0.795609 3 0 3 
z
" id="md47d2fc5de" style="stroke:#000000;"/>
    </defs>
    <g clip-path="url(#p3622806c65)">
     <use style="stroke:#000000;" x="92.6236" xlink:href="#md47d2fc5de" y="223.195565"/>
    </g>
   </g>
   <g id="patch_3">
    <path clip-path="url(#p3622806c65)" d="M 161.76 211.728 
C 171.625555 211.728 181.088371 207.808373 188.064372 200.832372 
C 195.040373 193.856371 198.96 184.393555 198.96 174.528 
C 198.96 164.662445 195.040373 155.199629 188.064372 148.223628 
C 181.088371 141.247627 171.625555 137.328 161.76 137.328 
C 151.894445 137.328 142.431629 141.247627 135.455628 148.223628 
C 128.479627 155.199629 124.56 164.662445 124.56 174.528 
C 124.56 184.393555 128.479627 193.856371 135.455628 200.832372 
C 142.431629 207.808373 151.894445 211.728 161.76 211.728 
z
" style="fill:#cc0000;fill-opacity:0.1;stroke:#cc0000;stroke-dasharray:7.4,3.2;stroke-dashoffset:0;stroke-linejoin:miter;stroke-width:2;"/>
   </g>
   <g id="patch_4">
    <path clip-path="url(#p3622806c65)" d="M 310.56 196.848 
C 316.479333 196.848 322.157023 194.496224 326.342623 190.310623 
C 330.528224 186.125023 332.88 180.447333 332.88 174.528 
C 332.88 168.608667 330.528224 162.930977 326.342623 158.745377 
C 322.157023 154.559776 316.479333 152.208 310.56 152.208 
C 304.640667 152.208 298.962977 154.559776 294.777377 158.745377 
C 290.591776 162.930977 288.24 168.608667 288.24 174.528 
C 288.24 180.447333 290.591776 186.125023 294.777377 190.310623 
C 298.962977 194.496224 304.640667 196.848 310.56 196.848 
z
" style="fill:#cc0000;fill-opacity:0.1;stroke:#cc0000;stroke-dasharray:7.4,3.2;stroke-dashoffset:0;stroke-linejoin:miter;stroke-width:2;"/>
   </g>
   <g id="matplotlib.axis_1">
    <g id="xtick_1">
     <g id="line2d_1">
      <defs>
       <path d="M 0 0 
L 0 3.5 
" id="m4efd990877" style="stroke:#000000;stroke-width:0.8;"/>
      </defs>
      <g>
       <use style="stroke:#000000;stroke-width:0.8;" x="87.36" xlink:href="#m4efd990877" y="263.808"/>
      </g>
     </g>
     <g id="text_1">
      <!-- 0.0 -->
      <defs>
       <path d="M 31.78125 66.40625 
Q 24.171875 66.40625 20.328125 58.90625 
Q 16.5 51.421875 16.5 36.375 
Q 16.5 21.390625 20.328125 13.890625 
Q 24.171875 6.390625 31.78125 6.390625 
Q 39.453125 6.390625 43.28125 13.890625 
Q 47.125 21.390625 47.125 36.375 
Q 47.125 51.421875 43.28125 58.90625 
Q 39.453125 66.40625 31.78125 66.40625 
z
M 31.78125 74.21875 
Q 44.046875 74.21875 50.515625 64.515625 
Q 56.984375 54.828125 56.984375 36.375 
Q 56.984375 17.96875 50.515625 8.265625 
Q 44.046875 -1.421875 31.78125 -1.421875 
Q 19.53125 -1.421875 13.0625 8.265625 
Q 6.59375 17.96875 6.59375 36.375 
Q 6.59375 54.828125 13.0625 64.515625 
Q 19.53125 74.21875 31.78125 74.21875 
z
" id="DejaVuSans-48"/>
       <path d="M 10.6875 12.40625 
L 21 12.40625 
L 21 0 
L 10.6875 0 
z
" id="DejaVuSans-46"/>
      </defs>
      <g transform="translate(79.408438 278.406437)scale(0.1 -0.1)">
       <use xlink:href="#DejaVuSans-48"/>
       <use x="63.623047" xlink:href="#DejaVuSans-46"/>
       <use x="95.410156" xlink:href="#DejaVuSans-48"/>
      </g>
     </g>
    </g>
    <g id="xtick_2">
     <g id="line2d_2">
      <g>
       <use style="stroke:#000000;stroke-width:0.8;" x="161.76" xlink:href="#m4efd990877" y="263.808"/>
      </g>
     </g>
     <g id="text_2">
      <!-- 0.5 -->
      <defs>
       <path d="M 10.796875 72.90625 
L 49.515625 72.90625 
L 49.515625 64.59375 
L 19.828125 64.59375 
L 19.828125 46.734375 
Q 21.96875 47.46875 24.109375 47.828125 
Q 26.265625 48.1875 28.421875 48.1875 
Q 40.625 48.1875 47.75 41.5 
Q 54.890625 34.8125 54.890625 23.390625 
Q 54.890625 11.625 47.5625 5.09375 
Q 40.234375 -1.421875 26.90625 -1.421875 
Q 22.3125 -1.421875 17.546875 -0.640625 
Q 12.796875 0.140625 7.71875 1.703125 
L 7.71875 11.625 
Q 12.109375 9.234375 16.796875 8.0625 
Q 21.484375 6.890625 26.703125 6.890625 
Q 35.15625 6.890625 40.078125 11.328125 
Q 45.015625 15.765625 45.015625 23.390625 
Q 45.015625 31 40.078125 35.4375 
Q 35.15625 39.890625 26.703125 39.890625 
Q 22.75 39.890625 18.8125 39.015625 
Q 14.890625 38.140625 10.796875 36.28125 
z
" id="DejaVuSans-53"/>
      </defs>
      <g transform="translate(153.808437 278.406437)scale(0.1 -0.1)">
       <use xlink:href="#DejaVuSans-48"/>
       <use x="63.623047" xlink:href="#DejaVuSans-46"/>
       <use x="95.410156" xlink:href="#DejaVuSans-53"/>
      </g>
     </g>
    </g>
    <g id="xtick_3">
     <g id="line2d_3">
      <g>
       <use style="stroke:#000000;stroke-width:0.8;" x="236.16" xlink:href="#m4efd990877" y="263.808"/>
      </g>
     </g>
     <g id="text_3">
      <!-- 1.0 -->
      <defs>
       <path d="M 12.40625 8.296875 
L 28.515625 8.296875 
L 28.515625 63.921875 
L 10.984375 60.40625 
L 10.984375 69.390625 
L 28.421875 72.90625 
L 38.28125 72.90625 
L 38.28125 8.296875 
L 54.390625 8.296875 
L 54.390625 0 
L 12.40625 0 
z
" id="DejaVuSans-49"/>
      </defs>
      <g transform="translate(228.208437 278.406437)scale(0.1 -0.1)">
       <use xlink:href="#DejaVuSans-49"/>
       <use x="63.623047" xlink:href="#DejaVuSans-46"/>
       <use x="95.410156" xlink:href="#DejaVuSans-48"/>
      </g>
     </g>
    </g>
    <g id="xtick_4">
     <g id="line2d_4">
      <g>
       <use style="stroke:#000000;stroke-width:0.8;" x="310.56" xlink:href="#m4efd990877" y="263.808"/>
      </g>
     </g>
     <g id="text_4">
      <!-- 1.5 -->
      <g transform="translate(302.608437 278.406437)scale(0.1 -0.1)">
       <use xlink:href="#DejaVuSans-49"/>
       <use x="63.623047" xlink:href="#DejaVuSans-46"/>
       <use x="95.410156" xlink:href="#DejaVuSans-53"/>
      </g>
     </g>
    </g>
    <g id="xtick_5">
     <g id="line2d_5">
      <g>
       <use style="stroke:#000000;stroke-width:0.8;" x="384.96" xlink:href="#m4efd990877" y="263.808"/>
      </g>
     </g>
     <g id="text_5">
      <!-- 2.0 -->
      <defs>
       <path d="M 19.1875 8.296875 
L 53.609375 8.296875 
L 53.609375 0 
L 7.328125 0 
L 7.328125 8.296875 
Q 12.9375 14.109375 22.625 23.890625 
Q 32.328125 33.6875 34.8125 36.53125 
Q 39.546875 41.84375 41.421875 45.53125 
Q 43.3125 49.21875 43.3125 52.78125 
Q 43.3125 58.59375 39.234375 62.25 
Q 35.15625 65.921875 28.609375 65.921875 
Q 23.96875 65.921875 18.8125 64.3125 
Q 13.671875 62.703125 7.8125 59.421875 
L 7.8125 69.390625 
Q 13.765625 71.78125 18.9375 73 
Q 24.125 74.21875 28.421875 74.21875 
Q 39.75 74.21875 46.484375 68.546875 
Q 53.21875 62.890625 53.21875 53.421875 
Q 53.21875 48.921875 51.53125 44.890625 
Q 49.859375 40.875 45.40625 35.40625 
Q 44.1875 33.984375 37.640625 27.21875 
Q 31.109375 20.453125 19.1875 8.296875 
z
" id="DejaVuSans-50"/>
      </defs>
      <g transform="translate(377.008437 278.406437)scale(0.1 -0.1)">
       <use xlink:href="#DejaVuSans-50"/>
       <use x="63.623047" xlink:href="#DejaVuSans-46"/>
       <use x="95.410156" xlink:href="#DejaVuSans-48"/>
      </g>
     </g>
    </g>
   </g>
   <g id="matplotlib.axis_2">
    <g id="ytick_1">
     <g id="line2d_6">
      <defs>
       <path d="M 0 0 
L -3.5 0 
" id="m8c6d848f48" style="stroke:#000000;stroke-width:0.8;"/>
      </defs>
      <g>
       <use style="stroke:#000000;stroke-width:0.8;" x="57.6" xlink:href="#m8c6d848f48" y="248.928"/>
      </g>
     </g>
     <g id="text_6">
      <!-- 0.0 -->
      <g transform="translate(34.696875 252.727219)scale(0.1 -0.1)">
       <use xlink:href="#DejaVuSans-48"/>
       <use x="63.623047" xlink:href="#DejaVuSans-46"/>
       <use x="95.410156" xlink:href="#DejaVuSans-48"/>
      </g>
     </g>
    </g>
    <g id="ytick_2">
     <g id="line2d_7">
      <g>
       <use style="stroke:#000000;stroke-width:0.8;" x="57.6" xlink:href="#m8c6d848f48" y="219.168"/>
      </g>
     </g>
     <g id="text_7">
      <!-- 0.2 -->
      <g transform="translate(34.696875 222.967219)scale(0.1 -0.1)">
       <use xlink:href="#DejaVuSans-48"/>
       <use x="63.623047" xlink:href="#DejaVuSans-46"/>
       <use x="95.410156" xlink:href="#DejaVuSans-50"/>
      </g>
     </g>
    </g>
    <g id="ytick_3">
     <g id="line2d_8">
      <g>
       <use style="stroke:#000000;stroke-width:0.8;" x="57.6" xlink:href="#m8c6d848f48" y="189.408"/>
      </g>
     </g>
     <g id="text_8">
      <!-- 0.4 -->
      <defs>
       <path d="M 37.796875 64.3125 
L 12.890625 25.390625 
L 37.796875 25.390625 
z
M 35.203125 72.90625 
L 47.609375 72.90625 
L 47.609375 25.390625 
L 58.015625 25.390625 
L 58.015625 17.1875 
L 47.609375 17.1875 
L 47.609375 0 
L 37.796875 0 
L 37.796875 17.1875 
L 4.890625 17.1875 
L 4.890625 26.703125 
z
" id="DejaVuSans-52"/>
      </defs>
      <g transform="translate(34.696875 193.207219)scale(0.1 -0.1)">
       <use xlink:href="#DejaVuSans-48"/>
       <use x="63.623047" xlink:href="#DejaVuSans-46"/>
       <use x="95.410156" xlink:href="#DejaVuSans-52"/>
      </g>
     </g>
    </g>
    <g id="ytick_4">
     <g id="line2d_9">
      <g>
       <use style="stroke:#000000;stroke-width:0.8;" x="57.6" xlink:href="#m8c6d848f48" y="159.648"/>
      </g>
     </g>
     <g id="text_9">
      <!-- 0.6 -->
      <defs>
       <path d="M 33.015625 40.375 
Q 26.375 40.375 22.484375 35.828125 
Q 18.609375 31.296875 18.609375 23.390625 
Q 18.609375 15.53125 22.484375 10.953125 
Q 26.375 6.390625 33.015625 6.390625 
Q 39.65625 6.390625 43.53125 10.953125 
Q 47.40625 15.53125 47.40625 23.390625 
Q 47.40625 31.296875 43.53125 35.828125 
Q 39.65625 40.375 33.015625 40.375 
z
M 52.59375 71.296875 
L 52.59375 62.3125 
Q 48.875 64.0625 45.09375 64.984375 
Q 41.3125 65.921875 37.59375 65.921875 
Q 27.828125 65.921875 22.671875 59.328125 
Q 17.53125 52.734375 16.796875 39.40625 
Q 19.671875 43.65625 24.015625 45.921875 
Q 28.375 48.1875 33.59375 48.1875 
Q 44.578125 48.1875 50.953125 41.515625 
Q 57.328125 34.859375 57.328125 23.390625 
Q 57.328125 12.15625 50.6875 5.359375 
Q 44.046875 -1.421875 33.015625 -1.421875 
Q 20.359375 -1.421875 13.671875 8.265625 
Q 6.984375 17.96875 6.984375 36.375 
Q 6.984375 53.65625 15.1875 63.9375 
Q 23.390625 74.21875 37.203125 74.21875 
Q 40.921875 74.21875 44.703125 73.484375 
Q 48.484375 72.75 52.59375 71.296875 
z
" id="DejaVuSans-54"/>
      </defs>
      <g transform="translate(34.696875 163.447219)scale(0.1 -0.1)">
       <use xlink:href="#DejaVuSans-48"/>
       <use x="63.623047" xlink:href="#DejaVuSans-46"/>
       <use x="95.410156" xlink:href="#DejaVuSans-54"/>
      </g>
     </g>
    </g>
    <g id="ytick_5">
     <g id="line2d_10">
      <g>
       <use style="stroke:#000000;stroke-width:0.8;" x="57.6" xlink:href="#m8c6d848f48" y="129.888"/>
      </g>
     </g>
     <g id="text_10">
      <!-- 0.8 -->
      <defs>
       <path d="M 31.78125 34.625 
Q 24.75 34.625 20.71875 30.859375 
Q 16.703125 27.09375 16.703125 20.515625 
Q 16.703125 13.921875 20.71875 10.15625 
Q 24.75 6.390625 31.78125 6.390625 
Q 38.8125 6.390625 42.859375 10.171875 
Q 46.921875 13.96875 46.921875 20.515625 
Q 46.921875 27.09375 42.890625 30.859375 
Q 38.875 34.625 31.78125 34.625 
z
M 21.921875 38.8125 
Q 15.578125 40.375 12.03125 44.71875 
Q 8.5 49.078125 8.5 55.328125 
Q 8.5 64.0625 14.71875 69.140625 
Q 20.953125 74.21875 31.78125 74.21875 
Q 42.671875 74.21875 48.875 69.140625 
Q 55.078125 64.0625 55.078125 55.328125 
Q 55.078125 49.078125 51.53125 44.71875 
Q 48 40.375 41.703125 38.8125 
Q 48.828125 37.15625 52.796875 32.3125 
Q 56.78125 27.484375 56.78125 20.515625 
Q 56.78125 9.90625 50.3125 4.234375 
Q 43.84375 -1.421875 31.78125 -1.421875 
Q 19.734375 -1.421875 13.25 4.234375 
Q 6.78125 9.90625 6.78125 20.515625 
Q 6.78125 27.484375 10.78125 32.3125 
Q 14.796875 37.15625 21.921875 38.8125 
z
M 18.3125 54.390625 
Q 18.3125 48.734375 21.84375 45.5625 
Q 25.390625 42.390625 31.78125 42.390625 
Q 38.140625 42.390625 41.71875 45.5625 
Q 45.3125 48.734375 45.3125 54.390625 
Q 45.3125 60.0625 41.71875 63.234375 
Q 38.140625 66.40625 31.78125 66.40625 
Q 25.390625 66.40625 21.84375 63.234375 
Q 18.3125 60.0625 18.3125 54.390625 
z
" id="DejaVuSans-56"/>
      </defs>
      <g transform="translate(34.696875 133.687219)scale(0.1 -0.1)">
       <use xlink:href="#DejaVuSans-48"/>
       <use x="63.623047" xlink:href="#DejaVuSans-46"/>
       <use x="95.410156" xlink:href="#DejaVuSans-56"/>
      </g>
     </g>
    </g>
    <g id="ytick_6">
     <g id="line2d_11">
      <g>
       <use style="stroke:#000000;stroke-width:0.8;" x="57.6" xlink:href="#m8c6d848f48" y="100.128"/>
      </g>
     </g>
     <g id="text_11">
      <!-- 1.0 -->
      <g transform="translate(34.696875 103.927219)scale(0.1 -0.1)">
       <use xlink:href="#DejaVuSans-49"/>
       <use x="63.623047" xlink:href="#DejaVuSans-46"/>
       <use x="95.410156" xlink:href="#DejaVuSans-48"/>
      </g>
     </g>
    </g>
   </g>
   <g id="line2d_12">
    <path clip-path="url(#p3622806c65)" d="M 236.16 248.928 
L 236.16 100.128 
" style="fill:none;stroke:#cc0000;stroke-dasharray:7.4,3.2;stroke-dashoffset:0;stroke-width:2;"/>
   </g>
   <g id="line2d_13">
    <path clip-path="url(#p3622806c65)" d="M 87.36 248.928 
L 384.96 248.928 
" style="fill:none;stroke:#009900;stroke-linecap:square;stroke-width:2;"/>
   </g>
   <g id="line2d_14">
    <path clip-path="url(#p3622806c65)" d="M 384.96 248.928 
L 384.96 100.128 
" style="fill:none;stroke:#009900;stroke-linecap:square;stroke-width:2;"/>
   </g>
   <g id="line2d_15">
    <path clip-path="url(#p3622806c65)" d="M 384.96 100.128 
L 87.36 100.128 
" style="fill:none;stroke:#009900;stroke-linecap:square;stroke-width:2;"/>
   </g>
   <g id="line2d_16">
    <path clip-path="url(#p3622806c65)" d="M 87.36 100.128 
L 87.36 248.928 
" style="fill:none;stroke:#009900;stroke-linecap:square;stroke-width:2;"/>
   </g>
   <g id="line2d_17">
    <path clip-path="url(#p3622806c65)" d="M 92.6236 223.195565 
L 90.989847 217.472591 
L 89.128542 211.819528 
L 87.36 207.051209 
L 89.413401 201.465054 
L 91.241772 195.801253 
L 92.84219 190.068867 
L 94.212093 184.277067 
L 95.34929 178.435119 
L 96.251962 172.552367 
L 96.918664 166.638224 
L 97.348331 160.702151 
L 97.540274 154.753644 
L 97.494187 148.802219 
L 97.210143 142.857398 
L 96.688597 136.92869 
L 95.930383 131.025582 
L 94.936714 125.157515 
L 93.70918 119.333879 
L 92.249744 113.563989 
L 90.560742 107.857076 
L 88.644875 102.222271 
L 87.867923 100.128 
L 87.36 101.486127 
L 89.528889 107.028464 
L 91.917678 112.479636 
L 94.522544 117.830921 
L 97.339322 123.073758 
L 100.363503 128.199761 
L 103.590252 133.200729 
L 107.014404 138.06866 
L 110.630483 142.795769 
L 114.432703 147.374492 
L 118.414982 151.797504 
L 122.570949 156.057729 
L 127.299841 160.515955 
L 121.349233 160.407118 
L 115.399032 160.536329 
L 109.458758 160.903381 
L 103.537914 161.507687 
L 97.645972 162.34828 
L 91.792357 163.423816 
L 87.36 164.400856 
L 93.178089 165.654421 
L 99.041653 166.674321 
L 104.941312 167.458925 
L 110.867628 168.006979 
L 116.811119 168.317604 
L 122.762278 168.390305 
L 125.075869 168.354303 
L 129.516138 168.807434 
L 133.921246 169.526005 
L 138.275338 170.507431 
L 142.562746 171.74818 
L 146.768038 173.243787 
L 150.87608 174.988868 
L 154.872087 176.977144 
L 158.74168 179.201458 
L 162.47093 181.653806 
L 166.046417 184.325362 
L 169.455272 187.206512 
L 172.685229 190.286885 
L 175.724661 193.555397 
L 178.562632 197.000283 
L 181.188926 200.609147 
L 183.709383 204.56239 
L 186.357126 209.892591 
L 189.215902 215.112646 
L 192.281138 220.214205 
L 195.547931 225.189107 
L 199.011053 230.029393 
L 202.664965 234.727319 
L 206.503821 239.27537 
L 210.52148 243.666269 
L 214.711515 247.892992 
L 215.790206 248.928 
L 220.022493 244.743585 
L 224.084062 240.39327 
L 227.968416 235.884016 
L 231.669341 231.223036 
L 235.180916 226.417787 
L 236.16 225.002827 
L 232.704225 220.157293 
L 229.057445 215.453829 
L 225.225493 210.899959 
L 221.2145 206.50297 
L 217.030883 202.269894 
L 212.681334 198.207505 
L 208.172812 194.322301 
L 203.51253 190.620497 
L 198.707943 187.108015 
L 197.139256 186.023575 
L 193.19339 183.937559 
L 189.379711 181.618687 
L 185.711942 179.075305 
L 182.203286 176.316565 
L 178.866368 173.352396 
L 175.713198 170.193466 
L 172.755124 166.851144 
L 170.002792 163.337458 
L 167.466108 159.665054 
L 165.1542 155.847149 
L 163.07539 151.897482 
L 161.237158 147.830269 
L 159.64612 143.660147 
L 158.308002 139.402124 
L 157.809176 137.538393 
L 157.51596 141.992082 
L 156.956211 146.420174 
L 156.131943 150.806733 
L 155.046122 155.135972 
L 153.702656 159.392311 
L 152.106381 163.560431 
L 150.263042 167.625332 
L 148.179271 171.572384 
L 145.86257 175.387382 
L 143.321274 179.056597 
L 140.564531 182.566822 
L 137.602261 185.905426 
L 134.445125 189.060392 
L 131.104486 192.020367 
L 129.606827 193.236647 
L 125.595813 197.633617 
L 121.763838 202.187467 
L 118.117034 206.890913 
L 114.661235 211.73643 
L 111.401969 216.716266 
L 108.344451 221.822455 
L 105.493571 227.046827 
L 102.853891 232.381025 
L 100.429633 237.816515 
L 98.224677 243.344602 
L 96.251962 248.928 
L 94.268703 243.316559 
L 92.062633 237.788916 
L 89.637282 232.353914 
L 87.36 227.723438 
L 89.972343 222.375799 
L 92.368748 216.927972 
L 94.545381 211.388671 
L 96.498761 205.76676 
L 98.225761 200.071231 
L 99.723619 194.311196 
L 100.98994 188.49587 
L 102.022696 182.634557 
L 102.820236 176.736633 
L 103.381284 170.811533 
L 103.704943 164.868737 
L 103.790694 158.917751 
L 103.638401 152.968097 
L 103.248307 147.029292 
L 102.621036 141.110837 
L 101.757592 135.2222 
L 100.659356 129.372802 
L 99.328084 123.572 
L 97.765908 117.829075 
L 95.975325 112.153215 
L 93.9592 106.553498 
L 91.72076 101.038885 
L 91.326022 100.128 
L 89.05084 105.627557 
L 87.36 110.175318 
L 89.454673 115.746128 
L 91.770443 121.228718 
L 94.303606 126.614316 
L 97.050109 131.894306 
L 100.005558 137.060243 
L 103.165226 142.10386 
L 106.524058 147.017091 
L 110.076679 151.792074 
L 113.817407 156.42117 
L 117.740258 160.896975 
L 121.838955 165.212327 
L 125.070941 168.383658 
L 119.708859 170.966227 
L 114.454342 173.761156 
L 109.315796 176.763975 
L 104.30144 179.969878 
L 99.419297 183.373738 
L 94.677178 186.970109 
L 90.082668 190.753237 
L 87.36 193.146162 
L 91.860996 197.040082 
L 96.514107 200.750896 
L 101.31189 204.272666 
L 106.246667 207.599759 
L 111.310546 210.726853 
L 116.495424 213.648944 
L 121.793008 216.361358 
L 127.194822 218.859755 
L 132.692224 221.140139 
L 138.27642 223.198862 
L 143.938476 225.032629 
L 149.669334 226.638508 
L 155.459826 228.013929 
L 161.300688 229.156692 
L 167.182577 230.064968 
L 173.096082 230.737306 
L 179.031743 231.172628 
L 184.980065 231.370239 
L 190.931531 231.329822 
L 196.87662 231.051443 
L 202.805822 230.535546 
L 208.70965 229.782957 
L 214.578661 228.79488 
L 220.403464 227.572896 
L 226.174742 226.118958 
L 231.883261 224.435395 
L 236.16 223.008912 
L 230.505104 221.153183 
L 224.780521 219.525075 
L 218.995411 218.12719 
L 213.159028 216.961767 
L 207.280709 216.030669 
L 201.369858 215.335386 
L 195.43593 214.87703 
L 189.488421 214.656334 
L 183.536843 214.673652 
L 177.590718 214.928956 
L 171.659559 215.421837 
L 165.752854 216.151507 
L 159.880052 217.116798 
L 154.05055 218.316167 
L 148.273673 219.747694 
L 142.558663 221.409089 
L 136.914662 223.297696 
L 131.350699 225.410491 
L 125.875677 227.744095 
L 120.498353 230.294776 
L 115.227331 233.058451 
L 110.071042 236.030701 
L 105.037736 239.20677 
L 100.135465 242.581577 
L 95.372072 246.149722 
L 91.920905 248.928 
L 87.36 245.291653 
L 92.012097 241.579567 
L 96.512028 237.684417 
L 100.852596 233.612433 
L 105.026856 229.37013 
L 109.02813 224.964294 
L 112.850017 220.401975 
L 116.486402 215.69047 
L 119.931469 210.837317 
L 123.179706 205.85028 
L 126.225917 200.737337 
L 129.065228 195.506668 
L 129.937327 193.793448 
L 123.98574 193.80749 
L 118.039476 194.05952 
L 112.108046 194.549136 
L 106.200941 195.275555 
L 100.327609 196.237613 
L 94.497447 197.433773 
L 88.719783 198.86212 
L 87.36 199.234204 
L 93.123873 200.717225 
L 98.94244 201.968567 
L 104.806393 202.986228 
L 110.706351 203.768578 
L 116.632876 204.314368 
L 122.576486 204.622723 
L 128.527672 204.693151 
L 134.476915 204.525538 
L 139.338195 204.211373 
L 140.613987 210.024628 
L 142.121227 215.782215 
L 143.857504 221.474924 
L 145.820039 227.093645 
L 148.005693 232.629393 
L 150.41097 238.073309 
L 153.032022 243.416685 
L 156.022208 248.928 
L 158.866045 243.699791 
L 161.498535 238.362041 
L 163.915466 232.923288 
L 166.112971 227.392235 
L 168.087536 221.777729 
L 169.836001 216.088753 
L 171.320515 210.478473 
L 175.501988 214.713667 
L 179.849479 218.778259 
L 184.356033 222.665746 
L 189.01444 226.369909 
L 193.817247 229.884823 
L 198.756772 233.204864 
L 203.825113 236.324721 
L 209.01416 239.239403 
L 214.315612 241.944247 
L 219.720989 244.434926 
L 225.221643 246.707455 
L 231.304473 248.928 
L 236.16 247.17976 
L 230.554964 245.178473 
L 224.874381 243.402928 
L 219.127339 241.855967 
L 213.323032 240.540063 
L 207.470746 239.457322 
L 201.579843 238.609476 
L 195.659747 237.997881 
L 189.71993 237.623517 
L 183.769893 237.486981 
L 177.819156 237.588493 
L 171.877238 237.927889 
L 165.953645 238.504627 
L 160.057853 239.317785 
L 154.199295 240.36606 
L 148.387344 241.647778 
L 142.631296 243.160885 
L 136.940361 244.902964 
L 131.323642 246.871225 
L 126.111983 248.928 
L 120.573345 246.749683 
L 114.952028 244.794594 
L 109.257024 243.065862 
L 103.497445 241.566253 
L 97.682504 240.298165 
L 91.821505 239.263626 
L 87.36 238.636844 
L 93.249632 237.780217 
L 99.100298 236.688752 
L 104.902637 235.364197 
L 110.647366 233.808669 
L 116.325295 232.024658 
L 121.927342 230.015017 
L 127.444543 227.782961 
L 132.868072 225.332062 
L 138.189254 222.66624 
L 143.399575 219.789759 
L 148.490699 216.707222 
L 153.454482 213.423561 
L 156.395578 211.33918 
L 160.104102 215.994116 
L 163.995807 220.497027 
L 168.064468 224.84071 
L 172.303575 229.018215 
L 176.706348 233.02286 
L 181.265741 236.848237 
L 185.974462 240.488227 
L 190.824977 243.937007 
L 195.809527 247.18906 
L 198.666016 248.928 
L 203.72239 245.788786 
L 208.649183 242.449881 
L 213.438516 238.916628 
L 218.082725 235.19468 
L 222.574381 231.289989 
L 226.906298 227.208804 
L 231.071546 222.957652 
L 235.063462 218.543336 
L 236.16 217.266394 
L 232.218271 212.807206 
L 228.101376 208.509213 
L 223.815899 204.379289 
L 219.368697 200.424042 
L 214.766885 196.649799 
L 210.017825 193.062599 
L 205.129114 189.66818 
L 200.108572 186.471972 
L 197.482044 184.909502 
L 193.433636 183.030217 
L 189.505203 180.911554 
L 185.710882 178.56114 
L 182.064329 175.987432 
L 178.578668 173.199693 
L 175.266444 170.207957 
L 172.139576 167.02299 
L 169.209318 163.656255 
L 166.486215 160.119868 
L 163.980069 156.426556 
L 161.699899 152.589612 
L 159.653909 148.622844 
L 157.849465 144.540529 
L 156.29306 140.357358 
L 155.496721 137.859058 
L 155.574375 142.321712 
L 155.384291 146.780993 
L 154.927152 151.220852 
L 154.204604 155.625309 
L 153.219248 159.978514 
L 151.974629 164.264799 
L 150.475226 168.468739 
L 148.726437 172.575204 
L 146.734555 176.569415 
L 144.506748 180.436998 
L 142.051034 184.164032 
L 139.376251 187.737106 
L 136.492025 191.143359 
L 133.408737 194.370534 
L 131.509145 196.178075 
L 127.738786 200.78307 
L 124.155594 205.535155 
L 120.765301 210.426729 
L 117.573331 215.449966 
L 114.584789 220.596829 
L 111.804458 225.859085 
L 109.236785 231.228316 
L 106.885878 236.695931 
L 104.755497 242.253184 
L 102.849052 247.891184 
L 102.525572 248.928 
L 100.66033 243.276235 
L 98.570569 237.70358 
L 96.259632 232.218951 
L 93.731218 226.831122 
L 90.98937 221.548713 
L 88.038476 216.380173 
L 87.36 215.256433 
L 90.356375 210.114126 
L 93.144715 204.85611 
L 95.720561 199.490795 
L 98.079791 194.026766 
L 100.218631 188.472764 
L 102.133659 182.837673 
L 103.821812 177.130509 
L 105.280389 171.360402 
L 106.507056 165.536583 
L 107.499851 159.668369 
L 108.257187 153.765147 
L 108.777851 147.836362 
L 109.06101 141.891499 
L 109.106211 135.940067 
L 108.913383 129.991589 
L 108.482833 124.055579 
L 107.81525 118.141535 
L 106.911703 112.258918 
L 105.773636 106.417139 
L 104.273635 100.128 
L 102.88287 105.914826 
L 101.724629 111.752639 
L 100.800765 117.632099 
L 100.112755 123.543801 
L 99.661701 129.478288 
L 99.448324 135.426065 
L 99.472965 141.377617 
L 99.735585 147.323423 
L 100.235763 153.253972 
L 100.972701 159.159774 
L 101.945218 165.031383 
L 103.151758 170.859405 
L 104.590393 176.634517 
L 106.258819 182.347478 
L 108.154368 187.989151 
L 110.274008 193.55051 
L 112.614348 199.022657 
L 115.171643 204.396838 
L 117.941802 209.664456 
L 120.920394 214.817083 
L 124.102654 219.846477 
L 127.48349 224.744592 
L 131.057494 229.503591 
L 134.818949 234.115862 
L 138.761837 238.574025 
L 142.879849 242.870948 
L 147.166399 246.999758 
L 149.290876 248.928 
L 153.656234 244.882604 
L 157.856328 240.665876 
L 161.884438 236.284562 
L 165.73412 231.745672 
L 169.399216 227.056465 
L 172.873861 222.224445 
L 176.152498 217.257342 
L 179.229882 212.1631 
L 182.101088 206.949872 
L 183.111251 204.990503 
L 189.00423 204.157205 
L 194.859172 203.088919 
L 200.66671 201.787351 
L 206.417554 200.254585 
L 212.102504 198.493072 
L 217.712465 196.505631 
L 223.238462 194.295442 
L 228.671654 191.866039 
L 234.003351 189.22131 
L 236.16 188.074629 
L 230.872433 185.34274 
L 225.47985 182.824482 
L 219.990876 180.523884 
L 214.414294 178.444627 
L 208.759024 176.590037 
L 203.034114 174.963081 
L 198.955556 173.953009 
L 194.533801 173.345228 
L 190.156447 172.473395 
L 185.839249 171.340647 
L 181.597743 169.951061 
L 177.447195 168.309637 
L 173.402543 166.422284 
L 169.478341 164.295793 
L 165.688714 161.937818 
L 162.0473 159.356845 
L 158.567204 156.562162 
L 155.260951 153.563828 
L 152.140439 150.372633 
L 149.2169 147.000063 
L 146.500854 143.458253 
L 145.011309 141.311719 
L 146.394009 145.555474 
L 147.519747 149.874505 
L 148.384474 154.253268 
L 148.985076 158.676005 
L 149.319393 163.126797 
L 149.386221 167.589627 
L 149.185319 172.048434 
L 148.717411 176.48717 
L 147.98418 180.889861 
L 146.988266 185.240663 
L 145.733253 189.523916 
L 144.223656 193.724206 
L 142.464911 197.826417 
L 140.463344 201.815784 
L 139.181976 204.092723 
L 142.396971 200.996738 
L 145.791829 198.099108 
L 149.354331 195.410261 
L 153.071657 192.939875 
L 156.930428 190.696839 
L 160.916756 188.689228 
L 165.016296 186.924265 
L 169.214293 185.408303 
L 173.495638 184.146798 
L 177.844925 183.144289 
L 182.2465 182.404385 
L 186.684522 181.929749 
L 191.143019 181.722088 
L 195.605945 181.78215 
L 198.213812 181.941472 
L 194.025204 180.399758 
L 189.936581 178.609653 
L 185.962657 176.577599 
L 182.117733 174.310909 
L 178.415649 171.81774 
L 174.869726 169.107067 
L 171.492727 166.188643 
L 168.296805 163.072973 
L 165.293463 159.771268 
L 162.493508 156.295413 
L 159.907017 152.657916 
L 157.5433 148.871868 
L 155.410863 144.950895 
L 153.51738 140.909108 
L 152.522715 138.49312 
L 152.963356 142.934646 
L 153.136872 147.394603 
L 153.042638 151.856938 
L 152.680995 156.305593 
L 152.053244 160.724558 
L 151.161643 165.097928 
L 150.009402 169.409964 
L 148.600667 173.645149 
L 146.940508 177.788238 
L 145.034901 181.824323 
L 142.890703 185.738877 
L 140.515631 189.517812 
L 137.918233 193.147529 
L 135.107856 196.614963 
L 133.36809 198.564211 
L 129.98706 203.462192 
L 126.804602 208.491461 
L 123.825807 213.643971 
L 121.05544 218.911479 
L 118.497933 224.28556 
L 116.157378 229.757614 
L 114.037519 235.318889 
L 112.141747 240.960487 
L 110.473095 246.673384 
L 109.882128 248.928 
L 108.303164 243.189668 
L 106.495991 237.519068 
L 104.4635 231.925271 
L 102.208943 226.417227 
L 99.735926 221.003747 
L 97.048406 215.693491 
L 94.150682 210.494955 
L 91.047389 205.416455 
L 87.743494 200.466117 
L 87.36 199.918311 
L 90.686109 194.98287 
L 93.812192 189.918367 
L 96.733249 184.732906 
L 99.444606 179.434782 
L 101.941926 174.03247 
L 104.221213 168.534613 
L 106.278821 162.950006 
L 108.111459 157.287585 
L 109.716195 151.556406 
L 111.090461 145.76564 
L 112.232059 139.92455 
L 113.139162 134.04248 
L 113.810319 128.128841 
L 114.244458 122.193093 
L 114.440882 116.244732 
L 114.399279 110.293274 
L 114.119713 104.348241 
L 113.776195 100.128 
L 113.327591 106.062672 
L 113.116668 112.010537 
L 113.143766 117.962078 
L 113.40884 123.907776 
L 113.911467 129.838117 
L 114.650842 135.743615 
L 115.625782 141.614822 
L 116.834729 147.442345 
L 118.275747 153.216862 
L 119.946531 158.929135 
L 121.844409 164.570025 
L 123.966344 170.130508 
L 124.659215 171.812907 
L 128.202833 174.526592 
L 131.577352 177.447883 
L 134.770626 180.566267 
L 137.771163 183.870522 
L 140.568164 187.348754 
L 143.151564 190.988447 
L 145.512064 194.776502 
L 147.641169 198.699285 
L 149.531218 202.742679 
L 151.175407 206.892132 
L 152.386261 210.527625 
L 155.695541 207.532633 
L 159.178459 204.741467 
L 162.822478 202.164174 
L 166.614486 199.810029 
L 170.540833 197.687504 
L 174.587391 195.804237 
L 178.739595 194.167008 
L 182.982502 192.781707 
L 187.300842 191.653321 
L 191.679074 190.78591 
L 195.47351 190.251842 
L 200.084204 186.488455 
L 204.540714 182.543699 
L 208.835911 178.423885 
L 212.962924 174.135605 
L 216.91515 169.685719 
L 220.686267 165.081345 
L 224.270242 160.32985 
L 227.66134 155.438835 
L 230.854138 150.416124 
L 233.843527 145.269753 
L 236.16 140.923538 
L 233.34256 135.681056 
L 230.317731 130.555436 
L 227.090351 125.554876 
L 223.665584 120.687376 
L 220.048908 115.960725 
L 216.246109 111.382483 
L 212.263271 106.959974 
L 208.106766 102.700273 
L 205.42832 100.128 
L 201.166809 104.282648 
L 197.074848 108.604389 
L 193.158984 113.086307 
L 189.425481 117.721233 
L 185.880312 122.501751 
L 182.529149 127.420215 
L 179.377352 132.468755 
L 176.429964 137.639295 
L 174.618492 141.207701 
L 172.572877 145.174662 
L 170.293069 149.011821 
L 167.787272 152.705369 
L 165.064504 156.242014 
L 162.134564 159.609026 
L 159.007996 162.794288 
L 155.696054 165.786337 
L 152.210656 168.574405 
L 148.564347 171.148457 
L 144.770248 173.49923 
L 140.842015 175.618263 
L 136.793785 177.497931 
L 132.640127 179.131468 
L 128.39599 180.512996 
L 125.195143 181.372796 
L 129.636192 180.927373 
L 134.095959 180.749056 
L 138.558393 180.838484 
L 143.007435 181.195337 
L 147.427073 181.818331 
L 151.801401 182.705222 
L 156.114675 183.85282 
L 160.351374 185.256994 
L 164.496249 186.912691 
L 168.534383 188.813951 
L 172.451243 190.953934 
L 176.232733 193.324935 
L 179.865244 195.918424 
L 183.335702 198.725066 
L 192.59027 206.732119 
L 197.330057 210.331563 
L 202.209992 213.738587 
L 207.222269 216.94774 
L 212.358868 219.953888 
L 217.611572 222.752223 
L 222.971979 225.338268 
L 228.431511 227.707884 
L 233.981436 229.857283 
L 236.16 230.632156 
L 230.577346 232.695055 
L 225.081651 234.97955 
L 219.681707 237.481987 
L 214.386154 240.198363 
L 209.203463 243.124331 
L 204.141924 246.255212 
L 200.150887 248.928 
L 195.19304 245.635383 
L 190.107488 242.54366 
L 184.902369 239.657779 
L 179.586008 236.982355 
L 174.166912 234.521669 
L 168.653749 232.279657 
L 163.05534 230.259906 
L 157.38064 228.465648 
L 151.638728 226.899752 
L 145.83879 225.564724 
L 139.990105 224.4627 
L 134.102028 223.595442 
L 128.183981 222.964338 
L 122.245429 222.570398 
L 116.295875 222.414251 
L 110.344835 222.496148 
L 104.40183 222.815958 
L 98.476369 223.373169 
L 92.577929 224.166889 
L 87.36 225.070945 
L 93.226461 226.07405 
L 99.128342 226.841757 
L 105.056203 227.372837 
L 111.00056 227.666442 
L 116.951903 227.7221 
L 122.900711 227.539724 
L 128.837468 227.119605 
L 134.752676 226.462415 
L 140.636871 225.569205 
L 146.480641 224.441405 
L 152.274637 223.080818 
L 158.009589 221.489622 
L 163.676323 219.670362 
L 169.265773 217.625947 
L 174.768997 215.35965 
L 180.177192 212.875096 
L 185.481705 210.176258 
L 190.67405 207.267456 
L 195.745921 204.153341 
L 200.689203 200.838897 
L 205.495989 197.329426 
L 210.158589 193.630542 
L 214.669543 189.748162 
L 219.021635 185.688497 
L 223.207902 181.458043 
L 227.221648 177.063566 
L 231.056451 172.512098 
L 234.706177 167.810919 
L 236.16 165.824807 
L 232.588535 161.063902 
L 228.829541 156.449625 
L 224.889032 151.98936 
L 220.773312 147.69024 
L 216.488966 143.559144 
L 212.042846 139.60268 
L 207.442067 135.827179 
L 202.693988 132.23868 
L 197.806205 128.842924 
L 192.786538 125.645343 
L 187.643017 122.651053 
L 182.38387 119.864844 
L 177.017512 117.291174 
L 171.552527 114.934159 
L 165.997658 112.797571 
L 160.361791 110.884827 
L 154.653943 109.198988 
L 148.883245 107.742751 
L 143.05893 106.518444 
L 137.190314 105.528028 
L 131.286785 104.773086 
L 125.35779 104.254825 
L 119.412812 103.974076 
L 113.461363 103.931288 
L 107.512963 104.126527 
L 101.577129 104.559484 
L 95.663356 105.229464 
L 89.781106 106.135396 
L 87.36 106.578668 
L 93.226461 107.581773 
L 99.128342 108.34948 
L 105.056203 108.88056 
L 111.00056 109.174164 
L 116.951903 109.229823 
L 122.900711 109.047447 
L 128.837468 108.627328 
L 134.752676 107.970138 
L 140.636871 107.076928 
L 146.480641 105.949128 
L 152.274637 104.588541 
L 158.009589 102.997345 
L 163.676323 101.178084 
L 166.63364 100.128 
L 172.260747 102.066362 
L 177.960867 103.778148 
L 183.724881 105.260622 
L 189.543567 106.51141 
L 195.407617 107.528513 
L 201.30765 108.310303 
L 207.234226 108.855529 
L 213.177865 109.163319 
L 219.129058 109.233181 
L 225.078285 109.065002 
L 231.016028 108.659052 
L 255.415187 106.297995 
L 262.783223 105.26709 
L 270.123186 104.052326 
L 277.43049 102.654461 
L 284.700568 101.07437 
L 288.68159 100.128 
L 295.929255 101.807902 
L 303.216648 103.306107 
L 310.539215 104.621677 
L 317.89238 105.753792 
L 325.271547 106.701742 
L 332.672105 107.464937 
L 340.089428 108.042898 
L 347.51888 108.435265 
L 354.955819 108.641792 
L 362.395597 108.662351 
L 369.833564 108.496928 
L 377.265072 108.145627 
L 384.96 107.585221 
L 377.540097 107.041392 
L 370.108917 106.683211 
L 362.671107 106.510902 
L 355.231313 106.524573 
L 347.794186 106.724215 
L 340.364373 107.109703 
L 332.946519 107.680797 
L 325.545258 108.43714 
L 318.165216 109.378258 
L 310.811006 110.503564 
L 303.487224 111.812355 
L 296.198447 113.303812 
L 288.94923 114.977003 
L 281.744104 116.830883 
L 274.587571 118.864294 
L 267.484105 121.075963 
L 260.438144 123.46451 
L 253.454092 126.028441 
L 246.536315 128.766154 
L 239.689135 131.675937 
L 236.16 133.255482 
L 242.968798 136.253979 
L 249.850424 139.081336 
L 256.800575 141.735787 
L 263.814909 144.215673 
L 270.889042 146.519444 
L 278.018553 148.64566 
L 285.198986 150.592992 
L 292.425853 152.360224 
L 299.694638 153.946251 
L 301.221775 154.255359 
L 304.77477 147.718774 
L 308.163257 141.095416 
L 311.385119 134.389425 
L 314.438341 127.60499 
L 317.321017 120.746353 
L 320.031343 113.8178 
L 322.567627 106.823661 
L 324.81266 100.128 
L 327.182271 107.180351 
L 329.727432 114.171265 
L 332.446552 121.096372 
L 335.337933 127.951343 
L 338.399766 134.731896 
L 341.630138 141.433792 
L 345.027032 148.052843 
L 348.588322 154.584912 
L 352.311785 161.025917 
L 356.195092 167.371832 
L 360.235817 173.618692 
L 364.431435 179.762592 
L 368.779324 185.799692 
L 373.276765 191.726221 
L 377.920949 197.538473 
L 382.708973 203.232816 
L 384.96 205.812833 
L 380.106779 211.451713 
L 375.396032 217.210148 
L 370.830703 223.084541 
L 366.413645 229.071219 
L 362.147619 235.166442 
L 358.03529 241.366399 
L 354.079229 247.667216 
L 353.313713 248.928 
L 349.388929 242.607653 
L 345.30738 236.38739 
L 341.071615 230.271099 
L 336.684283 224.262602 
L 332.148125 218.365655 
L 327.465976 212.583942 
L 322.640763 206.921078 
L 317.6755 201.380601 
L 313.264299 196.683567 
L 309.636022 203.178667 
L 306.171239 209.762435 
L 302.872116 216.430756 
L 299.740714 223.179462 
L 296.778991 230.004337 
L 293.988797 236.901114 
L 291.371877 243.865484 
L 289.592919 248.928 
L 287.101992 241.917579 
L 284.436602 234.971615 
L 281.598414 228.09445 
L 278.589201 221.290381 
L 275.410845 214.56366 
L 272.065331 207.918492 
L 268.554751 201.35903 
L 264.881298 194.889373 
L 261.047269 188.513564 
L 257.055059 182.235589 
L 252.907164 176.05937 
L 248.606175 169.988767 
L 244.154781 164.027575 
L 239.555764 158.179519 
L 236.16 154.047392 
L 240.863371 148.28293 
L 245.421175 142.402697 
L 249.830565 136.410369 
L 254.088784 130.30969 
L 258.193172 124.104472 
L 262.141162 117.798595 
L 265.930289 111.395999 
L 269.558183 104.900685 
L 272.090399 100.128 
L 275.59978 106.688104 
L 279.272049 113.158433 
L 283.104913 119.534942 
L 287.095975 125.813647 
L 291.242741 131.990625 
L 295.54262 138.062013 
L 299.992924 144.024019 
L 304.590872 149.872916 
L 306.762199 152.533476 
L 309.137961 157.990337 
L 311.293607 163.537838 
L 313.225688 169.167105 
L 314.931113 174.869131 
L 316.407153 180.634796 
L 317.651447 186.454874 
L 318.662005 192.320056 
L 319.065573 195.163834 
L 315.556351 190.356865 
L 312.242164 185.413411 
L 309.128314 180.341378 
L 306.219781 175.148881 
L 303.521219 169.844228 
L 301.036946 164.435905 
L 298.770935 158.932562 
L 297.756569 156.24537 
L 302.230128 160.170781 
L 306.543134 164.271947 
L 310.688687 168.542306 
L 314.660155 172.975028 
L 318.451185 177.56302 
L 322.055712 182.298943 
L 325.467969 187.175221 
L 327.044247 189.576323 
L 321.821947 186.721648 
L 316.717981 183.660421 
L 311.740514 180.397538 
L 306.897509 176.938219 
L 302.196714 173.287999 
L 297.645649 169.452717 
L 293.251595 165.438509 
L 291.189371 163.439216 
L 296.908731 165.085577 
L 302.557679 166.959335 
L 308.127178 169.057491 
L 313.608318 171.37669 
L 318.992331 173.913221 
L 324.270602 176.663026 
L 329.434689 179.621706 
L 331.883473 181.122838 
L 325.942689 180.764134 
L 320.021002 180.168149 
L 314.127884 179.335836 
L 308.272764 178.268528 
L 302.465008 176.96793 
L 296.713908 175.436125 
L 291.028664 173.675562 
L 288.311335 172.744936 
L 282.11587 168.625843 
L 275.819375 164.662907 
L 269.425784 160.858605 
L 262.939093 157.215315 
L 256.363356 153.735315 
L 249.702684 150.420778 
L 242.961238 147.273776 
L 236.16 144.303351 
L 242.977824 141.325434 
L 249.719078 138.17802 
L 256.379548 134.863076 
L 262.955072 131.382673 
L 269.44154 127.738987 
L 275.834898 123.934294 
L 282.131151 119.970973 
L 288.326364 115.8515 
L 294.416665 111.578451 
L 300.398248 107.154495 
L 306.267374 102.582398 
L 309.297175 100.128 
L 315.105895 104.776601 
L 321.029002 109.278547 
L 327.062795 113.631024 
L 333.203504 117.831312 
L 339.447289 121.876786 
L 345.790251 125.764917 
L 352.228423 129.493275 
L 358.757782 133.059531 
L 365.374248 136.461455 
L 372.073687 139.696923 
L 378.851909 142.76391 
L 384.96 145.355472 
L 378.115086 148.270583 
L 371.345181 151.355888 
L 364.654517 154.609459 
L 358.047274 158.029263 
L 351.527581 161.613161 
L 345.099515 165.358915 
L 338.767091 169.264184 
L 332.83585 173.124816 
L 327.160546 174.917163 
L 321.418107 176.481125 
L 315.61772 177.8142 
L 309.768664 178.914255 
L 303.880296 179.779531 
L 297.962036 180.408642 
L 292.023352 180.800583 
L 289.170139 180.904224 
L 294.297073 177.881621 
L 299.540778 175.066459 
L 304.892865 172.463241 
L 310.344772 170.076132 
L 315.887777 167.90895 
L 321.513012 165.965163 
L 327.211479 164.24788 
L 329.968319 163.505316 
L 325.652347 167.603361 
L 321.17595 171.525535 
L 316.546288 175.265563 
L 311.770768 178.817463 
L 306.85703 182.175551 
L 301.812935 185.334457 
L 296.646552 188.289125 
L 294.127286 189.632579 
L 297.411238 184.668988 
L 300.891054 179.84069 
L 304.561167 175.155409 
L 308.415705 170.620642 
L 312.448502 166.243642 
L 316.653107 162.031412 
L 321.022793 157.990692 
L 323.175452 156.115157 
L 321.091718 161.690069 
L 318.786715 167.177193 
L 316.264128 172.567754 
L 313.527995 177.853125 
L 310.582691 183.024853 
L 307.43293 188.074663 
L 304.083749 192.994477 
L 302.407953 195.30603 
L 303.184743 189.405337 
L 304.196876 183.540427 
L 305.442733 177.720683 
L 306.920322 171.955415 
L 308.627277 166.253847 
L 310.56087 160.625099 
L 312.718005 155.078177 
L 313.831107 152.449 
L 314.401047 158.37325 
L 314.733624 164.315554 
L 314.828307 170.266404 
L 314.684944 176.21628 
L 314.303763 182.155664 
L 313.685375 188.075054 
L 312.83077 193.964981 
L 312.337374 196.77712 
L 310.449895 191.132742 
L 308.789641 185.4174 
L 307.359268 179.640236 
L 306.161064 173.810495 
L 305.196946 167.937501 
L 304.468456 162.03065 
L 303.97676 156.099393 
L 303.82518 153.248324 
L 306.933523 158.323734 
L 309.836418 163.519384 
L 312.52922 168.826963 
L 315.007622 174.237981 
L 317.267658 179.743779 
L 319.305713 185.335551 
L 321.118527 191.00435 
L 321.90732 193.748321 
L 317.737316 189.501834 
L 313.740462 185.091988 
L 309.923152 180.525839 
L 306.291492 175.81069 
L 302.851293 170.954085 
L 299.608059 165.963793 
L 296.566977 160.847799 
L 295.181372 158.351468 
L 300.199455 161.551534 
L 305.085556 164.949709 
L 309.831858 168.540559 
L 314.430767 172.318337 
L 318.874928 176.277001 
L 323.157229 180.410218 
L 327.27082 184.711375 
L 329.182268 186.832207 
L 323.573123 184.842465 
L 318.048034 182.630009 
L 312.615838 180.198377 
L 307.285227 177.55146 
L 302.064728 174.693494 
L 296.962694 171.629049 
L 291.987285 168.363028 
L 289.647894 166.726319 
L 289.647894 166.726319 
" style="fill:none;stroke:#1f77b4;stroke-linecap:square;stroke-width:1.5;"/>
   </g>
   <g id="patch_5">
    <path d="M 57.6 263.808 
L 57.6 85.248 
" style="fill:none;stroke:#000000;stroke-linecap:square;stroke-linejoin:miter;stroke-width:0.8;"/>
   </g>
   <g id="patch_6">
    <path d="M 414.72 263.808 
L 414.72 85.248 
" style="fill:none;stroke:#000000;stroke-linecap:square;stroke-linejoin:miter;stroke-width:0.8;"/>
   </g>
   <g id="patch_7">
    <path d="M 57.6 263.808 
L 414.72 263.808 
" style="fill:none;stroke:#000000;stroke-linecap:square;stroke-linejoin:miter;stroke-width:0.8;"/>
   </g>
   <g id="patch_8">
    <path d="M 57.6 85.248 
L 414.72 85.248 
" style="fill:none;stroke:#000000;stroke-linecap:square;stroke-linejoin:miter;stroke-width:0.8;"/>
   </g>
  </g>
 </g>
 <defs>
  <clipPath id="p3622806c65">
   <rect height="178.56" width="357.12" x="57.6" y="85.248"/>
  </clipPath>
 </defs>
</svg>
