<?xml version="1.0" encoding="utf-8" standalone="no"?>
<!DOCTYPE svg PUBLIC "-//W3C//DTD SVG 1.1//EN"
  "http://www.w3.org/Graphics/SVG/1.1/DTD/svg11.dtd">
<!-- Created with matplotlib (https://matplotlib.org/) -->
<svg height="345.6pt" version="1.1" viewBox="0 0 460.8 345.6" width="460.8pt" xmlns="http://www.w3.org/2000/svg" xmlns:xlink="http://www.w3.org/1999/xlink">
 <defs>
  <style type="text/css">
*{stroke-linecap:butt;stroke-linejoin:round;}
  </style>
 </defs>
 <g id="figure_1">
  <g id="patch_1">
   <path d="M 0 345.6 
L 460.8 345.6 
L 460.8 0 
L 0 0 
z
" style="fill:#ffffff;"/>
  </g>
  <g id="axes_1">
   <g id="patch_2">
    <path d="M 57.6 263.808 
L 414.72 263.808 
L 414.72 85.248 
L 57.6 85.248 
z
" style="fill:#ffffff;"/>
   </g>
   <g id="PathCollection_1">
    <defs>
     <path d="M 0 3 
C 0.795609 3 1.55874 2.683901 2.12132 2.12132 
C 2.683901 1.55874 3 0.795609 3 0 
C 3 -0.795609 2.683901 -1.55874 2.12132 -2.12132 
C 1.55874 -2.683901 0.795609 -3 0 -3 
C -0.795609 -3 -1.55874 -2.683901 -2.12132 -2.12132 
C -2.683901 -1.55874 -3 -0.795609 -3 0 
C -3 0.795609 -2.683901 1.55874 -2.12132 2.12132 
C -1.55874 2.683901 -0.795609 3 0 3 
z
" id="m09ba3d6ff9" style="stroke:#000000;"/>
    </defs>
    <g clip-path="url(#p5dfca55f86)">
     <use style="stroke:#000000;" x="119.699863" xlink:href="#m09ba3d6ff9" y="170.29551"/>
    </g>
   </g>
   <g id="patch_3">
    <path clip-path="url(#p5dfca55f86)" d="M 161.76 211.728 
C 171.625555 211.728 181.088371 207.808373 188.064372 200.832372 
C 195.040373 193.856371 198.96 184.393555 198.96 174.528 
C 198.96 164.662445 195.040373 155.199629 188.064372 148.223628 
C 181.088371 141.247627 171.625555 137.328 161.76 137.328 
C 151.894445 137.328 142.431629 141.247627 135.455628 148.223628 
C 128.479627 155.199629 124.56 164.662445 124.56 174.528 
C 124.56 184.393555 128.479627 193.856371 135.455628 200.832372 
C 142.431629 207.808373 151.894445 211.728 161.76 211.728 
z
" style="fill:#cc0000;fill-opacity:0.1;stroke:#cc0000;stroke-dasharray:7.4,3.2;stroke-dashoffset:0;stroke-linejoin:miter;stroke-width:2;"/>
   </g>
   <g id="patch_4">
    <path clip-path="url(#p5dfca55f86)" d="M 310.56 196.848 
C 316.479333 196.848 322.157023 194.496224 326.342623 190.310623 
C 330.528224 186.125023 332.88 180.447333 332.88 174.528 
C 332.88 168.608667 330.528224 162.930977 326.342623 158.745377 
C 322.157023 154.559776 316.479333 152.208 310.56 152.208 
C 304.640667 152.208 298.962977 154.559776 294.777377 158.745377 
C 290.591776 162.930977 288.24 168.608667 288.24 174.528 
C 288.24 180.447333 290.591776 186.125023 294.777377 190.310623 
C 298.962977 194.496224 304.640667 196.848 310.56 196.848 
z
" style="fill:#cc0000;fill-opacity:0.1;stroke:#cc0000;stroke-dasharray:7.4,3.2;stroke-dashoffset:0;stroke-linejoin:miter;stroke-width:2;"/>
   </g>
   <g id="matplotlib.axis_1">
    <g id="xtick_1">
     <g id="line2d_1">
      <defs>
       <path d="M 0 0 
L 0 3.5 
" id="mbdda51818e" style="stroke:#000000;stroke-width:0.8;"/>
      </defs>
      <g>
       <use style="stroke:#000000;stroke-width:0.8;" x="87.36" xlink:href="#mbdda51818e" y="263.808"/>
      </g>
     </g>
     <g id="text_1">
      <!-- 0.0 -->
      <defs>
       <path d="M 31.78125 66.40625 
Q 24.171875 66.40625 20.328125 58.90625 
Q 16.5 51.421875 16.5 36.375 
Q 16.5 21.390625 20.328125 13.890625 
Q 24.171875 6.390625 31.78125 6.390625 
Q 39.453125 6.390625 43.28125 13.890625 
Q 47.125 21.390625 47.125 36.375 
Q 47.125 51.421875 43.28125 58.90625 
Q 39.453125 66.40625 31.78125 66.40625 
z
M 31.78125 74.21875 
Q 44.046875 74.21875 50.515625 64.515625 
Q 56.984375 54.828125 56.984375 36.375 
Q 56.984375 17.96875 50.515625 8.265625 
Q 44.046875 -1.421875 31.78125 -1.421875 
Q 19.53125 -1.421875 13.0625 8.265625 
Q 6.59375 17.96875 6.59375 36.375 
Q 6.59375 54.828125 13.0625 64.515625 
Q 19.53125 74.21875 31.78125 74.21875 
z
" id="DejaVuSans-48"/>
       <path d="M 10.6875 12.40625 
L 21 12.40625 
L 21 0 
L 10.6875 0 
z
" id="DejaVuSans-46"/>
      </defs>
      <g transform="translate(79.408438 278.406437)scale(0.1 -0.1)">
       <use xlink:href="#DejaVuSans-48"/>
       <use x="63.623047" xlink:href="#DejaVuSans-46"/>
       <use x="95.410156" xlink:href="#DejaVuSans-48"/>
      </g>
     </g>
    </g>
    <g id="xtick_2">
     <g id="line2d_2">
      <g>
       <use style="stroke:#000000;stroke-width:0.8;" x="161.76" xlink:href="#mbdda51818e" y="263.808"/>
      </g>
     </g>
     <g id="text_2">
      <!-- 0.5 -->
      <defs>
       <path d="M 10.796875 72.90625 
L 49.515625 72.90625 
L 49.515625 64.59375 
L 19.828125 64.59375 
L 19.828125 46.734375 
Q 21.96875 47.46875 24.109375 47.828125 
Q 26.265625 48.1875 28.421875 48.1875 
Q 40.625 48.1875 47.75 41.5 
Q 54.890625 34.8125 54.890625 23.390625 
Q 54.890625 11.625 47.5625 5.09375 
Q 40.234375 -1.421875 26.90625 -1.421875 
Q 22.3125 -1.421875 17.546875 -0.640625 
Q 12.796875 0.140625 7.71875 1.703125 
L 7.71875 11.625 
Q 12.109375 9.234375 16.796875 8.0625 
Q 21.484375 6.890625 26.703125 6.890625 
Q 35.15625 6.890625 40.078125 11.328125 
Q 45.015625 15.765625 45.015625 23.390625 
Q 45.015625 31 40.078125 35.4375 
Q 35.15625 39.890625 26.703125 39.890625 
Q 22.75 39.890625 18.8125 39.015625 
Q 14.890625 38.140625 10.796875 36.28125 
z
" id="DejaVuSans-53"/>
      </defs>
      <g transform="translate(153.808437 278.406437)scale(0.1 -0.1)">
       <use xlink:href="#DejaVuSans-48"/>
       <use x="63.623047" xlink:href="#DejaVuSans-46"/>
       <use x="95.410156" xlink:href="#DejaVuSans-53"/>
      </g>
     </g>
    </g>
    <g id="xtick_3">
     <g id="line2d_3">
      <g>
       <use style="stroke:#000000;stroke-width:0.8;" x="236.16" xlink:href="#mbdda51818e" y="263.808"/>
      </g>
     </g>
     <g id="text_3">
      <!-- 1.0 -->
      <defs>
       <path d="M 12.40625 8.296875 
L 28.515625 8.296875 
L 28.515625 63.921875 
L 10.984375 60.40625 
L 10.984375 69.390625 
L 28.421875 72.90625 
L 38.28125 72.90625 
L 38.28125 8.296875 
L 54.390625 8.296875 
L 54.390625 0 
L 12.40625 0 
z
" id="DejaVuSans-49"/>
      </defs>
      <g transform="translate(228.208437 278.406437)scale(0.1 -0.1)">
       <use xlink:href="#DejaVuSans-49"/>
       <use x="63.623047" xlink:href="#DejaVuSans-46"/>
       <use x="95.410156" xlink:href="#DejaVuSans-48"/>
      </g>
     </g>
    </g>
    <g id="xtick_4">
     <g id="line2d_4">
      <g>
       <use style="stroke:#000000;stroke-width:0.8;" x="310.56" xlink:href="#mbdda51818e" y="263.808"/>
      </g>
     </g>
     <g id="text_4">
      <!-- 1.5 -->
      <g transform="translate(302.608437 278.406437)scale(0.1 -0.1)">
       <use xlink:href="#DejaVuSans-49"/>
       <use x="63.623047" xlink:href="#DejaVuSans-46"/>
       <use x="95.410156" xlink:href="#DejaVuSans-53"/>
      </g>
     </g>
    </g>
    <g id="xtick_5">
     <g id="line2d_5">
      <g>
       <use style="stroke:#000000;stroke-width:0.8;" x="384.96" xlink:href="#mbdda51818e" y="263.808"/>
      </g>
     </g>
     <g id="text_5">
      <!-- 2.0 -->
      <defs>
       <path d="M 19.1875 8.296875 
L 53.609375 8.296875 
L 53.609375 0 
L 7.328125 0 
L 7.328125 8.296875 
Q 12.9375 14.109375 22.625 23.890625 
Q 32.328125 33.6875 34.8125 36.53125 
Q 39.546875 41.84375 41.421875 45.53125 
Q 43.3125 49.21875 43.3125 52.78125 
Q 43.3125 58.59375 39.234375 62.25 
Q 35.15625 65.921875 28.609375 65.921875 
Q 23.96875 65.921875 18.8125 64.3125 
Q 13.671875 62.703125 7.8125 59.421875 
L 7.8125 69.390625 
Q 13.765625 71.78125 18.9375 73 
Q 24.125 74.21875 28.421875 74.21875 
Q 39.75 74.21875 46.484375 68.546875 
Q 53.21875 62.890625 53.21875 53.421875 
Q 53.21875 48.921875 51.53125 44.890625 
Q 49.859375 40.875 45.40625 35.40625 
Q 44.1875 33.984375 37.640625 27.21875 
Q 31.109375 20.453125 19.1875 8.296875 
z
" id="DejaVuSans-50"/>
      </defs>
      <g transform="translate(377.008437 278.406437)scale(0.1 -0.1)">
       <use xlink:href="#DejaVuSans-50"/>
       <use x="63.623047" xlink:href="#DejaVuSans-46"/>
       <use x="95.410156" xlink:href="#DejaVuSans-48"/>
      </g>
     </g>
    </g>
   </g>
   <g id="matplotlib.axis_2">
    <g id="ytick_1">
     <g id="line2d_6">
      <defs>
       <path d="M 0 0 
L -3.5 0 
" id="m54bc5344dd" style="stroke:#000000;stroke-width:0.8;"/>
      </defs>
      <g>
       <use style="stroke:#000000;stroke-width:0.8;" x="57.6" xlink:href="#m54bc5344dd" y="248.928"/>
      </g>
     </g>
     <g id="text_6">
      <!-- 0.0 -->
      <g transform="translate(34.696875 252.727219)scale(0.1 -0.1)">
       <use xlink:href="#DejaVuSans-48"/>
       <use x="63.623047" xlink:href="#DejaVuSans-46"/>
       <use x="95.410156" xlink:href="#DejaVuSans-48"/>
      </g>
     </g>
    </g>
    <g id="ytick_2">
     <g id="line2d_7">
      <g>
       <use style="stroke:#000000;stroke-width:0.8;" x="57.6" xlink:href="#m54bc5344dd" y="219.168"/>
      </g>
     </g>
     <g id="text_7">
      <!-- 0.2 -->
      <g transform="translate(34.696875 222.967219)scale(0.1 -0.1)">
       <use xlink:href="#DejaVuSans-48"/>
       <use x="63.623047" xlink:href="#DejaVuSans-46"/>
       <use x="95.410156" xlink:href="#DejaVuSans-50"/>
      </g>
     </g>
    </g>
    <g id="ytick_3">
     <g id="line2d_8">
      <g>
       <use style="stroke:#000000;stroke-width:0.8;" x="57.6" xlink:href="#m54bc5344dd" y="189.408"/>
      </g>
     </g>
     <g id="text_8">
      <!-- 0.4 -->
      <defs>
       <path d="M 37.796875 64.3125 
L 12.890625 25.390625 
L 37.796875 25.390625 
z
M 35.203125 72.90625 
L 47.609375 72.90625 
L 47.609375 25.390625 
L 58.015625 25.390625 
L 58.015625 17.1875 
L 47.609375 17.1875 
L 47.609375 0 
L 37.796875 0 
L 37.796875 17.1875 
L 4.890625 17.1875 
L 4.890625 26.703125 
z
" id="DejaVuSans-52"/>
      </defs>
      <g transform="translate(34.696875 193.207219)scale(0.1 -0.1)">
       <use xlink:href="#DejaVuSans-48"/>
       <use x="63.623047" xlink:href="#DejaVuSans-46"/>
       <use x="95.410156" xlink:href="#DejaVuSans-52"/>
      </g>
     </g>
    </g>
    <g id="ytick_4">
     <g id="line2d_9">
      <g>
       <use style="stroke:#000000;stroke-width:0.8;" x="57.6" xlink:href="#m54bc5344dd" y="159.648"/>
      </g>
     </g>
     <g id="text_9">
      <!-- 0.6 -->
      <defs>
       <path d="M 33.015625 40.375 
Q 26.375 40.375 22.484375 35.828125 
Q 18.609375 31.296875 18.609375 23.390625 
Q 18.609375 15.53125 22.484375 10.953125 
Q 26.375 6.390625 33.015625 6.390625 
Q 39.65625 6.390625 43.53125 10.953125 
Q 47.40625 15.53125 47.40625 23.390625 
Q 47.40625 31.296875 43.53125 35.828125 
Q 39.65625 40.375 33.015625 40.375 
z
M 52.59375 71.296875 
L 52.59375 62.3125 
Q 48.875 64.0625 45.09375 64.984375 
Q 41.3125 65.921875 37.59375 65.921875 
Q 27.828125 65.921875 22.671875 59.328125 
Q 17.53125 52.734375 16.796875 39.40625 
Q 19.671875 43.65625 24.015625 45.921875 
Q 28.375 48.1875 33.59375 48.1875 
Q 44.578125 48.1875 50.953125 41.515625 
Q 57.328125 34.859375 57.328125 23.390625 
Q 57.328125 12.15625 50.6875 5.359375 
Q 44.046875 -1.421875 33.015625 -1.421875 
Q 20.359375 -1.421875 13.671875 8.265625 
Q 6.984375 17.96875 6.984375 36.375 
Q 6.984375 53.65625 15.1875 63.9375 
Q 23.390625 74.21875 37.203125 74.21875 
Q 40.921875 74.21875 44.703125 73.484375 
Q 48.484375 72.75 52.59375 71.296875 
z
" id="DejaVuSans-54"/>
      </defs>
      <g transform="translate(34.696875 163.447219)scale(0.1 -0.1)">
       <use xlink:href="#DejaVuSans-48"/>
       <use x="63.623047" xlink:href="#DejaVuSans-46"/>
       <use x="95.410156" xlink:href="#DejaVuSans-54"/>
      </g>
     </g>
    </g>
    <g id="ytick_5">
     <g id="line2d_10">
      <g>
       <use style="stroke:#000000;stroke-width:0.8;" x="57.6" xlink:href="#m54bc5344dd" y="129.888"/>
      </g>
     </g>
     <g id="text_10">
      <!-- 0.8 -->
      <defs>
       <path d="M 31.78125 34.625 
Q 24.75 34.625 20.71875 30.859375 
Q 16.703125 27.09375 16.703125 20.515625 
Q 16.703125 13.921875 20.71875 10.15625 
Q 24.75 6.390625 31.78125 6.390625 
Q 38.8125 6.390625 42.859375 10.171875 
Q 46.921875 13.96875 46.921875 20.515625 
Q 46.921875 27.09375 42.890625 30.859375 
Q 38.875 34.625 31.78125 34.625 
z
M 21.921875 38.8125 
Q 15.578125 40.375 12.03125 44.71875 
Q 8.5 49.078125 8.5 55.328125 
Q 8.5 64.0625 14.71875 69.140625 
Q 20.953125 74.21875 31.78125 74.21875 
Q 42.671875 74.21875 48.875 69.140625 
Q 55.078125 64.0625 55.078125 55.328125 
Q 55.078125 49.078125 51.53125 44.71875 
Q 48 40.375 41.703125 38.8125 
Q 48.828125 37.15625 52.796875 32.3125 
Q 56.78125 27.484375 56.78125 20.515625 
Q 56.78125 9.90625 50.3125 4.234375 
Q 43.84375 -1.421875 31.78125 -1.421875 
Q 19.734375 -1.421875 13.25 4.234375 
Q 6.78125 9.90625 6.78125 20.515625 
Q 6.78125 27.484375 10.78125 32.3125 
Q 14.796875 37.15625 21.921875 38.8125 
z
M 18.3125 54.390625 
Q 18.3125 48.734375 21.84375 45.5625 
Q 25.390625 42.390625 31.78125 42.390625 
Q 38.140625 42.390625 41.71875 45.5625 
Q 45.3125 48.734375 45.3125 54.390625 
Q 45.3125 60.0625 41.71875 63.234375 
Q 38.140625 66.40625 31.78125 66.40625 
Q 25.390625 66.40625 21.84375 63.234375 
Q 18.3125 60.0625 18.3125 54.390625 
z
" id="DejaVuSans-56"/>
      </defs>
      <g transform="translate(34.696875 133.687219)scale(0.1 -0.1)">
       <use xlink:href="#DejaVuSans-48"/>
       <use x="63.623047" xlink:href="#DejaVuSans-46"/>
       <use x="95.410156" xlink:href="#DejaVuSans-56"/>
      </g>
     </g>
    </g>
    <g id="ytick_6">
     <g id="line2d_11">
      <g>
       <use style="stroke:#000000;stroke-width:0.8;" x="57.6" xlink:href="#m54bc5344dd" y="100.128"/>
      </g>
     </g>
     <g id="text_11">
      <!-- 1.0 -->
      <g transform="translate(34.696875 103.927219)scale(0.1 -0.1)">
       <use xlink:href="#DejaVuSans-49"/>
       <use x="63.623047" xlink:href="#DejaVuSans-46"/>
       <use x="95.410156" xlink:href="#DejaVuSans-48"/>
      </g>
     </g>
    </g>
   </g>
   <g id="line2d_12">
    <path clip-path="url(#p5dfca55f86)" d="M 236.16 248.928 
L 236.16 100.128 
" style="fill:none;stroke:#cc0000;stroke-dasharray:7.4,3.2;stroke-dashoffset:0;stroke-width:2;"/>
   </g>
   <g id="line2d_13">
    <path clip-path="url(#p5dfca55f86)" d="M 87.36 248.928 
L 384.96 248.928 
" style="fill:none;stroke:#009900;stroke-linecap:square;stroke-width:2;"/>
   </g>
   <g id="line2d_14">
    <path clip-path="url(#p5dfca55f86)" d="M 384.96 248.928 
L 384.96 100.128 
" style="fill:none;stroke:#009900;stroke-linecap:square;stroke-width:2;"/>
   </g>
   <g id="line2d_15">
    <path clip-path="url(#p5dfca55f86)" d="M 384.96 100.128 
L 87.36 100.128 
" style="fill:none;stroke:#009900;stroke-linecap:square;stroke-width:2;"/>
   </g>
   <g id="line2d_16">
    <path clip-path="url(#p5dfca55f86)" d="M 87.36 100.128 
L 87.36 248.928 
" style="fill:none;stroke:#009900;stroke-linecap:square;stroke-width:2;"/>
   </g>
   <g id="line2d_17">
    <path clip-path="url(#p5dfca55f86)" d="M 119.699863 170.29551 
L 116.123851 165.538019 
L 112.360451 160.927336 
L 108.415683 156.470837 
L 104.295857 152.175651 
L 100.007566 148.04865 
L 95.557669 144.096436 
L 90.953284 140.325332 
L 87.36 137.587718 
L 92.076734 133.958117 
L 96.644549 130.142801 
L 101.056139 126.147872 
L 105.304446 121.979722 
L 109.382673 117.64502 
L 113.284295 113.150699 
L 117.003072 108.50395 
L 120.533054 103.712206 
L 122.986854 100.128 
L 126.375469 105.020737 
L 129.957031 109.774051 
L 133.725809 114.380339 
L 137.675775 118.832231 
L 141.80061 123.122606 
L 146.093715 127.2446 
L 150.548222 131.191618 
L 155.157004 134.957347 
L 158.460669 137.474601 
L 162.456265 133.063615 
L 166.272273 128.496377 
L 169.902588 123.780193 
L 173.341401 118.922607 
L 176.583213 113.93139 
L 179.622836 108.814529 
L 182.455407 103.580207 
L 184.178976 100.128 
L 186.874875 105.434007 
L 189.780801 110.627963 
L 192.892105 115.701557 
L 196.203811 120.646675 
L 199.710619 125.455404 
L 203.40692 130.120052 
L 207.286801 134.633156 
L 211.344054 138.987496 
L 215.572189 143.176106 
L 219.964442 147.192285 
L 224.513786 151.029609 
L 229.212943 154.681938 
L 234.054395 158.143429 
L 236.16 159.559891 
L 243.311455 161.611088 
L 250.51195 163.482877 
L 257.756984 165.174086 
L 265.042031 166.683661 
L 272.362536 168.010656 
L 279.713926 169.154243 
L 287.091605 170.113707 
L 290.115526 170.523513 
L 295.96963 171.596382 
L 301.776147 172.902495 
L 307.52579 174.439763 
L 313.209359 176.205724 
L 318.817763 178.197556 
L 324.342028 180.41207 
L 329.773317 182.845725 
L 332.336857 184.140132 
L 338.960664 187.527742 
L 345.667082 190.748716 
L 352.45192 193.801041 
L 359.310939 196.682808 
L 366.23985 199.392218 
L 373.234325 201.927576 
L 380.289992 204.287298 
L 384.96 205.742301 
L 377.866503 207.985739 
L 370.831303 210.405796 
L 363.858796 213.000958 
L 356.95334 215.769604 
L 350.119251 218.710002 
L 343.3608 221.820317 
L 336.682211 225.098603 
L 330.087657 228.542812 
L 323.58126 232.150792 
L 317.167086 235.920287 
L 310.849145 239.848942 
L 304.631383 243.934301 
L 297.463478 248.928 
L 291.368306 244.661901 
L 285.168397 240.549499 
L 278.867627 236.593363 
L 272.469932 232.795967 
L 265.979312 229.159683 
L 259.399822 225.686783 
L 252.735574 222.37944 
L 245.990735 219.239718 
L 239.169517 216.269581 
L 236.16 215.02301 
L 231.823355 210.946849 
L 227.327176 207.047367 
L 222.678656 203.330804 
L 217.885232 199.803105 
L 212.954571 196.469914 
L 207.894562 193.336562 
L 202.7133 190.408064 
L 197.419073 187.689103 
L 196.686428 187.333649 
L 202.475994 188.712961 
L 208.316087 189.859648 
L 214.197364 190.771877 
L 220.110416 191.448188 
L 226.045784 191.887499 
L 231.993971 192.089108 
L 236.16 192.088616 
L 228.721215 192.169573 
L 222.778903 192.501991 
L 216.854637 193.071773 
L 210.957895 193.878006 
L 205.09811 194.919401 
L 199.284657 196.194292 
L 193.526836 197.70064 
L 189.995511 198.747743 
L 189.236831 204.650792 
L 188.714817 210.579458 
L 188.430305 216.524257 
L 188.383748 222.475678 
L 188.575222 228.4242 
L 189.004421 234.360308 
L 189.670657 240.274503 
L 190.572865 246.157326 
L 191.081748 248.928 
L 192.09516 243.063311 
L 192.873237 237.162788 
L 193.414734 231.235869 
L 193.718783 225.292037 
L 193.7849 219.340802 
L 193.612977 213.391682 
L 193.203291 207.454196 
L 192.556497 201.537843 
L 191.808731 196.457746 
L 197.678036 195.471417 
L 203.503203 194.251167 
L 209.274913 192.798948 
L 214.983934 191.117084 
L 220.621131 189.208266 
L 226.177487 187.075547 
L 231.644112 184.722339 
L 236.16 182.578158 
L 230.775507 180.042647 
L 225.293927 177.724486 
L 219.724031 175.627385 
L 214.074728 173.754698 
L 208.355057 172.10942 
L 202.574167 170.694184 
L 198.66787 169.87514 
L 194.213658 169.58999 
L 189.78456 169.038261 
L 185.396515 168.221938 
L 181.065317 167.143959 
L 176.806552 165.808203 
L 172.635548 164.219479 
L 168.567316 162.383504 
L 164.616497 160.306885 
L 160.797309 157.997096 
L 157.123499 155.462449 
L 153.608286 152.712067 
L 150.264323 149.755848 
L 147.103645 146.604431 
L 144.137625 143.269158 
L 143.289677 142.237333 
L 144.73701 146.459483 
L 145.928562 150.760822 
L 146.860044 155.125872 
L 147.528104 159.538923 
L 147.930337 163.984091 
L 148.065297 168.445381 
L 147.932497 172.906735 
L 147.532416 177.352098 
L 146.866492 181.765472 
L 145.937124 186.130972 
L 144.747654 190.432888 
L 143.302365 194.655738 
L 141.606458 198.784323 
L 139.666036 202.803786 
L 139.038987 203.982976 
L 142.381519 201.025138 
L 145.895399 198.273054 
L 149.567982 195.736629 
L 153.386051 193.424991 
L 157.335864 191.34646 
L 161.403207 189.508515 
L 165.573441 187.917772 
L 169.831559 186.579955 
L 174.162235 185.49988 
L 178.549884 184.681432 
L 182.978715 184.127559 
L 187.432788 183.840252 
L 191.896075 183.820547 
L 196.352512 184.068513 
L 197.68209 184.194615 
L 203.616604 183.743915 
L 209.528347 183.056259 
L 215.407863 182.132746 
L 221.245745 180.974853 
L 227.032653 179.584434 
L 232.759332 177.963712 
L 236.16 176.882663 
L 230.473832 175.125086 
L 224.721928 173.596301 
L 218.91349 172.298754 
L 213.05781 171.23452 
L 207.164256 170.405302 
L 201.242257 169.812427 
L 198.635747 169.627051 
L 194.172471 169.649167 
L 189.715901 169.403606 
L 185.282075 168.891254 
L 180.88695 168.113954 
L 176.546344 167.074503 
L 172.275878 165.776643 
L 168.090922 164.225043 
L 164.006537 162.425289 
L 160.037421 160.383858 
L 156.197861 158.108096 
L 152.501673 155.606194 
L 148.962161 152.887155 
L 145.592062 149.960766 
L 142.403506 146.837558 
L 140.075772 144.301617 
L 142.196504 148.228933 
L 144.077922 152.27635 
L 145.713256 156.429301 
L 147.096619 160.67284 
L 148.223033 164.991695 
L 149.088444 169.370323 
L 149.689739 173.792965 
L 150.024751 178.243705 
L 150.092277 182.706525 
L 149.892073 187.165363 
L 149.424859 191.604172 
L 148.692317 196.006978 
L 147.697083 200.357936 
L 146.44274 204.641385 
L 145.301254 207.8889 
L 147.767733 204.168981 
L 150.452835 200.603656 
L 153.346897 197.205756 
L 156.439502 193.987509 
L 159.719522 190.960499 
L 163.175151 188.135619 
L 166.793953 185.523036 
L 170.562903 183.132151 
L 174.468439 180.971571 
L 178.496504 179.049069 
L 182.632602 177.371567 
L 186.861846 175.945099 
L 191.169017 174.774801 
L 195.538613 173.864885 
L 198.941124 173.343096 
L 194.498054 172.918306 
L 190.088451 172.227857 
L 185.728185 171.274233 
L 181.432949 170.060865 
L 177.218199 168.592122 
L 173.099106 166.873288 
L 169.090493 164.910549 
L 165.206787 162.710971 
L 161.461966 160.282467 
L 157.869505 157.633779 
L 154.442336 154.774439 
L 151.19279 151.714738 
L 148.132564 148.465686 
L 145.272671 145.038978 
L 143.210489 142.282758 
L 144.927427 146.402642 
L 146.39423 150.618067 
L 147.60562 154.913861 
L 148.557237 159.274566 
L 149.245657 163.684486 
L 149.668401 168.127751 
L 149.823948 172.58837 
L 149.71174 177.05029 
L 149.332178 181.497452 
L 148.68663 185.913852 
L 147.777418 190.283595 
L 146.607815 194.590955 
L 145.18203 198.820429 
L 143.505195 202.956797 
L 141.52123 207.466739 
L 139.568803 213.088982 
L 137.842768 218.784804 
L 136.345886 224.545092 
L 135.080551 230.360632 
L 134.048788 236.222121 
L 133.252247 242.12018 
L 132.692203 248.045375 
L 132.629195 248.928 
L 132.104396 242.99958 
L 131.342944 237.096888 
L 130.346055 231.229368 
L 129.115326 225.406406 
L 127.652725 219.637318 
L 125.960591 213.931332 
L 124.041633 208.297579 
L 121.89892 202.745069 
L 119.535879 197.282687 
L 116.956292 191.919171 
L 114.164284 186.6631 
L 111.164323 181.522885 
L 107.961208 176.506747 
L 104.560063 171.622713 
L 100.96633 166.878594 
L 97.185757 162.281982 
L 93.224392 157.840229 
L 89.088573 153.560441 
L 87.36 151.86955 
L 91.564819 147.657534 
L 95.597839 143.28074 
L 99.452608 138.746168 
L 103.122958 134.061074 
L 106.60302 129.232953 
L 109.887224 124.269528 
L 112.970317 119.178741 
L 115.847366 113.968734 
L 118.51377 108.647844 
L 120.965262 103.224582 
L 122.250008 100.128 
L 124.578698 105.605115 
L 127.12455 110.984726 
L 129.883494 116.258227 
L 132.851114 121.417181 
L 136.022664 126.453335 
L 139.39307 131.358633 
L 142.956939 136.125227 
L 147.341978 141.841593 
L 149.523449 145.735499 
L 151.4675 149.753208 
L 153.167135 153.88026 
L 154.616237 158.101802 
L 155.809591 162.402643 
L 156.742902 166.767302 
L 157.412811 171.180072 
L 157.816907 175.625072 
L 157.953736 180.086304 
L 157.822805 184.547714 
L 157.424586 188.993244 
L 156.760511 193.406896 
L 155.832972 197.772786 
L 154.645305 202.0752 
L 153.201785 206.298654 
L 151.563093 210.303174 
L 152.308643 205.902552 
L 153.31673 201.554555 
L 154.583726 197.274831 
L 156.105072 193.078782 
L 157.875292 188.98151 
L 159.888015 184.99776 
L 162.135998 181.14187 
L 164.611151 177.427716 
L 167.304565 173.868666 
L 170.206548 170.477528 
L 173.306655 167.266507 
L 176.593728 164.247159 
L 180.05594 161.43035 
L 183.680828 158.826217 
L 187.455347 156.444134 
L 191.365914 154.292673 
L 192.57452 153.688006 
L 189.173704 156.578641 
L 185.605675 159.260148 
L 181.883271 161.722877 
L 178.019891 163.957964 
L 174.029438 165.957365 
L 169.926274 167.713885 
L 165.725166 169.221202 
L 161.441232 170.473891 
L 157.08989 171.467444 
L 152.686802 172.198285 
L 148.247812 172.663785 
L 143.788897 172.862267 
L 139.326104 172.793018 
L 134.875494 172.456286 
L 130.453084 171.853284 
L 126.074791 170.986181 
L 124.760384 170.67204 
L 119.197711 168.555853 
L 113.554862 166.663807 
L 107.840865 164.998928 
L 102.064862 163.563879 
L 96.236092 162.360957 
L 90.36388 161.392086 
L 87.36 160.989173 
L 93.250727 160.140103 
L 99.102788 159.056146 
L 104.906821 157.739035 
L 110.653541 156.190879 
L 116.333755 154.414154 
L 121.938375 152.411702 
L 127.458435 150.186726 
L 132.885105 147.742787 
L 138.209702 145.083794 
L 141.791546 143.141684 
L 146.55564 139.574474 
L 151.173274 135.819605 
L 155.637059 131.883083 
L 159.939854 127.771206 
L 164.074777 123.490553 
L 168.035211 119.04797 
L 171.814822 114.450566 
L 175.407562 109.705695 
L 178.807685 104.820949 
L 181.811475 100.128 
L 185.026332 105.13662 
L 188.438909 110.012674 
L 192.043746 114.74836 
L 195.835077 119.336104 
L 199.806836 123.768565 
L 203.952669 128.038653 
L 208.265944 132.139535 
L 212.739761 136.064653 
L 217.366961 139.807726 
L 222.140144 143.362766 
L 227.051672 146.724087 
L 232.093688 149.886309 
L 236.16 152.238212 
L 231.02068 155.239707 
L 226.005499 158.444319 
L 221.12248 161.846921 
L 216.379434 165.442071 
L 211.78395 169.224016 
L 207.343379 173.186706 
L 203.064826 177.323802 
L 198.955135 181.628685 
L 198.074169 182.597768 
L 199.924119 188.254557 
L 201.9988 193.832844 
L 204.294894 199.323703 
L 206.808727 204.71835 
L 209.536278 210.008157 
L 212.473182 215.184658 
L 215.614743 220.239575 
L 218.955933 225.164819 
L 222.491408 229.952511 
L 226.215511 234.594993 
L 230.122285 239.084836 
L 234.20548 243.414859 
L 236.16 245.36954 
L 232.654783 248.928 
L 228.464593 244.701431 
L 224.108737 240.645805 
L 219.594183 236.767611 
L 214.928154 233.073054 
L 210.118115 229.568043 
L 205.17176 226.258186 
L 200.097003 223.148778 
L 194.901961 220.244793 
L 189.594947 217.550877 
L 184.18445 215.071341 
L 178.679126 212.810149 
L 173.087782 210.770921 
L 171.81753 210.342607 
L 168.063446 214.960879 
L 164.497046 219.72558 
L 161.124036 224.629087 
L 157.949813 229.663557 
L 154.979453 234.820934 
L 152.21771 240.092969 
L 149.669 245.471228 
L 148.167079 248.928 
L 145.755402 243.486916 
L 143.128069 238.146625 
L 140.289283 232.915672 
L 137.243586 227.802424 
L 133.995849 222.815061 
L 130.551269 217.961562 
L 126.915356 213.249693 
L 123.093927 208.686989 
L 119.093095 204.280752 
L 114.91926 200.038031 
L 110.579101 195.965611 
L 106.07956 192.07001 
L 101.427836 188.357458 
L 96.63137 184.833895 
L 91.697836 181.504958 
L 87.36 178.80696 
L 92.404895 175.649332 
L 97.319483 172.292488 
L 102.095903 168.741797 
L 106.726511 165.002941 
L 111.203902 161.081901 
L 115.520911 156.98495 
L 119.670633 152.718641 
L 123.646428 148.2898 
L 127.441937 143.705513 
L 131.051087 138.973112 
L 134.468105 134.10017 
L 137.687524 129.09448 
L 140.704194 123.964053 
L 143.513288 118.717095 
L 146.110313 113.362 
L 148.491113 107.907335 
L 150.651881 102.361827 
L 151.451062 100.128 
L 153.52314 105.707254 
L 155.816671 111.199184 
L 158.327986 116.595004 
L 161.053068 121.886083 
L 163.987557 127.063954 
L 167.126758 132.120336 
L 170.465649 137.047139 
L 171.621925 138.659038 
L 177.043486 136.203788 
L 182.362527 133.533697 
L 187.570538 130.653037 
L 192.659187 127.566416 
L 197.620335 124.278772 
L 202.446043 120.795366 
L 207.128591 117.121768 
L 211.66049 113.263858 
L 216.034488 109.227805 
L 220.243589 105.020068 
L 224.281058 100.647377 
L 224.739566 100.128 
L 228.756632 104.519442 
L 232.946096 108.746731 
L 236.16 111.771324 
L 231.847014 115.872511 
L 227.701481 120.14289 
L 223.730034 124.575631 
L 219.939027 129.163641 
L 216.334523 133.899582 
L 212.922289 138.775876 
L 209.707784 143.784722 
L 206.696152 148.918108 
L 203.892209 154.167821 
L 201.300441 159.525462 
L 198.924995 164.982461 
L 198.163123 166.869497 
L 202.480358 170.966211 
L 206.957964 174.887004 
L 211.588779 178.625605 
L 216.365394 182.176032 
L 221.280167 185.532605 
L 226.325236 188.689955 
L 231.49253 191.64303 
L 236.16 194.081863 
L 230.891445 196.85024 
L 225.73781 199.827089 
L 220.70734 203.007647 
L 215.808082 206.386826 
L 211.047874 209.95922 
L 206.434331 213.719114 
L 201.974835 217.660494 
L 197.676518 221.777052 
L 193.546258 226.062205 
L 189.590663 230.509097 
L 185.816059 235.110613 
L 182.228487 239.859392 
L 178.833685 244.747837 
L 176.152525 248.928 
L 172.92274 243.928993 
L 169.495631 239.063142 
L 165.876682 234.338231 
L 162.071681 229.761818 
L 158.086717 225.341226 
L 153.928163 221.083526 
L 149.602673 216.995529 
L 145.117167 213.083775 
L 140.47882 209.354523 
L 135.695053 205.813739 
L 130.773519 202.467086 
L 125.722092 199.319919 
L 120.548851 196.377273 
L 115.262075 193.643855 
L 109.870219 191.124038 
L 104.381911 188.821854 
L 98.80593 186.740984 
L 93.151197 184.884759 
L 87.36 183.238607 
L 93.085194 181.612652 
L 98.740788 179.75905 
L 104.317734 177.680767 
L 109.807109 175.381129 
L 115.200133 172.863813 
L 120.488177 170.132848 
L 125.241002 167.442609 
L 121.526042 162.792807 
L 117.62811 158.295284 
L 113.553444 153.957235 
L 109.308562 149.785598 
L 104.900254 145.787048 
L 100.335572 141.967982 
L 95.62182 138.334509 
L 90.766539 134.892443 
L 87.36 132.64603 
L 92.307839 129.338392 
L 97.11945 125.835539 
L 101.787135 122.143075 
L 106.303428 118.266906 
L 110.661103 114.213235 
L 114.853188 109.988545 
L 118.872978 105.599596 
L 122.714041 101.05341 
L 123.458616 100.128 
L 127.263268 104.704702 
L 131.247896 109.125598 
L 135.406126 113.383615 
L 139.731304 117.471941 
L 144.216513 121.384036 
L 148.854576 125.113641 
L 153.638073 128.65479 
L 158.559352 132.001817 
L 163.61054 135.149369 
L 168.515424 137.946526 
L 174.396516 137.033102 
L 180.236376 135.885228 
L 186.025662 134.50474 
L 191.755112 132.893846 
L 197.415561 131.055125 
L 202.997953 128.991516 
L 208.493358 126.706322 
L 213.892983 124.203198 
L 219.188191 121.486149 
L 224.37051 118.559522 
L 229.43165 115.427998 
L 234.363514 112.096587 
L 236.16 110.809961 
L 243.205651 108.420501 
L 250.18937 105.855664 
L 257.106792 103.117053 
L 264.131595 100.128 
L 270.976494 103.043146 
L 277.892125 105.786277 
L 284.874166 108.355677 
L 291.918254 110.749742 
L 299.019986 112.966975 
L 306.174924 115.00599 
L 313.378596 116.865513 
L 320.6265 118.544382 
L 327.914107 120.041548 
L 335.236861 121.356075 
L 342.590187 122.487141 
L 349.96949 123.43404 
L 357.370156 124.196179 
L 364.787561 124.773083 
L 372.217069 125.164391 
L 379.654038 125.369858 
L 384.96 125.402787 
L 379.008257 125.446182 
L 371.571752 125.667789 
L 364.143111 126.07522 
L 356.726975 126.66822 
L 349.32798 127.446419 
L 341.950751 128.40933 
L 334.599896 129.556352 
L 327.280012 130.886768 
L 319.995671 132.399746 
L 312.751428 134.094341 
L 305.551808 135.969494 
L 298.401313 138.024032 
L 291.304409 140.256672 
L 284.265534 142.666019 
L 277.289086 145.250566 
L 270.379424 148.008699 
L 263.540868 150.938693 
L 256.777691 154.038718 
L 250.09412 157.306836 
L 243.494332 160.741004 
L 236.16 164.808762 
L 233.255346 170.003429 
L 230.560747 175.310096 
L 228.080513 180.720273 
L 225.818612 186.225306 
L 223.778664 191.816387 
L 221.96393 197.484573 
L 220.377316 203.220794 
L 219.021358 209.015874 
L 217.898226 214.860543 
L 217.009717 220.74545 
L 216.357252 226.661181 
L 215.941875 232.598272 
L 215.76425 238.547224 
L 215.824663 244.49852 
L 216.024348 248.928 
L 216.262052 242.981146 
L 216.261755 237.029542 
L 216.023458 231.082712 
L 215.547542 225.150167 
L 214.834767 219.2414 
L 213.886276 213.365862 
L 212.703584 207.532953 
L 211.288584 201.752006 
L 209.643539 196.032267 
L 207.771082 190.382888 
L 205.674208 184.812906 
L 203.356271 179.331232 
L 200.82098 173.946636 
L 198.649952 169.735148 
L 199.91096 163.918668 
L 200.938361 158.056414 
L 201.730513 152.157763 
L 202.286148 146.232154 
L 202.604378 140.289064 
L 202.684693 134.338003 
L 202.526965 128.38849 
L 202.131445 122.450044 
L 201.498768 116.532164 
L 200.629945 110.644318 
L 199.526365 104.795926 
L 198.469836 100.128 
L 197.178745 105.937876 
L 196.121019 111.794735 
L 195.298351 117.689207 
L 194.712057 123.611862 
L 194.363075 129.553225 
L 194.251963 135.503791 
L 194.378899 141.45404 
L 194.743681 147.394454 
L 195.345724 153.315528 
L 196.184065 159.207792 
L 196.549769 161.355606 
L 199.751036 166.372923 
L 203.150381 171.25821 
L 206.742367 176.003652 
L 210.521247 180.601657 
L 214.480975 185.044869 
L 218.615216 189.326181 
L 222.917358 193.438742 
L 227.380517 197.375973 
L 231.997553 201.131577 
L 236.16 204.265542 
L 231.414309 207.857199 
L 226.816042 211.63576 
L 222.372556 215.59518 
L 218.090958 219.729125 
L 213.978099 224.030982 
L 210.040558 228.493868 
L 206.284635 233.110644 
L 202.716338 237.873924 
L 199.341375 242.776088 
L 196.165146 247.809293 
L 195.496744 248.928 
L 192.364717 243.867171 
L 189.032816 238.935638 
L 185.506371 234.141291 
L 181.791025 229.491798 
L 177.89272 224.994599 
L 173.817694 220.656887 
L 169.572464 216.485603 
L 165.163824 212.48742 
L 164.192216 211.648403 
L 160.303952 216.154286 
L 156.598985 220.812054 
L 153.083242 225.614255 
L 149.762349 230.553207 
L 146.641617 235.621009 
L 143.72604 240.809553 
L 141.020281 246.110538 
L 139.688771 248.928 
L 137.094616 243.571514 
L 134.288333 238.323052 
L 131.274413 233.191009 
L 128.057676 228.183596 
L 124.643269 223.308823 
L 121.036655 218.57449 
L 117.243603 213.98817 
L 113.27018 209.557199 
L 109.122745 205.288668 
L 104.807931 201.189404 
L 100.332642 197.265966 
L 95.704037 193.52463 
L 90.929521 189.971381 
L 87.36 187.501991 
L 92.236121 184.08951 
L 96.971878 180.484765 
L 101.559696 176.693525 
L 105.992236 172.721853 
L 110.262405 168.576103 
L 114.363372 164.262909 
L 118.288578 159.78917 
L 122.031742 155.162043 
L 125.586876 150.38893 
L 128.948293 145.477469 
L 132.110614 140.435514 
L 135.068782 135.271134 
L 137.818064 129.99259 
L 140.354061 124.608326 
L 142.672716 119.126956 
L 144.770321 113.557249 
L 146.643518 107.908115 
L 148.289313 102.188592 
L 148.822122 100.128 
L 150.385941 105.870478 
L 152.178146 111.545826 
L 154.195872 117.144966 
L 156.435889 122.658939 
L 158.894615 128.078925 
L 161.568115 133.396253 
L 163.751104 137.381324 
L 164.644096 141.754411 
L 165.273254 146.173175 
L 165.636312 150.621715 
L 165.731965 155.08402 
L 165.559868 159.544032 
L 165.120641 163.985698 
L 164.415864 168.393034 
L 163.448074 172.750177 
L 162.220753 177.041448 
L 160.738319 181.251401 
L 159.006107 185.364886 
L 157.030351 189.367099 
L 154.818162 193.243636 
L 152.377501 196.980545 
L 149.717151 200.564378 
L 146.846688 203.982237 
L 143.860249 207.138411 
L 144.951574 202.810556 
L 146.300451 198.555929 
L 147.902025 194.389842 
L 149.750532 190.327289 
L 151.839321 186.38289 
L 154.160872 182.570841 
L 156.706832 178.904862 
L 159.468037 175.398144 
L 162.43455 172.06331 
L 165.595695 168.912361 
L 168.940095 165.956637 
L 172.455715 163.206775 
L 176.1299 160.672672 
L 179.949429 158.363448 
L 183.900556 156.287414 
L 187.96906 154.452041 
L 192.028614 152.902761 
L 189.168788 156.329524 
L 186.108625 159.578635 
L 182.859139 162.6384 
L 179.432025 165.497807 
L 175.839616 168.146564 
L 172.094841 170.57514 
L 168.211178 172.774794 
L 164.202603 174.73761 
L 160.083543 176.456524 
L 155.868823 177.92535 
L 151.57361 179.1388 
L 147.213362 180.092509 
L 142.803773 180.783044 
L 138.360711 181.20792 
L 133.900167 181.365607 
L 129.438194 181.255539 
L 125.108325 180.891545 
L 129.171105 179.043536 
L 133.337388 177.442472 
L 137.59218 176.094117 
L 141.920168 175.003322 
L 146.305777 174.174014 
L 150.733223 173.609176 
L 155.186572 173.310843 
L 159.649796 173.280086 
L 164.106834 173.517018 
L 168.541643 174.020786 
L 172.938265 174.789576 
L 177.280875 175.820621 
L 181.553845 177.110212 
L 185.741798 178.653706 
L 189.82966 180.44555 
L 193.80272 182.479293 
L 197.546644 184.684578 
L 193.084351 184.588378 
L 188.635855 184.224774 
L 184.217168 183.595075 
L 179.844191 182.701547 
L 175.532663 181.547406 
L 171.2981 180.136804 
L 167.155743 178.47482 
L 163.120498 176.567434 
L 159.20689 174.421511 
L 155.429002 172.044774 
L 151.80043 169.445776 
L 148.334235 166.633871 
L 145.04289 163.61918 
L 141.93824 160.412551 
L 139.03146 157.025525 
L 136.333009 153.470291 
L 133.915413 149.859823 
L 132.180215 144.166786 
L 130.218745 138.547692 
L 128.03414 133.011531 
L 125.629895 127.567159 
L 123.009857 122.223286 
L 120.178216 116.988461 
L 117.139503 111.871059 
L 113.898579 106.879266 
L 110.460629 102.021069 
L 109.039939 100.128 
L 105.525151 104.930899 
L 102.205238 109.870511 
L 99.085513 114.938932 
L 96.170966 120.128055 
L 93.46626 125.429578 
L 90.975721 130.83502 
L 88.703335 136.335732 
L 87.36 139.916515 
L 89.490267 145.473811 
L 91.841064 150.941474 
L 94.408627 156.310757 
L 97.188852 161.57307 
L 100.177288 166.719994 
L 103.369157 171.743295 
L 106.75935 176.634938 
L 110.342446 181.387096 
L 114.11271 185.992168 
L 118.064113 190.442785 
L 122.190333 194.731829 
L 126.484768 198.852437 
L 130.940548 202.798017 
L 135.550545 206.562258 
L 140.307384 210.139136 
L 145.203455 213.522931 
L 150.230925 216.708229 
L 155.381752 219.689934 
L 160.647696 222.463275 
L 166.020331 225.023817 
L 171.491063 227.367462 
L 177.051139 229.490461 
L 182.691666 231.389419 
L 188.403619 233.061297 
L 194.17786 234.50342 
L 200.005152 235.713482 
L 205.876172 236.689546 
L 211.781529 237.430051 
L 217.711774 237.933813 
L 223.65742 238.200025 
L 229.608956 238.228262 
L 235.556861 238.018478 
L 242.107221 237.747912 
L 249.53266 237.285768 
L 256.944226 236.638151 
L 264.337287 235.805467 
L 271.707223 234.788236 
L 279.049428 233.587094 
L 286.359313 232.202791 
L 293.63231 230.636192 
L 300.863874 228.888277 
L 308.049484 226.960138 
L 315.184651 224.85298 
L 322.264914 222.56812 
L 329.28585 220.106985 
L 336.243069 217.471115 
L 343.132225 214.662156 
L 349.949011 211.681863 
L 356.689168 208.5321 
L 363.348482 205.214835 
L 369.922793 201.732141 
L 376.407991 198.086195 
L 382.800023 194.279275 
L 384.96 192.943289 
L 378.600689 189.081958 
L 372.146842 185.380799 
L 365.602492 181.842127 
L 358.97173 178.468151 
L 352.258699 175.260982 
L 345.467595 172.222624 
L 338.602662 169.354974 
L 331.410661 166.563559 
L 334.788562 159.934796 
L 337.999705 153.223665 
L 341.042085 146.434361 
L 343.913798 139.571127 
L 346.613051 132.638253 
L 349.138157 125.64007 
L 351.487538 118.580954 
L 353.659725 111.465314 
L 355.65336 104.2976 
L 356.724925 100.128 
L 358.614667 107.323804 
L 360.683694 114.470121 
L 362.930714 121.562484 
L 365.354322 128.596462 
L 367.953004 135.567657 
L 370.725136 142.471714 
L 373.668985 149.304318 
L 376.782712 156.061197 
L 380.06437 162.738131 
L 383.511908 169.330945 
L 384.96 171.985455 
L 381.445653 178.5429 
L 378.096324 185.186145 
L 374.914105 191.911039 
L 371.900985 198.713379 
L 369.058847 205.588913 
L 366.389469 212.533345 
L 363.894517 219.542334 
L 361.575551 226.611501 
L 359.43402 233.736426 
L 357.471263 240.912658 
L 355.504575 248.928 
L 353.741566 241.700101 
L 351.79843 234.518532 
L 349.67638 227.38778 
L 347.376743 220.312302 
L 344.900956 213.29652 
L 342.250567 206.344819 
L 339.427231 199.461543 
L 336.432714 192.650993 
L 333.268886 185.917427 
L 331.48321 182.299851 
L 338.316186 179.356866 
L 345.073459 176.243994 
L 351.750807 172.96318 
L 358.344057 169.516475 
L 364.849088 165.906033 
L 371.261834 162.13411 
L 377.578288 158.203065 
L 384.96 153.323867 
L 378.763206 149.206773 
L 372.465432 145.245869 
L 366.070614 141.443631 
L 359.582748 137.802435 
L 353.005889 134.324556 
L 346.344147 131.012168 
L 339.601685 127.867342 
L 332.782719 124.892042 
L 325.891508 122.088129 
L 318.93236 119.457354 
L 311.909624 117.001362 
L 304.827689 114.721687 
L 297.690982 112.619754 
L 290.503961 110.696878 
L 283.27112 108.954259 
L 275.996977 107.392987 
L 268.68608 106.014037 
L 261.342998 104.818272 
L 253.972319 103.806438 
L 246.57865 102.979168 
L 239.166611 102.336979 
L 236.16 102.12961 
L 243.578161 101.562514 
L 250.979829 100.81016 
L 256.491948 100.128 
L 263.878285 101.018355 
L 271.284572 101.723794 
L 278.706178 102.243873 
L 286.138465 102.57827 
L 293.576789 102.726774 
L 301.016501 102.689293 
L 308.452951 102.46585 
L 315.881492 102.056585 
L 323.297481 101.461754 
L 330.696283 100.681728 
L 335.103014 100.128 
L 342.489352 101.018355 
L 349.895638 101.723794 
L 357.317244 102.243873 
L 364.749531 102.57827 
L 372.187855 102.726774 
L 379.627567 102.689293 
L 384.96 102.547949 
L 377.522155 102.377127 
L 370.082364 102.392285 
L 362.645277 102.593413 
L 355.215542 102.980387 
L 347.797801 103.552964 
L 340.396692 104.310786 
L 333.016839 105.253379 
L 325.662854 106.380155 
L 318.339333 107.69041 
L 311.050854 109.183324 
L 303.801972 110.857965 
L 296.597216 112.713285 
L 289.44109 114.748126 
L 282.338066 116.961215 
L 275.292583 119.35117 
L 268.309044 121.916497 
L 261.391814 124.655593 
L 254.545216 127.566745 
L 247.773528 130.648135 
L 241.080983 133.897837 
L 236.16 136.421279 
L 242.791003 139.794781 
L 249.504263 143.001471 
L 256.295584 146.039345 
L 263.160722 148.906504 
L 270.095385 151.601157 
L 277.095242 154.121619 
L 284.155916 156.466315 
L 291.272995 158.63378 
L 294.108769 159.443591 
L 291.402191 152.513572 
L 288.523227 145.653377 
L 285.473675 138.867292 
L 282.255441 132.159558 
L 278.870537 125.534368 
L 275.321079 118.995862 
L 271.609284 112.548127 
L 267.737472 106.195191 
L 263.831759 100.128 
L 259.807063 106.385199 
L 255.940038 112.741049 
L 252.233102 119.191579 
L 248.68857 125.732757 
L 245.308658 132.360496 
L 242.095478 139.070652 
L 239.051039 145.859032 
L 236.16 152.764068 
L 239.032735 159.626874 
L 242.076124 166.415725 
L 245.288265 173.126378 
L 248.667152 179.754639 
L 252.210673 186.296365 
L 255.916612 192.747469 
L 259.782654 199.103917 
L 263.806382 205.361738 
L 267.985282 211.517021 
L 272.316743 217.565919 
L 276.798056 223.504652 
L 281.426423 229.329508 
L 286.198949 235.036846 
L 291.112652 240.6231 
L 296.164462 246.084779 
L 298.897045 248.928 
L 304.020782 243.53374 
L 309.008075 238.013086 
L 313.855808 232.369488 
L 318.560951 226.606472 
L 323.120563 220.727641 
L 327.531795 214.736668 
L 331.791889 208.637299 
L 335.898184 202.433344 
L 339.848114 196.12868 
L 343.639208 189.72725 
L 347.269099 183.233051 
L 350.735518 176.650145 
L 354.036298 169.982644 
L 357.169376 163.234716 
L 360.132795 156.410577 
L 362.924702 149.514493 
L 365.543352 142.550774 
L 367.98711 135.523771 
L 370.254446 128.437877 
L 372.343946 121.297519 
L 374.254302 114.10716 
L 375.984321 106.871295 
L 377.42582 100.128 
L 378.987725 107.402007 
L 380.730973 114.634697 
L 382.654474 121.82155 
L 384.96 129.613846 
L 382.840991 136.745502 
L 380.900917 143.927899 
L 379.140991 151.156549 
L 377.562311 158.426933 
L 376.165866 165.734509 
L 374.952528 173.074708 
L 373.923054 180.442944 
L 373.078089 187.834612 
L 372.418161 195.245092 
L 371.943681 202.669752 
L 371.654947 210.103954 
L 371.552139 217.54305 
L 371.635321 224.982391 
L 371.904441 232.417328 
L 372.359331 239.843215 
L 372.999706 247.25541 
L 373.170069 248.928 
L 373.852308 241.519541 
L 374.349142 234.096343 
L 374.66026 226.663044 
L 374.785468 219.224292 
L 374.724687 211.784734 
L 374.477956 204.34902 
L 374.045428 196.921797 
L 373.427374 189.507708 
L 372.624181 182.111384 
L 371.636349 174.73745 
L 370.464497 167.390513 
L 369.109357 160.075166 
L 367.571776 152.795979 
L 365.852715 145.557502 
L 363.953247 138.364259 
L 361.874561 131.220746 
L 359.617955 124.131427 
L 357.18484 117.100732 
L 354.576736 110.133056 
L 351.795273 103.232753 
L 350.477711 100.128 
L 347.618226 106.996338 
L 344.931325 113.934009 
L 342.418687 120.936677 
L 340.081883 127.999967 
L 337.922373 135.119464 
L 335.941507 142.290718 
L 334.140522 149.509248 
L 332.520545 156.770542 
L 330.865737 165.261963 
L 330.865737 165.261963 
" style="fill:none;stroke:#1f77b4;stroke-linecap:square;stroke-width:1.5;"/>
   </g>
   <g id="patch_5">
    <path d="M 57.6 263.808 
L 57.6 85.248 
" style="fill:none;stroke:#000000;stroke-linecap:square;stroke-linejoin:miter;stroke-width:0.8;"/>
   </g>
   <g id="patch_6">
    <path d="M 414.72 263.808 
L 414.72 85.248 
" style="fill:none;stroke:#000000;stroke-linecap:square;stroke-linejoin:miter;stroke-width:0.8;"/>
   </g>
   <g id="patch_7">
    <path d="M 57.6 263.808 
L 414.72 263.808 
" style="fill:none;stroke:#000000;stroke-linecap:square;stroke-linejoin:miter;stroke-width:0.8;"/>
   </g>
   <g id="patch_8">
    <path d="M 57.6 85.248 
L 414.72 85.248 
" style="fill:none;stroke:#000000;stroke-linecap:square;stroke-linejoin:miter;stroke-width:0.8;"/>
   </g>
  </g>
 </g>
 <defs>
  <clipPath id="p5dfca55f86">
   <rect height="178.56" width="357.12" x="57.6" y="85.248"/>
  </clipPath>
 </defs>
</svg>
