<?xml version="1.0" encoding="utf-8" standalone="no"?>
<!DOCTYPE svg PUBLIC "-//W3C//DTD SVG 1.1//EN"
  "http://www.w3.org/Graphics/SVG/1.1/DTD/svg11.dtd">
<!-- Created with matplotlib (https://matplotlib.org/) -->
<svg height="345.6pt" version="1.1" viewBox="0 0 460.8 345.6" width="460.8pt" xmlns="http://www.w3.org/2000/svg" xmlns:xlink="http://www.w3.org/1999/xlink">
 <defs>
  <style type="text/css">
*{stroke-linecap:butt;stroke-linejoin:round;}
  </style>
 </defs>
 <g id="figure_1">
  <g id="patch_1">
   <path d="M 0 345.6 
L 460.8 345.6 
L 460.8 0 
L 0 0 
z
" style="fill:#ffffff;"/>
  </g>
  <g id="axes_1">
   <g id="patch_2">
    <path d="M 57.6 263.808 
L 414.72 263.808 
L 414.72 85.248 
L 57.6 85.248 
z
" style="fill:#ffffff;"/>
   </g>
   <g id="PathCollection_1">
    <defs>
     <path d="M 0 3 
C 0.795609 3 1.55874 2.683901 2.12132 2.12132 
C 2.683901 1.55874 3 0.795609 3 0 
C 3 -0.795609 2.683901 -1.55874 2.12132 -2.12132 
C 1.55874 -2.683901 0.795609 -3 0 -3 
C -0.795609 -3 -1.55874 -2.683901 -2.12132 -2.12132 
C -2.683901 -1.55874 -3 -0.795609 -3 0 
C -3 0.795609 -2.683901 1.55874 -2.12132 2.12132 
C -1.55874 2.683901 -0.795609 3 0 3 
z
" id="m59482e7f73" style="stroke:#000000;"/>
    </defs>
    <g clip-path="url(#p5e8de17b67)">
     <use style="stroke:#000000;" x="94.216465" xlink:href="#m59482e7f73" y="140.207742"/>
    </g>
   </g>
   <g id="patch_3">
    <path clip-path="url(#p5e8de17b67)" d="M 161.76 211.728 
C 171.625555 211.728 181.088371 207.808373 188.064372 200.832372 
C 195.040373 193.856371 198.96 184.393555 198.96 174.528 
C 198.96 164.662445 195.040373 155.199629 188.064372 148.223628 
C 181.088371 141.247627 171.625555 137.328 161.76 137.328 
C 151.894445 137.328 142.431629 141.247627 135.455628 148.223628 
C 128.479627 155.199629 124.56 164.662445 124.56 174.528 
C 124.56 184.393555 128.479627 193.856371 135.455628 200.832372 
C 142.431629 207.808373 151.894445 211.728 161.76 211.728 
z
" style="fill:#cc0000;fill-opacity:0.1;stroke:#cc0000;stroke-dasharray:7.4,3.2;stroke-dashoffset:0;stroke-linejoin:miter;stroke-width:2;"/>
   </g>
   <g id="patch_4">
    <path clip-path="url(#p5e8de17b67)" d="M 310.56 196.848 
C 316.479333 196.848 322.157023 194.496224 326.342623 190.310623 
C 330.528224 186.125023 332.88 180.447333 332.88 174.528 
C 332.88 168.608667 330.528224 162.930977 326.342623 158.745377 
C 322.157023 154.559776 316.479333 152.208 310.56 152.208 
C 304.640667 152.208 298.962977 154.559776 294.777377 158.745377 
C 290.591776 162.930977 288.24 168.608667 288.24 174.528 
C 288.24 180.447333 290.591776 186.125023 294.777377 190.310623 
C 298.962977 194.496224 304.640667 196.848 310.56 196.848 
z
" style="fill:#cc0000;fill-opacity:0.1;stroke:#cc0000;stroke-dasharray:7.4,3.2;stroke-dashoffset:0;stroke-linejoin:miter;stroke-width:2;"/>
   </g>
   <g id="matplotlib.axis_1">
    <g id="xtick_1">
     <g id="line2d_1">
      <defs>
       <path d="M 0 0 
L 0 3.5 
" id="m653eaca2ab" style="stroke:#000000;stroke-width:0.8;"/>
      </defs>
      <g>
       <use style="stroke:#000000;stroke-width:0.8;" x="87.36" xlink:href="#m653eaca2ab" y="263.808"/>
      </g>
     </g>
     <g id="text_1">
      <!-- 0.0 -->
      <defs>
       <path d="M 31.78125 66.40625 
Q 24.171875 66.40625 20.328125 58.90625 
Q 16.5 51.421875 16.5 36.375 
Q 16.5 21.390625 20.328125 13.890625 
Q 24.171875 6.390625 31.78125 6.390625 
Q 39.453125 6.390625 43.28125 13.890625 
Q 47.125 21.390625 47.125 36.375 
Q 47.125 51.421875 43.28125 58.90625 
Q 39.453125 66.40625 31.78125 66.40625 
z
M 31.78125 74.21875 
Q 44.046875 74.21875 50.515625 64.515625 
Q 56.984375 54.828125 56.984375 36.375 
Q 56.984375 17.96875 50.515625 8.265625 
Q 44.046875 -1.421875 31.78125 -1.421875 
Q 19.53125 -1.421875 13.0625 8.265625 
Q 6.59375 17.96875 6.59375 36.375 
Q 6.59375 54.828125 13.0625 64.515625 
Q 19.53125 74.21875 31.78125 74.21875 
z
" id="DejaVuSans-48"/>
       <path d="M 10.6875 12.40625 
L 21 12.40625 
L 21 0 
L 10.6875 0 
z
" id="DejaVuSans-46"/>
      </defs>
      <g transform="translate(79.408438 278.406437)scale(0.1 -0.1)">
       <use xlink:href="#DejaVuSans-48"/>
       <use x="63.623047" xlink:href="#DejaVuSans-46"/>
       <use x="95.410156" xlink:href="#DejaVuSans-48"/>
      </g>
     </g>
    </g>
    <g id="xtick_2">
     <g id="line2d_2">
      <g>
       <use style="stroke:#000000;stroke-width:0.8;" x="161.76" xlink:href="#m653eaca2ab" y="263.808"/>
      </g>
     </g>
     <g id="text_2">
      <!-- 0.5 -->
      <defs>
       <path d="M 10.796875 72.90625 
L 49.515625 72.90625 
L 49.515625 64.59375 
L 19.828125 64.59375 
L 19.828125 46.734375 
Q 21.96875 47.46875 24.109375 47.828125 
Q 26.265625 48.1875 28.421875 48.1875 
Q 40.625 48.1875 47.75 41.5 
Q 54.890625 34.8125 54.890625 23.390625 
Q 54.890625 11.625 47.5625 5.09375 
Q 40.234375 -1.421875 26.90625 -1.421875 
Q 22.3125 -1.421875 17.546875 -0.640625 
Q 12.796875 0.140625 7.71875 1.703125 
L 7.71875 11.625 
Q 12.109375 9.234375 16.796875 8.0625 
Q 21.484375 6.890625 26.703125 6.890625 
Q 35.15625 6.890625 40.078125 11.328125 
Q 45.015625 15.765625 45.015625 23.390625 
Q 45.015625 31 40.078125 35.4375 
Q 35.15625 39.890625 26.703125 39.890625 
Q 22.75 39.890625 18.8125 39.015625 
Q 14.890625 38.140625 10.796875 36.28125 
z
" id="DejaVuSans-53"/>
      </defs>
      <g transform="translate(153.808437 278.406437)scale(0.1 -0.1)">
       <use xlink:href="#DejaVuSans-48"/>
       <use x="63.623047" xlink:href="#DejaVuSans-46"/>
       <use x="95.410156" xlink:href="#DejaVuSans-53"/>
      </g>
     </g>
    </g>
    <g id="xtick_3">
     <g id="line2d_3">
      <g>
       <use style="stroke:#000000;stroke-width:0.8;" x="236.16" xlink:href="#m653eaca2ab" y="263.808"/>
      </g>
     </g>
     <g id="text_3">
      <!-- 1.0 -->
      <defs>
       <path d="M 12.40625 8.296875 
L 28.515625 8.296875 
L 28.515625 63.921875 
L 10.984375 60.40625 
L 10.984375 69.390625 
L 28.421875 72.90625 
L 38.28125 72.90625 
L 38.28125 8.296875 
L 54.390625 8.296875 
L 54.390625 0 
L 12.40625 0 
z
" id="DejaVuSans-49"/>
      </defs>
      <g transform="translate(228.208437 278.406437)scale(0.1 -0.1)">
       <use xlink:href="#DejaVuSans-49"/>
       <use x="63.623047" xlink:href="#DejaVuSans-46"/>
       <use x="95.410156" xlink:href="#DejaVuSans-48"/>
      </g>
     </g>
    </g>
    <g id="xtick_4">
     <g id="line2d_4">
      <g>
       <use style="stroke:#000000;stroke-width:0.8;" x="310.56" xlink:href="#m653eaca2ab" y="263.808"/>
      </g>
     </g>
     <g id="text_4">
      <!-- 1.5 -->
      <g transform="translate(302.608437 278.406437)scale(0.1 -0.1)">
       <use xlink:href="#DejaVuSans-49"/>
       <use x="63.623047" xlink:href="#DejaVuSans-46"/>
       <use x="95.410156" xlink:href="#DejaVuSans-53"/>
      </g>
     </g>
    </g>
    <g id="xtick_5">
     <g id="line2d_5">
      <g>
       <use style="stroke:#000000;stroke-width:0.8;" x="384.96" xlink:href="#m653eaca2ab" y="263.808"/>
      </g>
     </g>
     <g id="text_5">
      <!-- 2.0 -->
      <defs>
       <path d="M 19.1875 8.296875 
L 53.609375 8.296875 
L 53.609375 0 
L 7.328125 0 
L 7.328125 8.296875 
Q 12.9375 14.109375 22.625 23.890625 
Q 32.328125 33.6875 34.8125 36.53125 
Q 39.546875 41.84375 41.421875 45.53125 
Q 43.3125 49.21875 43.3125 52.78125 
Q 43.3125 58.59375 39.234375 62.25 
Q 35.15625 65.921875 28.609375 65.921875 
Q 23.96875 65.921875 18.8125 64.3125 
Q 13.671875 62.703125 7.8125 59.421875 
L 7.8125 69.390625 
Q 13.765625 71.78125 18.9375 73 
Q 24.125 74.21875 28.421875 74.21875 
Q 39.75 74.21875 46.484375 68.546875 
Q 53.21875 62.890625 53.21875 53.421875 
Q 53.21875 48.921875 51.53125 44.890625 
Q 49.859375 40.875 45.40625 35.40625 
Q 44.1875 33.984375 37.640625 27.21875 
Q 31.109375 20.453125 19.1875 8.296875 
z
" id="DejaVuSans-50"/>
      </defs>
      <g transform="translate(377.008437 278.406437)scale(0.1 -0.1)">
       <use xlink:href="#DejaVuSans-50"/>
       <use x="63.623047" xlink:href="#DejaVuSans-46"/>
       <use x="95.410156" xlink:href="#DejaVuSans-48"/>
      </g>
     </g>
    </g>
   </g>
   <g id="matplotlib.axis_2">
    <g id="ytick_1">
     <g id="line2d_6">
      <defs>
       <path d="M 0 0 
L -3.5 0 
" id="m6d3cfe2531" style="stroke:#000000;stroke-width:0.8;"/>
      </defs>
      <g>
       <use style="stroke:#000000;stroke-width:0.8;" x="57.6" xlink:href="#m6d3cfe2531" y="248.928"/>
      </g>
     </g>
     <g id="text_6">
      <!-- 0.0 -->
      <g transform="translate(34.696875 252.727219)scale(0.1 -0.1)">
       <use xlink:href="#DejaVuSans-48"/>
       <use x="63.623047" xlink:href="#DejaVuSans-46"/>
       <use x="95.410156" xlink:href="#DejaVuSans-48"/>
      </g>
     </g>
    </g>
    <g id="ytick_2">
     <g id="line2d_7">
      <g>
       <use style="stroke:#000000;stroke-width:0.8;" x="57.6" xlink:href="#m6d3cfe2531" y="219.168"/>
      </g>
     </g>
     <g id="text_7">
      <!-- 0.2 -->
      <g transform="translate(34.696875 222.967219)scale(0.1 -0.1)">
       <use xlink:href="#DejaVuSans-48"/>
       <use x="63.623047" xlink:href="#DejaVuSans-46"/>
       <use x="95.410156" xlink:href="#DejaVuSans-50"/>
      </g>
     </g>
    </g>
    <g id="ytick_3">
     <g id="line2d_8">
      <g>
       <use style="stroke:#000000;stroke-width:0.8;" x="57.6" xlink:href="#m6d3cfe2531" y="189.408"/>
      </g>
     </g>
     <g id="text_8">
      <!-- 0.4 -->
      <defs>
       <path d="M 37.796875 64.3125 
L 12.890625 25.390625 
L 37.796875 25.390625 
z
M 35.203125 72.90625 
L 47.609375 72.90625 
L 47.609375 25.390625 
L 58.015625 25.390625 
L 58.015625 17.1875 
L 47.609375 17.1875 
L 47.609375 0 
L 37.796875 0 
L 37.796875 17.1875 
L 4.890625 17.1875 
L 4.890625 26.703125 
z
" id="DejaVuSans-52"/>
      </defs>
      <g transform="translate(34.696875 193.207219)scale(0.1 -0.1)">
       <use xlink:href="#DejaVuSans-48"/>
       <use x="63.623047" xlink:href="#DejaVuSans-46"/>
       <use x="95.410156" xlink:href="#DejaVuSans-52"/>
      </g>
     </g>
    </g>
    <g id="ytick_4">
     <g id="line2d_9">
      <g>
       <use style="stroke:#000000;stroke-width:0.8;" x="57.6" xlink:href="#m6d3cfe2531" y="159.648"/>
      </g>
     </g>
     <g id="text_9">
      <!-- 0.6 -->
      <defs>
       <path d="M 33.015625 40.375 
Q 26.375 40.375 22.484375 35.828125 
Q 18.609375 31.296875 18.609375 23.390625 
Q 18.609375 15.53125 22.484375 10.953125 
Q 26.375 6.390625 33.015625 6.390625 
Q 39.65625 6.390625 43.53125 10.953125 
Q 47.40625 15.53125 47.40625 23.390625 
Q 47.40625 31.296875 43.53125 35.828125 
Q 39.65625 40.375 33.015625 40.375 
z
M 52.59375 71.296875 
L 52.59375 62.3125 
Q 48.875 64.0625 45.09375 64.984375 
Q 41.3125 65.921875 37.59375 65.921875 
Q 27.828125 65.921875 22.671875 59.328125 
Q 17.53125 52.734375 16.796875 39.40625 
Q 19.671875 43.65625 24.015625 45.921875 
Q 28.375 48.1875 33.59375 48.1875 
Q 44.578125 48.1875 50.953125 41.515625 
Q 57.328125 34.859375 57.328125 23.390625 
Q 57.328125 12.15625 50.6875 5.359375 
Q 44.046875 -1.421875 33.015625 -1.421875 
Q 20.359375 -1.421875 13.671875 8.265625 
Q 6.984375 17.96875 6.984375 36.375 
Q 6.984375 53.65625 15.1875 63.9375 
Q 23.390625 74.21875 37.203125 74.21875 
Q 40.921875 74.21875 44.703125 73.484375 
Q 48.484375 72.75 52.59375 71.296875 
z
" id="DejaVuSans-54"/>
      </defs>
      <g transform="translate(34.696875 163.447219)scale(0.1 -0.1)">
       <use xlink:href="#DejaVuSans-48"/>
       <use x="63.623047" xlink:href="#DejaVuSans-46"/>
       <use x="95.410156" xlink:href="#DejaVuSans-54"/>
      </g>
     </g>
    </g>
    <g id="ytick_5">
     <g id="line2d_10">
      <g>
       <use style="stroke:#000000;stroke-width:0.8;" x="57.6" xlink:href="#m6d3cfe2531" y="129.888"/>
      </g>
     </g>
     <g id="text_10">
      <!-- 0.8 -->
      <defs>
       <path d="M 31.78125 34.625 
Q 24.75 34.625 20.71875 30.859375 
Q 16.703125 27.09375 16.703125 20.515625 
Q 16.703125 13.921875 20.71875 10.15625 
Q 24.75 6.390625 31.78125 6.390625 
Q 38.8125 6.390625 42.859375 10.171875 
Q 46.921875 13.96875 46.921875 20.515625 
Q 46.921875 27.09375 42.890625 30.859375 
Q 38.875 34.625 31.78125 34.625 
z
M 21.921875 38.8125 
Q 15.578125 40.375 12.03125 44.71875 
Q 8.5 49.078125 8.5 55.328125 
Q 8.5 64.0625 14.71875 69.140625 
Q 20.953125 74.21875 31.78125 74.21875 
Q 42.671875 74.21875 48.875 69.140625 
Q 55.078125 64.0625 55.078125 55.328125 
Q 55.078125 49.078125 51.53125 44.71875 
Q 48 40.375 41.703125 38.8125 
Q 48.828125 37.15625 52.796875 32.3125 
Q 56.78125 27.484375 56.78125 20.515625 
Q 56.78125 9.90625 50.3125 4.234375 
Q 43.84375 -1.421875 31.78125 -1.421875 
Q 19.734375 -1.421875 13.25 4.234375 
Q 6.78125 9.90625 6.78125 20.515625 
Q 6.78125 27.484375 10.78125 32.3125 
Q 14.796875 37.15625 21.921875 38.8125 
z
M 18.3125 54.390625 
Q 18.3125 48.734375 21.84375 45.5625 
Q 25.390625 42.390625 31.78125 42.390625 
Q 38.140625 42.390625 41.71875 45.5625 
Q 45.3125 48.734375 45.3125 54.390625 
Q 45.3125 60.0625 41.71875 63.234375 
Q 38.140625 66.40625 31.78125 66.40625 
Q 25.390625 66.40625 21.84375 63.234375 
Q 18.3125 60.0625 18.3125 54.390625 
z
" id="DejaVuSans-56"/>
      </defs>
      <g transform="translate(34.696875 133.687219)scale(0.1 -0.1)">
       <use xlink:href="#DejaVuSans-48"/>
       <use x="63.623047" xlink:href="#DejaVuSans-46"/>
       <use x="95.410156" xlink:href="#DejaVuSans-56"/>
      </g>
     </g>
    </g>
    <g id="ytick_6">
     <g id="line2d_11">
      <g>
       <use style="stroke:#000000;stroke-width:0.8;" x="57.6" xlink:href="#m6d3cfe2531" y="100.128"/>
      </g>
     </g>
     <g id="text_11">
      <!-- 1.0 -->
      <g transform="translate(34.696875 103.927219)scale(0.1 -0.1)">
       <use xlink:href="#DejaVuSans-49"/>
       <use x="63.623047" xlink:href="#DejaVuSans-46"/>
       <use x="95.410156" xlink:href="#DejaVuSans-48"/>
      </g>
     </g>
    </g>
   </g>
   <g id="line2d_12">
    <path clip-path="url(#p5e8de17b67)" d="M 236.16 248.928 
L 236.16 100.128 
" style="fill:none;stroke:#cc0000;stroke-dasharray:7.4,3.2;stroke-dashoffset:0;stroke-width:2;"/>
   </g>
   <g id="line2d_13">
    <path clip-path="url(#p5e8de17b67)" d="M 87.36 248.928 
L 384.96 248.928 
" style="fill:none;stroke:#009900;stroke-linecap:square;stroke-width:2;"/>
   </g>
   <g id="line2d_14">
    <path clip-path="url(#p5e8de17b67)" d="M 384.96 248.928 
L 384.96 100.128 
" style="fill:none;stroke:#009900;stroke-linecap:square;stroke-width:2;"/>
   </g>
   <g id="line2d_15">
    <path clip-path="url(#p5e8de17b67)" d="M 384.96 100.128 
L 87.36 100.128 
" style="fill:none;stroke:#009900;stroke-linecap:square;stroke-width:2;"/>
   </g>
   <g id="line2d_16">
    <path clip-path="url(#p5e8de17b67)" d="M 87.36 100.128 
L 87.36 248.928 
" style="fill:none;stroke:#009900;stroke-linecap:square;stroke-width:2;"/>
   </g>
   <g id="line2d_17">
    <path clip-path="url(#p5e8de17b67)" d="M 94.216465 140.207742 
L 100.083378 139.207291 
L 105.905592 137.973026 
L 111.673791 136.506922 
L 117.378748 134.811325 
L 123.011335 132.888946 
L 128.562542 130.742862 
L 134.023489 128.376505 
L 139.385438 125.793661 
L 144.639812 122.998463 
L 149.778205 119.995381 
L 154.792397 116.789221 
L 159.674365 113.385111 
L 164.416301 109.788498 
L 169.010617 106.005134 
L 173.449964 102.041073 
L 175.469844 100.128 
L 179.834304 104.174365 
L 184.357084 108.042961 
L 189.03095 111.7276 
L 193.848423 115.222387 
L 198.801796 118.52173 
L 203.883147 121.620353 
L 209.084344 124.513297 
L 214.397068 127.195935 
L 219.812819 129.663974 
L 225.322934 131.913467 
L 230.918596 133.940815 
L 236.16 135.614621 
L 230.49321 137.433707 
L 224.903698 139.47795 
L 219.400404 141.744078 
L 213.992133 144.228467 
L 208.687537 146.927142 
L 203.495103 149.835785 
L 198.423136 152.949743 
L 190.132875 158.197323 
L 186.164078 160.239373 
L 182.079973 162.039763 
L 177.895259 163.592015 
L 173.624995 164.890541 
L 169.284551 165.930668 
L 164.889548 166.708653 
L 160.455801 167.221696 
L 155.999269 167.467951 
L 151.53599 167.446531 
L 147.082027 167.157514 
L 142.65341 166.601939 
L 138.266075 165.781806 
L 133.935815 164.700067 
L 129.678211 163.360615 
L 126.650547 162.23303 
L 128.069642 162.680512 
L 132.269277 164.191928 
L 136.370725 165.952451 
L 140.359225 167.955746 
L 144.220422 170.194602 
L 147.94042 172.660963 
L 151.505831 175.345951 
L 154.903823 178.239904 
L 158.122168 181.332407 
L 161.149283 184.61233 
L 163.974274 188.067868 
L 166.586973 191.686587 
L 168.977978 195.455461 
L 171.138683 199.360928 
L 173.061313 203.388932 
L 174.738948 207.524976 
L 175.326175 209.166113 
L 174.74033 207.798321 
L 173.148502 203.628501 
L 171.809577 199.370731 
L 170.728375 195.040336 
L 169.908787 190.652901 
L 169.353761 186.224214 
L 169.065296 181.770215 
L 169.04443 177.306933 
L 169.291238 172.850432 
L 169.804831 168.416749 
L 170.583361 164.021842 
L 171.624026 159.681527 
L 172.923082 155.411425 
L 174.475852 151.226903 
L 176.276749 147.143022 
L 178.319291 143.174478 
L 179.180888 141.659281 
L 178.525662 142.995226 
L 176.401567 146.920725 
L 174.045905 150.71179 
L 171.467156 154.354779 
L 168.674598 157.836581 
L 165.678283 161.144664 
L 162.488993 164.267123 
L 159.118208 167.192721 
L 155.578057 169.910928 
L 151.881282 172.411963 
L 148.041187 174.686823 
L 144.071593 176.727323 
L 139.986785 178.526118 
L 135.801465 180.076735 
L 131.530695 181.373593 
L 127.189845 182.412025 
L 125.479205 182.74651 
L 126.919383 182.3724 
L 131.28076 181.42387 
L 135.691166 180.738573 
L 140.13473 180.318974 
L 144.595458 180.166585 
L 149.057297 180.281952 
L 153.504189 180.664662 
L 157.920131 181.313337 
L 162.289229 182.225642 
L 166.59576 183.398294 
L 170.824224 184.827072 
L 174.959404 186.506835 
L 178.986418 188.431538 
L 182.890772 190.594253 
L 186.658416 192.987197 
L 190.275789 195.601758 
L 191.644649 196.680828 
L 190.422067 195.832675 
L 186.859481 193.143938 
L 183.464534 190.246413 
L 180.249443 187.150527 
L 177.225779 183.867423 
L 174.404424 180.408915 
L 171.795533 176.787451 
L 169.408493 173.016064 
L 167.251896 169.108327 
L 165.333503 165.078304 
L 163.660219 160.940498 
L 162.238065 156.709801 
L 161.07216 152.401439 
L 160.166699 148.030917 
L 159.524942 143.613965 
L 159.149198 139.166479 
L 159.075019 137.425023 
L 159.228932 138.905017 
L 159.512713 143.359317 
L 159.528885 147.822618 
L 159.277391 152.278857 
L 158.759135 156.711997 
L 157.975984 161.106083 
L 156.930754 165.445301 
L 155.627208 169.714035 
L 154.070038 173.896921 
L 152.264847 177.978907 
L 150.218133 181.9453 
L 147.93726 185.781827 
L 145.430438 189.47468 
L 142.706689 193.010569 
L 139.775815 196.376768 
L 136.648365 199.561163 
L 134.242573 201.716555 
L 129.806034 205.683758 
L 125.531689 209.825202 
L 121.426377 214.134261 
L 117.496665 218.604042 
L 113.74884 223.227395 
L 110.188898 227.996922 
L 106.822534 232.904994 
L 103.655132 237.943759 
L 100.691761 243.105155 
L 97.937162 248.380927 
L 97.666702 248.928 
L 94.933763 243.640976 
L 91.991586 238.467469 
L 88.844877 233.415756 
L 87.36 231.179272 
L 90.597332 226.18515 
L 93.632363 221.065563 
L 96.460238 215.828703 
L 99.076432 210.482947 
L 101.47676 205.036847 
L 103.657382 199.499115 
L 105.61481 193.878612 
L 107.345912 188.184328 
L 108.847918 182.425374 
L 110.118427 176.610961 
L 111.155404 170.750393 
L 111.957192 164.853045 
L 112.522508 158.928351 
L 112.850446 152.98579 
L 112.940484 147.034868 
L 112.792476 141.085105 
L 112.406659 135.14602 
L 111.783651 129.227115 
L 110.924448 123.337858 
L 109.830425 117.48767 
L 108.503332 111.685911 
L 106.945292 105.941863 
L 105.112677 100.128 
L 103.320679 105.803414 
L 101.75707 111.545949 
L 100.424352 117.346418 
L 99.324657 123.195542 
L 98.459744 129.083963 
L 97.830996 135.002262 
L 97.439421 140.94097 
L 97.285644 146.890586 
L 97.369911 152.841592 
L 97.692087 158.784469 
L 98.251658 164.709709 
L 99.047727 170.607831 
L 100.079021 176.469402 
L 101.343891 182.285044 
L 102.840313 188.045452 
L 104.565892 193.741412 
L 106.517869 199.36381 
L 108.693121 204.903653 
L 111.088167 210.352078 
L 113.699176 215.700369 
L 116.521971 220.939969 
L 119.552037 226.062496 
L 122.784525 231.059755 
L 126.214265 235.923752 
L 129.835769 240.646705 
L 133.643244 245.221059 
L 136.96659 248.928 
L 140.924961 244.483579 
L 144.702437 239.884421 
L 148.292974 235.137883 
L 151.690828 230.251558 
L 154.890564 225.233264 
L 157.887061 220.091029 
L 160.675527 214.833079 
L 162.199724 211.725401 
L 164.990185 216.982293 
L 167.988633 222.12339 
L 171.190272 227.14047 
L 174.58998 232.025505 
L 178.182318 236.77068 
L 181.961539 241.368405 
L 185.921596 245.811323 
L 188.898601 248.928 
L 192.985673 244.601637 
L 196.896468 240.115295 
L 200.62473 235.476152 
L 204.164492 230.691629 
L 207.510094 225.76938 
L 210.656181 220.71728 
L 213.597722 215.543412 
L 216.330011 210.256051 
L 218.848676 204.863658 
L 221.149688 199.374858 
L 223.229367 193.798433 
L 225.084384 188.143303 
L 226.711772 182.418516 
L 228.108928 176.63323 
L 229.273617 170.7967 
L 230.203976 164.918264 
L 230.898515 159.007325 
L 231.356125 153.07334 
L 231.576072 147.125803 
L 231.558005 141.174227 
L 231.301953 135.228134 
L 230.808326 129.297037 
L 230.077913 123.390424 
L 229.111883 117.517745 
L 227.91178 111.688393 
L 226.479526 105.911696 
L 224.795852 100.128 
L 223.130965 105.841994 
L 221.695909 111.617996 
L 220.492978 117.446764 
L 219.524099 123.318974 
L 218.790821 129.225232 
L 218.294316 135.156089 
L 218.035379 141.102057 
L 218.014425 147.053623 
L 218.231487 153.001267 
L 218.686218 158.935473 
L 219.377889 164.846748 
L 220.305396 170.725635 
L 221.467253 176.562729 
L 222.861602 182.348692 
L 224.486213 188.074268 
L 226.338487 193.730297 
L 228.415459 199.307731 
L 230.713808 204.797647 
L 233.229857 210.191261 
L 236.16 215.84866 
L 233.415372 221.129626 
L 230.884121 226.516123 
L 228.570298 231.999535 
L 226.477604 237.571088 
L 224.609386 243.221871 
L 222.972572 248.928 
L 221.331229 243.207198 
L 219.462428 237.556608 
L 217.369158 231.985271 
L 215.054769 226.502098 
L 212.522963 221.115862 
L 209.77779 215.83518 
L 206.823642 210.668499 
L 203.665244 205.624086 
L 200.307651 200.710009 
L 196.756232 195.934132 
L 194.202056 192.731104 
L 190.868938 189.762663 
L 187.719816 186.599697 
L 184.766026 183.253589 
L 182.018197 179.736381 
L 179.486218 176.060731 
L 177.179203 172.239867 
L 175.105453 168.287541 
L 173.272432 164.217977 
L 171.686736 160.045821 
L 170.354074 155.786087 
L 169.27924 151.454107 
L 168.466103 147.065471 
L 167.917589 142.635974 
L 167.623784 137.793057 
L 165.990824 141.946942 
L 164.111719 145.995433 
L 161.993231 149.923961 
L 159.642986 153.718386 
L 157.06944 157.365054 
L 154.281857 160.850839 
L 151.290268 164.163197 
L 148.105441 167.290207 
L 144.738836 170.220614 
L 141.20257 172.943874 
L 137.50937 175.450185 
L 133.672527 177.730526 
L 129.705851 179.776692 
L 125.263187 181.726795 
L 129.725484 181.82286 
L 134.17399 182.186328 
L 138.592696 182.815894 
L 142.9657 183.709289 
L 147.277263 184.8633 
L 151.511869 186.273773 
L 155.654277 187.935631 
L 159.689579 189.842895 
L 163.603253 191.988699 
L 167.381213 194.365322 
L 171.009863 196.96421 
L 174.476144 199.776009 
L 177.767581 202.790601 
L 181.133449 206.285038 
L 179.68077 202.064725 
L 178.483771 197.764898 
L 177.546761 193.401032 
L 176.873112 188.988831 
L 176.465248 184.544175 
L 176.324638 180.08306 
L 176.451787 175.621541 
L 176.846238 171.175675 
L 177.506571 166.761461 
L 178.430409 162.394788 
L 179.614429 158.091368 
L 181.054368 153.866692 
L 182.745044 149.735962 
L 184.860238 145.369485 
L 181.402458 148.191731 
L 177.781666 150.801555 
L 174.010894 153.189567 
L 170.103712 155.34717 
L 166.074183 157.266601 
L 161.936809 158.940951 
L 157.706478 160.364194 
L 153.398416 161.531209 
L 149.028128 162.437796 
L 144.611341 163.08069 
L 140.163952 163.45758 
L 135.701966 163.567109 
L 131.241441 163.408881 
L 126.412933 162.933825 
L 130.256639 165.20258 
L 133.957385 167.697735 
L 137.501851 170.410312 
L 140.877283 173.330549 
L 144.071531 176.447935 
L 147.073101 179.751251 
L 149.871189 183.228609 
L 152.455726 186.867495 
L 154.81741 190.654811 
L 156.947741 194.576929 
L 158.839054 198.619732 
L 160.48454 202.768671 
L 161.878278 207.008814 
L 163.101955 211.703787 
L 163.901847 207.312718 
L 164.963605 202.977514 
L 166.283408 198.713779 
L 167.856508 194.536857 
L 169.677241 190.461781 
L 171.739057 186.503216 
L 174.034533 182.675409 
L 176.555409 178.992136 
L 179.292614 175.466652 
L 182.236294 172.111647 
L 185.375857 168.939193 
L 188.700004 165.960709 
L 192.196771 163.186914 
L 196.179116 160.415436 
L 191.782292 161.183069 
L 187.34735 161.685669 
L 182.890251 161.921428 
L 178.427034 161.889498 
L 173.973764 161.589992 
L 169.546467 161.02399 
L 165.161077 160.193527 
L 160.833375 159.101594 
L 156.578938 157.752118 
L 152.413076 156.149959 
L 148.350783 154.30088 
L 144.406678 152.211537 
L 140.594955 149.88945 
L 136.617521 147.11093 
L 138.857995 150.971188 
L 140.862962 154.958847 
L 142.625204 159.059557 
L 144.138381 163.258559 
L 145.397045 167.540741 
L 146.396668 171.890692 
L 147.133652 176.292756 
L 147.605344 180.731092 
L 147.810046 185.189726 
L 147.747023 189.652612 
L 147.416501 194.103687 
L 146.81967 198.526934 
L 145.958676 202.906432 
L 144.580992 209.080076 
L 144.146462 215.015796 
L 143.949646 220.964144 
L 143.990857 226.915604 
L 144.270031 232.860656 
L 144.78672 238.789789 
L 145.540097 244.693517 
L 146.229284 248.928 
L 147.152547 243.048445 
L 147.839952 237.136673 
L 148.290399 231.20214 
L 148.503168 225.254341 
L 148.477919 219.302791 
L 148.214691 213.357012 
L 147.873739 209.039038 
L 143.448078 213.018373 
L 139.185088 217.171504 
L 135.091589 221.491787 
L 131.17413 225.972311 
L 127.438977 230.605907 
L 123.892106 235.385163 
L 120.539192 240.302433 
L 117.385598 245.349851 
L 115.315168 248.928 
L 112.303005 243.794925 
L 109.087984 238.78641 
L 105.675248 233.910468 
L 102.070255 229.1749 
L 98.278774 224.58728 
L 94.30687 220.154949 
L 90.160897 215.884997 
L 87.36 213.185011 
L 91.616184 209.024906 
L 95.702604 204.697926 
L 99.612722 200.210994 
L 103.340283 195.571288 
L 106.879323 190.786231 
L 110.224182 185.863477 
L 113.369507 180.810903 
L 116.310267 175.63659 
L 119.041757 170.348817 
L 121.559609 164.956044 
L 123.859792 159.466897 
L 125.938629 153.890158 
L 127.792792 148.234748 
L 129.419317 142.509715 
L 130.8156 136.724218 
L 131.979408 130.887513 
L 132.908879 125.008936 
L 133.602526 119.097893 
L 134.05924 113.163839 
L 134.27829 107.216268 
L 134.259325 101.264695 
L 134.228618 100.128 
L 134.19019 101.615498 
L 134.185259 107.567099 
L 134.418333 113.514136 
L 134.889039 119.447097 
L 135.596623 125.356488 
L 136.539954 131.232856 
L 137.717522 137.066801 
L 139.127444 142.84899 
L 139.613836 144.638413 
L 134.530902 141.54239 
L 129.328225 138.652107 
L 124.01413 135.972187 
L 118.597117 133.506918 
L 113.085852 131.260244 
L 107.489153 129.235758 
L 101.815973 127.4367 
L 96.075388 125.865948 
L 90.276581 124.526015 
L 87.36 123.943623 
L 93.184429 122.719856 
L 98.955262 121.264152 
L 104.663266 119.578842 
L 110.299309 117.66662 
L 115.854376 115.530546 
L 121.31958 113.174037 
L 126.686176 110.600864 
L 131.945581 107.815142 
L 137.089379 104.821328 
L 142.109342 101.624212 
L 144.314981 100.128 
L 149.276876 103.414515 
L 154.366227 106.499978 
L 159.574893 109.379453 
L 164.894541 112.048334 
L 170.316661 114.502351 
L 175.832578 116.737578 
L 181.433468 118.75044 
L 187.110371 120.537715 
L 192.854205 122.096545 
L 198.655781 123.424436 
L 204.505818 124.519264 
L 210.394957 125.379277 
L 216.313777 126.003099 
L 222.252808 126.389733 
L 228.20255 126.538559 
L 234.153485 126.449341 
L 236.16 126.365541 
L 230.210812 126.196016 
L 224.259603 126.264531 
L 218.315894 126.570975 
L 212.389194 127.11486 
L 206.488985 127.895314 
L 200.624705 128.91109 
L 194.805736 130.160561 
L 189.041387 131.64173 
L 183.34088 133.352227 
L 177.713334 135.289314 
L 172.167752 137.449895 
L 170.170883 138.291319 
L 166.208245 133.850702 
L 162.071199 129.572101 
L 157.766364 125.462359 
L 153.300626 121.528052 
L 148.68113 117.775475 
L 143.915267 114.210629 
L 139.010659 110.839219 
L 133.975154 107.666637 
L 128.816808 104.69796 
L 123.543873 101.937936 
L 119.779558 100.128 
L 114.431234 102.738939 
L 109.191597 105.561666 
L 104.06903 108.591664 
L 99.071728 111.824087 
L 94.207686 115.253763 
L 89.484686 118.875205 
L 87.36 120.605171 
L 92.01552 124.312962 
L 96.815588 127.831616 
L 101.752526 131.155504 
L 106.818434 134.279308 
L 112.005209 137.198031 
L 117.304553 139.907004 
L 122.707988 142.401893 
L 128.20687 144.678706 
L 133.792402 146.733801 
L 136.166486 147.531481 
L 139.865538 150.029146 
L 143.408164 152.744126 
L 146.781615 155.666651 
L 149.973748 158.786203 
L 152.973077 162.091554 
L 155.768806 165.570809 
L 158.350875 169.211446 
L 160.70999 173.000364 
L 162.837661 176.923925 
L 164.726231 180.96801 
L 166.368903 185.118064 
L 167.759766 189.359151 
L 168.893813 193.676008 
L 169.766963 198.053099 
L 170.376074 202.474671 
L 170.718954 206.924812 
L 170.800486 210.612756 
L 168.804403 206.620642 
L 167.051295 202.516019 
L 165.547471 198.313659 
L 164.298344 194.028685 
L 163.308409 189.676519 
L 162.581228 185.272825 
L 162.119419 180.83345 
L 161.924644 176.374371 
L 161.997603 171.911637 
L 162.338035 167.461308 
L 162.944713 163.039402 
L 163.815455 158.661831 
L 164.947127 154.34435 
L 166.335656 150.102499 
L 167.976045 145.951542 
L 169.86239 141.906419 
L 171.602166 138.653611 
L 171.380913 143.111454 
L 170.892748 147.548009 
L 170.139428 151.947307 
L 169.123664 156.293517 
L 167.849112 160.570997 
L 166.320358 164.764353 
L 164.542905 168.858492 
L 162.523149 172.838681 
L 160.26836 176.690596 
L 157.786652 180.400373 
L 155.086957 183.95466 
L 152.17899 187.340668 
L 149.073217 190.546209 
L 145.780816 193.559748 
L 142.313636 196.370438 
L 138.684154 198.968164 
L 135.571389 200.947626 
L 129.90977 202.782743 
L 124.326066 204.842797 
L 118.829207 207.124491 
L 113.427989 209.624176 
L 108.131052 212.337853 
L 102.946871 215.26118 
L 97.883738 218.389481 
L 92.949753 221.71775 
L 88.152811 225.240664 
L 87.36 225.851928 
L 92.133133 229.407035 
L 97.044614 232.768424 
L 102.086586 235.930717 
L 107.250983 238.888856 
L 112.529543 241.638107 
L 117.913821 244.174074 
L 123.395204 246.492698 
L 128.964923 248.590271 
L 129.92966 248.928 
L 135.513656 246.868736 
L 141.010837 244.587819 
L 146.412408 242.088898 
L 151.709729 239.375971 
L 156.894324 236.453377 
L 161.9579 233.325793 
L 166.892355 229.998221 
L 171.689796 226.475986 
L 176.342547 222.764721 
L 180.843166 218.870365 
L 185.184452 214.799147 
L 189.35946 210.55758 
L 193.361511 206.152451 
L 197.184203 201.590805 
L 200.82142 196.879942 
L 204.267343 192.027397 
L 207.51646 187.040933 
L 210.563572 181.928528 
L 213.403805 176.69836 
L 216.032616 171.358797 
L 218.445798 165.91838 
L 220.639491 160.385814 
L 222.610186 154.769949 
L 224.35473 149.079769 
L 225.870332 143.324377 
L 227.154568 137.512981 
L 228.205382 131.654879 
L 229.021094 125.75944 
L 229.600399 119.836098 
L 229.94237 113.894327 
L 230.04646 107.943634 
L 229.912502 101.993539 
L 229.821418 100.128 
L 229.612786 106.075945 
L 229.642175 112.027476 
L 229.909539 117.973071 
L 230.414449 123.903218 
L 231.156098 129.808431 
L 232.133299 135.679262 
L 233.344489 141.506319 
L 234.78773 147.280281 
L 236.16 152.025045 
L 234.525921 157.747926 
L 233.122003 163.531575 
L 231.950493 169.366739 
L 231.013264 175.244084 
L 230.311816 181.154207 
L 229.84727 187.087653 
L 229.620371 193.034929 
L 229.631481 198.986522 
L 229.880583 204.93291 
L 230.367277 210.86458 
L 231.090785 216.772043 
L 232.04995 222.645848 
L 233.243238 228.476598 
L 234.668739 234.254965 
L 236.16 239.440981 
L 234.525921 245.163862 
L 233.584421 248.928 
L 232.100115 243.164458 
L 230.386515 237.464883 
L 228.446364 231.838393 
L 226.282765 226.293988 
L 223.89918 220.840539 
L 221.299421 215.486771 
L 218.487649 210.241248 
L 215.468361 205.112361 
L 212.246387 200.108316 
L 208.826881 195.237119 
L 205.215315 190.506561 
L 201.417467 185.924212 
L 198.147622 182.259813 
L 203.564866 179.795051 
L 208.879212 177.115627 
L 214.082158 174.22583 
L 219.165382 171.130283 
L 224.120751 167.833936 
L 228.940337 164.342064 
L 233.616431 160.660254 
L 236.16 158.525871 
L 231.567224 154.740637 
L 226.826753 151.142094 
L 221.946171 147.735997 
L 216.933285 144.527795 
L 211.796115 141.522622 
L 206.542879 138.725285 
L 201.181982 136.140259 
L 195.721999 133.771679 
L 190.171666 131.623335 
L 184.539862 129.698664 
L 178.835596 128.000744 
L 173.067994 126.532292 
L 167.246284 125.295657 
L 161.379777 124.292818 
L 155.477861 123.525379 
L 149.549976 122.994567 
L 143.605606 122.701232 
L 137.654261 122.645843 
L 131.705461 122.828488 
L 125.768723 123.248876 
L 119.853545 123.906334 
L 113.96939 124.799811 
L 108.125671 125.927876 
L 102.331737 127.288725 
L 96.596857 128.880181 
L 90.930206 130.699698 
L 87.36 131.976423 
L 92.978452 133.939732 
L 98.670921 135.676792 
L 104.4283 137.184824 
L 110.24138 138.461416 
L 116.10086 139.504526 
L 121.997366 140.312485 
L 127.921465 140.884 
L 133.86368 141.218158 
L 139.814504 141.314423 
L 145.245883 141.194474 
L 148.947239 136.533837 
L 152.459259 131.728913 
L 155.776324 126.787388 
L 158.893128 121.71717 
L 161.804683 116.526368 
L 164.506333 111.223287 
L 166.993755 105.81641 
L 169.335372 100.128 
L 171.597192 105.633066 
L 174.077346 111.04328 
L 176.771867 116.349987 
L 179.676445 121.544697 
L 182.786432 126.619099 
L 186.096854 131.565076 
L 189.602414 136.374716 
L 193.297504 141.040323 
L 197.176213 145.554434 
L 201.232335 149.909827 
L 205.459383 154.099535 
L 209.850593 158.116854 
L 214.39894 161.955359 
L 219.097148 165.608907 
L 223.937702 169.071656 
L 228.912856 172.338063 
L 234.014652 175.402905 
L 236.16 176.61051 
L 231.008196 179.590527 
L 225.979683 182.774177 
L 221.082503 186.156368 
L 216.324492 189.731688 
L 211.713262 193.494418 
L 207.25619 197.438538 
L 202.960405 201.557739 
L 198.83278 205.845431 
L 194.87992 210.294753 
L 191.108146 214.898589 
L 187.523494 219.649573 
L 184.131698 224.540105 
L 180.938184 229.56236 
L 177.948061 234.708305 
L 175.166113 239.969706 
L 172.59679 245.338147 
L 171.022817 248.928 
L 168.595791 243.493745 
L 165.953394 238.160892 
L 163.099854 232.937973 
L 160.039734 227.833343 
L 156.777932 222.855168 
L 153.319665 218.011412 
L 149.670466 213.309824 
L 145.836172 208.757927 
L 144.878905 207.677187 
L 138.946804 207.195772 
L 133.000197 206.951962 
L 127.048596 206.946149 
L 121.101524 207.17834 
L 115.168494 207.648165 
L 109.258998 208.354873 
L 103.382489 209.297332 
L 97.54837 210.474034 
L 91.765972 211.883098 
L 87.36 213.123404 
L 93.096323 214.709652 
L 98.89149 216.065239 
L 104.736231 217.187998 
L 110.621195 218.076131 
L 116.536967 218.728217 
L 122.474084 219.143215 
L 128.423047 219.320458 
L 134.37434 219.259666 
L 140.318441 218.960933 
L 146.245842 218.424739 
L 152.147059 217.651941 
L 158.012652 216.643775 
L 163.833238 215.401855 
L 169.599504 213.928166 
L 175.302225 212.225068 
L 180.93228 210.295283 
L 186.48066 208.1419 
L 191.93849 205.768364 
L 197.297038 203.178471 
L 202.547731 200.376365 
L 207.68217 197.366528 
L 212.692141 194.153777 
L 217.569629 190.743249 
L 222.30683 187.140403 
L 226.896167 183.351001 
L 231.330297 179.381105 
L 235.602127 175.237067 
L 236.16 174.670776 
L 231.91037 170.503976 
L 227.497511 166.510449 
L 222.928484 162.696583 
L 218.210597 159.068481 
L 213.351399 155.631946 
L 208.358663 152.392476 
L 203.240376 149.355253 
L 198.004727 146.525136 
L 192.660091 143.906654 
L 187.21502 141.503994 
L 181.678222 139.321001 
L 176.058558 137.361167 
L 170.365016 135.627628 
L 164.606705 134.123155 
L 158.792837 132.850158 
L 152.932713 131.810671 
L 147.035709 131.006358 
L 141.111258 130.438506 
L 135.168837 130.108023 
L 129.217954 130.015438 
L 123.268129 130.160899 
L 117.328879 130.544173 
L 111.409708 131.164647 
L 105.520083 132.021328 
L 99.669428 133.112846 
L 93.867101 134.437455 
L 88.122386 135.993036 
L 87.36 136.218148 
L 93.096323 137.804396 
L 98.89149 139.159983 
L 104.736231 140.282742 
L 110.621195 141.170874 
L 116.536967 141.822961 
L 122.474084 142.237958 
L 128.423047 142.415202 
L 134.37434 142.354409 
L 140.318441 142.055677 
L 144.204127 141.731181 
L 147.873125 137.045027 
L 151.351792 132.215901 
L 154.634562 127.251528 
L 157.716185 122.15985 
L 160.59173 116.949013 
L 163.256597 111.627353 
L 165.706522 106.203384 
L 167.937587 100.685782 
L 168.148972 100.128 
L 170.357901 105.654501 
L 172.786064 111.088248 
L 175.429577 116.420548 
L 178.28421 121.64287 
L 181.345397 126.74686 
L 184.60824 131.724353 
L 188.067521 136.567385 
L 191.717704 141.268209 
L 195.552949 145.819304 
L 199.567123 150.213391 
L 203.753802 154.443438 
L 208.106289 158.502679 
L 212.617621 162.38462 
L 217.28058 166.083051 
L 222.087707 169.592055 
L 227.031312 172.906018 
L 232.103486 176.019639 
L 236.16 178.314793 
L 230.9928 181.268033 
L 225.947831 184.425543 
L 221.033164 187.782272 
L 216.256662 191.332851 
L 211.625966 195.071598 
L 207.148484 198.992534 
L 202.831379 203.089384 
L 198.681558 207.355596 
L 194.705659 211.784344 
L 190.910042 216.368543 
L 187.300782 221.100859 
L 183.88365 225.973722 
L 180.664114 230.979336 
L 177.647325 236.109693 
L 174.838108 241.356585 
L 172.240958 246.71162 
L 171.24213 248.928 
L 168.732813 243.53125 
L 166.00969 238.239163 
L 163.077119 233.060205 
L 159.93979 228.002661 
L 156.602723 223.074623 
L 153.071256 218.283973 
L 149.35104 213.638377 
L 145.448024 209.145265 
L 143.308681 206.82953 
L 137.480011 205.626122 
L 131.60788 204.656762 
L 125.701682 203.923 
L 119.770866 203.42601 
L 113.824919 203.166586 
L 107.873355 203.145145 
L 101.925693 203.36172 
L 95.99145 203.815965 
L 90.080118 204.507152 
L 87.36 204.906123 
L 93.257553 205.706406 
L 99.182391 206.270209 
L 105.125036 206.596631 
L 111.075981 206.685149 
L 117.025705 206.535623 
L 122.964691 206.14829 
L 128.883438 205.523771 
L 134.772475 204.663065 
L 138.941141 203.907238 
L 139.395722 209.841456 
L 140.087246 215.752748 
L 141.014605 221.631658 
L 142.176317 227.468782 
L 143.570521 233.25478 
L 145.194989 238.980396 
L 147.04712 244.636472 
L 148.622489 248.928 
L 150.647496 243.33149 
L 152.447083 237.658478 
L 154.01837 231.918039 
L 155.358844 226.119357 
L 156.466361 220.271709 
L 157.339148 214.384449 
L 158.296563 207.08307 
L 159.178056 202.707652 
L 160.32033 198.392964 
L 161.719274 194.154536 
L 163.369854 190.007621 
L 165.26613 185.967143 
L 167.401276 182.047645 
L 169.76761 178.263232 
L 172.356613 174.627523 
L 175.15897 171.153603 
L 178.164594 167.853976 
L 181.362668 164.740515 
L 184.741683 161.824426 
L 188.289479 159.116203 
L 191.993285 156.625594 
L 193.75496 155.550052 
L 191.167331 157.0196 
L 187.180901 159.027009 
L 183.081272 160.791764 
L 178.883198 162.307513 
L 174.601788 163.568801 
L 170.252451 164.571089 
L 165.850838 165.31077 
L 161.412792 165.785181 
L 156.954285 165.992616 
L 152.491362 165.932327 
L 148.040084 165.604532 
L 143.616473 165.010411 
L 139.236447 164.152101 
L 134.915771 163.032692 
L 130.669994 161.656212 
L 125.977482 159.818416 
L 120.412386 157.708609 
L 114.767372 155.823034 
L 109.05147 154.164708 
L 103.273824 152.736283 
L 97.443679 151.540045 
L 91.57036 150.577908 
L 87.36 150.035558 
L 93.258375 149.241357 
L 99.120272 148.211918 
L 104.936313 146.94889 
L 110.697195 145.454292 
L 116.393701 143.730516 
L 122.016717 141.780319 
L 127.557249 139.606821 
L 133.006432 137.2135 
L 138.355549 134.604185 
L 143.596042 131.783048 
L 148.719528 128.754605 
L 153.717811 125.523699 
L 158.582893 122.095499 
L 163.306993 118.475491 
L 167.882552 114.669464 
L 172.302251 110.683508 
L 176.559018 106.524 
L 180.646045 102.197593 
L 182.489386 100.128 
L 186.495126 104.529776 
L 190.673685 108.767844 
L 195.01838 112.835424 
L 199.522259 116.726009 
L 204.178117 120.433376 
L 208.978507 123.951591 
L 213.915747 127.275029 
L 218.981941 130.398371 
L 224.168982 133.31662 
L 229.468573 136.02511 
L 234.872236 138.519505 
L 236.16 139.075773 
L 230.733062 141.519117 
L 225.408173 144.177526 
L 220.193852 147.046747 
L 215.098439 150.122191 
L 210.130088 153.398937 
L 205.296745 156.871742 
L 200.606143 160.535052 
L 197.242592 163.355458 
L 203.173977 163.84561 
L 209.120219 164.098178 
L 215.071804 164.112757 
L 221.019212 163.889325 
L 226.952927 163.428239 
L 232.863458 162.730236 
L 237.64294 162.113636 
L 245.04743 161.389581 
L 252.431505 160.480658 
L 259.790553 159.387436 
L 267.119974 158.1106 
L 274.415186 156.650946 
L 281.671632 155.009386 
L 288.884775 153.186948 
L 296.050108 151.184769 
L 303.163153 149.004101 
L 310.219463 146.646306 
L 317.214631 144.11286 
L 324.144282 141.405344 
L 331.004088 138.52545 
L 337.78976 135.47498 
L 344.497058 132.255838 
L 351.12179 128.870037 
L 357.659815 125.319694 
L 364.107048 121.607026 
L 370.45946 117.734354 
L 376.713079 113.704099 
L 382.863999 109.518779 
L 384.96 108.040434 
L 378.84538 103.802257 
L 373.266169 100.128 
L 367.057959 104.227859 
L 360.954175 108.481626 
L 354.958631 112.886643 
L 349.075075 117.440156 
L 343.307183 122.139319 
L 337.65856 126.981197 
L 332.132737 131.962762 
L 326.733166 137.080902 
L 321.463223 142.332418 
L 316.326201 147.714027 
L 312.17522 152.266521 
L 309.74465 157.699191 
L 307.098775 163.030319 
L 304.241828 168.251376 
L 301.17838 173.35401 
L 297.913332 178.330056 
L 294.451906 183.171556 
L 291.800214 186.621504 
L 297.602669 185.297455 
L 303.453429 184.206502 
L 309.343137 183.350389 
L 315.262368 182.730486 
L 321.201654 182.347785 
L 327.151494 182.202899 
L 331.502542 182.247608 
L 326.955933 178.407045 
L 322.566543 174.387737 
L 318.341393 170.196115 
L 314.287243 165.838886 
L 310.410579 161.323019 
L 306.717602 156.655739 
L 304.137363 153.152029 
L 303.801992 159.094176 
L 303.229267 165.018158 
L 302.420104 170.914499 
L 301.375797 176.773766 
L 300.098018 182.586584 
L 298.58881 188.343656 
L 297.340378 192.511993 
L 302.290254 189.207404 
L 307.36832 186.103401 
L 312.56645 183.20495 
L 317.87633 180.516686 
L 323.289464 178.042912 
L 328.797192 175.787584 
L 332.878612 174.279064 
L 327.261989 172.31053 
L 321.728579 170.118965 
L 316.287234 167.707876 
L 310.94666 165.08112 
L 305.7154 162.242899 
L 300.601823 159.197754 
L 296.942539 156.843341 
L 298.746388 162.514999 
L 300.321989 168.254256 
L 301.66682 174.051929 
L 302.77873 179.898743 
L 303.655941 185.785345 
L 304.297048 191.702317 
L 304.615745 196.041908 
L 307.509138 202.89603 
L 310.572962 209.675684 
L 313.805302 216.376631 
L 317.204139 222.994684 
L 320.767347 229.525707 
L 324.492701 235.965619 
L 328.377871 242.310393 
L 332.668221 248.928 
L 336.720155 242.688405 
L 340.61485 236.349472 
L 344.34987 229.915162 
L 347.922882 223.389497 
L 351.331653 216.776556 
L 354.574053 210.08047 
L 357.648055 203.305426 
L 360.551737 196.455656 
L 363.283286 189.535442 
L 365.840995 182.549109 
L 368.223263 175.501024 
L 370.428604 168.39559 
L 372.455638 161.237249 
L 374.303098 154.030474 
L 375.969831 146.779769 
L 377.454794 139.489666 
L 378.75706 132.164721 
L 379.875814 124.809511 
L 380.810358 117.428634 
L 381.560106 110.026702 
L 382.124592 102.608342 
L 382.271779 100.128 
L 382.774308 107.550815 
L 383.462232 114.958748 
L 384.335119 122.347171 
L 384.96 126.854994 
L 383.974233 134.229205 
L 383.173111 141.625753 
L 382.557133 149.040015 
L 382.126686 156.467359 
L 381.882036 163.903141 
L 381.823339 171.342716 
L 381.95063 178.781433 
L 382.263829 186.214644 
L 382.762742 193.637703 
L 383.447056 201.045971 
L 384.316343 208.434818 
L 384.96 213.086419 
L 383.974233 220.460629 
L 383.173111 227.857177 
L 382.557133 235.27144 
L 382.126686 242.698783 
L 381.909089 248.928 
L 381.869 247.440542 
L 381.557028 240.007279 
L 381.059341 232.584138 
L 380.376251 225.175757 
L 379.508184 217.786767 
L 378.455683 210.421785 
L 377.219405 203.085415 
L 375.800124 195.78224 
L 374.198726 188.516826 
L 372.416211 181.293713 
L 370.453695 174.117416 
L 368.312403 166.992418 
L 365.993674 159.923174 
L 363.498957 152.914101 
L 360.82981 145.96958 
L 357.987903 139.093951 
L 354.975011 132.29151 
L 351.793017 125.566509 
L 348.44391 118.923152 
L 344.929783 112.365589 
L 341.252832 105.89792 
L 337.788265 100.128 
L 333.965999 106.510867 
L 330.304482 112.987287 
L 326.806002 119.553211 
L 323.472747 126.204536 
L 320.3068 132.937106 
L 317.310138 139.746712 
L 314.484635 146.629099 
L 312.314162 152.277038 
L 310.912747 158.061294 
L 309.281144 163.784881 
L 307.421964 169.438644 
L 305.338181 175.013536 
L 303.033128 180.500641 
L 300.510494 185.891178 
L 297.774313 191.176526 
L 297.127792 192.353773 
L 294.5404 199.329167 
L 292.128184 206.367059 
L 289.89265 213.463052 
L 287.835196 220.612709 
L 285.957107 227.811563 
L 284.259559 235.055115 
L 282.74361 242.338838 
L 281.534756 248.928 
L 280.183141 241.612 
L 278.649068 234.332073 
L 276.933496 227.092769 
L 275.037495 219.898611 
L 272.962252 212.754097 
L 270.709063 205.663691 
L 268.279337 198.631825 
L 265.674591 191.662892 
L 262.896455 184.76125 
L 259.946663 177.93121 
L 256.82706 171.177041 
L 253.539595 164.502965 
L 250.086322 157.913153 
L 246.469401 151.411722 
L 242.691091 145.002737 
L 238.753754 138.690202 
L 236.16 134.715374 
L 240.197508 128.466434 
L 244.077547 122.11852 
L 247.797693 115.675599 
L 251.355619 109.141697 
L 254.749104 102.520898 
L 255.924715 100.128 
L 259.258751 106.778934 
L 262.758001 113.344448 
L 266.420278 119.820437 
L 270.243293 126.202856 
L 274.224658 132.487715 
L 278.361884 138.671087 
L 282.652385 144.749106 
L 287.09348 150.717974 
L 291.682393 156.573962 
L 294.061641 159.495151 
L 294.061641 159.495151 
" style="fill:none;stroke:#1f77b4;stroke-linecap:square;stroke-width:1.5;"/>
   </g>
   <g id="patch_5">
    <path d="M 57.6 263.808 
L 57.6 85.248 
" style="fill:none;stroke:#000000;stroke-linecap:square;stroke-linejoin:miter;stroke-width:0.8;"/>
   </g>
   <g id="patch_6">
    <path d="M 414.72 263.808 
L 414.72 85.248 
" style="fill:none;stroke:#000000;stroke-linecap:square;stroke-linejoin:miter;stroke-width:0.8;"/>
   </g>
   <g id="patch_7">
    <path d="M 57.6 263.808 
L 414.72 263.808 
" style="fill:none;stroke:#000000;stroke-linecap:square;stroke-linejoin:miter;stroke-width:0.8;"/>
   </g>
   <g id="patch_8">
    <path d="M 57.6 85.248 
L 414.72 85.248 
" style="fill:none;stroke:#000000;stroke-linecap:square;stroke-linejoin:miter;stroke-width:0.8;"/>
   </g>
  </g>
 </g>
 <defs>
  <clipPath id="p5e8de17b67">
   <rect height="178.56" width="357.12" x="57.6" y="85.248"/>
  </clipPath>
 </defs>
</svg>
