<?xml version="1.0" encoding="utf-8" standalone="no"?>
<!DOCTYPE svg PUBLIC "-//W3C//DTD SVG 1.1//EN"
  "http://www.w3.org/Graphics/SVG/1.1/DTD/svg11.dtd">
<!-- Created with matplotlib (https://matplotlib.org/) -->
<svg height="345.6pt" version="1.1" viewBox="0 0 460.8 345.6" width="460.8pt" xmlns="http://www.w3.org/2000/svg" xmlns:xlink="http://www.w3.org/1999/xlink">
 <defs>
  <style type="text/css">
*{stroke-linecap:butt;stroke-linejoin:round;}
  </style>
 </defs>
 <g id="figure_1">
  <g id="patch_1">
   <path d="M 0 345.6 
L 460.8 345.6 
L 460.8 0 
L 0 0 
z
" style="fill:#ffffff;"/>
  </g>
  <g id="axes_1">
   <g id="patch_2">
    <path d="M 82.520165 307.584 
L 389.799835 307.584 
L 389.799835 41.472 
L 82.520165 41.472 
z
" style="fill:#ffffff;"/>
   </g>
   <g id="patch_3">
    <path clip-path="url(#pfd91e70eac)" d="M 236.16 225.741278 
C 249.74192 225.741278 262.769389 220.345124 272.373256 210.741256 
C 281.977124 201.137389 287.373278 188.10992 287.373278 174.528 
C 287.373278 160.94608 281.977124 147.918611 272.373256 138.314744 
C 262.769389 128.710876 249.74192 123.314722 236.16 123.314722 
C 222.57808 123.314722 209.550611 128.710876 199.946744 138.314744 
C 190.342876 147.918611 184.946722 160.94608 184.946722 174.528 
C 184.946722 188.10992 190.342876 201.137389 199.946744 210.741256 
C 209.550611 220.345124 222.57808 225.741278 236.16 225.741278 
z
" style="fill:#009900;fill-opacity:0.5;stroke:#009900;stroke-linejoin:miter;stroke-width:2;"/>
   </g>
   <g id="matplotlib.axis_1">
    <g id="xtick_1">
     <g id="line2d_1">
      <defs>
       <path d="M 0 0 
L 0 3.5 
" id="m8ee1df2941" style="stroke:#000000;stroke-width:0.8;"/>
      </defs>
      <g>
       <use style="stroke:#000000;stroke-width:0.8;" x="108.126804" xlink:href="#m8ee1df2941" y="307.584"/>
      </g>
     </g>
     <g id="text_1">
      <!-- −2 -->
      <defs>
       <path d="M 10.59375 35.5 
L 73.1875 35.5 
L 73.1875 27.203125 
L 10.59375 27.203125 
z
" id="DejaVuSans-8722"/>
       <path d="M 19.1875 8.296875 
L 53.609375 8.296875 
L 53.609375 0 
L 7.328125 0 
L 7.328125 8.296875 
Q 12.9375 14.109375 22.625 23.890625 
Q 32.328125 33.6875 34.8125 36.53125 
Q 39.546875 41.84375 41.421875 45.53125 
Q 43.3125 49.21875 43.3125 52.78125 
Q 43.3125 58.59375 39.234375 62.25 
Q 35.15625 65.921875 28.609375 65.921875 
Q 23.96875 65.921875 18.8125 64.3125 
Q 13.671875 62.703125 7.8125 59.421875 
L 7.8125 69.390625 
Q 13.765625 71.78125 18.9375 73 
Q 24.125 74.21875 28.421875 74.21875 
Q 39.75 74.21875 46.484375 68.546875 
Q 53.21875 62.890625 53.21875 53.421875 
Q 53.21875 48.921875 51.53125 44.890625 
Q 49.859375 40.875 45.40625 35.40625 
Q 44.1875 33.984375 37.640625 27.21875 
Q 31.109375 20.453125 19.1875 8.296875 
z
" id="DejaVuSans-50"/>
      </defs>
      <g transform="translate(100.755711 322.182437)scale(0.1 -0.1)">
       <use xlink:href="#DejaVuSans-8722"/>
       <use x="83.789062" xlink:href="#DejaVuSans-50"/>
      </g>
     </g>
    </g>
    <g id="xtick_2">
     <g id="line2d_2">
      <g>
       <use style="stroke:#000000;stroke-width:0.8;" x="172.143402" xlink:href="#m8ee1df2941" y="307.584"/>
      </g>
     </g>
     <g id="text_2">
      <!-- −1 -->
      <defs>
       <path d="M 12.40625 8.296875 
L 28.515625 8.296875 
L 28.515625 63.921875 
L 10.984375 60.40625 
L 10.984375 69.390625 
L 28.421875 72.90625 
L 38.28125 72.90625 
L 38.28125 8.296875 
L 54.390625 8.296875 
L 54.390625 0 
L 12.40625 0 
z
" id="DejaVuSans-49"/>
      </defs>
      <g transform="translate(164.772308 322.182437)scale(0.1 -0.1)">
       <use xlink:href="#DejaVuSans-8722"/>
       <use x="83.789062" xlink:href="#DejaVuSans-49"/>
      </g>
     </g>
    </g>
    <g id="xtick_3">
     <g id="line2d_3">
      <g>
       <use style="stroke:#000000;stroke-width:0.8;" x="236.16" xlink:href="#m8ee1df2941" y="307.584"/>
      </g>
     </g>
     <g id="text_3">
      <!-- 0 -->
      <defs>
       <path d="M 31.78125 66.40625 
Q 24.171875 66.40625 20.328125 58.90625 
Q 16.5 51.421875 16.5 36.375 
Q 16.5 21.390625 20.328125 13.890625 
Q 24.171875 6.390625 31.78125 6.390625 
Q 39.453125 6.390625 43.28125 13.890625 
Q 47.125 21.390625 47.125 36.375 
Q 47.125 51.421875 43.28125 58.90625 
Q 39.453125 66.40625 31.78125 66.40625 
z
M 31.78125 74.21875 
Q 44.046875 74.21875 50.515625 64.515625 
Q 56.984375 54.828125 56.984375 36.375 
Q 56.984375 17.96875 50.515625 8.265625 
Q 44.046875 -1.421875 31.78125 -1.421875 
Q 19.53125 -1.421875 13.0625 8.265625 
Q 6.59375 17.96875 6.59375 36.375 
Q 6.59375 54.828125 13.0625 64.515625 
Q 19.53125 74.21875 31.78125 74.21875 
z
" id="DejaVuSans-48"/>
      </defs>
      <g transform="translate(232.97875 322.182437)scale(0.1 -0.1)">
       <use xlink:href="#DejaVuSans-48"/>
      </g>
     </g>
    </g>
    <g id="xtick_4">
     <g id="line2d_4">
      <g>
       <use style="stroke:#000000;stroke-width:0.8;" x="300.176598" xlink:href="#m8ee1df2941" y="307.584"/>
      </g>
     </g>
     <g id="text_4">
      <!-- 1 -->
      <g transform="translate(296.995348 322.182437)scale(0.1 -0.1)">
       <use xlink:href="#DejaVuSans-49"/>
      </g>
     </g>
    </g>
    <g id="xtick_5">
     <g id="line2d_5">
      <g>
       <use style="stroke:#000000;stroke-width:0.8;" x="364.193196" xlink:href="#m8ee1df2941" y="307.584"/>
      </g>
     </g>
     <g id="text_5">
      <!-- 2 -->
      <g transform="translate(361.011946 322.182437)scale(0.1 -0.1)">
       <use xlink:href="#DejaVuSans-50"/>
      </g>
     </g>
    </g>
   </g>
   <g id="matplotlib.axis_2">
    <g id="ytick_1">
     <g id="line2d_6">
      <defs>
       <path d="M 0 0 
L -3.5 0 
" id="mad576b61aa" style="stroke:#000000;stroke-width:0.8;"/>
      </defs>
      <g>
       <use style="stroke:#000000;stroke-width:0.8;" x="82.520165" xlink:href="#mad576b61aa" y="302.561196"/>
      </g>
     </g>
     <g id="text_6">
      <!-- −2.0 -->
      <defs>
       <path d="M 10.6875 12.40625 
L 21 12.40625 
L 21 0 
L 10.6875 0 
z
" id="DejaVuSans-46"/>
      </defs>
      <g transform="translate(51.237353 306.360414)scale(0.1 -0.1)">
       <use xlink:href="#DejaVuSans-8722"/>
       <use x="83.789062" xlink:href="#DejaVuSans-50"/>
       <use x="147.412109" xlink:href="#DejaVuSans-46"/>
       <use x="179.199219" xlink:href="#DejaVuSans-48"/>
      </g>
     </g>
    </g>
    <g id="ytick_2">
     <g id="line2d_7">
      <g>
       <use style="stroke:#000000;stroke-width:0.8;" x="82.520165" xlink:href="#mad576b61aa" y="270.552897"/>
      </g>
     </g>
     <g id="text_7">
      <!-- −1.5 -->
      <defs>
       <path d="M 10.796875 72.90625 
L 49.515625 72.90625 
L 49.515625 64.59375 
L 19.828125 64.59375 
L 19.828125 46.734375 
Q 21.96875 47.46875 24.109375 47.828125 
Q 26.265625 48.1875 28.421875 48.1875 
Q 40.625 48.1875 47.75 41.5 
Q 54.890625 34.8125 54.890625 23.390625 
Q 54.890625 11.625 47.5625 5.09375 
Q 40.234375 -1.421875 26.90625 -1.421875 
Q 22.3125 -1.421875 17.546875 -0.640625 
Q 12.796875 0.140625 7.71875 1.703125 
L 7.71875 11.625 
Q 12.109375 9.234375 16.796875 8.0625 
Q 21.484375 6.890625 26.703125 6.890625 
Q 35.15625 6.890625 40.078125 11.328125 
Q 45.015625 15.765625 45.015625 23.390625 
Q 45.015625 31 40.078125 35.4375 
Q 35.15625 39.890625 26.703125 39.890625 
Q 22.75 39.890625 18.8125 39.015625 
Q 14.890625 38.140625 10.796875 36.28125 
z
" id="DejaVuSans-53"/>
      </defs>
      <g transform="translate(51.237353 274.352116)scale(0.1 -0.1)">
       <use xlink:href="#DejaVuSans-8722"/>
       <use x="83.789062" xlink:href="#DejaVuSans-49"/>
       <use x="147.412109" xlink:href="#DejaVuSans-46"/>
       <use x="179.199219" xlink:href="#DejaVuSans-53"/>
      </g>
     </g>
    </g>
    <g id="ytick_3">
     <g id="line2d_8">
      <g>
       <use style="stroke:#000000;stroke-width:0.8;" x="82.520165" xlink:href="#mad576b61aa" y="238.544598"/>
      </g>
     </g>
     <g id="text_8">
      <!-- −1.0 -->
      <g transform="translate(51.237353 242.343817)scale(0.1 -0.1)">
       <use xlink:href="#DejaVuSans-8722"/>
       <use x="83.789062" xlink:href="#DejaVuSans-49"/>
       <use x="147.412109" xlink:href="#DejaVuSans-46"/>
       <use x="179.199219" xlink:href="#DejaVuSans-48"/>
      </g>
     </g>
    </g>
    <g id="ytick_4">
     <g id="line2d_9">
      <g>
       <use style="stroke:#000000;stroke-width:0.8;" x="82.520165" xlink:href="#mad576b61aa" y="206.536299"/>
      </g>
     </g>
     <g id="text_9">
      <!-- −0.5 -->
      <g transform="translate(51.237353 210.335518)scale(0.1 -0.1)">
       <use xlink:href="#DejaVuSans-8722"/>
       <use x="83.789062" xlink:href="#DejaVuSans-48"/>
       <use x="147.412109" xlink:href="#DejaVuSans-46"/>
       <use x="179.199219" xlink:href="#DejaVuSans-53"/>
      </g>
     </g>
    </g>
    <g id="ytick_5">
     <g id="line2d_10">
      <g>
       <use style="stroke:#000000;stroke-width:0.8;" x="82.520165" xlink:href="#mad576b61aa" y="174.528"/>
      </g>
     </g>
     <g id="text_10">
      <!-- 0.0 -->
      <g transform="translate(59.61704 178.327219)scale(0.1 -0.1)">
       <use xlink:href="#DejaVuSans-48"/>
       <use x="63.623047" xlink:href="#DejaVuSans-46"/>
       <use x="95.410156" xlink:href="#DejaVuSans-48"/>
      </g>
     </g>
    </g>
    <g id="ytick_6">
     <g id="line2d_11">
      <g>
       <use style="stroke:#000000;stroke-width:0.8;" x="82.520165" xlink:href="#mad576b61aa" y="142.519701"/>
      </g>
     </g>
     <g id="text_11">
      <!-- 0.5 -->
      <g transform="translate(59.61704 146.31892)scale(0.1 -0.1)">
       <use xlink:href="#DejaVuSans-48"/>
       <use x="63.623047" xlink:href="#DejaVuSans-46"/>
       <use x="95.410156" xlink:href="#DejaVuSans-53"/>
      </g>
     </g>
    </g>
    <g id="ytick_7">
     <g id="line2d_12">
      <g>
       <use style="stroke:#000000;stroke-width:0.8;" x="82.520165" xlink:href="#mad576b61aa" y="110.511402"/>
      </g>
     </g>
     <g id="text_12">
      <!-- 1.0 -->
      <g transform="translate(59.61704 114.310621)scale(0.1 -0.1)">
       <use xlink:href="#DejaVuSans-49"/>
       <use x="63.623047" xlink:href="#DejaVuSans-46"/>
       <use x="95.410156" xlink:href="#DejaVuSans-48"/>
      </g>
     </g>
    </g>
    <g id="ytick_8">
     <g id="line2d_13">
      <g>
       <use style="stroke:#000000;stroke-width:0.8;" x="82.520165" xlink:href="#mad576b61aa" y="78.503103"/>
      </g>
     </g>
     <g id="text_13">
      <!-- 1.5 -->
      <g transform="translate(59.61704 82.302322)scale(0.1 -0.1)">
       <use xlink:href="#DejaVuSans-49"/>
       <use x="63.623047" xlink:href="#DejaVuSans-46"/>
       <use x="95.410156" xlink:href="#DejaVuSans-53"/>
      </g>
     </g>
    </g>
    <g id="ytick_9">
     <g id="line2d_14">
      <g>
       <use style="stroke:#000000;stroke-width:0.8;" x="82.520165" xlink:href="#mad576b61aa" y="46.494804"/>
      </g>
     </g>
     <g id="text_14">
      <!-- 2.0 -->
      <g transform="translate(59.61704 50.294023)scale(0.1 -0.1)">
       <use xlink:href="#DejaVuSans-50"/>
       <use x="63.623047" xlink:href="#DejaVuSans-46"/>
       <use x="95.410156" xlink:href="#DejaVuSans-48"/>
      </g>
     </g>
    </g>
   </g>
   <g id="line2d_15">
    <path clip-path="url(#pfd91e70eac)" d="M 300.176598 63.648 
L 172.143402 63.648 
" style="fill:none;stroke:#009900;stroke-linecap:square;stroke-width:2;"/>
   </g>
   <g id="line2d_16">
    <path clip-path="url(#pfd91e70eac)" d="M 172.143402 63.648 
L 108.126804 174.528 
" style="fill:none;stroke:#009900;stroke-linecap:square;stroke-width:2;"/>
   </g>
   <g id="line2d_17">
    <path clip-path="url(#pfd91e70eac)" d="M 108.126804 174.528 
L 172.143402 285.408 
" style="fill:none;stroke:#009900;stroke-linecap:square;stroke-width:2;"/>
   </g>
   <g id="line2d_18">
    <path clip-path="url(#pfd91e70eac)" d="M 172.143402 285.408 
L 300.176598 285.408 
" style="fill:none;stroke:#009900;stroke-linecap:square;stroke-width:2;"/>
   </g>
   <g id="line2d_19">
    <path clip-path="url(#pfd91e70eac)" d="M 300.176598 285.408 
L 364.193196 174.528 
" style="fill:none;stroke:#009900;stroke-linecap:square;stroke-width:2;"/>
   </g>
   <g id="line2d_20">
    <path clip-path="url(#pfd91e70eac)" d="M 364.193196 174.528 
L 300.176598 63.648 
" style="fill:none;stroke:#009900;stroke-linecap:square;stroke-width:2;"/>
   </g>
   <g id="line2d_21">
    <path clip-path="url(#pfd91e70eac)" d="M 243.802186 266.237004 
L 240.065391 269.738556 
L 236.47161 273.386739 
L 233.026591 277.175716 
L 229.735847 281.099427 
L 226.415072 285.408 
L 223.293968 281.348047 
L 220.013007 277.416153 
L 216.577436 273.618607 
L 212.992752 269.961485 
L 209.264689 266.450638 
L 205.399212 263.091681 
L 201.402504 259.88999 
L 197.28096 256.850684 
L 193.041173 253.978628 
L 188.689926 251.278416 
L 184.234179 248.754366 
L 179.681061 246.410519 
L 175.037857 244.250622 
L 170.311994 242.278131 
L 165.511032 240.496202 
L 160.642653 238.907686 
L 155.714644 237.515124 
L 150.734889 236.320744 
L 145.711355 235.326456 
L 142.965606 234.870574 
L 144.721282 230.05995 
L 146.28318 225.182966 
L 147.648801 220.247423 
L 148.815961 215.261219 
L 149.782792 210.232328 
L 150.547748 205.168797 
L 151.109605 200.078727 
L 151.467464 194.970259 
L 151.620752 189.851568 
L 151.569225 184.73084 
L 151.312964 179.61627 
L 150.852381 174.516038 
L 150.18821 169.438304 
L 149.321516 164.391192 
L 148.253684 159.382775 
L 146.986424 154.421067 
L 145.521761 149.514004 
L 143.86204 144.669437 
L 142.009916 139.895117 
L 139.968351 135.19868 
L 137.740612 130.587641 
L 135.709846 126.752771 
L 140.826809 126.549816 
L 145.931563 126.142399 
L 151.015941 125.531173 
L 156.07181 124.717115 
L 161.091081 123.701527 
L 166.065725 122.486034 
L 170.987783 121.072581 
L 175.84938 119.463428 
L 180.64274 117.661151 
L 185.360194 115.668632 
L 189.994195 113.489059 
L 194.537329 111.125919 
L 198.982329 108.582992 
L 203.322083 105.864346 
L 207.54965 102.974332 
L 211.658265 99.917571 
L 215.641355 96.698955 
L 219.49255 93.323632 
L 223.205687 89.797003 
L 226.774826 86.124708 
L 230.194257 82.312623 
L 233.458511 78.366847 
L 236.562365 74.293692 
L 239.500853 70.099674 
L 242.269275 65.791502 
L 243.558195 63.648 
L 246.241931 68.009429 
L 249.09793 72.260049 
L 252.121625 76.393059 
L 255.308177 80.401848 
L 258.652489 84.280002 
L 262.149211 88.021317 
L 265.792748 91.619808 
L 269.577272 95.069718 
L 273.496729 98.365528 
L 277.544847 101.501965 
L 281.715152 104.474012 
L 286.000971 107.276913 
L 290.395448 109.906186 
L 294.891553 112.357623 
L 299.482093 114.627303 
L 304.159723 116.711595 
L 308.916962 118.607164 
L 313.746198 120.310978 
L 318.639705 121.820312 
L 323.589655 123.13275 
L 328.58813 124.246193 
L 333.627132 125.15886 
L 335.887476 125.501056 
L 334.072579 130.289652 
L 332.450626 135.146994 
L 331.024213 140.065311 
L 329.795621 145.036736 
L 328.766815 150.053314 
L 327.939442 155.107021 
L 327.314825 160.189772 
L 326.893964 165.293435 
L 326.677531 170.409846 
L 326.665874 175.530819 
L 326.85901 180.648162 
L 327.25663 185.753689 
L 327.8581 190.839231 
L 328.662455 195.896652 
L 329.66841 200.917863 
L 330.874355 205.89483 
L 332.278362 210.81959 
L 333.878183 215.684267 
L 335.671259 220.481076 
L 336.494067 222.504298 
L 331.429681 223.263573 
L 326.399709 224.224761 
L 321.412198 225.386326 
L 316.475126 226.746409 
L 311.596392 228.302834 
L 306.783802 230.053112 
L 302.045053 231.994442 
L 297.387727 234.123718 
L 292.819275 236.437535 
L 288.347005 238.93219 
L 283.978072 241.603693 
L 279.719466 244.447769 
L 275.577998 247.45987 
L 271.560295 250.635175 
L 267.672785 253.968606 
L 263.921685 257.45483 
L 260.312998 261.088269 
L 256.852496 264.86311 
L 253.545716 268.773316 
L 250.397947 272.812629 
L 247.414225 276.974589 
L 244.599324 281.252536 
L 242.091301 285.408 
L 239.440568 281.026434 
L 236.616739 276.754375 
L 233.624333 272.598655 
L 230.468136 268.565924 
L 227.153197 264.662633 
L 223.684819 260.895026 
L 220.068552 257.269131 
L 216.310181 253.790748 
L 212.415717 250.465443 
L 208.391392 247.298534 
L 204.243644 244.295089 
L 199.979107 241.459912 
L 195.604605 238.797539 
L 191.127135 236.312229 
L 186.553861 234.007957 
L 181.892099 231.888411 
L 177.149306 229.956982 
L 172.333071 228.216758 
L 167.451097 226.670524 
L 162.511196 225.320755 
L 157.52127 224.169608 
L 152.489302 223.218925 
L 147.423341 222.470229 
L 142.331493 221.924715 
L 137.221904 221.583258 
L 135.249718 221.506264 
L 137.579377 216.945871 
L 139.724806 212.295963 
L 141.682572 207.563981 
L 143.449543 202.757494 
L 145.022892 197.884192 
L 146.400103 192.951871 
L 147.578972 187.968422 
L 148.557613 182.941816 
L 149.334461 177.880096 
L 149.908272 172.791359 
L 150.278129 167.683747 
L 150.443441 162.565429 
L 150.403942 157.444595 
L 150.159696 152.329437 
L 149.711093 147.228137 
L 149.058852 142.148857 
L 148.204016 137.099723 
L 147.147952 132.088812 
L 145.892349 127.12414 
L 144.439217 122.21365 
L 142.79088 117.365198 
L 142.141343 115.61309 
L 147.178406 114.689781 
L 152.174517 113.565781 
L 157.121684 112.24289 
L 162.011992 110.723223 
L 166.837618 109.009211 
L 171.590842 107.103596 
L 176.264059 105.009428 
L 180.849794 102.730055 
L 185.34071 100.269126 
L 189.729623 97.630576 
L 194.009512 94.818628 
L 198.173529 91.837778 
L 202.215013 88.692797 
L 206.127499 85.388715 
L 209.904727 81.930818 
L 213.540654 78.324638 
L 217.029465 74.575945 
L 220.365577 70.690735 
L 223.543654 66.675224 
L 225.773287 63.648 
L 228.832091 67.755094 
L 232.052687 71.736584 
L 235.429925 75.586099 
L 238.958401 79.297481 
L 242.63247 82.864794 
L 246.446255 86.282329 
L 250.393654 89.54462 
L 254.468352 92.646448 
L 258.663831 95.58285 
L 262.973379 98.349128 
L 267.390102 100.940859 
L 271.906933 103.353894 
L 276.516647 105.584374 
L 281.211868 107.62873 
L 285.985087 109.483693 
L 290.828666 111.146293 
L 295.734858 112.613873 
L 300.695812 113.884083 
L 305.703593 114.954892 
L 310.750189 115.824586 
L 315.827527 116.491775 
L 320.927484 116.955391 
L 326.041902 117.214692 
L 331.134996 117.269518 
L 328.62287 121.731998 
L 326.291206 126.291367 
L 324.143732 130.94033 
L 322.183886 135.671451 
L 320.414801 140.47716 
L 318.839309 145.34977 
L 317.459929 150.281485 
L 316.278869 155.264415 
L 315.298017 160.29059 
L 314.518943 165.351968 
L 313.942894 170.440452 
L 313.570791 175.547901 
L 313.403228 180.666146 
L 313.440475 185.786997 
L 313.682472 190.902262 
L 314.128831 196.003758 
L 314.778838 201.083325 
L 315.631454 206.132834 
L 316.685315 211.144209 
L 317.938734 216.109433 
L 319.389706 221.020561 
L 321.035911 225.869737 
L 322.874714 230.649204 
L 324.903174 235.351316 
L 326.789605 239.312919 
L 321.685848 239.732638 
L 316.602958 240.356118 
L 311.549066 241.18236 
L 306.532257 242.210044 
L 301.560558 243.437524 
L 296.641921 244.862837 
L 291.784217 246.483703 
L 286.995215 248.297529 
L 282.282578 250.301413 
L 277.653844 252.492149 
L 273.116419 254.866233 
L 268.677561 257.419867 
L 264.344372 260.148965 
L 260.123784 263.049161 
L 256.022549 266.115816 
L 252.047228 269.344024 
L 248.20418 272.728619 
L 244.499555 276.264189 
L 240.939278 279.945076 
L 237.529044 283.765391 
L 236.1445 285.408 
L 232.798846 281.531003 
L 229.30083 277.790899 
L 225.656048 274.193669 
L 221.87033 270.745069 
L 217.949733 267.450615 
L 213.900529 264.315579 
L 209.729196 261.344976 
L 205.442407 258.543558 
L 201.047021 255.915806 
L 196.550068 253.465925 
L 191.958743 251.197834 
L 187.280392 249.115161 
L 182.522497 247.221238 
L 177.692672 245.519095 
L 172.798643 244.011455 
L 167.848239 242.70073 
L 162.849379 241.589016 
L 157.810062 240.678093 
L 152.738348 239.969418 
L 147.642351 239.464124 
L 145.53155 239.314921 
L 147.718776 234.684527 
L 149.719086 229.970372 
L 151.52928 225.179996 
L 153.146461 220.321063 
L 154.568044 215.401347 
L 155.791754 210.428719 
L 156.815632 205.411132 
L 157.638042 200.356615 
L 158.257667 195.273253 
L 158.673516 190.169179 
L 158.884924 185.052558 
L 158.891553 179.931576 
L 158.693392 174.814425 
L 158.290757 169.709292 
L 157.684294 164.624343 
L 156.874972 159.567714 
L 155.864087 154.547493 
L 154.653255 149.571713 
L 153.244413 144.648334 
L 151.639815 139.785231 
L 149.842029 134.990185 
L 147.85393 130.270867 
L 145.678699 125.634826 
L 143.319815 121.08948 
L 141.16948 117.296407 
L 146.290166 117.240915 
L 151.404536 116.980696 
L 156.50441 116.516164 
L 161.581628 115.848063 
L 166.628068 114.977461 
L 171.635657 113.905753 
L 176.596383 112.634651 
L 181.50231 111.166191 
L 186.345591 109.50272 
L 191.118476 107.6469 
L 195.81333 105.6017 
L 200.422643 103.370392 
L 204.939041 100.956545 
L 209.355298 98.364021 
L 213.664348 95.596968 
L 217.8593 92.659812 
L 221.933441 89.557253 
L 225.880254 86.294253 
L 229.693424 82.876032 
L 233.366853 79.30806 
L 236.894662 75.596043 
L 240.271208 71.745921 
L 243.491089 67.763853 
L 246.555014 63.648 
L 249.612756 67.755885 
L 252.832324 71.738206 
L 256.208567 75.588594 
L 259.736083 79.300889 
L 263.40923 82.86915 
L 267.222132 86.287671 
L 271.168688 89.550982 
L 275.242584 92.653863 
L 279.437304 95.591349 
L 283.746137 98.358742 
L 288.16219 100.951613 
L 292.678397 103.365816 
L 297.287534 105.597487 
L 301.982227 107.643057 
L 306.754966 109.499253 
L 311.598116 111.163105 
L 316.503928 112.631952 
L 321.464554 113.903445 
L 326.472058 114.975548 
L 330.192963 115.637869 
L 328.474545 120.461928 
L 326.950414 125.350847 
L 325.623005 130.296803 
L 324.494444 135.291886 
L 323.566536 140.328104 
L 322.840765 145.3974 
L 322.318293 150.491663 
L 321.999954 155.602746 
L 321.886259 160.72247 
L 321.97739 165.842645 
L 322.273199 170.955081 
L 322.773215 176.051598 
L 323.476638 181.124043 
L 324.382341 186.164301 
L 325.488877 191.164309 
L 326.794474 196.116068 
L 328.297045 201.011657 
L 329.994185 205.843242 
L 331.883179 210.603095 
L 333.961006 215.283601 
L 336.224341 219.877273 
L 337.076755 221.495053 
L 331.962563 221.75877 
L 326.863008 222.226788 
L 321.786248 222.89836 
L 316.740405 223.772411 
L 311.73355 224.847542 
L 306.773694 226.122035 
L 301.868772 227.593849 
L 297.026629 229.260631 
L 292.255014 231.119713 
L 287.561559 233.168122 
L 282.953772 235.402581 
L 278.439026 237.819514 
L 274.024543 240.415057 
L 269.717384 243.185055 
L 265.524442 246.125078 
L 261.452423 249.230422 
L 257.507841 252.496119 
L 253.697008 255.916946 
L 250.02602 259.487429 
L 246.50075 263.201856 
L 243.126837 267.054285 
L 239.909678 271.038554 
L 236.854422 275.148287 
L 233.965954 279.376911 
L 231.248897 283.71766 
L 230.25482 285.408 
L 227.604564 281.026146 
L 224.7812 276.75378 
L 221.789245 272.597735 
L 218.633486 268.564661 
L 215.318971 264.661009 
L 211.851003 260.893026 
L 208.23513 257.266738 
L 204.477137 253.787947 
L 200.583035 250.462218 
L 196.559054 247.294872 
L 192.411632 244.290976 
L 188.147403 241.455336 
L 183.77319 238.792487 
L 179.295991 236.30669 
L 174.722967 234.001922 
L 170.061435 231.88187 
L 165.318852 229.949924 
L 160.502806 228.209177 
L 155.621001 226.662413 
L 150.681247 225.312106 
L 145.691446 224.160417 
L 140.659581 223.209188 
L 135.816869 222.488599 
L 137.69257 217.723491 
L 139.376217 212.887188 
L 140.865118 207.987425 
L 142.156888 203.032041 
L 143.249464 198.028964 
L 144.141095 192.986197 
L 144.830356 187.911808 
L 145.316145 182.813915 
L 145.597684 177.700674 
L 145.674522 172.580264 
L 145.546537 167.460877 
L 145.213934 162.350703 
L 144.677244 157.257918 
L 143.937326 152.190668 
L 142.995364 147.15706 
L 141.852865 142.165146 
L 140.511657 137.222914 
L 138.973885 132.338269 
L 137.242009 127.519025 
L 136.443579 125.481907 
L 141.497916 124.658385 
L 146.515277 123.633403 
L 151.487636 122.408599 
L 156.407039 120.985934 
L 161.265616 119.367683 
L 166.055593 117.556435 
L 170.769308 115.555089 
L 175.399221 113.366844 
L 179.937923 110.995203 
L 184.378155 108.443959 
L 188.712812 105.717195 
L 192.934961 102.819271 
L 197.037846 99.754824 
L 201.014905 96.528757 
L 204.859774 93.14623 
L 208.566302 89.612656 
L 212.12856 85.933686 
L 215.540849 82.115207 
L 218.797711 78.163327 
L 221.893934 74.084368 
L 224.824565 69.884856 
L 227.584917 65.571509 
L 228.739288 63.648 
L 231.423644 68.009048 
L 234.280247 72.259262 
L 237.304529 76.391842 
L 240.491651 80.400178 
L 243.836514 84.277857 
L 247.333767 88.018675 
L 250.977816 91.616648 
L 254.76283 95.06602 
L 258.682755 98.361273 
L 262.73132 101.497135 
L 266.902047 104.468589 
L 271.188264 107.270881 
L 275.583114 109.899529 
L 280.079567 112.350327 
L 284.67043 114.619355 
L 289.348357 116.702982 
L 294.105864 118.597875 
L 298.935342 120.301003 
L 303.829064 121.809642 
L 308.779201 123.121376 
L 313.777833 124.234109 
L 318.816965 125.14606 
L 323.888534 125.855769 
L 328.984428 126.362103 
L 334.096493 126.664249 
L 336.601359 126.737537 
L 334.217829 131.270007 
L 332.017456 135.894167 
L 330.00376 140.602621 
L 328.179963 145.387834 
L 326.548982 150.242152 
L 325.113427 155.157809 
L 323.875594 160.126941 
L 322.837463 165.141598 
L 322.000696 170.193758 
L 321.36663 175.275339 
L 320.936281 180.37821 
L 320.710336 185.49421 
L 320.689157 190.615153 
L 320.872779 195.732846 
L 321.260906 200.839103 
L 321.852919 205.925754 
L 322.647871 210.984663 
L 323.644488 216.007735 
L 324.841178 220.986935 
L 326.236026 225.914298 
L 327.8268 230.78194 
L 329.341375 234.893124 
L 324.297284 235.777228 
L 319.292582 236.862335 
L 314.335275 238.146709 
L 309.433296 239.628295 
L 304.594485 241.304723 
L 299.826583 243.173311 
L 295.13722 245.231069 
L 290.533895 247.474706 
L 286.023974 249.900632 
L 281.614672 252.504966 
L 277.313043 255.283542 
L 273.125967 258.231915 
L 269.060145 261.345368 
L 265.122079 264.618919 
L 261.318071 268.047333 
L 257.654205 271.625125 
L 254.136344 275.34657 
L 250.770115 279.205715 
L 247.560903 283.196387 
L 245.891934 285.408 
L 242.769828 281.348818 
L 239.487895 277.417735 
L 236.051386 273.621038 
L 232.465799 269.964801 
L 228.736869 266.454875 
L 224.870562 263.096873 
L 220.873064 259.896169 
L 216.750769 256.857882 
L 212.510273 253.986873 
L 208.158359 251.287735 
L 203.701989 248.764787 
L 199.148292 246.422064 
L 194.504555 244.263314 
L 189.778204 242.291991 
L 184.976803 240.511248 
L 180.108031 238.923934 
L 175.179678 237.53259 
L 170.199629 236.339439 
L 165.175849 235.346392 
L 160.116377 234.555037 
L 155.029306 233.96664 
L 149.922775 233.582142 
L 144.804952 233.402158 
L 142.110611 233.38968 
L 144.60828 228.919093 
L 146.925176 224.352201 
L 149.057591 219.696312 
L 151.002114 214.958872 
L 152.755636 210.147463 
L 154.315349 205.269779 
L 155.678759 200.333625 
L 156.843686 195.346898 
L 157.808265 190.317575 
L 158.570952 185.253702 
L 159.130529 180.163381 
L 159.4861 175.054753 
L 159.637096 169.935994 
L 159.583275 164.81529 
L 159.324724 159.700835 
L 158.861855 154.60081 
L 158.195411 149.523374 
L 157.326456 144.47665 
L 156.256381 139.468712 
L 154.986898 134.507572 
L 153.520038 129.601166 
L 151.858147 124.757343 
L 150.003885 119.983852 
L 147.960216 115.288331 
L 145.730412 110.67829 
L 145.382496 109.999249 
L 150.491948 109.655738 
L 155.583577 109.108178 
L 160.649236 108.357446 
L 165.680822 107.404741 
L 170.670285 106.251589 
L 175.609643 104.899834 
L 180.490995 103.351639 
L 185.30653 101.60948 
L 190.048546 99.676145 
L 194.709456 97.554725 
L 199.281804 95.248617 
L 203.758275 92.761507 
L 208.131707 90.097376 
L 212.395104 87.260485 
L 216.541645 84.255374 
L 220.564697 81.086848 
L 224.457824 77.759978 
L 228.214797 74.280085 
L 231.829607 70.652737 
L 235.29647 66.883737 
L 238.061098 63.648 
L 241.400778 67.530144 
L 244.89303 71.275631 
L 248.532269 74.87847 
L 252.312671 78.332896 
L 256.22819 81.633383 
L 260.272561 84.774651 
L 264.439314 87.751674 
L 268.721784 90.559691 
L 273.113119 93.194208 
L 277.606293 95.651011 
L 282.19412 97.92617 
L 286.869259 100.016046 
L 291.624231 101.917293 
L 296.451429 103.626872 
L 301.343131 105.142047 
L 306.291511 106.460394 
L 311.288652 107.579804 
L 316.326561 108.498486 
L 321.397177 109.214971 
L 326.794819 109.752111 
L 324.680548 114.416268 
L 322.754485 119.161243 
L 321.019711 123.979444 
L 319.479001 128.863163 
L 318.134821 133.804588 
L 316.98932 138.795813 
L 316.044331 143.828854 
L 315.301366 148.895658 
L 314.761613 153.98812 
L 314.425936 159.098093 
L 314.294872 164.217402 
L 314.368631 169.337857 
L 314.647094 174.451267 
L 315.129816 179.549451 
L 315.816025 184.624253 
L 316.704624 189.667555 
L 317.794189 194.671289 
L 319.08298 199.627449 
L 320.568932 204.528106 
L 322.249671 209.365422 
L 324.122506 214.131656 
L 326.184441 218.819185 
L 328.432178 223.420509 
L 330.862121 227.928266 
L 332.113147 230.092274 
L 326.9924 230.141802 
L 321.87773 230.396065 
L 316.777319 230.854658 
L 311.699326 231.516845 
L 306.651876 232.381569 
L 301.643043 233.447445 
L 296.68084 234.712768 
L 291.773205 236.175515 
L 286.927991 237.833344 
L 282.152947 239.683604 
L 277.455714 241.723335 
L 272.843806 243.949274 
L 268.3246 246.357859 
L 263.905327 248.945238 
L 259.593057 251.707271 
L 255.394688 254.639539 
L 251.316936 257.737352 
L 247.366326 260.995753 
L 243.549177 264.409531 
L 239.871596 267.973223 
L 236.339466 271.681128 
L 232.958439 275.527315 
L 229.733922 279.50563 
L 226.671075 283.60971 
L 225.407402 285.408 
L 222.415456 281.251949 
L 219.259706 277.218867 
L 215.9452 273.315209 
L 212.477241 269.547217 
L 208.861376 265.920921 
L 205.10339 262.442122 
L 201.209295 259.116385 
L 197.185321 255.94903 
L 193.037906 252.945125 
L 188.773683 250.109475 
L 184.399476 247.446617 
L 179.922282 244.96081 
L 175.349264 242.656032 
L 170.687737 240.535969 
L 165.945158 238.604013 
L 161.129116 236.863256 
L 156.247314 235.316481 
L 151.307563 233.966163 
L 146.317764 232.814463 
L 141.223226 231.852684 
L 142.917758 227.020183 
L 144.417686 222.123785 
L 145.720611 217.171322 
L 146.824448 212.170717 
L 147.727431 207.129971 
L 148.428116 202.057147 
L 148.925382 196.960361 
L 149.218432 191.847766 
L 149.306799 186.727542 
L 149.190341 181.60788 
L 148.869244 176.496971 
L 148.344022 171.40299 
L 147.615516 166.334086 
L 146.68489 161.29837 
L 145.553633 156.303897 
L 144.223556 151.358657 
L 142.696786 146.470562 
L 140.975765 141.647431 
L 139.063247 136.896981 
L 136.962292 132.226811 
L 134.922468 128.116549 
L 140.032636 127.783845 
L 145.125411 127.247055 
L 150.192646 126.507037 
L 155.226236 125.564977 
L 160.218127 124.42238 
L 165.160333 123.081074 
L 170.044948 121.543206 
L 174.864157 119.811235 
L 179.610251 117.887933 
L 184.275638 115.776377 
L 188.852853 113.479943 
L 193.334573 111.002307 
L 197.71363 108.347431 
L 201.983017 105.519564 
L 206.135905 102.523228 
L 210.165649 99.363218 
L 214.065803 96.044589 
L 217.830128 92.57265 
L 221.452601 88.952956 
L 224.927428 85.191296 
L 228.249049 81.293689 
L 231.41215 77.266371 
L 234.411671 73.115784 
L 237.242813 68.848568 
L 239.901048 64.471549 
L 240.374849 63.648 
L 243.000529 68.044624 
L 245.799928 72.332732 
L 248.768566 76.505464 
L 251.901694 80.556144 
L 255.1943 84.478293 
L 258.641116 88.265635 
L 262.236628 91.912111 
L 265.975085 95.411889 
L 269.850505 98.759369 
L 273.856688 101.949196 
L 277.987226 104.976267 
L 282.235511 107.835739 
L 286.594746 110.523037 
L 291.057957 113.033863 
L 295.618004 115.3642 
L 300.267593 117.51032 
L 304.999284 119.468789 
L 309.805508 121.236474 
L 314.678576 122.810547 
L 319.610693 124.188491 
L 324.593967 125.368101 
L 329.620427 126.347489 
L 334.682032 127.125089 
L 336.990342 127.411276 
L 335.046573 132.149024 
L 333.293818 136.960714 
L 331.734882 141.838645 
L 330.372257 146.775016 
L 329.208125 151.761929 
L 328.244347 156.791405 
L 327.482466 161.8554 
L 326.9237 166.94581 
L 326.568943 172.054494 
L 326.418762 177.173278 
L 326.473399 182.293973 
L 326.732764 187.408387 
L 327.196445 192.508338 
L 327.863698 197.585668 
L 328.733457 202.632253 
L 329.804329 207.64002 
L 331.074602 212.600959 
L 332.542244 217.507131 
L 334.204906 222.350689 
L 335.145165 224.840665 
L 330.099865 225.717849 
L 325.093679 226.796089 
L 320.134615 228.07366 
L 315.230607 229.54852 
L 310.389501 231.218307 
L 305.61904 233.080352 
L 300.926858 235.131674 
L 296.32046 237.368994 
L 291.807215 239.78873 
L 287.394344 242.387012 
L 283.088906 245.159684 
L 278.89779 248.102309 
L 274.827699 251.210181 
L 270.885146 254.478327 
L 267.076438 257.901519 
L 263.407667 261.47428 
L 259.884704 265.190895 
L 256.513183 269.045419 
L 253.298499 273.031684 
L 250.245794 277.143313 
L 247.359953 281.373729 
L 244.830339 285.408 
L 242.103802 281.073199 
L 239.2061 276.850898 
L 236.141869 272.747852 
L 232.916011 268.770624 
L 229.533687 264.925577 
L 226.000307 261.218863 
L 222.321524 257.656412 
L 218.503224 254.243922 
L 214.551516 250.986853 
L 210.47272 247.890415 
L 206.273362 244.959563 
L 201.96016 242.198984 
L 197.540015 239.613096 
L 193.019997 237.206035 
L 188.407339 234.981652 
L 183.709418 232.943505 
L 178.933751 231.094855 
L 174.087978 229.43866 
L 169.17985 227.977568 
L 164.217221 226.713918 
L 159.208028 225.649732 
L 154.160287 224.78671 
L 149.082071 224.126235 
L 143.981505 223.669363 
L 138.86675 223.416824 
L 136.324294 223.367485 
L 138.752986 218.859053 
L 140.999446 214.257106 
L 143.06008 209.569005 
L 144.931592 204.802251 
L 146.610988 199.964469 
L 148.09558 195.063399 
L 149.382995 190.106882 
L 150.471172 185.102846 
L 151.35837 180.059298 
L 152.043171 174.984305 
L 152.524478 169.885987 
L 152.801522 164.7725 
L 152.873859 159.652025 
L 152.741374 154.532752 
L 152.404279 149.422873 
L 151.863113 144.330561 
L 151.118741 139.263963 
L 150.172355 134.231185 
L 149.025469 129.240278 
L 147.679917 124.299226 
L 146.137852 119.415935 
L 144.40174 114.598215 
L 143.725155 112.869848 
L 148.778072 112.037667 
L 153.79367 111.004089 
L 158.763923 109.770767 
L 163.680881 108.339674 
L 168.536678 106.7131 
L 173.323544 104.893647 
L 178.033823 102.884226 
L 182.659979 100.688052 
L 187.194611 98.308637 
L 191.630465 95.749788 
L 195.960443 93.0156 
L 200.17762 90.110446 
L 204.275248 87.038973 
L 208.246773 83.806096 
L 212.08584 80.416986 
L 215.786308 76.877065 
L 219.342257 73.191997 
L 222.747998 69.367676 
L 225.998083 65.410221 
L 227.362548 63.648 
L 230.543254 67.661429 
L 233.88191 71.544453 
L 237.373175 75.29086 
L 241.011464 78.894657 
L 244.790957 82.350079 
L 248.705606 85.651598 
L 252.749149 88.793931 
L 256.915118 91.772053 
L 261.196847 94.581197 
L 265.587488 97.216872 
L 270.080015 99.674859 
L 274.667242 101.951227 
L 279.34183 104.042334 
L 284.096301 105.944835 
L 288.923048 107.655685 
L 293.81435 109.172149 
L 298.762383 110.4918 
L 303.759229 111.612527 
L 308.796896 112.532537 
L 313.867323 113.250358 
L 318.9624 113.764841 
L 324.073975 114.075165 
L 329.351743 114.180834 
L 326.877775 118.664581 
L 324.585087 123.243673 
L 322.477348 127.910785 
L 320.55793 132.658452 
L 318.829903 137.479077 
L 317.296032 142.364948 
L 315.958771 147.30825 
L 314.820259 152.301074 
L 313.882317 157.335433 
L 313.146446 162.403272 
L 312.613823 167.496485 
L 312.2853 172.606923 
L 312.161403 177.72641 
L 312.24233 182.846757 
L 312.527952 187.959772 
L 313.017811 193.057275 
L 313.711124 198.131112 
L 314.606782 203.173165 
L 315.703352 208.175368 
L 316.99908 213.129719 
L 318.491892 218.028292 
L 320.179401 222.863249 
L 322.058906 227.626857 
L 324.127402 232.311494 
L 326.381579 236.909667 
L 327.236219 238.539361 
L 322.122538 238.812805 
L 317.023883 239.290523 
L 311.94841 239.971751 
L 306.904238 240.855399 
L 301.899437 241.940053 
L 296.942015 243.223978 
L 292.039901 244.70512 
L 287.200938 246.381109 
L 282.432868 248.249265 
L 277.743317 250.306598 
L 273.13979 252.549818 
L 268.629649 254.975336 
L 264.220111 257.57927 
L 259.91823 260.357457 
L 255.730888 263.30545 
L 251.664783 266.418535 
L 247.726421 269.69173 
L 243.922102 273.119799 
L 240.257913 276.697259 
L 236.739714 280.418385 
L 233.373135 284.277226 
L 232.436743 285.408 
L 229.114634 281.510809 
L 225.639337 277.749585 
L 222.01641 274.130344 
L 218.25165 270.658877 
L 214.35108 267.340737 
L 210.32094 264.181232 
L 206.167677 261.185416 
L 201.897936 258.358084 
L 197.518547 255.703757 
L 193.036516 253.226682 
L 188.459013 250.930822 
L 183.793362 248.81985 
L 179.047027 246.897142 
L 174.227601 245.165775 
L 169.342793 243.628519 
L 164.400419 242.287833 
L 159.408385 241.145861 
L 154.374677 240.204431 
L 149.307349 239.465049 
L 145.368406 239.032347 
L 147.408086 234.335092 
L 149.258295 229.560028 
L 150.916072 224.714796 
L 152.378765 219.807146 
L 153.644034 214.844929 
L 154.709856 209.836084 
L 155.574525 204.788624 
L 156.236658 199.710625 
L 156.695195 194.610208 
L 156.949403 189.495535 
L 156.998875 184.374788 
L 156.843533 179.256158 
L 156.483624 174.147835 
L 155.919725 169.05799 
L 155.152737 163.994767 
L 154.183888 158.966265 
L 153.014727 153.980528 
L 151.647125 149.045534 
L 150.08327 144.169177 
L 148.325664 139.359258 
L 146.377118 134.623472 
L 144.24075 129.969395 
L 141.919977 125.404472 
L 139.241703 120.635415 
L 144.362405 120.581462 
L 149.476854 120.322779 
L 154.576867 119.859779 
L 159.654285 119.193204 
L 164.700986 118.324119 
L 169.708897 117.253915 
L 174.670004 115.984304 
L 179.576373 114.517317 
L 184.420153 112.855302 
L 189.193596 111.000916 
L 193.889065 108.957127 
L 198.499048 106.727204 
L 203.01617 104.314714 
L 207.433206 101.723517 
L 211.743088 98.957759 
L 215.938922 96.021864 
L 220.013995 92.920529 
L 223.961788 89.658715 
L 227.775985 86.24164 
L 231.450485 82.674771 
L 234.979409 78.963815 
L 238.357112 75.114708 
L 241.57819 71.133608 
L 244.637489 67.026883 
L 246.970128 63.648 
L 249.896174 67.850708 
L 252.987943 71.933044 
L 256.240489 75.888476 
L 259.648609 79.710678 
L 263.206849 83.393534 
L 266.909519 86.931152 
L 270.750693 90.317873 
L 274.724228 93.548279 
L 278.823766 96.617202 
L 283.042749 99.519733 
L 287.374428 102.251227 
L 291.811872 104.807316 
L 296.347983 107.183909 
L 300.975505 109.377206 
L 305.687033 111.383696 
L 310.47503 113.200171 
L 315.331838 114.823724 
L 320.249685 116.251758 
L 325.220705 117.481988 
L 330.236944 118.512446 
L 332.036835 118.83155 
L 330.351906 123.667407 
L 328.861707 128.566775 
L 327.568623 133.521816 
L 326.474721 138.524604 
L 325.581753 143.567134 
L 324.891147 148.64134 
L 324.404007 153.739104 
L 324.121113 158.85227 
L 324.042917 163.97266 
L 324.169545 169.09208 
L 324.500794 174.202342 
L 325.036134 179.29527 
L 325.774708 184.362716 
L 326.715336 189.396573 
L 327.856512 194.388789 
L 329.19641 199.331377 
L 330.732887 204.21643 
L 332.463485 209.036132 
L 334.385436 213.782774 
L 336.495664 218.448761 
L 337.567875 220.644408 
L 332.463179 221.052548 
L 327.378887 221.664495 
L 322.323134 222.47927 
L 317.304007 223.495569 
L 312.329535 224.711768 
L 307.407678 226.125919 
L 302.546309 227.73576 
L 297.753205 229.538717 
L 293.036033 231.531905 
L 288.402342 233.712135 
L 283.859542 236.075919 
L 279.414903 238.619476 
L 275.075534 241.338737 
L 270.848377 244.229351 
L 266.740196 247.286694 
L 262.757561 250.505875 
L 258.906846 253.881744 
L 255.194209 257.4089 
L 251.62559 261.0817 
L 248.206699 264.894269 
L 244.943005 268.840508 
L 241.839729 272.914104 
L 238.901835 277.108538 
L 236.134024 281.417102 
L 233.780027 285.408 
L 231.169926 281.002109 
L 228.385725 276.704118 
L 225.431877 272.520904 
L 222.313107 268.459158 
L 219.034406 264.525378 
L 215.601019 260.725859 
L 212.018437 257.066677 
L 208.292393 253.553687 
L 204.428847 250.19251 
L 200.43398 246.988521 
L 196.314183 243.946848 
L 192.076048 241.072355 
L 187.726353 238.369642 
L 183.272058 235.843032 
L 178.720288 233.496568 
L 174.078326 231.334003 
L 169.353597 229.358796 
L 164.553661 227.574108 
L 159.686195 225.982794 
L 154.758987 224.5874 
L 149.77992 223.390158 
L 144.756958 222.392983 
L 139.698138 221.59747 
L 134.981103 221.04101 
L 136.997566 216.333741 
L 138.824175 211.549601 
L 140.458008 206.696242 
L 141.896452 201.78143 
L 143.137205 196.813026 
L 144.178283 191.79898 
L 145.018019 186.747313 
L 145.655071 181.666105 
L 146.08842 176.563487 
L 146.317371 171.447621 
L 146.341559 166.326692 
L 146.160945 161.208892 
L 145.775819 156.102408 
L 145.186795 151.015409 
L 144.394817 145.956035 
L 143.401151 140.932378 
L 142.207388 135.952475 
L 140.815436 131.024293 
L 139.227523 126.155717 
L 138.000157 122.785834 
L 143.038124 121.867468 
L 148.035335 120.74837 
L 152.983798 119.430333 
L 157.875594 117.915464 
L 162.702899 116.206188 
L 167.45799 114.305237 
L 172.13326 112.215655 
L 176.721229 109.940783 
L 181.214558 107.484261 
L 185.606057 104.850018 
L 189.888702 102.04227 
L 194.055642 99.065507 
L 198.10021 95.924493 
L 202.015935 92.624251 
L 205.796554 89.170061 
L 209.436018 85.567451 
L 212.928505 81.822182 
L 216.268427 77.940247 
L 219.450442 73.927856 
L 222.469459 69.791427 
L 225.320647 65.537579 
L 226.509976 63.648 
L 229.286553 67.95092 
L 232.23298 72.139365 
L 235.344543 76.206634 
L 238.616265 80.14622 
L 242.042911 83.951821 
L 245.619 87.617348 
L 249.33881 91.136938 
L 253.196391 94.50496 
L 257.185571 97.716026 
L 261.299969 100.764999 
L 265.533002 103.647001 
L 269.877898 106.357421 
L 274.327706 108.891924 
L 278.875309 111.246454 
L 283.51343 113.417246 
L 288.234649 115.400826 
L 293.031414 117.194021 
L 297.896051 118.793962 
L 302.820777 120.198089 
L 307.797714 121.404157 
L 312.8189 122.410236 
L 317.876302 123.214716 
L 322.961829 123.816311 
L 328.067345 124.214057 
L 333.184684 124.407319 
L 335.267568 124.427344 
L 332.802916 128.916218 
L 330.519741 133.500061 
L 328.421698 138.17154 
L 326.512143 142.923182 
L 324.79413 147.747385 
L 323.270407 152.636431 
L 321.943413 157.582499 
L 320.815271 162.577676 
L 319.887785 167.613971 
L 319.162439 172.683328 
L 318.640393 177.777636 
L 318.322483 182.888745 
L 318.209217 188.008478 
L 318.300776 193.128646 
L 318.597014 198.241057 
L 319.097457 203.337532 
L 319.801305 208.409918 
L 320.707431 213.4501 
L 321.814385 218.450016 
L 323.120398 223.401665 
L 324.623378 228.297128 
L 326.320923 233.128571 
L 327.959349 237.286864 
L 322.896486 238.056228 
L 317.868439 239.027437 
L 312.883252 240.198937 
L 307.9489 241.568855 
L 303.073277 243.134998 
L 298.264183 244.894861 
L 293.529312 246.84563 
L 288.876238 248.984182 
L 284.312406 251.307096 
L 279.845115 253.810658 
L 275.481514 256.49086 
L 271.228583 259.343417 
L 267.093125 262.363763 
L 263.081757 265.547068 
L 259.200896 268.888238 
L 255.456751 272.381929 
L 251.85531 276.022551 
L 248.402337 279.80428 
L 245.103354 283.721067 
L 243.762551 285.408 
L 240.529955 281.436246 
L 237.141117 277.596939 
L 233.601459 273.89622 
L 229.916643 270.34001 
L 226.092563 266.933998 
L 222.135338 263.683633 
L 218.051299 260.594115 
L 213.846979 257.670385 
L 209.529103 254.917123 
L 205.104581 252.338732 
L 200.580489 249.939336 
L 195.964066 247.722776 
L 191.262697 245.692596 
L 186.483903 243.852045 
L 181.635329 242.204067 
L 176.724732 240.751298 
L 171.759967 239.496063 
L 166.748978 238.440369 
L 161.699781 237.585906 
L 156.620453 236.934041 
L 151.51912 236.485816 
L 146.403943 236.241948 
L 143.730824 236.195971 
L 146.171748 231.69415 
L 148.430695 227.098319 
L 150.50405 222.41583 
L 152.388498 217.654175 
L 154.081023 212.820971 
L 155.578917 207.92395 
L 156.879785 202.970947 
L 157.981545 197.969884 
L 158.882434 192.928763 
L 159.581012 187.855649 
L 160.07616 182.758656 
L 160.367087 177.645941 
L 160.453328 172.52568 
L 160.334743 167.406067 
L 160.011523 162.295291 
L 159.484186 157.201529 
L 158.753574 152.132928 
L 157.820856 147.097599 
L 156.687525 142.103597 
L 155.355394 137.15891 
L 153.826594 132.271449 
L 152.10357 127.449034 
L 150.189079 122.699378 
L 148.086184 118.030081 
L 145.798249 113.448612 
L 144.638315 111.288208 
L 149.754937 111.076834 
L 154.859014 110.661019 
L 159.94238 110.041428 
L 164.996903 109.219052 
L 170.014496 108.195206 
L 174.987133 106.97153 
L 179.906858 105.54998 
L 184.765801 103.93283 
L 189.556189 102.122668 
L 194.270358 100.12239 
L 198.900766 97.935195 
L 203.440006 95.564583 
L 207.880816 93.014345 
L 212.216091 90.288563 
L 216.438897 87.391596 
L 220.542476 84.32808 
L 224.520266 81.102914 
L 228.365901 77.721259 
L 232.07323 74.188524 
L 235.636322 70.510362 
L 239.049477 66.692656 
L 241.583088 63.648 
L 244.876515 67.569459 
L 248.324125 71.356078 
L 251.920401 75.001802 
L 255.659591 78.500796 
L 259.535712 81.847464 
L 263.542563 85.036452 
L 267.673736 88.062657 
L 271.922619 90.921239 
L 276.282417 93.607624 
L 280.746154 96.117515 
L 285.306689 98.446897 
L 289.956727 100.592042 
L 294.688829 102.54952 
L 299.495423 104.316198 
L 304.368821 105.889251 
L 309.301226 107.266161 
L 314.284747 108.444727 
L 319.311413 109.423062 
L 324.37318 110.199601 
L 327.25532 110.549723 
L 325.289215 115.278246 
L 323.513773 120.081611 
L 321.931835 124.952131 
L 320.545931 129.882017 
L 319.358278 134.86338 
L 318.370776 139.888253 
L 317.585006 144.948595 
L 317.002224 150.036313 
L 316.623363 155.143265 
L 316.449028 160.261284 
L 316.479499 165.382179 
L 316.714727 170.49776 
L 317.154336 175.599843 
L 317.797621 180.680265 
L 318.643555 185.730898 
L 319.690783 190.743663 
L 320.937631 195.710541 
L 322.382104 200.623585 
L 324.021891 205.474935 
L 325.854368 210.256831 
L 327.876604 214.961622 
L 330.085365 219.581783 
L 332.477115 224.10992 
L 334.012169 226.803072 
L 328.891644 226.871877 
L 323.777968 227.145392 
L 318.679319 227.623181 
L 313.603855 228.30448 
L 308.559696 229.188198 
L 303.55491 230.272922 
L 298.597506 231.556916 
L 293.695412 233.038127 
L 288.856473 234.714184 
L 284.088429 236.582407 
L 279.398907 238.639805 
L 274.795411 240.88309 
L 270.285304 243.30867 
L 265.875803 245.912666 
L 261.57396 248.690913 
L 257.386659 251.638965 
L 253.320598 254.752106 
L 249.382282 258.025357 
L 245.578011 261.453479 
L 241.913871 265.03099 
L 238.395725 268.752166 
L 235.0292 272.611053 
L 231.819682 276.601479 
L 228.772306 280.717059 
L 225.891947 284.95121 
L 225.595775 285.408 
L 222.733445 281.16164 
L 219.703597 277.033139 
L 216.511075 273.029103 
L 213.160989 269.155935 
L 209.658697 265.419834 
L 206.009802 261.826776 
L 202.220142 258.382508 
L 198.29578 255.092542 
L 194.242993 251.962139 
L 190.068264 248.99631 
L 185.778274 246.199796 
L 181.379885 243.577074 
L 176.880133 241.132338 
L 172.286216 238.8695 
L 167.605486 236.79218 
L 162.845428 234.903701 
L 158.013659 233.207083 
L 153.117908 231.705042 
L 148.166008 230.39998 
L 143.16588 229.293986 
L 139.338137 228.587614 
L 141.028108 223.753516 
L 142.523415 218.855705 
L 143.821666 213.902015 
L 144.920784 208.900371 
L 145.81901 203.858774 
L 146.514907 198.785292 
L 147.007363 193.688038 
L 147.295589 188.57517 
L 147.379124 183.454865 
L 147.257834 178.335315 
L 146.931915 173.22471 
L 146.401886 168.131227 
L 145.668596 163.063013 
L 144.733219 158.028178 
L 143.59725 153.034775 
L 142.262506 148.090792 
L 140.731124 143.20414 
L 139.005553 138.382635 
L 137.088553 133.633992 
L 134.983192 128.965807 
L 134.733589 128.443697 
L 139.831294 127.955937 
L 144.905415 127.264714 
L 149.947837 126.371133 
L 154.950491 125.276623 
L 159.905375 123.982936 
L 164.804562 122.492141 
L 169.640214 120.806624 
L 174.404596 118.92908 
L 179.090085 116.862514 
L 183.689185 114.610231 
L 188.194539 112.175835 
L 192.59894 109.56322 
L 196.895341 106.776565 
L 201.076868 103.82033 
L 205.136833 100.699243 
L 209.068741 97.418297 
L 212.8663 93.982741 
L 216.523436 90.398071 
L 220.034298 86.670022 
L 223.39327 82.804558 
L 226.594977 78.807863 
L 229.634299 74.686331 
L 232.506372 70.446555 
L 235.206601 66.095318 
L 236.622057 63.648 
L 239.225553 68.057798 
L 242.00331 72.359956 
L 244.950887 76.547592 
L 248.063566 80.614007 
L 251.336368 84.552695 
L 254.764059 88.357355 
L 258.341153 92.021901 
L 262.061929 95.540471 
L 265.920433 98.907434 
L 269.910494 102.117405 
L 274.025728 105.165249 
L 278.259552 108.046089 
L 282.605192 110.755317 
L 287.055696 113.288599 
L 291.603944 115.641882 
L 296.24266 117.811401 
L 300.964424 119.793685 
L 305.761681 121.585564 
L 310.626756 123.18417 
L 315.551867 124.586946 
L 320.529135 125.791648 
L 325.550597 126.796349 
L 330.608219 127.599442 
L 335.693911 128.199641 
L 337.542041 128.366846 
L 335.451012 133.041469 
L 333.548591 137.795972 
L 331.837821 142.622748 
L 330.321439 147.514076 
L 329.001871 152.46213 
L 327.881228 157.458995 
L 326.961302 162.496677 
L 326.243566 167.567116 
L 325.729167 172.662202 
L 325.418929 177.773782 
L 325.313348 182.89368 
L 325.412593 188.013705 
L 325.716504 193.125665 
L 326.224597 198.221384 
L 326.936057 203.292707 
L 327.849747 208.331524 
L 328.964205 213.329772 
L 330.277649 218.279456 
L 331.787976 223.172657 
L 333.424849 227.82034 
L 328.391934 228.765997 
L 323.400861 229.912161 
L 318.459614 231.256997 
L 313.576099 232.798355 
L 308.758129 234.533769 
L 304.01341 236.460462 
L 299.349534 238.575352 
L 294.773961 240.875055 
L 290.294012 243.355893 
L 285.916853 246.013897 
L 281.649488 248.844815 
L 277.498742 251.844117 
L 273.471257 255.007005 
L 269.573475 258.32842 
L 265.811632 261.803048 
L 262.191746 265.42533 
L 258.719608 269.189472 
L 255.400773 273.089451 
L 252.240551 277.119029 
L 249.243996 281.271758 
L 246.500342 285.408 
L 243.666998 281.142245 
L 240.665336 276.993206 
L 237.500158 272.96752 
L 234.176527 269.071627 
L 230.69976 265.311761 
L 227.07542 261.693935 
L 223.309305 258.223939 
L 219.407439 254.907322 
L 215.376065 251.749392 
L 211.221632 248.755199 
L 206.950787 245.929534 
L 202.570361 243.276918 
L 198.087363 240.801594 
L 193.508964 238.507523 
L 188.842489 236.398373 
L 184.095403 234.47752 
L 179.2753 232.748036 
L 174.389893 231.212688 
L 169.446995 229.873932 
L 164.454516 228.73391 
L 159.420441 227.794447 
L 154.352824 227.057044 
L 149.259773 226.522881 
L 144.149435 226.192813 
L 139.029985 226.067369 
L 137.88306 226.067346 
L 140.374326 221.593188 
L 142.68468 217.022984 
L 144.810427 212.364046 
L 146.748166 207.623828 
L 148.494797 202.809912 
L 150.047525 197.930001 
L 151.403867 192.9919 
L 152.561653 188.00351 
L 153.51903 182.972811 
L 154.274467 177.907852 
L 154.826756 172.816734 
L 155.175012 167.707603 
L 155.318679 162.588632 
L 155.257527 157.468011 
L 154.991653 152.353931 
L 154.521483 147.254574 
L 153.84777 142.178098 
L 152.971591 137.132623 
L 151.894347 132.126222 
L 150.617762 127.166905 
L 149.143879 122.262603 
L 147.475055 117.421165 
L 145.61396 112.650334 
L 144.869778 110.887303 
L 149.942984 110.18939 
L 154.984223 109.289162 
L 159.98543 108.188057 
L 164.938604 106.887839 
L 169.835821 105.390586 
L 174.669247 103.698695 
L 179.431149 101.814871 
L 184.113909 99.742129 
L 188.710036 97.483785 
L 193.212176 95.04345 
L 197.613129 92.425031 
L 201.905852 89.632714 
L 206.083478 86.670968 
L 210.139324 83.544531 
L 214.066903 80.258404 
L 217.859929 76.817844 
L 221.512336 73.228355 
L 225.01828 69.495681 
L 228.372152 65.625792 
L 229.985036 63.648 
L 233.261108 67.583969 
L 236.691956 71.385782 
L 240.272092 75.047357 
L 243.995788 78.562836 
L 247.857087 81.926594 
L 251.849812 85.133251 
L 255.967576 88.177676 
L 260.20379 91.055 
L 264.551678 93.760619 
L 269.004283 96.290205 
L 273.554484 98.63971 
L 278.195 100.805376 
L 282.918408 102.783739 
L 287.717151 104.571634 
L 292.583552 106.1662 
L 297.509827 107.564886 
L 302.488093 108.765455 
L 307.510387 109.765986 
L 312.568675 110.564879 
L 317.654863 111.160855 
L 322.760816 111.552961 
L 327.943472 111.741637 
L 325.54487 116.266149 
L 323.329119 120.882961 
L 321.299764 125.584686 
L 319.460051 130.363803 
L 317.812923 135.212666 
L 316.361015 140.123518 
L 315.106651 145.088502 
L 314.051836 150.099677 
L 313.198258 155.149024 
L 312.547284 160.228466 
L 312.099953 165.329877 
L 311.856983 170.445096 
L 311.818761 175.56594 
L 311.985348 180.684216 
L 312.356479 185.791737 
L 312.931559 190.88033 
L 313.709669 195.941856 
L 314.689564 200.968218 
L 315.869675 205.951373 
L 317.248116 210.883351 
L 318.82268 215.756261 
L 320.590849 220.562307 
L 322.549795 225.2938 
L 324.696383 229.943173 
L 327.027179 234.502985 
L 328.265697 236.756253 
L 323.147168 236.914876 
L 318.039076 237.278058 
L 312.949594 237.845218 
L 307.886863 238.61545 
L 302.858983 239.587522 
L 297.873997 240.759877 
L 292.93988 242.130641 
L 288.064526 243.69762 
L 283.255734 245.458308 
L 278.521197 247.409888 
L 273.86849 249.549238 
L 269.305056 251.872935 
L 264.838195 254.377263 
L 260.475053 257.058214 
L 256.222611 259.911499 
L 252.087672 262.932555 
L 248.07685 266.116548 
L 244.196562 269.458384 
L 240.453016 272.952716 
L 236.8522 276.593956 
L 233.399875 280.376277 
L 230.101564 284.293629 
L 229.210973 285.408 
L 225.956512 281.454142 
L 222.546543 277.633591 
L 218.98652 273.952458 
L 215.282139 270.416633 
L 211.439325 267.031772 
L 207.464227 263.80329 
L 203.363204 260.736351 
L 199.142816 257.835864 
L 194.809816 255.106466 
L 190.371135 252.552526 
L 185.833873 250.178129 
L 181.205291 247.987073 
L 176.492792 245.982863 
L 171.703916 244.168706 
L 166.846323 242.547505 
L 161.927785 241.121852 
L 156.95617 239.894028 
L 151.939433 238.865998 
L 146.885598 238.039407 
L 144.61986 237.735826 
L 146.51616 232.978879 
L 148.220717 228.149905 
L 149.730803 223.25663 
L 151.044002 218.306881 
L 152.158213 213.308578 
L 153.071655 208.269716 
L 153.782865 203.198357 
L 154.290706 198.102614 
L 154.594365 192.990639 
L 154.693357 187.870609 
L 154.587523 182.750716 
L 154.277033 177.639151 
L 153.762383 172.544091 
L 153.044396 167.473687 
L 152.124222 162.436051 
L 151.003332 157.439241 
L 149.68352 152.491252 
L 148.166896 147.599999 
L 146.455888 142.773307 
L 144.553232 138.018898 
L 142.461973 133.344379 
L 140.185455 128.757226 
L 137.727321 124.264779 
L 137.437026 123.761206 
L 142.557147 123.667033 
L 147.669406 123.368184 
L 152.765625 122.865139 
L 157.837651 122.158702 
L 162.87737 121.250003 
L 167.876719 120.140496 
L 172.827702 118.831956 
L 177.722396 117.326476 
L 182.552972 115.626465 
L 187.311701 113.734642 
L 191.990972 111.654033 
L 196.583297 109.387968 
L 201.08133 106.940072 
L 205.477876 104.31426 
L 209.765901 101.514734 
L 213.938544 98.545972 
L 217.989131 95.412724 
L 221.911182 92.120001 
L 225.698421 88.673072 
L 229.344791 85.077451 
L 232.844457 81.33889 
L 236.191822 77.46337 
L 239.381529 73.457092 
L 242.408477 69.326463 
L 245.267822 65.078094 
L 246.175995 63.648 
L 248.978878 67.933831 
L 251.950907 72.104148 
L 255.087327 76.15228 
L 258.38312 80.071751 
L 261.833014 83.85629 
L 265.431489 87.499843 
L 269.172789 90.99658 
L 273.050929 94.340909 
L 277.059704 97.527478 
L 281.192702 100.55119 
L 285.44331 103.407208 
L 289.804727 106.090962 
L 294.269978 108.598159 
L 298.831918 110.924788 
L 303.48325 113.067127 
L 308.216531 115.021749 
L 313.024191 116.785527 
L 317.898537 118.355639 
L 322.831772 119.729573 
L 327.816004 120.905131 
L 332.843258 121.880433 
L 333.900253 122.059085 
L 332.190785 126.886322 
L 330.675723 131.778059 
L 329.35749 136.726469 
L 328.238195 141.723636 
L 327.319628 146.761566 
L 326.60326 151.832199 
L 326.090236 156.927423 
L 325.781377 162.039087 
L 325.677177 167.159013 
L 325.777803 172.279011 
L 326.083093 177.390889 
L 326.59256 182.48647 
L 327.305389 187.557602 
L 328.220438 192.596172 
L 329.336245 197.594119 
L 330.651023 202.543448 
L 332.162671 207.436241 
L 333.868768 212.264671 
L 335.766587 217.021012 
L 337.454173 220.841346 
L 332.364887 221.410269 
L 327.302423 222.182254 
L 322.27488 223.156066 
L 317.2903 224.330147 
L 312.356658 225.702619 
L 307.481847 227.271287 
L 302.673665 229.03364 
L 297.939804 230.986859 
L 293.287838 233.12782 
L 288.725209 235.453097 
L 284.259215 237.958971 
L 279.897002 240.641432 
L 275.645548 243.49619 
L 271.511655 246.518677 
L 267.501936 249.704058 
L 263.622805 253.047238 
L 259.880469 256.542866 
L 256.280914 260.185353 
L 252.829899 263.968869 
L 249.532944 267.887363 
L 246.395325 271.934565 
L 243.422061 276.104002 
L 240.617908 280.389002 
L 237.987352 284.782711 
L 237.632101 285.408 
L 235.026266 280.999585 
L 232.246226 276.698901 
L 229.296428 272.51283 
L 226.181591 268.448068 
L 222.906699 264.511117 
L 219.47699 260.708276 
L 215.897951 257.045629 
L 212.175309 253.529034 
L 208.315018 250.164119 
L 204.323254 246.956266 
L 200.206403 243.910607 
L 195.971051 241.032014 
L 191.623974 238.325092 
L 187.172127 235.794172 
L 182.62263 233.443304 
L 177.982763 231.276247 
L 173.259948 229.296469 
L 168.461741 227.507136 
L 163.595818 225.911112 
L 158.669963 224.51095 
L 153.692057 223.308889 
L 148.670063 222.306853 
L 143.612015 221.506444 
L 138.526005 220.908944 
L 134.724369 220.596333 
L 136.889135 215.955397 
L 138.866582 211.231605 
L 140.653546 206.432515 
L 142.247168 201.565805 
L 143.644899 196.63926 
L 144.844503 191.66076 
L 145.84406 186.638272 
L 146.641971 181.57983 
L 147.236961 176.493526 
L 147.628077 171.387497 
L 147.814693 166.269912 
L 147.796511 161.148958 
L 147.573561 156.032827 
L 147.146198 150.929704 
L 146.515106 145.847753 
L 145.681295 140.795104 
L 144.646099 135.779841 
L 143.411174 130.809985 
L 141.978496 125.893489 
L 140.350356 121.038217 
L 139.831365 119.614091 
L 144.861919 118.655952 
L 149.850133 117.497412 
L 154.788029 116.140322 
L 159.667705 114.586856 
L 164.481356 112.839496 
L 169.221281 110.90104 
L 173.879897 108.774588 
L 178.449752 106.463542 
L 182.923533 103.971599 
L 187.294085 101.302746 
L 191.554416 98.461252 
L 195.697709 95.451663 
L 199.717336 92.278794 
L 203.606867 88.947721 
L 207.36008 85.463773 
L 210.97097 81.832522 
L 214.43376 78.05978 
L 217.74291 74.15158 
L 220.893128 70.114176 
L 223.879372 65.954026 
L 225.42919 63.648 
L 228.324458 67.87197 
L 231.386324 71.976782 
L 234.609889 75.955869 
L 237.989997 79.802864 
L 241.521239 83.511614 
L 245.197968 87.076186 
L 249.0143 90.490876 
L 252.964131 93.750222 
L 257.041142 96.84901 
L 261.23881 99.782282 
L 265.550419 102.545346 
L 269.969073 105.133782 
L 274.487703 107.543448 
L 279.099079 109.770489 
L 283.795824 111.811344 
L 288.570425 113.662746 
L 293.415242 115.321734 
L 298.322527 116.785654 
L 303.284427 118.052164 
L 308.293005 119.119238 
L 313.340249 119.985168 
L 318.418083 120.648571 
L 323.518384 121.108383 
L 328.632994 121.363869 
L 333.529366 121.416689 
L 331.020772 125.881155 
L 328.692715 130.442367 
L 326.54892 135.093027 
L 324.592816 139.825697 
L 322.827534 144.632804 
L 321.255897 149.506659 
L 319.880419 154.439464 
L 318.703301 159.423327 
L 317.726426 164.450276 
L 316.951356 169.512269 
L 316.379333 174.601207 
L 316.01127 179.708949 
L 315.847756 184.827324 
L 315.889054 189.948144 
L 316.135097 195.063217 
L 316.585492 200.164358 
L 317.239518 205.243409 
L 318.096128 210.292242 
L 319.153953 215.302782 
L 320.411299 220.267012 
L 321.866156 225.176991 
L 323.516196 230.024864 
L 325.35878 234.802875 
L 327.078337 238.812821 
L 321.995075 239.433261 
L 316.940689 240.256482 
L 311.923267 241.281165 
L 306.950835 242.505672 
L 302.031347 243.928044 
L 297.172674 245.546005 
L 292.382589 247.356967 
L 287.668754 249.358033 
L 283.038711 251.546001 
L 278.499867 253.917372 
L 274.059483 256.468351 
L 269.724663 259.194857 
L 265.502342 262.092529 
L 261.399274 265.156731 
L 257.422023 268.382561 
L 253.576953 271.764859 
L 249.870214 275.298212 
L 246.307736 278.97697 
L 242.895219 282.795246 
L 240.712134 285.408 
L 237.402353 281.500334 
L 233.938955 277.72815 
L 230.32748 274.097482 
L 226.573705 270.614139 
L 222.683637 267.283693 
L 218.663498 264.111472 
L 214.51972 261.102551 
L 210.258932 258.261744 
L 205.887949 255.593595 
L 201.413766 253.102374 
L 196.843539 250.792065 
L 192.18458 248.666364 
L 187.444343 246.728672 
L 182.63041 244.982089 
L 177.750483 243.429408 
L 172.812369 242.073115 
L 167.823968 240.915379 
L 162.793259 239.958052 
L 157.728292 239.202665 
L 152.637169 238.650427 
L 147.528035 238.302221 
L 144.889352 238.2026 
L 147.236725 233.651299 
L 149.400216 229.009769 
L 151.376366 224.285434 
L 153.162011 219.485854 
L 154.754297 214.618706 
L 156.150674 209.691777 
L 157.34891 204.712948 
L 158.347088 199.690186 
L 159.14361 194.631524 
L 159.737203 189.545057 
L 160.126916 184.438921 
L 160.312126 179.321285 
L 160.292538 174.200336 
L 160.068182 169.084267 
L 159.639417 163.981261 
L 159.006929 158.899484 
L 158.171731 153.847064 
L 157.135157 148.832085 
L 155.898867 143.862569 
L 154.464839 138.946467 
L 152.835365 134.091642 
L 151.013054 129.305863 
L 149.000821 124.596785 
L 146.801884 119.971941 
L 144.419761 115.438731 
L 143.345076 113.528163 
L 148.464749 113.412172 
L 153.575688 113.09154 
L 158.669717 112.566782 
L 163.738686 111.838737 
L 168.774487 110.90857 
L 173.769063 109.777768 
L 178.714424 108.448141 
L 183.602658 106.921816 
L 188.425946 105.201234 
L 193.17657 103.289149 
L 197.846931 101.188619 
L 202.429558 98.903004 
L 206.917119 96.435962 
L 211.302435 93.791438 
L 215.578491 90.973664 
L 219.738445 87.987147 
L 223.775643 84.836666 
L 227.683626 81.527259 
L 231.456142 78.064222 
L 235.087155 74.453095 
L 238.570858 70.699654 
L 241.901677 66.809905 
L 244.418879 63.648 
L 247.625268 67.64094 
L 250.988768 71.502464 
L 254.503997 75.226396 
L 258.165332 78.806777 
L 261.966916 82.237879 
L 265.902666 85.514215 
L 269.966286 88.630542 
L 274.151275 91.581874 
L 278.450939 94.363491 
L 282.858399 96.970942 
L 287.366603 99.400056 
L 291.96834 101.646947 
L 296.656248 103.708021 
L 301.422827 105.579979 
L 306.260451 107.259828 
L 311.161382 108.744879 
L 316.117779 110.032758 
L 321.121713 111.121404 
L 326.165178 112.009074 
L 328.277022 112.319363 
L 326.444064 117.101075 
L 324.80379 121.95226 
L 323.358824 126.865159 
L 322.111476 131.831911 
L 321.063744 136.844571 
L 320.217303 141.895119 
L 319.573506 146.975476 
L 319.133385 152.077515 
L 318.897643 157.193072 
L 318.866658 162.313965 
L 319.040478 167.432 
L 319.418826 172.538991 
L 320.001097 177.626767 
L 320.786358 182.687188 
L 321.773354 187.71216 
L 322.960506 192.693643 
L 324.345915 197.623668 
L 325.927364 202.494348 
L 327.702323 207.29789 
L 329.667953 212.026611 
L 331.821109 216.672945 
L 334.158347 221.22946 
L 335.662813 223.944072 
L 330.543479 224.074173 
L 325.433444 224.408888 
L 320.34088 224.947682 
L 315.273936 225.689694 
L 310.240718 226.633736 
L 305.249277 227.778297 
L 300.307599 229.121548 
L 295.42359 230.661338 
L 290.605062 232.395206 
L 285.859726 234.320375 
L 281.195171 236.433768 
L 276.61886 238.732003 
L 272.138115 241.211403 
L 267.760103 243.868002 
L 263.49183 246.69755 
L 259.340121 249.695519 
L 255.311621 252.857115 
L 251.412773 256.177279 
L 247.649815 259.650699 
L 244.028767 263.271819 
L 240.555421 267.034846 
L 237.235335 270.93376 
L 234.073819 274.962323 
L 231.075932 279.114091 
L 228.246469 283.382421 
L 226.987583 285.408 
L 224.238115 281.087708 
L 221.31808 276.88082 
L 218.23215 272.794069 
L 214.985263 268.83399 
L 211.582611 265.00692 
L 208.02964 261.318981 
L 204.332032 257.776073 
L 200.495703 254.383863 
L 196.526791 251.147779 
L 192.431645 248.072998 
L 188.216816 245.164439 
L 183.889047 242.426754 
L 179.455261 239.864324 
L 174.922553 237.481248 
L 170.298172 235.281338 
L 165.589517 233.268113 
L 160.804122 231.444795 
L 155.94964 229.8143 
L 151.03384 228.379236 
L 146.064584 227.141901 
L 141.049823 226.104272 
L 137.557896 225.504145 
L 139.300575 220.688798 
L 140.849298 215.807614 
L 142.201587 210.868402 
L 143.355278 205.879063 
L 144.308526 200.84758 
L 145.059806 195.782002 
L 145.607916 190.690433 
L 145.951979 185.581018 
L 146.091445 180.461931 
L 146.02609 175.341362 
L 145.75602 170.227502 
L 145.281666 165.128532 
L 144.603786 160.052611 
L 143.723466 155.007857 
L 142.642114 150.002342 
L 141.36146 145.044074 
L 139.883552 140.140984 
L 138.210756 135.300916 
L 136.345746 130.531614 
L 135.145735 127.72984 
L 140.225459 127.08107 
L 145.275176 126.229684 
L 150.286808 125.177044 
L 155.252336 123.924835 
L 160.163818 122.475059 
L 165.013395 120.830035 
L 169.79331 118.992397 
L 174.495916 116.965082 
L 179.113689 114.751335 
L 183.639241 112.354697 
L 188.065334 109.779003 
L 192.384887 107.028372 
L 196.590988 104.107205 
L 200.676909 101.020176 
L 204.636114 97.772223 
L 208.462268 94.368542 
L 212.149251 90.814578 
L 215.691164 87.116017 
L 219.082341 83.278776 
L 222.317356 79.308993 
L 225.391035 75.213019 
L 228.29846 70.997407 
L 231.03498 66.668902 
L 232.805352 63.648 
L 235.422484 68.049718 
L 238.213545 72.343258 
L 241.174068 76.52175 
L 244.299319 80.578511 
L 247.584297 84.507051 
L 251.023747 88.301083 
L 254.612167 91.95454 
L 258.343816 95.461576 
L 262.212724 98.81658 
L 266.212701 102.014186 
L 270.337349 105.049277 
L 274.580069 107.916999 
L 278.934074 110.612763 
L 283.392398 113.132258 
L 287.947908 115.471451 
L 292.593317 117.626602 
L 297.321194 119.594262 
L 302.123974 121.371283 
L 306.993974 122.954823 
L 311.923404 124.342348 
L 316.904376 125.531639 
L 321.928924 126.520793 
L 326.989008 127.308227 
L 332.076533 127.892682 
L 337.49764 128.289942 
L 335.262452 132.897374 
L 333.213299 137.590505 
L 331.353461 142.361826 
L 329.685913 147.203704 
L 328.213321 152.108394 
L 326.938043 157.068048 
L 325.862119 162.074732 
L 324.987269 167.120437 
L 324.314893 172.197091 
L 323.846067 177.296571 
L 323.58154 182.410721 
L 323.521737 187.531358 
L 323.666753 192.650291 
L 324.016355 197.75933 
L 324.569984 202.850302 
L 325.326756 207.915063 
L 326.285458 212.945509 
L 327.444558 217.933594 
L 328.802201 222.871337 
L 330.356215 227.750839 
L 331.542237 231.08112 
L 326.511162 232.036518 
L 321.522317 233.192342 
L 316.583683 234.546741 
L 311.703161 236.09755 
L 306.888559 237.842287 
L 302.147579 239.778161 
L 297.487805 241.902076 
L 292.916693 244.210633 
L 288.441555 246.700138 
L 284.06955 249.366611 
L 279.807672 252.205784 
L 275.662741 255.213115 
L 271.641386 258.383795 
L 267.750041 261.712749 
L 263.994931 265.194653 
L 260.382064 268.823935 
L 256.91722 272.594791 
L 253.605941 276.501188 
L 250.453525 280.536876 
L 247.465015 284.695398 
L 246.977749 285.408 
L 244.017345 281.229422 
L 240.892212 277.172571 
L 237.607347 273.243937 
L 234.168006 269.449805 
L 230.579692 265.796245 
L 226.848144 262.289102 
L 222.979333 258.933986 
L 218.979448 255.736265 
L 214.854887 252.701054 
L 210.61225 249.83321 
L 206.258323 247.13732 
L 201.800072 244.617697 
L 197.244629 242.278372 
L 192.599282 240.123088 
L 187.871462 238.155292 
L 183.068733 236.378132 
L 178.198778 234.794451 
L 173.269389 233.406784 
L 168.28845 232.21735 
L 163.263932 231.228051 
L 158.20387 230.440471 
L 153.116362 229.855869 
L 148.009545 229.475182 
L 142.891589 229.299016 
L 139.745016 229.292349 
L 142.261789 224.832488 
L 144.598201 220.275551 
L 146.750516 215.628827 
L 148.71529 210.899751 
L 150.48938 206.095887 
L 152.069948 201.224921 
L 153.454464 196.294646 
L 154.640715 191.312948 
L 155.626801 186.287798 
L 156.411147 181.227234 
L 156.992497 176.139353 
L 157.369921 171.032294 
L 157.542815 165.914227 
L 157.510902 160.79334 
L 157.274234 155.677825 
L 156.83319 150.575867 
L 156.188474 145.495626 
L 155.341119 140.445231 
L 154.292479 135.432761 
L 153.044233 130.466235 
L 151.598378 125.553597 
L 149.957225 120.702709 
L 148.123402 115.921329 
L 146.099841 111.217107 
L 145.469049 109.849334 
L 150.561508 109.309549 
L 155.628307 108.566552 
L 160.661342 107.62153 
L 165.65256 106.475998 
L 170.593976 105.131785 
L 175.477686 103.591045 
L 180.295876 101.85624 
L 185.040838 99.930147 
L 189.704981 97.815846 
L 194.280845 95.516721 
L 198.761107 93.036449 
L 203.138602 90.378998 
L 207.406325 87.54862 
L 211.55745 84.549843 
L 215.585335 81.387463 
L 219.483536 78.066541 
L 223.245818 74.592389 
L 226.866162 70.970564 
L 230.338775 67.206861 
L 233.378675 63.648 
L 233.378675 63.648 
" style="fill:none;stroke:#1f77b4;stroke-linecap:square;stroke-width:1.5;"/>
   </g>
   <g id="patch_4">
    <path d="M 82.520165 307.584 
L 82.520165 41.472 
" style="fill:none;stroke:#000000;stroke-linecap:square;stroke-linejoin:miter;stroke-width:0.8;"/>
   </g>
   <g id="patch_5">
    <path d="M 389.799835 307.584 
L 389.799835 41.472 
" style="fill:none;stroke:#000000;stroke-linecap:square;stroke-linejoin:miter;stroke-width:0.8;"/>
   </g>
   <g id="patch_6">
    <path d="M 82.520165 307.584 
L 389.799835 307.584 
" style="fill:none;stroke:#000000;stroke-linecap:square;stroke-linejoin:miter;stroke-width:0.8;"/>
   </g>
   <g id="patch_7">
    <path d="M 82.520165 41.472 
L 389.799835 41.472 
" style="fill:none;stroke:#000000;stroke-linecap:square;stroke-linejoin:miter;stroke-width:0.8;"/>
   </g>
   <g id="PathCollection_1">
    <defs>
     <path d="M 0 2.236068 
C 0.593012 2.236068 1.161816 2.000462 1.581139 1.581139 
C 2.000462 1.161816 2.236068 0.593012 2.236068 0 
C 2.236068 -0.593012 2.000462 -1.161816 1.581139 -1.581139 
C 1.161816 -2.000462 0.593012 -2.236068 0 -2.236068 
C -0.593012 -2.236068 -1.161816 -2.000462 -1.581139 -1.581139 
C -2.000462 -1.161816 -2.236068 -0.593012 -2.236068 0 
C -2.236068 0.593012 -2.000462 1.161816 -1.581139 1.581139 
C -1.161816 2.000462 -0.593012 2.236068 0 2.236068 
z
" id="m3b56001812" style="stroke:#000000;"/>
    </defs>
    <g clip-path="url(#pfd91e70eac)">
     <use style="stroke:#000000;" x="233.378675" xlink:href="#m3b56001812" y="63.648"/>
    </g>
   </g>
   <g id="Quiver_1">
    <path clip-path="url(#pfd91e70eac)" d="M 233.853185 63.257457 
L 238.149154 68.477066 
L 238.707631 67.221471 
L 241.189527 73.138198 
L 235.860572 69.564727 
L 237.200134 69.258152 
L 232.904165 64.038543 
L 233.853185 63.257457 
"/>
   </g>
  </g>
 </g>
 <defs>
  <clipPath id="pfd91e70eac">
   <rect height="266.112" width="307.27967" x="82.520165" y="41.472"/>
  </clipPath>
 </defs>
</svg>
