<?xml version="1.0" encoding="utf-8" standalone="no"?>
<!DOCTYPE svg PUBLIC "-//W3C//DTD SVG 1.1//EN"
  "http://www.w3.org/Graphics/SVG/1.1/DTD/svg11.dtd">
<!-- Created with matplotlib (https://matplotlib.org/) -->
<svg height="345.6pt" version="1.1" viewBox="0 0 460.8 345.6" width="460.8pt" xmlns="http://www.w3.org/2000/svg" xmlns:xlink="http://www.w3.org/1999/xlink">
 <defs>
  <style type="text/css">
*{stroke-linecap:butt;stroke-linejoin:round;}
  </style>
 </defs>
 <g id="figure_1">
  <g id="patch_1">
   <path d="M 0 345.6 
L 460.8 345.6 
L 460.8 0 
L 0 0 
z
" style="fill:#ffffff;"/>
  </g>
  <g id="axes_1">
   <g id="patch_2">
    <path d="M 57.6 263.808 
L 414.72 263.808 
L 414.72 85.248 
L 57.6 85.248 
z
" style="fill:#ffffff;"/>
   </g>
   <g id="PathCollection_1">
    <defs>
     <path d="M 0 3 
C 0.795609 3 1.55874 2.683901 2.12132 2.12132 
C 2.683901 1.55874 3 0.795609 3 0 
C 3 -0.795609 2.683901 -1.55874 2.12132 -2.12132 
C 1.55874 -2.683901 0.795609 -3 0 -3 
C -0.795609 -3 -1.55874 -2.683901 -2.12132 -2.12132 
C -2.683901 -1.55874 -3 -0.795609 -3 0 
C -3 0.795609 -2.683901 1.55874 -2.12132 2.12132 
C -1.55874 2.683901 -0.795609 3 0 3 
z
" id="mf69a5df119" style="stroke:#000000;"/>
    </defs>
    <g clip-path="url(#p9eca7b6ff1)">
     <use style="stroke:#000000;" x="202.780301" xlink:href="#mf69a5df119" y="100.609638"/>
    </g>
   </g>
   <g id="patch_3">
    <path clip-path="url(#p9eca7b6ff1)" d="M 161.76 211.728 
C 171.625555 211.728 181.088371 207.808373 188.064372 200.832372 
C 195.040373 193.856371 198.96 184.393555 198.96 174.528 
C 198.96 164.662445 195.040373 155.199629 188.064372 148.223628 
C 181.088371 141.247627 171.625555 137.328 161.76 137.328 
C 151.894445 137.328 142.431629 141.247627 135.455628 148.223628 
C 128.479627 155.199629 124.56 164.662445 124.56 174.528 
C 124.56 184.393555 128.479627 193.856371 135.455628 200.832372 
C 142.431629 207.808373 151.894445 211.728 161.76 211.728 
z
" style="fill:#cc0000;fill-opacity:0.1;stroke:#cc0000;stroke-dasharray:7.4,3.2;stroke-dashoffset:0;stroke-linejoin:miter;stroke-width:2;"/>
   </g>
   <g id="patch_4">
    <path clip-path="url(#p9eca7b6ff1)" d="M 310.56 196.848 
C 316.479333 196.848 322.157023 194.496224 326.342623 190.310623 
C 330.528224 186.125023 332.88 180.447333 332.88 174.528 
C 332.88 168.608667 330.528224 162.930977 326.342623 158.745377 
C 322.157023 154.559776 316.479333 152.208 310.56 152.208 
C 304.640667 152.208 298.962977 154.559776 294.777377 158.745377 
C 290.591776 162.930977 288.24 168.608667 288.24 174.528 
C 288.24 180.447333 290.591776 186.125023 294.777377 190.310623 
C 298.962977 194.496224 304.640667 196.848 310.56 196.848 
z
" style="fill:#cc0000;fill-opacity:0.1;stroke:#cc0000;stroke-dasharray:7.4,3.2;stroke-dashoffset:0;stroke-linejoin:miter;stroke-width:2;"/>
   </g>
   <g id="matplotlib.axis_1">
    <g id="xtick_1">
     <g id="line2d_1">
      <defs>
       <path d="M 0 0 
L 0 3.5 
" id="m3c8bfe6627" style="stroke:#000000;stroke-width:0.8;"/>
      </defs>
      <g>
       <use style="stroke:#000000;stroke-width:0.8;" x="87.36" xlink:href="#m3c8bfe6627" y="263.808"/>
      </g>
     </g>
     <g id="text_1">
      <!-- 0.0 -->
      <defs>
       <path d="M 31.78125 66.40625 
Q 24.171875 66.40625 20.328125 58.90625 
Q 16.5 51.421875 16.5 36.375 
Q 16.5 21.390625 20.328125 13.890625 
Q 24.171875 6.390625 31.78125 6.390625 
Q 39.453125 6.390625 43.28125 13.890625 
Q 47.125 21.390625 47.125 36.375 
Q 47.125 51.421875 43.28125 58.90625 
Q 39.453125 66.40625 31.78125 66.40625 
z
M 31.78125 74.21875 
Q 44.046875 74.21875 50.515625 64.515625 
Q 56.984375 54.828125 56.984375 36.375 
Q 56.984375 17.96875 50.515625 8.265625 
Q 44.046875 -1.421875 31.78125 -1.421875 
Q 19.53125 -1.421875 13.0625 8.265625 
Q 6.59375 17.96875 6.59375 36.375 
Q 6.59375 54.828125 13.0625 64.515625 
Q 19.53125 74.21875 31.78125 74.21875 
z
" id="DejaVuSans-48"/>
       <path d="M 10.6875 12.40625 
L 21 12.40625 
L 21 0 
L 10.6875 0 
z
" id="DejaVuSans-46"/>
      </defs>
      <g transform="translate(79.408438 278.406437)scale(0.1 -0.1)">
       <use xlink:href="#DejaVuSans-48"/>
       <use x="63.623047" xlink:href="#DejaVuSans-46"/>
       <use x="95.410156" xlink:href="#DejaVuSans-48"/>
      </g>
     </g>
    </g>
    <g id="xtick_2">
     <g id="line2d_2">
      <g>
       <use style="stroke:#000000;stroke-width:0.8;" x="161.76" xlink:href="#m3c8bfe6627" y="263.808"/>
      </g>
     </g>
     <g id="text_2">
      <!-- 0.5 -->
      <defs>
       <path d="M 10.796875 72.90625 
L 49.515625 72.90625 
L 49.515625 64.59375 
L 19.828125 64.59375 
L 19.828125 46.734375 
Q 21.96875 47.46875 24.109375 47.828125 
Q 26.265625 48.1875 28.421875 48.1875 
Q 40.625 48.1875 47.75 41.5 
Q 54.890625 34.8125 54.890625 23.390625 
Q 54.890625 11.625 47.5625 5.09375 
Q 40.234375 -1.421875 26.90625 -1.421875 
Q 22.3125 -1.421875 17.546875 -0.640625 
Q 12.796875 0.140625 7.71875 1.703125 
L 7.71875 11.625 
Q 12.109375 9.234375 16.796875 8.0625 
Q 21.484375 6.890625 26.703125 6.890625 
Q 35.15625 6.890625 40.078125 11.328125 
Q 45.015625 15.765625 45.015625 23.390625 
Q 45.015625 31 40.078125 35.4375 
Q 35.15625 39.890625 26.703125 39.890625 
Q 22.75 39.890625 18.8125 39.015625 
Q 14.890625 38.140625 10.796875 36.28125 
z
" id="DejaVuSans-53"/>
      </defs>
      <g transform="translate(153.808437 278.406437)scale(0.1 -0.1)">
       <use xlink:href="#DejaVuSans-48"/>
       <use x="63.623047" xlink:href="#DejaVuSans-46"/>
       <use x="95.410156" xlink:href="#DejaVuSans-53"/>
      </g>
     </g>
    </g>
    <g id="xtick_3">
     <g id="line2d_3">
      <g>
       <use style="stroke:#000000;stroke-width:0.8;" x="236.16" xlink:href="#m3c8bfe6627" y="263.808"/>
      </g>
     </g>
     <g id="text_3">
      <!-- 1.0 -->
      <defs>
       <path d="M 12.40625 8.296875 
L 28.515625 8.296875 
L 28.515625 63.921875 
L 10.984375 60.40625 
L 10.984375 69.390625 
L 28.421875 72.90625 
L 38.28125 72.90625 
L 38.28125 8.296875 
L 54.390625 8.296875 
L 54.390625 0 
L 12.40625 0 
z
" id="DejaVuSans-49"/>
      </defs>
      <g transform="translate(228.208437 278.406437)scale(0.1 -0.1)">
       <use xlink:href="#DejaVuSans-49"/>
       <use x="63.623047" xlink:href="#DejaVuSans-46"/>
       <use x="95.410156" xlink:href="#DejaVuSans-48"/>
      </g>
     </g>
    </g>
    <g id="xtick_4">
     <g id="line2d_4">
      <g>
       <use style="stroke:#000000;stroke-width:0.8;" x="310.56" xlink:href="#m3c8bfe6627" y="263.808"/>
      </g>
     </g>
     <g id="text_4">
      <!-- 1.5 -->
      <g transform="translate(302.608437 278.406437)scale(0.1 -0.1)">
       <use xlink:href="#DejaVuSans-49"/>
       <use x="63.623047" xlink:href="#DejaVuSans-46"/>
       <use x="95.410156" xlink:href="#DejaVuSans-53"/>
      </g>
     </g>
    </g>
    <g id="xtick_5">
     <g id="line2d_5">
      <g>
       <use style="stroke:#000000;stroke-width:0.8;" x="384.96" xlink:href="#m3c8bfe6627" y="263.808"/>
      </g>
     </g>
     <g id="text_5">
      <!-- 2.0 -->
      <defs>
       <path d="M 19.1875 8.296875 
L 53.609375 8.296875 
L 53.609375 0 
L 7.328125 0 
L 7.328125 8.296875 
Q 12.9375 14.109375 22.625 23.890625 
Q 32.328125 33.6875 34.8125 36.53125 
Q 39.546875 41.84375 41.421875 45.53125 
Q 43.3125 49.21875 43.3125 52.78125 
Q 43.3125 58.59375 39.234375 62.25 
Q 35.15625 65.921875 28.609375 65.921875 
Q 23.96875 65.921875 18.8125 64.3125 
Q 13.671875 62.703125 7.8125 59.421875 
L 7.8125 69.390625 
Q 13.765625 71.78125 18.9375 73 
Q 24.125 74.21875 28.421875 74.21875 
Q 39.75 74.21875 46.484375 68.546875 
Q 53.21875 62.890625 53.21875 53.421875 
Q 53.21875 48.921875 51.53125 44.890625 
Q 49.859375 40.875 45.40625 35.40625 
Q 44.1875 33.984375 37.640625 27.21875 
Q 31.109375 20.453125 19.1875 8.296875 
z
" id="DejaVuSans-50"/>
      </defs>
      <g transform="translate(377.008437 278.406437)scale(0.1 -0.1)">
       <use xlink:href="#DejaVuSans-50"/>
       <use x="63.623047" xlink:href="#DejaVuSans-46"/>
       <use x="95.410156" xlink:href="#DejaVuSans-48"/>
      </g>
     </g>
    </g>
   </g>
   <g id="matplotlib.axis_2">
    <g id="ytick_1">
     <g id="line2d_6">
      <defs>
       <path d="M 0 0 
L -3.5 0 
" id="mda4af111d4" style="stroke:#000000;stroke-width:0.8;"/>
      </defs>
      <g>
       <use style="stroke:#000000;stroke-width:0.8;" x="57.6" xlink:href="#mda4af111d4" y="248.928"/>
      </g>
     </g>
     <g id="text_6">
      <!-- 0.0 -->
      <g transform="translate(34.696875 252.727219)scale(0.1 -0.1)">
       <use xlink:href="#DejaVuSans-48"/>
       <use x="63.623047" xlink:href="#DejaVuSans-46"/>
       <use x="95.410156" xlink:href="#DejaVuSans-48"/>
      </g>
     </g>
    </g>
    <g id="ytick_2">
     <g id="line2d_7">
      <g>
       <use style="stroke:#000000;stroke-width:0.8;" x="57.6" xlink:href="#mda4af111d4" y="219.168"/>
      </g>
     </g>
     <g id="text_7">
      <!-- 0.2 -->
      <g transform="translate(34.696875 222.967219)scale(0.1 -0.1)">
       <use xlink:href="#DejaVuSans-48"/>
       <use x="63.623047" xlink:href="#DejaVuSans-46"/>
       <use x="95.410156" xlink:href="#DejaVuSans-50"/>
      </g>
     </g>
    </g>
    <g id="ytick_3">
     <g id="line2d_8">
      <g>
       <use style="stroke:#000000;stroke-width:0.8;" x="57.6" xlink:href="#mda4af111d4" y="189.408"/>
      </g>
     </g>
     <g id="text_8">
      <!-- 0.4 -->
      <defs>
       <path d="M 37.796875 64.3125 
L 12.890625 25.390625 
L 37.796875 25.390625 
z
M 35.203125 72.90625 
L 47.609375 72.90625 
L 47.609375 25.390625 
L 58.015625 25.390625 
L 58.015625 17.1875 
L 47.609375 17.1875 
L 47.609375 0 
L 37.796875 0 
L 37.796875 17.1875 
L 4.890625 17.1875 
L 4.890625 26.703125 
z
" id="DejaVuSans-52"/>
      </defs>
      <g transform="translate(34.696875 193.207219)scale(0.1 -0.1)">
       <use xlink:href="#DejaVuSans-48"/>
       <use x="63.623047" xlink:href="#DejaVuSans-46"/>
       <use x="95.410156" xlink:href="#DejaVuSans-52"/>
      </g>
     </g>
    </g>
    <g id="ytick_4">
     <g id="line2d_9">
      <g>
       <use style="stroke:#000000;stroke-width:0.8;" x="57.6" xlink:href="#mda4af111d4" y="159.648"/>
      </g>
     </g>
     <g id="text_9">
      <!-- 0.6 -->
      <defs>
       <path d="M 33.015625 40.375 
Q 26.375 40.375 22.484375 35.828125 
Q 18.609375 31.296875 18.609375 23.390625 
Q 18.609375 15.53125 22.484375 10.953125 
Q 26.375 6.390625 33.015625 6.390625 
Q 39.65625 6.390625 43.53125 10.953125 
Q 47.40625 15.53125 47.40625 23.390625 
Q 47.40625 31.296875 43.53125 35.828125 
Q 39.65625 40.375 33.015625 40.375 
z
M 52.59375 71.296875 
L 52.59375 62.3125 
Q 48.875 64.0625 45.09375 64.984375 
Q 41.3125 65.921875 37.59375 65.921875 
Q 27.828125 65.921875 22.671875 59.328125 
Q 17.53125 52.734375 16.796875 39.40625 
Q 19.671875 43.65625 24.015625 45.921875 
Q 28.375 48.1875 33.59375 48.1875 
Q 44.578125 48.1875 50.953125 41.515625 
Q 57.328125 34.859375 57.328125 23.390625 
Q 57.328125 12.15625 50.6875 5.359375 
Q 44.046875 -1.421875 33.015625 -1.421875 
Q 20.359375 -1.421875 13.671875 8.265625 
Q 6.984375 17.96875 6.984375 36.375 
Q 6.984375 53.65625 15.1875 63.9375 
Q 23.390625 74.21875 37.203125 74.21875 
Q 40.921875 74.21875 44.703125 73.484375 
Q 48.484375 72.75 52.59375 71.296875 
z
" id="DejaVuSans-54"/>
      </defs>
      <g transform="translate(34.696875 163.447219)scale(0.1 -0.1)">
       <use xlink:href="#DejaVuSans-48"/>
       <use x="63.623047" xlink:href="#DejaVuSans-46"/>
       <use x="95.410156" xlink:href="#DejaVuSans-54"/>
      </g>
     </g>
    </g>
    <g id="ytick_5">
     <g id="line2d_10">
      <g>
       <use style="stroke:#000000;stroke-width:0.8;" x="57.6" xlink:href="#mda4af111d4" y="129.888"/>
      </g>
     </g>
     <g id="text_10">
      <!-- 0.8 -->
      <defs>
       <path d="M 31.78125 34.625 
Q 24.75 34.625 20.71875 30.859375 
Q 16.703125 27.09375 16.703125 20.515625 
Q 16.703125 13.921875 20.71875 10.15625 
Q 24.75 6.390625 31.78125 6.390625 
Q 38.8125 6.390625 42.859375 10.171875 
Q 46.921875 13.96875 46.921875 20.515625 
Q 46.921875 27.09375 42.890625 30.859375 
Q 38.875 34.625 31.78125 34.625 
z
M 21.921875 38.8125 
Q 15.578125 40.375 12.03125 44.71875 
Q 8.5 49.078125 8.5 55.328125 
Q 8.5 64.0625 14.71875 69.140625 
Q 20.953125 74.21875 31.78125 74.21875 
Q 42.671875 74.21875 48.875 69.140625 
Q 55.078125 64.0625 55.078125 55.328125 
Q 55.078125 49.078125 51.53125 44.71875 
Q 48 40.375 41.703125 38.8125 
Q 48.828125 37.15625 52.796875 32.3125 
Q 56.78125 27.484375 56.78125 20.515625 
Q 56.78125 9.90625 50.3125 4.234375 
Q 43.84375 -1.421875 31.78125 -1.421875 
Q 19.734375 -1.421875 13.25 4.234375 
Q 6.78125 9.90625 6.78125 20.515625 
Q 6.78125 27.484375 10.78125 32.3125 
Q 14.796875 37.15625 21.921875 38.8125 
z
M 18.3125 54.390625 
Q 18.3125 48.734375 21.84375 45.5625 
Q 25.390625 42.390625 31.78125 42.390625 
Q 38.140625 42.390625 41.71875 45.5625 
Q 45.3125 48.734375 45.3125 54.390625 
Q 45.3125 60.0625 41.71875 63.234375 
Q 38.140625 66.40625 31.78125 66.40625 
Q 25.390625 66.40625 21.84375 63.234375 
Q 18.3125 60.0625 18.3125 54.390625 
z
" id="DejaVuSans-56"/>
      </defs>
      <g transform="translate(34.696875 133.687219)scale(0.1 -0.1)">
       <use xlink:href="#DejaVuSans-48"/>
       <use x="63.623047" xlink:href="#DejaVuSans-46"/>
       <use x="95.410156" xlink:href="#DejaVuSans-56"/>
      </g>
     </g>
    </g>
    <g id="ytick_6">
     <g id="line2d_11">
      <g>
       <use style="stroke:#000000;stroke-width:0.8;" x="57.6" xlink:href="#mda4af111d4" y="100.128"/>
      </g>
     </g>
     <g id="text_11">
      <!-- 1.0 -->
      <g transform="translate(34.696875 103.927219)scale(0.1 -0.1)">
       <use xlink:href="#DejaVuSans-49"/>
       <use x="63.623047" xlink:href="#DejaVuSans-46"/>
       <use x="95.410156" xlink:href="#DejaVuSans-48"/>
      </g>
     </g>
    </g>
   </g>
   <g id="line2d_12">
    <path clip-path="url(#p9eca7b6ff1)" d="M 236.16 248.928 
L 236.16 100.128 
" style="fill:none;stroke:#cc0000;stroke-dasharray:7.4,3.2;stroke-dashoffset:0;stroke-width:2;"/>
   </g>
   <g id="line2d_13">
    <path clip-path="url(#p9eca7b6ff1)" d="M 87.36 248.928 
L 384.96 248.928 
" style="fill:none;stroke:#009900;stroke-linecap:square;stroke-width:2;"/>
   </g>
   <g id="line2d_14">
    <path clip-path="url(#p9eca7b6ff1)" d="M 384.96 248.928 
L 384.96 100.128 
" style="fill:none;stroke:#009900;stroke-linecap:square;stroke-width:2;"/>
   </g>
   <g id="line2d_15">
    <path clip-path="url(#p9eca7b6ff1)" d="M 384.96 100.128 
L 87.36 100.128 
" style="fill:none;stroke:#009900;stroke-linecap:square;stroke-width:2;"/>
   </g>
   <g id="line2d_16">
    <path clip-path="url(#p9eca7b6ff1)" d="M 87.36 100.128 
L 87.36 248.928 
" style="fill:none;stroke:#009900;stroke-linecap:square;stroke-width:2;"/>
   </g>
   <g id="line2d_17">
    <path clip-path="url(#p9eca7b6ff1)" d="M 202.780301 100.609638 
L 196.99089 101.989602 
L 191.261294 103.599976 
L 185.600678 105.438185 
L 180.018099 107.501288 
L 174.522488 109.785985 
L 169.122636 112.288619 
L 163.827182 115.005189 
L 158.644598 117.931347 
L 153.583174 121.062412 
L 148.651008 124.393376 
L 143.85599 127.918909 
L 139.205792 131.633372 
L 134.707852 135.530823 
L 130.369367 139.605025 
L 126.197276 143.849461 
L 122.198255 148.257342 
L 118.378701 152.821615 
L 114.744724 157.534978 
L 111.302139 162.389892 
L 108.056451 167.378588 
L 105.012855 172.493088 
L 102.176219 177.725207 
L 99.55108 183.066577 
L 97.14164 188.508651 
L 94.951751 194.042725 
L 92.984918 199.659944 
L 91.244288 205.351322 
L 89.732644 211.107754 
L 88.452405 216.920032 
L 87.36 223.069259 
L 88.395209 228.930139 
L 89.663963 234.744935 
L 91.164232 240.504342 
L 92.893616 246.199148 
L 93.811583 248.928 
L 95.650826 243.26772 
L 97.262246 237.538418 
L 98.643267 231.749259 
L 99.791679 225.909505 
L 100.705644 220.028497 
L 101.383701 214.115645 
L 101.824764 208.180408 
L 102.028128 202.23228 
L 101.993468 196.280778 
L 101.720839 190.335422 
L 101.210677 184.405724 
L 100.463799 178.501171 
L 99.481399 172.631207 
L 98.265049 166.805225 
L 96.816694 161.032543 
L 95.138653 155.322398 
L 93.233608 149.683924 
L 91.104609 144.126142 
L 88.755061 138.657943 
L 87.36 135.670673 
L 89.830123 130.255872 
L 92.081736 124.746623 
L 94.111237 119.151741 
L 95.915379 113.480176 
L 97.491275 107.741001 
L 98.836405 101.943397 
L 99.207722 100.128 
L 100.480553 105.941904 
L 101.984859 111.700258 
L 103.718235 117.39385 
L 105.677908 123.013571 
L 107.860742 128.550431 
L 110.263245 133.995572 
L 112.881574 139.340283 
L 115.71154 144.576013 
L 118.748616 149.694387 
L 121.987943 154.687216 
L 125.424339 159.546513 
L 126.907447 161.522634 
L 121.105012 162.846766 
L 115.360169 164.401875 
L 109.68211 166.185473 
L 104.079917 168.194705 
L 98.562553 170.426359 
L 93.138845 172.876862 
L 87.36 175.784018 
L 92.672075 178.467939 
L 98.08723 180.937288 
L 103.596801 183.188112 
L 109.191973 185.216813 
L 114.863797 187.020143 
L 120.603197 188.595218 
L 126.400993 189.939519 
L 128.059355 190.279399 
L 125.311608 195.558742 
L 122.777176 200.943743 
L 120.460114 206.425787 
L 118.364129 211.996103 
L 116.492574 217.645781 
L 114.848442 223.365782 
L 113.434365 229.146956 
L 112.252604 234.980053 
L 111.30505 240.855742 
L 110.593219 246.764623 
L 110.392338 248.928 
L 109.766858 243.009355 
L 108.905196 237.120457 
L 107.80873 231.270727 
L 106.479214 225.469523 
L 104.918775 219.726126 
L 103.12991 214.049724 
L 101.115481 208.449397 
L 98.878709 202.934107 
L 96.423173 197.512674 
L 93.752803 192.193774 
L 90.871869 186.985915 
L 87.78498 181.897428 
L 87.36 181.231388 
L 90.473863 176.159363 
L 93.382408 170.966874 
L 96.080982 165.662227 
L 98.565269 160.253909 
L 100.831293 154.750573 
L 102.87543 149.161021 
L 104.694409 143.494197 
L 106.285321 137.759166 
L 107.645621 131.965103 
L 108.773131 126.121277 
L 109.666049 120.237037 
L 110.322946 114.321797 
L 110.742771 108.38502 
L 110.924852 102.436202 
L 110.931412 100.128 
L 110.976434 104.591606 
L 111.244678 110.537161 
L 111.750466 116.467233 
L 112.492989 122.372336 
L 113.471059 128.243023 
L 114.683111 134.069901 
L 116.127207 139.843649 
L 117.801037 145.55503 
L 119.701921 151.194908 
L 121.826821 156.754259 
L 124.172335 162.22419 
L 125.68285 165.457209 
L 120.941579 169.054699 
L 116.347961 172.838911 
L 111.909346 176.803791 
L 107.632835 180.942998 
L 103.525268 185.249908 
L 99.593218 189.717632 
L 95.842973 194.339022 
L 92.280535 199.106686 
L 88.911603 204.012996 
L 87.36 206.422657 
L 90.633813 211.392941 
L 94.103766 216.228332 
L 97.764307 220.921095 
L 101.609581 225.463721 
L 105.633435 229.848943 
L 109.829433 234.069747 
L 114.190862 238.119379 
L 118.710744 241.991361 
L 123.381848 245.679499 
L 127.839017 248.928 
L 132.643592 245.415503 
L 137.303862 241.713683 
L 141.812371 237.828464 
L 146.161906 233.76606 
L 150.345509 229.53297 
L 154.356487 225.135968 
L 158.188424 220.582085 
L 161.835188 215.878609 
L 164.905146 211.594805 
L 169.147082 215.769439 
L 173.552565 219.771101 
L 178.114548 223.593389 
L 182.825733 227.23019 
L 187.678582 230.675684 
L 192.665333 233.92436 
L 197.778008 236.971021 
L 203.008427 239.810792 
L 208.348222 242.439131 
L 213.788852 244.851832 
L 219.321612 247.045036 
L 224.672939 248.928 
L 230.285278 246.947285 
L 236.16 244.597182 
L 230.636941 242.379661 
L 225.029622 240.384778 
L 219.347015 238.615723 
L 213.59821 237.075327 
L 207.792404 235.766054 
L 201.938885 234.689999 
L 196.047017 233.848883 
L 190.126226 233.244051 
L 184.185985 232.876472 
L 178.235796 232.746733 
L 172.285179 232.855041 
L 166.343652 233.201225 
L 160.420722 233.784729 
L 154.525863 234.60462 
L 148.668507 235.659588 
L 142.858023 236.947943 
L 137.103707 238.467625 
L 131.414766 240.216202 
L 125.800299 242.190878 
L 120.269289 244.388493 
L 114.830585 246.805532 
L 110.486177 248.928 
L 105.128874 246.335534 
L 99.672185 243.959376 
L 94.124839 241.803328 
L 88.495713 239.87084 
L 87.36 239.511178 
L 93.004418 237.623818 
L 98.568847 235.512252 
L 104.044384 233.179856 
L 109.422271 230.630363 
L 114.693904 227.867852 
L 119.850849 224.896741 
L 124.884856 221.721784 
L 129.787872 218.34806 
L 134.552053 214.780966 
L 139.169778 211.026209 
L 143.685703 207.041994 
L 142.69593 212.910719 
L 141.941635 218.814329 
L 141.424024 224.743381 
L 141.143926 230.68839 
L 141.10179 236.639844 
L 141.297681 242.588223 
L 141.769491 248.928 
L 142.219284 242.993418 
L 142.431396 237.045595 
L 142.40549 231.094049 
L 142.141606 225.148298 
L 141.640166 219.217857 
L 140.901974 213.312211 
L 139.928208 207.440809 
L 139.279687 204.167088 
L 133.35019 204.67958 
L 127.44593 205.42878 
L 121.576354 206.413487 
L 115.75085 207.632127 
L 109.978738 209.082751 
L 104.269253 210.763037 
L 98.631528 212.670298 
L 93.074584 214.801481 
L 87.36 217.265742 
L 92.822972 219.627419 
L 98.376016 221.768747 
L 104.010248 223.686299 
L 109.716655 225.377008 
L 115.486108 226.83817 
L 121.309377 228.067446 
L 127.177146 229.06287 
L 133.080028 229.82285 
L 139.008579 230.346169 
L 144.953315 230.631991 
L 150.904725 230.679859 
L 156.85329 230.489695 
L 162.789492 230.061804 
L 168.703834 229.396871 
L 174.586855 228.495959 
L 180.429143 227.36051 
L 186.221353 225.992339 
L 191.954217 224.393636 
L 197.618564 222.566959 
L 203.205333 220.515229 
L 208.705586 218.24173 
L 214.110523 215.750097 
L 219.411499 213.044318 
L 224.600031 210.12872 
L 229.667821 207.007969 
L 234.60676 203.687057 
L 236.16 202.58202 
L 231.264008 199.198111 
L 226.236612 196.012695 
L 221.085855 193.03087 
L 215.819976 190.257406 
L 210.447401 187.696739 
L 204.976724 185.352965 
L 199.416697 183.229836 
L 196.615119 182.319757 
L 192.390922 180.87841 
L 188.260756 179.186356 
L 184.239484 177.249686 
L 180.341579 175.075369 
L 176.581068 172.671231 
L 172.971486 170.045924 
L 169.525824 167.208896 
L 166.256481 164.170357 
L 163.175225 160.941244 
L 160.293143 157.533176 
L 157.620609 153.95842 
L 155.167241 150.22984 
L 152.941869 146.360857 
L 150.9525 142.365393 
L 149.644852 139.356091 
L 150.730001 143.685499 
L 151.553588 148.072186 
L 152.112649 152.500364 
L 152.405174 156.954099 
L 152.430108 161.417359 
L 152.187362 165.874084 
L 151.67781 170.308233 
L 150.903286 174.703848 
L 149.866577 179.045109 
L 148.571413 183.316394 
L 147.022457 187.502329 
L 145.225283 191.58785 
L 143.186359 195.558254 
L 140.913022 199.399251 
L 138.234403 203.344424 
L 141.344043 200.142634 
L 144.640079 197.133072 
L 148.110649 194.326569 
L 151.743264 191.733225 
L 155.524849 189.362375 
L 159.441795 187.222549 
L 163.480005 185.32145 
L 167.624946 183.665919 
L 171.861701 182.261915 
L 176.175021 181.11449 
L 180.549384 180.227773 
L 184.969047 179.604956 
L 189.418103 179.248281 
L 193.880541 179.159031 
L 198.644909 179.359513 
L 194.285666 178.401224 
L 189.99173 177.183261 
L 185.778554 175.710009 
L 181.661303 173.986768 
L 177.654792 172.019742 
L 173.773442 169.816009 
L 170.031221 167.3835 
L 166.441597 164.730969 
L 163.017489 161.867964 
L 159.771219 158.804787 
L 156.714472 155.552463 
L 153.858247 152.122696 
L 151.212824 148.527831 
L 148.787725 144.780804 
L 146.45001 140.624546 
L 147.930155 144.835305 
L 149.155141 149.127242 
L 150.120562 153.484911 
L 150.822942 157.89263 
L 151.259754 162.334534 
L 151.429425 166.794638 
L 151.331346 171.256891 
L 150.965868 175.705233 
L 150.334307 180.123654 
L 149.438937 184.496254 
L 148.28298 188.807296 
L 146.870595 193.041264 
L 145.206866 197.182921 
L 143.29778 201.217362 
L 140.994758 205.392943 
L 143.795579 201.917786 
L 146.799744 198.616829 
L 149.996442 195.501955 
L 153.374167 192.584373 
L 156.920765 189.874582 
L 160.62347 187.382336 
L 164.468958 185.116604 
L 168.443388 183.08554 
L 172.532458 181.296453 
L 176.72145 179.755782 
L 180.995288 178.469073 
L 185.338593 177.440956 
L 189.735732 176.67513 
L 194.17088 176.174353 
L 198.933412 175.934202 
L 194.504325 175.382386 
L 190.116296 174.565978 
L 185.785119 173.487915 
L 181.52638 172.152077 
L 177.355407 170.563272 
L 173.28721 168.727217 
L 169.336432 166.650521 
L 165.517289 164.340658 
L 161.843528 161.80594 
L 158.328369 159.055489 
L 154.984464 156.099205 
L 151.823846 152.947727 
L 148.857891 149.612396 
L 146.097273 146.105217 
L 143.385893 142.182487 
L 145.248395 146.238644 
L 146.864322 150.399184 
L 148.227858 154.649136 
L 149.334097 158.973203 
L 150.179057 163.355823 
L 150.759697 167.781224 
L 151.073927 172.23348 
L 151.120616 176.696566 
L 150.899597 181.154421 
L 150.411665 185.591 
L 149.658576 189.990339 
L 148.64304 194.336602 
L 147.368712 198.614149 
L 145.840179 202.807584 
L 143.932419 207.177921 
L 146.400505 203.459068 
L 149.087148 199.894903 
L 151.982678 196.498254 
L 155.076674 193.281345 
L 158.358001 190.255752 
L 161.81485 187.432366 
L 165.434781 184.821346 
L 169.204764 182.432091 
L 173.111233 180.273198 
L 177.140129 178.352438 
L 181.276951 176.676722 
L 185.506811 175.252083 
L 189.814488 174.083646 
L 194.184476 173.175618 
L 198.904509 172.496883 
L 194.443395 172.356253 
L 189.998741 171.94837 
L 185.586543 171.274701 
L 181.222681 170.337672 
L 176.922859 169.140654 
L 172.702553 167.687956 
L 168.57695 165.984805 
L 164.560899 164.037331 
L 160.668853 161.852544 
L 156.91482 159.438305 
L 153.312309 156.803303 
L 149.874286 153.957022 
L 146.613124 150.909705 
L 143.540559 147.672319 
L 140.478665 144.016613 
L 142.707621 147.883533 
L 144.70069 151.877152 
L 146.4507 155.983097 
L 147.951351 160.186591 
L 149.197244 164.472506 
L 150.183895 168.825418 
L 150.907751 173.22966 
L 151.36621 177.669383 
L 151.557619 182.128607 
L 151.481292 186.591285 
L 151.137501 191.041355 
L 150.527485 195.462803 
L 149.65344 199.839715 
L 148.518509 204.15634 
L 147.022301 208.684116 
L 149.13658 204.753321 
L 151.48276 200.956381 
L 154.052398 197.306959 
L 156.836246 193.81819 
L 159.824285 190.50263 
L 163.005762 187.37221 
L 166.369226 184.438198 
L 169.902573 181.711152 
L 173.593086 179.200887 
L 177.427484 176.916438 
L 181.391967 174.866024 
L 185.472267 173.057027 
L 189.653699 171.495956 
L 193.921215 170.18843 
L 198.558445 169.076907 
L 194.103396 169.348664 
L 189.640067 169.352788 
L 185.184523 169.089267 
L 180.752798 168.559047 
L 176.360842 167.764037 
L 172.024461 166.707099 
L 167.759262 165.392035 
L 163.580594 163.82358 
L 159.503496 162.007378 
L 155.542641 159.949964 
L 151.712285 157.658744 
L 148.026212 155.141963 
L 144.497688 152.40868 
L 141.139412 149.468731 
L 137.753148 146.111261 
L 140.329527 149.755927 
L 142.682721 153.548525 
L 144.804261 157.475405 
L 146.686512 161.522435 
L 148.3227 165.675049 
L 149.706936 169.918304 
L 150.834239 174.236927 
L 151.700551 178.615377 
L 152.302755 183.037895 
L 152.638683 187.488566 
L 152.707127 191.951371 
L 152.50784 196.41025 
L 152.04154 200.849156 
L 151.309904 205.252113 
L 150.238022 209.898666 
L 151.98044 205.789494 
L 153.966124 201.792198 
L 156.18793 197.921164 
L 158.63786 194.190325 
L 161.307097 190.613107 
L 164.186036 187.202384 
L 167.264315 183.970431 
L 170.530855 180.92888 
L 173.973901 178.088677 
L 177.581061 175.460044 
L 181.339354 173.05244 
L 185.235253 170.874531 
L 189.254738 168.934155 
L 193.383343 167.238296 
L 197.898176 165.703476 
L 193.487231 166.385298 
L 189.043338 166.801396 
L 184.582492 166.950271 
L 180.120745 166.831388 
L 175.674155 166.445175 
L 171.258726 165.793021 
L 166.890348 164.877274 
L 162.584743 163.701229 
L 158.357406 162.26912 
L 154.22355 160.586099 
L 150.198054 158.658224 
L 146.295405 156.492434 
L 142.529648 154.096522 
L 138.914336 151.479112 
L 135.232615 148.448548 
L 138.134418 151.839839 
L 140.827643 155.399032 
L 143.302599 159.113317 
L 145.550378 162.969327 
L 147.56289 166.953183 
L 149.332893 171.050549 
L 150.854016 175.246679 
L 152.120785 179.52647 
L 153.128642 183.874521 
L 153.873958 188.275182 
L 154.354052 192.712617 
L 154.567195 197.170855 
L 154.512621 201.633852 
L 154.190526 206.085546 
L 153.552124 210.811202 
L 154.907803 206.558738 
L 156.516037 202.395218 
L 158.371039 198.335626 
L 160.466132 194.394572 
L 162.793777 190.586241 
L 165.345595 186.924337 
L 168.112405 183.42204 
L 171.084247 180.091954 
L 174.250427 176.946064 
L 177.59955 173.995692 
L 181.119562 171.251455 
L 184.797795 168.723231 
L 188.621012 166.420118 
L 192.575453 164.350405 
L 196.929339 162.405393 
L 192.600162 163.49146 
L 188.213649 164.315977 
L 183.785589 164.875978 
L 179.331917 165.169447 
L 174.868662 165.195328 
L 170.411886 164.953527 
L 165.977629 164.444915 
L 161.58185 163.671323 
L 157.240369 162.635535 
L 152.968809 161.341277 
L 148.782546 159.793209 
L 144.696644 157.996902 
L 140.725807 155.958819 
L 136.884328 153.686297 
L 126.585472 147.138115 
L 121.368642 144.273458 
L 116.041429 141.619709 
L 110.612355 139.181115 
L 105.090107 136.961576 
L 99.483517 134.964644 
L 93.801557 133.193513 
L 88.053315 131.651017 
L 87.36 131.481522 
L 93.115575 129.966615 
L 98.805965 128.222758 
L 104.422068 126.252741 
L 109.954899 124.059716 
L 115.395607 121.647191 
L 120.735488 119.019025 
L 125.965999 116.179424 
L 131.078772 113.132929 
L 136.065628 109.884414 
L 140.918589 106.439077 
L 145.629892 102.802429 
L 148.860664 100.128 
L 153.467602 103.895984 
L 158.221535 107.476725 
L 163.114856 110.864495 
L 168.139738 114.053875 
L 173.288141 117.039762 
L 178.55183 119.817379 
L 183.922384 122.382284 
L 189.391211 124.730371 
L 194.949561 126.857886 
L 200.588544 128.761424 
L 206.299137 130.437941 
L 212.072205 131.884753 
L 217.898512 133.099547 
L 223.768738 134.08038 
L 229.673491 134.825681 
L 236.16 135.369757 
L 230.228301 135.856103 
L 224.320796 136.579264 
L 218.446935 137.538083 
L 212.616115 138.731028 
L 206.837664 140.156189 
L 201.120826 141.811286 
L 195.474747 143.693672 
L 189.90846 145.800336 
L 186.853827 147.066393 
L 183.138189 149.539317 
L 179.28095 151.784986 
L 175.295993 153.795318 
L 171.19766 155.563079 
L 167.000699 157.081907 
L 162.720215 158.346335 
L 158.371613 159.351812 
L 153.970545 160.094721 
L 149.532848 160.572387 
L 145.074494 160.783091 
L 140.611528 160.726076 
L 136.160011 160.401546 
L 131.735965 159.810669 
L 127.918786 159.080922 
L 131.41334 161.857505 
L 134.73511 164.838639 
L 137.872143 168.013595 
L 140.813147 171.370947 
L 143.547539 174.898611 
L 146.065477 178.583894 
L 148.357901 182.41353 
L 150.416559 186.373738 
L 152.234042 190.450265 
L 153.80381 194.62844 
L 155.120214 198.893226 
L 156.178514 203.229274 
L 156.974904 207.620981 
L 157.452754 211.477799 
L 159.021903 207.299391 
L 160.838781 203.222594 
L 162.896852 199.262081 
L 165.188707 195.432105 
L 167.706099 191.746449 
L 170.439967 188.218379 
L 173.380474 184.860591 
L 176.517035 181.685169 
L 179.838363 178.703543 
L 183.332505 175.926442 
L 186.986886 173.363861 
L 190.788353 171.025022 
L 194.723226 168.918344 
L 198.246891 167.279084 
L 193.788506 167.06904 
L 189.350738 166.592033 
L 184.949559 165.849777 
L 180.600809 164.844944 
L 176.320137 163.581152 
L 172.122951 162.062947 
L 168.024355 160.295794 
L 164.0391 158.286052 
L 160.181528 156.040956 
L 156.465523 153.568583 
L 152.904458 150.877834 
L 149.511149 147.97839 
L 146.297809 144.880687 
L 143.655587 142.030766 
L 138.798335 138.59148 
L 133.807434 135.349184 
L 128.690868 132.309063 
L 123.456822 129.475983 
L 118.11367 126.854475 
L 112.669959 124.448733 
L 107.134399 122.262606 
L 101.515845 120.29959 
L 95.823285 118.562828 
L 90.065827 117.055096 
L 87.36 116.430694 
L 93.144592 115.030667 
L 98.868571 113.400437 
L 104.522779 111.542614 
L 110.098172 109.460169 
L 115.585829 107.156433 
L 120.976972 104.635092 
L 126.262976 101.900179 
L 129.433691 100.128 
L 134.651363 102.991125 
L 139.979356 105.643308 
L 145.409145 108.080307 
L 150.932046 110.298223 
L 156.539222 112.293507 
L 162.221702 114.062969 
L 167.970397 115.603776 
L 173.77611 116.913465 
L 179.629552 117.989939 
L 185.521359 118.831477 
L 191.442106 119.436733 
L 197.382321 119.804737 
L 203.332501 119.934902 
L 209.283126 119.827019 
L 215.224677 119.481261 
L 221.14765 118.898181 
L 227.042567 118.078711 
L 232.899999 117.024163 
L 236.16 116.331613 
L 243.543815 115.420574 
L 250.902549 114.325243 
L 258.231603 113.046305 
L 265.526397 111.58456 
L 272.782372 109.94092 
L 279.994992 108.116414 
L 287.159751 106.112181 
L 294.27217 103.929474 
L 301.327805 101.569657 
L 305.371445 100.128 
L 312.392305 102.589348 
L 319.472499 104.874423 
L 326.607602 106.981798 
L 333.793153 108.910156 
L 341.024664 110.658291 
L 348.297613 112.22511 
L 355.607456 113.609635 
L 362.949625 114.811001 
L 370.31953 115.828456 
L 377.712566 116.661365 
L 384.96 117.296881 
L 377.548813 117.948821 
L 370.156239 118.785818 
L 362.786898 119.807348 
L 355.445395 121.012774 
L 348.136318 122.401341 
L 340.864236 123.972183 
L 333.633694 125.724316 
L 326.44921 127.656647 
L 319.315273 129.767968 
L 312.236344 132.056958 
L 305.216846 134.522188 
L 298.261165 137.162117 
L 291.373649 139.975095 
L 284.558603 142.959363 
L 277.820285 146.113058 
L 271.162907 149.434208 
L 264.59063 152.920736 
L 258.10756 156.570466 
L 251.71775 160.381114 
L 245.425192 164.350301 
L 239.233821 168.475544 
L 236.16 170.608043 
L 242.299025 174.81079 
L 248.54119 178.858765 
L 254.882593 182.749437 
L 261.31927 186.480374 
L 267.847201 190.049246 
L 274.462304 193.453821 
L 281.160445 196.691971 
L 287.937438 199.761674 
L 294.789049 202.661011 
L 301.710994 205.388169 
L 308.698948 207.941444 
L 315.748544 210.319241 
L 322.855376 212.520073 
L 330.015001 214.542565 
L 337.222947 216.385453 
L 344.474708 218.047585 
L 351.765751 219.527923 
L 359.091521 220.825541 
L 366.447439 221.939629 
L 373.828907 222.869489 
L 381.231313 223.614542 
L 384.96 223.919205 
L 377.548813 224.571145 
L 370.156239 225.408142 
L 362.786898 226.429672 
L 355.445395 227.635098 
L 348.136318 229.023665 
L 340.864236 230.594507 
L 333.633694 232.34664 
L 326.44921 234.278971 
L 319.315273 236.390292 
L 312.236344 238.679282 
L 305.216846 241.144512 
L 298.261165 243.784441 
L 291.373649 246.597419 
L 286.012371 248.928 
L 279.181439 245.980276 
L 272.278955 243.204229 
L 265.309235 240.601593 
L 258.276633 238.173995 
L 251.185545 235.922953 
L 244.040403 233.849872 
L 236.16 231.785564 
L 230.840387 229.116613 
L 225.4183 226.662525 
L 219.902412 224.427225 
L 214.301549 222.41429 
L 208.624669 220.62694 
L 202.880856 219.068035 
L 197.079297 217.740067 
L 191.229274 216.645162 
L 185.340147 215.785072 
L 179.421335 215.161172 
L 173.482309 214.77446 
L 167.532569 214.625555 
L 161.581633 214.714695 
L 155.639022 215.041738 
L 149.714243 215.606161 
L 143.816774 216.40706 
L 137.95605 217.443154 
L 132.141446 218.712786 
L 126.382265 220.213925 
L 120.687721 221.944168 
L 115.066922 223.900749 
L 109.528862 226.080537 
L 104.082401 228.480044 
L 98.73625 231.095432 
L 93.498964 233.922518 
L 88.37892 236.956777 
L 87.36 237.594193 
L 92.455369 240.669709 
L 97.66965 243.539004 
L 102.994502 246.197488 
L 108.421405 248.640908 
L 109.099343 248.928 
L 114.538269 246.51146 
L 119.876208 243.879355 
L 125.104622 241.035894 
L 130.215146 237.985626 
L 135.199603 234.733433 
L 140.05002 231.284515 
L 144.758638 227.644391 
L 149.317923 223.818885 
L 153.720582 219.814116 
L 157.959571 215.63649 
L 161.635066 211.72779 
L 165.691528 216.082867 
L 169.918902 220.272246 
L 174.310424 224.289224 
L 178.859071 228.127374 
L 183.557563 231.780557 
L 188.398386 235.242928 
L 193.373795 238.508948 
L 198.47583 241.573393 
L 203.696329 244.431359 
L 209.02694 247.078275 
L 213.104891 248.928 
L 218.512733 246.442679 
L 223.816864 243.74309 
L 229.008796 240.833551 
L 234.080226 237.718718 
L 236.16 236.358671 
L 231.141294 233.159582 
L 225.998674 230.163745 
L 220.740365 227.375956 
L 215.374781 224.800672 
L 209.910504 222.442015 
L 204.356278 220.303757 
L 198.720986 218.389319 
L 193.013646 216.701764 
L 187.243386 215.243792 
L 181.419438 214.017735 
L 175.55112 213.025554 
L 169.647819 212.268837 
L 163.71898 211.748795 
L 163.05548 211.705436 
L 157.173116 212.610631 
L 151.331656 213.750333 
L 145.540444 215.12272 
L 139.808745 216.725596 
L 134.145729 218.556396 
L 128.560455 220.612193 
L 123.061859 222.889696 
L 117.658737 225.385263 
L 112.359733 228.094901 
L 107.173324 231.014275 
L 102.107808 234.138715 
L 97.171288 237.463222 
L 92.371661 240.982478 
L 87.36 244.987727 
L 92.286728 248.928 
L 96.939117 245.216281 
L 101.439355 241.321484 
L 105.780243 237.249842 
L 109.954836 233.007867 
L 113.956456 228.602346 
L 117.778702 224.040327 
L 121.415458 219.329107 
L 124.860907 214.476225 
L 128.109536 209.489444 
L 131.156149 204.376741 
L 133.949912 199.235064 
L 128.422935 201.4428 
L 122.988664 203.86979 
L 117.655793 206.512152 
L 112.432855 209.365657 
L 107.328204 212.425742 
L 102.350007 215.687511 
L 97.506228 219.145746 
L 92.804617 222.794914 
L 88.252693 226.629178 
L 87.36 227.418524 
L 91.881072 231.289117 
L 96.55331 234.975819 
L 101.369239 238.472733 
L 106.321156 241.774263 
L 111.401137 244.875129 
L 116.601057 247.77037 
L 118.826787 248.928 
L 124.07478 246.120839 
L 129.206318 243.10606 
L 134.213193 239.888485 
L 139.087394 236.473263 
L 143.821124 232.865856 
L 148.40681 229.072036 
L 152.837115 225.097872 
L 157.104952 220.949723 
L 161.203493 216.634223 
L 165.126183 212.158277 
L 165.657634 211.523249 
L 170.407085 215.109932 
L 175.296166 218.503819 
L 180.317055 221.699481 
L 185.461721 224.691803 
L 190.721932 227.476001 
L 196.089274 230.047619 
L 201.55516 232.402544 
L 207.110846 234.537008 
L 212.747444 236.447597 
L 218.455936 238.131253 
L 224.22719 239.585284 
L 230.051974 240.807363 
L 236.16 241.830683 
L 230.289409 242.809325 
L 224.462649 244.021945 
L 218.689041 245.466603 
L 212.977823 247.140989 
L 207.657486 248.928 
L 202.013474 247.039428 
L 196.298453 245.378068 
L 190.521567 243.946576 
L 184.692058 242.747243 
L 178.819251 241.781987 
L 172.912541 241.052354 
L 166.981379 240.559509 
L 161.035253 240.304242 
L 155.083674 240.28696 
L 149.136166 240.507692 
L 143.202242 240.966085 
L 137.291395 241.661404 
L 131.413081 242.592538 
L 125.576705 243.757997 
L 119.791603 245.155917 
L 114.067031 246.78406 
L 108.412146 248.639824 
L 107.597483 248.928 
L 101.953471 247.039428 
L 96.23845 245.378068 
L 90.461564 243.946576 
L 87.36 243.278227 
L 93.166094 241.97023 
L 98.915237 240.431097 
L 104.598233 238.663291 
L 110.20599 236.66964 
L 115.729537 234.453334 
L 121.160036 232.017917 
L 126.488801 229.367286 
L 131.707307 226.505681 
L 136.807204 223.437681 
L 141.780335 220.168194 
L 146.618744 216.702449 
L 151.314689 213.045992 
L 153.91087 210.890496 
L 156.560247 216.219885 
L 159.420624 221.439063 
L 162.487425 226.539682 
L 165.755742 231.513582 
L 169.220349 236.352806 
L 172.875701 241.049611 
L 176.715952 245.596484 
L 179.736348 248.928 
L 183.71224 244.499246 
L 187.507848 239.91504 
L 191.117101 235.182718 
L 194.534225 230.30985 
L 197.753753 225.304231 
L 200.770533 220.173869 
L 203.579742 214.926972 
L 206.176883 209.571933 
L 208.557802 204.11732 
L 210.71869 198.571858 
L 212.656091 192.94442 
L 214.366904 187.244008 
L 215.848393 181.479741 
L 217.098188 175.660842 
L 218.11429 169.796618 
L 218.895072 163.896452 
L 219.439286 157.969782 
L 219.746061 152.026091 
L 219.814906 146.074886 
L 219.645712 140.125688 
L 219.238748 134.188015 
L 218.594667 128.271366 
L 217.714497 122.385205 
L 216.599649 116.538951 
L 215.251904 110.741955 
L 213.673419 105.003491 
L 212.135222 100.128 
L 210.360539 105.808852 
L 208.814449 111.556129 
L 207.499426 117.360635 
L 206.417573 123.213085 
L 205.570621 129.104117 
L 204.959924 135.024305 
L 204.586461 140.964179 
L 204.450828 146.914237 
L 204.553242 152.864959 
L 204.89354 158.806826 
L 205.471177 164.730331 
L 206.285228 170.625999 
L 207.334393 176.484398 
L 208.616992 182.296155 
L 210.130973 188.051973 
L 211.873914 193.742644 
L 213.843028 199.359064 
L 216.035163 204.892248 
L 218.446813 210.333344 
L 221.07412 215.673647 
L 223.91288 220.904614 
L 226.958553 226.017877 
L 230.206265 231.005256 
L 233.650822 235.858771 
L 236.16 239.151769 
L 232.581752 243.907578 
L 229.113624 248.928 
L 225.733365 244.029487 
L 222.159922 239.270067 
L 218.39901 234.657353 
L 214.456648 230.198725 
L 210.339142 225.901317 
L 206.053079 221.772002 
L 201.605315 217.817387 
L 197.002967 214.043798 
L 192.253397 210.457272 
L 187.364203 207.063548 
L 183.600315 204.641795 
L 180.427292 201.502807 
L 177.448205 198.1792 
L 174.673776 194.682936 
L 172.11399 191.026598 
L 169.778058 187.223344 
L 167.674388 183.286862 
L 165.810551 179.231319 
L 164.193254 175.07131 
L 162.828318 170.821808 
L 161.720656 166.498106 
L 160.874253 162.115764 
L 160.292156 157.690554 
L 159.97646 153.238402 
L 159.928301 148.775332 
L 160.147852 144.317404 
L 160.634324 139.880664 
L 161.036076 137.335045 
L 161.84732 141.724031 
L 162.393923 146.153765 
L 162.673918 150.608304 
L 162.686297 155.071618 
L 162.431015 159.527642 
L 161.908992 163.96034 
L 161.122106 168.353758 
L 160.073189 172.692087 
L 158.766015 176.959711 
L 157.20529 181.141272 
L 155.396631 185.221722 
L 153.346546 189.186374 
L 151.062413 193.020961 
L 148.552454 196.711682 
L 145.8257 200.245255 
L 142.891966 203.608962 
L 141.108053 205.468864 
L 136.249062 208.905693 
L 131.531395 212.53408 
L 126.962598 216.348221 
L 122.54998 220.342015 
L 118.300601 224.509071 
L 114.221259 228.842724 
L 110.31848 233.336041 
L 106.598507 237.981833 
L 103.067293 242.772669 
L 99.730485 247.700883 
L 98.943456 248.928 
L 95.65509 243.967332 
L 92.170981 239.142131 
L 88.496702 234.460117 
L 87.36 233.086702 
L 91.09011 228.449045 
L 94.63178 223.665933 
L 97.979343 218.745019 
L 101.127445 213.694174 
L 104.071048 208.521478 
L 106.805444 203.235207 
L 109.326259 197.843818 
L 111.629459 192.355936 
L 113.71136 186.78034 
L 115.568631 181.12595 
L 117.198301 175.401812 
L 118.597764 169.617084 
L 119.764779 163.781019 
L 120.697481 157.902954 
L 121.394377 151.992292 
L 121.854352 146.058491 
L 122.07667 140.111041 
L 122.060976 134.159459 
L 121.807294 128.213264 
L 121.316031 122.281971 
L 120.587973 116.375067 
L 119.624283 110.502003 
L 118.426505 104.672174 
L 117.322408 100.128 
L 115.942028 105.917312 
L 114.794262 111.757193 
L 113.880948 117.638302 
L 113.203547 123.551229 
L 112.763141 129.486515 
L 112.560435 135.434666 
L 112.595754 141.386164 
L 112.869042 147.33149 
L 113.37986 153.261131 
L 114.127392 159.165602 
L 115.110442 165.035456 
L 116.327438 170.861304 
L 117.776431 176.633825 
L 119.455105 182.343784 
L 121.360774 187.982047 
L 123.490389 193.539594 
L 125.840542 199.007533 
L 128.407475 204.377117 
L 131.187081 209.639756 
L 134.174913 214.787031 
L 137.366192 219.810708 
L 140.755811 224.702748 
L 144.338348 229.455328 
L 148.108071 234.060842 
L 152.058951 238.511924 
L 156.184667 242.801452 
L 160.478618 246.922564 
L 162.697957 248.928 
L 167.073879 244.894033 
L 171.284985 240.688303 
L 175.324538 236.317538 
L 179.186076 231.78873 
L 182.863421 227.109123 
L 186.350691 222.286206 
L 189.642306 217.327693 
L 192.733 212.241516 
L 195.617829 207.035814 
L 198.292178 201.718912 
L 200.751768 196.299319 
L 202.992665 190.785703 
L 205.011284 185.186885 
L 206.804395 179.511823 
L 208.36913 173.769595 
L 209.702985 167.969387 
L 210.803827 162.120478 
L 211.669895 156.232227 
L 212.299802 150.314052 
L 212.692542 144.375421 
L 212.847486 138.425835 
L 212.764385 132.474812 
L 212.443374 126.531872 
L 211.884965 120.606523 
L 211.090053 114.708244 
L 210.059907 108.846471 
L 208.796178 103.030582 
L 208.073506 100.128 
L 206.693126 105.917312 
L 205.545361 111.757193 
L 204.632047 117.638302 
L 203.954645 123.551229 
L 203.514239 129.486515 
L 203.311533 135.434666 
L 203.346852 141.386164 
L 203.62014 147.33149 
L 204.130958 153.261131 
L 204.87849 159.165602 
L 205.861541 165.035456 
L 207.078536 170.861304 
L 208.52753 176.633825 
L 210.206203 182.343784 
L 212.111872 187.982047 
L 214.241487 193.539594 
L 216.59164 199.007533 
L 219.158574 204.377117 
L 221.938179 209.639756 
L 224.926012 214.787031 
L 228.11729 219.810708 
L 231.506909 224.702748 
L 235.089446 229.455328 
L 236.16 230.801854 
L 232.52276 235.512699 
L 229.076813 240.365227 
L 225.827671 245.351675 
L 223.667087 248.928 
L 220.559232 243.852291 
L 217.250889 238.904923 
L 213.74735 234.093812 
L 210.054221 229.426652 
L 206.177409 224.910912 
L 202.123117 220.553815 
L 197.89783 216.362331 
L 193.508309 212.343167 
L 188.961575 208.502752 
L 182.756501 203.434292 
L 179.767856 200.119277 
L 176.983371 196.631017 
L 174.413067 192.982064 
L 172.066193 189.185553 
L 169.951197 185.255144 
L 168.075689 181.204985 
L 166.44642 177.049651 
L 165.069254 172.804097 
L 163.949146 168.483602 
L 163.090127 164.103715 
L 162.495291 159.6802 
L 162.166776 155.228976 
L 162.105765 150.766062 
L 162.312479 146.307521 
L 162.786172 141.869399 
L 163.544469 137.370825 
L 163.864134 141.822693 
L 163.916272 146.285719 
L 163.700694 150.74384 
L 163.218178 155.181013 
L 162.47046 159.581267 
L 161.46023 163.928766 
L 160.191125 168.207866 
L 158.667711 172.403164 
L 156.895472 176.499563 
L 154.880786 180.482321 
L 152.630902 184.337103 
L 150.153919 188.050036 
L 147.458751 191.607758 
L 144.555098 194.997465 
L 141.453409 198.206958 
L 138.164847 201.224686 
L 136.953112 202.24908 
L 139.51113 198.591504 
L 142.283868 195.093899 
L 145.261346 191.768852 
L 148.43285 188.628329 
L 151.786966 185.683635 
L 155.311621 182.945365 
L 158.994132 180.423375 
L 162.821245 178.126741 
L 166.779186 176.063729 
L 170.853712 174.241763 
L 175.030158 172.667401 
L 179.293494 171.346308 
L 183.628376 170.283239 
L 188.019204 169.48202 
L 192.450174 168.945535 
L 196.905342 168.675713 
L 198.491751 168.644257 
L 194.2004 169.871295 
L 189.843193 170.838799 
L 185.435811 171.543286 
L 180.994116 171.982221 
L 176.534093 172.154025 
L 172.071794 172.058078 
L 167.623278 171.694727 
L 163.204555 171.065279 
L 158.831528 170.171999 
L 154.519934 169.018102 
L 150.285291 167.607742 
L 146.142839 165.945993 
L 142.107486 164.038836 
L 138.193756 161.893135 
L 134.415733 159.516613 
L 130.787014 156.917821 
L 129.535622 155.942267 
L 133.640537 157.694692 
L 137.632983 159.69011 
L 141.498591 161.921341 
L 145.22345 164.380354 
L 148.794154 167.0583 
L 152.197852 169.94554 
L 155.422295 173.031684 
L 158.455878 176.305626 
L 161.287683 179.755582 
L 163.90752 183.369136 
L 166.305959 187.133284 
L 168.474369 191.034478 
L 170.404946 195.058679 
L 172.090741 199.191403 
L 173.525688 203.417778 
L 174.704623 207.722593 
L 175.061177 209.268735 
L 172.979064 205.320809 
L 171.137431 201.255134 
L 169.542907 197.086344 
L 168.201229 192.829442 
L 167.117226 188.499747 
L 166.2948 184.112842 
L 165.73691 179.684516 
L 165.445564 175.230704 
L 165.421811 170.767437 
L 165.665736 166.310777 
L 166.176461 161.876763 
L 166.952149 157.481353 
L 167.990007 153.140366 
L 169.2863 148.869425 
L 170.836363 144.683899 
L 172.634619 140.598854 
L 173.33241 139.173802 
L 172.460271 143.551095 
L 171.327222 147.868214 
L 169.93734 152.109622 
L 168.295626 156.260056 
L 166.407991 160.304577 
L 164.281226 164.22863 
L 161.922987 168.018092 
L 159.34176 171.659326 
L 156.546834 175.139227 
L 153.54827 178.445271 
L 150.356857 181.56556 
L 146.984082 184.488864 
L 143.442083 187.204663 
L 139.743608 189.703183 
L 135.901967 191.975431 
L 131.930986 194.01323 
L 130.491011 194.679683 
L 133.927244 191.831241 
L 137.528097 189.193974 
L 141.280611 186.777374 
L 145.171282 184.590139 
L 149.186107 182.64014 
L 153.310638 180.934394 
L 157.53003 179.479042 
L 161.829098 178.27932 
L 166.19237 177.339546 
L 170.604143 176.663103 
L 175.04854 176.252424 
L 179.509565 176.108989 
L 183.971163 176.233312 
L 188.417278 176.624947 
L 192.831909 177.282484 
L 197.199167 178.203557 
L 198.73714 178.593845 
L 198.73714 178.593845 
" style="fill:none;stroke:#1f77b4;stroke-linecap:square;stroke-width:1.5;"/>
   </g>
   <g id="patch_5">
    <path d="M 57.6 263.808 
L 57.6 85.248 
" style="fill:none;stroke:#000000;stroke-linecap:square;stroke-linejoin:miter;stroke-width:0.8;"/>
   </g>
   <g id="patch_6">
    <path d="M 414.72 263.808 
L 414.72 85.248 
" style="fill:none;stroke:#000000;stroke-linecap:square;stroke-linejoin:miter;stroke-width:0.8;"/>
   </g>
   <g id="patch_7">
    <path d="M 57.6 263.808 
L 414.72 263.808 
" style="fill:none;stroke:#000000;stroke-linecap:square;stroke-linejoin:miter;stroke-width:0.8;"/>
   </g>
   <g id="patch_8">
    <path d="M 57.6 85.248 
L 414.72 85.248 
" style="fill:none;stroke:#000000;stroke-linecap:square;stroke-linejoin:miter;stroke-width:0.8;"/>
   </g>
  </g>
 </g>
 <defs>
  <clipPath id="p9eca7b6ff1">
   <rect height="178.56" width="357.12" x="57.6" y="85.248"/>
  </clipPath>
 </defs>
</svg>
