<?xml version="1.0" encoding="utf-8" standalone="no"?>
<!DOCTYPE svg PUBLIC "-//W3C//DTD SVG 1.1//EN"
  "http://www.w3.org/Graphics/SVG/1.1/DTD/svg11.dtd">
<!-- Created with matplotlib (https://matplotlib.org/) -->
<svg height="345.6pt" version="1.1" viewBox="0 0 460.8 345.6" width="460.8pt" xmlns="http://www.w3.org/2000/svg" xmlns:xlink="http://www.w3.org/1999/xlink">
 <defs>
  <style type="text/css">
*{stroke-linecap:butt;stroke-linejoin:round;}
  </style>
 </defs>
 <g id="figure_1">
  <g id="patch_1">
   <path d="M 0 345.6 
L 460.8 345.6 
L 460.8 0 
L 0 0 
z
" style="fill:#ffffff;"/>
  </g>
  <g id="axes_1">
   <g id="patch_2">
    <path d="M 57.6 263.808 
L 414.72 263.808 
L 414.72 85.248 
L 57.6 85.248 
z
" style="fill:#ffffff;"/>
   </g>
   <g id="PathCollection_1">
    <defs>
     <path d="M 0 3 
C 0.795609 3 1.55874 2.683901 2.12132 2.12132 
C 2.683901 1.55874 3 0.795609 3 0 
C 3 -0.795609 2.683901 -1.55874 2.12132 -2.12132 
C 1.55874 -2.683901 0.795609 -3 0 -3 
C -0.795609 -3 -1.55874 -2.683901 -2.12132 -2.12132 
C -2.683901 -1.55874 -3 -0.795609 -3 0 
C -3 0.795609 -2.683901 1.55874 -2.12132 2.12132 
C -1.55874 2.683901 -0.795609 3 0 3 
z
" id="m1cfcc86c82" style="stroke:#000000;"/>
    </defs>
    <g clip-path="url(#p323cde5c8c)">
     <use style="stroke:#000000;" x="234.298042" xlink:href="#m1cfcc86c82" y="115.962033"/>
    </g>
   </g>
   <g id="patch_3">
    <path clip-path="url(#p323cde5c8c)" d="M 161.76 211.728 
C 171.625555 211.728 181.088371 207.808373 188.064372 200.832372 
C 195.040373 193.856371 198.96 184.393555 198.96 174.528 
C 198.96 164.662445 195.040373 155.199629 188.064372 148.223628 
C 181.088371 141.247627 171.625555 137.328 161.76 137.328 
C 151.894445 137.328 142.431629 141.247627 135.455628 148.223628 
C 128.479627 155.199629 124.56 164.662445 124.56 174.528 
C 124.56 184.393555 128.479627 193.856371 135.455628 200.832372 
C 142.431629 207.808373 151.894445 211.728 161.76 211.728 
z
" style="fill:#cc0000;fill-opacity:0.1;stroke:#cc0000;stroke-dasharray:7.4,3.2;stroke-dashoffset:0;stroke-linejoin:miter;stroke-width:2;"/>
   </g>
   <g id="patch_4">
    <path clip-path="url(#p323cde5c8c)" d="M 310.56 196.848 
C 316.479333 196.848 322.157023 194.496224 326.342623 190.310623 
C 330.528224 186.125023 332.88 180.447333 332.88 174.528 
C 332.88 168.608667 330.528224 162.930977 326.342623 158.745377 
C 322.157023 154.559776 316.479333 152.208 310.56 152.208 
C 304.640667 152.208 298.962977 154.559776 294.777377 158.745377 
C 290.591776 162.930977 288.24 168.608667 288.24 174.528 
C 288.24 180.447333 290.591776 186.125023 294.777377 190.310623 
C 298.962977 194.496224 304.640667 196.848 310.56 196.848 
z
" style="fill:#cc0000;fill-opacity:0.1;stroke:#cc0000;stroke-dasharray:7.4,3.2;stroke-dashoffset:0;stroke-linejoin:miter;stroke-width:2;"/>
   </g>
   <g id="matplotlib.axis_1">
    <g id="xtick_1">
     <g id="line2d_1">
      <defs>
       <path d="M 0 0 
L 0 3.5 
" id="mf6021c75b3" style="stroke:#000000;stroke-width:0.8;"/>
      </defs>
      <g>
       <use style="stroke:#000000;stroke-width:0.8;" x="87.36" xlink:href="#mf6021c75b3" y="263.808"/>
      </g>
     </g>
     <g id="text_1">
      <!-- 0.0 -->
      <defs>
       <path d="M 31.78125 66.40625 
Q 24.171875 66.40625 20.328125 58.90625 
Q 16.5 51.421875 16.5 36.375 
Q 16.5 21.390625 20.328125 13.890625 
Q 24.171875 6.390625 31.78125 6.390625 
Q 39.453125 6.390625 43.28125 13.890625 
Q 47.125 21.390625 47.125 36.375 
Q 47.125 51.421875 43.28125 58.90625 
Q 39.453125 66.40625 31.78125 66.40625 
z
M 31.78125 74.21875 
Q 44.046875 74.21875 50.515625 64.515625 
Q 56.984375 54.828125 56.984375 36.375 
Q 56.984375 17.96875 50.515625 8.265625 
Q 44.046875 -1.421875 31.78125 -1.421875 
Q 19.53125 -1.421875 13.0625 8.265625 
Q 6.59375 17.96875 6.59375 36.375 
Q 6.59375 54.828125 13.0625 64.515625 
Q 19.53125 74.21875 31.78125 74.21875 
z
" id="DejaVuSans-48"/>
       <path d="M 10.6875 12.40625 
L 21 12.40625 
L 21 0 
L 10.6875 0 
z
" id="DejaVuSans-46"/>
      </defs>
      <g transform="translate(79.408438 278.406437)scale(0.1 -0.1)">
       <use xlink:href="#DejaVuSans-48"/>
       <use x="63.623047" xlink:href="#DejaVuSans-46"/>
       <use x="95.410156" xlink:href="#DejaVuSans-48"/>
      </g>
     </g>
    </g>
    <g id="xtick_2">
     <g id="line2d_2">
      <g>
       <use style="stroke:#000000;stroke-width:0.8;" x="161.76" xlink:href="#mf6021c75b3" y="263.808"/>
      </g>
     </g>
     <g id="text_2">
      <!-- 0.5 -->
      <defs>
       <path d="M 10.796875 72.90625 
L 49.515625 72.90625 
L 49.515625 64.59375 
L 19.828125 64.59375 
L 19.828125 46.734375 
Q 21.96875 47.46875 24.109375 47.828125 
Q 26.265625 48.1875 28.421875 48.1875 
Q 40.625 48.1875 47.75 41.5 
Q 54.890625 34.8125 54.890625 23.390625 
Q 54.890625 11.625 47.5625 5.09375 
Q 40.234375 -1.421875 26.90625 -1.421875 
Q 22.3125 -1.421875 17.546875 -0.640625 
Q 12.796875 0.140625 7.71875 1.703125 
L 7.71875 11.625 
Q 12.109375 9.234375 16.796875 8.0625 
Q 21.484375 6.890625 26.703125 6.890625 
Q 35.15625 6.890625 40.078125 11.328125 
Q 45.015625 15.765625 45.015625 23.390625 
Q 45.015625 31 40.078125 35.4375 
Q 35.15625 39.890625 26.703125 39.890625 
Q 22.75 39.890625 18.8125 39.015625 
Q 14.890625 38.140625 10.796875 36.28125 
z
" id="DejaVuSans-53"/>
      </defs>
      <g transform="translate(153.808437 278.406437)scale(0.1 -0.1)">
       <use xlink:href="#DejaVuSans-48"/>
       <use x="63.623047" xlink:href="#DejaVuSans-46"/>
       <use x="95.410156" xlink:href="#DejaVuSans-53"/>
      </g>
     </g>
    </g>
    <g id="xtick_3">
     <g id="line2d_3">
      <g>
       <use style="stroke:#000000;stroke-width:0.8;" x="236.16" xlink:href="#mf6021c75b3" y="263.808"/>
      </g>
     </g>
     <g id="text_3">
      <!-- 1.0 -->
      <defs>
       <path d="M 12.40625 8.296875 
L 28.515625 8.296875 
L 28.515625 63.921875 
L 10.984375 60.40625 
L 10.984375 69.390625 
L 28.421875 72.90625 
L 38.28125 72.90625 
L 38.28125 8.296875 
L 54.390625 8.296875 
L 54.390625 0 
L 12.40625 0 
z
" id="DejaVuSans-49"/>
      </defs>
      <g transform="translate(228.208437 278.406437)scale(0.1 -0.1)">
       <use xlink:href="#DejaVuSans-49"/>
       <use x="63.623047" xlink:href="#DejaVuSans-46"/>
       <use x="95.410156" xlink:href="#DejaVuSans-48"/>
      </g>
     </g>
    </g>
    <g id="xtick_4">
     <g id="line2d_4">
      <g>
       <use style="stroke:#000000;stroke-width:0.8;" x="310.56" xlink:href="#mf6021c75b3" y="263.808"/>
      </g>
     </g>
     <g id="text_4">
      <!-- 1.5 -->
      <g transform="translate(302.608437 278.406437)scale(0.1 -0.1)">
       <use xlink:href="#DejaVuSans-49"/>
       <use x="63.623047" xlink:href="#DejaVuSans-46"/>
       <use x="95.410156" xlink:href="#DejaVuSans-53"/>
      </g>
     </g>
    </g>
    <g id="xtick_5">
     <g id="line2d_5">
      <g>
       <use style="stroke:#000000;stroke-width:0.8;" x="384.96" xlink:href="#mf6021c75b3" y="263.808"/>
      </g>
     </g>
     <g id="text_5">
      <!-- 2.0 -->
      <defs>
       <path d="M 19.1875 8.296875 
L 53.609375 8.296875 
L 53.609375 0 
L 7.328125 0 
L 7.328125 8.296875 
Q 12.9375 14.109375 22.625 23.890625 
Q 32.328125 33.6875 34.8125 36.53125 
Q 39.546875 41.84375 41.421875 45.53125 
Q 43.3125 49.21875 43.3125 52.78125 
Q 43.3125 58.59375 39.234375 62.25 
Q 35.15625 65.921875 28.609375 65.921875 
Q 23.96875 65.921875 18.8125 64.3125 
Q 13.671875 62.703125 7.8125 59.421875 
L 7.8125 69.390625 
Q 13.765625 71.78125 18.9375 73 
Q 24.125 74.21875 28.421875 74.21875 
Q 39.75 74.21875 46.484375 68.546875 
Q 53.21875 62.890625 53.21875 53.421875 
Q 53.21875 48.921875 51.53125 44.890625 
Q 49.859375 40.875 45.40625 35.40625 
Q 44.1875 33.984375 37.640625 27.21875 
Q 31.109375 20.453125 19.1875 8.296875 
z
" id="DejaVuSans-50"/>
      </defs>
      <g transform="translate(377.008437 278.406437)scale(0.1 -0.1)">
       <use xlink:href="#DejaVuSans-50"/>
       <use x="63.623047" xlink:href="#DejaVuSans-46"/>
       <use x="95.410156" xlink:href="#DejaVuSans-48"/>
      </g>
     </g>
    </g>
   </g>
   <g id="matplotlib.axis_2">
    <g id="ytick_1">
     <g id="line2d_6">
      <defs>
       <path d="M 0 0 
L -3.5 0 
" id="me7e5c33f3e" style="stroke:#000000;stroke-width:0.8;"/>
      </defs>
      <g>
       <use style="stroke:#000000;stroke-width:0.8;" x="57.6" xlink:href="#me7e5c33f3e" y="248.928"/>
      </g>
     </g>
     <g id="text_6">
      <!-- 0.0 -->
      <g transform="translate(34.696875 252.727219)scale(0.1 -0.1)">
       <use xlink:href="#DejaVuSans-48"/>
       <use x="63.623047" xlink:href="#DejaVuSans-46"/>
       <use x="95.410156" xlink:href="#DejaVuSans-48"/>
      </g>
     </g>
    </g>
    <g id="ytick_2">
     <g id="line2d_7">
      <g>
       <use style="stroke:#000000;stroke-width:0.8;" x="57.6" xlink:href="#me7e5c33f3e" y="219.168"/>
      </g>
     </g>
     <g id="text_7">
      <!-- 0.2 -->
      <g transform="translate(34.696875 222.967219)scale(0.1 -0.1)">
       <use xlink:href="#DejaVuSans-48"/>
       <use x="63.623047" xlink:href="#DejaVuSans-46"/>
       <use x="95.410156" xlink:href="#DejaVuSans-50"/>
      </g>
     </g>
    </g>
    <g id="ytick_3">
     <g id="line2d_8">
      <g>
       <use style="stroke:#000000;stroke-width:0.8;" x="57.6" xlink:href="#me7e5c33f3e" y="189.408"/>
      </g>
     </g>
     <g id="text_8">
      <!-- 0.4 -->
      <defs>
       <path d="M 37.796875 64.3125 
L 12.890625 25.390625 
L 37.796875 25.390625 
z
M 35.203125 72.90625 
L 47.609375 72.90625 
L 47.609375 25.390625 
L 58.015625 25.390625 
L 58.015625 17.1875 
L 47.609375 17.1875 
L 47.609375 0 
L 37.796875 0 
L 37.796875 17.1875 
L 4.890625 17.1875 
L 4.890625 26.703125 
z
" id="DejaVuSans-52"/>
      </defs>
      <g transform="translate(34.696875 193.207219)scale(0.1 -0.1)">
       <use xlink:href="#DejaVuSans-48"/>
       <use x="63.623047" xlink:href="#DejaVuSans-46"/>
       <use x="95.410156" xlink:href="#DejaVuSans-52"/>
      </g>
     </g>
    </g>
    <g id="ytick_4">
     <g id="line2d_9">
      <g>
       <use style="stroke:#000000;stroke-width:0.8;" x="57.6" xlink:href="#me7e5c33f3e" y="159.648"/>
      </g>
     </g>
     <g id="text_9">
      <!-- 0.6 -->
      <defs>
       <path d="M 33.015625 40.375 
Q 26.375 40.375 22.484375 35.828125 
Q 18.609375 31.296875 18.609375 23.390625 
Q 18.609375 15.53125 22.484375 10.953125 
Q 26.375 6.390625 33.015625 6.390625 
Q 39.65625 6.390625 43.53125 10.953125 
Q 47.40625 15.53125 47.40625 23.390625 
Q 47.40625 31.296875 43.53125 35.828125 
Q 39.65625 40.375 33.015625 40.375 
z
M 52.59375 71.296875 
L 52.59375 62.3125 
Q 48.875 64.0625 45.09375 64.984375 
Q 41.3125 65.921875 37.59375 65.921875 
Q 27.828125 65.921875 22.671875 59.328125 
Q 17.53125 52.734375 16.796875 39.40625 
Q 19.671875 43.65625 24.015625 45.921875 
Q 28.375 48.1875 33.59375 48.1875 
Q 44.578125 48.1875 50.953125 41.515625 
Q 57.328125 34.859375 57.328125 23.390625 
Q 57.328125 12.15625 50.6875 5.359375 
Q 44.046875 -1.421875 33.015625 -1.421875 
Q 20.359375 -1.421875 13.671875 8.265625 
Q 6.984375 17.96875 6.984375 36.375 
Q 6.984375 53.65625 15.1875 63.9375 
Q 23.390625 74.21875 37.203125 74.21875 
Q 40.921875 74.21875 44.703125 73.484375 
Q 48.484375 72.75 52.59375 71.296875 
z
" id="DejaVuSans-54"/>
      </defs>
      <g transform="translate(34.696875 163.447219)scale(0.1 -0.1)">
       <use xlink:href="#DejaVuSans-48"/>
       <use x="63.623047" xlink:href="#DejaVuSans-46"/>
       <use x="95.410156" xlink:href="#DejaVuSans-54"/>
      </g>
     </g>
    </g>
    <g id="ytick_5">
     <g id="line2d_10">
      <g>
       <use style="stroke:#000000;stroke-width:0.8;" x="57.6" xlink:href="#me7e5c33f3e" y="129.888"/>
      </g>
     </g>
     <g id="text_10">
      <!-- 0.8 -->
      <defs>
       <path d="M 31.78125 34.625 
Q 24.75 34.625 20.71875 30.859375 
Q 16.703125 27.09375 16.703125 20.515625 
Q 16.703125 13.921875 20.71875 10.15625 
Q 24.75 6.390625 31.78125 6.390625 
Q 38.8125 6.390625 42.859375 10.171875 
Q 46.921875 13.96875 46.921875 20.515625 
Q 46.921875 27.09375 42.890625 30.859375 
Q 38.875 34.625 31.78125 34.625 
z
M 21.921875 38.8125 
Q 15.578125 40.375 12.03125 44.71875 
Q 8.5 49.078125 8.5 55.328125 
Q 8.5 64.0625 14.71875 69.140625 
Q 20.953125 74.21875 31.78125 74.21875 
Q 42.671875 74.21875 48.875 69.140625 
Q 55.078125 64.0625 55.078125 55.328125 
Q 55.078125 49.078125 51.53125 44.71875 
Q 48 40.375 41.703125 38.8125 
Q 48.828125 37.15625 52.796875 32.3125 
Q 56.78125 27.484375 56.78125 20.515625 
Q 56.78125 9.90625 50.3125 4.234375 
Q 43.84375 -1.421875 31.78125 -1.421875 
Q 19.734375 -1.421875 13.25 4.234375 
Q 6.78125 9.90625 6.78125 20.515625 
Q 6.78125 27.484375 10.78125 32.3125 
Q 14.796875 37.15625 21.921875 38.8125 
z
M 18.3125 54.390625 
Q 18.3125 48.734375 21.84375 45.5625 
Q 25.390625 42.390625 31.78125 42.390625 
Q 38.140625 42.390625 41.71875 45.5625 
Q 45.3125 48.734375 45.3125 54.390625 
Q 45.3125 60.0625 41.71875 63.234375 
Q 38.140625 66.40625 31.78125 66.40625 
Q 25.390625 66.40625 21.84375 63.234375 
Q 18.3125 60.0625 18.3125 54.390625 
z
" id="DejaVuSans-56"/>
      </defs>
      <g transform="translate(34.696875 133.687219)scale(0.1 -0.1)">
       <use xlink:href="#DejaVuSans-48"/>
       <use x="63.623047" xlink:href="#DejaVuSans-46"/>
       <use x="95.410156" xlink:href="#DejaVuSans-56"/>
      </g>
     </g>
    </g>
    <g id="ytick_6">
     <g id="line2d_11">
      <g>
       <use style="stroke:#000000;stroke-width:0.8;" x="57.6" xlink:href="#me7e5c33f3e" y="100.128"/>
      </g>
     </g>
     <g id="text_11">
      <!-- 1.0 -->
      <g transform="translate(34.696875 103.927219)scale(0.1 -0.1)">
       <use xlink:href="#DejaVuSans-49"/>
       <use x="63.623047" xlink:href="#DejaVuSans-46"/>
       <use x="95.410156" xlink:href="#DejaVuSans-48"/>
      </g>
     </g>
    </g>
   </g>
   <g id="line2d_12">
    <path clip-path="url(#p323cde5c8c)" d="M 236.16 248.928 
L 236.16 100.128 
" style="fill:none;stroke:#cc0000;stroke-dasharray:7.4,3.2;stroke-dashoffset:0;stroke-width:2;"/>
   </g>
   <g id="line2d_13">
    <path clip-path="url(#p323cde5c8c)" d="M 87.36 248.928 
L 384.96 248.928 
" style="fill:none;stroke:#009900;stroke-linecap:square;stroke-width:2;"/>
   </g>
   <g id="line2d_14">
    <path clip-path="url(#p323cde5c8c)" d="M 384.96 248.928 
L 384.96 100.128 
" style="fill:none;stroke:#009900;stroke-linecap:square;stroke-width:2;"/>
   </g>
   <g id="line2d_15">
    <path clip-path="url(#p323cde5c8c)" d="M 384.96 100.128 
L 87.36 100.128 
" style="fill:none;stroke:#009900;stroke-linecap:square;stroke-width:2;"/>
   </g>
   <g id="line2d_16">
    <path clip-path="url(#p323cde5c8c)" d="M 87.36 100.128 
L 87.36 248.928 
" style="fill:none;stroke:#009900;stroke-linecap:square;stroke-width:2;"/>
   </g>
   <g id="line2d_17">
    <path clip-path="url(#p323cde5c8c)" d="M 234.298042 115.962033 
L 229.240172 119.098834 
L 224.311786 122.435388 
L 219.520768 125.966356 
L 214.874784 129.686089 
L 210.381266 133.588636 
L 206.047402 137.667754 
L 201.880127 141.916918 
L 197.886106 146.32933 
L 194.071729 150.89793 
L 192.250538 153.216803 
L 188.931971 156.201503 
L 185.440401 158.981837 
L 181.788394 161.5478 
L 177.989093 163.890156 
L 174.056172 166.000476 
L 170.003785 167.871165 
L 165.846516 169.49549 
L 161.599327 170.867606 
L 157.277503 171.982574 
L 152.896597 172.836382 
L 148.472378 173.425957 
L 144.020766 173.749177 
L 139.557783 173.804879 
L 135.099491 173.592863 
L 130.661935 173.113891 
L 126.261085 172.369687 
L 124.644143 172.027368 
L 129.100677 171.781157 
L 133.563956 171.802622 
L 138.017917 172.091683 
L 142.446529 172.647302 
L 146.833855 173.467479 
L 151.164105 174.549261 
L 155.421695 175.888756 
L 159.591302 177.481142 
L 163.65792 179.32069 
L 167.606914 181.400778 
L 171.424071 183.71392 
L 175.095655 186.251792 
L 178.60845 189.00526 
L 181.949815 191.964415 
L 185.107725 195.118607 
L 188.070815 198.456483 
L 189.11633 199.736554 
L 185.489172 197.135585 
L 182.024504 194.321798 
L 178.734798 191.305318 
L 175.631891 188.097003 
L 172.726951 184.708398 
L 170.030433 181.151699 
L 167.552041 177.439706 
L 165.300695 173.585778 
L 163.284497 169.603786 
L 161.510703 165.508059 
L 159.985697 161.313339 
L 158.714968 157.034722 
L 157.703088 152.687606 
L 156.9537 148.287636 
L 156.4695 143.850647 
L 156.252231 139.392608 
L 156.239686 137.739875 
L 157.436254 142.039822 
L 158.372828 146.403782 
L 159.046036 150.81605 
L 159.453455 155.260747 
L 159.593619 159.721876 
L 159.466023 164.183382 
L 159.071128 168.629209 
L 158.410353 173.043356 
L 157.486078 177.409938 
L 156.301628 181.713238 
L 154.861266 185.937771 
L 153.170176 190.068332 
L 151.234445 194.090056 
L 149.061037 197.988468 
L 146.657777 201.749539 
L 144.033312 205.359734 
L 143.007348 206.655528 
L 144.769596 202.554821 
L 146.774568 198.567164 
L 149.015048 194.706909 
L 151.482972 190.987948 
L 154.16946 187.423667 
L 157.064841 184.026891 
L 160.158697 180.809847 
L 163.439893 177.784111 
L 166.896619 174.960574 
L 170.516436 172.349397 
L 174.286315 169.959978 
L 178.19269 167.800915 
L 182.221502 165.879979 
L 186.358251 164.204083 
L 190.58805 162.779259 
L 194.895675 161.610635 
L 196.507234 161.24381 
L 192.564116 163.335015 
L 188.502697 165.186012 
L 184.337592 166.790139 
L 180.083793 168.141623 
L 175.756608 169.2356 
L 171.37161 170.068134 
L 166.94458 170.636227 
L 162.491452 170.937836 
L 158.028252 170.971874 
L 153.571041 170.73822 
L 149.135862 170.237714 
L 144.738677 169.472158 
L 140.395309 168.444306 
L 136.121392 167.157858 
L 131.932306 165.617444 
L 127.843127 163.828608 
L 126.357397 163.104528 
L 130.74069 163.945991 
L 135.065638 165.048779 
L 139.316676 166.408924 
L 143.478505 168.021531 
L 147.536146 169.880795 
L 151.474997 171.980027 
L 155.280882 174.31167 
L 158.940103 176.867334 
L 162.439492 179.637821 
L 165.766455 182.613159 
L 168.909017 185.782642 
L 171.85587 189.134861 
L 174.596407 192.657754 
L 177.120767 196.338641 
L 179.419863 200.164275 
L 181.485421 204.120888 
L 182.189444 205.616226 
L 179.300987 202.213561 
L 176.621764 198.643815 
L 174.161419 194.919836 
L 171.928806 191.055026 
L 169.93196 187.063294 
L 168.178067 182.959006 
L 166.67344 178.756933 
L 165.423494 174.472198 
L 164.432727 170.120222 
L 163.704704 165.716666 
L 163.242047 161.27738 
L 163.046419 156.818338 
L 163.118525 152.35559 
L 163.458106 147.905197 
L 164.063939 143.483174 
L 164.933845 139.105437 
L 165.32232 137.498959 
L 165.440829 141.960716 
L 165.291579 146.42155 
L 164.875109 150.865408 
L 164.192916 155.276296 
L 163.247457 159.638339 
L 162.042133 163.93584 
L 160.581283 168.153332 
L 158.870163 172.275636 
L 156.914933 176.287916 
L 154.722629 180.175733 
L 152.301141 183.925095 
L 149.659183 187.522508 
L 146.806265 190.955025 
L 143.752652 194.210293 
L 140.509336 197.276596 
L 137.087988 200.142899 
L 135.778506 201.151335 
L 138.482262 197.600135 
L 141.394098 194.217454 
L 144.503532 191.015465 
L 147.799376 188.005692 
L 151.269767 185.198966 
L 154.902215 182.60539 
L 158.683648 180.234297 
L 162.600457 178.094221 
L 166.638546 176.192863 
L 170.78338 174.537067 
L 175.020045 173.132791 
L 179.333292 171.985089 
L 183.707598 171.098093 
L 188.127221 170.474993 
L 192.576254 170.118033 
L 197.038687 170.028497 
L 198.691102 170.063278 
L 194.358657 171.136239 
L 189.96967 171.947478 
L 185.539935 172.494076 
L 181.085396 172.774066 
L 176.622082 172.78644 
L 172.166059 172.531154 
L 167.733361 172.009126 
L 163.339943 171.222235 
L 159.001616 170.173313 
L 154.733993 168.866136 
L 150.552434 167.305406 
L 146.471986 165.496742 
L 142.507336 163.446653 
L 138.672751 161.162516 
L 134.982033 158.652553 
L 131.448463 155.925795 
L 130.182576 154.863151 
L 134.231145 156.742089 
L 138.15976 158.860415 
L 141.954282 161.210504 
L 145.601055 163.783899 
L 149.086955 166.571339 
L 152.399437 169.562791 
L 155.526578 172.74749 
L 158.457124 176.113974 
L 161.18053 179.650128 
L 163.686992 183.343224 
L 165.967492 187.179973 
L 168.013821 191.146565 
L 169.818615 195.228726 
L 171.375379 199.411764 
L 172.67851 203.680624 
L 173.723317 208.019944 
L 174.04385 209.641346 
L 172.066403 205.639968 
L 170.332452 201.527215 
L 168.84824 197.317889 
L 167.619106 193.027137 
L 166.649474 188.670403 
L 165.942835 184.263365 
L 165.501731 179.821885 
L 165.327749 175.361947 
L 165.421516 170.899602 
L 165.782695 166.450909 
L 166.409985 162.031879 
L 167.301129 157.658416 
L 168.45292 153.346259 
L 169.861213 149.110928 
L 171.520939 144.967665 
L 173.426125 140.931381 
L 174.192447 139.466992 
L 177.678034 134.642859 
L 180.96792 129.683198 
L 184.05684 124.595944 
L 186.939853 119.389236 
L 189.612348 114.071402 
L 192.070048 108.650951 
L 194.309022 103.136554 
L 195.423989 100.128 
L 197.543545 105.68939 
L 199.883802 111.161573 
L 202.441016 116.535792 
L 205.211095 121.803452 
L 208.18961 126.956125 
L 211.371793 131.985567 
L 214.752556 136.883733 
L 218.326488 141.642786 
L 222.087873 146.255113 
L 226.030693 150.713336 
L 230.148641 155.010322 
L 234.435128 159.139196 
L 236.16 160.710465 
L 231.809299 164.77162 
L 227.624481 169.003508 
L 223.61224 173.399359 
L 219.778997 177.952141 
L 216.130882 182.65457 
L 212.673732 187.499123 
L 209.413078 192.478051 
L 206.354136 197.583387 
L 203.5018 202.806964 
L 200.860633 208.140426 
L 198.43486 213.57524 
L 196.228363 219.102713 
L 194.24467 224.714 
L 192.486955 230.400125 
L 190.958031 236.151992 
L 189.660343 241.960398 
L 188.595967 247.816052 
L 188.421056 248.928 
L 187.401006 243.064462 
L 186.147294 237.246405 
L 184.661924 231.483137 
L 182.947273 225.783878 
L 181.006084 220.157746 
L 178.841462 214.61374 
L 176.279404 208.777481 
L 174.590666 204.645957 
L 173.15271 200.420605 
L 171.97071 196.116631 
L 171.048921 191.749524 
L 170.39066 187.335001 
L 169.998296 182.88895 
L 169.873241 178.427372 
L 170.015945 173.966323 
L 170.425895 169.521859 
L 171.101615 165.109975 
L 172.040673 160.746549 
L 173.23969 156.447285 
L 174.694351 152.227654 
L 176.399419 148.102844 
L 178.34876 144.087699 
L 179.560939 141.863546 
L 177.374604 145.754723 
L 174.958872 149.507796 
L 172.322437 153.109258 
L 169.474789 156.546149 
L 166.426175 159.806098 
L 163.187567 162.877375 
L 159.770622 165.748925 
L 156.187635 168.410414 
L 152.451502 170.852263 
L 148.575669 173.065685 
L 144.574084 175.042714 
L 140.46115 176.776234 
L 136.251668 178.260006 
L 131.960788 179.488691 
L 127.603953 180.457867 
L 125.10824 180.891057 
L 129.515304 180.184583 
L 133.956801 179.743645 
L 138.416745 179.56983 
L 142.879087 179.663765 
L 147.327767 180.02511 
L 151.746773 180.652565 
L 156.120203 181.543873 
L 160.432317 182.695825 
L 164.667595 184.104277 
L 168.810796 185.764157 
L 172.847008 187.669494 
L 176.761706 189.81343 
L 180.5408 192.188249 
L 184.170691 194.785404 
L 187.638314 197.595548 
L 189.529116 199.281104 
L 186.236039 196.268305 
L 183.129546 193.063462 
L 180.220819 189.678107 
L 177.520325 186.124426 
L 175.037784 182.415207 
L 172.78213 178.563799 
L 170.76148 174.584063 
L 168.983107 170.490323 
L 167.453412 166.297311 
L 166.177899 162.020117 
L 165.161159 157.674136 
L 164.406851 153.275006 
L 163.91769 148.838562 
L 163.695436 144.380768 
L 163.740889 139.91767 
L 163.885718 137.388785 
L 163.573021 141.841148 
L 162.993905 146.266749 
L 162.150454 150.64966 
L 161.045704 154.974107 
L 159.68363 159.224528 
L 158.069136 163.385624 
L 156.20803 167.442422 
L 154.107012 171.38032 
L 151.773642 175.185146 
L 149.216319 178.843208 
L 146.444245 182.34134 
L 143.467398 185.666952 
L 140.29649 188.808076 
L 136.942933 191.753408 
L 133.418798 194.492347 
L 131.347925 195.951017 
L 135.029787 193.428081 
L 138.856309 191.130463 
L 142.81372 189.066434 
L 146.887778 187.243421 
L 151.063819 185.667986 
L 155.326815 184.345797 
L 159.661424 183.281614 
L 164.052045 182.479267 
L 168.482878 181.941642 
L 172.937976 181.670676 
L 177.401305 181.667342 
L 181.856802 181.931654 
L 186.288433 182.46266 
L 190.680248 183.258448 
L 195.016442 184.316155 
L 197.446381 185.031439 
L 193.181326 183.715906 
L 189.002831 182.14699 
L 184.925933 180.330339 
L 180.965305 178.272489 
L 177.135201 175.980847 
L 173.449405 173.463661 
L 169.921182 170.729989 
L 166.56323 167.78967 
L 163.387634 164.653285 
L 160.405823 161.332123 
L 157.628527 157.838136 
L 155.065742 154.183898 
L 152.726692 150.382562 
L 150.619794 146.447806 
L 148.752631 142.393793 
L 147.8023 140.045793 
L 149.423287 144.204365 
L 150.791993 148.452654 
L 151.903492 152.775372 
L 152.753783 157.156961 
L 153.339806 161.581652 
L 153.659453 166.033522 
L 153.711573 170.496548 
L 153.495977 174.954669 
L 153.013443 179.391839 
L 152.265707 183.79209 
L 151.25546 188.139586 
L 149.986337 192.41868 
L 148.462906 196.613972 
L 146.690651 200.710364 
L 144.675948 204.693113 
L 143.427579 206.897157 
L 145.677219 203.042234 
L 148.153968 199.329144 
L 150.848912 195.771252 
L 153.752351 192.381361 
L 156.853837 189.171673 
L 160.142209 186.153737 
L 163.60563 183.338416 
L 167.231637 180.735842 
L 171.00718 178.355381 
L 174.918671 176.2056 
L 178.952033 174.294237 
L 183.09275 172.628169 
L 187.32592 171.213393 
L 191.636308 170.055001 
L 196.008401 169.157162 
L 198.51086 168.764819 
L 194.092839 169.399171 
L 189.644729 169.767459 
L 185.182539 169.868359 
L 180.722328 169.701506 
L 176.280149 169.267501 
L 171.871988 168.567906 
L 167.513709 167.605239 
L 163.220999 166.382965 
L 159.009305 164.905482 
L 154.893786 163.178107 
L 150.889253 161.207058 
L 147.010118 158.999428 
L 143.270342 156.563162 
L 139.683384 153.907028 
L 136.262153 151.040585 
L 134.399151 149.324351 
L 137.642548 152.390569 
L 140.696247 155.645756 
L 143.549256 159.078198 
L 146.191309 162.675541 
L 148.612896 166.424839 
L 150.805303 170.312598 
L 152.760639 174.324826 
L 154.471867 178.447085 
L 155.932828 182.664538 
L 157.138266 186.962007 
L 158.08384 191.324026 
L 158.76615 195.734896 
L 159.182738 200.178742 
L 159.332105 204.639573 
L 159.213714 209.101333 
L 159.027573 211.627513 
L 159.412996 207.180855 
L 160.064366 202.76531 
L 160.979338 198.396769 
L 162.154618 194.090955 
L 163.585977 189.863364 
L 165.268264 185.72921 
L 167.195424 181.703372 
L 169.360521 177.800338 
L 171.755764 174.034156 
L 174.372532 170.418379 
L 177.201408 166.96602 
L 180.232211 163.689505 
L 183.454033 160.600625 
L 186.855279 157.710496 
L 190.423708 155.02952 
L 195.018401 151.990888 
L 199.91959 148.614512 
L 204.681841 145.04484 
L 209.297533 141.287585 
L 213.759283 137.348757 
L 218.059953 133.234657 
L 222.192663 128.951868 
L 226.150801 124.507239 
L 229.928036 119.907882 
L 233.518324 115.161156 
L 236.16 111.398488 
L 232.718066 106.543112 
L 229.084721 101.829261 
L 227.697559 100.128 
L 223.995073 104.78774 
L 220.481888 109.591813 
L 217.163625 114.532532 
L 214.045592 119.601995 
L 211.132778 124.792091 
L 208.429843 130.094517 
L 205.94111 135.50079 
L 203.670561 141.002261 
L 201.621828 146.59013 
L 199.798189 152.255456 
L 198.202562 157.989177 
L 197.056214 162.779925 
L 201.646877 166.56772 
L 206.38534 170.168908 
L 211.264021 173.577727 
L 216.275116 176.788725 
L 221.410609 179.796763 
L 226.662283 182.597031 
L 232.021737 185.185048 
L 236.16 187.006694 
L 230.724389 189.430681 
L 225.39006 192.070096 
L 220.165546 194.920716 
L 215.059205 197.977981 
L 210.079207 201.236999 
L 205.233519 204.692558 
L 200.529892 208.339128 
L 195.975851 212.170876 
L 191.578682 216.181672 
L 187.345419 220.3651 
L 183.282835 224.714467 
L 179.397429 229.222815 
L 175.695417 233.882931 
L 172.182721 238.687361 
L 168.864961 243.628418 
L 165.612668 248.928 
L 162.504233 243.852647 
L 159.195324 238.905657 
L 155.691235 234.094946 
L 151.997572 229.428209 
L 148.120244 224.912912 
L 144.065454 220.556278 
L 139.839688 216.365278 
L 135.449707 212.346616 
L 130.902534 208.50672 
L 126.205443 204.851735 
L 121.365949 201.387507 
L 116.391794 198.119577 
L 111.290935 195.053175 
L 106.071533 192.193206 
L 100.741938 189.544245 
L 95.310676 187.110529 
L 89.786435 184.895953 
L 87.36 184.003135 
L 92.921885 181.884876 
L 98.394613 179.545896 
L 103.769429 176.989935 
L 109.037734 174.221084 
L 114.191101 171.243772 
L 119.221286 168.062761 
L 124.12024 164.683142 
L 126.384593 163.020587 
L 130.80783 162.423685 
L 135.2589 162.093092 
L 139.721785 162.029998 
L 144.180422 162.23463 
L 148.618765 162.706252 
L 153.020841 163.443166 
L 157.370808 164.44272 
L 161.65301 165.701317 
L 165.852036 167.214427 
L 169.952773 168.976604 
L 173.940465 170.981507 
L 177.800758 173.221921 
L 181.519761 175.689781 
L 185.084089 178.376207 
L 188.480914 181.271531 
L 191.698012 184.365331 
L 194.723804 187.646475 
L 195.975638 189.126978 
L 191.516895 189.3293 
L 187.054044 189.263894 
L 182.603145 188.930995 
L 178.180218 188.331802 
L 173.80118 187.46847 
L 169.48179 186.344107 
L 165.237594 184.96276 
L 161.083867 183.329399 
L 157.035557 181.449904 
L 153.107234 179.331037 
L 149.313035 176.980426 
L 145.666616 174.406528 
L 142.1811 171.618609 
L 138.86903 168.626701 
L 135.742328 165.441571 
L 132.812245 162.074684 
L 130.089326 158.538155 
L 128.973706 156.952479 
L 133.432825 157.14633 
L 137.872296 157.60722 
L 142.276141 158.333488 
L 146.628512 159.322522 
L 150.913744 160.570761 
L 155.116416 162.073715 
L 159.221402 163.825972 
L 163.213929 165.821228 
L 167.079628 168.052302 
L 170.804587 170.511163 
L 174.3754 173.188964 
L 177.779215 176.076066 
L 181.003784 179.162079 
L 184.0375 182.435897 
L 186.869446 185.885738 
L 189.489429 189.499185 
L 191.888021 193.263236 
L 192.858637 194.941593 
L 188.434274 194.353095 
L 184.053161 193.500353 
L 179.731066 192.386437 
L 175.483542 191.015355 
L 171.325878 189.392042 
L 167.273036 187.52234 
L 163.339601 185.412978 
L 159.53973 183.071547 
L 155.887099 180.506473 
L 152.394852 177.726989 
L 149.075558 174.743097 
L 145.941164 171.565537 
L 143.002949 168.205744 
L 140.271488 164.675809 
L 137.756611 160.988437 
L 135.467369 157.156898 
L 133.412001 153.194982 
L 132.594036 151.437168 
L 132.809049 145.48945 
L 132.786046 139.537891 
L 132.525062 133.592013 
L 132.026515 127.661327 
L 131.291203 121.755322 
L 130.320302 115.883446 
L 129.115364 110.055092 
L 127.678319 104.279585 
L 126.491817 100.128 
L 124.887803 105.85938 
L 123.514267 111.65032 
L 122.373405 117.491554 
L 121.467043 123.373738 
L 120.79663 129.287461 
L 120.36324 135.223264 
L 120.167564 141.17165 
L 120.209918 147.123102 
L 120.490232 153.068101 
L 121.008059 158.997134 
L 121.762569 164.900717 
L 122.752556 170.769406 
L 123.976437 176.593811 
L 125.473716 183.25704 
L 126.418852 189.133119 
L 127.598212 194.966702 
L 129.009909 200.748457 
L 130.651687 206.469134 
L 132.520917 212.119582 
L 134.614609 217.69076 
L 136.929414 223.173758 
L 139.46163 228.559801 
L 142.207204 233.840275 
L 145.161744 239.006731 
L 148.320525 244.050905 
L 151.652309 248.928 
L 155.008787 244.013161 
L 158.166038 238.96803 
L 161.119012 233.800679 
L 163.862985 228.519373 
L 166.393568 223.132562 
L 168.706711 217.648863 
L 170.798715 212.07705 
L 171.355697 210.469099 
L 175.902901 214.308958 
L 180.600021 217.963906 
L 185.439543 221.428095 
L 190.413724 224.695985 
L 195.514608 227.762346 
L 200.734032 230.622274 
L 206.063649 233.271192 
L 211.494931 235.704864 
L 217.019189 237.919396 
L 222.627586 239.911245 
L 228.31115 241.677225 
L 234.060787 243.21451 
L 236.16 243.71491 
L 230.388672 245.16865 
L 224.680095 246.852018 
L 218.587241 248.928 
L 212.956807 246.999322 
L 207.253751 245.297344 
L 201.487196 243.824789 
L 195.666366 242.584013 
L 189.800575 241.577 
L 183.899206 240.805362 
L 177.9717 240.270333 
L 172.02754 239.972768 
L 166.076236 239.913145 
L 160.127307 240.091558 
L 154.190272 240.507723 
L 148.274628 241.160972 
L 142.389839 242.050262 
L 136.545319 243.174169 
L 130.750418 244.530895 
L 125.014407 246.11827 
L 119.346463 247.933755 
L 116.535773 248.928 
L 110.905339 246.999322 
L 105.202283 245.297344 
L 99.435727 243.824789 
L 93.614898 242.584013 
L 87.36 241.518711 
L 93.228433 240.527212 
L 99.052523 239.301831 
L 104.822952 237.844529 
L 110.530489 236.157636 
L 116.166002 234.243853 
L 121.720477 232.10624 
L 127.185028 229.748217 
L 132.550911 227.173556 
L 137.809543 224.386377 
L 142.952512 221.391138 
L 147.971589 218.192631 
L 152.858745 214.795973 
L 157.286214 211.458005 
L 161.051851 216.066862 
L 164.99878 220.521447 
L 169.120688 224.814635 
L 173.41098 228.939555 
L 177.862794 232.889611 
L 182.469006 236.658481 
L 187.222249 240.240138 
L 192.114918 243.62885 
L 197.139185 246.819198 
L 200.72374 248.928 
L 205.835204 245.87931 
L 210.820665 242.628654 
L 215.672146 239.181233 
L 220.381886 235.542563 
L 224.942352 231.718463 
L 229.346246 227.715052 
L 233.586524 223.538735 
L 236.16 220.833543 
L 232.025843 216.55215 
L 227.723782 212.439505 
L 223.260701 208.502185 
L 218.643738 204.746491 
L 213.880281 201.17843 
L 208.97795 197.80371 
L 203.944588 194.627731 
L 198.788247 191.655573 
L 187.836179 185.576375 
L 184.160445 183.044518 
L 180.643146 180.296806 
L 177.29694 177.343126 
L 174.13387 174.194109 
L 171.165319 170.861089 
L 168.401972 167.35606 
L 165.853772 163.691636 
L 163.529892 159.881007 
L 161.438693 155.937885 
L 159.587703 151.876463 
L 157.983583 147.711355 
L 156.632107 143.457554 
L 155.538137 139.130367 
L 154.580077 135.004033 
L 153.014515 129.262031 
L 151.220587 123.587226 
L 149.201162 117.988699 
L 146.959471 112.475406 
L 144.4991 107.056167 
L 141.823986 101.739651 
L 140.959528 100.128 
L 138.219274 105.411236 
L 135.692484 110.799827 
L 133.383201 116.285153 
L 131.29512 121.858437 
L 129.431582 127.510764 
L 127.795567 133.233092 
L 126.389692 139.016266 
L 125.216207 144.851034 
L 124.27699 150.728061 
L 123.573542 156.637946 
L 123.106989 162.571234 
L 122.878078 168.518434 
L 122.887174 174.47003 
L 123.134264 180.416502 
L 123.618951 186.348336 
L 124.34046 192.256043 
L 125.297638 198.130172 
L 126.488953 203.961326 
L 127.912498 209.740175 
L 129.565998 215.457475 
L 131.446805 221.10408 
L 133.551912 226.670955 
L 135.877951 232.149196 
L 138.421201 237.530038 
L 141.177593 242.804874 
L 144.142717 247.965263 
L 144.726784 248.928 
L 147.730874 243.790197 
L 150.527104 238.536372 
L 153.111 233.17493 
L 155.478429 227.714448 
L 157.625604 222.163662 
L 159.549088 216.531452 
L 160.996439 211.720163 
L 162.493525 217.480398 
L 164.219762 223.176159 
L 166.172387 228.798332 
L 168.348277 234.337925 
L 170.743952 239.786073 
L 173.355578 245.134063 
L 175.372955 248.928 
L 178.137912 243.65765 
L 180.6899 238.280946 
L 183.024835 232.806491 
L 185.138983 227.243042 
L 187.028961 221.599501 
L 188.691745 215.884894 
L 190.124677 210.108365 
L 191.325463 204.279155 
L 192.292182 198.406588 
L 192.725861 195.142448 
L 197.839357 192.097167 
L 202.826984 188.849836 
L 207.680763 185.405651 
L 212.392929 181.770122 
L 216.955943 177.949064 
L 221.362505 173.948591 
L 225.605567 169.775102 
L 229.67834 165.435274 
L 233.574308 160.936051 
L 236.16 157.737529 
L 232.38987 153.132347 
L 228.438598 148.681613 
L 224.312505 144.392448 
L 220.018191 140.271714 
L 215.562527 136.326003 
L 210.952641 132.561627 
L 206.195907 128.984608 
L 201.299935 125.600669 
L 196.272559 122.415223 
L 191.121819 119.433367 
L 185.855958 116.659871 
L 180.483398 114.099172 
L 175.012735 111.755366 
L 169.45272 109.632203 
L 163.81225 107.733079 
L 158.100346 106.061034 
L 152.326147 104.618741 
L 146.498891 103.408508 
L 140.627899 102.432271 
L 134.722565 101.691592 
L 128.792334 101.187656 
L 122.846696 100.921269 
L 116.89516 100.892857 
L 110.947249 101.102466 
L 105.012478 101.54976 
L 99.100341 102.234024 
L 93.220297 103.154163 
L 87.36 104.313462 
L 93.198373 105.468878 
L 99.07828 106.389897 
L 104.990314 107.075045 
L 110.925018 107.523228 
L 116.872898 107.733727 
L 122.824437 107.706205 
L 128.770116 107.440708 
L 134.700421 106.937659 
L 140.605866 106.197864 
L 146.477004 105.222506 
L 152.304441 104.013145 
L 158.078856 102.571716 
L 163.79101 100.900525 
L 166.177574 100.128 
L 171.860744 101.895246 
L 177.610039 103.433812 
L 183.416262 104.741237 
L 189.270123 105.81543 
L 195.162258 106.654671 
L 201.083241 107.257618 
L 207.023599 107.623307 
L 212.973829 107.751152 
L 218.924412 107.640949 
L 224.865828 107.292875 
L 230.788572 106.707486 
L 240.60785 105.58951 
L 248.006698 104.809921 
L 255.383747 103.845623 
L 262.734385 102.697219 
L 270.05402 101.365428 
L 276.071816 100.128 
L 283.362399 101.610607 
L 290.687764 102.910506 
L 298.043335 104.026883 
L 305.424514 104.959042 
L 312.826687 105.706399 
L 320.24523 106.268487 
L 327.675505 106.644955 
L 335.112869 106.835568 
L 342.552674 106.840207 
L 349.99027 106.658869 
L 357.421009 106.291667 
L 364.840246 105.73883 
L 372.243346 105.000705 
L 379.625682 104.077752 
L 384.96 103.293713 
L 377.595597 102.237171 
L 370.207084 101.36505 
L 362.799079 100.677896 
L 354.477007 100.128 
L 347.052655 100.607297 
L 339.642605 101.272033 
L 332.251487 102.121793 
L 324.883921 103.156047 
L 317.54451 104.374148 
L 310.237842 105.775334 
L 302.968484 107.358729 
L 295.740977 109.123345 
L 288.55984 111.068079 
L 281.429561 113.191714 
L 274.354594 115.492925 
L 267.339363 117.970272 
L 260.388251 120.622207 
L 253.505603 123.447073 
L 246.69572 126.443105 
L 239.962858 129.60843 
L 236.16 131.488268 
L 242.84706 134.749242 
L 249.613545 137.842038 
L 256.455229 140.764723 
L 263.367833 143.51547 
L 270.34704 146.092561 
L 277.388486 148.494384 
L 284.487771 150.719439 
L 291.640458 152.766335 
L 299.933306 154.900067 
L 302.332892 147.857858 
L 304.555692 140.757867 
L 306.600316 133.60453 
L 308.465486 126.402318 
L 310.150037 119.155732 
L 311.652916 111.869301 
L 312.973183 104.547579 
L 313.679092 100.128 
L 314.889102 107.468749 
L 316.282233 114.776957 
L 317.857615 122.048056 
L 319.614264 129.277503 
L 321.551081 136.460779 
L 323.666855 143.593396 
L 325.960266 150.670894 
L 328.429879 157.688852 
L 331.074151 164.642882 
L 333.891429 171.52864 
L 336.879953 178.341822 
L 340.037855 185.078169 
L 343.363161 191.733472 
L 346.853793 198.303571 
L 350.50757 204.78436 
L 354.322208 211.171789 
L 358.295324 217.461867 
L 362.424433 223.650661 
L 366.706955 229.734305 
L 371.140215 235.708995 
L 375.721441 241.570998 
L 380.44777 247.316651 
L 381.817207 248.928 
L 384.96 245.195023 
L 380.144002 239.524319 
L 375.187757 233.975775 
L 370.094361 228.552857 
L 364.866997 223.258956 
L 359.508934 218.09738 
L 354.023519 213.071354 
L 348.41418 208.184019 
L 342.684423 203.438431 
L 336.83783 198.837555 
L 330.878054 194.384266 
L 324.719729 189.818543 
L 320.335009 185.79414 
L 316.11473 181.597615 
L 312.065643 177.23568 
L 308.194226 172.715314 
L 304.506672 168.043748 
L 301.00888 163.228457 
L 297.706446 158.277142 
L 296.84805 156.916503 
L 300.886028 161.288724 
L 304.745933 165.818924 
L 308.421591 170.499855 
L 311.907122 175.324029 
L 315.196949 180.283729 
L 318.28581 185.371019 
L 321.168763 190.577761 
L 322.585764 193.331282 
L 318.96911 188.604613 
L 315.544366 183.737097 
L 312.31701 178.736522 
L 309.292205 173.610887 
L 306.47479 168.368392 
L 303.869273 163.017423 
L 301.479822 157.566543 
L 300.323342 154.693857 
L 303.48772 159.734521 
L 306.447993 164.897695 
L 309.199426 170.175118 
L 311.737618 175.558348 
L 314.058508 181.038772 
L 316.158382 186.607624 
L 318.033883 192.255993 
L 318.919943 195.223259 
L 316.234924 189.911738 
L 313.764457 184.497094 
L 311.512494 178.987989 
L 309.482638 173.393235 
L 307.678135 167.721785 
L 306.101874 161.98271 
L 304.756376 156.185192 
L 304.148317 153.148741 
L 306.330999 158.685661 
L 308.290518 164.305435 
L 310.023738 169.999075 
L 311.527886 175.75747 
L 312.800558 181.571409 
L 313.839715 187.431591 
L 314.643697 193.328641 
L 314.968549 196.40829 
L 314.991279 203.848062 
L 315.199976 211.28494 
L 315.594511 218.714278 
L 316.174636 226.131432 
L 316.93999 233.531766 
L 317.890094 240.910656 
L 319.136156 248.928 
L 320.287062 241.577753 
L 321.253871 234.201033 
L 322.03598 226.80245 
L 322.632898 219.386629 
L 323.044254 211.958204 
L 323.26979 204.521817 
L 323.309365 197.082116 
L 323.249724 192.889735 
L 330.185749 195.580883 
L 337.186877 198.097809 
L 344.248735 200.438938 
L 351.366908 202.602807 
L 358.536948 204.588064 
L 365.754373 206.393469 
L 373.014674 208.017893 
L 380.313312 209.46032 
L 384.96 210.280398 
L 377.63941 211.606927 
L 370.354267 213.116037 
L 363.109125 214.806784 
L 355.908511 216.678113 
L 348.756925 218.728854 
L 341.658837 220.957726 
L 334.618683 223.363334 
L 327.640863 225.944176 
L 320.729738 228.698639 
L 313.889627 231.625002 
L 307.124805 234.721435 
L 300.439499 237.986003 
L 293.837889 241.416667 
L 287.324098 245.011281 
L 280.635992 248.928 
L 274.21802 245.164976 
L 267.707987 241.563561 
L 261.109962 238.126005 
L 254.42807 234.854457 
L 247.666485 231.750961 
L 240.829434 228.817456 
L 236.16 226.928877 
L 231.732003 222.952142 
L 227.14852 219.15566 
L 222.416885 215.545506 
L 217.544668 212.127455 
L 212.539662 208.906974 
L 207.409874 205.889217 
L 202.163512 203.07901 
L 196.808968 200.480849 
L 191.354808 198.098891 
L 190.743203 197.847819 
L 186.967388 195.46779 
L 183.341083 192.865631 
L 179.877339 190.050706 
L 176.588623 187.033147 
L 173.486769 183.823813 
L 170.582942 180.434255 
L 167.887591 176.876671 
L 165.410418 173.163865 
L 163.160337 169.309199 
L 161.145446 165.326545 
L 159.372997 161.230236 
L 157.849368 157.035016 
L 156.580043 152.755982 
L 155.56959 148.408534 
L 154.821646 144.008318 
L 154.338903 139.571171 
L 154.237822 138.096464 
L 155.636432 142.335002 
L 156.778365 146.64978 
L 157.659513 151.025268 
L 158.276702 155.44572 
L 158.627713 159.895227 
L 158.711283 164.357775 
L 158.527109 168.817304 
L 158.075856 173.257764 
L 157.359147 177.663175 
L 156.379562 182.017682 
L 155.140625 186.305614 
L 153.646797 190.511538 
L 151.903452 194.620317 
L 149.916866 198.617165 
L 147.694188 202.487697 
L 145.243416 206.217984 
L 144.383095 207.419992 
L 140.299092 211.749253 
L 136.391479 216.238368 
L 132.66651 220.880154 
L 129.130142 225.667187 
L 125.788033 230.591807 
L 122.645529 235.646137 
L 119.707658 240.822091 
L 116.979121 246.111388 
L 115.633222 248.928 
L 113.016243 243.582628 
L 110.187598 238.346184 
L 107.151815 233.227043 
L 103.913748 228.233397 
L 100.478579 223.373233 
L 96.851803 218.654326 
L 93.039223 214.084227 
L 89.046936 209.670245 
L 87.36 207.907669 
L 91.42412 203.559738 
L 95.311118 199.052762 
L 99.014776 194.393954 
L 102.529169 189.590765 
L 105.848674 184.65088 
L 108.967982 179.582201 
L 111.882101 174.392838 
L 114.58637 169.091092 
L 117.076463 163.685445 
L 119.348395 158.184545 
L 121.398533 152.597192 
L 123.223597 146.932324 
L 124.820666 141.199005 
L 126.187186 135.406406 
L 127.320972 129.563794 
L 128.220208 123.680517 
L 128.883456 117.765985 
L 129.309656 111.829662 
L 129.498125 105.881043 
L 129.45405 100.128 
L 129.421325 101.615634 
L 129.439214 107.56721 
L 129.695089 113.513311 
L 130.188539 119.444422 
L 130.918776 125.351057 
L 131.884631 131.223766 
L 133.084559 137.053153 
L 134.516641 142.829892 
L 135.933787 147.754006 
L 130.272221 145.918727 
L 124.541792 144.311318 
L 118.751667 142.934351 
L 112.91111 141.790029 
L 107.029464 140.880182 
L 101.116139 140.206266 
L 95.180594 139.769359 
L 89.232325 139.570159 
L 87.36 139.556708 
L 91.823269 139.485767 
L 97.767166 139.183004 
L 103.694202 138.64279 
L 109.594893 137.865991 
L 115.459802 136.853848 
L 121.279543 135.60798 
L 127.044809 134.130382 
L 132.746374 132.423417 
L 138.375119 130.489815 
L 143.922037 128.33267 
L 149.378256 125.955432 
L 154.735047 123.361906 
L 159.983839 120.55624 
L 165.116236 117.542923 
L 170.124027 114.326774 
L 174.9992 110.91294 
L 179.733957 107.306882 
L 184.320723 103.514369 
L 188.120024 100.128 
L 192.57441 104.075154 
L 197.183078 107.841022 
L 201.938653 111.419581 
L 206.833529 114.805105 
L 211.859874 117.992178 
L 217.009648 120.975702 
L 222.274611 123.750903 
L 227.646342 126.313342 
L 233.116245 128.658919 
L 236.16 129.853893 
L 230.639875 132.078708 
L 225.213135 134.52249 
L 219.88846 137.181329 
L 214.674371 140.050971 
L 209.579206 143.126826 
L 204.611119 146.403972 
L 199.778057 149.877168 
L 195.087751 153.540857 
L 192.173922 155.804934 
L 188.431156 158.236604 
L 184.549312 160.439467 
L 180.542361 162.405596 
L 176.424723 164.127913 
L 172.211218 165.600221 
L 167.917009 166.817221 
L 163.557551 167.774534 
L 159.148534 168.468713 
L 154.705825 168.89726 
L 150.245413 169.058634 
L 145.78335 168.952253 
L 141.335696 168.578501 
L 136.918457 167.938721 
L 132.54753 167.035218 
L 128.238646 165.871242 
L 125.779706 165.080331 
L 130.140267 166.032607 
L 134.435878 167.244646 
L 138.651082 168.712086 
L 142.770706 170.429646 
L 146.779926 172.391144 
L 150.664312 174.589521 
L 154.409885 177.016866 
L 158.003164 179.664443 
L 161.431218 182.522723 
L 164.68171 185.581419 
L 167.74294 188.829524 
L 170.603893 192.255348 
L 173.254271 195.846561 
L 175.684537 199.59024 
L 177.885944 203.47291 
L 179.687357 207.123243 
L 177.374949 203.305641 
L 175.295621 199.356246 
L 173.456856 195.289274 
L 171.865272 191.119361 
L 170.526597 186.861513 
L 169.445648 182.531055 
L 168.626316 178.143571 
L 168.071549 173.714852 
L 167.783345 169.260836 
L 167.762739 164.797554 
L 168.009807 160.341067 
L 168.52366 155.907414 
L 169.302447 151.512552 
L 170.343366 147.172298 
L 171.642671 142.902272 
L 173.048965 139.082277 
L 171.873281 143.387981 
L 170.441525 147.615438 
L 168.758851 151.749434 
L 166.831313 155.775092 
L 164.66585 159.677922 
L 162.270253 163.44388 
L 159.653146 167.059411 
L 156.823946 170.511504 
L 153.792836 173.787736 
L 150.570724 176.876314 
L 147.169207 179.766123 
L 143.600526 182.446764 
L 139.877525 184.908589 
L 136.013603 187.142738 
L 132.022665 189.14117 
L 128.284364 190.752111 
L 132.21604 188.639473 
L 136.267323 186.766395 
L 140.423634 185.139618 
L 144.670013 183.764999 
L 148.991179 182.647482 
L 153.37158 181.791091 
L 157.795452 181.198908 
L 162.246872 180.873063 
L 166.709821 180.814729 
L 171.168238 181.024117 
L 175.606075 181.500472 
L 180.007363 182.242081 
L 184.356261 183.246274 
L 188.637118 184.509438 
L 192.834528 186.027025 
L 196.576991 187.628273 
L 192.337582 186.232303 
L 188.189509 184.584634 
L 184.147702 182.691195 
L 180.226706 180.5588 
L 176.440633 178.195124 
L 172.803107 175.608673 
L 169.327222 172.808755 
L 166.025485 169.805448 
L 162.909781 166.60956 
L 159.991321 163.232592 
L 157.280609 159.686699 
L 154.787401 155.984641 
L 152.520669 152.139742 
L 150.488572 148.16584 
L 148.698423 144.077235 
L 147.282233 140.260898 
L 147.282233 140.260898 
" style="fill:none;stroke:#1f77b4;stroke-linecap:square;stroke-width:1.5;"/>
   </g>
   <g id="patch_5">
    <path d="M 57.6 263.808 
L 57.6 85.248 
" style="fill:none;stroke:#000000;stroke-linecap:square;stroke-linejoin:miter;stroke-width:0.8;"/>
   </g>
   <g id="patch_6">
    <path d="M 414.72 263.808 
L 414.72 85.248 
" style="fill:none;stroke:#000000;stroke-linecap:square;stroke-linejoin:miter;stroke-width:0.8;"/>
   </g>
   <g id="patch_7">
    <path d="M 57.6 263.808 
L 414.72 263.808 
" style="fill:none;stroke:#000000;stroke-linecap:square;stroke-linejoin:miter;stroke-width:0.8;"/>
   </g>
   <g id="patch_8">
    <path d="M 57.6 85.248 
L 414.72 85.248 
" style="fill:none;stroke:#000000;stroke-linecap:square;stroke-linejoin:miter;stroke-width:0.8;"/>
   </g>
  </g>
 </g>
 <defs>
  <clipPath id="p323cde5c8c">
   <rect height="178.56" width="357.12" x="57.6" y="85.248"/>
  </clipPath>
 </defs>
</svg>
