<?xml version="1.0" encoding="utf-8" standalone="no"?>
<!DOCTYPE svg PUBLIC "-//W3C//DTD SVG 1.1//EN"
  "http://www.w3.org/Graphics/SVG/1.1/DTD/svg11.dtd">
<!-- Created with matplotlib (https://matplotlib.org/) -->
<svg height="345.6pt" version="1.1" viewBox="0 0 460.8 345.6" width="460.8pt" xmlns="http://www.w3.org/2000/svg" xmlns:xlink="http://www.w3.org/1999/xlink">
 <defs>
  <style type="text/css">
*{stroke-linecap:butt;stroke-linejoin:round;}
  </style>
 </defs>
 <g id="figure_1">
  <g id="patch_1">
   <path d="M 0 345.6 
L 460.8 345.6 
L 460.8 0 
L 0 0 
z
" style="fill:#ffffff;"/>
  </g>
  <g id="axes_1">
   <g id="patch_2">
    <path d="M 82.520165 307.584 
L 389.799835 307.584 
L 389.799835 41.472 
L 82.520165 41.472 
z
" style="fill:#ffffff;"/>
   </g>
   <g id="PathCollection_1">
    <defs>
     <path d="M 0 2.236068 
C 0.593012 2.236068 1.161816 2.000462 1.581139 1.581139 
C 2.000462 1.161816 2.236068 0.593012 2.236068 0 
C 2.236068 -0.593012 2.000462 -1.161816 1.581139 -1.581139 
C 1.161816 -2.000462 0.593012 -2.236068 0 -2.236068 
C -0.593012 -2.236068 -1.161816 -2.000462 -1.581139 -1.581139 
C -2.000462 -1.161816 -2.236068 -0.593012 -2.236068 0 
C -2.236068 0.593012 -2.000462 1.161816 -1.581139 1.581139 
C -1.161816 2.000462 -0.593012 2.236068 0 2.236068 
z
" id="mf14f12e155" style="stroke:#000000;"/>
    </defs>
    <g clip-path="url(#p9c1ec6d083)">
     <use style="stroke:#000000;" x="126.860124" xlink:href="#mf14f12e155" y="206.975062"/>
    </g>
   </g>
   <g id="Quiver_1">
    <path clip-path="url(#p9c1ec6d083)" d="M 126.640098 206.40124 
L 132.952139 203.980951 
L 131.938265 203.053333 
L 138.336563 202.574536 
L 133.258423 206.496265 
L 133.392192 205.128595 
L 127.080151 207.548884 
L 126.640098 206.40124 
"/>
   </g>
   <g id="patch_3">
    <path clip-path="url(#p9c1ec6d083)" d="M 236.16 225.741278 
C 249.74192 225.741278 262.769389 220.345124 272.373256 210.741256 
C 281.977124 201.137389 287.373278 188.10992 287.373278 174.528 
C 287.373278 160.94608 281.977124 147.918611 272.373256 138.314744 
C 262.769389 128.710876 249.74192 123.314722 236.16 123.314722 
C 222.57808 123.314722 209.550611 128.710876 199.946744 138.314744 
C 190.342876 147.918611 184.946722 160.94608 184.946722 174.528 
C 184.946722 188.10992 190.342876 201.137389 199.946744 210.741256 
C 209.550611 220.345124 222.57808 225.741278 236.16 225.741278 
z
" style="fill:#009900;fill-opacity:0.5;stroke:#009900;stroke-linejoin:miter;stroke-width:2;"/>
   </g>
   <g id="matplotlib.axis_1">
    <g id="xtick_1">
     <g id="line2d_1">
      <defs>
       <path d="M 0 0 
L 0 3.5 
" id="me876a6fc68" style="stroke:#000000;stroke-width:0.8;"/>
      </defs>
      <g>
       <use style="stroke:#000000;stroke-width:0.8;" x="108.126804" xlink:href="#me876a6fc68" y="307.584"/>
      </g>
     </g>
     <g id="text_1">
      <!-- −2 -->
      <defs>
       <path d="M 10.59375 35.5 
L 73.1875 35.5 
L 73.1875 27.203125 
L 10.59375 27.203125 
z
" id="DejaVuSans-8722"/>
       <path d="M 19.1875 8.296875 
L 53.609375 8.296875 
L 53.609375 0 
L 7.328125 0 
L 7.328125 8.296875 
Q 12.9375 14.109375 22.625 23.890625 
Q 32.328125 33.6875 34.8125 36.53125 
Q 39.546875 41.84375 41.421875 45.53125 
Q 43.3125 49.21875 43.3125 52.78125 
Q 43.3125 58.59375 39.234375 62.25 
Q 35.15625 65.921875 28.609375 65.921875 
Q 23.96875 65.921875 18.8125 64.3125 
Q 13.671875 62.703125 7.8125 59.421875 
L 7.8125 69.390625 
Q 13.765625 71.78125 18.9375 73 
Q 24.125 74.21875 28.421875 74.21875 
Q 39.75 74.21875 46.484375 68.546875 
Q 53.21875 62.890625 53.21875 53.421875 
Q 53.21875 48.921875 51.53125 44.890625 
Q 49.859375 40.875 45.40625 35.40625 
Q 44.1875 33.984375 37.640625 27.21875 
Q 31.109375 20.453125 19.1875 8.296875 
z
" id="DejaVuSans-50"/>
      </defs>
      <g transform="translate(100.755711 322.182437)scale(0.1 -0.1)">
       <use xlink:href="#DejaVuSans-8722"/>
       <use x="83.789062" xlink:href="#DejaVuSans-50"/>
      </g>
     </g>
    </g>
    <g id="xtick_2">
     <g id="line2d_2">
      <g>
       <use style="stroke:#000000;stroke-width:0.8;" x="172.143402" xlink:href="#me876a6fc68" y="307.584"/>
      </g>
     </g>
     <g id="text_2">
      <!-- −1 -->
      <defs>
       <path d="M 12.40625 8.296875 
L 28.515625 8.296875 
L 28.515625 63.921875 
L 10.984375 60.40625 
L 10.984375 69.390625 
L 28.421875 72.90625 
L 38.28125 72.90625 
L 38.28125 8.296875 
L 54.390625 8.296875 
L 54.390625 0 
L 12.40625 0 
z
" id="DejaVuSans-49"/>
      </defs>
      <g transform="translate(164.772308 322.182437)scale(0.1 -0.1)">
       <use xlink:href="#DejaVuSans-8722"/>
       <use x="83.789062" xlink:href="#DejaVuSans-49"/>
      </g>
     </g>
    </g>
    <g id="xtick_3">
     <g id="line2d_3">
      <g>
       <use style="stroke:#000000;stroke-width:0.8;" x="236.16" xlink:href="#me876a6fc68" y="307.584"/>
      </g>
     </g>
     <g id="text_3">
      <!-- 0 -->
      <defs>
       <path d="M 31.78125 66.40625 
Q 24.171875 66.40625 20.328125 58.90625 
Q 16.5 51.421875 16.5 36.375 
Q 16.5 21.390625 20.328125 13.890625 
Q 24.171875 6.390625 31.78125 6.390625 
Q 39.453125 6.390625 43.28125 13.890625 
Q 47.125 21.390625 47.125 36.375 
Q 47.125 51.421875 43.28125 58.90625 
Q 39.453125 66.40625 31.78125 66.40625 
z
M 31.78125 74.21875 
Q 44.046875 74.21875 50.515625 64.515625 
Q 56.984375 54.828125 56.984375 36.375 
Q 56.984375 17.96875 50.515625 8.265625 
Q 44.046875 -1.421875 31.78125 -1.421875 
Q 19.53125 -1.421875 13.0625 8.265625 
Q 6.59375 17.96875 6.59375 36.375 
Q 6.59375 54.828125 13.0625 64.515625 
Q 19.53125 74.21875 31.78125 74.21875 
z
" id="DejaVuSans-48"/>
      </defs>
      <g transform="translate(232.97875 322.182437)scale(0.1 -0.1)">
       <use xlink:href="#DejaVuSans-48"/>
      </g>
     </g>
    </g>
    <g id="xtick_4">
     <g id="line2d_4">
      <g>
       <use style="stroke:#000000;stroke-width:0.8;" x="300.176598" xlink:href="#me876a6fc68" y="307.584"/>
      </g>
     </g>
     <g id="text_4">
      <!-- 1 -->
      <g transform="translate(296.995348 322.182437)scale(0.1 -0.1)">
       <use xlink:href="#DejaVuSans-49"/>
      </g>
     </g>
    </g>
    <g id="xtick_5">
     <g id="line2d_5">
      <g>
       <use style="stroke:#000000;stroke-width:0.8;" x="364.193196" xlink:href="#me876a6fc68" y="307.584"/>
      </g>
     </g>
     <g id="text_5">
      <!-- 2 -->
      <g transform="translate(361.011946 322.182437)scale(0.1 -0.1)">
       <use xlink:href="#DejaVuSans-50"/>
      </g>
     </g>
    </g>
   </g>
   <g id="matplotlib.axis_2">
    <g id="ytick_1">
     <g id="line2d_6">
      <defs>
       <path d="M 0 0 
L -3.5 0 
" id="m5a938cfe72" style="stroke:#000000;stroke-width:0.8;"/>
      </defs>
      <g>
       <use style="stroke:#000000;stroke-width:0.8;" x="82.520165" xlink:href="#m5a938cfe72" y="302.561196"/>
      </g>
     </g>
     <g id="text_6">
      <!-- −2.0 -->
      <defs>
       <path d="M 10.6875 12.40625 
L 21 12.40625 
L 21 0 
L 10.6875 0 
z
" id="DejaVuSans-46"/>
      </defs>
      <g transform="translate(51.237353 306.360414)scale(0.1 -0.1)">
       <use xlink:href="#DejaVuSans-8722"/>
       <use x="83.789062" xlink:href="#DejaVuSans-50"/>
       <use x="147.412109" xlink:href="#DejaVuSans-46"/>
       <use x="179.199219" xlink:href="#DejaVuSans-48"/>
      </g>
     </g>
    </g>
    <g id="ytick_2">
     <g id="line2d_7">
      <g>
       <use style="stroke:#000000;stroke-width:0.8;" x="82.520165" xlink:href="#m5a938cfe72" y="270.552897"/>
      </g>
     </g>
     <g id="text_7">
      <!-- −1.5 -->
      <defs>
       <path d="M 10.796875 72.90625 
L 49.515625 72.90625 
L 49.515625 64.59375 
L 19.828125 64.59375 
L 19.828125 46.734375 
Q 21.96875 47.46875 24.109375 47.828125 
Q 26.265625 48.1875 28.421875 48.1875 
Q 40.625 48.1875 47.75 41.5 
Q 54.890625 34.8125 54.890625 23.390625 
Q 54.890625 11.625 47.5625 5.09375 
Q 40.234375 -1.421875 26.90625 -1.421875 
Q 22.3125 -1.421875 17.546875 -0.640625 
Q 12.796875 0.140625 7.71875 1.703125 
L 7.71875 11.625 
Q 12.109375 9.234375 16.796875 8.0625 
Q 21.484375 6.890625 26.703125 6.890625 
Q 35.15625 6.890625 40.078125 11.328125 
Q 45.015625 15.765625 45.015625 23.390625 
Q 45.015625 31 40.078125 35.4375 
Q 35.15625 39.890625 26.703125 39.890625 
Q 22.75 39.890625 18.8125 39.015625 
Q 14.890625 38.140625 10.796875 36.28125 
z
" id="DejaVuSans-53"/>
      </defs>
      <g transform="translate(51.237353 274.352116)scale(0.1 -0.1)">
       <use xlink:href="#DejaVuSans-8722"/>
       <use x="83.789062" xlink:href="#DejaVuSans-49"/>
       <use x="147.412109" xlink:href="#DejaVuSans-46"/>
       <use x="179.199219" xlink:href="#DejaVuSans-53"/>
      </g>
     </g>
    </g>
    <g id="ytick_3">
     <g id="line2d_8">
      <g>
       <use style="stroke:#000000;stroke-width:0.8;" x="82.520165" xlink:href="#m5a938cfe72" y="238.544598"/>
      </g>
     </g>
     <g id="text_8">
      <!-- −1.0 -->
      <g transform="translate(51.237353 242.343817)scale(0.1 -0.1)">
       <use xlink:href="#DejaVuSans-8722"/>
       <use x="83.789062" xlink:href="#DejaVuSans-49"/>
       <use x="147.412109" xlink:href="#DejaVuSans-46"/>
       <use x="179.199219" xlink:href="#DejaVuSans-48"/>
      </g>
     </g>
    </g>
    <g id="ytick_4">
     <g id="line2d_9">
      <g>
       <use style="stroke:#000000;stroke-width:0.8;" x="82.520165" xlink:href="#m5a938cfe72" y="206.536299"/>
      </g>
     </g>
     <g id="text_9">
      <!-- −0.5 -->
      <g transform="translate(51.237353 210.335518)scale(0.1 -0.1)">
       <use xlink:href="#DejaVuSans-8722"/>
       <use x="83.789062" xlink:href="#DejaVuSans-48"/>
       <use x="147.412109" xlink:href="#DejaVuSans-46"/>
       <use x="179.199219" xlink:href="#DejaVuSans-53"/>
      </g>
     </g>
    </g>
    <g id="ytick_5">
     <g id="line2d_10">
      <g>
       <use style="stroke:#000000;stroke-width:0.8;" x="82.520165" xlink:href="#m5a938cfe72" y="174.528"/>
      </g>
     </g>
     <g id="text_10">
      <!-- 0.0 -->
      <g transform="translate(59.61704 178.327219)scale(0.1 -0.1)">
       <use xlink:href="#DejaVuSans-48"/>
       <use x="63.623047" xlink:href="#DejaVuSans-46"/>
       <use x="95.410156" xlink:href="#DejaVuSans-48"/>
      </g>
     </g>
    </g>
    <g id="ytick_6">
     <g id="line2d_11">
      <g>
       <use style="stroke:#000000;stroke-width:0.8;" x="82.520165" xlink:href="#m5a938cfe72" y="142.519701"/>
      </g>
     </g>
     <g id="text_11">
      <!-- 0.5 -->
      <g transform="translate(59.61704 146.31892)scale(0.1 -0.1)">
       <use xlink:href="#DejaVuSans-48"/>
       <use x="63.623047" xlink:href="#DejaVuSans-46"/>
       <use x="95.410156" xlink:href="#DejaVuSans-53"/>
      </g>
     </g>
    </g>
    <g id="ytick_7">
     <g id="line2d_12">
      <g>
       <use style="stroke:#000000;stroke-width:0.8;" x="82.520165" xlink:href="#m5a938cfe72" y="110.511402"/>
      </g>
     </g>
     <g id="text_12">
      <!-- 1.0 -->
      <g transform="translate(59.61704 114.310621)scale(0.1 -0.1)">
       <use xlink:href="#DejaVuSans-49"/>
       <use x="63.623047" xlink:href="#DejaVuSans-46"/>
       <use x="95.410156" xlink:href="#DejaVuSans-48"/>
      </g>
     </g>
    </g>
    <g id="ytick_8">
     <g id="line2d_13">
      <g>
       <use style="stroke:#000000;stroke-width:0.8;" x="82.520165" xlink:href="#m5a938cfe72" y="78.503103"/>
      </g>
     </g>
     <g id="text_13">
      <!-- 1.5 -->
      <g transform="translate(59.61704 82.302322)scale(0.1 -0.1)">
       <use xlink:href="#DejaVuSans-49"/>
       <use x="63.623047" xlink:href="#DejaVuSans-46"/>
       <use x="95.410156" xlink:href="#DejaVuSans-53"/>
      </g>
     </g>
    </g>
    <g id="ytick_9">
     <g id="line2d_14">
      <g>
       <use style="stroke:#000000;stroke-width:0.8;" x="82.520165" xlink:href="#m5a938cfe72" y="46.494804"/>
      </g>
     </g>
     <g id="text_14">
      <!-- 2.0 -->
      <g transform="translate(59.61704 50.294023)scale(0.1 -0.1)">
       <use xlink:href="#DejaVuSans-50"/>
       <use x="63.623047" xlink:href="#DejaVuSans-46"/>
       <use x="95.410156" xlink:href="#DejaVuSans-48"/>
      </g>
     </g>
    </g>
   </g>
   <g id="line2d_15">
    <path clip-path="url(#p9c1ec6d083)" d="M 300.176598 63.648 
L 172.143402 63.648 
" style="fill:none;stroke:#009900;stroke-linecap:square;stroke-width:2;"/>
   </g>
   <g id="line2d_16">
    <path clip-path="url(#p9c1ec6d083)" d="M 172.143402 63.648 
L 108.126804 174.528 
" style="fill:none;stroke:#009900;stroke-linecap:square;stroke-width:2;"/>
   </g>
   <g id="line2d_17">
    <path clip-path="url(#p9c1ec6d083)" d="M 108.126804 174.528 
L 172.143402 285.408 
" style="fill:none;stroke:#009900;stroke-linecap:square;stroke-width:2;"/>
   </g>
   <g id="line2d_18">
    <path clip-path="url(#p9c1ec6d083)" d="M 172.143402 285.408 
L 300.176598 285.408 
" style="fill:none;stroke:#009900;stroke-linecap:square;stroke-width:2;"/>
   </g>
   <g id="line2d_19">
    <path clip-path="url(#p9c1ec6d083)" d="M 300.176598 285.408 
L 364.193196 174.528 
" style="fill:none;stroke:#009900;stroke-linecap:square;stroke-width:2;"/>
   </g>
   <g id="line2d_20">
    <path clip-path="url(#p9c1ec6d083)" d="M 364.193196 174.528 
L 300.176598 63.648 
" style="fill:none;stroke:#009900;stroke-linecap:square;stroke-width:2;"/>
   </g>
   <g id="line2d_21">
    <path clip-path="url(#p9c1ec6d083)" d="M 218.67481 236.334621 
L 220.411316 241.152198 
L 222.339084 245.89648 
L 224.45503 250.559877 
L 226.755771 255.134928 
L 229.237624 259.614315 
L 231.89662 263.990871 
L 234.728505 268.257595 
L 237.728747 272.407661 
L 240.892548 276.434429 
L 244.214847 280.331458 
L 247.690327 284.092514 
L 248.973935 285.408 
L 252.503047 281.697223 
L 255.880946 277.848287 
L 259.102225 273.86735 
L 262.161733 269.760781 
L 265.054575 265.535149 
L 267.776123 261.197214 
L 270.322023 256.753916 
L 272.688201 252.212363 
L 274.870874 247.579821 
L 276.866548 242.863702 
L 278.672031 238.071548 
L 280.284435 233.211028 
L 281.70118 228.289917 
L 282.920001 223.316088 
L 283.938946 218.297497 
L 284.756386 213.242174 
L 285.371013 208.158205 
L 285.781844 203.053725 
L 285.988221 197.936899 
L 285.989815 192.815913 
L 285.760773 187.278029 
L 288.420811 182.902106 
L 290.903732 178.423311 
L 293.205563 173.848808 
L 295.322621 169.185916 
L 297.25152 164.442093 
L 298.989173 159.62493 
L 300.532802 154.742132 
L 301.879936 149.801512 
L 303.02842 144.810972 
L 303.976417 139.778497 
L 304.722411 134.712138 
L 305.265207 129.62 
L 305.603938 124.510228 
L 305.738062 119.390999 
L 305.667364 114.2705 
L 305.391957 109.156925 
L 304.912282 104.058453 
L 304.229107 98.983241 
L 303.343523 93.939409 
L 302.256948 88.935025 
L 300.971121 83.978096 
L 299.488097 79.076551 
L 297.81025 74.238232 
L 295.940265 69.470879 
L 293.881132 64.782119 
L 293.349013 63.648 
L 291.244102 68.316388 
L 289.327559 73.065216 
L 287.602453 77.886887 
L 286.071542 82.773687 
L 284.737275 87.717798 
L 283.601787 92.711311 
L 282.666895 97.746237 
L 281.934094 102.814521 
L 281.404556 107.908055 
L 281.079129 113.018691 
L 280.958333 118.138253 
L 281.042362 123.258549 
L 281.33108 128.371391 
L 281.824027 133.468596 
L 282.520414 138.542012 
L 283.419126 143.583521 
L 284.518725 148.58506 
L 285.817453 153.538625 
L 287.313233 158.436292 
L 289.00367 163.270227 
L 290.886061 168.032695 
L 292.957394 172.716079 
L 295.214355 177.312885 
L 297.653335 181.81576 
L 300.27043 186.217499 
L 303.061455 190.511062 
L 306.021944 194.689579 
L 309.147161 198.746366 
L 312.432107 202.674933 
L 315.871525 206.468994 
L 319.459914 210.122481 
L 323.191534 213.629548 
L 327.060414 216.984584 
L 331.060365 220.182223 
L 335.184988 223.217349 
L 335.823854 223.665141 
L 331.145653 221.58213 
L 326.387895 219.687864 
L 321.558193 217.985373 
L 316.664272 216.47738 
L 311.713963 215.166298 
L 306.715183 214.054224 
L 301.675932 213.142937 
L 296.604269 212.433896 
L 291.508309 211.928235 
L 286.396204 211.626762 
L 281.276133 211.52996 
L 276.156286 211.637983 
L 271.129363 211.943819 
L 270.475648 217.022909 
L 270.025565 222.124079 
L 269.779835 227.239166 
L 269.73885 232.359988 
L 269.902676 237.478354 
L 270.271052 242.586073 
L 270.843387 247.674977 
L 271.618765 252.736922 
L 272.595948 257.763811 
L 273.773371 262.747603 
L 275.14915 267.680323 
L 276.721086 272.554082 
L 278.486662 277.361081 
L 280.443054 282.093631 
L 281.947925 285.408 
L 284.038061 280.732978 
L 285.939574 275.978112 
L 287.649422 271.151009 
L 289.16487 266.259391 
L 290.483493 261.311085 
L 291.603181 256.314006 
L 292.522144 251.276149 
L 293.238912 246.205572 
L 293.752337 241.110388 
L 294.061599 235.998749 
L 294.166202 230.878831 
L 294.065979 225.758825 
L 293.761091 220.646923 
L 293.252025 215.551302 
L 292.539596 210.480114 
L 291.624943 205.441472 
L 290.50953 200.443437 
L 289.195142 195.494004 
L 287.68388 190.601092 
L 286.068642 186.01396 
L 289.70621 182.409434 
L 293.196725 178.662328 
L 296.534604 174.778636 
L 299.714506 170.76457 
L 302.731346 166.626553 
L 305.580295 162.371205 
L 308.256797 158.005333 
L 310.75657 153.535922 
L 313.075615 148.970121 
L 315.210221 144.315236 
L 317.156974 139.578712 
L 318.912759 134.768128 
L 320.474768 129.89118 
L 321.840502 124.955668 
L 323.007775 119.96949 
L 323.974721 114.940621 
L 324.739792 109.877108 
L 325.102013 106.820085 
L 320.380663 104.836815 
L 315.583781 103.043935 
L 310.719039 101.444313 
L 305.794221 100.040509 
L 300.817205 98.834767 
L 295.795953 97.829018 
L 290.738498 97.02487 
L 285.652932 96.423609 
L 280.547389 96.026197 
L 275.430038 95.833271 
L 270.309065 95.845138 
L 265.192663 96.061781 
L 260.089017 96.482851 
L 255.006292 97.107676 
L 249.952619 97.935256 
L 244.936083 98.964267 
L 239.964708 100.193063 
L 235.046449 101.619678 
L 230.189174 103.24183 
L 225.400652 105.056923 
L 220.688545 107.062054 
L 216.060392 109.254016 
L 211.523595 111.629301 
L 207.085414 114.184109 
L 202.752947 116.914354 
L 198.533127 119.815667 
L 194.432703 122.883407 
L 190.458237 126.112667 
L 186.616086 129.49828 
L 182.912396 133.03483 
L 179.353093 136.716659 
L 175.943871 140.537877 
L 172.690184 144.492371 
L 169.597237 148.573814 
L 166.669979 152.775678 
L 163.913092 157.09124 
L 161.330986 161.513596 
L 158.927793 166.035671 
L 156.707357 170.650232 
L 154.67323 175.349894 
L 152.828667 180.127141 
L 151.176618 184.97433 
L 149.719726 189.883705 
L 148.460323 194.847414 
L 147.400422 199.857515 
L 146.54172 204.905993 
L 145.88559 209.984772 
L 145.433081 215.085727 
L 145.184919 220.200697 
L 145.141499 225.321499 
L 145.302891 230.439942 
L 145.668837 235.547836 
L 146.222158 240.511088 
L 150.347567 243.545145 
L 154.591006 246.411803 
L 158.945686 249.106476 
L 163.404642 251.624852 
L 167.960739 253.962903 
L 172.606688 256.116889 
L 177.335058 258.083363 
L 182.138283 259.85918 
L 187.008681 261.441499 
L 191.938458 262.827788 
L 196.919729 264.01583 
L 201.944524 265.003724 
L 207.004805 265.789889 
L 212.092477 266.373068 
L 217.1994 266.752328 
L 222.317405 266.927063 
L 227.438303 266.896992 
L 232.553902 266.662163 
L 237.656019 266.222953 
L 242.736491 265.580064 
L 247.787191 264.734525 
L 252.800037 263.687688 
L 257.767012 262.441228 
L 262.680169 260.997139 
L 267.531647 259.357731 
L 272.313686 257.525627 
L 277.018636 255.503758 
L 281.638968 253.295359 
L 286.167293 250.903962 
L 290.596365 248.333393 
L 294.919098 245.587765 
L 299.128579 242.671469 
L 303.218071 239.589172 
L 307.181033 236.345805 
L 311.011125 232.946556 
L 314.70222 229.396862 
L 318.248412 225.702404 
L 321.644029 221.869091 
L 324.883639 217.903056 
L 327.962057 213.810644 
L 330.874361 209.598401 
L 333.61589 205.273066 
L 336.182259 200.841559 
L 338.569362 196.31097 
L 340.77338 191.688546 
L 342.790788 186.981682 
L 344.618358 182.197908 
L 346.253166 177.344878 
L 347.692596 172.430354 
L 348.934347 167.4622 
L 349.976432 162.448363 
L 350.817183 157.396864 
L 351.44189 152.442091 
L 346.720541 150.458821 
L 341.923658 148.665941 
L 337.058916 147.066319 
L 332.134098 145.662515 
L 327.157082 144.456773 
L 322.13583 143.451024 
L 317.078376 142.646876 
L 311.992809 142.045615 
L 306.887266 141.648203 
L 301.769915 141.455277 
L 296.648943 141.467144 
L 291.532541 141.683786 
L 286.428895 142.104857 
L 281.34617 142.729682 
L 276.867709 143.45257 
L 278.977 138.786159 
L 280.897998 134.039132 
L 282.627628 129.219082 
L 284.163124 124.333721 
L 285.50203 119.390864 
L 286.642203 114.398419 
L 287.58182 109.364373 
L 288.319377 104.296779 
L 288.853694 99.203743 
L 289.183917 94.093415 
L 289.309517 88.973969 
L 289.230293 83.853596 
L 288.946373 78.740486 
L 288.458209 73.64282 
L 287.766584 68.568753 
L 286.896618 63.648 
L 286.00752 68.691214 
L 285.320807 73.765948 
L 284.837579 78.864084 
L 284.558608 83.977466 
L 284.484341 89.097914 
L 284.614897 94.217236 
L 284.950067 99.327242 
L 285.489315 104.419758 
L 286.231777 109.486636 
L 287.176267 114.51977 
L 288.321272 119.511109 
L 289.664963 124.452667 
L 291.205188 129.336539 
L 292.939483 134.154913 
L 294.865076 138.900078 
L 296.978883 143.564445 
L 299.277525 148.140551 
L 301.757324 152.621076 
L 304.414313 156.998851 
L 307.24424 161.266873 
L 310.242579 165.418314 
L 313.404533 169.446533 
L 316.725044 173.345086 
L 320.198799 177.107735 
L 323.820241 180.728461 
L 327.583577 184.201471 
L 331.482786 187.521211 
L 335.511631 190.682368 
L 339.663665 193.679886 
L 343.932247 196.508969 
L 348.310547 199.165092 
L 349.557167 199.878346 
L 343.964858 196.764057 
L 339.383292 194.476317 
L 334.713906 192.373621 
L 329.964169 190.459332 
L 325.14168 188.736514 
L 320.254154 187.207921 
L 315.30941 185.876001 
L 310.31536 184.742883 
L 305.279991 183.810379 
L 300.211359 183.079983 
L 295.117574 182.552863 
L 290.006785 182.22986 
L 286.805645 182.131847 
L 291.754582 183.448101 
L 296.752197 184.565396 
L 301.790494 185.481947 
L 306.861413 186.196287 
L 311.956842 186.707272 
L 317.068629 187.014086 
L 322.188597 187.116238 
L 327.308554 187.013564 
L 332.420309 186.706228 
L 337.515686 186.194722 
L 342.586532 185.479865 
L 347.624736 184.5628 
L 352.622236 183.444994 
L 357.571039 182.128235 
L 360.272424 181.318976 
L 359.047584 176.346626 
L 357.624882 171.427233 
L 356.006596 166.568669 
L 354.195313 161.778705 
L 352.193931 157.065004 
L 350.005653 152.435108 
L 347.633978 147.896423 
L 345.082702 143.45621 
L 342.355905 139.121573 
L 339.45795 134.899445 
L 336.393473 130.796582 
L 333.167377 126.819548 
L 329.784822 122.974704 
L 326.25122 119.268202 
L 322.572224 115.705971 
L 318.753719 112.29371 
L 314.801815 109.036877 
L 310.722834 105.940684 
L 306.5233 103.010084 
L 302.209933 100.249764 
L 297.789633 97.66414 
L 293.269471 95.25735 
L 288.656679 93.033243 
L 283.958636 90.995378 
L 279.182858 89.147014 
L 274.336986 87.491109 
L 269.428771 86.030312 
L 264.466066 84.76696 
L 259.45681 83.703073 
L 254.409016 82.840354 
L 249.330761 82.180184 
L 244.230168 81.723617 
L 239.115397 81.471385 
L 233.994631 81.423891 
L 228.876062 81.58121 
L 223.767878 81.943093 
L 218.678251 82.508958 
L 213.615324 83.277902 
L 208.587197 84.248694 
L 203.601913 85.419781 
L 198.667448 86.789289 
L 193.791695 88.355027 
L 188.982455 90.114492 
L 184.247422 92.064867 
L 179.594171 94.203033 
L 175.030145 96.525569 
L 170.562647 99.02876 
L 166.198824 101.7086 
L 161.945656 104.560804 
L 157.809948 107.580807 
L 153.798316 110.763779 
L 149.917177 114.104627 
L 146.172742 117.598008 
L 142.571 121.238331 
L 139.117712 125.019774 
L 135.818405 128.936286 
L 132.678355 132.981603 
L 129.733541 137.104034 
L 127.61413 141.765858 
L 125.682837 146.508706 
L 123.942753 151.324992 
L 122.396661 156.20701 
L 121.047034 161.14695 
L 119.896031 166.136909 
L 118.945494 171.168905 
L 118.196944 176.234887 
L 117.651578 181.326751 
L 117.310268 186.436351 
L 117.18939 190.224859 
L 121.716197 192.619127 
L 126.335129 194.830456 
L 131.038795 196.855308 
L 135.819671 198.690444 
L 140.670109 200.332928 
L 145.582349 201.780133 
L 150.548532 203.029742 
L 155.560714 204.079758 
L 160.610877 204.9285 
L 165.69094 205.57461 
L 170.792777 206.017055 
L 175.908227 206.255128 
L 181.029105 206.288446 
L 186.147219 206.116957 
L 191.254382 205.740936 
L 195.22681 205.305814 
L 193.298515 210.049882 
L 191.561475 214.867267 
L 190.018467 219.750261 
L 188.671962 224.691053 
L 187.524113 229.681738 
L 186.576756 234.714334 
L 185.831407 239.780788 
L 185.289258 244.872995 
L 184.951177 249.98281 
L 184.817705 255.102056 
L 184.889054 260.222546 
L 185.165112 265.336086 
L 185.645436 270.434497 
L 186.329257 275.509621 
L 187.215483 280.553341 
L 188.267143 285.408 
L 189.348344 280.402452 
L 190.228512 275.357672 
L 190.906239 270.28173 
L 191.380439 265.182746 
L 191.650356 260.068878 
L 191.715556 254.948307 
L 191.575936 249.829224 
L 191.231719 244.71982 
L 190.683456 239.628267 
L 189.932023 234.562712 
L 188.978624 229.531257 
L 187.824782 224.541954 
L 186.472344 219.602782 
L 184.923474 214.721645 
L 183.18065 209.90635 
L 181.246659 205.164601 
L 179.124596 200.503984 
L 176.817855 195.931955 
L 174.330127 191.455829 
L 171.665391 187.082765 
L 168.827912 182.81976 
L 165.822227 178.673634 
L 162.653145 174.65102 
L 159.325737 170.758353 
L 155.845325 167.00186 
L 152.217478 163.387552 
L 148.447998 159.92121 
L 144.542918 156.60838 
L 140.508482 153.454361 
L 136.351147 150.464199 
L 132.077563 147.642678 
L 127.694566 144.994312 
L 125.797856 143.920841 
L 133.067029 147.969673 
L 137.665455 150.223334 
L 142.350325 152.291303 
L 147.114144 154.170274 
L 151.949291 155.857239 
L 156.848031 157.349501 
L 161.802527 158.644672 
L 166.804854 159.74068 
L 171.847007 160.635772 
L 176.920922 161.328515 
L 182.01848 161.817802 
L 186.483058 162.078049 
L 181.829028 159.941578 
L 177.093284 157.992928 
L 172.283404 156.235216 
L 167.407081 154.671254 
L 162.472117 153.303544 
L 157.486407 152.134273 
L 152.457926 151.165313 
L 147.394719 150.398214 
L 142.304887 149.834203 
L 137.196572 149.474182 
L 132.077945 149.318727 
L 126.957197 149.368087 
L 122.532905 149.575901 
L 124.894782 154.119692 
L 127.436473 158.565399 
L 130.153911 162.90591 
L 133.04275 167.13428 
L 136.098368 171.243744 
L 139.315876 175.22773 
L 142.690128 179.079863 
L 146.215725 182.79398 
L 149.887027 186.364141 
L 153.69816 189.784632 
L 157.643028 193.049983 
L 161.71532 196.15497 
L 165.908521 199.094624 
L 170.215923 201.864244 
L 174.630634 204.459398 
L 179.145593 206.875935 
L 183.753576 209.109989 
L 188.447211 211.157985 
L 193.21899 213.016648 
L 198.061278 214.683005 
L 202.96633 216.154388 
L 208.337553 217.524643 
L 211.518754 221.537679 
L 214.85789 225.420291 
L 218.349617 229.166268 
L 221.988351 232.769616 
L 225.768269 236.224572 
L 229.683326 239.525607 
L 233.727257 242.667442 
L 237.893593 245.645049 
L 242.175669 248.453665 
L 246.566634 251.088798 
L 251.059465 253.546231 
L 255.646972 255.822033 
L 260.321818 257.912563 
L 265.076524 259.814477 
L 269.903483 261.524732 
L 274.794972 263.040593 
L 279.743167 264.359633 
L 284.740152 265.479743 
L 289.777932 266.399131 
L 294.848448 267.116327 
L 299.943588 267.630182 
L 305.055202 267.939874 
L 310.201177 268.04492 
L 307.551151 263.662927 
L 304.728012 259.390411 
L 301.736277 255.234208 
L 298.580731 251.200968 
L 295.266422 247.297142 
L 291.798653 243.528975 
L 288.182971 239.902496 
L 284.425161 236.423507 
L 280.531234 233.097573 
L 276.50742 229.930015 
L 272.360157 226.9259 
L 268.096078 224.090035 
L 263.722005 221.426956 
L 260.475308 219.600893 
L 260.150025 224.711538 
L 260.029373 229.831103 
L 260.113547 234.951398 
L 260.40241 240.064231 
L 260.895501 245.161422 
L 261.59203 250.234818 
L 262.490885 255.276303 
L 263.590625 260.27781 
L 264.889494 265.231338 
L 266.385411 270.128963 
L 268.075985 274.96285 
L 269.95851 279.725265 
L 272.029975 284.40859 
L 272.501398 285.408 
L 274.613206 280.742727 
L 276.536763 275.996737 
L 278.268994 271.177621 
L 279.807125 266.293088 
L 281.148697 261.350955 
L 282.291563 256.359125 
L 283.233894 251.325587 
L 283.974185 246.258391 
L 284.511249 241.165645 
L 284.844228 236.055495 
L 284.97259 230.936118 
L 284.896128 225.815702 
L 284.614965 220.70244 
L 284.129551 215.604512 
L 283.440663 210.530072 
L 282.549403 205.48724 
L 281.457195 200.484083 
L 281.110107 199.069552 
L 285.929348 197.33767 
L 290.675478 195.414455 
L 295.340903 193.302984 
L 299.91816 191.006635 
L 304.399927 188.529081 
L 308.779032 185.874286 
L 313.048471 183.046497 
L 317.201414 180.050238 
L 321.231217 176.890302 
L 325.131432 173.571745 
L 328.895821 170.099876 
L 332.518361 166.480247 
L 335.993256 162.718652 
L 339.314949 158.821106 
L 342.478124 154.793846 
L 345.477721 150.643314 
L 348.115256 146.680192 
L 343.00509 147.012909 
L 337.912316 147.549712 
L 332.845083 148.289743 
L 327.811495 149.231816 
L 322.819608 150.374426 
L 317.877405 151.715745 
L 312.992794 153.253625 
L 308.173589 154.985608 
L 303.4275 156.908922 
L 298.762119 159.020491 
L 294.18491 161.316937 
L 289.703196 163.794584 
L 286.598274 165.652169 
L 291.631975 166.593635 
L 296.699298 167.333053 
L 301.792137 167.869241 
L 306.902343 168.201341 
L 312.021743 168.328822 
L 317.142145 168.251479 
L 322.255359 167.969436 
L 327.353204 167.483145 
L 332.427524 166.793384 
L 337.470203 165.901255 
L 342.473173 164.808187 
L 347.428429 163.515928 
L 352.328045 162.026545 
L 356.205823 160.693465 
L 352.356057 164.070417 
L 348.644413 167.598617 
L 345.076828 171.272421 
L 341.659009 175.085952 
L 338.396425 179.033109 
L 335.294295 183.107578 
L 332.357582 187.302839 
L 329.590983 191.612181 
L 326.998925 196.028711 
L 324.585555 200.545363 
L 322.354733 205.154912 
L 320.310028 209.849982 
L 318.454711 214.623063 
L 316.791751 219.466519 
L 315.323808 224.372601 
L 314.053229 229.333461 
L 312.982049 234.341163 
L 312.11198 239.387694 
L 311.444414 244.464983 
L 310.98042 249.564905 
L 310.720739 254.679303 
L 310.665788 259.799995 
L 310.815653 264.918788 
L 310.92206 266.796314 
L 306.378924 269.159451 
L 301.933922 271.702374 
L 297.594165 274.421016 
L 293.366597 277.311028 
L 289.257979 280.367785 
L 285.274886 283.586398 
L 283.157933 285.408 
L 279.245991 282.103274 
L 275.205024 278.957628 
L 271.041498 275.976093 
L 266.762072 273.16344 
L 262.373593 270.524168 
L 257.883082 268.062499 
L 253.297723 265.782373 
L 248.62485 263.687435 
L 243.87194 261.781038 
L 239.046596 260.066232 
L 234.156538 258.54576 
L 229.209589 257.222054 
L 224.213663 256.097233 
L 219.176752 255.173094 
L 214.106915 254.451118 
L 209.012261 253.932459 
L 203.900942 253.617946 
L 198.781135 253.508083 
L 193.661029 253.603046 
L 188.548816 253.902682 
L 183.452675 254.406513 
L 178.380757 255.113731 
L 173.341178 256.023207 
L 168.342 257.133485 
L 163.39122 258.442788 
L 158.496758 259.949023 
L 157.614656 260.243474 
L 161.391543 256.785204 
L 165.027114 253.178666 
L 168.515555 249.429628 
L 171.851283 245.544088 
L 175.028963 241.528263 
L 178.043511 237.388577 
L 180.890105 233.131652 
L 183.56419 228.764299 
L 186.061488 224.293505 
L 188.378005 219.726421 
L 190.510034 215.070355 
L 192.454165 210.332755 
L 194.207287 205.521199 
L 194.577338 204.422516 
L 189.457022 204.505348 
L 184.344113 204.792872 
L 179.246793 205.284627 
L 174.173214 205.979828 
L 169.131495 206.877362 
L 164.1297 207.975792 
L 159.175831 209.273363 
L 154.277814 210.767997 
L 149.443485 212.457304 
L 144.680576 214.338582 
L 139.996709 216.40882 
L 135.399375 218.664708 
L 134.024619 219.384331 
L 135.106721 218.700012 
L 139.365082 215.855568 
L 143.506289 212.84311 
L 147.523718 209.667458 
L 151.410941 206.333692 
L 155.16174 202.847144 
L 158.770114 199.213394 
L 162.23029 195.438254 
L 165.536733 191.527763 
L 168.684153 187.488178 
L 171.667516 183.325961 
L 174.482047 179.047771 
L 177.123246 174.660452 
L 179.586886 170.171022 
L 181.869025 165.586663 
L 183.966014 160.914711 
L 185.874498 156.162638 
L 187.591422 151.338048 
L 189.114041 146.448658 
L 190.439919 141.502291 
L 191.566934 136.506859 
L 192.493283 131.470355 
L 193.217486 126.400835 
L 193.738382 121.306409 
L 194.055139 116.195229 
L 194.167249 111.07547 
L 194.074535 105.955323 
L 193.777143 100.842979 
L 193.27555 95.746617 
L 192.570558 90.674389 
L 191.663294 85.634412 
L 190.555212 80.634746 
L 189.248082 75.683392 
L 187.743996 70.788269 
L 186.045361 65.957209 
L 185.155623 63.648 
L 183.363932 68.445327 
L 181.765517 73.310465 
L 180.362934 78.235631 
L 179.158426 83.212946 
L 178.153922 88.234448 
L 177.351028 93.292101 
L 176.751028 98.377817 
L 176.354883 103.483458 
L 176.163225 108.600857 
L 176.176362 113.721826 
L 176.394273 118.838174 
L 176.816609 123.941715 
L 177.442695 129.024286 
L 178.271528 134.077753 
L 179.301783 139.094035 
L 180.531811 144.065104 
L 181.959646 148.983009 
L 183.583002 153.839882 
L 185.399283 158.627954 
L 186.617967 161.551606 
L 182.607675 164.736267 
L 178.727944 168.078749 
L 174.98498 171.573706 
L 171.38477 175.215545 
L 167.933075 178.998442 
L 164.635417 182.916343 
L 161.497071 186.962982 
L 158.523058 191.131884 
L 155.718135 195.41638 
L 153.086789 199.809617 
L 150.633232 204.304565 
L 148.361386 208.894033 
L 146.274888 213.57068 
L 144.377075 218.327024 
L 142.670983 223.155455 
L 141.159341 228.04825 
L 140.469168 230.546618 
L 145.438228 231.784739 
L 150.452825 232.82316 
L 155.504937 233.66022 
L 160.586481 234.294581 
L 165.689328 234.725226 
L 170.805314 234.951467 
L 175.926256 234.972942 
L 181.04396 234.789618 
L 186.150239 234.401786 
L 191.236925 233.810068 
L 196.295879 233.01541 
L 201.319009 232.019083 
L 206.298279 230.822682 
L 211.225722 229.42812 
L 216.093456 227.837628 
L 220.893694 226.053751 
L 224.757627 224.455805 
L 228.185145 228.260621 
L 231.762073 231.925329 
L 235.48269 235.444067 
L 239.341042 238.811205 
L 243.330958 242.021356 
L 247.446054 245.069386 
L 251.679747 247.950418 
L 256.025265 250.659843 
L 260.475654 253.193326 
L 265.023796 255.546814 
L 269.662414 257.716543 
L 274.384088 259.699041 
L 279.181263 261.491137 
L 284.046267 263.089963 
L 288.971314 264.492962 
L 293.948528 265.69789 
L 298.969944 266.702818 
L 304.02753 267.50614 
L 309.113195 268.106569 
L 310.111477 268.200285 
L 307.080891 264.072325 
L 303.887656 260.068858 
L 300.536879 256.196288 
L 297.033921 252.460812 
L 293.384385 248.868404 
L 289.594111 245.424813 
L 285.669161 242.135546 
L 281.615816 239.005867 
L 277.440559 236.040782 
L 273.15007 233.245034 
L 268.751213 230.623096 
L 264.251025 228.179163 
L 259.656705 225.917144 
L 254.975604 223.840659 
L 252.81615 222.957047 
L 250.320679 227.428861 
L 248.006029 231.996891 
L 245.875903 236.653829 
L 243.933709 241.392223 
L 242.182553 246.204495 
L 240.625238 251.082944 
L 239.264255 256.019768 
L 238.10178 261.007067 
L 237.139674 266.036864 
L 236.379476 271.101111 
L 235.822402 276.191707 
L 235.469343 281.300509 
L 235.333959 285.408 
L 235.287108 283.488092 
L 235.021458 278.374 
L 234.551512 273.274623 
L 233.87802 268.198117 
L 233.002062 263.152604 
L 231.925037 258.146156 
L 230.648669 253.186783 
L 229.175001 248.282417 
L 227.506388 243.440905 
L 225.645502 238.669993 
L 223.595318 233.977313 
L 221.359117 229.370371 
L 218.940477 224.856539 
L 217.393185 222.178882 
L 212.507586 223.713621 
L 207.687268 225.442505 
L 202.939943 227.362767 
L 198.273205 229.471335 
L 193.694521 231.764836 
L 189.211214 234.239602 
L 184.830458 236.891672 
L 180.559261 239.716805 
L 176.404455 242.71048 
L 172.372687 245.867908 
L 168.470408 249.184038 
L 164.703861 252.653566 
L 161.07907 256.27094 
L 157.535052 260.105596 
L 162.530322 258.977863 
L 167.476499 257.651275 
L 172.36567 256.127953 
L 177.190014 254.410336 
L 181.941812 252.501169 
L 186.613463 250.403509 
L 191.197493 248.120711 
L 195.686569 245.656426 
L 200.073509 243.014597 
L 204.351295 240.19945 
L 208.513083 237.21549 
L 212.552216 234.067489 
L 216.462231 230.760484 
L 220.236874 227.299766 
L 223.437588 224.135863 
L 224.909341 229.040804 
L 226.576062 233.882967 
L 228.435084 238.654606 
L 230.483434 243.348087 
L 232.717835 247.955902 
L 235.134712 252.470678 
L 237.730199 256.885194 
L 240.500143 261.192387 
L 243.440113 265.385367 
L 246.545406 269.457425 
L 249.811054 273.402047 
L 253.231833 277.212923 
L 256.80227 280.883956 
L 260.516653 284.409273 
L 261.624905 285.408 
L 265.380113 281.926202 
L 268.993082 278.297021 
L 272.458033 274.526263 
L 275.769422 270.61996 
L 278.921952 266.584361 
L 281.910579 262.425923 
L 284.730523 258.151298 
L 287.377272 253.767324 
L 289.846591 249.281016 
L 292.13453 244.699549 
L 294.23743 240.030255 
L 296.151925 235.280601 
L 297.874954 230.458187 
L 299.403759 225.570728 
L 300.735896 220.626043 
L 301.869231 215.632041 
L 302.801954 210.596713 
L 303.532571 205.528113 
L 304.059914 200.434351 
L 304.383139 195.323576 
L 304.501728 190.203963 
L 304.415493 185.083702 
L 304.124572 179.970986 
L 303.629428 174.873994 
L 302.930856 169.800878 
L 302.029971 164.759756 
L 300.928217 159.758693 
L 299.627354 154.805688 
L 298.129464 149.908665 
L 296.436944 145.07546 
L 294.552502 140.313803 
L 292.479151 135.631312 
L 290.220208 131.035479 
L 287.779289 126.533656 
L 285.160297 122.133044 
L 282.367422 117.840684 
L 279.405133 113.663443 
L 276.278168 109.608003 
L 272.99153 105.680852 
L 269.550477 101.888274 
L 265.960513 98.236334 
L 262.227383 94.730875 
L 258.357058 91.377506 
L 254.355729 88.181591 
L 250.229799 85.148243 
L 245.985867 82.282314 
L 241.630724 79.58839 
L 237.171336 77.07078 
L 232.614837 74.733512 
L 227.968518 72.580325 
L 223.23981 70.614663 
L 218.436279 68.839671 
L 213.56561 67.25819 
L 208.635595 65.872748 
L 203.65412 64.685562 
L 198.339657 63.648 
L 193.31244 64.623494 
L 188.328253 65.799242 
L 183.395071 67.173365 
L 178.520784 68.743663 
L 173.713192 70.507624 
L 168.979985 72.462427 
L 166.378636 73.632868 
L 166.939068 78.723095 
L 167.702607 83.78684 
L 168.668031 88.816001 
L 169.833795 93.802532 
L 171.198035 98.738457 
L 172.758568 103.615878 
L 174.512898 108.426993 
L 176.458218 113.164106 
L 178.591415 117.819637 
L 180.909078 122.386139 
L 183.407498 126.856306 
L 186.082679 131.222988 
L 188.930341 135.479198 
L 191.945928 139.618128 
L 195.224164 143.753705 
L 190.486448 141.809857 
L 185.674788 140.057021 
L 180.796883 138.498003 
L 175.860535 137.135296 
L 170.873641 135.97108 
L 165.844181 135.007218 
L 160.780199 134.245252 
L 155.689798 133.6864 
L 150.58112 133.331558 
L 145.462339 133.181291 
L 140.341643 133.235842 
L 135.227225 133.495122 
L 131.641357 133.799599 
L 133.844974 138.422215 
L 136.231683 142.953012 
L 138.797666 147.384742 
L 141.538819 151.710315 
L 144.450756 155.922811 
L 147.528819 160.015492 
L 150.768083 163.981809 
L 154.163366 167.815417 
L 157.709237 171.510183 
L 161.400023 175.060198 
L 165.22982 178.45978 
L 169.1925 181.703492 
L 173.281724 184.786145 
L 177.490951 187.702806 
L 181.813446 190.448811 
L 186.242294 193.019765 
L 189.004131 194.506086 
L 187.648753 199.444451 
L 186.49194 204.433067 
L 185.535545 209.463952 
L 184.781096 214.529059 
L 184.229801 219.620285 
L 183.882541 224.729483 
L 183.739873 229.848482 
L 183.802024 234.969091 
L 184.068896 240.083119 
L 184.54006 245.182385 
L 185.214764 250.258729 
L 186.091928 255.304033 
L 187.170148 260.310223 
L 188.4477 265.269292 
L 189.92254 270.173305 
L 191.592309 275.014418 
L 193.454335 279.784886 
L 195.505639 284.477076 
L 195.939527 285.408 
L 198.028405 280.732416 
L 199.928639 275.977038 
L 201.637189 271.149476 
L 203.151321 266.257451 
L 204.468613 261.30879 
L 205.586957 256.31141 
L 206.504565 251.273306 
L 207.219969 246.202537 
L 207.732024 241.107215 
L 208.039911 235.995493 
L 208.143137 230.875547 
L 208.041537 225.755568 
L 207.735274 220.643748 
L 207.379132 216.889085 
L 202.468972 218.343331 
L 197.620894 219.992768 
L 192.842654 221.834757 
L 188.141896 223.866351 
L 183.52614 226.0843 
L 179.00277 228.485056 
L 174.579024 231.064779 
L 170.261977 233.81934 
L 166.058537 236.744334 
L 161.975427 239.835081 
L 158.01918 243.086637 
L 154.196126 246.4938 
L 151.285353 249.280799 
L 156.195744 247.827335 
L 161.044085 246.17867 
L 165.822618 244.337442 
L 170.5237 242.306596 
L 175.139809 240.089382 
L 179.663561 237.689346 
L 184.087718 235.110329 
L 188.405203 232.356455 
L 192.60911 229.43213 
L 196.692711 226.342033 
L 200.649476 223.091108 
L 204.473073 219.684554 
L 207.387547 216.894801 
L 205.480194 221.647327 
L 203.764417 226.472326 
L 202.242961 231.362078 
L 200.918261 236.30876 
L 199.792434 241.30446 
L 198.867282 246.341185 
L 198.144286 251.410877 
L 197.624602 256.505426 
L 197.309061 261.616682 
L 197.198168 266.736468 
L 197.292101 271.856592 
L 197.590709 276.968865 
L 198.093515 282.065108 
L 198.535699 285.408 
L 199.172539 280.326766 
L 199.605673 275.22413 
L 199.83441 270.108255 
L 199.858384 264.987324 
L 199.677556 259.869531 
L 199.292216 254.763064 
L 198.702979 249.67609 
L 197.910789 244.616748 
L 196.916913 239.593133 
L 195.722941 234.61328 
L 194.330784 229.685157 
L 192.742667 224.816647 
L 190.961132 220.015539 
L 188.989029 215.289514 
L 186.829513 210.646133 
L 184.486039 206.092823 
L 181.962355 201.636869 
L 179.2625 197.2854 
L 176.390791 193.045378 
L 173.351824 188.923584 
L 170.15046 184.926614 
L 166.791821 181.060861 
L 163.281279 177.332511 
L 159.624452 173.747526 
L 155.827188 170.311644 
L 151.895562 167.03036 
L 147.835866 163.908923 
L 143.654592 160.952328 
L 139.358431 158.165305 
L 134.954255 155.552311 
L 130.44911 153.117527 
L 125.850204 150.864849 
L 122.624216 149.417746 
L 126.794051 152.390451 
L 131.079428 155.19403 
L 135.473489 157.823996 
L 139.969207 160.276143 
L 144.559388 162.546548 
L 149.236689 164.631579 
L 153.993629 166.5279 
L 158.822595 168.232477 
L 163.715864 169.742583 
L 168.665607 171.055803 
L 173.663906 172.170035 
L 178.702764 173.083498 
L 183.77412 173.794729 
L 184.95021 173.930236 
L 179.858372 174.475837 
L 174.792424 175.224621 
L 169.760472 176.17539 
L 164.770566 177.326623 
L 159.830688 178.676477 
L 154.948741 180.222795 
L 150.132536 181.963101 
L 145.389776 183.894613 
L 140.728051 186.014239 
L 136.154816 188.318588 
L 131.677389 190.803976 
L 127.302933 193.466424 
L 123.038445 196.301675 
L 121.375574 197.475542 
L 125.998812 195.273232 
L 130.530283 192.887803 
L 134.962738 190.323072 
L 139.289085 187.583141 
L 143.502404 184.672394 
L 147.595954 181.595487 
L 151.563185 178.357344 
L 155.397753 174.963144 
L 159.093521 171.418316 
L 162.644578 167.728533 
L 166.045242 163.899698 
L 169.290073 159.937934 
L 172.373881 155.849581 
L 175.291731 151.641178 
L 178.038957 147.319459 
L 180.611162 142.891338 
L 183.004232 138.363897 
L 185.214338 133.744381 
L 187.237945 129.040179 
L 189.071816 124.258817 
L 190.713016 119.407944 
L 192.15892 114.495322 
L 193.407216 109.528808 
L 194.455905 104.516348 
L 195.30331 99.465961 
L 195.948076 94.385727 
L 196.389171 89.283773 
L 196.62589 84.168261 
L 196.657853 79.047374 
L 196.485009 73.929305 
L 196.107636 68.822242 
L 195.514687 63.648 
L 194.929925 68.73549 
L 194.549076 73.842295 
L 194.372749 78.960245 
L 194.401227 84.081152 
L 194.634464 89.196824 
L 195.072087 94.299078 
L 195.713395 99.379749 
L 196.557363 104.430712 
L 197.60264 109.443884 
L 198.847555 114.411246 
L 200.290116 119.324852 
L 201.928014 124.17684 
L 203.75863 128.959449 
L 205.655196 133.390951 
L 201.731457 130.100241 
L 197.679263 126.96907 
L 193.505097 124.002449 
L 189.215637 121.205123 
L 184.817745 118.581566 
L 180.318457 116.135978 
L 175.72497 113.872269 
L 171.044633 111.794061 
L 166.284933 109.904679 
L 161.453486 108.207146 
L 156.55802 106.704176 
L 151.606368 105.398176 
L 148.455742 104.676231 
L 151.969681 108.401379 
L 155.629776 111.983028 
L 159.430171 115.415447 
L 163.364786 118.693145 
L 167.427327 121.810879 
L 171.611295 124.76366 
L 175.909995 127.546766 
L 180.316552 130.155743 
L 184.823915 132.586418 
L 189.424873 134.834903 
L 194.112067 136.897599 
L 199.333281 138.938779 
L 197.315747 134.231969 
L 195.111604 129.609605 
L 192.724379 125.079079 
L 190.157891 120.647642 
L 187.416245 116.322381 
L 184.503829 112.110216 
L 181.4253 108.017886 
L 178.185584 104.051939 
L 174.789864 100.218717 
L 171.243572 96.524354 
L 167.552382 92.97476 
L 163.722198 89.575614 
L 159.759149 86.332353 
L 159.268148 85.948594 
L 164.04955 87.782359 
L 168.900459 89.423453 
L 173.813114 90.869249 
L 178.779655 92.117435 
L 183.792138 93.166013 
L 188.842543 94.013308 
L 193.922792 94.657962 
L 199.024756 95.098944 
L 204.140273 95.33555 
L 209.26116 95.3674 
L 214.379225 95.194445 
L 219.48628 94.816959 
L 224.574154 94.235548 
L 229.634708 93.451141 
L 234.659846 92.464993 
L 239.64153 91.278682 
L 244.571788 89.894106 
L 249.442735 88.313479 
L 254.246577 86.539331 
L 258.97563 84.5745 
L 263.622328 82.422129 
L 268.179237 80.085661 
L 272.639067 77.568834 
L 276.994683 74.875675 
L 281.239118 72.010491 
L 285.365581 68.977868 
L 289.367471 65.782656 
L 291.868036 63.648 
L 295.786562 66.944916 
L 299.833796 70.082495 
L 304.003261 73.055718 
L 306.609689 74.790441 
L 306.975052 79.898377 
L 307.544385 84.987616 
L 308.316779 90.050018 
L 309.290997 95.077483 
L 310.46548 100.061968 
L 311.838351 104.995499 
L 313.407411 109.870183 
L 315.170152 114.678223 
L 317.123754 119.411926 
L 319.26509 124.063719 
L 321.590735 128.626161 
L 324.09697 133.091952 
L 326.779783 137.453949 
L 329.634884 141.705172 
L 332.657705 145.838821 
L 335.84341 149.848284 
L 339.186902 153.727145 
L 342.682833 157.469199 
L 346.32561 161.06846 
L 350.109405 164.519169 
L 354.028165 167.815807 
L 358.07562 170.9531 
L 362.245297 173.926028 
L 363.89918 175.037251 
L 363.325806 174.752551 
L 358.689037 172.578872 
L 353.969054 170.592353 
L 349.173406 168.796172 
L 344.309766 167.193203 
L 339.385915 165.78601 
L 334.40973 164.576843 
L 329.389172 163.567639 
L 324.332272 162.76001 
L 319.24712 162.155249 
L 314.141852 161.754324 
L 309.024635 161.557876 
L 303.903656 161.566219 
L 298.787106 161.77934 
L 293.683171 162.196898 
L 288.600017 162.818225 
L 286.104546 163.199177 
L 286.718479 163.017801 
L 291.595739 161.456764 
L 296.406673 159.701938 
L 301.143585 157.756129 
L 305.798895 155.62245 
L 310.365158 153.304316 
L 314.835067 150.805434 
L 319.201473 148.129802 
L 323.457389 145.2817 
L 327.596007 142.265686 
L 331.610706 139.086584 
L 335.495064 135.749479 
L 339.592944 131.919115 
L 334.691126 133.401234 
L 329.852497 135.078187 
L 325.084799 136.947293 
L 320.395659 139.005561 
L 315.792578 141.249698 
L 311.282921 143.676114 
L 306.873902 146.280927 
L 302.572574 149.059971 
L 298.38582 152.008799 
L 294.320335 155.122693 
L 290.382626 158.396673 
L 286.57899 161.825501 
L 285.926716 162.441897 
L 290.870086 163.778906 
L 295.862968 164.917163 
L 300.897375 165.854847 
L 305.965252 166.590459 
L 311.058492 167.122822 
L 316.168946 167.451083 
L 321.28844 167.574718 
L 326.408783 167.493529 
L 331.521783 167.207646 
L 336.619261 166.717526 
L 341.693063 166.023954 
L 346.73507 165.128038 
L 351.737217 164.031212 
L 356.691501 162.735232 
L 357.286499 162.565251 
L 353.669442 166.190357 
L 350.200243 169.957208 
L 346.884453 173.859776 
L 343.727377 177.891819 
L 340.734065 182.046886 
L 337.909305 186.31833 
L 335.257617 190.699318 
L 332.783243 195.182841 
L 330.490141 199.761726 
L 328.381981 204.428647 
L 326.462133 209.17614 
L 324.73367 213.996609 
L 323.199357 218.882342 
L 321.861649 223.825523 
L 320.722685 228.818244 
L 319.784288 233.852517 
L 319.047959 238.92029 
L 318.514875 244.013455 
L 318.18589 249.123863 
L 318.060862 254.431546 
L 313.685529 257.092554 
L 309.420108 259.9264 
L 305.271422 262.92855 
L 301.246109 266.094203 
L 297.350608 269.418293 
L 293.591151 272.895502 
L 289.973753 276.520269 
L 286.5042 280.286793 
L 283.188043 284.189049 
L 282.205813 285.408 
L 278.937616 281.46549 
L 275.514374 277.656826 
L 271.941565 273.988102 
L 268.224904 270.465187 
L 264.370336 267.093717 
L 260.384029 263.879085 
L 256.27236 260.826434 
L 252.041906 257.940648 
L 247.699435 255.226343 
L 243.251895 252.687862 
L 238.7064 250.329266 
L 234.070222 248.154327 
L 229.350778 246.166526 
L 224.555619 244.369043 
L 219.692415 242.764752 
L 214.768946 241.356221 
L 209.79309 240.145703 
L 204.772806 239.135134 
L 199.716125 238.326132 
L 194.631138 237.71999 
L 189.525979 237.317678 
L 184.408816 237.119839 
L 179.287834 237.126791 
L 174.171227 237.338522 
L 169.067179 237.754694 
L 163.983856 238.37464 
L 158.929391 239.197368 
L 153.911869 240.221564 
L 148.939318 241.445587 
L 147.060669 241.963432 
L 150.662797 238.32349 
L 154.116485 234.542413 
L 157.416208 230.62625 
L 160.556686 226.581266 
L 163.532896 222.413932 
L 166.340077 218.130914 
L 168.973737 213.739065 
L 171.429663 209.245411 
L 173.703927 204.657141 
L 175.792889 199.981594 
L 177.693209 195.226251 
L 179.401846 190.398719 
L 180.916066 185.506722 
L 182.233447 180.558085 
L 183.351881 175.560725 
L 184.26958 170.522637 
L 184.985076 165.451881 
L 185.497222 160.356568 
L 185.805201 155.244851 
L 185.908519 150.124907 
L 185.807012 145.004927 
L 185.500841 139.893101 
L 184.990496 134.797608 
L 184.276795 129.726599 
L 183.360878 124.688187 
L 182.244211 119.690432 
L 180.92858 114.741329 
L 179.41609 109.848796 
L 177.709161 105.020661 
L 175.810523 100.264646 
L 173.723214 95.588361 
L 171.450574 90.999286 
L 168.996237 86.504764 
L 166.36413 82.111984 
L 163.774024 78.144189 
L 168.887755 78.416677 
L 174.008293 78.484453 
L 179.127446 78.347408 
L 184.237023 78.005761 
L 189.328851 77.460059 
L 194.394783 76.711174 
L 199.426716 75.760305 
L 204.4166 74.608973 
L 209.356451 73.25902 
L 214.238367 71.712606 
L 219.054538 69.972203 
L 223.797259 68.040598 
L 228.458942 65.920879 
L 232.972457 63.648 
L 237.54686 65.950029 
L 242.20966 68.06729 
L 246.953399 69.996394 
L 251.770487 71.734257 
L 256.653218 73.278097 
L 261.59378 74.625446 
L 266.58427 75.774147 
L 271.616703 76.722362 
L 276.68303 77.468576 
L 281.775145 78.011593 
L 286.884902 78.350546 
L 292.004125 78.484892 
L 297.124627 78.414416 
L 302.238214 78.139231 
L 307.336707 77.659778 
L 308.20714 77.557306 
L 305.214159 81.712613 
L 302.389741 85.984282 
L 299.738403 90.365482 
L 297.264388 94.849202 
L 294.971652 99.42827 
L 292.863864 104.095361 
L 290.944396 108.843007 
L 289.216318 113.663614 
L 287.682396 118.549469 
L 286.345082 123.492757 
L 285.206518 128.485569 
L 284.268523 133.519918 
L 283.532598 138.587749 
L 282.999922 143.680956 
L 282.671346 148.791391 
L 282.556324 152.844343 
L 286.58968 155.999743 
L 290.745991 158.991327 
L 295.018609 161.81431 
L 299.400699 164.464176 
L 303.88525 166.936686 
L 308.465088 169.227883 
L 313.132886 171.334104 
L 317.881177 173.251977 
L 322.702364 174.978435 
L 327.588734 176.510716 
L 332.532471 177.846369 
L 337.525665 178.983257 
L 342.560329 179.919561 
L 347.628407 180.653783 
L 352.721793 181.184748 
L 357.832338 181.511608 
L 360.115125 181.591425 
L 357.353277 177.279037 
L 354.421188 173.080542 
L 351.32355 169.002658 
L 348.065317 165.051908 
L 344.651703 161.234613 
L 341.088169 157.55688 
L 337.380414 154.024592 
L 333.534372 150.6434 
L 329.556195 147.418713 
L 325.452246 144.35569 
L 321.229092 141.459231 
L 316.893489 138.733971 
L 312.452372 136.184268 
L 307.912847 133.814202 
L 303.282175 131.627564 
L 298.567766 129.627853 
L 293.77716 127.818268 
L 288.918022 126.201703 
L 283.998126 124.780745 
L 279.025342 123.557667 
L 274.007625 122.534426 
L 268.953004 121.712658 
L 263.869563 121.093679 
L 258.765437 120.678478 
L 253.648789 120.467719 
L 248.527806 120.461741 
L 243.41068 120.660552 
L 238.305598 121.063835 
L 233.220726 121.670944 
L 228.1642 122.480908 
L 223.144108 123.492431 
L 218.168482 124.703895 
L 213.245281 126.113362 
L 208.382382 127.718577 
L 203.587564 129.516973 
L 198.868499 131.505671 
L 194.232735 133.681491 
L 189.687688 136.040951 
L 185.24063 138.580278 
L 180.898676 141.295408 
L 176.668771 144.181999 
L 172.557682 147.235431 
L 168.571986 150.450821 
L 164.71806 153.823024 
L 161.002068 157.346646 
L 157.429957 161.016049 
L 154.007439 164.825363 
L 150.739991 168.768495 
L 147.63284 172.839136 
L 144.690957 177.030773 
L 141.919048 181.336701 
L 139.321547 185.750032 
L 136.90261 190.263706 
L 134.666106 194.8705 
L 132.615614 199.563046 
L 130.754414 204.333836 
L 129.085484 209.175238 
L 128.746492 210.242346 
L 133.765012 211.261637 
L 138.820279 212.079425 
L 143.904205 212.694402 
L 149.008657 213.105585 
L 154.125469 213.312315 
L 159.246455 213.314262 
L 164.363423 213.111422 
L 169.468186 212.70412 
L 174.552579 212.093008 
L 179.608466 211.279064 
L 184.62776 210.263589 
L 189.602431 209.048208 
L 194.52452 207.634866 
L 196.549786 206.99076 
L 194.122059 211.499712 
L 191.876585 216.10214 
L 189.816954 220.790682 
L 187.946463 225.557837 
L 186.268103 230.395978 
L 184.78456 235.297366 
L 183.498207 240.254159 
L 182.411102 245.258427 
L 181.524983 250.302166 
L 180.841269 255.377305 
L 180.361054 260.475726 
L 180.085105 265.589272 
L 180.013864 270.709763 
L 180.147445 275.829006 
L 180.485634 280.938814 
L 180.950469 285.408 
L 181.46775 280.313206 
L 181.78088 275.201802 
L 181.889357 270.081965 
L 181.793009 264.961885 
L 181.49199 259.849753 
L 180.98678 254.753749 
L 180.278189 249.682023 
L 179.367349 244.64269 
L 178.255719 239.643813 
L 176.945076 234.693387 
L 175.437517 229.799332 
L 173.735454 224.969479 
L 171.84161 220.211553 
L 169.759015 215.533167 
L 167.491 210.941805 
L 165.041193 206.444811 
L 162.413514 202.049381 
L 159.612167 197.762546 
L 156.641633 193.591164 
L 153.506664 189.541908 
L 150.212276 185.621256 
L 146.763739 181.835481 
L 143.166569 178.190639 
L 139.426522 174.692561 
L 135.549581 171.346843 
L 131.541948 168.158837 
L 127.410035 165.133644 
L 123.160451 162.276104 
L 118.799995 159.590787 
L 117.264393 158.701232 
L 121.73601 161.197057 
L 126.303856 163.51207 
L 130.960624 165.642565 
L 135.698865 167.585136 
L 140.510997 169.336673 
L 145.389323 170.894375 
L 150.326039 172.25575 
L 155.313246 173.418621 
L 160.342966 174.381126 
L 165.407153 175.141726 
L 170.497705 175.699204 
L 175.606479 176.052669 
L 180.7253 176.201554 
L 184.97304 176.169644 
L 182.415621 176.297672 
L 177.311021 176.707013 
L 172.226874 177.320156 
L 167.171312 178.136121 
L 162.152424 179.153601 
L 157.178239 180.37097 
L 152.256715 181.786279 
L 147.395724 183.397264 
L 142.603045 185.201349 
L 137.886342 187.195646 
L 133.253164 189.376967 
L 128.710921 191.74182 
L 124.26688 194.286422 
L 120.783963 196.450841 
L 121.35248 196.156562 
L 125.846203 193.700763 
L 130.238126 191.067226 
L 134.521223 188.260166 
L 138.688641 185.284074 
L 142.733714 182.143709 
L 146.64997 178.844097 
L 150.431144 175.390516 
L 154.071187 171.78849 
L 157.564276 168.043783 
L 160.904822 164.162385 
L 164.087482 160.150505 
L 167.107164 156.014562 
L 169.959036 151.761173 
L 172.638538 147.397141 
L 175.141381 142.929448 
L 177.463562 138.365242 
L 179.601366 133.711824 
L 181.551373 128.97664 
L 183.310463 124.167263 
L 184.875823 119.291389 
L 186.244947 114.356817 
L 187.415646 109.371441 
L 188.386047 104.343239 
L 189.154597 99.280252 
L 189.720066 94.190581 
L 190.081551 89.082369 
L 190.238473 83.963788 
L 190.19058 78.843025 
L 189.93795 73.728274 
L 189.480987 68.627717 
L 188.835202 63.648 
L 188.178586 68.726716 
L 187.72559 73.827628 
L 187.476939 78.942574 
L 187.43303 84.063372 
L 187.593933 89.18183 
L 187.959391 94.289759 
L 188.52882 99.378988 
L 189.301307 104.441375 
L 190.275619 109.468822 
L 191.450195 114.453285 
L 192.823158 119.386791 
L 194.392309 124.261446 
L 196.15514 129.069453 
L 198.10883 133.803119 
L 200.105947 138.156237 
L 195.467523 135.986094 
L 190.746026 134.003175 
L 185.94901 132.210651 
L 181.08415 130.61139 
L 176.159227 129.207951 
L 171.182122 128.00258 
L 166.160795 126.997203 
L 161.103281 126.19343 
L 156.01767 125.592547 
L 150.912097 125.195515 
L 145.794732 125.002968 
L 140.67376 125.015216 
L 136.623606 125.170091 
L 139.031637 129.689592 
L 141.618474 134.109182 
L 144.379978 138.421792 
L 147.311731 142.62052 
L 150.409044 146.698652 
L 153.66696 150.649662 
L 157.08027 154.467229 
L 160.64351 158.145248 
L 164.350983 161.677832 
L 168.196755 165.059331 
L 172.174675 168.284336 
L 176.278379 171.347686 
L 180.501301 174.244482 
L 185.010052 177.074117 
L 180.961817 180.210405 
L 177.042239 183.506069 
L 173.257587 186.955839 
L 169.613916 190.554195 
L 166.117056 194.295381 
L 162.772601 198.173411 
L 159.5859 202.182082 
L 156.562053 206.31498 
L 153.705896 210.565494 
L 151.021999 214.926824 
L 148.514655 219.391993 
L 146.187877 223.953857 
L 144.045385 228.605118 
L 142.086723 233.348305 
L 147.163142 234.022451 
L 152.262459 234.493056 
L 157.376516 234.759365 
L 162.497132 234.820955 
L 167.616115 234.677724 
L 172.725276 234.329904 
L 177.81644 233.77805 
L 182.881465 233.023045 
L 187.912245 232.066097 
L 192.900734 230.908737 
L 197.83895 229.552816 
L 202.718994 228.000504 
L 207.533059 226.254284 
L 212.273442 224.31695 
L 217.155063 222.084411 
L 219.057018 226.8391 
L 221.147589 231.513928 
L 223.423431 236.101416 
L 225.880903 240.594225 
L 228.516074 244.985168 
L 231.324727 249.267219 
L 234.302371 253.433529 
L 237.444241 257.477433 
L 240.74531 261.392461 
L 244.200299 265.172349 
L 247.803679 268.811052 
L 251.549686 272.302747 
L 255.432327 275.641848 
L 259.445391 278.823015 
L 263.582457 281.841157 
L 267.836908 284.691446 
L 268.967108 285.408 
L 273.251117 282.602333 
L 277.419503 279.627596 
L 281.465597 276.488548 
L 285.382926 273.190209 
L 289.165223 269.737858 
L 292.806438 266.137017 
L 296.300745 262.393446 
L 299.642553 258.513134 
L 302.826518 254.50229 
L 305.847545 250.36733 
L 308.700801 246.114868 
L 311.381721 241.751707 
L 313.886017 237.284829 
L 316.209683 232.721379 
L 318.349 228.068656 
L 320.300547 223.334106 
L 322.061202 218.525302 
L 323.628147 213.649937 
L 324.998876 208.715811 
L 326.171196 203.730816 
L 327.143232 198.702929 
L 327.913429 193.640193 
L 328.480554 188.550707 
L 328.843701 183.442613 
L 329.002287 178.324082 
L 328.95606 173.203305 
L 328.705094 168.088471 
L 328.249789 162.987766 
L 327.590875 157.909347 
L 326.729406 152.86134 
L 325.666759 147.851821 
L 324.404634 142.888803 
L 322.945052 137.980227 
L 321.290346 133.133945 
L 319.443165 128.35771 
L 317.406462 123.659163 
L 315.183497 119.045821 
L 312.777825 114.525063 
L 310.193296 110.104123 
L 307.434043 105.790073 
L 304.504482 101.589815 
L 301.409299 97.510067 
L 298.153444 93.557357 
L 294.742128 89.738008 
L 291.180808 86.058131 
L 287.47518 82.523612 
L 283.631174 79.140106 
L 279.654937 75.913025 
L 275.552833 72.847533 
L 271.331423 69.948533 
L 266.997461 67.220664 
L 262.557879 64.668289 
L 260.660396 63.648 
L 256.178496 66.125312 
L 251.799248 68.779871 
L 247.529656 71.60743 
L 243.376551 74.603465 
L 239.346579 77.763183 
L 235.446184 81.08153 
L 231.681608 84.553197 
L 228.058873 88.172629 
L 224.583775 91.934038 
L 221.261872 95.831404 
L 218.09848 99.858494 
L 215.098659 104.008864 
L 212.267207 108.275876 
L 209.608656 112.652702 
L 207.127258 117.13234 
L 204.826982 121.707625 
L 202.711508 126.371237 
L 200.784222 131.115715 
L 199.048206 135.933468 
L 197.455207 140.990873 
L 192.837943 143.205681 
L 188.312941 145.603358 
L 183.88744 148.180069 
L 179.568519 150.931692 
L 175.363089 153.853825 
L 171.277877 156.941793 
L 167.319419 160.190655 
L 163.494046 163.595215 
L 159.80788 167.150026 
L 156.266817 170.849401 
L 152.876521 174.687421 
L 149.642418 178.657947 
L 146.56968 182.754626 
L 143.663223 186.970906 
L 140.927698 191.30004 
L 138.36748 195.735103 
L 135.986665 200.269 
L 133.789062 204.894478 
L 131.778186 209.604136 
L 130.414852 213.13203 
L 135.478638 213.895294 
L 140.568896 214.455449 
L 145.677483 214.8116 
L 150.796225 214.963177 
L 155.916935 214.909938 
L 161.03142 214.651967 
L 166.131497 214.189679 
L 171.209009 213.523811 
L 176.255831 212.655429 
L 181.26389 211.585923 
L 186.225175 210.317004 
L 191.131748 208.850701 
L 195.97576 207.189361 
L 196.541774 206.980982 
L 193.938405 211.390854 
L 191.513465 215.901305 
L 189.270835 220.50512 
L 187.214103 225.194934 
L 185.346558 229.963244 
L 183.671189 234.802421 
L 182.190675 239.704725 
L 180.907386 244.662312 
L 179.823373 249.667252 
L 178.940372 254.711537 
L 178.259794 259.787097 
L 177.78273 264.885814 
L 177.509941 269.99953 
L 177.441865 275.120063 
L 177.578609 280.239224 
L 177.925114 285.408 
L 178.268832 280.298562 
L 178.407952 275.179465 
L 178.342251 270.0589 
L 178.071835 264.945059 
L 177.597136 259.846121 
L 176.918914 254.770245 
L 176.038253 249.725551 
L 174.956563 244.720109 
L 173.675573 239.761927 
L 172.197334 234.858937 
L 170.52421 230.018983 
L 168.658878 225.249807 
L 166.604322 220.55904 
L 164.363828 215.954185 
L 161.940982 211.442609 
L 159.339659 207.03153 
L 156.56402 202.728004 
L 153.618506 198.538917 
L 150.50783 194.47097 
L 147.236968 190.53067 
L 143.811151 186.724322 
L 140.235862 183.058015 
L 136.51682 179.537614 
L 132.659973 176.168751 
L 128.671494 172.956815 
L 124.557761 169.906945 
L 120.325357 167.02402 
L 115.981052 164.312652 
L 114.520307 163.454128 
L 117.877132 165.320641 
L 122.43711 167.651113 
L 127.086635 169.797371 
L 131.818268 171.75598 
L 136.624439 173.523808 
L 141.497461 175.098027 
L 146.429537 176.476117 
L 151.412776 177.655875 
L 156.439207 178.635412 
L 161.500788 179.413162 
L 166.589423 179.987881 
L 171.696969 180.358649 
L 176.815257 180.524873 
L 181.936098 180.486287 
L 185.278782 180.3505 
L 184.648585 180.463035 
L 179.628876 181.476453 
L 174.653707 182.689795 
L 169.731039 184.10112 
L 164.868746 185.70817 
L 160.074607 187.508375 
L 155.356293 189.498854 
L 150.72135 191.676424 
L 146.177194 194.037599 
L 141.731095 196.578604 
L 137.390166 199.295373 
L 133.16135 202.18356 
L 129.051414 205.238544 
L 126.860124 206.975062 
L 126.860124 206.975062 
" style="fill:none;stroke:#1f77b4;stroke-linecap:square;stroke-width:1.5;"/>
   </g>
   <g id="patch_4">
    <path d="M 82.520165 307.584 
L 82.520165 41.472 
" style="fill:none;stroke:#000000;stroke-linecap:square;stroke-linejoin:miter;stroke-width:0.8;"/>
   </g>
   <g id="patch_5">
    <path d="M 389.799835 307.584 
L 389.799835 41.472 
" style="fill:none;stroke:#000000;stroke-linecap:square;stroke-linejoin:miter;stroke-width:0.8;"/>
   </g>
   <g id="patch_6">
    <path d="M 82.520165 307.584 
L 389.799835 307.584 
" style="fill:none;stroke:#000000;stroke-linecap:square;stroke-linejoin:miter;stroke-width:0.8;"/>
   </g>
   <g id="patch_7">
    <path d="M 82.520165 41.472 
L 389.799835 41.472 
" style="fill:none;stroke:#000000;stroke-linecap:square;stroke-linejoin:miter;stroke-width:0.8;"/>
   </g>
  </g>
 </g>
 <defs>
  <clipPath id="p9c1ec6d083">
   <rect height="266.112" width="307.27967" x="82.520165" y="41.472"/>
  </clipPath>
 </defs>
</svg>
