<?xml version="1.0" encoding="utf-8" standalone="no"?>
<!DOCTYPE svg PUBLIC "-//W3C//DTD SVG 1.1//EN"
  "http://www.w3.org/Graphics/SVG/1.1/DTD/svg11.dtd">
<!-- Created with matplotlib (https://matplotlib.org/) -->
<svg height="345.6pt" version="1.1" viewBox="0 0 460.8 345.6" width="460.8pt" xmlns="http://www.w3.org/2000/svg" xmlns:xlink="http://www.w3.org/1999/xlink">
 <defs>
  <style type="text/css">
*{stroke-linecap:butt;stroke-linejoin:round;}
  </style>
 </defs>
 <g id="figure_1">
  <g id="patch_1">
   <path d="M 0 345.6 
L 460.8 345.6 
L 460.8 0 
L 0 0 
z
" style="fill:#ffffff;"/>
  </g>
  <g id="axes_1">
   <g id="patch_2">
    <path d="M 82.520165 307.584 
L 389.799835 307.584 
L 389.799835 41.472 
L 82.520165 41.472 
z
" style="fill:#ffffff;"/>
   </g>
   <g id="patch_3">
    <path clip-path="url(#p4d37c9167d)" d="M 236.16 225.741278 
C 249.74192 225.741278 262.769389 220.345124 272.373256 210.741256 
C 281.977124 201.137389 287.373278 188.10992 287.373278 174.528 
C 287.373278 160.94608 281.977124 147.918611 272.373256 138.314744 
C 262.769389 128.710876 249.74192 123.314722 236.16 123.314722 
C 222.57808 123.314722 209.550611 128.710876 199.946744 138.314744 
C 190.342876 147.918611 184.946722 160.94608 184.946722 174.528 
C 184.946722 188.10992 190.342876 201.137389 199.946744 210.741256 
C 209.550611 220.345124 222.57808 225.741278 236.16 225.741278 
z
" style="fill:#009900;fill-opacity:0.5;stroke:#009900;stroke-linejoin:miter;stroke-width:2;"/>
   </g>
   <g id="matplotlib.axis_1">
    <g id="xtick_1">
     <g id="line2d_1">
      <defs>
       <path d="M 0 0 
L 0 3.5 
" id="maf988eca52" style="stroke:#000000;stroke-width:0.8;"/>
      </defs>
      <g>
       <use style="stroke:#000000;stroke-width:0.8;" x="108.126804" xlink:href="#maf988eca52" y="307.584"/>
      </g>
     </g>
     <g id="text_1">
      <!-- −2 -->
      <defs>
       <path d="M 10.59375 35.5 
L 73.1875 35.5 
L 73.1875 27.203125 
L 10.59375 27.203125 
z
" id="DejaVuSans-8722"/>
       <path d="M 19.1875 8.296875 
L 53.609375 8.296875 
L 53.609375 0 
L 7.328125 0 
L 7.328125 8.296875 
Q 12.9375 14.109375 22.625 23.890625 
Q 32.328125 33.6875 34.8125 36.53125 
Q 39.546875 41.84375 41.421875 45.53125 
Q 43.3125 49.21875 43.3125 52.78125 
Q 43.3125 58.59375 39.234375 62.25 
Q 35.15625 65.921875 28.609375 65.921875 
Q 23.96875 65.921875 18.8125 64.3125 
Q 13.671875 62.703125 7.8125 59.421875 
L 7.8125 69.390625 
Q 13.765625 71.78125 18.9375 73 
Q 24.125 74.21875 28.421875 74.21875 
Q 39.75 74.21875 46.484375 68.546875 
Q 53.21875 62.890625 53.21875 53.421875 
Q 53.21875 48.921875 51.53125 44.890625 
Q 49.859375 40.875 45.40625 35.40625 
Q 44.1875 33.984375 37.640625 27.21875 
Q 31.109375 20.453125 19.1875 8.296875 
z
" id="DejaVuSans-50"/>
      </defs>
      <g transform="translate(100.755711 322.182437)scale(0.1 -0.1)">
       <use xlink:href="#DejaVuSans-8722"/>
       <use x="83.789062" xlink:href="#DejaVuSans-50"/>
      </g>
     </g>
    </g>
    <g id="xtick_2">
     <g id="line2d_2">
      <g>
       <use style="stroke:#000000;stroke-width:0.8;" x="172.143402" xlink:href="#maf988eca52" y="307.584"/>
      </g>
     </g>
     <g id="text_2">
      <!-- −1 -->
      <defs>
       <path d="M 12.40625 8.296875 
L 28.515625 8.296875 
L 28.515625 63.921875 
L 10.984375 60.40625 
L 10.984375 69.390625 
L 28.421875 72.90625 
L 38.28125 72.90625 
L 38.28125 8.296875 
L 54.390625 8.296875 
L 54.390625 0 
L 12.40625 0 
z
" id="DejaVuSans-49"/>
      </defs>
      <g transform="translate(164.772308 322.182437)scale(0.1 -0.1)">
       <use xlink:href="#DejaVuSans-8722"/>
       <use x="83.789062" xlink:href="#DejaVuSans-49"/>
      </g>
     </g>
    </g>
    <g id="xtick_3">
     <g id="line2d_3">
      <g>
       <use style="stroke:#000000;stroke-width:0.8;" x="236.16" xlink:href="#maf988eca52" y="307.584"/>
      </g>
     </g>
     <g id="text_3">
      <!-- 0 -->
      <defs>
       <path d="M 31.78125 66.40625 
Q 24.171875 66.40625 20.328125 58.90625 
Q 16.5 51.421875 16.5 36.375 
Q 16.5 21.390625 20.328125 13.890625 
Q 24.171875 6.390625 31.78125 6.390625 
Q 39.453125 6.390625 43.28125 13.890625 
Q 47.125 21.390625 47.125 36.375 
Q 47.125 51.421875 43.28125 58.90625 
Q 39.453125 66.40625 31.78125 66.40625 
z
M 31.78125 74.21875 
Q 44.046875 74.21875 50.515625 64.515625 
Q 56.984375 54.828125 56.984375 36.375 
Q 56.984375 17.96875 50.515625 8.265625 
Q 44.046875 -1.421875 31.78125 -1.421875 
Q 19.53125 -1.421875 13.0625 8.265625 
Q 6.59375 17.96875 6.59375 36.375 
Q 6.59375 54.828125 13.0625 64.515625 
Q 19.53125 74.21875 31.78125 74.21875 
z
" id="DejaVuSans-48"/>
      </defs>
      <g transform="translate(232.97875 322.182437)scale(0.1 -0.1)">
       <use xlink:href="#DejaVuSans-48"/>
      </g>
     </g>
    </g>
    <g id="xtick_4">
     <g id="line2d_4">
      <g>
       <use style="stroke:#000000;stroke-width:0.8;" x="300.176598" xlink:href="#maf988eca52" y="307.584"/>
      </g>
     </g>
     <g id="text_4">
      <!-- 1 -->
      <g transform="translate(296.995348 322.182437)scale(0.1 -0.1)">
       <use xlink:href="#DejaVuSans-49"/>
      </g>
     </g>
    </g>
    <g id="xtick_5">
     <g id="line2d_5">
      <g>
       <use style="stroke:#000000;stroke-width:0.8;" x="364.193196" xlink:href="#maf988eca52" y="307.584"/>
      </g>
     </g>
     <g id="text_5">
      <!-- 2 -->
      <g transform="translate(361.011946 322.182437)scale(0.1 -0.1)">
       <use xlink:href="#DejaVuSans-50"/>
      </g>
     </g>
    </g>
   </g>
   <g id="matplotlib.axis_2">
    <g id="ytick_1">
     <g id="line2d_6">
      <defs>
       <path d="M 0 0 
L -3.5 0 
" id="m46035542af" style="stroke:#000000;stroke-width:0.8;"/>
      </defs>
      <g>
       <use style="stroke:#000000;stroke-width:0.8;" x="82.520165" xlink:href="#m46035542af" y="302.561196"/>
      </g>
     </g>
     <g id="text_6">
      <!-- −2.0 -->
      <defs>
       <path d="M 10.6875 12.40625 
L 21 12.40625 
L 21 0 
L 10.6875 0 
z
" id="DejaVuSans-46"/>
      </defs>
      <g transform="translate(51.237353 306.360414)scale(0.1 -0.1)">
       <use xlink:href="#DejaVuSans-8722"/>
       <use x="83.789062" xlink:href="#DejaVuSans-50"/>
       <use x="147.412109" xlink:href="#DejaVuSans-46"/>
       <use x="179.199219" xlink:href="#DejaVuSans-48"/>
      </g>
     </g>
    </g>
    <g id="ytick_2">
     <g id="line2d_7">
      <g>
       <use style="stroke:#000000;stroke-width:0.8;" x="82.520165" xlink:href="#m46035542af" y="270.552897"/>
      </g>
     </g>
     <g id="text_7">
      <!-- −1.5 -->
      <defs>
       <path d="M 10.796875 72.90625 
L 49.515625 72.90625 
L 49.515625 64.59375 
L 19.828125 64.59375 
L 19.828125 46.734375 
Q 21.96875 47.46875 24.109375 47.828125 
Q 26.265625 48.1875 28.421875 48.1875 
Q 40.625 48.1875 47.75 41.5 
Q 54.890625 34.8125 54.890625 23.390625 
Q 54.890625 11.625 47.5625 5.09375 
Q 40.234375 -1.421875 26.90625 -1.421875 
Q 22.3125 -1.421875 17.546875 -0.640625 
Q 12.796875 0.140625 7.71875 1.703125 
L 7.71875 11.625 
Q 12.109375 9.234375 16.796875 8.0625 
Q 21.484375 6.890625 26.703125 6.890625 
Q 35.15625 6.890625 40.078125 11.328125 
Q 45.015625 15.765625 45.015625 23.390625 
Q 45.015625 31 40.078125 35.4375 
Q 35.15625 39.890625 26.703125 39.890625 
Q 22.75 39.890625 18.8125 39.015625 
Q 14.890625 38.140625 10.796875 36.28125 
z
" id="DejaVuSans-53"/>
      </defs>
      <g transform="translate(51.237353 274.352116)scale(0.1 -0.1)">
       <use xlink:href="#DejaVuSans-8722"/>
       <use x="83.789062" xlink:href="#DejaVuSans-49"/>
       <use x="147.412109" xlink:href="#DejaVuSans-46"/>
       <use x="179.199219" xlink:href="#DejaVuSans-53"/>
      </g>
     </g>
    </g>
    <g id="ytick_3">
     <g id="line2d_8">
      <g>
       <use style="stroke:#000000;stroke-width:0.8;" x="82.520165" xlink:href="#m46035542af" y="238.544598"/>
      </g>
     </g>
     <g id="text_8">
      <!-- −1.0 -->
      <g transform="translate(51.237353 242.343817)scale(0.1 -0.1)">
       <use xlink:href="#DejaVuSans-8722"/>
       <use x="83.789062" xlink:href="#DejaVuSans-49"/>
       <use x="147.412109" xlink:href="#DejaVuSans-46"/>
       <use x="179.199219" xlink:href="#DejaVuSans-48"/>
      </g>
     </g>
    </g>
    <g id="ytick_4">
     <g id="line2d_9">
      <g>
       <use style="stroke:#000000;stroke-width:0.8;" x="82.520165" xlink:href="#m46035542af" y="206.536299"/>
      </g>
     </g>
     <g id="text_9">
      <!-- −0.5 -->
      <g transform="translate(51.237353 210.335518)scale(0.1 -0.1)">
       <use xlink:href="#DejaVuSans-8722"/>
       <use x="83.789062" xlink:href="#DejaVuSans-48"/>
       <use x="147.412109" xlink:href="#DejaVuSans-46"/>
       <use x="179.199219" xlink:href="#DejaVuSans-53"/>
      </g>
     </g>
    </g>
    <g id="ytick_5">
     <g id="line2d_10">
      <g>
       <use style="stroke:#000000;stroke-width:0.8;" x="82.520165" xlink:href="#m46035542af" y="174.528"/>
      </g>
     </g>
     <g id="text_10">
      <!-- 0.0 -->
      <g transform="translate(59.61704 178.327219)scale(0.1 -0.1)">
       <use xlink:href="#DejaVuSans-48"/>
       <use x="63.623047" xlink:href="#DejaVuSans-46"/>
       <use x="95.410156" xlink:href="#DejaVuSans-48"/>
      </g>
     </g>
    </g>
    <g id="ytick_6">
     <g id="line2d_11">
      <g>
       <use style="stroke:#000000;stroke-width:0.8;" x="82.520165" xlink:href="#m46035542af" y="142.519701"/>
      </g>
     </g>
     <g id="text_11">
      <!-- 0.5 -->
      <g transform="translate(59.61704 146.31892)scale(0.1 -0.1)">
       <use xlink:href="#DejaVuSans-48"/>
       <use x="63.623047" xlink:href="#DejaVuSans-46"/>
       <use x="95.410156" xlink:href="#DejaVuSans-53"/>
      </g>
     </g>
    </g>
    <g id="ytick_7">
     <g id="line2d_12">
      <g>
       <use style="stroke:#000000;stroke-width:0.8;" x="82.520165" xlink:href="#m46035542af" y="110.511402"/>
      </g>
     </g>
     <g id="text_12">
      <!-- 1.0 -->
      <g transform="translate(59.61704 114.310621)scale(0.1 -0.1)">
       <use xlink:href="#DejaVuSans-49"/>
       <use x="63.623047" xlink:href="#DejaVuSans-46"/>
       <use x="95.410156" xlink:href="#DejaVuSans-48"/>
      </g>
     </g>
    </g>
    <g id="ytick_8">
     <g id="line2d_13">
      <g>
       <use style="stroke:#000000;stroke-width:0.8;" x="82.520165" xlink:href="#m46035542af" y="78.503103"/>
      </g>
     </g>
     <g id="text_13">
      <!-- 1.5 -->
      <g transform="translate(59.61704 82.302322)scale(0.1 -0.1)">
       <use xlink:href="#DejaVuSans-49"/>
       <use x="63.623047" xlink:href="#DejaVuSans-46"/>
       <use x="95.410156" xlink:href="#DejaVuSans-53"/>
      </g>
     </g>
    </g>
    <g id="ytick_9">
     <g id="line2d_14">
      <g>
       <use style="stroke:#000000;stroke-width:0.8;" x="82.520165" xlink:href="#m46035542af" y="46.494804"/>
      </g>
     </g>
     <g id="text_14">
      <!-- 2.0 -->
      <g transform="translate(59.61704 50.294023)scale(0.1 -0.1)">
       <use xlink:href="#DejaVuSans-50"/>
       <use x="63.623047" xlink:href="#DejaVuSans-46"/>
       <use x="95.410156" xlink:href="#DejaVuSans-48"/>
      </g>
     </g>
    </g>
   </g>
   <g id="line2d_15">
    <path clip-path="url(#p4d37c9167d)" d="M 300.176598 63.648 
L 172.143402 63.648 
" style="fill:none;stroke:#009900;stroke-linecap:square;stroke-width:2;"/>
   </g>
   <g id="line2d_16">
    <path clip-path="url(#p4d37c9167d)" d="M 172.143402 63.648 
L 108.126804 174.528 
" style="fill:none;stroke:#009900;stroke-linecap:square;stroke-width:2;"/>
   </g>
   <g id="line2d_17">
    <path clip-path="url(#p4d37c9167d)" d="M 108.126804 174.528 
L 172.143402 285.408 
" style="fill:none;stroke:#009900;stroke-linecap:square;stroke-width:2;"/>
   </g>
   <g id="line2d_18">
    <path clip-path="url(#p4d37c9167d)" d="M 172.143402 285.408 
L 300.176598 285.408 
" style="fill:none;stroke:#009900;stroke-linecap:square;stroke-width:2;"/>
   </g>
   <g id="line2d_19">
    <path clip-path="url(#p4d37c9167d)" d="M 300.176598 285.408 
L 364.193196 174.528 
" style="fill:none;stroke:#009900;stroke-linecap:square;stroke-width:2;"/>
   </g>
   <g id="line2d_20">
    <path clip-path="url(#p4d37c9167d)" d="M 364.193196 174.528 
L 300.176598 63.648 
" style="fill:none;stroke:#009900;stroke-linecap:square;stroke-width:2;"/>
   </g>
   <g id="line2d_21">
    <path clip-path="url(#p4d37c9167d)" d="M 193.571307 259.753103 
L 192.502126 264.761232 
L 191.634073 269.808111 
L 190.968535 274.885666 
L 190.506578 279.985773 
L 190.239973 285.408 
L 190.171951 283.488725 
L 189.849915 278.377874 
L 189.323757 273.28399 
L 188.59432 268.215221 
L 187.662769 263.179675 
L 186.530595 258.18541 
L 185.199609 253.240415 
L 183.671941 248.3526 
L 181.950035 243.529786 
L 180.036644 238.779687 
L 177.934831 234.109903 
L 175.647958 229.527904 
L 173.179683 225.041021 
L 170.533954 220.656432 
L 167.715005 216.381151 
L 164.727346 212.222017 
L 161.575755 208.185685 
L 158.265275 204.278612 
L 154.801201 200.507047 
L 151.189077 196.877026 
L 147.434679 193.394354 
L 143.544015 190.064605 
L 139.523308 186.893103 
L 135.378991 183.884924 
L 131.117695 181.04488 
L 126.746235 178.377514 
L 122.271606 175.887093 
L 117.700966 173.577602 
L 113.041626 171.452735 
L 110.51435 170.39265 
L 114.619625 173.453894 
L 118.844034 176.348522 
L 123.180818 179.071904 
L 127.623039 181.619682 
L 132.163591 183.98778 
L 136.79521 186.172411 
L 141.510486 188.170078 
L 146.301875 189.977587 
L 151.161713 191.592046 
L 156.082225 193.010872 
L 161.055538 194.231795 
L 166.073698 195.252861 
L 171.128675 196.072438 
L 176.212383 196.689215 
L 181.31669 197.102204 
L 186.433428 197.310744 
L 190.304191 197.332487 
L 187.257012 201.448213 
L 184.376857 205.682503 
L 181.668331 210.02858 
L 179.135769 214.479494 
L 176.783222 219.028122 
L 174.614453 223.66719 
L 172.632932 228.389274 
L 170.841829 233.18682 
L 169.24401 238.052154 
L 167.84203 242.977492 
L 166.638132 247.954954 
L 165.634243 252.976578 
L 164.831968 258.034331 
L 164.232591 263.12012 
L 163.837071 268.225809 
L 163.714999 270.809578 
L 168.288821 273.112763 
L 172.951087 275.231201 
L 177.694338 277.161503 
L 182.510987 278.900583 
L 187.393328 280.445656 
L 192.333549 281.794252 
L 197.323749 282.944213 
L 202.355943 283.8937 
L 207.422081 284.641193 
L 212.514059 285.185496 
L 215.480233 285.408 
L 220.583481 284.982134 
L 225.665617 284.352533 
L 230.71851 283.520204 
L 235.734077 282.48648 
L 240.704295 281.253013 
L 245.621211 279.821776 
L 250.47696 278.195061 
L 255.263774 276.375469 
L 259.973994 274.36591 
L 264.600086 272.169601 
L 269.134649 269.790054 
L 273.570428 267.231076 
L 277.900326 264.496761 
L 282.117419 261.591484 
L 286.214957 258.519892 
L 290.186387 255.286898 
L 294.025356 251.897677 
L 297.72572 248.357648 
L 301.281562 244.672476 
L 304.687191 240.848056 
L 307.937161 236.890506 
L 311.026271 232.806158 
L 313.949579 228.601545 
L 316.70241 224.283394 
L 319.280359 219.858614 
L 321.679302 215.334282 
L 323.8954 210.717638 
L 325.92511 206.016065 
L 327.765183 201.237087 
L 329.412676 196.388348 
L 330.864954 191.477606 
L 332.119692 186.512716 
L 333.174885 181.501621 
L 334.028843 176.452338 
L 334.6802 171.372945 
L 335.127915 166.271567 
L 335.371271 161.156367 
L 335.409879 156.035526 
L 335.243676 150.917237 
L 334.87293 145.809689 
L 334.298233 140.721052 
L 333.520505 135.659467 
L 332.540989 130.633032 
L 331.361253 125.649788 
L 329.983184 120.717706 
L 328.408987 115.844678 
L 326.641179 111.038499 
L 324.68259 106.306857 
L 324.279774 105.395927 
L 321.193042 101.309782 
L 317.945375 97.350341 
L 314.541972 93.52394 
L 310.988275 89.8367 
L 307.289971 86.294519 
L 303.452975 82.903064 
L 299.483427 79.66776 
L 295.387676 76.593785 
L 291.172275 73.686054 
L 286.843968 70.94922 
L 282.409679 68.387662 
L 277.876501 66.005477 
L 272.899025 63.648 
L 268.267592 65.833025 
L 263.727242 68.20151 
L 259.285238 70.749666 
L 254.948685 73.473417 
L 250.724523 76.368404 
L 246.619508 79.429998 
L 242.640208 82.653299 
L 238.792988 86.033152 
L 235.084004 89.564148 
L 231.519189 93.240641 
L 228.104246 97.056747 
L 224.844638 101.006362 
L 221.74558 105.083167 
L 218.812029 109.28064 
L 216.048679 113.592067 
L 213.459951 118.010549 
L 211.049985 122.529019 
L 208.822638 127.140247 
L 206.781472 131.836857 
L 206.358659 132.878511 
L 201.251141 133.249673 
L 196.162551 133.824786 
L 191.10103 134.602927 
L 186.074675 135.582853 
L 181.091527 136.762996 
L 176.159558 138.141467 
L 171.286658 139.716062 
L 166.480623 141.484262 
L 161.749141 143.443237 
L 157.099783 145.589854 
L 152.539985 147.920679 
L 148.077042 150.431982 
L 143.718095 153.119747 
L 139.470116 155.979674 
L 135.339902 159.007186 
L 131.33406 162.197442 
L 127.458998 165.545336 
L 123.720916 169.045514 
L 120.125794 172.692376 
L 116.679383 176.480086 
L 113.387197 180.402587 
L 112.304874 181.764628 
L 117.359578 180.943368 
L 122.377397 179.920629 
L 127.350304 178.69805 
L 132.270342 177.277585 
L 137.129642 175.661508 
L 141.920429 173.852403 
L 146.635039 171.853165 
L 151.26593 169.666991 
L 155.805693 167.297381 
L 160.247065 164.748123 
L 164.582942 162.023297 
L 168.806386 159.127262 
L 172.910642 156.064651 
L 176.889143 152.840363 
L 180.735524 149.459557 
L 184.443633 145.92764 
L 188.007536 142.250264 
L 191.421533 138.433312 
L 194.680161 134.482889 
L 197.778209 130.405315 
L 200.710718 126.207115 
L 203.472999 121.895003 
L 206.060632 117.475879 
L 208.469477 112.956812 
L 210.695681 108.345031 
L 212.735682 103.647916 
L 214.586217 98.872979 
L 216.244325 94.027859 
L 217.707353 89.120309 
L 218.972962 84.158179 
L 220.039126 79.149407 
L 220.904139 74.102006 
L 221.566619 69.024052 
L 222.044459 63.648 
L 222.089279 64.286594 
L 222.562657 69.385655 
L 223.239565 74.461706 
L 224.118919 79.506628 
L 225.199313 84.51235 
L 226.479018 89.470863 
L 227.955987 94.374236 
L 229.627857 99.214624 
L 231.491954 103.984283 
L 233.545295 108.675582 
L 235.784596 113.281017 
L 238.206273 117.793221 
L 240.806454 122.204974 
L 241.687964 123.61394 
L 245.222796 119.908611 
L 248.606627 116.06489 
L 251.834043 112.088926 
L 254.899881 107.987081 
L 257.799237 103.765915 
L 260.527473 99.432183 
L 263.080223 94.992817 
L 265.453403 90.45492 
L 267.643218 85.82575 
L 269.646164 81.112714 
L 271.459037 76.323351 
L 273.078936 71.465324 
L 274.50327 66.546404 
L 275.243881 63.648 
L 276.552902 68.598855 
L 278.058858 73.493403 
L 279.759338 78.323814 
L 281.651623 83.08236 
L 283.732686 87.761428 
L 285.999197 92.353533 
L 288.44753 96.851329 
L 291.073769 101.247619 
L 293.873712 105.535372 
L 296.842879 109.707727 
L 299.976521 113.75801 
L 303.269625 117.67974 
L 306.716922 121.466645 
L 310.312897 125.112665 
L 314.051798 128.611968 
L 317.927642 131.958956 
L 321.934231 135.148275 
L 326.065153 138.174821 
L 330.313801 141.033754 
L 334.673376 143.720499 
L 339.136906 146.230759 
L 343.697249 148.560517 
L 348.34711 150.706046 
L 351.116701 151.878847 
L 350.530193 156.966137 
L 350.147591 162.07281 
L 349.969508 167.190699 
L 349.996228 172.311616 
L 350.227709 177.427368 
L 350.66358 182.529771 
L 351.303144 187.610663 
L 352.145378 192.661915 
L 352.545036 194.703205 
L 347.720858 196.42129 
L 342.969245 198.330916 
L 338.297797 200.429028 
L 333.713988 202.712271 
L 329.22515 205.17699 
L 324.838466 207.819244 
L 320.560953 210.634804 
L 316.399454 213.619168 
L 312.360626 216.767559 
L 308.45093 220.074943 
L 304.676623 223.536027 
L 301.04374 227.145274 
L 297.558095 230.896911 
L 294.225264 234.784936 
L 291.050578 238.803129 
L 288.039116 242.945061 
L 285.195696 247.204106 
L 282.524867 251.573451 
L 280.030902 256.046105 
L 277.71779 260.614914 
L 275.589232 265.272568 
L 273.648633 270.011616 
L 271.899097 274.824477 
L 270.343425 279.703451 
L 268.984103 284.640732 
L 268.791802 285.408 
L 267.463009 280.462415 
L 265.937508 275.573923 
L 264.21774 270.750346 
L 262.306456 265.999399 
L 260.206714 261.328683 
L 257.921873 256.745671 
L 255.455587 252.257694 
L 252.811803 247.871932 
L 249.99475 243.595402 
L 247.008935 239.434944 
L 243.859134 235.397214 
L 240.550387 231.488674 
L 237.087986 227.715574 
L 235.151145 225.731341 
L 231.464961 229.286133 
L 227.923879 232.98549 
L 224.533565 236.823493 
L 221.299441 240.794003 
L 218.226683 244.890667 
L 215.320205 249.106932 
L 212.584658 253.436052 
L 210.024418 257.871103 
L 207.64358 262.404988 
L 205.445953 267.030454 
L 203.435054 271.740102 
L 201.614099 276.526398 
L 199.986002 281.381684 
L 198.797001 285.408 
L 197.328962 280.501946 
L 195.665908 275.658523 
L 193.810498 270.885478 
L 191.765702 266.190447 
L 189.53479 261.580943 
L 187.121332 257.064338 
L 184.529188 252.647858 
L 181.762506 248.338569 
L 178.825711 244.143365 
L 175.723501 240.068957 
L 172.460841 236.121864 
L 169.042948 232.308399 
L 165.475292 228.634664 
L 161.763579 225.106536 
L 157.913747 221.729659 
L 153.931956 218.509435 
L 149.824575 215.451016 
L 145.598176 212.559296 
L 141.259519 209.838899 
L 136.815546 207.294178 
L 132.273366 204.929204 
L 127.640245 202.74776 
L 123.371991 200.933438 
L 123.98391 195.849142 
L 124.392022 190.744444 
L 124.595674 185.627509 
L 124.594541 180.506522 
L 124.388623 175.389678 
L 123.978251 170.28516 
L 123.364081 165.201137 
L 122.547096 160.14574 
L 121.528602 155.127058 
L 120.89143 152.41902 
L 125.781194 150.897603 
L 130.606206 149.181864 
L 135.358748 147.274549 
L 140.031216 145.178709 
L 144.616135 142.897696 
L 149.10617 140.43516 
L 153.494139 137.79504 
L 157.773021 134.98156 
L 161.935971 131.999221 
L 165.97633 128.852793 
L 169.887633 125.547312 
L 173.663623 122.088064 
L 177.29826 118.480583 
L 180.78573 114.730642 
L 184.120451 110.844238 
L 187.297091 106.82759 
L 190.310567 102.687123 
L 193.156057 98.429461 
L 195.829011 94.061416 
L 198.325151 89.589975 
L 200.640485 85.022291 
L 202.771308 80.365673 
L 204.714211 75.627569 
L 206.466087 70.81556 
L 208.024132 65.937343 
L 208.68206 63.648 
L 210.149082 68.554358 
L 211.811133 73.398126 
L 213.665554 78.171555 
L 215.709377 82.867009 
L 217.939334 87.476976 
L 220.351856 91.994081 
L 222.943085 96.411098 
L 225.708874 100.72096 
L 228.6448 104.916772 
L 231.746165 108.991823 
L 235.008008 112.939592 
L 238.42511 116.753765 
L 241.992005 120.428239 
L 246.05811 124.28034 
L 250.837142 122.440406 
L 255.538773 120.410833 
L 260.155482 118.194868 
L 264.679883 115.796056 
L 269.104738 113.218236 
L 273.422968 110.46553 
L 277.627666 107.542344 
L 281.712104 104.453352 
L 285.669748 101.203497 
L 289.494267 97.797979 
L 293.179542 94.242244 
L 296.719678 90.541982 
L 300.109011 86.703112 
L 303.342119 82.731776 
L 306.41383 78.634326 
L 307.741871 76.751437 
L 302.64734 77.271297 
L 297.577672 77.994469 
L 292.54098 78.919794 
L 287.545319 80.045793 
L 282.598682 81.370665 
L 277.708982 82.89229 
L 272.884043 84.608234 
L 268.131583 86.515751 
L 263.459204 88.61179 
L 258.874382 90.892997 
L 254.384451 93.355724 
L 249.996595 95.99603 
L 245.717832 98.809692 
L 241.555009 101.792208 
L 237.514784 104.938807 
L 233.603621 108.244455 
L 229.827777 111.703864 
L 226.193294 115.311498 
L 222.705984 119.061588 
L 219.371427 122.948133 
L 216.194958 126.964916 
L 215.747094 127.558721 
L 210.645722 127.110949 
L 205.530524 126.867536 
L 200.409683 126.82887 
L 195.291393 126.995015 
L 190.18384 127.365703 
L 185.095197 127.940343 
L 180.033604 128.718015 
L 175.007157 129.697474 
L 170.0239 130.877154 
L 165.091803 132.255168 
L 160.218757 133.82931 
L 155.412558 135.597064 
L 150.680894 137.5556 
L 146.031336 139.701785 
L 141.471322 142.032187 
L 137.008146 144.543076 
L 132.64895 147.230436 
L 128.400705 150.089968 
L 124.27021 153.117098 
L 120.264072 156.306981 
L 117.060245 159.054826 
L 116.134276 164.091401 
L 115.410456 169.160975 
L 114.889944 174.25544 
L 114.573573 179.366644 
L 114.461848 184.486412 
L 114.464044 185.504421 
L 118.934029 188.003169 
L 123.500361 190.321166 
L 128.155736 192.454705 
L 132.892705 194.400371 
L 137.703692 196.155053 
L 142.580999 197.715944 
L 147.516824 199.080545 
L 152.50327 200.246675 
L 157.53236 201.212467 
L 162.596049 201.976377 
L 167.686235 202.537182 
L 172.794776 202.893985 
L 177.9135 203.046216 
L 183.034216 202.99363 
L 188.148734 202.736313 
L 193.123342 202.288511 
L 190.604141 206.747 
L 188.265246 211.302664 
L 186.1104 215.948215 
L 184.14305 220.67622 
L 182.366344 225.479117 
L 180.783124 230.349221 
L 179.395922 235.278742 
L 178.206958 240.259793 
L 177.218134 245.284405 
L 176.431032 250.34454 
L 175.846911 255.432104 
L 175.466706 260.538957 
L 175.291024 265.656929 
L 175.320147 270.777833 
L 175.554028 275.893475 
L 175.992293 280.995674 
L 176.537989 285.408 
L 177.153137 280.324095 
L 177.56449 275.219656 
L 177.771392 270.102851 
L 177.773511 264.981865 
L 177.570843 259.864891 
L 177.163712 254.760114 
L 176.552771 249.675701 
L 175.738996 244.619787 
L 174.72369 239.600459 
L 173.508476 234.625747 
L 172.095299 229.70361 
L 170.486419 224.841922 
L 168.68441 220.048461 
L 166.692155 215.330896 
L 164.512842 210.696773 
L 162.149957 206.153506 
L 159.607279 201.708364 
L 156.888877 197.368457 
L 153.999099 193.140728 
L 150.942569 189.031942 
L 147.724176 185.048671 
L 144.349069 181.197288 
L 140.822648 177.483953 
L 137.150553 173.914608 
L 133.33866 170.494963 
L 129.393067 167.230488 
L 125.320086 164.126406 
L 121.126232 161.187682 
L 117.267222 158.696332 
L 118.398779 159.295343 
L 122.983203 161.577352 
L 127.655215 163.674208 
L 132.407342 165.582555 
L 137.231981 167.299342 
L 142.121415 168.821822 
L 147.06782 170.147558 
L 152.063284 171.274431 
L 157.099815 172.200637 
L 162.169355 172.924694 
L 167.263796 173.445445 
L 172.374985 173.762056 
L 177.494747 173.874021 
L 182.614892 173.78116 
L 184.953901 173.670491 
L 184.31618 173.614603 
L 179.205979 173.282417 
L 174.086582 173.15485 
L 168.966178 173.232107 
L 163.85296 173.514063 
L 158.755107 174.000268 
L 153.680774 174.689944 
L 148.638081 175.581987 
L 143.635093 176.674971 
L 138.679814 177.967147 
L 133.780173 179.456447 
L 128.944007 181.140489 
L 124.179053 183.01658 
L 119.492934 185.081717 
L 115.376688 187.085167 
L 115.912565 186.734956 
L 120.135181 183.837713 
L 124.23856 180.773928 
L 128.216139 177.548502 
L 132.061553 174.166596 
L 135.768651 170.633619 
L 139.331502 166.955224 
L 142.744407 163.137295 
L 146.001906 159.18594 
L 149.098787 155.107481 
L 152.030096 150.908441 
L 154.791143 146.59554 
L 157.377512 142.175676 
L 159.785064 137.65592 
L 162.009949 133.043503 
L 164.048607 128.345804 
L 165.897776 123.570338 
L 167.554498 118.724745 
L 169.016123 113.816776 
L 170.280312 108.854284 
L 171.345043 103.845208 
L 172.208613 98.79756 
L 172.869641 93.719416 
L 173.327067 88.6189 
L 173.580162 83.504172 
L 173.62852 78.383414 
L 173.472063 73.264818 
L 173.111043 68.156573 
L 172.62099 63.648 
L 172.079282 68.740254 
L 171.741644 73.850098 
L 171.608615 78.969356 
L 171.680408 84.089839 
L 171.956908 89.203356 
L 172.437673 94.301725 
L 173.121935 99.37679 
L 174.008597 104.420433 
L 175.096242 109.424584 
L 176.383129 114.381239 
L 177.867201 119.282466 
L 179.546082 124.120427 
L 181.417087 128.88738 
L 183.477223 133.575699 
L 185.723194 138.177886 
L 188.151406 142.686576 
L 190.757976 147.094556 
L 191.856147 148.838148 
L 186.737507 148.683159 
L 181.616763 148.732986 
L 176.502107 148.987548 
L 171.401723 149.446438 
L 166.323769 150.108922 
L 161.276369 150.97394 
L 156.267598 152.040108 
L 151.305469 153.30572 
L 146.39792 154.768753 
L 141.552802 156.426865 
L 136.777866 158.277404 
L 132.080752 160.317409 
L 127.468974 162.543616 
L 122.949909 164.952465 
L 118.530787 167.540102 
L 114.218677 170.302386 
L 110.020479 173.234899 
L 108.172491 174.607132 
L 112.849473 172.521383 
L 117.439305 170.250274 
L 121.934647 167.797437 
L 126.328305 165.166797 
L 130.613251 162.362561 
L 134.78263 159.389216 
L 138.829772 156.251519 
L 142.748202 152.954489 
L 146.531652 149.5034 
L 150.174069 145.903775 
L 153.669625 142.161371 
L 157.012729 138.282176 
L 160.198033 134.272396 
L 163.220441 130.138444 
L 166.075116 125.886935 
L 168.757494 121.52467 
L 171.263281 117.058628 
L 173.588471 112.495954 
L 175.729342 107.843947 
L 177.68247 103.110048 
L 179.44473 98.301833 
L 181.013303 93.426991 
L 182.38568 88.493323 
L 183.559665 83.50872 
L 184.53338 78.481158 
L 185.305267 73.418679 
L 185.874092 68.329383 
L 186.216324 63.648 
L 186.252885 64.28712 
L 186.660307 69.391874 
L 187.271539 74.476252 
L 188.085602 79.53212 
L 189.101196 84.55139 
L 190.316694 89.526032 
L 191.730152 94.448089 
L 193.33931 99.309684 
L 195.141592 104.103042 
L 197.134116 108.820494 
L 199.313694 113.454492 
L 201.676839 117.997624 
L 204.219771 122.442621 
L 206.938421 126.782373 
L 209.625584 130.724751 
L 207.204753 126.212093 
L 204.6054 121.799853 
L 201.831684 117.495088 
L 198.888041 113.304686 
L 195.779182 109.23535 
L 192.51008 105.29359 
L 189.085964 101.485712 
L 185.512312 97.817808 
L 181.794842 94.295747 
L 177.939501 90.925161 
L 173.952456 87.711445 
L 169.840086 84.659738 
L 165.60897 81.774923 
L 162.731302 79.950236 
L 163.860735 80.553242 
L 168.437067 82.851435 
L 173.101641 84.964785 
L 177.846996 86.889912 
L 182.665539 88.623735 
L 187.549562 90.16348 
L 192.491253 91.506686 
L 197.482704 92.651202 
L 202.515931 93.595198 
L 207.582881 94.337163 
L 212.67545 94.875911 
L 217.785489 95.210579 
L 222.904824 95.340633 
L 228.025264 95.265864 
L 233.138619 94.986391 
L 238.236708 94.502663 
L 243.311374 93.815452 
L 248.354501 92.925859 
L 253.358019 91.835306 
L 258.313925 90.545537 
L 263.214289 89.058617 
L 268.051273 87.376924 
L 272.817138 85.503149 
L 277.504259 83.440289 
L 282.105139 81.191643 
L 286.612417 78.760811 
L 291.018882 76.151679 
L 295.317485 73.368423 
L 299.50135 70.415496 
L 302.685586 67.993695 
L 297.97154 69.994262 
L 293.341265 72.18174 
L 288.80217 74.55263 
L 284.361517 77.103139 
L 280.026408 79.829187 
L 275.80378 82.726412 
L 271.700388 85.79018 
L 267.722796 89.015589 
L 263.877367 92.397479 
L 260.170254 95.930441 
L 256.607388 99.608821 
L 253.194467 103.426736 
L 249.936951 107.378077 
L 246.840053 111.456523 
L 243.908727 115.65555 
L 241.147662 119.96844 
L 239.118973 123.400274 
L 237.018269 118.729991 
L 234.732484 114.147449 
L 232.265274 109.65998 
L 229.620587 105.274763 
L 226.802654 100.998812 
L 223.815982 96.838969 
L 220.66535 92.801889 
L 217.355798 88.894029 
L 213.89262 85.121642 
L 210.281358 81.490763 
L 206.527787 78.0072 
L 202.637914 74.676526 
L 198.61796 71.50407 
L 194.474358 68.494907 
L 190.213736 65.653851 
L 186.965463 63.648 
L 182.62203 66.360764 
L 178.390553 69.24505 
L 174.277801 72.296242 
L 170.290354 75.50946 
L 166.434592 78.879563 
L 162.716681 82.40116 
L 159.288987 85.9125 
L 157.908174 90.843813 
L 156.725664 95.8264 
L 155.743351 100.85229 
L 154.962806 105.913441 
L 154.385277 111.001757 
L 154.011689 116.109098 
L 153.842638 121.227294 
L 153.878396 126.348155 
L 154.118905 131.463491 
L 154.563781 136.565117 
L 155.212311 141.644872 
L 156.063459 146.694629 
L 157.115862 151.70631 
L 158.367837 156.671898 
L 159.817382 161.583448 
L 161.462176 166.433103 
L 163.299589 171.213104 
L 165.326682 175.915805 
L 167.540211 180.533683 
L 169.936635 185.059348 
L 172.512121 189.485563 
L 175.262548 193.805245 
L 178.183516 198.011484 
L 181.270353 202.097551 
L 184.518119 206.056909 
L 187.92162 209.883224 
L 191.47541 213.570374 
L 195.173804 217.112462 
L 199.010885 220.50382 
L 202.980515 223.739022 
L 207.076344 226.812894 
L 211.291819 229.720518 
L 215.620195 232.457242 
L 220.054549 235.018689 
L 224.587787 237.400759 
L 229.212656 239.599643 
L 233.921757 241.611822 
L 238.707557 243.434078 
L 243.5624 245.063496 
L 248.478519 246.497468 
L 253.448049 247.733701 
L 258.46304 248.770217 
L 263.51547 249.605358 
L 268.597254 250.237787 
L 273.700265 250.666493 
L 278.816337 250.89079 
L 283.937286 250.91032 
L 289.05492 250.725051 
L 294.161051 250.335279 
L 299.247512 249.741628 
L 304.306164 248.945047 
L 309.328915 247.946812 
L 314.30773 246.748519 
L 319.234643 245.352085 
L 324.252752 243.706878 
L 323.204457 238.694335 
L 321.956552 233.727723 
L 320.511034 228.814987 
L 318.870216 223.963985 
L 317.036721 219.182479 
L 315.013484 214.478118 
L 312.803741 209.858428 
L 310.411027 205.3308 
L 307.83917 200.902475 
L 305.092284 196.58054 
L 302.174765 192.371909 
L 299.091279 188.283313 
L 295.846759 184.321294 
L 292.446396 180.492191 
L 288.895629 176.802129 
L 287.367435 175.301585 
L 291.087437 171.782197 
L 294.663726 168.116865 
L 298.090579 164.311451 
L 301.362516 160.372043 
L 304.4743 156.304943 
L 307.420956 152.116659 
L 310.197767 147.81389 
L 312.800293 143.40352 
L 315.224369 138.892605 
L 317.466117 134.288361 
L 319.521952 129.598153 
L 321.388584 124.829486 
L 323.063027 119.989988 
L 324.542602 115.087401 
L 325.824943 110.129568 
L 326.164594 108.66053 
L 321.246272 107.234135 
L 316.274843 106.00556 
L 311.25826 104.976773 
L 306.20455 104.149418 
L 301.121797 103.52482 
L 296.018132 103.103977 
L 290.901721 102.887563 
L 285.780748 102.875924 
L 280.663405 103.069079 
L 275.55788 103.466718 
L 270.472341 104.068205 
L 265.414922 104.872579 
L 260.393715 105.878553 
L 255.416752 107.084516 
L 250.491997 108.48854 
L 245.627326 110.088379 
L 240.830524 111.881473 
L 236.109263 113.864953 
L 231.471096 116.035647 
L 226.923444 118.390082 
L 222.473582 120.924492 
L 218.128629 123.634821 
L 213.895536 126.516734 
L 209.781074 129.56562 
L 205.791826 132.776602 
L 201.934175 136.144543 
L 198.214291 139.664055 
L 194.638125 143.329507 
L 191.211399 147.135036 
L 187.939594 151.074553 
L 184.827945 155.141756 
L 181.88143 159.330139 
L 179.104763 163.633001 
L 176.502385 168.043458 
L 174.07846 172.554454 
L 171.836865 177.158774 
L 169.781187 181.84905 
L 167.914715 186.61778 
L 166.240434 191.457334 
L 164.761023 196.35997 
L 163.478848 201.317846 
L 162.395961 206.323029 
L 161.514094 211.367512 
L 160.834658 216.443226 
L 160.35874 221.54205 
L 160.087101 226.655826 
L 160.020176 231.776376 
L 160.158072 236.895505 
L 160.500568 242.005025 
L 161.047117 247.096762 
L 161.796843 252.162571 
L 162.748548 257.194346 
L 163.90071 262.184038 
L 165.251484 267.123664 
L 166.79871 272.005323 
L 168.539912 276.821205 
L 170.472306 281.563605 
L 172.204804 285.408 
L 174.292319 280.731807 
L 176.191165 275.975875 
L 177.898307 271.147814 
L 179.411011 266.255348 
L 180.72686 261.306303 
L 181.843747 256.308597 
L 182.759885 251.270225 
L 183.47381 246.199248 
L 183.984378 241.103777 
L 184.290774 235.991965 
L 184.392506 230.871989 
L 184.289413 225.75204 
L 183.981659 220.64031 
L 183.469736 215.544975 
L 182.754464 210.474187 
L 181.836986 205.436059 
L 180.718771 200.43865 
L 179.401608 195.489955 
L 177.887603 190.597891 
L 176.179178 185.770284 
L 174.279068 181.014858 
L 172.190311 176.339219 
L 169.916249 171.750849 
L 167.46052 167.257087 
L 164.827053 162.865122 
L 162.02006 158.581981 
L 159.044033 154.414516 
L 155.903733 150.369394 
L 152.604182 146.453086 
L 149.150661 142.671857 
L 145.548692 139.031757 
L 141.80404 135.538609 
L 137.922695 132.198002 
L 134.252785 129.276474 
L 139.02132 131.143444 
L 143.860699 132.81823 
L 148.763181 134.298153 
L 153.720923 135.580845 
L 158.725993 136.664255 
L 163.770384 137.546648 
L 168.846027 138.226613 
L 173.944801 138.703064 
L 179.05855 138.975236 
L 184.179092 139.042695 
L 189.298236 138.905334 
L 194.407792 138.563371 
L 199.499586 138.017354 
L 200.361748 137.904442 
L 201.05813 132.831026 
L 201.551072 127.73382 
L 201.839786 122.620978 
L 201.923811 117.500681 
L 201.80301 112.38112 
L 201.477579 107.270484 
L 200.948037 102.17695 
L 200.215231 97.108667 
L 199.280335 92.073742 
L 198.144843 87.08023 
L 196.810572 82.13612 
L 195.279656 77.249322 
L 193.554545 72.427652 
L 191.637999 67.678826 
L 189.833888 63.648 
L 187.754709 68.327905 
L 185.864339 73.087213 
L 184.165803 77.918307 
L 182.661817 82.813461 
L 181.354789 87.764843 
L 180.246809 92.764531 
L 179.339649 97.804527 
L 178.63476 102.876768 
L 178.133272 107.973141 
L 177.835984 113.085491 
L 177.743375 118.20564 
L 177.85559 123.325396 
L 178.172452 128.436571 
L 178.693452 133.530985 
L 179.417758 138.60049 
L 180.344211 143.636976 
L 181.471328 148.632385 
L 182.797307 153.578725 
L 184.320026 158.468084 
L 186.136305 163.553949 
L 182.549375 167.208869 
L 179.111473 171.004304 
L 175.828097 174.934182 
L 172.704501 178.992218 
L 169.745681 183.171917 
L 166.956372 187.466595 
L 164.341035 191.86938 
L 161.903854 196.373228 
L 159.648729 200.970936 
L 157.579267 205.655146 
L 155.698779 210.418366 
L 154.010273 215.252976 
L 152.516451 220.151241 
L 151.219701 225.105324 
L 150.1221 230.107301 
L 149.225402 235.149169 
L 148.531042 240.222863 
L 148.159209 243.866158 
L 152.843039 245.93648 
L 157.605914 247.817842 
L 162.440214 249.507236 
L 167.338204 251.001957 
L 172.292049 252.299616 
L 177.293825 253.398136 
L 182.335528 254.295759 
L 187.409094 254.99105 
L 192.506406 255.482896 
L 197.619309 255.770511 
L 202.739624 255.853434 
L 207.85916 255.731533 
L 212.969725 255.405002 
L 218.063145 254.874364 
L 223.131271 254.140469 
L 228.165995 253.20449 
L 233.159262 252.067923 
L 238.103085 250.732589 
L 242.989554 249.200623 
L 247.810852 247.474475 
L 252.559266 245.556908 
L 257.2272 243.450988 
L 261.807186 241.160086 
L 266.291896 238.687865 
L 270.674157 236.038282 
L 274.946957 233.215574 
L 279.103461 230.224257 
L 283.13702 227.069117 
L 287.04118 223.755202 
L 290.809696 220.287813 
L 294.436539 216.672497 
L 297.915907 212.915038 
L 301.242234 209.021446 
L 304.410198 204.997952 
L 307.414731 200.850991 
L 310.251026 196.587198 
L 312.914546 192.213394 
L 315.401031 187.736576 
L 317.706501 183.163907 
L 319.827269 178.5027 
L 321.759943 173.760414 
L 323.501429 168.944635 
L 325.048943 164.063068 
L 326.400008 159.123521 
L 327.552464 154.133897 
L 328.504465 149.102178 
L 329.254491 144.036414 
L 329.801339 138.944709 
L 330.144137 133.835209 
L 330.282335 128.716088 
L 330.215712 123.595535 
L 329.944374 118.481742 
L 329.602589 114.615312 
L 325.396186 111.69458 
L 321.07635 108.944395 
L 316.64999 106.369158 
L 312.12419 103.972988 
L 307.506188 101.759718 
L 302.803373 99.73289 
L 298.023269 97.895745 
L 293.173522 96.251222 
L 288.26189 94.801954 
L 283.296232 93.550257 
L 278.284492 92.498136 
L 273.234687 91.647272 
L 268.154895 90.999026 
L 263.053245 90.554437 
L 257.937896 90.314215 
L 252.817032 90.278745 
L 247.698846 90.448083 
L 242.591526 90.821958 
L 237.503242 91.399773 
L 232.442135 92.180602 
L 227.416301 93.163197 
L 222.43378 94.345986 
L 217.502544 95.727077 
L 212.630481 97.30426 
L 207.825386 99.075011 
L 203.094945 101.036499 
L 198.446727 103.185585 
L 193.888168 105.518831 
L 189.42656 108.032505 
L 185.06904 110.722585 
L 180.822581 113.584767 
L 176.693976 116.614472 
L 172.689828 119.806855 
L 168.816545 123.156807 
L 165.080322 126.65897 
L 161.487138 130.30774 
L 158.042739 134.09728 
L 154.752636 138.021529 
L 151.622094 142.074208 
L 148.656119 146.248833 
L 145.859457 150.538727 
L 143.236583 154.937025 
L 140.791691 159.436693 
L 138.528694 164.03053 
L 136.451211 168.711189 
L 134.562567 173.471181 
L 132.865782 178.302891 
L 131.363571 183.19859 
L 130.058338 188.150445 
L 128.95217 193.150534 
L 128.046837 198.190859 
L 127.343788 203.263356 
L 126.946382 207.124466 
L 131.630213 209.194787 
L 136.393088 211.07615 
L 141.227388 212.765543 
L 146.125378 214.260265 
L 151.079223 215.557923 
L 156.080999 216.656443 
L 161.122702 217.554066 
L 166.196268 218.249357 
L 171.29358 218.741203 
L 176.406483 219.028818 
L 181.526798 219.111741 
L 186.646334 218.98984 
L 191.756899 218.663309 
L 196.850319 218.132672 
L 201.918445 217.398776 
L 206.805065 216.493315 
L 207.658239 221.542731 
L 208.712653 226.553989 
L 209.966621 231.519074 
L 211.418136 236.430042 
L 213.064877 241.279036 
L 214.904208 246.0583 
L 216.933188 250.760187 
L 219.148569 255.377176 
L 221.54681 259.90188 
L 224.124071 264.327061 
L 226.876232 268.645639 
L 229.798887 272.850705 
L 232.887363 276.935533 
L 236.136718 280.893587 
L 239.541754 284.718536 
L 240.185432 285.408 
L 243.618554 281.60824 
L 246.89698 277.674231 
L 250.015465 273.612267 
L 252.96902 269.428846 
L 255.752921 265.13066 
L 258.362713 260.724586 
L 260.794222 256.217673 
L 263.043557 251.61713 
L 265.10712 246.930318 
L 266.98161 242.164735 
L 268.664029 237.328003 
L 270.151684 232.427862 
L 271.442195 227.47215 
L 272.533499 222.468795 
L 273.423849 217.425802 
L 274.111821 212.351238 
L 274.498205 208.483587 
L 279.489555 207.338628 
L 284.431125 205.994984 
L 289.315012 204.454804 
L 294.133401 202.720553 
L 298.878585 200.795005 
L 303.542971 198.68124 
L 308.119099 196.382641 
L 312.599646 193.902884 
L 316.977446 191.245936 
L 321.245495 188.416048 
L 325.396964 185.417748 
L 329.425212 182.255831 
L 333.323795 178.935357 
L 337.086477 175.461637 
L 340.707236 171.840228 
L 344.180282 168.076924 
L 347.500058 164.177746 
L 350.661253 160.148931 
L 353.56906 156.126457 
L 348.475183 156.652684 
L 343.406423 157.382191 
L 338.370891 158.313811 
L 333.376641 159.446053 
L 328.431664 160.777106 
L 323.54387 162.30484 
L 318.721079 164.026812 
L 313.971006 165.940267 
L 309.301251 168.042144 
L 304.719283 170.32908 
L 300.232434 172.797417 
L 295.847881 175.443205 
L 291.572638 178.262212 
L 287.413545 181.249928 
L 286.874848 181.655699 
L 290.028057 185.690767 
L 293.340104 189.596512 
L 296.80569 193.366687 
L 300.41927 196.995259 
L 304.175064 200.476425 
L 308.067064 203.804614 
L 312.089042 206.974502 
L 316.234565 209.981019 
L 320.497 212.819354 
L 324.869529 215.484967 
L 329.345157 217.973593 
L 333.916723 220.281251 
L 336.961927 221.693941 
L 332.752672 218.777321 
L 328.430149 216.03136 
L 324.001276 213.46045 
L 319.473135 211.068704 
L 314.852973 208.859948 
L 310.14818 206.837717 
L 305.366282 205.005244 
L 300.51493 203.365463 
L 295.601884 201.920995 
L 290.635005 200.674152 
L 285.622239 199.626929 
L 281.214601 198.877186 
L 284.70856 202.621081 
L 288.34944 206.222261 
L 292.131416 209.674963 
L 296.048439 212.973665 
L 300.094241 216.11309 
L 304.26235 219.088214 
L 308.546099 221.894279 
L 312.938634 224.526795 
L 317.432928 226.98155 
L 322.021791 229.254618 
L 326.697882 231.342363 
L 330.503835 232.879684 
L 326.456232 229.742582 
L 322.286415 226.769851 
L 318.001057 223.966245 
L 313.607012 221.336251 
L 309.11131 218.884075 
L 304.521143 216.613641 
L 299.843855 214.528581 
L 295.086927 212.63223 
L 290.257972 210.927623 
L 285.364712 209.417486 
L 280.414977 208.104235 
L 275.720214 207.051673 
L 277.791395 211.735124 
L 280.048208 216.332003 
L 282.487041 220.834957 
L 285.103994 225.236782 
L 287.894879 229.530435 
L 290.855233 233.709049 
L 293.980318 237.765937 
L 297.265136 241.69461 
L 300.704431 245.488783 
L 304.292702 249.142386 
L 308.024208 252.649574 
L 311.892979 256.004736 
L 315.486897 258.889784 
L 310.710198 257.043802 
L 305.863501 255.390313 
L 300.954558 253.931963 
L 295.991224 252.671085 
L 290.981438 251.609696 
L 285.933215 250.749495 
L 280.854631 250.091856 
L 275.753811 249.637832 
L 270.638915 249.38815 
L 265.518126 249.343209 
L 260.399636 249.503081 
L 255.291633 249.86751 
L 250.202289 250.435914 
L 245.139746 251.207382 
L 240.112103 252.18068 
L 235.127404 253.354253 
L 230.193622 254.726221 
L 225.31865 256.29439 
L 220.510289 258.056252 
L 215.776229 260.008988 
L 211.124044 262.149474 
L 206.561177 264.474285 
L 202.094928 266.979703 
L 197.732441 269.661719 
L 193.480696 272.516043 
L 189.346494 275.538108 
L 185.336449 278.72308 
L 181.456977 282.065863 
L 177.872067 285.408 
L 174.123378 281.919185 
L 170.238171 278.583069 
L 166.482302 275.602687 
L 165.724846 270.538029 
L 164.765463 265.507712 
L 163.605688 260.519784 
L 162.247378 255.582225 
L 160.692704 250.702933 
L 158.944154 245.889714 
L 157.004525 241.150269 
L 154.876921 236.492179 
L 152.564744 231.922897 
L 150.071694 227.449732 
L 147.40176 223.07984 
L 144.559212 218.820213 
L 141.548599 214.677664 
L 138.374735 210.658822 
L 135.0427 206.770115 
L 131.557823 203.017764 
L 127.92568 199.407773 
L 124.152081 195.945916 
L 120.243063 192.637733 
L 117.197318 190.238591 
L 116.439862 185.173933 
L 115.480479 180.143616 
L 114.320705 175.155688 
L 112.962394 170.218129 
L 112.144852 167.568537 
L 117.126887 166.383702 
L 122.057555 165.000587 
L 126.92897 163.421403 
L 131.733338 161.648679 
L 136.462972 159.685248 
L 141.110307 157.534254 
L 145.667908 155.199136 
L 150.128484 152.68363 
L 154.484898 149.991761 
L 158.730181 147.127836 
L 162.857543 144.096435 
L 166.860379 140.902408 
L 170.732286 137.550866 
L 174.46707 134.047169 
L 178.058756 130.396924 
L 181.501598 126.605969 
L 184.790089 122.68037 
L 187.918967 118.626406 
L 190.883227 114.450563 
L 193.678127 110.159521 
L 196.299195 105.760146 
L 198.742239 101.259475 
L 201.00335 96.664708 
L 203.07891 91.983197 
L 204.965599 87.222429 
L 206.6604 82.390023 
L 208.1606 77.493708 
L 209.4638 72.541317 
L 210.567914 67.540774 
L 211.283741 63.648 
L 212.232759 68.680283 
L 213.382255 73.670589 
L 214.73039 78.610937 
L 216.275009 83.493421 
L 218.013639 88.310232 
L 219.9435 93.053663 
L 222.061504 97.716126 
L 224.364262 102.290162 
L 226.848091 106.768454 
L 229.509017 111.143837 
L 232.342783 115.409311 
L 235.344856 119.558053 
L 238.328328 123.360645 
L 241.814691 119.609675 
L 245.148267 115.722288 
L 248.323722 111.704704 
L 251.335976 107.563348 
L 254.180211 103.304847 
L 256.851876 98.936014 
L 259.346698 94.463837 
L 261.660684 89.895471 
L 263.790134 85.238224 
L 265.73164 80.499547 
L 267.482096 75.687022 
L 269.038703 70.808346 
L 270.39897 65.871325 
L 270.942852 63.648 
L 272.214645 68.608549 
L 273.683789 73.514272 
L 275.347934 78.357321 
L 277.204419 83.129947 
L 279.250273 87.824517 
L 281.482223 92.433519 
L 283.896699 96.94958 
L 286.489837 101.365476 
L 289.257491 105.674141 
L 292.195231 109.868684 
L 295.298358 113.942393 
L 298.561907 117.888751 
L 301.980659 121.701446 
L 305.549143 125.374377 
L 309.261651 128.901669 
L 313.112243 132.277678 
L 317.094759 135.497005 
L 321.202829 138.554499 
L 325.42988 141.445267 
L 329.769149 144.164687 
L 334.213695 146.708407 
L 338.756408 149.072357 
L 343.39002 151.252757 
L 348.107118 153.246117 
L 352.95917 155.070097 
L 352.12174 160.122147 
L 351.487007 165.203645 
L 351.055988 170.30646 
L 350.829372 175.42243 
L 350.807522 180.54337 
L 350.990472 185.661087 
L 351.37793 190.767395 
L 351.952353 195.729762 
L 347.253437 197.765613 
L 342.639692 199.987743 
L 338.118499 202.392595 
L 333.697091 204.976324 
L 329.382541 207.734795 
L 325.181752 210.663595 
L 321.101444 213.758039 
L 317.148144 217.013177 
L 313.328177 220.423801 
L 309.647655 223.984455 
L 306.112464 227.689443 
L 302.728262 231.532836 
L 299.500461 235.508488 
L 296.434226 239.610037 
L 293.534461 243.830921 
L 290.805807 248.16439 
L 288.252628 252.603509 
L 285.879008 257.141177 
L 283.688745 261.770134 
L 281.685343 266.482977 
L 279.872007 271.272164 
L 278.251638 276.130035 
L 276.826829 281.048817 
L 275.739692 285.408 
L 274.488333 280.442257 
L 273.039399 275.530527 
L 271.395207 270.680668 
L 269.558387 265.900438 
L 267.531878 261.197486 
L 265.318923 256.579333 
L 262.923061 252.05337 
L 260.348124 247.626836 
L 257.598234 243.306812 
L 254.677788 239.10021 
L 251.591459 235.01376 
L 248.344184 231.053999 
L 244.941159 227.227261 
L 243.090754 225.270138 
L 240.742357 229.82091 
L 238.57782 234.461953 
L 236.600607 239.185843 
L 234.81388 243.985021 
L 233.220499 248.85181 
L 231.823012 253.778425 
L 230.623655 258.756983 
L 229.624346 263.779521 
L 228.826685 268.838002 
L 228.231947 273.924336 
L 227.841083 279.030384 
L 227.65472 284.147978 
L 227.640256 285.408 
L 227.57926 282.207835 
L 227.315349 277.093653 
L 226.847136 271.994116 
L 226.175371 266.917382 
L 225.301128 261.871571 
L 224.225806 256.864758 
L 222.951125 251.90495 
L 221.479124 247.000084 
L 219.812158 242.158005 
L 217.952894 237.38646 
L 215.904306 232.693083 
L 213.669672 228.085382 
L 211.252566 223.570727 
L 208.656856 219.156343 
L 207.110232 216.705136 
L 202.081092 215.739604 
L 197.017363 214.975956 
L 191.927148 214.415414 
L 186.818588 214.058875 
L 181.699857 213.906908 
L 176.579143 213.959758 
L 171.464639 214.21734 
L 166.364526 214.679241 
L 161.286964 215.344723 
L 156.240076 216.212721 
L 151.231935 217.281846 
L 146.270554 218.550388 
L 141.36387 220.016318 
L 136.519732 221.67729 
L 135.554604 222.034343 
L 139.442036 218.70082 
L 143.193052 215.214507 
L 146.801653 211.580982 
L 150.262065 207.806058 
L 153.568753 203.895774 
L 156.716426 199.856386 
L 159.700048 195.694356 
L 162.514847 191.416341 
L 165.15632 187.029187 
L 167.62024 182.539911 
L 169.902667 177.955695 
L 171.999948 173.283874 
L 173.908728 168.531921 
L 175.625954 163.707438 
L 177.148879 158.818143 
L 178.475066 153.871859 
L 179.602393 148.876497 
L 180.529057 143.840051 
L 181.253576 138.770576 
L 181.774791 133.676183 
L 182.091867 128.565023 
L 182.204298 123.44527 
L 182.111904 118.325118 
L 181.814831 113.212755 
L 181.313557 108.116362 
L 180.608882 103.044091 
L 179.701934 98.004056 
L 178.594163 93.004321 
L 177.287343 88.052885 
L 175.783564 83.157668 
L 174.085231 78.326502 
L 172.195061 73.567115 
L 170.116078 68.887122 
L 169.666674 67.937818 
L 174.763413 67.440067 
L 179.83617 66.738899 
L 184.87683 65.835435 
L 189.87733 64.731121 
L 194.046488 63.648 
L 199.007009 64.919902 
L 204.014425 65.992419 
L 209.060724 66.863834 
L 214.137834 67.532754 
L 219.237633 67.998109 
L 224.351961 68.259155 
L 229.472638 68.315472 
L 234.591471 68.166973 
L 239.700271 67.813893 
L 244.790865 67.256798 
L 249.855109 66.49658 
L 254.884902 65.534454 
L 259.872196 64.371959 
L 262.593627 63.648 
L 267.554147 64.919902 
L 272.561563 65.992419 
L 277.607862 66.863834 
L 282.684972 67.532754 
L 287.784771 67.998109 
L 292.8991 68.259155 
L 298.019776 68.315472 
L 302.795088 68.183357 
L 300.118785 72.549351 
L 297.619215 77.018877 
L 295.300379 81.584783 
L 293.165985 86.239765 
L 291.219448 90.976378 
L 289.463882 95.787042 
L 287.902096 100.664062 
L 286.536587 105.599636 
L 285.369541 110.585867 
L 284.402825 115.61478 
L 283.637985 120.678328 
L 283.076244 125.768412 
L 282.718502 130.876887 
L 282.565331 135.995582 
L 282.616975 141.116308 
L 282.873353 146.230873 
L 283.334053 151.331094 
L 283.957754 156.138476 
L 286.877147 160.345809 
L 289.962453 164.433031 
L 293.208736 168.393605 
L 296.610803 172.221194 
L 300.163212 175.909675 
L 303.86028 179.453148 
L 307.696091 182.845942 
L 311.664509 186.082632 
L 315.759186 189.158037 
L 319.973572 192.06724 
L 324.300923 194.805585 
L 328.734317 197.368691 
L 333.266662 199.752459 
L 337.890707 201.953075 
L 342.599055 203.967018 
L 346.358563 205.41849 
L 342.358931 202.220452 
L 338.234611 199.184915 
L 333.992201 196.316734 
L 329.638488 193.620499 
L 325.180437 191.100523 
L 320.625179 188.760837 
L 315.980003 186.605184 
L 311.252339 184.637013 
L 306.449751 182.859473 
L 301.579922 181.275406 
L 296.650642 179.887348 
L 291.669798 178.697519 
L 287.267424 177.819063 
L 287.90668 177.784952 
L 293.012958 177.397102 
L 298.099641 176.805366 
L 303.158593 176.01069 
L 308.181719 175.014345 
L 313.160985 173.817926 
L 318.088423 172.423346 
L 322.956152 170.832837 
L 327.756383 169.048943 
L 332.481439 167.074518 
L 337.123758 164.91272 
L 341.675916 162.567008 
L 346.130629 160.041135 
L 350.48077 157.339141 
L 353.215232 155.513609 
L 348.639609 157.813213 
L 344.159606 160.293954 
L 339.78239 162.951863 
L 335.514963 165.782687 
L 331.364152 168.781899 
L 327.336598 171.9447 
L 323.438744 175.266031 
L 319.676826 178.740577 
L 316.056861 182.362781 
L 312.584642 186.126847 
L 309.265723 190.026754 
L 306.105413 194.056263 
L 303.108768 198.208928 
L 300.280583 202.478104 
L 297.625381 206.856963 
L 295.147411 211.338499 
L 292.850637 215.915543 
L 290.738732 220.580772 
L 288.815077 225.326723 
L 287.082747 230.145804 
L 285.544516 235.030304 
L 284.202842 239.972411 
L 283.059873 244.964216 
L 282.117438 249.997736 
L 281.377043 255.064916 
L 280.839874 260.157651 
L 280.506789 265.267794 
L 280.378323 270.387168 
L 280.454679 275.507586 
L 280.735736 280.620853 
L 281.185558 285.408 
L 281.65841 280.308891 
L 281.926974 275.194952 
L 281.99082 270.074363 
L 281.849846 264.955318 
L 281.504277 259.846004 
L 280.954667 254.754597 
L 280.201894 249.68924 
L 279.247164 244.658038 
L 278.092002 239.66904 
L 276.738258 234.730227 
L 275.188097 229.849499 
L 273.443999 225.034665 
L 271.508754 220.293428 
L 269.385458 215.633373 
L 268.646222 214.118975 
L 272.762283 217.165702 
L 276.996888 220.045393 
L 281.343262 222.753442 
L 285.794453 225.285516 
L 290.34334 227.637565 
L 294.982645 229.805825 
L 299.704946 231.786828 
L 304.502689 233.577405 
L 309.368198 235.174691 
L 314.29369 236.576131 
L 319.271284 237.779483 
L 324.293018 238.782821 
L 326.846964 239.21357 
L 323.545696 235.29871 
L 320.090515 231.518998 
L 316.48695 227.880478 
L 312.740766 224.388974 
L 308.857955 221.05007 
L 304.844729 217.869107 
L 300.707509 214.851175 
L 296.452914 212.001102 
L 292.087749 209.323447 
L 287.618998 206.822494 
L 283.05381 204.502244 
L 278.980492 202.620799 
L 282.809917 206.020799 
L 286.772244 209.264943 
L 290.861132 212.348042 
L 295.07004 215.265162 
L 299.392236 218.011638 
L 303.820804 220.583075 
L 308.348659 222.975359 
L 312.968559 225.184664 
L 317.673112 227.207455 
L 322.454792 229.040497 
L 327.305949 230.680855 
L 331.115667 231.81996 
L 327.376345 228.321107 
L 323.500097 224.974586 
L 319.493124 221.785751 
L 315.361837 218.759702 
L 311.112845 215.901282 
L 306.752945 213.215062 
L 302.289113 210.70534 
L 297.728489 208.376131 
L 293.07837 206.231162 
L 288.346195 204.273864 
L 283.539533 202.507368 
L 279.825112 201.289126 
L 283.472864 204.883345 
L 287.261429 208.328817 
L 291.184745 211.620031 
L 295.236537 214.751722 
L 299.410322 217.718879 
L 303.699422 220.516756 
L 308.096978 223.140876 
L 312.595952 225.587043 
L 317.189149 227.851341 
L 321.869219 229.93015 
L 326.628676 231.820143 
L 330.349433 233.147117 
L 326.432839 229.847905 
L 322.387445 226.707955 
L 318.219723 223.732288 
L 313.936339 220.925667 
L 309.544147 218.292579 
L 305.050172 215.837239 
L 300.461605 213.563575 
L 295.785786 211.475222 
L 291.030195 209.575523 
L 286.20244 207.867516 
L 281.310245 206.353934 
L 277.148265 205.23243 
L 279.830704 209.594657 
L 282.68544 213.846125 
L 285.707906 217.980034 
L 288.893267 221.989769 
L 292.236426 225.868917 
L 295.732036 229.611271 
L 299.374504 233.210845 
L 303.158002 236.661879 
L 307.076479 239.958854 
L 311.123666 243.096494 
L 315.293087 246.069779 
L 319.578073 248.873955 
L 320.824581 249.644645 
L 319.697428 249.037386 
L 315.129793 246.721958 
L 310.473218 244.591038 
L 305.735155 242.648036 
L 300.923182 240.896061 
L 296.044998 239.337914 
L 291.108406 237.976089 
L 286.121305 236.812765 
L 281.091673 235.849801 
L 276.027555 235.08874 
L 270.937054 234.530798 
L 265.828313 234.176869 
L 260.709505 234.027517 
L 255.588819 234.082983 
L 250.474447 234.343177 
L 245.374571 234.807683 
L 240.297349 235.475759 
L 235.250905 236.346335 
L 230.243311 237.418018 
L 225.282579 238.689094 
L 220.376644 240.15753 
L 215.533355 241.820977 
L 210.76046 243.676773 
L 206.065595 245.721949 
L 201.456271 247.953234 
L 196.939862 250.367058 
L 192.523592 252.95956 
L 188.214527 255.726591 
L 184.019561 258.663726 
L 179.945404 261.766265 
L 175.998575 265.029245 
L 172.185387 268.447446 
L 168.511941 272.0154 
L 165.95019 274.681041 
L 170.915142 273.426549 
L 175.825957 271.974516 
L 180.674777 270.327263 
L 185.453847 268.487428 
L 190.15552 266.457952 
L 194.772275 264.242082 
L 199.296725 261.843364 
L 203.721634 259.265635 
L 208.039921 256.513019 
L 212.244679 253.58992 
L 216.329181 250.501012 
L 220.286892 247.25124 
L 224.111482 243.8458 
L 227.79683 240.290142 
L 231.337043 236.589953 
L 234.726455 232.751153 
L 237.959646 228.779884 
L 240.39036 225.566259 
L 244.124851 229.070269 
L 247.996477 232.422136 
L 251.999045 235.616499 
L 256.126152 238.648246 
L 260.371195 241.512527 
L 264.727383 244.204762 
L 269.187748 246.720641 
L 273.745153 249.056141 
L 278.392308 251.207526 
L 283.121778 253.171353 
L 287.925997 254.94448 
L 292.797279 256.524072 
L 297.727831 257.907601 
L 302.709767 259.092854 
L 307.735114 260.077934 
L 312.795835 260.861267 
L 314.241353 261.047129 
L 311.078245 257.019816 
L 307.756618 253.122215 
L 304.281785 249.360561 
L 300.659305 245.740873 
L 296.894974 242.268941 
L 292.994814 238.950319 
L 288.965064 235.790316 
L 284.812171 232.793988 
L 280.542779 229.966128 
L 276.163718 227.31126 
L 271.681993 224.833631 
L 267.104774 222.537206 
L 262.439384 220.425657 
L 260.473196 219.602032 
L 259.591237 224.6465 
L 258.911709 229.722201 
L 258.435698 234.821016 
L 258.163967 239.934788 
L 258.096949 245.055336 
L 258.234751 250.174468 
L 258.577155 255.283994 
L 259.123611 260.375741 
L 259.873245 265.441563 
L 260.824859 270.473355 
L 261.976929 275.463068 
L 263.327614 280.40272 
L 264.916729 285.408 
L 266.468842 280.527893 
L 267.824562 275.589621 
L 268.981719 270.601085 
L 269.938462 265.570266 
L 270.69326 260.505211 
L 271.244907 255.414024 
L 271.592519 250.304849 
L 271.735541 245.18586 
L 271.673743 240.065247 
L 271.407225 234.9512 
L 270.936413 229.851902 
L 270.262059 224.775511 
L 269.385244 219.730147 
L 268.241719 214.447458 
L 272.894075 216.587574 
L 277.62829 218.539933 
L 282.436792 220.301412 
L 287.311888 221.869193 
L 292.24578 223.240769 
L 297.230573 224.413944 
L 302.258293 225.386842 
L 307.320897 226.157907 
L 312.410286 226.725905 
L 317.518318 227.089928 
L 322.636821 227.249392 
L 327.757607 227.204043 
L 332.872483 226.953954 
L 333.971564 226.873402 
L 331.669999 222.298765 
L 329.187339 217.819826 
L 326.527555 213.443749 
L 323.694902 209.177535 
L 320.693912 205.02801 
L 317.529385 201.001811 
L 314.206385 197.105381 
L 310.730227 193.344951 
L 307.106473 189.726539 
L 303.340919 186.255933 
L 299.439591 182.938685 
L 295.408728 179.780102 
L 291.25478 176.785236 
L 287.372263 174.205559 
L 287.372263 174.205559 
" style="fill:none;stroke:#1f77b4;stroke-linecap:square;stroke-width:1.5;"/>
   </g>
   <g id="patch_4">
    <path d="M 82.520165 307.584 
L 82.520165 41.472 
" style="fill:none;stroke:#000000;stroke-linecap:square;stroke-linejoin:miter;stroke-width:0.8;"/>
   </g>
   <g id="patch_5">
    <path d="M 389.799835 307.584 
L 389.799835 41.472 
" style="fill:none;stroke:#000000;stroke-linecap:square;stroke-linejoin:miter;stroke-width:0.8;"/>
   </g>
   <g id="patch_6">
    <path d="M 82.520165 307.584 
L 389.799835 307.584 
" style="fill:none;stroke:#000000;stroke-linecap:square;stroke-linejoin:miter;stroke-width:0.8;"/>
   </g>
   <g id="patch_7">
    <path d="M 82.520165 41.472 
L 389.799835 41.472 
" style="fill:none;stroke:#000000;stroke-linecap:square;stroke-linejoin:miter;stroke-width:0.8;"/>
   </g>
   <g id="PathCollection_1">
    <defs>
     <path d="M 0 2.236068 
C 0.593012 2.236068 1.161816 2.000462 1.581139 1.581139 
C 2.000462 1.161816 2.236068 0.593012 2.236068 0 
C 2.236068 -0.593012 2.000462 -1.161816 1.581139 -1.581139 
C 1.161816 -2.000462 0.593012 -2.236068 0 -2.236068 
C -0.593012 -2.236068 -1.161816 -2.000462 -1.581139 -1.581139 
C -2.000462 -1.161816 -2.236068 -0.593012 -2.236068 0 
C -2.236068 0.593012 -2.000462 1.161816 -1.581139 1.581139 
C -1.161816 2.000462 -0.593012 2.236068 0 2.236068 
z
" id="m443540d5d1" style="stroke:#000000;"/>
    </defs>
    <g clip-path="url(#p4d37c9167d)">
     <use style="stroke:#000000;" x="287.372263" xlink:href="#m443540d5d1" y="174.205559"/>
    </g>
   </g>
   <g id="Quiver_1">
    <path clip-path="url(#p4d37c9167d)" d="M 287.035037 173.691787 
L 292.686527 169.982296 
L 291.498303 169.291979 
L 297.6477 167.46103 
L 293.521661 172.37461 
L 293.36098 171.00984 
L 287.70949 174.71933 
L 287.035037 173.691787 
"/>
   </g>
  </g>
 </g>
 <defs>
  <clipPath id="p4d37c9167d">
   <rect height="266.112" width="307.27967" x="82.520165" y="41.472"/>
  </clipPath>
 </defs>
</svg>
