<?xml version="1.0" encoding="utf-8" standalone="no"?>
<!DOCTYPE svg PUBLIC "-//W3C//DTD SVG 1.1//EN"
  "http://www.w3.org/Graphics/SVG/1.1/DTD/svg11.dtd">
<!-- Created with matplotlib (https://matplotlib.org/) -->
<svg height="345.6pt" version="1.1" viewBox="0 0 460.8 345.6" width="460.8pt" xmlns="http://www.w3.org/2000/svg" xmlns:xlink="http://www.w3.org/1999/xlink">
 <defs>
  <style type="text/css">
*{stroke-linecap:butt;stroke-linejoin:round;}
  </style>
 </defs>
 <g id="figure_1">
  <g id="patch_1">
   <path d="M 0 345.6 
L 460.8 345.6 
L 460.8 0 
L 0 0 
z
" style="fill:#ffffff;"/>
  </g>
  <g id="axes_1">
   <g id="patch_2">
    <path d="M 57.6 263.808 
L 414.72 263.808 
L 414.72 85.248 
L 57.6 85.248 
z
" style="fill:#ffffff;"/>
   </g>
   <g id="PathCollection_1">
    <defs>
     <path d="M 0 3 
C 0.795609 3 1.55874 2.683901 2.12132 2.12132 
C 2.683901 1.55874 3 0.795609 3 0 
C 3 -0.795609 2.683901 -1.55874 2.12132 -2.12132 
C 1.55874 -2.683901 0.795609 -3 0 -3 
C -0.795609 -3 -1.55874 -2.683901 -2.12132 -2.12132 
C -2.683901 -1.55874 -3 -0.795609 -3 0 
C -3 0.795609 -2.683901 1.55874 -2.12132 2.12132 
C -1.55874 2.683901 -0.795609 3 0 3 
z
" id="md467c526ee" style="stroke:#000000;"/>
    </defs>
    <g clip-path="url(#p34b685ff14)">
     <use style="stroke:#000000;" x="103.261883" xlink:href="#md467c526ee" y="240.610076"/>
    </g>
   </g>
   <g id="patch_3">
    <path clip-path="url(#p34b685ff14)" d="M 161.76 211.728 
C 171.625555 211.728 181.088371 207.808373 188.064372 200.832372 
C 195.040373 193.856371 198.96 184.393555 198.96 174.528 
C 198.96 164.662445 195.040373 155.199629 188.064372 148.223628 
C 181.088371 141.247627 171.625555 137.328 161.76 137.328 
C 151.894445 137.328 142.431629 141.247627 135.455628 148.223628 
C 128.479627 155.199629 124.56 164.662445 124.56 174.528 
C 124.56 184.393555 128.479627 193.856371 135.455628 200.832372 
C 142.431629 207.808373 151.894445 211.728 161.76 211.728 
z
" style="fill:#cc0000;fill-opacity:0.1;stroke:#cc0000;stroke-dasharray:7.4,3.2;stroke-dashoffset:0;stroke-linejoin:miter;stroke-width:2;"/>
   </g>
   <g id="patch_4">
    <path clip-path="url(#p34b685ff14)" d="M 310.56 196.848 
C 316.479333 196.848 322.157023 194.496224 326.342623 190.310623 
C 330.528224 186.125023 332.88 180.447333 332.88 174.528 
C 332.88 168.608667 330.528224 162.930977 326.342623 158.745377 
C 322.157023 154.559776 316.479333 152.208 310.56 152.208 
C 304.640667 152.208 298.962977 154.559776 294.777377 158.745377 
C 290.591776 162.930977 288.24 168.608667 288.24 174.528 
C 288.24 180.447333 290.591776 186.125023 294.777377 190.310623 
C 298.962977 194.496224 304.640667 196.848 310.56 196.848 
z
" style="fill:#cc0000;fill-opacity:0.1;stroke:#cc0000;stroke-dasharray:7.4,3.2;stroke-dashoffset:0;stroke-linejoin:miter;stroke-width:2;"/>
   </g>
   <g id="matplotlib.axis_1">
    <g id="xtick_1">
     <g id="line2d_1">
      <defs>
       <path d="M 0 0 
L 0 3.5 
" id="mc926f4a56b" style="stroke:#000000;stroke-width:0.8;"/>
      </defs>
      <g>
       <use style="stroke:#000000;stroke-width:0.8;" x="87.36" xlink:href="#mc926f4a56b" y="263.808"/>
      </g>
     </g>
     <g id="text_1">
      <!-- 0.0 -->
      <defs>
       <path d="M 31.78125 66.40625 
Q 24.171875 66.40625 20.328125 58.90625 
Q 16.5 51.421875 16.5 36.375 
Q 16.5 21.390625 20.328125 13.890625 
Q 24.171875 6.390625 31.78125 6.390625 
Q 39.453125 6.390625 43.28125 13.890625 
Q 47.125 21.390625 47.125 36.375 
Q 47.125 51.421875 43.28125 58.90625 
Q 39.453125 66.40625 31.78125 66.40625 
z
M 31.78125 74.21875 
Q 44.046875 74.21875 50.515625 64.515625 
Q 56.984375 54.828125 56.984375 36.375 
Q 56.984375 17.96875 50.515625 8.265625 
Q 44.046875 -1.421875 31.78125 -1.421875 
Q 19.53125 -1.421875 13.0625 8.265625 
Q 6.59375 17.96875 6.59375 36.375 
Q 6.59375 54.828125 13.0625 64.515625 
Q 19.53125 74.21875 31.78125 74.21875 
z
" id="DejaVuSans-48"/>
       <path d="M 10.6875 12.40625 
L 21 12.40625 
L 21 0 
L 10.6875 0 
z
" id="DejaVuSans-46"/>
      </defs>
      <g transform="translate(79.408438 278.406437)scale(0.1 -0.1)">
       <use xlink:href="#DejaVuSans-48"/>
       <use x="63.623047" xlink:href="#DejaVuSans-46"/>
       <use x="95.410156" xlink:href="#DejaVuSans-48"/>
      </g>
     </g>
    </g>
    <g id="xtick_2">
     <g id="line2d_2">
      <g>
       <use style="stroke:#000000;stroke-width:0.8;" x="161.76" xlink:href="#mc926f4a56b" y="263.808"/>
      </g>
     </g>
     <g id="text_2">
      <!-- 0.5 -->
      <defs>
       <path d="M 10.796875 72.90625 
L 49.515625 72.90625 
L 49.515625 64.59375 
L 19.828125 64.59375 
L 19.828125 46.734375 
Q 21.96875 47.46875 24.109375 47.828125 
Q 26.265625 48.1875 28.421875 48.1875 
Q 40.625 48.1875 47.75 41.5 
Q 54.890625 34.8125 54.890625 23.390625 
Q 54.890625 11.625 47.5625 5.09375 
Q 40.234375 -1.421875 26.90625 -1.421875 
Q 22.3125 -1.421875 17.546875 -0.640625 
Q 12.796875 0.140625 7.71875 1.703125 
L 7.71875 11.625 
Q 12.109375 9.234375 16.796875 8.0625 
Q 21.484375 6.890625 26.703125 6.890625 
Q 35.15625 6.890625 40.078125 11.328125 
Q 45.015625 15.765625 45.015625 23.390625 
Q 45.015625 31 40.078125 35.4375 
Q 35.15625 39.890625 26.703125 39.890625 
Q 22.75 39.890625 18.8125 39.015625 
Q 14.890625 38.140625 10.796875 36.28125 
z
" id="DejaVuSans-53"/>
      </defs>
      <g transform="translate(153.808437 278.406437)scale(0.1 -0.1)">
       <use xlink:href="#DejaVuSans-48"/>
       <use x="63.623047" xlink:href="#DejaVuSans-46"/>
       <use x="95.410156" xlink:href="#DejaVuSans-53"/>
      </g>
     </g>
    </g>
    <g id="xtick_3">
     <g id="line2d_3">
      <g>
       <use style="stroke:#000000;stroke-width:0.8;" x="236.16" xlink:href="#mc926f4a56b" y="263.808"/>
      </g>
     </g>
     <g id="text_3">
      <!-- 1.0 -->
      <defs>
       <path d="M 12.40625 8.296875 
L 28.515625 8.296875 
L 28.515625 63.921875 
L 10.984375 60.40625 
L 10.984375 69.390625 
L 28.421875 72.90625 
L 38.28125 72.90625 
L 38.28125 8.296875 
L 54.390625 8.296875 
L 54.390625 0 
L 12.40625 0 
z
" id="DejaVuSans-49"/>
      </defs>
      <g transform="translate(228.208437 278.406437)scale(0.1 -0.1)">
       <use xlink:href="#DejaVuSans-49"/>
       <use x="63.623047" xlink:href="#DejaVuSans-46"/>
       <use x="95.410156" xlink:href="#DejaVuSans-48"/>
      </g>
     </g>
    </g>
    <g id="xtick_4">
     <g id="line2d_4">
      <g>
       <use style="stroke:#000000;stroke-width:0.8;" x="310.56" xlink:href="#mc926f4a56b" y="263.808"/>
      </g>
     </g>
     <g id="text_4">
      <!-- 1.5 -->
      <g transform="translate(302.608437 278.406437)scale(0.1 -0.1)">
       <use xlink:href="#DejaVuSans-49"/>
       <use x="63.623047" xlink:href="#DejaVuSans-46"/>
       <use x="95.410156" xlink:href="#DejaVuSans-53"/>
      </g>
     </g>
    </g>
    <g id="xtick_5">
     <g id="line2d_5">
      <g>
       <use style="stroke:#000000;stroke-width:0.8;" x="384.96" xlink:href="#mc926f4a56b" y="263.808"/>
      </g>
     </g>
     <g id="text_5">
      <!-- 2.0 -->
      <defs>
       <path d="M 19.1875 8.296875 
L 53.609375 8.296875 
L 53.609375 0 
L 7.328125 0 
L 7.328125 8.296875 
Q 12.9375 14.109375 22.625 23.890625 
Q 32.328125 33.6875 34.8125 36.53125 
Q 39.546875 41.84375 41.421875 45.53125 
Q 43.3125 49.21875 43.3125 52.78125 
Q 43.3125 58.59375 39.234375 62.25 
Q 35.15625 65.921875 28.609375 65.921875 
Q 23.96875 65.921875 18.8125 64.3125 
Q 13.671875 62.703125 7.8125 59.421875 
L 7.8125 69.390625 
Q 13.765625 71.78125 18.9375 73 
Q 24.125 74.21875 28.421875 74.21875 
Q 39.75 74.21875 46.484375 68.546875 
Q 53.21875 62.890625 53.21875 53.421875 
Q 53.21875 48.921875 51.53125 44.890625 
Q 49.859375 40.875 45.40625 35.40625 
Q 44.1875 33.984375 37.640625 27.21875 
Q 31.109375 20.453125 19.1875 8.296875 
z
" id="DejaVuSans-50"/>
      </defs>
      <g transform="translate(377.008437 278.406437)scale(0.1 -0.1)">
       <use xlink:href="#DejaVuSans-50"/>
       <use x="63.623047" xlink:href="#DejaVuSans-46"/>
       <use x="95.410156" xlink:href="#DejaVuSans-48"/>
      </g>
     </g>
    </g>
   </g>
   <g id="matplotlib.axis_2">
    <g id="ytick_1">
     <g id="line2d_6">
      <defs>
       <path d="M 0 0 
L -3.5 0 
" id="m9e420cbde6" style="stroke:#000000;stroke-width:0.8;"/>
      </defs>
      <g>
       <use style="stroke:#000000;stroke-width:0.8;" x="57.6" xlink:href="#m9e420cbde6" y="248.928"/>
      </g>
     </g>
     <g id="text_6">
      <!-- 0.0 -->
      <g transform="translate(34.696875 252.727219)scale(0.1 -0.1)">
       <use xlink:href="#DejaVuSans-48"/>
       <use x="63.623047" xlink:href="#DejaVuSans-46"/>
       <use x="95.410156" xlink:href="#DejaVuSans-48"/>
      </g>
     </g>
    </g>
    <g id="ytick_2">
     <g id="line2d_7">
      <g>
       <use style="stroke:#000000;stroke-width:0.8;" x="57.6" xlink:href="#m9e420cbde6" y="219.168"/>
      </g>
     </g>
     <g id="text_7">
      <!-- 0.2 -->
      <g transform="translate(34.696875 222.967219)scale(0.1 -0.1)">
       <use xlink:href="#DejaVuSans-48"/>
       <use x="63.623047" xlink:href="#DejaVuSans-46"/>
       <use x="95.410156" xlink:href="#DejaVuSans-50"/>
      </g>
     </g>
    </g>
    <g id="ytick_3">
     <g id="line2d_8">
      <g>
       <use style="stroke:#000000;stroke-width:0.8;" x="57.6" xlink:href="#m9e420cbde6" y="189.408"/>
      </g>
     </g>
     <g id="text_8">
      <!-- 0.4 -->
      <defs>
       <path d="M 37.796875 64.3125 
L 12.890625 25.390625 
L 37.796875 25.390625 
z
M 35.203125 72.90625 
L 47.609375 72.90625 
L 47.609375 25.390625 
L 58.015625 25.390625 
L 58.015625 17.1875 
L 47.609375 17.1875 
L 47.609375 0 
L 37.796875 0 
L 37.796875 17.1875 
L 4.890625 17.1875 
L 4.890625 26.703125 
z
" id="DejaVuSans-52"/>
      </defs>
      <g transform="translate(34.696875 193.207219)scale(0.1 -0.1)">
       <use xlink:href="#DejaVuSans-48"/>
       <use x="63.623047" xlink:href="#DejaVuSans-46"/>
       <use x="95.410156" xlink:href="#DejaVuSans-52"/>
      </g>
     </g>
    </g>
    <g id="ytick_4">
     <g id="line2d_9">
      <g>
       <use style="stroke:#000000;stroke-width:0.8;" x="57.6" xlink:href="#m9e420cbde6" y="159.648"/>
      </g>
     </g>
     <g id="text_9">
      <!-- 0.6 -->
      <defs>
       <path d="M 33.015625 40.375 
Q 26.375 40.375 22.484375 35.828125 
Q 18.609375 31.296875 18.609375 23.390625 
Q 18.609375 15.53125 22.484375 10.953125 
Q 26.375 6.390625 33.015625 6.390625 
Q 39.65625 6.390625 43.53125 10.953125 
Q 47.40625 15.53125 47.40625 23.390625 
Q 47.40625 31.296875 43.53125 35.828125 
Q 39.65625 40.375 33.015625 40.375 
z
M 52.59375 71.296875 
L 52.59375 62.3125 
Q 48.875 64.0625 45.09375 64.984375 
Q 41.3125 65.921875 37.59375 65.921875 
Q 27.828125 65.921875 22.671875 59.328125 
Q 17.53125 52.734375 16.796875 39.40625 
Q 19.671875 43.65625 24.015625 45.921875 
Q 28.375 48.1875 33.59375 48.1875 
Q 44.578125 48.1875 50.953125 41.515625 
Q 57.328125 34.859375 57.328125 23.390625 
Q 57.328125 12.15625 50.6875 5.359375 
Q 44.046875 -1.421875 33.015625 -1.421875 
Q 20.359375 -1.421875 13.671875 8.265625 
Q 6.984375 17.96875 6.984375 36.375 
Q 6.984375 53.65625 15.1875 63.9375 
Q 23.390625 74.21875 37.203125 74.21875 
Q 40.921875 74.21875 44.703125 73.484375 
Q 48.484375 72.75 52.59375 71.296875 
z
" id="DejaVuSans-54"/>
      </defs>
      <g transform="translate(34.696875 163.447219)scale(0.1 -0.1)">
       <use xlink:href="#DejaVuSans-48"/>
       <use x="63.623047" xlink:href="#DejaVuSans-46"/>
       <use x="95.410156" xlink:href="#DejaVuSans-54"/>
      </g>
     </g>
    </g>
    <g id="ytick_5">
     <g id="line2d_10">
      <g>
       <use style="stroke:#000000;stroke-width:0.8;" x="57.6" xlink:href="#m9e420cbde6" y="129.888"/>
      </g>
     </g>
     <g id="text_10">
      <!-- 0.8 -->
      <defs>
       <path d="M 31.78125 34.625 
Q 24.75 34.625 20.71875 30.859375 
Q 16.703125 27.09375 16.703125 20.515625 
Q 16.703125 13.921875 20.71875 10.15625 
Q 24.75 6.390625 31.78125 6.390625 
Q 38.8125 6.390625 42.859375 10.171875 
Q 46.921875 13.96875 46.921875 20.515625 
Q 46.921875 27.09375 42.890625 30.859375 
Q 38.875 34.625 31.78125 34.625 
z
M 21.921875 38.8125 
Q 15.578125 40.375 12.03125 44.71875 
Q 8.5 49.078125 8.5 55.328125 
Q 8.5 64.0625 14.71875 69.140625 
Q 20.953125 74.21875 31.78125 74.21875 
Q 42.671875 74.21875 48.875 69.140625 
Q 55.078125 64.0625 55.078125 55.328125 
Q 55.078125 49.078125 51.53125 44.71875 
Q 48 40.375 41.703125 38.8125 
Q 48.828125 37.15625 52.796875 32.3125 
Q 56.78125 27.484375 56.78125 20.515625 
Q 56.78125 9.90625 50.3125 4.234375 
Q 43.84375 -1.421875 31.78125 -1.421875 
Q 19.734375 -1.421875 13.25 4.234375 
Q 6.78125 9.90625 6.78125 20.515625 
Q 6.78125 27.484375 10.78125 32.3125 
Q 14.796875 37.15625 21.921875 38.8125 
z
M 18.3125 54.390625 
Q 18.3125 48.734375 21.84375 45.5625 
Q 25.390625 42.390625 31.78125 42.390625 
Q 38.140625 42.390625 41.71875 45.5625 
Q 45.3125 48.734375 45.3125 54.390625 
Q 45.3125 60.0625 41.71875 63.234375 
Q 38.140625 66.40625 31.78125 66.40625 
Q 25.390625 66.40625 21.84375 63.234375 
Q 18.3125 60.0625 18.3125 54.390625 
z
" id="DejaVuSans-56"/>
      </defs>
      <g transform="translate(34.696875 133.687219)scale(0.1 -0.1)">
       <use xlink:href="#DejaVuSans-48"/>
       <use x="63.623047" xlink:href="#DejaVuSans-46"/>
       <use x="95.410156" xlink:href="#DejaVuSans-56"/>
      </g>
     </g>
    </g>
    <g id="ytick_6">
     <g id="line2d_11">
      <g>
       <use style="stroke:#000000;stroke-width:0.8;" x="57.6" xlink:href="#m9e420cbde6" y="100.128"/>
      </g>
     </g>
     <g id="text_11">
      <!-- 1.0 -->
      <g transform="translate(34.696875 103.927219)scale(0.1 -0.1)">
       <use xlink:href="#DejaVuSans-49"/>
       <use x="63.623047" xlink:href="#DejaVuSans-46"/>
       <use x="95.410156" xlink:href="#DejaVuSans-48"/>
      </g>
     </g>
    </g>
   </g>
   <g id="line2d_12">
    <path clip-path="url(#p34b685ff14)" d="M 236.16 248.928 
L 236.16 100.128 
" style="fill:none;stroke:#cc0000;stroke-dasharray:7.4,3.2;stroke-dashoffset:0;stroke-width:2;"/>
   </g>
   <g id="line2d_13">
    <path clip-path="url(#p34b685ff14)" d="M 87.36 248.928 
L 384.96 248.928 
" style="fill:none;stroke:#009900;stroke-linecap:square;stroke-width:2;"/>
   </g>
   <g id="line2d_14">
    <path clip-path="url(#p34b685ff14)" d="M 384.96 248.928 
L 384.96 100.128 
" style="fill:none;stroke:#009900;stroke-linecap:square;stroke-width:2;"/>
   </g>
   <g id="line2d_15">
    <path clip-path="url(#p34b685ff14)" d="M 384.96 100.128 
L 87.36 100.128 
" style="fill:none;stroke:#009900;stroke-linecap:square;stroke-width:2;"/>
   </g>
   <g id="line2d_16">
    <path clip-path="url(#p34b685ff14)" d="M 87.36 100.128 
L 87.36 248.928 
" style="fill:none;stroke:#009900;stroke-linecap:square;stroke-width:2;"/>
   </g>
   <g id="line2d_17">
    <path clip-path="url(#p34b685ff14)" d="M 103.261883 240.610076 
L 97.558466 242.310847 
L 91.927625 244.238334 
L 87.36 245.990248 
L 92.924437 248.101792 
L 95.303735 248.928 
L 100.903115 246.910942 
L 106.417355 244.671581 
L 111.837634 242.213501 
L 117.155281 239.540634 
L 122.361787 236.657256 
L 127.448825 233.567979 
L 132.408255 230.277746 
L 137.232144 226.791821 
L 141.912775 223.11578 
L 146.442659 219.255504 
L 150.81455 215.217169 
L 154.93553 211.096656 
L 157.345362 216.538557 
L 159.970885 221.879738 
L 162.807898 227.111653 
L 165.851863 232.225933 
L 169.097909 237.214396 
L 172.540844 242.069062 
L 176.17516 246.782164 
L 177.932512 248.928 
L 181.654044 244.283457 
L 185.186867 239.493808 
L 188.52533 234.566715 
L 191.664091 229.510059 
L 194.598129 224.331932 
L 197.32275 219.040617 
L 199.833595 213.644578 
L 202.126649 208.152448 
L 204.198241 202.573014 
L 206.045058 196.915201 
L 207.664146 191.188061 
L 209.052915 185.400756 
L 210.209142 179.562544 
L 211.130978 173.682765 
L 211.816948 167.770826 
L 212.265955 161.836184 
L 212.477281 155.888334 
L 212.450586 149.93679 
L 212.185915 143.991075 
L 211.683691 138.0607 
L 210.944716 132.155152 
L 209.970174 126.283878 
L 208.761623 120.456273 
L 207.320996 114.681658 
L 205.650599 108.969272 
L 203.753103 103.328254 
L 202.563264 100.128 
L 200.53684 105.723998 
L 198.735818 111.396554 
L 197.163078 117.136595 
L 195.821137 122.934938 
L 194.712141 128.782305 
L 193.837864 134.669344 
L 193.199706 140.586635 
L 192.798686 146.524712 
L 192.635447 152.474076 
L 192.631463 153.772452 
L 198.184007 155.915076 
L 203.817792 157.833944 
L 209.523804 159.525985 
L 215.292916 160.988494 
L 221.115897 162.219129 
L 226.983434 163.215923 
L 232.886138 163.977281 
L 236.16 164.296583 
L 243.596327 164.524093 
L 251.036017 164.565643 
L 258.474421 164.421207 
L 265.90689 164.090876 
L 273.32878 163.574855 
L 280.73545 162.873468 
L 288.122274 161.987152 
L 292.532013 161.368437 
L 291.234298 154.042684 
L 289.753864 146.75166 
L 288.091635 139.499922 
L 286.248651 132.292 
L 284.226064 125.132401 
L 282.025138 118.025599 
L 279.647248 110.976035 
L 277.09388 103.988114 
L 275.597656 100.128 
L 272.947328 107.079725 
L 270.471603 114.095529 
L 268.172028 121.171027 
L 266.050041 128.301797 
L 264.106968 135.483384 
L 262.344023 142.711298 
L 260.762308 149.981022 
L 259.362812 157.288014 
L 258.146408 164.627706 
L 257.113858 171.995511 
L 256.265806 179.386826 
L 255.602783 186.797029 
L 255.125203 194.221491 
L 254.833364 201.655571 
L 254.72745 209.094624 
L 254.807525 216.533999 
L 255.07354 223.969048 
L 255.525329 231.395124 
L 256.162609 238.807586 
L 256.984983 246.201801 
L 257.335526 248.928 
L 258.226157 241.541696 
L 258.931871 234.135436 
L 259.452227 226.713849 
L 259.786901 219.281574 
L 259.935682 211.843256 
L 259.898479 204.403543 
L 259.675313 196.967084 
L 259.266325 189.538528 
L 258.671771 182.122517 
L 257.892021 174.723685 
L 256.927563 167.346658 
L 255.779001 159.996044 
L 254.447051 152.676438 
L 252.932546 145.392415 
L 251.236432 138.148527 
L 249.359771 130.949301 
L 247.303734 123.799236 
L 245.069606 116.702801 
L 242.658784 109.664431 
L 240.072775 102.688524 
L 239.073396 100.128 
L 236.16 107.799397 
L 238.79242 114.757923 
L 241.597963 121.648471 
L 244.574875 128.466734 
L 247.721296 135.208451 
L 251.035258 141.86941 
L 254.514692 148.445446 
L 258.157423 154.932451 
L 261.961173 161.32637 
L 265.923566 167.623208 
L 270.042125 173.819028 
L 274.314277 179.909958 
L 278.737351 185.892193 
L 283.308583 191.761993 
L 288.025117 197.51569 
L 292.884004 203.149688 
L 297.882208 208.660466 
L 303.016605 214.04458 
L 308.283987 219.298665 
L 313.681061 224.419437 
L 319.204455 229.403696 
L 324.850716 234.248327 
L 330.616316 238.950303 
L 336.497651 243.506684 
L 342.491047 247.914623 
L 343.914436 248.928 
L 349.933608 244.555325 
L 355.841593 240.033553 
L 361.6347 235.365509 
L 367.309308 230.554112 
L 372.86187 225.602367 
L 378.288916 220.513371 
L 383.587055 215.290303 
L 384.96 213.893381 
L 379.696352 208.635556 
L 374.302916 203.510952 
L 368.783064 198.522771 
L 363.140246 193.67413 
L 357.377987 188.96806 
L 351.49989 184.407503 
L 345.509627 179.995307 
L 339.410943 175.734231 
L 332.639751 171.261964 
L 337.401293 165.545458 
L 342.01845 159.711713 
L 346.488335 153.764374 
L 350.808155 147.707158 
L 354.975211 141.54385 
L 358.986899 135.278303 
L 362.84071 128.914431 
L 366.534237 122.456214 
L 370.065171 115.907685 
L 373.431305 109.272939 
L 376.630536 102.556122 
L 377.736864 100.128 
L 380.875744 106.873231 
L 384.182257 113.537891 
L 384.96 115.046884 
L 381.615523 121.692574 
L 378.438217 128.41979 
L 375.430066 135.224329 
L 372.592951 142.101937 
L 369.928645 149.048317 
L 367.438813 156.059127 
L 365.125011 163.129985 
L 362.988685 170.256473 
L 361.03117 177.434136 
L 359.253689 184.658489 
L 357.657355 191.925017 
L 356.243163 199.229179 
L 355.011998 206.56641 
L 353.96463 213.932123 
L 353.101712 221.321717 
L 352.423785 228.730572 
L 351.931272 236.154058 
L 351.62448 243.587536 
L 351.518865 248.928 
L 351.471848 245.952384 
L 351.224154 238.516702 
L 350.790663 231.089535 
L 350.171649 223.675526 
L 349.367497 216.279307 
L 348.37871 208.905501 
L 347.205906 201.558716 
L 345.849818 194.243544 
L 344.311294 186.964556 
L 342.591294 179.726302 
L 340.690895 172.533306 
L 338.611283 165.390062 
L 336.353759 158.301035 
L 333.919732 151.270656 
L 331.310726 144.303318 
L 328.528369 137.403375 
L 325.574401 130.57514 
L 322.450668 123.822881 
L 319.159122 117.150816 
L 315.701821 110.563117 
L 312.080924 104.0639 
L 309.782966 100.128 
L 306.062964 106.571004 
L 302.505183 113.104986 
L 299.111846 119.72586 
L 295.885075 126.429491 
L 292.826885 133.211687 
L 289.939187 140.068211 
L 287.223788 146.994778 
L 284.682383 153.987058 
L 282.316561 161.040681 
L 280.1278 168.15124 
L 278.117469 175.31429 
L 276.286824 182.525355 
L 274.637008 189.779927 
L 273.169054 197.073474 
L 271.883878 204.401437 
L 270.782283 211.759236 
L 269.864959 219.142273 
L 269.132478 226.545933 
L 268.585298 233.96559 
L 268.223761 241.396607 
L 268.047067 248.928 
L 268.00005 245.952384 
L 267.752355 238.516702 
L 267.318865 231.089535 
L 266.69985 223.675526 
L 265.895698 216.279307 
L 264.906911 208.905501 
L 263.734107 201.558716 
L 262.37802 194.243544 
L 260.839495 186.964556 
L 259.119496 179.726302 
L 257.219096 172.533306 
L 255.139485 165.390062 
L 252.88196 158.301035 
L 250.447934 151.270656 
L 247.838927 144.303318 
L 245.05657 137.403375 
L 242.102602 130.57514 
L 238.978869 123.822881 
L 236.16 118.083555 
L 239.428082 111.399966 
L 242.528071 104.636773 
L 244.482522 100.128 
L 247.470414 106.941459 
L 250.627691 113.678099 
L 253.952379 120.33371 
L 257.442402 126.904133 
L 261.095577 133.385262 
L 264.909623 139.773045 
L 268.882154 146.063491 
L 273.010689 152.252669 
L 277.292647 158.336709 
L 281.725352 164.311811 
L 286.306034 170.17424 
L 288.318547 172.657128 
L 282.769368 177.612664 
L 277.345799 182.705365 
L 272.051228 187.932051 
L 266.888966 193.289454 
L 261.862238 198.774226 
L 256.974186 204.382939 
L 252.227864 210.112088 
L 247.62624 215.958092 
L 243.172188 221.917299 
L 238.868493 227.985983 
L 236.16 231.977039 
L 240.364776 238.114675 
L 244.721662 244.145285 
L 248.34411 248.928 
L 252.821684 242.986447 
L 257.149336 236.934824 
L 261.32436 230.776911 
L 265.344148 224.516558 
L 269.206188 218.157677 
L 272.908065 211.704242 
L 276.447466 205.160286 
L 279.822179 198.529899 
L 283.030096 191.817226 
L 286.06921 185.02646 
L 288.661364 178.844496 
L 283.389512 173.594897 
L 277.988081 168.47872 
L 272.460447 163.499164 
L 266.810064 158.659341 
L 261.040464 153.962274 
L 255.155253 149.410901 
L 249.158108 145.008064 
L 243.052777 140.756517 
L 236.16 136.221642 
L 242.380844 132.140979 
L 248.497739 127.906086 
L 254.506861 123.51961 
L 260.404454 118.984292 
L 266.186834 114.302967 
L 271.850386 109.478561 
L 277.39157 104.514088 
L 282.063752 100.128 
L 287.496756 105.210636 
L 293.055114 110.155873 
L 298.735354 114.96062 
L 304.533925 119.621875 
L 310.447203 124.136723 
L 316.471493 128.502345 
L 322.603029 132.71601 
L 328.83798 136.775087 
L 335.172449 140.677037 
L 341.602477 144.419424 
L 348.124046 147.999906 
L 354.73308 151.416248 
L 361.425448 154.666313 
L 368.196968 157.748071 
L 375.043409 160.659596 
L 381.96049 163.399067 
L 384.96 164.525383 
L 378.013827 167.190226 
L 371.136438 170.027873 
L 364.332132 173.036551 
L 357.605162 176.214378 
L 350.95973 179.559369 
L 344.399992 183.069433 
L 337.930046 186.742376 
L 331.553936 190.575904 
L 325.275646 194.56762 
L 319.099101 198.715029 
L 313.02816 203.01554 
L 307.066617 207.466465 
L 301.2182 212.065022 
L 295.486561 216.808337 
L 289.875285 221.693446 
L 284.387876 226.717296 
L 279.027766 231.876747 
L 273.798303 237.168574 
L 268.702757 242.589471 
L 263.056402 248.928 
L 258.117538 243.363978 
L 253.041131 237.925154 
L 247.830354 232.614926 
L 242.488463 227.436614 
L 236.16 221.624261 
L 241.649162 216.602327 
L 247.011073 211.444748 
L 252.242383 206.154746 
L 257.339822 200.735629 
L 262.300204 195.190782 
L 267.12043 189.523671 
L 271.797486 183.737839 
L 276.32845 177.836899 
L 280.71049 171.824542 
L 284.940867 165.704524 
L 289.016938 159.480669 
L 292.936155 153.156869 
L 296.696069 146.737074 
L 300.29433 140.225297 
L 303.728689 133.625608 
L 306.997 126.942131 
L 310.097219 120.179044 
L 313.027411 113.340572 
L 315.785743 106.43099 
L 318.129619 100.128 
L 320.731125 107.098142 
L 323.506054 114.001076 
L 326.452671 120.832486 
L 329.569134 127.588104 
L 332.853496 134.263707 
L 336.303705 140.855124 
L 339.917604 147.358235 
L 343.692935 153.768976 
L 347.627337 160.08334 
L 351.718353 166.297381 
L 355.963425 172.407215 
L 360.359901 178.409025 
L 364.905033 184.299059 
L 369.595979 190.073635 
L 374.42981 195.729146 
L 379.403502 201.262056 
L 384.96 207.128177 
L 379.837933 212.524023 
L 374.852349 218.04622 
L 370.006363 223.691319 
L 365.303004 229.455791 
L 360.745212 235.336033 
L 356.335835 241.328371 
L 352.077629 247.429059 
L 351.065655 248.928 
L 346.844602 242.801547 
L 342.471723 236.782524 
L 337.94975 230.874692 
L 333.28151 225.081743 
L 328.469919 219.407299 
L 323.517986 213.854905 
L 318.428806 208.428032 
L 313.205557 203.130071 
L 307.851506 197.964333 
L 306.194411 196.416902 
L 299.247799 199.080601 
L 292.369943 201.917115 
L 285.565141 204.924671 
L 278.837647 208.10139 
L 272.191665 211.445286 
L 265.631349 214.954269 
L 259.160797 218.626146 
L 252.784056 222.458623 
L 246.505108 226.449305 
L 240.32788 230.595696 
L 236.16 233.522484 
L 242.265369 237.773977 
L 248.475106 241.871522 
L 254.785331 245.81256 
L 260.035914 248.928 
L 266.425657 245.11724 
L 272.718145 241.147943 
L 278.909444 237.022591 
L 284.995686 232.743762 
L 290.973066 228.314129 
L 296.837849 223.736462 
L 302.586369 219.013621 
L 308.215035 214.148557 
L 313.720328 209.144312 
L 319.098807 204.004013 
L 324.347112 198.730872 
L 329.461962 193.328185 
L 334.44016 187.799328 
L 339.278596 182.147757 
L 343.974245 176.377004 
L 348.524173 170.490674 
L 352.925537 164.492448 
L 357.175585 158.386074 
L 361.271661 152.175368 
L 365.211206 145.864211 
L 368.991758 139.456547 
L 372.610953 132.956383 
L 376.06653 126.367779 
L 379.35633 119.694853 
L 382.478295 112.941776 
L 384.96 107.233103 
L 381.849471 100.128 
L 378.862186 106.941725 
L 376.046161 113.827995 
L 373.403154 120.782507 
L 370.934818 127.800914 
L 368.642695 134.878829 
L 366.528218 142.01183 
L 364.592708 149.195459 
L 362.837375 156.425225 
L 361.263315 163.696611 
L 359.871514 171.005072 
L 358.662839 178.346041 
L 357.638048 185.71493 
L 356.797779 193.107133 
L 356.142559 200.518031 
L 355.672797 207.942991 
L 355.388787 215.377375 
L 355.290705 222.816534 
L 355.378614 230.255821 
L 355.652458 237.690586 
L 356.112066 245.116182 
L 356.420509 248.928 
L 356.975499 241.508923 
L 357.344858 234.078291 
L 357.528355 226.640748 
L 357.525876 219.200942 
L 357.337422 211.763523 
L 356.96311 204.333139 
L 356.403175 196.914434 
L 355.657967 189.512043 
L 354.727951 182.130595 
L 353.613709 174.7747 
L 352.315937 167.448958 
L 350.835446 160.157945 
L 349.173161 152.906219 
L 347.330121 145.698313 
L 345.307478 138.538729 
L 343.106497 131.431944 
L 340.728552 124.382398 
L 338.17513 117.394498 
L 335.447826 110.47261 
L 332.548346 103.62106 
L 330.991547 100.128 
L 328.004262 106.941725 
L 325.188237 113.827995 
L 322.54523 120.782507 
L 320.076894 127.800914 
L 317.784771 134.878829 
L 315.670294 142.01183 
L 313.734784 149.195459 
L 312.948715 152.33619 
L 311.804162 158.176702 
L 310.426966 163.966772 
L 308.81933 169.697137 
L 306.983827 175.358631 
L 304.923393 180.942195 
L 302.641324 186.438898 
L 300.141271 191.839946 
L 299.198422 193.739896 
L 302.658198 188.897218 
L 306.308862 184.196767 
L 310.144574 179.646065 
L 314.159197 175.25239 
L 318.346309 171.022771 
L 322.699212 166.963976 
L 327.210941 163.082497 
L 328.855759 161.743337 
L 323.70157 164.719227 
L 318.432501 167.486624 
L 313.05698 170.041102 
L 307.583607 172.378572 
L 302.021138 174.495296 
L 296.378472 176.387887 
L 290.664636 178.053319 
L 287.199666 179.056856 
L 280.168925 181.489836 
L 273.201199 184.097807 
L 266.300843 186.879137 
L 259.472169 189.83209 
L 252.719445 192.954819 
L 246.046891 196.245372 
L 239.458677 199.701694 
L 236.16 201.512228 
L 233.129691 206.634611 
L 230.306647 211.874077 
L 227.695383 217.222243 
L 225.300078 222.670554 
L 223.124563 228.210294 
L 221.172319 233.8326 
L 219.446469 239.528477 
L 217.949773 245.288814 
L 217.129592 248.928 
L 215.777769 243.131953 
L 214.195248 237.394602 
L 212.384559 231.725123 
L 210.3486 226.132588 
L 208.090628 220.625942 
L 205.614255 215.213997 
L 202.923442 209.905408 
L 200.022495 204.70867 
L 196.916055 199.632096 
L 193.303428 194.247334 
L 190.156843 191.081845 
L 187.205735 187.733371 
L 184.460725 184.213962 
L 181.931693 180.536284 
L 179.62774 176.713573 
L 177.557158 172.759586 
L 175.727399 168.688555 
L 174.145047 164.515129 
L 172.815799 160.254329 
L 171.744436 155.921489 
L 170.934817 151.532203 
L 170.389853 147.102267 
L 170.111507 142.647624 
L 170.098343 138.274558 
L 168.133845 142.282309 
L 165.932562 146.165049 
L 163.502415 149.908805 
L 160.852151 153.500102 
L 157.991307 156.926017 
L 154.930179 160.174219 
L 151.679785 163.233018 
L 148.251822 166.091407 
L 144.658626 168.739098 
L 140.913131 171.166562 
L 137.028815 173.365063 
L 133.019657 175.326688 
L 128.900087 177.044379 
L 124.771031 178.484785 
L 129.200575 179.032923 
L 133.58928 179.845687 
L 137.921351 180.920153 
L 142.181198 182.252454 
L 146.353489 183.837795 
L 150.423209 185.670471 
L 154.375711 187.743885 
L 158.19677 190.050576 
L 161.872635 192.582243 
L 165.390077 195.329773 
L 168.736436 198.283279 
L 171.899669 201.432132 
L 174.868393 204.764999 
L 177.578129 208.197375 
L 182.082975 212.08684 
L 186.739756 215.793048 
L 191.54102 219.31007 
L 196.479087 222.632279 
L 201.546057 225.754361 
L 206.733824 228.671321 
L 212.034089 231.378492 
L 217.438371 233.871544 
L 222.938027 236.146487 
L 228.524257 238.199684 
L 234.188124 240.027849 
L 236.16 240.606234 
L 243.540166 241.546372 
L 250.941528 242.301732 
L 258.359458 242.871841 
L 265.789322 243.256342 
L 273.226476 243.454997 
L 280.666271 243.467679 
L 288.104059 243.294383 
L 295.53519 242.935215 
L 302.955021 242.3904 
L 310.358915 241.66028 
L 317.742244 240.745309 
L 325.100394 239.64606 
L 332.428766 238.36322 
L 339.72278 236.897591 
L 346.977879 235.250089 
L 354.189527 233.421742 
L 361.353217 231.413695 
L 368.464473 229.227201 
L 375.518851 226.863628 
L 382.511941 224.324453 
L 384.96 223.388438 
L 377.989543 220.787774 
L 370.956255 218.362167 
L 363.86453 216.113132 
L 356.718802 214.042074 
L 349.523535 212.150287 
L 342.283227 210.438955 
L 335.002403 208.909147 
L 327.685612 207.561818 
L 320.337429 206.397811 
L 312.962444 205.417853 
L 305.565267 204.622556 
L 298.150522 204.012419 
L 290.722842 203.587821 
L 283.286869 203.349029 
L 275.84725 203.296191 
L 268.408636 203.429341 
L 260.975674 203.748395 
L 253.55301 204.253154 
L 246.145284 204.943303 
L 238.757124 205.81841 
L 236.16 206.170642 
L 243.540166 207.11078 
L 250.941528 207.86614 
L 258.359458 208.436249 
L 265.789322 208.82075 
L 273.226476 209.019405 
L 280.666271 209.032087 
L 288.104059 208.858791 
L 295.53519 208.499623 
L 302.955021 207.954808 
L 310.358915 207.224688 
L 317.742244 206.309717 
L 325.100394 205.210468 
L 332.428766 203.927628 
L 339.72278 202.461999 
L 346.977879 200.814497 
L 354.189527 198.98615 
L 361.353217 196.978103 
L 368.464473 194.791609 
L 375.518851 192.428036 
L 382.511941 189.888861 
L 384.96 188.952846 
L 377.989543 186.352182 
L 370.956255 183.926575 
L 363.86453 181.67754 
L 356.718802 179.606482 
L 349.523535 177.714695 
L 342.283227 176.003363 
L 335.002403 174.473555 
L 332.875141 174.062318 
L 340.098954 172.282639 
L 347.276021 170.32294 
L 354.401858 168.184445 
L 361.472012 165.868492 
L 368.482064 163.376526 
L 375.427632 160.710106 
L 382.304377 157.870898 
L 384.96 156.720105 
L 378.111192 153.814154 
L 371.191884 151.080313 
L 364.206398 148.520292 
L 357.159102 146.135689 
L 350.054399 143.927996 
L 342.896729 141.898591 
L 335.690566 140.048744 
L 328.440414 138.37961 
L 321.150803 136.892232 
L 313.82629 135.587541 
L 306.471451 134.466351 
L 299.090884 133.529363 
L 291.689201 132.777163 
L 284.271028 132.210221 
L 276.841001 131.828891 
L 269.403763 131.633411 
L 261.963963 131.623904 
L 254.52625 131.800376 
L 247.095272 132.162716 
L 239.675674 132.710698 
L 236.16 133.035602 
L 230.346916 134.312175 
L 224.589532 135.820188 
L 218.897057 137.557229 
L 213.278599 139.520519 
L 207.743145 141.706917 
L 202.299552 144.112925 
L 196.956528 146.734694 
L 191.72262 149.56803 
L 190.140741 150.478602 
L 193.851919 145.825782 
L 197.374066 141.028276 
L 200.701546 136.093759 
L 203.829036 131.030125 
L 206.751534 125.845476 
L 209.464363 120.548105 
L 211.963184 115.146487 
L 214.243999 109.649264 
L 216.303159 104.065229 
L 217.605087 100.128 
L 219.507841 105.767247 
L 221.634583 111.325893 
L 223.981911 116.795046 
L 226.546069 122.165956 
L 229.322954 127.430031 
L 232.308126 132.57885 
L 235.496807 137.604175 
L 236.16 138.595901 
L 232.93113 143.595499 
L 229.904772 148.720218 
L 227.08577 153.96186 
L 224.478633 159.312039 
L 222.087531 164.762196 
L 219.916289 170.303612 
L 217.968382 175.927422 
L 216.246926 181.624629 
L 214.754674 187.386119 
L 213.494014 193.202674 
L 212.466962 199.06499 
L 211.675162 204.963687 
L 211.119881 210.88933 
L 210.802006 216.832438 
L 210.722046 222.783504 
L 210.880129 228.733008 
L 211.276003 234.671431 
L 211.909034 240.589273 
L 212.778208 246.477066 
L 213.211373 248.928 
L 214.178905 243.055568 
L 214.910829 237.149142 
L 215.405973 231.218171 
L 215.663546 225.272144 
L 215.683135 219.320573 
L 215.464709 213.372979 
L 215.008617 207.438878 
L 214.31559 201.527762 
L 213.386735 195.649088 
L 212.223539 189.81226 
L 210.827863 184.026617 
L 209.201938 178.301414 
L 207.348368 172.64581 
L 205.270116 167.068852 
L 202.970508 161.579464 
L 200.453222 156.186427 
L 197.722286 150.898368 
L 194.782068 145.723747 
L 191.637273 140.670843 
L 188.292931 135.747738 
L 184.754392 130.96231 
L 181.027317 126.322213 
L 177.11767 121.834871 
L 173.031704 117.507463 
L 168.775956 113.346911 
L 164.357235 109.359872 
L 159.782609 105.552724 
L 155.059397 101.931557 
L 152.552808 100.128 
L 147.755467 103.650373 
L 143.102822 107.36177 
L 138.602315 111.256255 
L 134.261145 115.327597 
L 130.086258 119.569283 
L 126.084333 123.974527 
L 122.261771 128.536282 
L 118.624689 133.247249 
L 115.178904 138.099892 
L 111.92993 143.086449 
L 108.882964 148.198941 
L 106.04288 153.42919 
L 103.414222 158.768829 
L 101.001195 164.209314 
L 98.80766 169.741943 
L 96.837125 175.357865 
L 95.092744 181.048094 
L 93.577306 186.803529 
L 92.293237 192.614962 
L 91.24259 198.473094 
L 90.427046 204.368556 
L 89.847911 210.291915 
L 89.506109 216.233696 
L 89.402189 222.184391 
L 89.536317 228.134483 
L 89.908277 234.074452 
L 90.517475 239.994794 
L 91.362937 245.88604 
L 91.894243 248.928 
L 92.861775 243.055568 
L 93.593699 237.149142 
L 94.088843 231.218171 
L 94.346416 225.272144 
L 94.366005 219.320573 
L 94.147579 213.372979 
L 93.691488 207.438878 
L 92.99846 201.527762 
L 92.069605 195.649088 
L 90.906409 189.81226 
L 89.510733 184.026617 
L 87.884809 178.301414 
L 87.36 176.620496 
L 89.053563 170.914935 
L 90.517609 165.146214 
L 91.749797 159.32356 
L 92.748155 153.45629 
L 93.511087 147.553789 
L 94.037371 141.625501 
L 94.326166 135.680908 
L 94.37701 129.729522 
L 94.18982 123.780863 
L 93.764898 117.844448 
L 93.102923 111.929774 
L 92.204953 106.046303 
L 91.056208 100.128 
L 89.92065 105.970267 
L 89.019629 111.853272 
L 88.354586 117.767602 
L 87.926585 123.703796 
L 87.736311 129.652356 
L 87.784068 135.603768 
L 88.06978 141.548509 
L 88.59299 147.47707 
L 89.35286 153.379966 
L 90.348175 159.247753 
L 91.577343 165.071045 
L 93.038398 170.840525 
L 94.729001 176.546964 
L 96.646449 182.181231 
L 98.787674 187.734315 
L 101.14925 193.197331 
L 103.727399 198.561539 
L 106.517997 203.818357 
L 109.51658 208.959377 
L 112.71835 213.976373 
L 116.118185 218.861319 
L 119.710647 223.606401 
L 123.489988 228.204027 
L 127.450161 232.646842 
L 131.584832 236.927739 
L 135.887386 241.039868 
L 140.35094 244.976652 
L 145.220279 248.928 
L 149.845739 245.182777 
L 154.317731 241.255581 
L 158.629099 237.152693 
L 162.772947 232.88068 
L 166.742646 228.446373 
L 170.531844 223.856868 
L 174.13448 219.119506 
L 177.544791 214.241867 
L 180.75732 209.231754 
L 183.364776 204.811224 
L 189.192679 203.60411 
L 194.967649 202.164908 
L 200.680447 200.49592 
L 206.321934 198.599816 
L 211.883084 196.47963 
L 217.355 194.138752 
L 222.72893 191.580929 
L 227.996276 188.810252 
L 233.14861 185.831153 
L 236.16 183.959262 
L 231.080112 180.858243 
L 225.88028 177.962845 
L 220.568822 175.277702 
L 215.154236 172.807108 
L 209.645183 170.555015 
L 204.050478 168.525028 
L 198.114581 166.642289 
L 202.535968 162.658205 
L 206.794497 158.500501 
L 210.883356 154.175826 
L 214.796004 149.6911 
L 218.52618 145.053496 
L 222.067919 140.270436 
L 225.415552 135.349569 
L 228.563726 130.298769 
L 231.507404 125.126115 
L 234.241876 119.839884 
L 236.16 115.789931 
L 233.585949 110.423756 
L 230.799367 105.164807 
L 227.869546 100.128 
L 224.879202 105.273816 
L 222.097027 110.535098 
L 219.527473 115.903428 
L 217.174651 121.37022 
L 215.042324 126.926726 
L 213.133903 132.564058 
L 211.452442 138.273197 
L 210.000631 144.04501 
L 208.780792 149.870263 
L 207.794876 155.739637 
L 207.044462 161.643742 
L 206.530749 167.573133 
L 206.25456 173.518325 
L 206.216335 179.469805 
L 206.416137 185.418054 
L 206.853646 191.353554 
L 207.528161 197.266811 
L 208.438604 203.148365 
L 209.583519 208.988806 
L 210.961072 214.778791 
L 212.569062 220.509057 
L 214.404915 226.170437 
L 216.465694 231.753875 
L 218.748103 237.250436 
L 221.248489 242.651329 
L 223.962854 247.947914 
L 224.494878 248.928 
L 227.248862 243.651907 
L 229.789655 238.269905 
L 232.113193 232.790603 
L 234.215759 227.222767 
L 236.16 221.362152 
L 234.290241 215.711879 
L 232.196027 210.140897 
L 229.880708 204.658116 
L 227.347989 199.27231 
L 224.60192 193.992093 
L 221.646896 188.825913 
L 218.487643 183.782035 
L 215.129217 178.868529 
L 211.576988 174.093253 
L 207.836641 169.463849 
L 203.914159 164.987721 
L 199.815818 160.672032 
L 195.548173 156.523684 
L 192.792606 154.014166 
L 190.787773 148.410397 
L 188.560452 142.891283 
L 186.114208 137.465652 
L 183.452953 132.142185 
L 180.580944 126.929398 
L 177.502777 121.83563 
L 174.223376 116.869031 
L 170.747987 112.037545 
L 167.08217 107.348903 
L 163.23179 102.810604 
L 160.80323 100.128 
L 156.843631 104.571328 
L 153.064886 109.169443 
L 149.473039 113.91499 
L 146.073836 118.800376 
L 142.872715 123.817786 
L 139.874798 128.959194 
L 137.08488 134.216374 
L 134.507425 139.580916 
L 132.146556 145.044237 
L 130.006051 150.597598 
L 128.089332 156.232114 
L 126.399468 161.938771 
L 124.93916 167.70844 
L 123.710746 173.531891 
L 122.71619 179.399807 
L 121.957084 185.302801 
L 121.434642 191.23143 
L 121.1497 197.176208 
L 121.102713 203.127626 
L 121.293757 209.076162 
L 121.722527 215.0123 
L 122.388335 220.926544 
L 123.290118 226.809432 
L 124.426432 232.651552 
L 125.79546 238.443559 
L 127.395011 244.176186 
L 128.911209 248.928 
L 130.701995 243.252203 
L 132.264377 237.509335 
L 133.595856 231.708581 
L 134.694301 225.859222 
L 135.557956 219.970616 
L 136.185439 214.052183 
L 136.575745 208.113392 
L 136.728864 202.046761 
L 130.819668 202.755973 
L 124.943559 203.700923 
L 119.109939 204.880098 
L 113.328139 206.291613 
L 107.60741 207.933209 
L 101.956903 209.80226 
L 96.385658 211.895776 
L 90.902588 214.210408 
L 87.36 215.846098 
L 92.780494 218.303704 
L 98.29493 220.542582 
L 103.894486 222.559151 
L 109.570205 224.350184 
L 115.313006 225.912816 
L 121.113701 227.244548 
L 126.963012 228.343248 
L 132.851581 229.20716 
L 138.769986 229.8349 
L 144.70876 230.225466 
L 150.658403 230.378231 
L 156.609395 230.292952 
L 162.552217 229.969765 
L 168.477361 229.409187 
L 174.375348 228.612114 
L 180.236744 227.579823 
L 186.05217 226.313964 
L 191.812323 224.816563 
L 197.50799 223.090014 
L 203.130056 221.137081 
L 208.669529 218.960888 
L 214.117547 216.564915 
L 219.465393 213.952996 
L 224.704513 211.129309 
L 229.826524 208.098373 
L 234.823234 204.865035 
L 236.16 203.950953 
L 231.198775 200.663427 
L 226.110052 197.576928 
L 220.901973 194.696391 
L 215.582869 192.026426 
L 210.161249 189.571305 
L 204.645787 187.334954 
L 199.045307 185.320952 
L 191.894817 182.84373 
L 187.796491 181.075951 
L 183.811543 179.065601 
L 179.954314 176.819915 
L 176.238687 174.346976 
L 172.678033 171.655682 
L 169.285167 168.75572 
L 166.0723 165.657526 
L 163.050994 162.372252 
L 160.232123 158.911719 
L 157.625832 155.288383 
L 155.241501 151.515283 
L 153.08771 147.605998 
L 151.172212 143.574599 
L 149.492117 139.409073 
L 149.944561 140.826594 
L 151.13059 145.129459 
L 152.056467 149.495701 
L 152.718862 153.909606 
L 153.115389 158.355287 
L 153.244621 162.816746 
L 153.106094 167.277927 
L 152.700306 171.722772 
L 152.028718 176.135287 
L 151.093745 180.499591 
L 149.898755 184.799976 
L 148.448046 189.020967 
L 146.74684 193.147372 
L 144.80126 197.16434 
L 142.618307 201.057416 
L 140.189849 204.835896 
L 137.006748 209.864758 
L 134.027294 215.016887 
L 131.256254 220.284042 
L 128.69806 225.657795 
L 126.356806 231.129551 
L 124.236236 236.690555 
L 122.339743 242.33191 
L 120.670361 248.044593 
L 120.434187 248.928 
L 118.799943 243.205166 
L 116.938154 237.552262 
L 114.851799 231.978332 
L 112.544214 226.492292 
L 110.019092 221.102919 
L 107.280473 215.818835 
L 104.332737 210.648493 
L 101.1806 205.600165 
L 97.829106 200.681927 
L 94.283615 195.901647 
L 90.5498 191.266972 
L 87.36 187.589628 
L 91.243421 183.07957 
L 94.943381 178.417824 
L 98.453962 173.611848 
L 101.769547 168.669331 
L 104.884831 163.598179 
L 107.794832 158.406505 
L 110.494894 153.102615 
L 112.980697 147.694994 
L 115.248264 142.192293 
L 117.293968 136.603315 
L 119.114536 130.937001 
L 120.707056 125.202417 
L 122.06898 119.408735 
L 123.198129 113.565226 
L 124.092696 107.681236 
L 124.751252 101.766181 
L 124.891418 100.128 
L 125.484575 106.049971 
L 126.314074 111.943486 
L 127.378587 117.799115 
L 128.676412 123.607491 
L 130.205471 129.359322 
L 131.963319 135.045406 
L 133.947144 140.656646 
L 136.153771 146.184067 
L 136.568544 147.155924 
L 138.884069 150.971637 
L 140.966623 154.919331 
L 142.808709 158.984799 
L 144.403699 163.153411 
L 145.745853 167.410164 
L 146.830339 171.739738 
L 147.653255 176.126551 
L 148.211639 180.554815 
L 148.503482 185.008594 
L 148.527734 189.471858 
L 148.284306 193.928546 
L 147.774076 198.362617 
L 146.998879 202.758113 
L 145.961506 207.099216 
L 145.68928 208.077545 
L 148.373418 204.511494 
L 151.266561 201.112811 
L 154.358296 197.893729 
L 157.637497 194.865832 
L 161.092362 192.040018 
L 164.710458 189.426456 
L 168.478762 187.034553 
L 172.383714 184.872916 
L 176.411259 182.949326 
L 180.546903 181.270705 
L 184.775761 179.843095 
L 189.082616 178.671632 
L 193.451966 177.760534 
L 197.868086 177.113079 
L 198.877584 177.002862 
L 194.570152 175.833526 
L 190.340589 174.408004 
L 186.204116 172.731426 
L 182.175622 170.809825 
L 178.269603 168.650117 
L 174.500118 166.260075 
L 170.880733 163.6483 
L 167.424473 160.824193 
L 164.143777 157.797916 
L 161.050452 154.58036 
L 158.155631 151.183107 
L 155.469732 147.618382 
L 153.002422 143.899014 
L 150.762579 140.038389 
L 150.285654 139.141853 
L 146.587136 134.478963 
L 142.705111 129.967703 
L 138.645789 125.615292 
L 134.415664 121.428692 
L 130.021503 117.4146 
L 125.470336 113.579439 
L 120.769444 109.929344 
L 115.926348 106.470153 
L 110.948794 103.207403 
L 105.812775 100.128 
L 100.70797 103.187828 
L 95.729609 106.449346 
L 90.885656 109.907337 
L 87.36 112.615016 
L 92.098495 116.216161 
L 96.977207 119.624937 
L 101.988331 122.835889 
L 107.123851 125.843882 
L 112.37555 128.644102 
L 117.735028 131.232071 
L 123.193709 133.603647 
L 128.742862 135.755037 
L 134.373609 137.6828 
L 140.076942 139.383851 
L 145.913776 140.871839 
L 148.456056 135.490539 
L 150.781108 130.011879 
L 152.885213 124.444624 
L 154.765003 118.797681 
L 156.417472 113.080083 
L 157.839977 107.300977 
L 159.030241 101.46961 
L 159.269897 100.128 
L 160.406703 105.970025 
L 161.776218 111.761916 
L 163.376252 117.494409 
L 165.204244 123.158332 
L 167.257271 128.744625 
L 169.532048 134.244349 
L 171.537718 138.635992 
L 176.401484 135.205924 
L 181.124192 131.584101 
L 185.698289 127.776317 
L 190.116457 123.788664 
L 194.371627 119.627521 
L 198.456991 115.299545 
L 202.366015 110.81166 
L 206.092445 106.171046 
L 209.630319 101.385126 
L 210.511591 100.128 
L 213.999898 104.950167 
L 217.67825 109.628982 
L 221.540762 114.156959 
L 225.581256 118.526855 
L 229.793267 122.731679 
L 234.170057 126.764704 
L 236.16 128.494879 
L 231.71243 132.449712 
L 227.426568 136.579236 
L 223.309272 140.876846 
L 219.367127 145.335666 
L 215.606442 149.948564 
L 212.033231 154.708159 
L 208.653211 159.606837 
L 205.47179 164.636761 
L 202.494056 169.789885 
L 199.724775 175.057965 
L 198.893881 176.744953 
L 200.946263 182.331482 
L 203.220406 187.831469 
L 205.712669 193.236115 
L 208.419068 198.536775 
L 211.335272 203.724967 
L 214.456615 208.792392 
L 217.778105 213.730943 
L 221.294427 218.53272 
L 224.999956 223.19004 
L 228.888764 227.695454 
L 232.95463 232.041752 
L 236.16 235.235093 
L 231.96387 239.455765 
L 227.939879 243.840862 
L 224.094463 248.383368 
L 223.653925 248.928 
L 223.653925 248.928 
" style="fill:none;stroke:#1f77b4;stroke-linecap:square;stroke-width:1.5;"/>
   </g>
   <g id="patch_5">
    <path d="M 57.6 263.808 
L 57.6 85.248 
" style="fill:none;stroke:#000000;stroke-linecap:square;stroke-linejoin:miter;stroke-width:0.8;"/>
   </g>
   <g id="patch_6">
    <path d="M 414.72 263.808 
L 414.72 85.248 
" style="fill:none;stroke:#000000;stroke-linecap:square;stroke-linejoin:miter;stroke-width:0.8;"/>
   </g>
   <g id="patch_7">
    <path d="M 57.6 263.808 
L 414.72 263.808 
" style="fill:none;stroke:#000000;stroke-linecap:square;stroke-linejoin:miter;stroke-width:0.8;"/>
   </g>
   <g id="patch_8">
    <path d="M 57.6 85.248 
L 414.72 85.248 
" style="fill:none;stroke:#000000;stroke-linecap:square;stroke-linejoin:miter;stroke-width:0.8;"/>
   </g>
  </g>
 </g>
 <defs>
  <clipPath id="p34b685ff14">
   <rect height="178.56" width="357.12" x="57.6" y="85.248"/>
  </clipPath>
 </defs>
</svg>
