<?xml version="1.0" encoding="utf-8" standalone="no"?>
<!DOCTYPE svg PUBLIC "-//W3C//DTD SVG 1.1//EN"
  "http://www.w3.org/Graphics/SVG/1.1/DTD/svg11.dtd">
<!-- Created with matplotlib (https://matplotlib.org/) -->
<svg height="345.6pt" version="1.1" viewBox="0 0 460.8 345.6" width="460.8pt" xmlns="http://www.w3.org/2000/svg" xmlns:xlink="http://www.w3.org/1999/xlink">
 <defs>
  <style type="text/css">
*{stroke-linecap:butt;stroke-linejoin:round;}
  </style>
 </defs>
 <g id="figure_1">
  <g id="patch_1">
   <path d="M 0 345.6 
L 460.8 345.6 
L 460.8 0 
L 0 0 
z
" style="fill:#ffffff;"/>
  </g>
  <g id="axes_1">
   <g id="patch_2">
    <path d="M 82.520165 307.584 
L 389.799835 307.584 
L 389.799835 41.472 
L 82.520165 41.472 
z
" style="fill:#ffffff;"/>
   </g>
   <g id="patch_3">
    <path clip-path="url(#p9e913e0cbe)" d="M 236.16 225.741278 
C 249.74192 225.741278 262.769389 220.345124 272.373256 210.741256 
C 281.977124 201.137389 287.373278 188.10992 287.373278 174.528 
C 287.373278 160.94608 281.977124 147.918611 272.373256 138.314744 
C 262.769389 128.710876 249.74192 123.314722 236.16 123.314722 
C 222.57808 123.314722 209.550611 128.710876 199.946744 138.314744 
C 190.342876 147.918611 184.946722 160.94608 184.946722 174.528 
C 184.946722 188.10992 190.342876 201.137389 199.946744 210.741256 
C 209.550611 220.345124 222.57808 225.741278 236.16 225.741278 
z
" style="fill:#009900;fill-opacity:0.5;stroke:#009900;stroke-linejoin:miter;stroke-width:2;"/>
   </g>
   <g id="matplotlib.axis_1">
    <g id="xtick_1">
     <g id="line2d_1">
      <defs>
       <path d="M 0 0 
L 0 3.5 
" id="m621989b09d" style="stroke:#000000;stroke-width:0.8;"/>
      </defs>
      <g>
       <use style="stroke:#000000;stroke-width:0.8;" x="108.126804" xlink:href="#m621989b09d" y="307.584"/>
      </g>
     </g>
     <g id="text_1">
      <!-- −2 -->
      <defs>
       <path d="M 10.59375 35.5 
L 73.1875 35.5 
L 73.1875 27.203125 
L 10.59375 27.203125 
z
" id="DejaVuSans-8722"/>
       <path d="M 19.1875 8.296875 
L 53.609375 8.296875 
L 53.609375 0 
L 7.328125 0 
L 7.328125 8.296875 
Q 12.9375 14.109375 22.625 23.890625 
Q 32.328125 33.6875 34.8125 36.53125 
Q 39.546875 41.84375 41.421875 45.53125 
Q 43.3125 49.21875 43.3125 52.78125 
Q 43.3125 58.59375 39.234375 62.25 
Q 35.15625 65.921875 28.609375 65.921875 
Q 23.96875 65.921875 18.8125 64.3125 
Q 13.671875 62.703125 7.8125 59.421875 
L 7.8125 69.390625 
Q 13.765625 71.78125 18.9375 73 
Q 24.125 74.21875 28.421875 74.21875 
Q 39.75 74.21875 46.484375 68.546875 
Q 53.21875 62.890625 53.21875 53.421875 
Q 53.21875 48.921875 51.53125 44.890625 
Q 49.859375 40.875 45.40625 35.40625 
Q 44.1875 33.984375 37.640625 27.21875 
Q 31.109375 20.453125 19.1875 8.296875 
z
" id="DejaVuSans-50"/>
      </defs>
      <g transform="translate(100.755711 322.182437)scale(0.1 -0.1)">
       <use xlink:href="#DejaVuSans-8722"/>
       <use x="83.789062" xlink:href="#DejaVuSans-50"/>
      </g>
     </g>
    </g>
    <g id="xtick_2">
     <g id="line2d_2">
      <g>
       <use style="stroke:#000000;stroke-width:0.8;" x="172.143402" xlink:href="#m621989b09d" y="307.584"/>
      </g>
     </g>
     <g id="text_2">
      <!-- −1 -->
      <defs>
       <path d="M 12.40625 8.296875 
L 28.515625 8.296875 
L 28.515625 63.921875 
L 10.984375 60.40625 
L 10.984375 69.390625 
L 28.421875 72.90625 
L 38.28125 72.90625 
L 38.28125 8.296875 
L 54.390625 8.296875 
L 54.390625 0 
L 12.40625 0 
z
" id="DejaVuSans-49"/>
      </defs>
      <g transform="translate(164.772308 322.182437)scale(0.1 -0.1)">
       <use xlink:href="#DejaVuSans-8722"/>
       <use x="83.789062" xlink:href="#DejaVuSans-49"/>
      </g>
     </g>
    </g>
    <g id="xtick_3">
     <g id="line2d_3">
      <g>
       <use style="stroke:#000000;stroke-width:0.8;" x="236.16" xlink:href="#m621989b09d" y="307.584"/>
      </g>
     </g>
     <g id="text_3">
      <!-- 0 -->
      <defs>
       <path d="M 31.78125 66.40625 
Q 24.171875 66.40625 20.328125 58.90625 
Q 16.5 51.421875 16.5 36.375 
Q 16.5 21.390625 20.328125 13.890625 
Q 24.171875 6.390625 31.78125 6.390625 
Q 39.453125 6.390625 43.28125 13.890625 
Q 47.125 21.390625 47.125 36.375 
Q 47.125 51.421875 43.28125 58.90625 
Q 39.453125 66.40625 31.78125 66.40625 
z
M 31.78125 74.21875 
Q 44.046875 74.21875 50.515625 64.515625 
Q 56.984375 54.828125 56.984375 36.375 
Q 56.984375 17.96875 50.515625 8.265625 
Q 44.046875 -1.421875 31.78125 -1.421875 
Q 19.53125 -1.421875 13.0625 8.265625 
Q 6.59375 17.96875 6.59375 36.375 
Q 6.59375 54.828125 13.0625 64.515625 
Q 19.53125 74.21875 31.78125 74.21875 
z
" id="DejaVuSans-48"/>
      </defs>
      <g transform="translate(232.97875 322.182437)scale(0.1 -0.1)">
       <use xlink:href="#DejaVuSans-48"/>
      </g>
     </g>
    </g>
    <g id="xtick_4">
     <g id="line2d_4">
      <g>
       <use style="stroke:#000000;stroke-width:0.8;" x="300.176598" xlink:href="#m621989b09d" y="307.584"/>
      </g>
     </g>
     <g id="text_4">
      <!-- 1 -->
      <g transform="translate(296.995348 322.182437)scale(0.1 -0.1)">
       <use xlink:href="#DejaVuSans-49"/>
      </g>
     </g>
    </g>
    <g id="xtick_5">
     <g id="line2d_5">
      <g>
       <use style="stroke:#000000;stroke-width:0.8;" x="364.193196" xlink:href="#m621989b09d" y="307.584"/>
      </g>
     </g>
     <g id="text_5">
      <!-- 2 -->
      <g transform="translate(361.011946 322.182437)scale(0.1 -0.1)">
       <use xlink:href="#DejaVuSans-50"/>
      </g>
     </g>
    </g>
   </g>
   <g id="matplotlib.axis_2">
    <g id="ytick_1">
     <g id="line2d_6">
      <defs>
       <path d="M 0 0 
L -3.5 0 
" id="m1fc4a49472" style="stroke:#000000;stroke-width:0.8;"/>
      </defs>
      <g>
       <use style="stroke:#000000;stroke-width:0.8;" x="82.520165" xlink:href="#m1fc4a49472" y="302.561196"/>
      </g>
     </g>
     <g id="text_6">
      <!-- −2.0 -->
      <defs>
       <path d="M 10.6875 12.40625 
L 21 12.40625 
L 21 0 
L 10.6875 0 
z
" id="DejaVuSans-46"/>
      </defs>
      <g transform="translate(51.237353 306.360414)scale(0.1 -0.1)">
       <use xlink:href="#DejaVuSans-8722"/>
       <use x="83.789062" xlink:href="#DejaVuSans-50"/>
       <use x="147.412109" xlink:href="#DejaVuSans-46"/>
       <use x="179.199219" xlink:href="#DejaVuSans-48"/>
      </g>
     </g>
    </g>
    <g id="ytick_2">
     <g id="line2d_7">
      <g>
       <use style="stroke:#000000;stroke-width:0.8;" x="82.520165" xlink:href="#m1fc4a49472" y="270.552897"/>
      </g>
     </g>
     <g id="text_7">
      <!-- −1.5 -->
      <defs>
       <path d="M 10.796875 72.90625 
L 49.515625 72.90625 
L 49.515625 64.59375 
L 19.828125 64.59375 
L 19.828125 46.734375 
Q 21.96875 47.46875 24.109375 47.828125 
Q 26.265625 48.1875 28.421875 48.1875 
Q 40.625 48.1875 47.75 41.5 
Q 54.890625 34.8125 54.890625 23.390625 
Q 54.890625 11.625 47.5625 5.09375 
Q 40.234375 -1.421875 26.90625 -1.421875 
Q 22.3125 -1.421875 17.546875 -0.640625 
Q 12.796875 0.140625 7.71875 1.703125 
L 7.71875 11.625 
Q 12.109375 9.234375 16.796875 8.0625 
Q 21.484375 6.890625 26.703125 6.890625 
Q 35.15625 6.890625 40.078125 11.328125 
Q 45.015625 15.765625 45.015625 23.390625 
Q 45.015625 31 40.078125 35.4375 
Q 35.15625 39.890625 26.703125 39.890625 
Q 22.75 39.890625 18.8125 39.015625 
Q 14.890625 38.140625 10.796875 36.28125 
z
" id="DejaVuSans-53"/>
      </defs>
      <g transform="translate(51.237353 274.352116)scale(0.1 -0.1)">
       <use xlink:href="#DejaVuSans-8722"/>
       <use x="83.789062" xlink:href="#DejaVuSans-49"/>
       <use x="147.412109" xlink:href="#DejaVuSans-46"/>
       <use x="179.199219" xlink:href="#DejaVuSans-53"/>
      </g>
     </g>
    </g>
    <g id="ytick_3">
     <g id="line2d_8">
      <g>
       <use style="stroke:#000000;stroke-width:0.8;" x="82.520165" xlink:href="#m1fc4a49472" y="238.544598"/>
      </g>
     </g>
     <g id="text_8">
      <!-- −1.0 -->
      <g transform="translate(51.237353 242.343817)scale(0.1 -0.1)">
       <use xlink:href="#DejaVuSans-8722"/>
       <use x="83.789062" xlink:href="#DejaVuSans-49"/>
       <use x="147.412109" xlink:href="#DejaVuSans-46"/>
       <use x="179.199219" xlink:href="#DejaVuSans-48"/>
      </g>
     </g>
    </g>
    <g id="ytick_4">
     <g id="line2d_9">
      <g>
       <use style="stroke:#000000;stroke-width:0.8;" x="82.520165" xlink:href="#m1fc4a49472" y="206.536299"/>
      </g>
     </g>
     <g id="text_9">
      <!-- −0.5 -->
      <g transform="translate(51.237353 210.335518)scale(0.1 -0.1)">
       <use xlink:href="#DejaVuSans-8722"/>
       <use x="83.789062" xlink:href="#DejaVuSans-48"/>
       <use x="147.412109" xlink:href="#DejaVuSans-46"/>
       <use x="179.199219" xlink:href="#DejaVuSans-53"/>
      </g>
     </g>
    </g>
    <g id="ytick_5">
     <g id="line2d_10">
      <g>
       <use style="stroke:#000000;stroke-width:0.8;" x="82.520165" xlink:href="#m1fc4a49472" y="174.528"/>
      </g>
     </g>
     <g id="text_10">
      <!-- 0.0 -->
      <g transform="translate(59.61704 178.327219)scale(0.1 -0.1)">
       <use xlink:href="#DejaVuSans-48"/>
       <use x="63.623047" xlink:href="#DejaVuSans-46"/>
       <use x="95.410156" xlink:href="#DejaVuSans-48"/>
      </g>
     </g>
    </g>
    <g id="ytick_6">
     <g id="line2d_11">
      <g>
       <use style="stroke:#000000;stroke-width:0.8;" x="82.520165" xlink:href="#m1fc4a49472" y="142.519701"/>
      </g>
     </g>
     <g id="text_11">
      <!-- 0.5 -->
      <g transform="translate(59.61704 146.31892)scale(0.1 -0.1)">
       <use xlink:href="#DejaVuSans-48"/>
       <use x="63.623047" xlink:href="#DejaVuSans-46"/>
       <use x="95.410156" xlink:href="#DejaVuSans-53"/>
      </g>
     </g>
    </g>
    <g id="ytick_7">
     <g id="line2d_12">
      <g>
       <use style="stroke:#000000;stroke-width:0.8;" x="82.520165" xlink:href="#m1fc4a49472" y="110.511402"/>
      </g>
     </g>
     <g id="text_12">
      <!-- 1.0 -->
      <g transform="translate(59.61704 114.310621)scale(0.1 -0.1)">
       <use xlink:href="#DejaVuSans-49"/>
       <use x="63.623047" xlink:href="#DejaVuSans-46"/>
       <use x="95.410156" xlink:href="#DejaVuSans-48"/>
      </g>
     </g>
    </g>
    <g id="ytick_8">
     <g id="line2d_13">
      <g>
       <use style="stroke:#000000;stroke-width:0.8;" x="82.520165" xlink:href="#m1fc4a49472" y="78.503103"/>
      </g>
     </g>
     <g id="text_13">
      <!-- 1.5 -->
      <g transform="translate(59.61704 82.302322)scale(0.1 -0.1)">
       <use xlink:href="#DejaVuSans-49"/>
       <use x="63.623047" xlink:href="#DejaVuSans-46"/>
       <use x="95.410156" xlink:href="#DejaVuSans-53"/>
      </g>
     </g>
    </g>
    <g id="ytick_9">
     <g id="line2d_14">
      <g>
       <use style="stroke:#000000;stroke-width:0.8;" x="82.520165" xlink:href="#m1fc4a49472" y="46.494804"/>
      </g>
     </g>
     <g id="text_14">
      <!-- 2.0 -->
      <g transform="translate(59.61704 50.294023)scale(0.1 -0.1)">
       <use xlink:href="#DejaVuSans-50"/>
       <use x="63.623047" xlink:href="#DejaVuSans-46"/>
       <use x="95.410156" xlink:href="#DejaVuSans-48"/>
      </g>
     </g>
    </g>
   </g>
   <g id="line2d_15">
    <path clip-path="url(#p9e913e0cbe)" d="M 300.176598 63.648 
L 172.143402 63.648 
" style="fill:none;stroke:#009900;stroke-linecap:square;stroke-width:2;"/>
   </g>
   <g id="line2d_16">
    <path clip-path="url(#p9e913e0cbe)" d="M 172.143402 63.648 
L 108.126804 174.528 
" style="fill:none;stroke:#009900;stroke-linecap:square;stroke-width:2;"/>
   </g>
   <g id="line2d_17">
    <path clip-path="url(#p9e913e0cbe)" d="M 108.126804 174.528 
L 172.143402 285.408 
" style="fill:none;stroke:#009900;stroke-linecap:square;stroke-width:2;"/>
   </g>
   <g id="line2d_18">
    <path clip-path="url(#p9e913e0cbe)" d="M 172.143402 285.408 
L 300.176598 285.408 
" style="fill:none;stroke:#009900;stroke-linecap:square;stroke-width:2;"/>
   </g>
   <g id="line2d_19">
    <path clip-path="url(#p9e913e0cbe)" d="M 300.176598 285.408 
L 364.193196 174.528 
" style="fill:none;stroke:#009900;stroke-linecap:square;stroke-width:2;"/>
   </g>
   <g id="line2d_20">
    <path clip-path="url(#p9e913e0cbe)" d="M 364.193196 174.528 
L 300.176598 63.648 
" style="fill:none;stroke:#009900;stroke-linecap:square;stroke-width:2;"/>
   </g>
   <g id="line2d_21">
    <path clip-path="url(#p9e913e0cbe)" d="M 312.464252 146.540456 
L 314.071204 151.402781 
L 315.871312 156.196956 
L 317.861696 160.915311 
L 320.039171 165.550298 
L 322.400255 170.094501 
L 324.94117 174.540651 
L 327.657852 178.881636 
L 330.545953 183.110509 
L 333.600854 187.220507 
L 336.817667 191.205054 
L 340.191247 195.057776 
L 343.716195 198.772508 
L 347.386874 202.343309 
L 347.873045 202.79533 
L 342.952593 201.376298 
L 337.979331 200.155166 
L 332.961214 199.133889 
L 327.906271 198.3141 
L 322.822589 197.697111 
L 317.7183 197.283908 
L 312.60157 197.075153 
L 307.480585 197.071179 
L 302.363538 197.271993 
L 297.258614 197.677274 
L 292.17398 198.286374 
L 287.117771 199.098317 
L 282.098075 200.111805 
L 280.281047 200.530559 
L 281.754778 205.434906 
L 283.423452 210.276396 
L 285.284399 215.047285 
L 287.334642 219.739939 
L 289.570901 224.346852 
L 291.989599 228.860654 
L 294.586866 233.274122 
L 297.358547 237.580198 
L 300.300208 241.771991 
L 303.407143 245.842796 
L 306.674382 249.786101 
L 310.096698 253.595597 
L 313.668615 257.26519 
L 315.43654 258.977006 
L 310.497727 257.623259 
L 305.508729 256.468094 
L 300.477528 255.51336 
L 295.412172 254.760585 
L 290.320765 254.210972 
L 285.211452 253.8654 
L 280.092406 253.724423 
L 274.971818 253.788265 
L 269.857878 254.056826 
L 264.758769 254.529675 
L 259.682647 255.206055 
L 254.637634 256.084886 
L 249.6318 257.16476 
L 244.673154 258.44395 
L 239.769627 259.92041 
L 234.929066 261.591778 
L 230.159214 263.455379 
L 225.467701 265.508233 
L 220.862034 267.747056 
L 216.349579 270.168265 
L 211.937556 272.767988 
L 207.633024 275.542065 
L 203.442868 278.486058 
L 199.373793 281.595258 
L 195.432307 284.864691 
L 194.807447 285.408 
L 190.887188 282.113145 
L 186.838306 278.977694 
L 182.667277 276.006663 
L 178.380776 273.204806 
L 173.985658 270.576604 
L 169.488957 268.126262 
L 164.897864 265.8577 
L 160.219726 263.774547 
L 159.473251 263.462654 
L 160.040427 258.373173 
L 160.403625 253.265082 
L 160.562263 248.146554 
L 160.516088 243.025776 
L 160.265174 237.91094 
L 159.809921 232.81023 
L 159.151058 227.731804 
L 158.28964 222.683789 
L 157.227043 217.674259 
L 155.964969 212.711229 
L 154.505436 207.802638 
L 152.85078 202.956339 
L 151.003646 198.180085 
L 148.966991 193.481517 
L 146.744073 188.868152 
L 144.338447 184.347371 
L 141.753962 179.926405 
L 138.994754 175.612327 
L 136.065235 171.412038 
L 132.970092 167.33226 
L 129.714278 163.379517 
L 126.303001 159.560133 
L 122.741718 155.88022 
L 120.271503 153.492765 
L 125.203873 154.869799 
L 130.187365 156.04849 
L 135.214006 157.026951 
L 140.275754 157.803618 
L 145.364511 158.377247 
L 150.472137 158.746922 
L 155.59046 158.91205 
L 160.711293 158.872368 
L 165.826443 158.627939 
L 170.927726 158.179154 
L 176.006983 157.526731 
L 181.056086 156.671714 
L 186.06696 155.615471 
L 188.840804 154.939903 
L 186.138902 150.589704 
L 183.265199 146.351033 
L 180.224293 142.23067 
L 177.021049 138.235206 
L 173.660592 134.371034 
L 170.148296 130.644335 
L 166.489782 127.061072 
L 162.690903 123.626976 
L 158.757734 120.347542 
L 154.696569 117.228015 
L 150.513906 114.273388 
L 146.216434 111.488386 
L 144.965002 110.72237 
L 146.653914 111.636602 
L 151.222749 113.949662 
L 155.880427 116.078167 
L 160.619498 118.018712 
L 165.432378 119.768192 
L 170.31137 121.32381 
L 175.248667 122.683075 
L 180.23637 123.843814 
L 185.266501 124.804169 
L 190.331013 125.562604 
L 195.421803 126.117907 
L 200.530727 126.469188 
L 205.649611 126.615885 
L 210.770268 126.557765 
L 215.884504 126.294919 
L 219.987707 125.935235 
L 224.329093 123.219196 
L 228.558394 120.33172 
L 232.668843 117.277426 
L 236.653866 114.061202 
L 240.507086 110.688192 
L 244.22234 107.163793 
L 247.793683 103.493642 
L 251.215403 99.683611 
L 254.482025 95.739795 
L 257.588324 91.668504 
L 260.529329 87.476251 
L 263.300337 83.169742 
L 265.896914 78.755867 
L 268.314906 74.241688 
L 270.550445 69.634425 
L 272.599954 64.941451 
L 273.126049 63.648 
L 275.124255 68.363048 
L 277.309414 72.994417 
L 279.678031 77.534699 
L 282.226316 81.976629 
L 284.950192 86.313102 
L 287.845302 90.537181 
L 290.907015 94.642107 
L 294.130432 98.621314 
L 297.510396 102.468435 
L 301.0415 106.177317 
L 304.718096 109.742025 
L 308.534301 113.156858 
L 312.48401 116.416352 
L 316.560905 119.515292 
L 320.758463 122.44872 
L 325.06997 125.211945 
L 329.488528 127.800546 
L 334.007067 130.21038 
L 338.61836 132.437594 
L 340.338996 133.211315 
L 339.886962 138.312311 
L 339.639275 143.427304 
L 339.596331 148.548111 
L 339.7582 153.666538 
L 340.124621 158.774398 
L 340.695009 163.86352 
L 341.468452 168.925762 
L 342.443711 173.953024 
L 343.619227 178.937266 
L 344.99312 183.870512 
L 346.56319 188.744872 
L 348.326928 193.552546 
L 350.365615 198.478072 
L 345.28807 199.143684 
L 340.241204 200.01181 
L 335.23309 201.081062 
L 330.271741 202.349731 
L 325.365094 203.815786 
L 320.520999 205.476881 
L 315.747204 207.33036 
L 311.051347 209.373258 
L 306.44094 211.602305 
L 301.923359 214.013937 
L 297.505832 216.604294 
L 293.195425 219.369234 
L 288.999033 222.304332 
L 284.923371 225.404893 
L 280.974958 228.665957 
L 277.160112 232.082307 
L 273.484934 235.648478 
L 269.955306 239.358764 
L 266.576872 243.207229 
L 263.355038 247.187718 
L 260.294958 251.293861 
L 257.401528 255.519091 
L 254.679377 259.856647 
L 252.132859 264.299591 
L 249.766049 268.840814 
L 247.582732 273.473052 
L 245.586401 278.188894 
L 243.780251 282.980796 
L 242.947709 285.408 
L 241.237955 280.580864 
L 239.336535 275.825961 
L 237.24649 271.150898 
L 234.971165 266.563154 
L 232.514198 262.070068 
L 229.879522 257.678829 
L 227.07135 253.396461 
L 224.094175 249.229816 
L 220.952761 245.185559 
L 217.652132 241.270159 
L 214.197569 237.489882 
L 210.594598 233.850774 
L 206.848985 230.358658 
L 202.966719 227.019119 
L 198.954013 223.837501 
L 194.817287 220.818893 
L 190.563157 217.968125 
L 186.198429 215.289757 
L 181.730087 212.788074 
L 177.165278 210.467078 
L 172.511305 208.330482 
L 167.775615 206.381704 
L 162.965781 204.623863 
L 158.089501 203.059769 
L 153.154573 201.691926 
L 148.168895 200.522522 
L 143.14044 199.553426 
L 138.077254 198.786191 
L 132.987437 198.222043 
L 127.879131 197.861884 
L 122.760509 197.706291 
L 121.504821 197.699405 
L 123.973507 193.212747 
L 126.260799 188.630958 
L 128.363039 183.961366 
L 130.276864 179.211442 
L 131.999212 174.388785 
L 133.527327 169.50111 
L 134.858764 164.556237 
L 135.991395 159.562075 
L 136.923407 154.526615 
L 137.653308 149.457913 
L 138.179931 144.364076 
L 138.502434 139.253255 
L 138.620301 134.133625 
L 138.533343 129.013377 
L 138.241699 123.900702 
L 138.131111 122.559017 
L 142.728609 120.303467 
L 147.232233 117.86587 
L 151.634776 115.250126 
L 155.929195 112.460419 
L 160.108621 109.501213 
L 164.166367 106.377241 
L 168.095942 103.093502 
L 171.891059 99.655249 
L 175.545647 96.067981 
L 179.053859 92.337438 
L 182.410083 88.469588 
L 185.60895 84.470619 
L 188.645342 80.346929 
L 191.514401 76.105113 
L 194.211538 71.751958 
L 196.732438 67.294429 
L 198.624557 63.648 
L 201.001152 68.18411 
L 203.557242 72.621554 
L 206.288738 76.953232 
L 209.19127 81.172214 
L 212.260194 85.271751 
L 215.490602 89.245284 
L 218.877324 93.086458 
L 222.414944 96.789126 
L 226.097801 100.347365 
L 229.920003 103.755483 
L 233.875437 107.008028 
L 237.957774 110.099796 
L 242.160483 113.02584 
L 246.476841 115.781481 
L 250.899943 118.362309 
L 255.422712 120.764196 
L 260.037913 122.983299 
L 264.738163 125.016068 
L 269.515943 126.859252 
L 274.363608 128.509901 
L 279.273404 129.965374 
L 284.237477 131.223344 
L 289.247883 132.281798 
L 294.296609 133.139042 
L 299.375578 133.793705 
L 304.476663 134.24474 
L 309.591704 134.491425 
L 314.712519 134.533366 
L 319.830915 134.370496 
L 324.938703 134.003074 
L 330.027713 133.431689 
L 335.089803 132.657255 
L 339.527776 131.80624 
L 336.187008 135.687447 
L 333.004119 139.699145 
L 329.984201 143.834916 
L 327.132086 148.088143 
L 324.452336 152.452022 
L 321.949238 156.919572 
L 319.626796 161.483645 
L 317.488727 166.136941 
L 315.53845 170.872014 
L 313.779085 175.681291 
L 312.213447 180.557076 
L 310.844041 185.49157 
L 309.673058 190.476878 
L 308.70237 195.505025 
L 307.933531 200.567968 
L 307.367771 205.657606 
L 307.005995 210.765798 
L 306.848781 215.88437 
L 306.896381 221.005136 
L 307.14872 226.119901 
L 307.605392 231.220485 
L 308.265668 236.298726 
L 309.128491 241.346502 
L 310.192482 246.355736 
L 311.455937 251.318415 
L 312.916836 256.226599 
L 314.439351 260.704187 
L 309.417778 261.708331 
L 304.440376 262.912481 
L 299.51511 264.314711 
L 294.649857 265.912777 
L 289.852401 267.704123 
L 285.130418 269.685884 
L 280.491461 271.854888 
L 275.942951 274.207666 
L 271.492166 276.740454 
L 267.146226 279.4492 
L 262.912083 282.32957 
L 258.756311 285.408 
L 254.641948 282.358981 
L 250.408948 279.476931 
L 246.064082 276.766461 
L 241.614302 274.231908 
L 237.066727 271.877325 
L 232.42863 269.706481 
L 227.707433 267.722848 
L 222.910689 265.929598 
L 218.04607 264.329602 
L 213.12136 262.925418 
L 208.144437 261.719294 
L 203.123262 260.713158 
L 198.06587 259.90862 
L 192.980349 259.306968 
L 187.874837 258.909164 
L 182.757501 258.715843 
L 177.636528 258.727317 
L 172.520109 258.943565 
L 167.416431 259.364243 
L 162.333658 259.988676 
L 157.881934 260.706412 
L 161.106194 256.727889 
L 164.168776 252.623611 
L 167.064782 248.400147 
L 169.789577 244.064251 
L 172.338803 239.622861 
L 174.708382 235.083081 
L 176.894523 230.452175 
L 178.893728 225.737551 
L 180.702799 220.946751 
L 182.318843 216.08744 
L 183.739273 211.167391 
L 184.961817 206.194476 
L 185.98452 201.17665 
L 186.805746 196.12194 
L 187.42418 191.038433 
L 187.482973 190.444876 
L 183.998077 186.692543 
L 180.365916 183.082571 
L 176.592299 179.620733 
L 172.683264 176.312569 
L 168.645065 173.163371 
L 164.484162 170.178177 
L 160.20721 167.361762 
L 155.821054 164.718633 
L 151.332709 162.253018 
L 146.749356 159.96886 
L 142.078327 157.869815 
L 137.327095 155.95924 
L 132.50326 154.240192 
L 127.614541 152.715422 
L 122.668758 151.387367 
L 121.632329 151.135746 
L 125.225076 154.784947 
L 128.960878 158.287557 
L 132.83376 161.637974 
L 136.837524 164.830837 
L 140.965767 167.861038 
L 145.211882 170.723729 
L 149.569079 173.414331 
L 154.030385 175.92854 
L 158.588665 178.262333 
L 163.236625 180.411976 
L 167.966831 182.374031 
L 172.771713 184.145359 
L 177.643587 185.723127 
L 182.574658 187.104809 
L 186.78278 188.118071 
L 183.129777 191.706953 
L 179.623214 195.439045 
L 176.268699 199.308377 
L 173.071599 203.308759 
L 170.037029 207.433791 
L 167.169844 211.676874 
L 164.474631 216.031219 
L 161.9557 220.489862 
L 159.617083 225.045668 
L 157.46252 229.69135 
L 155.495458 234.419475 
L 153.719044 239.22248 
L 152.13612 244.092681 
L 150.869939 248.561281 
L 155.837222 249.806512 
L 160.850328 250.852108 
L 165.901237 251.696397 
L 170.981868 252.338028 
L 176.084093 252.775975 
L 181.199751 253.009537 
L 186.320656 253.03834 
L 191.438617 252.862339 
L 196.545446 252.481815 
L 201.632974 251.897376 
L 206.69306 251.109958 
L 211.717611 250.120821 
L 216.698587 248.931546 
L 221.628021 247.544036 
L 226.498026 245.960512 
L 231.300812 244.183506 
L 236.028695 242.215861 
L 240.674111 240.060725 
L 245.229629 237.721546 
L 249.687961 235.202066 
L 254.041974 232.506316 
L 258.284703 229.638608 
L 262.409361 226.603529 
L 266.409349 223.405936 
L 270.278267 220.050944 
L 274.009927 216.543921 
L 277.598359 212.890475 
L 281.037821 209.096454 
L 284.322812 205.167925 
L 287.448075 201.111174 
L 290.408613 196.932691 
L 293.199687 192.63916 
L 295.816833 188.23745 
L 298.255864 183.734604 
L 300.512879 179.137824 
L 302.584266 174.454464 
L 304.466712 169.692017 
L 306.157204 164.858102 
L 307.65304 159.960452 
L 308.951825 155.006902 
L 310.051483 150.005376 
L 310.950253 144.963877 
L 311.646697 139.890469 
L 312.139703 134.793269 
L 312.428481 129.680432 
L 312.512568 124.560136 
L 312.391831 119.440573 
L 312.066463 114.329933 
L 311.536984 109.236393 
L 310.804241 104.1681 
L 309.869407 99.133164 
L 308.733977 94.139638 
L 307.399767 89.195511 
L 305.868912 84.308694 
L 304.143861 79.487003 
L 302.227374 74.738153 
L 300.122516 70.06974 
L 297.832655 65.489234 
L 296.846453 63.648 
L 294.482174 68.190542 
L 292.301439 72.823996 
L 290.307737 77.54095 
L 288.504257 82.333857 
L 286.893886 87.195051 
L 285.479198 92.116754 
L 284.262458 97.091093 
L 283.245612 102.110109 
L 282.430286 107.165774 
L 281.817785 112.249999 
L 281.409088 117.354651 
L 281.20485 122.471563 
L 281.205398 127.592549 
L 281.410729 132.709417 
L 281.820517 137.813982 
L 282.434105 142.898076 
L 283.250512 147.953566 
L 284.268431 152.972365 
L 285.486235 157.946443 
L 286.901974 162.867844 
L 288.513385 167.728693 
L 290.317889 172.521215 
L 292.312599 177.237743 
L 294.494325 181.870731 
L 296.859575 186.412767 
L 299.404566 190.856585 
L 302.125228 195.195076 
L 305.017206 199.4213 
L 308.075874 203.528494 
L 311.296341 207.510089 
L 314.673452 211.359715 
L 318.201806 215.071214 
L 321.875758 218.638646 
L 325.689431 222.056307 
L 329.636723 225.318727 
L 333.266575 228.094478 
L 332.67939 227.839478 
L 327.937511 225.905807 
L 323.122098 224.163307 
L 318.240856 222.614767 
L 313.301594 221.262662 
L 308.312212 220.109157 
L 303.280694 219.156096 
L 298.215088 218.405005 
L 293.123498 217.857085 
L 288.01407 217.513213 
L 282.894978 217.373938 
L 277.774411 217.439484 
L 272.660561 217.709745 
L 267.561609 218.18429 
L 262.485713 218.862359 
L 261.536233 219.01223 
L 258.339019 223.01252 
L 255.304331 227.137465 
L 252.437024 231.380466 
L 249.741686 235.734735 
L 247.222628 240.193305 
L 244.883881 244.749044 
L 242.729185 249.394665 
L 240.761988 254.122734 
L 238.985437 258.925688 
L 237.402373 263.795843 
L 236.015331 268.725408 
L 234.826528 273.706497 
L 233.837866 278.731142 
L 233.050927 283.791303 
L 232.842992 285.408 
L 232.120537 280.338231 
L 231.195924 275.301407 
L 230.070631 270.305587 
L 228.746459 265.358763 
L 227.225525 260.468848 
L 225.510264 255.643666 
L 223.603419 250.890936 
L 221.508041 246.218261 
L 219.227482 241.633117 
L 216.76539 237.142838 
L 214.125704 232.754608 
L 211.312647 228.475447 
L 208.33072 224.312202 
L 205.184692 220.271532 
L 201.879597 216.359902 
L 198.420723 212.58357 
L 194.813602 208.948576 
L 191.064005 205.460736 
L 187.177932 202.125629 
L 183.161598 198.948592 
L 179.021429 195.934707 
L 174.764049 193.088795 
L 170.396268 190.41541 
L 165.925074 187.918827 
L 161.357619 185.603042 
L 156.701212 183.471758 
L 151.9633 181.528386 
L 147.151464 179.776034 
L 142.273402 178.217506 
L 137.336917 176.855296 
L 132.349906 175.691581 
L 127.320349 174.728225 
L 122.256291 173.966768 
L 117.165833 173.408428 
L 112.05712 173.054099 
L 109.042993 172.941114 
L 111.803366 177.254447 
L 114.734019 181.453945 
L 117.830262 185.532888 
L 121.087143 189.484752 
L 124.499451 193.303215 
L 128.061727 196.982167 
L 131.768273 200.515723 
L 135.613158 203.898231 
L 139.590232 207.124279 
L 143.693133 210.188705 
L 147.915296 213.086608 
L 152.249966 215.813352 
L 156.690211 218.364573 
L 161.228925 220.736192 
L 165.858848 222.924414 
L 170.572573 224.925737 
L 175.36256 226.736961 
L 180.221144 228.355188 
L 185.140554 229.777829 
L 190.11292 231.002608 
L 195.130286 232.027566 
L 200.184626 232.851063 
L 205.267854 233.471781 
L 210.371839 233.888728 
L 215.488414 234.101236 
L 220.609395 234.108967 
L 225.726588 233.911906 
L 230.831808 233.51037 
L 235.916887 232.905 
L 240.97369 232.096766 
L 245.994128 231.08696 
L 250.970168 229.877198 
L 255.893851 228.469415 
L 260.757299 226.865864 
L 265.552731 225.069109 
L 270.272477 223.082025 
L 274.908985 220.907791 
L 279.454838 218.549885 
L 283.902765 216.01208 
L 288.245648 213.298435 
L 292.47654 210.413292 
L 296.588673 207.361266 
L 300.575469 204.14724 
L 304.430548 200.776355 
L 308.147745 197.254005 
L 311.721111 193.585824 
L 315.144932 189.77768 
L 318.413728 185.835667 
L 321.522272 181.766089 
L 324.465589 177.575459 
L 327.238971 173.270479 
L 329.837981 168.858036 
L 332.258462 164.345191 
L 334.496542 159.739162 
L 336.548639 155.047318 
L 338.41147 150.277165 
L 340.082057 145.436334 
L 341.557725 140.53257 
L 342.500984 136.955987 
L 337.552356 135.63857 
L 332.555004 134.5201 
L 327.516923 133.602366 
L 322.446172 132.886834 
L 317.350863 132.374652 
L 312.239148 132.066637 
L 307.119205 131.963282 
L 301.999224 132.064753 
L 296.887396 132.370888 
L 291.791899 132.881196 
L 286.720885 133.594861 
L 281.682466 134.510743 
L 276.684703 135.627374 
L 271.735591 136.94297 
L 271.134749 137.117215 
L 272.139182 132.0957 
L 272.942004 127.038035 
L 273.541932 121.952311 
L 273.938005 116.846664 
L 274.12959 111.729263 
L 274.11638 106.608293 
L 273.898396 101.491948 
L 273.475988 96.388413 
L 272.84983 91.305852 
L 272.020926 86.252396 
L 270.990599 81.236129 
L 269.7605 76.265077 
L 268.332596 71.347193 
L 266.709171 66.490342 
L 265.657389 63.648 
L 263.91946 68.465064 
L 262.375551 73.347773 
L 261.028134 78.288316 
L 259.879364 83.27879 
L 258.931078 88.31121 
L 258.184794 93.377527 
L 257.641705 98.469634 
L 257.302681 103.579386 
L 257.168264 108.698608 
L 257.238668 113.81911 
L 257.513782 118.932702 
L 257.993164 124.031201 
L 258.58108 128.48351 
L 262.984746 125.869657 
L 267.280364 123.081796 
L 271.46106 120.124385 
L 275.520148 117.002157 
L 279.451133 113.720105 
L 283.247726 110.283482 
L 286.903855 106.697785 
L 290.413669 102.968749 
L 293.771554 99.102341 
L 296.972138 95.104747 
L 300.010301 90.98236 
L 302.881182 86.741777 
L 305.580188 82.389782 
L 308.258005 77.645408 
L 303.13733 77.588928 
L 298.018493 77.737266 
L 292.909682 78.090183 
L 287.81907 78.647117 
L 282.754802 79.407175 
L 277.724979 80.369141 
L 272.737647 81.531478 
L 267.800786 82.892325 
L 262.922293 84.449505 
L 258.109973 86.200527 
L 253.371525 88.14259 
L 248.714529 90.272587 
L 244.146435 92.587111 
L 239.674551 95.082458 
L 235.306031 97.754637 
L 231.047865 100.599372 
L 226.906863 103.612114 
L 222.889652 106.788041 
L 219.002657 110.122073 
L 215.252097 113.608877 
L 211.643972 117.242874 
L 208.184054 121.018251 
L 204.877879 124.928968 
L 201.730735 128.968769 
L 198.747658 133.13119 
L 195.933419 137.409573 
L 193.292521 141.797073 
L 190.829188 146.286672 
L 188.547362 150.871186 
L 186.450693 155.543282 
L 184.542535 160.295485 
L 182.825941 165.120193 
L 181.303657 170.009687 
L 179.978118 174.956146 
L 178.851445 179.951654 
L 177.92544 184.988222 
L 177.201585 190.057792 
L 176.681038 195.152253 
L 176.364631 200.263455 
L 176.25287 205.383222 
L 176.345936 210.503363 
L 176.643677 215.615686 
L 177.145619 220.712014 
L 177.850959 225.784193 
L 178.758567 230.824108 
L 179.866992 235.823698 
L 181.17446 240.774963 
L 182.678881 245.669983 
L 184.377847 250.500927 
L 186.26864 255.260066 
L 188.348235 259.939786 
L 190.613306 264.532602 
L 193.060229 269.031165 
L 195.685089 273.428279 
L 198.483687 277.71691 
L 201.451546 281.890196 
L 204.156481 285.408 
L 207.267178 281.340069 
L 210.212713 277.150997 
L 212.988374 272.847486 
L 215.58972 268.43642 
L 218.01259 263.924856 
L 220.253107 259.320013 
L 222.307687 254.629256 
L 224.173044 249.86009 
L 225.846193 245.020144 
L 227.324457 240.117162 
L 228.605472 235.158986 
L 229.687188 230.15355 
L 230.51806 225.429556 
L 230.440764 226.707547 
L 230.259471 231.825323 
L 230.28298 236.946256 
L 230.511253 242.062152 
L 230.943925 247.164827 
L 231.580303 252.246119 
L 232.41937 257.297898 
L 233.459783 262.312082 
L 234.699877 267.28065 
L 236.137669 272.195653 
L 237.770859 277.049228 
L 239.596834 281.833611 
L 241.106986 285.408 
L 243.077106 280.681148 
L 244.856627 275.879293 
L 246.442701 271.010118 
L 247.832791 266.081411 
L 249.024674 261.101058 
L 250.016443 256.077026 
L 250.80651 251.017352 
L 251.393612 245.930132 
L 251.77681 240.823503 
L 251.955491 235.705635 
L 251.929369 230.584715 
L 251.698486 225.468936 
L 251.54479 223.375806 
L 254.215977 227.744932 
L 257.059746 232.003744 
L 260.071547 236.145429 
L 263.246562 240.163361 
L 266.579712 244.051113 
L 270.065664 247.802465 
L 273.698842 251.411414 
L 277.473433 254.872189 
L 281.3834 258.179252 
L 285.422486 261.327313 
L 289.584229 264.311336 
L 293.861973 267.126546 
L 298.248874 269.76844 
L 302.737913 272.232791 
L 306.650218 274.19536 
L 302.364833 271.391797 
L 297.970762 268.761845 
L 293.475036 266.309713 
L 288.884847 264.039324 
L 284.207539 261.954309 
L 279.450593 260.058004 
L 274.621621 258.353444 
L 269.728347 256.843354 
L 264.778599 255.530151 
L 259.780297 254.415935 
L 254.741436 253.50249 
L 249.670078 252.791276 
L 244.574335 252.283431 
L 239.46236 251.979767 
L 234.34233 251.880771 
L 229.222437 251.986601 
L 224.110872 252.297087 
L 219.015812 252.811733 
L 213.945407 253.529715 
L 208.90777 254.449885 
L 203.910959 255.570771 
L 198.962969 256.890579 
L 194.071715 258.407199 
L 189.245022 260.118203 
L 184.490611 262.020855 
L 179.81609 264.112111 
L 175.228935 266.388625 
L 170.736486 268.846755 
L 166.34593 271.482569 
L 164.707539 272.528706 
L 165.27717 272.236591 
L 169.780196 269.797891 
L 174.182099 267.181069 
L 178.475835 264.390311 
L 182.654536 261.430081 
L 186.711517 258.305116 
L 190.640288 255.020415 
L 194.434563 251.581232 
L 198.088272 247.99307 
L 201.595571 244.261668 
L 204.950847 240.392996 
L 208.148735 236.393244 
L 211.184117 232.26881 
L 214.052137 228.026292 
L 216.748208 223.672477 
L 217.577311 222.250988 
L 216.554654 227.268823 
L 215.733474 232.32354 
L 215.115086 237.407053 
L 214.700479 242.511228 
L 214.490316 247.6279 
L 214.484934 252.748884 
L 214.684341 257.865986 
L 215.088217 262.971021 
L 215.695918 268.055823 
L 216.50647 273.112255 
L 217.518577 278.132229 
L 218.73062 283.107714 
L 219.36295 285.408 
L 220.667486 280.455961 
L 221.772949 275.455716 
L 222.677572 270.415264 
L 223.379907 265.342668 
L 223.87883 260.246044 
L 224.173544 255.133545 
L 224.263576 250.01335 
L 224.148784 244.89365 
L 223.829349 239.782636 
L 223.305785 234.688485 
L 222.578927 229.619345 
L 221.649939 224.583326 
L 221.439881 223.580196 
L 217.862124 227.244096 
L 214.433746 231.048136 
L 211.160231 234.986233 
L 208.046817 239.052085 
L 205.098483 243.239188 
L 202.319948 247.540844 
L 199.715655 251.95017 
L 197.289772 256.460114 
L 195.046179 261.063459 
L 192.988465 265.752843 
L 191.119922 270.520762 
L 189.44354 275.359588 
L 187.962 280.261582 
L 186.632849 285.408 
L 185.356047 280.448738 
L 183.88195 275.544501 
L 182.212915 270.703135 
L 180.351611 265.932386 
L 178.301018 261.239885 
L 176.064414 256.633139 
L 173.645379 252.119518 
L 171.047782 247.706243 
L 168.27578 243.400375 
L 165.333805 239.208802 
L 162.226566 235.138228 
L 158.959033 231.195168 
L 155.536432 227.385928 
L 151.964241 223.716602 
L 148.248173 220.193061 
L 144.394174 216.820941 
L 140.408408 213.605638 
L 136.297253 210.552295 
L 132.067285 207.665796 
L 127.725272 204.95076 
L 124.669437 203.180681 
L 124.630371 198.059843 
L 124.386557 192.944664 
L 123.938385 187.843327 
L 123.286573 182.763992 
L 122.432163 177.714786 
L 121.376522 172.703785 
L 120.121339 167.739008 
L 118.668622 162.828395 
L 117.273839 158.68487 
L 122.290886 157.658349 
L 127.262869 156.432021 
L 132.181836 155.007847 
L 137.039916 153.388106 
L 141.829338 151.575389 
L 146.542439 149.572597 
L 151.17168 147.382933 
L 155.709655 145.0099 
L 160.149104 142.457294 
L 164.482925 139.7292 
L 168.704184 136.829981 
L 172.80613 133.764276 
L 176.782198 130.53699 
L 180.62603 127.153284 
L 184.331474 123.618573 
L 187.892604 119.938511 
L 191.303722 116.118985 
L 194.559371 112.166106 
L 197.654343 108.086198 
L 200.583686 103.885788 
L 203.342715 99.571594 
L 205.927015 95.15052 
L 208.332452 90.629638 
L 210.555178 86.016181 
L 212.591637 81.317528 
L 214.438571 76.541197 
L 216.093025 71.694829 
L 217.552353 66.786177 
L 218.374774 63.648 
L 219.709266 68.59205 
L 221.2404 73.47878 
L 222.965726 78.300372 
L 224.882485 83.049113 
L 226.987609 87.717406 
L 229.277731 92.297781 
L 231.749188 96.782913 
L 234.398025 101.165625 
L 237.220005 105.438906 
L 240.210614 109.595919 
L 243.365066 113.630015 
L 246.678316 117.53474 
L 250.145063 121.303847 
L 253.759762 124.931306 
L 256.563531 127.554648 
L 261.674557 127.873893 
L 266.794261 127.988496 
L 271.914453 127.898274 
L 277.026941 127.603371 
L 282.123546 127.104259 
L 287.196116 126.401737 
L 292.236535 125.496927 
L 297.236739 124.391279 
L 302.18873 123.08656 
L 307.084584 121.584857 
L 311.916471 119.888574 
L 316.676659 118.000424 
L 321.357533 115.923428 
L 325.951606 113.660907 
L 328.324231 112.401131 
L 327.235136 113.074263 
L 322.947687 115.874672 
L 318.775655 118.844293 
L 314.725713 121.978376 
L 310.804341 125.271906 
L 307.017811 128.719615 
L 303.372182 132.315986 
L 299.873286 136.055268 
L 296.526719 139.931476 
L 293.337836 143.938411 
L 290.311739 148.069663 
L 287.453269 152.318621 
L 284.766997 156.678489 
L 284.394202 157.315747 
L 289.224015 159.017925 
L 294.118034 160.5256 
L 299.068428 161.83636 
L 304.06728 162.948109 
L 309.106591 163.859067 
L 314.1783 164.567779 
L 319.274293 165.073109 
L 324.386417 165.37425 
L 329.506495 165.470719 
L 334.626335 165.362363 
L 339.737746 165.049354 
L 344.832552 164.532194 
L 349.902602 163.81171 
L 354.939784 162.889054 
L 357.195619 162.407842 
L 353.808247 166.248442 
L 350.577167 170.221429 
L 347.507549 174.320447 
L 344.604303 178.538938 
L 341.872075 182.870153 
L 339.315234 187.307164 
L 336.937871 191.842873 
L 334.74379 196.470022 
L 332.736501 201.18121 
L 330.919215 205.968899 
L 329.294838 210.825432 
L 327.865971 215.743037 
L 326.634898 220.713848 
L 325.60359 225.729912 
L 324.773695 230.783206 
L 324.146542 235.865644 
L 323.723134 240.969097 
L 323.535053 244.949969 
L 319.238245 247.735996 
L 315.056286 250.69162 
L 310.995865 253.812115 
L 307.063478 257.092486 
L 303.265417 260.527487 
L 299.607757 264.111623 
L 296.09635 267.839159 
L 292.736814 271.704132 
L 289.534523 275.700359 
L 286.494599 279.821447 
L 283.621907 284.060804 
L 282.759718 285.408 
L 279.94021 281.133088 
L 276.952006 276.974345 
L 273.799887 272.938426 
L 270.488896 269.031786 
L 267.024329 265.260675 
L 263.411729 261.631126 
L 259.656875 258.148946 
L 255.765775 254.819705 
L 251.744654 251.64873 
L 247.599943 248.641094 
L 243.338275 245.801607 
L 238.966466 243.134813 
L 234.491511 240.644978 
L 229.920569 238.336085 
L 225.260951 236.211828 
L 220.520114 234.275605 
L 215.70564 232.530513 
L 210.825232 230.979345 
L 205.886698 229.624583 
L 200.897938 228.468392 
L 195.866933 227.512624 
L 190.801732 226.758806 
L 185.710438 226.208146 
L 180.601196 225.861523 
L 175.48218 225.719493 
L 170.361578 225.782283 
L 165.247584 226.049791 
L 160.148377 226.521591 
L 155.072117 227.196928 
L 150.026923 228.074721 
L 145.020867 229.153565 
L 140.355708 230.350099 
L 143.933376 226.686113 
L 147.361662 222.881989 
L 150.635081 218.943813 
L 153.748396 214.877885 
L 156.696628 210.69071 
L 159.475059 206.388987 
L 162.079244 201.979597 
L 164.505018 197.469595 
L 166.7485 192.866194 
L 168.8061 188.176761 
L 170.674527 183.408797 
L 172.350791 178.569929 
L 173.832212 173.6679 
L 175.116419 168.71055 
L 176.201357 163.705811 
L 177.085292 158.66169 
L 177.766808 153.586255 
L 178.244816 148.487627 
L 178.518551 143.373962 
L 178.587574 138.253441 
L 178.451777 133.134255 
L 178.111375 128.024595 
L 177.566914 122.932634 
L 176.819263 117.866519 
L 175.869621 112.834354 
L 174.719505 107.844191 
L 173.370756 102.904011 
L 171.825531 98.021718 
L 170.086302 93.205123 
L 168.155853 88.461932 
L 166.03727 83.799732 
L 163.733944 79.225982 
L 163.453668 78.699062 
L 168.567621 78.430761 
L 173.666754 77.958172 
L 178.74291 77.28205 
L 183.787968 76.403476 
L 188.793857 75.323857 
L 193.752569 74.044919 
L 198.65617 72.568709 
L 203.496816 70.897587 
L 208.266763 69.034229 
L 212.95838 66.981613 
L 217.564162 64.743025 
L 219.659074 63.648 
L 224.222742 65.971238 
L 228.875664 68.11012 
L 233.610397 70.061224 
L 238.419366 71.821428 
L 243.294878 73.387916 
L 248.229133 74.758184 
L 253.214237 75.930037 
L 258.242215 76.901602 
L 263.305023 77.671325 
L 268.394562 78.237974 
L 273.502691 78.600642 
L 278.621236 78.758749 
L 283.742009 78.712042 
L 288.856819 78.460597 
L 293.957482 78.004815 
L 299.035839 77.345425 
L 304.083765 76.483483 
L 307.217388 75.843007 
L 303.849547 79.700746 
L 300.638669 83.690077 
L 297.58989 87.804618 
L 294.708087 92.037786 
L 291.997871 96.382809 
L 289.463577 100.832737 
L 287.10926 105.38045 
L 284.938686 110.018673 
L 282.955328 114.739986 
L 281.162359 119.536835 
L 279.562646 124.401547 
L 278.15875 129.326339 
L 276.952916 134.303333 
L 275.947073 139.324566 
L 275.531345 141.775946 
L 280.652273 141.800325 
L 285.77008 141.619902 
L 290.876579 141.234967 
L 295.963599 140.646133 
L 301.023004 139.854344 
L 306.046698 138.860866 
L 311.026645 137.667289 
L 315.954878 136.275521 
L 320.823514 134.68779 
L 325.624763 132.906636 
L 330.350944 130.934907 
L 334.994497 128.775759 
L 337.153331 127.693581 
L 336.616317 128.042046 
L 332.384289 130.925522 
L 328.270954 133.975928 
L 324.282892 137.188383 
L 320.426485 140.557749 
L 316.707901 144.078635 
L 313.13309 147.745408 
L 309.70777 151.552202 
L 306.437421 155.492928 
L 303.327274 159.56128 
L 300.382307 163.750751 
L 297.607229 168.054639 
L 295.00648 172.466057 
L 292.584222 176.977948 
L 290.344328 181.583095 
L 288.290383 186.27413 
L 286.425673 191.043549 
L 284.753179 195.883722 
L 283.275579 200.786904 
L 281.995236 205.745253 
L 280.914198 210.750836 
L 280.034194 215.795644 
L 279.356633 220.871609 
L 278.882599 225.970608 
L 278.612849 231.084485 
L 278.547816 236.205058 
L 278.687602 241.324136 
L 279.031986 246.43353 
L 279.580415 251.525065 
L 280.332013 256.590596 
L 281.285577 261.622019 
L 282.439581 266.611285 
L 283.79218 271.550412 
L 285.341209 276.431499 
L 287.08419 281.246737 
L 288.769623 285.408 
L 290.680358 280.656833 
L 292.39957 275.833057 
L 293.924506 270.944389 
L 295.252729 265.998651 
L 296.382112 261.003754 
L 297.310849 255.967689 
L 298.037454 250.898513 
L 298.560765 245.804335 
L 298.879945 240.693305 
L 298.994482 235.5736 
L 298.904195 230.45341 
L 298.609227 225.340925 
L 298.110049 220.244326 
L 297.407462 215.171765 
L 296.502588 210.131358 
L 295.396875 205.131168 
L 294.092093 200.179194 
L 292.590328 195.283359 
L 290.893983 190.451494 
L 289.005772 185.69133 
L 286.954331 181.065262 
L 290.147034 177.06137 
L 293.17707 172.933007 
L 296.039592 168.686777 
L 298.73002 164.329473 
L 301.244051 159.868066 
L 303.577662 155.309693 
L 305.72712 150.661647 
L 307.688986 145.931363 
L 309.460122 141.12641 
L 311.037695 136.254473 
L 312.41918 131.323347 
L 313.602367 126.340921 
L 314.585365 121.315166 
L 315.366599 116.254121 
L 315.944821 111.165883 
L 316.319105 106.058593 
L 316.488852 100.940421 
L 316.453792 95.819555 
L 316.265683 91.515113 
L 311.938087 88.777156 
L 307.504463 86.214446 
L 302.971905 83.831083 
L 298.347663 81.630881 
L 293.639135 79.61736 
L 288.853855 77.793739 
L 283.999476 76.162938 
L 279.083766 74.727564 
L 274.114589 73.489915 
L 269.099893 72.45197 
L 264.047702 71.615389 
L 258.966098 70.981511 
L 253.86321 70.55135 
L 248.747202 70.325595 
L 243.626259 70.304606 
L 238.508573 70.488416 
L 233.40233 70.876733 
L 228.315701 71.468934 
L 223.256822 72.264072 
L 218.233786 73.260876 
L 213.25463 74.45775 
L 208.327319 75.852779 
L 203.459736 77.443733 
L 198.659667 79.228066 
L 193.934792 81.202923 
L 189.29267 83.365144 
L 184.740727 85.711272 
L 180.286245 88.237552 
L 175.93635 90.939943 
L 171.698002 93.814122 
L 167.57798 96.855491 
L 163.582876 100.059184 
L 159.719082 103.420075 
L 155.992777 106.932789 
L 152.409925 110.591706 
L 148.976256 114.390972 
L 145.697264 118.324508 
L 142.578194 122.386023 
L 139.624036 126.569019 
L 136.839517 130.866804 
L 134.22909 135.272502 
L 131.796933 139.779065 
L 129.546935 144.379284 
L 127.482697 149.065799 
L 125.607521 153.831113 
L 123.924406 158.667602 
L 122.436046 163.567529 
L 121.14482 168.523055 
L 120.052796 173.526253 
L 119.16172 178.569117 
L 118.473018 183.643582 
L 117.987791 188.741528 
L 117.820566 191.318087 
L 122.434256 193.540331 
L 127.133122 195.576298 
L 131.909646 197.422732 
L 136.756187 199.076679 
L 141.664991 200.535494 
L 146.628206 201.796841 
L 151.637892 202.858704 
L 156.686033 203.719384 
L 161.764555 204.377503 
L 166.865332 204.832009 
L 171.980204 205.082175 
L 177.100989 205.127601 
L 182.219495 204.968213 
L 187.327532 204.604268 
L 192.416929 204.036346 
L 194.135304 203.797861 
L 191.776262 208.343125 
L 189.600869 212.979089 
L 187.612605 217.698338 
L 185.814652 222.493322 
L 184.209884 227.356368 
L 182.800871 232.279699 
L 181.589865 237.255437 
L 180.578804 242.275622 
L 179.769306 247.332223 
L 179.162665 252.41715 
L 178.759853 257.52227 
L 178.561513 262.639414 
L 178.567963 267.760396 
L 178.779193 272.877024 
L 179.194864 277.981113 
L 179.814311 283.064496 
L 180.169735 285.408 
L 180.883182 280.336955 
L 181.393271 275.241436 
L 181.699185 270.129596 
L 181.800436 265.00961 
L 181.69686 259.889671 
L 181.388625 254.77797 
L 180.876223 249.682683 
L 180.160473 244.611963 
L 179.242521 239.573921 
L 178.123836 234.576617 
L 176.806206 229.628046 
L 175.291741 224.736125 
L 173.582862 219.908679 
L 171.682303 215.153431 
L 169.593106 210.477989 
L 167.318612 205.889833 
L 164.86246 201.396302 
L 162.22858 197.004585 
L 159.421184 192.721709 
L 156.444765 188.554524 
L 153.304083 184.509697 
L 150.004164 180.5937 
L 146.550287 176.812796 
L 142.947976 173.173036 
L 139.202995 169.68024 
L 135.321335 166.339998 
L 131.309206 163.157653 
L 127.173026 160.138295 
L 122.919413 157.286756 
L 119.354761 155.080609 
L 121.038414 156.00449 
L 125.593939 158.343654 
L 130.239362 160.498775 
L 134.967252 162.466404 
L 139.770043 164.243394 
L 144.640054 165.826903 
L 149.569492 167.214396 
L 154.550473 168.403655 
L 159.575027 169.392776 
L 164.635116 170.180177 
L 169.722645 170.764599 
L 174.829475 171.145107 
L 179.947437 171.321092 
L 185.049012 171.292765 
L 179.97251 170.619241 
L 174.873136 170.149261 
L 169.759046 169.883577 
L 164.638422 169.822615 
L 159.519457 169.966473 
L 154.410339 170.314919 
L 149.319242 170.867396 
L 144.25431 171.623022 
L 139.223647 172.580586 
L 134.2353 173.738557 
L 129.29725 175.095082 
L 124.417396 176.647992 
L 119.603545 178.394801 
L 114.863399 180.332717 
L 112.17148 181.533584 
L 112.693025 181.162366 
L 116.797243 178.099705 
L 120.775705 174.875369 
L 124.622045 171.494516 
L 128.330111 167.962554 
L 131.893969 164.285135 
L 135.30792 160.468141 
L 138.5665 156.517678 
L 141.664498 152.440067 
L 144.596957 148.241831 
L 147.359185 143.929686 
L 149.946764 139.51053 
L 152.355554 134.991434 
L 154.581702 130.379626 
L 156.621646 125.682485 
L 158.472123 120.907526 
L 160.130172 116.062387 
L 161.593141 111.154819 
L 162.858689 106.192673 
L 163.924792 101.183888 
L 164.789744 96.136477 
L 165.452162 91.058514 
L 165.910986 85.958124 
L 166.165481 80.843465 
L 166.215241 75.72272 
L 166.185168 73.967965 
L 170.630254 71.42519 
L 174.970102 68.706693 
L 179.197767 65.816822 
L 182.148071 63.648 
L 186.291366 66.657586 
L 190.551698 69.499077 
L 194.922252 72.167927 
L 199.396035 74.659867 
L 203.965891 76.97091 
L 208.624509 79.097359 
L 213.364435 81.035812 
L 218.178087 82.783167 
L 223.057765 84.336631 
L 227.995661 85.693717 
L 232.983877 86.852254 
L 238.014431 87.810389 
L 243.079277 88.566589 
L 248.170312 89.119644 
L 253.27939 89.46867 
L 258.398339 89.613108 
L 263.51897 89.552727 
L 268.633089 89.287624 
L 273.732517 88.818222 
L 278.809095 88.145273 
L 283.854701 87.269854 
L 288.861264 86.193365 
L 293.820774 84.917527 
L 298.725297 83.444383 
L 303.566987 81.776288 
L 308.338099 79.915911 
L 309.329566 79.501406 
L 305.306145 82.669464 
L 301.412631 85.995881 
L 297.655253 89.475336 
L 294.040021 93.102263 
L 290.572719 96.87086 
L 287.258895 100.775097 
L 284.103849 104.808729 
L 281.112629 108.965302 
L 278.29002 113.238168 
L 275.640538 117.62049 
L 273.168421 122.105258 
L 270.877625 126.685297 
L 268.771814 131.353279 
L 267.626914 134.122144 
L 271.710291 131.03175 
L 275.666819 127.780537 
L 279.490169 124.373706 
L 283.174223 120.816707 
L 286.713089 117.11523 
L 290.101104 113.275196 
L 293.332849 109.30275 
L 296.403153 105.204247 
L 299.307105 100.986242 
L 302.040059 96.655484 
L 304.597643 92.218901 
L 306.975764 87.683591 
L 309.17062 83.056809 
L 310.125908 80.880711 
L 305.030107 80.37345 
L 299.918097 80.070372 
L 294.798057 79.971962 
L 289.678176 80.078377 
L 284.566646 80.389449 
L 279.471645 80.904678 
L 274.401322 81.623241 
L 269.363791 82.543988 
L 264.367108 83.665445 
L 259.419269 84.98582 
L 254.528189 86.503 
L 249.701691 88.214557 
L 244.947499 90.117753 
L 240.273217 92.209544 
L 235.686323 94.486583 
L 231.194156 96.945228 
L 226.803901 99.581544 
L 222.522583 102.391316 
L 218.35705 105.370046 
L 214.313966 108.512971 
L 210.3998 111.815063 
L 206.620814 115.271038 
L 202.983052 118.875367 
L 199.492335 122.622285 
L 196.154247 126.505798 
L 192.974128 130.519692 
L 189.957066 134.657546 
L 187.107887 138.912741 
L 184.431149 143.278468 
L 181.931135 147.747745 
L 179.611845 152.31342 
L 177.476988 156.968191 
L 175.529979 161.704609 
L 173.773935 166.515099 
L 172.211663 171.391963 
L 170.845663 176.327401 
L 169.678121 181.313517 
L 168.710904 186.342333 
L 167.94556 191.405805 
L 167.383313 196.495833 
L 167.025063 201.604273 
L 166.871382 206.722953 
L 166.922517 211.843684 
L 167.178386 216.958274 
L 167.638579 222.058541 
L 168.30236 227.136326 
L 169.168667 232.183504 
L 170.236115 237.192003 
L 171.502995 242.153808 
L 172.967282 247.060984 
L 174.626631 251.905678 
L 176.47839 256.68014 
L 178.519595 261.376733 
L 180.746981 265.987943 
L 183.156984 270.506392 
L 185.745749 274.924853 
L 188.509135 279.236256 
L 191.442721 283.433705 
L 192.911428 285.408 
L 195.925139 281.267705 
L 198.770872 277.010205 
L 201.444074 272.642311 
L 203.940469 268.171012 
L 206.256062 263.60346 
L 208.38715 258.946963 
L 210.330323 254.20897 
L 212.082473 249.39706 
L 213.640795 244.518932 
L 215.002799 239.58239 
L 216.166304 234.595331 
L 217.129449 229.565733 
L 217.890693 224.501643 
L 218.138646 222.465779 
L 215.306618 226.732408 
L 212.647475 231.108875 
L 210.165472 235.588178 
L 207.864578 240.163153 
L 205.748475 244.826478 
L 203.820547 249.570696 
L 202.08388 254.388215 
L 200.541252 259.271328 
L 199.19513 264.212225 
L 198.047668 269.203 
L 197.100701 274.235668 
L 196.355745 279.30218 
L 195.813991 284.39443 
L 195.730674 285.408 
L 195.679167 284.76991 
L 195.152403 279.676088 
L 194.422361 274.607406 
L 193.490211 269.571972 
L 192.357442 264.577841 
L 191.025868 259.633004 
L 189.497618 254.745372 
L 187.775138 249.922762 
L 185.861182 245.172891 
L 183.758813 240.503357 
L 181.471394 235.921631 
L 179.002584 231.435042 
L 176.356334 227.050768 
L 173.536876 222.775822 
L 170.548721 218.617044 
L 167.39665 214.581087 
L 164.085705 210.674408 
L 160.621182 206.903256 
L 157.008625 203.273665 
L 153.253813 199.79144 
L 149.362752 196.462154 
L 145.341668 193.291131 
L 141.196993 190.283446 
L 136.935359 187.443909 
L 132.563581 184.777063 
L 128.088656 182.287175 
L 123.517741 179.978228 
L 118.858148 177.853915 
L 114.117334 175.917636 
L 109.302881 174.172488 
L 108.489901 173.899099 
L 112.386296 177.22214 
L 116.412461 180.38671 
L 120.561954 183.387744 
L 124.828137 186.220442 
L 129.204186 188.880273 
L 133.683099 191.362981 
L 138.257712 193.664594 
L 142.920705 195.78143 
L 147.664619 197.710104 
L 152.481865 199.447528 
L 157.364736 200.990924 
L 162.305421 202.337823 
L 167.296015 203.48607 
L 172.328535 204.433828 
L 177.39493 205.179581 
L 182.487094 205.722135 
L 187.596881 206.060623 
L 192.716117 206.194504 
L 195.894708 206.174582 
L 194.691145 211.152125 
L 193.687593 216.173817 
L 192.885657 221.231623 
L 192.286622 226.317452 
L 191.891444 231.423168 
L 191.700757 236.540603 
L 191.714865 241.66157 
L 191.933746 246.777877 
L 192.357049 251.881338 
L 192.984098 256.963789 
L 193.813889 262.0171 
L 194.845095 267.033185 
L 196.076066 272.004022 
L 197.504833 276.921656 
L 199.12911 281.778221 
L 200.486631 285.408 
L 202.257146 280.602818 
L 203.834089 275.730677 
L 205.214937 270.799373 
L 206.39748 265.816794 
L 207.379828 260.790912 
L 208.160409 255.729766 
L 208.737973 250.641454 
L 209.111597 245.534115 
L 209.280683 240.415921 
L 209.24496 235.295059 
L 209.004487 230.179722 
L 208.559647 225.078093 
L 207.911151 219.998333 
L 207.416036 216.914135 
L 202.427125 218.069673 
L 197.488414 219.42379 
L 192.607803 220.974319 
L 187.793101 222.718781 
L 183.05201 224.654384 
L 178.392115 226.778032 
L 173.820871 229.086328 
L 169.34559 231.575577 
L 164.973433 234.2418 
L 160.711393 237.080729 
L 156.56629 240.087824 
L 152.544753 243.258273 
L 149.366206 245.95674 
L 154.181928 244.215096 
L 158.924151 242.282267 
L 163.585288 240.161347 
L 168.157882 237.855727 
L 172.634619 235.369096 
L 177.008336 232.705433 
L 181.272036 229.868998 
L 185.418899 226.86433 
L 189.44229 223.696235 
L 193.335772 220.369781 
L 197.093118 216.89029 
L 200.708315 213.263329 
L 201.60024 212.322482 
L 199.916055 214.251291 
L 196.665077 218.208011 
L 193.574925 222.291572 
L 190.650544 226.495438 
L 187.896612 230.812887 
L 185.317534 235.237009 
L 182.917437 239.760729 
L 180.700161 244.376808 
L 178.669252 249.077862 
L 176.82796 253.856371 
L 175.17923 258.704689 
L 173.7257 263.615061 
L 172.469695 268.579631 
L 171.413224 273.590456 
L 170.557978 278.639521 
L 170.115788 281.896069 
L 174.868662 283.802554 
L 179.36679 285.408 
L 184.187464 283.680108 
L 188.935183 281.760822 
L 193.602355 279.653213 
L 198.181511 277.360653 
L 202.665326 274.88681 
L 207.046627 272.23564 
L 211.318406 269.411386 
L 215.473827 266.418565 
L 219.506244 263.261966 
L 223.409204 259.946638 
L 227.176465 256.477885 
L 230.802 252.861257 
L 234.280008 249.102538 
L 237.604925 245.207743 
L 240.771432 241.183103 
L 243.774464 237.035055 
L 246.609216 232.770235 
L 249.271153 228.395468 
L 251.756017 223.91775 
L 252.141215 223.183942 
L 256.78326 225.346329 
L 261.508064 227.321354 
L 266.30807 229.105857 
L 271.175596 230.696984 
L 276.102858 232.092189 
L 281.081971 233.28924 
L 286.104971 234.286222 
L 291.163822 235.081541 
L 296.25043 235.673923 
L 301.356659 236.062421 
L 306.474339 236.246414 
L 311.595283 236.225607 
L 316.711299 236.000033 
L 321.814202 235.570054 
L 326.895829 234.936357 
L 329.555703 234.521898 
L 327.663314 229.763393 
L 325.582149 225.08437 
L 323.315537 220.492315 
L 320.867106 215.994572 
L 318.240771 211.598339 
L 315.440735 207.310648 
L 312.471476 203.138357 
L 309.337746 199.088143 
L 306.044557 195.166485 
L 302.597177 191.379655 
L 299.001122 187.733714 
L 295.262145 184.234492 
L 291.386227 180.887589 
L 287.279722 177.62217 
L 291.644425 174.943762 
L 295.898528 172.092954 
L 300.035227 169.074308 
L 304.047903 165.892652 
L 307.930137 162.553077 
L 311.675719 159.060926 
L 315.278655 155.421785 
L 318.733183 151.641475 
L 322.033776 147.726045 
L 325.175153 143.681759 
L 328.152288 139.515086 
L 330.96042 135.232692 
L 333.595056 130.841428 
L 336.205745 126.052313 
L 331.086464 125.920181 
L 325.965993 125.99287 
L 320.852525 126.270266 
L 315.75424 126.751924 
L 310.679295 127.437074 
L 305.635808 128.324619 
L 300.631847 129.41314 
L 295.675418 130.700896 
L 290.77445 132.185825 
L 285.936784 133.865554 
L 281.170158 135.737394 
L 276.482199 137.79835 
L 273.339813 139.307816 
L 275.774896 134.802832 
L 278.027879 130.204075 
L 280.09516 125.518901 
L 281.973429 120.754806 
L 283.659684 115.919411 
L 285.151225 111.020451 
L 286.445667 106.065764 
L 287.540939 101.063277 
L 288.435289 96.020992 
L 289.127286 90.946975 
L 289.615822 85.849345 
L 289.900117 80.736256 
L 289.979716 75.615888 
L 289.854491 70.496433 
L 289.524642 65.386081 
L 289.365563 63.648 
L 288.966082 68.753381 
L 288.771082 73.870654 
L 288.780874 78.991631 
L 288.995443 84.10812 
L 289.414445 89.211936 
L 290.03721 94.294914 
L 290.862742 99.348922 
L 291.88972 104.365875 
L 293.116502 109.337747 
L 294.541123 114.256584 
L 296.161307 119.114516 
L 297.974459 123.903773 
L 299.977681 128.616692 
L 302.167767 133.245734 
L 304.541213 137.783492 
L 307.094222 142.222709 
L 309.822711 146.556282 
L 312.722314 150.777277 
L 315.788392 154.878943 
L 319.016041 158.854718 
L 322.400097 162.698241 
L 325.935145 166.403364 
L 329.615532 169.964158 
L 333.435368 173.374929 
L 337.388543 176.630218 
L 341.468733 179.724818 
L 345.66941 182.653779 
L 349.983855 185.412415 
L 354.405164 187.996313 
L 355.932991 188.835094 
L 353.739264 187.514358 
L 349.274776 185.005803 
L 344.713544 182.677786 
L 340.062864 180.534033 
L 335.330177 178.577971 
L 330.523054 176.812731 
L 325.649186 175.241137 
L 320.716369 173.865703 
L 315.732495 172.688629 
L 310.705537 171.711798 
L 305.643538 170.936774 
L 300.554595 170.364795 
L 295.446849 169.996777 
L 290.328473 169.83331 
L 287.157778 169.834755 
L 287.788365 169.724432 
L 292.8116 168.728633 
L 297.790995 167.532756 
L 302.718585 166.138712 
L 307.586487 164.548732 
L 312.386912 162.76536 
L 317.112182 160.791449 
L 321.754737 158.630156 
L 326.30715 156.284939 
L 330.762137 153.759551 
L 335.112573 151.05803 
L 339.351496 148.184699 
L 343.472126 145.144155 
L 346.051935 143.106414 
L 341.307388 145.033532 
L 336.643701 147.148839 
L 332.068335 149.448952 
L 327.588607 151.930191 
L 323.211687 154.588587 
L 318.944575 157.419886 
L 314.794098 160.41956 
L 310.766895 163.582809 
L 306.869411 166.904573 
L 303.107879 170.379537 
L 299.488317 174.002143 
L 296.016516 177.766596 
L 292.69803 181.666872 
L 289.538168 185.696732 
L 286.541986 189.84973 
L 283.714275 194.119221 
L 282.963523 195.318143 
L 281.636569 200.264222 
L 280.508466 205.259408 
L 279.58102 210.295711 
L 278.855715 215.365073 
L 278.333709 220.459385 
L 278.01584 225.570497 
L 277.902614 230.690231 
L 277.994214 235.810398 
L 278.290493 240.922807 
L 278.790977 246.019278 
L 279.494865 251.091658 
L 280.401031 256.131834 
L 281.508025 261.13174 
L 282.814077 266.083379 
L 284.317096 270.97883 
L 286.01468 275.810259 
L 287.904111 280.569939 
L 290.056355 285.408 
L 292.140978 280.730517 
L 294.036885 275.973413 
L 295.741041 271.144298 
L 297.250722 266.250898 
L 298.563511 261.30104 
L 299.677308 256.302645 
L 300.590332 251.263708 
L 301.301122 246.19229 
L 301.808541 241.096504 
L 302.111777 235.984504 
L 302.210344 230.864466 
L 302.104086 225.744582 
L 301.793173 220.633043 
L 301.278101 215.538025 
L 300.559694 210.467681 
L 299.639103 205.430121 
L 298.517799 200.433404 
L 297.197577 195.485524 
L 295.680548 190.594397 
L 293.96914 185.767847 
L 292.06609 181.013596 
L 289.974443 176.339249 
L 287.697546 171.752285 
L 287.243942 170.890598 
L 288.884882 166.039637 
L 290.330522 161.126937 
L 291.57855 156.160356 
L 292.62697 151.14784 
L 293.474104 146.097407 
L 294.118597 141.017139 
L 294.559418 135.915161 
L 294.795861 130.799636 
L 294.827549 125.678747 
L 294.654431 120.560688 
L 294.276783 115.453645 
L 293.69521 110.36579 
L 292.910643 105.305261 
L 291.924335 100.280154 
L 290.737866 95.298508 
L 289.353134 90.368293 
L 287.772353 85.497397 
L 285.998052 80.693611 
L 284.033071 75.96462 
L 281.880552 71.317991 
L 279.543939 66.761156 
L 277.811854 63.648 
L 275.349363 68.13806 
L 273.068396 72.723002 
L 270.972603 77.395491 
L 269.065335 82.148051 
L 267.349645 86.973081 
L 265.828277 91.86286 
L 264.503665 96.809566 
L 263.377928 101.805286 
L 262.452867 106.842028 
L 261.729961 111.911733 
L 261.210369 117.006291 
L 260.89492 122.117553 
L 260.784119 127.23734 
L 260.802612 129.633217 
L 265.114724 126.870937 
L 269.312926 123.938429 
L 273.3905 120.840382 
L 277.340924 117.581755 
L 281.157877 114.167759 
L 284.835254 110.603857 
L 288.367172 106.895749 
L 291.747979 103.049369 
L 294.972268 99.070869 
L 298.03488 94.966614 
L 300.930917 90.74317 
L 303.655744 86.407294 
L 306.205002 81.965923 
L 308.369144 77.837906 
L 303.252039 77.63856 
L 298.131056 77.644002 
L 293.014386 77.854225 
L 287.910216 78.268891 
L 282.826711 78.887339 
L 277.772003 79.708577 
L 272.75418 80.731293 
L 267.781267 81.953851 
L 262.861222 83.374294 
L 258.001915 84.99035 
L 253.21112 86.799434 
L 248.496502 88.798652 
L 243.865601 90.984805 
L 239.325828 93.354395 
L 234.884444 95.903633 
L 230.548556 98.62844 
L 226.325099 101.524457 
L 222.22083 104.58705 
L 218.242315 107.81132 
L 214.395918 111.19211 
L 210.687794 114.72401 
L 207.123875 118.40137 
L 203.709861 122.218308 
L 200.451215 126.168717 
L 197.35315 130.246277 
L 194.420622 134.444464 
L 191.658322 138.756564 
L 189.07067 143.175677 
L 186.661805 147.694733 
L 184.435581 152.306504 
L 182.39556 157.003611 
L 180.545004 161.77854 
L 178.886875 166.623651 
L 177.423825 171.531195 
L 176.158194 176.49332 
L 175.092008 181.502087 
L 174.226972 186.549484 
L 173.564471 191.627436 
L 173.105563 196.727819 
L 172.850983 201.842473 
L 172.801138 206.963217 
L 172.956108 212.081858 
L 173.315645 217.190208 
L 173.879174 222.280093 
L 174.645794 227.343372 
L 175.614278 232.371945 
L 176.783076 237.357766 
L 178.150319 242.29286 
L 179.713819 247.169331 
L 181.471076 251.979378 
L 183.419277 256.715305 
L 185.555307 261.369538 
L 187.875748 265.934629 
L 190.376887 270.403275 
L 193.054724 274.768329 
L 195.904975 279.022805 
L 198.92308 283.159899 
L 200.672861 285.408 
L 200.672861 285.408 
" style="fill:none;stroke:#1f77b4;stroke-linecap:square;stroke-width:1.5;"/>
   </g>
   <g id="patch_4">
    <path d="M 82.520165 307.584 
L 82.520165 41.472 
" style="fill:none;stroke:#000000;stroke-linecap:square;stroke-linejoin:miter;stroke-width:0.8;"/>
   </g>
   <g id="patch_5">
    <path d="M 389.799835 307.584 
L 389.799835 41.472 
" style="fill:none;stroke:#000000;stroke-linecap:square;stroke-linejoin:miter;stroke-width:0.8;"/>
   </g>
   <g id="patch_6">
    <path d="M 82.520165 307.584 
L 389.799835 307.584 
" style="fill:none;stroke:#000000;stroke-linecap:square;stroke-linejoin:miter;stroke-width:0.8;"/>
   </g>
   <g id="patch_7">
    <path d="M 82.520165 41.472 
L 389.799835 41.472 
" style="fill:none;stroke:#000000;stroke-linecap:square;stroke-linejoin:miter;stroke-width:0.8;"/>
   </g>
   <g id="PathCollection_1">
    <defs>
     <path d="M 0 2.236068 
C 0.593012 2.236068 1.161816 2.000462 1.581139 1.581139 
C 2.000462 1.161816 2.236068 0.593012 2.236068 0 
C 2.236068 -0.593012 2.000462 -1.161816 1.581139 -1.581139 
C 1.161816 -2.000462 0.593012 -2.236068 0 -2.236068 
C -0.593012 -2.236068 -1.161816 -2.000462 -1.581139 -1.581139 
C -2.000462 -1.161816 -2.236068 -0.593012 -2.236068 0 
C -2.236068 0.593012 -2.000462 1.161816 -1.581139 1.581139 
C -1.161816 2.000462 -0.593012 2.236068 0 2.236068 
z
" id="m4a3e67eca3" style="stroke:#000000;"/>
    </defs>
    <g clip-path="url(#p9e913e0cbe)">
     <use style="stroke:#000000;" x="200.672861" xlink:href="#m4a3e67eca3" y="285.408"/>
    </g>
   </g>
   <g id="Quiver_1">
    <path clip-path="url(#p9e913e0cbe)" d="M 200.192118 285.025156 
L 204.403404 279.736986 
L 203.059075 279.452041 
L 208.329744 275.793146 
L 205.943531 281.749106 
L 205.36489 280.502675 
L 201.153604 285.790844 
L 200.192118 285.025156 
"/>
   </g>
  </g>
 </g>
 <defs>
  <clipPath id="p9e913e0cbe">
   <rect height="266.112" width="307.27967" x="82.520165" y="41.472"/>
  </clipPath>
 </defs>
</svg>
