<?xml version="1.0" encoding="utf-8" standalone="no"?>
<!DOCTYPE svg PUBLIC "-//W3C//DTD SVG 1.1//EN"
  "http://www.w3.org/Graphics/SVG/1.1/DTD/svg11.dtd">
<!-- Created with matplotlib (https://matplotlib.org/) -->
<svg height="345.6pt" version="1.1" viewBox="0 0 460.8 345.6" width="460.8pt" xmlns="http://www.w3.org/2000/svg" xmlns:xlink="http://www.w3.org/1999/xlink">
 <defs>
  <style type="text/css">
*{stroke-linecap:butt;stroke-linejoin:round;}
  </style>
 </defs>
 <g id="figure_1">
  <g id="patch_1">
   <path d="M 0 345.6 
L 460.8 345.6 
L 460.8 0 
L 0 0 
z
" style="fill:#ffffff;"/>
  </g>
  <g id="axes_1">
   <g id="patch_2">
    <path d="M 82.520165 307.584 
L 389.799835 307.584 
L 389.799835 41.472 
L 82.520165 41.472 
z
" style="fill:#ffffff;"/>
   </g>
   <g id="patch_3">
    <path clip-path="url(#p2174081b72)" d="M 236.16 225.741278 
C 249.74192 225.741278 262.769389 220.345124 272.373256 210.741256 
C 281.977124 201.137389 287.373278 188.10992 287.373278 174.528 
C 287.373278 160.94608 281.977124 147.918611 272.373256 138.314744 
C 262.769389 128.710876 249.74192 123.314722 236.16 123.314722 
C 222.57808 123.314722 209.550611 128.710876 199.946744 138.314744 
C 190.342876 147.918611 184.946722 160.94608 184.946722 174.528 
C 184.946722 188.10992 190.342876 201.137389 199.946744 210.741256 
C 209.550611 220.345124 222.57808 225.741278 236.16 225.741278 
z
" style="fill:#009900;fill-opacity:0.5;stroke:#009900;stroke-linejoin:miter;stroke-width:2;"/>
   </g>
   <g id="matplotlib.axis_1">
    <g id="xtick_1">
     <g id="line2d_1">
      <defs>
       <path d="M 0 0 
L 0 3.5 
" id="m390ceb7372" style="stroke:#000000;stroke-width:0.8;"/>
      </defs>
      <g>
       <use style="stroke:#000000;stroke-width:0.8;" x="108.126804" xlink:href="#m390ceb7372" y="307.584"/>
      </g>
     </g>
     <g id="text_1">
      <!-- −2 -->
      <defs>
       <path d="M 10.59375 35.5 
L 73.1875 35.5 
L 73.1875 27.203125 
L 10.59375 27.203125 
z
" id="DejaVuSans-8722"/>
       <path d="M 19.1875 8.296875 
L 53.609375 8.296875 
L 53.609375 0 
L 7.328125 0 
L 7.328125 8.296875 
Q 12.9375 14.109375 22.625 23.890625 
Q 32.328125 33.6875 34.8125 36.53125 
Q 39.546875 41.84375 41.421875 45.53125 
Q 43.3125 49.21875 43.3125 52.78125 
Q 43.3125 58.59375 39.234375 62.25 
Q 35.15625 65.921875 28.609375 65.921875 
Q 23.96875 65.921875 18.8125 64.3125 
Q 13.671875 62.703125 7.8125 59.421875 
L 7.8125 69.390625 
Q 13.765625 71.78125 18.9375 73 
Q 24.125 74.21875 28.421875 74.21875 
Q 39.75 74.21875 46.484375 68.546875 
Q 53.21875 62.890625 53.21875 53.421875 
Q 53.21875 48.921875 51.53125 44.890625 
Q 49.859375 40.875 45.40625 35.40625 
Q 44.1875 33.984375 37.640625 27.21875 
Q 31.109375 20.453125 19.1875 8.296875 
z
" id="DejaVuSans-50"/>
      </defs>
      <g transform="translate(100.755711 322.182437)scale(0.1 -0.1)">
       <use xlink:href="#DejaVuSans-8722"/>
       <use x="83.789062" xlink:href="#DejaVuSans-50"/>
      </g>
     </g>
    </g>
    <g id="xtick_2">
     <g id="line2d_2">
      <g>
       <use style="stroke:#000000;stroke-width:0.8;" x="172.143402" xlink:href="#m390ceb7372" y="307.584"/>
      </g>
     </g>
     <g id="text_2">
      <!-- −1 -->
      <defs>
       <path d="M 12.40625 8.296875 
L 28.515625 8.296875 
L 28.515625 63.921875 
L 10.984375 60.40625 
L 10.984375 69.390625 
L 28.421875 72.90625 
L 38.28125 72.90625 
L 38.28125 8.296875 
L 54.390625 8.296875 
L 54.390625 0 
L 12.40625 0 
z
" id="DejaVuSans-49"/>
      </defs>
      <g transform="translate(164.772308 322.182437)scale(0.1 -0.1)">
       <use xlink:href="#DejaVuSans-8722"/>
       <use x="83.789062" xlink:href="#DejaVuSans-49"/>
      </g>
     </g>
    </g>
    <g id="xtick_3">
     <g id="line2d_3">
      <g>
       <use style="stroke:#000000;stroke-width:0.8;" x="236.16" xlink:href="#m390ceb7372" y="307.584"/>
      </g>
     </g>
     <g id="text_3">
      <!-- 0 -->
      <defs>
       <path d="M 31.78125 66.40625 
Q 24.171875 66.40625 20.328125 58.90625 
Q 16.5 51.421875 16.5 36.375 
Q 16.5 21.390625 20.328125 13.890625 
Q 24.171875 6.390625 31.78125 6.390625 
Q 39.453125 6.390625 43.28125 13.890625 
Q 47.125 21.390625 47.125 36.375 
Q 47.125 51.421875 43.28125 58.90625 
Q 39.453125 66.40625 31.78125 66.40625 
z
M 31.78125 74.21875 
Q 44.046875 74.21875 50.515625 64.515625 
Q 56.984375 54.828125 56.984375 36.375 
Q 56.984375 17.96875 50.515625 8.265625 
Q 44.046875 -1.421875 31.78125 -1.421875 
Q 19.53125 -1.421875 13.0625 8.265625 
Q 6.59375 17.96875 6.59375 36.375 
Q 6.59375 54.828125 13.0625 64.515625 
Q 19.53125 74.21875 31.78125 74.21875 
z
" id="DejaVuSans-48"/>
      </defs>
      <g transform="translate(232.97875 322.182437)scale(0.1 -0.1)">
       <use xlink:href="#DejaVuSans-48"/>
      </g>
     </g>
    </g>
    <g id="xtick_4">
     <g id="line2d_4">
      <g>
       <use style="stroke:#000000;stroke-width:0.8;" x="300.176598" xlink:href="#m390ceb7372" y="307.584"/>
      </g>
     </g>
     <g id="text_4">
      <!-- 1 -->
      <g transform="translate(296.995348 322.182437)scale(0.1 -0.1)">
       <use xlink:href="#DejaVuSans-49"/>
      </g>
     </g>
    </g>
    <g id="xtick_5">
     <g id="line2d_5">
      <g>
       <use style="stroke:#000000;stroke-width:0.8;" x="364.193196" xlink:href="#m390ceb7372" y="307.584"/>
      </g>
     </g>
     <g id="text_5">
      <!-- 2 -->
      <g transform="translate(361.011946 322.182437)scale(0.1 -0.1)">
       <use xlink:href="#DejaVuSans-50"/>
      </g>
     </g>
    </g>
   </g>
   <g id="matplotlib.axis_2">
    <g id="ytick_1">
     <g id="line2d_6">
      <defs>
       <path d="M 0 0 
L -3.5 0 
" id="m202a37bab4" style="stroke:#000000;stroke-width:0.8;"/>
      </defs>
      <g>
       <use style="stroke:#000000;stroke-width:0.8;" x="82.520165" xlink:href="#m202a37bab4" y="302.561196"/>
      </g>
     </g>
     <g id="text_6">
      <!-- −2.0 -->
      <defs>
       <path d="M 10.6875 12.40625 
L 21 12.40625 
L 21 0 
L 10.6875 0 
z
" id="DejaVuSans-46"/>
      </defs>
      <g transform="translate(51.237353 306.360414)scale(0.1 -0.1)">
       <use xlink:href="#DejaVuSans-8722"/>
       <use x="83.789062" xlink:href="#DejaVuSans-50"/>
       <use x="147.412109" xlink:href="#DejaVuSans-46"/>
       <use x="179.199219" xlink:href="#DejaVuSans-48"/>
      </g>
     </g>
    </g>
    <g id="ytick_2">
     <g id="line2d_7">
      <g>
       <use style="stroke:#000000;stroke-width:0.8;" x="82.520165" xlink:href="#m202a37bab4" y="270.552897"/>
      </g>
     </g>
     <g id="text_7">
      <!-- −1.5 -->
      <defs>
       <path d="M 10.796875 72.90625 
L 49.515625 72.90625 
L 49.515625 64.59375 
L 19.828125 64.59375 
L 19.828125 46.734375 
Q 21.96875 47.46875 24.109375 47.828125 
Q 26.265625 48.1875 28.421875 48.1875 
Q 40.625 48.1875 47.75 41.5 
Q 54.890625 34.8125 54.890625 23.390625 
Q 54.890625 11.625 47.5625 5.09375 
Q 40.234375 -1.421875 26.90625 -1.421875 
Q 22.3125 -1.421875 17.546875 -0.640625 
Q 12.796875 0.140625 7.71875 1.703125 
L 7.71875 11.625 
Q 12.109375 9.234375 16.796875 8.0625 
Q 21.484375 6.890625 26.703125 6.890625 
Q 35.15625 6.890625 40.078125 11.328125 
Q 45.015625 15.765625 45.015625 23.390625 
Q 45.015625 31 40.078125 35.4375 
Q 35.15625 39.890625 26.703125 39.890625 
Q 22.75 39.890625 18.8125 39.015625 
Q 14.890625 38.140625 10.796875 36.28125 
z
" id="DejaVuSans-53"/>
      </defs>
      <g transform="translate(51.237353 274.352116)scale(0.1 -0.1)">
       <use xlink:href="#DejaVuSans-8722"/>
       <use x="83.789062" xlink:href="#DejaVuSans-49"/>
       <use x="147.412109" xlink:href="#DejaVuSans-46"/>
       <use x="179.199219" xlink:href="#DejaVuSans-53"/>
      </g>
     </g>
    </g>
    <g id="ytick_3">
     <g id="line2d_8">
      <g>
       <use style="stroke:#000000;stroke-width:0.8;" x="82.520165" xlink:href="#m202a37bab4" y="238.544598"/>
      </g>
     </g>
     <g id="text_8">
      <!-- −1.0 -->
      <g transform="translate(51.237353 242.343817)scale(0.1 -0.1)">
       <use xlink:href="#DejaVuSans-8722"/>
       <use x="83.789062" xlink:href="#DejaVuSans-49"/>
       <use x="147.412109" xlink:href="#DejaVuSans-46"/>
       <use x="179.199219" xlink:href="#DejaVuSans-48"/>
      </g>
     </g>
    </g>
    <g id="ytick_4">
     <g id="line2d_9">
      <g>
       <use style="stroke:#000000;stroke-width:0.8;" x="82.520165" xlink:href="#m202a37bab4" y="206.536299"/>
      </g>
     </g>
     <g id="text_9">
      <!-- −0.5 -->
      <g transform="translate(51.237353 210.335518)scale(0.1 -0.1)">
       <use xlink:href="#DejaVuSans-8722"/>
       <use x="83.789062" xlink:href="#DejaVuSans-48"/>
       <use x="147.412109" xlink:href="#DejaVuSans-46"/>
       <use x="179.199219" xlink:href="#DejaVuSans-53"/>
      </g>
     </g>
    </g>
    <g id="ytick_5">
     <g id="line2d_10">
      <g>
       <use style="stroke:#000000;stroke-width:0.8;" x="82.520165" xlink:href="#m202a37bab4" y="174.528"/>
      </g>
     </g>
     <g id="text_10">
      <!-- 0.0 -->
      <g transform="translate(59.61704 178.327219)scale(0.1 -0.1)">
       <use xlink:href="#DejaVuSans-48"/>
       <use x="63.623047" xlink:href="#DejaVuSans-46"/>
       <use x="95.410156" xlink:href="#DejaVuSans-48"/>
      </g>
     </g>
    </g>
    <g id="ytick_6">
     <g id="line2d_11">
      <g>
       <use style="stroke:#000000;stroke-width:0.8;" x="82.520165" xlink:href="#m202a37bab4" y="142.519701"/>
      </g>
     </g>
     <g id="text_11">
      <!-- 0.5 -->
      <g transform="translate(59.61704 146.31892)scale(0.1 -0.1)">
       <use xlink:href="#DejaVuSans-48"/>
       <use x="63.623047" xlink:href="#DejaVuSans-46"/>
       <use x="95.410156" xlink:href="#DejaVuSans-53"/>
      </g>
     </g>
    </g>
    <g id="ytick_7">
     <g id="line2d_12">
      <g>
       <use style="stroke:#000000;stroke-width:0.8;" x="82.520165" xlink:href="#m202a37bab4" y="110.511402"/>
      </g>
     </g>
     <g id="text_12">
      <!-- 1.0 -->
      <g transform="translate(59.61704 114.310621)scale(0.1 -0.1)">
       <use xlink:href="#DejaVuSans-49"/>
       <use x="63.623047" xlink:href="#DejaVuSans-46"/>
       <use x="95.410156" xlink:href="#DejaVuSans-48"/>
      </g>
     </g>
    </g>
    <g id="ytick_8">
     <g id="line2d_13">
      <g>
       <use style="stroke:#000000;stroke-width:0.8;" x="82.520165" xlink:href="#m202a37bab4" y="78.503103"/>
      </g>
     </g>
     <g id="text_13">
      <!-- 1.5 -->
      <g transform="translate(59.61704 82.302322)scale(0.1 -0.1)">
       <use xlink:href="#DejaVuSans-49"/>
       <use x="63.623047" xlink:href="#DejaVuSans-46"/>
       <use x="95.410156" xlink:href="#DejaVuSans-53"/>
      </g>
     </g>
    </g>
    <g id="ytick_9">
     <g id="line2d_14">
      <g>
       <use style="stroke:#000000;stroke-width:0.8;" x="82.520165" xlink:href="#m202a37bab4" y="46.494804"/>
      </g>
     </g>
     <g id="text_14">
      <!-- 2.0 -->
      <g transform="translate(59.61704 50.294023)scale(0.1 -0.1)">
       <use xlink:href="#DejaVuSans-50"/>
       <use x="63.623047" xlink:href="#DejaVuSans-46"/>
       <use x="95.410156" xlink:href="#DejaVuSans-48"/>
      </g>
     </g>
    </g>
   </g>
   <g id="line2d_15">
    <path clip-path="url(#p2174081b72)" d="M 300.176598 63.648 
L 172.143402 63.648 
" style="fill:none;stroke:#009900;stroke-linecap:square;stroke-width:2;"/>
   </g>
   <g id="line2d_16">
    <path clip-path="url(#p2174081b72)" d="M 172.143402 63.648 
L 108.126804 174.528 
" style="fill:none;stroke:#009900;stroke-linecap:square;stroke-width:2;"/>
   </g>
   <g id="line2d_17">
    <path clip-path="url(#p2174081b72)" d="M 108.126804 174.528 
L 172.143402 285.408 
" style="fill:none;stroke:#009900;stroke-linecap:square;stroke-width:2;"/>
   </g>
   <g id="line2d_18">
    <path clip-path="url(#p2174081b72)" d="M 172.143402 285.408 
L 300.176598 285.408 
" style="fill:none;stroke:#009900;stroke-linecap:square;stroke-width:2;"/>
   </g>
   <g id="line2d_19">
    <path clip-path="url(#p2174081b72)" d="M 300.176598 285.408 
L 364.193196 174.528 
" style="fill:none;stroke:#009900;stroke-linecap:square;stroke-width:2;"/>
   </g>
   <g id="line2d_20">
    <path clip-path="url(#p2174081b72)" d="M 364.193196 174.528 
L 300.176598 63.648 
" style="fill:none;stroke:#009900;stroke-linecap:square;stroke-width:2;"/>
   </g>
   <g id="line2d_21">
    <path clip-path="url(#p2174081b72)" d="M 155.649716 157.475652 
L 152.475567 153.457035 
L 149.143256 149.568564 
L 145.658113 145.816461 
L 142.025713 142.206728 
L 138.251868 138.745139 
L 134.342615 135.437233 
L 131.840082 133.455399 
L 136.614772 135.306571 
L 141.45967 136.965325 
L 146.367025 138.429009 
L 151.328986 139.695279 
L 156.337615 140.762112 
L 161.384901 141.627799 
L 166.462767 142.290957 
L 171.56309 142.750523 
L 176.677712 143.005763 
L 181.798449 143.056269 
L 186.91711 142.901959 
L 192.025506 142.543081 
L 196.561015 142.051543 
L 196.094474 136.951853 
L 195.424374 131.874898 
L 194.551785 126.828802 
L 193.478104 121.821635 
L 192.205049 116.86141 
L 190.734656 111.956062 
L 189.069278 107.113437 
L 187.211578 102.341283 
L 185.164529 97.647234 
L 182.931406 93.0388 
L 180.51578 88.523354 
L 177.921517 84.108119 
L 175.152767 79.800158 
L 172.21396 75.606364 
L 169.109796 71.533445 
L 168.225973 70.433186 
L 173.297813 71.14096 
L 178.393899 71.645348 
L 183.506079 71.945543 
L 188.626174 72.041065 
L 193.745994 71.931762 
L 198.857348 71.617808 
L 203.952058 71.099706 
L 209.021974 70.378284 
L 214.058986 69.454696 
L 219.055035 68.330421 
L 224.002129 67.007256 
L 228.892353 65.487318 
L 234.047357 63.648 
L 238.868152 65.375554 
L 243.754174 66.908946 
L 248.697607 68.245722 
L 253.690543 69.383745 
L 258.724993 70.321193 
L 263.792905 71.056567 
L 268.88617 71.58869 
L 273.99664 71.916711 
L 279.116139 72.040106 
L 284.236478 71.958677 
L 289.349465 71.672554 
L 294.44692 71.182194 
L 299.520689 70.488383 
L 303.705009 69.759388 
L 300.434754 73.700192 
L 297.324705 77.768618 
L 294.379837 81.95816 
L 291.604862 86.262113 
L 289.004219 90.673593 
L 286.582068 95.185542 
L 284.342284 99.790743 
L 282.288451 104.481827 
L 280.423854 109.25129 
L 278.751477 114.091503 
L 277.273993 118.99472 
L 275.993768 123.9531 
L 274.91285 128.958708 
L 274.032967 134.003538 
L 273.330944 139.298455 
L 278.436623 138.9028 
L 283.522396 138.303289 
L 288.580127 137.500881 
L 293.601725 136.496859 
L 298.579155 135.29283 
L 303.504456 133.89072 
L 308.369748 132.292772 
L 313.167247 130.501543 
L 317.889279 128.519897 
L 322.528288 126.351006 
L 327.076855 123.998338 
L 331.527702 121.465659 
L 333.032039 120.555293 
L 330.23646 122.113983 
L 325.847111 124.751808 
L 321.566758 127.56305 
L 317.402248 130.543211 
L 313.360245 133.687525 
L 309.447213 136.990961 
L 305.669414 140.448233 
L 302.032891 144.053812 
L 298.543461 147.801929 
L 295.206707 151.686588 
L 292.027967 155.701575 
L 289.012327 159.840465 
L 286.266399 163.937974 
L 290.596777 166.671531 
L 295.033004 169.229731 
L 299.567984 171.608484 
L 304.19446 173.803983 
L 308.905033 175.812716 
L 313.692165 177.63147 
L 318.548199 179.257334 
L 323.465366 180.687709 
L 328.435799 181.920305 
L 333.451548 182.953151 
L 338.504587 183.784594 
L 343.586833 184.413305 
L 348.690155 184.838277 
L 353.80639 185.05883 
L 358.097553 185.085963 
L 355.494764 180.675749 
L 352.717695 176.373146 
L 349.770789 172.185038 
L 346.658761 168.118125 
L 343.386589 164.178913 
L 339.959507 160.373704 
L 336.383 156.708585 
L 332.662787 153.18942 
L 328.804821 149.821839 
L 324.815274 146.611229 
L 320.700528 143.562727 
L 316.467166 140.681209 
L 312.12196 137.971285 
L 307.671862 135.437291 
L 303.12399 133.083281 
L 298.485621 130.913019 
L 293.764175 128.929979 
L 288.967205 127.137332 
L 284.102385 125.537948 
L 279.177499 124.134383 
L 274.200424 122.928884 
L 269.179123 121.923379 
L 264.121629 121.119477 
L 259.036034 120.518464 
L 253.930472 120.121301 
L 248.813111 119.928624 
L 243.692139 119.94074 
L 238.575748 120.157632 
L 233.472122 120.578951 
L 228.389428 121.204023 
L 223.335795 122.031849 
L 218.319308 123.061105 
L 213.347994 124.290143 
L 208.429804 125.716997 
L 203.572608 127.339385 
L 198.784175 129.154712 
L 194.072166 131.160073 
L 189.444119 133.352259 
L 184.907438 135.727765 
L 180.46938 138.28279 
L 176.137047 141.013245 
L 171.917368 143.914764 
L 167.817094 146.982704 
L 163.842785 150.212157 
L 160.000798 153.597957 
L 156.297281 157.134687 
L 152.738157 160.81669 
L 149.329121 164.638074 
L 146.075627 168.592726 
L 142.982879 172.674321 
L 140.055825 176.876327 
L 137.299148 181.192023 
L 134.717258 185.614505 
L 132.314285 190.136697 
L 130.094074 194.751365 
L 128.060176 199.451127 
L 126.215845 204.228464 
L 125.855172 205.234433 
L 130.90785 206.068067 
L 135.989823 206.69898 
L 141.092961 207.126164 
L 146.209099 207.348936 
L 151.330054 207.366938 
L 156.447632 207.180143 
L 161.553648 206.788848 
L 166.639931 206.19368 
L 171.698345 205.395591 
L 176.720798 204.395858 
L 181.699255 203.19608 
L 186.625752 201.798176 
L 191.788295 200.100479 
L 187.961098 203.502987 
L 184.273027 207.055822 
L 180.729981 210.753297 
L 177.337629 214.5895 
L 174.101397 218.558291 
L 171.026463 222.653323 
L 168.117747 226.868044 
L 165.379901 231.195711 
L 162.817306 235.629401 
L 160.434061 240.162021 
L 158.233978 244.78632 
L 156.220578 249.494899 
L 154.310966 254.521314 
L 159.365293 255.344892 
L 164.448511 255.965692 
L 169.552489 256.38272 
L 174.669061 256.59531 
L 179.790041 256.603122 
L 184.907238 256.406143 
L 190.012464 256.004689 
L 195.097553 255.3994 
L 200.154369 254.591247 
L 205.174823 253.581522 
L 210.150883 252.371839 
L 215.074588 250.964135 
L 219.938061 249.360661 
L 224.733522 247.563983 
L 229.4533 245.576974 
L 234.089843 243.402814 
L 238.635734 241.044981 
L 243.083701 238.507247 
L 247.426627 235.793672 
L 251.657566 232.908596 
L 255.769747 229.856636 
L 259.756594 226.642673 
L 263.611728 223.27185 
L 267.328981 219.749559 
L 270.902406 216.081435 
L 274.326287 212.273347 
L 277.595147 208.331385 
L 280.703755 204.261858 
L 283.647139 200.071274 
L 286.42059 195.766338 
L 289.019671 191.353938 
L 291.440224 186.841131 
L 293.678377 182.235138 
L 295.730549 177.543326 
L 297.593457 172.773203 
L 299.264121 167.932399 
L 300.739868 163.028658 
L 302.018337 158.069826 
L 303.097483 153.063835 
L 303.975579 148.018694 
L 304.651222 142.942474 
L 305.123329 137.843296 
L 305.391146 132.729318 
L 305.454244 127.60872 
L 305.312523 122.489695 
L 304.966208 117.380432 
L 304.415854 112.289105 
L 303.662342 107.223858 
L 302.706877 102.192796 
L 301.550987 97.203966 
L 300.196522 92.265351 
L 298.645648 87.384849 
L 296.900847 82.570271 
L 294.964909 77.829316 
L 292.840933 73.169571 
L 290.532315 68.598489 
L 288.04275 64.123384 
L 287.764323 63.648 
L 285.255524 68.112351 
L 282.927259 72.673457 
L 280.783252 77.324019 
L 278.826932 82.0566 
L 277.06143 86.863626 
L 275.48957 91.737409 
L 274.113867 96.670151 
L 272.936521 101.653961 
L 271.959416 106.680865 
L 271.184116 111.742822 
L 270.61186 116.831734 
L 270.243563 121.93946 
L 270.079816 127.057827 
L 270.12088 132.178649 
L 270.30649 136.359727 
L 275.414789 135.999473 
L 280.504596 135.435229 
L 285.567768 134.667899 
L 290.596204 133.698709 
L 295.581861 132.529211 
L 300.516763 131.161276 
L 305.393014 129.597091 
L 310.202814 127.839159 
L 314.938469 125.890293 
L 319.592401 123.75361 
L 324.157166 121.432528 
L 328.625462 118.930762 
L 331.1991 117.38055 
L 328.956036 118.61564 
L 324.546243 121.219142 
L 320.244089 123.996906 
L 316.056457 126.944488 
L 311.990047 130.057173 
L 308.051363 133.329982 
L 304.246708 136.757678 
L 300.582167 140.334777 
L 297.063603 144.055558 
L 293.696646 147.914068 
L 290.48668 151.904134 
L 287.438843 156.019372 
L 285.097744 159.43174 
L 289.877323 161.270251 
L 294.726601 162.916159 
L 299.637817 164.366832 
L 304.603117 165.619947 
L 309.614557 166.673502 
L 314.664118 167.525809 
L 319.743724 168.175506 
L 324.845248 168.621554 
L 329.960528 168.863238 
L 335.081381 168.900172 
L 340.199615 168.732297 
L 345.307042 168.359881 
L 350.395491 167.783521 
L 355.456821 167.004138 
L 359.41347 166.249273 
L 356.083802 170.140007 
L 352.912385 174.16078 
L 349.904293 178.305159 
L 347.064337 182.566515 
L 344.397063 186.938031 
L 341.906736 191.412712 
L 339.59734 195.983401 
L 337.47257 200.642784 
L 335.535826 205.383409 
L 333.790205 210.197691 
L 332.238501 215.077928 
L 330.883195 220.016313 
L 329.726456 225.004946 
L 328.770134 230.035846 
L 328.01576 235.100964 
L 327.705825 237.72598 
L 323.631577 240.828399 
L 319.684651 244.091263 
L 315.871363 247.509352 
L 312.197811 251.077197 
L 308.669874 254.789092 
L 305.293195 258.639097 
L 302.073177 262.621054 
L 299.014969 266.728592 
L 296.123466 270.955141 
L 293.403292 275.293937 
L 290.8588 279.738042 
L 288.49406 284.280343 
L 287.942241 285.408 
L 285.622153 280.842729 
L 283.12136 276.373889 
L 280.443861 272.008628 
L 277.593939 267.753931 
L 274.576155 263.616603 
L 271.395336 259.603264 
L 268.05657 255.720334 
L 264.565199 251.974025 
L 260.926809 248.37033 
L 257.147219 244.915015 
L 253.232477 241.613607 
L 249.188846 238.471387 
L 245.022793 235.493383 
L 240.740984 232.684359 
L 236.35027 230.048808 
L 231.857673 227.590947 
L 227.270382 225.314709 
L 225.996844 224.722722 
L 220.882281 224.979128 
L 215.782062 225.439857 
L 210.704347 226.104172 
L 205.65726 226.971009 
L 200.648873 228.038983 
L 195.687201 229.306385 
L 190.78018 230.771187 
L 185.93566 232.431046 
L 181.161392 234.283306 
L 176.465014 236.325004 
L 171.854038 238.552875 
L 167.335842 240.963353 
L 162.917653 243.552582 
L 158.60654 246.316421 
L 154.409399 249.250448 
L 152.213374 250.888179 
L 156.898206 248.820123 
L 161.496589 246.566376 
L 166.001169 244.130547 
L 170.404738 241.516531 
L 174.700252 238.72851 
L 178.880838 235.770944 
L 182.93981 232.648565 
L 186.870673 229.366368 
L 190.667139 225.929604 
L 194.323135 222.343771 
L 197.832811 218.614605 
L 201.190552 214.748073 
L 202.512255 213.136666 
L 201.639639 214.073564 
L 198.244157 217.906997 
L 195.004688 221.873146 
L 191.926413 225.965667 
L 189.014258 230.178013 
L 186.272882 234.503444 
L 183.706669 238.935041 
L 181.319726 243.465715 
L 179.11587 248.088217 
L 177.098628 252.795152 
L 175.271227 257.57899 
L 173.636591 262.432078 
L 172.197333 267.346652 
L 170.955757 272.31485 
L 169.91385 277.328724 
L 169.350548 280.570635 
L 174.170802 282.299696 
L 179.056345 283.834615 
L 183.99936 285.172937 
L 184.957597 285.408 
L 189.910779 284.107809 
L 194.808004 282.610585 
L 199.64144 280.91872 
L 204.403352 279.034924 
L 209.086124 276.962208 
L 213.682264 274.70389 
L 218.184418 272.263581 
L 222.585385 269.645186 
L 226.878124 266.852894 
L 231.055767 263.891172 
L 235.111631 260.764757 
L 239.039228 257.478652 
L 242.832274 254.038114 
L 246.484701 250.448646 
L 249.990666 246.715991 
L 253.34456 242.846121 
L 256.541018 238.845226 
L 259.574926 234.719708 
L 262.441431 230.476165 
L 265.135946 226.121387 
L 267.654161 221.662341 
L 269.992048 217.10616 
L 272.145865 212.460132 
L 273.270644 209.821059 
L 277.855031 207.538979 
L 282.344493 205.075397 
L 286.731847 202.434255 
L 291.010074 199.619779 
L 295.172329 196.636471 
L 299.211955 193.489103 
L 303.122489 190.18271 
L 306.897674 186.722583 
L 310.531471 183.114257 
L 314.018066 179.363503 
L 317.351883 175.476323 
L 320.527588 171.458936 
L 323.540099 167.317767 
L 326.384598 163.059443 
L 329.056535 158.690775 
L 331.551634 154.218753 
L 333.865904 149.65053 
L 335.995642 144.993416 
L 337.937442 140.25486 
L 339.688197 135.442443 
L 340.395477 133.309143 
L 335.368824 132.330748 
L 330.307066 131.554148 
L 325.218301 130.980585 
L 320.11067 130.610978 
L 314.992345 130.445917 
L 309.871512 130.485666 
L 304.756366 130.730163 
L 299.655088 131.179015 
L 294.57584 131.831505 
L 289.526748 132.686588 
L 284.515889 133.742898 
L 279.551279 134.998743 
L 274.64086 136.452116 
L 271.525608 137.486488 
L 272.877305 132.547114 
L 274.030399 127.557637 
L 274.983045 122.52604 
L 275.733718 117.460372 
L 276.281218 112.368737 
L 276.62467 107.259281 
L 276.763522 102.140178 
L 276.697554 97.019616 
L 276.426871 91.905788 
L 275.951906 86.806876 
L 275.273419 81.731035 
L 274.392495 76.686387 
L 273.310544 71.681002 
L 272.029296 66.722887 
L 271.127104 63.648 
L 269.722171 68.572497 
L 268.51529 73.549236 
L 267.508391 78.570258 
L 266.703084 83.627528 
L 266.100658 88.712957 
L 265.702078 93.818408 
L 265.507979 98.935715 
L 265.518674 104.05669 
L 265.734144 109.173142 
L 266.154046 114.276884 
L 266.777707 119.359752 
L 267.604129 124.413615 
L 268.631991 129.430387 
L 269.859648 134.402042 
L 270.43429 136.474447 
L 275.494297 137.262379 
L 280.581764 137.847335 
L 285.688555 138.228378 
L 290.806498 138.4049 
L 295.927406 138.376617 
L 301.043087 138.143575 
L 306.145357 137.706147 
L 311.226053 137.065032 
L 316.277048 136.221257 
L 321.29026 135.17617 
L 326.25767 133.931445 
L 331.17133 132.489071 
L 336.023381 130.851358 
L 338.455 129.948137 
L 334.542923 133.252703 
L 330.766123 136.711067 
L 327.130641 140.317697 
L 323.642295 144.066822 
L 320.306663 147.952445 
L 317.129083 151.968349 
L 314.114639 156.108111 
L 311.268151 160.365106 
L 308.594176 164.732526 
L 306.096989 169.203383 
L 303.780586 173.770524 
L 301.648673 178.426644 
L 299.704661 183.164293 
L 297.951658 187.975892 
L 296.392471 192.853743 
L 295.029593 197.790044 
L 293.865205 202.776897 
L 292.901169 207.806324 
L 292.139027 212.870279 
L 291.579999 217.960661 
L 291.22498 223.069327 
L 291.074536 228.188103 
L 291.12891 233.3088 
L 291.388013 238.423228 
L 291.851431 243.523203 
L 292.518423 248.600567 
L 293.387923 253.647197 
L 294.458538 258.655019 
L 295.728556 263.616022 
L 297.195945 268.52227 
L 298.858359 273.365914 
L 300.713136 278.139205 
L 302.275414 281.772745 
L 297.192545 282.396403 
L 292.138682 283.222823 
L 287.12191 284.250683 
L 282.413575 285.408 
L 277.439316 284.190931 
L 272.420367 283.173754 
L 267.364756 282.358094 
L 262.280572 281.745257 
L 257.175947 281.336224 
L 252.059048 281.131648 
L 246.938062 281.131857 
L 241.82118 281.336851 
L 236.716589 281.746302 
L 231.632454 282.359554 
L 226.57691 283.175627 
L 221.558044 284.193215 
L 216.594 285.408 
L 211.619742 284.190931 
L 206.600792 283.173754 
L 201.545182 282.358094 
L 196.460997 281.745257 
L 191.356372 281.336224 
L 186.239474 281.131648 
L 181.118487 281.131857 
L 176.001606 281.336851 
L 170.897014 281.746302 
L 170.078301 281.83114 
L 173.012235 277.633935 
L 175.775978 273.32276 
L 178.36511 268.904514 
L 180.775488 264.386265 
L 183.003256 259.77524 
L 185.044851 255.078816 
L 186.897005 250.304507 
L 188.556757 245.459951 
L 190.02145 240.552897 
L 191.288742 235.591196 
L 192.356605 230.582786 
L 193.223331 225.53568 
L 193.887533 220.45795 
L 194.348149 215.357721 
L 194.604442 210.243152 
L 194.656001 205.122425 
L 194.648621 204.521421 
L 189.778087 202.939523 
L 184.84819 201.55366 
L 179.866816 200.366049 
L 174.841936 199.37859 
L 169.781586 198.592863 
L 164.693864 198.010123 
L 159.586908 197.631305 
L 154.468889 197.457013 
L 149.347993 197.487527 
L 144.232414 197.722798 
L 139.130335 198.162449 
L 134.049919 198.805778 
L 128.999293 199.651754 
L 123.986536 200.699024 
L 123.325459 200.852842 
L 126.75899 197.053451 
L 130.037839 193.119795 
L 133.156761 189.058167 
L 136.110767 184.875064 
L 138.89513 180.577178 
L 141.505396 176.171385 
L 143.93739 171.664733 
L 146.187221 167.064433 
L 148.251289 162.377843 
L 150.126292 157.612461 
L 151.809231 152.775911 
L 153.297413 147.875929 
L 154.588458 142.920356 
L 155.6803 137.917119 
L 156.571193 132.874222 
L 157.259711 127.799732 
L 157.744753 122.701768 
L 158.025543 117.588486 
L 158.101631 112.468065 
L 157.972896 107.348697 
L 157.639544 102.238572 
L 157.102109 97.145865 
L 156.361449 92.078723 
L 156.217497 91.232477 
L 160.988679 89.372283 
L 165.681657 87.322781 
L 170.288923 85.087248 
L 174.803106 82.669263 
L 179.216984 80.072692 
L 183.523497 77.301691 
L 187.715754 74.360691 
L 191.78705 71.254398 
L 195.73087 67.987782 
L 199.540906 64.566068 
L 200.512706 63.648 
L 204.286807 67.10931 
L 208.196304 70.416928 
L 212.234943 73.565562 
L 216.396263 76.550175 
L 220.673608 79.365992 
L 225.060134 82.008509 
L 229.548823 84.473497 
L 234.132495 86.757014 
L 238.803817 88.855407 
L 243.555316 90.765318 
L 248.379391 92.483692 
L 253.268323 94.00778 
L 258.214292 95.335144 
L 263.209384 96.46366 
L 268.24561 97.391522 
L 273.314913 98.117248 
L 278.409181 98.639674 
L 283.520266 98.957967 
L 288.639992 99.071616 
L 293.760166 98.98044 
L 298.872599 98.684584 
L 303.969112 98.184522 
L 309.04155 97.481054 
L 314.081801 96.575305 
L 318.613324 95.581346 
L 315.169236 99.371169 
L 311.879455 103.295688 
L 308.749244 107.348623 
L 305.783612 111.523491 
L 302.987302 115.813614 
L 300.364788 120.212127 
L 297.920265 124.711995 
L 295.657644 129.306018 
L 293.580545 133.986848 
L 291.692291 138.746994 
L 289.995902 143.578844 
L 288.494093 148.474665 
L 287.189265 153.426627 
L 286.083507 158.426807 
L 285.579201 161.091392 
L 288.984319 164.916268 
L 292.539667 168.601916 
L 296.239557 172.14244 
L 300.078072 175.532176 
L 304.049069 178.7657 
L 308.146197 181.837841 
L 312.3629 184.743683 
L 316.692433 187.478577 
L 321.127869 190.038149 
L 325.662113 192.418303 
L 330.287911 194.615232 
L 334.997862 196.625421 
L 339.784432 198.445654 
L 344.639963 200.07302 
L 348.745939 201.283434 
L 345.024348 197.765726 
L 341.165064 194.399657 
L 337.174259 191.19061 
L 333.058319 188.14372 
L 328.823829 185.26386 
L 324.477561 182.555639 
L 320.026471 180.023388 
L 315.477678 177.671159 
L 310.838459 175.502714 
L 306.116236 173.521524 
L 301.318564 171.730757 
L 296.453119 170.133277 
L 291.527683 168.731642 
L 286.903413 167.606594 
L 291.369734 165.101302 
L 295.732296 162.41941 
L 299.984122 159.565206 
L 304.11841 156.543258 
L 308.128544 153.3584 
L 312.008111 150.015727 
L 315.750903 146.520586 
L 319.350933 142.878569 
L 322.802441 139.095502 
L 326.099907 135.177439 
L 329.238054 131.130645 
L 332.211862 126.961597 
L 334.620084 123.305868 
L 329.508876 123.622187 
L 324.414407 124.142647 
L 319.344825 124.866416 
L 314.308241 125.792334 
L 309.312712 126.918921 
L 304.366232 128.244375 
L 299.476711 129.766576 
L 294.651974 131.483087 
L 289.899738 133.391164 
L 285.227606 135.487753 
L 280.643053 137.7695 
L 276.153412 140.232755 
L 274.860674 140.98612 
L 277.984521 136.928278 
L 280.943598 132.748761 
L 283.733172 128.454255 
L 286.348781 124.051632 
L 288.786239 119.547933 
L 291.041648 114.950365 
L 293.111399 110.266282 
L 294.992181 105.503178 
L 296.680985 100.668673 
L 298.17511 95.7705 
L 299.472165 90.816497 
L 300.570075 85.814588 
L 301.467084 80.772775 
L 302.161757 75.699124 
L 302.652982 70.601752 
L 302.812565 68.213629 
L 298.193004 66.003616 
L 293.488761 63.980104 
L 292.66387 63.648 
L 287.945686 65.638791 
L 283.310887 67.816666 
L 278.766887 70.178142 
L 274.320956 72.71944 
L 269.980206 75.436496 
L 265.751581 78.324961 
L 261.641847 81.380217 
L 257.657577 84.597373 
L 253.805147 87.971285 
L 250.090718 91.496554 
L 246.520234 95.167541 
L 243.099406 98.978373 
L 239.833707 102.922953 
L 236.728362 106.994971 
L 233.788337 111.187912 
L 231.018337 115.49507 
L 228.422794 119.909552 
L 226.058691 124.320795 
L 222.080892 121.095641 
L 217.977303 118.032137 
L 213.754489 115.135183 
L 209.419205 112.409414 
L 204.978387 109.859191 
L 200.43914 107.488592 
L 195.808725 105.301412 
L 191.09455 103.301148 
L 186.304157 101.491 
L 181.445209 99.873865 
L 176.525479 98.45233 
L 171.552839 97.228669 
L 166.535242 96.204839 
L 161.480717 95.382479 
L 156.397349 94.762903 
L 154.29258 94.566531 
L 157.302845 98.709333 
L 160.476369 102.728443 
L 163.808077 106.617431 
L 167.292637 110.370075 
L 170.924476 113.980372 
L 174.697784 117.442547 
L 178.606523 120.75106 
L 182.644441 123.900619 
L 186.805077 126.886185 
L 191.081777 129.702982 
L 195.467697 132.346503 
L 199.955822 134.81252 
L 202.369522 136.044193 
L 200.60602 131.236432 
L 198.651669 126.503038 
L 196.509596 121.851584 
L 194.183229 117.28951 
L 191.676288 112.824116 
L 188.992784 108.462544 
L 186.13701 104.211773 
L 183.113535 100.078602 
L 179.927196 96.069644 
L 176.583089 92.191312 
L 173.086566 88.449811 
L 169.44322 84.851127 
L 165.658879 81.401016 
L 163.136189 79.248951 
L 167.974407 80.927089 
L 172.875863 82.410406 
L 177.832715 83.696531 
L 182.837034 84.783407 
L 187.880813 85.669293 
L 192.955983 86.352774 
L 198.054426 86.832755 
L 203.167985 87.108469 
L 208.288479 87.179474 
L 213.407717 87.045658 
L 218.517509 86.707233 
L 223.60968 86.164742 
L 228.676084 85.419053 
L 233.708615 84.471358 
L 238.699224 83.323173 
L 243.639925 81.976336 
L 248.522816 80.433001 
L 253.340083 78.695636 
L 258.084022 76.767022 
L 262.747041 74.650244 
L 267.321682 72.348688 
L 271.800627 69.866036 
L 276.176708 67.20626 
L 280.442927 64.373615 
L 281.478755 63.648 
L 285.716786 66.522648 
L 290.066381 69.22552 
L 294.520584 71.752292 
L 299.072268 74.098923 
L 303.714151 76.261659 
L 308.646891 78.318979 
L 307.986421 83.397195 
L 307.529553 88.497761 
L 307.277019 93.612517 
L 307.229222 98.73328 
L 307.38624 103.851859 
L 307.74782 108.960064 
L 308.313385 114.049724 
L 309.08203 119.112696 
L 310.052525 124.140881 
L 311.223317 129.126234 
L 312.592534 134.06078 
L 314.157985 138.936625 
L 315.917165 143.745969 
L 317.867261 148.481117 
L 320.005152 153.134495 
L 322.327419 157.698657 
L 324.830346 162.166303 
L 327.509929 166.530285 
L 330.361881 170.783621 
L 333.38164 174.919508 
L 336.564375 178.931328 
L 339.904994 182.812663 
L 343.398153 186.557305 
L 347.038264 190.159262 
L 350.819503 193.612773 
L 352.391366 194.969368 
L 347.535662 193.342518 
L 342.618786 191.911146 
L 337.648603 190.677541 
L 332.633064 189.643677 
L 327.580194 188.811208 
L 322.498075 188.181466 
L 317.394839 187.755459 
L 312.278649 187.533867 
L 307.157691 187.517045 
L 302.040155 187.705021 
L 296.934231 188.097493 
L 291.848085 188.693833 
L 286.789854 189.493088 
L 285.037356 189.81865 
L 288.688646 193.409274 
L 292.480603 196.851013 
L 296.407159 200.138361 
L 300.462033 203.266059 
L 304.638739 206.229104 
L 308.930593 209.022755 
L 313.330731 211.642543 
L 317.832113 214.084276 
L 322.427538 216.34405 
L 327.109653 218.418247 
L 331.870969 220.303551 
L 336.773761 222.019854 
L 332.892708 218.678907 
L 328.881156 215.495833 
L 324.745525 212.475725 
L 320.492429 209.623413 
L 316.128674 206.943462 
L 311.661239 204.440158 
L 307.097273 202.117506 
L 302.444076 199.979222 
L 297.709092 198.028726 
L 292.899897 196.26914 
L 288.024184 194.703278 
L 283.729818 193.499354 
L 288.264882 195.877946 
L 292.891436 198.073281 
L 297.602079 200.081848 
L 302.389276 201.900433 
L 307.245368 203.526126 
L 312.162585 204.956326 
L 317.133062 206.188747 
L 322.148847 207.221415 
L 327.201915 208.05268 
L 332.284184 208.681211 
L 337.387521 209.106003 
L 342.503764 209.326375 
L 344.086929 209.353075 
L 341.391602 204.9988 
L 338.524306 200.755792 
L 335.489628 196.630839 
L 332.292424 192.630541 
L 328.937808 188.761296 
L 325.431147 185.029296 
L 321.778051 181.440509 
L 317.984363 178.000678 
L 314.056153 174.715306 
L 309.999706 171.589648 
L 305.821511 168.628705 
L 301.528251 165.837214 
L 297.126796 163.21964 
L 292.624186 160.780171 
L 288.027625 158.52271 
L 284.213926 156.818679 
L 286.398546 152.187056 
L 288.396204 147.471775 
L 290.203702 142.680382 
L 291.81815 137.82054 
L 293.236964 132.900026 
L 294.457876 127.926709 
L 295.478931 122.908547 
L 296.298497 117.853568 
L 296.915262 112.769859 
L 297.328239 107.665551 
L 297.536769 102.548812 
L 297.540516 97.427827 
L 297.339476 92.310789 
L 296.933969 87.205883 
L 296.324645 82.121276 
L 295.512479 77.065103 
L 294.498769 72.045452 
L 293.285137 67.070354 
L 292.326363 63.648 
L 290.975107 68.587495 
L 289.822459 73.577074 
L 288.870262 78.608756 
L 288.120041 83.674491 
L 287.572996 88.766175 
L 287.230001 93.875662 
L 287.091606 98.994778 
L 287.158031 104.115334 
L 287.429171 109.229137 
L 287.904591 114.328007 
L 288.583532 119.403787 
L 289.464906 124.448356 
L 290.547305 129.453645 
L 291.828995 134.411646 
L 293.307928 139.314427 
L 294.981737 144.154144 
L 296.847744 148.923056 
L 298.902964 153.613533 
L 301.144109 158.218071 
L 303.567594 162.729304 
L 306.169541 167.140015 
L 308.945789 171.443148 
L 311.891895 175.631818 
L 315.003147 179.699325 
L 318.274567 183.639162 
L 321.700922 187.445025 
L 325.27673 191.110826 
L 328.99627 194.630701 
L 332.853593 197.999018 
L 336.842527 201.21039 
L 340.956691 204.259678 
L 345.31595 207.224349 
L 344.171883 206.64959 
L 339.539866 204.465806 
L 334.824225 202.469 
L 330.032505 200.662366 
L 325.172372 199.048795 
L 320.251602 197.630868 
L 315.278065 196.410854 
L 310.259719 195.390704 
L 305.204592 194.572051 
L 300.120771 193.956203 
L 295.01639 193.544147 
L 289.899613 193.336541 
L 284.778628 193.333718 
L 283.786397 193.356865 
L 287.497656 196.885472 
L 291.347052 200.262845 
L 295.328428 203.483582 
L 299.435415 206.54253 
L 303.661441 209.434795 
L 307.999748 212.155751 
L 312.443393 214.701045 
L 316.985268 217.066604 
L 321.618108 219.248644 
L 326.3345 221.243675 
L 331.126899 223.048505 
L 335.362126 224.464877 
L 331.518577 221.080851 
L 327.542777 217.853234 
L 323.441087 214.787187 
L 319.220069 211.887617 
L 314.886475 209.159162 
L 310.447238 206.606187 
L 305.909461 204.232776 
L 301.280402 202.042727 
L 296.567468 200.039542 
L 291.778197 198.226427 
L 286.920252 196.606281 
L 282.913733 195.429873 
L 287.275402 198.113219 
L 291.740888 200.619998 
L 296.303045 202.946201 
L 300.954577 205.088105 
L 305.688042 207.042284 
L 310.495866 208.805612 
L 315.370359 210.375267 
L 320.303723 211.74874 
L 325.288065 212.923832 
L 330.31541 213.898663 
L 335.377718 214.671674 
L 340.67618 215.260666 
L 337.64477 211.133311 
L 334.450735 207.130482 
L 331.099184 203.258582 
L 327.59548 199.523806 
L 323.945227 195.932127 
L 320.154264 192.489293 
L 316.228658 189.200811 
L 312.174687 186.071941 
L 307.998838 183.10769 
L 303.70779 180.3128 
L 299.308409 177.691741 
L 294.807733 175.248707 
L 290.212962 172.987606 
L 287.293298 171.666935 
L 291.674859 169.016194 
L 295.946914 166.192358 
L 300.102628 163.199944 
L 304.135353 160.04374 
L 308.038638 156.728794 
L 311.806239 153.260409 
L 315.432127 149.644136 
L 318.910503 145.885758 
L 322.235801 141.991288 
L 325.402702 137.966958 
L 328.40614 133.819203 
L 331.24131 129.554662 
L 333.903675 125.180155 
L 334.798867 123.61553 
L 329.67809 123.661862 
L 324.563262 123.912933 
L 319.462566 124.368342 
L 314.384161 125.027361 
L 309.336172 125.888934 
L 304.326675 126.951683 
L 299.363683 128.21391 
L 294.455137 129.673593 
L 289.608888 131.328398 
L 284.832691 133.175678 
L 280.134186 135.212477 
L 275.520889 137.435536 
L 272.869783 138.818173 
L 275.324983 134.324122 
L 277.598505 129.735484 
L 279.686712 125.0596 
L 281.586263 120.30395 
L 283.29412 115.476142 
L 284.807549 110.5839 
L 286.124131 105.63505 
L 287.241758 100.63751 
L 288.158643 95.599274 
L 288.873319 90.528402 
L 289.384642 85.433007 
L 289.691795 80.32124 
L 289.794286 75.201279 
L 289.691951 70.081316 
L 289.384954 64.96954 
L 289.272133 63.648 
L 288.912198 68.756322 
L 288.75683 73.874951 
L 288.806276 78.995698 
L 289.060458 84.110372 
L 289.51897 89.210791 
L 290.181077 94.288794 
L 291.04572 99.336258 
L 292.111516 104.345108 
L 293.376761 109.307332 
L 294.839429 114.214989 
L 296.497181 119.06023 
L 298.347365 123.835303 
L 300.387022 128.532568 
L 302.612887 133.144512 
L 305.0214 137.663756 
L 307.608709 142.08307 
L 310.370673 146.395385 
L 313.302875 150.5938 
L 316.400623 154.671601 
L 319.658961 158.622263 
L 323.072678 162.439467 
L 326.636311 166.117104 
L 330.344161 169.649293 
L 334.190294 173.030381 
L 338.168558 176.254961 
L 342.272589 179.317874 
L 346.495821 182.214219 
L 350.831497 184.939363 
L 355.272683 187.488946 
L 356.367824 188.081941 
L 354.728848 187.080942 
L 350.286754 184.532942 
L 345.746321 182.164616 
L 341.114811 179.979753 
L 336.399636 177.98185 
L 331.608337 176.174101 
L 326.74858 174.559399 
L 321.828139 173.140327 
L 316.854886 171.919155 
L 311.836778 170.897837 
L 306.781842 170.078007 
L 301.698165 169.460976 
L 296.593879 169.047731 
L 291.477151 168.838934 
L 287.054572 168.823403 
L 287.680408 168.688714 
L 292.661259 167.498913 
L 297.590546 166.110882 
L 302.460384 164.526843 
L 307.262982 162.74933 
L 311.990657 160.781185 
L 316.635845 158.625559 
L 321.191116 156.285898 
L 325.649181 153.765947 
L 330.00291 151.069737 
L 334.245336 148.20158 
L 338.369673 145.166066 
L 342.369323 141.968051 
L 344.398232 140.242116 
L 339.591082 142.007283 
L 334.858365 143.963272 
L 330.207652 146.106954 
L 325.646384 148.434901 
L 321.181858 150.943388 
L 316.821215 153.628402 
L 312.571433 156.485647 
L 308.439309 159.510552 
L 304.431454 162.698279 
L 300.554281 166.043728 
L 296.813991 169.541546 
L 293.216568 173.186138 
L 289.767767 176.971673 
L 287.061784 180.167885 
L 289.451386 184.697157 
L 292.020199 189.127247 
L 294.764114 193.451069 
L 297.678741 197.661704 
L 300.759417 201.752418 
L 304.001214 205.716665 
L 307.398945 209.548104 
L 310.947175 213.240605 
L 314.640228 216.788261 
L 318.472195 220.185397 
L 322.436946 223.426578 
L 326.528138 226.506618 
L 330.739227 229.42059 
L 332.017939 230.25718 
L 331.447568 229.966509 
L 326.833748 227.744536 
L 322.134764 225.708843 
L 317.358131 223.862689 
L 312.511494 222.209025 
L 307.602604 220.750498 
L 302.639315 219.48944 
L 297.629567 218.42787 
L 292.581375 217.567486 
L 287.502815 216.909664 
L 282.402012 216.455456 
L 277.287125 216.205589 
L 272.166337 216.160463 
L 267.047841 216.32015 
L 265.64857 216.399519 
L 263.721692 221.144163 
L 261.986091 225.962066 
L 260.444543 230.845521 
L 259.099515 235.786715 
L 257.953157 240.777744 
L 257.007304 245.810622 
L 256.263469 250.877299 
L 255.722842 255.969668 
L 255.386288 261.079583 
L 255.254345 266.198869 
L 255.327225 271.319337 
L 255.60481 276.432795 
L 256.086658 281.531062 
L 256.59155 285.408 
L 257.228837 280.326822 
L 257.662422 275.224224 
L 257.89161 270.108369 
L 257.916035 264.987441 
L 257.735659 259.869632 
L 257.350768 254.76313 
L 256.76198 249.676105 
L 255.970237 244.616693 
L 254.976804 239.59299 
L 253.783271 234.613032 
L 252.391547 229.684786 
L 250.80386 224.816137 
L 250.415415 223.717257 
L 250.556571 224.341666 
L 251.797835 229.309942 
L 253.236784 234.224607 
L 254.871115 239.077797 
L 256.698216 243.86175 
L 258.715162 248.568812 
L 260.918727 253.191452 
L 263.305386 257.722276 
L 265.87132 262.154034 
L 268.612425 266.479638 
L 271.524315 270.692166 
L 274.602333 274.784881 
L 277.841553 278.751234 
L 281.236794 282.58488 
L 283.920234 285.408 
L 287.430516 281.679405 
L 290.788886 277.813418 
L 293.989972 273.816225 
L 297.028652 269.69422 
L 299.900065 265.453998 
L 302.599618 261.102341 
L 305.122991 256.646211 
L 307.466149 252.092739 
L 309.625341 247.449207 
L 311.597115 242.723044 
L 313.378316 237.921813 
L 314.966094 233.053192 
L 316.357909 228.124972 
L 317.551534 223.145037 
L 318.54506 218.121352 
L 319.336898 213.061955 
L 319.92578 207.97494 
L 320.310765 202.868446 
L 320.491237 197.75064 
L 320.466906 192.629712 
L 320.237813 187.513852 
L 319.804323 182.411246 
L 319.16713 177.330057 
L 318.327254 172.278412 
L 317.286037 167.264395 
L 316.045146 162.296026 
L 314.606566 157.381254 
L 312.972597 152.52794 
L 311.145856 147.74385 
L 309.129262 143.036637 
L 306.926044 138.413832 
L 304.539725 133.882829 
L 301.974123 129.450879 
L 299.233343 125.12507 
L 296.321768 120.912323 
L 293.244058 116.819378 
L 290.005135 112.852782 
L 286.610181 109.018881 
L 283.064628 105.32381 
L 279.374148 101.773478 
L 275.544644 98.373566 
L 271.582243 95.129512 
L 267.493285 92.046508 
L 263.284309 89.129484 
L 258.962051 86.383108 
L 254.533424 83.811772 
L 250.005513 81.419592 
L 245.385563 79.210393 
L 240.680963 77.18771 
L 235.899242 75.354778 
L 231.048047 73.714531 
L 226.13514 72.269591 
L 221.168381 71.022272 
L 216.155715 69.974567 
L 211.105162 69.128154 
L 206.024802 68.484386 
L 200.922761 68.044293 
L 195.807202 67.808579 
L 190.686309 67.777622 
L 185.568275 67.95147 
L 180.461286 68.329847 
L 175.373513 68.912145 
L 170.313096 69.697435 
L 168.453955 70.038309 
L 170.23339 74.840196 
L 172.203425 79.567083 
L 174.360909 84.211409 
L 176.702392 88.765743 
L 179.224126 93.222801 
L 181.922077 97.57545 
L 184.79193 101.816729 
L 187.829094 105.939852 
L 191.028709 109.938222 
L 194.385657 113.805444 
L 197.894567 117.53533 
L 201.549826 121.121913 
L 205.345587 124.559457 
L 209.275776 127.842461 
L 211.543068 129.619131 
L 211.003965 124.5266 
L 210.261646 119.459701 
L 209.317299 114.42654 
L 208.172435 109.435169 
L 206.828885 104.493572 
L 205.288798 99.609656 
L 203.554639 94.791234 
L 201.629182 90.046014 
L 199.515506 85.381587 
L 197.216994 80.805416 
L 194.737322 76.324821 
L 192.080458 71.94697 
L 189.250652 67.678868 
L 186.343184 63.648 
L 183.34986 67.803059 
L 180.525089 72.074495 
L 177.873389 76.455476 
L 175.399003 80.938992 
L 173.105888 85.51787 
L 170.997714 90.184786 
L 169.077854 94.932274 
L 167.349378 99.752737 
L 165.815052 104.638466 
L 164.47733 109.581643 
L 163.338352 114.574361 
L 162.399941 119.608632 
L 161.663598 124.676403 
L 161.1305 129.769566 
L 160.801501 134.879973 
L 160.677127 139.999449 
L 160.757577 145.119804 
L 161.042723 150.232845 
L 161.532107 155.330394 
L 162.224947 160.404295 
L 163.120135 165.446432 
L 164.216239 170.448737 
L 165.511505 175.403209 
L 167.003861 180.30192 
L 168.690919 185.137035 
L 170.569981 189.900818 
L 172.63804 194.585648 
L 174.891788 199.184031 
L 177.32762 203.688609 
L 179.941639 208.092177 
L 182.729662 212.387689 
L 185.68723 216.568275 
L 188.809611 220.627245 
L 192.09181 224.558107 
L 195.528576 228.354571 
L 199.114411 232.010564 
L 202.843578 235.520238 
L 206.710112 238.877978 
L 210.707827 242.078412 
L 214.830328 245.11642 
L 219.071019 247.987141 
L 223.423116 250.685984 
L 227.879656 253.208631 
L 232.433511 255.551046 
L 237.077395 257.709481 
L 241.803879 259.680484 
L 246.605401 261.460902 
L 251.47428 263.047886 
L 256.402727 264.438897 
L 261.382858 265.63171 
L 266.406704 266.624417 
L 271.46623 267.41543 
L 276.553341 268.003482 
L 281.659898 268.387635 
L 286.777733 268.567272 
L 291.898658 268.542106 
L 297.01448 268.312179 
L 302.117015 267.877857 
L 307.1981 267.239835 
L 311.02241 266.622502 
L 309.178095 261.845159 
L 307.144211 257.145391 
L 304.924014 252.530716 
L 302.521056 248.008516 
L 299.939179 243.586026 
L 297.182516 239.270322 
L 294.255475 235.068306 
L 291.16274 230.986702 
L 287.909258 227.03204 
L 284.500234 223.210645 
L 280.941122 219.528631 
L 277.237615 215.99189 
L 273.395639 212.606078 
L 271.815605 211.290449 
L 275.018671 215.286056 
L 278.378957 219.150377 
L 281.891086 222.877233 
L 285.549441 226.460659 
L 289.348168 229.894924 
L 293.28119 233.174533 
L 297.342216 236.29424 
L 301.524748 239.249054 
L 305.822096 242.034247 
L 310.227385 244.645365 
L 314.733566 247.078229 
L 319.333432 249.328948 
L 320.656978 249.934941 
L 316.440636 247.028575 
L 312.111443 244.293142 
L 307.676325 241.73302 
L 303.142377 239.352302 
L 298.516852 237.154798 
L 293.807151 235.144024 
L 289.020807 233.323196 
L 284.165478 231.695227 
L 279.248931 230.262722 
L 274.279033 229.027972 
L 269.263732 227.992952 
L 264.211054 227.159319 
L 259.129081 226.528406 
L 254.025943 226.101223 
L 248.909804 225.878452 
L 243.78885 225.86045 
L 238.671271 226.047247 
L 233.565256 226.438542 
L 228.478973 227.033711 
L 223.420559 227.8318 
L 218.398106 228.831534 
L 213.419649 230.031313 
L 208.493153 231.429217 
L 203.626498 233.023011 
L 198.827472 234.810143 
L 194.10375 236.787756 
L 189.46289 238.952686 
L 184.912316 241.301469 
L 180.459309 243.830348 
L 176.110991 246.535276 
L 171.874321 249.411927 
L 167.756074 252.455699 
L 163.76284 255.661722 
L 159.901007 259.024868 
L 157.952514 260.828661 
L 162.829442 259.266588 
L 167.640003 257.510739 
L 172.376501 255.563923 
L 177.031358 253.429256 
L 181.597128 251.110151 
L 186.066507 248.610319 
L 190.432343 245.933759 
L 194.687654 243.084754 
L 198.825631 240.06786 
L 202.839654 236.887905 
L 206.723303 233.549974 
L 210.470363 230.05941 
L 214.074841 226.421795 
L 217.799104 222.336758 
L 217.821039 227.457698 
L 218.04774 232.573664 
L 218.478843 237.676472 
L 219.113659 242.757959 
L 219.951173 247.809996 
L 220.990045 252.824499 
L 222.228612 257.793448 
L 223.664893 262.708893 
L 225.296591 267.56297 
L 227.121095 272.347914 
L 229.135486 277.05607 
L 231.336542 281.679905 
L 233.280766 285.408 
L 235.632461 280.858931 
L 237.800361 276.219457 
L 239.780998 271.497002 
L 241.571202 266.69912 
L 243.16811 261.833487 
L 244.569167 256.907887 
L 245.772132 251.930199 
L 246.775081 246.908387 
L 247.576408 241.850484 
L 248.174832 236.764583 
L 248.569396 231.65882 
L 248.759468 226.541362 
L 248.778105 224.162497 
L 251.306774 228.615623 
L 254.011498 232.964068 
L 256.88795 237.200874 
L 259.931529 241.319264 
L 263.137364 245.312648 
L 266.500328 249.174639 
L 270.01504 252.899059 
L 273.675878 256.479948 
L 277.476985 259.911578 
L 281.41228 263.18846 
L 285.475468 266.305351 
L 289.660048 269.257264 
L 293.959325 272.039478 
L 298.366423 274.647541 
L 302.87429 277.077281 
L 304.509958 277.902399 
L 303.97612 277.549088 
L 299.643191 274.819578 
L 295.204576 272.265522 
L 290.667377 269.891007 
L 286.038852 267.69983 
L 281.326405 265.695498 
L 276.537576 263.881216 
L 271.680026 262.259888 
L 266.761525 260.834107 
L 261.789942 259.606154 
L 256.773231 258.577993 
L 251.719418 257.75127 
L 246.636587 257.127307 
L 241.53287 256.707102 
L 236.416431 256.491327 
L 231.295456 256.480328 
L 226.178138 256.674122 
L 221.072663 257.072399 
L 215.987199 257.674522 
L 210.92988 258.479528 
L 205.908799 259.486128 
L 200.931987 260.692713 
L 196.007407 262.097353 
L 191.142937 263.697799 
L 186.346358 265.491493 
L 181.625345 267.475563 
L 176.98745 269.646837 
L 172.440092 272.00184 
L 167.990547 274.536805 
L 166.417539 275.490514 
L 168.658557 274.251716 
L 173.064039 271.640926 
L 177.361594 268.856051 
L 181.544346 265.901548 
L 185.605603 262.782143 
L 189.538869 259.502826 
L 193.337852 256.068843 
L 196.996472 252.485689 
L 200.508878 248.759095 
L 203.869451 244.895022 
L 207.072814 240.899654 
L 210.113842 236.779381 
L 212.987671 232.540796 
L 215.689703 228.190678 
L 218.215615 223.735987 
L 218.770572 222.69861 
L 217.822316 227.731036 
L 217.076062 232.797357 
L 216.533004 237.889468 
L 216.19401 242.999221 
L 216.059623 248.118444 
L 216.130058 253.238946 
L 216.405202 258.352536 
L 216.884615 263.451032 
L 217.56753 268.526279 
L 218.452854 273.570157 
L 219.539171 278.574596 
L 220.824744 283.531592 
L 221.367123 285.408 
L 222.728166 280.471193 
L 223.890701 275.483908 
L 224.852867 270.454123 
L 225.613126 265.389884 
L 226.170262 260.299295 
L 226.523382 255.190498 
L 226.671923 250.071666 
L 226.615646 244.950989 
L 226.354642 239.836658 
L 225.889328 234.736856 
L 225.220448 229.65974 
L 224.29756 224.348502 
L 221.236867 228.454188 
L 218.342805 232.678985 
L 215.620006 237.016135 
L 213.072824 241.458698 
L 210.705335 245.999567 
L 208.521326 250.631479 
L 206.524291 255.347023 
L 204.717425 260.138655 
L 203.103619 264.998709 
L 201.685453 269.919411 
L 200.465198 274.892889 
L 199.444804 279.911185 
L 198.564171 285.408 
L 198.475084 284.774064 
L 197.64852 279.720224 
L 196.620519 274.703481 
L 195.392723 269.731859 
L 193.967098 264.813313 
L 192.345923 259.955712 
L 190.531793 255.166825 
L 188.52761 250.454315 
L 186.33658 245.82572 
L 183.962208 241.288446 
L 181.408293 236.84975 
L 178.67892 232.516735 
L 175.778456 228.296331 
L 172.71154 224.19529 
L 169.48308 220.220174 
L 166.098241 216.377341 
L 162.562436 212.67294 
L 158.881323 209.112897 
L 155.060791 205.702906 
L 151.106952 202.448424 
L 147.026131 199.354656 
L 142.824856 196.426552 
L 138.509849 193.668796 
L 134.088012 191.085801 
L 129.566421 188.681698 
L 124.952307 186.460334 
L 120.253054 184.425261 
L 115.476178 182.579737 
L 112.096929 181.404457 
L 113.028161 176.368853 
L 113.757279 171.300038 
L 114.283115 166.20612 
L 114.477246 163.528713 
L 118.687824 160.614004 
L 122.778477 157.533247 
L 126.74266 154.291373 
L 130.574032 150.893566 
L 134.266464 147.345263 
L 137.814048 143.652141 
L 141.211108 139.820107 
L 144.452211 135.855293 
L 147.532171 131.76404 
L 150.44606 127.552894 
L 153.189218 123.228593 
L 155.757256 118.798053 
L 158.146066 114.268363 
L 160.351825 109.646769 
L 162.371005 104.940665 
L 164.200377 100.15758 
L 165.837013 95.305166 
L 167.278294 90.391185 
L 168.521916 85.423499 
L 169.565889 80.410055 
L 170.408543 75.358873 
L 171.048529 70.278034 
L 171.512523 64.740714 
L 173.133525 63.648 
L 177.414892 66.457697 
L 181.805193 69.093937 
L 186.297403 71.552503 
L 190.884336 73.829463 
L 195.558655 75.921172 
L 200.31288 77.824286 
L 205.139407 79.535759 
L 210.030514 81.052853 
L 214.978376 82.373142 
L 219.975078 83.494513 
L 225.012626 84.415172 
L 230.082961 85.133646 
L 235.177971 85.648787 
L 240.289507 85.959769 
L 245.409389 86.066096 
L 250.529428 85.967597 
L 255.641433 85.66443 
L 260.737225 85.15708 
L 265.808652 84.446358 
L 270.847602 83.533401 
L 275.846012 82.419671 
L 280.795887 81.106948 
L 285.689308 79.597334 
L 290.518446 77.893242 
L 295.275575 75.997399 
L 299.953086 73.912839 
L 304.734908 71.543224 
L 303.657882 72.235505 
L 299.420612 75.111273 
L 295.301732 78.154187 
L 291.30783 81.359379 
L 287.445296 84.721719 
L 283.72031 88.235831 
L 280.138831 91.896091 
L 276.706587 95.696645 
L 273.429071 99.631411 
L 270.311525 103.694096 
L 267.358936 107.8782 
L 264.576029 112.177029 
L 261.967256 116.583706 
L 259.536789 121.091181 
L 257.288517 125.692243 
L 256.461795 127.510588 
L 257.426549 125.138663 
L 259.212806 120.33931 
L 260.80571 115.472365 
L 262.202715 110.545613 
L 263.401585 105.566937 
L 264.400401 100.544302 
L 265.197567 95.485742 
L 265.791807 90.39935 
L 266.182171 85.293264 
L 266.368032 80.175651 
L 266.349096 75.0547 
L 266.125391 69.938602 
L 265.697276 64.835542 
L 265.568084 63.648 
L 265.568084 63.648 
" style="fill:none;stroke:#1f77b4;stroke-linecap:square;stroke-width:1.5;"/>
   </g>
   <g id="patch_4">
    <path d="M 82.520165 307.584 
L 82.520165 41.472 
" style="fill:none;stroke:#000000;stroke-linecap:square;stroke-linejoin:miter;stroke-width:0.8;"/>
   </g>
   <g id="patch_5">
    <path d="M 389.799835 307.584 
L 389.799835 41.472 
" style="fill:none;stroke:#000000;stroke-linecap:square;stroke-linejoin:miter;stroke-width:0.8;"/>
   </g>
   <g id="patch_6">
    <path d="M 82.520165 307.584 
L 389.799835 307.584 
" style="fill:none;stroke:#000000;stroke-linecap:square;stroke-linejoin:miter;stroke-width:0.8;"/>
   </g>
   <g id="patch_7">
    <path d="M 82.520165 41.472 
L 389.799835 41.472 
" style="fill:none;stroke:#000000;stroke-linecap:square;stroke-linejoin:miter;stroke-width:0.8;"/>
   </g>
   <g id="PathCollection_1">
    <defs>
     <path d="M 0 2.236068 
C 0.593012 2.236068 1.161816 2.000462 1.581139 1.581139 
C 2.000462 1.161816 2.236068 0.593012 2.236068 0 
C 2.236068 -0.593012 2.000462 -1.161816 1.581139 -1.581139 
C 1.161816 -2.000462 0.593012 -2.236068 0 -2.236068 
C -0.593012 -2.236068 -1.161816 -2.000462 -1.581139 -1.581139 
C -2.000462 -1.161816 -2.236068 -0.593012 -2.236068 0 
C -2.236068 0.593012 -2.000462 1.161816 -1.581139 1.581139 
C -1.161816 2.000462 -0.593012 2.236068 0 2.236068 
z
" id="m993accd9d7" style="stroke:#000000;"/>
    </defs>
    <g clip-path="url(#p2174081b72)">
     <use style="stroke:#000000;" x="265.568084" xlink:href="#m993accd9d7" y="63.648"/>
    </g>
   </g>
   <g id="Quiver_1">
    <path clip-path="url(#p2174081b72)" d="M 266.178722 63.717315 
L 265.416262 70.434332 
L 266.706852 69.962323 
L 264.181793 75.860759 
L 263.043025 69.546436 
L 264.194986 70.295703 
L 264.957446 63.578685 
L 266.178722 63.717315 
"/>
   </g>
  </g>
 </g>
 <defs>
  <clipPath id="p2174081b72">
   <rect height="266.112" width="307.27967" x="82.520165" y="41.472"/>
  </clipPath>
 </defs>
</svg>
