<?xml version="1.0" encoding="utf-8" standalone="no"?>
<!DOCTYPE svg PUBLIC "-//W3C//DTD SVG 1.1//EN"
  "http://www.w3.org/Graphics/SVG/1.1/DTD/svg11.dtd">
<!-- Created with matplotlib (https://matplotlib.org/) -->
<svg height="345.6pt" version="1.1" viewBox="0 0 460.8 345.6" width="460.8pt" xmlns="http://www.w3.org/2000/svg" xmlns:xlink="http://www.w3.org/1999/xlink">
 <defs>
  <style type="text/css">
*{stroke-linecap:butt;stroke-linejoin:round;}
  </style>
 </defs>
 <g id="figure_1">
  <g id="patch_1">
   <path d="M 0 345.6 
L 460.8 345.6 
L 460.8 0 
L 0 0 
z
" style="fill:#ffffff;"/>
  </g>
  <g id="axes_1">
   <g id="patch_2">
    <path d="M 134.874524 307.584 
L 337.445476 307.584 
L 337.445476 41.472 
L 134.874524 41.472 
z
" style="fill:#ffffff;"/>
   </g>
   <g id="PathCollection_1">
    <defs>
     <path d="M 0 3 
C 0.795609 3 1.55874 2.683901 2.12132 2.12132 
C 2.683901 1.55874 3 0.795609 3 0 
C 3 -0.795609 2.683901 -1.55874 2.12132 -2.12132 
C 1.55874 -2.683901 0.795609 -3 0 -3 
C -0.795609 -3 -1.55874 -2.683901 -2.12132 -2.12132 
C -2.683901 -1.55874 -3 -0.795609 -3 0 
C -3 0.795609 -2.683901 1.55874 -2.12132 2.12132 
C -1.55874 2.683901 -0.795609 3 0 3 
z
" id="mff08c1e534" style="stroke:#000000;"/>
    </defs>
    <g clip-path="url(#pe0680900a4)">
     <use style="stroke:#000000;" x="274.153248" xlink:href="#mff08c1e534" y="250.279318"/>
    </g>
   </g>
   <g id="patch_3">
    <path clip-path="url(#pe0680900a4)" d="M 148.227324 357.25579 
C 150.73202 357.25579 153.134467 356.260664 154.905555 354.489577 
C 156.676642 352.718489 157.671768 350.316042 157.671768 347.811346 
C 157.671768 345.30665 156.676642 342.904203 154.905555 341.133115 
C 153.134467 339.362028 150.73202 338.366902 148.227324 338.366902 
C 145.722628 338.366902 143.320181 339.362028 141.549093 341.133115 
C 139.778006 342.904203 138.78288 345.30665 138.78288 347.811346 
C 138.78288 350.316042 139.778006 352.718489 141.549093 354.489577 
C 143.320181 356.260664 145.722628 357.25579 148.227324 357.25579 
z
" style="fill:#009900;fill-opacity:0.5;stroke:#009900;stroke-linejoin:miter;stroke-width:2;"/>
   </g>
   <g id="patch_4">
    <path clip-path="url(#pe0680900a4)" d="M 219.060656 316.360147 
C 221.565352 316.360147 223.967799 315.365021 225.738887 313.593933 
C 227.509974 311.822846 228.505101 309.420398 228.505101 306.915702 
C 228.505101 304.411007 227.509974 302.008559 225.738887 300.237472 
C 223.967799 298.466384 221.565352 297.471258 219.060656 297.471258 
C 216.55596 297.471258 214.153513 298.466384 212.382426 300.237472 
C 210.611338 302.008559 209.616212 304.411007 209.616212 306.915702 
C 209.616212 309.420398 210.611338 311.822846 212.382426 313.593933 
C 214.153513 315.365021 216.55596 316.360147 219.060656 316.360147 
z
" style="fill:#009900;fill-opacity:0.5;stroke:#009900;stroke-linejoin:miter;stroke-width:2;"/>
   </g>
   <g id="patch_5">
    <path clip-path="url(#pe0680900a4)" d="M 289.893989 357.25579 
C 292.398685 357.25579 294.801132 356.260664 296.572219 354.489577 
C 298.343307 352.718489 299.338433 350.316042 299.338433 347.811346 
C 299.338433 345.30665 298.343307 342.904203 296.572219 341.133115 
C 294.801132 339.362028 292.398685 338.366902 289.893989 338.366902 
C 287.389293 338.366902 284.986846 339.362028 283.215758 341.133115 
C 281.444671 342.904203 280.449544 345.30665 280.449544 347.811346 
C 280.449544 350.316042 281.444671 352.718489 283.215758 354.489577 
C 284.986846 356.260664 287.389293 357.25579 289.893989 357.25579 
z
" style="fill:#009900;fill-opacity:0.5;stroke:#009900;stroke-linejoin:miter;stroke-width:2;"/>
   </g>
   <g id="patch_6">
    <path clip-path="url(#pe0680900a4)" d="M 360.727321 316.360147 
C 363.232017 316.360147 365.634464 315.365021 367.405552 313.593933 
C 369.176639 311.822846 370.171765 309.420398 370.171765 306.915702 
C 370.171765 304.411007 369.176639 302.008559 367.405552 300.237472 
C 365.634464 298.466384 363.232017 297.471258 360.727321 297.471258 
C 358.222625 297.471258 355.820178 298.466384 354.049091 300.237472 
C 352.278003 302.008559 351.282877 304.411007 351.282877 306.915702 
C 351.282877 309.420398 352.278003 311.822846 354.049091 313.593933 
C 355.820178 315.365021 358.222625 316.360147 360.727321 316.360147 
z
" style="fill:#009900;fill-opacity:0.5;stroke:#009900;stroke-linejoin:miter;stroke-width:2;"/>
   </g>
   <g id="patch_7">
    <path clip-path="url(#pe0680900a4)" d="M 431.560654 357.25579 
C 434.065349 357.25579 436.467797 356.260664 438.238884 354.489577 
C 440.009972 352.718489 441.005098 350.316042 441.005098 347.811346 
C 441.005098 345.30665 440.009972 342.904203 438.238884 341.133115 
C 436.467797 339.362028 434.065349 338.366902 431.560654 338.366902 
C 429.055958 338.366902 426.65351 339.362028 424.882423 341.133115 
C 423.111335 342.904203 422.116209 345.30665 422.116209 347.811346 
C 422.116209 350.316042 423.111335 352.718489 424.882423 354.489577 
C 426.65351 356.260664 429.055958 357.25579 431.560654 357.25579 
z
" style="fill:#009900;fill-opacity:0.5;stroke:#009900;stroke-linejoin:miter;stroke-width:2;"/>
   </g>
   <g id="patch_8">
    <path clip-path="url(#pe0680900a4)" d="M 502.393986 316.360147 
C 504.898682 316.360147 507.301129 315.365021 509.072217 313.593933 
C 510.843304 311.822846 511.83843 309.420398 511.83843 306.915702 
C 511.83843 304.411007 510.843304 302.008559 509.072217 300.237472 
C 507.301129 298.466384 504.898682 297.471258 502.393986 297.471258 
C 499.88929 297.471258 497.486843 298.466384 495.715755 300.237472 
C 493.944668 302.008559 492.949542 304.411007 492.949542 306.915702 
C 492.949542 309.420398 493.944668 311.822846 495.715755 313.593933 
C 497.486843 315.365021 499.88929 316.360147 502.393986 316.360147 
z
" style="fill:#009900;fill-opacity:0.5;stroke:#009900;stroke-linejoin:miter;stroke-width:2;"/>
   </g>
   <g id="patch_9">
    <path clip-path="url(#pe0680900a4)" d="M 148.227324 275.464503 
C 150.73202 275.464503 153.134467 274.469377 154.905555 272.69829 
C 156.676642 270.927202 157.671768 268.524755 157.671768 266.020059 
C 157.671768 263.515363 156.676642 261.112916 154.905555 259.341828 
C 153.134467 257.570741 150.73202 256.575615 148.227324 256.575615 
C 145.722628 256.575615 143.320181 257.570741 141.549093 259.341828 
C 139.778006 261.112916 138.78288 263.515363 138.78288 266.020059 
C 138.78288 268.524755 139.778006 270.927202 141.549093 272.69829 
C 143.320181 274.469377 145.722628 275.464503 148.227324 275.464503 
z
" style="fill:#009900;fill-opacity:0.5;stroke:#009900;stroke-linejoin:miter;stroke-width:2;"/>
   </g>
   <g id="patch_10">
    <path clip-path="url(#pe0680900a4)" d="M 219.060656 234.56886 
C 221.565352 234.56886 223.967799 233.573733 225.738887 231.802646 
C 227.509974 230.031559 228.505101 227.629111 228.505101 225.124415 
C 228.505101 222.619719 227.509974 220.217272 225.738887 218.446185 
C 223.967799 216.675097 221.565352 215.679971 219.060656 215.679971 
C 216.55596 215.679971 214.153513 216.675097 212.382426 218.446185 
C 210.611338 220.217272 209.616212 222.619719 209.616212 225.124415 
C 209.616212 227.629111 210.611338 230.031559 212.382426 231.802646 
C 214.153513 233.573733 216.55596 234.56886 219.060656 234.56886 
z
" style="fill:#009900;fill-opacity:0.5;stroke:#009900;stroke-linejoin:miter;stroke-width:2;"/>
   </g>
   <g id="patch_11">
    <path clip-path="url(#pe0680900a4)" d="M 289.893989 275.464503 
C 292.398685 275.464503 294.801132 274.469377 296.572219 272.69829 
C 298.343307 270.927202 299.338433 268.524755 299.338433 266.020059 
C 299.338433 263.515363 298.343307 261.112916 296.572219 259.341828 
C 294.801132 257.570741 292.398685 256.575615 289.893989 256.575615 
C 287.389293 256.575615 284.986846 257.570741 283.215758 259.341828 
C 281.444671 261.112916 280.449544 263.515363 280.449544 266.020059 
C 280.449544 268.524755 281.444671 270.927202 283.215758 272.69829 
C 284.986846 274.469377 287.389293 275.464503 289.893989 275.464503 
z
" style="fill:#009900;fill-opacity:0.5;stroke:#009900;stroke-linejoin:miter;stroke-width:2;"/>
   </g>
   <g id="patch_12">
    <path clip-path="url(#pe0680900a4)" d="M 360.727321 234.56886 
C 363.232017 234.56886 365.634464 233.573733 367.405552 231.802646 
C 369.176639 230.031559 370.171765 227.629111 370.171765 225.124415 
C 370.171765 222.619719 369.176639 220.217272 367.405552 218.446185 
C 365.634464 216.675097 363.232017 215.679971 360.727321 215.679971 
C 358.222625 215.679971 355.820178 216.675097 354.049091 218.446185 
C 352.278003 220.217272 351.282877 222.619719 351.282877 225.124415 
C 351.282877 227.629111 352.278003 230.031559 354.049091 231.802646 
C 355.820178 233.573733 358.222625 234.56886 360.727321 234.56886 
z
" style="fill:#009900;fill-opacity:0.5;stroke:#009900;stroke-linejoin:miter;stroke-width:2;"/>
   </g>
   <g id="patch_13">
    <path clip-path="url(#pe0680900a4)" d="M 431.560654 275.464503 
C 434.065349 275.464503 436.467797 274.469377 438.238884 272.69829 
C 440.009972 270.927202 441.005098 268.524755 441.005098 266.020059 
C 441.005098 263.515363 440.009972 261.112916 438.238884 259.341828 
C 436.467797 257.570741 434.065349 256.575615 431.560654 256.575615 
C 429.055958 256.575615 426.65351 257.570741 424.882423 259.341828 
C 423.111335 261.112916 422.116209 263.515363 422.116209 266.020059 
C 422.116209 268.524755 423.111335 270.927202 424.882423 272.69829 
C 426.65351 274.469377 429.055958 275.464503 431.560654 275.464503 
z
" style="fill:#009900;fill-opacity:0.5;stroke:#009900;stroke-linejoin:miter;stroke-width:2;"/>
   </g>
   <g id="patch_14">
    <path clip-path="url(#pe0680900a4)" d="M 502.393986 234.56886 
C 504.898682 234.56886 507.301129 233.573733 509.072217 231.802646 
C 510.843304 230.031559 511.83843 227.629111 511.83843 225.124415 
C 511.83843 222.619719 510.843304 220.217272 509.072217 218.446185 
C 507.301129 216.675097 504.898682 215.679971 502.393986 215.679971 
C 499.88929 215.679971 497.486843 216.675097 495.715755 218.446185 
C 493.944668 220.217272 492.949542 222.619719 492.949542 225.124415 
C 492.949542 227.629111 493.944668 230.031559 495.715755 231.802646 
C 497.486843 233.573733 499.88929 234.56886 502.393986 234.56886 
z
" style="fill:#009900;fill-opacity:0.5;stroke:#009900;stroke-linejoin:miter;stroke-width:2;"/>
   </g>
   <g id="patch_15">
    <path clip-path="url(#pe0680900a4)" d="M 148.227324 193.673216 
C 150.73202 193.673216 153.134467 192.67809 154.905555 190.907002 
C 156.676642 189.135915 157.671768 186.733468 157.671768 184.228772 
C 157.671768 181.724076 156.676642 179.321629 154.905555 177.550541 
C 153.134467 175.779454 150.73202 174.784328 148.227324 174.784328 
C 145.722628 174.784328 143.320181 175.779454 141.549093 177.550541 
C 139.778006 179.321629 138.78288 181.724076 138.78288 184.228772 
C 138.78288 186.733468 139.778006 189.135915 141.549093 190.907002 
C 143.320181 192.67809 145.722628 193.673216 148.227324 193.673216 
z
" style="fill:#009900;fill-opacity:0.5;stroke:#009900;stroke-linejoin:miter;stroke-width:2;"/>
   </g>
   <g id="patch_16">
    <path clip-path="url(#pe0680900a4)" d="M 219.060656 152.777573 
C 221.565352 152.777573 223.967799 151.782446 225.738887 150.011359 
C 227.509974 148.240271 228.505101 145.837824 228.505101 143.333128 
C 228.505101 140.828432 227.509974 138.425985 225.738887 136.654898 
C 223.967799 134.88381 221.565352 133.888684 219.060656 133.888684 
C 216.55596 133.888684 214.153513 134.88381 212.382426 136.654898 
C 210.611338 138.425985 209.616212 140.828432 209.616212 143.333128 
C 209.616212 145.837824 210.611338 148.240271 212.382426 150.011359 
C 214.153513 151.782446 216.55596 152.777573 219.060656 152.777573 
z
" style="fill:#009900;fill-opacity:0.5;stroke:#009900;stroke-linejoin:miter;stroke-width:2;"/>
   </g>
   <g id="patch_17">
    <path clip-path="url(#pe0680900a4)" d="M 289.893989 193.673216 
C 292.398685 193.673216 294.801132 192.67809 296.572219 190.907002 
C 298.343307 189.135915 299.338433 186.733468 299.338433 184.228772 
C 299.338433 181.724076 298.343307 179.321629 296.572219 177.550541 
C 294.801132 175.779454 292.398685 174.784328 289.893989 174.784328 
C 287.389293 174.784328 284.986846 175.779454 283.215758 177.550541 
C 281.444671 179.321629 280.449544 181.724076 280.449544 184.228772 
C 280.449544 186.733468 281.444671 189.135915 283.215758 190.907002 
C 284.986846 192.67809 287.389293 193.673216 289.893989 193.673216 
z
" style="fill:#009900;fill-opacity:0.5;stroke:#009900;stroke-linejoin:miter;stroke-width:2;"/>
   </g>
   <g id="patch_18">
    <path clip-path="url(#pe0680900a4)" d="M 360.727321 152.777573 
C 363.232017 152.777573 365.634464 151.782446 367.405552 150.011359 
C 369.176639 148.240271 370.171765 145.837824 370.171765 143.333128 
C 370.171765 140.828432 369.176639 138.425985 367.405552 136.654898 
C 365.634464 134.88381 363.232017 133.888684 360.727321 133.888684 
C 358.222625 133.888684 355.820178 134.88381 354.049091 136.654898 
C 352.278003 138.425985 351.282877 140.828432 351.282877 143.333128 
C 351.282877 145.837824 352.278003 148.240271 354.049091 150.011359 
C 355.820178 151.782446 358.222625 152.777573 360.727321 152.777573 
z
" style="fill:#009900;fill-opacity:0.5;stroke:#009900;stroke-linejoin:miter;stroke-width:2;"/>
   </g>
   <g id="patch_19">
    <path clip-path="url(#pe0680900a4)" d="M 431.560654 193.673216 
C 434.065349 193.673216 436.467797 192.67809 438.238884 190.907002 
C 440.009972 189.135915 441.005098 186.733468 441.005098 184.228772 
C 441.005098 181.724076 440.009972 179.321629 438.238884 177.550541 
C 436.467797 175.779454 434.065349 174.784328 431.560654 174.784328 
C 429.055958 174.784328 426.65351 175.779454 424.882423 177.550541 
C 423.111335 179.321629 422.116209 181.724076 422.116209 184.228772 
C 422.116209 186.733468 423.111335 189.135915 424.882423 190.907002 
C 426.65351 192.67809 429.055958 193.673216 431.560654 193.673216 
z
" style="fill:#009900;fill-opacity:0.5;stroke:#009900;stroke-linejoin:miter;stroke-width:2;"/>
   </g>
   <g id="patch_20">
    <path clip-path="url(#pe0680900a4)" d="M 502.393986 152.777573 
C 504.898682 152.777573 507.301129 151.782446 509.072217 150.011359 
C 510.843304 148.240271 511.83843 145.837824 511.83843 143.333128 
C 511.83843 140.828432 510.843304 138.425985 509.072217 136.654898 
C 507.301129 134.88381 504.898682 133.888684 502.393986 133.888684 
C 499.88929 133.888684 497.486843 134.88381 495.715755 136.654898 
C 493.944668 138.425985 492.949542 140.828432 492.949542 143.333128 
C 492.949542 145.837824 493.944668 148.240271 495.715755 150.011359 
C 497.486843 151.782446 499.88929 152.777573 502.393986 152.777573 
z
" style="fill:#009900;fill-opacity:0.5;stroke:#009900;stroke-linejoin:miter;stroke-width:2;"/>
   </g>
   <g id="patch_21">
    <path clip-path="url(#pe0680900a4)" d="M 148.227324 111.881929 
C 150.73202 111.881929 153.134467 110.886803 154.905555 109.115715 
C 156.676642 107.344628 157.671768 104.942181 157.671768 102.437485 
C 157.671768 99.932789 156.676642 97.530342 154.905555 95.759254 
C 153.134467 93.988167 150.73202 92.99304 148.227324 92.99304 
C 145.722628 92.99304 143.320181 93.988167 141.549093 95.759254 
C 139.778006 97.530342 138.78288 99.932789 138.78288 102.437485 
C 138.78288 104.942181 139.778006 107.344628 141.549093 109.115715 
C 143.320181 110.886803 145.722628 111.881929 148.227324 111.881929 
z
" style="fill:#009900;fill-opacity:0.5;stroke:#009900;stroke-linejoin:miter;stroke-width:2;"/>
   </g>
   <g id="patch_22">
    <path clip-path="url(#pe0680900a4)" d="M 219.060656 70.986286 
C 221.565352 70.986286 223.967799 69.991159 225.738887 68.220072 
C 227.509974 66.448984 228.505101 64.046537 228.505101 61.541841 
C 228.505101 59.037145 227.509974 56.634698 225.738887 54.863611 
C 223.967799 53.092523 221.565352 52.097397 219.060656 52.097397 
C 216.55596 52.097397 214.153513 53.092523 212.382426 54.863611 
C 210.611338 56.634698 209.616212 59.037145 209.616212 61.541841 
C 209.616212 64.046537 210.611338 66.448984 212.382426 68.220072 
C 214.153513 69.991159 216.55596 70.986286 219.060656 70.986286 
z
" style="fill:#009900;fill-opacity:0.5;stroke:#009900;stroke-linejoin:miter;stroke-width:2;"/>
   </g>
   <g id="patch_23">
    <path clip-path="url(#pe0680900a4)" d="M 289.893989 111.881929 
C 292.398685 111.881929 294.801132 110.886803 296.572219 109.115715 
C 298.343307 107.344628 299.338433 104.942181 299.338433 102.437485 
C 299.338433 99.932789 298.343307 97.530342 296.572219 95.759254 
C 294.801132 93.988167 292.398685 92.99304 289.893989 92.99304 
C 287.389293 92.99304 284.986846 93.988167 283.215758 95.759254 
C 281.444671 97.530342 280.449544 99.932789 280.449544 102.437485 
C 280.449544 104.942181 281.444671 107.344628 283.215758 109.115715 
C 284.986846 110.886803 287.389293 111.881929 289.893989 111.881929 
z
" style="fill:#009900;fill-opacity:0.5;stroke:#009900;stroke-linejoin:miter;stroke-width:2;"/>
   </g>
   <g id="patch_24">
    <path clip-path="url(#pe0680900a4)" d="M 360.727321 70.986286 
C 363.232017 70.986286 365.634464 69.991159 367.405552 68.220072 
C 369.176639 66.448984 370.171765 64.046537 370.171765 61.541841 
C 370.171765 59.037145 369.176639 56.634698 367.405552 54.863611 
C 365.634464 53.092523 363.232017 52.097397 360.727321 52.097397 
C 358.222625 52.097397 355.820178 53.092523 354.049091 54.863611 
C 352.278003 56.634698 351.282877 59.037145 351.282877 61.541841 
C 351.282877 64.046537 352.278003 66.448984 354.049091 68.220072 
C 355.820178 69.991159 358.222625 70.986286 360.727321 70.986286 
z
" style="fill:#009900;fill-opacity:0.5;stroke:#009900;stroke-linejoin:miter;stroke-width:2;"/>
   </g>
   <g id="patch_25">
    <path clip-path="url(#pe0680900a4)" d="M 431.560654 111.881929 
C 434.065349 111.881929 436.467797 110.886803 438.238884 109.115715 
C 440.009972 107.344628 441.005098 104.942181 441.005098 102.437485 
C 441.005098 99.932789 440.009972 97.530342 438.238884 95.759254 
C 436.467797 93.988167 434.065349 92.99304 431.560654 92.99304 
C 429.055958 92.99304 426.65351 93.988167 424.882423 95.759254 
C 423.111335 97.530342 422.116209 99.932789 422.116209 102.437485 
C 422.116209 104.942181 423.111335 107.344628 424.882423 109.115715 
C 426.65351 110.886803 429.055958 111.881929 431.560654 111.881929 
z
" style="fill:#009900;fill-opacity:0.5;stroke:#009900;stroke-linejoin:miter;stroke-width:2;"/>
   </g>
   <g id="patch_26">
    <path clip-path="url(#pe0680900a4)" d="M 502.393986 70.986286 
C 504.898682 70.986286 507.301129 69.991159 509.072217 68.220072 
C 510.843304 66.448984 511.83843 64.046537 511.83843 61.541841 
C 511.83843 59.037145 510.843304 56.634698 509.072217 54.863611 
C 507.301129 53.092523 504.898682 52.097397 502.393986 52.097397 
C 499.88929 52.097397 497.486843 53.092523 495.715755 54.863611 
C 493.944668 56.634698 492.949542 59.037145 492.949542 61.541841 
C 492.949542 64.046537 493.944668 66.448984 495.715755 68.220072 
C 497.486843 69.991159 499.88929 70.986286 502.393986 70.986286 
z
" style="fill:#009900;fill-opacity:0.5;stroke:#009900;stroke-linejoin:miter;stroke-width:2;"/>
   </g>
   <g id="patch_27">
    <path clip-path="url(#pe0680900a4)" d="M 148.227324 30.090642 
C 150.73202 30.090642 153.134467 29.095516 154.905555 27.324428 
C 156.676642 25.553341 157.671768 23.150894 157.671768 20.646198 
C 157.671768 18.141502 156.676642 15.739055 154.905555 13.967967 
C 153.134467 12.19688 150.73202 11.201753 148.227324 11.201753 
C 145.722628 11.201753 143.320181 12.19688 141.549093 13.967967 
C 139.778006 15.739055 138.78288 18.141502 138.78288 20.646198 
C 138.78288 23.150894 139.778006 25.553341 141.549093 27.324428 
C 143.320181 29.095516 145.722628 30.090642 148.227324 30.090642 
z
" style="fill:#009900;fill-opacity:0.5;stroke:#009900;stroke-linejoin:miter;stroke-width:2;"/>
   </g>
   <g id="patch_28">
    <path clip-path="url(#pe0680900a4)" d="M 219.060656 -10.805001 
C 221.565352 -10.805001 223.967799 -11.800128 225.738887 -13.571215 
C 227.509974 -15.342303 228.505101 -17.74475 228.505101 -20.249446 
C 228.505101 -22.754142 227.509974 -25.156589 225.738887 -26.927676 
C 223.967799 -28.698764 221.565352 -29.69389 219.060656 -29.69389 
C 216.55596 -29.69389 214.153513 -28.698764 212.382426 -26.927676 
C 210.611338 -25.156589 209.616212 -22.754142 209.616212 -20.249446 
C 209.616212 -17.74475 210.611338 -15.342303 212.382426 -13.571215 
C 214.153513 -11.800128 216.55596 -10.805001 219.060656 -10.805001 
z
" style="fill:#009900;fill-opacity:0.5;stroke:#009900;stroke-linejoin:miter;stroke-width:2;"/>
   </g>
   <g id="patch_29">
    <path clip-path="url(#pe0680900a4)" d="M 289.893989 30.090642 
C 292.398685 30.090642 294.801132 29.095516 296.572219 27.324428 
C 298.343307 25.553341 299.338433 23.150894 299.338433 20.646198 
C 299.338433 18.141502 298.343307 15.739055 296.572219 13.967967 
C 294.801132 12.19688 292.398685 11.201753 289.893989 11.201753 
C 287.389293 11.201753 284.986846 12.19688 283.215758 13.967967 
C 281.444671 15.739055 280.449544 18.141502 280.449544 20.646198 
C 280.449544 23.150894 281.444671 25.553341 283.215758 27.324428 
C 284.986846 29.095516 287.389293 30.090642 289.893989 30.090642 
z
" style="fill:#009900;fill-opacity:0.5;stroke:#009900;stroke-linejoin:miter;stroke-width:2;"/>
   </g>
   <g id="patch_30">
    <path clip-path="url(#pe0680900a4)" d="M 360.727321 -10.805001 
C 363.232017 -10.805001 365.634464 -11.800128 367.405552 -13.571215 
C 369.176639 -15.342303 370.171765 -17.74475 370.171765 -20.249446 
C 370.171765 -22.754142 369.176639 -25.156589 367.405552 -26.927676 
C 365.634464 -28.698764 363.232017 -29.69389 360.727321 -29.69389 
C 358.222625 -29.69389 355.820178 -28.698764 354.049091 -26.927676 
C 352.278003 -25.156589 351.282877 -22.754142 351.282877 -20.249446 
C 351.282877 -17.74475 352.278003 -15.342303 354.049091 -13.571215 
C 355.820178 -11.800128 358.222625 -10.805001 360.727321 -10.805001 
z
" style="fill:#009900;fill-opacity:0.5;stroke:#009900;stroke-linejoin:miter;stroke-width:2;"/>
   </g>
   <g id="patch_31">
    <path clip-path="url(#pe0680900a4)" d="M 431.560654 30.090642 
C 434.065349 30.090642 436.467797 29.095516 438.238884 27.324428 
C 440.009972 25.553341 441.005098 23.150894 441.005098 20.646198 
C 441.005098 18.141502 440.009972 15.739055 438.238884 13.967967 
C 436.467797 12.19688 434.065349 11.201753 431.560654 11.201753 
C 429.055958 11.201753 426.65351 12.19688 424.882423 13.967967 
C 423.111335 15.739055 422.116209 18.141502 422.116209 20.646198 
C 422.116209 23.150894 423.111335 25.553341 424.882423 27.324428 
C 426.65351 29.095516 429.055958 30.090642 431.560654 30.090642 
z
" style="fill:#009900;fill-opacity:0.5;stroke:#009900;stroke-linejoin:miter;stroke-width:2;"/>
   </g>
   <g id="patch_32">
    <path clip-path="url(#pe0680900a4)" d="M 502.393986 -10.805001 
C 504.898682 -10.805001 507.301129 -11.800128 509.072217 -13.571215 
C 510.843304 -15.342303 511.83843 -17.74475 511.83843 -20.249446 
C 511.83843 -22.754142 510.843304 -25.156589 509.072217 -26.927676 
C 507.301129 -28.698764 504.898682 -29.69389 502.393986 -29.69389 
C 499.88929 -29.69389 497.486843 -28.698764 495.715755 -26.927676 
C 493.944668 -25.156589 492.949542 -22.754142 492.949542 -20.249446 
C 492.949542 -17.74475 493.944668 -15.342303 495.715755 -13.571215 
C 497.486843 -11.800128 499.88929 -10.805001 502.393986 -10.805001 
z
" style="fill:#009900;fill-opacity:0.5;stroke:#009900;stroke-linejoin:miter;stroke-width:2;"/>
   </g>
   <g id="patch_33">
    <path clip-path="url(#pe0680900a4)" d="M 170.264361 354.107642 
C 171.934158 354.107642 173.535789 353.444225 174.716514 352.2635 
C 175.897239 351.082775 176.560657 349.481143 176.560657 347.811346 
C 176.560657 346.141549 175.897239 344.539917 174.716514 343.359192 
C 173.535789 342.178467 171.934158 341.51505 170.264361 341.51505 
C 168.594563 341.51505 166.992932 342.178467 165.812207 343.359192 
C 164.631482 344.539917 163.968064 346.141549 163.968064 347.811346 
C 163.968064 349.481143 164.631482 351.082775 165.812207 352.2635 
C 166.992932 353.444225 168.594563 354.107642 170.264361 354.107642 
z
" style="fill:#009900;fill-opacity:0.5;stroke:#009900;stroke-linejoin:miter;stroke-width:2;"/>
   </g>
   <g id="patch_34">
    <path clip-path="url(#pe0680900a4)" d="M 241.097693 313.211999 
C 242.76749 313.211999 244.369122 312.548581 245.549847 311.367856 
C 246.730572 310.187131 247.393989 308.5855 247.393989 306.915702 
C 247.393989 305.245905 246.730572 303.644274 245.549847 302.463549 
C 244.369122 301.282824 242.76749 300.619406 241.097693 300.619406 
C 239.427896 300.619406 237.826264 301.282824 236.645539 302.463549 
C 235.464814 303.644274 234.801397 305.245905 234.801397 306.915702 
C 234.801397 308.5855 235.464814 310.187131 236.645539 311.367856 
C 237.826264 312.548581 239.427896 313.211999 241.097693 313.211999 
z
" style="fill:#009900;fill-opacity:0.5;stroke:#009900;stroke-linejoin:miter;stroke-width:2;"/>
   </g>
   <g id="patch_35">
    <path clip-path="url(#pe0680900a4)" d="M 311.931025 354.107642 
C 313.600823 354.107642 315.202454 353.444225 316.383179 352.2635 
C 317.563904 351.082775 318.227322 349.481143 318.227322 347.811346 
C 318.227322 346.141549 317.563904 344.539917 316.383179 343.359192 
C 315.202454 342.178467 313.600823 341.51505 311.931025 341.51505 
C 310.261228 341.51505 308.659597 342.178467 307.478872 343.359192 
C 306.298147 344.539917 305.634729 346.141549 305.634729 347.811346 
C 305.634729 349.481143 306.298147 351.082775 307.478872 352.2635 
C 308.659597 353.444225 310.261228 354.107642 311.931025 354.107642 
z
" style="fill:#009900;fill-opacity:0.5;stroke:#009900;stroke-linejoin:miter;stroke-width:2;"/>
   </g>
   <g id="patch_36">
    <path clip-path="url(#pe0680900a4)" d="M 382.764358 313.211999 
C 384.434155 313.211999 386.035787 312.548581 387.216512 311.367856 
C 388.397237 310.187131 389.060654 308.5855 389.060654 306.915702 
C 389.060654 305.245905 388.397237 303.644274 387.216512 302.463549 
C 386.035787 301.282824 384.434155 300.619406 382.764358 300.619406 
C 381.094561 300.619406 379.492929 301.282824 378.312204 302.463549 
C 377.131479 303.644274 376.468062 305.245905 376.468062 306.915702 
C 376.468062 308.5855 377.131479 310.187131 378.312204 311.367856 
C 379.492929 312.548581 381.094561 313.211999 382.764358 313.211999 
z
" style="fill:#009900;fill-opacity:0.5;stroke:#009900;stroke-linejoin:miter;stroke-width:2;"/>
   </g>
   <g id="patch_37">
    <path clip-path="url(#pe0680900a4)" d="M 453.59769 354.107642 
C 455.267488 354.107642 456.869119 353.444225 458.049844 352.2635 
C 459.230569 351.082775 459.893987 349.481143 459.893987 347.811346 
C 459.893987 346.141549 459.230569 344.539917 458.049844 343.359192 
C 456.869119 342.178467 455.267488 341.51505 453.59769 341.51505 
C 451.927893 341.51505 450.326262 342.178467 449.145537 343.359192 
C 447.964812 344.539917 447.301394 346.141549 447.301394 347.811346 
C 447.301394 349.481143 447.964812 351.082775 449.145537 352.2635 
C 450.326262 353.444225 451.927893 354.107642 453.59769 354.107642 
z
" style="fill:#009900;fill-opacity:0.5;stroke:#009900;stroke-linejoin:miter;stroke-width:2;"/>
   </g>
   <g id="patch_38">
    <path clip-path="url(#pe0680900a4)" d="M 524.431023 313.211999 
C 526.10082 313.211999 527.702451 312.548581 528.883176 311.367856 
C 530.063901 310.187131 530.727319 308.5855 530.727319 306.915702 
C 530.727319 305.245905 530.063901 303.644274 528.883176 302.463549 
C 527.702451 301.282824 526.10082 300.619406 524.431023 300.619406 
C 522.761225 300.619406 521.159594 301.282824 519.978869 302.463549 
C 518.798144 303.644274 518.134726 305.245905 518.134726 306.915702 
C 518.134726 308.5855 518.798144 310.187131 519.978869 311.367856 
C 521.159594 312.548581 522.761225 313.211999 524.431023 313.211999 
z
" style="fill:#009900;fill-opacity:0.5;stroke:#009900;stroke-linejoin:miter;stroke-width:2;"/>
   </g>
   <g id="patch_39">
    <path clip-path="url(#pe0680900a4)" d="M 170.264361 272.316355 
C 171.934158 272.316355 173.535789 271.652938 174.716514 270.472213 
C 175.897239 269.291488 176.560657 267.689856 176.560657 266.020059 
C 176.560657 264.350262 175.897239 262.74863 174.716514 261.567905 
C 173.535789 260.38718 171.934158 259.723763 170.264361 259.723763 
C 168.594563 259.723763 166.992932 260.38718 165.812207 261.567905 
C 164.631482 262.74863 163.968064 264.350262 163.968064 266.020059 
C 163.968064 267.689856 164.631482 269.291488 165.812207 270.472213 
C 166.992932 271.652938 168.594563 272.316355 170.264361 272.316355 
z
" style="fill:#009900;fill-opacity:0.5;stroke:#009900;stroke-linejoin:miter;stroke-width:2;"/>
   </g>
   <g id="patch_40">
    <path clip-path="url(#pe0680900a4)" d="M 241.097693 231.420712 
C 242.76749 231.420712 244.369122 230.757294 245.549847 229.576569 
C 246.730572 228.395844 247.393989 226.794213 247.393989 225.124415 
C 247.393989 223.454618 246.730572 221.852987 245.549847 220.672262 
C 244.369122 219.491537 242.76749 218.828119 241.097693 218.828119 
C 239.427896 218.828119 237.826264 219.491537 236.645539 220.672262 
C 235.464814 221.852987 234.801397 223.454618 234.801397 225.124415 
C 234.801397 226.794213 235.464814 228.395844 236.645539 229.576569 
C 237.826264 230.757294 239.427896 231.420712 241.097693 231.420712 
z
" style="fill:#009900;fill-opacity:0.5;stroke:#009900;stroke-linejoin:miter;stroke-width:2;"/>
   </g>
   <g id="patch_41">
    <path clip-path="url(#pe0680900a4)" d="M 311.931025 272.316355 
C 313.600823 272.316355 315.202454 271.652938 316.383179 270.472213 
C 317.563904 269.291488 318.227322 267.689856 318.227322 266.020059 
C 318.227322 264.350262 317.563904 262.74863 316.383179 261.567905 
C 315.202454 260.38718 313.600823 259.723763 311.931025 259.723763 
C 310.261228 259.723763 308.659597 260.38718 307.478872 261.567905 
C 306.298147 262.74863 305.634729 264.350262 305.634729 266.020059 
C 305.634729 267.689856 306.298147 269.291488 307.478872 270.472213 
C 308.659597 271.652938 310.261228 272.316355 311.931025 272.316355 
z
" style="fill:#009900;fill-opacity:0.5;stroke:#009900;stroke-linejoin:miter;stroke-width:2;"/>
   </g>
   <g id="patch_42">
    <path clip-path="url(#pe0680900a4)" d="M 382.764358 231.420712 
C 384.434155 231.420712 386.035787 230.757294 387.216512 229.576569 
C 388.397237 228.395844 389.060654 226.794213 389.060654 225.124415 
C 389.060654 223.454618 388.397237 221.852987 387.216512 220.672262 
C 386.035787 219.491537 384.434155 218.828119 382.764358 218.828119 
C 381.094561 218.828119 379.492929 219.491537 378.312204 220.672262 
C 377.131479 221.852987 376.468062 223.454618 376.468062 225.124415 
C 376.468062 226.794213 377.131479 228.395844 378.312204 229.576569 
C 379.492929 230.757294 381.094561 231.420712 382.764358 231.420712 
z
" style="fill:#009900;fill-opacity:0.5;stroke:#009900;stroke-linejoin:miter;stroke-width:2;"/>
   </g>
   <g id="patch_43">
    <path clip-path="url(#pe0680900a4)" d="M 453.59769 272.316355 
C 455.267488 272.316355 456.869119 271.652938 458.049844 270.472213 
C 459.230569 269.291488 459.893987 267.689856 459.893987 266.020059 
C 459.893987 264.350262 459.230569 262.74863 458.049844 261.567905 
C 456.869119 260.38718 455.267488 259.723763 453.59769 259.723763 
C 451.927893 259.723763 450.326262 260.38718 449.145537 261.567905 
C 447.964812 262.74863 447.301394 264.350262 447.301394 266.020059 
C 447.301394 267.689856 447.964812 269.291488 449.145537 270.472213 
C 450.326262 271.652938 451.927893 272.316355 453.59769 272.316355 
z
" style="fill:#009900;fill-opacity:0.5;stroke:#009900;stroke-linejoin:miter;stroke-width:2;"/>
   </g>
   <g id="patch_44">
    <path clip-path="url(#pe0680900a4)" d="M 524.431023 231.420712 
C 526.10082 231.420712 527.702451 230.757294 528.883176 229.576569 
C 530.063901 228.395844 530.727319 226.794213 530.727319 225.124415 
C 530.727319 223.454618 530.063901 221.852987 528.883176 220.672262 
C 527.702451 219.491537 526.10082 218.828119 524.431023 218.828119 
C 522.761225 218.828119 521.159594 219.491537 519.978869 220.672262 
C 518.798144 221.852987 518.134726 223.454618 518.134726 225.124415 
C 518.134726 226.794213 518.798144 228.395844 519.978869 229.576569 
C 521.159594 230.757294 522.761225 231.420712 524.431023 231.420712 
z
" style="fill:#009900;fill-opacity:0.5;stroke:#009900;stroke-linejoin:miter;stroke-width:2;"/>
   </g>
   <g id="patch_45">
    <path clip-path="url(#pe0680900a4)" d="M 170.264361 190.525068 
C 171.934158 190.525068 173.535789 189.861651 174.716514 188.680926 
C 175.897239 187.500201 176.560657 185.898569 176.560657 184.228772 
C 176.560657 182.558975 175.897239 180.957343 174.716514 179.776618 
C 173.535789 178.595893 171.934158 177.932476 170.264361 177.932476 
C 168.594563 177.932476 166.992932 178.595893 165.812207 179.776618 
C 164.631482 180.957343 163.968064 182.558975 163.968064 184.228772 
C 163.968064 185.898569 164.631482 187.500201 165.812207 188.680926 
C 166.992932 189.861651 168.594563 190.525068 170.264361 190.525068 
z
" style="fill:#009900;fill-opacity:0.5;stroke:#009900;stroke-linejoin:miter;stroke-width:2;"/>
   </g>
   <g id="patch_46">
    <path clip-path="url(#pe0680900a4)" d="M 241.097693 149.629425 
C 242.76749 149.629425 244.369122 148.966007 245.549847 147.785282 
C 246.730572 146.604557 247.393989 145.002926 247.393989 143.333128 
C 247.393989 141.663331 246.730572 140.0617 245.549847 138.880975 
C 244.369122 137.70025 242.76749 137.036832 241.097693 137.036832 
C 239.427896 137.036832 237.826264 137.70025 236.645539 138.880975 
C 235.464814 140.0617 234.801397 141.663331 234.801397 143.333128 
C 234.801397 145.002926 235.464814 146.604557 236.645539 147.785282 
C 237.826264 148.966007 239.427896 149.629425 241.097693 149.629425 
z
" style="fill:#009900;fill-opacity:0.5;stroke:#009900;stroke-linejoin:miter;stroke-width:2;"/>
   </g>
   <g id="patch_47">
    <path clip-path="url(#pe0680900a4)" d="M 311.931025 190.525068 
C 313.600823 190.525068 315.202454 189.861651 316.383179 188.680926 
C 317.563904 187.500201 318.227322 185.898569 318.227322 184.228772 
C 318.227322 182.558975 317.563904 180.957343 316.383179 179.776618 
C 315.202454 178.595893 313.600823 177.932476 311.931025 177.932476 
C 310.261228 177.932476 308.659597 178.595893 307.478872 179.776618 
C 306.298147 180.957343 305.634729 182.558975 305.634729 184.228772 
C 305.634729 185.898569 306.298147 187.500201 307.478872 188.680926 
C 308.659597 189.861651 310.261228 190.525068 311.931025 190.525068 
z
" style="fill:#009900;fill-opacity:0.5;stroke:#009900;stroke-linejoin:miter;stroke-width:2;"/>
   </g>
   <g id="patch_48">
    <path clip-path="url(#pe0680900a4)" d="M 382.764358 149.629425 
C 384.434155 149.629425 386.035787 148.966007 387.216512 147.785282 
C 388.397237 146.604557 389.060654 145.002926 389.060654 143.333128 
C 389.060654 141.663331 388.397237 140.0617 387.216512 138.880975 
C 386.035787 137.70025 384.434155 137.036832 382.764358 137.036832 
C 381.094561 137.036832 379.492929 137.70025 378.312204 138.880975 
C 377.131479 140.0617 376.468062 141.663331 376.468062 143.333128 
C 376.468062 145.002926 377.131479 146.604557 378.312204 147.785282 
C 379.492929 148.966007 381.094561 149.629425 382.764358 149.629425 
z
" style="fill:#009900;fill-opacity:0.5;stroke:#009900;stroke-linejoin:miter;stroke-width:2;"/>
   </g>
   <g id="patch_49">
    <path clip-path="url(#pe0680900a4)" d="M 453.59769 190.525068 
C 455.267488 190.525068 456.869119 189.861651 458.049844 188.680926 
C 459.230569 187.500201 459.893987 185.898569 459.893987 184.228772 
C 459.893987 182.558975 459.230569 180.957343 458.049844 179.776618 
C 456.869119 178.595893 455.267488 177.932476 453.59769 177.932476 
C 451.927893 177.932476 450.326262 178.595893 449.145537 179.776618 
C 447.964812 180.957343 447.301394 182.558975 447.301394 184.228772 
C 447.301394 185.898569 447.964812 187.500201 449.145537 188.680926 
C 450.326262 189.861651 451.927893 190.525068 453.59769 190.525068 
z
" style="fill:#009900;fill-opacity:0.5;stroke:#009900;stroke-linejoin:miter;stroke-width:2;"/>
   </g>
   <g id="patch_50">
    <path clip-path="url(#pe0680900a4)" d="M 524.431023 149.629425 
C 526.10082 149.629425 527.702451 148.966007 528.883176 147.785282 
C 530.063901 146.604557 530.727319 145.002926 530.727319 143.333128 
C 530.727319 141.663331 530.063901 140.0617 528.883176 138.880975 
C 527.702451 137.70025 526.10082 137.036832 524.431023 137.036832 
C 522.761225 137.036832 521.159594 137.70025 519.978869 138.880975 
C 518.798144 140.0617 518.134726 141.663331 518.134726 143.333128 
C 518.134726 145.002926 518.798144 146.604557 519.978869 147.785282 
C 521.159594 148.966007 522.761225 149.629425 524.431023 149.629425 
z
" style="fill:#009900;fill-opacity:0.5;stroke:#009900;stroke-linejoin:miter;stroke-width:2;"/>
   </g>
   <g id="patch_51">
    <path clip-path="url(#pe0680900a4)" d="M 170.264361 108.733781 
C 171.934158 108.733781 173.535789 108.070364 174.716514 106.889639 
C 175.897239 105.708914 176.560657 104.107282 176.560657 102.437485 
C 176.560657 100.767688 175.897239 99.166056 174.716514 97.985331 
C 173.535789 96.804606 171.934158 96.141189 170.264361 96.141189 
C 168.594563 96.141189 166.992932 96.804606 165.812207 97.985331 
C 164.631482 99.166056 163.968064 100.767688 163.968064 102.437485 
C 163.968064 104.107282 164.631482 105.708914 165.812207 106.889639 
C 166.992932 108.070364 168.594563 108.733781 170.264361 108.733781 
z
" style="fill:#009900;fill-opacity:0.5;stroke:#009900;stroke-linejoin:miter;stroke-width:2;"/>
   </g>
   <g id="patch_52">
    <path clip-path="url(#pe0680900a4)" d="M 241.097693 67.838137 
C 242.76749 67.838137 244.369122 67.17472 245.549847 65.993995 
C 246.730572 64.81327 247.393989 63.211639 247.393989 61.541841 
C 247.393989 59.872044 246.730572 58.270412 245.549847 57.089688 
C 244.369122 55.908963 242.76749 55.245545 241.097693 55.245545 
C 239.427896 55.245545 237.826264 55.908963 236.645539 57.089688 
C 235.464814 58.270412 234.801397 59.872044 234.801397 61.541841 
C 234.801397 63.211639 235.464814 64.81327 236.645539 65.993995 
C 237.826264 67.17472 239.427896 67.838137 241.097693 67.838137 
z
" style="fill:#009900;fill-opacity:0.5;stroke:#009900;stroke-linejoin:miter;stroke-width:2;"/>
   </g>
   <g id="patch_53">
    <path clip-path="url(#pe0680900a4)" d="M 311.931025 108.733781 
C 313.600823 108.733781 315.202454 108.070364 316.383179 106.889639 
C 317.563904 105.708914 318.227322 104.107282 318.227322 102.437485 
C 318.227322 100.767688 317.563904 99.166056 316.383179 97.985331 
C 315.202454 96.804606 313.600823 96.141189 311.931025 96.141189 
C 310.261228 96.141189 308.659597 96.804606 307.478872 97.985331 
C 306.298147 99.166056 305.634729 100.767688 305.634729 102.437485 
C 305.634729 104.107282 306.298147 105.708914 307.478872 106.889639 
C 308.659597 108.070364 310.261228 108.733781 311.931025 108.733781 
z
" style="fill:#009900;fill-opacity:0.5;stroke:#009900;stroke-linejoin:miter;stroke-width:2;"/>
   </g>
   <g id="patch_54">
    <path clip-path="url(#pe0680900a4)" d="M 382.764358 67.838137 
C 384.434155 67.838137 386.035787 67.17472 387.216512 65.993995 
C 388.397237 64.81327 389.060654 63.211639 389.060654 61.541841 
C 389.060654 59.872044 388.397237 58.270412 387.216512 57.089688 
C 386.035787 55.908963 384.434155 55.245545 382.764358 55.245545 
C 381.094561 55.245545 379.492929 55.908963 378.312204 57.089688 
C 377.131479 58.270412 376.468062 59.872044 376.468062 61.541841 
C 376.468062 63.211639 377.131479 64.81327 378.312204 65.993995 
C 379.492929 67.17472 381.094561 67.838137 382.764358 67.838137 
z
" style="fill:#009900;fill-opacity:0.5;stroke:#009900;stroke-linejoin:miter;stroke-width:2;"/>
   </g>
   <g id="patch_55">
    <path clip-path="url(#pe0680900a4)" d="M 453.59769 108.733781 
C 455.267488 108.733781 456.869119 108.070364 458.049844 106.889639 
C 459.230569 105.708914 459.893987 104.107282 459.893987 102.437485 
C 459.893987 100.767688 459.230569 99.166056 458.049844 97.985331 
C 456.869119 96.804606 455.267488 96.141189 453.59769 96.141189 
C 451.927893 96.141189 450.326262 96.804606 449.145537 97.985331 
C 447.964812 99.166056 447.301394 100.767688 447.301394 102.437485 
C 447.301394 104.107282 447.964812 105.708914 449.145537 106.889639 
C 450.326262 108.070364 451.927893 108.733781 453.59769 108.733781 
z
" style="fill:#009900;fill-opacity:0.5;stroke:#009900;stroke-linejoin:miter;stroke-width:2;"/>
   </g>
   <g id="patch_56">
    <path clip-path="url(#pe0680900a4)" d="M 524.431023 67.838137 
C 526.10082 67.838137 527.702451 67.17472 528.883176 65.993995 
C 530.063901 64.81327 530.727319 63.211639 530.727319 61.541841 
C 530.727319 59.872044 530.063901 58.270412 528.883176 57.089688 
C 527.702451 55.908963 526.10082 55.245545 524.431023 55.245545 
C 522.761225 55.245545 521.159594 55.908963 519.978869 57.089688 
C 518.798144 58.270412 518.134726 59.872044 518.134726 61.541841 
C 518.134726 63.211639 518.798144 64.81327 519.978869 65.993995 
C 521.159594 67.17472 522.761225 67.838137 524.431023 67.838137 
z
" style="fill:#009900;fill-opacity:0.5;stroke:#009900;stroke-linejoin:miter;stroke-width:2;"/>
   </g>
   <g id="patch_57">
    <path clip-path="url(#pe0680900a4)" d="M 170.264361 26.942494 
C 171.934158 26.942494 173.535789 26.279076 174.716514 25.098351 
C 175.897239 23.917626 176.560657 22.315995 176.560657 20.646198 
C 176.560657 18.9764 175.897239 17.374769 174.716514 16.194044 
C 173.535789 15.013319 171.934158 14.349902 170.264361 14.349902 
C 168.594563 14.349902 166.992932 15.013319 165.812207 16.194044 
C 164.631482 17.374769 163.968064 18.9764 163.968064 20.646198 
C 163.968064 22.315995 164.631482 23.917626 165.812207 25.098351 
C 166.992932 26.279076 168.594563 26.942494 170.264361 26.942494 
z
" style="fill:#009900;fill-opacity:0.5;stroke:#009900;stroke-linejoin:miter;stroke-width:2;"/>
   </g>
   <g id="patch_58">
    <path clip-path="url(#pe0680900a4)" d="M 241.097693 -13.95315 
C 242.76749 -13.95315 244.369122 -14.616567 245.549847 -15.797292 
C 246.730572 -16.978017 247.393989 -18.579649 247.393989 -20.249446 
C 247.393989 -21.919243 246.730572 -23.520875 245.549847 -24.7016 
C 244.369122 -25.882325 242.76749 -26.545742 241.097693 -26.545742 
C 239.427896 -26.545742 237.826264 -25.882325 236.645539 -24.7016 
C 235.464814 -23.520875 234.801397 -21.919243 234.801397 -20.249446 
C 234.801397 -18.579649 235.464814 -16.978017 236.645539 -15.797292 
C 237.826264 -14.616567 239.427896 -13.95315 241.097693 -13.95315 
z
" style="fill:#009900;fill-opacity:0.5;stroke:#009900;stroke-linejoin:miter;stroke-width:2;"/>
   </g>
   <g id="patch_59">
    <path clip-path="url(#pe0680900a4)" d="M 311.931025 26.942494 
C 313.600823 26.942494 315.202454 26.279076 316.383179 25.098351 
C 317.563904 23.917626 318.227322 22.315995 318.227322 20.646198 
C 318.227322 18.9764 317.563904 17.374769 316.383179 16.194044 
C 315.202454 15.013319 313.600823 14.349902 311.931025 14.349902 
C 310.261228 14.349902 308.659597 15.013319 307.478872 16.194044 
C 306.298147 17.374769 305.634729 18.9764 305.634729 20.646198 
C 305.634729 22.315995 306.298147 23.917626 307.478872 25.098351 
C 308.659597 26.279076 310.261228 26.942494 311.931025 26.942494 
z
" style="fill:#009900;fill-opacity:0.5;stroke:#009900;stroke-linejoin:miter;stroke-width:2;"/>
   </g>
   <g id="patch_60">
    <path clip-path="url(#pe0680900a4)" d="M 382.764358 -13.95315 
C 384.434155 -13.95315 386.035787 -14.616567 387.216512 -15.797292 
C 388.397237 -16.978017 389.060654 -18.579649 389.060654 -20.249446 
C 389.060654 -21.919243 388.397237 -23.520875 387.216512 -24.7016 
C 386.035787 -25.882325 384.434155 -26.545742 382.764358 -26.545742 
C 381.094561 -26.545742 379.492929 -25.882325 378.312204 -24.7016 
C 377.131479 -23.520875 376.468062 -21.919243 376.468062 -20.249446 
C 376.468062 -18.579649 377.131479 -16.978017 378.312204 -15.797292 
C 379.492929 -14.616567 381.094561 -13.95315 382.764358 -13.95315 
z
" style="fill:#009900;fill-opacity:0.5;stroke:#009900;stroke-linejoin:miter;stroke-width:2;"/>
   </g>
   <g id="patch_61">
    <path clip-path="url(#pe0680900a4)" d="M 453.59769 26.942494 
C 455.267488 26.942494 456.869119 26.279076 458.049844 25.098351 
C 459.230569 23.917626 459.893987 22.315995 459.893987 20.646198 
C 459.893987 18.9764 459.230569 17.374769 458.049844 16.194044 
C 456.869119 15.013319 455.267488 14.349902 453.59769 14.349902 
C 451.927893 14.349902 450.326262 15.013319 449.145537 16.194044 
C 447.964812 17.374769 447.301394 18.9764 447.301394 20.646198 
C 447.301394 22.315995 447.964812 23.917626 449.145537 25.098351 
C 450.326262 26.279076 451.927893 26.942494 453.59769 26.942494 
z
" style="fill:#009900;fill-opacity:0.5;stroke:#009900;stroke-linejoin:miter;stroke-width:2;"/>
   </g>
   <g id="patch_62">
    <path clip-path="url(#pe0680900a4)" d="M 524.431023 -13.95315 
C 526.10082 -13.95315 527.702451 -14.616567 528.883176 -15.797292 
C 530.063901 -16.978017 530.727319 -18.579649 530.727319 -20.249446 
C 530.727319 -21.919243 530.063901 -23.520875 528.883176 -24.7016 
C 527.702451 -25.882325 526.10082 -26.545742 524.431023 -26.545742 
C 522.761225 -26.545742 521.159594 -25.882325 519.978869 -24.7016 
C 518.798144 -23.520875 518.134726 -21.919243 518.134726 -20.249446 
C 518.134726 -18.579649 518.798144 -16.978017 519.978869 -15.797292 
C 521.159594 -14.616567 522.761225 -13.95315 524.431023 -13.95315 
z
" style="fill:#009900;fill-opacity:0.5;stroke:#009900;stroke-linejoin:miter;stroke-width:2;"/>
   </g>
   <g id="patch_63">
    <path clip-path="url(#pe0680900a4)" d="M 159.245842 338.366902 
C 162.167988 338.366902 164.970843 337.205921 167.037111 335.139652 
C 169.10338 333.073384 170.264361 330.270529 170.264361 327.348383 
C 170.264361 324.426238 169.10338 321.623383 167.037111 319.557114 
C 164.970843 317.490846 162.167988 316.329865 159.245842 316.329865 
C 156.323697 316.329865 153.520842 317.490846 151.454573 319.557114 
C 149.388305 321.623383 148.227324 324.426238 148.227324 327.348383 
C 148.227324 330.270529 149.388305 333.073384 151.454573 335.139652 
C 153.520842 337.205921 156.323697 338.366902 159.245842 338.366902 
z
" style="fill:#cc0000;fill-opacity:0.1;stroke:#cc0000;stroke-dasharray:7.4,3.2;stroke-dashoffset:0;stroke-linejoin:miter;stroke-width:2;"/>
   </g>
   <g id="patch_64">
    <path clip-path="url(#pe0680900a4)" d="M 230.079175 297.471258 
C 233.00132 297.471258 235.804175 296.310278 237.870444 294.244009 
C 239.936712 292.17774 241.097693 289.374885 241.097693 286.45274 
C 241.097693 283.530595 239.936712 280.727739 237.870444 278.661471 
C 235.804175 276.595202 233.00132 275.434221 230.079175 275.434221 
C 227.157029 275.434221 224.354174 276.595202 222.287906 278.661471 
C 220.221637 280.727739 219.060656 283.530595 219.060656 286.45274 
C 219.060656 289.374885 220.221637 292.17774 222.287906 294.244009 
C 224.354174 296.310278 227.157029 297.471258 230.079175 297.471258 
z
" style="fill:#cc0000;fill-opacity:0.1;stroke:#cc0000;stroke-dasharray:7.4,3.2;stroke-dashoffset:0;stroke-linejoin:miter;stroke-width:2;"/>
   </g>
   <g id="patch_65">
    <path clip-path="url(#pe0680900a4)" d="M 300.912507 338.366902 
C 303.834652 338.366902 306.637507 337.205921 308.703776 335.139652 
C 310.770045 333.073384 311.931025 330.270529 311.931025 327.348383 
C 311.931025 324.426238 310.770045 321.623383 308.703776 319.557114 
C 306.637507 317.490846 303.834652 316.329865 300.912507 316.329865 
C 297.990362 316.329865 295.187507 317.490846 293.121238 319.557114 
C 291.054969 321.623383 289.893989 324.426238 289.893989 327.348383 
C 289.893989 330.270529 291.054969 333.073384 293.121238 335.139652 
C 295.187507 337.205921 297.990362 338.366902 300.912507 338.366902 
z
" style="fill:#cc0000;fill-opacity:0.1;stroke:#cc0000;stroke-dasharray:7.4,3.2;stroke-dashoffset:0;stroke-linejoin:miter;stroke-width:2;"/>
   </g>
   <g id="patch_66">
    <path clip-path="url(#pe0680900a4)" d="M 371.74584 297.471258 
C 374.667985 297.471258 377.47084 296.310278 379.537109 294.244009 
C 381.603377 292.17774 382.764358 289.374885 382.764358 286.45274 
C 382.764358 283.530595 381.603377 280.727739 379.537109 278.661471 
C 377.47084 276.595202 374.667985 275.434221 371.74584 275.434221 
C 368.823694 275.434221 366.020839 276.595202 363.95457 278.661471 
C 361.888302 280.727739 360.727321 283.530595 360.727321 286.45274 
C 360.727321 289.374885 361.888302 292.17774 363.95457 294.244009 
C 366.020839 296.310278 368.823694 297.471258 371.74584 297.471258 
z
" style="fill:#cc0000;fill-opacity:0.1;stroke:#cc0000;stroke-dasharray:7.4,3.2;stroke-dashoffset:0;stroke-linejoin:miter;stroke-width:2;"/>
   </g>
   <g id="patch_67">
    <path clip-path="url(#pe0680900a4)" d="M 442.579172 338.366902 
C 445.501317 338.366902 448.304172 337.205921 450.370441 335.139652 
C 452.43671 333.073384 453.59769 330.270529 453.59769 327.348383 
C 453.59769 324.426238 452.43671 321.623383 450.370441 319.557114 
C 448.304172 317.490846 445.501317 316.329865 442.579172 316.329865 
C 439.657027 316.329865 436.854172 317.490846 434.787903 319.557114 
C 432.721634 321.623383 431.560654 324.426238 431.560654 327.348383 
C 431.560654 330.270529 432.721634 333.073384 434.787903 335.139652 
C 436.854172 337.205921 439.657027 338.366902 442.579172 338.366902 
z
" style="fill:#cc0000;fill-opacity:0.1;stroke:#cc0000;stroke-dasharray:7.4,3.2;stroke-dashoffset:0;stroke-linejoin:miter;stroke-width:2;"/>
   </g>
   <g id="patch_68">
    <path clip-path="url(#pe0680900a4)" d="M 513.412504 297.471258 
C 516.33465 297.471258 519.137505 296.310278 521.203773 294.244009 
C 523.270042 292.17774 524.431023 289.374885 524.431023 286.45274 
C 524.431023 283.530595 523.270042 280.727739 521.203773 278.661471 
C 519.137505 276.595202 516.33465 275.434221 513.412504 275.434221 
C 510.490359 275.434221 507.687504 276.595202 505.621235 278.661471 
C 503.554967 280.727739 502.393986 283.530595 502.393986 286.45274 
C 502.393986 289.374885 503.554967 292.17774 505.621235 294.244009 
C 507.687504 296.310278 510.490359 297.471258 513.412504 297.471258 
z
" style="fill:#cc0000;fill-opacity:0.1;stroke:#cc0000;stroke-dasharray:7.4,3.2;stroke-dashoffset:0;stroke-linejoin:miter;stroke-width:2;"/>
   </g>
   <g id="patch_69">
    <path clip-path="url(#pe0680900a4)" d="M 159.245842 256.575615 
C 162.167988 256.575615 164.970843 255.414634 167.037111 253.348365 
C 169.10338 251.282097 170.264361 248.479241 170.264361 245.557096 
C 170.264361 242.634951 169.10338 239.832096 167.037111 237.765827 
C 164.970843 235.699558 162.167988 234.538578 159.245842 234.538578 
C 156.323697 234.538578 153.520842 235.699558 151.454573 237.765827 
C 149.388305 239.832096 148.227324 242.634951 148.227324 245.557096 
C 148.227324 248.479241 149.388305 251.282097 151.454573 253.348365 
C 153.520842 255.414634 156.323697 256.575615 159.245842 256.575615 
z
" style="fill:#cc0000;fill-opacity:0.1;stroke:#cc0000;stroke-dasharray:7.4,3.2;stroke-dashoffset:0;stroke-linejoin:miter;stroke-width:2;"/>
   </g>
   <g id="patch_70">
    <path clip-path="url(#pe0680900a4)" d="M 230.079175 215.679971 
C 233.00132 215.679971 235.804175 214.51899 237.870444 212.452722 
C 239.936712 210.386453 241.097693 207.583598 241.097693 204.661453 
C 241.097693 201.739307 239.936712 198.936452 237.870444 196.870184 
C 235.804175 194.803915 233.00132 193.642934 230.079175 193.642934 
C 227.157029 193.642934 224.354174 194.803915 222.287906 196.870184 
C 220.221637 198.936452 219.060656 201.739307 219.060656 204.661453 
C 219.060656 207.583598 220.221637 210.386453 222.287906 212.452722 
C 224.354174 214.51899 227.157029 215.679971 230.079175 215.679971 
z
" style="fill:#cc0000;fill-opacity:0.1;stroke:#cc0000;stroke-dasharray:7.4,3.2;stroke-dashoffset:0;stroke-linejoin:miter;stroke-width:2;"/>
   </g>
   <g id="patch_71">
    <path clip-path="url(#pe0680900a4)" d="M 300.912507 256.575615 
C 303.834652 256.575615 306.637507 255.414634 308.703776 253.348365 
C 310.770045 251.282097 311.931025 248.479241 311.931025 245.557096 
C 311.931025 242.634951 310.770045 239.832096 308.703776 237.765827 
C 306.637507 235.699558 303.834652 234.538578 300.912507 234.538578 
C 297.990362 234.538578 295.187507 235.699558 293.121238 237.765827 
C 291.054969 239.832096 289.893989 242.634951 289.893989 245.557096 
C 289.893989 248.479241 291.054969 251.282097 293.121238 253.348365 
C 295.187507 255.414634 297.990362 256.575615 300.912507 256.575615 
z
" style="fill:#cc0000;fill-opacity:0.1;stroke:#cc0000;stroke-dasharray:7.4,3.2;stroke-dashoffset:0;stroke-linejoin:miter;stroke-width:2;"/>
   </g>
   <g id="patch_72">
    <path clip-path="url(#pe0680900a4)" d="M 371.74584 215.679971 
C 374.667985 215.679971 377.47084 214.51899 379.537109 212.452722 
C 381.603377 210.386453 382.764358 207.583598 382.764358 204.661453 
C 382.764358 201.739307 381.603377 198.936452 379.537109 196.870184 
C 377.47084 194.803915 374.667985 193.642934 371.74584 193.642934 
C 368.823694 193.642934 366.020839 194.803915 363.95457 196.870184 
C 361.888302 198.936452 360.727321 201.739307 360.727321 204.661453 
C 360.727321 207.583598 361.888302 210.386453 363.95457 212.452722 
C 366.020839 214.51899 368.823694 215.679971 371.74584 215.679971 
z
" style="fill:#cc0000;fill-opacity:0.1;stroke:#cc0000;stroke-dasharray:7.4,3.2;stroke-dashoffset:0;stroke-linejoin:miter;stroke-width:2;"/>
   </g>
   <g id="patch_73">
    <path clip-path="url(#pe0680900a4)" d="M 442.579172 256.575615 
C 445.501317 256.575615 448.304172 255.414634 450.370441 253.348365 
C 452.43671 251.282097 453.59769 248.479241 453.59769 245.557096 
C 453.59769 242.634951 452.43671 239.832096 450.370441 237.765827 
C 448.304172 235.699558 445.501317 234.538578 442.579172 234.538578 
C 439.657027 234.538578 436.854172 235.699558 434.787903 237.765827 
C 432.721634 239.832096 431.560654 242.634951 431.560654 245.557096 
C 431.560654 248.479241 432.721634 251.282097 434.787903 253.348365 
C 436.854172 255.414634 439.657027 256.575615 442.579172 256.575615 
z
" style="fill:#cc0000;fill-opacity:0.1;stroke:#cc0000;stroke-dasharray:7.4,3.2;stroke-dashoffset:0;stroke-linejoin:miter;stroke-width:2;"/>
   </g>
   <g id="patch_74">
    <path clip-path="url(#pe0680900a4)" d="M 513.412504 215.679971 
C 516.33465 215.679971 519.137505 214.51899 521.203773 212.452722 
C 523.270042 210.386453 524.431023 207.583598 524.431023 204.661453 
C 524.431023 201.739307 523.270042 198.936452 521.203773 196.870184 
C 519.137505 194.803915 516.33465 193.642934 513.412504 193.642934 
C 510.490359 193.642934 507.687504 194.803915 505.621235 196.870184 
C 503.554967 198.936452 502.393986 201.739307 502.393986 204.661453 
C 502.393986 207.583598 503.554967 210.386453 505.621235 212.452722 
C 507.687504 214.51899 510.490359 215.679971 513.412504 215.679971 
z
" style="fill:#cc0000;fill-opacity:0.1;stroke:#cc0000;stroke-dasharray:7.4,3.2;stroke-dashoffset:0;stroke-linejoin:miter;stroke-width:2;"/>
   </g>
   <g id="patch_75">
    <path clip-path="url(#pe0680900a4)" d="M 159.245842 174.784328 
C 162.167988 174.784328 164.970843 173.623347 167.037111 171.557078 
C 169.10338 169.49081 170.264361 166.687954 170.264361 163.765809 
C 170.264361 160.843664 169.10338 158.040809 167.037111 155.97454 
C 164.970843 153.908271 162.167988 152.747291 159.245842 152.747291 
C 156.323697 152.747291 153.520842 153.908271 151.454573 155.97454 
C 149.388305 158.040809 148.227324 160.843664 148.227324 163.765809 
C 148.227324 166.687954 149.388305 169.49081 151.454573 171.557078 
C 153.520842 173.623347 156.323697 174.784328 159.245842 174.784328 
z
" style="fill:#cc0000;fill-opacity:0.1;stroke:#cc0000;stroke-dasharray:7.4,3.2;stroke-dashoffset:0;stroke-linejoin:miter;stroke-width:2;"/>
   </g>
   <g id="patch_76">
    <path clip-path="url(#pe0680900a4)" d="M 230.079175 133.888684 
C 233.00132 133.888684 235.804175 132.727703 237.870444 130.661435 
C 239.936712 128.595166 241.097693 125.792311 241.097693 122.870166 
C 241.097693 119.94802 239.936712 117.145165 237.870444 115.078897 
C 235.804175 113.012628 233.00132 111.851647 230.079175 111.851647 
C 227.157029 111.851647 224.354174 113.012628 222.287906 115.078897 
C 220.221637 117.145165 219.060656 119.94802 219.060656 122.870166 
C 219.060656 125.792311 220.221637 128.595166 222.287906 130.661435 
C 224.354174 132.727703 227.157029 133.888684 230.079175 133.888684 
z
" style="fill:#cc0000;fill-opacity:0.1;stroke:#cc0000;stroke-dasharray:7.4,3.2;stroke-dashoffset:0;stroke-linejoin:miter;stroke-width:2;"/>
   </g>
   <g id="patch_77">
    <path clip-path="url(#pe0680900a4)" d="M 300.912507 174.784328 
C 303.834652 174.784328 306.637507 173.623347 308.703776 171.557078 
C 310.770045 169.49081 311.931025 166.687954 311.931025 163.765809 
C 311.931025 160.843664 310.770045 158.040809 308.703776 155.97454 
C 306.637507 153.908271 303.834652 152.747291 300.912507 152.747291 
C 297.990362 152.747291 295.187507 153.908271 293.121238 155.97454 
C 291.054969 158.040809 289.893989 160.843664 289.893989 163.765809 
C 289.893989 166.687954 291.054969 169.49081 293.121238 171.557078 
C 295.187507 173.623347 297.990362 174.784328 300.912507 174.784328 
z
" style="fill:#cc0000;fill-opacity:0.1;stroke:#cc0000;stroke-dasharray:7.4,3.2;stroke-dashoffset:0;stroke-linejoin:miter;stroke-width:2;"/>
   </g>
   <g id="patch_78">
    <path clip-path="url(#pe0680900a4)" d="M 371.74584 133.888684 
C 374.667985 133.888684 377.47084 132.727703 379.537109 130.661435 
C 381.603377 128.595166 382.764358 125.792311 382.764358 122.870166 
C 382.764358 119.94802 381.603377 117.145165 379.537109 115.078897 
C 377.47084 113.012628 374.667985 111.851647 371.74584 111.851647 
C 368.823694 111.851647 366.020839 113.012628 363.95457 115.078897 
C 361.888302 117.145165 360.727321 119.94802 360.727321 122.870166 
C 360.727321 125.792311 361.888302 128.595166 363.95457 130.661435 
C 366.020839 132.727703 368.823694 133.888684 371.74584 133.888684 
z
" style="fill:#cc0000;fill-opacity:0.1;stroke:#cc0000;stroke-dasharray:7.4,3.2;stroke-dashoffset:0;stroke-linejoin:miter;stroke-width:2;"/>
   </g>
   <g id="patch_79">
    <path clip-path="url(#pe0680900a4)" d="M 442.579172 174.784328 
C 445.501317 174.784328 448.304172 173.623347 450.370441 171.557078 
C 452.43671 169.49081 453.59769 166.687954 453.59769 163.765809 
C 453.59769 160.843664 452.43671 158.040809 450.370441 155.97454 
C 448.304172 153.908271 445.501317 152.747291 442.579172 152.747291 
C 439.657027 152.747291 436.854172 153.908271 434.787903 155.97454 
C 432.721634 158.040809 431.560654 160.843664 431.560654 163.765809 
C 431.560654 166.687954 432.721634 169.49081 434.787903 171.557078 
C 436.854172 173.623347 439.657027 174.784328 442.579172 174.784328 
z
" style="fill:#cc0000;fill-opacity:0.1;stroke:#cc0000;stroke-dasharray:7.4,3.2;stroke-dashoffset:0;stroke-linejoin:miter;stroke-width:2;"/>
   </g>
   <g id="patch_80">
    <path clip-path="url(#pe0680900a4)" d="M 513.412504 133.888684 
C 516.33465 133.888684 519.137505 132.727703 521.203773 130.661435 
C 523.270042 128.595166 524.431023 125.792311 524.431023 122.870166 
C 524.431023 119.94802 523.270042 117.145165 521.203773 115.078897 
C 519.137505 113.012628 516.33465 111.851647 513.412504 111.851647 
C 510.490359 111.851647 507.687504 113.012628 505.621235 115.078897 
C 503.554967 117.145165 502.393986 119.94802 502.393986 122.870166 
C 502.393986 125.792311 503.554967 128.595166 505.621235 130.661435 
C 507.687504 132.727703 510.490359 133.888684 513.412504 133.888684 
z
" style="fill:#cc0000;fill-opacity:0.1;stroke:#cc0000;stroke-dasharray:7.4,3.2;stroke-dashoffset:0;stroke-linejoin:miter;stroke-width:2;"/>
   </g>
   <g id="patch_81">
    <path clip-path="url(#pe0680900a4)" d="M 159.245842 92.99304 
C 162.167988 92.99304 164.970843 91.83206 167.037111 89.765791 
C 169.10338 87.699522 170.264361 84.896667 170.264361 81.974522 
C 170.264361 79.052377 169.10338 76.249522 167.037111 74.183253 
C 164.970843 72.116984 162.167988 70.956004 159.245842 70.956004 
C 156.323697 70.956004 153.520842 72.116984 151.454573 74.183253 
C 149.388305 76.249522 148.227324 79.052377 148.227324 81.974522 
C 148.227324 84.896667 149.388305 87.699522 151.454573 89.765791 
C 153.520842 91.83206 156.323697 92.99304 159.245842 92.99304 
z
" style="fill:#cc0000;fill-opacity:0.1;stroke:#cc0000;stroke-dasharray:7.4,3.2;stroke-dashoffset:0;stroke-linejoin:miter;stroke-width:2;"/>
   </g>
   <g id="patch_82">
    <path clip-path="url(#pe0680900a4)" d="M 230.079175 52.097397 
C 233.00132 52.097397 235.804175 50.936416 237.870444 48.870148 
C 239.936712 46.803879 241.097693 44.001024 241.097693 41.078879 
C 241.097693 38.156733 239.936712 35.353878 237.870444 33.287609 
C 235.804175 31.221341 233.00132 30.06036 230.079175 30.06036 
C 227.157029 30.06036 224.354174 31.221341 222.287906 33.287609 
C 220.221637 35.353878 219.060656 38.156733 219.060656 41.078879 
C 219.060656 44.001024 220.221637 46.803879 222.287906 48.870148 
C 224.354174 50.936416 227.157029 52.097397 230.079175 52.097397 
z
" style="fill:#cc0000;fill-opacity:0.1;stroke:#cc0000;stroke-dasharray:7.4,3.2;stroke-dashoffset:0;stroke-linejoin:miter;stroke-width:2;"/>
   </g>
   <g id="patch_83">
    <path clip-path="url(#pe0680900a4)" d="M 300.912507 92.99304 
C 303.834652 92.99304 306.637507 91.83206 308.703776 89.765791 
C 310.770045 87.699522 311.931025 84.896667 311.931025 81.974522 
C 311.931025 79.052377 310.770045 76.249522 308.703776 74.183253 
C 306.637507 72.116984 303.834652 70.956004 300.912507 70.956004 
C 297.990362 70.956004 295.187507 72.116984 293.121238 74.183253 
C 291.054969 76.249522 289.893989 79.052377 289.893989 81.974522 
C 289.893989 84.896667 291.054969 87.699522 293.121238 89.765791 
C 295.187507 91.83206 297.990362 92.99304 300.912507 92.99304 
z
" style="fill:#cc0000;fill-opacity:0.1;stroke:#cc0000;stroke-dasharray:7.4,3.2;stroke-dashoffset:0;stroke-linejoin:miter;stroke-width:2;"/>
   </g>
   <g id="patch_84">
    <path clip-path="url(#pe0680900a4)" d="M 371.74584 52.097397 
C 374.667985 52.097397 377.47084 50.936416 379.537109 48.870148 
C 381.603377 46.803879 382.764358 44.001024 382.764358 41.078879 
C 382.764358 38.156733 381.603377 35.353878 379.537109 33.287609 
C 377.47084 31.221341 374.667985 30.06036 371.74584 30.06036 
C 368.823694 30.06036 366.020839 31.221341 363.95457 33.287609 
C 361.888302 35.353878 360.727321 38.156733 360.727321 41.078879 
C 360.727321 44.001024 361.888302 46.803879 363.95457 48.870148 
C 366.020839 50.936416 368.823694 52.097397 371.74584 52.097397 
z
" style="fill:#cc0000;fill-opacity:0.1;stroke:#cc0000;stroke-dasharray:7.4,3.2;stroke-dashoffset:0;stroke-linejoin:miter;stroke-width:2;"/>
   </g>
   <g id="patch_85">
    <path clip-path="url(#pe0680900a4)" d="M 442.579172 92.99304 
C 445.501317 92.99304 448.304172 91.83206 450.370441 89.765791 
C 452.43671 87.699522 453.59769 84.896667 453.59769 81.974522 
C 453.59769 79.052377 452.43671 76.249522 450.370441 74.183253 
C 448.304172 72.116984 445.501317 70.956004 442.579172 70.956004 
C 439.657027 70.956004 436.854172 72.116984 434.787903 74.183253 
C 432.721634 76.249522 431.560654 79.052377 431.560654 81.974522 
C 431.560654 84.896667 432.721634 87.699522 434.787903 89.765791 
C 436.854172 91.83206 439.657027 92.99304 442.579172 92.99304 
z
" style="fill:#cc0000;fill-opacity:0.1;stroke:#cc0000;stroke-dasharray:7.4,3.2;stroke-dashoffset:0;stroke-linejoin:miter;stroke-width:2;"/>
   </g>
   <g id="patch_86">
    <path clip-path="url(#pe0680900a4)" d="M 513.412504 52.097397 
C 516.33465 52.097397 519.137505 50.936416 521.203773 48.870148 
C 523.270042 46.803879 524.431023 44.001024 524.431023 41.078879 
C 524.431023 38.156733 523.270042 35.353878 521.203773 33.287609 
C 519.137505 31.221341 516.33465 30.06036 513.412504 30.06036 
C 510.490359 30.06036 507.687504 31.221341 505.621235 33.287609 
C 503.554967 35.353878 502.393986 38.156733 502.393986 41.078879 
C 502.393986 44.001024 503.554967 46.803879 505.621235 48.870148 
C 507.687504 50.936416 510.490359 52.097397 513.412504 52.097397 
z
" style="fill:#cc0000;fill-opacity:0.1;stroke:#cc0000;stroke-dasharray:7.4,3.2;stroke-dashoffset:0;stroke-linejoin:miter;stroke-width:2;"/>
   </g>
   <g id="patch_87">
    <path clip-path="url(#pe0680900a4)" d="M 159.245842 11.201753 
C 162.167988 11.201753 164.970843 10.040773 167.037111 7.974504 
C 169.10338 5.908235 170.264361 3.10538 170.264361 0.183235 
C 170.264361 -2.73891 169.10338 -5.541765 167.037111 -7.608034 
C 164.970843 -9.674303 162.167988 -10.835283 159.245842 -10.835283 
C 156.323697 -10.835283 153.520842 -9.674303 151.454573 -7.608034 
C 149.388305 -5.541765 148.227324 -2.73891 148.227324 0.183235 
C 148.227324 3.10538 149.388305 5.908235 151.454573 7.974504 
C 153.520842 10.040773 156.323697 11.201753 159.245842 11.201753 
z
" style="fill:#cc0000;fill-opacity:0.1;stroke:#cc0000;stroke-dasharray:7.4,3.2;stroke-dashoffset:0;stroke-linejoin:miter;stroke-width:2;"/>
   </g>
   <g id="patch_88">
    <path clip-path="url(#pe0680900a4)" d="M 230.079175 -29.69389 
C 233.00132 -29.69389 235.804175 -30.854871 237.870444 -32.921139 
C 239.936712 -34.987408 241.097693 -37.790263 241.097693 -40.712409 
C 241.097693 -43.634554 239.936712 -46.437409 237.870444 -48.503678 
C 235.804175 -50.569946 233.00132 -51.730927 230.079175 -51.730927 
C 227.157029 -51.730927 224.354174 -50.569946 222.287906 -48.503678 
C 220.221637 -46.437409 219.060656 -43.634554 219.060656 -40.712409 
C 219.060656 -37.790263 220.221637 -34.987408 222.287906 -32.921139 
C 224.354174 -30.854871 227.157029 -29.69389 230.079175 -29.69389 
z
" style="fill:#cc0000;fill-opacity:0.1;stroke:#cc0000;stroke-dasharray:7.4,3.2;stroke-dashoffset:0;stroke-linejoin:miter;stroke-width:2;"/>
   </g>
   <g id="patch_89">
    <path clip-path="url(#pe0680900a4)" d="M 300.912507 11.201753 
C 303.834652 11.201753 306.637507 10.040773 308.703776 7.974504 
C 310.770045 5.908235 311.931025 3.10538 311.931025 0.183235 
C 311.931025 -2.73891 310.770045 -5.541765 308.703776 -7.608034 
C 306.637507 -9.674303 303.834652 -10.835283 300.912507 -10.835283 
C 297.990362 -10.835283 295.187507 -9.674303 293.121238 -7.608034 
C 291.054969 -5.541765 289.893989 -2.73891 289.893989 0.183235 
C 289.893989 3.10538 291.054969 5.908235 293.121238 7.974504 
C 295.187507 10.040773 297.990362 11.201753 300.912507 11.201753 
z
" style="fill:#cc0000;fill-opacity:0.1;stroke:#cc0000;stroke-dasharray:7.4,3.2;stroke-dashoffset:0;stroke-linejoin:miter;stroke-width:2;"/>
   </g>
   <g id="patch_90">
    <path clip-path="url(#pe0680900a4)" d="M 371.74584 -29.69389 
C 374.667985 -29.69389 377.47084 -30.854871 379.537109 -32.921139 
C 381.603377 -34.987408 382.764358 -37.790263 382.764358 -40.712409 
C 382.764358 -43.634554 381.603377 -46.437409 379.537109 -48.503678 
C 377.47084 -50.569946 374.667985 -51.730927 371.74584 -51.730927 
C 368.823694 -51.730927 366.020839 -50.569946 363.95457 -48.503678 
C 361.888302 -46.437409 360.727321 -43.634554 360.727321 -40.712409 
C 360.727321 -37.790263 361.888302 -34.987408 363.95457 -32.921139 
C 366.020839 -30.854871 368.823694 -29.69389 371.74584 -29.69389 
z
" style="fill:#cc0000;fill-opacity:0.1;stroke:#cc0000;stroke-dasharray:7.4,3.2;stroke-dashoffset:0;stroke-linejoin:miter;stroke-width:2;"/>
   </g>
   <g id="patch_91">
    <path clip-path="url(#pe0680900a4)" d="M 442.579172 11.201753 
C 445.501317 11.201753 448.304172 10.040773 450.370441 7.974504 
C 452.43671 5.908235 453.59769 3.10538 453.59769 0.183235 
C 453.59769 -2.73891 452.43671 -5.541765 450.370441 -7.608034 
C 448.304172 -9.674303 445.501317 -10.835283 442.579172 -10.835283 
C 439.657027 -10.835283 436.854172 -9.674303 434.787903 -7.608034 
C 432.721634 -5.541765 431.560654 -2.73891 431.560654 0.183235 
C 431.560654 3.10538 432.721634 5.908235 434.787903 7.974504 
C 436.854172 10.040773 439.657027 11.201753 442.579172 11.201753 
z
" style="fill:#cc0000;fill-opacity:0.1;stroke:#cc0000;stroke-dasharray:7.4,3.2;stroke-dashoffset:0;stroke-linejoin:miter;stroke-width:2;"/>
   </g>
   <g id="patch_92">
    <path clip-path="url(#pe0680900a4)" d="M 513.412504 -29.69389 
C 516.33465 -29.69389 519.137505 -30.854871 521.203773 -32.921139 
C 523.270042 -34.987408 524.431023 -37.790263 524.431023 -40.712409 
C 524.431023 -43.634554 523.270042 -46.437409 521.203773 -48.503678 
C 519.137505 -50.569946 516.33465 -51.730927 513.412504 -51.730927 
C 510.490359 -51.730927 507.687504 -50.569946 505.621235 -48.503678 
C 503.554967 -46.437409 502.393986 -43.634554 502.393986 -40.712409 
C 502.393986 -37.790263 503.554967 -34.987408 505.621235 -32.921139 
C 507.687504 -30.854871 510.490359 -29.69389 513.412504 -29.69389 
z
" style="fill:#cc0000;fill-opacity:0.1;stroke:#cc0000;stroke-dasharray:7.4,3.2;stroke-dashoffset:0;stroke-linejoin:miter;stroke-width:2;"/>
   </g>
   <g id="matplotlib.axis_1">
    <g id="xtick_1">
     <g id="line2d_1">
      <defs>
       <path d="M 0 0 
L 0 3.5 
" id="md35389b727" style="stroke:#000000;stroke-width:0.8;"/>
      </defs>
      <g>
       <use style="stroke:#000000;stroke-width:0.8;" x="163.968064" xlink:href="#md35389b727" y="307.584"/>
      </g>
     </g>
     <g id="text_1">
      <!-- 4 -->
      <defs>
       <path d="M 10.59375 35.5 
L 73.1875 35.5 
L 73.1875 27.203125 
L 10.59375 27.203125 
z
" id="DejaVuSans-8722"/>
       <path d="M 37.796875 64.3125 
L 12.890625 25.390625 
L 37.796875 25.390625 
z
M 35.203125 72.90625 
L 47.609375 72.90625 
L 47.609375 25.390625 
L 58.015625 25.390625 
L 58.015625 17.1875 
L 47.609375 17.1875 
L 47.609375 0 
L 37.796875 0 
L 37.796875 17.1875 
L 4.890625 17.1875 
L 4.890625 26.703125 
z
" id="DejaVuSans-52"/>
      </defs>
      <g transform="translate(156.596971 322.182437)scale(0.1 -0.1)">
       <use xlink:href="#DejaVuSans-8722"/>
       <use x="83.789062" xlink:href="#DejaVuSans-52"/>
      </g>
     </g>
    </g>
    <g id="xtick_2">
     <g id="line2d_2">
      <g>
       <use style="stroke:#000000;stroke-width:0.8;" x="226.931027" xlink:href="#md35389b727" y="307.584"/>
      </g>
     </g>
     <g id="text_2">
      <!-- 2 -->
      <defs>
       <path d="M 19.1875 8.296875 
L 53.609375 8.296875 
L 53.609375 0 
L 7.328125 0 
L 7.328125 8.296875 
Q 12.9375 14.109375 22.625 23.890625 
Q 32.328125 33.6875 34.8125 36.53125 
Q 39.546875 41.84375 41.421875 45.53125 
Q 43.3125 49.21875 43.3125 52.78125 
Q 43.3125 58.59375 39.234375 62.25 
Q 35.15625 65.921875 28.609375 65.921875 
Q 23.96875 65.921875 18.8125 64.3125 
Q 13.671875 62.703125 7.8125 59.421875 
L 7.8125 69.390625 
Q 13.765625 71.78125 18.9375 73 
Q 24.125 74.21875 28.421875 74.21875 
Q 39.75 74.21875 46.484375 68.546875 
Q 53.21875 62.890625 53.21875 53.421875 
Q 53.21875 48.921875 51.53125 44.890625 
Q 49.859375 40.875 45.40625 35.40625 
Q 44.1875 33.984375 37.640625 27.21875 
Q 31.109375 20.453125 19.1875 8.296875 
z
" id="DejaVuSans-50"/>
      </defs>
      <g transform="translate(219.559933 322.182437)scale(0.1 -0.1)">
       <use xlink:href="#DejaVuSans-8722"/>
       <use x="83.789062" xlink:href="#DejaVuSans-50"/>
      </g>
     </g>
    </g>
    <g id="xtick_3">
     <g id="line2d_3">
      <g>
       <use style="stroke:#000000;stroke-width:0.8;" x="289.893989" xlink:href="#md35389b727" y="307.584"/>
      </g>
     </g>
     <g id="text_3">
      <!-- 0 -->
      <defs>
       <path d="M 31.78125 66.40625 
Q 24.171875 66.40625 20.328125 58.90625 
Q 16.5 51.421875 16.5 36.375 
Q 16.5 21.390625 20.328125 13.890625 
Q 24.171875 6.390625 31.78125 6.390625 
Q 39.453125 6.390625 43.28125 13.890625 
Q 47.125 21.390625 47.125 36.375 
Q 47.125 51.421875 43.28125 58.90625 
Q 39.453125 66.40625 31.78125 66.40625 
z
M 31.78125 74.21875 
Q 44.046875 74.21875 50.515625 64.515625 
Q 56.984375 54.828125 56.984375 36.375 
Q 56.984375 17.96875 50.515625 8.265625 
Q 44.046875 -1.421875 31.78125 -1.421875 
Q 19.53125 -1.421875 13.0625 8.265625 
Q 6.59375 17.96875 6.59375 36.375 
Q 6.59375 54.828125 13.0625 64.515625 
Q 19.53125 74.21875 31.78125 74.21875 
z
" id="DejaVuSans-48"/>
      </defs>
      <g transform="translate(286.712739 322.182437)scale(0.1 -0.1)">
       <use xlink:href="#DejaVuSans-48"/>
      </g>
     </g>
    </g>
   </g>
   <g id="matplotlib.axis_2">
    <g id="ytick_1">
     <g id="line2d_4">
      <defs>
       <path d="M 0 0 
L -3.5 0 
" id="m21bb2e8083" style="stroke:#000000;stroke-width:0.8;"/>
      </defs>
      <g>
       <use style="stroke:#000000;stroke-width:0.8;" x="134.874524" xlink:href="#m21bb2e8083" y="297.50154"/>
      </g>
     </g>
     <g id="text_4">
      <!-- 1 -->
      <defs>
       <path d="M 12.40625 8.296875 
L 28.515625 8.296875 
L 28.515625 63.921875 
L 10.984375 60.40625 
L 10.984375 69.390625 
L 28.421875 72.90625 
L 38.28125 72.90625 
L 38.28125 8.296875 
L 54.390625 8.296875 
L 54.390625 0 
L 12.40625 0 
z
" id="DejaVuSans-49"/>
      </defs>
      <g transform="translate(113.132337 301.300759)scale(0.1 -0.1)">
       <use xlink:href="#DejaVuSans-8722"/>
       <use x="83.789062" xlink:href="#DejaVuSans-49"/>
      </g>
     </g>
    </g>
    <g id="ytick_2">
     <g id="line2d_5">
      <g>
       <use style="stroke:#000000;stroke-width:0.8;" x="134.874524" xlink:href="#m21bb2e8083" y="266.020059"/>
      </g>
     </g>
     <g id="text_5">
      <!-- 0 -->
      <g transform="translate(121.512024 269.819278)scale(0.1 -0.1)">
       <use xlink:href="#DejaVuSans-48"/>
      </g>
     </g>
    </g>
    <g id="ytick_3">
     <g id="line2d_6">
      <g>
       <use style="stroke:#000000;stroke-width:0.8;" x="134.874524" xlink:href="#m21bb2e8083" y="234.538578"/>
      </g>
     </g>
     <g id="text_6">
      <!-- 1 -->
      <g transform="translate(121.512024 238.337797)scale(0.1 -0.1)">
       <use xlink:href="#DejaVuSans-49"/>
      </g>
     </g>
    </g>
    <g id="ytick_4">
     <g id="line2d_7">
      <g>
       <use style="stroke:#000000;stroke-width:0.8;" x="134.874524" xlink:href="#m21bb2e8083" y="203.057097"/>
      </g>
     </g>
     <g id="text_7">
      <!-- 2 -->
      <g transform="translate(121.512024 206.856316)scale(0.1 -0.1)">
       <use xlink:href="#DejaVuSans-50"/>
      </g>
     </g>
    </g>
    <g id="ytick_5">
     <g id="line2d_8">
      <g>
       <use style="stroke:#000000;stroke-width:0.8;" x="134.874524" xlink:href="#m21bb2e8083" y="171.575616"/>
      </g>
     </g>
     <g id="text_8">
      <!-- 3 -->
      <defs>
       <path d="M 40.578125 39.3125 
Q 47.65625 37.796875 51.625 33 
Q 55.609375 28.21875 55.609375 21.1875 
Q 55.609375 10.40625 48.1875 4.484375 
Q 40.765625 -1.421875 27.09375 -1.421875 
Q 22.515625 -1.421875 17.65625 -0.515625 
Q 12.796875 0.390625 7.625 2.203125 
L 7.625 11.71875 
Q 11.71875 9.328125 16.59375 8.109375 
Q 21.484375 6.890625 26.8125 6.890625 
Q 36.078125 6.890625 40.9375 10.546875 
Q 45.796875 14.203125 45.796875 21.1875 
Q 45.796875 27.640625 41.28125 31.265625 
Q 36.765625 34.90625 28.71875 34.90625 
L 20.21875 34.90625 
L 20.21875 43.015625 
L 29.109375 43.015625 
Q 36.375 43.015625 40.234375 45.921875 
Q 44.09375 48.828125 44.09375 54.296875 
Q 44.09375 59.90625 40.109375 62.90625 
Q 36.140625 65.921875 28.71875 65.921875 
Q 24.65625 65.921875 20.015625 65.03125 
Q 15.375 64.15625 9.8125 62.3125 
L 9.8125 71.09375 
Q 15.4375 72.65625 20.34375 73.4375 
Q 25.25 74.21875 29.59375 74.21875 
Q 40.828125 74.21875 47.359375 69.109375 
Q 53.90625 64.015625 53.90625 55.328125 
Q 53.90625 49.265625 50.4375 45.09375 
Q 46.96875 40.921875 40.578125 39.3125 
z
" id="DejaVuSans-51"/>
      </defs>
      <g transform="translate(121.512024 175.374834)scale(0.1 -0.1)">
       <use xlink:href="#DejaVuSans-51"/>
      </g>
     </g>
    </g>
    <g id="ytick_6">
     <g id="line2d_9">
      <g>
       <use style="stroke:#000000;stroke-width:0.8;" x="134.874524" xlink:href="#m21bb2e8083" y="140.094135"/>
      </g>
     </g>
     <g id="text_9">
      <!-- 4 -->
      <g transform="translate(121.512024 143.893353)scale(0.1 -0.1)">
       <use xlink:href="#DejaVuSans-52"/>
      </g>
     </g>
    </g>
    <g id="ytick_7">
     <g id="line2d_10">
      <g>
       <use style="stroke:#000000;stroke-width:0.8;" x="134.874524" xlink:href="#m21bb2e8083" y="108.612654"/>
      </g>
     </g>
     <g id="text_10">
      <!-- 5 -->
      <defs>
       <path d="M 10.796875 72.90625 
L 49.515625 72.90625 
L 49.515625 64.59375 
L 19.828125 64.59375 
L 19.828125 46.734375 
Q 21.96875 47.46875 24.109375 47.828125 
Q 26.265625 48.1875 28.421875 48.1875 
Q 40.625 48.1875 47.75 41.5 
Q 54.890625 34.8125 54.890625 23.390625 
Q 54.890625 11.625 47.5625 5.09375 
Q 40.234375 -1.421875 26.90625 -1.421875 
Q 22.3125 -1.421875 17.546875 -0.640625 
Q 12.796875 0.140625 7.71875 1.703125 
L 7.71875 11.625 
Q 12.109375 9.234375 16.796875 8.0625 
Q 21.484375 6.890625 26.703125 6.890625 
Q 35.15625 6.890625 40.078125 11.328125 
Q 45.015625 15.765625 45.015625 23.390625 
Q 45.015625 31 40.078125 35.4375 
Q 35.15625 39.890625 26.703125 39.890625 
Q 22.75 39.890625 18.8125 39.015625 
Q 14.890625 38.140625 10.796875 36.28125 
z
" id="DejaVuSans-53"/>
      </defs>
      <g transform="translate(121.512024 112.411872)scale(0.1 -0.1)">
       <use xlink:href="#DejaVuSans-53"/>
      </g>
     </g>
    </g>
    <g id="ytick_8">
     <g id="line2d_11">
      <g>
       <use style="stroke:#000000;stroke-width:0.8;" x="134.874524" xlink:href="#m21bb2e8083" y="77.131172"/>
      </g>
     </g>
     <g id="text_11">
      <!-- 6 -->
      <defs>
       <path d="M 33.015625 40.375 
Q 26.375 40.375 22.484375 35.828125 
Q 18.609375 31.296875 18.609375 23.390625 
Q 18.609375 15.53125 22.484375 10.953125 
Q 26.375 6.390625 33.015625 6.390625 
Q 39.65625 6.390625 43.53125 10.953125 
Q 47.40625 15.53125 47.40625 23.390625 
Q 47.40625 31.296875 43.53125 35.828125 
Q 39.65625 40.375 33.015625 40.375 
z
M 52.59375 71.296875 
L 52.59375 62.3125 
Q 48.875 64.0625 45.09375 64.984375 
Q 41.3125 65.921875 37.59375 65.921875 
Q 27.828125 65.921875 22.671875 59.328125 
Q 17.53125 52.734375 16.796875 39.40625 
Q 19.671875 43.65625 24.015625 45.921875 
Q 28.375 48.1875 33.59375 48.1875 
Q 44.578125 48.1875 50.953125 41.515625 
Q 57.328125 34.859375 57.328125 23.390625 
Q 57.328125 12.15625 50.6875 5.359375 
Q 44.046875 -1.421875 33.015625 -1.421875 
Q 20.359375 -1.421875 13.671875 8.265625 
Q 6.984375 17.96875 6.984375 36.375 
Q 6.984375 53.65625 15.1875 63.9375 
Q 23.390625 74.21875 37.203125 74.21875 
Q 40.921875 74.21875 44.703125 73.484375 
Q 48.484375 72.75 52.59375 71.296875 
z
" id="DejaVuSans-54"/>
      </defs>
      <g transform="translate(121.512024 80.930391)scale(0.1 -0.1)">
       <use xlink:href="#DejaVuSans-54"/>
      </g>
     </g>
    </g>
    <g id="ytick_9">
     <g id="line2d_12">
      <g>
       <use style="stroke:#000000;stroke-width:0.8;" x="134.874524" xlink:href="#m21bb2e8083" y="45.649691"/>
      </g>
     </g>
     <g id="text_12">
      <!-- 7 -->
      <defs>
       <path d="M 8.203125 72.90625 
L 55.078125 72.90625 
L 55.078125 68.703125 
L 28.609375 0 
L 18.3125 0 
L 43.21875 64.59375 
L 8.203125 64.59375 
z
" id="DejaVuSans-55"/>
      </defs>
      <g transform="translate(121.512024 49.44891)scale(0.1 -0.1)">
       <use xlink:href="#DejaVuSans-55"/>
      </g>
     </g>
    </g>
   </g>
   <g id="line2d_13">
    <path clip-path="url(#pe0680900a4)" d="M 274.153248 250.279318 
L 276.129417 248.719091 
L 277.974581 247.005929 
L 279.676937 245.150791 
L 281.225595 243.165543 
L 282.61065 241.062883 
L 283.823241 238.856262 
L 284.855613 236.559795 
L 285.701161 234.188171 
L 286.354478 231.75656 
L 286.811383 229.280517 
L 287.068955 226.775879 
L 287.125546 224.258668 
L 286.980794 221.744986 
L 286.635625 219.250911 
L 286.092246 216.792396 
L 285.354133 214.385169 
L 284.426009 212.044627 
L 283.313809 209.785741 
L 282.024649 207.622961 
L 280.566773 205.570121 
L 278.949508 203.640352 
L 277.183199 201.845999 
L 275.279143 200.198538 
L 273.249521 198.708509 
L 271.107316 197.385441 
L 268.866229 196.237799 
L 266.540596 195.272923 
L 264.145293 194.496986 
L 261.695643 193.91495 
L 259.207314 193.530538 
L 256.696223 193.34621 
L 254.178433 193.363145 
L 251.670049 193.581234 
L 249.187116 193.999082 
L 246.745517 194.614016 
L 244.360868 195.422104 
L 242.048425 196.418175 
L 239.822978 197.595859 
L 238.948452 198.123588 
L 239.421278 197.70783 
L 241.226654 195.952787 
L 242.886001 194.059082 
L 244.388707 192.038828 
L 245.725158 189.904946 
L 246.886807 187.671087 
L 247.866222 185.35154 
L 248.657139 182.961142 
L 249.254498 180.515183 
L 249.654479 178.029309 
L 249.854522 175.519421 
L 249.853349 173.001575 
L 249.650967 170.491874 
L 249.24867 168.006374 
L 248.649032 165.560973 
L 247.855888 163.171313 
L 246.874312 160.85268 
L 245.710582 158.619904 
L 244.372142 156.487269 
L 242.867555 154.468415 
L 241.206443 152.576257 
L 239.399434 150.822898 
L 237.458084 149.219553 
L 235.394812 147.776479 
L 233.222817 146.502906 
L 230.955991 145.40698 
L 228.440201 144.438421 
L 228.753593 144.408536 
L 231.246779 144.057005 
L 233.703899 143.507356 
L 234.802947 143.193427 
L 232.398123 142.44752 
L 229.941382 141.89618 
L 228.353493 141.647688 
L 230.527762 140.378 
L 232.593611 138.938617 
L 234.537824 137.338746 
L 236.347966 135.58862 
L 238.012458 133.699435 
L 239.520652 131.683275 
L 240.862902 129.553036 
L 242.030622 127.322345 
L 243.016342 125.00547 
L 243.813758 122.617232 
L 244.417767 120.172906 
L 244.824507 117.68813 
L 245.031376 115.178795 
L 245.037051 112.660955 
L 244.841495 110.150714 
L 244.44596 107.664129 
L 243.852974 105.217106 
L 243.066333 102.825297 
L 242.091066 100.504003 
L 240.933413 98.26807 
L 239.600779 96.131803 
L 238.101688 94.108864 
L 236.445729 92.212196 
L 234.643494 90.453928 
L 232.706513 88.84531 
L 230.647173 87.396629 
L 228.47865 86.117153 
L 226.214813 85.015066 
L 223.870143 84.097418 
L 221.459639 83.370079 
L 218.998719 82.8377 
L 216.503125 82.503687 
L 213.988821 82.370178 
L 211.471888 82.438025 
L 208.968427 82.706795 
L 206.494452 83.174769 
L 204.065787 83.838954 
L 201.697968 84.6951 
L 199.406141 85.737731 
L 197.204965 86.960178 
L 195.10852 88.354622 
L 193.130218 89.912143 
L 191.282711 91.622778 
L 189.577818 93.475585 
L 188.026444 95.458711 
L 186.638512 97.559473 
L 185.422902 99.764432 
L 184.387388 102.059484 
L 183.538594 104.429949 
L 182.88195 106.860663 
L 182.421656 109.336079 
L 182.160657 111.840362 
L 182.10062 114.357493 
L 182.241932 116.871371 
L 182.583688 119.365916 
L 183.123701 121.825172 
L 183.858518 124.233407 
L 184.783438 126.575218 
L 185.892545 128.835624 
L 187.178744 131.000166 
L 188.633809 133.055 
L 190.248431 134.98698 
L 192.012283 136.78375 
L 193.914082 138.433815 
L 195.941662 139.926621 
L 198.082055 141.252619 
L 200.321569 142.403327 
L 202.645879 143.371385 
L 205.040118 144.1506 
L 207.488969 144.735989 
L 209.783129 145.1009 
L 207.620204 146.389817 
L 205.567199 147.847462 
L 203.637248 149.464509 
L 201.842696 151.230616 
L 200.195021 153.134486 
L 198.704762 155.16394 
L 197.381453 157.305996 
L 196.233559 159.546954 
L 195.268421 161.872478 
L 194.492213 164.267693 
L 193.909901 166.717278 
L 193.525209 169.205563 
L 193.340598 171.716633 
L 193.357249 174.234425 
L 193.575055 176.742834 
L 193.992623 179.225814 
L 194.607282 181.667483 
L 195.415101 184.052222 
L 196.410911 186.364778 
L 197.588344 188.590357 
L 198.939868 190.714725 
L 200.456838 192.724291 
L 202.129549 194.606202 
L 203.947303 196.34842 
L 205.898472 197.939801 
L 207.970576 199.370165 
L 210.150359 200.630362 
L 212.423879 201.712333 
L 214.776593 202.609155 
L 217.193452 203.315092 
L 219.100277 203.727885 
L 218.785512 203.733407 
L 216.272588 203.890778 
L 213.780277 204.248464 
L 211.324521 204.804179 
L 208.92103 205.554368 
L 206.585177 206.494231 
L 204.331904 207.617758 
L 202.175623 208.917761 
L 200.130128 210.385924 
L 198.208503 212.012857 
L 196.42304 213.788153 
L 194.78516 215.700455 
L 193.305339 217.737532 
L 191.993043 219.886354 
L 190.856667 222.133174 
L 189.903479 224.463622 
L 189.139577 226.86279 
L 188.569847 229.315332 
L 188.197933 231.805559 
L 188.026214 234.317544 
L 188.055789 236.835217 
L 188.286469 239.342474 
L 188.716777 241.823278 
L 189.343962 244.26176 
L 190.164012 246.642321 
L 191.17168 248.949735 
L 192.360522 251.169241 
L 193.722933 253.286642 
L 195.250198 255.288395 
L 196.932548 257.161695 
L 198.759221 258.894559 
L 200.718534 260.475903 
L 202.797952 261.895611 
L 204.984176 263.144603 
L 207.26322 264.214888 
L 209.620506 265.099622 
L 212.040957 265.793144 
L 214.509089 266.291018 
L 217.009114 266.59006 
L 219.525041 266.688356 
L 222.040778 266.585279 
L 224.54023 266.281487 
L 227.007412 265.778924 
L 229.42654 265.080804 
L 231.782141 264.191593 
L 234.059147 263.116979 
L 236.242993 261.863835 
L 238.319711 260.440178 
L 240.276015 258.855114 
L 242.099392 257.118782 
L 243.778179 255.242289 
L 245.301637 253.237638 
L 246.660022 251.117651 
L 247.844645 248.89589 
L 248.847927 246.586565 
L 249.663451 244.20445 
L 250.286001 241.764781 
L 250.711595 239.283164 
L 250.93751 236.775473 
L 250.962301 234.257748 
L 250.785809 231.746094 
L 250.409164 229.256578 
L 249.834775 226.805123 
L 249.066315 224.407411 
L 248.108701 222.078779 
L 246.968057 219.834122 
L 245.651681 217.687798 
L 244.167991 215.653537 
L 242.52648 213.74435 
L 240.737647 211.97245 
L 239.281957 210.72087 
L 239.561208 210.866219 
L 241.844665 211.927059 
L 244.205595 212.802024 
L 246.628896 213.485517 
L 249.099068 213.973167 
L 251.60031 214.261855 
L 254.116623 214.349733 
L 256.631911 214.23624 
L 259.130084 213.922101 
L 261.595164 213.409326 
L 264.01138 212.701195 
L 266.363279 211.802238 
L 268.635816 210.718205 
L 270.814455 209.456029 
L 272.885259 208.023785 
L 274.834983 206.430634 
L 276.651155 204.686767 
L 278.322158 202.803339 
L 279.837303 200.792396 
L 281.186898 198.666803 
L 282.362311 196.440156 
L 283.356022 194.126697 
L 284.163254 191.735849 
L 282.074312 193.141506 
L 280.104383 194.709605 
L 278.266069 196.430115 
L 276.571128 198.29203 
L 275.030402 200.283441 
L 273.653747 202.391609 
L 272.449969 204.60305 
L 271.426767 206.903618 
L 270.590687 209.278597 
L 269.947077 211.712794 
L 269.500053 214.190641 
L 269.252475 216.696286 
L 269.205927 219.213703 
L 269.360707 221.726788 
L 269.715824 224.219466 
L 270.269007 226.675793 
L 271.016717 229.080057 
L 271.954172 231.416877 
L 273.075374 233.671308 
L 274.373153 235.828928 
L 275.839207 237.875935 
L 277.464158 239.799236 
L 279.237612 241.586529 
L 281.148225 243.22638 
L 283.183775 244.7083 
L 285.331242 246.022811 
L 287.57689 247.161503 
L 289.906354 248.117093 
L 290.223254 248.230598 
L 288.597292 250.153045 
L 287.130162 252.199281 
L 285.831248 254.356218 
L 284.70886 256.610059 
L 283.830173 258.779364 
L 283.830173 258.779364 
" style="fill:none;stroke:#1f77b4;stroke-linecap:square;stroke-width:1.5;"/>
   </g>
   <g id="patch_93">
    <path d="M 134.874524 307.584 
L 134.874524 41.472 
" style="fill:none;stroke:#000000;stroke-linecap:square;stroke-linejoin:miter;stroke-width:0.8;"/>
   </g>
   <g id="patch_94">
    <path d="M 337.445476 307.584 
L 337.445476 41.472 
" style="fill:none;stroke:#000000;stroke-linecap:square;stroke-linejoin:miter;stroke-width:0.8;"/>
   </g>
   <g id="patch_95">
    <path d="M 134.874524 307.584 
L 337.445476 307.584 
" style="fill:none;stroke:#000000;stroke-linecap:square;stroke-linejoin:miter;stroke-width:0.8;"/>
   </g>
   <g id="patch_96">
    <path d="M 134.874524 41.472 
L 337.445476 41.472 
" style="fill:none;stroke:#000000;stroke-linecap:square;stroke-linejoin:miter;stroke-width:0.8;"/>
   </g>
  </g>
 </g>
 <defs>
  <clipPath id="pe0680900a4">
   <rect height="266.112" width="202.570951" x="134.874524" y="41.472"/>
  </clipPath>
 </defs>
</svg>
