<?xml version="1.0" encoding="utf-8" standalone="no"?>
<!DOCTYPE svg PUBLIC "-//W3C//DTD SVG 1.1//EN"
  "http://www.w3.org/Graphics/SVG/1.1/DTD/svg11.dtd">
<!-- Created with matplotlib (https://matplotlib.org/) -->
<svg height="345.6pt" version="1.1" viewBox="0 0 460.8 345.6" width="460.8pt" xmlns="http://www.w3.org/2000/svg" xmlns:xlink="http://www.w3.org/1999/xlink">
 <defs>
  <style type="text/css">
*{stroke-linecap:butt;stroke-linejoin:round;}
  </style>
 </defs>
 <g id="figure_1">
  <g id="patch_1">
   <path d="M 0 345.6 
L 460.8 345.6 
L 460.8 0 
L 0 0 
z
" style="fill:#ffffff;"/>
  </g>
  <g id="axes_1">
   <g id="patch_2">
    <path d="M 57.6 307.584 
L 414.72 307.584 
L 414.72 41.472 
L 57.6 41.472 
z
" style="fill:#ffffff;"/>
   </g>
   <g id="PathCollection_1">
    <defs>
     <path d="M 0 3 
C 0.795609 3 1.55874 2.683901 2.12132 2.12132 
C 2.683901 1.55874 3 0.795609 3 0 
C 3 -0.795609 2.683901 -1.55874 2.12132 -2.12132 
C 1.55874 -2.683901 0.795609 -3 0 -3 
C -0.795609 -3 -1.55874 -2.683901 -2.12132 -2.12132 
C -2.683901 -1.55874 -3 -0.795609 -3 0 
C -3 0.795609 -2.683901 1.55874 -2.12132 2.12132 
C -1.55874 2.683901 -0.795609 3 0 3 
z
" id="C0_0_82d82bccdf"/>
    </defs>
    <g clip-path="url(#p0fb3049089)">
     <use style="fill:#ff7f0e;stroke:#ff7f0e;" x="75.964363" xlink:href="#C0_0_82d82bccdf" y="293.365895"/>
    </g>
    <g clip-path="url(#p0fb3049089)">
     <use style="fill:#ff7f0e;stroke:#ff7f0e;" x="75.964363" xlink:href="#C0_0_82d82bccdf" y="293.365895"/>
    </g>
    <g clip-path="url(#p0fb3049089)">
     <use style="fill:#ff7f0e;stroke:#ff7f0e;" x="94.018103" xlink:href="#C0_0_82d82bccdf" y="293.365895"/>
    </g>
    <g clip-path="url(#p0fb3049089)">
     <use style="fill:#ff7f0e;stroke:#ff7f0e;" x="94.018103" xlink:href="#C0_0_82d82bccdf" y="293.365895"/>
    </g>
    <g clip-path="url(#p0fb3049089)">
     <use style="fill:#ff7f0e;stroke:#ff7f0e;" x="110.35562" xlink:href="#C0_0_82d82bccdf" y="293.365895"/>
    </g>
    <g clip-path="url(#p0fb3049089)">
     <use style="fill:#ff7f0e;stroke:#ff7f0e;" x="110.35562" xlink:href="#C0_0_82d82bccdf" y="293.365895"/>
    </g>
    <g clip-path="url(#p0fb3049089)">
     <use style="fill:#1f77b4;stroke:#1f77b4;" x="124.105116" xlink:href="#C0_0_82d82bccdf" y="293.365895"/>
    </g>
    <g clip-path="url(#p0fb3049089)">
     <use style="fill:#1f77b4;stroke:#1f77b4;" x="124.105116" xlink:href="#C0_0_82d82bccdf" y="276.981741"/>
    </g>
    <g clip-path="url(#p0fb3049089)">
     <use style="fill:#ff7f0e;stroke:#ff7f0e;" x="133.970016" xlink:href="#C0_0_82d82bccdf" y="276.228387"/>
    </g>
    <g clip-path="url(#p0fb3049089)">
     <use style="fill:#ff7f0e;stroke:#ff7f0e;" x="133.970016" xlink:href="#C0_0_82d82bccdf" y="276.228387"/>
    </g>
    <g clip-path="url(#p0fb3049089)">
     <use style="fill:#1f77b4;stroke:#1f77b4;" x="146.302483" xlink:href="#C0_0_82d82bccdf" y="274.361641"/>
    </g>
    <g clip-path="url(#p0fb3049089)">
     <use style="fill:#1f77b4;stroke:#1f77b4;" x="146.302483" xlink:href="#C0_0_82d82bccdf" y="237.581367"/>
    </g>
    <g clip-path="url(#p0fb3049089)">
     <use style="fill:#ff7f0e;stroke:#ff7f0e;" x="158.72283" xlink:href="#C0_0_82d82bccdf" y="236.632087"/>
    </g>
    <g clip-path="url(#p0fb3049089)">
     <use style="fill:#ff7f0e;stroke:#ff7f0e;" x="158.72283" xlink:href="#C0_0_82d82bccdf" y="236.632087"/>
    </g>
    <g clip-path="url(#p0fb3049089)">
     <use style="fill:#ff7f0e;stroke:#ff7f0e;" x="183.994573" xlink:href="#C0_0_82d82bccdf" y="232.200865"/>
    </g>
    <g clip-path="url(#p0fb3049089)">
     <use style="fill:#ff7f0e;stroke:#ff7f0e;" x="183.994573" xlink:href="#C0_0_82d82bccdf" y="232.200865"/>
    </g>
    <g clip-path="url(#p0fb3049089)">
     <use style="fill:#ff7f0e;stroke:#ff7f0e;" x="198.922658" xlink:href="#C0_0_82d82bccdf" y="229.548072"/>
    </g>
    <g clip-path="url(#p0fb3049089)">
     <use style="fill:#ff7f0e;stroke:#ff7f0e;" x="198.922658" xlink:href="#C0_0_82d82bccdf" y="229.548072"/>
    </g>
    <g clip-path="url(#p0fb3049089)">
     <use style="fill:#1f77b4;stroke:#1f77b4;" x="209.238501" xlink:href="#C0_0_82d82bccdf" y="227.891924"/>
    </g>
    <g clip-path="url(#p0fb3049089)">
     <use style="fill:#1f77b4;stroke:#1f77b4;" x="209.238501" xlink:href="#C0_0_82d82bccdf" y="201.868023"/>
    </g>
    <g clip-path="url(#p0fb3049089)">
     <use style="fill:#ff7f0e;stroke:#ff7f0e;" x="217.768558" xlink:href="#C0_0_82d82bccdf" y="201.151102"/>
    </g>
    <g clip-path="url(#p0fb3049089)">
     <use style="fill:#ff7f0e;stroke:#ff7f0e;" x="217.768558" xlink:href="#C0_0_82d82bccdf" y="201.151102"/>
    </g>
    <g clip-path="url(#p0fb3049089)">
     <use style="fill:#1f77b4;stroke:#1f77b4;" x="226.10876" xlink:href="#C0_0_82d82bccdf" y="199.911548"/>
    </g>
    <g clip-path="url(#p0fb3049089)">
     <use style="fill:#1f77b4;stroke:#1f77b4;" x="226.10876" xlink:href="#C0_0_82d82bccdf" y="179.428857"/>
    </g>
    <g clip-path="url(#p0fb3049089)">
     <use style="fill:#ff7f0e;stroke:#ff7f0e;" x="234.801304" xlink:href="#C0_0_82d82bccdf" y="178.713153"/>
    </g>
    <g clip-path="url(#p0fb3049089)">
     <use style="fill:#ff7f0e;stroke:#ff7f0e;" x="234.801304" xlink:href="#C0_0_82d82bccdf" y="178.713153"/>
    </g>
    <g clip-path="url(#p0fb3049089)">
     <use style="fill:#ff7f0e;stroke:#ff7f0e;" x="269.446397" xlink:href="#C0_0_82d82bccdf" y="172.651742"/>
    </g>
    <g clip-path="url(#p0fb3049089)">
     <use style="fill:#ff7f0e;stroke:#ff7f0e;" x="269.446397" xlink:href="#C0_0_82d82bccdf" y="172.651742"/>
    </g>
    <g clip-path="url(#p0fb3049089)">
     <use style="fill:#ff7f0e;stroke:#ff7f0e;" x="275.635809" xlink:href="#C0_0_82d82bccdf" y="171.579336"/>
    </g>
    <g clip-path="url(#p0fb3049089)">
     <use style="fill:#ff7f0e;stroke:#ff7f0e;" x="275.635809" xlink:href="#C0_0_82d82bccdf" y="171.579336"/>
    </g>
    <g clip-path="url(#p0fb3049089)">
     <use style="fill:#ff7f0e;stroke:#ff7f0e;" x="304.091491" xlink:href="#C0_0_82d82bccdf" y="167.332331"/>
    </g>
    <g clip-path="url(#p0fb3049089)">
     <use style="fill:#ff7f0e;stroke:#ff7f0e;" x="304.091491" xlink:href="#C0_0_82d82bccdf" y="167.332331"/>
    </g>
    <g clip-path="url(#p0fb3049089)">
     <use style="fill:#1f77b4;stroke:#1f77b4;" x="313.998101" xlink:href="#C0_0_82d82bccdf" y="166.089907"/>
    </g>
    <g clip-path="url(#p0fb3049089)">
     <use style="fill:#1f77b4;stroke:#1f77b4;" x="313.998101" xlink:href="#C0_0_82d82bccdf" y="140.177249"/>
    </g>
    <g clip-path="url(#p0fb3049089)">
     <use style="fill:#ff7f0e;stroke:#ff7f0e;" x="326.990289" xlink:href="#C0_0_82d82bccdf" y="138.818052"/>
    </g>
    <g clip-path="url(#p0fb3049089)">
     <use style="fill:#ff7f0e;stroke:#ff7f0e;" x="326.990289" xlink:href="#C0_0_82d82bccdf" y="138.818052"/>
    </g>
    <g clip-path="url(#p0fb3049089)">
     <use style="fill:#ff7f0e;stroke:#ff7f0e;" x="331.633679" xlink:href="#C0_0_82d82bccdf" y="138.058355"/>
    </g>
    <g clip-path="url(#p0fb3049089)">
     <use style="fill:#ff7f0e;stroke:#ff7f0e;" x="331.633679" xlink:href="#C0_0_82d82bccdf" y="138.058355"/>
    </g>
    <g clip-path="url(#p0fb3049089)">
     <use style="fill:#1f77b4;stroke:#1f77b4;" x="344.726697" xlink:href="#C0_0_82d82bccdf" y="135.646307"/>
    </g>
    <g clip-path="url(#p0fb3049089)">
     <use style="fill:#1f77b4;stroke:#1f77b4;" x="344.726697" xlink:href="#C0_0_82d82bccdf" y="111.710652"/>
    </g>
    <g clip-path="url(#p0fb3049089)">
     <use style="fill:#ff7f0e;stroke:#ff7f0e;" x="353.816766" xlink:href="#C0_0_82d82bccdf" y="110.935035"/>
    </g>
    <g clip-path="url(#p0fb3049089)">
     <use style="fill:#ff7f0e;stroke:#ff7f0e;" x="353.816766" xlink:href="#C0_0_82d82bccdf" y="110.935035"/>
    </g>
    <g clip-path="url(#p0fb3049089)">
     <use style="fill:#1f77b4;stroke:#1f77b4;" x="364.236564" xlink:href="#C0_0_82d82bccdf" y="109.313822"/>
    </g>
    <g clip-path="url(#p0fb3049089)">
     <use style="fill:#1f77b4;stroke:#1f77b4;" x="364.236564" xlink:href="#C0_0_82d82bccdf" y="84.007944"/>
    </g>
    <g clip-path="url(#p0fb3049089)">
     <use style="fill:#ff7f0e;stroke:#ff7f0e;" x="375.117464" xlink:href="#C0_0_82d82bccdf" y="83.09888"/>
    </g>
    <g clip-path="url(#p0fb3049089)">
     <use style="fill:#ff7f0e;stroke:#ff7f0e;" x="375.117464" xlink:href="#C0_0_82d82bccdf" y="83.09888"/>
    </g>
    <g clip-path="url(#p0fb3049089)">
     <use style="fill:#1f77b4;stroke:#1f77b4;" x="385.738305" xlink:href="#C0_0_82d82bccdf" y="81.403461"/>
    </g>
    <g clip-path="url(#p0fb3049089)">
     <use style="fill:#1f77b4;stroke:#1f77b4;" x="385.738305" xlink:href="#C0_0_82d82bccdf" y="56.581948"/>
    </g>
    <g clip-path="url(#p0fb3049089)">
     <use style="fill:#ff7f0e;stroke:#ff7f0e;" x="396.355637" xlink:href="#C0_0_82d82bccdf" y="55.690105"/>
    </g>
    <g clip-path="url(#p0fb3049089)">
     <use style="fill:#ff7f0e;stroke:#ff7f0e;" x="396.355637" xlink:href="#C0_0_82d82bccdf" y="55.690105"/>
    </g>
   </g>
   <g id="matplotlib.axis_1">
    <g id="xtick_1">
     <g id="line2d_1">
      <defs>
       <path d="M 0 0 
L 0 3.5 
" id="m6e6ef42ddd" style="stroke:#000000;stroke-width:0.8;"/>
      </defs>
      <g>
       <use style="stroke:#000000;stroke-width:0.8;" x="67.713458" xlink:href="#m6e6ef42ddd" y="307.584"/>
      </g>
     </g>
     <g id="text_1">
      <!-- 0 -->
      <defs>
       <path d="M 31.78125 66.40625 
Q 24.171875 66.40625 20.328125 58.90625 
Q 16.5 51.421875 16.5 36.375 
Q 16.5 21.390625 20.328125 13.890625 
Q 24.171875 6.390625 31.78125 6.390625 
Q 39.453125 6.390625 43.28125 13.890625 
Q 47.125 21.390625 47.125 36.375 
Q 47.125 51.421875 43.28125 58.90625 
Q 39.453125 66.40625 31.78125 66.40625 
z
M 31.78125 74.21875 
Q 44.046875 74.21875 50.515625 64.515625 
Q 56.984375 54.828125 56.984375 36.375 
Q 56.984375 17.96875 50.515625 8.265625 
Q 44.046875 -1.421875 31.78125 -1.421875 
Q 19.53125 -1.421875 13.0625 8.265625 
Q 6.59375 17.96875 6.59375 36.375 
Q 6.59375 54.828125 13.0625 64.515625 
Q 19.53125 74.21875 31.78125 74.21875 
z
" id="DejaVuSans-48"/>
      </defs>
      <g transform="translate(64.532208 322.182437)scale(0.1 -0.1)">
       <use xlink:href="#DejaVuSans-48"/>
      </g>
     </g>
    </g>
    <g id="xtick_2">
     <g id="line2d_2">
      <g>
       <use style="stroke:#000000;stroke-width:0.8;" x="133.416712" xlink:href="#m6e6ef42ddd" y="307.584"/>
      </g>
     </g>
     <g id="text_2">
      <!-- 2 -->
      <defs>
       <path d="M 19.1875 8.296875 
L 53.609375 8.296875 
L 53.609375 0 
L 7.328125 0 
L 7.328125 8.296875 
Q 12.9375 14.109375 22.625 23.890625 
Q 32.328125 33.6875 34.8125 36.53125 
Q 39.546875 41.84375 41.421875 45.53125 
Q 43.3125 49.21875 43.3125 52.78125 
Q 43.3125 58.59375 39.234375 62.25 
Q 35.15625 65.921875 28.609375 65.921875 
Q 23.96875 65.921875 18.8125 64.3125 
Q 13.671875 62.703125 7.8125 59.421875 
L 7.8125 69.390625 
Q 13.765625 71.78125 18.9375 73 
Q 24.125 74.21875 28.421875 74.21875 
Q 39.75 74.21875 46.484375 68.546875 
Q 53.21875 62.890625 53.21875 53.421875 
Q 53.21875 48.921875 51.53125 44.890625 
Q 49.859375 40.875 45.40625 35.40625 
Q 44.1875 33.984375 37.640625 27.21875 
Q 31.109375 20.453125 19.1875 8.296875 
z
" id="DejaVuSans-50"/>
      </defs>
      <g transform="translate(130.235462 322.182437)scale(0.1 -0.1)">
       <use xlink:href="#DejaVuSans-50"/>
      </g>
     </g>
    </g>
    <g id="xtick_3">
     <g id="line2d_3">
      <g>
       <use style="stroke:#000000;stroke-width:0.8;" x="199.119965" xlink:href="#m6e6ef42ddd" y="307.584"/>
      </g>
     </g>
     <g id="text_3">
      <!-- 4 -->
      <defs>
       <path d="M 37.796875 64.3125 
L 12.890625 25.390625 
L 37.796875 25.390625 
z
M 35.203125 72.90625 
L 47.609375 72.90625 
L 47.609375 25.390625 
L 58.015625 25.390625 
L 58.015625 17.1875 
L 47.609375 17.1875 
L 47.609375 0 
L 37.796875 0 
L 37.796875 17.1875 
L 4.890625 17.1875 
L 4.890625 26.703125 
z
" id="DejaVuSans-52"/>
      </defs>
      <g transform="translate(195.938715 322.182437)scale(0.1 -0.1)">
       <use xlink:href="#DejaVuSans-52"/>
      </g>
     </g>
    </g>
    <g id="xtick_4">
     <g id="line2d_4">
      <g>
       <use style="stroke:#000000;stroke-width:0.8;" x="264.823219" xlink:href="#m6e6ef42ddd" y="307.584"/>
      </g>
     </g>
     <g id="text_4">
      <!-- 6 -->
      <defs>
       <path d="M 33.015625 40.375 
Q 26.375 40.375 22.484375 35.828125 
Q 18.609375 31.296875 18.609375 23.390625 
Q 18.609375 15.53125 22.484375 10.953125 
Q 26.375 6.390625 33.015625 6.390625 
Q 39.65625 6.390625 43.53125 10.953125 
Q 47.40625 15.53125 47.40625 23.390625 
Q 47.40625 31.296875 43.53125 35.828125 
Q 39.65625 40.375 33.015625 40.375 
z
M 52.59375 71.296875 
L 52.59375 62.3125 
Q 48.875 64.0625 45.09375 64.984375 
Q 41.3125 65.921875 37.59375 65.921875 
Q 27.828125 65.921875 22.671875 59.328125 
Q 17.53125 52.734375 16.796875 39.40625 
Q 19.671875 43.65625 24.015625 45.921875 
Q 28.375 48.1875 33.59375 48.1875 
Q 44.578125 48.1875 50.953125 41.515625 
Q 57.328125 34.859375 57.328125 23.390625 
Q 57.328125 12.15625 50.6875 5.359375 
Q 44.046875 -1.421875 33.015625 -1.421875 
Q 20.359375 -1.421875 13.671875 8.265625 
Q 6.984375 17.96875 6.984375 36.375 
Q 6.984375 53.65625 15.1875 63.9375 
Q 23.390625 74.21875 37.203125 74.21875 
Q 40.921875 74.21875 44.703125 73.484375 
Q 48.484375 72.75 52.59375 71.296875 
z
" id="DejaVuSans-54"/>
      </defs>
      <g transform="translate(261.641969 322.182437)scale(0.1 -0.1)">
       <use xlink:href="#DejaVuSans-54"/>
      </g>
     </g>
    </g>
    <g id="xtick_5">
     <g id="line2d_5">
      <g>
       <use style="stroke:#000000;stroke-width:0.8;" x="330.526472" xlink:href="#m6e6ef42ddd" y="307.584"/>
      </g>
     </g>
     <g id="text_5">
      <!-- 8 -->
      <defs>
       <path d="M 31.78125 34.625 
Q 24.75 34.625 20.71875 30.859375 
Q 16.703125 27.09375 16.703125 20.515625 
Q 16.703125 13.921875 20.71875 10.15625 
Q 24.75 6.390625 31.78125 6.390625 
Q 38.8125 6.390625 42.859375 10.171875 
Q 46.921875 13.96875 46.921875 20.515625 
Q 46.921875 27.09375 42.890625 30.859375 
Q 38.875 34.625 31.78125 34.625 
z
M 21.921875 38.8125 
Q 15.578125 40.375 12.03125 44.71875 
Q 8.5 49.078125 8.5 55.328125 
Q 8.5 64.0625 14.71875 69.140625 
Q 20.953125 74.21875 31.78125 74.21875 
Q 42.671875 74.21875 48.875 69.140625 
Q 55.078125 64.0625 55.078125 55.328125 
Q 55.078125 49.078125 51.53125 44.71875 
Q 48 40.375 41.703125 38.8125 
Q 48.828125 37.15625 52.796875 32.3125 
Q 56.78125 27.484375 56.78125 20.515625 
Q 56.78125 9.90625 50.3125 4.234375 
Q 43.84375 -1.421875 31.78125 -1.421875 
Q 19.734375 -1.421875 13.25 4.234375 
Q 6.78125 9.90625 6.78125 20.515625 
Q 6.78125 27.484375 10.78125 32.3125 
Q 14.796875 37.15625 21.921875 38.8125 
z
M 18.3125 54.390625 
Q 18.3125 48.734375 21.84375 45.5625 
Q 25.390625 42.390625 31.78125 42.390625 
Q 38.140625 42.390625 41.71875 45.5625 
Q 45.3125 48.734375 45.3125 54.390625 
Q 45.3125 60.0625 41.71875 63.234375 
Q 38.140625 66.40625 31.78125 66.40625 
Q 25.390625 66.40625 21.84375 63.234375 
Q 18.3125 60.0625 18.3125 54.390625 
z
" id="DejaVuSans-56"/>
      </defs>
      <g transform="translate(327.345222 322.182437)scale(0.1 -0.1)">
       <use xlink:href="#DejaVuSans-56"/>
      </g>
     </g>
    </g>
    <g id="xtick_6">
     <g id="line2d_6">
      <g>
       <use style="stroke:#000000;stroke-width:0.8;" x="396.229726" xlink:href="#m6e6ef42ddd" y="307.584"/>
      </g>
     </g>
     <g id="text_6">
      <!-- 10 -->
      <defs>
       <path d="M 12.40625 8.296875 
L 28.515625 8.296875 
L 28.515625 63.921875 
L 10.984375 60.40625 
L 10.984375 69.390625 
L 28.421875 72.90625 
L 38.28125 72.90625 
L 38.28125 8.296875 
L 54.390625 8.296875 
L 54.390625 0 
L 12.40625 0 
z
" id="DejaVuSans-49"/>
      </defs>
      <g transform="translate(389.867226 322.182437)scale(0.1 -0.1)">
       <use xlink:href="#DejaVuSans-49"/>
       <use x="63.623047" xlink:href="#DejaVuSans-48"/>
      </g>
     </g>
    </g>
    <g id="text_7">
     <!-- $t$ -->
     <defs>
      <path d="M 42.28125 54.6875 
L 40.921875 47.703125 
L 23 47.703125 
L 17.1875 18.015625 
Q 16.890625 16.359375 16.75 15.234375 
Q 16.609375 14.109375 16.609375 13.484375 
Q 16.609375 10.359375 18.484375 8.9375 
Q 20.359375 7.515625 24.515625 7.515625 
L 33.59375 7.515625 
L 32.078125 0 
L 23.484375 0 
Q 15.484375 0 11.546875 3.125 
Q 7.625 6.25 7.625 12.59375 
Q 7.625 13.71875 7.765625 15.0625 
Q 7.90625 16.40625 8.203125 18.015625 
L 14.015625 47.703125 
L 6.390625 47.703125 
L 7.8125 54.6875 
L 15.28125 54.6875 
L 18.3125 70.21875 
L 27.296875 70.21875 
L 24.3125 54.6875 
z
" id="DejaVuSans-Oblique-116"/>
     </defs>
     <g transform="translate(234.16 335.860562)scale(0.1 -0.1)">
      <use transform="translate(0 0.78125)" xlink:href="#DejaVuSans-Oblique-116"/>
     </g>
    </g>
   </g>
   <g id="matplotlib.axis_2">
    <g id="ytick_1">
     <g id="line2d_7">
      <defs>
       <path d="M 0 0 
L -3.5 0 
" id="mcddecb5090" style="stroke:#000000;stroke-width:0.8;"/>
      </defs>
      <g>
       <use style="stroke:#000000;stroke-width:0.8;" x="57.6" xlink:href="#mcddecb5090" y="293.365895"/>
      </g>
     </g>
     <g id="text_8">
      <!-- 0.0 -->
      <defs>
       <path d="M 10.6875 12.40625 
L 21 12.40625 
L 21 0 
L 10.6875 0 
z
" id="DejaVuSans-46"/>
      </defs>
      <g transform="translate(34.696875 297.165113)scale(0.1 -0.1)">
       <use xlink:href="#DejaVuSans-48"/>
       <use x="63.623047" xlink:href="#DejaVuSans-46"/>
       <use x="95.410156" xlink:href="#DejaVuSans-48"/>
      </g>
     </g>
    </g>
    <g id="ytick_2">
     <g id="line2d_8">
      <g>
       <use style="stroke:#000000;stroke-width:0.8;" x="57.6" xlink:href="#mcddecb5090" y="262.408224"/>
      </g>
     </g>
     <g id="text_9">
      <!-- 2.5 -->
      <defs>
       <path d="M 10.796875 72.90625 
L 49.515625 72.90625 
L 49.515625 64.59375 
L 19.828125 64.59375 
L 19.828125 46.734375 
Q 21.96875 47.46875 24.109375 47.828125 
Q 26.265625 48.1875 28.421875 48.1875 
Q 40.625 48.1875 47.75 41.5 
Q 54.890625 34.8125 54.890625 23.390625 
Q 54.890625 11.625 47.5625 5.09375 
Q 40.234375 -1.421875 26.90625 -1.421875 
Q 22.3125 -1.421875 17.546875 -0.640625 
Q 12.796875 0.140625 7.71875 1.703125 
L 7.71875 11.625 
Q 12.109375 9.234375 16.796875 8.0625 
Q 21.484375 6.890625 26.703125 6.890625 
Q 35.15625 6.890625 40.078125 11.328125 
Q 45.015625 15.765625 45.015625 23.390625 
Q 45.015625 31 40.078125 35.4375 
Q 35.15625 39.890625 26.703125 39.890625 
Q 22.75 39.890625 18.8125 39.015625 
Q 14.890625 38.140625 10.796875 36.28125 
z
" id="DejaVuSans-53"/>
      </defs>
      <g transform="translate(34.696875 266.207443)scale(0.1 -0.1)">
       <use xlink:href="#DejaVuSans-50"/>
       <use x="63.623047" xlink:href="#DejaVuSans-46"/>
       <use x="95.410156" xlink:href="#DejaVuSans-53"/>
      </g>
     </g>
    </g>
    <g id="ytick_3">
     <g id="line2d_9">
      <g>
       <use style="stroke:#000000;stroke-width:0.8;" x="57.6" xlink:href="#mcddecb5090" y="231.450554"/>
      </g>
     </g>
     <g id="text_10">
      <!-- 5.0 -->
      <g transform="translate(34.696875 235.249773)scale(0.1 -0.1)">
       <use xlink:href="#DejaVuSans-53"/>
       <use x="63.623047" xlink:href="#DejaVuSans-46"/>
       <use x="95.410156" xlink:href="#DejaVuSans-48"/>
      </g>
     </g>
    </g>
    <g id="ytick_4">
     <g id="line2d_10">
      <g>
       <use style="stroke:#000000;stroke-width:0.8;" x="57.6" xlink:href="#mcddecb5090" y="200.492884"/>
      </g>
     </g>
     <g id="text_11">
      <!-- 7.5 -->
      <defs>
       <path d="M 8.203125 72.90625 
L 55.078125 72.90625 
L 55.078125 68.703125 
L 28.609375 0 
L 18.3125 0 
L 43.21875 64.59375 
L 8.203125 64.59375 
z
" id="DejaVuSans-55"/>
      </defs>
      <g transform="translate(34.696875 204.292102)scale(0.1 -0.1)">
       <use xlink:href="#DejaVuSans-55"/>
       <use x="63.623047" xlink:href="#DejaVuSans-46"/>
       <use x="95.410156" xlink:href="#DejaVuSans-53"/>
      </g>
     </g>
    </g>
    <g id="ytick_5">
     <g id="line2d_11">
      <g>
       <use style="stroke:#000000;stroke-width:0.8;" x="57.6" xlink:href="#mcddecb5090" y="169.535213"/>
      </g>
     </g>
     <g id="text_12">
      <!-- 10.0 -->
      <g transform="translate(28.334375 173.334432)scale(0.1 -0.1)">
       <use xlink:href="#DejaVuSans-49"/>
       <use x="63.623047" xlink:href="#DejaVuSans-48"/>
       <use x="127.246094" xlink:href="#DejaVuSans-46"/>
       <use x="159.033203" xlink:href="#DejaVuSans-48"/>
      </g>
     </g>
    </g>
    <g id="ytick_6">
     <g id="line2d_12">
      <g>
       <use style="stroke:#000000;stroke-width:0.8;" x="57.6" xlink:href="#mcddecb5090" y="138.577543"/>
      </g>
     </g>
     <g id="text_13">
      <!-- 12.5 -->
      <g transform="translate(28.334375 142.376761)scale(0.1 -0.1)">
       <use xlink:href="#DejaVuSans-49"/>
       <use x="63.623047" xlink:href="#DejaVuSans-50"/>
       <use x="127.246094" xlink:href="#DejaVuSans-46"/>
       <use x="159.033203" xlink:href="#DejaVuSans-53"/>
      </g>
     </g>
    </g>
    <g id="ytick_7">
     <g id="line2d_13">
      <g>
       <use style="stroke:#000000;stroke-width:0.8;" x="57.6" xlink:href="#mcddecb5090" y="107.619872"/>
      </g>
     </g>
     <g id="text_14">
      <!-- 15.0 -->
      <g transform="translate(28.334375 111.419091)scale(0.1 -0.1)">
       <use xlink:href="#DejaVuSans-49"/>
       <use x="63.623047" xlink:href="#DejaVuSans-53"/>
       <use x="127.246094" xlink:href="#DejaVuSans-46"/>
       <use x="159.033203" xlink:href="#DejaVuSans-48"/>
      </g>
     </g>
    </g>
    <g id="ytick_8">
     <g id="line2d_14">
      <g>
       <use style="stroke:#000000;stroke-width:0.8;" x="57.6" xlink:href="#mcddecb5090" y="76.662202"/>
      </g>
     </g>
     <g id="text_15">
      <!-- 17.5 -->
      <g transform="translate(28.334375 80.461421)scale(0.1 -0.1)">
       <use xlink:href="#DejaVuSans-49"/>
       <use x="63.623047" xlink:href="#DejaVuSans-55"/>
       <use x="127.246094" xlink:href="#DejaVuSans-46"/>
       <use x="159.033203" xlink:href="#DejaVuSans-53"/>
      </g>
     </g>
    </g>
    <g id="ytick_9">
     <g id="line2d_15">
      <g>
       <use style="stroke:#000000;stroke-width:0.8;" x="57.6" xlink:href="#mcddecb5090" y="45.704532"/>
      </g>
     </g>
     <g id="text_16">
      <!-- 20.0 -->
      <g transform="translate(28.334375 49.50375)scale(0.1 -0.1)">
       <use xlink:href="#DejaVuSans-50"/>
       <use x="63.623047" xlink:href="#DejaVuSans-48"/>
       <use x="127.246094" xlink:href="#DejaVuSans-46"/>
       <use x="159.033203" xlink:href="#DejaVuSans-48"/>
      </g>
     </g>
    </g>
    <g id="text_17">
     <!-- $\log(||\Delta ||)$ -->
     <defs>
      <path d="M 9.421875 75.984375 
L 18.40625 75.984375 
L 18.40625 0 
L 9.421875 0 
z
" id="DejaVuSans-108"/>
      <path d="M 30.609375 48.390625 
Q 23.390625 48.390625 19.1875 42.75 
Q 14.984375 37.109375 14.984375 27.296875 
Q 14.984375 17.484375 19.15625 11.84375 
Q 23.34375 6.203125 30.609375 6.203125 
Q 37.796875 6.203125 41.984375 11.859375 
Q 46.1875 17.53125 46.1875 27.296875 
Q 46.1875 37.015625 41.984375 42.703125 
Q 37.796875 48.390625 30.609375 48.390625 
z
M 30.609375 56 
Q 42.328125 56 49.015625 48.375 
Q 55.71875 40.765625 55.71875 27.296875 
Q 55.71875 13.875 49.015625 6.21875 
Q 42.328125 -1.421875 30.609375 -1.421875 
Q 18.84375 -1.421875 12.171875 6.21875 
Q 5.515625 13.875 5.515625 27.296875 
Q 5.515625 40.765625 12.171875 48.375 
Q 18.84375 56 30.609375 56 
z
" id="DejaVuSans-111"/>
      <path d="M 45.40625 27.984375 
Q 45.40625 37.75 41.375 43.109375 
Q 37.359375 48.484375 30.078125 48.484375 
Q 22.859375 48.484375 18.828125 43.109375 
Q 14.796875 37.75 14.796875 27.984375 
Q 14.796875 18.265625 18.828125 12.890625 
Q 22.859375 7.515625 30.078125 7.515625 
Q 37.359375 7.515625 41.375 12.890625 
Q 45.40625 18.265625 45.40625 27.984375 
z
M 54.390625 6.78125 
Q 54.390625 -7.171875 48.1875 -13.984375 
Q 42 -20.796875 29.203125 -20.796875 
Q 24.46875 -20.796875 20.265625 -20.09375 
Q 16.0625 -19.390625 12.109375 -17.921875 
L 12.109375 -9.1875 
Q 16.0625 -11.328125 19.921875 -12.34375 
Q 23.78125 -13.375 27.78125 -13.375 
Q 36.625 -13.375 41.015625 -8.765625 
Q 45.40625 -4.15625 45.40625 5.171875 
L 45.40625 9.625 
Q 42.625 4.78125 38.28125 2.390625 
Q 33.9375 0 27.875 0 
Q 17.828125 0 11.671875 7.65625 
Q 5.515625 15.328125 5.515625 27.984375 
Q 5.515625 40.671875 11.671875 48.328125 
Q 17.828125 56 27.875 56 
Q 33.9375 56 38.28125 53.609375 
Q 42.625 51.21875 45.40625 46.390625 
L 45.40625 54.6875 
L 54.390625 54.6875 
z
" id="DejaVuSans-103"/>
      <path d="M 31 75.875 
Q 24.46875 64.65625 21.28125 53.65625 
Q 18.109375 42.671875 18.109375 31.390625 
Q 18.109375 20.125 21.3125 9.0625 
Q 24.515625 -2 31 -13.1875 
L 23.1875 -13.1875 
Q 15.875 -1.703125 12.234375 9.375 
Q 8.59375 20.453125 8.59375 31.390625 
Q 8.59375 42.28125 12.203125 53.3125 
Q 15.828125 64.359375 23.1875 75.875 
z
" id="DejaVuSans-40"/>
      <path d="M 21 76.421875 
L 21 -23.578125 
L 12.703125 -23.578125 
L 12.703125 76.421875 
z
" id="DejaVuSans-124"/>
      <path d="M 34.1875 63.1875 
L 14.15625 8.203125 
L 54.25 8.203125 
z
M 0.78125 0 
L 28.609375 72.90625 
L 39.796875 72.90625 
L 67.578125 0 
z
" id="DejaVuSans-916"/>
      <path d="M 8.015625 75.875 
L 15.828125 75.875 
Q 23.140625 64.359375 26.78125 53.3125 
Q 30.421875 42.28125 30.421875 31.390625 
Q 30.421875 20.453125 26.78125 9.375 
Q 23.140625 -1.703125 15.828125 -13.1875 
L 8.015625 -13.1875 
Q 14.5 -2 17.703125 9.0625 
Q 20.90625 20.125 20.90625 31.390625 
Q 20.90625 42.671875 17.703125 53.65625 
Q 14.5 64.65625 8.015625 75.875 
z
" id="DejaVuSans-41"/>
     </defs>
     <g transform="translate(21.934375 196.228)rotate(-90)scale(0.1 -0.1)">
      <use transform="translate(0 0.578125)" xlink:href="#DejaVuSans-108"/>
      <use transform="translate(27.783203 0.578125)" xlink:href="#DejaVuSans-111"/>
      <use transform="translate(88.964844 0.578125)" xlink:href="#DejaVuSans-103"/>
      <use transform="translate(152.441406 0.578125)" xlink:href="#DejaVuSans-40"/>
      <use transform="translate(191.455078 0.578125)" xlink:href="#DejaVuSans-124"/>
      <use transform="translate(225.146484 0.578125)" xlink:href="#DejaVuSans-124"/>
      <use transform="translate(258.837891 0.578125)" xlink:href="#DejaVuSans-916"/>
      <use transform="translate(327.246094 0.578125)" xlink:href="#DejaVuSans-124"/>
      <use transform="translate(360.9375 0.578125)" xlink:href="#DejaVuSans-124"/>
      <use transform="translate(394.628906 0.578125)" xlink:href="#DejaVuSans-41"/>
     </g>
    </g>
   </g>
   <g id="line2d_16">
    <path clip-path="url(#p0fb3049089)" d="M 75.964363 293.365895 
L 75.964363 293.365895 
L 94.018103 293.365895 
L 94.018103 293.365895 
L 110.35562 293.365895 
L 110.35562 293.365895 
L 124.105116 293.365895 
L 124.105116 276.981741 
L 133.970016 276.228387 
L 133.970016 276.228387 
L 146.302483 274.361641 
L 146.302483 237.581367 
L 158.72283 236.632087 
L 158.72283 236.632087 
L 183.994573 232.200865 
L 183.994573 232.200865 
L 198.922658 229.548072 
L 198.922658 229.548072 
L 209.238501 227.891924 
L 209.238501 201.868023 
L 217.768558 201.151102 
L 217.768558 201.151102 
L 226.10876 199.911548 
L 226.10876 179.428857 
L 234.801304 178.713153 
L 234.801304 178.713153 
L 269.446397 172.651742 
L 269.446397 172.651742 
L 275.635809 171.579336 
L 275.635809 171.579336 
L 304.091491 167.332331 
L 304.091491 167.332331 
L 313.998101 166.089907 
L 313.998101 140.177249 
L 326.990289 138.818052 
L 326.990289 138.818052 
L 331.633679 138.058355 
L 331.633679 138.058355 
L 344.726697 135.646307 
L 344.726697 111.710652 
L 353.816766 110.935035 
L 353.816766 110.935035 
L 364.236564 109.313822 
L 364.236564 84.007944 
L 375.117464 83.09888 
L 375.117464 83.09888 
L 385.738305 81.403461 
L 385.738305 56.581948 
L 396.355637 55.690105 
L 396.355637 55.690105 
" style="fill:none;stroke:#000000;stroke-linecap:square;stroke-width:0.5;"/>
   </g>
   <g id="patch_3">
    <path d="M 57.6 307.584 
L 57.6 41.472 
" style="fill:none;stroke:#000000;stroke-linecap:square;stroke-linejoin:miter;stroke-width:0.8;"/>
   </g>
   <g id="patch_4">
    <path d="M 414.72 307.584 
L 414.72 41.472 
" style="fill:none;stroke:#000000;stroke-linecap:square;stroke-linejoin:miter;stroke-width:0.8;"/>
   </g>
   <g id="patch_5">
    <path d="M 57.6 307.584 
L 414.72 307.584 
" style="fill:none;stroke:#000000;stroke-linecap:square;stroke-linejoin:miter;stroke-width:0.8;"/>
   </g>
   <g id="patch_6">
    <path d="M 57.6 41.472 
L 414.72 41.472 
" style="fill:none;stroke:#000000;stroke-linecap:square;stroke-linejoin:miter;stroke-width:0.8;"/>
   </g>
  </g>
 </g>
 <defs>
  <clipPath id="p0fb3049089">
   <rect height="266.112" width="357.12" x="57.6" y="41.472"/>
  </clipPath>
 </defs>
</svg>
