<?xml version="1.0" encoding="utf-8" standalone="no"?>
<!DOCTYPE svg PUBLIC "-//W3C//DTD SVG 1.1//EN"
  "http://www.w3.org/Graphics/SVG/1.1/DTD/svg11.dtd">
<!-- Created with matplotlib (https://matplotlib.org/) -->
<svg height="345.6pt" version="1.1" viewBox="0 0 460.8 345.6" width="460.8pt" xmlns="http://www.w3.org/2000/svg" xmlns:xlink="http://www.w3.org/1999/xlink">
 <defs>
  <style type="text/css">
*{stroke-linecap:butt;stroke-linejoin:round;}
  </style>
 </defs>
 <g id="figure_1">
  <g id="patch_1">
   <path d="M 0 345.6 
L 460.8 345.6 
L 460.8 0 
L 0 0 
z
" style="fill:#ffffff;"/>
  </g>
  <g id="axes_1">
   <g id="patch_2">
    <path d="M 57.6 263.808 
L 414.72 263.808 
L 414.72 85.248 
L 57.6 85.248 
z
" style="fill:#ffffff;"/>
   </g>
   <g id="PathCollection_1">
    <defs>
     <path d="M 0 3 
C 0.795609 3 1.55874 2.683901 2.12132 2.12132 
C 2.683901 1.55874 3 0.795609 3 0 
C 3 -0.795609 2.683901 -1.55874 2.12132 -2.12132 
C 1.55874 -2.683901 0.795609 -3 0 -3 
C -0.795609 -3 -1.55874 -2.683901 -2.12132 -2.12132 
C -2.683901 -1.55874 -3 -0.795609 -3 0 
C -3 0.795609 -2.683901 1.55874 -2.12132 2.12132 
C -1.55874 2.683901 -0.795609 3 0 3 
z
" id="m525db01953" style="stroke:#000000;"/>
    </defs>
    <g clip-path="url(#p8d08baae0b)">
     <use style="stroke:#000000;" x="173.542871" xlink:href="#m525db01953" y="136.535653"/>
    </g>
   </g>
   <g id="patch_3">
    <path clip-path="url(#p8d08baae0b)" d="M 161.76 211.728 
C 171.625555 211.728 181.088371 207.808373 188.064372 200.832372 
C 195.040373 193.856371 198.96 184.393555 198.96 174.528 
C 198.96 164.662445 195.040373 155.199629 188.064372 148.223628 
C 181.088371 141.247627 171.625555 137.328 161.76 137.328 
C 151.894445 137.328 142.431629 141.247627 135.455628 148.223628 
C 128.479627 155.199629 124.56 164.662445 124.56 174.528 
C 124.56 184.393555 128.479627 193.856371 135.455628 200.832372 
C 142.431629 207.808373 151.894445 211.728 161.76 211.728 
z
" style="fill:#cc0000;fill-opacity:0.1;stroke:#cc0000;stroke-dasharray:7.4,3.2;stroke-dashoffset:0;stroke-linejoin:miter;stroke-width:2;"/>
   </g>
   <g id="patch_4">
    <path clip-path="url(#p8d08baae0b)" d="M 310.56 196.848 
C 316.479333 196.848 322.157023 194.496224 326.342623 190.310623 
C 330.528224 186.125023 332.88 180.447333 332.88 174.528 
C 332.88 168.608667 330.528224 162.930977 326.342623 158.745377 
C 322.157023 154.559776 316.479333 152.208 310.56 152.208 
C 304.640667 152.208 298.962977 154.559776 294.777377 158.745377 
C 290.591776 162.930977 288.24 168.608667 288.24 174.528 
C 288.24 180.447333 290.591776 186.125023 294.777377 190.310623 
C 298.962977 194.496224 304.640667 196.848 310.56 196.848 
z
" style="fill:#cc0000;fill-opacity:0.1;stroke:#cc0000;stroke-dasharray:7.4,3.2;stroke-dashoffset:0;stroke-linejoin:miter;stroke-width:2;"/>
   </g>
   <g id="matplotlib.axis_1">
    <g id="xtick_1">
     <g id="line2d_1">
      <defs>
       <path d="M 0 0 
L 0 3.5 
" id="mba549c39ef" style="stroke:#000000;stroke-width:0.8;"/>
      </defs>
      <g>
       <use style="stroke:#000000;stroke-width:0.8;" x="87.36" xlink:href="#mba549c39ef" y="263.808"/>
      </g>
     </g>
     <g id="text_1">
      <!-- 0.0 -->
      <defs>
       <path d="M 31.78125 66.40625 
Q 24.171875 66.40625 20.328125 58.90625 
Q 16.5 51.421875 16.5 36.375 
Q 16.5 21.390625 20.328125 13.890625 
Q 24.171875 6.390625 31.78125 6.390625 
Q 39.453125 6.390625 43.28125 13.890625 
Q 47.125 21.390625 47.125 36.375 
Q 47.125 51.421875 43.28125 58.90625 
Q 39.453125 66.40625 31.78125 66.40625 
z
M 31.78125 74.21875 
Q 44.046875 74.21875 50.515625 64.515625 
Q 56.984375 54.828125 56.984375 36.375 
Q 56.984375 17.96875 50.515625 8.265625 
Q 44.046875 -1.421875 31.78125 -1.421875 
Q 19.53125 -1.421875 13.0625 8.265625 
Q 6.59375 17.96875 6.59375 36.375 
Q 6.59375 54.828125 13.0625 64.515625 
Q 19.53125 74.21875 31.78125 74.21875 
z
" id="DejaVuSans-48"/>
       <path d="M 10.6875 12.40625 
L 21 12.40625 
L 21 0 
L 10.6875 0 
z
" id="DejaVuSans-46"/>
      </defs>
      <g transform="translate(79.408438 278.406437)scale(0.1 -0.1)">
       <use xlink:href="#DejaVuSans-48"/>
       <use x="63.623047" xlink:href="#DejaVuSans-46"/>
       <use x="95.410156" xlink:href="#DejaVuSans-48"/>
      </g>
     </g>
    </g>
    <g id="xtick_2">
     <g id="line2d_2">
      <g>
       <use style="stroke:#000000;stroke-width:0.8;" x="161.76" xlink:href="#mba549c39ef" y="263.808"/>
      </g>
     </g>
     <g id="text_2">
      <!-- 0.5 -->
      <defs>
       <path d="M 10.796875 72.90625 
L 49.515625 72.90625 
L 49.515625 64.59375 
L 19.828125 64.59375 
L 19.828125 46.734375 
Q 21.96875 47.46875 24.109375 47.828125 
Q 26.265625 48.1875 28.421875 48.1875 
Q 40.625 48.1875 47.75 41.5 
Q 54.890625 34.8125 54.890625 23.390625 
Q 54.890625 11.625 47.5625 5.09375 
Q 40.234375 -1.421875 26.90625 -1.421875 
Q 22.3125 -1.421875 17.546875 -0.640625 
Q 12.796875 0.140625 7.71875 1.703125 
L 7.71875 11.625 
Q 12.109375 9.234375 16.796875 8.0625 
Q 21.484375 6.890625 26.703125 6.890625 
Q 35.15625 6.890625 40.078125 11.328125 
Q 45.015625 15.765625 45.015625 23.390625 
Q 45.015625 31 40.078125 35.4375 
Q 35.15625 39.890625 26.703125 39.890625 
Q 22.75 39.890625 18.8125 39.015625 
Q 14.890625 38.140625 10.796875 36.28125 
z
" id="DejaVuSans-53"/>
      </defs>
      <g transform="translate(153.808437 278.406437)scale(0.1 -0.1)">
       <use xlink:href="#DejaVuSans-48"/>
       <use x="63.623047" xlink:href="#DejaVuSans-46"/>
       <use x="95.410156" xlink:href="#DejaVuSans-53"/>
      </g>
     </g>
    </g>
    <g id="xtick_3">
     <g id="line2d_3">
      <g>
       <use style="stroke:#000000;stroke-width:0.8;" x="236.16" xlink:href="#mba549c39ef" y="263.808"/>
      </g>
     </g>
     <g id="text_3">
      <!-- 1.0 -->
      <defs>
       <path d="M 12.40625 8.296875 
L 28.515625 8.296875 
L 28.515625 63.921875 
L 10.984375 60.40625 
L 10.984375 69.390625 
L 28.421875 72.90625 
L 38.28125 72.90625 
L 38.28125 8.296875 
L 54.390625 8.296875 
L 54.390625 0 
L 12.40625 0 
z
" id="DejaVuSans-49"/>
      </defs>
      <g transform="translate(228.208437 278.406437)scale(0.1 -0.1)">
       <use xlink:href="#DejaVuSans-49"/>
       <use x="63.623047" xlink:href="#DejaVuSans-46"/>
       <use x="95.410156" xlink:href="#DejaVuSans-48"/>
      </g>
     </g>
    </g>
    <g id="xtick_4">
     <g id="line2d_4">
      <g>
       <use style="stroke:#000000;stroke-width:0.8;" x="310.56" xlink:href="#mba549c39ef" y="263.808"/>
      </g>
     </g>
     <g id="text_4">
      <!-- 1.5 -->
      <g transform="translate(302.608437 278.406437)scale(0.1 -0.1)">
       <use xlink:href="#DejaVuSans-49"/>
       <use x="63.623047" xlink:href="#DejaVuSans-46"/>
       <use x="95.410156" xlink:href="#DejaVuSans-53"/>
      </g>
     </g>
    </g>
    <g id="xtick_5">
     <g id="line2d_5">
      <g>
       <use style="stroke:#000000;stroke-width:0.8;" x="384.96" xlink:href="#mba549c39ef" y="263.808"/>
      </g>
     </g>
     <g id="text_5">
      <!-- 2.0 -->
      <defs>
       <path d="M 19.1875 8.296875 
L 53.609375 8.296875 
L 53.609375 0 
L 7.328125 0 
L 7.328125 8.296875 
Q 12.9375 14.109375 22.625 23.890625 
Q 32.328125 33.6875 34.8125 36.53125 
Q 39.546875 41.84375 41.421875 45.53125 
Q 43.3125 49.21875 43.3125 52.78125 
Q 43.3125 58.59375 39.234375 62.25 
Q 35.15625 65.921875 28.609375 65.921875 
Q 23.96875 65.921875 18.8125 64.3125 
Q 13.671875 62.703125 7.8125 59.421875 
L 7.8125 69.390625 
Q 13.765625 71.78125 18.9375 73 
Q 24.125 74.21875 28.421875 74.21875 
Q 39.75 74.21875 46.484375 68.546875 
Q 53.21875 62.890625 53.21875 53.421875 
Q 53.21875 48.921875 51.53125 44.890625 
Q 49.859375 40.875 45.40625 35.40625 
Q 44.1875 33.984375 37.640625 27.21875 
Q 31.109375 20.453125 19.1875 8.296875 
z
" id="DejaVuSans-50"/>
      </defs>
      <g transform="translate(377.008437 278.406437)scale(0.1 -0.1)">
       <use xlink:href="#DejaVuSans-50"/>
       <use x="63.623047" xlink:href="#DejaVuSans-46"/>
       <use x="95.410156" xlink:href="#DejaVuSans-48"/>
      </g>
     </g>
    </g>
   </g>
   <g id="matplotlib.axis_2">
    <g id="ytick_1">
     <g id="line2d_6">
      <defs>
       <path d="M 0 0 
L -3.5 0 
" id="m8a02320578" style="stroke:#000000;stroke-width:0.8;"/>
      </defs>
      <g>
       <use style="stroke:#000000;stroke-width:0.8;" x="57.6" xlink:href="#m8a02320578" y="248.928"/>
      </g>
     </g>
     <g id="text_6">
      <!-- 0.0 -->
      <g transform="translate(34.696875 252.727219)scale(0.1 -0.1)">
       <use xlink:href="#DejaVuSans-48"/>
       <use x="63.623047" xlink:href="#DejaVuSans-46"/>
       <use x="95.410156" xlink:href="#DejaVuSans-48"/>
      </g>
     </g>
    </g>
    <g id="ytick_2">
     <g id="line2d_7">
      <g>
       <use style="stroke:#000000;stroke-width:0.8;" x="57.6" xlink:href="#m8a02320578" y="219.168"/>
      </g>
     </g>
     <g id="text_7">
      <!-- 0.2 -->
      <g transform="translate(34.696875 222.967219)scale(0.1 -0.1)">
       <use xlink:href="#DejaVuSans-48"/>
       <use x="63.623047" xlink:href="#DejaVuSans-46"/>
       <use x="95.410156" xlink:href="#DejaVuSans-50"/>
      </g>
     </g>
    </g>
    <g id="ytick_3">
     <g id="line2d_8">
      <g>
       <use style="stroke:#000000;stroke-width:0.8;" x="57.6" xlink:href="#m8a02320578" y="189.408"/>
      </g>
     </g>
     <g id="text_8">
      <!-- 0.4 -->
      <defs>
       <path d="M 37.796875 64.3125 
L 12.890625 25.390625 
L 37.796875 25.390625 
z
M 35.203125 72.90625 
L 47.609375 72.90625 
L 47.609375 25.390625 
L 58.015625 25.390625 
L 58.015625 17.1875 
L 47.609375 17.1875 
L 47.609375 0 
L 37.796875 0 
L 37.796875 17.1875 
L 4.890625 17.1875 
L 4.890625 26.703125 
z
" id="DejaVuSans-52"/>
      </defs>
      <g transform="translate(34.696875 193.207219)scale(0.1 -0.1)">
       <use xlink:href="#DejaVuSans-48"/>
       <use x="63.623047" xlink:href="#DejaVuSans-46"/>
       <use x="95.410156" xlink:href="#DejaVuSans-52"/>
      </g>
     </g>
    </g>
    <g id="ytick_4">
     <g id="line2d_9">
      <g>
       <use style="stroke:#000000;stroke-width:0.8;" x="57.6" xlink:href="#m8a02320578" y="159.648"/>
      </g>
     </g>
     <g id="text_9">
      <!-- 0.6 -->
      <defs>
       <path d="M 33.015625 40.375 
Q 26.375 40.375 22.484375 35.828125 
Q 18.609375 31.296875 18.609375 23.390625 
Q 18.609375 15.53125 22.484375 10.953125 
Q 26.375 6.390625 33.015625 6.390625 
Q 39.65625 6.390625 43.53125 10.953125 
Q 47.40625 15.53125 47.40625 23.390625 
Q 47.40625 31.296875 43.53125 35.828125 
Q 39.65625 40.375 33.015625 40.375 
z
M 52.59375 71.296875 
L 52.59375 62.3125 
Q 48.875 64.0625 45.09375 64.984375 
Q 41.3125 65.921875 37.59375 65.921875 
Q 27.828125 65.921875 22.671875 59.328125 
Q 17.53125 52.734375 16.796875 39.40625 
Q 19.671875 43.65625 24.015625 45.921875 
Q 28.375 48.1875 33.59375 48.1875 
Q 44.578125 48.1875 50.953125 41.515625 
Q 57.328125 34.859375 57.328125 23.390625 
Q 57.328125 12.15625 50.6875 5.359375 
Q 44.046875 -1.421875 33.015625 -1.421875 
Q 20.359375 -1.421875 13.671875 8.265625 
Q 6.984375 17.96875 6.984375 36.375 
Q 6.984375 53.65625 15.1875 63.9375 
Q 23.390625 74.21875 37.203125 74.21875 
Q 40.921875 74.21875 44.703125 73.484375 
Q 48.484375 72.75 52.59375 71.296875 
z
" id="DejaVuSans-54"/>
      </defs>
      <g transform="translate(34.696875 163.447219)scale(0.1 -0.1)">
       <use xlink:href="#DejaVuSans-48"/>
       <use x="63.623047" xlink:href="#DejaVuSans-46"/>
       <use x="95.410156" xlink:href="#DejaVuSans-54"/>
      </g>
     </g>
    </g>
    <g id="ytick_5">
     <g id="line2d_10">
      <g>
       <use style="stroke:#000000;stroke-width:0.8;" x="57.6" xlink:href="#m8a02320578" y="129.888"/>
      </g>
     </g>
     <g id="text_10">
      <!-- 0.8 -->
      <defs>
       <path d="M 31.78125 34.625 
Q 24.75 34.625 20.71875 30.859375 
Q 16.703125 27.09375 16.703125 20.515625 
Q 16.703125 13.921875 20.71875 10.15625 
Q 24.75 6.390625 31.78125 6.390625 
Q 38.8125 6.390625 42.859375 10.171875 
Q 46.921875 13.96875 46.921875 20.515625 
Q 46.921875 27.09375 42.890625 30.859375 
Q 38.875 34.625 31.78125 34.625 
z
M 21.921875 38.8125 
Q 15.578125 40.375 12.03125 44.71875 
Q 8.5 49.078125 8.5 55.328125 
Q 8.5 64.0625 14.71875 69.140625 
Q 20.953125 74.21875 31.78125 74.21875 
Q 42.671875 74.21875 48.875 69.140625 
Q 55.078125 64.0625 55.078125 55.328125 
Q 55.078125 49.078125 51.53125 44.71875 
Q 48 40.375 41.703125 38.8125 
Q 48.828125 37.15625 52.796875 32.3125 
Q 56.78125 27.484375 56.78125 20.515625 
Q 56.78125 9.90625 50.3125 4.234375 
Q 43.84375 -1.421875 31.78125 -1.421875 
Q 19.734375 -1.421875 13.25 4.234375 
Q 6.78125 9.90625 6.78125 20.515625 
Q 6.78125 27.484375 10.78125 32.3125 
Q 14.796875 37.15625 21.921875 38.8125 
z
M 18.3125 54.390625 
Q 18.3125 48.734375 21.84375 45.5625 
Q 25.390625 42.390625 31.78125 42.390625 
Q 38.140625 42.390625 41.71875 45.5625 
Q 45.3125 48.734375 45.3125 54.390625 
Q 45.3125 60.0625 41.71875 63.234375 
Q 38.140625 66.40625 31.78125 66.40625 
Q 25.390625 66.40625 21.84375 63.234375 
Q 18.3125 60.0625 18.3125 54.390625 
z
" id="DejaVuSans-56"/>
      </defs>
      <g transform="translate(34.696875 133.687219)scale(0.1 -0.1)">
       <use xlink:href="#DejaVuSans-48"/>
       <use x="63.623047" xlink:href="#DejaVuSans-46"/>
       <use x="95.410156" xlink:href="#DejaVuSans-56"/>
      </g>
     </g>
    </g>
    <g id="ytick_6">
     <g id="line2d_11">
      <g>
       <use style="stroke:#000000;stroke-width:0.8;" x="57.6" xlink:href="#m8a02320578" y="100.128"/>
      </g>
     </g>
     <g id="text_11">
      <!-- 1.0 -->
      <g transform="translate(34.696875 103.927219)scale(0.1 -0.1)">
       <use xlink:href="#DejaVuSans-49"/>
       <use x="63.623047" xlink:href="#DejaVuSans-46"/>
       <use x="95.410156" xlink:href="#DejaVuSans-48"/>
      </g>
     </g>
    </g>
   </g>
   <g id="line2d_12">
    <path clip-path="url(#p8d08baae0b)" d="M 236.16 248.928 
L 236.16 100.128 
" style="fill:none;stroke:#cc0000;stroke-dasharray:7.4,3.2;stroke-dashoffset:0;stroke-width:2;"/>
   </g>
   <g id="line2d_13">
    <path clip-path="url(#p8d08baae0b)" d="M 87.36 248.928 
L 384.96 248.928 
" style="fill:none;stroke:#009900;stroke-linecap:square;stroke-width:2;"/>
   </g>
   <g id="line2d_14">
    <path clip-path="url(#p8d08baae0b)" d="M 384.96 248.928 
L 384.96 100.128 
" style="fill:none;stroke:#009900;stroke-linecap:square;stroke-width:2;"/>
   </g>
   <g id="line2d_15">
    <path clip-path="url(#p8d08baae0b)" d="M 384.96 100.128 
L 87.36 100.128 
" style="fill:none;stroke:#009900;stroke-linecap:square;stroke-width:2;"/>
   </g>
   <g id="line2d_16">
    <path clip-path="url(#p8d08baae0b)" d="M 87.36 100.128 
L 87.36 248.928 
" style="fill:none;stroke:#009900;stroke-linecap:square;stroke-width:2;"/>
   </g>
   <g id="line2d_17">
    <path clip-path="url(#p8d08baae0b)" d="M 173.542871 136.535653 
L 170.655432 131.331398 
L 167.562187 126.246772 
L 164.268086 121.28991 
L 160.778398 116.468742 
L 157.098707 111.790981 
L 153.234898 107.26411 
L 149.193153 102.895371 
L 146.457613 100.128 
L 142.303014 104.38956 
L 138.322156 108.813851 
L 134.521407 113.393795 
L 130.906847 118.122065 
L 127.484258 122.991096 
L 124.259117 127.9931 
L 121.236582 133.120074 
L 118.421489 138.363817 
L 115.818342 143.715938 
L 113.431304 149.167877 
L 111.264196 154.71091 
L 109.320483 160.336171 
L 107.603275 166.03466 
L 106.11532 171.797261 
L 104.858997 177.614755 
L 103.836317 183.477835 
L 103.048916 189.377121 
L 102.498053 195.303176 
L 102.184609 201.24652 
L 102.109087 207.197644 
L 102.271607 213.147028 
L 102.671909 219.085154 
L 103.309352 225.002522 
L 104.182917 230.889666 
L 105.291206 236.737168 
L 106.632446 242.535673 
L 108.204492 248.275904 
L 108.398799 248.928 
L 109.997077 243.195018 
L 111.364819 237.402707 
L 112.499835 231.560334 
L 113.400312 225.677246 
L 114.064807 219.762855 
L 114.492258 213.826621 
L 114.681981 207.878043 
L 114.633673 201.926636 
L 114.34741 195.981921 
L 113.823652 190.053409 
L 113.063235 184.150583 
L 112.067376 178.282888 
L 110.837669 172.45971 
L 109.37608 166.690366 
L 107.684948 160.984084 
L 105.766978 155.349993 
L 103.625239 149.797108 
L 101.263157 144.334311 
L 98.684511 138.970342 
L 95.893426 133.713782 
L 92.894367 128.57304 
L 89.692132 123.556341 
L 87.36 120.161743 
L 90.699848 115.235588 
L 93.840031 110.179816 
L 96.775525 105.002514 
L 99.296879 100.128 
L 102.039461 105.410028 
L 104.991075 110.578158 
L 108.146997 115.62412 
L 111.502179 120.539843 
L 115.051255 125.317462 
L 118.788545 129.949334 
L 122.708071 134.42805 
L 126.803563 138.746444 
L 131.068469 142.897608 
L 135.495965 146.8749 
L 136.211806 147.488589 
L 132.521315 142.819342 
L 128.647057 138.301411 
L 124.595228 133.942023 
L 120.372311 129.748152 
L 115.985062 125.726507 
L 111.4405 121.883522 
L 106.745894 118.225345 
L 101.908755 114.757829 
L 96.936822 111.48652 
L 91.838049 108.416652 
L 87.36 105.94256 
L 92.561293 103.049788 
L 97.364958 100.128 
L 102.453253 103.215205 
L 107.660933 106.096464 
L 112.979667 108.767166 
L 118.400946 111.223039 
L 123.916098 113.460154 
L 129.516298 115.474932 
L 135.192589 117.264151 
L 140.935889 118.824947 
L 146.737011 120.154825 
L 152.586672 121.251655 
L 158.475517 122.113684 
L 164.394122 122.739533 
L 170.333021 123.128199 
L 176.282712 123.279063 
L 182.233677 123.191881 
L 188.176395 122.866794 
L 194.101359 122.304322 
L 199.999092 121.505364 
L 205.860157 120.471199 
L 211.675178 119.203481 
L 217.434853 117.704239 
L 223.129967 115.97587 
L 228.751409 114.021139 
L 234.290186 111.843175 
L 236.16 111.049378 
L 243.425886 109.450121 
L 250.649524 107.669737 
L 257.8264 105.709336 
L 264.952028 103.570145 
L 272.021956 101.2535 
L 275.256032 100.128 
L 282.298835 102.52584 
L 289.399378 104.746879 
L 296.553222 106.789729 
L 303.755896 108.653113 
L 311.002899 110.335866 
L 318.289703 111.836938 
L 325.611752 113.155389 
L 332.964471 114.290397 
L 340.343264 115.24125 
L 347.743521 116.007356 
L 355.160616 116.588236 
L 362.589913 116.983526 
L 370.026771 117.192979 
L 377.46654 117.216465 
L 384.96 117.052059 
L 377.521999 116.888176 
L 370.082226 116.910275 
L 362.645329 117.118343 
L 355.215958 117.512248 
L 347.798755 118.091745 
L 340.398356 118.856472 
L 333.019385 119.805951 
L 325.666455 120.939588 
L 318.34416 122.256674 
L 311.057077 123.756388 
L 303.809761 125.437791 
L 296.606739 127.299833 
L 289.452515 129.341349 
L 282.351558 131.561065 
L 275.308308 133.957592 
L 268.327166 136.529434 
L 261.412494 139.274982 
L 254.568615 142.192521 
L 247.799805 145.280227 
L 241.110295 148.536172 
L 236.16 151.080857 
L 232.886198 156.051149 
L 229.813774 161.148382 
L 226.947642 166.364403 
L 224.292388 171.690866 
L 221.852259 177.11925 
L 219.63116 182.640871 
L 217.632644 188.246895 
L 215.859907 193.928355 
L 214.315786 199.676161 
L 213.002751 205.481117 
L 211.922903 211.333938 
L 211.077969 217.225259 
L 210.4693 223.145657 
L 210.097872 229.085658 
L 209.964277 235.035762 
L 210.06873 240.986449 
L 210.411063 246.928198 
L 210.580037 248.928 
L 211.002476 242.991408 
L 211.187176 237.042671 
L 211.133843 231.091307 
L 210.842562 225.146836 
L 210.313798 219.218768 
L 209.548398 213.316587 
L 208.547585 207.449735 
L 207.312962 201.627597 
L 205.846503 195.859488 
L 204.150554 190.154636 
L 202.227828 184.522167 
L 200.081402 178.971092 
L 198.921503 176.219959 
L 201.669952 170.940981 
L 204.2051 165.556317 
L 206.522892 160.074582 
L 208.619618 154.504544 
L 210.491925 148.855115 
L 212.136818 143.135333 
L 213.551664 137.354347 
L 214.734201 131.521408 
L 215.682537 125.645845 
L 216.395154 119.737058 
L 216.870913 113.804501 
L 217.109052 107.857664 
L 217.109191 101.906061 
L 217.063034 100.128 
L 217.022967 101.615454 
L 217.01148 107.567046 
L 217.238002 113.514337 
L 217.702171 119.447812 
L 218.403245 125.35798 
L 219.340101 131.235384 
L 220.511242 137.070623 
L 221.914793 142.854361 
L 223.548509 148.577345 
L 225.409777 154.230421 
L 227.495618 159.804543 
L 229.802697 165.290796 
L 232.327322 170.680402 
L 235.065454 175.964739 
L 236.16 177.941601 
L 233.341939 183.183749 
L 230.735762 188.534396 
L 228.345638 193.984982 
L 226.175392 199.526788 
L 224.228495 205.150947 
L 222.508061 210.848463 
L 221.016844 216.610221 
L 219.757228 222.427003 
L 218.731229 228.289503 
L 217.940488 234.188342 
L 217.38627 240.114085 
L 217.069463 246.05725 
L 217.001681 248.928 
L 216.973474 247.440274 
L 216.711941 241.494419 
L 216.212846 235.56378 
L 215.476988 229.657843 
L 214.505544 223.786056 
L 213.300068 217.957814 
L 211.862489 212.18244 
L 210.195107 206.469173 
L 208.300589 200.827154 
L 206.181965 195.265408 
L 203.842626 189.792834 
L 201.286313 184.418185 
L 198.642496 179.377895 
L 202.67183 174.997707 
L 206.52278 170.459891 
L 210.189185 165.771709 
L 213.66518 160.94066 
L 216.945205 155.974472 
L 220.024011 150.881091 
L 222.896674 145.668664 
L 225.558597 140.345531 
L 228.005522 134.920208 
L 230.233536 129.401373 
L 232.239072 123.797856 
L 234.018923 118.118621 
L 235.570242 112.372753 
L 236.16 109.911657 
L 234.706627 104.140238 
L 233.549741 100.128 
L 231.934996 105.856366 
L 230.550617 111.644723 
L 229.398817 117.48381 
L 228.481439 123.364286 
L 227.799952 129.276744 
L 227.355445 135.211724 
L 227.148629 141.159733 
L 227.179836 147.111254 
L 227.449016 153.056767 
L 227.955737 158.98676 
L 228.699189 164.891746 
L 229.678183 170.762279 
L 230.891152 176.588966 
L 232.336157 182.362487 
L 234.010885 188.073605 
L 235.912657 193.713183 
L 236.16 194.395687 
L 234.230737 200.02592 
L 232.528166 205.728799 
L 231.055012 211.495202 
L 229.813631 217.315902 
L 228.806008 223.181589 
L 228.033757 229.082877 
L 227.498112 235.010327 
L 227.19993 240.954456 
L 227.139688 246.905755 
L 227.17341 248.928 
L 227.21122 244.464328 
L 227.053344 238.514819 
L 226.657677 232.576382 
L 226.024853 226.658518 
L 225.155883 220.770694 
L 224.052159 214.922329 
L 222.715445 209.122779 
L 221.14788 203.381323 
L 219.351972 197.707145 
L 217.330594 192.109323 
L 215.086979 186.596812 
L 212.624718 181.178431 
L 209.947749 175.862849 
L 207.060354 170.658569 
L 203.967154 165.573916 
L 200.673095 160.617026 
L 197.183449 155.795828 
L 193.503798 151.118035 
L 189.640028 146.59113 
L 185.598321 142.222357 
L 181.385143 138.018703 
L 177.007233 133.986893 
L 172.471596 130.133378 
L 167.785487 126.464323 
L 162.956404 122.985597 
L 157.992071 119.702766 
L 152.900431 116.62108 
L 147.68963 113.745471 
L 142.368002 111.080539 
L 136.944063 108.630547 
L 131.426489 106.399414 
L 125.824106 104.39071 
L 120.145878 102.607648 
L 114.400889 101.053081 
L 110.461864 100.128 
L 104.676731 101.525788 
L 98.952121 103.153801 
L 93.297194 105.009436 
L 87.36 107.233231 
L 92.930748 109.328069 
L 98.580812 111.198461 
L 104.301151 112.841414 
L 110.082616 114.254301 
L 115.915956 115.43486 
L 121.79184 116.381204 
L 127.700868 117.091818 
L 133.633586 117.565566 
L 139.580503 117.801689 
L 145.532106 117.79981 
L 151.478873 117.559932 
L 157.411291 117.082438 
L 163.319869 116.368093 
L 169.195154 115.41804 
L 175.027748 114.233797 
L 180.80832 112.81726 
L 186.527621 111.170695 
L 192.176502 109.296737 
L 197.745926 107.198382 
L 203.226984 104.878988 
L 208.610906 102.342265 
L 212.900314 100.128 
L 218.19912 102.838024 
L 223.60206 105.333985 
L 229.10049 107.611889 
L 234.685614 109.668093 
L 236.16 110.169034 
L 230.553665 112.166679 
L 225.031698 114.386919 
L 219.602935 116.826204 
L 214.276059 119.480629 
L 209.059593 122.34595 
L 203.961882 125.417582 
L 198.991081 128.69061 
L 194.155142 132.1598 
L 189.461802 135.819601 
L 184.918569 139.664158 
L 181.355613 142.907564 
L 178.427841 146.276462 
L 175.303326 149.463737 
L 171.993311 152.457918 
L 168.509709 155.248229 
L 164.865058 157.824629 
L 161.072474 160.177845 
L 157.145606 162.299407 
L 153.098587 164.181681 
L 148.945982 165.817893 
L 144.702735 167.202153 
L 140.384118 168.329481 
L 136.005674 169.195818 
L 131.583159 169.798047 
L 127.13249 170.134001 
L 124.812272 170.203026 
L 129.105226 171.424446 
L 133.317213 172.901091 
L 137.433076 174.627647 
L 141.438001 176.597899 
L 145.317575 178.804757 
L 149.057836 181.240279 
L 152.645323 183.895699 
L 156.067125 186.761461 
L 159.310927 189.827251 
L 162.365054 193.082035 
L 165.218516 196.514101 
L 167.861043 200.111095 
L 170.283125 203.860074 
L 172.476044 207.747544 
L 173.523169 209.819187 
L 176.898758 214.720919 
L 180.467663 219.483743 
L 184.224176 224.10004 
L 188.162287 228.562423 
L 192.275695 232.863754 
L 196.557821 236.997153 
L 201.001813 240.956005 
L 205.600562 244.733979 
L 210.346712 248.32503 
L 211.183751 248.928 
L 215.954682 245.369939 
L 220.579513 241.623939 
L 225.050844 237.69599 
L 229.361522 233.592378 
L 233.504652 229.319668 
L 236.16 226.39236 
L 232.131807 222.011122 
L 227.931634 217.794473 
L 223.566199 213.74916 
L 219.042487 209.881653 
L 214.367735 206.19814 
L 209.54942 202.704514 
L 204.595252 199.406363 
L 199.513155 196.308964 
L 193.926346 193.21399 
L 190.087479 190.937057 
L 186.392055 188.434027 
L 182.853372 185.713909 
L 179.484166 182.786492 
L 176.296562 179.662312 
L 173.302033 176.352612 
L 170.511355 172.869304 
L 167.934572 169.224924 
L 165.580958 165.432587 
L 163.458982 161.505943 
L 161.576282 157.459122 
L 159.939634 153.306689 
L 158.554927 149.063588 
L 157.427145 144.745089 
L 156.560347 140.366736 
L 156.001921 136.271886 
L 155.17749 130.37766 
L 154.118012 124.521118 
L 152.825183 118.711628 
L 151.30107 112.958485 
L 149.548112 107.270891 
L 147.569113 101.657947 
L 146.985412 100.128 
L 144.944765 105.718826 
L 143.129323 111.386785 
L 141.541991 117.122808 
L 140.185309 122.917719 
L 139.061446 128.762247 
L 138.172202 134.647043 
L 137.518997 140.562692 
L 137.093895 146.681577 
L 131.150407 146.37088 
L 125.199249 146.298108 
L 119.249941 146.463377 
L 113.312 146.866422 
L 107.394927 147.5066 
L 101.508187 148.382885 
L 95.661198 149.493876 
L 89.863314 150.837795 
L 87.36 151.494274 
L 93.133634 152.938824 
L 98.960417 154.151335 
L 104.831027 155.129867 
L 110.736071 155.872855 
L 116.666104 156.37911 
L 122.611638 156.647821 
L 129.127187 156.669122 
L 125.912083 151.660661 
L 122.499266 146.784775 
L 118.894195 142.049266 
L 115.102638 137.461709 
L 111.130661 133.029444 
L 106.984617 128.759561 
L 102.67114 124.65889 
L 98.197131 120.733993 
L 93.569746 116.991148 
L 88.796388 113.436343 
L 87.36 112.423405 
L 92.175013 108.92523 
L 96.846285 105.237304 
L 101.366343 101.365527 
L 102.73671 100.128 
L 107.208376 104.055567 
L 111.833525 107.801174 
L 116.60476 111.358828 
L 121.514447 114.722837 
L 126.55473 117.887821 
L 131.717548 120.848715 
L 136.99464 123.600784 
L 142.377564 126.139623 
L 147.857709 128.461172 
L 153.426308 130.561717 
L 159.074452 132.437898 
L 164.793105 134.086711 
L 170.573119 135.505521 
L 176.405246 136.692057 
L 182.280158 137.644421 
L 188.188454 138.36109 
L 194.120684 138.840916 
L 200.067356 139.083133 
L 206.018958 139.087353 
L 211.965967 138.853568 
L 217.898871 138.382154 
L 223.808178 137.673863 
L 229.684434 136.72983 
L 235.518238 135.551565 
L 236.16 135.407042 
L 243.542354 134.484241 
L 250.899334 133.377188 
L 258.226341 132.086575 
L 265.518797 130.61321 
L 272.772144 128.958013 
L 279.981849 127.122018 
L 287.143405 125.106374 
L 294.252338 122.912338 
L 301.304204 120.541284 
L 308.294597 117.994692 
L 315.219147 115.274154 
L 322.073526 112.381371 
L 328.853452 109.31815 
L 335.554687 106.086406 
L 342.173042 102.688158 
L 346.905439 100.128 
L 353.461276 103.645345 
L 360.102989 106.997713 
L 366.826427 110.183007 
L 373.627388 113.199238 
L 380.501621 116.044519 
L 384.96 117.783491 
L 378.040903 120.517868 
L 371.192321 123.42435 
L 364.418534 126.501121 
L 357.723774 129.746257 
L 351.112226 133.157731 
L 344.588022 136.73341 
L 338.15524 140.47106 
L 331.817899 144.368345 
L 325.579961 148.422829 
L 319.445323 152.631978 
L 318.160982 153.542112 
L 314.467105 158.20868 
L 310.58957 162.7238 
L 306.534581 167.080248 
L 302.308623 171.271055 
L 297.918458 175.289516 
L 293.371109 179.129204 
L 289.567775 182.111462 
L 285.321136 188.220208 
L 281.228527 194.4332 
L 277.292504 200.746554 
L 273.51553 207.156326 
L 269.899963 213.65851 
L 266.448064 220.249042 
L 263.161989 226.923803 
L 260.043793 233.678621 
L 257.095424 240.509275 
L 254.318725 247.411497 
L 253.735323 248.928 
L 250.99635 242.010721 
L 248.08532 235.164071 
L 245.00405 228.392329 
L 241.754468 221.699726 
L 238.338603 215.090446 
L 236.16 211.075805 
L 239.676901 204.519729 
L 243.028818 197.877789 
L 246.213657 191.154136 
L 249.229427 184.35297 
L 252.074242 177.478544 
L 254.746326 170.535152 
L 257.244009 163.527135 
L 259.565729 156.458873 
L 261.710035 149.334782 
L 263.675587 142.159316 
L 265.461157 134.936958 
L 267.065629 127.672222 
L 268.488 120.369648 
L 269.727382 113.033801 
L 270.782999 105.669265 
L 271.453916 100.128 
L 272.371226 107.511039 
L 273.472805 114.86884 
L 274.757967 122.196805 
L 276.225906 129.490355 
L 277.875707 136.744931 
L 279.706338 143.956 
L 281.716654 151.119054 
L 283.9054 158.229617 
L 286.271208 165.283245 
L 288.466684 171.355021 
L 284.080007 177.363997 
L 279.84491 183.48075 
L 275.764039 189.701458 
L 271.839945 196.022233 
L 268.07508 202.439126 
L 264.471797 208.948125 
L 261.032348 215.545163 
L 257.758883 222.226116 
L 254.653447 228.98681 
L 251.717981 235.82302 
L 248.95432 242.730472 
L 246.642911 248.928 
L 244.03345 241.960832 
L 241.250643 235.061071 
L 238.296229 228.233029 
L 236.16 223.568739 
L 239.231676 216.79264 
L 242.133008 209.941874 
L 244.862181 203.020723 
L 247.417491 196.033513 
L 249.797341 188.98461 
L 252.000242 181.878419 
L 254.024819 174.719383 
L 255.869806 167.511974 
L 257.53405 160.260697 
L 259.016511 152.970085 
L 260.316262 145.644694 
L 261.432492 138.289101 
L 262.364502 130.907903 
L 263.11171 123.505715 
L 263.673649 116.087161 
L 264.049968 108.656878 
L 264.252733 100.128 
L 264.295692 103.103678 
L 264.533245 110.53969 
L 264.956605 117.967441 
L 265.565507 125.382288 
L 266.359571 132.779597 
L 267.3383 140.154745 
L 268.501083 147.503122 
L 269.847193 154.820137 
L 271.375789 162.101216 
L 273.085914 169.341809 
L 274.976502 176.537391 
L 277.046369 183.683465 
L 279.294223 190.775564 
L 281.718659 197.809256 
L 284.318161 204.780146 
L 287.091104 211.683877 
L 290.035757 218.516134 
L 293.150278 225.272648 
L 296.432721 231.949195 
L 299.881034 238.541604 
L 303.493063 245.045754 
L 305.752026 248.928 
L 309.461807 242.479105 
L 313.009223 235.939491 
L 316.392058 229.313244 
L 319.608196 222.604506 
L 322.655628 215.817468 
L 325.53245 208.956374 
L 328.236863 202.025511 
L 330.767178 195.02921 
L 333.121813 187.971844 
L 335.299296 180.857824 
L 337.298267 173.691596 
L 339.117476 166.477637 
L 340.755787 159.220458 
L 342.212175 151.924592 
L 343.48573 144.594601 
L 344.575656 137.235064 
L 345.481273 129.850582 
L 346.202014 122.44577 
L 346.737428 115.025254 
L 347.087182 107.593674 
L 347.251319 100.128 
L 347.294277 103.103678 
L 347.531831 110.53969 
L 347.955191 117.967441 
L 348.564093 125.382288 
L 349.358157 132.779597 
L 350.336886 140.154745 
L 351.499669 147.503122 
L 352.845779 154.820137 
L 354.374374 162.101216 
L 356.0845 169.341809 
L 357.975088 176.537391 
L 360.044955 183.683465 
L 362.292809 190.775564 
L 364.717244 197.809256 
L 367.316746 204.780146 
L 370.08969 211.683877 
L 373.034342 218.516134 
L 376.148863 225.272648 
L 379.431306 231.949195 
L 382.87962 238.541604 
L 384.96 242.334344 
L 381.388865 248.928 
L 377.846386 242.38571 
L 374.141473 235.934017 
L 370.276443 229.576954 
L 366.25371 223.318492 
L 362.075789 217.162544 
L 357.745291 211.112957 
L 353.264923 205.173512 
L 348.637483 199.34792 
L 343.865865 193.639822 
L 338.953051 188.052786 
L 333.90211 182.590303 
L 332.028964 180.632588 
L 339.216126 178.710239 
L 346.352988 176.608831 
L 353.43509 174.329676 
L 360.458006 171.8742 
L 367.417347 169.243936 
L 374.308764 166.440529 
L 381.12795 163.46573 
L 384.96 161.703918 
L 378.183658 158.632778 
L 371.332663 155.731988 
L 364.411296 153.003361 
L 357.423884 150.448604 
L 350.374793 148.069311 
L 343.268428 145.866972 
L 336.109232 143.842961 
L 328.901677 141.998544 
L 321.650269 140.334873 
L 314.35954 138.852988 
L 307.034045 137.553816 
L 299.678364 136.438168 
L 292.297093 135.506741 
L 284.894845 134.760118 
L 277.476247 134.198766 
L 270.045935 133.823034 
L 262.608552 133.633158 
L 255.168747 133.629257 
L 247.731169 133.811333 
L 240.300466 134.179272 
L 236.16 134.465205 
L 230.296057 135.482922 
L 224.477502 136.734321 
L 218.713644 138.2174 
L 213.013703 139.929784 
L 207.3868 141.868736 
L 201.841934 144.031153 
L 196.387978 146.413576 
L 191.033655 149.012193 
L 189.538753 149.78571 
L 185.794135 152.214529 
L 181.910615 154.414435 
L 177.902167 156.377511 
L 173.783219 158.096692 
L 169.568593 159.56579 
L 165.273459 160.779519 
L 160.913273 161.733511 
L 156.503728 162.424332 
L 152.060694 162.849495 
L 147.60016 163.007472 
L 143.13818 162.897692 
L 138.690812 162.520552 
L 134.274061 161.877409 
L 129.903824 160.970577 
L 127.379984 160.320448 
L 131.198728 162.630972 
L 134.872051 165.166325 
L 138.386734 167.917383 
L 141.730128 170.874245 
L 144.890201 174.02627 
L 147.855579 177.362113 
L 150.615591 180.86977 
L 153.160303 184.536616 
L 155.480557 188.349454 
L 157.568002 192.294564 
L 159.415127 196.357746 
L 161.015284 200.524377 
L 162.362713 204.779463 
L 163.452565 209.107689 
L 163.96819 211.662403 
L 164.382023 207.218299 
L 165.061597 202.807007 
L 166.004467 198.444403 
L 167.207239 194.146187 
L 168.665586 189.927829 
L 170.374257 185.80451 
L 172.327105 181.79107 
L 174.517101 177.901952 
L 176.936363 174.151154 
L 179.576185 170.552173 
L 182.427065 167.117963 
L 185.478745 163.860883 
L 188.72024 160.792655 
L 192.139887 157.924321 
L 194.213987 156.346177 
L 198.465274 152.181066 
L 202.5466 147.849282 
L 206.451436 143.357752 
L 210.173535 138.713664 
L 213.706944 133.924446 
L 217.046008 128.99776 
L 220.185386 123.941489 
L 223.120056 118.76372 
L 225.845324 113.472737 
L 228.356828 108.077005 
L 230.650552 102.585155 
L 231.594534 100.128 
L 233.790753 105.659564 
L 236.16 110.999656 
L 233.748339 116.440747 
L 231.556193 121.973927 
L 229.587069 127.590343 
L 227.844116 133.28101 
L 226.330124 139.036825 
L 225.047514 144.84858 
L 223.998338 150.706976 
L 223.184274 156.602643 
L 222.606626 162.526147 
L 222.266316 168.468013 
L 222.16389 174.418735 
L 222.299512 180.368793 
L 222.672963 186.308667 
L 223.283648 192.228857 
L 224.130589 198.11989 
L 225.21243 203.972343 
L 226.527442 209.776852 
L 228.073521 215.524131 
L 229.848193 221.204987 
L 231.848618 226.81033 
L 234.071598 232.331195 
L 236.16 237.007707 
L 233.748339 242.448798 
L 231.556193 247.981978 
L 231.206765 248.928 
L 229.05217 243.38009 
L 226.677442 237.922779 
L 224.086378 232.564797 
L 221.283126 227.314716 
L 218.272168 222.180934 
L 215.058322 217.171665 
L 211.646729 212.294923 
L 208.042848 207.558508 
L 204.252444 202.969999 
L 200.28158 198.536736 
L 196.136609 194.265812 
L 194.327768 192.505222 
L 190.812433 189.754997 
L 187.468338 186.798927 
L 184.307518 183.647651 
L 181.34135 180.312511 
L 178.580507 176.805509 
L 176.034926 173.139266 
L 173.713768 169.326977 
L 171.625388 165.382362 
L 169.7773 161.319618 
L 168.176156 157.153366 
L 166.827719 152.8986 
L 165.736841 148.570632 
L 164.907448 144.185039 
L 164.342525 139.757604 
L 164.151432 137.404947 
L 163.160668 141.756924 
L 161.910724 146.04166 
L 160.406101 150.243734 
L 158.652211 154.348023 
L 156.655368 158.339757 
L 154.422758 162.204568 
L 151.962415 165.928549 
L 149.283195 169.498297 
L 146.39474 172.900965 
L 143.307445 176.124306 
L 140.032421 179.15672 
L 136.581455 181.987294 
L 132.966966 184.605841 
L 129.201962 187.002936 
L 127.154836 188.178006 
L 131.514259 187.220535 
L 135.923252 186.526196 
L 140.365945 186.097488 
L 144.826352 185.935952 
L 149.288418 186.042171 
L 153.736086 186.415762 
L 158.153348 187.055381 
L 162.524308 187.958726 
L 166.833234 189.122545 
L 171.064618 190.542651 
L 175.203234 192.213932 
L 179.234186 194.130373 
L 183.142966 196.285078 
L 186.915508 198.670292 
L 188.850664 200.021841 
L 186.127389 196.485587 
L 183.621062 192.792398 
L 181.340704 188.955565 
L 179.294521 184.988897 
L 177.489878 180.90667 
L 175.933269 176.723575 
L 174.630295 172.454666 
L 173.585648 168.115308 
L 172.803085 163.721117 
L 172.285424 159.287908 
L 172.034528 154.831635 
L 172.051299 150.368336 
L 172.335677 145.914074 
L 172.886638 141.48488 
L 173.285096 139.15835 
L 171.245784 143.128555 
L 168.972074 146.96933 
L 166.472146 150.666854 
L 163.754998 154.207818 
L 160.83041 157.579479 
L 157.708905 160.769703 
L 154.40172 163.767009 
L 150.920755 166.560609 
L 147.278538 169.140449 
L 143.488178 171.497245 
L 139.563315 173.622515 
L 135.518075 175.50861 
L 131.367017 177.148743 
L 127.12508 178.53701 
L 124.850456 179.167564 
L 129.311135 179.321375 
L 133.754565 179.742391 
L 138.164752 180.429094 
L 142.525827 181.379014 
L 146.822093 182.588733 
L 151.038088 184.053896 
L 155.15864 185.76923 
L 159.168918 187.728563 
L 163.054491 189.924842 
L 166.801374 192.350163 
L 170.396083 194.995799 
L 173.825681 197.852227 
L 177.077824 200.909167 
L 180.140808 204.155618 
L 181.680232 205.944944 
L 179.919238 201.843698 
L 178.40734 197.644236 
L 177.14998 193.361671 
L 176.151681 189.011416 
L 175.416038 184.609127 
L 174.945698 180.170647 
L 174.742352 175.711951 
L 174.806734 171.249085 
L 175.138612 166.798111 
L 175.736791 162.375046 
L 176.599117 157.99581 
L 177.722489 153.676162 
L 179.102863 149.43165 
L 180.73527 145.277547 
L 181.698373 143.122566 
L 178.737983 146.462837 
L 175.582625 149.619581 
L 172.243654 152.581437 
L 168.733086 155.337745 
L 165.063556 157.878585 
L 161.248271 160.194814 
L 157.30096 162.278095 
L 153.235831 164.12093 
L 149.067513 165.716688 
L 144.811008 167.059625 
L 140.481634 168.144909 
L 136.094972 168.968633 
L 131.666811 169.527833 
L 127.213086 169.820496 
L 124.853141 169.867121 
L 129.136258 171.122601 
L 133.336384 172.632654 
L 137.438403 174.391847 
L 141.427552 176.393848 
L 145.289475 178.631451 
L 149.010273 181.096604 
L 152.576555 183.780436 
L 155.975487 186.673286 
L 159.194835 189.764744 
L 162.223014 193.043685 
L 165.049126 196.498307 
L 167.662999 200.116177 
L 170.055226 203.884276 
L 172.217199 207.789041 
L 173.264667 209.904301 
L 172.576027 205.494415 
L 172.15306 201.051171 
L 171.99729 196.590559 
L 172.109275 192.128634 
L 172.488615 187.681453 
L 173.133942 183.265021 
L 174.042935 178.895232 
L 175.212323 174.587814 
L 176.637896 170.358268 
L 178.314524 166.221816 
L 180.236174 162.193345 
L 182.395929 158.287352 
L 184.786017 154.517896 
L 187.397835 150.898542 
L 188.865382 149.049808 
L 191.911557 143.936845 
L 194.750831 138.706156 
L 197.378663 133.366111 
L 199.790847 127.925252 
L 201.983526 122.392283 
L 203.953191 116.776057 
L 205.696691 111.085557 
L 207.211238 105.329888 
L 208.371189 100.128 
L 209.678643 105.934216 
L 211.217238 111.683503 
L 212.984513 117.366665 
L 214.977639 122.974608 
L 217.19343 128.498361 
L 219.628339 133.929089 
L 222.278472 139.258101 
L 225.139588 144.476874 
L 228.207112 149.577059 
L 231.476134 154.550496 
L 234.941426 159.389228 
L 236.16 160.997956 
L 232.629401 165.789245 
L 229.293227 170.717888 
L 226.156814 175.776 
L 223.225181 180.955489 
L 220.503017 186.24807 
L 217.994678 191.645274 
L 215.704175 197.138468 
L 213.635174 202.718863 
L 211.790984 208.377533 
L 210.174555 214.105424 
L 208.788474 219.893374 
L 207.634959 225.732122 
L 206.715853 231.612329 
L 206.032628 237.524586 
L 205.586377 243.459435 
L 205.385801 248.928 
L 205.351175 247.440409 
L 205.063988 241.495739 
L 204.539307 235.567308 
L 203.777971 229.664601 
L 202.7812 223.797061 
L 201.550586 217.974075 
L 200.0881 212.204957 
L 198.39608 206.498939 
L 196.477234 200.865147 
L 194.334631 195.312595 
L 193.653666 193.675691 
L 199.569793 193.026829 
L 205.45524 192.141904 
L 211.300592 191.022331 
L 217.096497 189.669902 
L 222.833683 188.08678 
L 228.502972 186.275499 
L 234.095295 184.238955 
L 236.16 183.422173 
L 243.444658 181.910723 
L 250.689257 180.217648 
L 257.889269 178.344007 
L 265.040196 176.290969 
L 272.137568 174.059818 
L 279.176948 171.651948 
L 286.153939 169.068865 
L 289.261146 167.854081 
L 295.211856 167.751016 
L 301.161929 167.885999 
L 307.101844 168.258813 
L 313.022099 168.868863 
L 318.913223 169.715171 
L 324.765791 170.796385 
L 330.570441 172.110774 
L 332.803531 172.681992 
L 327.330529 175.020331 
L 321.768396 177.137939 
L 316.126031 179.031426 
L 310.41246 180.697765 
L 304.636823 182.134288 
L 298.80836 183.338699 
L 292.936396 184.30907 
L 290.652699 184.62165 
L 294.840728 180.39294 
L 299.19451 176.335088 
L 303.707081 172.454587 
L 308.37122 168.757644 
L 313.179467 165.250175 
L 318.124129 161.937789 
L 323.197296 158.825787 
L 325.194757 157.675514 
L 322.909433 163.170864 
L 320.406181 168.57043 
L 317.689007 173.865574 
L 314.762257 179.047823 
L 311.630613 184.108889 
L 308.299085 189.040674 
L 304.773004 193.835289 
L 303.356403 195.653591 
L 303.401939 189.702162 
L 303.685433 183.757315 
L 304.20643 177.828559 
L 304.964097 171.92538 
L 305.957222 166.057222 
L 307.184217 160.233472 
L 308.643118 154.463447 
L 309.26991 152.245315 
L 313.541779 146.154186 
L 317.660051 139.958174 
L 321.622151 133.661153 
L 325.425605 127.267057 
L 329.068034 120.779883 
L 332.547162 114.203685 
L 335.860816 107.542573 
L 339.309661 100.128 
L 342.439047 106.877641 
L 345.736179 113.546947 
L 349.198995 120.131749 
L 352.825333 126.627932 
L 356.612925 133.031436 
L 360.559404 139.338259 
L 364.662305 145.54446 
L 368.919062 151.646159 
L 373.327015 157.639544 
L 377.88341 163.520869 
L 382.5854 169.286458 
L 384.96 172.089663 
L 380.187196 177.796769 
L 375.558546 183.621399 
L 371.076943 189.559914 
L 366.745188 195.608601 
L 362.565988 201.763681 
L 358.541955 208.021306 
L 354.675604 214.377566 
L 350.969351 220.828489 
L 347.425512 227.370043 
L 344.046303 233.998139 
L 340.833834 240.708635 
L 337.790114 247.497338 
L 337.174478 248.928 
L 334.166328 242.123461 
L 330.989023 235.396244 
L 327.644548 228.750553 
L 324.134993 222.190542 
L 320.462552 215.720311 
L 316.629519 209.343903 
L 312.638291 203.065304 
L 308.390523 196.742314 
L 303.123732 201.996991 
L 297.989939 207.381682 
L 292.992355 212.893022 
L 288.134101 218.527566 
L 283.418214 224.281793 
L 278.847641 230.152106 
L 274.42524 236.134838 
L 270.153773 242.226249 
L 265.709749 248.928 
L 261.60442 242.723406 
L 257.345275 236.623373 
L 252.934975 230.631714 
L 248.376278 224.752174 
L 243.672033 218.988426 
L 238.825178 213.344073 
L 236.16 210.358457 
L 241.08232 204.779794 
L 245.863649 199.079829 
L 250.501001 193.262124 
L 254.991475 187.330315 
L 259.332267 181.28811 
L 263.520663 175.139284 
L 267.554045 168.887681 
L 271.429894 162.537207 
L 275.145786 156.091832 
L 278.699399 149.555583 
L 282.088512 142.932545 
L 285.311008 136.226858 
L 288.364872 129.442713 
L 291.248196 122.584348 
L 293.959177 115.656052 
L 296.496122 108.662152 
L 298.857445 101.607021 
L 299.327743 100.128 
L 301.652241 107.195349 
L 304.152679 114.202384 
L 306.827492 121.144724 
L 309.67501 128.018032 
L 312.693453 134.818011 
L 315.880935 141.540412 
L 319.235463 148.181034 
L 322.754941 154.735726 
L 323.752055 156.523776 
L 331.052951 157.954733 
L 338.387335 159.202739 
L 345.750625 160.267015 
L 353.138218 161.146895 
L 360.545497 161.841829 
L 367.967833 162.351384 
L 375.400587 162.675241 
L 382.839114 162.813196 
L 384.96 162.818458 
L 377.520679 162.903398 
L 370.085805 163.174276 
L 362.660026 163.630922 
L 355.247983 164.27305 
L 347.854307 165.100259 
L 340.48362 166.112033 
L 331.762242 167.553236 
L 338.397009 164.187142 
L 344.945559 160.656249 
L 351.4038 156.962762 
L 357.767695 153.108991 
L 364.033267 149.097342 
L 370.196601 144.930325 
L 376.253844 140.610542 
L 382.20121 136.140693 
L 384.96 133.986805 
L 379.065613 129.447322 
L 373.059592 125.0566 
L 366.945691 120.817386 
L 360.727732 116.732328 
L 354.4096 112.80398 
L 347.995243 109.034796 
L 341.488672 105.427131 
L 334.893951 101.983242 
L 331.165969 100.128 
L 324.523707 103.479279 
L 317.967294 106.995551 
L 311.500827 110.674617 
L 305.128348 114.514178 
L 298.853839 118.511834 
L 292.681223 122.665088 
L 286.614355 126.971344 
L 280.657028 131.427909 
L 274.812966 136.032 
L 269.08582 140.780738 
L 263.47917 145.671156 
L 257.996519 150.700198 
L 252.641295 155.86472 
L 247.416843 161.161495 
L 242.32643 166.587212 
L 237.373236 172.138481 
L 236.16 173.54172 
L 236.16 173.54172 
" style="fill:none;stroke:#1f77b4;stroke-linecap:square;stroke-width:1.5;"/>
   </g>
   <g id="patch_5">
    <path d="M 57.6 263.808 
L 57.6 85.248 
" style="fill:none;stroke:#000000;stroke-linecap:square;stroke-linejoin:miter;stroke-width:0.8;"/>
   </g>
   <g id="patch_6">
    <path d="M 414.72 263.808 
L 414.72 85.248 
" style="fill:none;stroke:#000000;stroke-linecap:square;stroke-linejoin:miter;stroke-width:0.8;"/>
   </g>
   <g id="patch_7">
    <path d="M 57.6 263.808 
L 414.72 263.808 
" style="fill:none;stroke:#000000;stroke-linecap:square;stroke-linejoin:miter;stroke-width:0.8;"/>
   </g>
   <g id="patch_8">
    <path d="M 57.6 85.248 
L 414.72 85.248 
" style="fill:none;stroke:#000000;stroke-linecap:square;stroke-linejoin:miter;stroke-width:0.8;"/>
   </g>
  </g>
 </g>
 <defs>
  <clipPath id="p8d08baae0b">
   <rect height="178.56" width="357.12" x="57.6" y="85.248"/>
  </clipPath>
 </defs>
</svg>
