<?xml version="1.0" encoding="utf-8" standalone="no"?>
<!DOCTYPE svg PUBLIC "-//W3C//DTD SVG 1.1//EN"
  "http://www.w3.org/Graphics/SVG/1.1/DTD/svg11.dtd">
<!-- Created with matplotlib (https://matplotlib.org/) -->
<svg height="345.6pt" version="1.1" viewBox="0 0 460.8 345.6" width="460.8pt" xmlns="http://www.w3.org/2000/svg" xmlns:xlink="http://www.w3.org/1999/xlink">
 <defs>
  <style type="text/css">
*{stroke-linecap:butt;stroke-linejoin:round;}
  </style>
 </defs>
 <g id="figure_1">
  <g id="patch_1">
   <path d="M 0 345.6 
L 460.8 345.6 
L 460.8 0 
L 0 0 
z
" style="fill:#ffffff;"/>
  </g>
  <g id="axes_1">
   <g id="patch_2">
    <path d="M 82.520165 307.584 
L 389.799835 307.584 
L 389.799835 41.472 
L 82.520165 41.472 
z
" style="fill:#ffffff;"/>
   </g>
   <g id="patch_3">
    <path clip-path="url(#p0703a7ce37)" d="M 236.16 225.741278 
C 249.74192 225.741278 262.769389 220.345124 272.373256 210.741256 
C 281.977124 201.137389 287.373278 188.10992 287.373278 174.528 
C 287.373278 160.94608 281.977124 147.918611 272.373256 138.314744 
C 262.769389 128.710876 249.74192 123.314722 236.16 123.314722 
C 222.57808 123.314722 209.550611 128.710876 199.946744 138.314744 
C 190.342876 147.918611 184.946722 160.94608 184.946722 174.528 
C 184.946722 188.10992 190.342876 201.137389 199.946744 210.741256 
C 209.550611 220.345124 222.57808 225.741278 236.16 225.741278 
z
" style="fill:#009900;fill-opacity:0.5;stroke:#009900;stroke-linejoin:miter;stroke-width:2;"/>
   </g>
   <g id="matplotlib.axis_1">
    <g id="xtick_1">
     <g id="line2d_1">
      <defs>
       <path d="M 0 0 
L 0 3.5 
" id="mcb68c1e310" style="stroke:#000000;stroke-width:0.8;"/>
      </defs>
      <g>
       <use style="stroke:#000000;stroke-width:0.8;" x="108.126804" xlink:href="#mcb68c1e310" y="307.584"/>
      </g>
     </g>
     <g id="text_1">
      <!-- −2 -->
      <defs>
       <path d="M 10.59375 35.5 
L 73.1875 35.5 
L 73.1875 27.203125 
L 10.59375 27.203125 
z
" id="DejaVuSans-8722"/>
       <path d="M 19.1875 8.296875 
L 53.609375 8.296875 
L 53.609375 0 
L 7.328125 0 
L 7.328125 8.296875 
Q 12.9375 14.109375 22.625 23.890625 
Q 32.328125 33.6875 34.8125 36.53125 
Q 39.546875 41.84375 41.421875 45.53125 
Q 43.3125 49.21875 43.3125 52.78125 
Q 43.3125 58.59375 39.234375 62.25 
Q 35.15625 65.921875 28.609375 65.921875 
Q 23.96875 65.921875 18.8125 64.3125 
Q 13.671875 62.703125 7.8125 59.421875 
L 7.8125 69.390625 
Q 13.765625 71.78125 18.9375 73 
Q 24.125 74.21875 28.421875 74.21875 
Q 39.75 74.21875 46.484375 68.546875 
Q 53.21875 62.890625 53.21875 53.421875 
Q 53.21875 48.921875 51.53125 44.890625 
Q 49.859375 40.875 45.40625 35.40625 
Q 44.1875 33.984375 37.640625 27.21875 
Q 31.109375 20.453125 19.1875 8.296875 
z
" id="DejaVuSans-50"/>
      </defs>
      <g transform="translate(100.755711 322.182437)scale(0.1 -0.1)">
       <use xlink:href="#DejaVuSans-8722"/>
       <use x="83.789062" xlink:href="#DejaVuSans-50"/>
      </g>
     </g>
    </g>
    <g id="xtick_2">
     <g id="line2d_2">
      <g>
       <use style="stroke:#000000;stroke-width:0.8;" x="172.143402" xlink:href="#mcb68c1e310" y="307.584"/>
      </g>
     </g>
     <g id="text_2">
      <!-- −1 -->
      <defs>
       <path d="M 12.40625 8.296875 
L 28.515625 8.296875 
L 28.515625 63.921875 
L 10.984375 60.40625 
L 10.984375 69.390625 
L 28.421875 72.90625 
L 38.28125 72.90625 
L 38.28125 8.296875 
L 54.390625 8.296875 
L 54.390625 0 
L 12.40625 0 
z
" id="DejaVuSans-49"/>
      </defs>
      <g transform="translate(164.772308 322.182437)scale(0.1 -0.1)">
       <use xlink:href="#DejaVuSans-8722"/>
       <use x="83.789062" xlink:href="#DejaVuSans-49"/>
      </g>
     </g>
    </g>
    <g id="xtick_3">
     <g id="line2d_3">
      <g>
       <use style="stroke:#000000;stroke-width:0.8;" x="236.16" xlink:href="#mcb68c1e310" y="307.584"/>
      </g>
     </g>
     <g id="text_3">
      <!-- 0 -->
      <defs>
       <path d="M 31.78125 66.40625 
Q 24.171875 66.40625 20.328125 58.90625 
Q 16.5 51.421875 16.5 36.375 
Q 16.5 21.390625 20.328125 13.890625 
Q 24.171875 6.390625 31.78125 6.390625 
Q 39.453125 6.390625 43.28125 13.890625 
Q 47.125 21.390625 47.125 36.375 
Q 47.125 51.421875 43.28125 58.90625 
Q 39.453125 66.40625 31.78125 66.40625 
z
M 31.78125 74.21875 
Q 44.046875 74.21875 50.515625 64.515625 
Q 56.984375 54.828125 56.984375 36.375 
Q 56.984375 17.96875 50.515625 8.265625 
Q 44.046875 -1.421875 31.78125 -1.421875 
Q 19.53125 -1.421875 13.0625 8.265625 
Q 6.59375 17.96875 6.59375 36.375 
Q 6.59375 54.828125 13.0625 64.515625 
Q 19.53125 74.21875 31.78125 74.21875 
z
" id="DejaVuSans-48"/>
      </defs>
      <g transform="translate(232.97875 322.182437)scale(0.1 -0.1)">
       <use xlink:href="#DejaVuSans-48"/>
      </g>
     </g>
    </g>
    <g id="xtick_4">
     <g id="line2d_4">
      <g>
       <use style="stroke:#000000;stroke-width:0.8;" x="300.176598" xlink:href="#mcb68c1e310" y="307.584"/>
      </g>
     </g>
     <g id="text_4">
      <!-- 1 -->
      <g transform="translate(296.995348 322.182437)scale(0.1 -0.1)">
       <use xlink:href="#DejaVuSans-49"/>
      </g>
     </g>
    </g>
    <g id="xtick_5">
     <g id="line2d_5">
      <g>
       <use style="stroke:#000000;stroke-width:0.8;" x="364.193196" xlink:href="#mcb68c1e310" y="307.584"/>
      </g>
     </g>
     <g id="text_5">
      <!-- 2 -->
      <g transform="translate(361.011946 322.182437)scale(0.1 -0.1)">
       <use xlink:href="#DejaVuSans-50"/>
      </g>
     </g>
    </g>
   </g>
   <g id="matplotlib.axis_2">
    <g id="ytick_1">
     <g id="line2d_6">
      <defs>
       <path d="M 0 0 
L -3.5 0 
" id="m859d3908a3" style="stroke:#000000;stroke-width:0.8;"/>
      </defs>
      <g>
       <use style="stroke:#000000;stroke-width:0.8;" x="82.520165" xlink:href="#m859d3908a3" y="302.561196"/>
      </g>
     </g>
     <g id="text_6">
      <!-- −2.0 -->
      <defs>
       <path d="M 10.6875 12.40625 
L 21 12.40625 
L 21 0 
L 10.6875 0 
z
" id="DejaVuSans-46"/>
      </defs>
      <g transform="translate(51.237353 306.360414)scale(0.1 -0.1)">
       <use xlink:href="#DejaVuSans-8722"/>
       <use x="83.789062" xlink:href="#DejaVuSans-50"/>
       <use x="147.412109" xlink:href="#DejaVuSans-46"/>
       <use x="179.199219" xlink:href="#DejaVuSans-48"/>
      </g>
     </g>
    </g>
    <g id="ytick_2">
     <g id="line2d_7">
      <g>
       <use style="stroke:#000000;stroke-width:0.8;" x="82.520165" xlink:href="#m859d3908a3" y="270.552897"/>
      </g>
     </g>
     <g id="text_7">
      <!-- −1.5 -->
      <defs>
       <path d="M 10.796875 72.90625 
L 49.515625 72.90625 
L 49.515625 64.59375 
L 19.828125 64.59375 
L 19.828125 46.734375 
Q 21.96875 47.46875 24.109375 47.828125 
Q 26.265625 48.1875 28.421875 48.1875 
Q 40.625 48.1875 47.75 41.5 
Q 54.890625 34.8125 54.890625 23.390625 
Q 54.890625 11.625 47.5625 5.09375 
Q 40.234375 -1.421875 26.90625 -1.421875 
Q 22.3125 -1.421875 17.546875 -0.640625 
Q 12.796875 0.140625 7.71875 1.703125 
L 7.71875 11.625 
Q 12.109375 9.234375 16.796875 8.0625 
Q 21.484375 6.890625 26.703125 6.890625 
Q 35.15625 6.890625 40.078125 11.328125 
Q 45.015625 15.765625 45.015625 23.390625 
Q 45.015625 31 40.078125 35.4375 
Q 35.15625 39.890625 26.703125 39.890625 
Q 22.75 39.890625 18.8125 39.015625 
Q 14.890625 38.140625 10.796875 36.28125 
z
" id="DejaVuSans-53"/>
      </defs>
      <g transform="translate(51.237353 274.352116)scale(0.1 -0.1)">
       <use xlink:href="#DejaVuSans-8722"/>
       <use x="83.789062" xlink:href="#DejaVuSans-49"/>
       <use x="147.412109" xlink:href="#DejaVuSans-46"/>
       <use x="179.199219" xlink:href="#DejaVuSans-53"/>
      </g>
     </g>
    </g>
    <g id="ytick_3">
     <g id="line2d_8">
      <g>
       <use style="stroke:#000000;stroke-width:0.8;" x="82.520165" xlink:href="#m859d3908a3" y="238.544598"/>
      </g>
     </g>
     <g id="text_8">
      <!-- −1.0 -->
      <g transform="translate(51.237353 242.343817)scale(0.1 -0.1)">
       <use xlink:href="#DejaVuSans-8722"/>
       <use x="83.789062" xlink:href="#DejaVuSans-49"/>
       <use x="147.412109" xlink:href="#DejaVuSans-46"/>
       <use x="179.199219" xlink:href="#DejaVuSans-48"/>
      </g>
     </g>
    </g>
    <g id="ytick_4">
     <g id="line2d_9">
      <g>
       <use style="stroke:#000000;stroke-width:0.8;" x="82.520165" xlink:href="#m859d3908a3" y="206.536299"/>
      </g>
     </g>
     <g id="text_9">
      <!-- −0.5 -->
      <g transform="translate(51.237353 210.335518)scale(0.1 -0.1)">
       <use xlink:href="#DejaVuSans-8722"/>
       <use x="83.789062" xlink:href="#DejaVuSans-48"/>
       <use x="147.412109" xlink:href="#DejaVuSans-46"/>
       <use x="179.199219" xlink:href="#DejaVuSans-53"/>
      </g>
     </g>
    </g>
    <g id="ytick_5">
     <g id="line2d_10">
      <g>
       <use style="stroke:#000000;stroke-width:0.8;" x="82.520165" xlink:href="#m859d3908a3" y="174.528"/>
      </g>
     </g>
     <g id="text_10">
      <!-- 0.0 -->
      <g transform="translate(59.61704 178.327219)scale(0.1 -0.1)">
       <use xlink:href="#DejaVuSans-48"/>
       <use x="63.623047" xlink:href="#DejaVuSans-46"/>
       <use x="95.410156" xlink:href="#DejaVuSans-48"/>
      </g>
     </g>
    </g>
    <g id="ytick_6">
     <g id="line2d_11">
      <g>
       <use style="stroke:#000000;stroke-width:0.8;" x="82.520165" xlink:href="#m859d3908a3" y="142.519701"/>
      </g>
     </g>
     <g id="text_11">
      <!-- 0.5 -->
      <g transform="translate(59.61704 146.31892)scale(0.1 -0.1)">
       <use xlink:href="#DejaVuSans-48"/>
       <use x="63.623047" xlink:href="#DejaVuSans-46"/>
       <use x="95.410156" xlink:href="#DejaVuSans-53"/>
      </g>
     </g>
    </g>
    <g id="ytick_7">
     <g id="line2d_12">
      <g>
       <use style="stroke:#000000;stroke-width:0.8;" x="82.520165" xlink:href="#m859d3908a3" y="110.511402"/>
      </g>
     </g>
     <g id="text_12">
      <!-- 1.0 -->
      <g transform="translate(59.61704 114.310621)scale(0.1 -0.1)">
       <use xlink:href="#DejaVuSans-49"/>
       <use x="63.623047" xlink:href="#DejaVuSans-46"/>
       <use x="95.410156" xlink:href="#DejaVuSans-48"/>
      </g>
     </g>
    </g>
    <g id="ytick_8">
     <g id="line2d_13">
      <g>
       <use style="stroke:#000000;stroke-width:0.8;" x="82.520165" xlink:href="#m859d3908a3" y="78.503103"/>
      </g>
     </g>
     <g id="text_13">
      <!-- 1.5 -->
      <g transform="translate(59.61704 82.302322)scale(0.1 -0.1)">
       <use xlink:href="#DejaVuSans-49"/>
       <use x="63.623047" xlink:href="#DejaVuSans-46"/>
       <use x="95.410156" xlink:href="#DejaVuSans-53"/>
      </g>
     </g>
    </g>
    <g id="ytick_9">
     <g id="line2d_14">
      <g>
       <use style="stroke:#000000;stroke-width:0.8;" x="82.520165" xlink:href="#m859d3908a3" y="46.494804"/>
      </g>
     </g>
     <g id="text_14">
      <!-- 2.0 -->
      <g transform="translate(59.61704 50.294023)scale(0.1 -0.1)">
       <use xlink:href="#DejaVuSans-50"/>
       <use x="63.623047" xlink:href="#DejaVuSans-46"/>
       <use x="95.410156" xlink:href="#DejaVuSans-48"/>
      </g>
     </g>
    </g>
   </g>
   <g id="line2d_15">
    <path clip-path="url(#p0703a7ce37)" d="M 300.176598 63.648 
L 172.143402 63.648 
" style="fill:none;stroke:#009900;stroke-linecap:square;stroke-width:2;"/>
   </g>
   <g id="line2d_16">
    <path clip-path="url(#p0703a7ce37)" d="M 172.143402 63.648 
L 108.126804 174.528 
" style="fill:none;stroke:#009900;stroke-linecap:square;stroke-width:2;"/>
   </g>
   <g id="line2d_17">
    <path clip-path="url(#p0703a7ce37)" d="M 108.126804 174.528 
L 172.143402 285.408 
" style="fill:none;stroke:#009900;stroke-linecap:square;stroke-width:2;"/>
   </g>
   <g id="line2d_18">
    <path clip-path="url(#p0703a7ce37)" d="M 172.143402 285.408 
L 300.176598 285.408 
" style="fill:none;stroke:#009900;stroke-linecap:square;stroke-width:2;"/>
   </g>
   <g id="line2d_19">
    <path clip-path="url(#p0703a7ce37)" d="M 300.176598 285.408 
L 364.193196 174.528 
" style="fill:none;stroke:#009900;stroke-linecap:square;stroke-width:2;"/>
   </g>
   <g id="line2d_20">
    <path clip-path="url(#p0703a7ce37)" d="M 364.193196 174.528 
L 300.176598 63.648 
" style="fill:none;stroke:#009900;stroke-linecap:square;stroke-width:2;"/>
   </g>
   <g id="line2d_21">
    <path clip-path="url(#p0703a7ce37)" d="M 286.012582 203.370061 
L 280.931222 204.005897 
L 277.66992 204.523441 
L 278.531466 209.571434 
L 279.594188 214.580937 
L 280.856388 219.543936 
L 282.316045 224.45249 
L 283.970824 229.298747 
L 285.818078 234.074954 
L 287.854851 238.773471 
L 290.077887 243.386779 
L 292.483627 247.9075 
L 295.068223 252.328401 
L 297.827541 256.642409 
L 300.757166 260.842623 
L 303.852411 264.922324 
L 307.108325 268.874985 
L 308.682388 270.67554 
L 303.64796 269.737967 
L 298.580067 269.002467 
L 293.486815 268.470216 
L 288.376354 268.142068 
L 283.256857 268.018546 
L 278.136516 268.099847 
L 273.023522 268.385843 
L 267.926055 268.876076 
L 262.852269 269.56976 
L 257.810281 270.465787 
L 252.808158 271.562723 
L 247.853902 272.858813 
L 242.955439 274.351984 
L 238.120605 276.039847 
L 233.357135 277.919701 
L 228.672649 279.98854 
L 224.074641 282.243053 
L 219.570468 284.679634 
L 218.303016 285.408 
L 213.826956 282.920152 
L 209.254989 280.613288 
L 204.594429 278.491099 
L 199.852733 276.556981 
L 195.037485 274.814027 
L 190.156389 273.265026 
L 185.217254 271.912455 
L 180.227981 270.75848 
L 175.196553 269.804945 
L 170.131017 269.053376 
L 165.039479 268.504976 
L 162.261645 268.292295 
L 164.433903 263.65486 
L 166.418975 258.934268 
L 168.213687 254.138071 
L 169.815166 249.27394 
L 171.22085 244.349658 
L 172.428492 239.373102 
L 173.436158 234.352235 
L 174.242237 229.295088 
L 174.845439 224.209751 
L 175.2448 219.10436 
L 175.43968 213.987084 
L 175.429768 208.866107 
L 175.215079 203.749622 
L 174.795957 198.645816 
L 174.173072 193.562853 
L 173.347422 188.508864 
L 172.320326 183.491935 
L 171.093428 178.520092 
L 169.668691 173.601289 
L 168.048394 168.743394 
L 166.235128 163.95418 
L 164.231796 159.241308 
L 162.041602 154.612318 
L 159.668049 150.074615 
L 157.114936 145.635458 
L 154.386345 141.30195 
L 151.486643 137.081022 
L 148.420468 132.979428 
L 145.192726 129.003729 
L 141.80858 125.160285 
L 138.586021 121.771089 
L 143.566414 122.962808 
L 148.590478 123.954411 
L 153.650178 124.744312 
L 158.737417 125.331248 
L 163.844059 125.714278 
L 168.961933 125.892791 
L 174.082852 125.866501 
L 179.198623 125.635449 
L 184.301063 125.200006 
L 189.382008 124.560869 
L 194.433331 123.719059 
L 199.446949 122.675923 
L 204.414843 121.43313 
L 209.329065 119.992669 
L 214.181752 118.356844 
L 218.965143 116.528271 
L 223.671583 114.509876 
L 228.293545 112.304889 
L 232.823634 109.916835 
L 237.254602 107.349537 
L 241.579362 104.607101 
L 245.790994 101.693915 
L 249.882761 98.614638 
L 253.848117 95.374197 
L 257.680718 91.977777 
L 261.374432 88.43081 
L 264.923351 84.738971 
L 268.321798 80.908166 
L 271.564334 76.944524 
L 274.645773 72.854385 
L 277.561186 68.644294 
L 280.305908 64.320984 
L 280.711691 63.648 
L 283.429825 67.988075 
L 286.319342 72.215981 
L 289.375618 76.324956 
L 292.593765 80.308426 
L 295.968634 84.160018 
L 299.494827 87.87357 
L 303.166701 91.443142 
L 306.978383 94.863023 
L 310.923774 98.127741 
L 314.996564 101.232075 
L 319.190236 104.171057 
L 323.498081 106.939986 
L 326.055603 108.471752 
L 326.180483 113.591216 
L 326.509987 118.70159 
L 327.043588 123.794701 
L 327.780432 128.862399 
L 328.71934 133.896577 
L 329.858811 138.889182 
L 331.197021 143.832227 
L 332.73183 148.717805 
L 334.460783 153.538098 
L 336.381112 158.285395 
L 338.489747 162.952103 
L 340.783314 167.530755 
L 343.258143 172.014026 
L 345.910276 176.394745 
L 348.735469 180.665902 
L 351.729204 184.820665 
L 354.88669 188.852387 
L 355.4955 189.592852 
L 350.430705 188.836308 
L 345.339708 188.282907 
L 340.230653 187.933534 
L 335.111714 187.788749 
L 329.99108 187.848782 
L 324.876942 188.113538 
L 319.777482 188.582593 
L 314.700859 189.255197 
L 309.655193 190.130274 
L 304.648557 191.206423 
L 299.68896 192.481924 
L 294.784337 193.954735 
L 289.942534 195.622501 
L 285.171296 197.482554 
L 280.983175 199.300624 
L 281.766782 204.361302 
L 282.752135 209.386596 
L 283.937659 214.368467 
L 285.321456 219.298944 
L 286.901313 224.170141 
L 288.674702 228.974263 
L 290.638786 233.703626 
L 292.790423 238.350664 
L 295.12617 242.907942 
L 297.642292 247.36817 
L 300.334763 251.724212 
L 303.199276 255.969099 
L 306.231247 260.096042 
L 309.425827 264.098436 
L 311.244565 266.237719 
L 306.199102 265.361473 
L 301.122634 264.687692 
L 296.023284 264.217454 
L 290.909207 263.951513 
L 285.788587 263.890292 
L 280.669614 264.033891 
L 275.560479 264.382079 
L 270.469353 264.9343 
L 265.404384 265.689669 
L 260.373672 266.64698 
L 255.385267 267.804699 
L 250.447148 269.160975 
L 245.567216 270.713638 
L 240.753277 272.460205 
L 236.013033 274.397881 
L 231.354067 276.523566 
L 226.783832 278.833859 
L 222.30964 281.325066 
L 217.938649 283.993199 
L 215.77049 285.408 
L 211.454341 282.652031 
L 207.031435 280.070867 
L 202.508849 277.668637 
L 197.893816 275.449183 
L 193.19372 273.416057 
L 188.416081 271.572511 
L 183.568541 269.921494 
L 178.658855 268.465647 
L 173.694878 267.2073 
L 168.684552 266.148466 
L 163.635891 265.290838 
L 160.264407 264.832977 
L 162.172957 260.080931 
L 163.889949 255.256365 
L 165.412636 250.366996 
L 166.738582 245.420647 
L 167.865667 240.425231 
L 168.792087 235.38874 
L 169.51636 230.31923 
L 170.037327 225.224812 
L 170.354155 220.113636 
L 170.466338 214.993878 
L 170.373694 209.87373 
L 170.076374 204.761382 
L 169.574852 199.665013 
L 168.869931 194.592776 
L 167.962738 189.552785 
L 166.854725 184.553104 
L 165.547664 179.601731 
L 164.043647 174.706587 
L 162.345079 169.875504 
L 160.454679 165.116209 
L 158.375469 160.436317 
L 156.110776 155.843315 
L 153.664224 151.34455 
L 151.039727 146.94722 
L 148.241482 142.658358 
L 145.273967 138.484828 
L 142.141929 134.433305 
L 138.850379 130.510271 
L 135.605075 126.934239 
L 140.611184 128.012839 
L 145.656421 128.890385 
L 150.732714 129.565474 
L 155.831944 130.037025 
L 160.945951 130.304285 
L 166.066556 130.366824 
L 171.185565 130.224544 
L 176.294791 129.877673 
L 181.386058 129.326764 
L 186.451222 128.572699 
L 191.48218 127.616685 
L 196.470883 126.460251 
L 201.409352 125.105247 
L 206.289684 123.553841 
L 211.104072 121.808515 
L 215.844815 119.872061 
L 220.504329 117.747576 
L 225.075159 115.43846 
L 229.549992 112.948406 
L 233.921671 110.281399 
L 238.183201 107.441704 
L 242.327764 104.433866 
L 246.348731 101.262694 
L 250.239669 97.933264 
L 253.994352 94.450901 
L 257.606775 90.821176 
L 261.071158 87.049896 
L 264.381959 83.143094 
L 267.533881 79.107021 
L 270.521882 74.948132 
L 273.341182 70.673082 
L 275.98727 66.28871 
L 277.468484 63.648 
L 280.010157 68.093717 
L 282.727578 72.434238 
L 285.6164 76.66262 
L 288.672001 80.772097 
L 291.889494 84.756096 
L 295.26373 88.608242 
L 298.789312 92.322374 
L 302.4606 95.892549 
L 306.271719 99.313055 
L 310.216574 102.578422 
L 314.288854 105.683425 
L 318.482043 108.623096 
L 322.789434 111.392733 
L 327.204135 113.987905 
L 330.172769 115.602892 
L 330.077734 120.722996 
L 330.187525 125.842806 
L 330.501966 130.954129 
L 331.020554 136.04879 
L 331.74246 141.118637 
L 332.666527 146.155561 
L 333.791279 151.151503 
L 335.114915 156.098471 
L 336.635319 160.98855 
L 338.350057 165.813918 
L 340.256387 170.566854 
L 342.351259 175.239756 
L 344.631322 179.825148 
L 347.092928 184.315694 
L 349.732138 188.704209 
L 352.544731 192.983675 
L 353.086023 193.766188 
L 347.975942 193.432159 
L 342.856591 193.302745 
L 337.73616 193.378155 
L 332.62284 193.658267 
L 327.524812 194.142633 
L 322.450231 194.830478 
L 317.407216 195.720702 
L 312.403834 196.811881 
L 307.44809 198.102269 
L 302.547911 199.589802 
L 297.711138 201.2721 
L 292.945507 203.146471 
L 288.258644 205.209918 
L 283.658045 207.459139 
L 279.151071 209.890535 
L 274.744932 212.500217 
L 270.446677 215.284011 
L 266.263183 218.237462 
L 262.201141 221.355846 
L 258.26705 224.634173 
L 254.467204 228.0672 
L 250.807683 231.649435 
L 247.29434 235.375146 
L 243.932795 239.238372 
L 240.728428 243.232935 
L 237.686363 247.352443 
L 234.811468 251.590306 
L 232.108343 255.939744 
L 229.58131 260.393799 
L 227.234414 264.945346 
L 225.071408 269.587103 
L 223.095753 274.311644 
L 221.31061 279.111412 
L 219.718834 283.978726 
L 219.291939 285.408 
L 217.756977 280.522471 
L 216.027874 275.702232 
L 214.107396 270.954994 
L 211.998616 266.288352 
L 209.704906 261.709772 
L 207.229937 257.226578 
L 204.577667 252.845942 
L 201.75234 248.574874 
L 198.758476 244.420204 
L 195.600864 240.38858 
L 192.284556 236.486452 
L 188.814857 232.720062 
L 185.197319 229.095436 
L 181.437727 225.618372 
L 177.542097 222.294433 
L 173.516662 219.128937 
L 169.36786 216.126947 
L 165.102329 213.293266 
L 160.726893 210.632427 
L 156.248552 208.148688 
L 151.674469 205.846021 
L 147.011964 203.72811 
L 142.268494 201.798345 
L 137.451649 200.059811 
L 132.569133 198.51529 
L 127.628759 197.167253 
L 122.638429 196.017856 
L 120.260047 195.543392 
L 121.852282 190.676228 
L 123.248609 185.749284 
L 124.446794 180.770443 
L 125.44492 175.747671 
L 126.24139 170.689001 
L 126.83493 165.602528 
L 127.224591 160.496388 
L 127.409749 155.37875 
L 127.390108 150.257801 
L 127.1657 145.141734 
L 126.923468 141.971224 
L 131.523614 139.721077 
L 136.030098 137.288774 
L 140.435712 134.678205 
L 144.733406 131.893547 
L 148.916307 128.939254 
L 152.977721 125.820052 
L 156.911151 122.540933 
L 160.710306 119.107141 
L 164.369107 115.52417 
L 167.8817 111.797752 
L 171.242467 107.933849 
L 174.44603 103.938641 
L 177.487266 99.818521 
L 180.361307 95.58008 
L 183.063558 91.230098 
L 185.589694 86.775534 
L 187.935674 82.223515 
L 190.097746 77.581323 
L 192.07245 72.856384 
L 193.856627 68.056258 
L 195.306455 63.648 
L 196.915509 68.50963 
L 198.717689 73.303027 
L 200.710112 78.020521 
L 202.889591 82.654566 
L 205.252639 87.197748 
L 207.795475 91.6428 
L 210.514033 95.98261 
L 213.403961 100.210235 
L 216.460638 104.318912 
L 219.679174 108.302068 
L 223.054418 112.153331 
L 226.580972 115.866539 
L 230.253194 119.435753 
L 234.065209 122.855262 
L 234.628368 123.33763 
L 238.25015 119.717243 
L 241.724257 115.95492 
L 245.045133 112.056679 
L 248.207465 108.028756 
L 251.206193 103.877596 
L 254.03652 99.609839 
L 256.693919 95.232313 
L 259.174137 90.75202 
L 261.473208 86.17613 
L 263.587453 81.511961 
L 265.51349 76.766976 
L 267.248237 71.948765 
L 268.78892 67.065037 
L 269.741008 63.648 
L 271.145807 68.572535 
L 272.746411 73.436953 
L 274.54026 78.233474 
L 276.524484 82.954422 
L 278.695908 87.592247 
L 281.051059 92.139529 
L 283.586168 96.588992 
L 286.297181 100.933518 
L 289.17976 105.166158 
L 292.229294 109.28014 
L 295.440904 113.268882 
L 298.809452 117.126003 
L 302.329549 120.845333 
L 305.995564 124.420922 
L 309.801632 127.847049 
L 313.741665 131.118234 
L 317.809358 134.229243 
L 321.998204 137.175098 
L 326.301503 139.951089 
L 330.712369 142.552772 
L 335.223747 144.975988 
L 339.828419 147.216857 
L 344.519019 149.271797 
L 349.288042 151.137519 
L 351.056224 151.774098 
L 350.213245 156.825226 
L 349.572932 161.906023 
L 349.136309 167.008362 
L 348.904074 172.124079 
L 348.876598 177.244992 
L 349.053927 182.362907 
L 349.435776 187.469638 
L 350.021534 192.557013 
L 350.82258 197.686586 
L 346.045208 199.530826 
L 341.345408 201.564635 
L 336.730697 203.784758 
L 332.20846 206.187646 
L 327.785929 208.769452 
L 323.470181 211.526047 
L 319.268119 214.453021 
L 315.186466 217.545692 
L 311.231752 220.799111 
L 307.410303 224.208075 
L 303.728233 227.767129 
L 300.191433 231.470579 
L 296.80556 235.312501 
L 293.576031 239.286749 
L 290.508014 243.386965 
L 287.606415 247.606589 
L 284.875877 251.938871 
L 282.320768 256.376879 
L 279.945177 260.913515 
L 277.752902 265.541521 
L 275.747452 270.253492 
L 273.932035 275.041891 
L 272.309554 279.899056 
L 270.882607 284.817219 
L 270.725448 285.408 
L 269.321999 280.48308 
L 267.722729 275.618223 
L 265.930196 270.821211 
L 263.947267 266.099718 
L 261.777115 261.461298 
L 259.423211 256.913371 
L 256.889322 252.463212 
L 254.179501 248.117942 
L 251.298083 243.884512 
L 248.249678 239.769694 
L 245.039162 235.780071 
L 241.671672 231.922026 
L 238.152595 228.201731 
L 235.660494 225.738842 
L 231.97096 229.290158 
L 228.426393 232.986175 
L 225.032462 236.820981 
L 221.794597 240.78844 
L 218.717978 244.882206 
L 215.807527 249.095729 
L 213.0679 253.422269 
L 210.50348 257.854903 
L 208.118369 262.386542 
L 205.916383 267.009935 
L 203.901045 271.717685 
L 202.075579 276.502262 
L 200.442906 281.356011 
L 199.242648 285.408 
L 197.771051 280.503012 
L 196.104483 275.660797 
L 194.245612 270.889099 
L 192.19741 266.195553 
L 189.963155 261.587668 
L 187.546421 257.072815 
L 184.951074 252.658217 
L 182.181266 248.350936 
L 179.241428 244.157864 
L 176.136264 240.085708 
L 172.870741 236.140982 
L 169.450083 232.329998 
L 165.879762 228.658852 
L 162.16549 225.133417 
L 158.31321 221.759334 
L 154.329084 218.542 
L 150.219486 215.486561 
L 145.99099 212.597907 
L 141.650361 209.880658 
L 137.204543 207.339162 
L 132.660648 204.977484 
L 128.025946 202.799402 
L 123.297395 200.804233 
L 123.932631 195.722799 
L 124.364157 190.620026 
L 124.59128 185.504079 
L 124.613639 180.383141 
L 124.431197 175.265406 
L 124.044246 170.15906 
L 123.453405 165.072272 
L 122.65962 160.01318 
L 121.66416 154.989879 
L 121.019579 152.197059 
L 125.903327 150.65644 
L 130.72156 148.921756 
L 135.46657 146.995781 
L 140.130767 144.881597 
L 144.706687 142.582585 
L 149.187012 140.102425 
L 153.564573 137.445084 
L 157.832366 134.614812 
L 161.983566 131.616138 
L 166.01153 128.453859 
L 169.909814 125.133034 
L 173.672183 121.658975 
L 177.292617 118.037241 
L 180.765324 114.273624 
L 184.084749 110.374147 
L 187.245581 106.345048 
L 190.242764 102.192772 
L 193.071502 97.923962 
L 195.727272 93.545447 
L 198.205823 89.064232 
L 200.50319 84.487486 
L 202.615699 79.822531 
L 204.53997 75.076829 
L 206.272924 70.257973 
L 207.811788 65.373672 
L 208.30467 63.648 
L 209.774921 68.553391 
L 211.440159 73.396065 
L 213.29772 78.168273 
L 215.344633 82.86238 
L 217.577623 87.470879 
L 219.993117 91.986395 
L 222.587252 96.401706 
L 225.355877 100.709747 
L 228.294563 104.903626 
L 231.398609 108.976635 
L 234.663049 112.922257 
L 238.082661 116.73418 
L 241.651973 120.406307 
L 245.66382 124.204275 
L 250.413525 122.289908 
L 255.082877 120.187134 
L 259.664405 117.899319 
L 264.15078 115.430121 
L 268.534825 112.78349 
L 272.809526 109.963662 
L 276.968045 106.975147 
L 281.003729 103.822726 
L 284.910122 100.511443 
L 288.680973 97.046594 
L 292.310252 93.433722 
L 295.792151 89.678608 
L 299.121101 85.787259 
L 302.291775 81.765901 
L 305.299101 77.620965 
L 306.890796 75.277332 
L 301.78699 75.696461 
L 296.704028 76.319353 
L 291.65004 77.145011 
L 286.633112 78.172114 
L 281.661271 79.399019 
L 276.74247 80.823763 
L 271.884578 82.444067 
L 267.095366 84.257339 
L 262.382497 86.260678 
L 257.75351 88.450879 
L 253.21581 90.824438 
L 248.776657 93.377558 
L 244.443153 96.106155 
L 240.222229 99.005863 
L 236.120639 102.072043 
L 232.144945 105.299791 
L 228.301506 108.683942 
L 224.596472 112.219083 
L 221.035769 115.899558 
L 217.625094 119.719479 
L 214.369903 123.672736 
L 211.275404 127.753003 
L 208.851932 131.202842 
L 203.804716 132.068934 
L 198.796172 133.136168 
L 193.834312 134.402836 
L 188.927075 135.866913 
L 184.08231 137.526056 
L 179.307768 139.377611 
L 174.611088 141.418615 
L 169.999783 143.645804 
L 165.481231 146.055614 
L 161.062659 148.64419 
L 156.751138 151.407392 
L 152.553564 154.340799 
L 148.476652 157.439717 
L 144.526925 160.699189 
L 140.710702 164.114001 
L 137.034087 167.67869 
L 133.502963 171.387553 
L 130.122978 175.234656 
L 126.89954 179.213846 
L 123.837805 183.318755 
L 120.942673 187.542818 
L 118.180951 191.942293 
L 123.298493 191.754493 
L 128.404431 191.362197 
L 133.490597 190.766031 
L 138.548855 189.96695 
L 143.571112 188.966232 
L 148.549333 187.765478 
L 153.475556 186.366608 
L 158.341898 184.771861 
L 163.140574 182.983787 
L 167.863908 181.005248 
L 172.504344 178.839409 
L 177.054457 176.489734 
L 181.506969 173.959983 
L 185.019821 171.792674 
L 180.961108 168.66996 
L 176.780766 165.712048 
L 172.485482 162.923672 
L 168.082129 160.309291 
L 163.577751 157.873089 
L 158.979554 155.618963 
L 154.294894 153.550518 
L 149.531266 151.671065 
L 144.69629 149.983609 
L 139.797701 148.490851 
L 134.843336 147.195177 
L 129.84112 146.098662 
L 125.035953 145.240495 
L 128.339934 149.153066 
L 131.797733 152.930384 
L 135.403819 156.566404 
L 139.152422 160.055312 
L 143.037546 163.391524 
L 147.052975 166.569705 
L 151.192286 169.584768 
L 155.448856 172.431892 
L 159.815876 175.106521 
L 164.286359 177.604377 
L 168.853154 179.921462 
L 173.508955 182.054072 
L 178.246313 183.998793 
L 183.05765 185.752514 
L 186.453989 186.861384 
L 182.91587 190.563574 
L 179.528628 194.40429 
L 176.297684 198.377387 
L 173.228206 202.47651 
L 170.325104 206.6951 
L 167.593023 211.026408 
L 165.036334 215.463507 
L 162.659126 219.999296 
L 160.465203 224.62652 
L 158.458075 229.337777 
L 156.640952 234.125528 
L 155.016741 238.982116 
L 153.588041 243.89977 
L 152.357138 248.870623 
L 151.996544 250.512617 
L 156.897819 251.996533 
L 161.854514 253.283262 
L 166.8587 254.370747 
L 171.902371 255.257249 
L 176.977458 255.941348 
L 182.075843 256.421951 
L 187.189368 256.698288 
L 192.309853 256.769917 
L 197.429107 256.636725 
L 202.53894 256.298924 
L 207.631177 255.757054 
L 212.697672 255.011982 
L 217.730319 254.0649 
L 222.721068 252.917324 
L 227.661933 251.571089 
L 232.545012 250.028349 
L 237.362491 248.291572 
L 242.106665 246.363536 
L 246.769942 244.247327 
L 251.344864 241.946328 
L 255.824111 239.464223 
L 260.200517 236.80498 
L 264.467081 233.972855 
L 268.616978 230.972378 
L 272.643568 227.80835 
L 276.540409 224.485832 
L 280.301269 221.01014 
L 283.920129 217.386833 
L 287.391202 213.621709 
L 290.708933 209.720791 
L 293.868015 205.690319 
L 296.863394 201.536742 
L 299.690278 197.266703 
L 302.344145 192.887036 
L 304.82075 188.404745 
L 307.116129 183.827001 
L 309.226612 179.161129 
L 311.148821 174.414592 
L 312.879682 169.594984 
L 314.416426 164.710015 
L 315.756593 159.7675 
L 316.898041 154.775346 
L 317.838943 149.74154 
L 318.577793 144.674134 
L 319.113411 139.581236 
L 319.444938 134.470992 
L 319.571845 129.351578 
L 319.493928 124.231184 
L 319.211313 119.118002 
L 318.724451 114.020212 
L 318.034121 108.945969 
L 317.141428 103.90339 
L 316.047799 98.900543 
L 314.754985 93.945431 
L 313.265053 89.045982 
L 311.580387 84.210032 
L 310.662935 81.810868 
L 307.395661 77.867592 
L 303.973312 74.058126 
L 300.401363 70.388565 
L 296.685527 66.864779 
L 293.016547 63.648 
L 289.16914 67.027639 
L 285.459959 70.55843 
L 281.89494 74.234724 
L 278.479785 78.050641 
L 275.219958 82.000075 
L 272.120674 86.076708 
L 269.18689 90.274018 
L 266.423301 94.585292 
L 263.834327 99.00363 
L 261.424111 103.521966 
L 259.196508 108.133071 
L 257.155081 112.829567 
L 255.303098 117.603943 
L 253.643519 122.448558 
L 252.559026 126.011283 
L 252.7896 125.414083 
L 254.52612 120.596512 
L 256.0686 115.713351 
L 257.414572 110.772414 
L 258.561882 105.781604 
L 259.508696 100.748906 
L 260.253498 95.682372 
L 260.795097 90.590106 
L 261.132626 85.480255 
L 261.265546 80.360994 
L 261.193643 75.240512 
L 260.917034 70.127002 
L 260.436159 65.028643 
L 260.270422 63.648 
L 259.734205 68.740835 
L 259.402075 73.85104 
L 259.274565 78.970439 
L 259.351878 84.090842 
L 259.63389 89.204057 
L 260.120151 94.301905 
L 260.809883 99.376229 
L 261.701982 104.418913 
L 262.795021 109.421889 
L 264.087251 114.377153 
L 265.576605 119.276778 
L 267.260701 124.112926 
L 269.136844 128.877859 
L 271.202032 133.563956 
L 273.452963 138.163718 
L 275.105697 141.270933 
L 279.21372 144.328489 
L 283.440727 147.219322 
L 287.779955 149.938807 
L 292.224463 152.482595 
L 296.76714 154.846615 
L 301.400718 157.027085 
L 306.117786 159.020517 
L 310.910797 160.823722 
L 315.772083 162.433816 
L 320.693867 163.848222 
L 325.668275 165.064678 
L 330.687349 166.081238 
L 335.743061 166.896275 
L 340.827321 167.508486 
L 345.931996 167.916891 
L 351.048919 168.120836 
L 356.169906 168.119996 
L 360.403758 167.964501 
L 357.697219 172.311816 
L 355.166692 176.763887 
L 352.816224 181.313591 
L 350.649576 185.953649 
L 348.670214 190.676638 
L 346.881305 195.475003 
L 345.28571 200.341067 
L 343.885981 205.267045 
L 342.684359 210.245057 
L 342.17611 212.662712 
L 338.398422 216.120107 
L 334.762016 219.725803 
L 331.272707 223.474033 
L 327.936079 227.3588 
L 324.757469 231.373889 
L 321.741962 235.512877 
L 318.894383 239.769142 
L 316.219286 244.135876 
L 313.720952 248.606092 
L 311.403378 253.172639 
L 309.270271 257.828211 
L 307.325043 262.565361 
L 305.570806 267.37651 
L 304.010368 272.253962 
L 302.646223 277.189913 
L 301.480555 282.176467 
L 301.167842 283.691115 
L 299.253979 285.408 
L 295.408181 282.02653 
L 291.430236 278.801556 
L 287.326509 275.738238 
L 283.103564 272.841474 
L 278.768157 270.115901 
L 274.327224 267.565878 
L 269.78787 265.195484 
L 265.157356 263.008512 
L 260.443091 261.008461 
L 255.652616 259.19853 
L 250.793595 257.581615 
L 245.873801 256.160302 
L 240.901105 254.936865 
L 235.883462 253.913262 
L 230.8289 253.091129 
L 225.745504 252.471783 
L 220.641408 252.056214 
L 215.524775 251.845086 
L 210.403793 251.838739 
L 205.286653 252.037181 
L 200.181541 252.440095 
L 195.096626 253.046837 
L 190.040041 253.856436 
L 185.019876 254.867597 
L 180.044162 256.078702 
L 175.12086 257.487814 
L 170.257845 259.092678 
L 165.462898 260.890727 
L 160.743689 262.879085 
L 159.468773 263.454898 
L 163.583894 260.406902 
L 167.573836 257.196783 
L 171.432216 253.829677 
L 175.152862 250.31097 
L 178.729821 246.646292 
L 182.15737 242.841504 
L 185.430027 238.902695 
L 188.542555 234.836165 
L 191.489976 230.648419 
L 194.267575 226.346158 
L 196.870907 221.936265 
L 199.295808 217.425793 
L 201.718704 212.430467 
L 197.341024 215.087612 
L 193.073104 217.917693 
L 188.92177 220.916181 
L 184.893664 224.078279 
L 180.995231 227.39893 
L 177.232706 230.87282 
L 173.61211 234.494392 
L 170.139234 238.257852 
L 166.819635 242.15718 
L 163.658622 246.186138 
L 160.661253 250.33828 
L 157.832323 254.606963 
L 156.040503 257.51696 
L 161.158358 257.337904 
L 166.264959 256.954332 
L 171.352136 256.366857 
L 176.411752 255.576419 
L 181.435711 254.584283 
L 186.415977 253.392035 
L 191.344582 252.001584 
L 196.213641 250.415153 
L 201.015366 248.635281 
L 205.742073 246.664815 
L 210.386202 244.506906 
L 214.940323 242.165009 
L 219.397151 239.642868 
L 223.749554 236.94452 
L 227.990571 234.07428 
L 232.113417 231.03674 
L 236.111495 227.83676 
L 238.629339 225.681712 
L 242.843145 228.591753 
L 247.169951 231.33096 
L 251.602835 233.894949 
L 256.134705 236.27962 
L 260.758312 238.481156 
L 265.466258 240.496037 
L 270.251013 242.321038 
L 275.10492 243.95324 
L 280.020215 245.390033 
L 284.989036 246.629116 
L 290.003431 247.668509 
L 295.055381 248.506547 
L 300.136802 249.141892 
L 305.239565 249.573525 
L 310.355508 249.800757 
L 315.476445 249.823225 
L 320.834606 249.62728 
L 318.442154 245.099513 
L 315.870553 240.67104 
L 313.123917 236.348947 
L 310.20664 232.140146 
L 307.12339 228.051373 
L 303.879099 224.089167 
L 300.478957 220.259867 
L 296.928404 216.5696 
L 293.233119 213.024269 
L 289.399015 209.629545 
L 285.432225 206.390861 
L 281.339095 203.313396 
L 279.412458 201.951069 
L 279.967572 202.269911 
L 284.46445 204.719929 
L 289.055706 206.98816 
L 293.733994 209.070976 
L 298.491831 210.965044 
L 303.321604 212.667334 
L 308.215588 214.175123 
L 313.165952 215.485999 
L 318.164778 216.597864 
L 323.204067 217.508941 
L 328.27576 218.21777 
L 333.371741 218.72322 
L 338.502719 219.025211 
L 335.686392 214.748203 
L 332.701283 210.587238 
L 329.552167 206.548974 
L 326.244083 202.639872 
L 322.782323 198.866184 
L 319.172425 195.233949 
L 315.420163 191.748976 
L 311.531541 188.416841 
L 307.51278 185.242876 
L 303.370308 182.232156 
L 299.110754 179.3895 
L 294.74093 176.719454 
L 290.267829 174.22629 
L 287.341317 172.718947 
L 291.697869 170.027301 
L 295.943298 167.163592 
L 300.070814 164.132402 
L 304.073814 160.93858 
L 307.945892 157.587235 
L 311.680855 154.08373 
L 315.272728 150.433668 
L 318.715764 146.642889 
L 322.004455 142.717457 
L 325.13354 138.663653 
L 328.098014 134.487962 
L 330.893133 130.197063 
L 333.514426 125.797822 
L 334.762494 123.552529 
L 329.641609 123.520269 
L 324.523531 123.692814 
L 319.416446 124.06989 
L 314.328525 124.650894 
L 309.267908 125.434895 
L 304.242691 126.42064 
L 299.260912 127.606552 
L 294.330543 128.990732 
L 289.459469 130.570968 
L 284.655485 132.344731 
L 279.926275 134.309183 
L 275.279404 136.461182 
L 272.115339 138.05865 
L 274.329829 133.441234 
L 276.357901 128.738955 
L 278.19631 123.959336 
L 279.842114 119.110024 
L 281.292681 114.198776 
L 282.54569 109.233449 
L 283.599137 104.221987 
L 284.451336 99.172407 
L 285.100924 94.092787 
L 285.546862 88.991254 
L 285.788437 83.875969 
L 285.825261 78.755115 
L 285.657276 73.636884 
L 285.284751 68.529465 
L 284.73576 63.648 
L 284.16759 68.73737 
L 283.803394 73.845389 
L 283.643756 78.963887 
L 283.688931 84.084674 
L 283.938846 89.199558 
L 284.393103 94.300358 
L 285.050973 99.378911 
L 285.911406 104.427095 
L 286.973024 109.436833 
L 288.234128 114.400109 
L 289.692702 119.308985 
L 291.346412 124.155607 
L 293.192613 128.932222 
L 295.22835 133.631187 
L 297.450367 138.244986 
L 299.85511 142.766238 
L 302.438731 147.187708 
L 305.197097 151.502325 
L 308.125796 155.703186 
L 311.220141 159.783569 
L 314.475183 163.736948 
L 317.885714 167.556997 
L 321.446279 171.237606 
L 325.15118 174.772887 
L 328.994492 178.157183 
L 332.970064 181.38508 
L 337.071539 184.451415 
L 341.292353 187.351282 
L 345.625755 190.080041 
L 350.064812 192.633329 
L 352.87549 194.130841 
L 352.335706 193.786683 
L 347.95687 191.131443 
L 343.475356 188.653434 
L 338.898332 186.35662 
L 334.233121 184.244675 
L 329.487187 182.320978 
L 324.668122 180.588607 
L 319.783635 179.050332 
L 314.84154 177.708616 
L 309.849744 176.565603 
L 304.816233 175.623124 
L 299.749059 174.882685 
L 294.656329 174.345472 
L 289.546189 174.012343 
L 287.369818 173.932668 
L 288.009056 173.89822 
L 293.115128 173.507677 
L 298.201499 172.913259 
L 303.260031 172.115915 
L 308.282632 171.116922 
L 313.261265 169.917877 
L 318.187968 168.5207 
L 323.054857 166.927624 
L 327.854147 165.141199 
L 332.578161 163.164282 
L 337.21934 161.000037 
L 341.77026 158.651925 
L 346.22364 156.123703 
L 350.572356 153.419416 
L 351.611903 152.736562 
L 351.039321 153.022852 
L 346.511652 155.415488 
L 342.083283 157.987269 
L 337.761301 160.73408 
L 333.55262 163.651528 
L 329.463971 166.734944 
L 325.501897 169.979396 
L 321.672735 173.379693 
L 317.982612 176.930397 
L 314.437431 180.625825 
L 311.042864 184.460068 
L 307.80434 188.426989 
L 304.727042 192.520244 
L 301.815891 196.733284 
L 299.075546 201.059369 
L 296.51039 205.491578 
L 294.124527 210.022821 
L 291.921774 214.645848 
L 289.905655 219.353264 
L 288.079394 224.137538 
L 286.445915 228.991015 
L 285.007829 233.905933 
L 283.767438 238.874426 
L 282.726726 243.888549 
L 281.887358 248.940277 
L 281.250677 254.021531 
L 280.8177 259.124181 
L 280.589122 264.240063 
L 280.565307 269.360994 
L 280.746294 274.478781 
L 281.131793 279.585237 
L 281.721187 284.672193 
L 281.823566 285.408 
L 282.442467 280.32455 
L 282.857589 275.220417 
L 283.068268 270.103766 
L 283.074167 264.982783 
L 282.875276 259.86566 
L 282.471915 254.760584 
L 281.864727 249.675722 
L 281.054685 244.619208 
L 280.043084 239.599132 
L 278.831543 234.623524 
L 277.421999 229.700345 
L 275.816709 224.837471 
L 274.018239 220.042682 
L 272.029468 215.323647 
L 270.668842 212.368979 
L 275.122311 214.897045 
L 279.673313 217.244998 
L 284.314568 219.40908 
L 289.038651 221.385831 
L 293.838003 223.172088 
L 298.704949 224.764994 
L 303.6317 226.161999 
L 308.610376 227.360869 
L 313.633011 228.359686 
L 318.691571 229.156853 
L 323.777962 229.751093 
L 328.884049 230.141457 
L 332.005229 230.279194 
L 329.218115 225.983091 
L 326.261432 221.80188 
L 323.139911 217.742249 
L 319.858544 213.810692 
L 316.422582 210.0135 
L 312.837521 206.356748 
L 309.109097 202.846284 
L 305.243274 199.487726 
L 301.246236 196.286446 
L 297.124379 193.247566 
L 292.884296 190.375946 
L 288.532771 187.676182 
L 286.019814 186.224105 
L 291.127605 185.856728 
L 296.21662 185.285388 
L 301.278717 184.510999 
L 306.305797 183.534799 
L 311.289819 182.35835 
L 316.222808 180.983535 
L 321.096874 179.412553 
L 325.904218 177.647916 
L 330.637151 175.692449 
L 335.288099 173.549279 
L 339.849624 171.221835 
L 344.314427 168.71384 
L 348.675365 166.029307 
L 352.925462 163.17253 
L 356.245786 160.762683 
L 351.576894 162.866477 
L 346.995866 165.155294 
L 342.510031 167.625473 
L 338.126564 170.273061 
L 333.85248 173.093824 
L 329.694614 176.083248 
L 325.65962 179.236551 
L 321.753951 182.548688 
L 317.983857 186.014362 
L 314.355368 189.628026 
L 310.87429 193.383901 
L 307.546191 197.275978 
L 304.376396 201.29803 
L 301.369975 205.443622 
L 298.531739 209.706124 
L 295.866228 214.078714 
L 293.377706 218.5544 
L 291.070154 223.126019 
L 288.947264 227.78626 
L 287.012432 232.527665 
L 285.268753 237.342651 
L 283.719017 242.223514 
L 282.365703 247.162445 
L 281.210976 252.151544 
L 280.256684 257.182829 
L 279.504353 262.248251 
L 278.955186 267.339706 
L 278.610063 272.44905 
L 278.469534 277.568108 
L 278.533826 282.68869 
L 278.651332 285.408 
L 278.684167 284.768677 
L 278.831704 279.649817 
L 278.774423 274.529151 
L 278.512416 269.414871 
L 278.046102 264.31516 
L 277.376226 259.238176 
L 276.503862 254.192041 
L 275.430403 249.184827 
L 274.157568 244.224545 
L 272.687393 239.319131 
L 271.02223 234.476432 
L 269.164742 229.704196 
L 267.117902 225.010056 
L 264.884983 220.401523 
L 263.529538 217.814352 
L 263.909862 218.329294 
L 267.044163 222.379066 
L 270.337905 226.300261 
L 273.785818 230.086605 
L 277.382386 233.73204 
L 281.121856 237.230735 
L 284.998246 240.577092 
L 289.005353 243.765758 
L 293.136768 246.791633 
L 297.38588 249.649874 
L 301.745893 252.33591 
L 306.209831 254.845443 
L 310.770554 257.174459 
L 315.275646 259.255682 
L 311.08946 256.306046 
L 306.788669 253.526173 
L 302.380153 250.920508 
L 297.870964 248.493222 
L 293.268317 246.248196 
L 288.579574 244.189024 
L 283.812237 242.318998 
L 278.973932 240.64111 
L 274.072399 239.158045 
L 269.115481 237.872176 
L 264.111106 236.785559 
L 259.067281 235.899932 
L 253.992075 235.216714 
L 248.893608 234.736996 
L 243.780035 234.461546 
L 238.659537 234.390804 
L 233.540306 234.524885 
L 228.430532 234.863573 
L 223.338389 235.406326 
L 218.272023 236.152277 
L 213.239541 237.100232 
L 208.248991 238.248674 
L 203.308359 239.595766 
L 198.425548 241.139353 
L 193.608371 242.876966 
L 188.864532 244.805825 
L 184.201621 246.922844 
L 179.627099 249.224636 
L 175.148283 251.707519 
L 170.772338 254.367521 
L 166.506265 257.200386 
L 162.35689 260.201582 
L 159.070537 262.765133 
L 163.809982 260.825504 
L 168.468072 258.697901 
L 173.037355 256.385725 
L 177.51052 253.892676 
L 181.880412 251.222742 
L 186.14004 248.380195 
L 190.282589 245.369582 
L 194.301432 242.195719 
L 198.190139 238.863684 
L 201.94249 235.378808 
L 205.552482 231.746665 
L 209.014339 227.973066 
L 212.322523 224.064049 
L 214.710436 221.033011 
L 213.732691 226.059791 
L 212.956745 231.12165 
L 212.38384 236.210488 
L 212.014893 241.318167 
L 211.850494 246.436514 
L 211.890905 251.557341 
L 212.136063 256.672456 
L 212.585574 261.773675 
L 213.23872 266.852839 
L 214.094457 271.901821 
L 215.151414 276.912543 
L 216.407901 281.876991 
L 217.431863 285.408 
L 218.830372 280.481675 
L 220.030762 275.503366 
L 221.031112 270.481036 
L 221.829822 265.422719 
L 222.425615 260.336509 
L 222.817538 255.230542 
L 223.004962 250.112987 
L 222.987589 244.99203 
L 222.765446 239.875864 
L 222.338889 234.772674 
L 221.7086 229.690623 
L 220.875587 224.637843 
L 220.625669 223.328455 
L 216.987357 226.93223 
L 213.496069 230.678616 
L 210.157389 234.561619 
L 206.976657 238.575028 
L 203.958964 242.712422 
L 201.109137 246.967182 
L 198.431733 251.332502 
L 195.931038 255.801397 
L 193.611051 260.366719 
L 191.475484 265.021164 
L 189.527754 269.757285 
L 187.770975 274.567507 
L 186.20796 279.444133 
L 184.841208 284.379363 
L 184.582904 285.408 
L 183.25708 280.461618 
L 181.734514 275.572212 
L 180.017641 270.747603 
L 178.109209 265.99551 
L 176.012271 261.323535 
L 173.73018 256.739152 
L 171.266589 252.249696 
L 168.625438 247.862348 
L 165.810952 243.584127 
L 162.827634 239.421878 
L 159.680258 235.382259 
L 156.373857 231.471733 
L 152.913721 227.696555 
L 149.305387 224.062766 
L 145.554626 220.576179 
L 141.667439 217.24237 
L 137.650044 214.066675 
L 133.508869 211.054172 
L 129.250538 208.209683 
L 126.63152 206.579108 
L 126.420507 201.46247 
L 126.005051 196.358364 
L 125.385818 191.274955 
L 124.563799 186.220374 
L 123.540307 181.202709 
L 122.316981 176.229986 
L 120.895778 171.31016 
L 119.278971 166.451103 
L 117.469147 161.660587 
L 116.674234 159.723417 
L 121.740718 158.978271 
L 126.773351 158.031115 
L 131.764083 156.883465 
L 136.704929 155.537157 
L 141.587984 153.994345 
L 146.405438 152.257497 
L 151.149583 150.329392 
L 155.812829 148.213113 
L 160.387717 145.912047 
L 164.866927 143.429876 
L 169.243294 140.770568 
L 173.509817 137.938381 
L 177.659669 134.937843 
L 181.686213 131.773755 
L 185.583005 128.45118 
L 189.343814 124.975432 
L 192.962621 121.352072 
L 196.433637 117.586897 
L 199.751311 113.685929 
L 202.910334 109.655411 
L 205.905651 105.50179 
L 208.732473 101.23171 
L 211.386276 96.852003 
L 213.862814 92.369675 
L 216.158126 87.791898 
L 218.26854 83.125994 
L 220.190679 78.379429 
L 221.921469 73.559795 
L 223.45814 68.674804 
L 224.819253 63.648 
L 226.155995 68.591442 
L 227.689352 73.477475 
L 229.416872 78.298282 
L 231.335791 83.04615 
L 233.443039 87.713484 
L 235.735246 92.292817 
L 238.208743 96.776824 
L 240.859574 101.15833 
L 243.683498 105.430326 
L 246.675998 109.585979 
L 249.832285 113.618639 
L 253.147312 117.521856 
L 256.615774 121.289385 
L 260.232122 124.915199 
L 263.990572 128.393497 
L 267.88511 131.718715 
L 271.909506 134.885533 
L 276.057322 137.888885 
L 280.321922 140.723967 
L 284.696484 143.386242 
L 289.17401 145.871452 
L 293.747335 148.175621 
L 298.409145 150.295062 
L 303.151981 152.226385 
L 307.968256 153.966501 
L 312.850264 155.512625 
L 317.790195 156.862284 
L 322.780147 158.013319 
L 327.812137 158.963888 
L 332.878114 159.712471 
L 337.969974 160.257871 
L 343.079572 160.599214 
L 348.198732 160.735954 
L 353.319266 160.667873 
L 356.119476 160.543908 
L 353.404546 164.885987 
L 350.865425 169.333162 
L 348.506174 173.878318 
L 346.330568 178.514182 
L 344.342087 183.23334 
L 342.543913 188.02824 
L 340.938922 192.891213 
L 339.529682 197.814479 
L 338.318448 202.790161 
L 337.307156 207.810299 
L 336.497426 212.866863 
L 335.890552 217.951763 
L 335.487504 223.056864 
L 335.416993 224.369845 
L 331.167794 227.227957 
L 327.036287 230.253706 
L 323.029083 233.442251 
L 319.152593 236.78849 
L 315.413016 240.287072 
L 311.816337 243.932398 
L 308.368309 247.718637 
L 305.074449 251.639731 
L 301.940025 255.689409 
L 298.970052 259.861191 
L 296.169282 264.148403 
L 293.542194 268.544186 
L 291.092993 273.041509 
L 288.825595 277.633177 
L 286.743629 282.311843 
L 285.486723 285.408 
L 283.527565 280.676594 
L 281.380768 276.027318 
L 279.049767 271.467611 
L 276.538291 267.004765 
L 273.850358 262.645922 
L 270.990267 258.398054 
L 267.962595 254.267957 
L 264.772184 250.262238 
L 261.42414 246.387305 
L 257.923818 242.649359 
L 254.276817 239.054377 
L 250.488973 235.608113 
L 246.566345 232.316078 
L 242.515209 229.18354 
L 238.342044 226.21551 
L 237.61064 225.720729 
L 233.590275 228.892663 
L 229.699968 232.22283 
L 225.945945 235.705905 
L 222.33421 239.336315 
L 218.870542 243.108252 
L 215.560482 247.015681 
L 212.409325 251.052352 
L 209.422113 255.211807 
L 206.603623 259.487391 
L 203.958366 263.872264 
L 201.490573 268.359413 
L 199.204193 272.941657 
L 197.102881 277.611667 
L 195.190002 282.361972 
L 194.077579 285.408 
L 192.285618 280.610774 
L 190.303252 275.889044 
L 188.133654 271.250365 
L 185.780293 266.702157 
L 183.246935 262.251697 
L 180.537632 257.906104 
L 177.656719 253.67233 
L 174.608805 249.557148 
L 171.398765 245.567142 
L 168.031736 241.708695 
L 164.513102 237.98798 
L 160.848495 234.410948 
L 157.043776 230.983323 
L 153.105031 227.710588 
L 149.038563 224.597979 
L 144.850876 221.650475 
L 140.54867 218.872791 
L 136.138828 216.269371 
L 131.628404 213.844381 
L 130.495127 213.271071 
L 130.701002 208.154225 
L 130.702093 203.033239 
L 130.498399 197.916305 
L 130.090245 192.81161 
L 129.478283 187.72732 
L 128.663494 182.671569 
L 127.647181 177.652444 
L 126.430969 172.677976 
L 125.016804 167.756123 
L 123.406949 162.894758 
L 121.603979 158.101659 
L 119.924657 154.09352 
L 125.00252 153.430335 
L 130.0498 152.56462 
L 135.058424 151.49776 
L 140.020378 150.231463 
L 144.927725 148.767753 
L 149.772614 147.108972 
L 154.547294 145.257774 
L 159.244127 143.217121 
L 163.855598 140.990276 
L 168.37433 138.580804 
L 172.793095 135.992557 
L 177.104823 133.229678 
L 181.302616 130.296585 
L 185.379759 127.197971 
L 189.32973 123.938794 
L 193.146208 120.524267 
L 196.823089 116.959853 
L 200.354491 113.251254 
L 203.734763 109.404403 
L 206.958498 105.425455 
L 210.020539 101.320774 
L 212.915988 97.096927 
L 215.640211 92.760672 
L 218.188852 88.318946 
L 220.557832 83.778854 
L 222.743362 79.14766 
L 224.741946 74.432772 
L 226.550385 69.641734 
L 228.165788 64.782209 
L 228.512043 63.648 
L 230.082367 68.522278 
L 231.846353 73.329861 
L 233.80118 78.063058 
L 235.943722 82.714296 
L 238.270549 87.276135 
L 240.77794 91.741277 
L 243.461883 96.102579 
L 246.318085 100.353063 
L 249.341977 104.485929 
L 252.52872 108.494566 
L 255.873217 112.37256 
L 259.370117 116.113709 
L 263.013825 119.712026 
L 266.798514 123.161756 
L 270.718128 126.457379 
L 274.766396 129.593623 
L 278.936842 132.56547 
L 283.222795 135.368168 
L 287.617397 137.997231 
L 292.113619 140.448454 
L 296.704266 142.717915 
L 301.381997 144.801984 
L 306.139325 146.697326 
L 310.968642 148.400911 
L 315.862222 149.910011 
L 320.812235 151.222213 
L 325.810762 152.335418 
L 330.849808 153.247844 
L 335.92131 153.958033 
L 341.017155 154.464848 
L 346.129192 154.767477 
L 351.249241 154.865438 
L 352.834548 154.854245 
L 350.30404 159.306326 
L 347.953591 163.85604 
L 345.786963 168.496107 
L 343.807621 173.219105 
L 342.018732 178.017477 
L 340.423158 182.883548 
L 339.023451 187.809532 
L 337.82185 192.78755 
L 336.820278 197.809637 
L 336.020337 202.867758 
L 335.423307 207.953823 
L 335.030143 213.059695 
L 334.841473 218.177205 
L 334.857601 223.298166 
L 334.917136 225.235622 
L 330.436148 227.714581 
L 326.057875 230.37075 
L 321.789323 233.199878 
L 317.63732 236.197439 
L 313.608509 239.358639 
L 309.709334 242.678419 
L 305.946035 246.151469 
L 302.324631 249.772233 
L 298.850915 253.534919 
L 295.530445 257.433506 
L 292.368533 261.461758 
L 289.370238 265.613231 
L 286.540355 269.881283 
L 283.883413 274.259086 
L 281.403661 278.739636 
L 279.105067 283.315766 
L 278.12909 285.408 
L 275.913383 280.791168 
L 273.514824 276.266633 
L 270.93725 271.841634 
L 268.184785 267.52325 
L 265.261832 263.31839 
L 262.173068 259.23378 
L 258.923434 255.275955 
L 255.518129 251.451246 
L 251.962599 247.765773 
L 248.262535 244.225431 
L 244.423854 240.835883 
L 240.452697 237.602554 
L 236.355419 234.530615 
L 232.138573 231.62498 
L 227.808906 228.890299 
L 223.373344 226.330945 
L 218.838983 223.951014 
L 214.213077 221.754312 
L 209.503027 219.744355 
L 204.716367 217.924357 
L 199.860756 216.29723 
L 194.943961 214.865578 
L 189.973848 213.631689 
L 184.958368 212.59754 
L 179.905546 211.764783 
L 174.823463 211.134752 
L 169.720251 210.708453 
L 164.604074 210.48657 
L 159.483116 210.469456 
L 154.36557 210.65714 
L 149.259623 211.049321 
L 144.173443 211.645372 
L 139.115167 212.444339 
L 134.092888 213.444944 
L 131.010374 214.163506 
L 134.482179 210.399057 
L 137.80067 206.498785 
L 140.960536 202.468929 
L 143.956724 198.315934 
L 146.78444 194.046447 
L 149.43916 189.667295 
L 151.916637 185.185487 
L 154.212907 180.60819 
L 156.324298 175.942729 
L 158.247432 171.196566 
L 159.979231 166.377295 
L 161.516925 161.492626 
L 162.858055 156.550372 
L 164.000475 151.55844 
L 164.942356 146.524817 
L 165.682194 141.457555 
L 166.218803 136.364761 
L 166.551325 131.254582 
L 166.679228 126.135193 
L 166.602309 121.014785 
L 166.320689 115.901548 
L 165.834819 110.803662 
L 165.145477 105.729285 
L 164.253766 100.686532 
L 163.161111 95.683472 
L 161.869262 90.728109 
L 160.380284 85.82837 
L 160.000242 84.68057 
L 164.998766 83.567346 
L 169.948774 82.255125 
L 174.842347 80.746006 
L 179.671658 79.042404 
L 184.42898 77.147044 
L 189.106702 75.062957 
L 193.697341 72.793479 
L 198.193553 70.342239 
L 202.588146 67.713159 
L 206.874088 64.910446 
L 208.688985 63.648 
L 212.925895 66.5243 
L 217.274437 69.228868 
L 221.727654 71.757377 
L 226.278422 74.105782 
L 230.919462 76.270327 
L 235.643347 78.247548 
L 240.442523 80.034283 
L 245.309309 81.627673 
L 250.235921 83.025169 
L 255.214478 84.224534 
L 260.237013 85.223852 
L 265.295494 86.021522 
L 270.381826 86.616268 
L 275.487874 87.00714 
L 280.605468 87.193512 
L 285.726421 87.175086 
L 290.842541 86.951891 
L 295.945644 86.524284 
L 301.027564 85.89295 
L 306.080174 85.058897 
L 311.095388 84.023462 
L 311.841116 83.851538 
L 308.413989 87.656706 
L 305.141771 91.595879 
L 302.029694 95.662756 
L 299.082739 99.850829 
L 296.305619 104.153399 
L 293.702778 108.563582 
L 291.278378 113.074324 
L 289.0363 117.678407 
L 286.980129 122.368467 
L 285.113155 127.137001 
L 283.438365 131.976379 
L 281.958439 136.87886 
L 280.675743 141.8366 
L 279.511026 147.261016 
L 284.487606 148.468556 
L 289.508494 149.47612 
L 294.565657 150.282097 
L 299.651006 150.885196 
L 304.756405 151.284453 
L 309.873686 151.479229 
L 314.994663 151.469212 
L 320.111142 151.254419 
L 325.21494 150.835194 
L 330.297891 150.212206 
L 335.351863 149.386453 
L 340.368771 148.359255 
L 345.340589 147.132256 
L 347.954443 146.401655 
L 344.328456 150.01783 
L 340.849978 153.776113 
L 337.524573 157.670492 
L 334.357562 161.694736 
L 331.354011 165.842408 
L 328.518725 170.106873 
L 325.856241 174.481307 
L 323.370816 178.958714 
L 321.066429 183.531929 
L 318.946764 188.193637 
L 317.015213 192.936381 
L 315.274867 197.752572 
L 313.728509 202.634506 
L 312.378613 207.574372 
L 311.227339 212.564269 
L 310.276529 217.596213 
L 309.527703 222.662154 
L 308.98206 227.753989 
L 308.640472 232.86357 
L 308.503487 237.982724 
L 308.571322 243.103261 
L 308.84387 248.216989 
L 309.320695 253.315728 
L 310.001033 258.391321 
L 310.883797 263.435648 
L 311.404407 265.960864 
L 306.560092 267.621318 
L 301.786052 269.474166 
L 297.089924 271.516442 
L 292.479223 273.744879 
L 287.961323 276.155913 
L 283.543453 278.745686 
L 279.23268 281.510055 
L 275.0359 284.444597 
L 273.732568 285.408 
L 269.573271 282.420567 
L 265.297836 279.601851 
L 260.913103 276.956362 
L 256.426085 274.488332 
L 251.843962 272.201708 
L 247.174063 270.10015 
L 242.42386 268.187018 
L 237.600952 266.465375 
L 232.713054 264.937973 
L 227.767986 263.607257 
L 222.773659 262.475356 
L 217.738063 261.54408 
L 212.669254 260.814918 
L 207.575341 260.289039 
L 202.464472 259.967282 
L 197.344825 259.850162 
L 192.22459 259.937868 
L 187.111958 260.230258 
L 182.015107 260.726866 
L 176.942193 261.426895 
L 171.90133 262.329227 
L 166.900583 263.432418 
L 161.947952 264.734704 
L 160.458001 265.168292 
L 164.105955 261.574279 
L 167.607269 257.837261 
L 170.956342 253.963217 
L 174.147815 249.958345 
L 177.176583 245.829051 
L 180.0378 241.581942 
L 182.72689 237.223812 
L 185.239551 232.761633 
L 187.571761 228.202544 
L 189.719792 223.553838 
L 191.680205 218.822952 
L 193.449865 214.017455 
L 195.025942 209.145034 
L 195.885738 206.163165 
L 190.771018 206.416428 
L 185.670517 206.874022 
L 180.592395 207.535216 
L 175.544775 208.398952 
L 170.535733 209.463847 
L 165.573283 210.7282 
L 160.665362 212.189986 
L 155.819824 213.846867 
L 151.044418 215.696193 
L 146.346786 217.735004 
L 141.734442 219.960041 
L 137.214765 222.367741 
L 136.10819 222.993181 
L 138.853014 221.346756 
L 143.156641 218.571274 
L 147.345835 215.625913 
L 151.413896 212.515385 
L 155.354314 209.244666 
L 159.160787 205.818988 
L 162.827225 202.243832 
L 166.347761 198.524918 
L 169.716765 194.668195 
L 172.928846 190.679832 
L 175.978866 186.56621 
L 178.861945 182.333911 
L 181.573471 177.989705 
L 184.109106 173.540541 
L 185.017326 171.839742 
L 185.017326 171.839742 
" style="fill:none;stroke:#1f77b4;stroke-linecap:square;stroke-width:1.5;"/>
   </g>
   <g id="patch_4">
    <path d="M 82.520165 307.584 
L 82.520165 41.472 
" style="fill:none;stroke:#000000;stroke-linecap:square;stroke-linejoin:miter;stroke-width:0.8;"/>
   </g>
   <g id="patch_5">
    <path d="M 389.799835 307.584 
L 389.799835 41.472 
" style="fill:none;stroke:#000000;stroke-linecap:square;stroke-linejoin:miter;stroke-width:0.8;"/>
   </g>
   <g id="patch_6">
    <path d="M 82.520165 307.584 
L 389.799835 307.584 
" style="fill:none;stroke:#000000;stroke-linecap:square;stroke-linejoin:miter;stroke-width:0.8;"/>
   </g>
   <g id="patch_7">
    <path d="M 82.520165 41.472 
L 389.799835 41.472 
" style="fill:none;stroke:#000000;stroke-linecap:square;stroke-linejoin:miter;stroke-width:0.8;"/>
   </g>
   <g id="PathCollection_1">
    <defs>
     <path d="M 0 2.236068 
C 0.593012 2.236068 1.161816 2.000462 1.581139 1.581139 
C 2.000462 1.161816 2.236068 0.593012 2.236068 0 
C 2.236068 -0.593012 2.000462 -1.161816 1.581139 -1.581139 
C 1.161816 -2.000462 0.593012 -2.236068 0 -2.236068 
C -0.593012 -2.236068 -1.161816 -2.000462 -1.581139 -1.581139 
C -2.000462 -1.161816 -2.236068 -0.593012 -2.236068 0 
C -2.236068 0.593012 -2.000462 1.161816 -1.581139 1.581139 
C -1.161816 2.000462 -0.593012 2.236068 0 2.236068 
z
" id="m1132402dd6" style="stroke:#000000;"/>
    </defs>
    <g clip-path="url(#p0703a7ce37)">
     <use style="stroke:#000000;" x="185.017326" xlink:href="#m1132402dd6" y="171.839742"/>
    </g>
   </g>
   <g id="Quiver_1">
    <path clip-path="url(#p0703a7ce37)" d="M 184.446131 172.066502 
L 181.951766 165.783365 
L 181.036138 166.808081 
L 180.482116 160.415857 
L 184.463304 165.447518 
L 183.094155 165.329844 
L 185.58852 171.612981 
L 184.446131 172.066502 
"/>
   </g>
  </g>
 </g>
 <defs>
  <clipPath id="p0703a7ce37">
   <rect height="266.112" width="307.27967" x="82.520165" y="41.472"/>
  </clipPath>
 </defs>
</svg>
