<?xml version="1.0" encoding="utf-8" standalone="no"?>
<!DOCTYPE svg PUBLIC "-//W3C//DTD SVG 1.1//EN"
  "http://www.w3.org/Graphics/SVG/1.1/DTD/svg11.dtd">
<!-- Created with matplotlib (https://matplotlib.org/) -->
<svg height="345.6pt" version="1.1" viewBox="0 0 460.8 345.6" width="460.8pt" xmlns="http://www.w3.org/2000/svg" xmlns:xlink="http://www.w3.org/1999/xlink">
 <defs>
  <style type="text/css">
*{stroke-linecap:butt;stroke-linejoin:round;}
  </style>
 </defs>
 <g id="figure_1">
  <g id="patch_1">
   <path d="M 0 345.6 
L 460.8 345.6 
L 460.8 0 
L 0 0 
z
" style="fill:#ffffff;"/>
  </g>
  <g id="axes_1">
   <g id="patch_2">
    <path d="M 57.6 263.808 
L 414.72 263.808 
L 414.72 85.248 
L 57.6 85.248 
z
" style="fill:#ffffff;"/>
   </g>
   <g id="PathCollection_1">
    <defs>
     <path d="M 0 3 
C 0.795609 3 1.55874 2.683901 2.12132 2.12132 
C 2.683901 1.55874 3 0.795609 3 0 
C 3 -0.795609 2.683901 -1.55874 2.12132 -2.12132 
C 1.55874 -2.683901 0.795609 -3 0 -3 
C -0.795609 -3 -1.55874 -2.683901 -2.12132 -2.12132 
C -2.683901 -1.55874 -3 -0.795609 -3 0 
C -3 0.795609 -2.683901 1.55874 -2.12132 2.12132 
C -1.55874 2.683901 -0.795609 3 0 3 
z
" id="m51ffeb1c62" style="stroke:#000000;"/>
    </defs>
    <g clip-path="url(#pe433b57f30)">
     <use style="stroke:#000000;" x="93.445271" xlink:href="#m51ffeb1c62" y="237.5333"/>
    </g>
   </g>
   <g id="patch_3">
    <path clip-path="url(#pe433b57f30)" d="M 161.76 211.728 
C 171.625555 211.728 181.088371 207.808373 188.064372 200.832372 
C 195.040373 193.856371 198.96 184.393555 198.96 174.528 
C 198.96 164.662445 195.040373 155.199629 188.064372 148.223628 
C 181.088371 141.247627 171.625555 137.328 161.76 137.328 
C 151.894445 137.328 142.431629 141.247627 135.455628 148.223628 
C 128.479627 155.199629 124.56 164.662445 124.56 174.528 
C 124.56 184.393555 128.479627 193.856371 135.455628 200.832372 
C 142.431629 207.808373 151.894445 211.728 161.76 211.728 
z
" style="fill:#cc0000;fill-opacity:0.1;stroke:#cc0000;stroke-dasharray:7.4,3.2;stroke-dashoffset:0;stroke-linejoin:miter;stroke-width:2;"/>
   </g>
   <g id="patch_4">
    <path clip-path="url(#pe433b57f30)" d="M 310.56 196.848 
C 316.479333 196.848 322.157023 194.496224 326.342623 190.310623 
C 330.528224 186.125023 332.88 180.447333 332.88 174.528 
C 332.88 168.608667 330.528224 162.930977 326.342623 158.745377 
C 322.157023 154.559776 316.479333 152.208 310.56 152.208 
C 304.640667 152.208 298.962977 154.559776 294.777377 158.745377 
C 290.591776 162.930977 288.24 168.608667 288.24 174.528 
C 288.24 180.447333 290.591776 186.125023 294.777377 190.310623 
C 298.962977 194.496224 304.640667 196.848 310.56 196.848 
z
" style="fill:#cc0000;fill-opacity:0.1;stroke:#cc0000;stroke-dasharray:7.4,3.2;stroke-dashoffset:0;stroke-linejoin:miter;stroke-width:2;"/>
   </g>
   <g id="matplotlib.axis_1">
    <g id="xtick_1">
     <g id="line2d_1">
      <defs>
       <path d="M 0 0 
L 0 3.5 
" id="m1b0d16c888" style="stroke:#000000;stroke-width:0.8;"/>
      </defs>
      <g>
       <use style="stroke:#000000;stroke-width:0.8;" x="87.36" xlink:href="#m1b0d16c888" y="263.808"/>
      </g>
     </g>
     <g id="text_1">
      <!-- 0.0 -->
      <defs>
       <path d="M 31.78125 66.40625 
Q 24.171875 66.40625 20.328125 58.90625 
Q 16.5 51.421875 16.5 36.375 
Q 16.5 21.390625 20.328125 13.890625 
Q 24.171875 6.390625 31.78125 6.390625 
Q 39.453125 6.390625 43.28125 13.890625 
Q 47.125 21.390625 47.125 36.375 
Q 47.125 51.421875 43.28125 58.90625 
Q 39.453125 66.40625 31.78125 66.40625 
z
M 31.78125 74.21875 
Q 44.046875 74.21875 50.515625 64.515625 
Q 56.984375 54.828125 56.984375 36.375 
Q 56.984375 17.96875 50.515625 8.265625 
Q 44.046875 -1.421875 31.78125 -1.421875 
Q 19.53125 -1.421875 13.0625 8.265625 
Q 6.59375 17.96875 6.59375 36.375 
Q 6.59375 54.828125 13.0625 64.515625 
Q 19.53125 74.21875 31.78125 74.21875 
z
" id="DejaVuSans-48"/>
       <path d="M 10.6875 12.40625 
L 21 12.40625 
L 21 0 
L 10.6875 0 
z
" id="DejaVuSans-46"/>
      </defs>
      <g transform="translate(79.408438 278.406437)scale(0.1 -0.1)">
       <use xlink:href="#DejaVuSans-48"/>
       <use x="63.623047" xlink:href="#DejaVuSans-46"/>
       <use x="95.410156" xlink:href="#DejaVuSans-48"/>
      </g>
     </g>
    </g>
    <g id="xtick_2">
     <g id="line2d_2">
      <g>
       <use style="stroke:#000000;stroke-width:0.8;" x="161.76" xlink:href="#m1b0d16c888" y="263.808"/>
      </g>
     </g>
     <g id="text_2">
      <!-- 0.5 -->
      <defs>
       <path d="M 10.796875 72.90625 
L 49.515625 72.90625 
L 49.515625 64.59375 
L 19.828125 64.59375 
L 19.828125 46.734375 
Q 21.96875 47.46875 24.109375 47.828125 
Q 26.265625 48.1875 28.421875 48.1875 
Q 40.625 48.1875 47.75 41.5 
Q 54.890625 34.8125 54.890625 23.390625 
Q 54.890625 11.625 47.5625 5.09375 
Q 40.234375 -1.421875 26.90625 -1.421875 
Q 22.3125 -1.421875 17.546875 -0.640625 
Q 12.796875 0.140625 7.71875 1.703125 
L 7.71875 11.625 
Q 12.109375 9.234375 16.796875 8.0625 
Q 21.484375 6.890625 26.703125 6.890625 
Q 35.15625 6.890625 40.078125 11.328125 
Q 45.015625 15.765625 45.015625 23.390625 
Q 45.015625 31 40.078125 35.4375 
Q 35.15625 39.890625 26.703125 39.890625 
Q 22.75 39.890625 18.8125 39.015625 
Q 14.890625 38.140625 10.796875 36.28125 
z
" id="DejaVuSans-53"/>
      </defs>
      <g transform="translate(153.808437 278.406437)scale(0.1 -0.1)">
       <use xlink:href="#DejaVuSans-48"/>
       <use x="63.623047" xlink:href="#DejaVuSans-46"/>
       <use x="95.410156" xlink:href="#DejaVuSans-53"/>
      </g>
     </g>
    </g>
    <g id="xtick_3">
     <g id="line2d_3">
      <g>
       <use style="stroke:#000000;stroke-width:0.8;" x="236.16" xlink:href="#m1b0d16c888" y="263.808"/>
      </g>
     </g>
     <g id="text_3">
      <!-- 1.0 -->
      <defs>
       <path d="M 12.40625 8.296875 
L 28.515625 8.296875 
L 28.515625 63.921875 
L 10.984375 60.40625 
L 10.984375 69.390625 
L 28.421875 72.90625 
L 38.28125 72.90625 
L 38.28125 8.296875 
L 54.390625 8.296875 
L 54.390625 0 
L 12.40625 0 
z
" id="DejaVuSans-49"/>
      </defs>
      <g transform="translate(228.208437 278.406437)scale(0.1 -0.1)">
       <use xlink:href="#DejaVuSans-49"/>
       <use x="63.623047" xlink:href="#DejaVuSans-46"/>
       <use x="95.410156" xlink:href="#DejaVuSans-48"/>
      </g>
     </g>
    </g>
    <g id="xtick_4">
     <g id="line2d_4">
      <g>
       <use style="stroke:#000000;stroke-width:0.8;" x="310.56" xlink:href="#m1b0d16c888" y="263.808"/>
      </g>
     </g>
     <g id="text_4">
      <!-- 1.5 -->
      <g transform="translate(302.608437 278.406437)scale(0.1 -0.1)">
       <use xlink:href="#DejaVuSans-49"/>
       <use x="63.623047" xlink:href="#DejaVuSans-46"/>
       <use x="95.410156" xlink:href="#DejaVuSans-53"/>
      </g>
     </g>
    </g>
    <g id="xtick_5">
     <g id="line2d_5">
      <g>
       <use style="stroke:#000000;stroke-width:0.8;" x="384.96" xlink:href="#m1b0d16c888" y="263.808"/>
      </g>
     </g>
     <g id="text_5">
      <!-- 2.0 -->
      <defs>
       <path d="M 19.1875 8.296875 
L 53.609375 8.296875 
L 53.609375 0 
L 7.328125 0 
L 7.328125 8.296875 
Q 12.9375 14.109375 22.625 23.890625 
Q 32.328125 33.6875 34.8125 36.53125 
Q 39.546875 41.84375 41.421875 45.53125 
Q 43.3125 49.21875 43.3125 52.78125 
Q 43.3125 58.59375 39.234375 62.25 
Q 35.15625 65.921875 28.609375 65.921875 
Q 23.96875 65.921875 18.8125 64.3125 
Q 13.671875 62.703125 7.8125 59.421875 
L 7.8125 69.390625 
Q 13.765625 71.78125 18.9375 73 
Q 24.125 74.21875 28.421875 74.21875 
Q 39.75 74.21875 46.484375 68.546875 
Q 53.21875 62.890625 53.21875 53.421875 
Q 53.21875 48.921875 51.53125 44.890625 
Q 49.859375 40.875 45.40625 35.40625 
Q 44.1875 33.984375 37.640625 27.21875 
Q 31.109375 20.453125 19.1875 8.296875 
z
" id="DejaVuSans-50"/>
      </defs>
      <g transform="translate(377.008437 278.406437)scale(0.1 -0.1)">
       <use xlink:href="#DejaVuSans-50"/>
       <use x="63.623047" xlink:href="#DejaVuSans-46"/>
       <use x="95.410156" xlink:href="#DejaVuSans-48"/>
      </g>
     </g>
    </g>
   </g>
   <g id="matplotlib.axis_2">
    <g id="ytick_1">
     <g id="line2d_6">
      <defs>
       <path d="M 0 0 
L -3.5 0 
" id="mf38f19ef59" style="stroke:#000000;stroke-width:0.8;"/>
      </defs>
      <g>
       <use style="stroke:#000000;stroke-width:0.8;" x="57.6" xlink:href="#mf38f19ef59" y="248.928"/>
      </g>
     </g>
     <g id="text_6">
      <!-- 0.0 -->
      <g transform="translate(34.696875 252.727219)scale(0.1 -0.1)">
       <use xlink:href="#DejaVuSans-48"/>
       <use x="63.623047" xlink:href="#DejaVuSans-46"/>
       <use x="95.410156" xlink:href="#DejaVuSans-48"/>
      </g>
     </g>
    </g>
    <g id="ytick_2">
     <g id="line2d_7">
      <g>
       <use style="stroke:#000000;stroke-width:0.8;" x="57.6" xlink:href="#mf38f19ef59" y="219.168"/>
      </g>
     </g>
     <g id="text_7">
      <!-- 0.2 -->
      <g transform="translate(34.696875 222.967219)scale(0.1 -0.1)">
       <use xlink:href="#DejaVuSans-48"/>
       <use x="63.623047" xlink:href="#DejaVuSans-46"/>
       <use x="95.410156" xlink:href="#DejaVuSans-50"/>
      </g>
     </g>
    </g>
    <g id="ytick_3">
     <g id="line2d_8">
      <g>
       <use style="stroke:#000000;stroke-width:0.8;" x="57.6" xlink:href="#mf38f19ef59" y="189.408"/>
      </g>
     </g>
     <g id="text_8">
      <!-- 0.4 -->
      <defs>
       <path d="M 37.796875 64.3125 
L 12.890625 25.390625 
L 37.796875 25.390625 
z
M 35.203125 72.90625 
L 47.609375 72.90625 
L 47.609375 25.390625 
L 58.015625 25.390625 
L 58.015625 17.1875 
L 47.609375 17.1875 
L 47.609375 0 
L 37.796875 0 
L 37.796875 17.1875 
L 4.890625 17.1875 
L 4.890625 26.703125 
z
" id="DejaVuSans-52"/>
      </defs>
      <g transform="translate(34.696875 193.207219)scale(0.1 -0.1)">
       <use xlink:href="#DejaVuSans-48"/>
       <use x="63.623047" xlink:href="#DejaVuSans-46"/>
       <use x="95.410156" xlink:href="#DejaVuSans-52"/>
      </g>
     </g>
    </g>
    <g id="ytick_4">
     <g id="line2d_9">
      <g>
       <use style="stroke:#000000;stroke-width:0.8;" x="57.6" xlink:href="#mf38f19ef59" y="159.648"/>
      </g>
     </g>
     <g id="text_9">
      <!-- 0.6 -->
      <defs>
       <path d="M 33.015625 40.375 
Q 26.375 40.375 22.484375 35.828125 
Q 18.609375 31.296875 18.609375 23.390625 
Q 18.609375 15.53125 22.484375 10.953125 
Q 26.375 6.390625 33.015625 6.390625 
Q 39.65625 6.390625 43.53125 10.953125 
Q 47.40625 15.53125 47.40625 23.390625 
Q 47.40625 31.296875 43.53125 35.828125 
Q 39.65625 40.375 33.015625 40.375 
z
M 52.59375 71.296875 
L 52.59375 62.3125 
Q 48.875 64.0625 45.09375 64.984375 
Q 41.3125 65.921875 37.59375 65.921875 
Q 27.828125 65.921875 22.671875 59.328125 
Q 17.53125 52.734375 16.796875 39.40625 
Q 19.671875 43.65625 24.015625 45.921875 
Q 28.375 48.1875 33.59375 48.1875 
Q 44.578125 48.1875 50.953125 41.515625 
Q 57.328125 34.859375 57.328125 23.390625 
Q 57.328125 12.15625 50.6875 5.359375 
Q 44.046875 -1.421875 33.015625 -1.421875 
Q 20.359375 -1.421875 13.671875 8.265625 
Q 6.984375 17.96875 6.984375 36.375 
Q 6.984375 53.65625 15.1875 63.9375 
Q 23.390625 74.21875 37.203125 74.21875 
Q 40.921875 74.21875 44.703125 73.484375 
Q 48.484375 72.75 52.59375 71.296875 
z
" id="DejaVuSans-54"/>
      </defs>
      <g transform="translate(34.696875 163.447219)scale(0.1 -0.1)">
       <use xlink:href="#DejaVuSans-48"/>
       <use x="63.623047" xlink:href="#DejaVuSans-46"/>
       <use x="95.410156" xlink:href="#DejaVuSans-54"/>
      </g>
     </g>
    </g>
    <g id="ytick_5">
     <g id="line2d_10">
      <g>
       <use style="stroke:#000000;stroke-width:0.8;" x="57.6" xlink:href="#mf38f19ef59" y="129.888"/>
      </g>
     </g>
     <g id="text_10">
      <!-- 0.8 -->
      <defs>
       <path d="M 31.78125 34.625 
Q 24.75 34.625 20.71875 30.859375 
Q 16.703125 27.09375 16.703125 20.515625 
Q 16.703125 13.921875 20.71875 10.15625 
Q 24.75 6.390625 31.78125 6.390625 
Q 38.8125 6.390625 42.859375 10.171875 
Q 46.921875 13.96875 46.921875 20.515625 
Q 46.921875 27.09375 42.890625 30.859375 
Q 38.875 34.625 31.78125 34.625 
z
M 21.921875 38.8125 
Q 15.578125 40.375 12.03125 44.71875 
Q 8.5 49.078125 8.5 55.328125 
Q 8.5 64.0625 14.71875 69.140625 
Q 20.953125 74.21875 31.78125 74.21875 
Q 42.671875 74.21875 48.875 69.140625 
Q 55.078125 64.0625 55.078125 55.328125 
Q 55.078125 49.078125 51.53125 44.71875 
Q 48 40.375 41.703125 38.8125 
Q 48.828125 37.15625 52.796875 32.3125 
Q 56.78125 27.484375 56.78125 20.515625 
Q 56.78125 9.90625 50.3125 4.234375 
Q 43.84375 -1.421875 31.78125 -1.421875 
Q 19.734375 -1.421875 13.25 4.234375 
Q 6.78125 9.90625 6.78125 20.515625 
Q 6.78125 27.484375 10.78125 32.3125 
Q 14.796875 37.15625 21.921875 38.8125 
z
M 18.3125 54.390625 
Q 18.3125 48.734375 21.84375 45.5625 
Q 25.390625 42.390625 31.78125 42.390625 
Q 38.140625 42.390625 41.71875 45.5625 
Q 45.3125 48.734375 45.3125 54.390625 
Q 45.3125 60.0625 41.71875 63.234375 
Q 38.140625 66.40625 31.78125 66.40625 
Q 25.390625 66.40625 21.84375 63.234375 
Q 18.3125 60.0625 18.3125 54.390625 
z
" id="DejaVuSans-56"/>
      </defs>
      <g transform="translate(34.696875 133.687219)scale(0.1 -0.1)">
       <use xlink:href="#DejaVuSans-48"/>
       <use x="63.623047" xlink:href="#DejaVuSans-46"/>
       <use x="95.410156" xlink:href="#DejaVuSans-56"/>
      </g>
     </g>
    </g>
    <g id="ytick_6">
     <g id="line2d_11">
      <g>
       <use style="stroke:#000000;stroke-width:0.8;" x="57.6" xlink:href="#mf38f19ef59" y="100.128"/>
      </g>
     </g>
     <g id="text_11">
      <!-- 1.0 -->
      <g transform="translate(34.696875 103.927219)scale(0.1 -0.1)">
       <use xlink:href="#DejaVuSans-49"/>
       <use x="63.623047" xlink:href="#DejaVuSans-46"/>
       <use x="95.410156" xlink:href="#DejaVuSans-48"/>
      </g>
     </g>
    </g>
   </g>
   <g id="line2d_12">
    <path clip-path="url(#pe433b57f30)" d="M 236.16 248.928 
L 236.16 100.128 
" style="fill:none;stroke:#cc0000;stroke-dasharray:7.4,3.2;stroke-dashoffset:0;stroke-width:2;"/>
   </g>
   <g id="line2d_13">
    <path clip-path="url(#pe433b57f30)" d="M 87.36 248.928 
L 384.96 248.928 
" style="fill:none;stroke:#009900;stroke-linecap:square;stroke-width:2;"/>
   </g>
   <g id="line2d_14">
    <path clip-path="url(#pe433b57f30)" d="M 384.96 248.928 
L 384.96 100.128 
" style="fill:none;stroke:#009900;stroke-linecap:square;stroke-width:2;"/>
   </g>
   <g id="line2d_15">
    <path clip-path="url(#pe433b57f30)" d="M 384.96 100.128 
L 87.36 100.128 
" style="fill:none;stroke:#009900;stroke-linecap:square;stroke-width:2;"/>
   </g>
   <g id="line2d_16">
    <path clip-path="url(#pe433b57f30)" d="M 87.36 100.128 
L 87.36 248.928 
" style="fill:none;stroke:#009900;stroke-linecap:square;stroke-width:2;"/>
   </g>
   <g id="line2d_17">
    <path clip-path="url(#pe433b57f30)" d="M 93.445271 237.5333 
L 91.550311 243.175171 
L 89.871756 248.928 
L 88.205504 243.214403 
L 87.36 240.60179 
L 89.131404 234.919915 
L 90.674177 229.171747 
L 91.985851 223.366483 
L 93.064326 217.513409 
L 93.907878 211.62189 
L 94.515158 205.70135 
L 94.885194 199.761261 
L 95.017393 193.811126 
L 94.911545 187.860464 
L 94.567818 181.918795 
L 93.986763 175.995624 
L 93.169309 170.100427 
L 92.116764 164.242635 
L 90.830811 158.431619 
L 89.313509 152.676675 
L 87.567283 146.987011 
L 87.36 146.361513 
L 89.131404 140.679638 
L 90.674177 134.93147 
L 91.985851 129.126206 
L 93.064326 123.273132 
L 93.907878 117.381613 
L 94.515158 111.461073 
L 94.885194 105.520984 
L 95.015116 100.128 
L 95.062606 103.103571 
L 95.336037 109.04889 
L 95.846998 114.978519 
L 96.594673 120.882972 
L 97.577864 126.752803 
L 98.795 132.578622 
L 100.244133 138.351108 
L 101.922944 144.061026 
L 103.828749 149.699243 
L 105.958497 155.256738 
L 108.308783 160.724621 
L 110.875846 166.094143 
L 113.655578 171.356715 
L 116.643535 176.503918 
L 119.834934 181.527518 
L 123.224671 186.419477 
L 126.807322 191.17197 
L 130.577157 195.777393 
L 134.528145 200.22838 
L 138.653963 204.517809 
L 142.948014 208.638817 
L 147.403425 212.584814 
L 152.013071 216.349485 
L 156.769576 219.926808 
L 161.665331 223.31106 
L 166.692504 226.496827 
L 171.843053 229.479013 
L 177.108737 232.252846 
L 182.481133 234.813889 
L 187.951646 237.158045 
L 193.511525 239.281563 
L 199.151874 241.181048 
L 204.863671 242.853459 
L 210.637777 244.296121 
L 216.464956 245.506727 
L 222.335885 246.483339 
L 228.241172 247.224396 
L 234.17137 247.728711 
L 237.647597 247.879025 
L 245.087152 247.940219 
L 252.525911 247.815425 
L 259.959227 247.504719 
L 267.382453 247.008298 
L 274.79095 246.32647 
L 282.180088 245.459662 
L 289.545249 244.408416 
L 296.88183 243.173388 
L 304.185246 241.755351 
L 311.450933 240.155191 
L 318.674349 238.373907 
L 325.850981 236.412613 
L 332.976343 234.272535 
L 340.045982 231.955011 
L 347.05548 229.461488 
L 354.000456 226.793525 
L 360.87657 223.952789 
L 367.679524 220.941057 
L 374.405066 217.760209 
L 381.048994 214.412234 
L 384.96 212.342654 
L 378.366584 208.896267 
L 371.689077 205.615776 
L 364.931654 202.50323 
L 358.098536 199.560575 
L 351.193995 196.789649 
L 344.222346 194.192184 
L 337.187945 191.769805 
L 330.095189 189.524024 
L 327.710402 188.812472 
L 331.146733 195.411134 
L 334.74694 201.921835 
L 338.508773 208.340505 
L 342.42988 214.663134 
L 346.507811 220.88577 
L 350.740017 227.004523 
L 355.123854 233.015571 
L 359.656582 238.915155 
L 364.335367 244.69959 
L 367.910827 248.928 
L 372.696429 243.231621 
L 377.33814 237.417395 
L 381.833061 231.488955 
L 384.96 227.175636 
L 380.571924 221.167683 
L 376.035035 215.271297 
L 371.352171 209.490165 
L 366.526256 203.827898 
L 361.560307 198.288036 
L 356.457428 192.874041 
L 351.220808 187.589296 
L 345.853719 182.437105 
L 340.359516 177.420687 
L 334.741632 172.543177 
L 332.550371 170.706221 
L 336.255345 164.254564 
L 339.797886 157.712307 
L 343.175782 151.083541 
L 346.38692 144.372408 
L 349.429293 137.583102 
L 352.301001 130.719866 
L 355.000249 123.786989 
L 357.525349 116.788804 
L 359.874724 109.729686 
L 362.046905 102.614045 
L 362.760265 100.128 
L 364.870524 107.26225 
L 367.158462 114.34152 
L 369.622648 121.361385 
L 372.261542 128.317458 
L 375.073495 135.205392 
L 378.05675 142.020882 
L 381.209443 148.759669 
L 384.96 156.251026 
L 381.618871 162.898399 
L 378.444954 169.627215 
L 375.440231 176.433268 
L 372.60658 183.312305 
L 369.945773 190.260025 
L 367.459472 197.272088 
L 365.149232 204.344111 
L 363.016496 211.471674 
L 361.062596 218.650323 
L 359.288755 225.87557 
L 357.69608 233.142902 
L 356.285568 240.447775 
L 354.883923 248.928 
L 353.684956 241.585439 
L 352.302819 234.275144 
L 350.738375 227.001684 
L 348.992602 219.769603 
L 347.066592 212.583421 
L 344.961548 205.447631 
L 342.678786 198.366691 
L 340.219732 191.345026 
L 337.585923 184.387026 
L 334.779005 177.497038 
L 332.825837 172.974008 
L 334.767621 165.792073 
L 336.529269 158.563842 
L 338.10968 151.293834 
L 339.507865 143.986592 
L 340.722951 136.646681 
L 341.754179 129.278691 
L 342.600904 121.887224 
L 343.262597 114.476902 
L 343.738845 107.052354 
L 344.015371 100.128 
L 344.06115 101.615294 
L 344.401558 109.047309 
L 344.92764 116.468491 
L 345.639068 123.874205 
L 346.535397 131.25982 
L 347.616067 138.620721 
L 348.880403 145.952308 
L 350.327614 153.25 
L 351.956796 160.509234 
L 353.766931 167.725474 
L 355.756888 174.894211 
L 357.925423 182.010964 
L 360.27118 189.071286 
L 362.792694 196.070763 
L 365.488389 203.005022 
L 368.35658 209.869729 
L 371.395474 216.660593 
L 374.603173 223.373371 
L 377.977671 230.003867 
L 381.51686 236.547938 
L 384.96 242.562689 
L 381.321876 248.928 
L 377.628911 242.469461 
L 373.775653 236.105255 
L 369.76451 229.839359 
L 365.597989 223.67569 
L 361.278695 217.618098 
L 356.809327 211.670371 
L 352.192677 205.836224 
L 347.431632 200.119305 
L 342.529166 194.523186 
L 337.488344 189.051365 
L 331.323716 182.716437 
L 338.755858 182.378818 
L 346.177237 181.855521 
L 353.583217 181.146872 
L 360.969168 180.253314 
L 368.330474 179.175406 
L 375.662535 177.913822 
L 382.960769 176.469349 
L 384.96 176.040445 
L 377.671863 174.545862 
L 370.348643 173.233931 
L 362.994916 172.105472 
L 355.615279 171.161189 
L 348.214343 170.401672 
L 340.796734 169.827398 
L 332.282358 169.397546 
L 338.766365 165.749481 
L 345.157153 161.940473 
L 351.450729 157.972902 
L 357.643159 153.849248 
L 363.730574 149.572088 
L 369.709169 145.144095 
L 375.575207 140.568036 
L 381.325022 135.846772 
L 384.96 132.734872 
L 379.286838 127.92177 
L 373.495134 123.251987 
L 367.588507 118.72844 
L 361.570649 114.353957 
L 355.445321 110.131272 
L 349.21635 106.063023 
L 342.887631 102.151754 
L 339.468123 100.128 
L 333.087747 103.954423 
L 326.805014 107.939143 
L 320.623853 112.079669 
L 314.548126 116.373415 
L 308.581629 120.817697 
L 302.728093 125.409736 
L 296.991174 130.146664 
L 291.37446 135.02552 
L 285.881459 140.043254 
L 280.515604 145.196731 
L 275.28025 150.48273 
L 270.178668 155.897947 
L 265.214047 161.438999 
L 260.389489 167.102422 
L 255.708009 172.884676 
L 251.172534 178.782148 
L 246.785897 184.791153 
L 242.550841 190.907934 
L 238.470011 197.128669 
L 236.16 200.806756 
L 240.149609 207.086385 
L 244.294945 213.264322 
L 248.593419 219.336705 
L 253.042343 225.299741 
L 257.638937 231.149701 
L 262.380329 236.882931 
L 267.263555 242.495847 
L 273.174149 248.928 
L 278.220009 243.460824 
L 283.127627 237.869223 
L 287.893936 232.156691 
L 292.515957 226.326799 
L 296.990802 220.383191 
L 301.315674 214.32958 
L 305.487869 208.169751 
L 309.504782 201.907552 
L 312.650638 196.749873 
L 317.654293 202.255702 
L 322.794016 207.634732 
L 328.066594 212.883602 
L 333.468733 217.999031 
L 338.997057 222.977822 
L 344.648109 227.816863 
L 350.418359 232.513131 
L 356.304201 237.06369 
L 362.301955 241.465696 
L 368.407874 245.716398 
L 373.247438 248.928 
L 379.435151 244.79727 
L 384.96 240.915484 
L 378.867595 236.645434 
L 372.670354 232.529013 
L 366.37215 228.568794 
L 359.976918 224.76725 
L 353.488657 221.126759 
L 346.91142 217.649595 
L 340.249318 214.337931 
L 333.506515 211.193837 
L 326.687225 208.219279 
L 319.79571 205.416114 
L 312.836276 202.786095 
L 305.813273 200.330866 
L 298.731091 198.051961 
L 291.594155 195.950803 
L 284.406925 194.028708 
L 277.173895 192.286875 
L 269.899583 190.726393 
L 262.588536 189.348238 
L 255.245323 188.15327 
L 247.874534 187.142237 
L 240.480776 186.315771 
L 234.691844 185.677029 
L 228.797211 184.855519 
L 222.874441 184.270388 
L 216.93301 183.922573 
L 210.982422 183.812629 
L 205.032198 183.940734 
L 199.091856 184.306682 
L 197.616646 184.43461 
L 193.184903 183.904544 
L 188.792919 183.109688 
L 184.456501 182.052901 
L 180.191256 180.737986 
L 176.012533 179.169677 
L 171.935372 177.353616 
L 167.974446 175.296341 
L 164.14401 173.005254 
L 160.457849 170.488602 
L 156.92923 167.755442 
L 153.570851 164.81561 
L 150.3948 161.679686 
L 147.412507 158.358956 
L 144.634705 154.865372 
L 142.07139 151.211506 
L 139.731789 147.410508 
L 138.618229 145.402436 
L 141.887441 148.441116 
L 144.968558 151.670363 
L 147.850492 155.078556 
L 150.522871 158.653427 
L 152.976078 162.382112 
L 155.201284 166.251192 
L 157.19048 170.246742 
L 158.936507 174.354382 
L 160.433082 178.55933 
L 161.674818 182.846451 
L 162.657247 187.200317 
L 163.376833 191.605259 
L 163.830985 196.045424 
L 164.018071 200.504832 
L 163.937416 204.967434 
L 163.589311 209.417169 
L 163.306447 211.695842 
L 162.454298 207.314614 
L 161.866399 202.890171 
L 161.544865 198.438437 
L 161.490853 193.975434 
L 161.704559 189.517222 
L 162.185211 185.079848 
L 162.931082 180.67928 
L 163.939486 176.331357 
L 165.206795 172.051725 
L 166.728446 167.855787 
L 168.498965 163.758644 
L 170.511979 159.775041 
L 172.760244 155.919315 
L 175.235668 152.205342 
L 177.929342 148.646488 
L 180.831572 145.255562 
L 182.402312 143.580707 
L 187.170675 140.019204 
L 191.792801 136.269867 
L 196.261296 132.338693 
L 200.569012 128.231972 
L 204.709058 123.956272 
L 208.674809 119.518435 
L 212.459922 114.925561 
L 216.058342 110.184995 
L 219.464311 105.304324 
L 222.772228 100.128 
L 225.973845 105.145094 
L 229.373532 110.030143 
L 232.965849 114.775335 
L 236.16 118.685432 
L 232.408766 123.306019 
L 228.845306 128.072919 
L 225.475322 132.978507 
L 222.304205 138.014934 
L 219.337028 143.174143 
L 216.578538 148.447881 
L 214.033147 153.82771 
L 211.704928 159.305025 
L 209.597606 164.871063 
L 207.714551 170.516919 
L 206.058777 176.23356 
L 204.632932 182.011843 
L 203.439297 187.842521 
L 202.479782 193.716269 
L 201.755921 199.623689 
L 201.268874 205.55533 
L 201.019418 211.501703 
L 201.007953 217.453295 
L 201.234498 223.400585 
L 201.69869 229.334058 
L 202.399786 235.244223 
L 203.336665 241.121624 
L 204.507827 246.956858 
L 204.9587 248.928 
L 206.209048 243.109219 
L 207.225707 237.245092 
L 208.00705 231.345 
L 208.551827 225.418382 
L 208.859167 219.47472 
L 208.928578 213.523522 
L 208.759949 207.574308 
L 208.35355 201.636596 
L 207.71003 195.719886 
L 206.830421 189.833642 
L 205.716127 183.987281 
L 204.368933 178.190157 
L 202.790994 172.451543 
L 200.984833 166.78062 
L 198.953341 161.186461 
L 196.699767 155.678014 
L 194.227716 150.264093 
L 191.541144 144.953357 
L 188.644348 139.754304 
L 185.541962 134.675251 
L 182.23895 129.724322 
L 178.740596 124.909439 
L 175.052496 120.238305 
L 171.180551 115.718391 
L 167.130954 111.356929 
L 162.910185 107.160897 
L 158.524995 103.137007 
L 155.002131 100.128 
L 150.493795 104.01342 
L 146.144441 108.076018 
L 141.961026 112.309293 
L 137.950244 116.706475 
L 134.11851 121.260527 
L 130.471954 125.964166 
L 127.016411 130.809865 
L 123.757408 135.789873 
L 120.700159 140.896223 
L 117.849556 146.120746 
L 115.210157 151.455083 
L 112.786187 156.890702 
L 110.581522 162.418905 
L 108.599689 168.03085 
L 106.84386 173.717558 
L 105.316844 179.469931 
L 104.021082 185.278768 
L 102.958648 191.134774 
L 102.131241 197.028583 
L 101.540187 202.950764 
L 101.186428 208.891845 
L 101.070533 214.84232 
L 101.192686 220.792669 
L 101.552692 226.733374 
L 102.149975 232.654931 
L 102.983579 238.547866 
L 104.05217 244.402752 
L 105.045562 248.928 
L 106.29591 243.109219 
L 107.312569 237.245092 
L 108.093912 231.345 
L 108.638689 225.418382 
L 108.946029 219.47472 
L 109.01544 213.523522 
L 108.846811 207.574308 
L 108.440412 201.636596 
L 107.796892 195.719886 
L 106.917283 189.833642 
L 105.802989 183.987281 
L 104.455795 178.190157 
L 102.877856 172.451543 
L 101.071695 166.78062 
L 99.040203 161.186461 
L 96.786629 155.678014 
L 94.314578 150.264093 
L 91.628006 144.953357 
L 88.73121 139.754304 
L 87.36 137.452915 
L 90.349924 132.306855 
L 93.131669 127.045346 
L 95.700784 121.676805 
L 98.05316 116.209822 
L 100.185034 110.653141 
L 102.092994 105.015654 
L 103.547301 100.128 
L 105.26097 105.827554 
L 107.201191 111.454021 
L 109.364857 116.998399 
L 111.748509 122.451818 
L 114.348333 127.805555 
L 117.16017 133.051044 
L 120.179521 138.179893 
L 123.401557 143.183899 
L 126.821122 148.055054 
L 130.432746 152.785567 
L 131.041926 153.546104 
L 134.22838 156.671457 
L 137.221691 159.982259 
L 140.011087 163.466594 
L 142.586528 167.111922 
L 144.938747 170.905125 
L 147.059277 174.83255 
L 148.940487 178.880064 
L 150.575607 183.033099 
L 151.958752 187.276709 
L 153.084945 191.595622 
L 153.950131 195.974295 
L 154.551198 200.396968 
L 154.885982 204.847725 
L 154.953278 209.310548 
L 154.905386 211.091018 
L 156.48515 206.916612 
L 158.312385 202.844447 
L 160.380516 198.889177 
L 162.682099 195.065039 
L 165.208851 191.385794 
L 167.951678 187.864684 
L 170.900709 184.514381 
L 174.045332 181.346942 
L 177.374228 178.373767 
L 180.875418 175.605556 
L 184.5363 173.052272 
L 188.3437 170.723104 
L 192.283914 168.626434 
L 196.342764 166.769807 
L 197.992127 166.097523 
L 203.092172 163.029766 
L 208.065459 159.760516 
L 212.904032 156.295003 
L 217.600152 152.63877 
L 222.146305 148.797667 
L 226.535219 144.777839 
L 230.759872 140.585716 
L 234.813505 136.228006 
L 236.16 134.700257 
L 232.166383 130.287479 
L 227.999497 126.037933 
L 223.666008 121.958417 
L 219.172847 118.055458 
L 214.527204 114.335299 
L 209.736511 110.803892 
L 204.80843 107.466887 
L 199.750847 104.329621 
L 194.571853 101.397115 
L 192.169941 100.128 
L 186.938274 102.965471 
L 181.824261 106.009883 
L 176.836082 109.256366 
L 171.981718 112.699726 
L 167.268934 116.334455 
L 162.705271 120.154737 
L 158.298028 124.154462 
L 154.054257 128.327229 
L 149.980747 132.666365 
L 146.084015 137.164926 
L 142.370294 141.815717 
L 140.960047 143.686438 
L 135.230438 145.29677 
L 129.569809 147.134937 
L 123.987215 149.197998 
L 118.491586 151.482653 
L 113.091716 153.985248 
L 107.796241 156.701777 
L 102.613635 159.627897 
L 97.552188 162.758924 
L 92.619997 166.089851 
L 87.36 169.9732 
L 92.141106 173.517577 
L 97.060124 176.867926 
L 102.109186 180.018886 
L 107.280215 182.965418 
L 112.564936 185.702807 
L 117.954897 188.226673 
L 123.441474 190.53298 
L 129.312861 192.722043 
L 128.171927 198.563263 
L 127.265492 204.445435 
L 126.595007 210.359151 
L 126.161543 216.294948 
L 125.965795 222.243331 
L 126.008075 228.194784 
L 126.288316 234.139786 
L 126.806069 240.068826 
L 127.560507 245.972418 
L 128.028867 248.928 
L 128.901871 243.040773 
L 129.53875 237.123344 
L 129.938486 231.18518 
L 130.100439 225.23578 
L 130.02435 219.284664 
L 129.71034 213.34135 
L 129.158913 207.415347 
L 128.37095 201.516136 
L 127.347711 195.653153 
L 126.090834 189.835779 
L 124.60233 184.07332 
L 122.884579 178.374995 
L 120.94033 172.749919 
L 118.772694 167.207092 
L 116.385137 161.755381 
L 113.781479 156.403507 
L 110.965887 151.160033 
L 107.942864 146.033347 
L 104.717246 141.031651 
L 101.294193 136.162945 
L 97.679182 131.43502 
L 93.877997 126.855438 
L 89.896717 122.431526 
L 87.36 119.789639 
L 91.448956 115.465055 
L 95.361704 110.980417 
L 99.091984 106.342897 
L 102.63383 101.559915 
L 103.637872 100.128 
L 107.123259 104.952278 
L 110.798778 109.633319 
L 114.658549 114.163633 
L 118.696396 118.535975 
L 122.905861 122.743348 
L 127.280208 126.779022 
L 131.812441 130.636541 
L 136.495307 134.309733 
L 141.321317 137.792722 
L 145.937813 140.860532 
L 146.557154 134.941242 
L 146.939291 129.001919 
L 147.083613 123.052066 
L 146.989889 117.101201 
L 146.658269 111.158844 
L 146.089283 105.234501 
L 145.405767 100.128 
L 144.632029 106.029094 
L 144.09489 111.956409 
L 143.795211 117.900463 
L 143.73347 123.851745 
L 143.909766 129.800737 
L 144.323818 135.73792 
L 144.935673 141.349965 
L 140.539609 137.337958 
L 135.986624 133.504955 
L 131.284001 129.85709 
L 126.439265 126.400197 
L 121.460165 123.139807 
L 116.354666 120.081136 
L 111.130938 117.229077 
L 105.797335 114.588193 
L 100.362392 112.162709 
L 94.834803 109.956504 
L 89.223411 107.973109 
L 87.36 107.369685 
L 92.997013 105.460324 
L 98.553164 103.327069 
L 104.019562 100.973334 
L 105.846575 100.128 
L 111.28063 102.555472 
L 116.807412 104.763698 
L 122.418079 106.749146 
L 128.103654 108.508638 
L 133.855042 110.039361 
L 139.663043 111.338865 
L 145.518364 112.405071 
L 151.411638 113.236275 
L 157.333438 113.831145 
L 163.274289 114.18873 
L 169.224688 114.308459 
L 175.175115 114.19014 
L 181.116051 113.833962 
L 187.037991 113.240494 
L 192.931462 112.410687 
L 198.787035 111.345868 
L 204.595344 110.04774 
L 210.347095 108.518379 
L 216.033086 106.760234 
L 221.644223 104.776116 
L 227.171528 102.569199 
L 232.63805 100.128 
L 236.16 101.73096 
L 230.760446 104.234237 
L 225.465315 106.951435 
L 220.283078 109.878209 
L 215.222027 113.009876 
L 210.290257 116.341426 
L 205.495658 119.86753 
L 200.845901 123.582546 
L 196.348425 127.48053 
L 192.010423 131.555248 
L 187.838837 135.80018 
L 183.84034 140.208536 
L 181.480406 142.985242 
L 178.759875 146.523607 
L 175.832065 149.892471 
L 172.707512 153.07971 
L 169.397463 156.073853 
L 165.913829 158.864125 
L 162.269148 161.440482 
L 158.476537 163.793654 
L 154.549645 165.915172 
L 150.502604 167.797399 
L 146.34998 169.433563 
L 142.106718 170.817775 
L 137.788088 171.945052 
L 133.409633 172.811339 
L 128.987111 173.413518 
L 124.568179 173.747974 
L 129.000631 174.272081 
L 133.393679 175.061032 
L 137.731514 176.111988 
L 141.998523 177.421167 
L 146.179351 178.983857 
L 150.25895 180.794434 
L 154.222638 182.846382 
L 158.056151 185.132317 
L 161.745692 187.644011 
L 165.277983 190.372425 
L 168.64031 193.307739 
L 171.820574 196.439391 
L 174.807329 199.756108 
L 177.589826 203.245955 
L 180.14055 206.869852 
L 178.32028 202.794568 
L 176.747656 198.617467 
L 175.428337 194.353582 
L 174.367073 190.018258 
L 173.567681 185.627097 
L 173.033039 181.195904 
L 172.765072 176.740625 
L 172.764743 172.277294 
L 173.032053 167.821976 
L 173.566042 163.390703 
L 174.364786 158.999425 
L 175.425412 154.663944 
L 176.744102 150.399865 
L 178.316111 146.222532 
L 181.726885 138.010256 
L 183.671065 132.385157 
L 185.388745 126.68681 
L 186.877178 120.924333 
L 188.133983 115.106943 
L 189.15715 109.243948 
L 189.94504 103.344727 
L 190.273987 100.128 
L 190.933506 106.042948 
L 191.829033 111.926792 
L 192.959133 117.770117 
L 194.322001 123.563577 
L 195.915455 129.297902 
L 197.736947 134.963919 
L 199.783561 140.552564 
L 202.052025 146.054895 
L 204.538708 151.462111 
L 207.239634 156.765561 
L 210.150481 161.956761 
L 213.266592 167.027405 
L 216.582982 171.969382 
L 220.094345 176.774786 
L 223.795065 181.435929 
L 227.67922 185.945355 
L 231.740598 190.295848 
L 236.16 194.658073 
L 231.920645 198.835326 
L 227.851726 203.178768 
L 223.959754 207.681448 
L 220.250954 212.336164 
L 216.731259 217.13547 
L 213.406301 222.071686 
L 210.281399 227.136917 
L 207.361551 232.323059 
L 204.65143 237.621816 
L 202.15537 243.02471 
L 199.719704 248.928 
L 197.457764 243.422983 
L 194.977492 238.012823 
L 192.282855 232.706176 
L 189.378164 227.511529 
L 186.268066 222.437195 
L 182.957536 217.49129 
L 179.451871 212.681727 
L 176.354563 208.745521 
L 174.162671 204.857471 
L 172.207867 200.844984 
L 170.497185 196.722498 
L 169.036781 192.504852 
L 167.831913 188.207223 
L 166.886916 183.845079 
L 166.205191 179.434119 
L 165.789192 174.990217 
L 165.640415 170.529367 
L 165.759397 166.067623 
L 166.145708 161.621042 
L 166.79796 157.205627 
L 167.713803 152.83727 
L 168.889943 148.53169 
L 170.322146 144.304385 
L 172.005258 140.170566 
L 172.566855 138.932328 
L 175.703594 133.874418 
L 178.635562 128.695118 
L 181.358067 123.402714 
L 183.866755 118.005672 
L 186.157613 112.512626 
L 188.226974 106.932364 
L 190.07153 101.273813 
L 190.414823 100.128 
L 192.213833 105.801195 
L 194.238271 111.397911 
L 196.484898 116.909195 
L 198.950121 122.326229 
L 201.629996 127.640347 
L 204.520235 132.843048 
L 207.616215 137.926009 
L 210.912983 142.881097 
L 214.405264 147.700387 
L 218.087472 152.376168 
L 221.953716 156.900959 
L 225.997811 161.267523 
L 230.213287 165.468873 
L 234.5934 169.498288 
L 236.16 170.863287 
L 231.724048 174.831147 
L 227.450317 178.973224 
L 223.345643 183.282891 
L 219.416593 187.753255 
L 215.669453 192.377162 
L 212.110217 197.147217 
L 208.74458 202.055787 
L 205.577925 207.095021 
L 202.615318 212.256857 
L 199.8615 217.533036 
L 197.320875 222.915118 
L 194.997509 228.394493 
L 192.895117 233.962394 
L 191.017064 239.609916 
L 189.366354 245.328022 
L 188.452649 248.928 
L 186.945168 243.170476 
L 185.208654 237.47784 
L 183.245884 231.8592 
L 181.059999 226.323545 
L 178.654495 220.879729 
L 176.03322 215.536462 
L 172.435289 208.614533 
L 170.850395 204.442072 
L 169.518549 200.182083 
L 168.444547 195.849897 
L 167.632252 191.461105 
L 167.084589 187.031502 
L 166.803528 182.577029 
L 166.790081 178.113719 
L 167.044295 173.657634 
L 167.565257 169.224812 
L 168.351092 164.831204 
L 169.398971 160.492625 
L 170.705122 156.224688 
L 172.264846 152.042753 
L 174.072529 147.961871 
L 176.121665 143.996728 
L 177.878109 141.001197 
L 176.253292 145.158273 
L 174.382124 149.210439 
L 172.271338 153.14311 
L 169.928532 156.942134 
L 167.362137 160.593837 
L 164.58139 164.085078 
L 161.596297 167.403291 
L 158.417603 170.536536 
L 155.056747 173.473535 
L 151.525824 176.203719 
L 147.837543 178.717261 
L 144.005176 181.005117 
L 140.042516 183.059051 
L 135.963825 184.871673 
L 131.783781 186.436458 
L 127.517428 187.747775 
L 127.037931 187.87783 
L 131.071207 185.966284 
L 135.211849 184.300029 
L 139.444955 182.885062 
L 143.75529 181.726475 
L 148.127344 180.828438 
L 152.545379 180.194183 
L 156.993497 179.825993 
L 161.455689 179.725191 
L 165.915896 179.892142 
L 170.358066 180.326245 
L 174.766212 181.025937 
L 179.124469 181.988699 
L 183.417153 183.211068 
L 187.628814 184.688644 
L 191.744295 186.416109 
L 195.748784 188.387246 
L 196.18697 188.621393 
L 191.940529 187.246963 
L 187.784146 185.620372 
L 183.732779 183.747475 
L 179.801009 181.635012 
L 176.002985 179.290585 
L 172.352377 176.722633 
L 168.862323 173.940396 
L 165.545383 170.953888 
L 162.413495 167.773857 
L 159.47793 164.411749 
L 156.749253 160.879661 
L 154.237284 157.190308 
L 151.951064 153.356965 
L 149.89882 149.393429 
L 148.087939 145.313965 
L 146.524937 141.133254 
L 146.366565 140.662351 
L 144.977534 134.875109 
L 143.358186 129.148042 
L 141.511111 123.490313 
L 139.439265 117.910973 
L 137.145962 112.418948 
L 134.634871 107.023023 
L 131.91001 101.731832 
L 131.030274 100.128 
L 128.240573 105.385295 
L 125.663339 110.749942 
L 123.302694 116.213361 
L 121.162417 121.766809 
L 119.24593 127.401404 
L 117.5563 133.108131 
L 116.09623 138.87786 
L 114.868055 144.701362 
L 113.873741 150.569319 
L 113.114878 156.472344 
L 112.592679 162.400994 
L 112.307981 168.345784 
L 112.261239 174.297203 
L 112.452528 180.245732 
L 112.881542 186.181852 
L 113.547593 192.096069 
L 114.449618 197.978919 
L 115.586172 203.820993 
L 116.955438 209.612944 
L 118.555225 215.345505 
L 120.382974 221.009507 
L 122.43576 226.595888 
L 124.7103 232.095711 
L 127.202954 237.500177 
L 129.909736 242.80064 
L 132.826315 247.988621 
L 133.384079 248.928 
L 136.338669 243.761572 
L 139.084293 238.481124 
L 141.61656 233.095105 
L 143.931418 227.61213 
L 146.025164 222.040971 
L 147.894448 216.390541 
L 149.53628 210.66988 
L 150.218901 208.324352 
L 151.709462 204.117269 
L 153.449615 200.007137 
L 155.433097 196.008747 
L 157.652769 192.13649 
L 160.100643 188.404302 
L 162.767909 184.825613 
L 165.644968 181.413304 
L 168.721465 178.179656 
L 171.986329 175.136305 
L 175.427809 172.294206 
L 179.03352 169.663585 
L 182.790486 167.253911 
L 186.685184 165.073856 
L 190.7036 163.131265 
L 194.831269 161.43313 
L 196.363914 160.874826 
L 194.99528 161.458702 
L 190.823172 163.044527 
L 186.56348 164.377321 
L 182.231534 165.45229 
L 177.842923 166.265562 
L 173.413442 166.814213 
L 168.959032 167.096267 
L 164.495725 167.11071 
L 160.039584 166.857488 
L 155.606645 166.337514 
L 151.212863 165.552659 
L 146.87405 164.505748 
L 142.605822 163.200547 
L 138.42354 161.641756 
L 134.342254 159.834983 
L 130.376655 157.786731 
L 128.959259 156.979457 
L 130.290025 157.645137 
L 134.198751 159.799942 
L 137.971232 162.185253 
L 141.593891 164.792484 
L 145.053692 167.612253 
L 148.338183 170.634411 
L 151.435542 173.848082 
L 154.334623 177.241701 
L 157.024993 180.803053 
L 159.496968 184.519322 
L 161.741653 188.377134 
L 163.750969 192.362604 
L 165.517684 196.461388 
L 167.035441 200.658737 
L 168.298776 204.939543 
L 169.303144 209.2884 
L 169.604808 210.891429 
L 169.251244 209.44607 
L 168.364917 205.071628 
L 167.742494 200.65191 
L 167.386215 196.202822 
L 167.297363 191.740376 
L 167.476256 187.280632 
L 167.922252 182.839641 
L 168.633745 178.433384 
L 169.608174 174.07772 
L 170.842033 169.788325 
L 172.330881 165.580636 
L 174.069359 161.469795 
L 176.051212 157.470598 
L 178.269306 153.597437 
L 180.71566 149.864252 
L 183.381468 146.284477 
L 184.40847 145.017208 
L 183.535263 146.222024 
L 180.773568 149.728355 
L 177.806589 153.062775 
L 174.645003 156.213282 
L 171.30019 159.168539 
L 167.784187 161.917909 
L 164.109647 164.451499 
L 160.289795 166.760189 
L 156.338379 168.835671 
L 152.269618 170.670476 
L 148.098157 172.258 
L 143.839009 173.59253 
L 139.5075 174.669262 
L 135.119221 175.484323 
L 130.689964 176.034778 
L 126.23567 176.318646 
L 124.604923 176.355639 
L 126.088537 176.241799 
L 130.548882 176.078561 
L 135.010988 176.183077 
L 139.458798 176.55497 
L 143.876304 177.192903 
L 148.247608 178.094579 
L 152.556978 179.256753 
L 156.788905 180.675244 
L 160.928158 182.344945 
L 164.959841 184.259847 
L 168.869444 186.41306 
L 172.642896 188.796834 
L 176.266617 191.402589 
L 179.727567 194.220948 
L 183.013288 197.241768 
L 186.111956 200.454178 
L 188.134499 202.827763 
L 192.005017 207.348899 
L 196.053237 211.711639 
L 200.272681 215.909003 
L 204.656601 219.934278 
L 209.197981 223.781022 
L 213.889558 227.443083 
L 218.723825 230.914601 
L 223.69305 234.190024 
L 228.789281 237.26411 
L 234.004366 240.131943 
L 236.16 241.23952 
L 230.898899 244.022036 
L 225.753277 247.012715 
L 222.689031 248.928 
L 217.617549 245.813252 
L 212.425567 242.903801 
L 207.121392 240.204302 
L 201.713507 237.719072 
L 196.210566 235.452087 
L 190.621371 233.406975 
L 184.954865 231.587007 
L 179.220111 229.995094 
L 173.426286 228.633784 
L 167.582657 227.505254 
L 161.698573 226.61131 
L 155.783447 225.953381 
L 149.846743 225.53252 
L 143.897958 225.349401 
L 137.946608 225.404317 
L 132.002214 225.697179 
L 126.074287 226.227519 
L 120.17231 226.994488 
L 114.305724 227.99686 
L 108.483915 229.233032 
L 102.716196 230.701025 
L 97.011795 232.39849 
L 91.379838 234.322714 
L 87.36 235.852706 
L 92.93399 237.938904 
L 98.586946 239.800533 
L 104.309826 241.434615 
L 110.093475 242.838535 
L 115.928639 244.010048 
L 121.805983 244.94728 
L 127.716105 245.648731 
L 133.649551 246.113279 
L 139.596827 246.340181 
L 145.54842 246.329074 
L 151.494808 246.079976 
L 157.426479 245.593284 
L 163.333942 244.869779 
L 169.207747 243.910617 
L 175.038497 242.717332 
L 180.816865 241.291834 
L 186.533607 239.636403 
L 192.179575 237.753688 
L 197.745739 235.6467 
L 203.223194 233.31881 
L 208.603177 230.773742 
L 213.87708 228.015569 
L 219.036468 225.048702 
L 224.073085 221.877887 
L 228.978875 218.508198 
L 233.74599 214.945025 
L 236.16 213.023723 
L 231.467786 209.362479 
L 226.632915 205.891801 
L 221.663121 202.617243 
L 216.566356 199.544043 
L 211.350771 196.677118 
L 206.024713 194.021053 
L 200.5967 191.580099 
L 191.690376 187.789452 
L 187.736881 185.717931 
L 183.914718 183.41307 
L 180.23764 180.883165 
L 176.718883 178.137319 
L 173.37111 175.185416 
L 170.206369 172.038079 
L 167.236049 168.706635 
L 164.470841 165.203073 
L 161.920697 161.540003 
L 159.594794 157.730608 
L 157.501503 153.788597 
L 155.648357 149.728157 
L 154.042027 145.563902 
L 152.688292 141.310818 
L 151.978273 138.637085 
L 153.457264 144.400764 
L 154.26154 148.791033 
L 154.801109 153.221629 
L 155.074032 157.676607 
L 155.079325 162.139934 
L 154.81697 166.595547 
L 154.28791 171.027411 
L 153.49405 175.419575 
L 152.438247 179.756232 
L 151.1243 184.021776 
L 149.556938 188.200855 
L 147.741803 192.278428 
L 145.685426 196.239821 
L 143.395209 200.070776 
L 140.879394 203.757508 
L 140.118514 204.785001 
L 144.594223 198.845681 
L 147.556632 195.507201 
L 150.7139 192.352366 
L 154.054662 189.392531 
L 157.566897 186.638348 
L 161.237963 184.099728 
L 165.05465 181.785808 
L 169.00322 179.704916 
L 173.069463 177.864541 
L 177.238746 176.271305 
L 181.496063 174.930943 
L 185.826093 173.848279 
L 190.213252 173.027209 
L 194.641751 172.470688 
L 198.886352 172.188346 
L 194.430538 172.447266 
L 189.967216 172.438532 
L 185.51245 172.162176 
L 181.082271 171.61919 
L 176.692623 170.811531 
L 172.359305 169.742104 
L 168.097912 168.414758 
L 163.92378 166.834271 
L 159.851931 165.00633 
L 155.897021 162.937514 
L 152.073281 160.635269 
L 148.394474 158.107879 
L 144.873839 155.364442 
L 141.524047 152.414829 
L 138.357154 149.269658 
L 135.530947 146.090622 
L 131.577342 141.64196 
L 127.449 137.35496 
L 123.152526 133.236478 
L 118.694794 129.293103 
L 114.082934 125.531144 
L 109.324326 121.95662 
L 104.42658 118.575249 
L 99.397534 115.39244 
L 94.245232 112.413285 
L 88.977917 109.64255 
L 87.36 108.844604 
L 92.660519 106.13793 
L 97.848559 103.221458 
L 102.872095 100.128 
L 107.940448 103.247835 
L 113.129508 106.162495 
L 118.430972 108.867316 
L 123.83636 111.357971 
L 129.337024 113.630476 
L 134.924164 115.681196 
L 140.588841 117.506849 
L 146.321994 119.104515 
L 152.114451 120.471639 
L 157.956944 121.606032 
L 163.840128 122.50588 
L 169.754591 123.169745 
L 175.69087 123.596562 
L 181.639468 123.785651 
L 187.59087 123.736707 
L 193.535555 123.44981 
L 199.464011 122.925419 
L 205.366755 122.164372 
L 211.234344 121.167887 
L 217.05739 119.937559 
L 222.826579 118.475354 
L 228.532681 116.783613 
L 234.166566 114.865043 
L 236.16 114.125231 
L 230.554104 112.126352 
L 224.872759 110.353248 
L 219.125053 108.808756 
L 213.320182 107.495346 
L 207.467431 106.41512 
L 201.576164 105.569805 
L 195.655806 104.960755 
L 189.715828 104.588942 
L 183.765733 104.454963 
L 177.81504 104.559032 
L 171.873268 104.900981 
L 165.949924 105.480264 
L 160.054482 106.295955 
L 154.196375 107.346748 
L 148.384975 108.630962 
L 142.629578 110.146543 
L 136.939392 111.891066 
L 131.323519 113.861741 
L 125.790945 116.055414 
L 120.35052 118.468576 
L 115.010947 121.097367 
L 109.780769 123.937582 
L 104.668352 126.984675 
L 99.681877 130.233774 
L 94.829319 133.67968 
L 90.118442 137.316879 
L 87.36 139.591204 
L 91.982134 143.340532 
L 96.750505 146.902024 
L 101.657482 150.269983 
L 106.695218 153.439021 
L 111.855651 156.404069 
L 117.130527 159.160383 
L 122.511406 161.703554 
L 126.284444 163.33314 
L 120.448489 162.165571 
L 114.570513 161.232311 
L 108.659918 160.534855 
L 102.726159 160.074317 
L 96.778731 159.851435 
L 90.827147 159.866564 
L 87.36 159.985185 
L 93.309614 160.139059 
L 99.260622 160.054888 
L 105.203504 159.732807 
L 111.128752 159.173333 
L 117.026888 158.377359 
L 122.888475 157.346159 
L 128.704137 156.081384 
L 129.577206 155.870354 
L 127.819303 150.184287 
L 125.835424 144.573066 
L 123.628744 139.045667 
L 121.202791 133.610932 
L 118.561447 128.277558 
L 115.708939 123.054075 
L 112.649828 117.94884 
L 109.389009 112.970021 
L 105.931699 108.125582 
L 102.283429 103.423274 
L 99.540109 100.128 
L 99.540109 100.128 
" style="fill:none;stroke:#1f77b4;stroke-linecap:square;stroke-width:1.5;"/>
   </g>
   <g id="patch_5">
    <path d="M 57.6 263.808 
L 57.6 85.248 
" style="fill:none;stroke:#000000;stroke-linecap:square;stroke-linejoin:miter;stroke-width:0.8;"/>
   </g>
   <g id="patch_6">
    <path d="M 414.72 263.808 
L 414.72 85.248 
" style="fill:none;stroke:#000000;stroke-linecap:square;stroke-linejoin:miter;stroke-width:0.8;"/>
   </g>
   <g id="patch_7">
    <path d="M 57.6 263.808 
L 414.72 263.808 
" style="fill:none;stroke:#000000;stroke-linecap:square;stroke-linejoin:miter;stroke-width:0.8;"/>
   </g>
   <g id="patch_8">
    <path d="M 57.6 85.248 
L 414.72 85.248 
" style="fill:none;stroke:#000000;stroke-linecap:square;stroke-linejoin:miter;stroke-width:0.8;"/>
   </g>
  </g>
 </g>
 <defs>
  <clipPath id="pe433b57f30">
   <rect height="178.56" width="357.12" x="57.6" y="85.248"/>
  </clipPath>
 </defs>
</svg>
