<?xml version="1.0" encoding="utf-8" standalone="no"?>
<!DOCTYPE svg PUBLIC "-//W3C//DTD SVG 1.1//EN"
  "http://www.w3.org/Graphics/SVG/1.1/DTD/svg11.dtd">
<!-- Created with matplotlib (https://matplotlib.org/) -->
<svg height="345.6pt" version="1.1" viewBox="0 0 460.8 345.6" width="460.8pt" xmlns="http://www.w3.org/2000/svg" xmlns:xlink="http://www.w3.org/1999/xlink">
 <defs>
  <style type="text/css">
*{stroke-linecap:butt;stroke-linejoin:round;}
  </style>
 </defs>
 <g id="figure_1">
  <g id="patch_1">
   <path d="M 0 345.6 
L 460.8 345.6 
L 460.8 0 
L 0 0 
z
" style="fill:#ffffff;"/>
  </g>
  <g id="axes_1">
   <g id="patch_2">
    <path d="M 82.520165 307.584 
L 389.799835 307.584 
L 389.799835 41.472 
L 82.520165 41.472 
z
" style="fill:#ffffff;"/>
   </g>
   <g id="patch_3">
    <path clip-path="url(#pca66ee0791)" d="M 236.16 225.741278 
C 249.74192 225.741278 262.769389 220.345124 272.373256 210.741256 
C 281.977124 201.137389 287.373278 188.10992 287.373278 174.528 
C 287.373278 160.94608 281.977124 147.918611 272.373256 138.314744 
C 262.769389 128.710876 249.74192 123.314722 236.16 123.314722 
C 222.57808 123.314722 209.550611 128.710876 199.946744 138.314744 
C 190.342876 147.918611 184.946722 160.94608 184.946722 174.528 
C 184.946722 188.10992 190.342876 201.137389 199.946744 210.741256 
C 209.550611 220.345124 222.57808 225.741278 236.16 225.741278 
z
" style="fill:#009900;fill-opacity:0.5;stroke:#009900;stroke-linejoin:miter;stroke-width:2;"/>
   </g>
   <g id="matplotlib.axis_1">
    <g id="xtick_1">
     <g id="line2d_1">
      <defs>
       <path d="M 0 0 
L 0 3.5 
" id="mc41fb7821e" style="stroke:#000000;stroke-width:0.8;"/>
      </defs>
      <g>
       <use style="stroke:#000000;stroke-width:0.8;" x="108.126804" xlink:href="#mc41fb7821e" y="307.584"/>
      </g>
     </g>
     <g id="text_1">
      <!-- −2 -->
      <defs>
       <path d="M 10.59375 35.5 
L 73.1875 35.5 
L 73.1875 27.203125 
L 10.59375 27.203125 
z
" id="DejaVuSans-8722"/>
       <path d="M 19.1875 8.296875 
L 53.609375 8.296875 
L 53.609375 0 
L 7.328125 0 
L 7.328125 8.296875 
Q 12.9375 14.109375 22.625 23.890625 
Q 32.328125 33.6875 34.8125 36.53125 
Q 39.546875 41.84375 41.421875 45.53125 
Q 43.3125 49.21875 43.3125 52.78125 
Q 43.3125 58.59375 39.234375 62.25 
Q 35.15625 65.921875 28.609375 65.921875 
Q 23.96875 65.921875 18.8125 64.3125 
Q 13.671875 62.703125 7.8125 59.421875 
L 7.8125 69.390625 
Q 13.765625 71.78125 18.9375 73 
Q 24.125 74.21875 28.421875 74.21875 
Q 39.75 74.21875 46.484375 68.546875 
Q 53.21875 62.890625 53.21875 53.421875 
Q 53.21875 48.921875 51.53125 44.890625 
Q 49.859375 40.875 45.40625 35.40625 
Q 44.1875 33.984375 37.640625 27.21875 
Q 31.109375 20.453125 19.1875 8.296875 
z
" id="DejaVuSans-50"/>
      </defs>
      <g transform="translate(100.755711 322.182437)scale(0.1 -0.1)">
       <use xlink:href="#DejaVuSans-8722"/>
       <use x="83.789062" xlink:href="#DejaVuSans-50"/>
      </g>
     </g>
    </g>
    <g id="xtick_2">
     <g id="line2d_2">
      <g>
       <use style="stroke:#000000;stroke-width:0.8;" x="172.143402" xlink:href="#mc41fb7821e" y="307.584"/>
      </g>
     </g>
     <g id="text_2">
      <!-- −1 -->
      <defs>
       <path d="M 12.40625 8.296875 
L 28.515625 8.296875 
L 28.515625 63.921875 
L 10.984375 60.40625 
L 10.984375 69.390625 
L 28.421875 72.90625 
L 38.28125 72.90625 
L 38.28125 8.296875 
L 54.390625 8.296875 
L 54.390625 0 
L 12.40625 0 
z
" id="DejaVuSans-49"/>
      </defs>
      <g transform="translate(164.772308 322.182437)scale(0.1 -0.1)">
       <use xlink:href="#DejaVuSans-8722"/>
       <use x="83.789062" xlink:href="#DejaVuSans-49"/>
      </g>
     </g>
    </g>
    <g id="xtick_3">
     <g id="line2d_3">
      <g>
       <use style="stroke:#000000;stroke-width:0.8;" x="236.16" xlink:href="#mc41fb7821e" y="307.584"/>
      </g>
     </g>
     <g id="text_3">
      <!-- 0 -->
      <defs>
       <path d="M 31.78125 66.40625 
Q 24.171875 66.40625 20.328125 58.90625 
Q 16.5 51.421875 16.5 36.375 
Q 16.5 21.390625 20.328125 13.890625 
Q 24.171875 6.390625 31.78125 6.390625 
Q 39.453125 6.390625 43.28125 13.890625 
Q 47.125 21.390625 47.125 36.375 
Q 47.125 51.421875 43.28125 58.90625 
Q 39.453125 66.40625 31.78125 66.40625 
z
M 31.78125 74.21875 
Q 44.046875 74.21875 50.515625 64.515625 
Q 56.984375 54.828125 56.984375 36.375 
Q 56.984375 17.96875 50.515625 8.265625 
Q 44.046875 -1.421875 31.78125 -1.421875 
Q 19.53125 -1.421875 13.0625 8.265625 
Q 6.59375 17.96875 6.59375 36.375 
Q 6.59375 54.828125 13.0625 64.515625 
Q 19.53125 74.21875 31.78125 74.21875 
z
" id="DejaVuSans-48"/>
      </defs>
      <g transform="translate(232.97875 322.182437)scale(0.1 -0.1)">
       <use xlink:href="#DejaVuSans-48"/>
      </g>
     </g>
    </g>
    <g id="xtick_4">
     <g id="line2d_4">
      <g>
       <use style="stroke:#000000;stroke-width:0.8;" x="300.176598" xlink:href="#mc41fb7821e" y="307.584"/>
      </g>
     </g>
     <g id="text_4">
      <!-- 1 -->
      <g transform="translate(296.995348 322.182437)scale(0.1 -0.1)">
       <use xlink:href="#DejaVuSans-49"/>
      </g>
     </g>
    </g>
    <g id="xtick_5">
     <g id="line2d_5">
      <g>
       <use style="stroke:#000000;stroke-width:0.8;" x="364.193196" xlink:href="#mc41fb7821e" y="307.584"/>
      </g>
     </g>
     <g id="text_5">
      <!-- 2 -->
      <g transform="translate(361.011946 322.182437)scale(0.1 -0.1)">
       <use xlink:href="#DejaVuSans-50"/>
      </g>
     </g>
    </g>
   </g>
   <g id="matplotlib.axis_2">
    <g id="ytick_1">
     <g id="line2d_6">
      <defs>
       <path d="M 0 0 
L -3.5 0 
" id="m1f454b399d" style="stroke:#000000;stroke-width:0.8;"/>
      </defs>
      <g>
       <use style="stroke:#000000;stroke-width:0.8;" x="82.520165" xlink:href="#m1f454b399d" y="302.561196"/>
      </g>
     </g>
     <g id="text_6">
      <!-- −2.0 -->
      <defs>
       <path d="M 10.6875 12.40625 
L 21 12.40625 
L 21 0 
L 10.6875 0 
z
" id="DejaVuSans-46"/>
      </defs>
      <g transform="translate(51.237353 306.360414)scale(0.1 -0.1)">
       <use xlink:href="#DejaVuSans-8722"/>
       <use x="83.789062" xlink:href="#DejaVuSans-50"/>
       <use x="147.412109" xlink:href="#DejaVuSans-46"/>
       <use x="179.199219" xlink:href="#DejaVuSans-48"/>
      </g>
     </g>
    </g>
    <g id="ytick_2">
     <g id="line2d_7">
      <g>
       <use style="stroke:#000000;stroke-width:0.8;" x="82.520165" xlink:href="#m1f454b399d" y="270.552897"/>
      </g>
     </g>
     <g id="text_7">
      <!-- −1.5 -->
      <defs>
       <path d="M 10.796875 72.90625 
L 49.515625 72.90625 
L 49.515625 64.59375 
L 19.828125 64.59375 
L 19.828125 46.734375 
Q 21.96875 47.46875 24.109375 47.828125 
Q 26.265625 48.1875 28.421875 48.1875 
Q 40.625 48.1875 47.75 41.5 
Q 54.890625 34.8125 54.890625 23.390625 
Q 54.890625 11.625 47.5625 5.09375 
Q 40.234375 -1.421875 26.90625 -1.421875 
Q 22.3125 -1.421875 17.546875 -0.640625 
Q 12.796875 0.140625 7.71875 1.703125 
L 7.71875 11.625 
Q 12.109375 9.234375 16.796875 8.0625 
Q 21.484375 6.890625 26.703125 6.890625 
Q 35.15625 6.890625 40.078125 11.328125 
Q 45.015625 15.765625 45.015625 23.390625 
Q 45.015625 31 40.078125 35.4375 
Q 35.15625 39.890625 26.703125 39.890625 
Q 22.75 39.890625 18.8125 39.015625 
Q 14.890625 38.140625 10.796875 36.28125 
z
" id="DejaVuSans-53"/>
      </defs>
      <g transform="translate(51.237353 274.352116)scale(0.1 -0.1)">
       <use xlink:href="#DejaVuSans-8722"/>
       <use x="83.789062" xlink:href="#DejaVuSans-49"/>
       <use x="147.412109" xlink:href="#DejaVuSans-46"/>
       <use x="179.199219" xlink:href="#DejaVuSans-53"/>
      </g>
     </g>
    </g>
    <g id="ytick_3">
     <g id="line2d_8">
      <g>
       <use style="stroke:#000000;stroke-width:0.8;" x="82.520165" xlink:href="#m1f454b399d" y="238.544598"/>
      </g>
     </g>
     <g id="text_8">
      <!-- −1.0 -->
      <g transform="translate(51.237353 242.343817)scale(0.1 -0.1)">
       <use xlink:href="#DejaVuSans-8722"/>
       <use x="83.789062" xlink:href="#DejaVuSans-49"/>
       <use x="147.412109" xlink:href="#DejaVuSans-46"/>
       <use x="179.199219" xlink:href="#DejaVuSans-48"/>
      </g>
     </g>
    </g>
    <g id="ytick_4">
     <g id="line2d_9">
      <g>
       <use style="stroke:#000000;stroke-width:0.8;" x="82.520165" xlink:href="#m1f454b399d" y="206.536299"/>
      </g>
     </g>
     <g id="text_9">
      <!-- −0.5 -->
      <g transform="translate(51.237353 210.335518)scale(0.1 -0.1)">
       <use xlink:href="#DejaVuSans-8722"/>
       <use x="83.789062" xlink:href="#DejaVuSans-48"/>
       <use x="147.412109" xlink:href="#DejaVuSans-46"/>
       <use x="179.199219" xlink:href="#DejaVuSans-53"/>
      </g>
     </g>
    </g>
    <g id="ytick_5">
     <g id="line2d_10">
      <g>
       <use style="stroke:#000000;stroke-width:0.8;" x="82.520165" xlink:href="#m1f454b399d" y="174.528"/>
      </g>
     </g>
     <g id="text_10">
      <!-- 0.0 -->
      <g transform="translate(59.61704 178.327219)scale(0.1 -0.1)">
       <use xlink:href="#DejaVuSans-48"/>
       <use x="63.623047" xlink:href="#DejaVuSans-46"/>
       <use x="95.410156" xlink:href="#DejaVuSans-48"/>
      </g>
     </g>
    </g>
    <g id="ytick_6">
     <g id="line2d_11">
      <g>
       <use style="stroke:#000000;stroke-width:0.8;" x="82.520165" xlink:href="#m1f454b399d" y="142.519701"/>
      </g>
     </g>
     <g id="text_11">
      <!-- 0.5 -->
      <g transform="translate(59.61704 146.31892)scale(0.1 -0.1)">
       <use xlink:href="#DejaVuSans-48"/>
       <use x="63.623047" xlink:href="#DejaVuSans-46"/>
       <use x="95.410156" xlink:href="#DejaVuSans-53"/>
      </g>
     </g>
    </g>
    <g id="ytick_7">
     <g id="line2d_12">
      <g>
       <use style="stroke:#000000;stroke-width:0.8;" x="82.520165" xlink:href="#m1f454b399d" y="110.511402"/>
      </g>
     </g>
     <g id="text_12">
      <!-- 1.0 -->
      <g transform="translate(59.61704 114.310621)scale(0.1 -0.1)">
       <use xlink:href="#DejaVuSans-49"/>
       <use x="63.623047" xlink:href="#DejaVuSans-46"/>
       <use x="95.410156" xlink:href="#DejaVuSans-48"/>
      </g>
     </g>
    </g>
    <g id="ytick_8">
     <g id="line2d_13">
      <g>
       <use style="stroke:#000000;stroke-width:0.8;" x="82.520165" xlink:href="#m1f454b399d" y="78.503103"/>
      </g>
     </g>
     <g id="text_13">
      <!-- 1.5 -->
      <g transform="translate(59.61704 82.302322)scale(0.1 -0.1)">
       <use xlink:href="#DejaVuSans-49"/>
       <use x="63.623047" xlink:href="#DejaVuSans-46"/>
       <use x="95.410156" xlink:href="#DejaVuSans-53"/>
      </g>
     </g>
    </g>
    <g id="ytick_9">
     <g id="line2d_14">
      <g>
       <use style="stroke:#000000;stroke-width:0.8;" x="82.520165" xlink:href="#m1f454b399d" y="46.494804"/>
      </g>
     </g>
     <g id="text_14">
      <!-- 2.0 -->
      <g transform="translate(59.61704 50.294023)scale(0.1 -0.1)">
       <use xlink:href="#DejaVuSans-50"/>
       <use x="63.623047" xlink:href="#DejaVuSans-46"/>
       <use x="95.410156" xlink:href="#DejaVuSans-48"/>
      </g>
     </g>
    </g>
   </g>
   <g id="line2d_15">
    <path clip-path="url(#pca66ee0791)" d="M 300.176598 63.648 
L 172.143402 63.648 
" style="fill:none;stroke:#009900;stroke-linecap:square;stroke-width:2;"/>
   </g>
   <g id="line2d_16">
    <path clip-path="url(#pca66ee0791)" d="M 172.143402 63.648 
L 108.126804 174.528 
" style="fill:none;stroke:#009900;stroke-linecap:square;stroke-width:2;"/>
   </g>
   <g id="line2d_17">
    <path clip-path="url(#pca66ee0791)" d="M 108.126804 174.528 
L 172.143402 285.408 
" style="fill:none;stroke:#009900;stroke-linecap:square;stroke-width:2;"/>
   </g>
   <g id="line2d_18">
    <path clip-path="url(#pca66ee0791)" d="M 172.143402 285.408 
L 300.176598 285.408 
" style="fill:none;stroke:#009900;stroke-linecap:square;stroke-width:2;"/>
   </g>
   <g id="line2d_19">
    <path clip-path="url(#pca66ee0791)" d="M 300.176598 285.408 
L 364.193196 174.528 
" style="fill:none;stroke:#009900;stroke-linecap:square;stroke-width:2;"/>
   </g>
   <g id="line2d_20">
    <path clip-path="url(#pca66ee0791)" d="M 364.193196 174.528 
L 300.176598 63.648 
" style="fill:none;stroke:#009900;stroke-linecap:square;stroke-width:2;"/>
   </g>
   <g id="line2d_21">
    <path clip-path="url(#pca66ee0791)" d="M 241.014082 269.366588 
L 242.59177 274.238487 
L 244.363019 279.043399 
L 246.324998 283.773636 
L 247.055189 285.408 
L 249.083108 280.705655 
L 250.921362 275.925977 
L 252.567009 271.076611 
L 254.017417 266.165316 
L 255.270265 261.199949 
L 256.32355 256.188453 
L 257.175585 251.138845 
L 257.825009 246.059204 
L 258.270781 240.957657 
L 258.51219 235.842364 
L 258.548848 230.721508 
L 258.380698 225.603283 
L 258.038908 220.832571 
L 261.757184 224.353781 
L 265.613297 227.723483 
L 269.601078 230.936287 
L 273.714147 233.987052 
L 277.945923 236.870898 
L 282.289638 239.583211 
L 286.738342 242.119653 
L 291.284918 244.476165 
L 295.922093 246.648977 
L 300.642448 248.634614 
L 305.438431 250.429898 
L 310.30237 252.031959 
L 315.226484 253.438232 
L 318.202562 254.186114 
L 314.609042 250.537675 
L 310.872497 247.035856 
L 306.998906 243.68626 
L 302.994465 240.494245 
L 298.865581 237.464919 
L 294.618858 234.603128 
L 290.261092 231.913449 
L 285.799252 229.400186 
L 281.240478 227.067359 
L 276.592063 224.9187 
L 271.861442 222.957647 
L 267.056184 221.187338 
L 262.183976 219.610603 
L 261.064 219.278315 
L 259.790677 224.238471 
L 258.716726 229.245579 
L 257.843865 234.291629 
L 257.173491 239.368547 
L 256.706675 244.468212 
L 256.444165 249.582466 
L 256.38638 254.703126 
L 256.533414 259.822001 
L 256.88503 264.930902 
L 257.440666 270.021656 
L 258.199434 275.086117 
L 259.16012 280.116186 
L 260.398839 285.408 
L 261.572131 280.423235 
L 262.545148 275.395537 
L 263.316332 270.332951 
L 263.884449 265.243576 
L 264.248592 260.135552 
L 264.408176 255.017053 
L 264.362948 249.896266 
L 264.112979 244.781384 
L 263.658669 239.68059 
L 263.000746 234.602043 
L 262.14026 229.553868 
L 261.07859 224.544142 
L 259.905858 219.903479 
L 263.274995 223.760086 
L 266.795661 227.478878 
L 270.462222 231.053907 
L 274.268814 234.479452 
L 278.209346 237.750035 
L 282.277514 240.860422 
L 286.466811 243.805637 
L 290.770534 246.58097 
L 295.181798 249.18198 
L 299.693546 251.604505 
L 304.29856 253.844671 
L 308.989474 255.898894 
L 313.758782 257.763887 
L 315.728733 258.470911 
L 311.781756 255.208109 
L 307.707459 252.105755 
L 303.51236 249.16881 
L 299.20317 246.401974 
L 294.786783 243.809672 
L 290.270264 241.396053 
L 285.660839 239.164976 
L 280.965882 237.120012 
L 276.192903 235.264433 
L 271.349539 233.601205 
L 266.443537 232.132991 
L 261.482747 230.862139 
L 256.475105 229.790683 
L 251.428621 228.920335 
L 246.35137 228.25249 
L 241.251473 227.788214 
L 236.137089 227.528251 
L 231.0164 227.473018 
L 225.897599 227.622601 
L 220.788874 227.976762 
L 215.698398 228.534934 
L 210.634315 229.296224 
L 205.604726 230.259415 
L 200.617677 231.422966 
L 195.681148 232.785014 
L 190.803034 234.343381 
L 185.99114 236.095575 
L 181.253165 238.038791 
L 176.596687 240.169921 
L 172.029156 242.485556 
L 167.55788 244.981992 
L 163.190011 247.655234 
L 158.932537 250.501005 
L 154.792269 253.514754 
L 154.055228 254.078363 
L 158.750286 252.033631 
L 163.359821 249.802782 
L 167.876459 247.389385 
L 172.292974 244.797302 
L 176.602301 242.030678 
L 180.797545 239.09394 
L 184.871995 235.991786 
L 188.819133 232.729179 
L 192.632644 229.311339 
L 196.306428 225.743732 
L 199.834606 222.032067 
L 203.211536 218.182282 
L 205.418716 215.488632 
L 204.685476 216.5382 
L 201.858554 220.808214 
L 199.204648 225.187858 
L 196.728004 229.670127 
L 194.432584 234.247851 
L 192.32206 238.913704 
L 190.399809 243.660224 
L 188.668906 248.479817 
L 187.132119 253.364773 
L 185.791908 258.307276 
L 184.650417 263.299419 
L 183.70947 268.333217 
L 182.970575 273.400617 
L 182.434913 278.49351 
L 182.103341 283.603751 
L 182.035212 285.408 
L 181.989526 284.128489 
L 181.67892 279.016931 
L 181.164154 273.921882 
L 180.446052 268.851495 
L 179.525764 263.813879 
L 178.40476 258.817095 
L 177.084835 253.869136 
L 175.568101 248.977917 
L 173.856983 244.151264 
L 171.954219 239.396899 
L 169.862853 234.722426 
L 167.586231 230.135326 
L 165.127995 225.642934 
L 162.492078 221.25244 
L 159.682696 216.970866 
L 156.704344 212.805062 
L 153.561787 208.761693 
L 150.260052 204.847227 
L 146.804421 201.067926 
L 143.200422 197.429836 
L 139.453821 193.938778 
L 135.570612 190.600337 
L 131.557008 187.419853 
L 127.419428 184.402414 
L 123.164492 181.552848 
L 118.799008 178.875714 
L 114.329959 176.375294 
L 109.764494 174.055588 
L 108.694519 173.544689 
L 109.221474 173.908187 
L 113.501187 176.720403 
L 117.889935 179.359226 
L 122.380698 181.820436 
L 126.96629 184.100094 
L 131.639377 186.194554 
L 136.392482 188.100466 
L 141.218 189.814779 
L 146.108214 191.334751 
L 151.055298 192.657952 
L 156.051339 193.782263 
L 161.088344 194.705887 
L 166.158255 195.427345 
L 171.252962 195.945484 
L 176.364313 196.259475 
L 181.484132 196.368815 
L 186.604228 196.273329 
L 189.718581 196.114904 
L 186.252043 199.884204 
L 182.93901 203.789113 
L 179.784782 207.823384 
L 176.794405 211.980565 
L 173.972662 216.254002 
L 171.324069 220.636862 
L 168.852862 225.122131 
L 166.562994 229.702634 
L 164.45813 234.371043 
L 162.541635 239.11989 
L 160.816577 243.941579 
L 159.285715 248.828394 
L 157.951498 253.772518 
L 156.801747 258.835474 
L 161.693146 260.351626 
L 166.641262 261.670963 
L 171.63818 262.791372 
L 176.675905 263.711061 
L 181.746378 264.42856 
L 186.841487 264.942719 
L 191.953082 265.252718 
L 197.072985 265.358059 
L 202.193005 265.258574 
L 207.304951 264.954423 
L 212.400646 264.446092 
L 217.471936 263.734394 
L 222.51071 262.820467 
L 227.508906 261.705775 
L 232.458528 260.392099 
L 237.351658 258.881543 
L 242.180468 257.176521 
L 246.937232 255.279763 
L 251.614342 253.194302 
L 256.204314 250.923474 
L 260.699806 248.470913 
L 265.093625 245.840543 
L 269.378744 243.03657 
L 273.548305 240.063481 
L 277.59564 236.926032 
L 281.514272 233.629243 
L 285.297934 230.178387 
L 288.940572 226.578985 
L 292.436358 222.836796 
L 295.779701 218.957806 
L 298.965251 214.948221 
L 301.987912 210.814455 
L 304.842849 206.563121 
L 307.525494 202.201021 
L 310.031556 197.735133 
L 312.357025 193.172602 
L 314.498182 188.520726 
L 316.4516 183.786948 
L 318.214156 178.97884 
L 319.783028 174.104095 
L 321.155708 169.170511 
L 322.329999 164.18598 
L 323.304023 159.158478 
L 324.076221 154.096046 
L 324.645358 149.006785 
L 325.010524 143.898834 
L 325.171134 138.780367 
L 325.126931 133.659572 
L 324.877987 128.54464 
L 324.424699 123.443754 
L 323.767793 118.365076 
L 322.908319 113.316729 
L 321.847652 108.30679 
L 320.58749 103.343274 
L 319.129849 98.434121 
L 317.502599 93.657514 
L 314.129172 89.804659 
L 310.60437 86.089787 
L 306.933832 82.518841 
L 303.123431 79.097534 
L 299.179262 75.831338 
L 295.107635 72.72548 
L 290.915063 69.784928 
L 286.608254 67.014387 
L 282.194099 64.418288 
L 280.802126 63.648 
L 276.356053 66.189051 
L 272.015152 68.905865 
L 267.786367 71.794096 
L 263.676462 74.849123 
L 259.692014 78.066058 
L 255.839396 81.439755 
L 252.124771 84.964818 
L 248.554083 88.635606 
L 245.133043 92.446248 
L 241.867125 96.390646 
L 238.761553 100.462492 
L 235.821295 104.65527 
L 233.051056 108.962273 
L 230.455267 113.376611 
L 228.03808 117.891222 
L 225.803364 122.498883 
L 224.869643 124.574745 
L 220.928041 121.305452 
L 216.858855 118.196397 
L 212.668594 115.252553 
L 208.363963 112.478629 
L 203.951848 109.879064 
L 199.439307 107.458015 
L 194.833559 105.219357 
L 190.141973 103.16667 
L 185.372055 101.303238 
L 180.531434 99.632043 
L 175.627855 98.155758 
L 170.669163 96.876744 
L 165.663291 95.797048 
L 160.618246 94.918398 
L 155.542101 94.242198 
L 154.542689 94.133329 
L 157.634409 98.215702 
L 160.886907 102.171174 
L 164.29498 105.993417 
L 167.853176 109.676316 
L 171.555802 113.213979 
L 175.396935 116.600747 
L 179.370431 119.831201 
L 183.469932 122.900174 
L 187.68888 125.802756 
L 192.020525 128.534303 
L 196.457939 131.090445 
L 200.994021 133.467094 
L 203.807565 134.827624 
L 202.516065 129.87217 
L 201.027431 124.972326 
L 199.344047 120.13593 
L 197.468606 115.370721 
L 195.404107 110.684321 
L 193.153853 106.084227 
L 190.721445 101.577799 
L 188.110773 97.172247 
L 185.326015 92.874617 
L 182.371624 88.691785 
L 179.252328 84.630444 
L 175.973117 80.69709 
L 172.539237 76.898015 
L 168.956181 73.239298 
L 167.446874 71.782626 
L 172.385412 73.137373 
L 177.374176 74.293547 
L 182.405184 75.2493 
L 187.470387 76.003101 
L 192.561683 76.553746 
L 197.670926 76.900352 
L 202.789943 77.042366 
L 207.910544 76.97956 
L 213.024538 76.712035 
L 218.123743 76.240219 
L 223.200001 75.564866 
L 228.245193 74.687057 
L 233.251245 73.608197 
L 238.21015 72.330011 
L 243.113975 70.854544 
L 247.954875 69.184157 
L 252.725104 67.321521 
L 257.417033 65.269617 
L 260.80062 63.648 
L 265.430407 65.836509 
L 270.144009 67.838124 
L 274.933883 69.649646 
L 279.792367 71.268174 
L 284.711689 72.69112 
L 289.683978 73.916207 
L 294.701281 74.941476 
L 299.75557 75.765286 
L 304.83876 76.386319 
L 307.679807 76.64394 
L 305.571544 81.310816 
L 303.651592 86.058266 
L 301.923023 90.878697 
L 300.388603 95.764396 
L 299.050786 100.707548 
L 297.911713 105.700244 
L 296.973205 110.734497 
L 296.236764 115.802253 
L 295.703569 120.895406 
L 295.374471 126.005807 
L 295.249999 131.12528 
L 295.330351 136.245636 
L 295.615397 141.358684 
L 296.104684 146.456242 
L 296.797427 151.530156 
L 297.692518 156.57231 
L 298.788525 161.574636 
L 300.083696 166.529133 
L 301.575957 171.427873 
L 303.262923 176.263021 
L 305.141893 181.02684 
L 307.209862 185.71171 
L 309.463522 190.310135 
L 311.899267 194.81476 
L 314.513201 199.218378 
L 317.301142 203.513945 
L 320.258629 207.694587 
L 323.380932 211.753617 
L 326.663055 215.684542 
L 330.099748 219.481072 
L 333.685513 223.137135 
L 335.25565 224.649299 
L 330.318991 223.28772 
L 325.331832 222.124645 
L 320.302151 221.161933 
L 315.237995 220.401125 
L 310.147466 219.843437 
L 305.038708 219.489763 
L 299.919892 219.340667 
L 294.799209 219.396388 
L 289.68485 219.656838 
L 284.584997 220.121599 
L 279.507809 220.789928 
L 274.461408 221.660756 
L 269.453868 222.732689 
L 264.493199 224.004014 
L 259.587337 225.472695 
L 254.744132 227.136383 
L 249.97133 228.992418 
L 245.276567 231.037829 
L 240.667354 233.269344 
L 236.151065 235.683393 
L 231.734925 238.276115 
L 227.425998 241.043362 
L 223.231179 243.980706 
L 219.157177 247.083449 
L 215.210511 250.346626 
L 211.397494 253.765018 
L 207.724226 257.333156 
L 204.196584 261.04533 
L 200.820211 264.895604 
L 197.600508 268.877817 
L 194.542627 272.985598 
L 191.65146 277.212376 
L 188.931631 281.551389 
L 186.710487 285.408 
L 184.143105 280.97708 
L 181.400586 276.652373 
L 178.48732 272.440796 
L 175.407965 268.349087 
L 172.167449 264.383793 
L 168.770956 260.551257 
L 165.223919 256.85761 
L 161.532012 253.308761 
L 157.701143 249.910388 
L 153.737439 246.667927 
L 149.647242 243.586565 
L 146.87231 241.637185 
L 146.383709 236.539561 
L 145.691648 231.465553 
L 144.797234 226.423279 
L 143.701898 221.420806 
L 142.407393 216.466135 
L 140.91579 211.567195 
L 139.229474 206.731821 
L 137.351144 201.967749 
L 135.283804 197.282602 
L 133.030762 192.683873 
L 130.595622 188.178921 
L 127.98228 183.774952 
L 125.194916 179.479011 
L 122.237991 175.297971 
L 119.116233 171.238522 
L 115.834638 167.307156 
L 113.686654 164.898057 
L 118.708423 165.901223 
L 123.766291 166.70277 
L 128.852166 167.301414 
L 133.957912 167.696199 
L 139.075362 167.886493 
L 144.196328 167.871991 
L 149.312617 167.652717 
L 154.416046 167.229021 
L 159.498449 166.601581 
L 164.551696 165.771402 
L 169.567702 164.73981 
L 174.538444 163.508457 
L 179.455968 162.079312 
L 184.312409 160.454661 
L 187.241771 159.368622 
L 184.255689 155.208356 
L 181.105629 151.170829 
L 177.796631 147.2625 
L 174.333988 143.489622 
L 170.723241 139.858231 
L 166.970164 136.374136 
L 163.080763 133.04291 
L 159.06126 129.869885 
L 154.918084 126.860134 
L 150.657865 124.018474 
L 146.287417 121.34945 
L 141.813733 118.857332 
L 140.627471 118.235194 
L 141.709224 118.920064 
L 146.103088 121.550361 
L 150.598621 124.002846 
L 155.188632 126.273596 
L 159.865777 128.358978 
L 164.622573 130.255656 
L 169.451412 131.960595 
L 174.344567 133.471069 
L 179.294212 134.784661 
L 184.292426 135.899269 
L 189.331216 136.81311 
L 194.402518 137.524722 
L 199.498221 138.032967 
L 200.177729 138.085222 
L 199.761486 132.98118 
L 199.141469 127.897866 
L 198.31867 122.843412 
L 197.294404 117.825905 
L 196.070311 112.853371 
L 194.648348 107.933764 
L 193.030791 103.074957 
L 191.220228 98.284721 
L 189.219555 93.570719 
L 187.031972 88.940494 
L 184.660979 84.401453 
L 182.11037 79.960857 
L 179.384224 75.62581 
L 176.486903 71.403248 
L 173.423043 67.299925 
L 171.456956 64.836959 
L 176.526118 65.563664 
L 181.620286 66.087075 
L 186.731309 66.406355 
L 191.851012 66.520993 
L 196.971204 66.430806 
L 202.083695 66.135937 
L 207.180304 65.63686 
L 212.252878 64.934372 
L 217.293303 64.029597 
L 219.1292 63.648 
L 224.155833 64.626497 
L 229.217576 65.403199 
L 234.306329 65.976864 
L 239.413952 66.346574 
L 244.532275 66.511739 
L 249.653108 66.472093 
L 254.768259 66.2277 
L 259.869546 65.77895 
L 264.948807 65.126563 
L 269.997916 64.271582 
L 273.074141 63.648 
L 278.100774 64.626497 
L 283.162517 65.403199 
L 288.25127 65.976864 
L 293.358893 66.346574 
L 298.477215 66.511739 
L 301.828373 66.508959 
L 299.294906 70.959357 
L 296.941433 75.507507 
L 294.77172 80.146133 
L 292.789238 84.867813 
L 290.997159 89.664995 
L 289.398349 94.530004 
L 287.995367 99.455057 
L 286.790457 104.432274 
L 285.785546 109.453694 
L 284.982242 114.511282 
L 284.38183 119.596949 
L 283.985271 124.702558 
L 283.793199 129.819941 
L 283.805921 134.940912 
L 284.023418 140.057278 
L 284.44534 145.160853 
L 285.071014 150.243474 
L 285.899437 155.297009 
L 286.929286 160.313374 
L 288.158912 165.284543 
L 289.586348 170.202563 
L 291.209311 175.059568 
L 293.025203 179.847786 
L 295.031121 184.559558 
L 297.223855 189.187346 
L 299.599898 193.723746 
L 302.155447 198.161501 
L 304.886415 202.493512 
L 307.788433 206.712847 
L 310.856858 210.812758 
L 314.086781 214.786686 
L 317.473035 218.628272 
L 321.010203 222.331371 
L 324.692627 225.890059 
L 328.514414 229.298643 
L 331.254138 231.580122 
L 326.437912 229.839872 
L 321.555947 228.293612 
L 316.616053 226.943815 
L 311.626133 225.792641 
L 306.59417 224.841931 
L 301.528214 224.093207 
L 296.436369 223.547666 
L 291.326781 223.20618 
L 286.207624 223.069297 
L 281.087088 223.137235 
L 275.973365 223.409886 
L 270.874636 223.886812 
L 265.799057 224.567252 
L 260.754748 225.450117 
L 255.749779 226.533994 
L 250.792157 227.81715 
L 245.889814 229.297531 
L 241.050591 230.972769 
L 236.28223 232.840185 
L 231.592361 234.896791 
L 226.988485 237.139296 
L 222.477968 239.564113 
L 218.068026 242.167364 
L 213.765714 244.944883 
L 209.577914 247.892226 
L 205.511326 251.00468 
L 201.572456 254.277263 
L 197.767605 257.704742 
L 194.102861 261.281633 
L 190.584085 265.002213 
L 187.216907 268.860531 
L 184.006714 272.850414 
L 180.958642 276.965479 
L 178.077567 281.199142 
L 175.449655 285.408 
L 172.734787 281.065881 
L 169.848452 276.835802 
L 166.795268 272.724529 
L 163.580119 268.738639 
L 160.444189 265.144369 
L 158.779115 260.301639 
L 156.921715 255.529368 
L 154.874961 250.835191 
L 152.642128 246.226617 
L 150.226786 241.711019 
L 147.632801 237.29562 
L 144.864322 232.987486 
L 141.925778 228.793507 
L 138.821869 224.720393 
L 135.557563 220.77466 
L 133.450012 218.389082 
L 131.784938 213.546353 
L 129.927538 208.774082 
L 127.880784 204.079905 
L 125.647951 199.471331 
L 123.232609 194.955733 
L 120.638624 190.540334 
L 117.870145 186.232199 
L 114.931601 182.03822 
L 111.827692 177.965107 
L 108.477772 173.920106 
L 113.526153 174.779381 
L 118.604857 175.436088 
L 123.70576 175.889175 
L 128.820702 176.137918 
L 133.9415 176.181919 
L 139.05996 176.021107 
L 144.167896 175.655741 
L 149.257136 175.086403 
L 154.319537 174.314006 
L 159.347001 173.339784 
L 164.331485 172.165297 
L 169.265015 170.792423 
L 174.139698 169.223359 
L 178.947737 167.460614 
L 183.681438 165.50701 
L 185.938901 164.495997 
L 182.389674 160.804454 
L 178.695664 157.257794 
L 174.862781 153.861693 
L 170.897155 150.621583 
L 166.805131 147.542647 
L 162.593257 144.629811 
L 158.268268 141.887736 
L 153.837086 139.320807 
L 149.306798 136.933131 
L 144.684653 134.728529 
L 139.978044 132.710526 
L 135.194501 130.882352 
L 133.641425 130.335381 
L 137.574592 133.614816 
L 141.635756 136.734344 
L 145.818419 139.688973 
L 150.11589 142.473976 
L 154.521294 145.084899 
L 159.027583 147.517564 
L 163.627548 149.76808 
L 168.313831 151.832846 
L 173.078933 153.708559 
L 177.915233 155.392219 
L 182.814992 156.881131 
L 187.639083 158.141406 
L 182.913077 156.169256 
L 178.111988 154.387673 
L 173.243494 152.799508 
L 168.315384 151.4073 
L 163.335544 150.213279 
L 158.311938 149.219352 
L 153.252605 148.427112 
L 148.165637 147.837824 
L 143.059173 147.452433 
L 137.941382 147.271554 
L 132.820451 147.295476 
L 127.704573 147.524162 
L 123.521262 147.864018 
L 125.730919 152.483749 
L 128.12355 157.011422 
L 130.695325 161.439793 
L 133.44213 165.761779 
L 136.359572 169.970465 
L 139.442983 174.059118 
L 142.687429 178.021196 
L 146.087722 181.850362 
L 149.63842 185.54049 
L 153.333844 189.085676 
L 157.168082 192.480249 
L 161.134999 195.718778 
L 165.22825 198.796082 
L 169.441286 201.707238 
L 173.767367 204.447588 
L 178.199573 207.01275 
L 182.730812 209.398619 
L 187.353836 211.601379 
L 192.06125 213.617504 
L 196.845521 215.443771 
L 201.698997 217.077257 
L 206.613912 218.515349 
L 211.582404 219.755747 
L 212.545302 219.971876 
L 216.390097 223.354487 
L 220.367085 226.58064 
L 224.469903 229.645176 
L 228.691989 232.543192 
L 233.026587 235.270051 
L 237.466763 237.821392 
L 242.005414 240.193132 
L 246.635279 242.381477 
L 251.348951 244.382926 
L 256.138889 246.194278 
L 260.99743 247.812635 
L 265.916802 249.235407 
L 270.889135 250.460319 
L 275.906473 251.485411 
L 280.960792 252.309042 
L 286.044003 252.929896 
L 291.147977 253.34698 
L 296.264546 253.559625 
L 301.385527 253.567491 
L 306.502725 253.370567 
L 311.607956 252.969167 
L 316.693051 252.363934 
L 319.498655 251.941216 
L 317.585041 247.191207 
L 315.483007 242.521522 
L 313.195918 237.939631 
L 310.727432 233.452865 
L 308.081497 229.0684 
L 305.262346 224.793251 
L 302.274491 220.634259 
L 299.12271 216.598075 
L 295.812046 212.691157 
L 292.347795 208.919756 
L 288.735499 205.289905 
L 284.980937 201.80741 
L 281.325178 198.671458 
L 286.258414 200.045388 
L 291.242647 201.220941 
L 296.269902 202.196239 
L 301.332138 202.969719 
L 306.421255 203.540145 
L 311.529113 203.906605 
L 316.647539 204.068512 
L 321.768346 204.025606 
L 326.883341 203.777958 
L 331.984341 203.325962 
L 337.063186 202.670342 
L 342.11175 201.812147 
L 347.121957 200.75275 
L 349.365776 200.209843 
L 347.866179 195.313344 
L 346.171973 190.480729 
L 344.28587 185.719729 
L 342.210886 181.037962 
L 339.950341 176.442917 
L 337.507851 171.941946 
L 334.887324 167.542248 
L 332.092953 163.250862 
L 329.129207 159.074654 
L 326.000827 155.020306 
L 322.71282 151.094301 
L 319.270444 147.302923 
L 315.679207 143.652235 
L 311.944854 140.148079 
L 308.07336 136.79606 
L 304.070917 133.601541 
L 299.943929 130.569632 
L 295.698998 127.705184 
L 291.342915 125.012779 
L 286.882649 122.496725 
L 282.325336 120.161046 
L 277.678265 118.009479 
L 272.948872 116.045467 
L 268.144723 114.272151 
L 263.273503 112.692368 
L 258.343004 111.308645 
L 253.361116 110.123197 
L 248.335807 109.13792 
L 243.275117 108.354389 
L 238.187142 107.773859 
L 233.080022 107.397258 
L 227.961928 107.225188 
L 222.841046 107.257925 
L 217.725569 107.495417 
L 212.623682 107.937283 
L 207.543545 108.582817 
L 202.493287 109.430985 
L 197.480985 110.480432 
L 192.51466 111.729478 
L 187.602256 113.176125 
L 182.751632 114.818059 
L 177.970547 116.652652 
L 173.266651 118.67697 
L 168.647469 120.887775 
L 164.12039 123.281529 
L 159.692657 125.854403 
L 155.371353 128.602282 
L 151.163392 131.520768 
L 147.075505 134.605194 
L 143.114232 137.850624 
L 139.28591 141.251867 
L 135.596664 144.803482 
L 132.052396 148.499786 
L 128.658775 152.334866 
L 125.421231 156.302587 
L 122.344943 160.396602 
L 119.434833 164.61036 
L 116.695557 168.937122 
L 114.131495 173.369964 
L 111.746751 177.901796 
L 110.977047 179.464765 
L 116.090896 179.735042 
L 121.211463 179.800604 
L 126.330555 179.661345 
L 131.439984 179.317488 
L 136.531576 178.769584 
L 141.597184 178.018509 
L 146.628705 177.065464 
L 151.61809 175.911974 
L 156.557357 174.559885 
L 161.438604 173.011359 
L 166.254022 171.268875 
L 170.995907 169.335218 
L 175.656673 167.213484 
L 180.228865 164.907065 
L 184.705167 162.419653 
L 186.70268 161.232385 
L 184.157242 156.788823 
L 181.436144 152.450605 
L 178.543741 148.224673 
L 175.484659 144.117786 
L 172.263793 140.136515 
L 168.886294 136.287228 
L 165.357567 132.576085 
L 161.683256 129.009022 
L 157.869239 125.591745 
L 153.921619 122.329721 
L 149.846711 119.22817 
L 145.651032 116.292052 
L 142.815706 114.44506 
L 143.952506 115.03406 
L 148.556893 117.275516 
L 153.247232 119.331052 
L 158.016018 121.19738 
L 162.855622 122.871515 
L 167.758303 124.350778 
L 172.716218 125.632803 
L 177.721433 126.715539 
L 182.765943 127.597254 
L 187.841677 128.276537 
L 192.940516 128.752301 
L 198.054301 129.023785 
L 203.174852 129.090556 
L 208.293977 128.952505 
L 213.498066 128.601574 
L 216.881411 124.757425 
L 220.108324 120.781054 
L 223.173644 116.678821 
L 226.072467 112.457289 
L 228.800154 108.123212 
L 231.352343 103.683523 
L 233.72495 99.145326 
L 235.91418 94.515879 
L 237.91653 89.80259 
L 239.728797 85.012998 
L 241.348082 80.154766 
L 242.771794 75.235666 
L 243.997656 70.263568 
L 245.023706 65.246425 
L 245.306961 63.648 
L 246.269318 68.677749 
L 247.432041 73.66499 
L 248.793271 78.601745 
L 250.35083 83.480117 
L 252.102226 88.292301 
L 254.044656 93.030599 
L 256.175015 97.68743 
L 258.489893 102.255344 
L 260.985587 106.727035 
L 263.658105 111.095347 
L 266.50317 115.353292 
L 269.516233 119.49406 
L 272.692472 123.511025 
L 276.026806 127.397761 
L 279.513901 131.148051 
L 283.148178 134.755894 
L 286.923824 138.215518 
L 290.834797 141.52139 
L 294.874842 144.668221 
L 299.037494 147.650975 
L 303.316096 150.464882 
L 307.703801 153.10544 
L 312.193591 155.568424 
L 316.778282 157.849894 
L 321.450541 159.946201 
L 326.202892 161.85399 
L 331.027733 163.57021 
L 335.917345 165.092115 
L 340.863906 166.41727 
L 345.859502 167.543555 
L 350.896142 168.469169 
L 355.965768 169.192631 
L 361.430322 169.742562 
L 359.319998 174.408506 
L 357.39795 179.155108 
L 355.667252 183.974775 
L 354.130675 188.859796 
L 352.790675 193.802357 
L 352.586592 194.631228 
L 348.952075 198.23883 
L 345.464732 201.988888 
L 342.13014 205.875403 
L 338.953635 209.892158 
L 335.940298 214.032726 
L 333.09495 218.290483 
L 330.422143 222.658618 
L 327.926152 227.130143 
L 325.610971 231.697904 
L 323.480304 236.354593 
L 321.53756 241.092762 
L 319.785845 245.90483 
L 318.227963 250.783099 
L 316.866406 255.719764 
L 316.525744 257.090449 
L 312.891227 260.698051 
L 309.403884 264.448109 
L 306.069292 268.334624 
L 302.892787 272.351379 
L 299.87945 276.491947 
L 297.034102 280.749704 
L 294.19214 285.408 
L 291.5308 281.032869 
L 288.696631 276.767662 
L 285.694167 272.619203 
L 282.528209 268.59413 
L 279.203825 264.698881 
L 275.726331 260.939687 
L 272.10129 257.322563 
L 268.334504 253.853295 
L 264.431996 250.537434 
L 260.400011 247.380283 
L 256.244999 244.386895 
L 251.973607 241.562056 
L 247.592668 238.910288 
L 243.109191 236.435832 
L 238.530348 234.142646 
L 233.863465 232.034399 
L 229.116007 230.114464 
L 224.295571 228.385913 
L 219.409866 226.85151 
L 214.466709 225.513711 
L 209.474009 224.374656 
L 204.439753 223.436166 
L 199.371994 222.699743 
L 194.278839 222.166566 
L 189.168437 221.837488 
L 184.048963 221.713034 
L 178.928607 221.793404 
L 173.815561 222.078469 
L 168.718005 222.567774 
L 163.644093 223.260535 
L 158.601942 224.155644 
L 153.59962 225.25167 
L 148.645128 226.546858 
L 143.746393 228.039137 
L 139.805777 229.397591 
L 143.659322 226.024952 
L 147.374915 222.50091 
L 150.946612 218.831103 
L 154.368699 215.021402 
L 157.635701 211.077901 
L 160.742392 207.006909 
L 163.683801 202.814939 
L 166.455224 198.508697 
L 169.052226 194.095073 
L 171.470652 189.581126 
L 173.706635 184.974079 
L 175.756596 180.281301 
L 177.617257 175.510301 
L 179.28564 170.66871 
L 180.759076 165.764275 
L 182.035209 160.804841 
L 183.111997 155.798342 
L 183.987716 150.752788 
L 184.660967 145.67625 
L 185.130672 140.57685 
L 185.39608 135.462746 
L 185.456766 130.342119 
L 185.312632 125.223162 
L 184.963911 120.114062 
L 184.411158 115.022995 
L 183.65526 109.958104 
L 182.697425 104.927493 
L 181.539184 99.939208 
L 180.182393 95.001231 
L 178.62922 90.121461 
L 176.88215 85.307705 
L 174.94398 80.567663 
L 172.817808 75.908919 
L 170.507037 71.338925 
L 169.145013 68.841362 
L 174.263173 68.671224 
L 179.370434 68.296551 
L 184.458628 67.717942 
L 189.519613 66.936321 
L 194.545294 65.952941 
L 199.52763 64.769374 
L 203.584683 63.648 
L 208.525421 64.994703 
L 213.516061 66.142752 
L 218.548618 67.090311 
L 223.615042 67.835863 
L 228.707228 68.378215 
L 233.817029 68.716501 
L 238.93627 68.850179 
L 244.056762 68.779034 
L 249.170314 68.503182 
L 254.268744 68.023062 
L 259.343896 67.339444 
L 264.387651 66.453421 
L 269.39194 65.36641 
L 274.348757 64.08015 
L 275.851603 63.648 
L 280.792341 64.994703 
L 285.78298 66.142752 
L 290.815538 67.090311 
L 295.881962 67.835863 
L 300.974148 68.378215 
L 302.999173 68.536844 
L 300.848769 73.184452 
L 298.885941 77.914336 
L 297.113827 82.71893 
L 295.535263 87.590545 
L 294.152774 92.52139 
L 292.968573 97.503575 
L 291.984553 102.52913 
L 291.202289 107.590016 
L 290.623032 112.678136 
L 290.247708 117.78535 
L 290.076919 122.903487 
L 290.110938 128.024361 
L 290.34971 133.139777 
L 290.792853 138.241554 
L 291.439658 143.321529 
L 292.28909 148.371575 
L 293.339791 153.383614 
L 294.59008 158.349626 
L 296.037956 163.261668 
L 297.681103 168.111882 
L 299.516893 172.892507 
L 301.542388 177.595896 
L 303.754349 182.214525 
L 306.149236 186.741005 
L 308.723218 191.168094 
L 311.472178 195.48871 
L 314.391717 199.69594 
L 317.477166 203.783055 
L 320.723587 207.743516 
L 324.125788 211.570987 
L 327.678325 215.259344 
L 331.375516 218.802688 
L 335.211445 222.195348 
L 336.194987 223.022321 
L 331.355452 221.347983 
L 326.452833 219.868515 
L 321.494972 218.586282 
L 316.489802 217.503337 
L 311.445329 216.621411 
L 306.369623 215.941916 
L 301.270805 215.465939 
L 296.157031 215.19424 
L 291.036483 215.127256 
L 285.917352 215.265092 
L 280.807827 215.607529 
L 275.716084 216.154018 
L 270.650267 216.903685 
L 265.618481 217.855332 
L 262.21429 218.618519 
L 258.847143 222.476864 
L 255.636982 226.466772 
L 252.588942 230.581861 
L 249.7079 234.815547 
L 246.998466 239.161058 
L 244.464972 243.611442 
L 242.111473 248.159578 
L 239.941733 252.798191 
L 237.959224 257.51986 
L 236.167118 262.317032 
L 234.56828 267.182031 
L 233.165269 272.107076 
L 231.96033 277.084286 
L 230.95539 282.1057 
L 230.407383 285.408 
L 229.534062 280.36203 
L 228.459654 275.35502 
L 227.185878 270.39498 
L 225.714773 265.489845 
L 224.048691 260.647462 
L 222.190299 255.875578 
L 220.142568 251.181826 
L 217.908775 246.573717 
L 215.492494 242.058622 
L 212.89759 237.643763 
L 210.128215 233.336205 
L 207.188798 229.142837 
L 204.084042 225.070369 
L 200.818915 221.125316 
L 197.398639 217.313989 
L 193.828687 213.642484 
L 190.114769 210.116677 
L 186.262828 206.742207 
L 182.279024 203.524473 
L 178.169733 200.468622 
L 173.941527 197.579544 
L 169.60117 194.861859 
L 165.155607 192.319917 
L 160.61195 189.957783 
L 155.977466 187.779236 
L 151.259572 185.787761 
L 146.465813 183.986545 
L 141.603859 182.378469 
L 136.681489 180.966106 
L 131.706576 179.751715 
L 126.68708 178.737238 
L 121.631031 177.924299 
L 116.546517 177.314199 
L 111.441673 176.907913 
L 109.4412 176.804601 
L 111.713842 172.215527 
L 113.801153 167.539242 
L 115.699792 162.783228 
L 117.003187 159.153654 
L 120.2924 155.228661 
L 123.422025 151.175273 
L 126.387054 146.999976 
L 129.182744 142.709449 
L 131.804623 138.310557 
L 134.248495 133.810336 
L 136.510452 129.215986 
L 138.586874 124.534856 
L 140.474441 119.774437 
L 141.673251 116.423851 
L 144.962464 112.498857 
L 148.092089 108.445469 
L 151.057118 104.270172 
L 153.852808 99.979646 
L 156.474686 95.580753 
L 158.918559 91.080532 
L 161.180516 86.486182 
L 163.256938 81.805053 
L 165.144504 77.044633 
L 166.343314 73.694047 
L 169.632528 69.769053 
L 172.762153 65.715665 
L 174.261882 63.648 
L 177.310021 67.763015 
L 180.52028 71.752845 
L 183.887521 75.611107 
L 187.406358 79.33163 
L 191.071161 82.90846 
L 194.876068 86.335877 
L 198.814992 89.608396 
L 202.881631 92.720783 
L 207.069479 95.668058 
L 211.371837 98.445506 
L 215.781822 101.048684 
L 220.292379 103.473427 
L 224.896291 105.715857 
L 229.586194 107.772385 
L 234.354585 109.639723 
L 239.193836 111.314882 
L 244.096204 112.795182 
L 249.053846 114.078257 
L 254.058833 115.162052 
L 259.103156 116.044834 
L 264.178747 116.72519 
L 269.277484 117.202033 
L 274.391211 117.4746 
L 279.511748 117.542454 
L 284.630903 117.405487 
L 289.740485 117.063917 
L 294.832321 116.518293 
L 299.898265 115.769485 
L 304.930213 114.818693 
L 309.920114 113.667437 
L 314.859985 112.317559 
L 319.741925 110.771219 
L 324.558122 109.03089 
L 326.042975 108.44988 
L 322.086905 111.70165 
L 318.264036 115.10902 
L 314.580482 118.666539 
L 311.042139 122.368515 
L 307.654664 126.209025 
L 304.423479 130.181926 
L 301.353753 134.280863 
L 298.450395 138.499277 
L 295.718052 142.83042 
L 293.161093 147.267363 
L 290.78361 151.803008 
L 288.589407 156.4301 
L 286.581993 161.141234 
L 285.980124 162.663975 
L 289.852925 166.014485 
L 293.856613 169.207443 
L 297.984783 172.237743 
L 302.23083 175.100536 
L 306.587963 177.791243 
L 311.049209 180.305558 
L 315.607433 182.63946 
L 320.255341 184.789215 
L 324.9855 186.751383 
L 329.79034 188.522827 
L 334.662176 190.10071 
L 339.593213 191.48251 
L 344.575564 192.666016 
L 349.601256 193.649335 
L 352.850085 194.174844 
L 349.586002 190.228927 
L 346.166735 186.416695 
L 342.597755 182.744246 
L 338.88477 179.217455 
L 335.033722 175.841966 
L 331.05077 172.623178 
L 326.942288 169.566239 
L 322.714846 166.676042 
L 318.375209 163.957209 
L 313.930319 161.41409 
L 309.387287 159.050753 
L 304.753381 156.87098 
L 300.036013 154.878257 
L 295.242731 153.075772 
L 290.381203 151.466409 
L 285.459207 150.052743 
L 280.460024 148.831547 
L 281.875521 143.910076 
L 283.093079 138.935938 
L 284.110751 133.917089 
L 284.926908 128.861558 
L 285.540245 123.777434 
L 285.949781 118.672849 
L 286.15486 113.555971 
L 286.155155 108.434985 
L 285.950664 103.318083 
L 285.541716 98.213451 
L 284.928964 93.129256 
L 284.113388 88.073632 
L 283.096294 83.054666 
L 281.879308 78.080387 
L 280.464378 73.158754 
L 278.853766 68.29764 
L 277.107129 63.648 
L 275.309184 68.442987 
L 273.704426 73.306036 
L 272.295422 78.22937 
L 271.084425 83.20511 
L 270.073374 88.225297 
L 269.263886 93.281899 
L 268.657255 98.366828 
L 268.254452 103.471948 
L 268.056122 108.589093 
L 268.062581 113.710075 
L 268.273821 118.826703 
L 268.689501 123.93079 
L 269.308959 129.014173 
L 270.131202 134.068717 
L 270.632537 136.653945 
L 275.733768 137.103322 
L 280.84889 137.348344 
L 285.969718 137.38862 
L 291.08806 137.224086 
L 296.195729 136.855004 
L 301.284553 136.281965 
L 306.346391 135.505886 
L 311.373145 134.528008 
L 316.356773 133.349895 
L 321.289303 131.973433 
L 326.162844 130.400824 
L 330.969599 128.634582 
L 335.701879 126.677535 
L 336.391307 126.373717 
L 332.312027 129.469517 
L 328.359809 132.725968 
L 324.540976 136.137861 
L 320.861636 139.699737 
L 317.327677 143.405899 
L 313.944752 147.250416 
L 310.718272 151.22714 
L 307.653399 155.329707 
L 304.755037 159.551555 
L 302.027822 163.885929 
L 299.476118 168.325896 
L 297.104006 172.864353 
L 294.915281 177.494038 
L 292.913445 182.207546 
L 291.1017 186.997335 
L 289.482945 191.855744 
L 288.059769 196.774999 
L 286.83445 201.747231 
L 285.808947 206.764486 
L 284.9849 211.818737 
L 284.363629 216.901897 
L 283.946128 222.005836 
L 283.733063 227.122389 
L 283.724776 232.243368 
L 283.921281 237.360583 
L 284.322262 242.465847 
L 284.927079 247.550992 
L 285.734763 252.607883 
L 286.744023 257.62843 
L 287.953244 262.604602 
L 289.360492 267.528437 
L 290.963515 272.392059 
L 292.759748 277.187687 
L 294.746319 281.907649 
L 296.366272 285.408 
L 298.494115 280.750019 
L 300.433987 276.010673 
L 302.182784 271.197544 
L 303.737708 266.318332 
L 305.096271 261.380842 
L 306.256302 256.392974 
L 307.215942 251.362706 
L 307.973659 246.298087 
L 308.528238 241.207218 
L 308.878793 236.098244 
L 309.024763 230.979339 
L 308.965915 225.858691 
L 308.702343 220.744491 
L 308.234468 215.644923 
L 307.563039 210.568144 
L 306.68913 205.522276 
L 305.614139 200.515391 
L 304.339787 195.5555 
L 302.86811 190.650536 
L 301.201465 185.808347 
L 299.342517 181.036679 
L 297.29424 176.343166 
L 295.059911 171.735317 
L 292.643104 167.220502 
L 290.047686 162.805946 
L 287.277809 158.49871 
L 284.337904 154.305685 
L 281.26828 150.278403 
L 279.582333 145.4429 
L 277.704366 140.678686 
L 275.637384 135.99338 
L 273.384693 131.39448 
L 270.949896 126.889342 
L 268.33689 122.485174 
L 265.549854 118.18902 
L 262.593247 114.007755 
L 259.471799 109.948068 
L 256.190504 106.016452 
L 252.754611 102.219198 
L 249.169616 98.56238 
L 245.441255 95.051849 
L 241.575493 91.69322 
L 237.578514 88.491868 
L 233.456712 85.452913 
L 229.216681 82.581216 
L 224.865204 79.881373 
L 220.409243 77.357702 
L 215.855927 75.014241 
L 211.212539 72.854738 
L 206.486509 70.882648 
L 201.685396 69.101127 
L 196.816882 67.513024 
L 191.888755 66.12088 
L 186.908898 64.926923 
L 181.88528 63.933061 
L 180.211435 63.648 
L 175.175078 64.575154 
L 171.083816 65.483258 
L 172.640218 70.361999 
L 174.390472 75.174598 
L 176.331779 79.913356 
L 178.461034 84.570692 
L 180.774828 89.139155 
L 183.269462 93.611437 
L 185.940944 97.980383 
L 188.785 102.239003 
L 191.797081 106.380485 
L 194.972367 110.398203 
L 198.305779 114.285729 
L 201.791985 118.036846 
L 205.425407 121.64555 
L 209.200232 125.10607 
L 213.402148 128.649028 
L 213.150255 123.534241 
L 212.694027 118.433617 
L 212.034193 113.355318 
L 211.17181 108.307468 
L 210.108255 103.298141 
L 208.845232 98.335352 
L 207.384761 93.42704 
L 205.729178 88.581058 
L 203.881131 83.805157 
L 201.843577 79.106979 
L 199.619777 74.494039 
L 197.213286 69.973718 
L 194.627957 65.553246 
L 193.43882 63.648 
L 190.77635 68.022443 
L 188.29094 72.499857 
L 185.986567 77.07308 
L 183.866917 81.734795 
L 181.935382 86.477545 
L 180.195051 91.293741 
L 178.648709 96.17568 
L 177.298829 101.115551 
L 176.147571 106.105452 
L 175.196777 111.137399 
L 174.447967 116.203343 
L 173.90234 121.295179 
L 173.560769 126.404761 
L 173.4238 131.523915 
L 173.491652 136.644452 
L 173.764216 141.75818 
L 174.241057 146.856917 
L 174.921412 151.932508 
L 175.804192 156.976832 
L 176.887985 161.981819 
L 178.171057 166.939462 
L 179.651356 171.841831 
L 181.326513 176.681082 
L 183.193848 181.449473 
L 185.250375 186.139377 
L 187.492803 190.743291 
L 187.753566 191.249752 
L 188.808675 196.260864 
L 190.063331 201.225775 
L 191.515527 206.136542 
L 193.16294 210.985308 
L 195.002934 215.764317 
L 197.032566 220.465923 
L 199.248588 225.082604 
L 201.647455 229.606975 
L 204.225331 234.031799 
L 206.97809 238.349995 
L 209.901329 242.554656 
L 212.990371 246.639056 
L 216.240275 250.596659 
L 219.645841 254.421136 
L 223.201621 258.106367 
L 226.901927 261.646457 
L 230.740839 265.035743 
L 234.712216 268.268802 
L 238.809703 271.340462 
L 243.026747 274.245809 
L 247.356601 276.980196 
L 251.792337 279.539247 
L 256.32686 281.918869 
L 260.952916 284.115256 
L 263.922175 285.408 
L 268.602301 283.329318 
L 273.195559 281.065144 
L 277.6946 278.6191 
L 282.092226 275.995099 
L 286.381403 273.197338 
L 290.555268 270.230294 
L 294.607145 267.098713 
L 298.530551 263.807605 
L 302.319209 260.362236 
L 305.967058 256.768116 
L 309.468264 253.030997 
L 312.817223 249.156855 
L 316.00858 245.15189 
L 319.037228 241.022509 
L 321.898322 236.775316 
L 324.587285 232.417108 
L 327.099816 227.954856 
L 329.431894 223.395699 
L 331.579789 218.74693 
L 333.540065 214.015988 
L 335.309585 209.210439 
L 336.88552 204.337972 
L 338.265347 199.406382 
L 339.446859 194.423559 
L 340.428167 189.397473 
L 341.2077 184.336166 
L 341.784211 179.247734 
L 342.156778 174.140318 
L 342.324805 169.022089 
L 342.288022 163.901235 
L 342.04649 158.785948 
L 341.600594 153.684411 
L 340.951047 148.604786 
L 340.098889 143.555199 
L 339.045484 138.543728 
L 337.792515 133.578391 
L 336.341988 128.667131 
L 334.696224 123.817805 
L 334.314107 122.7759 
L 330.970847 118.896839 
L 327.47514 115.154575 
L 323.832578 111.555096 
L 320.04899 108.10416 
L 316.130427 104.807287 
L 312.08316 101.669752 
L 307.913661 98.696575 
L 303.628603 95.892511 
L 299.234839 93.262047 
L 294.739399 90.80939 
L 290.149475 88.538465 
L 285.47241 86.452905 
L 280.715686 84.556045 
L 275.886912 82.850921 
L 270.993814 81.340261 
L 266.04422 80.02648 
L 261.046048 78.911681 
L 256.007294 77.997648 
L 250.936018 77.285842 
L 245.840335 76.777402 
L 240.728395 76.473143 
L 235.608377 76.373549 
L 230.488472 76.478781 
L 225.376871 76.788671 
L 220.28175 77.302723 
L 215.211262 78.020113 
L 210.173517 78.939696 
L 205.176576 80.059999 
L 200.228431 81.37923 
L 195.337 82.895278 
L 190.510108 84.60572 
L 185.755475 86.507817 
L 181.08071 88.598527 
L 176.49329 90.874506 
L 172.000554 93.332112 
L 167.60969 95.967414 
L 163.327723 98.776195 
L 159.161501 101.753963 
L 155.117691 104.895954 
L 151.202762 108.19714 
L 147.422977 111.652241 
L 143.784382 115.25573 
L 139.98685 119.344783 
L 138.470846 124.236228 
L 137.151661 129.184384 
L 136.031404 134.181336 
L 135.111868 139.219089 
L 134.394524 144.289584 
L 133.88052 149.384709 
L 133.570677 154.496314 
L 133.465492 159.61622 
L 133.565133 164.736237 
L 133.86944 169.848174 
L 134.377927 174.943853 
L 135.089779 180.015121 
L 136.003859 185.053867 
L 137.118704 190.052029 
L 138.43253 195.001611 
L 139.943236 199.894695 
L 141.648405 204.723453 
L 143.545308 209.48016 
L 145.630912 214.157206 
L 147.901879 218.747109 
L 150.354577 223.242526 
L 152.985082 227.636265 
L 155.789185 231.921298 
L 158.762402 236.090769 
L 161.899974 240.138008 
L 165.196883 244.05654 
L 168.647854 247.840096 
L 172.247366 251.482624 
L 175.989662 254.978297 
L 179.868754 258.321521 
L 183.878436 261.506949 
L 188.012294 264.529484 
L 192.263715 267.384291 
L 196.625897 270.066803 
L 201.091861 272.572729 
L 205.654464 274.898059 
L 210.306405 277.039074 
L 215.040243 278.992348 
L 219.848404 280.754757 
L 224.723197 282.323481 
L 229.656823 283.69601 
L 234.641389 284.87015 
L 237.283736 285.408 
L 242.291924 284.339096 
L 247.253361 283.070774 
L 252.16011 281.605061 
L 257.004322 279.944303 
L 261.778246 278.091157 
L 266.474245 276.048587 
L 271.084807 273.81986 
L 275.602556 271.408544 
L 280.020264 268.818494 
L 284.330864 266.053855 
L 288.52746 263.119049 
L 292.603338 260.018772 
L 296.551978 256.757983 
L 300.367063 253.341899 
L 304.042489 249.775985 
L 307.572376 246.065945 
L 310.951078 242.217715 
L 314.173189 238.237451 
L 317.233555 234.13152 
L 320.127279 229.906492 
L 322.849733 225.569126 
L 325.396561 221.12636 
L 327.763688 216.585302 
L 329.947328 211.953216 
L 331.943987 207.237513 
L 333.750471 202.445737 
L 335.36389 197.585554 
L 336.781663 192.664739 
L 338.001522 187.691164 
L 339.021515 182.672786 
L 339.840011 177.617634 
L 340.4557 172.533794 
L 340.867597 167.429399 
L 341.075044 162.312616 
L 341.077707 157.19163 
L 340.875584 152.074634 
L 340.468997 146.969814 
L 339.858597 141.885337 
L 339.04536 136.829335 
L 338.030588 131.809899 
L 336.94856 127.338907 
L 333.233191 123.814629 
L 329.379861 120.441746 
L 325.394733 117.225652 
L 321.284184 114.171493 
L 317.054789 111.284156 
L 312.713314 108.568259 
L 308.266705 106.028146 
L 303.722075 103.667883 
L 299.086695 101.491244 
L 294.367981 99.501713 
L 289.573481 97.70247 
L 284.710866 96.096396 
L 279.787914 94.686059 
L 274.812502 93.473716 
L 269.792589 92.461307 
L 264.736205 91.65045 
L 259.651441 91.042442 
L 254.54643 90.638258 
L 249.429339 90.438543 
L 244.308355 90.443617 
L 239.191671 90.653471 
L 234.087471 91.067771 
L 229.003921 91.685852 
L 223.949154 92.506727 
L 218.931257 93.529082 
L 213.958257 94.751282 
L 209.03811 96.171371 
L 204.178687 97.787077 
L 199.387761 99.595816 
L 194.672999 101.594694 
L 190.041941 103.780514 
L 185.501997 106.149778 
L 181.06043 108.698696 
L 176.724346 111.423191 
L 172.50068 114.318904 
L 168.396191 117.381201 
L 164.417443 120.605186 
L 160.570804 123.985698 
L 156.862426 127.517332 
L 153.298242 131.194435 
L 149.883953 135.011127 
L 146.625023 138.961302 
L 143.526665 143.038638 
L 140.593834 147.236615 
L 137.831224 151.548516 
L 135.243254 155.967442 
L 132.834064 160.486325 
L 130.607508 165.097936 
L 128.567148 169.794896 
L 126.716249 174.569692 
L 125.057771 179.414684 
L 123.594368 184.322123 
L 122.32838 189.284156 
L 121.261834 194.292847 
L 120.847301 196.560546 
L 125.688978 198.228678 
L 130.59349 199.70186 
L 135.55299 200.977735 
L 140.559545 202.054262 
L 145.605145 202.92972 
L 150.681717 203.602708 
L 155.781141 204.072148 
L 160.895259 204.33729 
L 166.015889 204.39771 
L 171.134839 204.253311 
L 176.243921 203.904324 
L 181.334959 203.351307 
L 186.399811 202.595146 
L 191.430373 201.637049 
L 192.558911 201.393311 
L 189.40469 205.427588 
L 186.41432 209.584773 
L 183.592586 213.858216 
L 180.944 218.24108 
L 178.472801 222.726353 
L 176.182942 227.306861 
L 174.078085 231.975274 
L 172.161599 236.724125 
L 170.43655 241.545816 
L 168.905696 246.432634 
L 167.571488 251.376761 
L 166.436059 256.370287 
L 165.501227 261.405224 
L 164.768485 266.473516 
L 164.228084 271.698267 
L 168.901808 273.791304 
L 173.655493 275.695767 
L 178.481534 277.40861 
L 183.37221 278.927093 
L 188.319697 280.248787 
L 193.31608 281.371577 
L 198.353367 282.293666 
L 203.423497 283.01358 
L 208.518361 283.530168 
L 213.629808 283.842601 
L 218.74966 283.950382 
L 223.869727 283.853337 
L 228.981817 283.551621 
L 234.077753 283.045718 
L 239.149382 282.336436 
L 244.188591 281.42491 
L 249.187317 280.312599 
L 254.137565 279.001282 
L 259.031414 277.493057 
L 263.861035 275.790337 
L 268.618703 273.895845 
L 273.296806 271.812612 
L 277.887859 269.543972 
L 282.384519 267.093553 
L 286.779592 264.465276 
L 291.066045 261.663345 
L 295.237023 258.692243 
L 299.285852 255.556723 
L 303.206055 252.261801 
L 306.99136 248.812748 
L 310.635713 245.215083 
L 314.133282 241.47456 
L 317.478472 237.597163 
L 320.665932 233.589096 
L 323.690562 229.456771 
L 326.547524 225.206798 
L 329.232247 220.845976 
L 331.740437 216.381283 
L 334.06808 211.81986 
L 336.211452 207.169005 
L 338.167126 202.436158 
L 339.931972 197.62889 
L 341.503167 192.754893 
L 342.878197 187.821963 
L 344.054863 182.837993 
L 345.031282 177.810955 
L 345.805892 172.748892 
L 346.377454 167.659903 
L 346.745053 162.552127 
L 346.908102 157.433737 
L 346.866339 152.312921 
L 346.619832 147.197871 
L 346.320469 143.571528 
L 342.094442 140.679263 
L 337.756135 137.958307 
L 333.31249 135.413014 
L 328.770615 133.047455 
L 324.137775 130.865415 
L 319.421383 128.870384 
L 314.628983 127.065555 
L 309.768243 125.453814 
L 304.846939 124.03774 
L 299.872943 122.819599 
L 294.854214 121.801338 
L 289.798779 120.984588 
L 284.714727 120.370655 
L 279.61019 119.96052 
L 274.493336 119.754841 
L 269.37235 119.753946 
L 264.255424 119.957836 
L 259.150744 120.366185 
L 254.066478 120.978341 
L 249.010758 121.793324 
L 243.991672 122.809829 
L 240.918852 123.536303 
L 236.223515 121.49221 
L 231.450193 119.637515 
L 226.60652 117.975186 
L 221.700247 116.507882 
L 216.739221 115.23795 
L 211.73138 114.167422 
L 206.684735 113.29801 
L 201.60736 112.631106 
L 196.507377 112.167777 
L 191.392945 111.908763 
L 186.272246 111.854478 
L 181.153473 112.005011 
L 176.044813 112.360119 
L 170.954441 112.919236 
L 165.890499 113.681465 
L 160.861089 114.645589 
L 155.874256 115.810064 
L 150.937979 117.173028 
L 146.060154 118.7323 
L 141.248586 120.485386 
L 138.75302 121.481838 
L 139.534546 126.542838 
L 140.517832 131.568537 
L 141.701307 136.550895 
L 143.083075 141.481941 
L 144.660928 146.353787 
L 146.432341 151.158639 
L 148.39448 155.888809 
L 150.544205 160.536732 
L 152.878078 165.09497 
L 155.392365 169.556233 
L 158.083044 173.913382 
L 160.945811 178.159447 
L 163.976084 182.287636 
L 167.169018 186.291344 
L 170.519502 190.164166 
L 174.022179 193.899907 
L 177.671443 197.49259 
L 181.461458 200.936468 
L 185.386159 204.22603 
L 189.439268 207.356015 
L 193.614302 210.321416 
L 197.90458 213.117487 
L 202.303239 215.739757 
L 206.803243 218.18403 
L 211.397392 220.446395 
L 216.078336 222.523234 
L 220.838588 224.411223 
L 225.670532 226.107343 
L 230.566437 227.60888 
L 235.518471 228.913433 
L 240.518713 230.018913 
L 245.559162 230.923552 
L 250.631756 231.625904 
L 255.728378 232.124844 
L 260.840876 232.419574 
L 265.961071 232.509624 
L 271.080771 232.394848 
L 276.191786 232.075431 
L 281.285939 231.551883 
L 286.355082 230.825042 
L 291.391103 229.896071 
L 296.385948 228.766455 
L 301.331624 227.438003 
L 306.220221 225.912839 
L 311.043917 224.193403 
L 315.794995 222.282447 
L 320.465855 220.183026 
L 325.049025 217.8985 
L 329.537172 215.432524 
L 333.923116 212.789042 
L 338.199841 209.972284 
L 342.360504 206.986755 
L 346.39845 203.837232 
L 348.068924 202.456059 
L 348.863273 197.397056 
L 349.454682 192.310334 
L 349.842202 187.204031 
L 350.025215 182.086316 
L 350.003428 176.965376 
L 349.776875 171.849403 
L 349.345919 166.746583 
L 348.711249 161.665077 
L 347.873881 156.613017 
L 346.835154 151.598483 
L 345.59673 146.629498 
L 344.160591 141.714012 
L 342.664128 137.238562 
L 339.264071 133.409187 
L 335.713599 129.718842 
L 332.018392 126.173429 
L 328.184363 122.778621 
L 324.217644 119.539849 
L 320.124582 116.462294 
L 315.911724 113.55088 
L 311.585811 110.810264 
L 307.153763 108.24483 
L 302.62267 105.858683 
L 297.999781 103.65564 
L 293.292491 101.639226 
L 288.508332 99.812666 
L 283.654956 98.178882 
L 278.740129 96.740489 
L 273.771713 95.499786 
L 268.757656 94.45876 
L 263.70598 93.619075 
L 258.624766 92.982075 
L 253.522144 92.548779 
L 248.406276 92.31988 
L 243.285346 92.295745 
L 238.167548 92.476411 
L 233.061068 92.86159 
L 227.974075 93.450665 
L 222.914709 94.242695 
L 217.891062 95.236412 
L 212.911171 96.430227 
L 207.983004 97.822229 
L 203.114444 99.410192 
L 198.31328 101.191575 
L 193.587193 103.163528 
L 188.943743 105.322897 
L 184.390359 107.666227 
L 179.934325 110.18977 
L 175.582771 112.889488 
L 171.342658 115.761062 
L 167.220768 118.799899 
L 163.223697 122.001137 
L 159.357838 125.359654 
L 155.629376 128.870077 
L 152.044276 132.526792 
L 148.608273 136.323947 
L 145.326865 140.255468 
L 142.2053 144.315066 
L 139.248573 148.496246 
L 136.461414 152.792319 
L 133.848281 157.196413 
L 131.413354 161.701481 
L 129.160531 166.300316 
L 127.093414 170.985562 
L 125.21531 175.749723 
L 123.529224 180.585177 
L 122.037853 185.484188 
L 120.743583 190.43892 
L 119.791204 194.731333 
L 124.679774 196.256582 
L 129.625427 197.58512 
L 134.620252 198.714822 
L 139.656258 199.643881 
L 144.725387 200.37081 
L 149.819532 200.894447 
L 154.930541 201.213953 
L 160.050239 201.328818 
L 165.170435 201.238857 
L 170.282939 200.944216 
L 175.37957 200.445364 
L 180.452175 199.743101 
L 185.49264 198.838549 
L 190.504244 197.730409 
L 186.66345 201.117562 
L 182.961179 204.655597 
L 179.403353 208.338853 
L 175.995664 212.161438 
L 172.743563 216.117237 
L 169.652253 220.19992 
L 166.72668 224.402958 
L 163.971524 228.719625 
L 161.391192 233.143016 
L 158.989812 237.666055 
L 156.771227 242.281505 
L 154.738985 246.981983 
L 152.827117 251.951212 
L 157.885032 252.752462 
L 162.970942 253.350808 
L 168.076711 253.745293 
L 173.194172 253.935286 
L 178.315137 253.920483 
L 183.431414 253.700908 
L 188.534818 253.276913 
L 193.617184 252.649175 
L 198.670382 251.818698 
L 203.686328 250.786812 
L 208.656997 249.555167 
L 213.574438 248.125733 
L 218.430783 246.500797 
L 223.218263 244.68296 
L 227.92922 242.675128 
L 232.556116 240.480514 
L 237.091551 238.102629 
L 241.528267 235.545277 
L 245.859168 232.81255 
L 250.077325 229.908818 
L 254.175989 226.838728 
L 258.148604 223.607191 
L 261.988814 220.219376 
L 265.690476 216.680704 
L 266.794937 215.56823 
L 271.270908 213.080222 
L 275.643805 210.415213 
L 279.906632 207.577466 
L 284.05257 204.571522 
L 288.074986 201.402188 
L 291.967444 198.074536 
L 295.723719 194.593889 
L 299.3378 190.965816 
L 302.803906 187.196119 
L 306.116492 183.290831 
L 309.270258 179.256198 
L 312.26016 175.098676 
L 315.081413 170.824915 
L 317.729505 166.441753 
L 320.200198 161.956201 
L 322.489541 157.375436 
L 324.593872 152.706786 
L 326.509822 147.957719 
L 328.234329 143.135833 
L 329.764631 138.248843 
L 331.098283 133.304566 
L 332.233149 128.310912 
L 333.167414 123.275869 
L 333.474301 121.321313 
L 328.673669 119.538495 
L 323.805585 117.949076 
L 318.877834 116.555601 
L 313.898301 115.360297 
L 308.874951 114.365078 
L 303.815821 113.571535 
L 298.729005 112.980939 
L 293.622641 112.594233 
L 288.504896 112.412036 
L 283.38396 112.434641 
L 278.268024 112.66201 
L 273.165272 113.09378 
L 268.083868 113.729261 
L 263.031941 114.567435 
L 258.017573 115.606962 
L 253.048786 116.846178 
L 248.133529 118.283102 
L 243.279665 119.915435 
L 238.49496 121.740564 
L 234.728461 123.334733 
L 234.728461 123.334733 
" style="fill:none;stroke:#1f77b4;stroke-linecap:square;stroke-width:1.5;"/>
   </g>
   <g id="patch_4">
    <path d="M 82.520165 307.584 
L 82.520165 41.472 
" style="fill:none;stroke:#000000;stroke-linecap:square;stroke-linejoin:miter;stroke-width:0.8;"/>
   </g>
   <g id="patch_5">
    <path d="M 389.799835 307.584 
L 389.799835 41.472 
" style="fill:none;stroke:#000000;stroke-linecap:square;stroke-linejoin:miter;stroke-width:0.8;"/>
   </g>
   <g id="patch_6">
    <path d="M 82.520165 307.584 
L 389.799835 307.584 
" style="fill:none;stroke:#000000;stroke-linecap:square;stroke-linejoin:miter;stroke-width:0.8;"/>
   </g>
   <g id="patch_7">
    <path d="M 82.520165 41.472 
L 389.799835 41.472 
" style="fill:none;stroke:#000000;stroke-linecap:square;stroke-linejoin:miter;stroke-width:0.8;"/>
   </g>
   <g id="PathCollection_1">
    <defs>
     <path d="M 0 2.236068 
C 0.593012 2.236068 1.161816 2.000462 1.581139 1.581139 
C 2.000462 1.161816 2.236068 0.593012 2.236068 0 
C 2.236068 -0.593012 2.000462 -1.161816 1.581139 -1.581139 
C 1.161816 -2.000462 0.593012 -2.236068 0 -2.236068 
C -0.593012 -2.236068 -1.161816 -2.000462 -1.581139 -1.581139 
C -2.000462 -1.161816 -2.236068 -0.593012 -2.236068 0 
C -2.236068 0.593012 -2.000462 1.161816 -1.581139 1.581139 
C -1.161816 2.000462 -0.593012 2.236068 0 2.236068 
z
" id="m3ecfee0429" style="stroke:#000000;"/>
    </defs>
    <g clip-path="url(#pca66ee0791)">
     <use style="stroke:#000000;" x="234.728461" xlink:href="#m3ecfee0429" y="123.334733"/>
    </g>
   </g>
   <g id="Quiver_1">
    <path clip-path="url(#pca66ee0791)" d="M 234.51171 123.9098 
L 228.185971 121.52554 
L 228.327537 122.892425 
L 223.227118 118.999714 
L 229.628042 119.442022 
L 228.619473 120.375405 
L 234.945212 122.759666 
L 234.51171 123.9098 
"/>
   </g>
  </g>
 </g>
 <defs>
  <clipPath id="pca66ee0791">
   <rect height="266.112" width="307.27967" x="82.520165" y="41.472"/>
  </clipPath>
 </defs>
</svg>
