<?xml version="1.0" encoding="utf-8" standalone="no"?>
<!DOCTYPE svg PUBLIC "-//W3C//DTD SVG 1.1//EN"
  "http://www.w3.org/Graphics/SVG/1.1/DTD/svg11.dtd">
<!-- Created with matplotlib (https://matplotlib.org/) -->
<svg height="345.6pt" version="1.1" viewBox="0 0 460.8 345.6" width="460.8pt" xmlns="http://www.w3.org/2000/svg" xmlns:xlink="http://www.w3.org/1999/xlink">
 <defs>
  <style type="text/css">
*{stroke-linecap:butt;stroke-linejoin:round;}
  </style>
 </defs>
 <g id="figure_1">
  <g id="patch_1">
   <path d="M 0 345.6 
L 460.8 345.6 
L 460.8 0 
L 0 0 
z
" style="fill:#ffffff;"/>
  </g>
  <g id="axes_1">
   <g id="patch_2">
    <path d="M 57.6 263.808 
L 414.72 263.808 
L 414.72 85.248 
L 57.6 85.248 
z
" style="fill:#ffffff;"/>
   </g>
   <g id="PathCollection_1">
    <defs>
     <path d="M 0 3 
C 0.795609 3 1.55874 2.683901 2.12132 2.12132 
C 2.683901 1.55874 3 0.795609 3 0 
C 3 -0.795609 2.683901 -1.55874 2.12132 -2.12132 
C 1.55874 -2.683901 0.795609 -3 0 -3 
C -0.795609 -3 -1.55874 -2.683901 -2.12132 -2.12132 
C -2.683901 -1.55874 -3 -0.795609 -3 0 
C -3 0.795609 -2.683901 1.55874 -2.12132 2.12132 
C -1.55874 2.683901 -0.795609 3 0 3 
z
" id="md5fd65bbfb" style="stroke:#000000;"/>
    </defs>
    <g clip-path="url(#pd44f64412e)">
     <use style="stroke:#000000;" x="135.246457" xlink:href="#md5fd65bbfb" y="101.136054"/>
    </g>
   </g>
   <g id="patch_3">
    <path clip-path="url(#pd44f64412e)" d="M 161.76 211.728 
C 171.625555 211.728 181.088371 207.808373 188.064372 200.832372 
C 195.040373 193.856371 198.96 184.393555 198.96 174.528 
C 198.96 164.662445 195.040373 155.199629 188.064372 148.223628 
C 181.088371 141.247627 171.625555 137.328 161.76 137.328 
C 151.894445 137.328 142.431629 141.247627 135.455628 148.223628 
C 128.479627 155.199629 124.56 164.662445 124.56 174.528 
C 124.56 184.393555 128.479627 193.856371 135.455628 200.832372 
C 142.431629 207.808373 151.894445 211.728 161.76 211.728 
z
" style="fill:#cc0000;fill-opacity:0.1;stroke:#cc0000;stroke-dasharray:7.4,3.2;stroke-dashoffset:0;stroke-linejoin:miter;stroke-width:2;"/>
   </g>
   <g id="patch_4">
    <path clip-path="url(#pd44f64412e)" d="M 310.56 196.848 
C 316.479333 196.848 322.157023 194.496224 326.342623 190.310623 
C 330.528224 186.125023 332.88 180.447333 332.88 174.528 
C 332.88 168.608667 330.528224 162.930977 326.342623 158.745377 
C 322.157023 154.559776 316.479333 152.208 310.56 152.208 
C 304.640667 152.208 298.962977 154.559776 294.777377 158.745377 
C 290.591776 162.930977 288.24 168.608667 288.24 174.528 
C 288.24 180.447333 290.591776 186.125023 294.777377 190.310623 
C 298.962977 194.496224 304.640667 196.848 310.56 196.848 
z
" style="fill:#cc0000;fill-opacity:0.1;stroke:#cc0000;stroke-dasharray:7.4,3.2;stroke-dashoffset:0;stroke-linejoin:miter;stroke-width:2;"/>
   </g>
   <g id="matplotlib.axis_1">
    <g id="xtick_1">
     <g id="line2d_1">
      <defs>
       <path d="M 0 0 
L 0 3.5 
" id="m91657331a9" style="stroke:#000000;stroke-width:0.8;"/>
      </defs>
      <g>
       <use style="stroke:#000000;stroke-width:0.8;" x="87.36" xlink:href="#m91657331a9" y="263.808"/>
      </g>
     </g>
     <g id="text_1">
      <!-- 0.0 -->
      <defs>
       <path d="M 31.78125 66.40625 
Q 24.171875 66.40625 20.328125 58.90625 
Q 16.5 51.421875 16.5 36.375 
Q 16.5 21.390625 20.328125 13.890625 
Q 24.171875 6.390625 31.78125 6.390625 
Q 39.453125 6.390625 43.28125 13.890625 
Q 47.125 21.390625 47.125 36.375 
Q 47.125 51.421875 43.28125 58.90625 
Q 39.453125 66.40625 31.78125 66.40625 
z
M 31.78125 74.21875 
Q 44.046875 74.21875 50.515625 64.515625 
Q 56.984375 54.828125 56.984375 36.375 
Q 56.984375 17.96875 50.515625 8.265625 
Q 44.046875 -1.421875 31.78125 -1.421875 
Q 19.53125 -1.421875 13.0625 8.265625 
Q 6.59375 17.96875 6.59375 36.375 
Q 6.59375 54.828125 13.0625 64.515625 
Q 19.53125 74.21875 31.78125 74.21875 
z
" id="DejaVuSans-48"/>
       <path d="M 10.6875 12.40625 
L 21 12.40625 
L 21 0 
L 10.6875 0 
z
" id="DejaVuSans-46"/>
      </defs>
      <g transform="translate(79.408438 278.406437)scale(0.1 -0.1)">
       <use xlink:href="#DejaVuSans-48"/>
       <use x="63.623047" xlink:href="#DejaVuSans-46"/>
       <use x="95.410156" xlink:href="#DejaVuSans-48"/>
      </g>
     </g>
    </g>
    <g id="xtick_2">
     <g id="line2d_2">
      <g>
       <use style="stroke:#000000;stroke-width:0.8;" x="161.76" xlink:href="#m91657331a9" y="263.808"/>
      </g>
     </g>
     <g id="text_2">
      <!-- 0.5 -->
      <defs>
       <path d="M 10.796875 72.90625 
L 49.515625 72.90625 
L 49.515625 64.59375 
L 19.828125 64.59375 
L 19.828125 46.734375 
Q 21.96875 47.46875 24.109375 47.828125 
Q 26.265625 48.1875 28.421875 48.1875 
Q 40.625 48.1875 47.75 41.5 
Q 54.890625 34.8125 54.890625 23.390625 
Q 54.890625 11.625 47.5625 5.09375 
Q 40.234375 -1.421875 26.90625 -1.421875 
Q 22.3125 -1.421875 17.546875 -0.640625 
Q 12.796875 0.140625 7.71875 1.703125 
L 7.71875 11.625 
Q 12.109375 9.234375 16.796875 8.0625 
Q 21.484375 6.890625 26.703125 6.890625 
Q 35.15625 6.890625 40.078125 11.328125 
Q 45.015625 15.765625 45.015625 23.390625 
Q 45.015625 31 40.078125 35.4375 
Q 35.15625 39.890625 26.703125 39.890625 
Q 22.75 39.890625 18.8125 39.015625 
Q 14.890625 38.140625 10.796875 36.28125 
z
" id="DejaVuSans-53"/>
      </defs>
      <g transform="translate(153.808437 278.406437)scale(0.1 -0.1)">
       <use xlink:href="#DejaVuSans-48"/>
       <use x="63.623047" xlink:href="#DejaVuSans-46"/>
       <use x="95.410156" xlink:href="#DejaVuSans-53"/>
      </g>
     </g>
    </g>
    <g id="xtick_3">
     <g id="line2d_3">
      <g>
       <use style="stroke:#000000;stroke-width:0.8;" x="236.16" xlink:href="#m91657331a9" y="263.808"/>
      </g>
     </g>
     <g id="text_3">
      <!-- 1.0 -->
      <defs>
       <path d="M 12.40625 8.296875 
L 28.515625 8.296875 
L 28.515625 63.921875 
L 10.984375 60.40625 
L 10.984375 69.390625 
L 28.421875 72.90625 
L 38.28125 72.90625 
L 38.28125 8.296875 
L 54.390625 8.296875 
L 54.390625 0 
L 12.40625 0 
z
" id="DejaVuSans-49"/>
      </defs>
      <g transform="translate(228.208437 278.406437)scale(0.1 -0.1)">
       <use xlink:href="#DejaVuSans-49"/>
       <use x="63.623047" xlink:href="#DejaVuSans-46"/>
       <use x="95.410156" xlink:href="#DejaVuSans-48"/>
      </g>
     </g>
    </g>
    <g id="xtick_4">
     <g id="line2d_4">
      <g>
       <use style="stroke:#000000;stroke-width:0.8;" x="310.56" xlink:href="#m91657331a9" y="263.808"/>
      </g>
     </g>
     <g id="text_4">
      <!-- 1.5 -->
      <g transform="translate(302.608437 278.406437)scale(0.1 -0.1)">
       <use xlink:href="#DejaVuSans-49"/>
       <use x="63.623047" xlink:href="#DejaVuSans-46"/>
       <use x="95.410156" xlink:href="#DejaVuSans-53"/>
      </g>
     </g>
    </g>
    <g id="xtick_5">
     <g id="line2d_5">
      <g>
       <use style="stroke:#000000;stroke-width:0.8;" x="384.96" xlink:href="#m91657331a9" y="263.808"/>
      </g>
     </g>
     <g id="text_5">
      <!-- 2.0 -->
      <defs>
       <path d="M 19.1875 8.296875 
L 53.609375 8.296875 
L 53.609375 0 
L 7.328125 0 
L 7.328125 8.296875 
Q 12.9375 14.109375 22.625 23.890625 
Q 32.328125 33.6875 34.8125 36.53125 
Q 39.546875 41.84375 41.421875 45.53125 
Q 43.3125 49.21875 43.3125 52.78125 
Q 43.3125 58.59375 39.234375 62.25 
Q 35.15625 65.921875 28.609375 65.921875 
Q 23.96875 65.921875 18.8125 64.3125 
Q 13.671875 62.703125 7.8125 59.421875 
L 7.8125 69.390625 
Q 13.765625 71.78125 18.9375 73 
Q 24.125 74.21875 28.421875 74.21875 
Q 39.75 74.21875 46.484375 68.546875 
Q 53.21875 62.890625 53.21875 53.421875 
Q 53.21875 48.921875 51.53125 44.890625 
Q 49.859375 40.875 45.40625 35.40625 
Q 44.1875 33.984375 37.640625 27.21875 
Q 31.109375 20.453125 19.1875 8.296875 
z
" id="DejaVuSans-50"/>
      </defs>
      <g transform="translate(377.008437 278.406437)scale(0.1 -0.1)">
       <use xlink:href="#DejaVuSans-50"/>
       <use x="63.623047" xlink:href="#DejaVuSans-46"/>
       <use x="95.410156" xlink:href="#DejaVuSans-48"/>
      </g>
     </g>
    </g>
   </g>
   <g id="matplotlib.axis_2">
    <g id="ytick_1">
     <g id="line2d_6">
      <defs>
       <path d="M 0 0 
L -3.5 0 
" id="m34313eb871" style="stroke:#000000;stroke-width:0.8;"/>
      </defs>
      <g>
       <use style="stroke:#000000;stroke-width:0.8;" x="57.6" xlink:href="#m34313eb871" y="248.928"/>
      </g>
     </g>
     <g id="text_6">
      <!-- 0.0 -->
      <g transform="translate(34.696875 252.727219)scale(0.1 -0.1)">
       <use xlink:href="#DejaVuSans-48"/>
       <use x="63.623047" xlink:href="#DejaVuSans-46"/>
       <use x="95.410156" xlink:href="#DejaVuSans-48"/>
      </g>
     </g>
    </g>
    <g id="ytick_2">
     <g id="line2d_7">
      <g>
       <use style="stroke:#000000;stroke-width:0.8;" x="57.6" xlink:href="#m34313eb871" y="219.168"/>
      </g>
     </g>
     <g id="text_7">
      <!-- 0.2 -->
      <g transform="translate(34.696875 222.967219)scale(0.1 -0.1)">
       <use xlink:href="#DejaVuSans-48"/>
       <use x="63.623047" xlink:href="#DejaVuSans-46"/>
       <use x="95.410156" xlink:href="#DejaVuSans-50"/>
      </g>
     </g>
    </g>
    <g id="ytick_3">
     <g id="line2d_8">
      <g>
       <use style="stroke:#000000;stroke-width:0.8;" x="57.6" xlink:href="#m34313eb871" y="189.408"/>
      </g>
     </g>
     <g id="text_8">
      <!-- 0.4 -->
      <defs>
       <path d="M 37.796875 64.3125 
L 12.890625 25.390625 
L 37.796875 25.390625 
z
M 35.203125 72.90625 
L 47.609375 72.90625 
L 47.609375 25.390625 
L 58.015625 25.390625 
L 58.015625 17.1875 
L 47.609375 17.1875 
L 47.609375 0 
L 37.796875 0 
L 37.796875 17.1875 
L 4.890625 17.1875 
L 4.890625 26.703125 
z
" id="DejaVuSans-52"/>
      </defs>
      <g transform="translate(34.696875 193.207219)scale(0.1 -0.1)">
       <use xlink:href="#DejaVuSans-48"/>
       <use x="63.623047" xlink:href="#DejaVuSans-46"/>
       <use x="95.410156" xlink:href="#DejaVuSans-52"/>
      </g>
     </g>
    </g>
    <g id="ytick_4">
     <g id="line2d_9">
      <g>
       <use style="stroke:#000000;stroke-width:0.8;" x="57.6" xlink:href="#m34313eb871" y="159.648"/>
      </g>
     </g>
     <g id="text_9">
      <!-- 0.6 -->
      <defs>
       <path d="M 33.015625 40.375 
Q 26.375 40.375 22.484375 35.828125 
Q 18.609375 31.296875 18.609375 23.390625 
Q 18.609375 15.53125 22.484375 10.953125 
Q 26.375 6.390625 33.015625 6.390625 
Q 39.65625 6.390625 43.53125 10.953125 
Q 47.40625 15.53125 47.40625 23.390625 
Q 47.40625 31.296875 43.53125 35.828125 
Q 39.65625 40.375 33.015625 40.375 
z
M 52.59375 71.296875 
L 52.59375 62.3125 
Q 48.875 64.0625 45.09375 64.984375 
Q 41.3125 65.921875 37.59375 65.921875 
Q 27.828125 65.921875 22.671875 59.328125 
Q 17.53125 52.734375 16.796875 39.40625 
Q 19.671875 43.65625 24.015625 45.921875 
Q 28.375 48.1875 33.59375 48.1875 
Q 44.578125 48.1875 50.953125 41.515625 
Q 57.328125 34.859375 57.328125 23.390625 
Q 57.328125 12.15625 50.6875 5.359375 
Q 44.046875 -1.421875 33.015625 -1.421875 
Q 20.359375 -1.421875 13.671875 8.265625 
Q 6.984375 17.96875 6.984375 36.375 
Q 6.984375 53.65625 15.1875 63.9375 
Q 23.390625 74.21875 37.203125 74.21875 
Q 40.921875 74.21875 44.703125 73.484375 
Q 48.484375 72.75 52.59375 71.296875 
z
" id="DejaVuSans-54"/>
      </defs>
      <g transform="translate(34.696875 163.447219)scale(0.1 -0.1)">
       <use xlink:href="#DejaVuSans-48"/>
       <use x="63.623047" xlink:href="#DejaVuSans-46"/>
       <use x="95.410156" xlink:href="#DejaVuSans-54"/>
      </g>
     </g>
    </g>
    <g id="ytick_5">
     <g id="line2d_10">
      <g>
       <use style="stroke:#000000;stroke-width:0.8;" x="57.6" xlink:href="#m34313eb871" y="129.888"/>
      </g>
     </g>
     <g id="text_10">
      <!-- 0.8 -->
      <defs>
       <path d="M 31.78125 34.625 
Q 24.75 34.625 20.71875 30.859375 
Q 16.703125 27.09375 16.703125 20.515625 
Q 16.703125 13.921875 20.71875 10.15625 
Q 24.75 6.390625 31.78125 6.390625 
Q 38.8125 6.390625 42.859375 10.171875 
Q 46.921875 13.96875 46.921875 20.515625 
Q 46.921875 27.09375 42.890625 30.859375 
Q 38.875 34.625 31.78125 34.625 
z
M 21.921875 38.8125 
Q 15.578125 40.375 12.03125 44.71875 
Q 8.5 49.078125 8.5 55.328125 
Q 8.5 64.0625 14.71875 69.140625 
Q 20.953125 74.21875 31.78125 74.21875 
Q 42.671875 74.21875 48.875 69.140625 
Q 55.078125 64.0625 55.078125 55.328125 
Q 55.078125 49.078125 51.53125 44.71875 
Q 48 40.375 41.703125 38.8125 
Q 48.828125 37.15625 52.796875 32.3125 
Q 56.78125 27.484375 56.78125 20.515625 
Q 56.78125 9.90625 50.3125 4.234375 
Q 43.84375 -1.421875 31.78125 -1.421875 
Q 19.734375 -1.421875 13.25 4.234375 
Q 6.78125 9.90625 6.78125 20.515625 
Q 6.78125 27.484375 10.78125 32.3125 
Q 14.796875 37.15625 21.921875 38.8125 
z
M 18.3125 54.390625 
Q 18.3125 48.734375 21.84375 45.5625 
Q 25.390625 42.390625 31.78125 42.390625 
Q 38.140625 42.390625 41.71875 45.5625 
Q 45.3125 48.734375 45.3125 54.390625 
Q 45.3125 60.0625 41.71875 63.234375 
Q 38.140625 66.40625 31.78125 66.40625 
Q 25.390625 66.40625 21.84375 63.234375 
Q 18.3125 60.0625 18.3125 54.390625 
z
" id="DejaVuSans-56"/>
      </defs>
      <g transform="translate(34.696875 133.687219)scale(0.1 -0.1)">
       <use xlink:href="#DejaVuSans-48"/>
       <use x="63.623047" xlink:href="#DejaVuSans-46"/>
       <use x="95.410156" xlink:href="#DejaVuSans-56"/>
      </g>
     </g>
    </g>
    <g id="ytick_6">
     <g id="line2d_11">
      <g>
       <use style="stroke:#000000;stroke-width:0.8;" x="57.6" xlink:href="#m34313eb871" y="100.128"/>
      </g>
     </g>
     <g id="text_11">
      <!-- 1.0 -->
      <g transform="translate(34.696875 103.927219)scale(0.1 -0.1)">
       <use xlink:href="#DejaVuSans-49"/>
       <use x="63.623047" xlink:href="#DejaVuSans-46"/>
       <use x="95.410156" xlink:href="#DejaVuSans-48"/>
      </g>
     </g>
    </g>
   </g>
   <g id="line2d_12">
    <path clip-path="url(#pd44f64412e)" d="M 236.16 248.928 
L 236.16 100.128 
" style="fill:none;stroke:#cc0000;stroke-dasharray:7.4,3.2;stroke-dashoffset:0;stroke-width:2;"/>
   </g>
   <g id="line2d_13">
    <path clip-path="url(#pd44f64412e)" d="M 87.36 248.928 
L 384.96 248.928 
" style="fill:none;stroke:#009900;stroke-linecap:square;stroke-width:2;"/>
   </g>
   <g id="line2d_14">
    <path clip-path="url(#pd44f64412e)" d="M 384.96 248.928 
L 384.96 100.128 
" style="fill:none;stroke:#009900;stroke-linecap:square;stroke-width:2;"/>
   </g>
   <g id="line2d_15">
    <path clip-path="url(#pd44f64412e)" d="M 384.96 100.128 
L 87.36 100.128 
" style="fill:none;stroke:#009900;stroke-linecap:square;stroke-width:2;"/>
   </g>
   <g id="line2d_16">
    <path clip-path="url(#pd44f64412e)" d="M 87.36 100.128 
L 87.36 248.928 
" style="fill:none;stroke:#009900;stroke-linecap:square;stroke-width:2;"/>
   </g>
   <g id="line2d_17">
    <path clip-path="url(#pd44f64412e)" d="M 135.246457 101.136054 
L 139.122727 105.65226 
L 143.176496 110.009843 
L 147.40128 114.201834 
L 151.790319 118.221525 
L 156.336592 122.062486 
L 161.032827 125.718572 
L 165.871509 129.183934 
L 170.844898 132.453029 
L 175.945038 135.520626 
L 181.163769 138.381819 
L 186.492744 141.032029 
L 191.923435 143.467017 
L 197.447157 145.682887 
L 203.055071 147.676096 
L 208.738207 149.443453 
L 214.487472 150.982131 
L 220.293669 152.28967 
L 226.147509 153.363977 
L 232.039628 154.203333 
L 236.16 154.648303 
L 243.595424 154.903622 
L 251.034907 154.972995 
L 258.473799 154.856379 
L 265.907452 154.553846 
L 273.331219 154.065586 
L 280.740461 153.391903 
L 288.130547 152.533219 
L 295.49686 151.490071 
L 302.834794 150.26311 
L 310.139765 148.853103 
L 317.407207 147.260932 
L 324.632577 145.487591 
L 331.811361 143.534188 
L 338.939072 141.401946 
L 346.011254 139.092195 
L 353.023489 136.60638 
L 359.971394 133.946054 
L 366.850627 131.112879 
L 373.656888 128.108628 
L 380.385923 124.935176 
L 384.96 122.658924 
L 378.286435 119.370421 
L 371.532752 116.249767 
L 364.703171 113.298913 
L 357.801961 110.519702 
L 350.833434 107.913873 
L 343.801945 105.483053 
L 336.71189 103.228761 
L 329.567698 101.152406 
L 325.774045 100.128 
L 318.60306 102.109843 
L 311.483858 104.270323 
L 304.420886 106.608089 
L 297.41856 109.12168 
L 290.481255 111.809526 
L 283.613307 114.669947 
L 276.819008 117.701154 
L 270.102604 120.901255 
L 263.468294 124.268247 
L 256.920222 127.800028 
L 250.462482 131.494391 
L 244.09911 135.349025 
L 237.834082 139.361523 
L 236.16 140.471569 
L 242.397803 144.526262 
L 248.735014 148.423758 
L 255.167671 152.161623 
L 261.691756 155.73752 
L 268.30319 159.149214 
L 274.997841 162.394574 
L 281.771526 165.471571 
L 289.053872 168.55566 
L 294.646488 170.591398 
L 300.153222 172.849152 
L 305.565266 175.32531 
L 310.873961 178.015912 
L 316.070814 180.916653 
L 321.147512 184.022893 
L 326.095932 187.329661 
L 327.886451 188.598412 
L 323.573661 184.49702 
L 319.428331 180.226443 
L 315.457096 175.793513 
L 311.666306 171.205322 
L 308.062028 166.46921 
L 304.650027 161.592753 
L 301.435761 156.583754 
L 299.465729 153.474053 
L 295.194644 147.382374 
L 290.772618 141.399364 
L 286.202414 135.528764 
L 281.486889 129.77424 
L 276.628989 124.139391 
L 271.63175 118.627738 
L 266.498297 113.242724 
L 261.231835 107.987717 
L 255.835658 102.865999 
L 252.836971 100.128 
L 247.371415 105.175614 
L 242.033743 110.358275 
L 236.16 116.373411 
L 241.349144 121.70478 
L 246.669938 126.904768 
L 252.119055 131.970125 
L 257.693089 136.897686 
L 263.388558 141.684371 
L 269.201902 146.327187 
L 275.129488 150.823235 
L 281.167611 155.169703 
L 287.312498 159.363876 
L 298.015219 166.519733 
L 302.777748 170.089032 
L 307.393734 173.845927 
L 311.855791 177.784407 
L 316.156782 181.898172 
L 320.289826 186.180639 
L 324.248311 190.624959 
L 325.018167 191.532229 
L 321.231345 186.940763 
L 317.631163 182.201537 
L 314.223378 177.322132 
L 311.013444 172.310356 
L 308.006495 167.174225 
L 305.207341 161.921957 
L 302.620461 156.561954 
L 301.526941 154.117555 
L 303.292586 158.217348 
L 305.453989 163.762609 
L 307.391913 169.389867 
L 309.103256 175.09012 
L 310.58528 180.854249 
L 311.835616 186.673033 
L 312.852262 192.537162 
L 313.423919 196.6635 
L 312.895444 192.231061 
L 312.39806 186.300278 
L 312.138243 180.354349 
L 312.116408 174.402785 
L 312.332589 168.45511 
L 312.78644 162.520836 
L 313.477236 156.609459 
L 314.101115 152.490693 
L 313.348892 156.890689 
L 312.141286 162.71849 
L 310.701597 168.493339 
L 309.032127 174.205996 
L 307.135547 179.847322 
L 305.014891 185.408293 
L 302.673552 190.880012 
L 300.905525 194.651954 
L 302.876487 190.646818 
L 305.689614 185.402021 
L 308.710226 180.273914 
L 311.933491 175.270701 
L 315.354254 170.400386 
L 318.967041 165.670761 
L 322.766073 161.089393 
L 325.53262 157.974962 
L 322.505261 161.255344 
L 318.318324 165.485136 
L 313.96559 169.544111 
L 309.454021 173.425777 
L 304.790837 177.123924 
L 299.983495 180.632635 
L 295.039688 183.946296 
L 288.953784 187.683103 
L 282.650334 191.634968 
L 276.44764 195.743168 
L 270.349578 200.005135 
L 264.359961 204.418206 
L 258.48253 208.979623 
L 252.720959 213.686535 
L 247.078849 218.536 
L 241.559727 223.524989 
L 236.16 228.657243 
L 241.552517 233.782814 
L 247.071475 238.771984 
L 252.713424 243.621636 
L 259.229837 248.928 
L 265.006468 244.239583 
L 270.664095 239.408231 
L 276.199184 234.436963 
L 281.608274 229.328885 
L 286.887986 224.08719 
L 292.035018 218.715154 
L 297.046156 213.216134 
L 301.918266 207.593567 
L 306.648305 201.850967 
L 310.578028 196.847993 
L 315.193665 202.68294 
L 319.953718 208.400686 
L 324.855212 213.997655 
L 329.895084 219.470352 
L 335.070185 224.815354 
L 340.37728 230.029322 
L 345.813052 235.108997 
L 351.374104 240.051205 
L 357.05696 244.852857 
L 362.115618 248.928 
L 367.901923 244.251528 
L 373.569521 239.431875 
L 379.114868 234.472053 
L 384.96 228.964041 
L 379.550512 223.856385 
L 374.015036 218.885547 
L 368.357031 214.054636 
L 362.580035 209.366669 
L 356.687657 204.824578 
L 350.68358 200.4312 
L 344.571555 196.18928 
L 338.355404 192.101472 
L 332.039011 188.170328 
L 325.589551 184.169378 
L 320.683088 180.80067 
L 315.915262 177.23845 
L 311.2937 173.488417 
L 306.825796 169.55657 
L 302.518698 165.4492 
L 298.379296 161.172878 
L 295.533477 158.023879 
L 300.502976 163.559775 
L 304.275467 168.163023 
L 307.86086 172.913449 
L 311.253418 177.803452 
L 314.447714 182.82521 
L 317.438639 187.970688 
L 320.221407 193.231656 
L 320.787152 194.367046 
L 315.568514 183.671464 
L 313.284108 178.175732 
L 311.221301 172.593044 
L 309.383391 166.932332 
L 307.773319 161.20265 
L 306.393662 155.413166 
L 305.833398 152.714205 
L 307.618627 161.460532 
L 308.515945 167.344103 
L 309.177264 173.25885 
L 309.601528 179.195312 
L 309.788057 185.143992 
L 309.736554 191.095372 
L 309.461993 196.820976 
L 308.922009 204.24116 
L 308.56768 211.672524 
L 308.399225 219.110423 
L 308.416752 226.550209 
L 308.620248 233.987231 
L 309.009587 241.416843 
L 309.592973 248.928 
L 310.170254 241.510624 
L 310.561939 234.081136 
L 310.767784 226.644178 
L 310.78766 219.204398 
L 310.621554 211.766446 
L 310.269571 204.334971 
L 309.683735 193.856708 
L 309.779899 187.905881 
L 310.113955 181.963661 
L 310.68537 176.039552 
L 311.493229 170.143032 
L 312.536239 164.283535 
L 313.812733 158.470433 
L 315.318376 152.721114 
L 314.290514 158.583288 
L 313.02905 164.399669 
L 311.536002 170.160953 
L 309.813758 175.857922 
L 307.865074 181.481463 
L 305.693067 187.022579 
L 303.301211 192.472405 
L 302.027705 195.152799 
L 298.445987 201.67369 
L 295.028394 208.282076 
L 291.77706 214.973828 
L 288.694019 221.744765 
L 285.781198 228.590653 
L 283.040415 235.507215 
L 280.473386 242.490128 
L 278.280087 248.928 
L 275.873302 241.888248 
L 273.291293 234.91086 
L 270.535675 228.000195 
L 267.60817 221.160573 
L 264.510606 214.396269 
L 261.24492 207.711509 
L 257.813154 201.110471 
L 254.217451 194.597282 
L 250.460058 188.176011 
L 246.543325 181.850672 
L 242.469699 175.625217 
L 238.241725 169.503538 
L 236.16 166.60553 
L 240.461067 160.534982 
L 244.609041 154.358817 
L 248.601332 148.080893 
L 252.435443 141.705133 
L 256.108979 135.235523 
L 259.619644 128.676106 
L 262.965243 122.030981 
L 266.143685 115.304302 
L 269.152986 108.500271 
L 271.991262 101.623142 
L 272.581891 100.128 
L 275.382978 107.02036 
L 278.35548 113.840547 
L 281.497541 120.584298 
L 284.807196 127.247398 
L 288.282376 133.825683 
L 291.920911 140.315042 
L 295.720526 146.711419 
L 299.678847 153.010817 
L 301.394214 155.818069 
L 304.192649 161.07072 
L 306.778796 166.431077 
L 309.148518 171.890564 
L 311.298023 177.440448 
L 313.223872 183.07185 
L 314.922984 188.77576 
L 316.392642 194.543055 
L 316.721048 195.980829 
L 314.850436 190.330839 
L 313.207259 184.610564 
L 311.794147 178.829154 
L 310.61336 172.99586 
L 309.666787 167.120013 
L 308.955942 161.211013 
L 308.481963 155.278313 
L 308.334574 152.319221 
L 308.392213 144.879638 
L 308.263864 137.440939 
L 307.949607 130.007772 
L 307.449638 122.584785 
L 306.76427 115.176614 
L 305.893932 107.787891 
L 304.792958 100.128 
L 303.730798 107.491595 
L 302.85304 114.87944 
L 302.160234 122.286919 
L 301.652812 129.709401 
L 301.331091 137.142248 
L 301.195273 144.580814 
L 301.245441 152.020451 
L 301.295944 154.221359 
L 302.521026 160.045512 
L 303.512224 165.913996 
L 304.267953 171.817423 
L 304.787003 177.74635 
L 305.068544 183.69129 
L 305.112126 189.642734 
L 304.8891 196.115573 
L 307.624594 190.82987 
L 310.569271 185.657785 
L 313.718421 180.607594 
L 317.067005 175.687374 
L 320.609668 170.904998 
L 324.340741 166.268115 
L 328.608127 161.396073 
L 323.145839 163.759332 
L 317.593415 165.902267 
L 311.959738 167.82145 
L 306.253821 169.513811 
L 300.484791 170.976643 
L 294.661878 172.207605 
L 288.274838 173.281428 
L 281.306679 175.888243 
L 274.405862 178.668429 
L 267.576698 181.620249 
L 260.823456 184.741858 
L 254.150357 188.031305 
L 247.56157 191.486534 
L 241.061214 195.105386 
L 236.16 197.977281 
L 233.45585 203.279088 
L 230.965878 208.68479 
L 228.694069 214.185741 
L 226.644056 219.77314 
L 224.819119 225.438049 
L 223.222178 231.171404 
L 221.855788 236.964034 
L 220.722133 242.806671 
L 219.791705 248.928 
L 218.902095 243.043259 
L 217.777869 237.198801 
L 216.420826 231.403974 
L 214.833138 225.66805 
L 213.017344 220.000204 
L 210.976349 214.409505 
L 208.713418 208.904895 
L 206.232172 203.495182 
L 203.536579 198.18902 
L 200.630953 192.994896 
L 197.519941 187.921122 
L 196.848377 186.882991 
L 202.468461 184.92436 
L 208.005725 182.742552 
L 213.451311 180.341058 
L 218.796507 177.723719 
L 224.032762 174.894723 
L 229.151699 171.858596 
L 234.145128 168.620195 
L 236.16 167.231172 
L 231.220505 163.911086 
L 226.152193 160.791183 
L 220.963173 157.876453 
L 215.661745 155.171561 
L 210.25639 152.680833 
L 204.755757 150.408254 
L 199.168645 148.357459 
L 193.503992 146.53173 
L 187.770861 144.933987 
L 182.574447 143.696218 
L 179.120949 138.849061 
L 175.476379 134.143885 
L 171.646567 129.588216 
L 167.63764 125.189342 
L 163.456012 120.954302 
L 159.108372 116.889869 
L 154.601676 113.002547 
L 149.943134 109.298555 
L 145.140197 105.783817 
L 140.200551 102.463956 
L 136.448791 100.128 
L 131.41273 103.299698 
L 126.507532 106.670249 
L 121.741043 110.234258 
L 117.120889 113.986026 
L 112.654462 117.919549 
L 108.348906 122.028536 
L 104.21111 126.306412 
L 100.247693 130.746334 
L 96.464995 135.341199 
L 92.86907 140.083656 
L 89.465668 144.966118 
L 87.36 148.20998 
L 90.635366 153.179241 
L 94.10683 158.013547 
L 97.768837 162.705166 
L 101.615531 167.24659 
L 105.640755 171.630555 
L 109.838072 175.850047 
L 114.200766 179.898316 
L 118.721858 183.768885 
L 123.394115 187.455563 
L 128.472495 191.134686 
L 128.357054 197.085169 
L 128.47966 203.03551 
L 128.840119 208.976187 
L 129.437853 214.897698 
L 130.271907 220.79057 
L 131.340945 226.645375 
L 132.643258 232.452746 
L 134.176762 238.203393 
L 135.939004 243.888117 
L 137.71362 248.928 
L 139.678823 243.310211 
L 141.417802 237.618328 
L 142.927776 231.861457 
L 144.206329 226.048808 
L 145.251414 220.189681 
L 146.061362 214.293448 
L 146.624077 208.509522 
L 147.850017 204.217857 
L 149.331097 200.007427 
L 151.061985 195.893385 
L 153.036454 191.890536 
L 155.247396 188.013288 
L 157.686855 184.275594 
L 160.346052 180.690906 
L 163.215415 177.272123 
L 166.284619 174.031552 
L 169.542618 170.980853 
L 172.977687 168.131007 
L 176.577462 165.49227 
L 180.328989 163.074137 
L 184.218766 160.885313 
L 188.232795 158.933674 
L 192.356628 157.226244 
L 194.30894 156.516712 
L 190.745541 159.20437 
L 187.027391 161.673516 
L 183.167872 163.915263 
L 179.180874 165.921544 
L 175.080746 167.685139 
L 170.882243 169.1997 
L 166.600477 170.459777 
L 162.250856 171.460834 
L 157.849034 172.199269 
L 153.410854 172.672425 
L 148.952288 172.878598 
L 144.489382 172.817046 
L 140.038198 172.487992 
L 135.614755 171.892619 
L 131.234972 171.03307 
L 126.914613 169.912438 
L 124.928767 169.303033 
L 129.392097 169.303624 
L 133.847361 169.571853 
L 138.278523 170.106754 
L 142.669637 170.906403 
L 147.004899 171.967922 
L 151.268707 173.287491 
L 155.445715 174.86036 
L 159.520892 176.680868 
L 163.479571 178.742465 
L 167.307504 181.037731 
L 170.990916 183.558404 
L 174.516551 186.295414 
L 177.871719 189.238909 
L 181.044345 192.378297 
L 184.023013 195.70228 
L 186.797001 199.198894 
L 188.015261 200.881392 
L 184.452573 198.192792 
L 181.057515 195.295396 
L 177.842306 192.199633 
L 174.818517 188.916644 
L 171.99703 185.458243 
L 169.388001 181.836879 
L 167.000817 178.065583 
L 164.844071 174.157928 
L 162.925525 170.127978 
L 161.252083 165.990236 
L 159.829768 161.759593 
L 158.663698 157.451275 
L 157.758071 153.080788 
L 157.116145 148.663861 
L 156.740232 144.216389 
L 156.631682 139.754378 
L 156.672472 137.677531 
L 157.763669 131.826816 
L 158.620027 125.937144 
L 159.240175 120.017938 
L 159.623123 114.078668 
L 159.768256 108.128835 
L 159.675344 102.177957 
L 159.588155 100.128 
L 159.413196 106.077031 
L 159.476275 112.0283 
L 159.777291 117.972286 
L 160.315763 123.89948 
L 161.090828 129.8004 
L 162.101247 135.665605 
L 162.433069 137.33409 
L 162.709479 141.788853 
L 162.718265 146.252175 
L 162.459397 150.707992 
L 161.933807 155.140268 
L 161.143385 159.533052 
L 160.090976 163.870535 
L 158.780369 168.137105 
L 157.216279 172.317409 
L 155.404335 176.396402 
L 153.35106 180.359403 
L 151.063842 184.19215 
L 148.550913 187.88085 
L 145.821316 191.412227 
L 142.884876 194.773571 
L 139.75216 197.952787 
L 136.434443 200.938431 
L 135.965381 201.332433 
L 138.793146 197.879165 
L 141.822895 194.601674 
L 145.043722 191.511757 
L 148.444038 188.620534 
L 152.011605 185.93841 
L 155.733582 183.475039 
L 159.596576 181.239284 
L 163.586683 179.239193 
L 167.689544 177.481965 
L 171.890392 175.973922 
L 176.174109 174.720492 
L 180.525279 173.726187 
L 184.928241 172.994585 
L 189.36715 172.528318 
L 193.826031 172.329065 
L 198.288836 172.397544 
L 198.900669 172.427829 
L 194.478885 173.035401 
L 190.028625 173.376731 
L 185.565906 173.450592 
L 181.106788 173.256717 
L 176.66732 172.795805 
L 172.263478 172.069514 
L 167.911113 171.080457 
L 163.625887 169.832195 
L 159.423223 168.32922 
L 155.318246 166.576941 
L 151.325729 164.581665 
L 147.460042 162.350571 
L 143.735095 159.89169 
L 140.164297 157.213871 
L 136.760496 154.326751 
L 133.535944 151.240721 
L 133.108086 150.802321 
L 136.762456 153.364918 
L 140.256586 156.142033 
L 143.577902 159.123674 
L 146.71445 162.299108 
L 149.654942 165.656909 
L 152.388796 169.184991 
L 154.906172 172.870657 
L 157.198012 176.700643 
L 159.256065 180.661165 
L 161.072927 184.737969 
L 162.642058 188.916383 
L 163.95781 193.18137 
L 165.01545 197.51758 
L 165.811169 201.909408 
L 166.342106 206.341047 
L 166.606347 210.796548 
L 166.621734 211.408937 
L 165.686379 207.044716 
L 165.014402 202.63226 
L 164.608223 198.18745 
L 164.469304 193.726282 
L 164.598145 189.264812 
L 164.994281 184.819095 
L 165.656287 180.405132 
L 166.581781 176.038809 
L 167.767432 171.735839 
L 169.208972 167.511708 
L 170.901214 163.38162 
L 172.838068 159.360436 
L 175.012563 155.46263 
L 177.416873 151.70223 
L 180.042345 148.092768 
L 182.879531 144.647235 
L 183.284832 144.187901 
L 187.624802 140.11528 
L 191.798438 135.872363 
L 195.799064 131.46594 
L 199.620281 126.903058 
L 203.255974 122.191019 
L 206.700328 117.33736 
L 209.947832 112.349846 
L 212.993291 107.236455 
L 215.831833 102.005369 
L 216.785688 100.128 
L 219.549918 105.398732 
L 222.52271 110.554708 
L 225.699309 115.587679 
L 229.074631 120.489595 
L 232.643278 125.252613 
L 236.16 129.585739 
L 232.415261 134.211591 
L 228.858502 138.983493 
L 225.495414 143.893811 
L 222.331376 148.934688 
L 219.37145 154.098061 
L 216.620372 159.375669 
L 214.082542 164.75907 
L 211.762021 170.23965 
L 209.662521 175.808643 
L 207.7874 181.457139 
L 206.139659 187.176101 
L 204.721934 192.956381 
L 203.536492 198.788731 
L 202.58523 204.663821 
L 201.86967 210.572252 
L 201.390956 216.504571 
L 201.149855 222.451289 
L 201.146752 228.402891 
L 201.381652 234.349857 
L 201.85418 240.282672 
L 202.563579 246.191846 
L 202.973682 248.928 
L 203.792825 243.033037 
L 204.375578 237.110033 
L 204.721008 231.168463 
L 204.828562 225.217831 
L 204.698069 219.267659 
L 204.329736 213.327464 
L 203.724153 207.406751 
L 202.88229 201.51499 
L 201.805492 195.661607 
L 200.495483 189.855967 
L 198.954357 184.107357 
L 198.251509 181.753631 
L 201.944553 177.086404 
L 205.448003 172.275227 
L 208.756255 167.327799 
L 211.864017 162.252033 
L 214.766316 157.05605 
L 217.458509 151.748162 
L 219.936291 146.336861 
L 222.195696 140.830803 
L 224.23311 135.238798 
L 226.045274 129.56979 
L 227.629288 123.832851 
L 228.982619 118.037156 
L 230.103102 112.191979 
L 230.988943 106.306669 
L 231.662034 100.128 
L 232.301333 106.045168 
L 233.176744 111.932038 
L 234.286867 117.779192 
L 235.629926 123.577275 
L 236.16 125.613299 
L 234.735098 131.391814 
L 233.542415 137.222688 
L 232.583858 143.096592 
L 231.860962 149.00413 
L 231.374882 154.93585 
L 231.126397 160.882264 
L 231.115903 166.833858 
L 231.343419 172.781111 
L 231.808579 178.714508 
L 232.510639 184.624558 
L 233.448477 190.501806 
L 234.620592 196.336849 
L 236.16 202.62742 
L 234.735098 208.405935 
L 233.542415 214.236809 
L 232.583858 220.110713 
L 231.860962 226.018251 
L 231.374882 231.949971 
L 231.126397 237.896385 
L 231.115903 243.847979 
L 231.295396 248.928 
L 231.488193 242.97952 
L 231.44296 237.028089 
L 231.159769 231.083227 
L 230.639074 225.154445 
L 229.881707 219.251228 
L 228.88888 213.383019 
L 227.662182 207.559206 
L 226.203575 201.789107 
L 224.515391 196.081952 
L 222.600333 190.446871 
L 220.461464 184.89288 
L 218.102205 179.428863 
L 215.526331 174.063563 
L 212.737962 168.805561 
L 209.74156 163.66327 
L 206.541918 158.644917 
L 203.144155 153.758529 
L 199.553706 149.011924 
L 195.776315 144.412696 
L 191.818026 139.968202 
L 187.685171 135.685552 
L 183.384361 131.571598 
L 178.922477 127.632921 
L 174.306658 123.875823 
L 169.544286 120.306313 
L 164.642982 116.930103 
L 159.610585 113.752593 
L 154.455148 110.778867 
L 149.184917 108.013683 
L 143.808324 105.461463 
L 138.33397 103.126291 
L 132.770613 101.011903 
L 130.224493 100.128 
L 124.623752 102.141278 
L 119.108001 104.376915 
L 113.686064 106.831335 
L 108.366615 109.500611 
L 103.158163 112.380474 
L 98.069041 115.466316 
L 93.10739 118.753199 
L 88.281149 122.235867 
L 87.36 122.93463 
L 92.159035 126.454693 
L 97.094997 129.780029 
L 102.159988 132.905321 
L 107.345906 135.825566 
L 112.644454 138.536095 
L 118.047157 141.032569 
L 123.54537 143.310997 
L 129.130298 145.367732 
L 134.793007 147.199484 
L 136.106123 147.588835 
L 134.606116 141.82936 
L 132.876991 136.134475 
L 130.921514 130.513293 
L 128.742814 124.974805 
L 126.344377 119.527872 
L 123.730039 114.181208 
L 120.903982 108.943366 
L 117.870728 103.822726 
L 115.505004 100.128 
L 112.322108 105.156991 
L 109.342865 110.309242 
L 106.572039 115.57651 
L 104.014064 120.950367 
L 101.673032 126.422218 
L 99.552689 131.983308 
L 97.656426 137.624741 
L 95.987277 143.337492 
L 94.547912 149.112422 
L 93.340634 154.940291 
L 92.367374 160.811777 
L 91.62969 166.717486 
L 91.128761 172.647971 
L 90.865389 178.593744 
L 90.839995 184.545293 
L 91.05262 190.493097 
L 91.502924 196.42764 
L 92.190185 202.33943 
L 93.113306 208.219007 
L 94.270809 214.056966 
L 95.660841 219.843968 
L 97.281181 225.570754 
L 99.129234 231.228163 
L 101.202045 236.807145 
L 103.496298 242.298773 
L 106.008323 247.694264 
L 106.62013 248.928 
L 109.18198 243.555989 
L 111.526958 238.085828 
L 113.651312 232.526268 
L 115.551644 226.886205 
L 117.224913 221.174659 
L 118.668443 215.400769 
L 119.879924 209.573772 
L 120.857418 203.70299 
L 121.599362 197.797814 
L 122.104568 191.867692 
L 122.372229 185.922111 
L 122.401915 179.970582 
L 122.193581 174.022626 
L 121.747558 168.087759 
L 121.06456 162.175476 
L 120.14568 156.295234 
L 118.992389 150.456442 
L 117.60653 144.668439 
L 115.990322 138.940485 
L 114.14635 133.281744 
L 112.077563 127.701269 
L 109.787271 122.207988 
L 107.279139 116.810687 
L 104.557179 111.518002 
L 101.625745 106.3384 
L 98.489527 101.280168 
L 97.735257 100.128 
L 94.552361 105.156991 
L 91.573117 110.309242 
L 88.802291 115.57651 
L 87.36 118.538063 
L 90.013549 123.865375 
L 92.878011 129.082313 
L 95.948803 134.18053 
L 99.221014 139.15187 
L 102.689407 143.988379 
L 106.348435 148.682322 
L 110.192244 153.226187 
L 114.214685 157.612707 
L 118.409322 161.834863 
L 122.769445 165.885901 
L 125.144284 167.960705 
L 129.118638 169.991918 
L 132.964041 172.257795 
L 136.666654 174.750179 
L 140.21315 177.460103 
L 143.590766 180.377812 
L 146.787347 183.492806 
L 149.791389 186.793874 
L 152.592079 190.269137 
L 155.179339 193.906087 
L 157.543858 197.691634 
L 159.677124 201.612156 
L 161.571462 205.653542 
L 163.220054 209.801248 
L 163.870029 211.66811 
L 164.923387 207.330858 
L 166.234929 203.064574 
L 167.799934 198.884613 
L 169.61277 194.806017 
L 171.666914 190.843466 
L 173.954971 187.011219 
L 176.468707 183.32307 
L 179.199077 179.792291 
L 182.136253 176.431589 
L 185.269665 173.25306 
L 188.588036 170.268142 
L 192.079423 167.487578 
L 195.731261 164.921376 
L 197.396298 163.855875 
L 192.933004 163.837895 
L 188.478819 163.552311 
L 184.049775 163.000149 
L 179.66181 162.183398 
L 175.330717 161.104997 
L 171.072082 159.768827 
L 166.901233 158.179696 
L 162.83318 156.343324 
L 158.882563 154.266319 
L 155.063601 151.956158 
L 151.390038 149.421153 
L 147.875094 146.670428 
L 144.531419 143.713883 
L 143.108579 142.341597 
L 144.12696 146.687195 
L 144.882928 151.086039 
L 145.373764 155.522299 
L 145.597701 159.980008 
L 145.553932 164.443124 
L 145.242616 168.895584 
L 144.664873 173.321364 
L 143.822782 177.704537 
L 142.719374 182.029327 
L 141.35862 186.28017 
L 139.745416 190.441767 
L 137.88557 194.499142 
L 135.785773 198.437692 
L 134.781179 200.14017 
L 138.771769 198.141042 
L 142.875054 196.384804 
L 147.076266 194.877775 
L 151.360286 193.62538 
L 155.711695 192.632126 
L 160.114834 191.901586 
L 164.553856 191.436391 
L 169.012784 191.238215 
L 173.475573 191.307771 
L 177.92616 191.644808 
L 182.348528 192.248113 
L 186.726762 193.115516 
L 191.045104 194.243895 
L 192.934249 194.825936 
L 190.063546 191.408279 
L 187.402945 187.824632 
L 184.962022 184.087894 
L 182.749561 180.211512 
L 180.773525 176.209438 
L 179.041025 172.096074 
L 177.558296 167.886224 
L 176.330674 163.59504 
L 175.362579 159.237964 
L 174.657493 154.830678 
L 174.217954 150.389043 
L 174.045545 145.929043 
L 174.140885 141.466731 
L 174.26859 139.494085 
L 171.610502 143.079596 
L 168.742195 146.499264 
L 165.673992 149.740784 
L 162.416936 152.792489 
L 158.982748 155.643397 
L 155.383789 158.283247 
L 151.633009 160.702539 
L 147.743909 162.892565 
L 143.730484 164.845444 
L 139.607178 166.554149 
L 135.388832 168.012528 
L 131.090626 169.215335 
L 126.728029 170.158239 
L 124.779607 170.491845 
L 119.398162 173.033819 
L 114.122673 175.788959 
L 108.961581 178.752859 
L 103.923141 181.920777 
L 99.015414 185.287645 
L 94.246251 188.848076 
L 89.623283 192.596375 
L 87.36 194.546976 
L 91.906775 198.387343 
L 96.603488 202.042815 
L 101.442623 205.507544 
L 106.416439 208.775989 
L 111.51698 211.842919 
L 116.736086 214.703429 
L 122.065407 217.352942 
L 127.496417 219.78722 
L 133.020428 222.002369 
L 138.628603 223.994844 
L 144.31197 225.761458 
L 150.061436 227.299384 
L 155.867804 228.606164 
L 161.721784 229.679705 
L 167.614013 230.518291 
L 173.535062 231.120579 
L 179.475461 231.485607 
L 185.425705 231.612791 
L 191.376276 231.501926 
L 197.317653 231.153191 
L 203.240332 230.567143 
L 209.134838 229.74472 
L 214.991741 228.687237 
L 220.801671 227.396387 
L 226.555333 225.874233 
L 232.243523 224.123213 
L 236.16 222.770544 
L 230.522769 220.861824 
L 224.81372 219.18006 
L 219.041984 217.727942 
L 213.216795 216.507793 
L 207.347474 215.521566 
L 201.443408 214.770838 
L 195.514044 214.256811 
L 189.568868 213.980305 
L 183.617389 213.941765 
L 177.66913 214.141251 
L 171.733607 214.578444 
L 165.820314 215.252646 
L 159.938712 216.162776 
L 154.09821 217.30738 
L 148.308151 218.684627 
L 142.5778 220.292312 
L 136.916322 222.127864 
L 131.332776 224.188347 
L 125.836093 226.470463 
L 120.435067 228.970564 
L 115.138339 231.684647 
L 109.954381 234.608372 
L 104.891489 237.737062 
L 99.95776 241.065711 
L 95.161088 244.588993 
L 90.509147 248.301274 
L 89.760229 248.928 
L 87.36 246.948486 
L 91.915186 243.1181 
L 96.313555 239.108619 
L 100.548068 234.926457 
L 104.611953 230.578306 
L 108.498707 226.07112 
L 112.202113 221.412111 
L 115.716246 216.608732 
L 119.035484 211.668667 
L 122.154517 206.599819 
L 125.068355 201.410299 
L 127.772337 196.108406 
L 129.340368 192.771012 
L 123.417821 192.183628 
L 117.476523 191.833553 
L 111.525977 191.721346 
L 105.575705 191.847187 
L 99.635224 192.210876 
L 93.714039 192.811829 
L 87.36 193.72487 
L 93.249756 194.580647 
L 99.169023 195.200212 
L 105.108331 195.582574 
L 111.058178 195.727122 
L 117.009047 195.633623 
L 122.951417 195.302228 
L 128.875781 194.733467 
L 130.406244 194.547541 
L 134.646963 193.155556 
L 138.963521 192.020368 
L 143.340381 191.146059 
L 147.761792 190.535779 
L 152.211841 190.191722 
L 156.674515 190.115127 
L 161.13375 190.306269 
L 165.5735 190.764461 
L 169.977786 191.488054 
L 174.330757 192.474443 
L 178.616746 193.720079 
L 182.820331 195.220479 
L 186.926381 196.970242 
L 190.156567 198.558709 
L 187.572702 194.919347 
L 185.211718 191.131594 
L 183.082111 187.209083 
L 181.191546 183.16593 
L 179.546826 179.016687 
L 178.153872 174.776287 
L 177.017695 170.45999 
L 176.142385 166.08333 
L 175.531092 161.662059 
L 175.186017 157.212088 
L 175.1084 152.749432 
L 175.298522 148.290153 
L 175.755698 143.850298 
L 176.31782 140.294831 
L 173.605399 143.839417 
L 170.685311 147.214977 
L 167.568066 150.409363 
L 164.264882 153.411078 
L 160.787647 156.20932 
L 157.148876 158.794017 
L 153.361663 161.155868 
L 149.43964 163.286373 
L 145.39692 165.177863 
L 141.248054 166.823533 
L 137.007972 168.217458 
L 132.691935 169.354622 
L 128.315476 170.230934 
L 124.752808 170.745447 
L 128.941009 172.288266 
L 133.029159 174.07945 
L 137.002547 176.112553 
L 140.846872 178.380258 
L 144.548298 180.874403 
L 148.093505 183.586013 
L 151.469734 186.505328 
L 154.664833 189.621842 
L 157.667304 192.924339 
L 160.466342 196.400933 
L 163.051872 200.039113 
L 165.41459 203.825785 
L 167.545992 207.747321 
L 169.091109 210.998465 
L 172.742732 215.698171 
L 176.579371 220.248091 
L 180.594891 224.640948 
L 184.782865 228.869712 
L 189.136595 232.92762 
L 193.649116 236.808179 
L 198.313208 240.505181 
L 203.12141 244.012712 
L 208.06603 247.325161 
L 210.621992 248.928 
L 215.632753 245.71648 
L 220.511079 242.307153 
L 225.249166 238.705471 
L 229.839435 234.917198 
L 234.274541 230.948393 
L 236.16 229.161019 
L 243.023434 226.289784 
L 249.81295 223.247878 
L 256.524304 220.037202 
L 263.153303 216.659763 
L 269.695803 213.117672 
L 276.147715 209.413142 
L 282.505008 205.548489 
L 288.763708 201.526127 
L 294.919904 197.348572 
L 299.636601 193.992371 
L 299.636601 193.992371 
" style="fill:none;stroke:#1f77b4;stroke-linecap:square;stroke-width:1.5;"/>
   </g>
   <g id="patch_5">
    <path d="M 57.6 263.808 
L 57.6 85.248 
" style="fill:none;stroke:#000000;stroke-linecap:square;stroke-linejoin:miter;stroke-width:0.8;"/>
   </g>
   <g id="patch_6">
    <path d="M 414.72 263.808 
L 414.72 85.248 
" style="fill:none;stroke:#000000;stroke-linecap:square;stroke-linejoin:miter;stroke-width:0.8;"/>
   </g>
   <g id="patch_7">
    <path d="M 57.6 263.808 
L 414.72 263.808 
" style="fill:none;stroke:#000000;stroke-linecap:square;stroke-linejoin:miter;stroke-width:0.8;"/>
   </g>
   <g id="patch_8">
    <path d="M 57.6 85.248 
L 414.72 85.248 
" style="fill:none;stroke:#000000;stroke-linecap:square;stroke-linejoin:miter;stroke-width:0.8;"/>
   </g>
  </g>
 </g>
 <defs>
  <clipPath id="pd44f64412e">
   <rect height="178.56" width="357.12" x="57.6" y="85.248"/>
  </clipPath>
 </defs>
</svg>
