<?xml version="1.0" encoding="utf-8" standalone="no"?>
<!DOCTYPE svg PUBLIC "-//W3C//DTD SVG 1.1//EN"
  "http://www.w3.org/Graphics/SVG/1.1/DTD/svg11.dtd">
<!-- Created with matplotlib (https://matplotlib.org/) -->
<svg height="345.6pt" version="1.1" viewBox="0 0 460.8 345.6" width="460.8pt" xmlns="http://www.w3.org/2000/svg" xmlns:xlink="http://www.w3.org/1999/xlink">
 <defs>
  <style type="text/css">
*{stroke-linecap:butt;stroke-linejoin:round;}
  </style>
 </defs>
 <g id="figure_1">
  <g id="patch_1">
   <path d="M 0 345.6 
L 460.8 345.6 
L 460.8 0 
L 0 0 
z
" style="fill:#ffffff;"/>
  </g>
  <g id="axes_1">
   <g id="patch_2">
    <path d="M 117.888 307.584 
L 354.432 307.584 
L 354.432 41.472 
L 117.888 41.472 
z
" style="fill:#ffffff;"/>
   </g>
   <g id="PathCollection_1">
    <defs>
     <path d="M 0 3 
C 0.795609 3 1.55874 2.683901 2.12132 2.12132 
C 2.683901 1.55874 3 0.795609 3 0 
C 3 -0.795609 2.683901 -1.55874 2.12132 -2.12132 
C 1.55874 -2.683901 0.795609 -3 0 -3 
C -0.795609 -3 -1.55874 -2.683901 -2.12132 -2.12132 
C -2.683901 -1.55874 -3 -0.795609 -3 0 
C -3 0.795609 -2.683901 1.55874 -2.12132 2.12132 
C -1.55874 2.683901 -0.795609 3 0 3 
z
" id="m028bcda5d8" style="stroke:#000000;"/>
    </defs>
    <g clip-path="url(#p35d70b44cf)">
     <use style="stroke:#000000;" x="324.864" xlink:href="#m028bcda5d8" y="115.392"/>
    </g>
   </g>
   <g id="PathCollection_2">
    <defs>
     <path d="M 0 2.236068 
C 0.593012 2.236068 1.161816 2.000462 1.581139 1.581139 
C 2.000462 1.161816 2.236068 0.593012 2.236068 0 
C 2.236068 -0.593012 2.000462 -1.161816 1.581139 -1.581139 
C 1.161816 -2.000462 0.593012 -2.236068 0 -2.236068 
C -0.593012 -2.236068 -1.161816 -2.000462 -1.581139 -1.581139 
C -2.000462 -1.161816 -2.236068 -0.593012 -2.236068 0 
C -2.236068 0.593012 -2.000462 1.161816 -1.581139 1.581139 
C -1.161816 2.000462 -0.593012 2.236068 0 2.236068 
z
" id="m018b712895" style="stroke:#000000;"/>
    </defs>
    <g clip-path="url(#p35d70b44cf)">
     <use style="stroke:#000000;" x="227.736039" xlink:href="#m018b712895" y="231.152553"/>
    </g>
   </g>
   <g id="Quiver_1">
    <path clip-path="url(#p35d70b44cf)" d="M 227.283714 231.29117 
L 225.758931 226.315598 
L 224.992898 227.045156 
L 224.963706 222.106058 
L 227.706847 226.213456 
L 226.663581 226.038364 
L 228.188364 231.013937 
L 227.283714 231.29117 
"/>
   </g>
   <g id="patch_3">
    <path clip-path="url(#p35d70b44cf)" d="M 132.672 300.192 
C 134.632381 300.192 136.512734 299.413132 137.898933 298.026933 
C 139.285132 296.640734 140.064 294.760381 140.064 292.8 
C 140.064 290.839619 139.285132 288.959266 137.898933 287.573067 
C 136.512734 286.186868 134.632381 285.408 132.672 285.408 
C 130.711619 285.408 128.831266 286.186868 127.445067 287.573067 
C 126.058868 288.959266 125.28 290.839619 125.28 292.8 
C 125.28 294.760381 126.058868 296.640734 127.445067 298.026933 
C 128.831266 299.413132 130.711619 300.192 132.672 300.192 
z
" style="fill:#009900;fill-opacity:0.5;stroke:#009900;stroke-linejoin:miter;stroke-width:2;"/>
   </g>
   <g id="patch_4">
    <path clip-path="url(#p35d70b44cf)" d="M 162.24 297.728 
C 164.200381 297.728 166.080734 297.208755 167.466933 296.284622 
C 168.853132 295.36049 169.632 294.106921 169.632 292.8 
C 169.632 291.493079 168.853132 290.23951 167.466933 289.315378 
C 166.080734 288.391245 164.200381 287.872 162.24 287.872 
C 160.279619 287.872 158.399266 288.391245 157.013067 289.315378 
C 155.626868 290.23951 154.848 291.493079 154.848 292.8 
C 154.848 294.106921 155.626868 295.36049 157.013067 296.284622 
C 158.399266 297.208755 160.279619 297.728 162.24 297.728 
z
" style="fill:#cc0000;fill-opacity:0.1;stroke:#cc0000;stroke-dasharray:7.4,3.2;stroke-dashoffset:0;stroke-linejoin:miter;stroke-width:2;"/>
   </g>
   <g id="patch_5">
    <path clip-path="url(#p35d70b44cf)" d="M 132.672 270.624 
C 134.632381 270.624 136.512734 269.845132 137.898933 268.458933 
C 139.285132 267.072734 140.064 265.192381 140.064 263.232 
C 140.064 261.271619 139.285132 259.391266 137.898933 258.005067 
C 136.512734 256.618868 134.632381 255.84 132.672 255.84 
C 130.711619 255.84 128.831266 256.618868 127.445067 258.005067 
C 126.058868 259.391266 125.28 261.271619 125.28 263.232 
C 125.28 265.192381 126.058868 267.072734 127.445067 268.458933 
C 128.831266 269.845132 130.711619 270.624 132.672 270.624 
z
" style="fill:#009900;fill-opacity:0.5;stroke:#009900;stroke-linejoin:miter;stroke-width:2;"/>
   </g>
   <g id="patch_6">
    <path clip-path="url(#p35d70b44cf)" d="M 162.24 268.16 
C 164.200381 268.16 166.080734 267.640755 167.466933 266.716622 
C 168.853132 265.79249 169.632 264.538921 169.632 263.232 
C 169.632 261.925079 168.853132 260.67151 167.466933 259.747378 
C 166.080734 258.823245 164.200381 258.304 162.24 258.304 
C 160.279619 258.304 158.399266 258.823245 157.013067 259.747378 
C 155.626868 260.67151 154.848 261.925079 154.848 263.232 
C 154.848 264.538921 155.626868 265.79249 157.013067 266.716622 
C 158.399266 267.640755 160.279619 268.16 162.24 268.16 
z
" style="fill:#cc0000;fill-opacity:0.1;stroke:#cc0000;stroke-dasharray:7.4,3.2;stroke-dashoffset:0;stroke-linejoin:miter;stroke-width:2;"/>
   </g>
   <g id="patch_7">
    <path clip-path="url(#p35d70b44cf)" d="M 132.672 241.056 
C 134.632381 241.056 136.512734 240.277132 137.898933 238.890933 
C 139.285132 237.504734 140.064 235.624381 140.064 233.664 
C 140.064 231.703619 139.285132 229.823266 137.898933 228.437067 
C 136.512734 227.050868 134.632381 226.272 132.672 226.272 
C 130.711619 226.272 128.831266 227.050868 127.445067 228.437067 
C 126.058868 229.823266 125.28 231.703619 125.28 233.664 
C 125.28 235.624381 126.058868 237.504734 127.445067 238.890933 
C 128.831266 240.277132 130.711619 241.056 132.672 241.056 
z
" style="fill:#009900;fill-opacity:0.5;stroke:#009900;stroke-linejoin:miter;stroke-width:2;"/>
   </g>
   <g id="patch_8">
    <path clip-path="url(#p35d70b44cf)" d="M 162.24 238.592 
C 164.200381 238.592 166.080734 238.072755 167.466933 237.148622 
C 168.853132 236.22449 169.632 234.970921 169.632 233.664 
C 169.632 232.357079 168.853132 231.10351 167.466933 230.179378 
C 166.080734 229.255245 164.200381 228.736 162.24 228.736 
C 160.279619 228.736 158.399266 229.255245 157.013067 230.179378 
C 155.626868 231.10351 154.848 232.357079 154.848 233.664 
C 154.848 234.970921 155.626868 236.22449 157.013067 237.148622 
C 158.399266 238.072755 160.279619 238.592 162.24 238.592 
z
" style="fill:#cc0000;fill-opacity:0.1;stroke:#cc0000;stroke-dasharray:7.4,3.2;stroke-dashoffset:0;stroke-linejoin:miter;stroke-width:2;"/>
   </g>
   <g id="patch_9">
    <path clip-path="url(#p35d70b44cf)" d="M 132.672 211.488 
C 134.632381 211.488 136.512734 210.709132 137.898933 209.322933 
C 139.285132 207.936734 140.064 206.056381 140.064 204.096 
C 140.064 202.135619 139.285132 200.255266 137.898933 198.869067 
C 136.512734 197.482868 134.632381 196.704 132.672 196.704 
C 130.711619 196.704 128.831266 197.482868 127.445067 198.869067 
C 126.058868 200.255266 125.28 202.135619 125.28 204.096 
C 125.28 206.056381 126.058868 207.936734 127.445067 209.322933 
C 128.831266 210.709132 130.711619 211.488 132.672 211.488 
z
" style="fill:#009900;fill-opacity:0.5;stroke:#009900;stroke-linejoin:miter;stroke-width:2;"/>
   </g>
   <g id="patch_10">
    <path clip-path="url(#p35d70b44cf)" d="M 162.24 209.024 
C 164.200381 209.024 166.080734 208.504755 167.466933 207.580622 
C 168.853132 206.65649 169.632 205.402921 169.632 204.096 
C 169.632 202.789079 168.853132 201.53551 167.466933 200.611378 
C 166.080734 199.687245 164.200381 199.168 162.24 199.168 
C 160.279619 199.168 158.399266 199.687245 157.013067 200.611378 
C 155.626868 201.53551 154.848 202.789079 154.848 204.096 
C 154.848 205.402921 155.626868 206.65649 157.013067 207.580622 
C 158.399266 208.504755 160.279619 209.024 162.24 209.024 
z
" style="fill:#cc0000;fill-opacity:0.1;stroke:#cc0000;stroke-dasharray:7.4,3.2;stroke-dashoffset:0;stroke-linejoin:miter;stroke-width:2;"/>
   </g>
   <g id="patch_11">
    <path clip-path="url(#p35d70b44cf)" d="M 132.672 181.92 
C 134.632381 181.92 136.512734 181.141132 137.898933 179.754933 
C 139.285132 178.368734 140.064 176.488381 140.064 174.528 
C 140.064 172.567619 139.285132 170.687266 137.898933 169.301067 
C 136.512734 167.914868 134.632381 167.136 132.672 167.136 
C 130.711619 167.136 128.831266 167.914868 127.445067 169.301067 
C 126.058868 170.687266 125.28 172.567619 125.28 174.528 
C 125.28 176.488381 126.058868 178.368734 127.445067 179.754933 
C 128.831266 181.141132 130.711619 181.92 132.672 181.92 
z
" style="fill:#009900;fill-opacity:0.5;stroke:#009900;stroke-linejoin:miter;stroke-width:2;"/>
   </g>
   <g id="patch_12">
    <path clip-path="url(#p35d70b44cf)" d="M 162.24 179.456 
C 164.200381 179.456 166.080734 178.936755 167.466933 178.012622 
C 168.853132 177.08849 169.632 175.834921 169.632 174.528 
C 169.632 173.221079 168.853132 171.96751 167.466933 171.043378 
C 166.080734 170.119245 164.200381 169.6 162.24 169.6 
C 160.279619 169.6 158.399266 170.119245 157.013067 171.043378 
C 155.626868 171.96751 154.848 173.221079 154.848 174.528 
C 154.848 175.834921 155.626868 177.08849 157.013067 178.012622 
C 158.399266 178.936755 160.279619 179.456 162.24 179.456 
z
" style="fill:#cc0000;fill-opacity:0.1;stroke:#cc0000;stroke-dasharray:7.4,3.2;stroke-dashoffset:0;stroke-linejoin:miter;stroke-width:2;"/>
   </g>
   <g id="patch_13">
    <path clip-path="url(#p35d70b44cf)" d="M 132.672 152.352 
C 134.632381 152.352 136.512734 151.573132 137.898933 150.186933 
C 139.285132 148.800734 140.064 146.920381 140.064 144.96 
C 140.064 142.999619 139.285132 141.119266 137.898933 139.733067 
C 136.512734 138.346868 134.632381 137.568 132.672 137.568 
C 130.711619 137.568 128.831266 138.346868 127.445067 139.733067 
C 126.058868 141.119266 125.28 142.999619 125.28 144.96 
C 125.28 146.920381 126.058868 148.800734 127.445067 150.186933 
C 128.831266 151.573132 130.711619 152.352 132.672 152.352 
z
" style="fill:#009900;fill-opacity:0.5;stroke:#009900;stroke-linejoin:miter;stroke-width:2;"/>
   </g>
   <g id="patch_14">
    <path clip-path="url(#p35d70b44cf)" d="M 162.24 149.888 
C 164.200381 149.888 166.080734 149.368755 167.466933 148.444622 
C 168.853132 147.52049 169.632 146.266921 169.632 144.96 
C 169.632 143.653079 168.853132 142.39951 167.466933 141.475378 
C 166.080734 140.551245 164.200381 140.032 162.24 140.032 
C 160.279619 140.032 158.399266 140.551245 157.013067 141.475378 
C 155.626868 142.39951 154.848 143.653079 154.848 144.96 
C 154.848 146.266921 155.626868 147.52049 157.013067 148.444622 
C 158.399266 149.368755 160.279619 149.888 162.24 149.888 
z
" style="fill:#cc0000;fill-opacity:0.1;stroke:#cc0000;stroke-dasharray:7.4,3.2;stroke-dashoffset:0;stroke-linejoin:miter;stroke-width:2;"/>
   </g>
   <g id="patch_15">
    <path clip-path="url(#p35d70b44cf)" d="M 132.672 122.784 
C 134.632381 122.784 136.512734 122.005132 137.898933 120.618933 
C 139.285132 119.232734 140.064 117.352381 140.064 115.392 
C 140.064 113.431619 139.285132 111.551266 137.898933 110.165067 
C 136.512734 108.778868 134.632381 108 132.672 108 
C 130.711619 108 128.831266 108.778868 127.445067 110.165067 
C 126.058868 111.551266 125.28 113.431619 125.28 115.392 
C 125.28 117.352381 126.058868 119.232734 127.445067 120.618933 
C 128.831266 122.005132 130.711619 122.784 132.672 122.784 
z
" style="fill:#009900;fill-opacity:0.5;stroke:#009900;stroke-linejoin:miter;stroke-width:2;"/>
   </g>
   <g id="patch_16">
    <path clip-path="url(#p35d70b44cf)" d="M 162.24 120.32 
C 164.200381 120.32 166.080734 119.800755 167.466933 118.876622 
C 168.853132 117.95249 169.632 116.698921 169.632 115.392 
C 169.632 114.085079 168.853132 112.83151 167.466933 111.907378 
C 166.080734 110.983245 164.200381 110.464 162.24 110.464 
C 160.279619 110.464 158.399266 110.983245 157.013067 111.907378 
C 155.626868 112.83151 154.848 114.085079 154.848 115.392 
C 154.848 116.698921 155.626868 117.95249 157.013067 118.876622 
C 158.399266 119.800755 160.279619 120.32 162.24 120.32 
z
" style="fill:#cc0000;fill-opacity:0.1;stroke:#cc0000;stroke-dasharray:7.4,3.2;stroke-dashoffset:0;stroke-linejoin:miter;stroke-width:2;"/>
   </g>
   <g id="patch_17">
    <path clip-path="url(#p35d70b44cf)" d="M 132.672 93.216 
C 134.632381 93.216 136.512734 92.437132 137.898933 91.050933 
C 139.285132 89.664734 140.064 87.784381 140.064 85.824 
C 140.064 83.863619 139.285132 81.983266 137.898933 80.597067 
C 136.512734 79.210868 134.632381 78.432 132.672 78.432 
C 130.711619 78.432 128.831266 79.210868 127.445067 80.597067 
C 126.058868 81.983266 125.28 83.863619 125.28 85.824 
C 125.28 87.784381 126.058868 89.664734 127.445067 91.050933 
C 128.831266 92.437132 130.711619 93.216 132.672 93.216 
z
" style="fill:#009900;fill-opacity:0.5;stroke:#009900;stroke-linejoin:miter;stroke-width:2;"/>
   </g>
   <g id="patch_18">
    <path clip-path="url(#p35d70b44cf)" d="M 162.24 90.752 
C 164.200381 90.752 166.080734 90.232755 167.466933 89.308622 
C 168.853132 88.38449 169.632 87.130921 169.632 85.824 
C 169.632 84.517079 168.853132 83.26351 167.466933 82.339378 
C 166.080734 81.415245 164.200381 80.896 162.24 80.896 
C 160.279619 80.896 158.399266 81.415245 157.013067 82.339378 
C 155.626868 83.26351 154.848 84.517079 154.848 85.824 
C 154.848 87.130921 155.626868 88.38449 157.013067 89.308622 
C 158.399266 90.232755 160.279619 90.752 162.24 90.752 
z
" style="fill:#cc0000;fill-opacity:0.1;stroke:#cc0000;stroke-dasharray:7.4,3.2;stroke-dashoffset:0;stroke-linejoin:miter;stroke-width:2;"/>
   </g>
   <g id="patch_19">
    <path clip-path="url(#p35d70b44cf)" d="M 132.672 63.648 
C 134.632381 63.648 136.512734 62.869132 137.898933 61.482933 
C 139.285132 60.096734 140.064 58.216381 140.064 56.256 
C 140.064 54.295619 139.285132 52.415266 137.898933 51.029067 
C 136.512734 49.642868 134.632381 48.864 132.672 48.864 
C 130.711619 48.864 128.831266 49.642868 127.445067 51.029067 
C 126.058868 52.415266 125.28 54.295619 125.28 56.256 
C 125.28 58.216381 126.058868 60.096734 127.445067 61.482933 
C 128.831266 62.869132 130.711619 63.648 132.672 63.648 
z
" style="fill:#009900;fill-opacity:0.5;stroke:#009900;stroke-linejoin:miter;stroke-width:2;"/>
   </g>
   <g id="patch_20">
    <path clip-path="url(#p35d70b44cf)" d="M 162.24 61.184 
C 164.200381 61.184 166.080734 60.664755 167.466933 59.740622 
C 168.853132 58.81649 169.632 57.562921 169.632 56.256 
C 169.632 54.949079 168.853132 53.69551 167.466933 52.771378 
C 166.080734 51.847245 164.200381 51.328 162.24 51.328 
C 160.279619 51.328 158.399266 51.847245 157.013067 52.771378 
C 155.626868 53.69551 154.848 54.949079 154.848 56.256 
C 154.848 57.562921 155.626868 58.81649 157.013067 59.740622 
C 158.399266 60.664755 160.279619 61.184 162.24 61.184 
z
" style="fill:#cc0000;fill-opacity:0.1;stroke:#cc0000;stroke-dasharray:7.4,3.2;stroke-dashoffset:0;stroke-linejoin:miter;stroke-width:2;"/>
   </g>
   <g id="patch_21">
    <path clip-path="url(#p35d70b44cf)" d="M 191.808 300.192 
C 193.768381 300.192 195.648734 299.413132 197.034933 298.026933 
C 198.421132 296.640734 199.2 294.760381 199.2 292.8 
C 199.2 290.839619 198.421132 288.959266 197.034933 287.573067 
C 195.648734 286.186868 193.768381 285.408 191.808 285.408 
C 189.847619 285.408 187.967266 286.186868 186.581067 287.573067 
C 185.194868 288.959266 184.416 290.839619 184.416 292.8 
C 184.416 294.760381 185.194868 296.640734 186.581067 298.026933 
C 187.967266 299.413132 189.847619 300.192 191.808 300.192 
z
" style="fill:#009900;fill-opacity:0.5;stroke:#009900;stroke-linejoin:miter;stroke-width:2;"/>
   </g>
   <g id="patch_22">
    <path clip-path="url(#p35d70b44cf)" d="M 221.376 297.728 
C 223.336381 297.728 225.216734 297.208755 226.602933 296.284622 
C 227.989132 295.36049 228.768 294.106921 228.768 292.8 
C 228.768 291.493079 227.989132 290.23951 226.602933 289.315378 
C 225.216734 288.391245 223.336381 287.872 221.376 287.872 
C 219.415619 287.872 217.535266 288.391245 216.149067 289.315378 
C 214.762868 290.23951 213.984 291.493079 213.984 292.8 
C 213.984 294.106921 214.762868 295.36049 216.149067 296.284622 
C 217.535266 297.208755 219.415619 297.728 221.376 297.728 
z
" style="fill:#cc0000;fill-opacity:0.1;stroke:#cc0000;stroke-dasharray:7.4,3.2;stroke-dashoffset:0;stroke-linejoin:miter;stroke-width:2;"/>
   </g>
   <g id="patch_23">
    <path clip-path="url(#p35d70b44cf)" d="M 191.808 270.624 
C 193.768381 270.624 195.648734 269.845132 197.034933 268.458933 
C 198.421132 267.072734 199.2 265.192381 199.2 263.232 
C 199.2 261.271619 198.421132 259.391266 197.034933 258.005067 
C 195.648734 256.618868 193.768381 255.84 191.808 255.84 
C 189.847619 255.84 187.967266 256.618868 186.581067 258.005067 
C 185.194868 259.391266 184.416 261.271619 184.416 263.232 
C 184.416 265.192381 185.194868 267.072734 186.581067 268.458933 
C 187.967266 269.845132 189.847619 270.624 191.808 270.624 
z
" style="fill:#009900;fill-opacity:0.5;stroke:#009900;stroke-linejoin:miter;stroke-width:2;"/>
   </g>
   <g id="patch_24">
    <path clip-path="url(#p35d70b44cf)" d="M 221.376 268.16 
C 223.336381 268.16 225.216734 267.640755 226.602933 266.716622 
C 227.989132 265.79249 228.768 264.538921 228.768 263.232 
C 228.768 261.925079 227.989132 260.67151 226.602933 259.747378 
C 225.216734 258.823245 223.336381 258.304 221.376 258.304 
C 219.415619 258.304 217.535266 258.823245 216.149067 259.747378 
C 214.762868 260.67151 213.984 261.925079 213.984 263.232 
C 213.984 264.538921 214.762868 265.79249 216.149067 266.716622 
C 217.535266 267.640755 219.415619 268.16 221.376 268.16 
z
" style="fill:#cc0000;fill-opacity:0.1;stroke:#cc0000;stroke-dasharray:7.4,3.2;stroke-dashoffset:0;stroke-linejoin:miter;stroke-width:2;"/>
   </g>
   <g id="patch_25">
    <path clip-path="url(#p35d70b44cf)" d="M 191.808 241.056 
C 193.768381 241.056 195.648734 240.277132 197.034933 238.890933 
C 198.421132 237.504734 199.2 235.624381 199.2 233.664 
C 199.2 231.703619 198.421132 229.823266 197.034933 228.437067 
C 195.648734 227.050868 193.768381 226.272 191.808 226.272 
C 189.847619 226.272 187.967266 227.050868 186.581067 228.437067 
C 185.194868 229.823266 184.416 231.703619 184.416 233.664 
C 184.416 235.624381 185.194868 237.504734 186.581067 238.890933 
C 187.967266 240.277132 189.847619 241.056 191.808 241.056 
z
" style="fill:#009900;fill-opacity:0.5;stroke:#009900;stroke-linejoin:miter;stroke-width:2;"/>
   </g>
   <g id="patch_26">
    <path clip-path="url(#p35d70b44cf)" d="M 221.376 238.592 
C 223.336381 238.592 225.216734 238.072755 226.602933 237.148622 
C 227.989132 236.22449 228.768 234.970921 228.768 233.664 
C 228.768 232.357079 227.989132 231.10351 226.602933 230.179378 
C 225.216734 229.255245 223.336381 228.736 221.376 228.736 
C 219.415619 228.736 217.535266 229.255245 216.149067 230.179378 
C 214.762868 231.10351 213.984 232.357079 213.984 233.664 
C 213.984 234.970921 214.762868 236.22449 216.149067 237.148622 
C 217.535266 238.072755 219.415619 238.592 221.376 238.592 
z
" style="fill:#cc0000;fill-opacity:0.1;stroke:#cc0000;stroke-dasharray:7.4,3.2;stroke-dashoffset:0;stroke-linejoin:miter;stroke-width:2;"/>
   </g>
   <g id="patch_27">
    <path clip-path="url(#p35d70b44cf)" d="M 191.808 211.488 
C 193.768381 211.488 195.648734 210.709132 197.034933 209.322933 
C 198.421132 207.936734 199.2 206.056381 199.2 204.096 
C 199.2 202.135619 198.421132 200.255266 197.034933 198.869067 
C 195.648734 197.482868 193.768381 196.704 191.808 196.704 
C 189.847619 196.704 187.967266 197.482868 186.581067 198.869067 
C 185.194868 200.255266 184.416 202.135619 184.416 204.096 
C 184.416 206.056381 185.194868 207.936734 186.581067 209.322933 
C 187.967266 210.709132 189.847619 211.488 191.808 211.488 
z
" style="fill:#009900;fill-opacity:0.5;stroke:#009900;stroke-linejoin:miter;stroke-width:2;"/>
   </g>
   <g id="patch_28">
    <path clip-path="url(#p35d70b44cf)" d="M 221.376 209.024 
C 223.336381 209.024 225.216734 208.504755 226.602933 207.580622 
C 227.989132 206.65649 228.768 205.402921 228.768 204.096 
C 228.768 202.789079 227.989132 201.53551 226.602933 200.611378 
C 225.216734 199.687245 223.336381 199.168 221.376 199.168 
C 219.415619 199.168 217.535266 199.687245 216.149067 200.611378 
C 214.762868 201.53551 213.984 202.789079 213.984 204.096 
C 213.984 205.402921 214.762868 206.65649 216.149067 207.580622 
C 217.535266 208.504755 219.415619 209.024 221.376 209.024 
z
" style="fill:#cc0000;fill-opacity:0.1;stroke:#cc0000;stroke-dasharray:7.4,3.2;stroke-dashoffset:0;stroke-linejoin:miter;stroke-width:2;"/>
   </g>
   <g id="patch_29">
    <path clip-path="url(#p35d70b44cf)" d="M 191.808 181.92 
C 193.768381 181.92 195.648734 181.141132 197.034933 179.754933 
C 198.421132 178.368734 199.2 176.488381 199.2 174.528 
C 199.2 172.567619 198.421132 170.687266 197.034933 169.301067 
C 195.648734 167.914868 193.768381 167.136 191.808 167.136 
C 189.847619 167.136 187.967266 167.914868 186.581067 169.301067 
C 185.194868 170.687266 184.416 172.567619 184.416 174.528 
C 184.416 176.488381 185.194868 178.368734 186.581067 179.754933 
C 187.967266 181.141132 189.847619 181.92 191.808 181.92 
z
" style="fill:#009900;fill-opacity:0.5;stroke:#009900;stroke-linejoin:miter;stroke-width:2;"/>
   </g>
   <g id="patch_30">
    <path clip-path="url(#p35d70b44cf)" d="M 221.376 179.456 
C 223.336381 179.456 225.216734 178.936755 226.602933 178.012622 
C 227.989132 177.08849 228.768 175.834921 228.768 174.528 
C 228.768 173.221079 227.989132 171.96751 226.602933 171.043378 
C 225.216734 170.119245 223.336381 169.6 221.376 169.6 
C 219.415619 169.6 217.535266 170.119245 216.149067 171.043378 
C 214.762868 171.96751 213.984 173.221079 213.984 174.528 
C 213.984 175.834921 214.762868 177.08849 216.149067 178.012622 
C 217.535266 178.936755 219.415619 179.456 221.376 179.456 
z
" style="fill:#cc0000;fill-opacity:0.1;stroke:#cc0000;stroke-dasharray:7.4,3.2;stroke-dashoffset:0;stroke-linejoin:miter;stroke-width:2;"/>
   </g>
   <g id="patch_31">
    <path clip-path="url(#p35d70b44cf)" d="M 191.808 152.352 
C 193.768381 152.352 195.648734 151.573132 197.034933 150.186933 
C 198.421132 148.800734 199.2 146.920381 199.2 144.96 
C 199.2 142.999619 198.421132 141.119266 197.034933 139.733067 
C 195.648734 138.346868 193.768381 137.568 191.808 137.568 
C 189.847619 137.568 187.967266 138.346868 186.581067 139.733067 
C 185.194868 141.119266 184.416 142.999619 184.416 144.96 
C 184.416 146.920381 185.194868 148.800734 186.581067 150.186933 
C 187.967266 151.573132 189.847619 152.352 191.808 152.352 
z
" style="fill:#009900;fill-opacity:0.5;stroke:#009900;stroke-linejoin:miter;stroke-width:2;"/>
   </g>
   <g id="patch_32">
    <path clip-path="url(#p35d70b44cf)" d="M 221.376 149.888 
C 223.336381 149.888 225.216734 149.368755 226.602933 148.444622 
C 227.989132 147.52049 228.768 146.266921 228.768 144.96 
C 228.768 143.653079 227.989132 142.39951 226.602933 141.475378 
C 225.216734 140.551245 223.336381 140.032 221.376 140.032 
C 219.415619 140.032 217.535266 140.551245 216.149067 141.475378 
C 214.762868 142.39951 213.984 143.653079 213.984 144.96 
C 213.984 146.266921 214.762868 147.52049 216.149067 148.444622 
C 217.535266 149.368755 219.415619 149.888 221.376 149.888 
z
" style="fill:#cc0000;fill-opacity:0.1;stroke:#cc0000;stroke-dasharray:7.4,3.2;stroke-dashoffset:0;stroke-linejoin:miter;stroke-width:2;"/>
   </g>
   <g id="patch_33">
    <path clip-path="url(#p35d70b44cf)" d="M 191.808 122.784 
C 193.768381 122.784 195.648734 122.005132 197.034933 120.618933 
C 198.421132 119.232734 199.2 117.352381 199.2 115.392 
C 199.2 113.431619 198.421132 111.551266 197.034933 110.165067 
C 195.648734 108.778868 193.768381 108 191.808 108 
C 189.847619 108 187.967266 108.778868 186.581067 110.165067 
C 185.194868 111.551266 184.416 113.431619 184.416 115.392 
C 184.416 117.352381 185.194868 119.232734 186.581067 120.618933 
C 187.967266 122.005132 189.847619 122.784 191.808 122.784 
z
" style="fill:#009900;fill-opacity:0.5;stroke:#009900;stroke-linejoin:miter;stroke-width:2;"/>
   </g>
   <g id="patch_34">
    <path clip-path="url(#p35d70b44cf)" d="M 221.376 120.32 
C 223.336381 120.32 225.216734 119.800755 226.602933 118.876622 
C 227.989132 117.95249 228.768 116.698921 228.768 115.392 
C 228.768 114.085079 227.989132 112.83151 226.602933 111.907378 
C 225.216734 110.983245 223.336381 110.464 221.376 110.464 
C 219.415619 110.464 217.535266 110.983245 216.149067 111.907378 
C 214.762868 112.83151 213.984 114.085079 213.984 115.392 
C 213.984 116.698921 214.762868 117.95249 216.149067 118.876622 
C 217.535266 119.800755 219.415619 120.32 221.376 120.32 
z
" style="fill:#cc0000;fill-opacity:0.1;stroke:#cc0000;stroke-dasharray:7.4,3.2;stroke-dashoffset:0;stroke-linejoin:miter;stroke-width:2;"/>
   </g>
   <g id="patch_35">
    <path clip-path="url(#p35d70b44cf)" d="M 191.808 93.216 
C 193.768381 93.216 195.648734 92.437132 197.034933 91.050933 
C 198.421132 89.664734 199.2 87.784381 199.2 85.824 
C 199.2 83.863619 198.421132 81.983266 197.034933 80.597067 
C 195.648734 79.210868 193.768381 78.432 191.808 78.432 
C 189.847619 78.432 187.967266 79.210868 186.581067 80.597067 
C 185.194868 81.983266 184.416 83.863619 184.416 85.824 
C 184.416 87.784381 185.194868 89.664734 186.581067 91.050933 
C 187.967266 92.437132 189.847619 93.216 191.808 93.216 
z
" style="fill:#009900;fill-opacity:0.5;stroke:#009900;stroke-linejoin:miter;stroke-width:2;"/>
   </g>
   <g id="patch_36">
    <path clip-path="url(#p35d70b44cf)" d="M 221.376 90.752 
C 223.336381 90.752 225.216734 90.232755 226.602933 89.308622 
C 227.989132 88.38449 228.768 87.130921 228.768 85.824 
C 228.768 84.517079 227.989132 83.26351 226.602933 82.339378 
C 225.216734 81.415245 223.336381 80.896 221.376 80.896 
C 219.415619 80.896 217.535266 81.415245 216.149067 82.339378 
C 214.762868 83.26351 213.984 84.517079 213.984 85.824 
C 213.984 87.130921 214.762868 88.38449 216.149067 89.308622 
C 217.535266 90.232755 219.415619 90.752 221.376 90.752 
z
" style="fill:#cc0000;fill-opacity:0.1;stroke:#cc0000;stroke-dasharray:7.4,3.2;stroke-dashoffset:0;stroke-linejoin:miter;stroke-width:2;"/>
   </g>
   <g id="patch_37">
    <path clip-path="url(#p35d70b44cf)" d="M 191.808 63.648 
C 193.768381 63.648 195.648734 62.869132 197.034933 61.482933 
C 198.421132 60.096734 199.2 58.216381 199.2 56.256 
C 199.2 54.295619 198.421132 52.415266 197.034933 51.029067 
C 195.648734 49.642868 193.768381 48.864 191.808 48.864 
C 189.847619 48.864 187.967266 49.642868 186.581067 51.029067 
C 185.194868 52.415266 184.416 54.295619 184.416 56.256 
C 184.416 58.216381 185.194868 60.096734 186.581067 61.482933 
C 187.967266 62.869132 189.847619 63.648 191.808 63.648 
z
" style="fill:#009900;fill-opacity:0.5;stroke:#009900;stroke-linejoin:miter;stroke-width:2;"/>
   </g>
   <g id="patch_38">
    <path clip-path="url(#p35d70b44cf)" d="M 221.376 61.184 
C 223.336381 61.184 225.216734 60.664755 226.602933 59.740622 
C 227.989132 58.81649 228.768 57.562921 228.768 56.256 
C 228.768 54.949079 227.989132 53.69551 226.602933 52.771378 
C 225.216734 51.847245 223.336381 51.328 221.376 51.328 
C 219.415619 51.328 217.535266 51.847245 216.149067 52.771378 
C 214.762868 53.69551 213.984 54.949079 213.984 56.256 
C 213.984 57.562921 214.762868 58.81649 216.149067 59.740622 
C 217.535266 60.664755 219.415619 61.184 221.376 61.184 
z
" style="fill:#cc0000;fill-opacity:0.1;stroke:#cc0000;stroke-dasharray:7.4,3.2;stroke-dashoffset:0;stroke-linejoin:miter;stroke-width:2;"/>
   </g>
   <g id="patch_39">
    <path clip-path="url(#p35d70b44cf)" d="M 250.944 300.192 
C 252.904381 300.192 254.784734 299.413132 256.170933 298.026933 
C 257.557132 296.640734 258.336 294.760381 258.336 292.8 
C 258.336 290.839619 257.557132 288.959266 256.170933 287.573067 
C 254.784734 286.186868 252.904381 285.408 250.944 285.408 
C 248.983619 285.408 247.103266 286.186868 245.717067 287.573067 
C 244.330868 288.959266 243.552 290.839619 243.552 292.8 
C 243.552 294.760381 244.330868 296.640734 245.717067 298.026933 
C 247.103266 299.413132 248.983619 300.192 250.944 300.192 
z
" style="fill:#009900;fill-opacity:0.5;stroke:#009900;stroke-linejoin:miter;stroke-width:2;"/>
   </g>
   <g id="patch_40">
    <path clip-path="url(#p35d70b44cf)" d="M 280.512 297.728 
C 282.472381 297.728 284.352734 297.208755 285.738933 296.284622 
C 287.125132 295.36049 287.904 294.106921 287.904 292.8 
C 287.904 291.493079 287.125132 290.23951 285.738933 289.315378 
C 284.352734 288.391245 282.472381 287.872 280.512 287.872 
C 278.551619 287.872 276.671266 288.391245 275.285067 289.315378 
C 273.898868 290.23951 273.12 291.493079 273.12 292.8 
C 273.12 294.106921 273.898868 295.36049 275.285067 296.284622 
C 276.671266 297.208755 278.551619 297.728 280.512 297.728 
z
" style="fill:#cc0000;fill-opacity:0.1;stroke:#cc0000;stroke-dasharray:7.4,3.2;stroke-dashoffset:0;stroke-linejoin:miter;stroke-width:2;"/>
   </g>
   <g id="patch_41">
    <path clip-path="url(#p35d70b44cf)" d="M 250.944 270.624 
C 252.904381 270.624 254.784734 269.845132 256.170933 268.458933 
C 257.557132 267.072734 258.336 265.192381 258.336 263.232 
C 258.336 261.271619 257.557132 259.391266 256.170933 258.005067 
C 254.784734 256.618868 252.904381 255.84 250.944 255.84 
C 248.983619 255.84 247.103266 256.618868 245.717067 258.005067 
C 244.330868 259.391266 243.552 261.271619 243.552 263.232 
C 243.552 265.192381 244.330868 267.072734 245.717067 268.458933 
C 247.103266 269.845132 248.983619 270.624 250.944 270.624 
z
" style="fill:#009900;fill-opacity:0.5;stroke:#009900;stroke-linejoin:miter;stroke-width:2;"/>
   </g>
   <g id="patch_42">
    <path clip-path="url(#p35d70b44cf)" d="M 280.512 268.16 
C 282.472381 268.16 284.352734 267.640755 285.738933 266.716622 
C 287.125132 265.79249 287.904 264.538921 287.904 263.232 
C 287.904 261.925079 287.125132 260.67151 285.738933 259.747378 
C 284.352734 258.823245 282.472381 258.304 280.512 258.304 
C 278.551619 258.304 276.671266 258.823245 275.285067 259.747378 
C 273.898868 260.67151 273.12 261.925079 273.12 263.232 
C 273.12 264.538921 273.898868 265.79249 275.285067 266.716622 
C 276.671266 267.640755 278.551619 268.16 280.512 268.16 
z
" style="fill:#cc0000;fill-opacity:0.1;stroke:#cc0000;stroke-dasharray:7.4,3.2;stroke-dashoffset:0;stroke-linejoin:miter;stroke-width:2;"/>
   </g>
   <g id="patch_43">
    <path clip-path="url(#p35d70b44cf)" d="M 250.944 241.056 
C 252.904381 241.056 254.784734 240.277132 256.170933 238.890933 
C 257.557132 237.504734 258.336 235.624381 258.336 233.664 
C 258.336 231.703619 257.557132 229.823266 256.170933 228.437067 
C 254.784734 227.050868 252.904381 226.272 250.944 226.272 
C 248.983619 226.272 247.103266 227.050868 245.717067 228.437067 
C 244.330868 229.823266 243.552 231.703619 243.552 233.664 
C 243.552 235.624381 244.330868 237.504734 245.717067 238.890933 
C 247.103266 240.277132 248.983619 241.056 250.944 241.056 
z
" style="fill:#009900;fill-opacity:0.5;stroke:#009900;stroke-linejoin:miter;stroke-width:2;"/>
   </g>
   <g id="patch_44">
    <path clip-path="url(#p35d70b44cf)" d="M 280.512 238.592 
C 282.472381 238.592 284.352734 238.072755 285.738933 237.148622 
C 287.125132 236.22449 287.904 234.970921 287.904 233.664 
C 287.904 232.357079 287.125132 231.10351 285.738933 230.179378 
C 284.352734 229.255245 282.472381 228.736 280.512 228.736 
C 278.551619 228.736 276.671266 229.255245 275.285067 230.179378 
C 273.898868 231.10351 273.12 232.357079 273.12 233.664 
C 273.12 234.970921 273.898868 236.22449 275.285067 237.148622 
C 276.671266 238.072755 278.551619 238.592 280.512 238.592 
z
" style="fill:#cc0000;fill-opacity:0.1;stroke:#cc0000;stroke-dasharray:7.4,3.2;stroke-dashoffset:0;stroke-linejoin:miter;stroke-width:2;"/>
   </g>
   <g id="patch_45">
    <path clip-path="url(#p35d70b44cf)" d="M 250.944 211.488 
C 252.904381 211.488 254.784734 210.709132 256.170933 209.322933 
C 257.557132 207.936734 258.336 206.056381 258.336 204.096 
C 258.336 202.135619 257.557132 200.255266 256.170933 198.869067 
C 254.784734 197.482868 252.904381 196.704 250.944 196.704 
C 248.983619 196.704 247.103266 197.482868 245.717067 198.869067 
C 244.330868 200.255266 243.552 202.135619 243.552 204.096 
C 243.552 206.056381 244.330868 207.936734 245.717067 209.322933 
C 247.103266 210.709132 248.983619 211.488 250.944 211.488 
z
" style="fill:#009900;fill-opacity:0.5;stroke:#009900;stroke-linejoin:miter;stroke-width:2;"/>
   </g>
   <g id="patch_46">
    <path clip-path="url(#p35d70b44cf)" d="M 280.512 209.024 
C 282.472381 209.024 284.352734 208.504755 285.738933 207.580622 
C 287.125132 206.65649 287.904 205.402921 287.904 204.096 
C 287.904 202.789079 287.125132 201.53551 285.738933 200.611378 
C 284.352734 199.687245 282.472381 199.168 280.512 199.168 
C 278.551619 199.168 276.671266 199.687245 275.285067 200.611378 
C 273.898868 201.53551 273.12 202.789079 273.12 204.096 
C 273.12 205.402921 273.898868 206.65649 275.285067 207.580622 
C 276.671266 208.504755 278.551619 209.024 280.512 209.024 
z
" style="fill:#cc0000;fill-opacity:0.1;stroke:#cc0000;stroke-dasharray:7.4,3.2;stroke-dashoffset:0;stroke-linejoin:miter;stroke-width:2;"/>
   </g>
   <g id="patch_47">
    <path clip-path="url(#p35d70b44cf)" d="M 250.944 181.92 
C 252.904381 181.92 254.784734 181.141132 256.170933 179.754933 
C 257.557132 178.368734 258.336 176.488381 258.336 174.528 
C 258.336 172.567619 257.557132 170.687266 256.170933 169.301067 
C 254.784734 167.914868 252.904381 167.136 250.944 167.136 
C 248.983619 167.136 247.103266 167.914868 245.717067 169.301067 
C 244.330868 170.687266 243.552 172.567619 243.552 174.528 
C 243.552 176.488381 244.330868 178.368734 245.717067 179.754933 
C 247.103266 181.141132 248.983619 181.92 250.944 181.92 
z
" style="fill:#009900;fill-opacity:0.5;stroke:#009900;stroke-linejoin:miter;stroke-width:2;"/>
   </g>
   <g id="patch_48">
    <path clip-path="url(#p35d70b44cf)" d="M 280.512 179.456 
C 282.472381 179.456 284.352734 178.936755 285.738933 178.012622 
C 287.125132 177.08849 287.904 175.834921 287.904 174.528 
C 287.904 173.221079 287.125132 171.96751 285.738933 171.043378 
C 284.352734 170.119245 282.472381 169.6 280.512 169.6 
C 278.551619 169.6 276.671266 170.119245 275.285067 171.043378 
C 273.898868 171.96751 273.12 173.221079 273.12 174.528 
C 273.12 175.834921 273.898868 177.08849 275.285067 178.012622 
C 276.671266 178.936755 278.551619 179.456 280.512 179.456 
z
" style="fill:#cc0000;fill-opacity:0.1;stroke:#cc0000;stroke-dasharray:7.4,3.2;stroke-dashoffset:0;stroke-linejoin:miter;stroke-width:2;"/>
   </g>
   <g id="patch_49">
    <path clip-path="url(#p35d70b44cf)" d="M 250.944 152.352 
C 252.904381 152.352 254.784734 151.573132 256.170933 150.186933 
C 257.557132 148.800734 258.336 146.920381 258.336 144.96 
C 258.336 142.999619 257.557132 141.119266 256.170933 139.733067 
C 254.784734 138.346868 252.904381 137.568 250.944 137.568 
C 248.983619 137.568 247.103266 138.346868 245.717067 139.733067 
C 244.330868 141.119266 243.552 142.999619 243.552 144.96 
C 243.552 146.920381 244.330868 148.800734 245.717067 150.186933 
C 247.103266 151.573132 248.983619 152.352 250.944 152.352 
z
" style="fill:#009900;fill-opacity:0.5;stroke:#009900;stroke-linejoin:miter;stroke-width:2;"/>
   </g>
   <g id="patch_50">
    <path clip-path="url(#p35d70b44cf)" d="M 280.512 149.888 
C 282.472381 149.888 284.352734 149.368755 285.738933 148.444622 
C 287.125132 147.52049 287.904 146.266921 287.904 144.96 
C 287.904 143.653079 287.125132 142.39951 285.738933 141.475378 
C 284.352734 140.551245 282.472381 140.032 280.512 140.032 
C 278.551619 140.032 276.671266 140.551245 275.285067 141.475378 
C 273.898868 142.39951 273.12 143.653079 273.12 144.96 
C 273.12 146.266921 273.898868 147.52049 275.285067 148.444622 
C 276.671266 149.368755 278.551619 149.888 280.512 149.888 
z
" style="fill:#cc0000;fill-opacity:0.1;stroke:#cc0000;stroke-dasharray:7.4,3.2;stroke-dashoffset:0;stroke-linejoin:miter;stroke-width:2;"/>
   </g>
   <g id="patch_51">
    <path clip-path="url(#p35d70b44cf)" d="M 250.944 122.784 
C 252.904381 122.784 254.784734 122.005132 256.170933 120.618933 
C 257.557132 119.232734 258.336 117.352381 258.336 115.392 
C 258.336 113.431619 257.557132 111.551266 256.170933 110.165067 
C 254.784734 108.778868 252.904381 108 250.944 108 
C 248.983619 108 247.103266 108.778868 245.717067 110.165067 
C 244.330868 111.551266 243.552 113.431619 243.552 115.392 
C 243.552 117.352381 244.330868 119.232734 245.717067 120.618933 
C 247.103266 122.005132 248.983619 122.784 250.944 122.784 
z
" style="fill:#009900;fill-opacity:0.5;stroke:#009900;stroke-linejoin:miter;stroke-width:2;"/>
   </g>
   <g id="patch_52">
    <path clip-path="url(#p35d70b44cf)" d="M 280.512 120.32 
C 282.472381 120.32 284.352734 119.800755 285.738933 118.876622 
C 287.125132 117.95249 287.904 116.698921 287.904 115.392 
C 287.904 114.085079 287.125132 112.83151 285.738933 111.907378 
C 284.352734 110.983245 282.472381 110.464 280.512 110.464 
C 278.551619 110.464 276.671266 110.983245 275.285067 111.907378 
C 273.898868 112.83151 273.12 114.085079 273.12 115.392 
C 273.12 116.698921 273.898868 117.95249 275.285067 118.876622 
C 276.671266 119.800755 278.551619 120.32 280.512 120.32 
z
" style="fill:#cc0000;fill-opacity:0.1;stroke:#cc0000;stroke-dasharray:7.4,3.2;stroke-dashoffset:0;stroke-linejoin:miter;stroke-width:2;"/>
   </g>
   <g id="patch_53">
    <path clip-path="url(#p35d70b44cf)" d="M 250.944 93.216 
C 252.904381 93.216 254.784734 92.437132 256.170933 91.050933 
C 257.557132 89.664734 258.336 87.784381 258.336 85.824 
C 258.336 83.863619 257.557132 81.983266 256.170933 80.597067 
C 254.784734 79.210868 252.904381 78.432 250.944 78.432 
C 248.983619 78.432 247.103266 79.210868 245.717067 80.597067 
C 244.330868 81.983266 243.552 83.863619 243.552 85.824 
C 243.552 87.784381 244.330868 89.664734 245.717067 91.050933 
C 247.103266 92.437132 248.983619 93.216 250.944 93.216 
z
" style="fill:#009900;fill-opacity:0.5;stroke:#009900;stroke-linejoin:miter;stroke-width:2;"/>
   </g>
   <g id="patch_54">
    <path clip-path="url(#p35d70b44cf)" d="M 280.512 90.752 
C 282.472381 90.752 284.352734 90.232755 285.738933 89.308622 
C 287.125132 88.38449 287.904 87.130921 287.904 85.824 
C 287.904 84.517079 287.125132 83.26351 285.738933 82.339378 
C 284.352734 81.415245 282.472381 80.896 280.512 80.896 
C 278.551619 80.896 276.671266 81.415245 275.285067 82.339378 
C 273.898868 83.26351 273.12 84.517079 273.12 85.824 
C 273.12 87.130921 273.898868 88.38449 275.285067 89.308622 
C 276.671266 90.232755 278.551619 90.752 280.512 90.752 
z
" style="fill:#cc0000;fill-opacity:0.1;stroke:#cc0000;stroke-dasharray:7.4,3.2;stroke-dashoffset:0;stroke-linejoin:miter;stroke-width:2;"/>
   </g>
   <g id="patch_55">
    <path clip-path="url(#p35d70b44cf)" d="M 250.944 63.648 
C 252.904381 63.648 254.784734 62.869132 256.170933 61.482933 
C 257.557132 60.096734 258.336 58.216381 258.336 56.256 
C 258.336 54.295619 257.557132 52.415266 256.170933 51.029067 
C 254.784734 49.642868 252.904381 48.864 250.944 48.864 
C 248.983619 48.864 247.103266 49.642868 245.717067 51.029067 
C 244.330868 52.415266 243.552 54.295619 243.552 56.256 
C 243.552 58.216381 244.330868 60.096734 245.717067 61.482933 
C 247.103266 62.869132 248.983619 63.648 250.944 63.648 
z
" style="fill:#009900;fill-opacity:0.5;stroke:#009900;stroke-linejoin:miter;stroke-width:2;"/>
   </g>
   <g id="patch_56">
    <path clip-path="url(#p35d70b44cf)" d="M 280.512 61.184 
C 282.472381 61.184 284.352734 60.664755 285.738933 59.740622 
C 287.125132 58.81649 287.904 57.562921 287.904 56.256 
C 287.904 54.949079 287.125132 53.69551 285.738933 52.771378 
C 284.352734 51.847245 282.472381 51.328 280.512 51.328 
C 278.551619 51.328 276.671266 51.847245 275.285067 52.771378 
C 273.898868 53.69551 273.12 54.949079 273.12 56.256 
C 273.12 57.562921 273.898868 58.81649 275.285067 59.740622 
C 276.671266 60.664755 278.551619 61.184 280.512 61.184 
z
" style="fill:#cc0000;fill-opacity:0.1;stroke:#cc0000;stroke-dasharray:7.4,3.2;stroke-dashoffset:0;stroke-linejoin:miter;stroke-width:2;"/>
   </g>
   <g id="patch_57">
    <path clip-path="url(#p35d70b44cf)" d="M 310.08 300.192 
C 312.040381 300.192 313.920734 299.413132 315.306933 298.026933 
C 316.693132 296.640734 317.472 294.760381 317.472 292.8 
C 317.472 290.839619 316.693132 288.959266 315.306933 287.573067 
C 313.920734 286.186868 312.040381 285.408 310.08 285.408 
C 308.119619 285.408 306.239266 286.186868 304.853067 287.573067 
C 303.466868 288.959266 302.688 290.839619 302.688 292.8 
C 302.688 294.760381 303.466868 296.640734 304.853067 298.026933 
C 306.239266 299.413132 308.119619 300.192 310.08 300.192 
z
" style="fill:#009900;fill-opacity:0.5;stroke:#009900;stroke-linejoin:miter;stroke-width:2;"/>
   </g>
   <g id="patch_58">
    <path clip-path="url(#p35d70b44cf)" d="M 339.648 297.728 
C 341.608381 297.728 343.488734 297.208755 344.874933 296.284622 
C 346.261132 295.36049 347.04 294.106921 347.04 292.8 
C 347.04 291.493079 346.261132 290.23951 344.874933 289.315378 
C 343.488734 288.391245 341.608381 287.872 339.648 287.872 
C 337.687619 287.872 335.807266 288.391245 334.421067 289.315378 
C 333.034868 290.23951 332.256 291.493079 332.256 292.8 
C 332.256 294.106921 333.034868 295.36049 334.421067 296.284622 
C 335.807266 297.208755 337.687619 297.728 339.648 297.728 
z
" style="fill:#cc0000;fill-opacity:0.1;stroke:#cc0000;stroke-dasharray:7.4,3.2;stroke-dashoffset:0;stroke-linejoin:miter;stroke-width:2;"/>
   </g>
   <g id="patch_59">
    <path clip-path="url(#p35d70b44cf)" d="M 310.08 270.624 
C 312.040381 270.624 313.920734 269.845132 315.306933 268.458933 
C 316.693132 267.072734 317.472 265.192381 317.472 263.232 
C 317.472 261.271619 316.693132 259.391266 315.306933 258.005067 
C 313.920734 256.618868 312.040381 255.84 310.08 255.84 
C 308.119619 255.84 306.239266 256.618868 304.853067 258.005067 
C 303.466868 259.391266 302.688 261.271619 302.688 263.232 
C 302.688 265.192381 303.466868 267.072734 304.853067 268.458933 
C 306.239266 269.845132 308.119619 270.624 310.08 270.624 
z
" style="fill:#009900;fill-opacity:0.5;stroke:#009900;stroke-linejoin:miter;stroke-width:2;"/>
   </g>
   <g id="patch_60">
    <path clip-path="url(#p35d70b44cf)" d="M 339.648 268.16 
C 341.608381 268.16 343.488734 267.640755 344.874933 266.716622 
C 346.261132 265.79249 347.04 264.538921 347.04 263.232 
C 347.04 261.925079 346.261132 260.67151 344.874933 259.747378 
C 343.488734 258.823245 341.608381 258.304 339.648 258.304 
C 337.687619 258.304 335.807266 258.823245 334.421067 259.747378 
C 333.034868 260.67151 332.256 261.925079 332.256 263.232 
C 332.256 264.538921 333.034868 265.79249 334.421067 266.716622 
C 335.807266 267.640755 337.687619 268.16 339.648 268.16 
z
" style="fill:#cc0000;fill-opacity:0.1;stroke:#cc0000;stroke-dasharray:7.4,3.2;stroke-dashoffset:0;stroke-linejoin:miter;stroke-width:2;"/>
   </g>
   <g id="patch_61">
    <path clip-path="url(#p35d70b44cf)" d="M 310.08 241.056 
C 312.040381 241.056 313.920734 240.277132 315.306933 238.890933 
C 316.693132 237.504734 317.472 235.624381 317.472 233.664 
C 317.472 231.703619 316.693132 229.823266 315.306933 228.437067 
C 313.920734 227.050868 312.040381 226.272 310.08 226.272 
C 308.119619 226.272 306.239266 227.050868 304.853067 228.437067 
C 303.466868 229.823266 302.688 231.703619 302.688 233.664 
C 302.688 235.624381 303.466868 237.504734 304.853067 238.890933 
C 306.239266 240.277132 308.119619 241.056 310.08 241.056 
z
" style="fill:#009900;fill-opacity:0.5;stroke:#009900;stroke-linejoin:miter;stroke-width:2;"/>
   </g>
   <g id="patch_62">
    <path clip-path="url(#p35d70b44cf)" d="M 339.648 238.592 
C 341.608381 238.592 343.488734 238.072755 344.874933 237.148622 
C 346.261132 236.22449 347.04 234.970921 347.04 233.664 
C 347.04 232.357079 346.261132 231.10351 344.874933 230.179378 
C 343.488734 229.255245 341.608381 228.736 339.648 228.736 
C 337.687619 228.736 335.807266 229.255245 334.421067 230.179378 
C 333.034868 231.10351 332.256 232.357079 332.256 233.664 
C 332.256 234.970921 333.034868 236.22449 334.421067 237.148622 
C 335.807266 238.072755 337.687619 238.592 339.648 238.592 
z
" style="fill:#cc0000;fill-opacity:0.1;stroke:#cc0000;stroke-dasharray:7.4,3.2;stroke-dashoffset:0;stroke-linejoin:miter;stroke-width:2;"/>
   </g>
   <g id="patch_63">
    <path clip-path="url(#p35d70b44cf)" d="M 310.08 211.488 
C 312.040381 211.488 313.920734 210.709132 315.306933 209.322933 
C 316.693132 207.936734 317.472 206.056381 317.472 204.096 
C 317.472 202.135619 316.693132 200.255266 315.306933 198.869067 
C 313.920734 197.482868 312.040381 196.704 310.08 196.704 
C 308.119619 196.704 306.239266 197.482868 304.853067 198.869067 
C 303.466868 200.255266 302.688 202.135619 302.688 204.096 
C 302.688 206.056381 303.466868 207.936734 304.853067 209.322933 
C 306.239266 210.709132 308.119619 211.488 310.08 211.488 
z
" style="fill:#009900;fill-opacity:0.5;stroke:#009900;stroke-linejoin:miter;stroke-width:2;"/>
   </g>
   <g id="patch_64">
    <path clip-path="url(#p35d70b44cf)" d="M 339.648 209.024 
C 341.608381 209.024 343.488734 208.504755 344.874933 207.580622 
C 346.261132 206.65649 347.04 205.402921 347.04 204.096 
C 347.04 202.789079 346.261132 201.53551 344.874933 200.611378 
C 343.488734 199.687245 341.608381 199.168 339.648 199.168 
C 337.687619 199.168 335.807266 199.687245 334.421067 200.611378 
C 333.034868 201.53551 332.256 202.789079 332.256 204.096 
C 332.256 205.402921 333.034868 206.65649 334.421067 207.580622 
C 335.807266 208.504755 337.687619 209.024 339.648 209.024 
z
" style="fill:#cc0000;fill-opacity:0.1;stroke:#cc0000;stroke-dasharray:7.4,3.2;stroke-dashoffset:0;stroke-linejoin:miter;stroke-width:2;"/>
   </g>
   <g id="patch_65">
    <path clip-path="url(#p35d70b44cf)" d="M 310.08 181.92 
C 312.040381 181.92 313.920734 181.141132 315.306933 179.754933 
C 316.693132 178.368734 317.472 176.488381 317.472 174.528 
C 317.472 172.567619 316.693132 170.687266 315.306933 169.301067 
C 313.920734 167.914868 312.040381 167.136 310.08 167.136 
C 308.119619 167.136 306.239266 167.914868 304.853067 169.301067 
C 303.466868 170.687266 302.688 172.567619 302.688 174.528 
C 302.688 176.488381 303.466868 178.368734 304.853067 179.754933 
C 306.239266 181.141132 308.119619 181.92 310.08 181.92 
z
" style="fill:#009900;fill-opacity:0.5;stroke:#009900;stroke-linejoin:miter;stroke-width:2;"/>
   </g>
   <g id="patch_66">
    <path clip-path="url(#p35d70b44cf)" d="M 339.648 179.456 
C 341.608381 179.456 343.488734 178.936755 344.874933 178.012622 
C 346.261132 177.08849 347.04 175.834921 347.04 174.528 
C 347.04 173.221079 346.261132 171.96751 344.874933 171.043378 
C 343.488734 170.119245 341.608381 169.6 339.648 169.6 
C 337.687619 169.6 335.807266 170.119245 334.421067 171.043378 
C 333.034868 171.96751 332.256 173.221079 332.256 174.528 
C 332.256 175.834921 333.034868 177.08849 334.421067 178.012622 
C 335.807266 178.936755 337.687619 179.456 339.648 179.456 
z
" style="fill:#cc0000;fill-opacity:0.1;stroke:#cc0000;stroke-dasharray:7.4,3.2;stroke-dashoffset:0;stroke-linejoin:miter;stroke-width:2;"/>
   </g>
   <g id="patch_67">
    <path clip-path="url(#p35d70b44cf)" d="M 310.08 152.352 
C 312.040381 152.352 313.920734 151.573132 315.306933 150.186933 
C 316.693132 148.800734 317.472 146.920381 317.472 144.96 
C 317.472 142.999619 316.693132 141.119266 315.306933 139.733067 
C 313.920734 138.346868 312.040381 137.568 310.08 137.568 
C 308.119619 137.568 306.239266 138.346868 304.853067 139.733067 
C 303.466868 141.119266 302.688 142.999619 302.688 144.96 
C 302.688 146.920381 303.466868 148.800734 304.853067 150.186933 
C 306.239266 151.573132 308.119619 152.352 310.08 152.352 
z
" style="fill:#009900;fill-opacity:0.5;stroke:#009900;stroke-linejoin:miter;stroke-width:2;"/>
   </g>
   <g id="patch_68">
    <path clip-path="url(#p35d70b44cf)" d="M 339.648 149.888 
C 341.608381 149.888 343.488734 149.368755 344.874933 148.444622 
C 346.261132 147.52049 347.04 146.266921 347.04 144.96 
C 347.04 143.653079 346.261132 142.39951 344.874933 141.475378 
C 343.488734 140.551245 341.608381 140.032 339.648 140.032 
C 337.687619 140.032 335.807266 140.551245 334.421067 141.475378 
C 333.034868 142.39951 332.256 143.653079 332.256 144.96 
C 332.256 146.266921 333.034868 147.52049 334.421067 148.444622 
C 335.807266 149.368755 337.687619 149.888 339.648 149.888 
z
" style="fill:#cc0000;fill-opacity:0.1;stroke:#cc0000;stroke-dasharray:7.4,3.2;stroke-dashoffset:0;stroke-linejoin:miter;stroke-width:2;"/>
   </g>
   <g id="patch_69">
    <path clip-path="url(#p35d70b44cf)" d="M 310.08 122.784 
C 312.040381 122.784 313.920734 122.005132 315.306933 120.618933 
C 316.693132 119.232734 317.472 117.352381 317.472 115.392 
C 317.472 113.431619 316.693132 111.551266 315.306933 110.165067 
C 313.920734 108.778868 312.040381 108 310.08 108 
C 308.119619 108 306.239266 108.778868 304.853067 110.165067 
C 303.466868 111.551266 302.688 113.431619 302.688 115.392 
C 302.688 117.352381 303.466868 119.232734 304.853067 120.618933 
C 306.239266 122.005132 308.119619 122.784 310.08 122.784 
z
" style="fill:#009900;fill-opacity:0.5;stroke:#009900;stroke-linejoin:miter;stroke-width:2;"/>
   </g>
   <g id="patch_70">
    <path clip-path="url(#p35d70b44cf)" d="M 339.648 120.32 
C 341.608381 120.32 343.488734 119.800755 344.874933 118.876622 
C 346.261132 117.95249 347.04 116.698921 347.04 115.392 
C 347.04 114.085079 346.261132 112.83151 344.874933 111.907378 
C 343.488734 110.983245 341.608381 110.464 339.648 110.464 
C 337.687619 110.464 335.807266 110.983245 334.421067 111.907378 
C 333.034868 112.83151 332.256 114.085079 332.256 115.392 
C 332.256 116.698921 333.034868 117.95249 334.421067 118.876622 
C 335.807266 119.800755 337.687619 120.32 339.648 120.32 
z
" style="fill:#cc0000;fill-opacity:0.1;stroke:#cc0000;stroke-dasharray:7.4,3.2;stroke-dashoffset:0;stroke-linejoin:miter;stroke-width:2;"/>
   </g>
   <g id="patch_71">
    <path clip-path="url(#p35d70b44cf)" d="M 310.08 93.216 
C 312.040381 93.216 313.920734 92.437132 315.306933 91.050933 
C 316.693132 89.664734 317.472 87.784381 317.472 85.824 
C 317.472 83.863619 316.693132 81.983266 315.306933 80.597067 
C 313.920734 79.210868 312.040381 78.432 310.08 78.432 
C 308.119619 78.432 306.239266 79.210868 304.853067 80.597067 
C 303.466868 81.983266 302.688 83.863619 302.688 85.824 
C 302.688 87.784381 303.466868 89.664734 304.853067 91.050933 
C 306.239266 92.437132 308.119619 93.216 310.08 93.216 
z
" style="fill:#009900;fill-opacity:0.5;stroke:#009900;stroke-linejoin:miter;stroke-width:2;"/>
   </g>
   <g id="patch_72">
    <path clip-path="url(#p35d70b44cf)" d="M 339.648 90.752 
C 341.608381 90.752 343.488734 90.232755 344.874933 89.308622 
C 346.261132 88.38449 347.04 87.130921 347.04 85.824 
C 347.04 84.517079 346.261132 83.26351 344.874933 82.339378 
C 343.488734 81.415245 341.608381 80.896 339.648 80.896 
C 337.687619 80.896 335.807266 81.415245 334.421067 82.339378 
C 333.034868 83.26351 332.256 84.517079 332.256 85.824 
C 332.256 87.130921 333.034868 88.38449 334.421067 89.308622 
C 335.807266 90.232755 337.687619 90.752 339.648 90.752 
z
" style="fill:#cc0000;fill-opacity:0.1;stroke:#cc0000;stroke-dasharray:7.4,3.2;stroke-dashoffset:0;stroke-linejoin:miter;stroke-width:2;"/>
   </g>
   <g id="patch_73">
    <path clip-path="url(#p35d70b44cf)" d="M 310.08 63.648 
C 312.040381 63.648 313.920734 62.869132 315.306933 61.482933 
C 316.693132 60.096734 317.472 58.216381 317.472 56.256 
C 317.472 54.295619 316.693132 52.415266 315.306933 51.029067 
C 313.920734 49.642868 312.040381 48.864 310.08 48.864 
C 308.119619 48.864 306.239266 49.642868 304.853067 51.029067 
C 303.466868 52.415266 302.688 54.295619 302.688 56.256 
C 302.688 58.216381 303.466868 60.096734 304.853067 61.482933 
C 306.239266 62.869132 308.119619 63.648 310.08 63.648 
z
" style="fill:#009900;fill-opacity:0.5;stroke:#009900;stroke-linejoin:miter;stroke-width:2;"/>
   </g>
   <g id="patch_74">
    <path clip-path="url(#p35d70b44cf)" d="M 339.648 61.184 
C 341.608381 61.184 343.488734 60.664755 344.874933 59.740622 
C 346.261132 58.81649 347.04 57.562921 347.04 56.256 
C 347.04 54.949079 346.261132 53.69551 344.874933 52.771378 
C 343.488734 51.847245 341.608381 51.328 339.648 51.328 
C 337.687619 51.328 335.807266 51.847245 334.421067 52.771378 
C 333.034868 53.69551 332.256 54.949079 332.256 56.256 
C 332.256 57.562921 333.034868 58.81649 334.421067 59.740622 
C 335.807266 60.664755 337.687619 61.184 339.648 61.184 
z
" style="fill:#cc0000;fill-opacity:0.1;stroke:#cc0000;stroke-dasharray:7.4,3.2;stroke-dashoffset:0;stroke-linejoin:miter;stroke-width:2;"/>
   </g>
   <g id="matplotlib.axis_1">
    <g id="xtick_1">
     <g id="line2d_1">
      <defs>
       <path d="M 0 0 
L 0 3.5 
" id="m246d9618c0" style="stroke:#000000;stroke-width:0.8;"/>
      </defs>
      <g>
       <use style="stroke:#000000;stroke-width:0.8;" x="117.888" xlink:href="#m246d9618c0" y="307.584"/>
      </g>
     </g>
     <g id="text_1">
      <!-- 6 -->
      <defs>
       <path d="M 10.59375 35.5 
L 73.1875 35.5 
L 73.1875 27.203125 
L 10.59375 27.203125 
z
" id="DejaVuSans-8722"/>
       <path d="M 33.015625 40.375 
Q 26.375 40.375 22.484375 35.828125 
Q 18.609375 31.296875 18.609375 23.390625 
Q 18.609375 15.53125 22.484375 10.953125 
Q 26.375 6.390625 33.015625 6.390625 
Q 39.65625 6.390625 43.53125 10.953125 
Q 47.40625 15.53125 47.40625 23.390625 
Q 47.40625 31.296875 43.53125 35.828125 
Q 39.65625 40.375 33.015625 40.375 
z
M 52.59375 71.296875 
L 52.59375 62.3125 
Q 48.875 64.0625 45.09375 64.984375 
Q 41.3125 65.921875 37.59375 65.921875 
Q 27.828125 65.921875 22.671875 59.328125 
Q 17.53125 52.734375 16.796875 39.40625 
Q 19.671875 43.65625 24.015625 45.921875 
Q 28.375 48.1875 33.59375 48.1875 
Q 44.578125 48.1875 50.953125 41.515625 
Q 57.328125 34.859375 57.328125 23.390625 
Q 57.328125 12.15625 50.6875 5.359375 
Q 44.046875 -1.421875 33.015625 -1.421875 
Q 20.359375 -1.421875 13.671875 8.265625 
Q 6.984375 17.96875 6.984375 36.375 
Q 6.984375 53.65625 15.1875 63.9375 
Q 23.390625 74.21875 37.203125 74.21875 
Q 40.921875 74.21875 44.703125 73.484375 
Q 48.484375 72.75 52.59375 71.296875 
z
" id="DejaVuSans-54"/>
      </defs>
      <g transform="translate(110.516906 322.182437)scale(0.1 -0.1)">
       <use xlink:href="#DejaVuSans-8722"/>
       <use x="83.789062" xlink:href="#DejaVuSans-54"/>
      </g>
     </g>
    </g>
    <g id="xtick_2">
     <g id="line2d_2">
      <g>
       <use style="stroke:#000000;stroke-width:0.8;" x="177.024" xlink:href="#m246d9618c0" y="307.584"/>
      </g>
     </g>
     <g id="text_2">
      <!-- 4 -->
      <defs>
       <path d="M 37.796875 64.3125 
L 12.890625 25.390625 
L 37.796875 25.390625 
z
M 35.203125 72.90625 
L 47.609375 72.90625 
L 47.609375 25.390625 
L 58.015625 25.390625 
L 58.015625 17.1875 
L 47.609375 17.1875 
L 47.609375 0 
L 37.796875 0 
L 37.796875 17.1875 
L 4.890625 17.1875 
L 4.890625 26.703125 
z
" id="DejaVuSans-52"/>
      </defs>
      <g transform="translate(169.652906 322.182437)scale(0.1 -0.1)">
       <use xlink:href="#DejaVuSans-8722"/>
       <use x="83.789062" xlink:href="#DejaVuSans-52"/>
      </g>
     </g>
    </g>
    <g id="xtick_3">
     <g id="line2d_3">
      <g>
       <use style="stroke:#000000;stroke-width:0.8;" x="236.16" xlink:href="#m246d9618c0" y="307.584"/>
      </g>
     </g>
     <g id="text_3">
      <!-- 2 -->
      <defs>
       <path d="M 19.1875 8.296875 
L 53.609375 8.296875 
L 53.609375 0 
L 7.328125 0 
L 7.328125 8.296875 
Q 12.9375 14.109375 22.625 23.890625 
Q 32.328125 33.6875 34.8125 36.53125 
Q 39.546875 41.84375 41.421875 45.53125 
Q 43.3125 49.21875 43.3125 52.78125 
Q 43.3125 58.59375 39.234375 62.25 
Q 35.15625 65.921875 28.609375 65.921875 
Q 23.96875 65.921875 18.8125 64.3125 
Q 13.671875 62.703125 7.8125 59.421875 
L 7.8125 69.390625 
Q 13.765625 71.78125 18.9375 73 
Q 24.125 74.21875 28.421875 74.21875 
Q 39.75 74.21875 46.484375 68.546875 
Q 53.21875 62.890625 53.21875 53.421875 
Q 53.21875 48.921875 51.53125 44.890625 
Q 49.859375 40.875 45.40625 35.40625 
Q 44.1875 33.984375 37.640625 27.21875 
Q 31.109375 20.453125 19.1875 8.296875 
z
" id="DejaVuSans-50"/>
      </defs>
      <g transform="translate(228.788906 322.182437)scale(0.1 -0.1)">
       <use xlink:href="#DejaVuSans-8722"/>
       <use x="83.789062" xlink:href="#DejaVuSans-50"/>
      </g>
     </g>
    </g>
    <g id="xtick_4">
     <g id="line2d_4">
      <g>
       <use style="stroke:#000000;stroke-width:0.8;" x="295.296" xlink:href="#m246d9618c0" y="307.584"/>
      </g>
     </g>
     <g id="text_4">
      <!-- 0 -->
      <defs>
       <path d="M 31.78125 66.40625 
Q 24.171875 66.40625 20.328125 58.90625 
Q 16.5 51.421875 16.5 36.375 
Q 16.5 21.390625 20.328125 13.890625 
Q 24.171875 6.390625 31.78125 6.390625 
Q 39.453125 6.390625 43.28125 13.890625 
Q 47.125 21.390625 47.125 36.375 
Q 47.125 51.421875 43.28125 58.90625 
Q 39.453125 66.40625 31.78125 66.40625 
z
M 31.78125 74.21875 
Q 44.046875 74.21875 50.515625 64.515625 
Q 56.984375 54.828125 56.984375 36.375 
Q 56.984375 17.96875 50.515625 8.265625 
Q 44.046875 -1.421875 31.78125 -1.421875 
Q 19.53125 -1.421875 13.0625 8.265625 
Q 6.59375 17.96875 6.59375 36.375 
Q 6.59375 54.828125 13.0625 64.515625 
Q 19.53125 74.21875 31.78125 74.21875 
z
" id="DejaVuSans-48"/>
      </defs>
      <g transform="translate(292.11475 322.182437)scale(0.1 -0.1)">
       <use xlink:href="#DejaVuSans-48"/>
      </g>
     </g>
    </g>
    <g id="xtick_5">
     <g id="line2d_5">
      <g>
       <use style="stroke:#000000;stroke-width:0.8;" x="354.432" xlink:href="#m246d9618c0" y="307.584"/>
      </g>
     </g>
     <g id="text_5">
      <!-- 2 -->
      <g transform="translate(351.25075 322.182437)scale(0.1 -0.1)">
       <use xlink:href="#DejaVuSans-50"/>
      </g>
     </g>
    </g>
   </g>
   <g id="matplotlib.axis_2">
    <g id="ytick_1">
     <g id="line2d_6">
      <defs>
       <path d="M 0 0 
L -3.5 0 
" id="m5d25e308e9" style="stroke:#000000;stroke-width:0.8;"/>
      </defs>
      <g>
       <use style="stroke:#000000;stroke-width:0.8;" x="117.888" xlink:href="#m5d25e308e9" y="307.584"/>
      </g>
     </g>
     <g id="text_6">
      <!-- 6 -->
      <g transform="translate(96.145813 311.383219)scale(0.1 -0.1)">
       <use xlink:href="#DejaVuSans-8722"/>
       <use x="83.789062" xlink:href="#DejaVuSans-54"/>
      </g>
     </g>
    </g>
    <g id="ytick_2">
     <g id="line2d_7">
      <g>
       <use style="stroke:#000000;stroke-width:0.8;" x="117.888" xlink:href="#m5d25e308e9" y="278.016"/>
      </g>
     </g>
     <g id="text_7">
      <!-- 5 -->
      <defs>
       <path d="M 10.796875 72.90625 
L 49.515625 72.90625 
L 49.515625 64.59375 
L 19.828125 64.59375 
L 19.828125 46.734375 
Q 21.96875 47.46875 24.109375 47.828125 
Q 26.265625 48.1875 28.421875 48.1875 
Q 40.625 48.1875 47.75 41.5 
Q 54.890625 34.8125 54.890625 23.390625 
Q 54.890625 11.625 47.5625 5.09375 
Q 40.234375 -1.421875 26.90625 -1.421875 
Q 22.3125 -1.421875 17.546875 -0.640625 
Q 12.796875 0.140625 7.71875 1.703125 
L 7.71875 11.625 
Q 12.109375 9.234375 16.796875 8.0625 
Q 21.484375 6.890625 26.703125 6.890625 
Q 35.15625 6.890625 40.078125 11.328125 
Q 45.015625 15.765625 45.015625 23.390625 
Q 45.015625 31 40.078125 35.4375 
Q 35.15625 39.890625 26.703125 39.890625 
Q 22.75 39.890625 18.8125 39.015625 
Q 14.890625 38.140625 10.796875 36.28125 
z
" id="DejaVuSans-53"/>
      </defs>
      <g transform="translate(96.145813 281.815219)scale(0.1 -0.1)">
       <use xlink:href="#DejaVuSans-8722"/>
       <use x="83.789062" xlink:href="#DejaVuSans-53"/>
      </g>
     </g>
    </g>
    <g id="ytick_3">
     <g id="line2d_8">
      <g>
       <use style="stroke:#000000;stroke-width:0.8;" x="117.888" xlink:href="#m5d25e308e9" y="248.448"/>
      </g>
     </g>
     <g id="text_8">
      <!-- 4 -->
      <g transform="translate(96.145813 252.247219)scale(0.1 -0.1)">
       <use xlink:href="#DejaVuSans-8722"/>
       <use x="83.789062" xlink:href="#DejaVuSans-52"/>
      </g>
     </g>
    </g>
    <g id="ytick_4">
     <g id="line2d_9">
      <g>
       <use style="stroke:#000000;stroke-width:0.8;" x="117.888" xlink:href="#m5d25e308e9" y="218.88"/>
      </g>
     </g>
     <g id="text_9">
      <!-- 3 -->
      <defs>
       <path d="M 40.578125 39.3125 
Q 47.65625 37.796875 51.625 33 
Q 55.609375 28.21875 55.609375 21.1875 
Q 55.609375 10.40625 48.1875 4.484375 
Q 40.765625 -1.421875 27.09375 -1.421875 
Q 22.515625 -1.421875 17.65625 -0.515625 
Q 12.796875 0.390625 7.625 2.203125 
L 7.625 11.71875 
Q 11.71875 9.328125 16.59375 8.109375 
Q 21.484375 6.890625 26.8125 6.890625 
Q 36.078125 6.890625 40.9375 10.546875 
Q 45.796875 14.203125 45.796875 21.1875 
Q 45.796875 27.640625 41.28125 31.265625 
Q 36.765625 34.90625 28.71875 34.90625 
L 20.21875 34.90625 
L 20.21875 43.015625 
L 29.109375 43.015625 
Q 36.375 43.015625 40.234375 45.921875 
Q 44.09375 48.828125 44.09375 54.296875 
Q 44.09375 59.90625 40.109375 62.90625 
Q 36.140625 65.921875 28.71875 65.921875 
Q 24.65625 65.921875 20.015625 65.03125 
Q 15.375 64.15625 9.8125 62.3125 
L 9.8125 71.09375 
Q 15.4375 72.65625 20.34375 73.4375 
Q 25.25 74.21875 29.59375 74.21875 
Q 40.828125 74.21875 47.359375 69.109375 
Q 53.90625 64.015625 53.90625 55.328125 
Q 53.90625 49.265625 50.4375 45.09375 
Q 46.96875 40.921875 40.578125 39.3125 
z
" id="DejaVuSans-51"/>
      </defs>
      <g transform="translate(96.145813 222.679219)scale(0.1 -0.1)">
       <use xlink:href="#DejaVuSans-8722"/>
       <use x="83.789062" xlink:href="#DejaVuSans-51"/>
      </g>
     </g>
    </g>
    <g id="ytick_5">
     <g id="line2d_10">
      <g>
       <use style="stroke:#000000;stroke-width:0.8;" x="117.888" xlink:href="#m5d25e308e9" y="189.312"/>
      </g>
     </g>
     <g id="text_10">
      <!-- 2 -->
      <g transform="translate(96.145813 193.111219)scale(0.1 -0.1)">
       <use xlink:href="#DejaVuSans-8722"/>
       <use x="83.789062" xlink:href="#DejaVuSans-50"/>
      </g>
     </g>
    </g>
    <g id="ytick_6">
     <g id="line2d_11">
      <g>
       <use style="stroke:#000000;stroke-width:0.8;" x="117.888" xlink:href="#m5d25e308e9" y="159.744"/>
      </g>
     </g>
     <g id="text_11">
      <!-- 1 -->
      <defs>
       <path d="M 12.40625 8.296875 
L 28.515625 8.296875 
L 28.515625 63.921875 
L 10.984375 60.40625 
L 10.984375 69.390625 
L 28.421875 72.90625 
L 38.28125 72.90625 
L 38.28125 8.296875 
L 54.390625 8.296875 
L 54.390625 0 
L 12.40625 0 
z
" id="DejaVuSans-49"/>
      </defs>
      <g transform="translate(96.145813 163.543219)scale(0.1 -0.1)">
       <use xlink:href="#DejaVuSans-8722"/>
       <use x="83.789062" xlink:href="#DejaVuSans-49"/>
      </g>
     </g>
    </g>
    <g id="ytick_7">
     <g id="line2d_12">
      <g>
       <use style="stroke:#000000;stroke-width:0.8;" x="117.888" xlink:href="#m5d25e308e9" y="130.176"/>
      </g>
     </g>
     <g id="text_12">
      <!-- 0 -->
      <g transform="translate(104.5255 133.975219)scale(0.1 -0.1)">
       <use xlink:href="#DejaVuSans-48"/>
      </g>
     </g>
    </g>
    <g id="ytick_8">
     <g id="line2d_13">
      <g>
       <use style="stroke:#000000;stroke-width:0.8;" x="117.888" xlink:href="#m5d25e308e9" y="100.608"/>
      </g>
     </g>
     <g id="text_13">
      <!-- 1 -->
      <g transform="translate(104.5255 104.407219)scale(0.1 -0.1)">
       <use xlink:href="#DejaVuSans-49"/>
      </g>
     </g>
    </g>
    <g id="ytick_9">
     <g id="line2d_14">
      <g>
       <use style="stroke:#000000;stroke-width:0.8;" x="117.888" xlink:href="#m5d25e308e9" y="71.04"/>
      </g>
     </g>
     <g id="text_14">
      <!-- 2 -->
      <g transform="translate(104.5255 74.839219)scale(0.1 -0.1)">
       <use xlink:href="#DejaVuSans-50"/>
      </g>
     </g>
    </g>
    <g id="ytick_10">
     <g id="line2d_15">
      <g>
       <use style="stroke:#000000;stroke-width:0.8;" x="117.888" xlink:href="#m5d25e308e9" y="41.472"/>
      </g>
     </g>
     <g id="text_15">
      <!-- 3 -->
      <g transform="translate(104.5255 45.271219)scale(0.1 -0.1)">
       <use xlink:href="#DejaVuSans-51"/>
      </g>
     </g>
    </g>
   </g>
   <g id="line2d_16">
    <path clip-path="url(#p35d70b44cf)" d="M 324.864 115.392 
L 332.644839 113.814746 
L 309.458827 63.621854 
L 276.916958 111.086069 
L 197.82526 90.117513 
L 214.1242 114.436765 
L 139.968058 146.147098 
L 273.55399 264.895699 
L 276.950377 288.481744 
L 246.107642 239.254287 
L 227.736039 231.152553 
" style="fill:none;stroke:#1f77b4;stroke-linecap:square;stroke-width:1.5;"/>
   </g>
   <g id="patch_75">
    <path d="M 117.888 307.584 
L 117.888 41.472 
" style="fill:none;stroke:#000000;stroke-linecap:square;stroke-linejoin:miter;stroke-width:0.8;"/>
   </g>
   <g id="patch_76">
    <path d="M 354.432 307.584 
L 354.432 41.472 
" style="fill:none;stroke:#000000;stroke-linecap:square;stroke-linejoin:miter;stroke-width:0.8;"/>
   </g>
   <g id="patch_77">
    <path d="M 117.888 307.584 
L 354.432 307.584 
" style="fill:none;stroke:#000000;stroke-linecap:square;stroke-linejoin:miter;stroke-width:0.8;"/>
   </g>
   <g id="patch_78">
    <path d="M 117.888 41.472 
L 354.432 41.472 
" style="fill:none;stroke:#000000;stroke-linecap:square;stroke-linejoin:miter;stroke-width:0.8;"/>
   </g>
  </g>
 </g>
 <defs>
  <clipPath id="p35d70b44cf">
   <rect height="266.112" width="236.544" x="117.888" y="41.472"/>
  </clipPath>
 </defs>
</svg>
