<?xml version="1.0" encoding="utf-8" standalone="no"?>
<!DOCTYPE svg PUBLIC "-//W3C//DTD SVG 1.1//EN"
  "http://www.w3.org/Graphics/SVG/1.1/DTD/svg11.dtd">
<!-- Created with matplotlib (https://matplotlib.org/) -->
<svg height="345.6pt" version="1.1" viewBox="0 0 460.8 345.6" width="460.8pt" xmlns="http://www.w3.org/2000/svg" xmlns:xlink="http://www.w3.org/1999/xlink">
 <defs>
  <style type="text/css">
*{stroke-linecap:butt;stroke-linejoin:round;}
  </style>
 </defs>
 <g id="figure_1">
  <g id="patch_1">
   <path d="M 0 345.6 
L 460.8 345.6 
L 460.8 0 
L 0 0 
z
" style="fill:#ffffff;"/>
  </g>
  <g id="axes_1">
   <g id="patch_2">
    <path d="M 57.6 263.808 
L 414.72 263.808 
L 414.72 85.248 
L 57.6 85.248 
z
" style="fill:#ffffff;"/>
   </g>
   <g id="PathCollection_1">
    <defs>
     <path d="M 0 3 
C 0.795609 3 1.55874 2.683901 2.12132 2.12132 
C 2.683901 1.55874 3 0.795609 3 0 
C 3 -0.795609 2.683901 -1.55874 2.12132 -2.12132 
C 1.55874 -2.683901 0.795609 -3 0 -3 
C -0.795609 -3 -1.55874 -2.683901 -2.12132 -2.12132 
C -2.683901 -1.55874 -3 -0.795609 -3 0 
C -3 0.795609 -2.683901 1.55874 -2.12132 2.12132 
C -1.55874 2.683901 -0.795609 3 0 3 
z
" id="mad90c85616" style="stroke:#000000;"/>
    </defs>
    <g clip-path="url(#p520cbf39a1)">
     <use style="stroke:#000000;" x="221.325431" xlink:href="#mad90c85616" y="198.954605"/>
    </g>
   </g>
   <g id="patch_3">
    <path clip-path="url(#p520cbf39a1)" d="M 161.76 211.728 
C 171.625555 211.728 181.088371 207.808373 188.064372 200.832372 
C 195.040373 193.856371 198.96 184.393555 198.96 174.528 
C 198.96 164.662445 195.040373 155.199629 188.064372 148.223628 
C 181.088371 141.247627 171.625555 137.328 161.76 137.328 
C 151.894445 137.328 142.431629 141.247627 135.455628 148.223628 
C 128.479627 155.199629 124.56 164.662445 124.56 174.528 
C 124.56 184.393555 128.479627 193.856371 135.455628 200.832372 
C 142.431629 207.808373 151.894445 211.728 161.76 211.728 
z
" style="fill:#cc0000;fill-opacity:0.1;stroke:#cc0000;stroke-dasharray:7.4,3.2;stroke-dashoffset:0;stroke-linejoin:miter;stroke-width:2;"/>
   </g>
   <g id="patch_4">
    <path clip-path="url(#p520cbf39a1)" d="M 310.56 196.848 
C 316.479333 196.848 322.157023 194.496224 326.342623 190.310623 
C 330.528224 186.125023 332.88 180.447333 332.88 174.528 
C 332.88 168.608667 330.528224 162.930977 326.342623 158.745377 
C 322.157023 154.559776 316.479333 152.208 310.56 152.208 
C 304.640667 152.208 298.962977 154.559776 294.777377 158.745377 
C 290.591776 162.930977 288.24 168.608667 288.24 174.528 
C 288.24 180.447333 290.591776 186.125023 294.777377 190.310623 
C 298.962977 194.496224 304.640667 196.848 310.56 196.848 
z
" style="fill:#cc0000;fill-opacity:0.1;stroke:#cc0000;stroke-dasharray:7.4,3.2;stroke-dashoffset:0;stroke-linejoin:miter;stroke-width:2;"/>
   </g>
   <g id="matplotlib.axis_1">
    <g id="xtick_1">
     <g id="line2d_1">
      <defs>
       <path d="M 0 0 
L 0 3.5 
" id="ma9daaf007f" style="stroke:#000000;stroke-width:0.8;"/>
      </defs>
      <g>
       <use style="stroke:#000000;stroke-width:0.8;" x="87.36" xlink:href="#ma9daaf007f" y="263.808"/>
      </g>
     </g>
     <g id="text_1">
      <!-- 0.0 -->
      <defs>
       <path d="M 31.78125 66.40625 
Q 24.171875 66.40625 20.328125 58.90625 
Q 16.5 51.421875 16.5 36.375 
Q 16.5 21.390625 20.328125 13.890625 
Q 24.171875 6.390625 31.78125 6.390625 
Q 39.453125 6.390625 43.28125 13.890625 
Q 47.125 21.390625 47.125 36.375 
Q 47.125 51.421875 43.28125 58.90625 
Q 39.453125 66.40625 31.78125 66.40625 
z
M 31.78125 74.21875 
Q 44.046875 74.21875 50.515625 64.515625 
Q 56.984375 54.828125 56.984375 36.375 
Q 56.984375 17.96875 50.515625 8.265625 
Q 44.046875 -1.421875 31.78125 -1.421875 
Q 19.53125 -1.421875 13.0625 8.265625 
Q 6.59375 17.96875 6.59375 36.375 
Q 6.59375 54.828125 13.0625 64.515625 
Q 19.53125 74.21875 31.78125 74.21875 
z
" id="DejaVuSans-48"/>
       <path d="M 10.6875 12.40625 
L 21 12.40625 
L 21 0 
L 10.6875 0 
z
" id="DejaVuSans-46"/>
      </defs>
      <g transform="translate(79.408438 278.406437)scale(0.1 -0.1)">
       <use xlink:href="#DejaVuSans-48"/>
       <use x="63.623047" xlink:href="#DejaVuSans-46"/>
       <use x="95.410156" xlink:href="#DejaVuSans-48"/>
      </g>
     </g>
    </g>
    <g id="xtick_2">
     <g id="line2d_2">
      <g>
       <use style="stroke:#000000;stroke-width:0.8;" x="161.76" xlink:href="#ma9daaf007f" y="263.808"/>
      </g>
     </g>
     <g id="text_2">
      <!-- 0.5 -->
      <defs>
       <path d="M 10.796875 72.90625 
L 49.515625 72.90625 
L 49.515625 64.59375 
L 19.828125 64.59375 
L 19.828125 46.734375 
Q 21.96875 47.46875 24.109375 47.828125 
Q 26.265625 48.1875 28.421875 48.1875 
Q 40.625 48.1875 47.75 41.5 
Q 54.890625 34.8125 54.890625 23.390625 
Q 54.890625 11.625 47.5625 5.09375 
Q 40.234375 -1.421875 26.90625 -1.421875 
Q 22.3125 -1.421875 17.546875 -0.640625 
Q 12.796875 0.140625 7.71875 1.703125 
L 7.71875 11.625 
Q 12.109375 9.234375 16.796875 8.0625 
Q 21.484375 6.890625 26.703125 6.890625 
Q 35.15625 6.890625 40.078125 11.328125 
Q 45.015625 15.765625 45.015625 23.390625 
Q 45.015625 31 40.078125 35.4375 
Q 35.15625 39.890625 26.703125 39.890625 
Q 22.75 39.890625 18.8125 39.015625 
Q 14.890625 38.140625 10.796875 36.28125 
z
" id="DejaVuSans-53"/>
      </defs>
      <g transform="translate(153.808437 278.406437)scale(0.1 -0.1)">
       <use xlink:href="#DejaVuSans-48"/>
       <use x="63.623047" xlink:href="#DejaVuSans-46"/>
       <use x="95.410156" xlink:href="#DejaVuSans-53"/>
      </g>
     </g>
    </g>
    <g id="xtick_3">
     <g id="line2d_3">
      <g>
       <use style="stroke:#000000;stroke-width:0.8;" x="236.16" xlink:href="#ma9daaf007f" y="263.808"/>
      </g>
     </g>
     <g id="text_3">
      <!-- 1.0 -->
      <defs>
       <path d="M 12.40625 8.296875 
L 28.515625 8.296875 
L 28.515625 63.921875 
L 10.984375 60.40625 
L 10.984375 69.390625 
L 28.421875 72.90625 
L 38.28125 72.90625 
L 38.28125 8.296875 
L 54.390625 8.296875 
L 54.390625 0 
L 12.40625 0 
z
" id="DejaVuSans-49"/>
      </defs>
      <g transform="translate(228.208437 278.406437)scale(0.1 -0.1)">
       <use xlink:href="#DejaVuSans-49"/>
       <use x="63.623047" xlink:href="#DejaVuSans-46"/>
       <use x="95.410156" xlink:href="#DejaVuSans-48"/>
      </g>
     </g>
    </g>
    <g id="xtick_4">
     <g id="line2d_4">
      <g>
       <use style="stroke:#000000;stroke-width:0.8;" x="310.56" xlink:href="#ma9daaf007f" y="263.808"/>
      </g>
     </g>
     <g id="text_4">
      <!-- 1.5 -->
      <g transform="translate(302.608437 278.406437)scale(0.1 -0.1)">
       <use xlink:href="#DejaVuSans-49"/>
       <use x="63.623047" xlink:href="#DejaVuSans-46"/>
       <use x="95.410156" xlink:href="#DejaVuSans-53"/>
      </g>
     </g>
    </g>
    <g id="xtick_5">
     <g id="line2d_5">
      <g>
       <use style="stroke:#000000;stroke-width:0.8;" x="384.96" xlink:href="#ma9daaf007f" y="263.808"/>
      </g>
     </g>
     <g id="text_5">
      <!-- 2.0 -->
      <defs>
       <path d="M 19.1875 8.296875 
L 53.609375 8.296875 
L 53.609375 0 
L 7.328125 0 
L 7.328125 8.296875 
Q 12.9375 14.109375 22.625 23.890625 
Q 32.328125 33.6875 34.8125 36.53125 
Q 39.546875 41.84375 41.421875 45.53125 
Q 43.3125 49.21875 43.3125 52.78125 
Q 43.3125 58.59375 39.234375 62.25 
Q 35.15625 65.921875 28.609375 65.921875 
Q 23.96875 65.921875 18.8125 64.3125 
Q 13.671875 62.703125 7.8125 59.421875 
L 7.8125 69.390625 
Q 13.765625 71.78125 18.9375 73 
Q 24.125 74.21875 28.421875 74.21875 
Q 39.75 74.21875 46.484375 68.546875 
Q 53.21875 62.890625 53.21875 53.421875 
Q 53.21875 48.921875 51.53125 44.890625 
Q 49.859375 40.875 45.40625 35.40625 
Q 44.1875 33.984375 37.640625 27.21875 
Q 31.109375 20.453125 19.1875 8.296875 
z
" id="DejaVuSans-50"/>
      </defs>
      <g transform="translate(377.008437 278.406437)scale(0.1 -0.1)">
       <use xlink:href="#DejaVuSans-50"/>
       <use x="63.623047" xlink:href="#DejaVuSans-46"/>
       <use x="95.410156" xlink:href="#DejaVuSans-48"/>
      </g>
     </g>
    </g>
   </g>
   <g id="matplotlib.axis_2">
    <g id="ytick_1">
     <g id="line2d_6">
      <defs>
       <path d="M 0 0 
L -3.5 0 
" id="m1295ae6852" style="stroke:#000000;stroke-width:0.8;"/>
      </defs>
      <g>
       <use style="stroke:#000000;stroke-width:0.8;" x="57.6" xlink:href="#m1295ae6852" y="248.928"/>
      </g>
     </g>
     <g id="text_6">
      <!-- 0.0 -->
      <g transform="translate(34.696875 252.727219)scale(0.1 -0.1)">
       <use xlink:href="#DejaVuSans-48"/>
       <use x="63.623047" xlink:href="#DejaVuSans-46"/>
       <use x="95.410156" xlink:href="#DejaVuSans-48"/>
      </g>
     </g>
    </g>
    <g id="ytick_2">
     <g id="line2d_7">
      <g>
       <use style="stroke:#000000;stroke-width:0.8;" x="57.6" xlink:href="#m1295ae6852" y="219.168"/>
      </g>
     </g>
     <g id="text_7">
      <!-- 0.2 -->
      <g transform="translate(34.696875 222.967219)scale(0.1 -0.1)">
       <use xlink:href="#DejaVuSans-48"/>
       <use x="63.623047" xlink:href="#DejaVuSans-46"/>
       <use x="95.410156" xlink:href="#DejaVuSans-50"/>
      </g>
     </g>
    </g>
    <g id="ytick_3">
     <g id="line2d_8">
      <g>
       <use style="stroke:#000000;stroke-width:0.8;" x="57.6" xlink:href="#m1295ae6852" y="189.408"/>
      </g>
     </g>
     <g id="text_8">
      <!-- 0.4 -->
      <defs>
       <path d="M 37.796875 64.3125 
L 12.890625 25.390625 
L 37.796875 25.390625 
z
M 35.203125 72.90625 
L 47.609375 72.90625 
L 47.609375 25.390625 
L 58.015625 25.390625 
L 58.015625 17.1875 
L 47.609375 17.1875 
L 47.609375 0 
L 37.796875 0 
L 37.796875 17.1875 
L 4.890625 17.1875 
L 4.890625 26.703125 
z
" id="DejaVuSans-52"/>
      </defs>
      <g transform="translate(34.696875 193.207219)scale(0.1 -0.1)">
       <use xlink:href="#DejaVuSans-48"/>
       <use x="63.623047" xlink:href="#DejaVuSans-46"/>
       <use x="95.410156" xlink:href="#DejaVuSans-52"/>
      </g>
     </g>
    </g>
    <g id="ytick_4">
     <g id="line2d_9">
      <g>
       <use style="stroke:#000000;stroke-width:0.8;" x="57.6" xlink:href="#m1295ae6852" y="159.648"/>
      </g>
     </g>
     <g id="text_9">
      <!-- 0.6 -->
      <defs>
       <path d="M 33.015625 40.375 
Q 26.375 40.375 22.484375 35.828125 
Q 18.609375 31.296875 18.609375 23.390625 
Q 18.609375 15.53125 22.484375 10.953125 
Q 26.375 6.390625 33.015625 6.390625 
Q 39.65625 6.390625 43.53125 10.953125 
Q 47.40625 15.53125 47.40625 23.390625 
Q 47.40625 31.296875 43.53125 35.828125 
Q 39.65625 40.375 33.015625 40.375 
z
M 52.59375 71.296875 
L 52.59375 62.3125 
Q 48.875 64.0625 45.09375 64.984375 
Q 41.3125 65.921875 37.59375 65.921875 
Q 27.828125 65.921875 22.671875 59.328125 
Q 17.53125 52.734375 16.796875 39.40625 
Q 19.671875 43.65625 24.015625 45.921875 
Q 28.375 48.1875 33.59375 48.1875 
Q 44.578125 48.1875 50.953125 41.515625 
Q 57.328125 34.859375 57.328125 23.390625 
Q 57.328125 12.15625 50.6875 5.359375 
Q 44.046875 -1.421875 33.015625 -1.421875 
Q 20.359375 -1.421875 13.671875 8.265625 
Q 6.984375 17.96875 6.984375 36.375 
Q 6.984375 53.65625 15.1875 63.9375 
Q 23.390625 74.21875 37.203125 74.21875 
Q 40.921875 74.21875 44.703125 73.484375 
Q 48.484375 72.75 52.59375 71.296875 
z
" id="DejaVuSans-54"/>
      </defs>
      <g transform="translate(34.696875 163.447219)scale(0.1 -0.1)">
       <use xlink:href="#DejaVuSans-48"/>
       <use x="63.623047" xlink:href="#DejaVuSans-46"/>
       <use x="95.410156" xlink:href="#DejaVuSans-54"/>
      </g>
     </g>
    </g>
    <g id="ytick_5">
     <g id="line2d_10">
      <g>
       <use style="stroke:#000000;stroke-width:0.8;" x="57.6" xlink:href="#m1295ae6852" y="129.888"/>
      </g>
     </g>
     <g id="text_10">
      <!-- 0.8 -->
      <defs>
       <path d="M 31.78125 34.625 
Q 24.75 34.625 20.71875 30.859375 
Q 16.703125 27.09375 16.703125 20.515625 
Q 16.703125 13.921875 20.71875 10.15625 
Q 24.75 6.390625 31.78125 6.390625 
Q 38.8125 6.390625 42.859375 10.171875 
Q 46.921875 13.96875 46.921875 20.515625 
Q 46.921875 27.09375 42.890625 30.859375 
Q 38.875 34.625 31.78125 34.625 
z
M 21.921875 38.8125 
Q 15.578125 40.375 12.03125 44.71875 
Q 8.5 49.078125 8.5 55.328125 
Q 8.5 64.0625 14.71875 69.140625 
Q 20.953125 74.21875 31.78125 74.21875 
Q 42.671875 74.21875 48.875 69.140625 
Q 55.078125 64.0625 55.078125 55.328125 
Q 55.078125 49.078125 51.53125 44.71875 
Q 48 40.375 41.703125 38.8125 
Q 48.828125 37.15625 52.796875 32.3125 
Q 56.78125 27.484375 56.78125 20.515625 
Q 56.78125 9.90625 50.3125 4.234375 
Q 43.84375 -1.421875 31.78125 -1.421875 
Q 19.734375 -1.421875 13.25 4.234375 
Q 6.78125 9.90625 6.78125 20.515625 
Q 6.78125 27.484375 10.78125 32.3125 
Q 14.796875 37.15625 21.921875 38.8125 
z
M 18.3125 54.390625 
Q 18.3125 48.734375 21.84375 45.5625 
Q 25.390625 42.390625 31.78125 42.390625 
Q 38.140625 42.390625 41.71875 45.5625 
Q 45.3125 48.734375 45.3125 54.390625 
Q 45.3125 60.0625 41.71875 63.234375 
Q 38.140625 66.40625 31.78125 66.40625 
Q 25.390625 66.40625 21.84375 63.234375 
Q 18.3125 60.0625 18.3125 54.390625 
z
" id="DejaVuSans-56"/>
      </defs>
      <g transform="translate(34.696875 133.687219)scale(0.1 -0.1)">
       <use xlink:href="#DejaVuSans-48"/>
       <use x="63.623047" xlink:href="#DejaVuSans-46"/>
       <use x="95.410156" xlink:href="#DejaVuSans-56"/>
      </g>
     </g>
    </g>
    <g id="ytick_6">
     <g id="line2d_11">
      <g>
       <use style="stroke:#000000;stroke-width:0.8;" x="57.6" xlink:href="#m1295ae6852" y="100.128"/>
      </g>
     </g>
     <g id="text_11">
      <!-- 1.0 -->
      <g transform="translate(34.696875 103.927219)scale(0.1 -0.1)">
       <use xlink:href="#DejaVuSans-49"/>
       <use x="63.623047" xlink:href="#DejaVuSans-46"/>
       <use x="95.410156" xlink:href="#DejaVuSans-48"/>
      </g>
     </g>
    </g>
   </g>
   <g id="line2d_12">
    <path clip-path="url(#p520cbf39a1)" d="M 236.16 248.928 
L 236.16 100.128 
" style="fill:none;stroke:#cc0000;stroke-dasharray:7.4,3.2;stroke-dashoffset:0;stroke-width:2;"/>
   </g>
   <g id="line2d_13">
    <path clip-path="url(#p520cbf39a1)" d="M 87.36 248.928 
L 384.96 248.928 
" style="fill:none;stroke:#009900;stroke-linecap:square;stroke-width:2;"/>
   </g>
   <g id="line2d_14">
    <path clip-path="url(#p520cbf39a1)" d="M 384.96 248.928 
L 384.96 100.128 
" style="fill:none;stroke:#009900;stroke-linecap:square;stroke-width:2;"/>
   </g>
   <g id="line2d_15">
    <path clip-path="url(#p520cbf39a1)" d="M 384.96 100.128 
L 87.36 100.128 
" style="fill:none;stroke:#009900;stroke-linecap:square;stroke-width:2;"/>
   </g>
   <g id="line2d_16">
    <path clip-path="url(#p520cbf39a1)" d="M 87.36 100.128 
L 87.36 248.928 
" style="fill:none;stroke:#009900;stroke-linecap:square;stroke-width:2;"/>
   </g>
   <g id="line2d_17">
    <path clip-path="url(#p520cbf39a1)" d="M 221.325431 198.954605 
L 217.054009 203.099064 
L 212.951739 207.411019 
L 209.025182 211.883572 
L 205.28062 216.509568 
L 201.724044 221.281606 
L 198.361144 226.192052 
L 195.197299 231.233051 
L 192.237571 236.396537 
L 189.486694 241.67425 
L 186.949071 247.057748 
L 186.128139 248.928 
L 183.664649 243.510178 
L 180.986474 238.195203 
L 178.0979 232.991577 
L 175.003546 227.907627 
L 171.708363 222.951484 
L 168.217624 218.131077 
L 164.536912 213.454119 
L 163.079941 211.704575 
L 159.665204 216.579117 
L 156.448128 221.586312 
L 153.433859 226.71815 
L 150.627221 231.966423 
L 148.032703 237.322732 
L 145.654455 242.778511 
L 143.496282 248.32503 
L 143.276917 248.928 
L 141.142681 243.372227 
L 138.787981 237.906244 
L 136.216584 232.538796 
L 133.432602 227.27847 
L 130.440491 222.133682 
L 127.245036 217.112661 
L 123.85135 212.223441 
L 120.264862 207.473842 
L 116.491309 202.871464 
L 112.536729 198.42367 
L 108.407448 194.137574 
L 104.110071 190.020034 
L 99.651474 186.077637 
L 95.03879 182.316689 
L 90.279398 178.743208 
L 87.36 176.693889 
L 92.203678 173.235513 
L 96.905184 169.586209 
L 101.456996 165.751813 
L 105.851832 161.738461 
L 110.082661 157.552572 
L 114.142715 153.200843 
L 118.025499 148.690237 
L 121.724801 144.027969 
L 125.234703 139.221497 
L 128.54959 134.278511 
L 131.664158 129.206919 
L 134.573425 124.014835 
L 137.272738 118.710563 
L 139.757777 113.302591 
L 142.024567 107.79957 
L 144.069481 102.210303 
L 144.767304 100.128 
L 146.729506 105.746838 
L 148.914833 111.282714 
L 151.319788 116.726773 
L 153.940524 122.070304 
L 156.772847 127.30476 
L 159.812227 132.421765 
L 163.010339 137.349019 
L 164.118564 141.672577 
L 164.965536 146.054809 
L 165.548209 150.479943 
L 165.864484 154.932054 
L 165.913223 159.395118 
L 165.694252 163.853074 
L 165.208357 168.289877 
L 164.457289 172.689561 
L 163.443749 177.03629 
L 162.171386 181.314422 
L 160.644779 185.508559 
L 158.869421 189.603608 
L 156.851702 193.58483 
L 154.598885 197.437898 
L 152.119075 201.148944 
L 149.421199 204.704613 
L 146.276465 208.352549 
L 141.148712 211.373764 
L 136.145878 214.597616 
L 131.275965 218.018951 
L 126.546764 221.632293 
L 121.965841 225.431862 
L 117.540525 229.41158 
L 113.277895 233.56508 
L 109.18477 237.885718 
L 105.267699 242.366581 
L 101.532947 247.000501 
L 100.066964 248.928 
L 96.408119 244.233915 
L 92.564488 239.689899 
L 88.542219 235.303222 
L 87.36 234.078666 
L 91.432184 229.738286 
L 95.327541 225.238533 
L 99.039841 220.586608 
L 102.563144 215.789951 
L 105.891813 210.856236 
L 109.020524 205.793357 
L 111.944271 200.609412 
L 114.658377 195.312695 
L 117.158499 189.911679 
L 119.440639 184.415006 
L 121.501145 178.831468 
L 123.336721 173.169998 
L 124.94443 167.439653 
L 126.321701 161.649601 
L 127.466329 155.809104 
L 128.376484 149.927505 
L 129.050711 144.014215 
L 129.487929 138.078693 
L 129.68744 132.130435 
L 129.648924 126.178957 
L 129.372444 120.233779 
L 128.858441 114.304413 
L 128.107738 108.400344 
L 127.121535 102.531018 
L 126.64766 100.128 
L 125.564984 105.980298 
L 124.717203 111.87121 
L 124.105673 117.791313 
L 123.731374 123.731134 
L 123.594904 129.681173 
L 123.696481 135.631909 
L 124.035943 141.573823 
L 124.612746 147.49741 
L 125.425968 153.393193 
L 126.474308 159.251739 
L 126.931998 161.45703 
L 122.232188 165.10852 
L 117.682159 168.94503 
L 113.289189 172.960425 
L 109.060305 177.148279 
L 105.002274 181.501894 
L 101.121587 186.014305 
L 97.424452 190.678292 
L 93.916785 195.486394 
L 90.604196 200.43092 
L 87.36 205.729533 
L 90.463296 210.808031 
L 93.767195 215.758367 
L 97.266413 220.572623 
L 100.95535 225.243096 
L 104.828106 229.762316 
L 108.878484 234.123052 
L 113.100005 238.318327 
L 117.485916 242.341431 
L 122.0292 246.185928 
L 125.508903 248.928 
L 130.164624 245.220461 
L 134.668359 241.329709 
L 139.012903 237.261968 
L 143.191305 233.023745 
L 147.196882 228.62182 
L 151.023224 224.063236 
L 154.664211 219.355286 
L 158.114017 214.505501 
L 159.989354 211.685836 
L 161.48444 207.480359 
L 163.229012 203.372101 
L 165.216793 199.375847 
L 167.440628 195.50598 
L 169.892515 191.776426 
L 172.563628 188.200608 
L 175.444355 184.791396 
L 178.524328 181.561058 
L 181.792463 178.52122 
L 185.236999 175.682823 
L 188.845537 173.056082 
L 192.605092 170.65045 
L 196.502133 168.474585 
L 198.30337 167.569399 
L 193.864992 167.098101 
L 189.462862 166.361507 
L 185.112823 165.36227 
L 180.830529 164.103985 
L 176.631393 162.591181 
L 172.530527 160.829302 
L 168.54269 158.824689 
L 164.682234 156.584557 
L 160.963051 154.116967 
L 157.398527 151.4308 
L 154.001491 148.535724 
L 150.784169 145.442158 
L 147.758138 142.161235 
L 146.45722 140.621291 
L 147.035788 145.046964 
L 147.347935 149.499365 
L 147.392536 153.962473 
L 147.169431 158.420224 
L 146.679422 162.856575 
L 145.924274 167.25556 
L 144.906705 171.601348 
L 143.630375 175.878298 
L 142.099879 180.071018 
L 140.320725 184.164418 
L 138.299316 188.143768 
L 136.042926 191.994745 
L 133.559677 195.70349 
L 132.366242 197.328153 
L 136.534306 195.731733 
L 140.790598 194.38812 
L 145.1198 193.302149 
L 149.50633 192.477728 
L 153.934403 191.917825 
L 158.388081 191.624454 
L 162.851337 191.598672 
L 167.308108 191.840571 
L 171.742353 192.34928 
L 176.138115 193.122969 
L 180.479574 194.158853 
L 184.751104 195.453205 
L 188.937334 197.001365 
L 190.795837 197.78225 
L 188.269907 194.102441 
L 185.969179 190.277789 
L 183.901932 186.322058 
L 182.075606 182.249484 
L 180.496775 178.074726 
L 179.17112 173.812806 
L 178.103412 169.479064 
L 177.297494 165.089097 
L 176.756266 160.658703 
L 176.481676 156.203827 
L 176.474713 151.740502 
L 176.735401 147.284791 
L 177.262802 142.85273 
L 177.587926 140.86323 
L 174.600001 144.178893 
L 171.418632 147.309422 
L 168.055269 150.24355 
L 164.522016 152.970717 
L 160.831589 155.481109 
L 156.99727 157.765691 
L 153.032858 159.816241 
L 148.95262 161.625379 
L 144.771242 163.186594 
L 140.503771 164.494267 
L 136.165566 165.543693 
L 131.772239 166.331094 
L 127.339602 166.853636 
L 125.329198 167.002265 
L 129.251116 169.132964 
L 133.038212 171.495002 
L 136.676856 174.079879 
L 140.153952 176.878293 
L 143.456988 179.880171 
L 146.574075 183.074711 
L 149.493996 186.450416 
L 152.206241 189.995136 
L 154.701051 193.696115 
L 156.969446 197.540033 
L 159.003262 201.513056 
L 160.795179 205.600885 
L 162.33875 209.788809 
L 162.952907 211.708868 
L 164.108473 207.397722 
L 165.520473 203.163625 
L 167.183825 199.021817 
L 169.092544 194.987202 
L 171.23976 191.074303 
L 173.617745 187.2972 
L 176.217941 183.669488 
L 179.030991 180.204221 
L 182.046769 176.913872 
L 185.254424 173.810282 
L 188.64241 170.90462 
L 192.198535 168.207345 
L 195.91 165.728162 
L 197.633464 164.682463 
L 193.171654 164.565975 
L 188.724857 164.182149 
L 184.309079 163.532366 
L 179.94021 162.618964 
L 175.633974 161.445231 
L 171.405868 160.015391 
L 167.27111 158.33459 
L 163.24458 156.408877 
L 159.340768 154.245182 
L 155.573726 151.851292 
L 151.957009 149.235823 
L 148.503634 146.408188 
L 145.22603 143.378562 
L 143.806653 141.947065 
L 144.73569 146.312636 
L 145.401277 150.72606 
L 145.80102 155.171453 
L 145.933481 159.632818 
L 145.798181 164.094097 
L 145.395609 168.539235 
L 144.727213 172.952235 
L 143.795399 177.317214 
L 142.60352 181.618463 
L 141.155865 185.840502 
L 139.457645 189.968136 
L 137.514971 193.986512 
L 135.334836 197.881165 
L 134.274519 199.595675 
L 132.610002 205.309777 
L 131.175319 211.085871 
L 129.972766 216.914718 
L 129.004267 222.78699 
L 128.271371 228.693296 
L 127.77525 234.624185 
L 127.516698 240.570169 
L 127.496129 246.521737 
L 127.555413 248.928 
L 127.596655 247.440578 
L 127.612844 241.488997 
L 127.391021 235.541529 
L 126.93154 229.607689 
L 126.235136 223.696969 
L 125.302923 217.818827 
L 124.136393 211.982665 
L 122.737412 206.19782 
L 121.108218 200.473546 
L 119.251417 194.819002 
L 117.16998 189.243233 
L 114.867236 183.755159 
L 112.34687 178.36356 
L 109.612914 173.077062 
L 106.669741 167.904122 
L 103.52206 162.853014 
L 100.174906 157.931821 
L 96.633634 153.148415 
L 92.90391 148.510448 
L 88.9917 144.02534 
L 87.36 142.257469 
L 91.344211 137.836197 
L 95.148432 133.259136 
L 98.766576 128.533609 
L 102.192855 123.667173 
L 105.421789 118.667616 
L 108.44821 113.542935 
L 111.267278 108.301329 
L 113.874482 102.951183 
L 115.14556 100.128 
L 117.640885 105.531234 
L 120.350284 110.83036 
L 123.269426 116.0169 
L 126.393638 121.082556 
L 129.717924 126.019226 
L 133.236964 130.81901 
L 136.945131 135.474232 
L 140.83649 139.977442 
L 143.044874 142.378598 
L 141.1739 136.728727 
L 139.078488 131.158195 
L 136.76199 125.675913 
L 134.228112 120.290651 
L 131.480908 115.011025 
L 128.524773 109.845481 
L 125.364435 104.802283 
L 122.17479 100.128 
L 118.824979 105.047385 
L 115.674572 110.096792 
L 112.728606 115.268143 
L 109.991796 120.553165 
L 107.46852 125.943402 
L 105.162814 131.430232 
L 103.078367 137.004876 
L 101.218514 142.658417 
L 99.586229 148.38181 
L 98.184125 154.165899 
L 97.014445 160.001431 
L 96.079059 165.879069 
L 95.379464 171.789412 
L 94.916779 177.723003 
L 94.691745 183.67035 
L 94.704721 189.621939 
L 94.955687 195.568249 
L 95.444241 201.499766 
L 96.169602 207.407001 
L 97.130609 213.280505 
L 98.325725 219.110881 
L 99.753038 224.888801 
L 101.410264 230.605022 
L 103.294752 236.250399 
L 105.403488 241.815901 
L 107.733098 247.292624 
L 108.479598 248.928 
L 110.875202 243.479821 
L 113.051021 237.9402 
L 115.003575 232.318002 
L 116.729738 226.622219 
L 118.22675 220.861964 
L 119.492216 215.046453 
L 120.524111 209.184987 
L 121.320785 203.286946 
L 121.880962 197.361764 
L 122.203748 191.41892 
L 122.288625 185.467922 
L 122.135457 179.518291 
L 121.744491 173.579543 
L 121.11635 167.66118 
L 120.252041 161.77267 
L 119.152945 155.923433 
L 117.820821 150.122827 
L 116.257801 144.380132 
L 114.466384 138.704535 
L 112.449437 133.105115 
L 110.210186 127.59083 
L 107.752214 122.170502 
L 105.079452 116.852803 
L 102.196177 111.646239 
L 99.107002 106.55914 
L 95.816867 101.599644 
L 94.784405 100.128 
L 91.434595 105.047385 
L 88.284188 110.096792 
L 87.36 111.668018 
L 90.448315 116.755639 
L 93.73761 121.715692 
L 97.222623 126.54024 
L 100.897779 131.221565 
L 104.757198 135.752179 
L 108.794707 140.124834 
L 113.003845 144.332533 
L 117.37788 148.368546 
L 121.909813 152.226416 
L 126.592395 155.899972 
L 128.70579 157.461683 
L 132.434079 159.915492 
L 136.008519 162.588448 
L 139.416246 165.470932 
L 142.644996 168.55257 
L 145.683148 171.822272 
L 148.519769 175.26827 
L 151.14465 178.878162 
L 153.548343 182.638956 
L 155.722199 186.537119 
L 157.658394 190.558619 
L 159.349959 194.688986 
L 160.790808 198.913352 
L 161.975753 203.216517 
L 162.900531 207.582992 
L 163.524068 211.686149 
L 163.782967 207.230334 
L 164.308587 202.798061 
L 165.099039 198.405283 
L 166.151477 194.067807 
L 167.462114 189.801245 
L 169.026232 185.620952 
L 170.838203 181.541972 
L 172.891505 177.578985 
L 175.178749 173.746253 
L 177.691704 170.05757 
L 180.421324 166.526212 
L 183.357787 163.164887 
L 186.490525 159.985693 
L 189.808262 157.000071 
L 193.048758 154.407026 
L 189.061368 156.412527 
L 184.960895 158.17532 
L 180.762096 159.689059 
L 176.480083 160.948298 
L 172.130266 161.948504 
L 167.7283 162.686078 
L 163.290028 163.158366 
L 158.831421 163.363666 
L 154.368527 163.301242 
L 149.917408 162.971317 
L 145.494081 162.375078 
L 141.114467 161.514672 
L 136.794327 160.393195 
L 132.549209 159.014683 
L 125.852467 156.586588 
L 120.139771 154.91725 
L 114.364889 153.477695 
L 108.53706 152.270225 
L 102.665606 151.296771 
L 96.759921 150.558892 
L 90.829453 150.057767 
L 87.36 149.875018 
L 93.300552 149.512488 
L 99.221854 148.91269 
L 105.114434 148.076582 
L 110.968866 147.005503 
L 116.775783 145.701165 
L 122.525896 144.165657 
L 128.210005 142.401433 
L 133.819017 140.411317 
L 139.343959 138.198492 
L 144.775993 135.766498 
L 150.106427 133.119227 
L 155.326735 130.260912 
L 160.428566 127.196127 
L 165.403757 123.929775 
L 170.244348 120.46708 
L 174.942598 116.813584 
L 179.490988 112.97513 
L 183.882242 108.957859 
L 188.109337 104.768199 
L 192.419689 100.128 
L 196.464673 104.49374 
L 200.681004 108.694232 
L 205.061937 112.722756 
L 209.600464 116.572867 
L 214.289324 120.238406 
L 219.121016 123.713508 
L 224.08781 126.992614 
L 229.181761 130.070478 
L 234.394718 132.942177 
L 236.16 133.854123 
L 230.909162 136.655959 
L 225.774568 139.665531 
L 220.764432 142.878025 
L 215.886769 146.288301 
L 211.149382 149.890904 
L 206.559851 153.68007 
L 202.125516 157.649738 
L 197.853473 161.793556 
L 197.012515 162.649441 
L 193.165177 164.912029 
L 189.189088 166.939844 
L 185.098557 168.725588 
L 180.908307 170.262833 
L 176.633418 171.546048 
L 172.289275 172.570615 
L 167.891511 173.332846 
L 163.455955 173.829997 
L 158.998569 174.060281 
L 154.535396 174.022867 
L 150.082497 173.71789 
L 145.655898 173.146449 
L 141.271531 172.3106 
L 136.945175 171.21335 
L 132.692399 169.858649 
L 128.528509 168.251373 
L 125.364761 166.83212 
L 120.668895 163.175561 
L 115.830562 159.709711 
L 110.857502 156.440116 
L 105.757671 153.372005 
L 100.539228 150.510287 
L 95.210521 147.85954 
L 89.780074 145.424005 
L 87.36 144.42129 
L 92.83248 142.08173 
L 98.207026 139.525201 
L 103.475038 136.755792 
L 108.62809 133.777934 
L 113.657937 130.59639 
L 118.556533 127.216252 
L 123.316041 123.642925 
L 127.928848 119.882128 
L 132.387572 115.939875 
L 136.685082 111.822475 
L 140.814503 107.536513 
L 144.769227 103.088847 
L 147.232181 100.128 
L 151.070473 104.676526 
L 155.087588 109.067924 
L 159.277099 113.295166 
L 163.632303 117.351492 
L 168.146233 121.230412 
L 172.811667 124.925719 
L 177.621143 128.431504 
L 182.566966 131.742156 
L 187.641223 134.85238 
L 192.835798 137.757199 
L 198.142379 140.451968 
L 203.552477 142.932375 
L 209.057438 145.194451 
L 214.648454 147.234578 
L 220.316581 149.049492 
L 226.052752 150.63629 
L 231.847789 151.992433 
L 236.16 152.844632 
L 230.327435 154.029014 
L 224.546897 155.445689 
L 218.827636 157.092391 
L 213.178799 158.966485 
L 207.609425 161.064973 
L 202.128423 163.384499 
L 196.418244 165.889485 
L 192.154514 167.209307 
L 187.819315 168.271083 
L 183.428249 169.070993 
L 178.997119 169.606158 
L 174.541871 169.874652 
L 170.078541 169.875508 
L 165.623191 169.608723 
L 161.191856 169.075258 
L 156.800483 168.277032 
L 152.464877 167.216918 
L 148.200642 165.898731 
L 144.023124 164.327216 
L 139.947357 162.508028 
L 135.98801 160.447714 
L 132.159333 158.153689 
L 129.352287 156.263824 
L 124.790239 152.441613 
L 120.078992 148.804892 
L 115.226084 145.35948 
L 110.239278 142.110889 
L 105.126552 139.064315 
L 99.896085 136.224633 
L 94.556245 133.596384 
L 89.115574 131.183775 
L 87.36 130.460076 
L 92.831015 128.117093 
L 98.20396 125.557201 
L 103.470238 122.784496 
L 108.621426 119.803414 
L 113.649281 116.618725 
L 118.545762 113.235522 
L 123.303033 109.659218 
L 127.913485 105.895535 
L 132.369743 101.950493 
L 134.312091 100.128 
L 138.697021 104.152173 
L 143.239368 107.997776 
L 147.931865 111.658658 
L 152.767004 115.128961 
L 157.737051 118.403135 
L 162.834055 121.475941 
L 168.049861 124.342463 
L 173.376125 126.998115 
L 178.804327 129.43865 
L 184.325781 131.660162 
L 189.931656 133.659098 
L 195.612984 135.43226 
L 201.360674 136.976811 
L 207.165532 138.290281 
L 213.018272 139.370567 
L 218.90953 140.215942 
L 224.829882 140.825053 
L 230.769856 141.196926 
L 236.16 141.3285 
L 243.599481 141.258889 
L 251.034896 141.003332 
L 258.4616 140.56199 
L 265.874951 139.935137 
L 273.270316 139.123165 
L 280.643073 138.126582 
L 287.988613 136.946011 
L 295.302348 135.58219 
L 302.579704 134.03597 
L 309.816136 132.308319 
L 317.007119 130.400315 
L 324.14816 128.313152 
L 331.234796 126.048134 
L 338.262598 123.606676 
L 345.227174 120.990304 
L 352.12417 118.200653 
L 358.949278 115.239467 
L 365.698231 112.108597 
L 372.366812 108.809999 
L 378.950852 105.345734 
L 384.96 101.99696 
L 381.646655 100.128 
L 375.189103 103.822692 
L 368.825928 107.677651 
L 362.561104 111.690468 
L 356.398548 115.858636 
L 350.342111 120.179549 
L 344.395578 124.650507 
L 338.562666 129.268715 
L 332.84702 134.031289 
L 327.252211 138.93525 
L 321.781738 143.977534 
L 316.439017 149.154991 
L 313.251329 152.370853 
L 310.571158 157.684822 
L 307.680629 162.887363 
L 304.584367 167.970151 
L 301.287324 172.925056 
L 297.794774 177.744152 
L 294.112306 182.419727 
L 291.278597 185.771216 
L 297.132278 184.69604 
L 303.024272 183.855809 
L 308.945153 183.251866 
L 314.885449 182.885179 
L 320.835658 182.756334 
L 326.786259 182.865537 
L 331.168966 183.098467 
L 326.775352 179.083777 
L 322.545798 174.8966 
L 318.487069 170.543636 
L 314.605658 166.031848 
L 310.907776 161.368453 
L 307.399338 156.560913 
L 304.936836 152.927944 
L 304.392546 158.854606 
L 303.611688 164.754762 
L 302.595511 170.618973 
L 301.345641 176.437857 
L 299.864078 182.202104 
L 298.153191 187.902494 
L 296.746254 192.059766 
L 296.729006 199.499552 
L 296.89774 206.937445 
L 297.252348 214.368795 
L 297.79261 221.788959 
L 298.518189 229.193299 
L 299.428629 236.577188 
L 300.523363 243.936011 
L 301.37354 248.928 
L 302.593326 241.588869 
L 303.629272 234.221541 
L 304.480731 226.830618 
L 305.147169 219.420721 
L 305.628172 211.99648 
L 305.923437 204.562535 
L 306.192347 194.904701 
L 306.975474 189.004846 
L 307.993907 183.141027 
L 309.246015 177.322624 
L 310.729795 171.558947 
L 312.442874 165.859215 
L 314.382511 160.232548 
L 316.545604 154.687946 
L 317.166635 153.208179 
L 315.878007 159.018602 
L 314.358055 164.772846 
L 312.609209 170.461706 
L 310.63427 176.076079 
L 308.436394 181.606986 
L 306.0191 187.045576 
L 303.386253 192.383151 
L 301.934439 195.113968 
L 303.775668 189.454335 
L 305.84175 183.872858 
L 308.129379 178.378466 
L 310.634895 172.979951 
L 313.35429 167.685947 
L 316.283213 162.504925 
L 319.416979 157.445173 
L 321.124589 154.866569 
L 318.747814 160.322989 
L 316.15474 165.679999 
L 313.349518 170.929028 
L 310.336634 176.06168 
L 307.120909 181.069743 
L 303.707488 185.945205 
L 300.10183 190.680267 
L 298.154241 193.082771 
L 301.044547 187.880108 
L 304.140593 182.797187 
L 307.437424 177.842141 
L 310.929767 173.022896 
L 314.612036 168.347163 
L 318.478338 163.822421 
L 322.522489 159.455909 
L 324.692016 157.251758 
L 321.314952 162.152474 
L 317.744613 166.914224 
L 313.98671 171.529389 
L 310.047256 175.990587 
L 305.932553 180.29068 
L 301.649183 184.422789 
L 297.204 188.380303 
L 294.83263 190.365684 
L 298.665171 185.812311 
L 302.676733 181.41584 
L 306.860897 177.183305 
L 311.210971 173.121478 
L 315.719995 169.236857 
L 320.380756 165.535656 
L 325.185797 162.023796 
L 327.737043 160.275575 
L 323.484526 164.439429 
L 319.068901 168.429898 
L 314.497231 172.240596 
L 309.776832 175.865428 
L 304.915253 179.298595 
L 299.920273 182.534604 
L 294.799883 185.56828 
L 292.092393 187.063146 
L 296.725496 183.327381 
L 301.504283 179.779879 
L 306.42111 176.426315 
L 311.468111 173.272054 
L 316.637212 170.322142 
L 321.920143 167.581299 
L 327.308452 165.053909 
L 330.147108 163.826243 
L 325.176336 167.099316 
L 320.078651 170.170992 
L 314.86221 173.036358 
L 309.535358 175.69083 
L 304.106616 178.130162 
L 298.584669 180.350451 
L 292.978351 182.348144 
L 290.034824 183.297238 
L 295.297222 180.517177 
L 300.666584 177.949779 
L 306.13432 175.599152 
L 311.691682 173.469057 
L 317.32978 171.5629 
L 323.039594 169.883732 
L 328.81199 168.434239 
L 331.833123 167.772509 
L 326.327843 170.033808 
L 320.736538 172.073146 
L 315.068155 173.88726 
L 309.33176 175.473248 
L 303.536532 176.828573 
L 297.69174 177.951066 
L 291.806736 178.838932 
L 288.735982 179.207169 
L 294.433148 177.485578 
L 300.194603 175.99319 
L 306.011128 174.732393 
L 311.87342 173.705204 
L 317.772099 172.913265 
L 323.697729 172.357844 
L 329.64083 172.039829 
L 332.732761 171.968496 
L 326.89648 173.134431 
L 321.018243 174.066045 
L 315.107453 174.761847 
L 309.173566 175.220724 
L 303.226075 175.441941 
L 297.274496 175.425145 
L 291.328348 175.170363 
L 288.243879 174.944131 
L 294.165214 174.344651 
L 300.105785 173.98244 
L 306.056089 173.858079 
L 312.006606 173.971766 
L 317.947818 174.323319 
L 323.870218 174.912176 
L 329.764333 175.737395 
L 332.812768 176.259097 
L 326.861229 176.286569 
L 320.913351 176.076021 
L 314.97865 175.62779 
L 309.066622 174.942592 
L 303.186722 174.021525 
L 297.348359 172.866061 
L 291.560872 171.478049 
L 288.576708 170.66571 
L 294.503325 171.210501 
L 300.403415 171.991857 
L 306.26754 173.008529 
L 312.086318 174.25889 
L 317.85044 175.74094 
L 323.550686 177.452308 
L 329.177935 179.390256 
L 332.070187 180.485707 
L 326.223391 179.3737 
L 320.42574 178.028773 
L 314.68651 176.453078 
L 309.014881 174.649135 
L 303.419928 172.619831 
L 297.9106 170.368411 
L 292.495712 167.898478 
L 289.722165 166.530062 
L 295.434982 168.198984 
L 301.07649 170.095024 
L 306.637664 172.215147 
L 312.109608 174.555962 
L 317.483567 177.113723 
L 322.750944 179.88434 
L 327.903313 182.86338 
L 330.532466 184.492086 
L 325.006545 182.281706 
L 319.573436 179.852117 
L 314.24183 177.207205 
L 309.020257 174.351201 
L 303.917071 171.288674 
L 298.940435 168.024524 
L 294.098311 164.563972 
L 291.637906 162.690063 
L 286.199586 157.613116 
L 280.636054 152.673699 
L 274.950789 147.8749 
L 269.147343 143.219717 
L 263.229342 138.71106 
L 257.200486 134.351746 
L 251.064543 130.144501 
L 244.825347 126.091952 
L 238.486797 122.196634 
L 236.16 120.820781 
L 242.533669 116.983196 
L 248.809418 112.987486 
L 254.983322 108.836147 
L 261.051525 104.531773 
L 266.943817 100.128 
L 272.903778 104.581042 
L 278.973192 108.883708 
L 285.148264 113.033311 
L 291.425136 117.027256 
L 297.799884 120.863047 
L 304.268526 124.538288 
L 310.827017 128.050682 
L 317.47126 131.398032 
L 324.197101 134.578248 
L 331.000338 137.589341 
L 337.876719 140.42943 
L 344.821946 143.096741 
L 351.831678 145.589605 
L 358.901535 147.906465 
L 366.027098 150.045873 
L 373.203914 152.006492 
L 380.427498 153.787097 
L 384.96 154.807198 
L 377.7095 156.474821 
L 370.502952 158.323166 
L 363.344859 160.351079 
L 356.239696 162.557291 
L 349.191903 164.940425 
L 342.205884 167.498991 
L 335.286006 170.231389 
L 332.649085 171.325698 
L 326.884075 172.804295 
L 321.064549 174.051169 
L 315.199816 175.064327 
L 309.299259 175.842148 
L 303.372317 176.383388 
L 297.428472 176.68718 
L 291.477234 176.753039 
L 288.345159 176.692079 
L 294.173101 175.485153 
L 300.044646 174.512248 
L 305.9504 173.774921 
L 311.880915 173.27435 
L 317.826704 173.011338 
L 323.778254 172.986303 
L 329.726045 173.199288 
L 332.851826 173.406895 
L 326.973746 174.339501 
L 321.063073 175.0363 
L 315.129264 175.496178 
L 309.181811 175.718399 
L 303.230229 175.702607 
L 297.284039 175.448828 
L 291.352753 174.957468 
L 288.240128 174.60367 
L 294.155442 173.947432 
L 300.092266 173.528268 
L 306.041103 173.346849 
L 311.992437 173.403466 
L 317.936747 173.698027 
L 323.864522 174.230062 
L 329.76628 174.998718 
L 332.858916 175.497932 
L 326.919356 175.876361 
L 320.969414 176.016969 
L 315.018608 175.91953 
L 309.076459 175.584201 
L 303.152473 175.011517 
L 297.256126 174.202395 
L 291.396852 173.158129 
L 288.330996 172.514596 
L 294.281763 172.414806 
L 300.23176 172.553062 
L 306.171469 172.929145 
L 312.091388 173.542451 
L 317.982045 174.392001 
L 323.834018 175.476435 
L 329.637944 176.794017 
L 332.67029 177.580455 
L 339.582455 180.332308 
L 346.561249 182.910514 
L 353.602311 185.313463 
L 360.70124 187.539653 
L 367.8536 189.587693 
L 375.05492 191.456302 
L 382.300701 193.144313 
L 384.96 193.716163 
L 377.699094 195.337877 
L 370.480995 197.140588 
L 363.310215 199.12317 
L 356.191235 201.284383 
L 349.128504 203.622876 
L 342.126437 206.137189 
L 335.189409 208.825749 
L 328.321755 211.686877 
L 321.527768 214.718784 
L 314.811694 217.919576 
L 308.177731 221.287252 
L 301.630023 224.819708 
L 295.172664 228.514735 
L 288.809688 232.370025 
L 282.545073 236.383168 
L 276.382734 240.551656 
L 270.326522 244.872884 
L 264.920769 248.928 
L 258.964235 244.470375 
L 252.898133 240.163041 
L 246.726255 236.00869 
L 240.452457 232.009918 
L 236.16 229.398767 
L 242.500411 225.506479 
L 248.741544 221.456914 
L 254.879498 217.252602 
L 260.910437 212.896171 
L 266.830592 208.390343 
L 272.636263 203.737935 
L 278.323822 198.941855 
L 283.889714 194.005098 
L 289.33046 188.930752 
L 291.768629 186.572367 
L 296.498571 182.959995 
L 301.369186 179.539661 
L 306.372683 176.316835 
L 311.501055 173.296673 
L 316.7461 170.484008 
L 322.099426 167.883338 
L 327.552468 165.498824 
L 330.422464 164.346402 
L 325.367079 167.487208 
L 320.190139 170.423341 
L 314.899926 173.150102 
L 309.504903 175.66313 
L 304.013701 177.958404 
L 298.435105 180.032253 
L 292.77804 181.881359 
L 289.810529 182.752466 
L 295.144503 180.112334 
L 300.579788 177.687616 
L 306.107688 175.482191 
L 311.719361 173.499587 
L 317.405827 171.742976 
L 323.15799 170.215169 
L 328.966649 168.918608 
L 332.004173 168.336891 
L 326.441044 170.45188 
L 320.797788 172.342711 
L 315.083433 174.00636 
L 309.307121 175.440164 
L 303.478092 176.641831 
L 297.605672 177.609438 
L 291.699255 178.341437 
L 288.619869 178.628374 
L 294.360593 177.05813 
L 300.159519 175.718709 
L 306.007368 174.612255 
L 311.894786 173.740538 
L 317.812354 173.104952 
L 323.750605 172.706514 
L 329.70004 172.545861 
L 332.792747 172.556364 
L 340.19272 173.325209 
L 347.609599 173.908834 
L 355.03875 174.306874 
L 362.475529 174.519081 
L 369.915289 174.54532 
L 377.35338 174.385578 
L 384.96 174.029577 
L 377.528431 173.679577 
L 370.090435 173.515456 
L 362.650661 173.537318 
L 355.213758 173.745147 
L 347.784375 174.138814 
L 340.367153 174.718074 
L 332.85904 175.495071 
L 340.164982 176.900035 
L 347.503762 178.12193 
L 354.870793 179.159993 
L 362.26147 180.013575 
L 369.671176 180.682143 
L 377.095278 181.165278 
L 384.96 181.474212 
L 384.96 181.474212 
" style="fill:none;stroke:#1f77b4;stroke-linecap:square;stroke-width:1.5;"/>
   </g>
   <g id="patch_5">
    <path d="M 57.6 263.808 
L 57.6 85.248 
" style="fill:none;stroke:#000000;stroke-linecap:square;stroke-linejoin:miter;stroke-width:0.8;"/>
   </g>
   <g id="patch_6">
    <path d="M 414.72 263.808 
L 414.72 85.248 
" style="fill:none;stroke:#000000;stroke-linecap:square;stroke-linejoin:miter;stroke-width:0.8;"/>
   </g>
   <g id="patch_7">
    <path d="M 57.6 263.808 
L 414.72 263.808 
" style="fill:none;stroke:#000000;stroke-linecap:square;stroke-linejoin:miter;stroke-width:0.8;"/>
   </g>
   <g id="patch_8">
    <path d="M 57.6 85.248 
L 414.72 85.248 
" style="fill:none;stroke:#000000;stroke-linecap:square;stroke-linejoin:miter;stroke-width:0.8;"/>
   </g>
  </g>
 </g>
 <defs>
  <clipPath id="p520cbf39a1">
   <rect height="178.56" width="357.12" x="57.6" y="85.248"/>
  </clipPath>
 </defs>
</svg>
