<?xml version="1.0" encoding="utf-8" standalone="no"?>
<!DOCTYPE svg PUBLIC "-//W3C//DTD SVG 1.1//EN"
  "http://www.w3.org/Graphics/SVG/1.1/DTD/svg11.dtd">
<!-- Created with matplotlib (https://matplotlib.org/) -->
<svg height="345.6pt" version="1.1" viewBox="0 0 460.8 345.6" width="460.8pt" xmlns="http://www.w3.org/2000/svg" xmlns:xlink="http://www.w3.org/1999/xlink">
 <defs>
  <style type="text/css">
*{stroke-linecap:butt;stroke-linejoin:round;}
  </style>
 </defs>
 <g id="figure_1">
  <g id="patch_1">
   <path d="M 0 345.6 
L 460.8 345.6 
L 460.8 0 
L 0 0 
z
" style="fill:#ffffff;"/>
  </g>
  <g id="axes_1">
   <g id="patch_2">
    <path d="M 82.520165 307.584 
L 389.799835 307.584 
L 389.799835 41.472 
L 82.520165 41.472 
z
" style="fill:#ffffff;"/>
   </g>
   <g id="PathCollection_1">
    <defs>
     <path d="M 0 2.236068 
C 0.593012 2.236068 1.161816 2.000462 1.581139 1.581139 
C 2.000462 1.161816 2.236068 0.593012 2.236068 0 
C 2.236068 -0.593012 2.000462 -1.161816 1.581139 -1.581139 
C 1.161816 -2.000462 0.593012 -2.236068 0 -2.236068 
C -0.593012 -2.236068 -1.161816 -2.000462 -1.581139 -1.581139 
C -2.000462 -1.161816 -2.236068 -0.593012 -2.236068 0 
C -2.236068 0.593012 -2.000462 1.161816 -1.581139 1.581139 
C -1.161816 2.000462 -0.593012 2.236068 0 2.236068 
z
" id="mcec7c22b14" style="stroke:#000000;"/>
    </defs>
    <g clip-path="url(#p18cc752eba)">
     <use style="stroke:#000000;" x="198.798484" xlink:href="#mcec7c22b14" y="63.648"/>
    </g>
   </g>
   <g id="Quiver_1">
    <path clip-path="url(#p18cc752eba)" d="M 199.245156 63.225902 
L 203.888235 68.139301 
L 204.359482 66.848432 
L 207.240444 72.581452 
L 201.679446 69.38102 
L 202.994889 68.983497 
L 198.351811 64.070098 
L 199.245156 63.225902 
"/>
   </g>
   <g id="patch_3">
    <path clip-path="url(#p18cc752eba)" d="M 236.16 225.741278 
C 249.74192 225.741278 262.769389 220.345124 272.373256 210.741256 
C 281.977124 201.137389 287.373278 188.10992 287.373278 174.528 
C 287.373278 160.94608 281.977124 147.918611 272.373256 138.314744 
C 262.769389 128.710876 249.74192 123.314722 236.16 123.314722 
C 222.57808 123.314722 209.550611 128.710876 199.946744 138.314744 
C 190.342876 147.918611 184.946722 160.94608 184.946722 174.528 
C 184.946722 188.10992 190.342876 201.137389 199.946744 210.741256 
C 209.550611 220.345124 222.57808 225.741278 236.16 225.741278 
z
" style="fill:#009900;fill-opacity:0.5;stroke:#009900;stroke-linejoin:miter;stroke-width:2;"/>
   </g>
   <g id="matplotlib.axis_1">
    <g id="xtick_1">
     <g id="line2d_1">
      <defs>
       <path d="M 0 0 
L 0 3.5 
" id="m9395dcba23" style="stroke:#000000;stroke-width:0.8;"/>
      </defs>
      <g>
       <use style="stroke:#000000;stroke-width:0.8;" x="108.126804" xlink:href="#m9395dcba23" y="307.584"/>
      </g>
     </g>
     <g id="text_1">
      <!-- −2 -->
      <defs>
       <path d="M 10.59375 35.5 
L 73.1875 35.5 
L 73.1875 27.203125 
L 10.59375 27.203125 
z
" id="DejaVuSans-8722"/>
       <path d="M 19.1875 8.296875 
L 53.609375 8.296875 
L 53.609375 0 
L 7.328125 0 
L 7.328125 8.296875 
Q 12.9375 14.109375 22.625 23.890625 
Q 32.328125 33.6875 34.8125 36.53125 
Q 39.546875 41.84375 41.421875 45.53125 
Q 43.3125 49.21875 43.3125 52.78125 
Q 43.3125 58.59375 39.234375 62.25 
Q 35.15625 65.921875 28.609375 65.921875 
Q 23.96875 65.921875 18.8125 64.3125 
Q 13.671875 62.703125 7.8125 59.421875 
L 7.8125 69.390625 
Q 13.765625 71.78125 18.9375 73 
Q 24.125 74.21875 28.421875 74.21875 
Q 39.75 74.21875 46.484375 68.546875 
Q 53.21875 62.890625 53.21875 53.421875 
Q 53.21875 48.921875 51.53125 44.890625 
Q 49.859375 40.875 45.40625 35.40625 
Q 44.1875 33.984375 37.640625 27.21875 
Q 31.109375 20.453125 19.1875 8.296875 
z
" id="DejaVuSans-50"/>
      </defs>
      <g transform="translate(100.755711 322.182437)scale(0.1 -0.1)">
       <use xlink:href="#DejaVuSans-8722"/>
       <use x="83.789062" xlink:href="#DejaVuSans-50"/>
      </g>
     </g>
    </g>
    <g id="xtick_2">
     <g id="line2d_2">
      <g>
       <use style="stroke:#000000;stroke-width:0.8;" x="172.143402" xlink:href="#m9395dcba23" y="307.584"/>
      </g>
     </g>
     <g id="text_2">
      <!-- −1 -->
      <defs>
       <path d="M 12.40625 8.296875 
L 28.515625 8.296875 
L 28.515625 63.921875 
L 10.984375 60.40625 
L 10.984375 69.390625 
L 28.421875 72.90625 
L 38.28125 72.90625 
L 38.28125 8.296875 
L 54.390625 8.296875 
L 54.390625 0 
L 12.40625 0 
z
" id="DejaVuSans-49"/>
      </defs>
      <g transform="translate(164.772308 322.182437)scale(0.1 -0.1)">
       <use xlink:href="#DejaVuSans-8722"/>
       <use x="83.789062" xlink:href="#DejaVuSans-49"/>
      </g>
     </g>
    </g>
    <g id="xtick_3">
     <g id="line2d_3">
      <g>
       <use style="stroke:#000000;stroke-width:0.8;" x="236.16" xlink:href="#m9395dcba23" y="307.584"/>
      </g>
     </g>
     <g id="text_3">
      <!-- 0 -->
      <defs>
       <path d="M 31.78125 66.40625 
Q 24.171875 66.40625 20.328125 58.90625 
Q 16.5 51.421875 16.5 36.375 
Q 16.5 21.390625 20.328125 13.890625 
Q 24.171875 6.390625 31.78125 6.390625 
Q 39.453125 6.390625 43.28125 13.890625 
Q 47.125 21.390625 47.125 36.375 
Q 47.125 51.421875 43.28125 58.90625 
Q 39.453125 66.40625 31.78125 66.40625 
z
M 31.78125 74.21875 
Q 44.046875 74.21875 50.515625 64.515625 
Q 56.984375 54.828125 56.984375 36.375 
Q 56.984375 17.96875 50.515625 8.265625 
Q 44.046875 -1.421875 31.78125 -1.421875 
Q 19.53125 -1.421875 13.0625 8.265625 
Q 6.59375 17.96875 6.59375 36.375 
Q 6.59375 54.828125 13.0625 64.515625 
Q 19.53125 74.21875 31.78125 74.21875 
z
" id="DejaVuSans-48"/>
      </defs>
      <g transform="translate(232.97875 322.182437)scale(0.1 -0.1)">
       <use xlink:href="#DejaVuSans-48"/>
      </g>
     </g>
    </g>
    <g id="xtick_4">
     <g id="line2d_4">
      <g>
       <use style="stroke:#000000;stroke-width:0.8;" x="300.176598" xlink:href="#m9395dcba23" y="307.584"/>
      </g>
     </g>
     <g id="text_4">
      <!-- 1 -->
      <g transform="translate(296.995348 322.182437)scale(0.1 -0.1)">
       <use xlink:href="#DejaVuSans-49"/>
      </g>
     </g>
    </g>
    <g id="xtick_5">
     <g id="line2d_5">
      <g>
       <use style="stroke:#000000;stroke-width:0.8;" x="364.193196" xlink:href="#m9395dcba23" y="307.584"/>
      </g>
     </g>
     <g id="text_5">
      <!-- 2 -->
      <g transform="translate(361.011946 322.182437)scale(0.1 -0.1)">
       <use xlink:href="#DejaVuSans-50"/>
      </g>
     </g>
    </g>
   </g>
   <g id="matplotlib.axis_2">
    <g id="ytick_1">
     <g id="line2d_6">
      <defs>
       <path d="M 0 0 
L -3.5 0 
" id="m2c48ad69c2" style="stroke:#000000;stroke-width:0.8;"/>
      </defs>
      <g>
       <use style="stroke:#000000;stroke-width:0.8;" x="82.520165" xlink:href="#m2c48ad69c2" y="302.561196"/>
      </g>
     </g>
     <g id="text_6">
      <!-- −2.0 -->
      <defs>
       <path d="M 10.6875 12.40625 
L 21 12.40625 
L 21 0 
L 10.6875 0 
z
" id="DejaVuSans-46"/>
      </defs>
      <g transform="translate(51.237353 306.360414)scale(0.1 -0.1)">
       <use xlink:href="#DejaVuSans-8722"/>
       <use x="83.789062" xlink:href="#DejaVuSans-50"/>
       <use x="147.412109" xlink:href="#DejaVuSans-46"/>
       <use x="179.199219" xlink:href="#DejaVuSans-48"/>
      </g>
     </g>
    </g>
    <g id="ytick_2">
     <g id="line2d_7">
      <g>
       <use style="stroke:#000000;stroke-width:0.8;" x="82.520165" xlink:href="#m2c48ad69c2" y="270.552897"/>
      </g>
     </g>
     <g id="text_7">
      <!-- −1.5 -->
      <defs>
       <path d="M 10.796875 72.90625 
L 49.515625 72.90625 
L 49.515625 64.59375 
L 19.828125 64.59375 
L 19.828125 46.734375 
Q 21.96875 47.46875 24.109375 47.828125 
Q 26.265625 48.1875 28.421875 48.1875 
Q 40.625 48.1875 47.75 41.5 
Q 54.890625 34.8125 54.890625 23.390625 
Q 54.890625 11.625 47.5625 5.09375 
Q 40.234375 -1.421875 26.90625 -1.421875 
Q 22.3125 -1.421875 17.546875 -0.640625 
Q 12.796875 0.140625 7.71875 1.703125 
L 7.71875 11.625 
Q 12.109375 9.234375 16.796875 8.0625 
Q 21.484375 6.890625 26.703125 6.890625 
Q 35.15625 6.890625 40.078125 11.328125 
Q 45.015625 15.765625 45.015625 23.390625 
Q 45.015625 31 40.078125 35.4375 
Q 35.15625 39.890625 26.703125 39.890625 
Q 22.75 39.890625 18.8125 39.015625 
Q 14.890625 38.140625 10.796875 36.28125 
z
" id="DejaVuSans-53"/>
      </defs>
      <g transform="translate(51.237353 274.352116)scale(0.1 -0.1)">
       <use xlink:href="#DejaVuSans-8722"/>
       <use x="83.789062" xlink:href="#DejaVuSans-49"/>
       <use x="147.412109" xlink:href="#DejaVuSans-46"/>
       <use x="179.199219" xlink:href="#DejaVuSans-53"/>
      </g>
     </g>
    </g>
    <g id="ytick_3">
     <g id="line2d_8">
      <g>
       <use style="stroke:#000000;stroke-width:0.8;" x="82.520165" xlink:href="#m2c48ad69c2" y="238.544598"/>
      </g>
     </g>
     <g id="text_8">
      <!-- −1.0 -->
      <g transform="translate(51.237353 242.343817)scale(0.1 -0.1)">
       <use xlink:href="#DejaVuSans-8722"/>
       <use x="83.789062" xlink:href="#DejaVuSans-49"/>
       <use x="147.412109" xlink:href="#DejaVuSans-46"/>
       <use x="179.199219" xlink:href="#DejaVuSans-48"/>
      </g>
     </g>
    </g>
    <g id="ytick_4">
     <g id="line2d_9">
      <g>
       <use style="stroke:#000000;stroke-width:0.8;" x="82.520165" xlink:href="#m2c48ad69c2" y="206.536299"/>
      </g>
     </g>
     <g id="text_9">
      <!-- −0.5 -->
      <g transform="translate(51.237353 210.335518)scale(0.1 -0.1)">
       <use xlink:href="#DejaVuSans-8722"/>
       <use x="83.789062" xlink:href="#DejaVuSans-48"/>
       <use x="147.412109" xlink:href="#DejaVuSans-46"/>
       <use x="179.199219" xlink:href="#DejaVuSans-53"/>
      </g>
     </g>
    </g>
    <g id="ytick_5">
     <g id="line2d_10">
      <g>
       <use style="stroke:#000000;stroke-width:0.8;" x="82.520165" xlink:href="#m2c48ad69c2" y="174.528"/>
      </g>
     </g>
     <g id="text_10">
      <!-- 0.0 -->
      <g transform="translate(59.61704 178.327219)scale(0.1 -0.1)">
       <use xlink:href="#DejaVuSans-48"/>
       <use x="63.623047" xlink:href="#DejaVuSans-46"/>
       <use x="95.410156" xlink:href="#DejaVuSans-48"/>
      </g>
     </g>
    </g>
    <g id="ytick_6">
     <g id="line2d_11">
      <g>
       <use style="stroke:#000000;stroke-width:0.8;" x="82.520165" xlink:href="#m2c48ad69c2" y="142.519701"/>
      </g>
     </g>
     <g id="text_11">
      <!-- 0.5 -->
      <g transform="translate(59.61704 146.31892)scale(0.1 -0.1)">
       <use xlink:href="#DejaVuSans-48"/>
       <use x="63.623047" xlink:href="#DejaVuSans-46"/>
       <use x="95.410156" xlink:href="#DejaVuSans-53"/>
      </g>
     </g>
    </g>
    <g id="ytick_7">
     <g id="line2d_12">
      <g>
       <use style="stroke:#000000;stroke-width:0.8;" x="82.520165" xlink:href="#m2c48ad69c2" y="110.511402"/>
      </g>
     </g>
     <g id="text_12">
      <!-- 1.0 -->
      <g transform="translate(59.61704 114.310621)scale(0.1 -0.1)">
       <use xlink:href="#DejaVuSans-49"/>
       <use x="63.623047" xlink:href="#DejaVuSans-46"/>
       <use x="95.410156" xlink:href="#DejaVuSans-48"/>
      </g>
     </g>
    </g>
    <g id="ytick_8">
     <g id="line2d_13">
      <g>
       <use style="stroke:#000000;stroke-width:0.8;" x="82.520165" xlink:href="#m2c48ad69c2" y="78.503103"/>
      </g>
     </g>
     <g id="text_13">
      <!-- 1.5 -->
      <g transform="translate(59.61704 82.302322)scale(0.1 -0.1)">
       <use xlink:href="#DejaVuSans-49"/>
       <use x="63.623047" xlink:href="#DejaVuSans-46"/>
       <use x="95.410156" xlink:href="#DejaVuSans-53"/>
      </g>
     </g>
    </g>
    <g id="ytick_9">
     <g id="line2d_14">
      <g>
       <use style="stroke:#000000;stroke-width:0.8;" x="82.520165" xlink:href="#m2c48ad69c2" y="46.494804"/>
      </g>
     </g>
     <g id="text_14">
      <!-- 2.0 -->
      <g transform="translate(59.61704 50.294023)scale(0.1 -0.1)">
       <use xlink:href="#DejaVuSans-50"/>
       <use x="63.623047" xlink:href="#DejaVuSans-46"/>
       <use x="95.410156" xlink:href="#DejaVuSans-48"/>
      </g>
     </g>
    </g>
   </g>
   <g id="line2d_15">
    <path clip-path="url(#p18cc752eba)" d="M 300.176598 63.648 
L 172.143402 63.648 
" style="fill:none;stroke:#009900;stroke-linecap:square;stroke-width:2;"/>
   </g>
   <g id="line2d_16">
    <path clip-path="url(#p18cc752eba)" d="M 172.143402 63.648 
L 108.126804 174.528 
" style="fill:none;stroke:#009900;stroke-linecap:square;stroke-width:2;"/>
   </g>
   <g id="line2d_17">
    <path clip-path="url(#p18cc752eba)" d="M 108.126804 174.528 
L 172.143402 285.408 
" style="fill:none;stroke:#009900;stroke-linecap:square;stroke-width:2;"/>
   </g>
   <g id="line2d_18">
    <path clip-path="url(#p18cc752eba)" d="M 172.143402 285.408 
L 300.176598 285.408 
" style="fill:none;stroke:#009900;stroke-linecap:square;stroke-width:2;"/>
   </g>
   <g id="line2d_19">
    <path clip-path="url(#p18cc752eba)" d="M 300.176598 285.408 
L 364.193196 174.528 
" style="fill:none;stroke:#009900;stroke-linecap:square;stroke-width:2;"/>
   </g>
   <g id="line2d_20">
    <path clip-path="url(#p18cc752eba)" d="M 364.193196 174.528 
L 300.176598 63.648 
" style="fill:none;stroke:#009900;stroke-linecap:square;stroke-width:2;"/>
   </g>
   <g id="line2d_21">
    <path clip-path="url(#p18cc752eba)" d="M 203.652603 106.40156 
L 208.636873 105.226162 
L 213.570152 103.852387 
L 218.444548 102.282432 
L 223.252265 100.518809 
L 227.985609 98.564339 
L 232.63701 96.42215 
L 237.199025 94.095667 
L 241.664356 91.588614 
L 246.025861 88.905 
L 250.27656 86.04912 
L 254.409655 83.025541 
L 258.418533 79.8391 
L 262.29678 76.494897 
L 266.038193 72.99828 
L 269.636786 69.354843 
L 273.086801 65.570415 
L 274.736874 63.648 
L 278.111333 67.499951 
L 281.63713 71.213878 
L 285.308625 74.783841 
L 289.119943 78.204127 
L 293.064987 81.469265 
L 297.137446 84.574032 
L 301.330806 87.51346 
L 305.638357 90.282847 
L 310.053208 92.877763 
L 314.568297 95.294057 
L 319.1764 97.527862 
L 319.937729 97.875284 
L 319.534833 102.980397 
L 319.33641 108.097537 
L 319.342776 113.21852 
L 319.553921 118.335152 
L 319.969509 123.439247 
L 320.588873 128.52264 
L 321.411024 133.5772 
L 322.434645 138.594839 
L 323.6581 143.56753 
L 325.07943 148.487319 
L 326.696363 153.346334 
L 328.506311 158.136803 
L 330.506379 162.851061 
L 332.693367 167.481567 
L 335.063777 172.020913 
L 337.613816 176.461836 
L 340.339405 180.797233 
L 343.236183 185.020168 
L 346.299517 189.123884 
L 349.524505 193.101818 
L 351.89468 195.829654 
L 346.861898 194.883287 
L 341.795298 194.138935 
L 336.702984 193.597789 
L 331.593103 193.260713 
L 326.47383 193.128248 
L 321.353355 193.200605 
L 316.239869 193.477669 
L 311.141553 193.958996 
L 306.066563 194.643816 
L 301.023018 195.531034 
L 296.018986 196.61923 
L 291.062474 197.906664 
L 286.16141 199.391275 
L 281.323634 201.07069 
L 279.542979 201.744116 
L 280.060485 206.838887 
L 280.781314 211.908887 
L 281.704312 216.946007 
L 282.828003 221.942188 
L 284.150588 226.889437 
L 285.669953 231.779839 
L 287.383667 236.60557 
L 289.288988 241.358912 
L 291.382867 246.032259 
L 293.661956 250.618134 
L 296.122607 255.109203 
L 298.760886 259.498279 
L 301.57257 263.778341 
L 304.553162 267.942543 
L 307.831694 272.148985 
L 302.760303 271.437999 
L 297.664537 270.930383 
L 292.552549 270.626949 
L 287.432515 270.528183 
L 282.312627 270.634243 
L 277.201075 270.944959 
L 272.106038 271.459834 
L 267.035666 272.178044 
L 261.99807 273.098441 
L 257.001309 274.219551 
L 252.053379 275.539582 
L 247.162193 277.056421 
L 242.335576 278.767642 
L 237.581252 280.670508 
L 232.906824 282.761974 
L 228.319772 285.038694 
L 227.616957 285.408 
L 223.044111 283.102879 
L 218.382742 280.982468 
L 213.640309 279.050157 
L 208.824397 277.309039 
L 203.942711 275.761898 
L 199.00306 274.411211 
L 194.013348 273.259137 
L 188.981556 272.30752 
L 183.915735 271.557883 
L 178.823989 271.011423 
L 173.714462 270.669017 
L 168.59533 270.531211 
L 163.590788 270.594438 
L 166.205108 266.191049 
L 168.641248 261.686638 
L 170.895311 257.088409 
L 172.96369 252.403721 
L 174.843078 247.640066 
L 176.530467 242.805067 
L 178.023158 237.906457 
L 179.318762 232.952074 
L 180.415208 227.949844 
L 181.310741 222.907769 
L 182.003929 217.833915 
L 182.493661 212.736399 
L 182.779156 207.623377 
L 182.859957 202.503028 
L 182.735933 197.383544 
L 182.407283 192.273114 
L 181.874534 187.179915 
L 181.138538 182.112094 
L 180.200471 177.077759 
L 179.061835 172.084963 
L 177.724451 167.141694 
L 176.190459 162.25586 
L 174.462312 157.435278 
L 172.542776 152.68766 
L 170.434922 148.020599 
L 168.142121 143.441564 
L 165.668041 138.957879 
L 163.016641 134.576717 
L 160.192161 130.305088 
L 157.199122 126.149824 
L 154.04231 122.117574 
L 150.726777 118.214788 
L 147.257825 114.447709 
L 144.452219 111.610536 
L 149.411733 112.886359 
L 154.418299 113.962834 
L 159.463908 114.838239 
L 164.540487 115.511173 
L 169.639916 115.98056 
L 174.754037 116.245648 
L 179.874668 116.306014 
L 184.993616 116.161561 
L 190.102694 115.81252 
L 195.193727 115.25945 
L 200.25857 114.503235 
L 205.289122 113.545086 
L 210.277334 112.386534 
L 215.215227 111.029434 
L 220.0949 109.475957 
L 224.908547 107.728587 
L 229.648468 105.79012 
L 234.307079 103.663658 
L 238.876928 101.352601 
L 243.350704 98.860649 
L 247.72125 96.191786 
L 251.981574 93.350282 
L 256.124861 90.340684 
L 260.144481 87.167807 
L 264.034005 83.836725 
L 267.78721 80.352768 
L 271.398091 76.72151 
L 274.860873 72.94876 
L 278.170015 69.040553 
L 281.320224 65.003142 
L 282.320798 63.648 
L 285.417616 67.726507 
L 288.675054 71.677913 
L 292.087899 75.495894 
L 295.650694 79.174345 
L 299.357737 82.707379 
L 303.203099 86.089345 
L 307.180627 89.314833 
L 311.283959 92.378681 
L 315.50653 95.27599 
L 320.100658 98.157485 
L 320.281957 103.275261 
L 320.667767 108.381694 
L 321.257471 113.468613 
L 322.050126 118.527882 
L 323.044463 123.551406 
L 324.238893 128.531149 
L 325.631504 133.459144 
L 327.220068 138.327508 
L 329.002044 143.128452 
L 330.974582 147.854296 
L 333.134524 152.497479 
L 335.478417 157.050573 
L 338.00251 161.506295 
L 340.702766 165.857515 
L 343.574864 170.097274 
L 346.61421 174.218788 
L 349.815941 178.215464 
L 353.174936 182.080908 
L 356.68582 185.808936 
L 357.313191 186.444517 
L 352.33751 185.23328 
L 347.317372 184.221986 
L 342.260808 183.412254 
L 337.175909 182.805377 
L 332.070808 182.402328 
L 326.953673 182.20375 
L 321.832691 182.209963 
L 316.716053 182.420955 
L 311.611945 182.836389 
L 306.528533 183.455601 
L 301.473949 184.277599 
L 296.456279 185.30107 
L 291.483551 186.524375 
L 286.563719 187.945558 
L 285.491279 188.2839 
L 288.932637 192.076203 
L 292.522894 195.727854 
L 296.256306 199.233012 
L 300.126901 202.58607 
L 304.128487 205.781663 
L 308.254661 208.814679 
L 312.498823 211.680267 
L 316.854183 214.373841 
L 321.313773 216.891092 
L 325.87046 219.227994 
L 330.516953 221.380808 
L 335.245818 223.346089 
L 335.86817 223.588384 
L 331.818045 220.454538 
L 327.645839 217.485161 
L 323.358228 214.685002 
L 318.962069 212.058542 
L 314.464397 209.609982 
L 309.872406 207.34324 
L 305.193442 205.261942 
L 300.434992 203.369417 
L 295.604667 201.668693 
L 290.710195 200.162491 
L 285.759406 198.85322 
L 281.709786 197.937761 
L 285.548398 201.327385 
L 289.519489 204.560795 
L 293.616705 207.632817 
L 297.833493 210.538537 
L 302.163104 213.273307 
L 306.598615 215.83275 
L 311.132928 218.212773 
L 315.758789 220.409568 
L 320.468799 222.41962 
L 325.255421 224.239715 
L 330.111 225.86694 
L 333.90411 226.990235 
L 330.17371 223.481871 
L 326.305996 220.12549 
L 322.307157 216.926461 
L 318.18359 213.889902 
L 313.941891 211.02067 
L 309.588846 208.323356 
L 305.131419 205.802275 
L 300.576741 203.461461 
L 295.9321 201.304657 
L 291.204924 199.335314 
L 286.402776 197.556583 
L 282.525739 196.27698 
L 286.879794 198.972663 
L 291.338165 201.492074 
L 295.893719 203.831183 
L 300.539168 205.986247 
L 305.267081 207.953818 
L 310.069895 209.73075 
L 314.939924 211.314199 
L 319.86938 212.701633 
L 324.850375 213.890831 
L 329.874941 214.879891 
L 334.935039 215.66723 
L 340.09986 216.258881 
L 337.052516 212.143277 
L 333.84303 208.152826 
L 330.476535 204.293913 
L 326.958417 200.57271 
L 323.294305 196.995171 
L 319.490061 193.567018 
L 315.55177 190.293738 
L 311.485733 187.180565 
L 307.298455 184.23248 
L 302.996634 181.4542 
L 298.587153 178.850169 
L 294.077065 176.424554 
L 289.473586 174.181234 
L 287.356694 173.224765 
L 291.884233 170.831882 
L 296.312461 168.25986 
L 300.634294 165.512814 
L 304.842817 162.595137 
L 308.931298 159.511498 
L 312.893195 156.266831 
L 316.722172 152.866325 
L 320.412102 149.315421 
L 323.957082 145.619799 
L 327.351441 141.785372 
L 330.589748 137.818274 
L 333.666824 133.724852 
L 336.577745 129.511654 
L 337.440295 128.190616 
L 332.331379 128.542021 
L 327.240603 129.097448 
L 322.17611 129.856007 
L 317.146002 130.816484 
L 312.158327 131.977345 
L 307.221063 133.33673 
L 302.342109 134.892466 
L 297.529271 136.642064 
L 292.790248 138.582724 
L 288.132622 140.711342 
L 283.563843 143.024513 
L 279.091221 145.518537 
L 278.572609 145.823114 
L 279.078688 145.431073 
L 283.055472 142.204668 
L 286.900053 138.821815 
L 290.606281 135.287925 
L 294.168227 131.608653 
L 297.580191 127.789884 
L 300.836717 123.837727 
L 303.932593 119.758505 
L 306.862868 115.558744 
L 309.622853 111.245163 
L 312.208134 106.824662 
L 314.614573 102.304313 
L 316.838322 97.691349 
L 318.137166 94.756616 
L 313.041492 94.248078 
L 307.929558 93.943719 
L 302.809542 93.844026 
L 297.689635 93.949159 
L 292.578028 94.25895 
L 287.482897 94.772903 
L 282.412395 95.490195 
L 277.374633 96.40968 
L 272.377669 97.529886 
L 267.4295 98.849021 
L 262.538039 100.364975 
L 257.711113 102.075323 
L 252.956444 103.977328 
L 248.281638 106.067948 
L 243.694174 108.343837 
L 239.201391 110.801356 
L 234.810476 113.436573 
L 230.528454 116.245272 
L 226.362174 119.222959 
L 222.318304 122.364871 
L 218.403311 125.665981 
L 216.765362 127.129182 
L 211.653318 127.431676 
L 206.557459 127.938355 
L 201.485938 128.648409 
L 196.446868 129.560702 
L 191.448311 130.673774 
L 186.498263 131.985845 
L 181.604644 133.494815 
L 176.775282 135.198271 
L 172.017902 137.093487 
L 167.340117 139.177431 
L 162.749409 141.446771 
L 158.253122 143.897874 
L 153.85845 146.52682 
L 149.572423 149.329404 
L 145.401898 152.30114 
L 141.353546 155.437277 
L 137.433845 158.732796 
L 133.649064 162.182425 
L 130.00526 165.780645 
L 126.50826 169.521701 
L 123.163661 173.399606 
L 119.976811 177.408159 
L 116.95281 181.540944 
L 114.378107 185.355573 
L 119.485771 184.986434 
L 124.574589 184.413338 
L 129.636418 183.637202 
L 134.663161 182.659268 
L 139.646776 181.4811 
L 144.579291 180.104582 
L 149.452814 178.531918 
L 154.25955 176.765623 
L 158.991807 174.808522 
L 163.642016 172.663747 
L 168.202737 170.334729 
L 172.666674 167.825194 
L 177.026686 165.139156 
L 181.275797 162.280913 
L 185.407211 159.255037 
L 187.942951 157.267756 
L 186.795573 152.276962 
L 185.449534 147.336043 
L 183.906987 142.452903 
L 182.170401 137.635355 
L 180.242554 132.891105 
L 178.126529 128.227743 
L 175.825712 123.65273 
L 173.343784 119.173385 
L 170.684715 114.796874 
L 167.852759 110.530197 
L 164.852447 106.380181 
L 161.688579 102.353466 
L 158.366215 98.456492 
L 154.890672 94.695495 
L 154.469643 94.25985 
L 159.459133 95.412883 
L 164.490742 96.365467 
L 169.556419 97.116079 
L 174.64806 97.663517 
L 179.757521 98.006906 
L 184.876626 98.145696 
L 189.997187 98.079666 
L 195.111011 97.808921 
L 200.209918 97.333894 
L 205.28575 96.655345 
L 210.330388 95.774359 
L 215.33576 94.692347 
L 220.293859 93.411038 
L 225.196754 91.932484 
L 230.036601 90.259048 
L 234.805656 88.393409 
L 239.496292 86.338551 
L 244.101003 84.097761 
L 248.612423 81.674624 
L 253.023334 79.073017 
L 257.326681 76.297102 
L 261.515579 73.351318 
L 265.583326 70.24038 
L 269.523415 66.969264 
L 273.217567 63.648 
L 277.027796 67.0695 
L 280.9718 70.335894 
L 285.043271 73.441957 
L 289.235694 76.38272 
L 293.542363 79.153479 
L 297.956388 81.749801 
L 302.470707 84.167532 
L 307.078099 86.402804 
L 311.771192 88.452042 
L 315.304597 89.850463 
L 314.581969 94.920208 
L 314.062655 100.014795 
L 313.747485 105.126074 
L 313.636964 110.245867 
L 313.731268 115.365985 
L 314.030248 120.478237 
L 314.533423 125.574443 
L 315.23999 130.646451 
L 316.148818 135.686146 
L 317.258453 140.685467 
L 318.56712 145.636416 
L 320.072725 150.531072 
L 321.772861 155.361604 
L 323.664805 160.120285 
L 325.745533 164.799502 
L 328.011716 169.39177 
L 330.459727 173.889741 
L 333.085652 178.286219 
L 335.885288 182.574172 
L 338.854157 186.746739 
L 341.987509 190.797246 
L 345.280332 194.719212 
L 348.727358 198.506363 
L 349.739512 199.562515 
L 344.749029 198.413785 
L 339.7166 197.465541 
L 334.650278 196.719299 
L 329.558166 196.176252 
L 324.448411 195.83727 
L 319.329188 195.702895 
L 314.208686 195.773341 
L 309.095098 196.048497 
L 303.996602 196.527921 
L 298.921357 197.210848 
L 293.877481 198.096184 
L 288.873044 199.182513 
L 283.916052 200.468097 
L 279.514269 201.789828 
L 280.322372 206.846652 
L 281.332048 211.867116 
L 282.541681 216.843188 
L 283.949336 221.766907 
L 285.552762 226.630396 
L 287.349393 231.425875 
L 289.336355 236.145672 
L 291.510468 240.782237 
L 293.868256 245.328151 
L 296.405947 249.776143 
L 299.119479 254.119096 
L 302.004513 258.350063 
L 305.056432 262.462275 
L 308.270355 266.449154 
L 309.974664 268.437252 
L 304.932177 267.544039 
L 299.858005 266.853185 
L 294.760265 266.365797 
L 289.647112 266.082654 
L 284.526726 266.004209 
L 279.407299 266.130588 
L 274.297021 266.461588 
L 269.204068 266.99668 
L 264.136586 267.735008 
L 259.102682 268.67539 
L 254.110411 269.816323 
L 249.167758 271.15598 
L 244.28263 272.692219 
L 239.462844 274.422583 
L 234.716108 276.344303 
L 230.050018 278.454304 
L 225.472038 280.749211 
L 220.989491 283.225353 
L 217.358393 285.408 
L 212.960225 282.784907 
L 208.460679 280.339792 
L 203.866954 278.076567 
L 199.186398 275.998852 
L 194.426499 274.109971 
L 189.594873 272.412947 
L 184.699249 270.910493 
L 179.747459 269.605014 
L 174.747425 268.498598 
L 169.707145 267.593015 
L 164.634683 266.889714 
L 161.246776 266.534489 
L 163.299471 261.842907 
L 165.162911 257.072992 
L 166.834114 252.232374 
L 168.310408 247.328798 
L 169.58943 242.370108 
L 170.669134 237.364237 
L 171.547793 232.319194 
L 172.224002 227.24305 
L 172.696678 222.143924 
L 172.965065 217.029976 
L 173.028734 211.909385 
L 172.887583 206.790344 
L 172.541838 201.681043 
L 171.992052 196.589654 
L 171.239105 191.524324 
L 170.2842 186.493155 
L 169.128867 181.504197 
L 167.774952 176.56543 
L 166.224622 171.684756 
L 164.480358 166.869982 
L 162.544949 162.128812 
L 160.421492 157.46883 
L 158.113384 152.897491 
L 155.624318 148.422109 
L 152.958275 144.049842 
L 150.11952 139.787686 
L 147.112595 135.642459 
L 143.942311 131.620793 
L 140.613739 127.729121 
L 137.246117 124.091871 
L 142.240655 125.22284 
L 147.276425 126.153176 
L 152.34537 126.881391 
L 157.439381 127.40632 
L 162.550309 127.727123 
L 167.669978 127.843287 
L 172.790197 127.754625 
L 177.902775 127.461281 
L 182.999532 126.963722 
L 188.072316 126.262745 
L 193.11301 125.359472 
L 198.113551 124.255348 
L 203.065939 122.952138 
L 207.962251 121.451928 
L 212.794654 119.757118 
L 217.555418 117.870419 
L 222.236925 115.794849 
L 226.831687 113.533729 
L 231.332354 111.090676 
L 235.731724 108.469599 
L 240.022759 105.674691 
L 244.198596 102.710422 
L 248.252554 99.581536 
L 252.178147 96.293037 
L 255.969095 92.850187 
L 259.619333 89.258494 
L 263.123022 85.523703 
L 266.474556 81.651789 
L 269.668575 77.648946 
L 272.699967 73.521579 
L 275.563885 69.27629 
L 278.255745 64.91987 
L 278.997087 63.648 
L 281.638679 68.035083 
L 284.453594 72.313021 
L 287.437329 76.47497 
L 290.585112 80.514273 
L 293.891905 84.424467 
L 297.35242 88.199297 
L 300.96112 91.832724 
L 304.712231 95.318935 
L 308.599753 98.652353 
L 312.617466 101.827645 
L 316.758944 104.839731 
L 321.01756 107.683793 
L 325.386502 110.355281 
L 328.001677 111.842451 
L 328.010463 116.96343 
L 328.224027 122.079961 
L 328.642027 127.183859 
L 329.263793 132.26696 
L 330.088332 137.32113 
L 331.114325 142.338285 
L 332.340129 147.310397 
L 333.763785 152.229514 
L 335.383014 157.087765 
L 337.195226 161.877377 
L 339.197521 166.59069 
L 341.386698 171.220161 
L 343.759252 175.758386 
L 346.31139 180.198104 
L 349.039027 184.532213 
L 351.937801 188.753778 
L 354.207481 191.823765 
L 349.116297 191.272091 
L 344.007124 190.924451 
L 338.888136 190.781402 
L 333.767522 190.843172 
L 328.653474 191.109662 
L 323.554174 191.580447 
L 318.477779 192.254773 
L 313.43241 193.131561 
L 308.42614 194.209409 
L 303.466976 195.486592 
L 298.562852 196.961067 
L 293.721615 198.630475 
L 288.951009 200.492146 
L 284.258666 202.543101 
L 279.652092 204.780059 
L 275.983479 206.728783 
L 274.599674 211.659258 
L 273.414143 216.641127 
L 272.428782 221.66642 
L 271.645166 226.727096 
L 271.064551 231.815061 
L 270.687865 236.922175 
L 270.51571 242.040267 
L 270.548362 247.161149 
L 270.785768 252.27663 
L 271.227549 257.378524 
L 271.872998 262.458672 
L 272.721083 267.508944 
L 273.770446 272.521263 
L 275.019409 277.487609 
L 276.465974 282.400038 
L 277.458597 285.408 
L 279.026243 280.53286 
L 280.39768 275.598931 
L 281.570717 270.614105 
L 282.543475 265.586357 
L 283.314398 260.523732 
L 283.882254 255.434327 
L 284.246134 250.326285 
L 284.405456 245.207777 
L 284.359964 240.086993 
L 284.109732 234.972124 
L 283.65516 229.871353 
L 282.996976 224.79284 
L 282.136231 219.744709 
L 281.074303 214.735038 
L 279.812892 209.771839 
L 278.354014 204.863053 
L 278.065066 203.968878 
L 283.179732 203.714534 
L 288.280136 203.255861 
L 293.358119 202.593593 
L 298.405555 201.728789 
L 303.414372 200.662834 
L 308.376555 199.397432 
L 313.284166 197.934608 
L 318.129354 196.276702 
L 322.904368 194.426366 
L 327.601569 192.386561 
L 332.213442 190.160549 
L 336.73261 187.751893 
L 341.151842 185.164444 
L 345.464068 182.402343 
L 349.662391 179.470008 
L 353.740094 176.372131 
L 357.690652 173.113667 
L 361.441327 169.761623 
L 356.577443 171.363852 
L 351.781522 173.159303 
L 347.061236 175.145104 
L 342.424137 177.318077 
L 337.877643 179.674746 
L 333.429027 182.211342 
L 329.085406 184.923806 
L 324.853729 187.807799 
L 320.740766 190.858706 
L 316.753097 194.071648 
L 312.897101 197.441485 
L 309.178947 200.962824 
L 305.604583 204.630033 
L 302.179727 208.437245 
L 298.909859 212.37837 
L 295.800209 216.447102 
L 292.855753 220.636932 
L 290.0812 224.941158 
L 287.48099 229.352893 
L 285.059282 233.86508 
L 282.81995 238.470501 
L 280.766577 243.161787 
L 278.902449 247.931433 
L 277.230546 252.771809 
L 275.753544 257.675172 
L 274.473806 262.633677 
L 273.393378 267.639392 
L 272.513991 272.684308 
L 271.837049 277.760355 
L 271.363637 282.859412 
L 271.203873 285.408 
L 271.168597 284.768807 
L 270.77144 279.663245 
L 270.170433 274.577648 
L 269.366538 269.520153 
L 268.361039 264.498851 
L 267.155546 259.521775 
L 265.751988 254.596887 
L 264.152609 249.732065 
L 262.359969 244.935093 
L 260.376934 240.213644 
L 258.206679 235.575273 
L 255.852674 231.027398 
L 253.318685 226.577297 
L 251.378697 223.427807 
L 251.670003 228.540501 
L 252.16553 233.637457 
L 252.864483 238.71052 
L 253.765747 243.751574 
L 254.867877 248.752555 
L 256.169112 253.705462 
L 257.66737 258.602372 
L 259.360253 263.43545 
L 261.245054 268.196965 
L 263.318757 272.8793 
L 265.578045 277.474963 
L 268.019303 281.976603 
L 270.041217 285.408 
L 272.621312 280.98447 
L 275.022449 276.461303 
L 277.240786 271.845734 
L 279.272776 267.145146 
L 281.115167 262.367061 
L 282.765012 257.519122 
L 284.219671 252.609085 
L 285.476818 247.644804 
L 286.53444 242.634221 
L 287.390847 237.585353 
L 288.044668 232.506277 
L 288.494857 227.405117 
L 288.740694 222.290035 
L 288.781786 217.169213 
L 288.618066 212.050844 
L 288.249797 206.943117 
L 287.677569 201.854202 
L 286.902295 196.792241 
L 285.925217 191.765331 
L 285.292601 188.977477 
L 288.917162 185.359873 
L 292.394159 181.600219 
L 295.718028 177.70453 
L 298.883453 173.679038 
L 301.885369 169.530182 
L 304.718973 165.2646 
L 307.379733 160.889117 
L 309.863393 156.410731 
L 312.165978 151.836608 
L 314.283804 147.174064 
L 316.213485 142.43056 
L 317.951933 137.613683 
L 319.496367 132.73114 
L 320.844315 127.790742 
L 321.993622 122.800392 
L 322.942449 117.768073 
L 323.689278 112.701837 
L 324.232914 107.609788 
L 324.391701 105.589788 
L 319.743466 103.440737 
L 315.013011 101.479285 
L 310.207902 99.70857 
L 305.335827 98.131425 
L 300.404581 96.750371 
L 295.422051 95.56762 
L 290.396209 94.585063 
L 285.335096 93.804272 
L 280.246808 93.226496 
L 275.139485 92.852659 
L 270.021298 92.68336 
L 264.900435 92.71887 
L 259.785087 92.95913 
L 254.68344 93.403758 
L 249.603653 94.052042 
L 244.553855 94.902944 
L 239.542122 95.955104 
L 234.576474 97.206838 
L 229.664854 98.656144 
L 224.815119 100.300703 
L 220.035028 102.137884 
L 215.332229 104.164749 
L 210.714244 106.378053 
L 206.188461 108.774258 
L 201.762122 111.349529 
L 197.442306 114.099746 
L 193.235925 117.02051 
L 189.149709 120.107148 
L 185.190193 123.354722 
L 181.363713 126.758037 
L 177.67639 130.311648 
L 174.134123 134.00987 
L 170.742579 137.846787 
L 167.507183 141.81626 
L 164.433112 145.911939 
L 161.525283 150.127273 
L 158.788349 154.455516 
L 156.226688 158.889746 
L 153.844397 163.422868 
L 151.645289 168.04763 
L 149.632881 172.756633 
L 147.810392 177.542345 
L 146.180739 182.397109 
L 144.746528 187.313158 
L 143.510054 192.282628 
L 142.473294 197.297569 
L 141.637908 202.349958 
L 141.005232 207.431712 
L 140.576278 212.534701 
L 140.351733 217.650762 
L 140.331954 222.771711 
L 140.516975 227.889353 
L 140.729626 230.997743 
L 145.001677 233.821585 
L 149.383234 236.472332 
L 153.867288 238.945743 
L 158.446665 241.237861 
L 163.11404 243.345019 
L 167.861945 245.263847 
L 172.682785 246.991274 
L 177.568847 248.524537 
L 182.512316 249.861184 
L 187.505281 250.999075 
L 192.539756 251.93639 
L 197.607687 252.671631 
L 202.700966 253.20362 
L 207.811445 253.531507 
L 212.930948 253.654767 
L 218.051284 253.573203 
L 223.164264 253.286946 
L 228.261706 252.796452 
L 233.335457 252.102508 
L 238.377398 251.206223 
L 243.379465 250.109031 
L 248.333654 248.812687 
L 253.232041 247.319265 
L 258.066789 245.631155 
L 262.830163 243.751057 
L 267.514543 241.681978 
L 272.112435 239.427229 
L 276.616483 236.990418 
L 281.019482 234.375441 
L 285.314388 231.586483 
L 289.49433 228.628006 
L 293.55262 225.504742 
L 297.482768 222.221688 
L 301.278484 218.784096 
L 304.933697 215.197465 
L 308.44256 211.467534 
L 311.799458 207.60027 
L 314.999022 203.601859 
L 318.036133 199.478697 
L 320.905932 195.237382 
L 323.603828 190.884698 
L 326.125505 186.427608 
L 328.466929 181.873244 
L 330.624354 177.22889 
L 332.594328 172.501978 
L 334.373701 167.700068 
L 335.959626 162.830844 
L 337.349564 157.902094 
L 338.541294 152.921705 
L 339.532908 147.897642 
L 340.32282 142.837944 
L 340.909766 137.750706 
L 341.167138 134.645699 
L 336.518904 132.496648 
L 331.788449 130.535196 
L 326.98334 128.764481 
L 322.111265 127.187335 
L 317.180018 125.806282 
L 312.197489 124.623531 
L 307.171647 123.640974 
L 302.110534 122.860183 
L 297.022246 122.282407 
L 291.914923 121.90857 
L 286.796736 121.739271 
L 281.675872 121.77478 
L 276.560525 122.015041 
L 271.458878 122.459669 
L 266.379091 123.107953 
L 261.329293 123.958855 
L 256.31756 125.011015 
L 252.438541 125.970725 
L 249.195809 122.007243 
L 245.797173 118.176606 
L 242.248072 114.484943 
L 238.554182 110.938158 
L 234.721413 107.541927 
L 230.755897 104.301682 
L 226.663978 101.222608 
L 222.452202 98.309629 
L 218.127307 95.567407 
L 213.696211 93.000328 
L 209.166005 90.612499 
L 204.543934 88.40774 
L 199.837393 86.389578 
L 195.053912 84.561241 
L 190.201144 82.925656 
L 185.286851 81.485437 
L 180.318896 80.24289 
L 175.305226 79.200003 
L 170.253862 78.358442 
L 165.172885 77.719556 
L 164.082842 77.609299 
L 167.141589 81.716435 
L 170.362132 85.697969 
L 173.739317 89.547531 
L 177.267741 93.258961 
L 180.941762 96.826324 
L 184.7555 100.243912 
L 188.702854 103.506257 
L 192.77751 106.60814 
L 196.972949 109.5446 
L 201.282459 112.310938 
L 205.699145 114.902729 
L 210.215943 117.315826 
L 214.825627 119.546369 
L 219.52082 121.59079 
L 224.294014 123.445818 
L 226.507582 124.232566 
L 230.318347 120.811665 
L 233.989266 117.24111 
L 237.514463 113.526613 
L 240.888301 109.674118 
L 244.105381 105.689787 
L 247.160557 101.579993 
L 250.048942 97.351313 
L 252.765913 93.010511 
L 255.307126 88.56453 
L 257.668515 84.020485 
L 259.846301 79.385644 
L 261.837001 74.667423 
L 263.63743 69.873368 
L 265.244708 65.011151 
L 265.656981 63.648 
L 267.210077 68.527794 
L 268.957071 73.341578 
L 270.895167 78.081651 
L 273.021265 82.740428 
L 275.331964 87.310458 
L 277.823567 91.784429 
L 280.492088 96.155184 
L 283.333259 100.41573 
L 286.342533 104.559251 
L 289.515096 108.57912 
L 292.845874 112.468904 
L 296.329537 116.222381 
L 299.960513 119.833547 
L 303.732993 123.296623 
L 307.640941 126.606071 
L 311.678106 129.756595 
L 315.838028 132.743156 
L 320.114054 135.560975 
L 324.499343 138.205544 
L 328.986878 140.672634 
L 333.56948 142.958296 
L 338.23982 145.058876 
L 342.990424 146.971011 
L 347.813693 148.691643 
L 349.615918 149.279414 
L 348.619914 154.302608 
L 347.825581 159.361614 
L 347.23419 164.448338 
L 346.846687 169.554642 
L 346.663691 174.672358 
L 346.685495 179.793298 
L 346.912065 184.909269 
L 347.343039 190.012089 
L 347.977726 195.093592 
L 348.815111 200.14565 
L 348.960362 200.912042 
L 344.155576 202.683635 
L 339.425479 204.64595 
L 334.777637 206.795849 
L 330.219486 209.129893 
L 325.758317 211.644347 
L 321.401269 214.335189 
L 317.155311 217.198113 
L 313.027235 220.228541 
L 309.023646 223.421624 
L 305.150949 226.772254 
L 301.415339 230.27507 
L 297.822793 233.924469 
L 294.379057 237.714612 
L 291.089641 241.639436 
L 287.959807 245.692663 
L 284.994563 249.867807 
L 282.198652 254.158189 
L 279.576547 258.556947 
L 277.132442 263.057042 
L 274.870249 267.651275 
L 272.793585 272.332297 
L 270.905773 277.09262 
L 269.209834 281.924627 
L 268.119717 285.408 
L 266.562204 280.529614 
L 264.810852 275.717414 
L 262.868465 270.979098 
L 260.73815 266.322247 
L 258.423314 261.754312 
L 255.927661 257.282598 
L 253.255184 252.914262 
L 250.410157 248.65629 
L 247.397133 244.515494 
L 244.220931 240.4985 
L 240.886633 236.611733 
L 237.399572 232.861411 
L 233.765328 229.253535 
L 229.989715 225.793875 
L 229.420574 225.295903 
L 224.859268 227.623774 
L 220.394699 230.132186 
L 216.034012 232.817127 
L 211.784181 235.674301 
L 207.652007 238.699137 
L 203.644099 241.886797 
L 199.766869 245.232181 
L 196.02652 248.729936 
L 192.429036 252.374468 
L 188.980173 256.159945 
L 185.685446 260.080313 
L 182.550128 264.129298 
L 179.579234 268.300424 
L 176.777517 272.587017 
L 174.149459 276.982221 
L 171.699264 281.479003 
L 170.843704 283.156857 
L 175.960715 283.35861 
L 181.081701 283.355575 
L 186.198468 283.147758 
L 191.302833 282.735491 
L 196.386628 282.119433 
L 201.441721 281.300571 
L 206.460025 280.280214 
L 211.433512 279.059994 
L 216.354224 277.641865 
L 221.21429 276.028093 
L 226.005935 274.221262 
L 230.721493 272.224261 
L 235.353421 270.040285 
L 239.894308 267.672829 
L 244.336889 265.125679 
L 248.674058 262.402911 
L 252.898876 259.50888 
L 257.004585 256.448217 
L 260.984615 253.225817 
L 264.8326 249.846836 
L 268.542384 246.31668 
L 272.108032 242.640995 
L 275.52384 238.825663 
L 278.784342 234.876787 
L 281.884324 230.800684 
L 284.818826 226.603875 
L 287.583152 222.293075 
L 290.172882 217.875179 
L 292.583871 213.357255 
L 294.812263 208.746532 
L 296.854492 204.050384 
L 298.707293 199.276326 
L 300.367699 194.431994 
L 301.833056 189.525139 
L 303.101019 184.56361 
L 304.16956 179.555344 
L 305.036969 174.508355 
L 305.701858 169.430715 
L 306.163163 164.330548 
L 306.420148 159.216014 
L 306.4724 154.095294 
L 306.319836 148.976581 
L 305.962701 143.868063 
L 305.401564 138.777913 
L 304.637325 133.714274 
L 303.671206 128.685247 
L 302.504752 123.698876 
L 301.139829 118.763141 
L 299.578621 113.885935 
L 297.823626 109.075063 
L 295.877651 104.33822 
L 293.74381 99.682984 
L 291.425516 95.116802 
L 288.926477 90.64698 
L 286.250692 86.280668 
L 283.402442 82.024852 
L 280.386282 77.88634 
L 277.207039 73.871752 
L 273.869799 69.987511 
L 270.379899 66.239832 
L 267.794827 63.648 
L 264.199215 67.294378 
L 260.752294 71.081625 
L 257.45958 75.003682 
L 254.326341 79.054276 
L 251.357588 83.226927 
L 248.558071 87.514957 
L 245.932269 91.911509 
L 243.484383 96.409548 
L 241.218329 101.001878 
L 239.137731 105.681153 
L 237.245918 110.439887 
L 235.545918 115.270467 
L 234.040449 120.165165 
L 233.160864 123.402614 
L 231.216883 118.664953 
L 229.085 114.008819 
L 226.768628 109.441663 
L 224.27147 104.97079 
L 221.597523 100.603352 
L 218.751064 96.346338 
L 215.736646 92.206557 
L 212.559093 88.190631 
L 209.223487 84.304987 
L 205.735164 80.555839 
L 202.099707 76.949186 
L 198.322929 73.490797 
L 194.410874 70.186205 
L 190.3698 67.040697 
L 186.206171 64.059305 
L 185.603119 63.648 
L 181.42256 66.605605 
L 177.363618 69.728023 
L 173.432786 73.010257 
L 169.636353 76.447057 
L 165.980391 80.032925 
L 162.470751 83.762124 
L 159.113046 87.628688 
L 156.220356 91.227526 
L 154.377193 96.005313 
L 152.726565 100.852986 
L 151.271112 105.762788 
L 150.013163 110.726866 
L 148.954731 115.737277 
L 148.097508 120.786007 
L 147.442867 125.864978 
L 146.991854 130.966065 
L 146.74519 136.081107 
L 146.703271 141.201922 
L 146.866164 146.320317 
L 147.233607 151.428104 
L 147.805014 156.517111 
L 148.579469 161.579198 
L 149.555735 166.606266 
L 150.732248 171.590272 
L 152.107128 176.523243 
L 153.678174 181.397288 
L 155.442873 186.20461 
L 157.398403 190.937516 
L 159.541634 195.588437 
L 161.869137 200.149931 
L 164.37719 204.614701 
L 167.061781 208.975605 
L 169.918613 213.225665 
L 172.943117 217.358082 
L 176.130455 221.366247 
L 179.475527 225.243745 
L 182.972981 228.984375 
L 186.617224 232.582152 
L 190.402424 236.03132 
L 194.322526 239.326362 
L 198.37126 242.462006 
L 202.542147 245.433235 
L 206.828515 248.235297 
L 211.223507 250.863708 
L 215.720092 253.314264 
L 220.311076 255.583044 
L 224.989115 257.66642 
L 229.746725 259.561057 
L 234.576295 261.263925 
L 239.470098 262.772299 
L 244.420305 264.083767 
L 249.418998 265.196231 
L 254.458179 266.10791 
L 259.529786 266.817347 
L 264.625706 267.323406 
L 269.737788 267.625277 
L 274.857852 267.722479 
L 279.977707 267.614854 
L 285.089163 267.302577 
L 290.184043 266.786145 
L 295.254196 266.066386 
L 300.29151 265.14445 
L 305.287928 264.021813 
L 310.235455 262.70027 
L 313.939387 261.57015 
L 312.760284 256.586756 
L 311.382842 251.654499 
L 309.809264 246.781271 
L 308.042068 241.974867 
L 306.08408 237.242977 
L 303.938433 232.59317 
L 301.60856 228.032886 
L 299.098188 223.569419 
L 296.411333 219.209911 
L 293.552293 214.961336 
L 290.525643 210.83049 
L 287.336223 206.823982 
L 283.989137 202.948221 
L 280.835592 199.565798 
L 285.855212 200.57966 
L 290.911361 201.39198 
L 295.995949 202.001458 
L 301.100843 202.407119 
L 306.217876 202.608314 
L 311.338861 202.604721 
L 316.455606 202.396347 
L 321.559926 201.983524 
L 326.643654 201.366913 
L 331.698658 200.5475 
L 336.71685 199.526597 
L 341.690204 198.305835 
L 346.610762 196.88717 
L 351.470652 195.272869 
L 352.411005 194.935353 
L 351.418257 189.911515 
L 350.225404 184.931394 
L 348.834353 180.002958 
L 347.24733 175.134092 
L 345.466874 170.332584 
L 343.495833 165.606116 
L 341.33736 160.962249 
L 338.994908 156.408413 
L 336.472226 151.951893 
L 333.773348 147.599818 
L 330.902592 143.35915 
L 327.864551 139.236674 
L 324.664085 135.238985 
L 321.306314 131.372478 
L 317.79661 127.643338 
L 314.140588 124.057533 
L 310.344096 120.620797 
L 306.413208 117.33863 
L 302.354212 114.216282 
L 298.173603 111.258748 
L 293.878068 108.470759 
L 289.474479 105.856776 
L 284.969881 103.420981 
L 280.371481 101.167269 
L 275.686634 99.099248 
L 270.922836 97.220224 
L 266.087707 95.533205 
L 261.188984 94.040889 
L 256.234502 92.745663 
L 251.232188 91.649599 
L 246.190044 90.754452 
L 241.116137 90.061652 
L 236.018584 89.572309 
L 230.90554 89.287205 
L 225.785185 89.206797 
L 220.66571 89.331212 
L 215.555306 89.660252 
L 210.462147 90.19339 
L 205.394382 90.929774 
L 200.360119 91.868226 
L 195.36741 93.007244 
L 190.424243 94.345006 
L 185.538527 95.879371 
L 180.718077 97.607886 
L 175.970605 99.527785 
L 171.303706 101.635996 
L 166.724846 103.929148 
L 162.24135 106.40357 
L 157.860391 109.055305 
L 153.588978 111.880111 
L 149.433943 114.873468 
L 145.401934 118.030588 
L 141.499401 121.34642 
L 137.732588 124.815659 
L 135.64757 126.860635 
L 134.412848 131.830541 
L 133.377857 136.845847 
L 132.544253 141.89853 
L 131.913368 146.980506 
L 131.486214 152.083647 
L 131.263472 157.199787 
L 131.245499 162.320741 
L 131.432324 167.438319 
L 131.823649 172.544332 
L 132.418846 177.630611 
L 133.216964 182.689021 
L 134.216726 187.711469 
L 135.416533 192.689919 
L 136.814465 197.616407 
L 138.408286 202.483052 
L 140.195446 207.282069 
L 142.173086 212.00578 
L 144.338041 216.646628 
L 146.68685 221.197188 
L 149.215754 225.650181 
L 151.920707 229.998483 
L 154.797382 234.235138 
L 157.841177 238.353367 
L 161.047223 242.346583 
L 164.41039 246.208397 
L 167.925298 249.932632 
L 171.586325 253.513328 
L 175.387612 256.944758 
L 179.32308 260.221433 
L 183.386432 263.33811 
L 187.571167 266.289803 
L 191.870591 269.07179 
L 196.277826 271.679621 
L 200.785821 274.109123 
L 205.387365 276.356411 
L 210.075095 278.417888 
L 214.841512 280.290257 
L 219.678992 281.970522 
L 224.579795 283.455996 
L 229.536081 284.744302 
L 232.468744 285.408 
L 237.453917 284.236439 
L 242.388252 282.866461 
L 247.263855 281.300258 
L 252.072927 279.540335 
L 256.807775 277.589509 
L 261.460822 275.4509 
L 266.024627 273.12793 
L 270.491886 270.624314 
L 274.855455 267.944057 
L 279.108351 265.091449 
L 283.243771 262.071052 
L 287.2551 258.887698 
L 291.135921 255.54648 
L 294.880023 252.052743 
L 298.481419 248.412077 
L 301.934346 244.630306 
L 305.233281 240.713479 
L 308.372946 236.667863 
L 311.348317 232.49993 
L 314.154636 228.216348 
L 316.787413 223.823969 
L 319.242435 219.329821 
L 321.515775 214.741093 
L 323.603797 210.065126 
L 325.50316 205.309401 
L 327.210826 200.481526 
L 328.724061 195.589224 
L 330.040447 190.640322 
L 331.157876 185.642737 
L 332.074562 180.604464 
L 332.789036 175.533564 
L 333.300158 170.438149 
L 333.607108 165.32637 
L 333.709397 160.206405 
L 333.606859 155.086446 
L 333.29966 149.974682 
L 332.78829 144.879291 
L 332.073568 139.808426 
L 331.156638 134.770198 
L 330.038965 129.772668 
L 328.722339 124.82383 
L 327.208865 119.931602 
L 325.500964 115.103809 
L 323.60137 110.348177 
L 321.51312 105.672311 
L 319.239556 101.083694 
L 316.784315 96.589665 
L 314.151325 92.197415 
L 311.344797 87.913969 
L 308.369223 83.746181 
L 305.229361 79.700718 
L 301.930236 75.784052 
L 298.477125 72.002449 
L 294.875552 68.361958 
L 291.131279 64.868404 
L 289.749809 63.648 
L 285.955628 67.087287 
L 282.302017 70.675549 
L 278.79482 74.407046 
L 275.439649 78.275809 
L 272.241871 82.275649 
L 269.206602 86.400166 
L 266.338697 90.642763 
L 263.642745 94.996651 
L 261.123059 99.454866 
L 258.783669 104.010276 
L 256.628318 108.655592 
L 254.660454 113.383384 
L 252.883225 118.186087 
L 251.299476 123.056019 
L 250.61397 125.396721 
L 252.174838 119.851191 
L 253.35161 114.867246 
L 254.328136 109.840229 
L 255.102854 104.778182 
L 255.674524 99.689204 
L 256.042232 94.581437 
L 256.205389 89.46305 
L 256.163736 84.342233 
L 255.917337 79.227178 
L 255.466588 74.126067 
L 254.81221 69.047062 
L 253.888053 63.648 
L 253.01703 68.694367 
L 252.348505 73.771529 
L 251.883547 78.871364 
L 251.6229 83.985713 
L 251.566981 89.106394 
L 251.715879 94.225216 
L 252.069357 99.333988 
L 252.626848 104.424539 
L 253.387461 109.488724 
L 254.349978 114.518441 
L 255.512861 119.505646 
L 256.874249 124.442358 
L 258.067225 128.23682 
L 262.810241 126.30594 
L 267.472249 124.186934 
L 272.04579 121.883192 
L 276.523548 119.398401 
L 280.898358 116.736534 
L 285.163224 113.901851 
L 289.31132 110.898887 
L 293.336012 107.732444 
L 297.230861 104.40759 
L 300.989635 100.929643 
L 304.606322 97.304167 
L 308.075136 93.536962 
L 311.390527 89.634055 
L 313.583129 86.868793 
L 308.521981 87.649359 
L 303.496096 88.631692 
L 298.513513 89.814222 
L 293.582205 91.195056 
L 288.71006 92.771985 
L 283.904873 94.542486 
L 279.17433 96.503728 
L 274.526 98.652572 
L 269.967319 100.985581 
L 265.50558 103.499022 
L 261.147921 106.188875 
L 256.901313 109.050835 
L 252.772549 112.080326 
L 248.768236 115.2725 
L 244.894778 118.622251 
L 241.158373 122.124219 
L 239.823294 123.445908 
L 236.683858 119.400114 
L 233.385145 115.483101 
L 229.932431 111.701134 
L 226.331241 108.060264 
L 222.587336 104.566316 
L 218.706705 101.224879 
L 214.695556 98.041298 
L 210.560306 95.020667 
L 206.307571 92.167818 
L 201.944155 89.487315 
L 197.477036 86.983447 
L 192.913364 84.660218 
L 188.260437 82.521346 
L 183.5257 80.570252 
L 178.716727 78.810058 
L 173.841212 77.243579 
L 168.906955 75.873322 
L 165.553574 75.061918 
L 169.109373 78.74713 
L 172.809698 82.287201 
L 176.648628 85.676466 
L 180.620021 88.909504 
L 184.717525 91.981143 
L 188.934584 94.886468 
L 193.264452 97.620832 
L 197.700202 100.17986 
L 202.234737 102.559459 
L 206.860804 104.755821 
L 211.571002 106.765433 
L 216.357795 108.58508 
L 221.213525 110.21185 
L 226.130425 111.643142 
L 231.100629 112.876665 
L 236.116184 113.910447 
L 241.169068 114.742833 
L 246.251197 115.372492 
L 251.35444 115.798416 
L 256.470634 116.019924 
L 261.591593 116.036662 
L 266.709125 115.848602 
L 271.815043 115.456047 
L 276.901179 114.859623 
L 281.959396 114.060285 
L 286.981602 113.059311 
L 291.959763 111.858304 
L 296.885914 110.459184 
L 301.752175 108.864189 
L 306.550761 107.075872 
L 311.273994 105.097093 
L 315.91432 102.931018 
L 320.464314 100.581112 
L 321.251513 100.150823 
L 319.61522 101.156203 
L 315.327387 103.956022 
L 311.154946 106.925069 
L 307.104573 110.058595 
L 303.182747 113.351585 
L 299.395744 116.798773 
L 295.74962 120.394643 
L 292.250209 124.133443 
L 288.903109 128.009191 
L 285.713675 132.015688 
L 282.687009 136.146523 
L 279.827954 140.395088 
L 277.450804 144.231641 
L 282.40966 142.953264 
L 287.313428 141.477608 
L 292.154263 139.807033 
L 296.924421 137.944214 
L 301.61627 135.892129 
L 306.222305 133.654061 
L 310.735156 131.233591 
L 315.147605 128.634592 
L 319.452592 125.861221 
L 323.64323 122.917914 
L 327.712816 119.809381 
L 331.025748 117.080295 
L 326.235505 118.890842 
L 321.521497 120.891499 
L 316.891265 123.079066 
L 312.352216 125.450044 
L 307.911611 128.000638 
L 303.576555 130.726769 
L 299.353982 133.624075 
L 295.250649 136.687922 
L 291.273119 139.913407 
L 287.427755 143.295371 
L 283.72071 146.828404 
L 280.938756 149.675175 
L 285.935294 148.553074 
L 290.882963 147.232061 
L 295.773847 145.714251 
L 300.600124 144.002072 
L 305.354071 142.098263 
L 310.028083 140.00587 
L 314.614684 137.728239 
L 319.106534 135.269016 
L 323.496449 132.632133 
L 327.777405 129.82181 
L 331.942554 126.842542 
L 335.20785 124.323908 
L 330.479379 126.29014 
L 325.833319 128.443888 
L 321.277103 130.781706 
L 316.818019 133.299854 
L 312.4632 135.994304 
L 308.219615 138.860744 
L 304.09405 141.89459 
L 300.093107 145.090988 
L 296.223187 148.444824 
L 292.490479 151.950733 
L 288.900957 155.603106 
L 285.184022 159.71432 
L 290.145211 160.983615 
L 295.153189 162.0535 
L 300.199946 162.922263 
L 305.277407 163.588515 
L 310.377449 164.05119 
L 315.491914 164.309548 
L 320.61262 164.363175 
L 325.731374 164.211985 
L 330.839988 163.856221 
L 335.930288 163.296451 
L 340.994132 162.533571 
L 346.023419 161.568802 
L 351.010102 160.403686 
L 355.352463 159.215402 
L 351.720918 162.825994 
L 348.236662 166.578922 
L 344.905271 170.468181 
L 341.732074 174.487549 
L 338.722146 178.630596 
L 335.880304 182.890694 
L 333.211094 187.261028 
L 330.718785 191.734606 
L 328.407366 196.304271 
L 326.280533 200.962714 
L 324.341689 205.70248 
L 322.593936 210.515988 
L 321.040071 215.395538 
L 319.682578 220.333322 
L 318.52363 225.321442 
L 317.56508 230.351918 
L 316.808463 235.416701 
L 316.254988 240.50769 
L 315.905541 245.61674 
L 315.760681 250.735677 
L 315.82064 255.856312 
L 315.913986 258.150044 
L 311.40515 260.577986 
L 306.997013 263.184292 
L 302.696626 265.964791 
L 298.510869 268.915035 
L 294.446439 272.030306 
L 290.509838 275.305618 
L 286.707363 278.735732 
L 283.045097 282.315162 
L 280.104506 285.408 
L 276.563569 281.708505 
L 272.877524 278.153568 
L 269.052268 274.748878 
L 265.09392 271.49988 
L 261.008813 268.411773 
L 256.803483 265.489497 
L 252.484656 262.737727 
L 248.059243 260.160864 
L 243.534323 257.763033 
L 238.917134 255.548068 
L 234.215063 253.519513 
L 229.435634 251.680613 
L 224.58649 250.03431 
L 219.675392 248.583239 
L 214.710194 247.329719 
L 209.69884 246.275757 
L 204.649347 245.423039 
L 199.569794 244.772929 
L 194.468307 244.326467 
L 189.353047 244.084367 
L 184.232196 244.047017 
L 179.113949 244.214475 
L 174.006492 244.586476 
L 168.917996 245.162422 
L 163.856602 245.941393 
L 158.830408 246.922143 
L 153.847453 248.103103 
L 151.043147 248.861287 
L 154.640971 245.21709 
L 158.090188 241.431934 
L 161.38528 237.511874 
L 164.520975 233.463181 
L 167.492258 229.292332 
L 170.294374 225.006 
L 172.922842 220.611042 
L 175.373456 216.114488 
L 177.642295 211.523533 
L 179.72573 206.84552 
L 181.620428 202.087935 
L 183.323358 197.258387 
L 184.831795 192.364603 
L 186.143327 187.414413 
L 186.364127 186.493403 
L 182.974993 182.654357 
L 179.435049 178.953911 
L 175.749959 175.397985 
L 171.925617 171.992267 
L 167.968142 168.742207 
L 163.883865 165.653003 
L 159.679319 162.729598 
L 155.361232 159.976668 
L 150.936511 157.398618 
L 146.412234 154.999571 
L 141.79564 152.783366 
L 137.094115 150.753549 
L 132.315179 148.913366 
L 127.466478 147.265761 
L 124.40405 146.334984 
L 128.16969 149.805496 
L 132.071102 153.122646 
L 136.102044 156.281128 
L 140.256068 159.275889 
L 144.526527 162.102138 
L 148.90659 164.755353 
L 153.389249 167.23129 
L 157.967334 169.525988 
L 162.633521 171.635776 
L 167.380344 173.557279 
L 172.20021 175.287422 
L 177.085407 176.823438 
L 182.028121 178.16287 
L 185.133428 178.897081 
L 180.437974 180.940903 
L 175.828006 183.170858 
L 171.3109 185.583379 
L 166.893883 188.174606 
L 162.58402 190.940394 
L 158.388206 193.876318 
L 154.313155 196.977681 
L 150.365384 200.239523 
L 146.55121 203.656624 
L 142.876735 207.223518 
L 139.347836 210.934498 
L 135.97016 214.783629 
L 133.277063 218.089526 
L 138.329879 217.256731 
L 143.345351 216.222544 
L 148.315455 214.988618 
L 153.232239 213.556929 
L 158.087838 211.929765 
L 162.874484 210.109731 
L 167.584519 208.099738 
L 172.210408 205.903002 
L 176.744751 203.523037 
L 181.180294 200.96365 
L 185.509941 198.228935 
L 189.448053 195.523091 
L 184.478922 196.760928 
L 179.563266 198.196488 
L 174.70895 199.827473 
L 169.923738 201.651274 
L 165.215287 203.664974 
L 160.591128 205.865351 
L 156.05866 208.248885 
L 151.625133 210.811763 
L 147.29764 213.549885 
L 143.083105 216.45887 
L 138.988269 219.534064 
L 135.665204 222.225908 
L 140.440274 220.375715 
L 145.137536 218.33605 
L 149.749475 216.110176 
L 154.268715 213.701654 
L 158.688024 211.114338 
L 163.000333 208.352366 
L 167.198744 205.420156 
L 171.276539 202.322401 
L 175.227195 199.064055 
L 179.044392 195.650331 
L 182.722023 192.086691 
L 186.254204 188.378835 
L 186.715678 187.871872 
L 181.805341 186.418225 
L 176.840801 185.162101 
L 171.830001 184.105511 
L 166.780957 183.250144 
L 161.701745 182.59737 
L 156.600493 182.148232 
L 151.48536 181.903449 
L 146.36453 181.863412 
L 141.246195 182.028186 
L 136.138544 182.397508 
L 131.049747 182.970785 
L 125.987945 183.747101 
L 120.961237 184.725215 
L 115.977664 185.90356 
L 114.863348 186.196036 
L 118.409003 182.501062 
L 121.804062 178.667255 
L 125.043095 174.700749 
L 128.120918 170.607889 
L 131.032609 166.395222 
L 133.773509 162.069489 
L 136.339234 157.637609 
L 138.725678 153.106673 
L 140.929024 148.483928 
L 142.945747 143.776771 
L 144.772621 138.992732 
L 146.406724 134.139463 
L 147.84544 129.224731 
L 149.086468 124.256396 
L 150.127823 119.242407 
L 150.96784 114.190786 
L 151.605173 109.109614 
L 152.038804 104.00702 
L 152.268039 98.891167 
L 152.286274 98.041555 
L 156.620316 95.313811 
L 160.841811 92.414935 
L 164.944004 89.349562 
L 168.920334 86.122598 
L 172.76444 82.739203 
L 176.47017 79.204792 
L 180.031598 75.525019 
L 183.443026 71.705769 
L 186.698995 67.753154 
L 189.812846 63.648 
L 192.907144 67.72842 
L 196.16214 71.681836 
L 199.572626 75.501926 
L 203.133148 79.182576 
L 206.838008 82.7179 
L 210.68128 86.10224 
L 214.656815 89.330184 
L 218.758254 92.396567 
L 222.979034 95.296483 
L 227.312404 98.025293 
L 231.751432 100.578632 
L 236.289014 102.952415 
L 240.917893 105.142844 
L 245.630664 107.146416 
L 250.419786 108.959924 
L 255.277598 110.580467 
L 260.196329 112.005454 
L 265.16811 113.232604 
L 270.184987 114.259955 
L 275.238934 115.085862 
L 280.321865 115.709004 
L 285.42565 116.128385 
L 290.542124 116.343333 
L 295.6631 116.353505 
L 300.780387 116.158885 
L 305.885798 115.759783 
L 310.971165 115.156839 
L 316.028353 114.351016 
L 321.049272 113.343605 
L 326.025888 112.136216 
L 327.880155 111.631969 
L 324.290992 115.284695 
L 320.85077 119.078028 
L 317.564993 123.005899 
L 314.438917 127.062024 
L 311.477543 131.239914 
L 308.685609 135.532886 
L 306.067581 139.934071 
L 303.627648 144.436429 
L 301.369713 149.032757 
L 299.297388 153.715702 
L 297.413988 158.477772 
L 295.722528 163.311348 
L 294.225711 168.208699 
L 292.925934 173.161989 
L 291.825275 178.163294 
L 290.925495 183.204613 
L 290.228034 188.277881 
L 289.734008 193.374982 
L 289.444207 198.487762 
L 289.359094 203.608041 
L 289.478805 208.727628 
L 289.80315 213.838333 
L 290.331609 218.931979 
L 291.063336 224.000418 
L 291.997162 229.035542 
L 293.131593 234.029295 
L 294.464812 238.973689 
L 295.994689 243.860813 
L 297.718774 248.682849 
L 299.63431 253.432082 
L 301.738233 258.100916 
L 304.027176 262.681881 
L 306.497479 267.167649 
L 308.641289 270.746725 
L 303.520694 270.683396 
L 298.401663 270.824887 
L 293.292384 271.170972 
L 288.201032 271.721096 
L 283.135752 272.47438 
L 278.104646 273.429618 
L 273.115765 274.585283 
L 268.177088 275.939526 
L 263.296517 277.490179 
L 258.481859 279.234764 
L 253.740817 281.170487 
L 249.080976 283.294254 
L 244.878288 285.408 
L 240.299612 283.11448 
L 235.632883 281.005893 
L 230.885566 279.085612 
L 226.065255 277.356709 
L 221.179662 275.82195 
L 216.236603 274.48379 
L 211.243986 273.34437 
L 206.209798 272.405513 
L 201.142093 271.668721 
L 196.048977 271.135172 
L 190.938599 270.805721 
L 185.819134 270.680894 
L 180.698773 270.76089 
L 175.585706 271.045582 
L 170.488114 271.534515 
L 165.414151 272.226906 
L 164.607851 272.356043 
L 167.770214 268.328145 
L 170.768974 264.177008 
L 173.599335 259.909273 
L 176.256768 255.531767 
L 178.737021 251.051495 
L 181.036128 246.475622 
L 183.150409 241.81147 
L 185.076483 237.066499 
L 186.811267 232.248302 
L 188.351988 227.364586 
L 189.69618 222.423164 
L 190.841692 217.431942 
L 191.786693 212.398903 
L 192.52967 207.332101 
L 193.072071 202.208864 
L 188.21651 200.581589 
L 183.299758 199.149786 
L 178.329683 197.915746 
L 173.314235 196.881443 
L 168.261438 196.048532 
L 163.179375 195.418345 
L 158.076176 194.991891 
L 152.960005 194.769851 
L 147.839048 194.752581 
L 142.721496 194.940109 
L 137.615537 195.332134 
L 132.529339 195.928029 
L 127.471039 196.726841 
L 122.448729 197.727293 
L 121.626974 197.91098 
L 125.029788 194.084054 
L 128.276843 190.124113 
L 131.362945 186.037492 
L 134.283158 181.830728 
L 137.032809 177.510553 
L 139.6075 173.083876 
L 142.003112 168.557779 
L 144.215811 163.939504 
L 146.242059 159.236439 
L 148.078614 154.456108 
L 149.722538 149.606158 
L 151.1712 144.694347 
L 152.422283 139.728535 
L 153.473786 134.716665 
L 154.324027 129.666755 
L 154.971645 124.586883 
L 155.415604 119.485178 
L 155.655195 114.369799 
L 155.690033 109.248931 
L 155.520063 104.130766 
L 155.145557 99.023492 
L 154.584 94.061777 
L 159.277704 92.013937 
L 163.885761 89.780038 
L 168.400801 87.363652 
L 172.815599 84.768645 
L 177.123093 81.999169 
L 181.316392 79.059655 
L 185.388788 75.954805 
L 189.333765 72.689586 
L 193.145013 69.269222 
L 196.816435 65.699185 
L 198.798484 63.648 
L 198.798484 63.648 
" style="fill:none;stroke:#1f77b4;stroke-linecap:square;stroke-width:1.5;"/>
   </g>
   <g id="patch_4">
    <path d="M 82.520165 307.584 
L 82.520165 41.472 
" style="fill:none;stroke:#000000;stroke-linecap:square;stroke-linejoin:miter;stroke-width:0.8;"/>
   </g>
   <g id="patch_5">
    <path d="M 389.799835 307.584 
L 389.799835 41.472 
" style="fill:none;stroke:#000000;stroke-linecap:square;stroke-linejoin:miter;stroke-width:0.8;"/>
   </g>
   <g id="patch_6">
    <path d="M 82.520165 307.584 
L 389.799835 307.584 
" style="fill:none;stroke:#000000;stroke-linecap:square;stroke-linejoin:miter;stroke-width:0.8;"/>
   </g>
   <g id="patch_7">
    <path d="M 82.520165 41.472 
L 389.799835 41.472 
" style="fill:none;stroke:#000000;stroke-linecap:square;stroke-linejoin:miter;stroke-width:0.8;"/>
   </g>
  </g>
 </g>
 <defs>
  <clipPath id="p18cc752eba">
   <rect height="266.112" width="307.27967" x="82.520165" y="41.472"/>
  </clipPath>
 </defs>
</svg>
