<?xml version="1.0" encoding="utf-8" standalone="no"?>
<!DOCTYPE svg PUBLIC "-//W3C//DTD SVG 1.1//EN"
  "http://www.w3.org/Graphics/SVG/1.1/DTD/svg11.dtd">
<!-- Created with matplotlib (https://matplotlib.org/) -->
<svg height="345.6pt" version="1.1" viewBox="0 0 460.8 345.6" width="460.8pt" xmlns="http://www.w3.org/2000/svg" xmlns:xlink="http://www.w3.org/1999/xlink">
 <defs>
  <style type="text/css">
*{stroke-linecap:butt;stroke-linejoin:round;}
  </style>
 </defs>
 <g id="figure_1">
  <g id="patch_1">
   <path d="M 0 345.6 
L 460.8 345.6 
L 460.8 0 
L 0 0 
z
" style="fill:#ffffff;"/>
  </g>
  <g id="axes_1">
   <g id="patch_2">
    <path d="M 57.6 263.808 
L 414.72 263.808 
L 414.72 85.248 
L 57.6 85.248 
z
" style="fill:#ffffff;"/>
   </g>
   <g id="PathCollection_1">
    <defs>
     <path d="M 0 3 
C 0.795609 3 1.55874 2.683901 2.12132 2.12132 
C 2.683901 1.55874 3 0.795609 3 0 
C 3 -0.795609 2.683901 -1.55874 2.12132 -2.12132 
C 1.55874 -2.683901 0.795609 -3 0 -3 
C -0.795609 -3 -1.55874 -2.683901 -2.12132 -2.12132 
C -2.683901 -1.55874 -3 -0.795609 -3 0 
C -3 0.795609 -2.683901 1.55874 -2.12132 2.12132 
C -1.55874 2.683901 -0.795609 3 0 3 
z
" id="mec34bee654" style="stroke:#000000;"/>
    </defs>
    <g clip-path="url(#p05c5a08254)">
     <use style="stroke:#000000;" x="153.328494" xlink:href="#mec34bee654" y="134.608851"/>
    </g>
   </g>
   <g id="patch_3">
    <path clip-path="url(#p05c5a08254)" d="M 161.76 211.728 
C 171.625555 211.728 181.088371 207.808373 188.064372 200.832372 
C 195.040373 193.856371 198.96 184.393555 198.96 174.528 
C 198.96 164.662445 195.040373 155.199629 188.064372 148.223628 
C 181.088371 141.247627 171.625555 137.328 161.76 137.328 
C 151.894445 137.328 142.431629 141.247627 135.455628 148.223628 
C 128.479627 155.199629 124.56 164.662445 124.56 174.528 
C 124.56 184.393555 128.479627 193.856371 135.455628 200.832372 
C 142.431629 207.808373 151.894445 211.728 161.76 211.728 
z
" style="fill:#cc0000;fill-opacity:0.1;stroke:#cc0000;stroke-dasharray:7.4,3.2;stroke-dashoffset:0;stroke-linejoin:miter;stroke-width:2;"/>
   </g>
   <g id="patch_4">
    <path clip-path="url(#p05c5a08254)" d="M 310.56 196.848 
C 316.479333 196.848 322.157023 194.496224 326.342623 190.310623 
C 330.528224 186.125023 332.88 180.447333 332.88 174.528 
C 332.88 168.608667 330.528224 162.930977 326.342623 158.745377 
C 322.157023 154.559776 316.479333 152.208 310.56 152.208 
C 304.640667 152.208 298.962977 154.559776 294.777377 158.745377 
C 290.591776 162.930977 288.24 168.608667 288.24 174.528 
C 288.24 180.447333 290.591776 186.125023 294.777377 190.310623 
C 298.962977 194.496224 304.640667 196.848 310.56 196.848 
z
" style="fill:#cc0000;fill-opacity:0.1;stroke:#cc0000;stroke-dasharray:7.4,3.2;stroke-dashoffset:0;stroke-linejoin:miter;stroke-width:2;"/>
   </g>
   <g id="matplotlib.axis_1">
    <g id="xtick_1">
     <g id="line2d_1">
      <defs>
       <path d="M 0 0 
L 0 3.5 
" id="m20cf3fecc1" style="stroke:#000000;stroke-width:0.8;"/>
      </defs>
      <g>
       <use style="stroke:#000000;stroke-width:0.8;" x="87.36" xlink:href="#m20cf3fecc1" y="263.808"/>
      </g>
     </g>
     <g id="text_1">
      <!-- 0.0 -->
      <defs>
       <path d="M 31.78125 66.40625 
Q 24.171875 66.40625 20.328125 58.90625 
Q 16.5 51.421875 16.5 36.375 
Q 16.5 21.390625 20.328125 13.890625 
Q 24.171875 6.390625 31.78125 6.390625 
Q 39.453125 6.390625 43.28125 13.890625 
Q 47.125 21.390625 47.125 36.375 
Q 47.125 51.421875 43.28125 58.90625 
Q 39.453125 66.40625 31.78125 66.40625 
z
M 31.78125 74.21875 
Q 44.046875 74.21875 50.515625 64.515625 
Q 56.984375 54.828125 56.984375 36.375 
Q 56.984375 17.96875 50.515625 8.265625 
Q 44.046875 -1.421875 31.78125 -1.421875 
Q 19.53125 -1.421875 13.0625 8.265625 
Q 6.59375 17.96875 6.59375 36.375 
Q 6.59375 54.828125 13.0625 64.515625 
Q 19.53125 74.21875 31.78125 74.21875 
z
" id="DejaVuSans-48"/>
       <path d="M 10.6875 12.40625 
L 21 12.40625 
L 21 0 
L 10.6875 0 
z
" id="DejaVuSans-46"/>
      </defs>
      <g transform="translate(79.408438 278.406437)scale(0.1 -0.1)">
       <use xlink:href="#DejaVuSans-48"/>
       <use x="63.623047" xlink:href="#DejaVuSans-46"/>
       <use x="95.410156" xlink:href="#DejaVuSans-48"/>
      </g>
     </g>
    </g>
    <g id="xtick_2">
     <g id="line2d_2">
      <g>
       <use style="stroke:#000000;stroke-width:0.8;" x="161.76" xlink:href="#m20cf3fecc1" y="263.808"/>
      </g>
     </g>
     <g id="text_2">
      <!-- 0.5 -->
      <defs>
       <path d="M 10.796875 72.90625 
L 49.515625 72.90625 
L 49.515625 64.59375 
L 19.828125 64.59375 
L 19.828125 46.734375 
Q 21.96875 47.46875 24.109375 47.828125 
Q 26.265625 48.1875 28.421875 48.1875 
Q 40.625 48.1875 47.75 41.5 
Q 54.890625 34.8125 54.890625 23.390625 
Q 54.890625 11.625 47.5625 5.09375 
Q 40.234375 -1.421875 26.90625 -1.421875 
Q 22.3125 -1.421875 17.546875 -0.640625 
Q 12.796875 0.140625 7.71875 1.703125 
L 7.71875 11.625 
Q 12.109375 9.234375 16.796875 8.0625 
Q 21.484375 6.890625 26.703125 6.890625 
Q 35.15625 6.890625 40.078125 11.328125 
Q 45.015625 15.765625 45.015625 23.390625 
Q 45.015625 31 40.078125 35.4375 
Q 35.15625 39.890625 26.703125 39.890625 
Q 22.75 39.890625 18.8125 39.015625 
Q 14.890625 38.140625 10.796875 36.28125 
z
" id="DejaVuSans-53"/>
      </defs>
      <g transform="translate(153.808437 278.406437)scale(0.1 -0.1)">
       <use xlink:href="#DejaVuSans-48"/>
       <use x="63.623047" xlink:href="#DejaVuSans-46"/>
       <use x="95.410156" xlink:href="#DejaVuSans-53"/>
      </g>
     </g>
    </g>
    <g id="xtick_3">
     <g id="line2d_3">
      <g>
       <use style="stroke:#000000;stroke-width:0.8;" x="236.16" xlink:href="#m20cf3fecc1" y="263.808"/>
      </g>
     </g>
     <g id="text_3">
      <!-- 1.0 -->
      <defs>
       <path d="M 12.40625 8.296875 
L 28.515625 8.296875 
L 28.515625 63.921875 
L 10.984375 60.40625 
L 10.984375 69.390625 
L 28.421875 72.90625 
L 38.28125 72.90625 
L 38.28125 8.296875 
L 54.390625 8.296875 
L 54.390625 0 
L 12.40625 0 
z
" id="DejaVuSans-49"/>
      </defs>
      <g transform="translate(228.208437 278.406437)scale(0.1 -0.1)">
       <use xlink:href="#DejaVuSans-49"/>
       <use x="63.623047" xlink:href="#DejaVuSans-46"/>
       <use x="95.410156" xlink:href="#DejaVuSans-48"/>
      </g>
     </g>
    </g>
    <g id="xtick_4">
     <g id="line2d_4">
      <g>
       <use style="stroke:#000000;stroke-width:0.8;" x="310.56" xlink:href="#m20cf3fecc1" y="263.808"/>
      </g>
     </g>
     <g id="text_4">
      <!-- 1.5 -->
      <g transform="translate(302.608437 278.406437)scale(0.1 -0.1)">
       <use xlink:href="#DejaVuSans-49"/>
       <use x="63.623047" xlink:href="#DejaVuSans-46"/>
       <use x="95.410156" xlink:href="#DejaVuSans-53"/>
      </g>
     </g>
    </g>
    <g id="xtick_5">
     <g id="line2d_5">
      <g>
       <use style="stroke:#000000;stroke-width:0.8;" x="384.96" xlink:href="#m20cf3fecc1" y="263.808"/>
      </g>
     </g>
     <g id="text_5">
      <!-- 2.0 -->
      <defs>
       <path d="M 19.1875 8.296875 
L 53.609375 8.296875 
L 53.609375 0 
L 7.328125 0 
L 7.328125 8.296875 
Q 12.9375 14.109375 22.625 23.890625 
Q 32.328125 33.6875 34.8125 36.53125 
Q 39.546875 41.84375 41.421875 45.53125 
Q 43.3125 49.21875 43.3125 52.78125 
Q 43.3125 58.59375 39.234375 62.25 
Q 35.15625 65.921875 28.609375 65.921875 
Q 23.96875 65.921875 18.8125 64.3125 
Q 13.671875 62.703125 7.8125 59.421875 
L 7.8125 69.390625 
Q 13.765625 71.78125 18.9375 73 
Q 24.125 74.21875 28.421875 74.21875 
Q 39.75 74.21875 46.484375 68.546875 
Q 53.21875 62.890625 53.21875 53.421875 
Q 53.21875 48.921875 51.53125 44.890625 
Q 49.859375 40.875 45.40625 35.40625 
Q 44.1875 33.984375 37.640625 27.21875 
Q 31.109375 20.453125 19.1875 8.296875 
z
" id="DejaVuSans-50"/>
      </defs>
      <g transform="translate(377.008437 278.406437)scale(0.1 -0.1)">
       <use xlink:href="#DejaVuSans-50"/>
       <use x="63.623047" xlink:href="#DejaVuSans-46"/>
       <use x="95.410156" xlink:href="#DejaVuSans-48"/>
      </g>
     </g>
    </g>
   </g>
   <g id="matplotlib.axis_2">
    <g id="ytick_1">
     <g id="line2d_6">
      <defs>
       <path d="M 0 0 
L -3.5 0 
" id="m6c4f527a38" style="stroke:#000000;stroke-width:0.8;"/>
      </defs>
      <g>
       <use style="stroke:#000000;stroke-width:0.8;" x="57.6" xlink:href="#m6c4f527a38" y="248.928"/>
      </g>
     </g>
     <g id="text_6">
      <!-- 0.0 -->
      <g transform="translate(34.696875 252.727219)scale(0.1 -0.1)">
       <use xlink:href="#DejaVuSans-48"/>
       <use x="63.623047" xlink:href="#DejaVuSans-46"/>
       <use x="95.410156" xlink:href="#DejaVuSans-48"/>
      </g>
     </g>
    </g>
    <g id="ytick_2">
     <g id="line2d_7">
      <g>
       <use style="stroke:#000000;stroke-width:0.8;" x="57.6" xlink:href="#m6c4f527a38" y="219.168"/>
      </g>
     </g>
     <g id="text_7">
      <!-- 0.2 -->
      <g transform="translate(34.696875 222.967219)scale(0.1 -0.1)">
       <use xlink:href="#DejaVuSans-48"/>
       <use x="63.623047" xlink:href="#DejaVuSans-46"/>
       <use x="95.410156" xlink:href="#DejaVuSans-50"/>
      </g>
     </g>
    </g>
    <g id="ytick_3">
     <g id="line2d_8">
      <g>
       <use style="stroke:#000000;stroke-width:0.8;" x="57.6" xlink:href="#m6c4f527a38" y="189.408"/>
      </g>
     </g>
     <g id="text_8">
      <!-- 0.4 -->
      <defs>
       <path d="M 37.796875 64.3125 
L 12.890625 25.390625 
L 37.796875 25.390625 
z
M 35.203125 72.90625 
L 47.609375 72.90625 
L 47.609375 25.390625 
L 58.015625 25.390625 
L 58.015625 17.1875 
L 47.609375 17.1875 
L 47.609375 0 
L 37.796875 0 
L 37.796875 17.1875 
L 4.890625 17.1875 
L 4.890625 26.703125 
z
" id="DejaVuSans-52"/>
      </defs>
      <g transform="translate(34.696875 193.207219)scale(0.1 -0.1)">
       <use xlink:href="#DejaVuSans-48"/>
       <use x="63.623047" xlink:href="#DejaVuSans-46"/>
       <use x="95.410156" xlink:href="#DejaVuSans-52"/>
      </g>
     </g>
    </g>
    <g id="ytick_4">
     <g id="line2d_9">
      <g>
       <use style="stroke:#000000;stroke-width:0.8;" x="57.6" xlink:href="#m6c4f527a38" y="159.648"/>
      </g>
     </g>
     <g id="text_9">
      <!-- 0.6 -->
      <defs>
       <path d="M 33.015625 40.375 
Q 26.375 40.375 22.484375 35.828125 
Q 18.609375 31.296875 18.609375 23.390625 
Q 18.609375 15.53125 22.484375 10.953125 
Q 26.375 6.390625 33.015625 6.390625 
Q 39.65625 6.390625 43.53125 10.953125 
Q 47.40625 15.53125 47.40625 23.390625 
Q 47.40625 31.296875 43.53125 35.828125 
Q 39.65625 40.375 33.015625 40.375 
z
M 52.59375 71.296875 
L 52.59375 62.3125 
Q 48.875 64.0625 45.09375 64.984375 
Q 41.3125 65.921875 37.59375 65.921875 
Q 27.828125 65.921875 22.671875 59.328125 
Q 17.53125 52.734375 16.796875 39.40625 
Q 19.671875 43.65625 24.015625 45.921875 
Q 28.375 48.1875 33.59375 48.1875 
Q 44.578125 48.1875 50.953125 41.515625 
Q 57.328125 34.859375 57.328125 23.390625 
Q 57.328125 12.15625 50.6875 5.359375 
Q 44.046875 -1.421875 33.015625 -1.421875 
Q 20.359375 -1.421875 13.671875 8.265625 
Q 6.984375 17.96875 6.984375 36.375 
Q 6.984375 53.65625 15.1875 63.9375 
Q 23.390625 74.21875 37.203125 74.21875 
Q 40.921875 74.21875 44.703125 73.484375 
Q 48.484375 72.75 52.59375 71.296875 
z
" id="DejaVuSans-54"/>
      </defs>
      <g transform="translate(34.696875 163.447219)scale(0.1 -0.1)">
       <use xlink:href="#DejaVuSans-48"/>
       <use x="63.623047" xlink:href="#DejaVuSans-46"/>
       <use x="95.410156" xlink:href="#DejaVuSans-54"/>
      </g>
     </g>
    </g>
    <g id="ytick_5">
     <g id="line2d_10">
      <g>
       <use style="stroke:#000000;stroke-width:0.8;" x="57.6" xlink:href="#m6c4f527a38" y="129.888"/>
      </g>
     </g>
     <g id="text_10">
      <!-- 0.8 -->
      <defs>
       <path d="M 31.78125 34.625 
Q 24.75 34.625 20.71875 30.859375 
Q 16.703125 27.09375 16.703125 20.515625 
Q 16.703125 13.921875 20.71875 10.15625 
Q 24.75 6.390625 31.78125 6.390625 
Q 38.8125 6.390625 42.859375 10.171875 
Q 46.921875 13.96875 46.921875 20.515625 
Q 46.921875 27.09375 42.890625 30.859375 
Q 38.875 34.625 31.78125 34.625 
z
M 21.921875 38.8125 
Q 15.578125 40.375 12.03125 44.71875 
Q 8.5 49.078125 8.5 55.328125 
Q 8.5 64.0625 14.71875 69.140625 
Q 20.953125 74.21875 31.78125 74.21875 
Q 42.671875 74.21875 48.875 69.140625 
Q 55.078125 64.0625 55.078125 55.328125 
Q 55.078125 49.078125 51.53125 44.71875 
Q 48 40.375 41.703125 38.8125 
Q 48.828125 37.15625 52.796875 32.3125 
Q 56.78125 27.484375 56.78125 20.515625 
Q 56.78125 9.90625 50.3125 4.234375 
Q 43.84375 -1.421875 31.78125 -1.421875 
Q 19.734375 -1.421875 13.25 4.234375 
Q 6.78125 9.90625 6.78125 20.515625 
Q 6.78125 27.484375 10.78125 32.3125 
Q 14.796875 37.15625 21.921875 38.8125 
z
M 18.3125 54.390625 
Q 18.3125 48.734375 21.84375 45.5625 
Q 25.390625 42.390625 31.78125 42.390625 
Q 38.140625 42.390625 41.71875 45.5625 
Q 45.3125 48.734375 45.3125 54.390625 
Q 45.3125 60.0625 41.71875 63.234375 
Q 38.140625 66.40625 31.78125 66.40625 
Q 25.390625 66.40625 21.84375 63.234375 
Q 18.3125 60.0625 18.3125 54.390625 
z
" id="DejaVuSans-56"/>
      </defs>
      <g transform="translate(34.696875 133.687219)scale(0.1 -0.1)">
       <use xlink:href="#DejaVuSans-48"/>
       <use x="63.623047" xlink:href="#DejaVuSans-46"/>
       <use x="95.410156" xlink:href="#DejaVuSans-56"/>
      </g>
     </g>
    </g>
    <g id="ytick_6">
     <g id="line2d_11">
      <g>
       <use style="stroke:#000000;stroke-width:0.8;" x="57.6" xlink:href="#m6c4f527a38" y="100.128"/>
      </g>
     </g>
     <g id="text_11">
      <!-- 1.0 -->
      <g transform="translate(34.696875 103.927219)scale(0.1 -0.1)">
       <use xlink:href="#DejaVuSans-49"/>
       <use x="63.623047" xlink:href="#DejaVuSans-46"/>
       <use x="95.410156" xlink:href="#DejaVuSans-48"/>
      </g>
     </g>
    </g>
   </g>
   <g id="line2d_12">
    <path clip-path="url(#p05c5a08254)" d="M 236.16 248.928 
L 236.16 100.128 
" style="fill:none;stroke:#cc0000;stroke-dasharray:7.4,3.2;stroke-dashoffset:0;stroke-width:2;"/>
   </g>
   <g id="line2d_13">
    <path clip-path="url(#p05c5a08254)" d="M 87.36 248.928 
L 384.96 248.928 
" style="fill:none;stroke:#009900;stroke-linecap:square;stroke-width:2;"/>
   </g>
   <g id="line2d_14">
    <path clip-path="url(#p05c5a08254)" d="M 384.96 248.928 
L 384.96 100.128 
" style="fill:none;stroke:#009900;stroke-linecap:square;stroke-width:2;"/>
   </g>
   <g id="line2d_15">
    <path clip-path="url(#p05c5a08254)" d="M 384.96 100.128 
L 87.36 100.128 
" style="fill:none;stroke:#009900;stroke-linecap:square;stroke-width:2;"/>
   </g>
   <g id="line2d_16">
    <path clip-path="url(#p05c5a08254)" d="M 87.36 100.128 
L 87.36 248.928 
" style="fill:none;stroke:#009900;stroke-linecap:square;stroke-width:2;"/>
   </g>
   <g id="line2d_17">
    <path clip-path="url(#p05c5a08254)" d="M 153.328494 134.608851 
L 158.375142 131.454026 
L 163.291595 128.099913 
L 168.069986 124.551876 
L 172.702671 120.815593 
L 177.182238 116.897041 
L 181.501523 112.802488 
L 185.653614 108.538485 
L 189.631869 104.111854 
L 192.951328 100.128 
L 196.772926 104.690561 
L 200.773922 109.09665 
L 204.947914 113.339216 
L 209.288224 117.411475 
L 213.78791 121.306909 
L 218.439772 125.019288 
L 223.236368 128.542673 
L 228.170026 131.871427 
L 233.232852 135.000225 
L 236.16 136.684748 
L 231.02747 139.697838 
L 226.019536 142.913765 
L 221.144211 146.327383 
L 216.409295 149.933231 
L 211.822361 153.725542 
L 207.390748 157.698247 
L 203.121546 161.844992 
L 199.021584 166.159143 
L 198.203265 167.062853 
L 194.266267 169.165557 
L 190.210267 171.0284 
L 186.049862 172.644676 
L 181.800025 174.008569 
L 177.476051 175.115171 
L 173.093502 175.960499 
L 168.668149 176.54151 
L 164.21592 176.856114 
L 159.752838 176.903178 
L 155.294965 176.682534 
L 150.858344 176.194974 
L 146.458943 175.442254 
L 142.112594 174.427083 
L 137.83494 173.153115 
L 133.641376 171.624933 
L 129.546994 169.848039 
L 125.205082 167.63032 
L 129.645216 167.175867 
L 134.104611 166.988479 
L 138.567218 167.068832 
L 143.016977 167.416635 
L 147.437873 168.030639 
L 151.813995 168.908632 
L 156.129595 170.047455 
L 160.36914 171.443009 
L 164.517374 173.090272 
L 168.559366 174.983316 
L 172.480571 177.115328 
L 176.266876 179.478634 
L 179.904654 182.064729 
L 183.380813 184.864307 
L 186.682843 187.867291 
L 189.798861 191.062874 
L 192.976953 194.760198 
L 188.695619 193.498651 
L 184.497637 191.982649 
L 180.398115 190.217646 
L 176.411806 188.209996 
L 172.553057 185.966923 
L 168.835755 183.496501 
L 165.273279 180.807619 
L 161.87845 177.909956 
L 158.663484 174.81394 
L 155.639954 171.530713 
L 152.81874 168.07209 
L 150.209995 164.45052 
L 147.823109 160.679036 
L 145.666671 156.771211 
L 143.748442 152.74111 
L 142.075326 148.603236 
L 140.534844 143.977505 
L 140.593144 138.026187 
L 140.413407 132.077299 
L 139.995922 126.140356 
L 139.341357 120.224857 
L 138.450759 114.340266 
L 137.325552 108.495996 
L 135.967536 102.701397 
L 135.285298 100.128 
L 133.823829 105.897375 
L 132.594242 111.720578 
L 131.598504 117.588294 
L 130.838209 123.491135 
L 130.314573 129.419658 
L 130.028434 135.364379 
L 129.980248 141.315787 
L 130.170094 147.264362 
L 130.597668 153.200586 
L 130.681692 154.083471 
L 125.049682 156.00754 
L 119.499119 158.15529 
L 114.038883 160.523285 
L 108.677709 163.107738 
L 103.424174 165.904513 
L 98.286682 168.909136 
L 93.273453 172.116801 
L 88.392506 175.522376 
L 87.36 176.280747 
L 92.211446 179.728218 
L 97.196873 182.978925 
L 102.308306 186.027668 
L 107.537568 188.869569 
L 112.876293 191.500082 
L 118.315939 193.914999 
L 123.847806 196.110457 
L 129.463042 198.082943 
L 134.250033 199.568801 
L 135.491981 205.389381 
L 136.965696 211.15564 
L 138.668821 216.858354 
L 140.598631 222.488399 
L 142.75204 228.036769 
L 145.125602 233.494588 
L 147.71552 238.853124 
L 150.51765 244.103805 
L 153.337735 248.928 
L 156.335037 243.786234 
L 159.124326 238.528721 
L 161.70114 233.163871 
L 164.061356 227.700267 
L 166.201198 222.146651 
L 168.117243 216.511906 
L 169.79406 210.850085 
L 173.733906 215.310936 
L 177.848988 219.610668 
L 182.132721 223.7424 
L 186.578252 227.699524 
L 191.178471 231.475709 
L 195.926016 235.064913 
L 200.813295 238.461396 
L 205.832487 241.659722 
L 210.975563 244.654776 
L 216.234295 247.441766 
L 219.264501 248.928 
L 224.585091 246.260997 
L 229.794773 243.38336 
L 234.885213 240.299694 
L 236.16 239.483058 
L 231.101197 236.34776 
L 225.921062 233.417268 
L 220.627882 230.696271 
L 215.230125 228.189121 
L 209.736426 225.899829 
L 204.155575 223.832058 
L 198.496499 221.989115 
L 192.768251 220.373949 
L 186.979996 218.989144 
L 181.140994 217.836915 
L 175.260585 216.919105 
L 169.348178 216.237183 
L 163.41323 215.79224 
L 157.465236 215.584987 
L 151.513713 215.615757 
L 145.56818 215.884499 
L 139.63815 216.390784 
L 133.733109 217.133803 
L 127.862505 218.112365 
L 122.035729 219.324907 
L 116.262102 220.769487 
L 110.550861 222.443795 
L 104.911143 224.345153 
L 99.35197 226.470519 
L 93.882236 228.816492 
L 88.510691 231.379319 
L 87.36 231.963116 
L 92.70912 234.572425 
L 98.158305 236.96574 
L 103.698839 239.139232 
L 109.321858 241.089422 
L 115.018366 242.813192 
L 120.779249 244.307783 
L 126.595292 245.570805 
L 132.45719 246.600237 
L 138.355566 247.394432 
L 144.280983 247.95212 
L 150.223961 248.272408 
L 156.174994 248.354784 
L 162.124562 248.199117 
L 168.063145 247.805655 
L 173.981243 247.175027 
L 179.869389 246.308243 
L 185.718164 245.20669 
L 191.518209 243.872129 
L 197.260247 242.306695 
L 202.935091 240.512894 
L 208.533663 238.493594 
L 214.047006 236.252026 
L 219.466301 233.791776 
L 224.782877 231.11678 
L 229.988228 228.231317 
L 235.074029 225.140004 
L 236.16 224.443173 
L 243.267705 222.245164 
L 250.318245 219.870168 
L 257.307213 217.319669 
L 264.230241 214.59526 
L 271.083002 211.698646 
L 277.861214 208.631635 
L 284.560641 205.396145 
L 291.177096 201.994198 
L 297.706443 198.42792 
L 302.842178 195.4712 
L 306.747609 190.980188 
L 310.829509 186.648944 
L 315.081347 182.484397 
L 319.496322 178.493209 
L 324.06737 174.681766 
L 328.787179 171.056165 
L 332.101238 168.683563 
L 326.178054 168.102644 
L 320.282838 167.285325 
L 314.425022 166.232915 
L 308.613976 164.947096 
L 302.858998 163.429926 
L 297.169293 161.683832 
L 293.315335 160.35747 
L 296.273827 165.521664 
L 299.023441 170.800036 
L 301.559776 176.184141 
L 303.878776 181.665365 
L 305.976731 187.23494 
L 307.850284 192.883956 
L 309.002281 196.793577 
L 311.497095 191.390107 
L 314.205995 186.090726 
L 317.124647 180.903911 
L 320.248381 175.83796 
L 323.572201 170.900976 
L 327.090789 166.10086 
L 329.609787 162.896662 
L 331.983543 155.845705 
L 334.180302 148.737613 
L 336.19869 141.576829 
L 338.037447 134.367828 
L 339.695423 127.115116 
L 341.171583 119.823226 
L 342.465002 112.496713 
L 343.574874 105.140158 
L 344.223767 100.128 
L 345.208551 107.502342 
L 346.377366 114.849762 
L 347.729482 122.16567 
L 349.264055 129.445491 
L 350.980124 136.684678 
L 352.876618 143.878705 
L 354.952352 151.023077 
L 357.206027 158.113328 
L 359.636236 165.145028 
L 362.24146 172.113782 
L 365.02007 179.015234 
L 367.97033 185.845071 
L 371.090397 192.599026 
L 374.37832 199.272876 
L 377.832045 205.862452 
L 381.449412 212.363634 
L 384.96 218.329416 
L 381.192407 224.744707 
L 377.586356 231.252173 
L 374.144102 237.847748 
L 370.867796 244.527309 
L 368.820915 248.928 
L 365.653975 242.195897 
L 362.31974 235.545063 
L 358.820293 228.979655 
L 355.157821 222.503775 
L 351.334614 216.121471 
L 347.35306 209.836732 
L 343.215648 203.653485 
L 338.924965 197.575595 
L 334.48369 191.60686 
L 329.870543 185.721093 
L 325.433123 181.754875 
L 321.157859 177.61438 
L 317.05159 173.306233 
L 313.120886 168.837324 
L 309.372034 164.214804 
L 305.811033 159.446067 
L 302.443579 154.538742 
L 302.028117 153.903031 
L 296.833639 148.576857 
L 291.507645 143.382197 
L 286.053461 138.322295 
L 280.474498 133.400315 
L 274.774242 128.619333 
L 268.956254 123.982336 
L 263.024172 119.492223 
L 256.981702 115.151799 
L 250.832621 110.963778 
L 244.580772 106.930777 
L 238.230062 103.055315 
L 236.16 101.838587 
L 239.059506 100.128 
L 245.493022 103.864387 
L 252.017927 107.438786 
L 258.630145 110.848962 
L 265.325541 114.092784 
L 272.099933 117.168225 
L 278.949085 120.073363 
L 285.868718 122.806382 
L 292.854508 125.365575 
L 299.902087 127.749341 
L 307.007052 129.956191 
L 314.164963 131.984746 
L 321.371345 133.833737 
L 328.621695 135.502011 
L 335.911483 136.988523 
L 343.236151 138.292344 
L 350.591123 139.412661 
L 357.971801 140.348773 
L 365.373573 141.100094 
L 372.791814 141.666155 
L 380.221886 142.046603 
L 384.96 142.192084 
L 383.472475 142.229623 
L 376.038689 142.528848 
L 368.614705 143.013806 
L 361.205164 143.684191 
L 353.814696 144.539587 
L 346.44792 145.579458 
L 339.10944 146.803154 
L 331.803843 148.20991 
L 324.535694 149.798848 
L 317.309535 151.568975 
L 313.927816 152.463544 
L 307.604397 148.543711 
L 301.184968 144.783173 
L 294.673542 141.184278 
L 288.074187 137.749277 
L 281.391028 134.480316 
L 274.628243 131.379437 
L 267.790056 128.44858 
L 260.880743 125.689576 
L 253.90462 123.104148 
L 246.866049 120.693914 
L 239.769428 118.460378 
L 236.16 117.398607 
L 231.053881 114.340973 
L 225.829573 111.489975 
L 220.495434 108.850174 
L 215.059999 106.425794 
L 209.531962 104.220712 
L 203.920167 102.238456 
L 198.233591 100.482198 
L 196.979044 100.128 
L 191.277301 101.834373 
L 185.648355 103.76739 
L 180.101213 105.923958 
L 174.644747 108.300628 
L 169.287687 110.893597 
L 164.038603 113.698718 
L 158.905893 116.711502 
L 153.897767 119.927129 
L 149.022239 123.340456 
L 144.287107 126.946023 
L 139.699947 130.738059 
L 135.268097 134.7105 
L 130.998647 138.85699 
L 126.898428 143.170896 
L 122.973999 147.645317 
L 119.231638 152.273093 
L 115.677332 157.046822 
L 112.316768 161.958867 
L 109.155321 167.00137 
L 106.198049 172.166264 
L 103.449684 177.445285 
L 100.914621 182.829989 
L 98.596917 188.311761 
L 96.500279 193.881832 
L 94.628062 199.531291 
L 92.98326 205.2511 
L 91.568505 211.032107 
L 90.386061 216.865066 
L 89.437819 222.740644 
L 88.725295 228.649442 
L 88.249631 234.582006 
L 88.011586 240.528847 
L 88.011542 246.48045 
L 88.08063 248.928 
L 88.127417 247.440742 
L 88.165792 241.489262 
L 87.966141 235.541009 
L 87.528782 229.605497 
L 87.36 227.910927 
L 87.865258 221.98081 
L 88.132971 216.035231 
L 88.162709 210.083702 
L 87.954426 204.135744 
L 87.508455 198.200874 
L 87.36 196.721275 
L 87.865258 190.791158 
L 88.132971 184.845579 
L 88.162709 178.89405 
L 87.954426 172.946092 
L 87.508455 167.011221 
L 87.36 165.531623 
L 87.865258 159.601505 
L 88.132971 153.655926 
L 88.162709 147.704397 
L 87.954426 141.75644 
L 87.508455 135.821569 
L 87.36 134.341971 
L 87.865258 128.411853 
L 88.132971 122.466274 
L 88.162709 116.514745 
L 87.954426 110.566788 
L 87.508455 104.631917 
L 87.36 103.152319 
L 87.647532 100.128 
L 88.268817 106.047087 
L 89.126305 111.936594 
L 90.218625 117.7871 
L 91.544029 123.589244 
L 93.100396 129.333746 
L 94.885238 135.011415 
L 96.895698 140.613167 
L 99.12856 146.130042 
L 101.580252 151.553213 
L 104.246853 156.874005 
L 107.124095 162.083905 
L 110.207376 167.174579 
L 113.491763 172.137882 
L 116.972003 176.965875 
L 120.642527 181.650833 
L 124.497463 186.185262 
L 127.870839 189.869603 
L 128.536263 195.78389 
L 129.437664 201.666837 
L 130.573598 207.509031 
L 131.942249 213.301127 
L 133.541428 219.033858 
L 135.368575 224.698054 
L 137.420769 230.284652 
L 139.694725 235.784716 
L 142.186806 241.189447 
L 144.893025 246.490198 
L 146.229179 248.928 
L 149.033953 243.678731 
L 151.626569 238.3215 
L 154.002879 232.864878 
L 156.159082 227.317592 
L 158.091727 221.68852 
L 159.797724 215.986664 
L 160.914447 211.718389 
L 161.633915 207.313428 
L 162.616228 202.959535 
L 163.85785 198.672381 
L 165.354313 194.467394 
L 167.100231 190.359707 
L 169.08932 186.364104 
L 171.314423 182.494965 
L 173.767531 178.766215 
L 176.439815 175.191272 
L 179.321658 171.783003 
L 182.402689 168.553674 
L 185.67182 165.514907 
L 189.117284 162.677638 
L 192.726683 160.052079 
L 195.276043 158.387527 
L 191.024959 159.747527 
L 186.699973 160.850168 
L 182.316651 161.691482 
L 177.890768 162.26844 
L 173.438253 162.578966 
L 168.97513 162.621943 
L 164.51746 162.397215 
L 160.081288 161.905592 
L 155.682578 161.148843 
L 151.337161 160.129692 
L 147.060676 158.851806 
L 142.868513 157.319784 
L 138.77576 155.539141 
L 134.797146 153.516283 
L 132.156192 152.001248 
L 135.298838 155.170647 
L 138.24578 158.522789 
L 140.98641 162.04561 
L 143.510867 165.72643 
L 145.810064 169.552003 
L 147.875727 173.508562 
L 149.700422 177.581866 
L 151.277581 181.757256 
L 152.60153 186.019706 
L 153.667502 190.353875 
L 154.471663 194.744165 
L 155.011117 199.174776 
L 155.283923 203.629761 
L 155.289099 208.093088 
L 155.139048 211.134051 
L 156.535035 206.894648 
L 158.182721 202.746583 
L 160.076178 198.704783 
L 162.208589 194.783796 
L 164.572281 190.997732 
L 167.158748 187.360218 
L 169.95868 183.884344 
L 172.962001 180.58262 
L 176.157902 177.466929 
L 179.534882 174.548483 
L 183.080787 171.837786 
L 186.782855 169.344594 
L 190.627763 167.077878 
L 194.601674 165.045798 
L 197.37895 163.798115 
L 192.968048 164.480218 
L 188.524182 164.896598 
L 184.063344 165.045757 
L 179.60159 164.927158 
L 175.154976 164.541227 
L 170.739505 163.889354 
L 166.371069 162.973885 
L 162.065389 161.798114 
L 157.837961 160.366274 
L 153.703998 158.683516 
L 149.67838 156.755897 
L 145.775593 154.590355 
L 142.009683 152.194683 
L 138.394205 149.577502 
L 136.021098 147.670061 
L 138.63242 151.289773 
L 141.021991 155.059556 
L 143.18121 158.965845 
L 145.102307 162.99458 
L 146.778369 167.131262 
L 148.203362 171.361003 
L 149.372159 175.668581 
L 150.280553 180.038494 
L 150.925275 184.455015 
L 151.304004 188.902248 
L 151.415378 193.364189 
L 151.258996 197.824779 
L 150.835421 202.267965 
L 150.146176 206.677756 
L 149.524871 209.658352 
L 151.563384 205.687737 
L 153.836322 201.846504 
L 156.335506 198.148478 
L 159.051942 194.606967 
L 161.975852 191.234718 
L 165.096715 188.043866 
L 168.403298 185.045895 
L 171.883701 182.251596 
L 175.525399 179.671023 
L 179.315285 177.313465 
L 183.23972 175.187405 
L 187.28458 173.300497 
L 191.435309 171.65953 
L 195.676967 170.27041 
L 198.61453 169.469977 
L 194.151217 169.457573 
L 189.696679 169.177553 
L 185.266948 168.630926 
L 180.877966 167.819657 
L 176.545529 166.746667 
L 172.285229 165.415818 
L 168.112398 163.831899 
L 164.042054 162.000611 
L 160.088846 159.928543 
L 156.267 157.623154 
L 152.590273 155.092741 
L 149.071895 152.346409 
L 145.72453 149.394044 
L 142.560223 146.246269 
L 140.512749 143.992867 
L 142.529161 147.974752 
L 144.303175 152.070383 
L 145.828406 156.265021 
L 147.099365 160.54357 
L 148.111479 164.890631 
L 148.861103 169.290561 
L 149.345542 173.727524 
L 149.563051 178.185551 
L 149.512847 182.648599 
L 149.195111 187.100606 
L 148.610987 191.525548 
L 147.762577 195.907502 
L 146.652933 200.230696 
L 145.286051 204.479573 
L 144.20862 207.327224 
L 146.840021 203.722082 
L 149.682865 200.281216 
L 152.726922 197.017011 
L 155.961236 193.941213 
L 159.374167 191.064893 
L 162.953432 188.398401 
L 166.686151 185.951334 
L 170.558888 183.7325 
L 174.557706 181.749884 
L 178.668215 180.01062 
L 182.87562 178.520968 
L 187.164779 177.28629 
L 191.520257 176.311029 
L 195.926377 175.598695 
L 198.952699 175.265003 
L 194.545656 174.558394 
L 190.188915 173.588793 
L 185.898155 172.359689 
L 181.688818 170.875506 
L 177.576053 169.141584 
L 173.574662 167.164165 
L 169.699045 164.950365 
L 165.96315 162.508151 
L 162.380423 159.846312 
L 158.963758 156.974428 
L 155.72545 153.902836 
L 152.677154 150.642588 
L 149.829841 147.20542 
L 147.193759 143.6037 
L 145.521773 141.059209 
L 146.894175 145.306305 
L 148.009435 149.628055 
L 148.863538 154.008902 
L 149.453411 158.433082 
L 149.776932 162.884672 
L 149.832935 167.347651 
L 149.621219 171.805957 
L 149.142546 176.243546 
L 148.398638 180.644446 
L 147.392174 184.992819 
L 146.126776 189.273016 
L 144.606996 193.469632 
L 142.838305 197.567565 
L 140.827069 201.552065 
L 138.707291 205.553536 
L 136.393969 211.037159 
L 134.301783 216.608904 
L 132.434082 222.259857 
L 130.793853 227.980978 
L 129.383719 233.763115 
L 128.205937 239.597016 
L 127.262391 245.47335 
L 126.819505 248.928 
L 126.013754 243.031192 
L 124.972838 237.171322 
L 123.698422 231.357765 
L 122.192545 225.599821 
L 120.457617 219.906702 
L 118.496412 214.287516 
L 116.312069 208.751251 
L 113.908081 203.306766 
L 111.288295 197.962769 
L 108.456902 192.72781 
L 105.41843 187.610265 
L 102.177742 182.618319 
L 98.740022 177.759959 
L 95.110769 173.042958 
L 91.295789 168.474861 
L 87.36 164.125415 
L 91.352059 159.711229 
L 95.164405 155.140933 
L 98.790939 150.421841 
L 102.225858 145.5615 
L 105.463668 140.567687 
L 108.499188 135.448391 
L 111.327563 130.211801 
L 113.944269 124.866295 
L 116.345117 119.420424 
L 118.526269 113.882901 
L 120.484234 108.262585 
L 122.21588 102.568467 
L 122.882698 100.128 
L 124.517285 105.850736 
L 126.379413 111.503528 
L 128.466102 117.077334 
L 130.774016 122.563235 
L 133.299461 127.952457 
L 136.038397 133.236377 
L 138.986443 138.406542 
L 145.583982 149.533673 
L 147.482223 153.573228 
L 149.13482 157.719339 
L 150.535826 161.957087 
L 151.680198 166.271218 
L 152.563819 170.646208 
L 153.183507 175.06631 
L 153.537034 179.515617 
L 153.623126 183.978118 
L 153.441474 188.43775 
L 152.992731 192.878465 
L 152.278512 197.28428 
L 151.301389 201.63934 
L 150.064877 205.927971 
L 148.8487 209.41551 
L 149.920766 206.639529 
L 151.734817 202.561473 
L 153.790139 198.599533 
L 156.079337 194.767968 
L 158.594172 191.080567 
L 161.325592 187.550601 
L 164.263769 184.190774 
L 167.398127 181.013178 
L 170.717386 178.029248 
L 174.209601 175.249724 
L 177.862203 172.684608 
L 181.662047 170.343133 
L 185.595457 168.233726 
L 189.648278 166.363977 
L 193.805924 164.740616 
L 197.314915 163.587798 
L 202.988798 161.790959 
L 208.586289 159.768664 
L 214.098432 157.524145 
L 219.516409 155.060996 
L 224.831552 152.383155 
L 230.035359 149.494907 
L 235.119504 146.400873 
L 236.16 145.732701 
L 231.101742 142.596523 
L 225.922117 139.665131 
L 220.62941 136.943213 
L 215.23209 134.435124 
L 209.738789 132.144876 
L 204.158298 130.076134 
L 198.499542 128.232207 
L 192.771576 126.616044 
L 186.983562 125.230232 
L 181.14476 124.076988 
L 175.264511 123.158155 
L 169.352222 122.475205 
L 163.417352 122.02923 
L 157.469394 121.820942 
L 151.517866 121.850677 
L 145.572286 122.118385 
L 139.642168 122.623638 
L 133.736998 123.36563 
L 127.866224 124.343171 
L 122.039237 125.554699 
L 116.265358 126.998275 
L 110.553826 128.67159 
L 104.913778 130.571966 
L 99.354235 132.696365 
L 93.884093 135.041387 
L 88.512103 137.60328 
L 87.36 138.187548 
L 92.709548 140.79598 
L 98.159126 143.188401 
L 103.700016 145.360983 
L 109.323355 147.310251 
L 115.020145 149.033086 
L 120.781274 150.526733 
L 126.597524 151.7888 
L 131.645369 152.688838 
L 128.81747 147.451991 
L 125.782415 142.332418 
L 122.54506 137.338311 
L 119.110583 132.477658 
L 115.484479 127.758235 
L 111.67255 123.187592 
L 107.680892 118.773043 
L 103.515892 114.521648 
L 99.184213 110.440209 
L 94.692786 106.535256 
L 90.048794 102.813036 
L 87.36 100.792823 
L 88.258884 100.128 
L 93.10078 103.588871 
L 98.0772 106.85335 
L 103.180184 109.916214 
L 108.401568 112.772563 
L 113.732999 115.417827 
L 119.165948 117.847775 
L 124.691723 120.058519 
L 130.301484 122.046523 
L 135.986257 123.808607 
L 141.736948 125.34195 
L 147.544355 126.6441 
L 153.39919 127.712975 
L 159.292085 128.546864 
L 165.213613 129.144433 
L 171.1543 129.504725 
L 177.104644 129.627166 
L 183.055124 129.511558 
L 188.996222 129.158087 
L 194.918432 128.567318 
L 200.81228 127.740197 
L 206.668339 126.678046 
L 212.477238 125.382565 
L 218.229685 123.855826 
L 223.916477 122.100271 
L 229.528518 120.11871 
L 235.056828 117.914313 
L 236.16 117.443398 
L 243.426536 115.847097 
L 250.650898 114.069651 
L 257.82857 112.112171 
L 264.955068 109.975878 
L 272.025937 107.66211 
L 279.036759 105.172311 
L 285.983151 102.508038 
L 291.785103 100.128 
L 298.673813 102.938051 
L 305.630615 105.575023 
L 312.651161 108.03727 
L 319.731062 110.323252 
L 326.865895 112.43154 
L 334.051199 114.360818 
L 341.282486 116.109878 
L 348.555235 117.677629 
L 355.8649 119.06309 
L 363.206915 120.265396 
L 370.57669 121.283794 
L 377.969619 122.117649 
L 384.96 122.734577 
L 377.549465 123.393884 
L 370.157726 124.238228 
L 362.789404 125.267083 
L 355.449103 126.479806 
L 348.14141 127.875638 
L 340.870893 129.453707 
L 333.642096 131.213027 
L 326.459536 133.152498 
L 319.327702 135.270908 
L 312.251052 137.566934 
L 305.234007 140.03914 
L 298.280954 142.685982 
L 291.396238 145.505804 
L 284.584161 148.496846 
L 277.848981 151.657237 
L 271.194908 154.985002 
L 264.626099 158.478062 
L 258.14666 162.134234 
L 251.760641 165.951232 
L 245.472032 169.926671 
L 239.284764 174.058067 
L 236.16 176.231017 
L 234.272309 181.875325 
L 232.611841 187.590605 
L 231.18125 193.367714 
L 229.982827 199.197411 
L 229.018488 205.070368 
L 228.289776 210.977191 
L 227.797857 216.90843 
L 227.543518 222.854596 
L 227.527165 228.806177 
L 227.748826 234.753651 
L 228.208144 240.687504 
L 228.904386 246.598242 
L 229.244979 248.928 
L 230.034659 243.029018 
L 230.587811 237.103176 
L 230.903549 231.159954 
L 230.98137 225.20886 
L 230.821148 219.259413 
L 230.42314 213.321133 
L 229.787983 207.403519 
L 228.916692 201.516038 
L 227.810661 195.668109 
L 226.471661 189.869087 
L 224.901832 184.128249 
L 223.103687 178.454779 
L 221.080102 172.857755 
L 218.834315 167.346129 
L 216.369917 161.92872 
L 213.690852 156.614193 
L 210.801406 151.411052 
L 207.706201 146.327619 
L 204.410188 141.372028 
L 200.918641 136.552206 
L 197.237146 131.875865 
L 193.371592 127.350484 
L 189.328162 122.983304 
L 185.113327 118.781311 
L 180.733828 114.751228 
L 176.196672 110.899502 
L 171.509117 107.232295 
L 166.678662 103.755473 
L 161.713035 100.474599 
L 161.162266 100.128 
L 156.182338 103.387126 
L 151.336725 106.84279 
L 146.633177 110.489462 
L 142.079219 114.321308 
L 137.682137 118.3322 
L 133.448965 122.515719 
L 129.386475 126.865174 
L 125.501167 131.373606 
L 121.799256 136.033803 
L 118.286664 140.838309 
L 114.96901 145.779438 
L 111.851603 150.849286 
L 108.93943 156.039741 
L 106.237148 161.3425 
L 103.749082 166.74908 
L 101.479212 172.250832 
L 99.431169 177.838953 
L 97.608229 183.504504 
L 96.013309 189.238422 
L 94.64896 195.031533 
L 93.517365 200.874569 
L 92.620335 206.758184 
L 91.959304 212.672963 
L 91.53533 218.609446 
L 91.34909 224.558134 
L 91.400884 230.509512 
L 91.690629 236.454058 
L 92.217859 242.382263 
L 92.981733 248.284642 
L 93.079553 248.928 
L 93.869232 243.029018 
L 94.422384 237.103176 
L 94.738123 231.159954 
L 94.815944 225.20886 
L 94.655722 219.259413 
L 94.257714 213.321133 
L 93.622556 207.403519 
L 92.751265 201.516038 
L 91.645235 195.668109 
L 90.306235 189.869087 
L 88.736406 184.128249 
L 87.36 179.717044 
L 89.107331 174.02772 
L 90.625751 168.273071 
L 91.912833 162.462305 
L 92.966516 156.604717 
L 93.785115 150.709679 
L 94.367321 144.786621 
L 94.712203 138.845019 
L 94.819207 132.894378 
L 94.688164 126.944217 
L 94.319283 121.004057 
L 93.713153 115.083399 
L 92.870746 109.191716 
L 91.793407 103.338433 
L 91.098859 100.128 
L 89.892582 105.956077 
L 88.920331 111.82773 
L 88.183661 117.733565 
L 87.683751 123.664136 
L 87.4214 129.609954 
L 87.397028 135.561508 
L 87.610675 141.509275 
L 88.061998 147.443741 
L 88.750275 153.355412 
L 89.674405 159.234831 
L 90.832911 165.072591 
L 92.223937 170.859354 
L 93.84526 176.585862 
L 95.694285 182.242954 
L 97.768055 187.821579 
L 100.063251 193.312814 
L 102.576202 198.707872 
L 105.302888 203.998124 
L 108.238947 209.175106 
L 111.379681 214.230536 
L 114.720066 219.156326 
L 118.254758 223.944596 
L 121.978102 228.587687 
L 125.884142 233.078169 
L 129.96663 237.408859 
L 134.219033 241.572829 
L 138.634549 245.563418 
L 142.651211 248.928 
L 147.204488 245.095344 
L 151.600856 241.08367 
L 155.833284 236.899398 
L 159.895001 232.549221 
L 163.779507 228.040098 
L 167.48059 223.379243 
L 170.992328 218.574113 
L 174.309103 213.632394 
L 177.66222 208.15774 
L 183.556073 208.984827 
L 189.478287 209.575561 
L 195.419386 209.928997 
L 201.369867 210.04457 
L 207.32021 209.922095 
L 213.260896 209.561767 
L 219.18242 208.964164 
L 225.07531 208.13024 
L 230.930138 207.061332 
L 236.16 205.899613 
L 230.347445 204.620636 
L 224.488393 203.575123 
L 218.592219 202.764745 
L 212.668355 202.190799 
L 206.726278 201.854204 
L 200.775493 201.755498 
L 194.825521 201.894839 
L 188.885881 202.272004 
L 186.267336 202.514255 
L 185.006647 208.330804 
L 183.979565 214.193115 
L 183.187735 220.091808 
L 182.632424 226.017448 
L 182.314519 231.960555 
L 182.234529 237.911621 
L 182.392582 243.861125 
L 182.715376 248.928 
L 183.076308 242.987351 
L 183.199389 237.037021 
L 183.084422 231.086528 
L 182.731591 225.145393 
L 182.14146 219.223119 
L 181.314973 213.329181 
L 180.253453 207.473009 
L 180.131389 206.875056 
L 178.685212 202.652511 
L 177.494838 198.350845 
L 176.564551 193.985541 
L 175.897699 189.572307 
L 175.496682 185.127029 
L 175.362944 180.665702 
L 175.496965 176.204384 
L 175.898263 171.759131 
L 176.565395 167.34594 
L 177.495959 162.980695 
L 178.686606 158.679104 
L 180.133051 154.456651 
L 181.830088 150.32853 
L 183.77161 146.309598 
L 184.445303 145.045513 
L 181.114628 148.016695 
L 177.611782 150.782809 
L 173.949371 153.333901 
L 170.140578 155.66079 
L 166.199109 157.755101 
L 162.139149 159.609297 
L 157.975309 161.216705 
L 153.722576 162.57154 
L 149.396254 163.668926 
L 145.011913 164.504914 
L 140.585333 165.076495 
L 136.132444 165.381611 
L 131.669271 165.419166 
L 127.211878 165.189024 
L 125.785432 165.058552 
L 119.850878 165.508717 
L 113.939072 166.195841 
L 108.059474 167.118824 
L 102.221487 168.27619 
L 96.434453 169.666088 
L 90.707629 171.286293 
L 87.36 172.349457 
L 93.046987 174.104382 
L 98.799603 175.630485 
L 104.608645 176.925324 
L 110.464821 177.986827 
L 116.358761 178.813297 
L 122.281036 179.403411 
L 124.905837 179.588696 
L 129.369044 179.555596 
L 133.826205 179.790188 
L 138.261279 180.291626 
L 142.658304 181.058108 
L 147.001455 182.086873 
L 151.275101 183.374219 
L 155.463864 184.915514 
L 159.552666 186.705211 
L 163.526793 188.736868 
L 167.371943 191.003174 
L 171.074277 193.495972 
L 174.62047 196.206291 
L 177.997761 199.124377 
L 181.193994 202.239728 
L 183.487109 204.723575 
L 181.368155 200.795299 
L 179.48857 196.74703 
L 177.855117 192.593339 
L 176.473676 188.349174 
L 175.349218 184.029809 
L 174.48579 179.65079 
L 173.886498 175.227876 
L 173.553501 170.776984 
L 173.487997 166.314135 
L 173.69022 161.855388 
L 174.159444 157.41679 
L 174.89398 153.014317 
L 175.891184 148.66381 
L 177.147467 144.380929 
L 178.268588 141.191736 
L 175.789599 144.90333 
L 173.092508 148.459595 
L 170.187023 151.847732 
L 167.083599 155.055548 
L 163.793407 158.071498 
L 160.328287 160.884727 
L 156.70071 163.485112 
L 152.923731 165.863294 
L 149.010943 168.010713 
L 144.976428 169.919642 
L 140.834706 171.58321 
L 136.600683 172.99543 
L 132.289596 174.15122 
L 127.916961 175.04642 
L 124.574013 175.54898 
L 129.014328 176.001667 
L 133.419507 176.719798 
L 137.773698 177.700789 
L 142.061229 178.941109 
L 146.26667 180.436295 
L 150.374887 182.180966 
L 154.371093 184.168843 
L 158.240908 186.392771 
L 161.970403 188.844746 
L 165.546157 191.515945 
L 168.9553 194.396754 
L 172.185564 197.476804 
L 175.225324 200.745012 
L 178.063638 204.189615 
L 180.072902 206.908204 
L 178.393917 202.772708 
L 176.965935 198.543975 
L 175.794094 194.237223 
L 174.882612 189.867954 
L 174.234768 185.45189 
L 173.852896 181.004926 
L 173.738368 176.543065 
L 173.891598 172.082365 
L 174.312033 167.638881 
L 174.998161 163.228604 
L 175.947512 158.867405 
L 177.156669 154.570982 
L 178.621282 150.354795 
L 180.336078 146.23402 
L 182.329678 141.796152 
L 184.318562 136.186703 
L 186.081537 130.502206 
L 187.615783 124.751757 
L 188.918845 118.944553 
L 189.988638 113.089887 
L 190.823452 107.197123 
L 191.42195 101.275689 
L 191.510339 100.128 
L 192.063012 106.053887 
L 192.852216 111.952932 
L 193.876687 117.815699 
L 195.134787 123.632809 
L 196.624503 129.394955 
L 198.343451 135.092919 
L 200.288883 140.717586 
L 202.457685 146.259957 
L 204.846388 151.711166 
L 207.45117 157.062492 
L 210.267865 162.305374 
L 213.291966 167.431425 
L 216.518636 172.432443 
L 219.942712 177.300429 
L 223.558717 182.027594 
L 227.360865 186.606376 
L 231.343074 191.029451 
L 235.498974 195.289742 
L 236.16 195.936764 
L 231.977697 200.171138 
L 227.96807 204.569373 
L 224.137532 209.124431 
L 220.492212 213.829027 
L 217.037942 218.675634 
L 213.780247 223.656498 
L 210.724339 228.763651 
L 207.875108 233.988922 
L 205.237111 239.323953 
L 202.814568 244.760208 
L 201.130024 248.928 
L 198.872801 243.421048 
L 196.397164 238.008765 
L 193.707074 232.699811 
L 190.806834 227.502678 
L 187.701084 222.425681 
L 184.394793 217.476942 
L 180.893249 212.664378 
L 176.64753 207.000353 
L 174.466061 203.106446 
L 172.522012 199.088736 
L 170.82238 194.961683 
L 169.37328 190.74014 
L 168.179929 186.439299 
L 167.24662 182.07464 
L 166.576714 177.661869 
L 166.17262 173.216869 
L 166.035794 168.755636 
L 166.166727 164.294227 
L 166.564948 159.848697 
L 167.229025 155.435045 
L 168.156567 151.069156 
L 169.344236 146.766743 
L 170.787758 142.543289 
L 172.289547 138.849314 
L 171.442191 143.231472 
L 170.333588 147.554933 
L 168.967728 151.804138 
L 167.349526 155.963794 
L 165.484806 160.018932 
L 163.38028 163.954956 
L 161.04352 167.757702 
L 158.482938 171.413483 
L 155.707748 174.909143 
L 152.727939 178.232102 
L 149.554233 181.370399 
L 146.198053 184.312741 
L 142.671479 187.048539 
L 138.9872 189.567946 
L 135.158478 191.861895 
L 131.199091 193.922131 
L 130.284726 194.355938 
L 133.81586 191.626027 
L 137.504336 189.11277 
L 141.33688 186.825211 
L 145.299698 184.771583 
L 149.37853 182.959277 
L 153.558695 181.394815 
L 157.825149 180.083828 
L 162.162538 179.031034 
L 166.555251 178.240221 
L 170.987481 177.714236 
L 175.443275 177.454972 
L 179.906597 177.463361 
L 184.361385 177.739375 
L 188.791606 178.282018 
L 193.181316 179.089339 
L 197.514716 180.158431 
L 198.487723 180.436835 
L 194.033402 180.15339 
L 189.604093 179.603357 
L 185.215736 178.788714 
L 180.884125 177.712394 
L 176.624849 176.37827 
L 172.453237 174.791143 
L 168.384302 172.956726 
L 164.432688 170.88162 
L 160.612616 168.573293 
L 156.937835 166.040054 
L 153.42157 163.291018 
L 150.076476 160.33608 
L 146.91459 157.185873 
L 143.947294 153.851736 
L 141.185265 150.345668 
L 138.638444 146.680287 
L 138.091927 145.828482 
L 135.462114 140.489413 
L 132.620898 135.259778 
L 129.572826 130.147946 
L 126.322773 125.162092 
L 122.875938 120.310194 
L 119.237837 115.600014 
L 115.414289 111.039086 
L 111.41141 106.634708 
L 107.235606 102.393926 
L 104.861511 100.128 
L 100.593194 104.275657 
L 96.494154 108.590683 
L 92.570948 113.066175 
L 88.829851 117.694974 
L 87.36 119.622101 
L 91.025208 124.31122 
L 94.874998 128.850018 
L 98.903213 133.231236 
L 103.103407 137.447864 
L 107.468862 141.493155 
L 111.992593 145.360639 
L 116.667365 149.044129 
L 121.485697 152.537731 
L 126.439881 155.835857 
L 128.788694 157.30206 
L 128.788694 157.30206 
" style="fill:none;stroke:#1f77b4;stroke-linecap:square;stroke-width:1.5;"/>
   </g>
   <g id="patch_5">
    <path d="M 57.6 263.808 
L 57.6 85.248 
" style="fill:none;stroke:#000000;stroke-linecap:square;stroke-linejoin:miter;stroke-width:0.8;"/>
   </g>
   <g id="patch_6">
    <path d="M 414.72 263.808 
L 414.72 85.248 
" style="fill:none;stroke:#000000;stroke-linecap:square;stroke-linejoin:miter;stroke-width:0.8;"/>
   </g>
   <g id="patch_7">
    <path d="M 57.6 263.808 
L 414.72 263.808 
" style="fill:none;stroke:#000000;stroke-linecap:square;stroke-linejoin:miter;stroke-width:0.8;"/>
   </g>
   <g id="patch_8">
    <path d="M 57.6 85.248 
L 414.72 85.248 
" style="fill:none;stroke:#000000;stroke-linecap:square;stroke-linejoin:miter;stroke-width:0.8;"/>
   </g>
  </g>
 </g>
 <defs>
  <clipPath id="p05c5a08254">
   <rect height="178.56" width="357.12" x="57.6" y="85.248"/>
  </clipPath>
 </defs>
</svg>
