<?xml version="1.0" encoding="utf-8" standalone="no"?>
<!DOCTYPE svg PUBLIC "-//W3C//DTD SVG 1.1//EN"
  "http://www.w3.org/Graphics/SVG/1.1/DTD/svg11.dtd">
<!-- Created with matplotlib (https://matplotlib.org/) -->
<svg height="345.6pt" version="1.1" viewBox="0 0 460.8 345.6" width="460.8pt" xmlns="http://www.w3.org/2000/svg" xmlns:xlink="http://www.w3.org/1999/xlink">
 <defs>
  <style type="text/css">
*{stroke-linecap:butt;stroke-linejoin:round;}
  </style>
 </defs>
 <g id="figure_1">
  <g id="patch_1">
   <path d="M 0 345.6 
L 460.8 345.6 
L 460.8 0 
L 0 0 
z
" style="fill:#ffffff;"/>
  </g>
  <g id="axes_1">
   <g id="patch_2">
    <path d="M 82.520165 307.584 
L 389.799835 307.584 
L 389.799835 41.472 
L 82.520165 41.472 
z
" style="fill:#ffffff;"/>
   </g>
   <g id="PathCollection_1">
    <defs>
     <path d="M 0 2.236068 
C 0.593012 2.236068 1.161816 2.000462 1.581139 1.581139 
C 2.000462 1.161816 2.236068 0.593012 2.236068 0 
C 2.236068 -0.593012 2.000462 -1.161816 1.581139 -1.581139 
C 1.161816 -2.000462 0.593012 -2.236068 0 -2.236068 
C -0.593012 -2.236068 -1.161816 -2.000462 -1.581139 -1.581139 
C -2.000462 -1.161816 -2.236068 -0.593012 -2.236068 0 
C -2.236068 0.593012 -2.000462 1.161816 -1.581139 1.581139 
C -1.161816 2.000462 -0.593012 2.236068 0 2.236068 
z
" id="mc5f122d3a9" style="stroke:#000000;"/>
    </defs>
    <g clip-path="url(#p76e3e10952)">
     <use style="stroke:#000000;" x="120.836073" xlink:href="#mc5f122d3a9" y="196.5411"/>
    </g>
   </g>
   <g id="Quiver_1">
    <path clip-path="url(#p76e3e10952)" d="M 120.316083 196.213544 
L 123.919194 190.493645 
L 122.551657 190.358524 
L 127.387185 186.141282 
L 125.671602 192.323858 
L 124.959176 191.148756 
L 121.356064 196.868656 
L 120.316083 196.213544 
"/>
   </g>
   <g id="patch_3">
    <path clip-path="url(#p76e3e10952)" d="M 236.16 225.741278 
C 249.74192 225.741278 262.769389 220.345124 272.373256 210.741256 
C 281.977124 201.137389 287.373278 188.10992 287.373278 174.528 
C 287.373278 160.94608 281.977124 147.918611 272.373256 138.314744 
C 262.769389 128.710876 249.74192 123.314722 236.16 123.314722 
C 222.57808 123.314722 209.550611 128.710876 199.946744 138.314744 
C 190.342876 147.918611 184.946722 160.94608 184.946722 174.528 
C 184.946722 188.10992 190.342876 201.137389 199.946744 210.741256 
C 209.550611 220.345124 222.57808 225.741278 236.16 225.741278 
z
" style="fill:#009900;fill-opacity:0.5;stroke:#009900;stroke-linejoin:miter;stroke-width:2;"/>
   </g>
   <g id="matplotlib.axis_1">
    <g id="xtick_1">
     <g id="line2d_1">
      <defs>
       <path d="M 0 0 
L 0 3.5 
" id="m03bf5c85a2" style="stroke:#000000;stroke-width:0.8;"/>
      </defs>
      <g>
       <use style="stroke:#000000;stroke-width:0.8;" x="108.126804" xlink:href="#m03bf5c85a2" y="307.584"/>
      </g>
     </g>
     <g id="text_1">
      <!-- −2 -->
      <defs>
       <path d="M 10.59375 35.5 
L 73.1875 35.5 
L 73.1875 27.203125 
L 10.59375 27.203125 
z
" id="DejaVuSans-8722"/>
       <path d="M 19.1875 8.296875 
L 53.609375 8.296875 
L 53.609375 0 
L 7.328125 0 
L 7.328125 8.296875 
Q 12.9375 14.109375 22.625 23.890625 
Q 32.328125 33.6875 34.8125 36.53125 
Q 39.546875 41.84375 41.421875 45.53125 
Q 43.3125 49.21875 43.3125 52.78125 
Q 43.3125 58.59375 39.234375 62.25 
Q 35.15625 65.921875 28.609375 65.921875 
Q 23.96875 65.921875 18.8125 64.3125 
Q 13.671875 62.703125 7.8125 59.421875 
L 7.8125 69.390625 
Q 13.765625 71.78125 18.9375 73 
Q 24.125 74.21875 28.421875 74.21875 
Q 39.75 74.21875 46.484375 68.546875 
Q 53.21875 62.890625 53.21875 53.421875 
Q 53.21875 48.921875 51.53125 44.890625 
Q 49.859375 40.875 45.40625 35.40625 
Q 44.1875 33.984375 37.640625 27.21875 
Q 31.109375 20.453125 19.1875 8.296875 
z
" id="DejaVuSans-50"/>
      </defs>
      <g transform="translate(100.755711 322.182437)scale(0.1 -0.1)">
       <use xlink:href="#DejaVuSans-8722"/>
       <use x="83.789062" xlink:href="#DejaVuSans-50"/>
      </g>
     </g>
    </g>
    <g id="xtick_2">
     <g id="line2d_2">
      <g>
       <use style="stroke:#000000;stroke-width:0.8;" x="172.143402" xlink:href="#m03bf5c85a2" y="307.584"/>
      </g>
     </g>
     <g id="text_2">
      <!-- −1 -->
      <defs>
       <path d="M 12.40625 8.296875 
L 28.515625 8.296875 
L 28.515625 63.921875 
L 10.984375 60.40625 
L 10.984375 69.390625 
L 28.421875 72.90625 
L 38.28125 72.90625 
L 38.28125 8.296875 
L 54.390625 8.296875 
L 54.390625 0 
L 12.40625 0 
z
" id="DejaVuSans-49"/>
      </defs>
      <g transform="translate(164.772308 322.182437)scale(0.1 -0.1)">
       <use xlink:href="#DejaVuSans-8722"/>
       <use x="83.789062" xlink:href="#DejaVuSans-49"/>
      </g>
     </g>
    </g>
    <g id="xtick_3">
     <g id="line2d_3">
      <g>
       <use style="stroke:#000000;stroke-width:0.8;" x="236.16" xlink:href="#m03bf5c85a2" y="307.584"/>
      </g>
     </g>
     <g id="text_3">
      <!-- 0 -->
      <defs>
       <path d="M 31.78125 66.40625 
Q 24.171875 66.40625 20.328125 58.90625 
Q 16.5 51.421875 16.5 36.375 
Q 16.5 21.390625 20.328125 13.890625 
Q 24.171875 6.390625 31.78125 6.390625 
Q 39.453125 6.390625 43.28125 13.890625 
Q 47.125 21.390625 47.125 36.375 
Q 47.125 51.421875 43.28125 58.90625 
Q 39.453125 66.40625 31.78125 66.40625 
z
M 31.78125 74.21875 
Q 44.046875 74.21875 50.515625 64.515625 
Q 56.984375 54.828125 56.984375 36.375 
Q 56.984375 17.96875 50.515625 8.265625 
Q 44.046875 -1.421875 31.78125 -1.421875 
Q 19.53125 -1.421875 13.0625 8.265625 
Q 6.59375 17.96875 6.59375 36.375 
Q 6.59375 54.828125 13.0625 64.515625 
Q 19.53125 74.21875 31.78125 74.21875 
z
" id="DejaVuSans-48"/>
      </defs>
      <g transform="translate(232.97875 322.182437)scale(0.1 -0.1)">
       <use xlink:href="#DejaVuSans-48"/>
      </g>
     </g>
    </g>
    <g id="xtick_4">
     <g id="line2d_4">
      <g>
       <use style="stroke:#000000;stroke-width:0.8;" x="300.176598" xlink:href="#m03bf5c85a2" y="307.584"/>
      </g>
     </g>
     <g id="text_4">
      <!-- 1 -->
      <g transform="translate(296.995348 322.182437)scale(0.1 -0.1)">
       <use xlink:href="#DejaVuSans-49"/>
      </g>
     </g>
    </g>
    <g id="xtick_5">
     <g id="line2d_5">
      <g>
       <use style="stroke:#000000;stroke-width:0.8;" x="364.193196" xlink:href="#m03bf5c85a2" y="307.584"/>
      </g>
     </g>
     <g id="text_5">
      <!-- 2 -->
      <g transform="translate(361.011946 322.182437)scale(0.1 -0.1)">
       <use xlink:href="#DejaVuSans-50"/>
      </g>
     </g>
    </g>
   </g>
   <g id="matplotlib.axis_2">
    <g id="ytick_1">
     <g id="line2d_6">
      <defs>
       <path d="M 0 0 
L -3.5 0 
" id="m3406684a93" style="stroke:#000000;stroke-width:0.8;"/>
      </defs>
      <g>
       <use style="stroke:#000000;stroke-width:0.8;" x="82.520165" xlink:href="#m3406684a93" y="302.561196"/>
      </g>
     </g>
     <g id="text_6">
      <!-- −2.0 -->
      <defs>
       <path d="M 10.6875 12.40625 
L 21 12.40625 
L 21 0 
L 10.6875 0 
z
" id="DejaVuSans-46"/>
      </defs>
      <g transform="translate(51.237353 306.360414)scale(0.1 -0.1)">
       <use xlink:href="#DejaVuSans-8722"/>
       <use x="83.789062" xlink:href="#DejaVuSans-50"/>
       <use x="147.412109" xlink:href="#DejaVuSans-46"/>
       <use x="179.199219" xlink:href="#DejaVuSans-48"/>
      </g>
     </g>
    </g>
    <g id="ytick_2">
     <g id="line2d_7">
      <g>
       <use style="stroke:#000000;stroke-width:0.8;" x="82.520165" xlink:href="#m3406684a93" y="270.552897"/>
      </g>
     </g>
     <g id="text_7">
      <!-- −1.5 -->
      <defs>
       <path d="M 10.796875 72.90625 
L 49.515625 72.90625 
L 49.515625 64.59375 
L 19.828125 64.59375 
L 19.828125 46.734375 
Q 21.96875 47.46875 24.109375 47.828125 
Q 26.265625 48.1875 28.421875 48.1875 
Q 40.625 48.1875 47.75 41.5 
Q 54.890625 34.8125 54.890625 23.390625 
Q 54.890625 11.625 47.5625 5.09375 
Q 40.234375 -1.421875 26.90625 -1.421875 
Q 22.3125 -1.421875 17.546875 -0.640625 
Q 12.796875 0.140625 7.71875 1.703125 
L 7.71875 11.625 
Q 12.109375 9.234375 16.796875 8.0625 
Q 21.484375 6.890625 26.703125 6.890625 
Q 35.15625 6.890625 40.078125 11.328125 
Q 45.015625 15.765625 45.015625 23.390625 
Q 45.015625 31 40.078125 35.4375 
Q 35.15625 39.890625 26.703125 39.890625 
Q 22.75 39.890625 18.8125 39.015625 
Q 14.890625 38.140625 10.796875 36.28125 
z
" id="DejaVuSans-53"/>
      </defs>
      <g transform="translate(51.237353 274.352116)scale(0.1 -0.1)">
       <use xlink:href="#DejaVuSans-8722"/>
       <use x="83.789062" xlink:href="#DejaVuSans-49"/>
       <use x="147.412109" xlink:href="#DejaVuSans-46"/>
       <use x="179.199219" xlink:href="#DejaVuSans-53"/>
      </g>
     </g>
    </g>
    <g id="ytick_3">
     <g id="line2d_8">
      <g>
       <use style="stroke:#000000;stroke-width:0.8;" x="82.520165" xlink:href="#m3406684a93" y="238.544598"/>
      </g>
     </g>
     <g id="text_8">
      <!-- −1.0 -->
      <g transform="translate(51.237353 242.343817)scale(0.1 -0.1)">
       <use xlink:href="#DejaVuSans-8722"/>
       <use x="83.789062" xlink:href="#DejaVuSans-49"/>
       <use x="147.412109" xlink:href="#DejaVuSans-46"/>
       <use x="179.199219" xlink:href="#DejaVuSans-48"/>
      </g>
     </g>
    </g>
    <g id="ytick_4">
     <g id="line2d_9">
      <g>
       <use style="stroke:#000000;stroke-width:0.8;" x="82.520165" xlink:href="#m3406684a93" y="206.536299"/>
      </g>
     </g>
     <g id="text_9">
      <!-- −0.5 -->
      <g transform="translate(51.237353 210.335518)scale(0.1 -0.1)">
       <use xlink:href="#DejaVuSans-8722"/>
       <use x="83.789062" xlink:href="#DejaVuSans-48"/>
       <use x="147.412109" xlink:href="#DejaVuSans-46"/>
       <use x="179.199219" xlink:href="#DejaVuSans-53"/>
      </g>
     </g>
    </g>
    <g id="ytick_5">
     <g id="line2d_10">
      <g>
       <use style="stroke:#000000;stroke-width:0.8;" x="82.520165" xlink:href="#m3406684a93" y="174.528"/>
      </g>
     </g>
     <g id="text_10">
      <!-- 0.0 -->
      <g transform="translate(59.61704 178.327219)scale(0.1 -0.1)">
       <use xlink:href="#DejaVuSans-48"/>
       <use x="63.623047" xlink:href="#DejaVuSans-46"/>
       <use x="95.410156" xlink:href="#DejaVuSans-48"/>
      </g>
     </g>
    </g>
    <g id="ytick_6">
     <g id="line2d_11">
      <g>
       <use style="stroke:#000000;stroke-width:0.8;" x="82.520165" xlink:href="#m3406684a93" y="142.519701"/>
      </g>
     </g>
     <g id="text_11">
      <!-- 0.5 -->
      <g transform="translate(59.61704 146.31892)scale(0.1 -0.1)">
       <use xlink:href="#DejaVuSans-48"/>
       <use x="63.623047" xlink:href="#DejaVuSans-46"/>
       <use x="95.410156" xlink:href="#DejaVuSans-53"/>
      </g>
     </g>
    </g>
    <g id="ytick_7">
     <g id="line2d_12">
      <g>
       <use style="stroke:#000000;stroke-width:0.8;" x="82.520165" xlink:href="#m3406684a93" y="110.511402"/>
      </g>
     </g>
     <g id="text_12">
      <!-- 1.0 -->
      <g transform="translate(59.61704 114.310621)scale(0.1 -0.1)">
       <use xlink:href="#DejaVuSans-49"/>
       <use x="63.623047" xlink:href="#DejaVuSans-46"/>
       <use x="95.410156" xlink:href="#DejaVuSans-48"/>
      </g>
     </g>
    </g>
    <g id="ytick_8">
     <g id="line2d_13">
      <g>
       <use style="stroke:#000000;stroke-width:0.8;" x="82.520165" xlink:href="#m3406684a93" y="78.503103"/>
      </g>
     </g>
     <g id="text_13">
      <!-- 1.5 -->
      <g transform="translate(59.61704 82.302322)scale(0.1 -0.1)">
       <use xlink:href="#DejaVuSans-49"/>
       <use x="63.623047" xlink:href="#DejaVuSans-46"/>
       <use x="95.410156" xlink:href="#DejaVuSans-53"/>
      </g>
     </g>
    </g>
    <g id="ytick_9">
     <g id="line2d_14">
      <g>
       <use style="stroke:#000000;stroke-width:0.8;" x="82.520165" xlink:href="#m3406684a93" y="46.494804"/>
      </g>
     </g>
     <g id="text_14">
      <!-- 2.0 -->
      <g transform="translate(59.61704 50.294023)scale(0.1 -0.1)">
       <use xlink:href="#DejaVuSans-50"/>
       <use x="63.623047" xlink:href="#DejaVuSans-46"/>
       <use x="95.410156" xlink:href="#DejaVuSans-48"/>
      </g>
     </g>
    </g>
   </g>
   <g id="line2d_15">
    <path clip-path="url(#p76e3e10952)" d="M 300.176598 63.648 
L 172.143402 63.648 
" style="fill:none;stroke:#009900;stroke-linecap:square;stroke-width:2;"/>
   </g>
   <g id="line2d_16">
    <path clip-path="url(#p76e3e10952)" d="M 172.143402 63.648 
L 108.126804 174.528 
" style="fill:none;stroke:#009900;stroke-linecap:square;stroke-width:2;"/>
   </g>
   <g id="line2d_17">
    <path clip-path="url(#p76e3e10952)" d="M 108.126804 174.528 
L 172.143402 285.408 
" style="fill:none;stroke:#009900;stroke-linecap:square;stroke-width:2;"/>
   </g>
   <g id="line2d_18">
    <path clip-path="url(#p76e3e10952)" d="M 172.143402 285.408 
L 300.176598 285.408 
" style="fill:none;stroke:#009900;stroke-linecap:square;stroke-width:2;"/>
   </g>
   <g id="line2d_19">
    <path clip-path="url(#p76e3e10952)" d="M 300.176598 285.408 
L 364.193196 174.528 
" style="fill:none;stroke:#009900;stroke-linecap:square;stroke-width:2;"/>
   </g>
   <g id="line2d_20">
    <path clip-path="url(#p76e3e10952)" d="M 364.193196 174.528 
L 300.176598 63.648 
" style="fill:none;stroke:#009900;stroke-linecap:square;stroke-width:2;"/>
   </g>
   <g id="line2d_21">
    <path clip-path="url(#p76e3e10952)" d="M 191.418369 218.953147 
L 194.700873 215.02254 
L 197.82357 210.963813 
L 198.826713 209.58546 
L 194.542126 212.390246 
L 190.373129 215.364126 
L 186.326389 218.502342 
L 182.408382 221.799875 
L 178.625375 225.251448 
L 174.98342 228.851541 
L 171.488344 232.594393 
L 168.145737 236.474017 
L 164.960948 240.484206 
L 161.939071 244.618546 
L 159.08494 248.870421 
L 156.403123 253.23303 
L 154.990921 255.69903 
L 160.111833 255.671459 
L 165.227546 255.439128 
L 170.329877 255.002409 
L 175.410662 254.362 
L 180.461774 253.518926 
L 185.475131 252.474536 
L 190.442714 251.230501 
L 195.356575 249.78881 
L 200.208853 248.151771 
L 204.991786 246.322002 
L 209.697721 244.30243 
L 214.319132 242.096286 
L 218.848623 239.707099 
L 223.278949 237.138693 
L 227.603022 234.395175 
L 231.813926 231.480935 
L 235.904922 228.400635 
L 239.295308 225.645215 
L 243.642256 228.352344 
L 248.093983 230.883476 
L 252.643368 233.234561 
L 257.283132 235.40184 
L 262.005852 237.381843 
L 266.803974 239.171404 
L 271.669821 240.76766 
L 276.595609 242.168057 
L 281.573458 243.370355 
L 286.595405 244.372631 
L 291.653414 245.17328 
L 296.739396 245.771023 
L 301.845212 246.164902 
L 306.962695 246.354289 
L 312.083658 246.338879 
L 317.199909 246.118697 
L 322.303263 245.694096 
L 323.158128 245.602822 
L 321.005318 240.956328 
L 318.66842 236.399639 
L 316.151173 231.940046 
L 313.457603 227.584684 
L 310.592019 223.34052 
L 307.559006 219.214343 
L 304.363417 215.212755 
L 301.010362 211.342157 
L 297.505207 207.608741 
L 293.853559 204.018481 
L 290.06126 200.57712 
L 286.134376 197.290163 
L 283.126944 194.946278 
L 288.188078 195.726931 
L 293.276382 196.304568 
L 298.383715 196.678266 
L 303.501907 196.847425 
L 308.622769 196.811776 
L 313.73811 196.571376 
L 318.839745 196.126609 
L 323.919514 195.478187 
L 328.96929 194.627146 
L 333.980993 193.57485 
L 338.946607 192.32298 
L 343.858188 190.873541 
L 348.707878 189.228849 
L 353.487919 187.391538 
L 357.846727 185.520407 
L 357.235784 180.435994 
L 356.422007 175.38008 
L 355.406699 170.360752 
L 354.191483 165.386041 
L 352.778304 160.463904 
L 351.169422 155.602217 
L 349.367412 150.808757 
L 347.375156 146.091192 
L 345.728424 142.546077 
L 342.765136 138.369544 
L 339.637203 134.314851 
L 336.349626 130.388486 
L 332.907667 126.596729 
L 329.316831 122.945647 
L 325.582863 119.441081 
L 321.711737 116.088637 
L 317.709645 112.893678 
L 313.58299 109.861316 
L 309.338374 106.996401 
L 304.982587 104.303518 
L 300.522597 101.786973 
L 295.96554 99.450794 
L 291.318706 97.298717 
L 286.589529 95.334185 
L 281.785575 93.560341 
L 276.914528 91.980023 
L 271.984181 90.59576 
L 267.002423 89.409764 
L 261.977222 88.423935 
L 256.916619 87.639848 
L 251.828708 87.058759 
L 246.721629 86.681597 
L 241.603553 86.508965 
L 236.482668 86.54114 
L 231.367166 86.778069 
L 226.265229 87.219375 
L 221.185022 87.864351 
L 216.13467 88.711965 
L 211.122254 89.760861 
L 206.155791 91.009362 
L 201.243228 92.455469 
L 196.392424 94.096869 
L 191.611138 95.930938 
L 186.907019 97.954739 
L 182.287594 100.165036 
L 177.760253 102.558293 
L 173.332237 105.130681 
L 169.010632 107.878085 
L 164.80235 110.796109 
L 160.714124 113.880086 
L 156.752494 117.125081 
L 152.923799 120.525904 
L 149.234163 124.077113 
L 145.689488 127.773027 
L 142.295446 131.607735 
L 139.057467 135.5751 
L 135.980729 139.668777 
L 133.070157 143.882216 
L 130.330404 148.208677 
L 127.765856 152.641237 
L 125.380614 157.172807 
L 123.178495 161.796136 
L 121.163021 166.503828 
L 119.337416 171.288352 
L 117.704602 176.142054 
L 116.26719 181.057168 
L 114.95343 186.352062 
L 119.872571 187.775632 
L 124.844705 189.001349 
L 129.861878 190.027254 
L 134.916063 190.851705 
L 139.999174 191.473382 
L 145.103079 191.891293 
L 150.219614 192.104767 
L 155.340594 192.113463 
L 160.457824 191.917369 
L 165.56312 191.516796 
L 170.648313 190.912386 
L 175.705269 190.105107 
L 180.725897 189.096248 
L 185.702165 187.887426 
L 186.651735 187.632641 
L 180.493947 189.380312 
L 175.635416 190.998701 
L 170.84549 192.810083 
L 166.131831 194.811563 
L 161.501981 196.999938 
L 156.963345 199.371708 
L 152.523186 201.923077 
L 148.188605 204.649964 
L 143.966538 207.548007 
L 139.86374 210.61257 
L 135.886772 213.838749 
L 132.522855 216.783199 
L 137.366302 215.120214 
L 142.139373 213.264872 
L 146.834433 211.220142 
L 151.443969 208.989296 
L 155.960609 206.575902 
L 160.377125 203.983821 
L 164.686453 201.2172 
L 168.881699 198.280465 
L 172.956151 195.178313 
L 176.903291 191.915709 
L 180.716804 188.49787 
L 184.39059 184.930266 
L 185.745801 183.539572 
L 181.095574 181.394837 
L 176.3633 179.437778 
L 171.556549 177.671524 
L 166.683012 176.098902 
L 161.750486 174.722427 
L 156.76686 173.544302 
L 151.740109 172.566411 
L 146.678273 171.790318 
L 141.589451 171.217266 
L 136.481783 170.848171 
L 131.363441 170.683623 
L 126.242613 170.723886 
L 121.127491 170.968895 
L 116.026258 171.418259 
L 110.947076 172.071258 
L 109.407251 172.310201 
L 111.323674 177.059077 
L 113.428469 181.727518 
L 115.718268 186.308056 
L 118.189408 190.793362 
L 120.837936 195.17626 
L 123.659614 199.449741 
L 126.649929 203.606965 
L 129.804097 207.641284 
L 133.117071 211.546243 
L 136.583553 215.315594 
L 140.197995 218.943308 
L 143.954616 222.423582 
L 147.847405 225.750846 
L 151.870136 228.919779 
L 156.016373 231.925311 
L 160.279483 234.762634 
L 164.652645 237.427208 
L 169.128863 239.914771 
L 173.700977 242.221343 
L 178.361673 244.343234 
L 183.103493 246.27705 
L 187.918852 248.019697 
L 192.800047 249.568386 
L 197.739268 250.920642 
L 202.728614 252.074299 
L 207.760103 253.027513 
L 212.825687 253.778759 
L 217.917259 254.326835 
L 223.026677 254.670863 
L 228.145765 254.810294 
L 233.266334 254.744905 
L 238.380192 254.4748 
L 243.479158 254.000411 
L 248.555075 253.322497 
L 253.599823 252.442143 
L 258.60533 251.360757 
L 263.56359 250.080069 
L 268.46667 248.602128 
L 273.306726 246.929299 
L 278.076016 245.064257 
L 282.766908 243.009986 
L 287.371899 240.769772 
L 291.883623 238.3472 
L 296.29486 235.746145 
L 300.598554 232.970768 
L 304.78782 230.025509 
L 308.855957 226.91508 
L 312.796455 223.644457 
L 316.603011 220.218872 
L 320.269536 216.643806 
L 323.790163 212.924978 
L 327.159261 209.068336 
L 330.371439 205.080052 
L 333.421559 200.966505 
L 336.304741 196.734276 
L 339.016373 192.390136 
L 341.552117 187.941034 
L 343.907916 183.394088 
L 346.080001 178.756573 
L 348.064897 174.035907 
L 349.85943 169.239642 
L 351.460727 164.375452 
L 352.866228 159.451117 
L 353.659304 156.282764 
L 348.725327 154.911495 
L 343.740461 153.73863 
L 338.71268 152.766045 
L 333.650028 151.995295 
L 328.560604 151.427613 
L 323.452549 151.063909 
L 318.334036 150.904763 
L 313.213254 150.95043 
L 308.098393 151.200838 
L 302.997638 151.655585 
L 297.919147 152.313944 
L 292.871046 153.174862 
L 287.861411 154.236961 
L 283.6267 155.300098 
L 288.053544 152.725693 
L 292.373898 149.976322 
L 296.58085 147.056381 
L 300.667671 143.970543 
L 304.627823 140.723744 
L 308.454969 137.321179 
L 312.142987 133.76829 
L 315.685978 130.070761 
L 319.078274 126.234508 
L 322.314446 122.265669 
L 325.389319 118.170591 
L 328.297973 113.955827 
L 328.78935 113.20674 
L 323.682175 113.5826 
L 318.594116 114.162391 
L 313.533313 114.945187 
L 308.507861 115.929735 
L 303.5258 117.11446 
L 298.595101 118.497466 
L 293.723651 120.076542 
L 288.919244 121.84916 
L 284.189566 123.812486 
L 279.542184 125.963378 
L 274.984531 128.298395 
L 270.5239 130.813802 
L 266.516159 133.28114 
L 267.774873 128.317256 
L 268.834077 123.307008 
L 269.692078 118.25841 
L 270.347502 113.17954 
L 270.799301 108.078523 
L 271.046753 102.963518 
L 271.089461 97.84271 
L 270.927357 92.72429 
L 270.560701 87.616446 
L 269.990079 82.527351 
L 269.216404 77.465145 
L 268.240913 72.437927 
L 267.065167 67.45374 
L 266.023896 63.648 
L 264.695129 68.593592 
L 263.565195 73.588364 
L 262.635903 78.624327 
L 261.908739 83.693423 
L 261.384866 88.787543 
L 261.065123 93.898537 
L 260.950021 99.01823 
L 261.039744 104.138431 
L 261.334149 109.250947 
L 261.832764 114.347602 
L 262.534792 119.42024 
L 263.439111 124.460747 
L 264.544272 129.461059 
L 265.295383 132.40996 
L 270.380054 131.801166 
L 275.436312 130.989526 
L 280.456068 129.976339 
L 285.431292 128.763226 
L 290.354026 127.352128 
L 295.216392 125.745301 
L 300.010614 123.945317 
L 304.72902 121.955054 
L 309.364063 119.777698 
L 313.908327 117.416732 
L 318.354543 114.875931 
L 322.695597 112.159362 
L 326.635743 109.476583 
L 322.02635 111.707727 
L 317.509867 114.121413 
L 313.093518 116.713779 
L 308.784368 119.480679 
L 304.589312 122.417685 
L 300.515061 125.5201 
L 296.568132 128.782959 
L 292.754839 132.201044 
L 289.081284 135.768886 
L 285.553343 139.480777 
L 282.17666 143.330778 
L 279.280254 146.897517 
L 284.238167 145.615487 
L 289.140846 144.136219 
L 293.98045 142.462079 
L 298.749234 140.595746 
L 303.43957 138.540205 
L 308.043955 136.298745 
L 312.555022 133.874952 
L 316.965555 131.272703 
L 321.268498 128.496161 
L 325.456967 125.549768 
L 329.524261 122.438238 
L 332.638728 119.874058 
L 327.850805 121.69073 
L 323.13936 123.697415 
L 318.511929 125.890903 
L 313.975916 128.267683 
L 309.538577 130.823955 
L 305.207011 133.555628 
L 300.988147 136.458332 
L 296.888736 139.527425 
L 292.915334 142.757995 
L 289.074299 146.144874 
L 285.371776 149.682645 
L 282.471019 152.662744 
L 287.572596 152.217306 
L 292.652279 151.568215 
L 297.701942 150.716511 
L 302.713508 149.663555 
L 307.678957 148.411032 
L 312.590347 146.960946 
L 317.439821 145.315617 
L 322.219619 143.477676 
L 326.922097 141.450065 
L 331.53973 139.236027 
L 336.065132 136.839103 
L 340.827527 134.057474 
L 336.375885 136.588756 
L 332.029029 139.296032 
L 327.793912 142.17497 
L 323.677309 145.220965 
L 319.685807 148.429144 
L 315.82579 151.794373 
L 312.103434 155.311271 
L 308.524694 158.97421 
L 305.095295 162.77733 
L 301.820723 166.714548 
L 298.706218 170.779564 
L 295.756761 174.965876 
L 292.977071 179.266786 
L 290.371595 183.675414 
L 287.944502 188.184706 
L 285.699673 192.787449 
L 283.640701 197.47628 
L 281.770878 202.243697 
L 280.093198 207.082074 
L 278.610342 211.98367 
L 277.324685 216.940643 
L 276.238282 221.945065 
L 275.352871 226.988927 
L 274.669869 232.064162 
L 274.190369 237.16265 
L 273.915138 242.276235 
L 273.844615 247.396736 
L 273.978915 252.515961 
L 274.317821 257.625721 
L 274.860792 262.71784 
L 275.606959 267.784174 
L 276.555129 272.816616 
L 277.703785 277.807117 
L 279.051088 282.747691 
L 279.865554 285.408 
L 281.319893 280.497868 
L 282.576715 275.533505 
L 283.634011 270.522853 
L 284.490088 265.473929 
L 285.143578 260.39481 
L 285.593434 255.293621 
L 285.838937 250.178522 
L 285.879694 245.057698 
L 285.715641 239.93934 
L 285.347039 234.831637 
L 284.774478 229.742759 
L 283.998874 224.680848 
L 283.021468 219.654003 
L 281.843824 214.670263 
L 280.467826 209.737604 
L 278.895674 204.863915 
L 278.407787 203.474923 
L 283.523392 203.24021 
L 288.625518 202.801115 
L 293.706005 202.158341 
L 298.756723 201.312915 
L 303.769594 200.266191 
L 308.736597 199.019843 
L 313.649786 197.575864 
L 318.501301 195.936566 
L 323.283382 194.104569 
L 327.988376 192.082806 
L 332.608759 189.874511 
L 337.137137 187.483216 
L 341.566267 184.912747 
L 345.889063 182.167216 
L 350.098608 179.251015 
L 354.18817 176.168811 
L 358.151205 172.925532 
L 361.539887 169.932335 
L 356.688671 171.57252 
L 351.906926 173.40539 
L 347.202301 175.428013 
L 342.582322 177.637152 
L 338.054381 180.029275 
L 333.625721 182.600553 
L 329.303427 185.346874 
L 325.094414 188.263844 
L 321.005415 191.346796 
L 317.042973 194.590798 
L 313.213425 197.990661 
L 309.522899 201.540945 
L 305.977299 205.235972 
L 302.582296 209.069828 
L 299.343322 213.036382 
L 296.265559 217.129288 
L 293.353931 221.341998 
L 290.613095 225.667771 
L 288.047436 230.099689 
L 285.661058 234.630661 
L 283.457781 239.253438 
L 281.441127 243.960625 
L 279.614324 248.744692 
L 277.980293 253.597984 
L 276.54165 258.512738 
L 275.300695 263.481091 
L 274.259414 268.495095 
L 273.419472 273.546728 
L 272.782214 278.62791 
L 272.348658 283.73051 
L 272.250915 285.408 
L 272.216274 284.768773 
L 271.824187 279.662818 
L 271.22823 274.576627 
L 270.429357 269.518337 
L 269.428845 264.496039 
L 268.228295 259.517768 
L 266.829628 254.591488 
L 265.23508 249.725081 
L 263.447204 244.926331 
L 261.468859 240.202916 
L 259.303211 235.562391 
L 256.953723 231.012181 
L 254.424154 226.559566 
L 252.309251 223.128428 
L 252.787335 228.227049 
L 253.468927 233.302473 
L 254.352937 238.346582 
L 255.437951 243.351304 
L 256.722232 248.308635 
L 258.203726 253.210642 
L 259.880063 258.049484 
L 261.748561 262.817421 
L 263.806231 267.506823 
L 266.049782 272.11019 
L 268.475623 276.620156 
L 271.079874 281.029507 
L 273.910229 285.408 
L 276.691838 281.108331 
L 279.299281 276.700866 
L 281.728386 272.192657 
L 283.975268 267.590916 
L 286.036332 262.903004 
L 287.908281 258.136422 
L 289.588121 253.298794 
L 291.073163 248.39786 
L 292.361032 243.441461 
L 293.449668 238.437525 
L 294.337329 233.394058 
L 295.022595 228.319128 
L 295.50437 223.220854 
L 295.781883 218.107393 
L 295.85469 212.986924 
L 295.722674 207.867639 
L 295.386048 202.757729 
L 294.845349 197.665368 
L 294.101442 192.598701 
L 293.155517 187.565837 
L 292.009089 182.574824 
L 290.66399 177.633649 
L 289.122373 172.750216 
L 287.386703 167.932338 
L 286.679551 166.127118 
L 286.840126 161.008649 
L 286.795888 155.887854 
L 286.546908 150.772924 
L 286.093584 145.672042 
L 285.436643 140.593368 
L 284.577134 135.545027 
L 283.516432 130.535095 
L 282.256236 125.571588 
L 280.79856 120.662445 
L 279.145736 115.815521 
L 277.30041 111.038568 
L 275.265532 106.339231 
L 273.044359 101.725025 
L 270.640443 97.203334 
L 268.057631 92.781391 
L 265.300054 88.466269 
L 262.372124 84.264873 
L 259.278526 80.183924 
L 256.024207 76.22995 
L 252.614374 72.409276 
L 249.054483 68.728016 
L 245.350229 65.192058 
L 243.635753 63.648 
L 239.868381 67.116632 
L 236.242731 70.733145 
L 232.764603 74.491752 
L 229.439561 78.38644 
L 226.272925 82.41098 
L 223.269761 86.558932 
L 220.434872 90.82366 
L 217.772795 95.198343 
L 215.287788 99.675981 
L 212.983826 104.249411 
L 210.864596 108.911316 
L 208.933487 113.65424 
L 207.19359 118.470593 
L 205.647686 123.352671 
L 204.298251 128.292663 
L 203.147442 133.282667 
L 202.645239 135.803838 
L 197.534285 136.12422 
L 192.44023 136.648729 
L 187.371225 137.376527 
L 182.335379 138.306448 
L 177.340748 139.437006 
L 172.395322 140.766391 
L 167.507013 142.292478 
L 162.683642 144.012824 
L 157.932924 145.924677 
L 153.26246 148.024979 
L 148.679721 150.310369 
L 144.19204 152.777193 
L 139.806595 155.421502 
L 135.530402 158.239067 
L 131.370302 161.225381 
L 127.33295 164.375666 
L 123.424805 167.684881 
L 119.65212 171.147734 
L 116.02093 174.758684 
L 112.537044 178.511954 
L 111.263904 179.961615 
L 116.272893 178.896475 
L 121.235282 177.631881 
L 126.143131 176.169855 
L 130.988589 174.512737 
L 135.763904 172.663178 
L 140.461437 170.624137 
L 145.073672 168.398876 
L 149.593231 165.990954 
L 154.012884 163.404224 
L 158.32556 160.642825 
L 162.52436 157.711173 
L 166.602566 154.613959 
L 170.553655 151.356138 
L 174.371305 147.942921 
L 178.04941 144.379769 
L 181.582084 140.672383 
L 184.963676 136.826692 
L 188.188777 132.84885 
L 191.252227 128.745221 
L 194.149125 124.522368 
L 196.874837 120.187049 
L 199.425002 115.746197 
L 201.79554 111.206919 
L 203.98266 106.576475 
L 205.982861 101.862273 
L 207.792945 97.071856 
L 209.410016 92.212887 
L 210.831486 87.293138 
L 212.055081 82.320481 
L 213.078845 77.302871 
L 213.901139 72.248335 
L 214.520647 67.164959 
L 214.829111 63.648 
L 214.877842 64.286308 
L 215.382443 69.382373 
L 216.090429 74.454183 
L 217.000666 79.493625 
L 218.111699 84.492635 
L 219.421751 89.443218 
L 220.928725 94.337452 
L 222.630212 99.167509 
L 224.523487 103.92566 
L 226.605524 108.604295 
L 228.872991 113.195929 
L 231.32226 117.693215 
L 233.949414 122.088958 
L 234.738033 123.334466 
L 237.169184 118.827361 
L 239.418155 114.22664 
L 241.481347 109.539664 
L 243.35546 104.773932 
L 245.037495 99.937067 
L 246.524762 95.036808 
L 247.814881 90.080994 
L 248.905788 85.077553 
L 249.795739 80.034489 
L 250.483309 74.959871 
L 250.967398 69.861817 
L 251.247232 64.748482 
L 251.280666 63.648 
L 251.320443 64.927709 
L 251.607439 70.040647 
L 252.098669 75.138018 
L 252.793346 80.211668 
L 253.69036 85.25348 
L 254.788274 90.255388 
L 256.085334 95.209391 
L 257.579463 100.107562 
L 259.268272 104.942065 
L 261.149058 109.705168 
L 263.218813 114.389249 
L 265.474226 118.986815 
L 267.911689 123.490511 
L 270.527301 127.893132 
L 273.316879 132.187635 
L 276.275961 136.36715 
L 279.399811 140.424989 
L 282.683433 144.354662 
L 286.121573 148.149882 
L 289.708731 151.804577 
L 293.439169 155.312901 
L 297.306919 158.66924 
L 301.305792 161.868227 
L 305.429392 164.904742 
L 309.671122 167.773928 
L 314.024196 170.471195 
L 318.48165 172.992228 
L 323.036352 175.332994 
L 327.681017 177.489748 
L 332.408214 179.45904 
L 337.210381 181.237719 
L 342.079834 182.82294 
L 347.008784 184.212167 
L 351.989346 185.403177 
L 357.312103 186.446402 
L 353.951003 182.582789 
L 350.438089 178.856674 
L 346.778979 175.274018 
L 342.979528 171.840554 
L 339.045815 168.561774 
L 334.984132 165.442923 
L 330.800977 162.48899 
L 326.503042 159.704702 
L 322.097203 157.094513 
L 317.590509 154.662598 
L 312.990169 152.412849 
L 308.303543 150.348863 
L 303.538128 148.473943 
L 298.701549 146.791089 
L 293.801541 145.302992 
L 288.845946 144.012034 
L 283.842689 142.92028 
L 278.799777 142.029475 
L 275.330956 141.536545 
L 275.450646 136.416958 
L 275.365512 131.296679 
L 275.07569 126.1839 
L 274.581642 121.086801 
L 273.884161 116.013536 
L 272.98436 110.97222 
L 271.883681 105.97092 
L 270.583883 101.017635 
L 269.087047 96.120291 
L 267.395566 91.286721 
L 265.512147 86.524659 
L 263.439803 81.841723 
L 261.181849 77.245404 
L 258.741897 72.743056 
L 256.123852 68.341882 
L 253.058485 63.648 
L 250.250282 67.930347 
L 247.615573 72.321567 
L 245.158574 76.814635 
L 242.883215 81.402363 
L 240.793137 86.07741 
L 238.891682 90.8323 
L 237.181893 95.659423 
L 235.666505 100.551059 
L 234.347943 105.499382 
L 233.228315 110.496474 
L 232.309413 115.534343 
L 231.592708 120.604928 
L 231.271013 123.548615 
L 229.716108 118.669397 
L 227.96733 113.856261 
L 226.027477 109.116907 
L 223.899651 104.458918 
L 221.587258 99.889746 
L 219.093997 95.416699 
L 216.423855 91.046934 
L 213.581106 86.787441 
L 210.570296 82.645035 
L 207.396242 78.626343 
L 204.064023 74.737794 
L 200.578968 70.985608 
L 196.946654 67.375789 
L 192.869919 63.648 
L 189.085272 67.097775 
L 185.441607 70.696136 
L 181.944752 74.437327 
L 178.600301 78.315362 
L 175.413607 82.324037 
L 172.389765 86.45694 
L 169.533614 90.707458 
L 166.849723 95.068792 
L 164.342386 99.533964 
L 162.015614 104.095831 
L 159.873129 108.747095 
L 157.918358 113.480315 
L 156.15443 118.28792 
L 154.584165 123.162217 
L 153.210076 128.095408 
L 152.034362 133.079603 
L 151.058903 138.106827 
L 150.285259 143.169038 
L 149.714668 148.258137 
L 149.348044 153.365983 
L 149.185972 158.484404 
L 149.228712 163.605212 
L 149.476195 168.720215 
L 149.928027 173.821229 
L 150.583483 178.900095 
L 151.441515 183.948687 
L 152.50075 188.958929 
L 153.759495 193.922805 
L 155.215735 198.832374 
L 156.86714 203.679782 
L 158.711069 208.457273 
L 160.744572 213.157206 
L 162.964395 217.772061 
L 165.366988 222.294455 
L 167.948506 226.717154 
L 170.70482 231.033082 
L 173.631521 235.235335 
L 176.723926 239.317189 
L 179.977088 243.272115 
L 183.385802 247.093786 
L 186.944616 250.776087 
L 190.647836 254.313129 
L 194.489538 257.699251 
L 198.463576 260.929039 
L 202.563592 263.997323 
L 206.783027 266.899197 
L 211.115131 269.630017 
L 215.552973 272.185414 
L 220.089455 274.561302 
L 224.717317 276.753877 
L 229.429158 278.759634 
L 234.217438 280.575363 
L 239.074498 282.19816 
L 243.992568 283.625428 
L 248.963779 284.854884 
L 251.531197 285.408 
L 256.52658 284.280771 
L 261.472891 282.954682 
L 266.362215 281.431853 
L 271.186732 279.714722 
L 275.938723 277.806035 
L 280.610586 275.708846 
L 285.194846 273.42651 
L 289.68417 270.962678 
L 294.071377 268.321292 
L 298.349447 265.506577 
L 302.511536 262.523036 
L 306.550986 259.375443 
L 310.461335 256.068832 
L 314.236327 252.608494 
L 317.869923 248.999965 
L 321.356309 245.249017 
L 324.689909 241.361651 
L 328.123442 237.002646 
L 330.030913 232.250166 
L 331.746809 227.42521 
L 333.268385 222.535496 
L 334.593208 217.588846 
L 335.719159 212.593174 
L 336.644435 207.556472 
L 337.367556 202.486798 
L 337.887366 197.392262 
L 338.203034 192.281014 
L 338.314053 187.161231 
L 338.220247 182.041104 
L 337.921765 176.928823 
L 337.419086 171.832568 
L 336.713013 166.760491 
L 335.804675 161.720707 
L 334.695527 156.721278 
L 333.387342 151.770202 
L 331.882213 146.8754 
L 330.182548 142.044702 
L 328.291066 137.285837 
L 326.210793 132.606417 
L 323.945058 128.013929 
L 321.497484 123.51572 
L 318.871988 119.118986 
L 316.07277 114.830761 
L 313.104307 110.657904 
L 309.971349 106.607093 
L 306.678907 102.684806 
L 303.23225 98.897319 
L 299.63689 95.250692 
L 295.898581 91.750757 
L 292.023301 88.403115 
L 288.017251 85.21312 
L 283.88684 82.185876 
L 279.638676 79.326226 
L 275.279553 76.638745 
L 270.816448 74.127731 
L 266.256498 71.797203 
L 261.607 69.650889 
L 256.875391 67.692221 
L 252.069241 65.924334 
L 247.196238 64.350056 
L 244.778873 63.648 
L 239.875862 65.126171 
L 235.035884 66.799227 
L 230.266683 68.664493 
L 225.575886 70.718984 
L 220.971 72.959413 
L 216.45939 75.382196 
L 212.048275 77.983458 
L 207.744711 80.759037 
L 203.555582 83.704492 
L 199.487592 86.815112 
L 195.547247 90.085919 
L 191.740851 93.511682 
L 188.074494 97.08692 
L 184.554041 100.805914 
L 181.185124 104.662713 
L 177.973133 108.651148 
L 174.923205 112.764838 
L 172.040221 116.997202 
L 169.328793 121.34147 
L 166.793258 125.79069 
L 164.437672 130.337746 
L 162.265804 134.975363 
L 160.281129 139.696122 
L 158.486822 144.492471 
L 156.885752 149.356736 
L 155.480482 154.281137 
L 154.273259 159.257794 
L 153.266015 164.278746 
L 152.460362 169.335961 
L 151.857587 174.421348 
L 151.458656 179.526772 
L 151.264207 184.644066 
L 151.27455 189.765042 
L 151.489669 194.881508 
L 151.909221 199.985279 
L 152.532533 205.06819 
L 153.358609 210.122109 
L 154.386127 215.138952 
L 155.613443 220.110692 
L 157.038594 225.029375 
L 158.6593 229.887133 
L 160.472968 234.676195 
L 162.476697 239.388898 
L 164.667281 244.017704 
L 167.041215 248.555207 
L 169.594702 252.994149 
L 172.323657 257.327428 
L 175.223715 261.548112 
L 178.290234 265.649448 
L 181.518311 269.624875 
L 184.90278 273.468034 
L 188.438227 277.172776 
L 192.118997 280.733175 
L 195.9392 284.143534 
L 197.437015 285.408 
L 201.308981 282.056526 
L 205.043828 278.552896 
L 208.635578 274.902714 
L 212.078488 271.11182 
L 215.367048 267.186279 
L 218.495998 263.13237 
L 221.460332 258.95658 
L 224.255308 254.665588 
L 226.876454 250.266259 
L 229.319577 245.765631 
L 231.580769 241.170904 
L 233.656412 236.489429 
L 235.543186 231.728696 
L 237.238072 226.896319 
L 237.617962 225.720521 
L 239.539408 230.467367 
L 241.64914 235.133579 
L 243.943783 239.711691 
L 246.419667 244.194381 
L 249.072829 248.574475 
L 251.899027 252.844968 
L 254.893738 256.999027 
L 258.052172 261.030007 
L 261.369276 264.931459 
L 264.839742 268.697141 
L 268.45802 272.321029 
L 272.218321 275.797327 
L 276.114628 279.120471 
L 280.140709 282.285147 
L 284.466003 285.408 
L 288.620425 282.413792 
L 292.651787 279.255846 
L 296.55364 275.939215 
L 300.319743 272.469205 
L 303.94407 268.851366 
L 307.420822 265.091486 
L 310.744439 261.195581 
L 313.909602 257.169884 
L 316.911248 253.020833 
L 319.744576 248.755068 
L 322.405052 244.379411 
L 324.888421 239.900864 
L 327.190709 235.326592 
L 329.308233 230.663911 
L 331.237606 225.920281 
L 332.975742 221.103292 
L 334.519858 216.220648 
L 335.867486 211.280162 
L 337.016469 206.289738 
L 337.96497 201.257358 
L 338.71147 196.191073 
L 339.254775 191.098989 
L 339.594017 185.989252 
L 339.728653 180.870035 
L 339.658467 175.74953 
L 339.383571 170.635927 
L 338.904406 165.537407 
L 338.221738 160.462127 
L 337.336658 155.418207 
L 336.250584 150.413714 
L 334.965252 145.456656 
L 333.482719 140.554963 
L 331.805356 135.716476 
L 329.935847 130.948936 
L 327.877182 126.25997 
L 325.632656 121.657079 
L 323.205858 117.147628 
L 320.600672 112.738829 
L 317.821265 108.437736 
L 314.872083 104.251231 
L 311.757844 100.18601 
L 308.483532 96.248577 
L 305.054382 92.445232 
L 301.475883 88.782058 
L 297.753758 85.264916 
L 293.893962 81.899432 
L 289.902671 78.690991 
L 285.786268 75.644726 
L 281.55134 72.76551 
L 277.204662 70.057948 
L 272.753187 67.526374 
L 268.204036 65.174835 
L 264.987461 63.648 
L 260.37468 65.872131 
L 255.854531 68.278945 
L 251.434244 70.864591 
L 247.120892 73.624934 
L 242.921373 76.555556 
L 238.842408 79.65177 
L 234.890521 82.908623 
L 231.072034 86.320904 
L 227.393057 89.883155 
L 223.859474 93.589675 
L 220.476939 97.434537 
L 217.250864 101.411588 
L 214.186408 105.514467 
L 211.288475 109.736609 
L 208.561701 114.071261 
L 206.010448 118.511487 
L 203.638797 123.050184 
L 201.450543 127.680092 
L 199.449186 132.393803 
L 197.637928 137.183777 
L 196.019666 142.04235 
L 195.677894 143.159243 
L 191.352001 145.899891 
L 187.139165 148.811336 
L 183.046125 151.888921 
L 179.07943 155.127722 
L 175.245425 158.522558 
L 171.550245 162.067998 
L 167.9998 165.758369 
L 164.599771 169.587769 
L 161.355596 173.55007 
L 158.272466 177.638935 
L 155.355313 181.847821 
L 152.608804 186.169995 
L 150.037333 190.598543 
L 147.645014 195.12638 
L 145.435673 199.746263 
L 143.412846 204.4508 
L 141.579768 209.232466 
L 139.939372 214.08361 
L 138.494282 218.996473 
L 137.24681 223.963194 
L 137.083537 224.682532 
L 142.000414 226.113901 
L 146.970598 227.347503 
L 151.986138 228.381363 
L 157.039008 229.213829 
L 162.121127 229.843567 
L 167.224364 230.269572 
L 172.340554 230.49116 
L 177.461512 230.507978 
L 182.579047 230.32 
L 187.684972 229.927524 
L 192.771117 229.33118 
L 197.829347 228.531922 
L 202.851569 227.531027 
L 207.829748 226.330098 
L 212.755922 224.931056 
L 217.622208 223.336138 
L 219.089394 222.812514 
L 221.819387 227.145139 
L 224.720456 231.365127 
L 227.787958 235.465728 
L 231.016988 239.440382 
L 234.402378 243.28273 
L 237.938713 246.986624 
L 241.620336 250.546141 
L 245.441356 253.955584 
L 249.395661 257.2095 
L 253.476926 260.302684 
L 257.67862 263.230186 
L 261.994022 265.987323 
L 266.416228 268.569685 
L 270.938164 270.973141 
L 275.552595 273.193844 
L 280.25214 275.228243 
L 285.02928 277.073084 
L 289.876373 278.725413 
L 294.785664 280.18259 
L 299.7493 281.442281 
L 302.15696 281.977912 
L 298.655556 278.240979 
L 295.007514 274.647054 
L 291.218672 271.201887 
L 287.295091 267.910988 
L 283.243047 264.779624 
L 279.069023 261.812803 
L 274.779697 259.015271 
L 270.381931 256.391505 
L 265.882759 253.9457 
L 261.28938 251.681772 
L 256.609143 249.60334 
L 251.849534 247.71373 
L 247.018168 246.015966 
L 242.122774 244.512762 
L 237.171184 243.206525 
L 232.171319 242.099343 
L 227.131178 241.192988 
L 222.058824 240.48891 
L 216.962371 239.988235 
L 211.849974 239.691764 
L 206.72981 239.599972 
L 201.610072 239.713005 
L 196.498948 240.030683 
L 191.404617 240.552497 
L 186.335227 241.277613 
L 181.29889 242.20487 
L 176.303661 243.332785 
L 171.357533 244.659554 
L 166.468417 246.183054 
L 161.644136 247.900847 
L 156.892408 249.810187 
L 152.67791 251.692778 
L 153.202044 251.325225 
L 157.327631 248.29141 
L 161.328597 245.095042 
L 165.198543 241.741235 
L 168.931276 238.235354 
L 172.520826 234.583008 
L 175.96145 230.790039 
L 179.247643 226.862516 
L 182.374149 222.806722 
L 185.335965 218.629146 
L 188.128354 214.33647 
L 190.746848 209.935562 
L 193.187258 205.433462 
L 194.0665 203.698827 
L 188.984057 204.325939 
L 183.930756 205.155793 
L 178.914683 206.187061 
L 173.943862 207.418093 
L 169.026246 208.846921 
L 164.169701 210.471258 
L 159.381996 212.288505 
L 154.670792 214.295756 
L 150.043625 216.4898 
L 145.507898 218.867126 
L 141.070866 221.42393 
L 136.768595 224.137037 
L 141.299717 221.750944 
L 145.731796 219.185563 
L 150.057742 216.444999 
L 154.270634 213.533635 
L 158.363733 210.456129 
L 162.33049 207.217404 
L 166.16456 203.822642 
L 169.859809 200.277273 
L 173.410325 196.58697 
L 176.810428 192.757636 
L 180.054679 188.795397 
L 183.137888 184.706593 
L 185.416683 181.45011 
L 181.449569 178.211821 
L 177.356133 175.134764 
L 173.14292 172.223863 
L 168.816674 169.483774 
L 164.384313 166.91888 
L 159.852929 164.533285 
L 155.229772 162.330805 
L 150.522237 160.314964 
L 145.737855 158.488987 
L 140.884281 156.855794 
L 135.969278 155.417999 
L 131.000711 154.177902 
L 125.986527 153.137486 
L 120.959019 152.301953 
L 124.212321 156.256763 
L 127.621171 160.078313 
L 131.180116 163.760488 
L 134.883462 167.297398 
L 138.725284 170.683385 
L 142.699436 173.913031 
L 146.799561 176.98117 
L 151.019099 179.882894 
L 155.3513 182.61356 
L 159.789233 185.1688 
L 164.325799 187.544526 
L 168.953739 189.736937 
L 173.665651 191.742527 
L 178.453996 193.558086 
L 183.311114 195.18071 
L 188.229234 196.607803 
L 190.199234 197.120208 
L 188.249717 201.855594 
L 186.491125 206.665153 
L 184.926271 211.54119 
L 183.557658 216.475904 
L 182.387475 221.4614 
L 181.417595 226.489703 
L 180.64957 231.552769 
L 180.084627 236.642499 
L 179.723672 241.750748 
L 179.56728 246.869346 
L 179.615703 251.990103 
L 179.868863 257.104828 
L 180.326354 262.205338 
L 180.987446 267.283474 
L 181.851081 272.331111 
L 182.915876 277.340174 
L 184.180128 282.30265 
L 185.08009 285.408 
L 186.469244 280.479029 
L 187.660179 275.498449 
L 188.650993 270.474229 
L 189.440098 265.414405 
L 190.026233 260.327073 
L 190.40846 255.220371 
L 190.586168 250.102469 
L 190.559073 244.981555 
L 190.327217 239.86582 
L 189.890971 234.763448 
L 189.251034 229.682604 
L 188.40843 224.631414 
L 187.364505 219.617959 
L 186.120931 214.650261 
L 184.679697 209.736266 
L 183.043109 204.883836 
L 181.213783 200.100733 
L 179.194648 195.39461 
L 176.988934 190.772995 
L 174.600168 186.243282 
L 172.032173 181.812717 
L 169.289057 177.488389 
L 166.375208 173.277215 
L 163.295288 169.185933 
L 160.054224 165.221087 
L 156.6572 161.38902 
L 153.109652 157.695863 
L 149.417255 154.147525 
L 145.585916 150.749682 
L 141.621764 147.507769 
L 137.53114 144.426973 
L 133.32059 141.512222 
L 128.830824 138.667586 
L 130.52014 139.581072 
L 135.089996 141.892113 
L 139.748614 144.018561 
L 144.488541 145.957012 
L 149.302194 147.704367 
L 154.181872 149.257828 
L 159.119769 150.614913 
L 164.107985 151.773448 
L 169.13854 152.731582 
L 174.203386 153.48778 
L 179.29442 154.040834 
L 184.403499 154.389858 
L 189.012955 154.529098 
L 185.337137 150.963589 
L 181.521676 147.547925 
L 177.572677 144.28757 
L 173.496458 141.187742 
L 169.299539 138.253398 
L 164.988634 135.489234 
L 160.570641 132.89967 
L 156.052627 130.488851 
L 151.44182 128.260633 
L 146.745596 126.21858 
L 141.971468 124.365959 
L 137.901524 122.956672 
L 141.782838 126.297317 
L 145.794637 129.480078 
L 149.930503 132.499865 
L 154.183821 135.351845 
L 158.547785 138.031457 
L 163.015414 140.534413 
L 167.579562 142.85671 
L 172.232925 144.994632 
L 176.96806 146.944759 
L 181.777392 148.703971 
L 186.653227 150.269454 
L 190.490544 151.352567 
L 186.443958 148.214153 
L 182.275106 145.24007 
L 177.990656 142.435075 
L 173.597464 139.803657 
L 169.102557 137.350024 
L 164.513126 135.078102 
L 159.836514 132.991526 
L 155.080202 131.093633 
L 150.251799 129.387461 
L 145.359029 127.875737 
L 140.409721 126.560882 
L 136.352821 125.639106 
L 139.846367 129.383386 
L 143.486851 132.984966 
L 147.268447 136.438085 
L 151.185106 139.737219 
L 155.230563 142.877089 
L 159.398345 145.852672 
L 163.681785 148.659208 
L 168.07403 151.292207 
L 172.568053 153.747458 
L 177.156666 156.021031 
L 181.832527 158.10929 
L 187.002344 160.163992 
L 186.376176 160.030854 
L 181.344471 159.078779 
L 176.278718 158.32868 
L 171.187022 157.781757 
L 166.077526 157.438885 
L 160.958407 157.300613 
L 155.837853 157.367162 
L 150.724056 157.638424 
L 145.625197 158.113968 
L 140.549434 158.79303 
L 135.504886 159.674526 
L 130.499623 160.757046 
L 125.541653 162.038856 
L 120.638908 163.517907 
L 115.799231 165.191832 
L 112.870428 166.311802 
L 113.717178 171.362299 
L 114.765216 176.374895 
L 116.012866 181.341571 
L 117.458132 186.254382 
L 119.098702 191.105467 
L 120.931951 195.887067 
L 122.213752 198.92731 
L 125.334528 202.987514 
L 128.615173 206.919673 
L 132.050438 210.717495 
L 135.634827 214.374906 
L 139.362607 217.886054 
L 143.227813 221.245322 
L 147.224263 224.447336 
L 151.345562 227.486974 
L 155.585118 230.359371 
L 159.936147 233.059935 
L 164.39169 235.584343 
L 168.944619 237.928558 
L 173.587649 240.088829 
L 178.313353 242.061701 
L 183.114171 243.844016 
L 187.982423 245.432925 
L 192.910319 246.825884 
L 197.889978 248.020666 
L 202.913432 249.015359 
L 207.972644 249.808372 
L 213.059522 250.398436 
L 218.165927 250.784607 
L 223.283691 250.966267 
L 228.404625 250.943126 
L 233.520537 250.715221 
L 238.623244 250.282916 
L 243.704581 249.646903 
L 248.75642 248.8082 
L 253.770679 247.768148 
L 258.739337 246.528411 
L 263.654443 245.090972 
L 268.508136 243.458131 
L 273.29265 241.632501 
L 278.000331 239.617001 
L 282.623648 237.414856 
L 287.155205 235.02959 
L 291.587751 232.465017 
L 295.914197 229.725241 
L 300.12762 226.814645 
L 304.22128 223.737886 
L 308.188627 220.499884 
L 312.023316 217.105821 
L 315.719212 213.561127 
L 319.2704 209.871471 
L 322.671202 206.042757 
L 325.916175 202.08111 
L 329.00013 197.992867 
L 331.918131 193.784569 
L 334.665511 189.462949 
L 337.237875 185.034919 
L 339.631107 180.507564 
L 341.841379 175.888127 
L 343.865155 171.183998 
L 345.699197 166.402702 
L 347.340571 161.551888 
L 348.786651 156.639317 
L 350.035124 151.672848 
L 350.305221 150.473322 
L 345.393587 149.024062 
L 340.427927 147.772375 
L 335.416185 146.720261 
L 330.366378 145.869406 
L 325.286586 145.22117 
L 320.184934 144.77659 
L 315.069585 144.536377 
L 309.948721 144.500916 
L 304.830535 144.670262 
L 299.723216 145.044147 
L 294.634933 145.62197 
L 289.573827 146.402809 
L 284.547995 147.385413 
L 280.208992 148.403564 
L 283.616601 144.580907 
L 286.868618 140.62504 
L 289.959841 136.542291 
L 292.885325 132.339191 
L 295.640391 128.022466 
L 298.220629 123.59902 
L 300.621913 119.075931 
L 302.8404 114.460434 
L 304.872543 109.759912 
L 306.715089 104.981887 
L 308.365091 100.134002 
L 309.81991 95.224012 
L 311.077218 90.259772 
L 312.135004 85.249223 
L 312.260803 84.578457 
L 307.401188 82.963326 
L 302.480873 81.543819 
L 297.507728 80.322208 
L 292.48971 79.300447 
L 287.434846 78.480171 
L 282.351223 77.862691 
L 277.246974 77.448996 
L 272.130265 77.239748 
L 267.00928 77.23528 
L 261.892213 77.435601 
L 256.78725 77.84039 
L 251.702558 78.448999 
L 246.646271 79.260454 
L 241.626477 80.273459 
L 236.651209 81.486391 
L 231.728424 82.89731 
L 226.865999 84.50396 
L 222.071712 86.30377 
L 217.353233 88.29386 
L 212.718111 90.471048 
L 208.173761 92.831849 
L 203.727453 95.372487 
L 199.386299 98.088899 
L 195.157246 100.976737 
L 191.047058 104.031382 
L 187.062311 107.247948 
L 183.20938 110.621288 
L 179.494428 114.146005 
L 175.923399 117.816462 
L 172.502006 121.626786 
L 169.235722 125.570882 
L 166.129772 129.642439 
L 163.189125 133.834944 
L 160.418486 138.14169 
L 157.822287 142.555787 
L 155.404682 147.070174 
L 153.169538 151.677628 
L 151.12043 156.370778 
L 149.260638 161.142117 
L 147.593136 165.984011 
L 146.120592 170.888714 
L 144.845362 175.848381 
L 143.769485 180.855075 
L 142.894684 185.900789 
L 142.222357 190.977449 
L 141.75358 196.076934 
L 141.489102 201.191087 
L 141.429348 206.311724 
L 141.574413 211.430656 
L 141.924065 216.539691 
L 142.477743 221.630658 
L 143.234563 226.695411 
L 144.193314 231.725848 
L 145.352462 236.713922 
L 146.533314 241.050026 
L 150.148476 244.677022 
L 153.905787 248.15655 
L 157.799237 251.483042 
L 161.822597 254.651176 
L 165.969431 257.655885 
L 170.233103 260.492362 
L 174.606794 263.156068 
L 179.083506 265.642742 
L 183.656078 267.948407 
L 188.317194 270.069373 
L 193.059398 272.002248 
L 197.875103 273.743939 
L 202.756605 275.29166 
L 207.696094 276.642935 
L 212.68567 277.795602 
L 217.717348 278.747818 
L 222.78308 279.498058 
L 227.874762 280.045123 
L 232.984247 280.388137 
L 238.103363 280.526552 
L 243.223919 280.460147 
L 248.337723 280.189027 
L 253.436595 279.713626 
L 258.512378 279.034705 
L 263.55695 278.153349 
L 268.562243 277.07097 
L 273.520249 275.789298 
L 278.423035 274.310384 
L 283.262759 272.636594 
L 288.031678 270.770605 
L 292.722163 268.715403 
L 297.326709 266.474276 
L 301.837952 264.050808 
L 306.248673 261.448878 
L 310.551816 258.672647 
L 314.740498 255.726556 
L 318.808017 252.61532 
L 319.36922 252.165404 
L 320.058389 247.091002 
L 320.544084 241.993101 
L 320.82553 236.879854 
L 320.902274 231.759443 
L 320.774196 226.640058 
L 320.4415 221.529891 
L 319.904717 216.437115 
L 319.164707 211.369878 
L 318.222653 206.336287 
L 317.080063 201.344395 
L 315.738765 196.402187 
L 314.200904 191.51757 
L 312.46894 186.698358 
L 310.545645 181.952261 
L 308.434095 177.286871 
L 306.137668 172.709653 
L 303.660038 168.227929 
L 301.005168 163.848868 
L 298.177307 159.579477 
L 295.180977 155.426585 
L 292.020973 151.396836 
L 288.70235 147.496677 
L 285.230416 143.732348 
L 281.610727 140.109869 
L 277.849072 136.635038 
L 273.95147 133.313411 
L 269.924156 130.150305 
L 265.773573 127.150777 
L 261.506361 124.319629 
L 257.129346 121.661388 
L 252.649532 119.180307 
L 248.074084 116.880355 
L 243.410322 114.765213 
L 238.665708 112.838263 
L 233.847831 111.102588 
L 228.9644 109.560965 
L 224.023226 108.215861 
L 219.032215 107.069427 
L 213.999351 106.123497 
L 208.932686 105.379584 
L 203.840325 104.83888 
L 198.730415 104.502247 
L 193.611131 104.370226 
L 188.490662 104.443028 
L 183.3772 104.720535 
L 178.278926 105.202304 
L 173.203995 105.887565 
L 168.160527 106.77522 
L 163.15659 107.86385 
L 158.200189 109.151714 
L 153.299254 110.636751 
L 148.461624 112.316585 
L 143.69504 114.188528 
L 142.729152 114.594975 
L 143.449821 119.664999 
L 144.37266 124.702148 
L 145.496194 129.698364 
L 146.818624 134.645654 
L 148.337835 139.536104 
L 150.051397 144.36189 
L 151.956568 149.115291 
L 154.0503 153.788704 
L 156.329244 158.374651 
L 158.789755 162.865797 
L 161.427895 167.254956 
L 164.239445 171.535107 
L 167.219906 175.699402 
L 170.36451 179.74118 
L 173.668227 183.653974 
L 177.125771 187.431524 
L 180.731611 191.067789 
L 184.479979 194.556949 
L 188.364878 197.893424 
L 192.347468 201.047086 
L 193.303125 206.078111 
L 194.459205 211.066897 
L 195.813858 216.005461 
L 197.364918 220.885903 
L 199.109903 225.700416 
L 201.046021 230.441296 
L 203.170175 235.100961 
L 205.478966 239.671954 
L 207.968702 244.146964 
L 210.635399 248.518832 
L 213.474792 252.780564 
L 216.482336 256.925341 
L 219.653222 260.946533 
L 222.982377 264.837706 
L 226.464473 268.592637 
L 230.093942 272.205317 
L 233.864976 275.669968 
L 237.771543 278.981046 
L 241.807393 282.133254 
L 246.383782 285.408 
L 250.554248 282.436179 
L 254.602536 279.299961 
L 258.522171 276.004363 
L 262.306881 272.554657 
L 265.950613 268.956363 
L 269.447537 265.215237 
L 272.792059 261.337264 
L 275.978827 257.328647 
L 279.002745 253.1958 
L 281.858974 248.945335 
L 284.542945 244.584051 
L 287.050365 240.118925 
L 289.377221 235.5571 
L 291.519792 230.905876 
L 293.47465 226.172691 
L 295.238667 221.36512 
L 296.809021 216.490852 
L 298.183201 211.557685 
L 299.359007 206.573512 
L 300.334559 201.546306 
L 301.108296 196.48411 
L 301.678981 191.395021 
L 302.045699 186.287182 
L 302.207865 181.168764 
L 302.16522 176.047955 
L 301.917831 170.932948 
L 301.466093 165.831925 
L 300.810731 160.753047 
L 299.952792 155.704439 
L 298.893649 150.694178 
L 297.634996 145.730279 
L 296.178846 140.820683 
L 294.52753 135.973245 
L 292.683689 131.195719 
L 290.650273 126.495748 
L 288.430535 121.880853 
L 286.028025 117.358414 
L 283.446589 112.935668 
L 280.690354 108.619689 
L 277.763731 104.417383 
L 274.671401 100.335471 
L 271.418312 96.380486 
L 268.009668 92.558752 
L 264.450922 88.876385 
L 260.747767 85.339275 
L 256.906127 81.953081 
L 252.932149 78.723221 
L 248.83219 75.654861 
L 244.612808 72.752909 
L 240.280755 70.02201 
L 235.842959 67.46653 
L 231.306522 65.09056 
L 228.316405 63.648 
L 223.719889 65.905552 
L 219.217327 68.34511 
L 214.815923 70.96277 
L 210.522719 73.754346 
L 206.344582 76.715372 
L 202.288196 79.84111 
L 198.360051 83.12656 
L 194.566432 86.566465 
L 190.913406 90.155324 
L 187.406818 93.887394 
L 184.052279 97.756704 
L 180.855153 101.757066 
L 177.820557 105.882078 
L 174.953345 110.125143 
L 172.258104 114.479471 
L 169.739145 118.938097 
L 167.400498 123.493889 
L 165.245906 128.139557 
L 163.278813 132.86767 
L 161.502369 137.670663 
L 159.919414 142.540854 
L 158.53248 147.47045 
L 157.343788 152.451565 
L 156.355238 157.476231 
L 155.568411 162.53641 
L 154.984567 167.624005 
L 154.60464 172.730879 
L 154.429237 177.84886 
L 154.458639 182.969762 
L 154.692799 188.085393 
L 155.131342 193.187567 
L 155.773567 198.268123 
L 156.618447 203.318933 
L 157.664629 208.331916 
L 158.91044 213.299054 
L 160.353887 218.212399 
L 161.992661 223.064092 
L 163.82414 227.84637 
L 165.845394 232.551584 
L 168.05319 237.172205 
L 170.443995 241.700842 
L 173.013985 246.130249 
L 175.759049 250.453342 
L 178.674794 254.663203 
L 181.756557 258.753098 
L 184.999406 262.716484 
L 188.398155 266.54702 
L 191.947366 270.238579 
L 195.641361 273.785254 
L 199.47423 277.181371 
L 203.439842 280.421499 
L 207.531852 283.500452 
L 210.249027 285.408 
L 214.419492 282.436179 
L 218.467781 279.299961 
L 222.387415 276.004363 
L 226.172126 272.554657 
L 229.815858 268.956363 
L 233.312782 265.215237 
L 236.657303 261.337264 
L 239.844072 257.328647 
L 242.86799 253.1958 
L 245.724219 248.945335 
L 248.40819 244.584051 
L 250.91561 240.118925 
L 253.242466 235.5571 
L 255.385037 230.905876 
L 257.339895 226.172691 
L 259.103912 221.36512 
L 259.533428 220.09644 
L 264.452554 221.520064 
L 269.424674 222.745836 
L 274.441836 223.771796 
L 279.496011 224.596303 
L 284.579115 225.218036 
L 289.683016 225.636003 
L 294.799549 225.849533 
L 299.920528 225.858287 
L 305.037761 225.662248 
L 310.143061 225.261732 
L 315.228261 224.657378 
L 320.285225 223.850154 
L 325.305865 222.841351 
L 330.282147 221.632583 
L 335.20611 220.225784 
L 338.403829 219.196493 
L 337.290929 214.197898 
L 335.979027 209.247805 
L 334.470225 204.354134 
L 332.766935 199.524713 
L 330.871881 194.767269 
L 328.788097 190.089412 
L 326.518915 185.498626 
L 324.067966 181.002256 
L 321.43917 176.607494 
L 318.636733 172.32137 
L 315.665139 168.150743 
L 312.529142 164.102284 
L 309.233757 160.18247 
L 305.784258 156.397572 
L 302.186162 152.753644 
L 298.445226 149.256516 
L 294.567435 145.911784 
L 290.558992 142.724797 
L 286.42631 139.700654 
L 282.176 136.844193 
L 277.814862 134.159985 
L 273.349873 131.652322 
L 268.788175 129.325217 
L 264.137067 127.182393 
L 259.403989 125.227278 
L 254.596513 123.462999 
L 249.722331 121.892379 
L 244.789239 120.517931 
L 239.80513 119.341853 
L 234.777977 118.366027 
L 229.715823 117.592015 
L 224.626765 117.021053 
L 219.518946 116.654057 
L 214.400537 116.491612 
L 209.279726 116.533979 
L 204.164705 116.781089 
L 199.063658 117.232549 
L 193.984744 117.887635 
L 188.936089 118.745299 
L 183.92577 119.804169 
L 178.961803 121.062552 
L 174.052128 122.518434 
L 169.2046 124.169486 
L 164.426973 126.013067 
L 159.726892 128.046227 
L 155.111876 130.265714 
L 150.589306 132.667977 
L 146.166419 135.249173 
L 141.850291 138.005173 
L 137.647825 140.931568 
L 133.565745 144.023675 
L 129.610582 147.276549 
L 125.788663 150.684985 
L 122.106102 154.24353 
L 118.568791 157.946493 
L 116.103302 160.712301 
L 114.523483 165.583509 
L 113.139723 170.513997 
L 111.954238 175.495877 
L 111.115019 179.70374 
L 115.970376 181.331627 
L 120.886947 182.764049 
L 125.856866 183.998715 
L 130.872184 185.033649 
L 135.924877 185.867196 
L 141.00686 186.498023 
L 146.110006 186.92512 
L 151.226148 187.147804 
L 156.347103 187.165719 
L 161.464678 186.978836 
L 166.570687 186.587454 
L 171.65696 185.992199 
L 176.715361 185.194024 
L 181.737797 184.194205 
L 185.696177 183.257401 
L 180.608607 183.84147 
L 175.548464 184.62852 
L 170.523841 185.617292 
L 165.542778 186.806204 
L 160.613243 188.193355 
L 155.743123 189.776526 
L 150.940208 191.553182 
L 146.212182 193.520483 
L 141.566609 195.675281 
L 137.010921 198.014129 
L 132.552406 200.533285 
L 128.198197 203.228719 
L 125.667404 204.90921 
L 126.243374 204.6298 
L 130.79938 202.291572 
L 135.258238 199.773022 
L 139.612813 197.07818 
L 143.856141 194.211357 
L 147.981432 191.17714 
L 151.982087 187.980382 
L 155.851705 184.626197 
L 159.584097 181.119952 
L 163.173291 177.467256 
L 166.613545 173.673952 
L 169.899355 169.746109 
L 173.025465 165.69001 
L 175.986874 161.512145 
L 178.778844 157.219196 
L 181.396909 152.818033 
L 183.83688 148.315695 
L 186.094853 143.719386 
L 188.167218 139.036459 
L 190.050657 134.274405 
L 191.742158 129.440843 
L 193.239016 124.543505 
L 194.538835 119.590226 
L 195.639536 114.58893 
L 196.539358 109.547618 
L 197.236861 104.474356 
L 197.73093 99.377259 
L 198.020775 94.264482 
L 198.105931 89.144203 
L 197.986262 84.024615 
L 197.66196 78.913908 
L 197.133544 73.820257 
L 196.401859 68.751812 
L 195.453892 63.648 
L 194.517351 68.682619 
L 193.78289 73.750663 
L 193.251684 78.844024 
L 192.924582 83.954553 
L 192.80211 89.074074 
L 192.884461 94.194399 
L 193.171505 99.307334 
L 193.662782 104.404701 
L 194.357507 109.478344 
L 195.254567 114.520148 
L 196.352528 119.522046 
L 197.649634 124.476036 
L 199.143809 129.374193 
L 200.832662 134.208681 
L 201.748727 136.598274 
L 197.144853 134.355764 
L 192.454986 132.299153 
L 187.686627 130.431733 
L 182.847406 128.756489 
L 177.945064 127.276103 
L 172.987444 125.992943 
L 167.982476 124.90906 
L 162.938168 124.02619 
L 157.86259 123.345745 
L 152.763861 122.868813 
L 147.650138 122.596157 
L 142.529602 122.528214 
L 138.087103 122.635241 
L 140.551922 127.124023 
L 143.194273 131.510649 
L 146.009929 135.788099 
L 148.994385 139.949532 
L 152.142867 143.98829 
L 155.450337 147.897912 
L 158.911505 151.672142 
L 162.520834 155.304944 
L 166.272549 158.790506 
L 170.160648 162.123251 
L 174.178911 165.297847 
L 178.32091 168.309217 
L 182.580018 171.152542 
L 184.981171 172.649888 
L 180.470433 175.074295 
L 176.060254 177.677144 
L 171.757689 180.454271 
L 167.569621 183.401233 
L 163.50275 186.513316 
L 159.563582 189.785542 
L 155.758419 193.212674 
L 152.093349 196.789231 
L 148.574234 200.509492 
L 145.206705 204.367503 
L 141.996149 208.357093 
L 138.947703 212.471881 
L 136.066242 216.705282 
L 134.190389 219.671452 
L 139.305814 219.432852 
L 144.407605 218.989881 
L 149.487602 218.343247 
L 154.537677 217.493984 
L 159.54975 216.443451 
L 164.515805 215.193329 
L 169.427895 213.745618 
L 174.278164 212.102634 
L 179.058851 210.267005 
L 183.762308 208.241668 
L 188.381011 206.029862 
L 192.907571 203.635127 
L 193.714159 203.183723 
L 193.214908 203.584423 
L 189.294289 206.87885 
L 185.508548 210.327424 
L 181.863742 213.92463 
L 178.3657 217.664711 
L 175.02002 221.541685 
L 171.832054 225.549349 
L 168.806902 229.681293 
L 165.949403 233.930905 
L 163.264129 238.291387 
L 160.755376 242.755764 
L 158.427157 247.316893 
L 156.283197 251.967477 
L 154.832445 255.424542 
L 159.916043 256.042219 
L 165.020276 256.456113 
L 170.136978 256.665561 
L 175.257962 256.670228 
L 180.375037 256.470106 
L 185.480015 256.065516 
L 190.564731 255.457105 
L 195.62105 254.645846 
L 200.640883 253.633037 
L 205.616199 252.420299 
L 210.539038 251.009571 
L 215.401526 249.40311 
L 220.195883 247.603487 
L 224.914439 245.61358 
L 229.549646 243.436573 
L 234.094088 241.075949 
L 238.540495 238.535483 
L 242.881754 235.819241 
L 247.11092 232.931567 
L 251.221227 229.877082 
L 255.206099 226.660672 
L 259.059161 223.287482 
L 262.77425 219.762908 
L 266.345422 216.09259 
L 266.917824 215.476213 
L 271.45347 213.098732 
L 275.890415 210.541776 
L 280.221559 207.809434 
L 284.439974 204.906079 
L 288.538912 201.836354 
L 292.511815 198.605171 
L 296.352327 195.217699 
L 300.054305 191.679357 
L 303.611825 187.995805 
L 307.019197 184.172937 
L 310.270969 180.216869 
L 313.36194 176.133928 
L 316.287164 171.930648 
L 319.041962 167.613752 
L 321.621927 163.190147 
L 324.022931 158.666909 
L 326.241133 154.051274 
L 328.272985 149.350628 
L 330.115235 144.572488 
L 331.764938 139.724501 
L 333.219453 134.814421 
L 334.476453 129.850103 
L 335.526884 124.876491 
L 330.65836 123.288418 
L 325.730225 121.896303 
L 320.750362 120.702375 
L 315.726737 119.708543 
L 310.667389 118.916398 
L 305.58041 118.327206 
L 300.473939 117.941911 
L 295.356144 117.761128 
L 290.235214 117.785146 
L 285.119341 118.013929 
L 280.016708 118.447108 
L 274.93548 119.083992 
L 269.883785 119.923562 
L 264.869704 120.964473 
L 259.90126 122.205062 
L 254.9864 123.643344 
L 250.162927 125.266271 
L 246.89355 121.32474 
L 243.469168 117.517101 
L 239.895261 113.849447 
L 236.177545 110.327644 
L 232.321969 106.957328 
L 228.3347 103.743889 
L 224.222117 100.69247 
L 219.990799 97.80795 
L 215.647516 95.094945 
L 211.199216 92.557796 
L 206.653015 90.20056 
L 202.016187 88.02701 
L 197.296148 86.040621 
L 192.500451 84.244573 
L 187.636767 82.641738 
L 182.712877 81.234681 
L 177.736658 80.025653 
L 172.716072 79.016587 
L 167.659149 78.209098 
L 163.999755 77.753211 
L 167.111685 81.820199 
L 170.383762 85.75949 
L 173.810752 89.564782 
L 177.387171 93.229986 
L 181.107299 96.749241 
L 184.965184 100.116915 
L 188.954653 103.327621 
L 193.069326 106.376222 
L 197.302619 109.257842 
L 201.64776 111.96787 
L 206.097797 114.501972 
L 210.645612 116.856092 
L 215.283929 119.026465 
L 220.005327 121.009619 
L 224.802254 122.802381 
L 228.189372 123.938782 
L 232.289863 120.871133 
L 236.264401 117.641961 
L 240.106627 114.256433 
L 243.810395 110.719965 
L 247.36978 107.038215 
L 250.779086 103.217072 
L 254.032861 99.26265 
L 257.125898 95.181275 
L 260.053249 90.979476 
L 262.810232 86.663975 
L 265.392435 82.241676 
L 267.795728 77.719654 
L 270.016267 73.105143 
L 272.050497 68.405525 
L 273.888014 63.648 
L 275.733464 68.424904 
L 277.768463 73.124189 
L 279.989756 77.738337 
L 282.393789 82.259966 
L 284.976716 86.681843 
L 287.734404 90.996893 
L 290.662443 95.198213 
L 293.756147 99.279082 
L 297.010568 103.232972 
L 300.4205 107.053557 
L 303.980486 110.734725 
L 307.684833 114.270587 
L 311.527613 117.655486 
L 315.502679 120.884008 
L 319.603671 123.950987 
L 323.82403 126.851517 
L 328.157004 129.580957 
L 332.59566 132.134941 
L 337.132897 134.509383 
L 341.761458 136.700485 
L 342.558187 137.055066 
L 342.106702 142.156112 
L 341.859565 147.271131 
L 341.817173 152.391942 
L 341.979592 157.510352 
L 342.346562 162.618173 
L 342.917498 167.707233 
L 343.691485 172.769392 
L 344.667286 177.796549 
L 345.843338 182.780664 
L 347.217761 187.713763 
L 348.788356 192.587954 
L 350.72977 197.847338 
L 345.680954 198.704057 
L 340.670437 199.761989 
L 335.706234 201.019442 
L 330.796286 202.474405 
L 325.948449 204.124549 
L 321.170478 205.967236 
L 316.470016 207.999516 
L 311.854584 210.218139 
L 307.331565 212.619555 
L 302.908195 215.199923 
L 298.59155 217.955114 
L 294.388537 220.880721 
L 290.305878 223.972064 
L 286.350106 227.224197 
L 282.527549 230.631918 
L 278.844321 234.189774 
L 275.306317 237.892074 
L 271.919195 241.732894 
L 268.688374 245.706092 
L 265.619022 249.80531 
L 262.716051 254.02399 
L 259.984105 258.355383 
L 257.427553 262.792561 
L 255.050486 267.328424 
L 252.856706 271.955716 
L 250.849724 276.667034 
L 249.032749 281.454842 
L 247.694527 285.408 
L 246.034566 280.563515 
L 244.182205 275.789286 
L 242.140408 271.092951 
L 239.912441 266.482023 
L 237.501867 261.963877 
L 234.912545 257.545743 
L 232.148615 253.234688 
L 229.2145 249.037609 
L 226.114893 244.961221 
L 222.854754 241.012045 
L 219.439297 237.196398 
L 215.873988 233.520386 
L 212.164529 229.989888 
L 208.316854 226.610553 
L 204.337121 223.387786 
L 200.231694 220.326745 
L 196.007142 217.432326 
L 191.670224 214.709158 
L 187.227877 212.1616 
L 182.687208 209.793726 
L 178.055481 207.609324 
L 173.340107 205.611889 
L 168.548628 203.804616 
L 163.688711 202.190397 
L 158.768129 200.771815 
L 153.794755 199.551137 
L 148.776545 198.530318 
L 143.721527 197.710991 
L 138.637789 197.094466 
L 133.533462 196.681729 
L 128.416713 196.473441 
L 123.295728 196.469934 
L 120.836073 196.5411 
L 120.836073 196.5411 
" style="fill:none;stroke:#1f77b4;stroke-linecap:square;stroke-width:1.5;"/>
   </g>
   <g id="patch_4">
    <path d="M 82.520165 307.584 
L 82.520165 41.472 
" style="fill:none;stroke:#000000;stroke-linecap:square;stroke-linejoin:miter;stroke-width:0.8;"/>
   </g>
   <g id="patch_5">
    <path d="M 389.799835 307.584 
L 389.799835 41.472 
" style="fill:none;stroke:#000000;stroke-linecap:square;stroke-linejoin:miter;stroke-width:0.8;"/>
   </g>
   <g id="patch_6">
    <path d="M 82.520165 307.584 
L 389.799835 307.584 
" style="fill:none;stroke:#000000;stroke-linecap:square;stroke-linejoin:miter;stroke-width:0.8;"/>
   </g>
   <g id="patch_7">
    <path d="M 82.520165 41.472 
L 389.799835 41.472 
" style="fill:none;stroke:#000000;stroke-linecap:square;stroke-linejoin:miter;stroke-width:0.8;"/>
   </g>
  </g>
 </g>
 <defs>
  <clipPath id="p76e3e10952">
   <rect height="266.112" width="307.27967" x="82.520165" y="41.472"/>
  </clipPath>
 </defs>
</svg>
