<?xml version="1.0" encoding="utf-8" standalone="no"?>
<!DOCTYPE svg PUBLIC "-//W3C//DTD SVG 1.1//EN"
  "http://www.w3.org/Graphics/SVG/1.1/DTD/svg11.dtd">
<!-- Created with matplotlib (https://matplotlib.org/) -->
<svg height="345.6pt" version="1.1" viewBox="0 0 460.8 345.6" width="460.8pt" xmlns="http://www.w3.org/2000/svg" xmlns:xlink="http://www.w3.org/1999/xlink">
 <defs>
  <style type="text/css">
*{stroke-linecap:butt;stroke-linejoin:round;}
  </style>
 </defs>
 <g id="figure_1">
  <g id="patch_1">
   <path d="M 0 345.6 
L 460.8 345.6 
L 460.8 0 
L 0 0 
z
" style="fill:#ffffff;"/>
  </g>
  <g id="axes_1">
   <g id="patch_2">
    <path d="M 82.520165 307.584 
L 389.799835 307.584 
L 389.799835 41.472 
L 82.520165 41.472 
z
" style="fill:#ffffff;"/>
   </g>
   <g id="PathCollection_1">
    <defs>
     <path d="M 0 2.236068 
C 0.593012 2.236068 1.161816 2.000462 1.581139 1.581139 
C 2.000462 1.161816 2.236068 0.593012 2.236068 0 
C 2.236068 -0.593012 2.000462 -1.161816 1.581139 -1.581139 
C 1.161816 -2.000462 0.593012 -2.236068 0 -2.236068 
C -0.593012 -2.236068 -1.161816 -2.000462 -1.581139 -1.581139 
C -2.000462 -1.161816 -2.236068 -0.593012 -2.236068 0 
C -2.236068 0.593012 -2.000462 1.161816 -1.581139 1.581139 
C -1.161816 2.000462 -0.593012 2.236068 0 2.236068 
z
" id="ma508f82e2a" style="stroke:#000000;"/>
    </defs>
    <g clip-path="url(#p17fb662699)">
     <use style="stroke:#000000;" x="253.271669" xlink:href="#ma508f82e2a" y="63.648"/>
    </g>
   </g>
   <g id="Quiver_1">
    <path clip-path="url(#p17fb662699)" d="M 253.789382 63.979144 
L 250.1468 69.673989 
L 251.51337 69.818563 
L 246.648792 74.002264 
L 248.407091 67.8317 
L 249.111373 69.011701 
L 252.753956 63.316856 
L 253.789382 63.979144 
"/>
   </g>
   <g id="patch_3">
    <path clip-path="url(#p17fb662699)" d="M 236.16 225.741278 
C 249.74192 225.741278 262.769389 220.345124 272.373256 210.741256 
C 281.977124 201.137389 287.373278 188.10992 287.373278 174.528 
C 287.373278 160.94608 281.977124 147.918611 272.373256 138.314744 
C 262.769389 128.710876 249.74192 123.314722 236.16 123.314722 
C 222.57808 123.314722 209.550611 128.710876 199.946744 138.314744 
C 190.342876 147.918611 184.946722 160.94608 184.946722 174.528 
C 184.946722 188.10992 190.342876 201.137389 199.946744 210.741256 
C 209.550611 220.345124 222.57808 225.741278 236.16 225.741278 
z
" style="fill:#009900;fill-opacity:0.5;stroke:#009900;stroke-linejoin:miter;stroke-width:2;"/>
   </g>
   <g id="matplotlib.axis_1">
    <g id="xtick_1">
     <g id="line2d_1">
      <defs>
       <path d="M 0 0 
L 0 3.5 
" id="m8fb7d62e75" style="stroke:#000000;stroke-width:0.8;"/>
      </defs>
      <g>
       <use style="stroke:#000000;stroke-width:0.8;" x="108.126804" xlink:href="#m8fb7d62e75" y="307.584"/>
      </g>
     </g>
     <g id="text_1">
      <!-- −2 -->
      <defs>
       <path d="M 10.59375 35.5 
L 73.1875 35.5 
L 73.1875 27.203125 
L 10.59375 27.203125 
z
" id="DejaVuSans-8722"/>
       <path d="M 19.1875 8.296875 
L 53.609375 8.296875 
L 53.609375 0 
L 7.328125 0 
L 7.328125 8.296875 
Q 12.9375 14.109375 22.625 23.890625 
Q 32.328125 33.6875 34.8125 36.53125 
Q 39.546875 41.84375 41.421875 45.53125 
Q 43.3125 49.21875 43.3125 52.78125 
Q 43.3125 58.59375 39.234375 62.25 
Q 35.15625 65.921875 28.609375 65.921875 
Q 23.96875 65.921875 18.8125 64.3125 
Q 13.671875 62.703125 7.8125 59.421875 
L 7.8125 69.390625 
Q 13.765625 71.78125 18.9375 73 
Q 24.125 74.21875 28.421875 74.21875 
Q 39.75 74.21875 46.484375 68.546875 
Q 53.21875 62.890625 53.21875 53.421875 
Q 53.21875 48.921875 51.53125 44.890625 
Q 49.859375 40.875 45.40625 35.40625 
Q 44.1875 33.984375 37.640625 27.21875 
Q 31.109375 20.453125 19.1875 8.296875 
z
" id="DejaVuSans-50"/>
      </defs>
      <g transform="translate(100.755711 322.182437)scale(0.1 -0.1)">
       <use xlink:href="#DejaVuSans-8722"/>
       <use x="83.789062" xlink:href="#DejaVuSans-50"/>
      </g>
     </g>
    </g>
    <g id="xtick_2">
     <g id="line2d_2">
      <g>
       <use style="stroke:#000000;stroke-width:0.8;" x="172.143402" xlink:href="#m8fb7d62e75" y="307.584"/>
      </g>
     </g>
     <g id="text_2">
      <!-- −1 -->
      <defs>
       <path d="M 12.40625 8.296875 
L 28.515625 8.296875 
L 28.515625 63.921875 
L 10.984375 60.40625 
L 10.984375 69.390625 
L 28.421875 72.90625 
L 38.28125 72.90625 
L 38.28125 8.296875 
L 54.390625 8.296875 
L 54.390625 0 
L 12.40625 0 
z
" id="DejaVuSans-49"/>
      </defs>
      <g transform="translate(164.772308 322.182437)scale(0.1 -0.1)">
       <use xlink:href="#DejaVuSans-8722"/>
       <use x="83.789062" xlink:href="#DejaVuSans-49"/>
      </g>
     </g>
    </g>
    <g id="xtick_3">
     <g id="line2d_3">
      <g>
       <use style="stroke:#000000;stroke-width:0.8;" x="236.16" xlink:href="#m8fb7d62e75" y="307.584"/>
      </g>
     </g>
     <g id="text_3">
      <!-- 0 -->
      <defs>
       <path d="M 31.78125 66.40625 
Q 24.171875 66.40625 20.328125 58.90625 
Q 16.5 51.421875 16.5 36.375 
Q 16.5 21.390625 20.328125 13.890625 
Q 24.171875 6.390625 31.78125 6.390625 
Q 39.453125 6.390625 43.28125 13.890625 
Q 47.125 21.390625 47.125 36.375 
Q 47.125 51.421875 43.28125 58.90625 
Q 39.453125 66.40625 31.78125 66.40625 
z
M 31.78125 74.21875 
Q 44.046875 74.21875 50.515625 64.515625 
Q 56.984375 54.828125 56.984375 36.375 
Q 56.984375 17.96875 50.515625 8.265625 
Q 44.046875 -1.421875 31.78125 -1.421875 
Q 19.53125 -1.421875 13.0625 8.265625 
Q 6.59375 17.96875 6.59375 36.375 
Q 6.59375 54.828125 13.0625 64.515625 
Q 19.53125 74.21875 31.78125 74.21875 
z
" id="DejaVuSans-48"/>
      </defs>
      <g transform="translate(232.97875 322.182437)scale(0.1 -0.1)">
       <use xlink:href="#DejaVuSans-48"/>
      </g>
     </g>
    </g>
    <g id="xtick_4">
     <g id="line2d_4">
      <g>
       <use style="stroke:#000000;stroke-width:0.8;" x="300.176598" xlink:href="#m8fb7d62e75" y="307.584"/>
      </g>
     </g>
     <g id="text_4">
      <!-- 1 -->
      <g transform="translate(296.995348 322.182437)scale(0.1 -0.1)">
       <use xlink:href="#DejaVuSans-49"/>
      </g>
     </g>
    </g>
    <g id="xtick_5">
     <g id="line2d_5">
      <g>
       <use style="stroke:#000000;stroke-width:0.8;" x="364.193196" xlink:href="#m8fb7d62e75" y="307.584"/>
      </g>
     </g>
     <g id="text_5">
      <!-- 2 -->
      <g transform="translate(361.011946 322.182437)scale(0.1 -0.1)">
       <use xlink:href="#DejaVuSans-50"/>
      </g>
     </g>
    </g>
   </g>
   <g id="matplotlib.axis_2">
    <g id="ytick_1">
     <g id="line2d_6">
      <defs>
       <path d="M 0 0 
L -3.5 0 
" id="m825607a60e" style="stroke:#000000;stroke-width:0.8;"/>
      </defs>
      <g>
       <use style="stroke:#000000;stroke-width:0.8;" x="82.520165" xlink:href="#m825607a60e" y="302.561196"/>
      </g>
     </g>
     <g id="text_6">
      <!-- −2.0 -->
      <defs>
       <path d="M 10.6875 12.40625 
L 21 12.40625 
L 21 0 
L 10.6875 0 
z
" id="DejaVuSans-46"/>
      </defs>
      <g transform="translate(51.237353 306.360414)scale(0.1 -0.1)">
       <use xlink:href="#DejaVuSans-8722"/>
       <use x="83.789062" xlink:href="#DejaVuSans-50"/>
       <use x="147.412109" xlink:href="#DejaVuSans-46"/>
       <use x="179.199219" xlink:href="#DejaVuSans-48"/>
      </g>
     </g>
    </g>
    <g id="ytick_2">
     <g id="line2d_7">
      <g>
       <use style="stroke:#000000;stroke-width:0.8;" x="82.520165" xlink:href="#m825607a60e" y="270.552897"/>
      </g>
     </g>
     <g id="text_7">
      <!-- −1.5 -->
      <defs>
       <path d="M 10.796875 72.90625 
L 49.515625 72.90625 
L 49.515625 64.59375 
L 19.828125 64.59375 
L 19.828125 46.734375 
Q 21.96875 47.46875 24.109375 47.828125 
Q 26.265625 48.1875 28.421875 48.1875 
Q 40.625 48.1875 47.75 41.5 
Q 54.890625 34.8125 54.890625 23.390625 
Q 54.890625 11.625 47.5625 5.09375 
Q 40.234375 -1.421875 26.90625 -1.421875 
Q 22.3125 -1.421875 17.546875 -0.640625 
Q 12.796875 0.140625 7.71875 1.703125 
L 7.71875 11.625 
Q 12.109375 9.234375 16.796875 8.0625 
Q 21.484375 6.890625 26.703125 6.890625 
Q 35.15625 6.890625 40.078125 11.328125 
Q 45.015625 15.765625 45.015625 23.390625 
Q 45.015625 31 40.078125 35.4375 
Q 35.15625 39.890625 26.703125 39.890625 
Q 22.75 39.890625 18.8125 39.015625 
Q 14.890625 38.140625 10.796875 36.28125 
z
" id="DejaVuSans-53"/>
      </defs>
      <g transform="translate(51.237353 274.352116)scale(0.1 -0.1)">
       <use xlink:href="#DejaVuSans-8722"/>
       <use x="83.789062" xlink:href="#DejaVuSans-49"/>
       <use x="147.412109" xlink:href="#DejaVuSans-46"/>
       <use x="179.199219" xlink:href="#DejaVuSans-53"/>
      </g>
     </g>
    </g>
    <g id="ytick_3">
     <g id="line2d_8">
      <g>
       <use style="stroke:#000000;stroke-width:0.8;" x="82.520165" xlink:href="#m825607a60e" y="238.544598"/>
      </g>
     </g>
     <g id="text_8">
      <!-- −1.0 -->
      <g transform="translate(51.237353 242.343817)scale(0.1 -0.1)">
       <use xlink:href="#DejaVuSans-8722"/>
       <use x="83.789062" xlink:href="#DejaVuSans-49"/>
       <use x="147.412109" xlink:href="#DejaVuSans-46"/>
       <use x="179.199219" xlink:href="#DejaVuSans-48"/>
      </g>
     </g>
    </g>
    <g id="ytick_4">
     <g id="line2d_9">
      <g>
       <use style="stroke:#000000;stroke-width:0.8;" x="82.520165" xlink:href="#m825607a60e" y="206.536299"/>
      </g>
     </g>
     <g id="text_9">
      <!-- −0.5 -->
      <g transform="translate(51.237353 210.335518)scale(0.1 -0.1)">
       <use xlink:href="#DejaVuSans-8722"/>
       <use x="83.789062" xlink:href="#DejaVuSans-48"/>
       <use x="147.412109" xlink:href="#DejaVuSans-46"/>
       <use x="179.199219" xlink:href="#DejaVuSans-53"/>
      </g>
     </g>
    </g>
    <g id="ytick_5">
     <g id="line2d_10">
      <g>
       <use style="stroke:#000000;stroke-width:0.8;" x="82.520165" xlink:href="#m825607a60e" y="174.528"/>
      </g>
     </g>
     <g id="text_10">
      <!-- 0.0 -->
      <g transform="translate(59.61704 178.327219)scale(0.1 -0.1)">
       <use xlink:href="#DejaVuSans-48"/>
       <use x="63.623047" xlink:href="#DejaVuSans-46"/>
       <use x="95.410156" xlink:href="#DejaVuSans-48"/>
      </g>
     </g>
    </g>
    <g id="ytick_6">
     <g id="line2d_11">
      <g>
       <use style="stroke:#000000;stroke-width:0.8;" x="82.520165" xlink:href="#m825607a60e" y="142.519701"/>
      </g>
     </g>
     <g id="text_11">
      <!-- 0.5 -->
      <g transform="translate(59.61704 146.31892)scale(0.1 -0.1)">
       <use xlink:href="#DejaVuSans-48"/>
       <use x="63.623047" xlink:href="#DejaVuSans-46"/>
       <use x="95.410156" xlink:href="#DejaVuSans-53"/>
      </g>
     </g>
    </g>
    <g id="ytick_7">
     <g id="line2d_12">
      <g>
       <use style="stroke:#000000;stroke-width:0.8;" x="82.520165" xlink:href="#m825607a60e" y="110.511402"/>
      </g>
     </g>
     <g id="text_12">
      <!-- 1.0 -->
      <g transform="translate(59.61704 114.310621)scale(0.1 -0.1)">
       <use xlink:href="#DejaVuSans-49"/>
       <use x="63.623047" xlink:href="#DejaVuSans-46"/>
       <use x="95.410156" xlink:href="#DejaVuSans-48"/>
      </g>
     </g>
    </g>
    <g id="ytick_8">
     <g id="line2d_13">
      <g>
       <use style="stroke:#000000;stroke-width:0.8;" x="82.520165" xlink:href="#m825607a60e" y="78.503103"/>
      </g>
     </g>
     <g id="text_13">
      <!-- 1.5 -->
      <g transform="translate(59.61704 82.302322)scale(0.1 -0.1)">
       <use xlink:href="#DejaVuSans-49"/>
       <use x="63.623047" xlink:href="#DejaVuSans-46"/>
       <use x="95.410156" xlink:href="#DejaVuSans-53"/>
      </g>
     </g>
    </g>
    <g id="ytick_9">
     <g id="line2d_14">
      <g>
       <use style="stroke:#000000;stroke-width:0.8;" x="82.520165" xlink:href="#m825607a60e" y="46.494804"/>
      </g>
     </g>
     <g id="text_14">
      <!-- 2.0 -->
      <g transform="translate(59.61704 50.294023)scale(0.1 -0.1)">
       <use xlink:href="#DejaVuSans-50"/>
       <use x="63.623047" xlink:href="#DejaVuSans-46"/>
       <use x="95.410156" xlink:href="#DejaVuSans-48"/>
      </g>
     </g>
    </g>
   </g>
   <g id="line2d_15">
    <path clip-path="url(#p17fb662699)" d="M 300.176598 63.648 
L 172.143402 63.648 
" style="fill:none;stroke:#009900;stroke-linecap:square;stroke-width:2;"/>
   </g>
   <g id="line2d_16">
    <path clip-path="url(#p17fb662699)" d="M 172.143402 63.648 
L 108.126804 174.528 
" style="fill:none;stroke:#009900;stroke-linecap:square;stroke-width:2;"/>
   </g>
   <g id="line2d_17">
    <path clip-path="url(#p17fb662699)" d="M 108.126804 174.528 
L 172.143402 285.408 
" style="fill:none;stroke:#009900;stroke-linecap:square;stroke-width:2;"/>
   </g>
   <g id="line2d_18">
    <path clip-path="url(#p17fb662699)" d="M 172.143402 285.408 
L 300.176598 285.408 
" style="fill:none;stroke:#009900;stroke-linecap:square;stroke-width:2;"/>
   </g>
   <g id="line2d_19">
    <path clip-path="url(#p17fb662699)" d="M 300.176598 285.408 
L 364.193196 174.528 
" style="fill:none;stroke:#009900;stroke-linecap:square;stroke-width:2;"/>
   </g>
   <g id="line2d_20">
    <path clip-path="url(#p17fb662699)" d="M 364.193196 174.528 
L 300.176598 63.648 
" style="fill:none;stroke:#009900;stroke-linecap:square;stroke-width:2;"/>
   </g>
   <g id="line2d_21">
    <path clip-path="url(#p17fb662699)" d="M 129.40094 192.0132 
L 124.475126 190.612894 
L 119.497255 189.410688 
L 116.341689 188.756598 
L 117.912654 183.882527 
L 119.287451 178.949532 
L 120.463881 173.965506 
L 121.440063 168.938423 
L 122.214433 163.876323 
L 122.785755 158.787306 
L 123.153113 153.679513 
L 123.31955 148.213393 
L 127.678126 145.525027 
L 131.925711 142.664516 
L 136.055508 139.636434 
L 140.06091 136.445626 
L 143.935511 133.097198 
L 147.67311 129.596505 
L 151.26773 125.949148 
L 154.713619 122.160962 
L 158.005264 118.238008 
L 161.1374 114.18656 
L 164.105017 110.013102 
L 166.903365 105.724309 
L 169.527969 101.327042 
L 171.97463 96.828336 
L 174.239434 92.235389 
L 176.318757 87.555547 
L 178.209273 82.796298 
L 179.907958 77.965256 
L 181.412094 73.070148 
L 182.719275 68.118807 
L 183.720083 63.648 
L 184.84928 68.642939 
L 186.177318 73.588727 
L 187.702072 78.477451 
L 189.421103 83.301292 
L 191.331661 88.05253 
L 193.43069 92.723566 
L 195.714832 97.306927 
L 198.180432 101.795281 
L 200.823546 106.181447 
L 203.639946 110.458407 
L 206.625126 114.619321 
L 209.77431 118.657531 
L 213.082461 122.566578 
L 216.544285 126.340206 
L 217.152374 126.972664 
L 217.094492 121.852004 
L 216.831885 116.737756 
L 216.364972 111.638099 
L 215.694501 106.561194 
L 214.821544 101.515161 
L 213.747498 96.508073 
L 212.47408 91.547941 
L 211.003329 86.6427 
L 209.337598 81.800196 
L 207.47955 77.028178 
L 205.432158 72.334279 
L 203.198699 67.726008 
L 201.026956 63.648 
L 198.628682 68.172686 
L 196.413266 72.789659 
L 194.384251 77.491531 
L 192.544885 82.270781 
L 190.898108 87.119763 
L 189.446557 92.03072 
L 188.192552 96.995796 
L 187.138101 102.007047 
L 186.28489 107.056456 
L 185.634283 112.135945 
L 185.187323 117.237389 
L 184.944723 122.352626 
L 184.906872 127.473472 
L 185.073831 132.591736 
L 185.445333 137.69923 
L 186.020782 142.787781 
L 186.799259 147.849251 
L 187.779518 152.875541 
L 188.464688 155.874393 
L 184.263006 158.801913 
L 180.181755 161.895114 
L 176.227463 165.149047 
L 172.406458 168.558506 
L 168.72485 172.118038 
L 165.188531 175.821948 
L 161.803157 179.66431 
L 158.574145 183.638978 
L 155.50666 187.739592 
L 152.605609 191.959593 
L 149.875634 196.292229 
L 147.321102 200.73057 
L 144.946099 205.267514 
L 142.754426 209.895804 
L 140.749588 214.608036 
L 138.934793 219.39667 
L 137.312943 224.254047 
L 137.146584 224.791733 
L 142.15957 225.837905 
L 147.210381 226.682775 
L 152.290938 227.324991 
L 157.393113 227.763524 
L 162.508744 227.997674 
L 167.629646 228.027067 
L 172.747627 227.851654 
L 177.8545 227.471717 
L 182.942094 226.887864 
L 188.002271 226.101027 
L 193.026936 225.112468 
L 198.008049 223.923766 
L 202.937642 222.536823 
L 207.80783 220.953859 
L 211.709281 219.52758 
L 212.869951 224.5153 
L 214.229149 229.452615 
L 215.784699 234.331628 
L 217.534114 239.144533 
L 219.474594 243.88363 
L 221.603035 248.541337 
L 223.916032 253.110204 
L 226.409885 257.582921 
L 229.080604 261.952333 
L 231.923917 266.21145 
L 234.935274 270.353458 
L 238.109859 274.37173 
L 241.442593 278.259838 
L 244.928144 282.011563 
L 248.338437 285.408 
L 251.962537 281.789934 
L 255.439054 278.029837 
L 258.762426 274.133723 
L 261.927337 270.107827 
L 264.928724 265.958588 
L 267.761784 261.692645 
L 270.421986 257.316822 
L 272.905074 252.83812 
L 275.207075 248.263703 
L 277.324307 243.600889 
L 279.253383 238.857139 
L 280.991216 234.04004 
L 282.535027 229.1573 
L 283.882345 224.21673 
L 285.031016 219.226233 
L 285.9792 214.193793 
L 286.725383 209.127462 
L 287.268369 204.035344 
L 287.607291 198.925585 
L 287.741606 193.806361 
L 287.671099 188.68586 
L 287.395883 183.572274 
L 287.080832 179.99323 
L 288.572985 175.094457 
L 289.868046 170.139931 
L 290.963942 165.137581 
L 291.858922 160.095407 
L 292.551552 155.021477 
L 293.040726 149.923908 
L 293.325659 144.810855 
L 293.405897 139.690497 
L 293.281311 134.571026 
L 292.952101 129.460633 
L 292.418793 124.367492 
L 291.68224 119.299752 
L 290.74362 114.265519 
L 289.604436 109.272848 
L 288.266509 104.329727 
L 286.731981 99.444061 
L 285.003305 94.623669 
L 283.083248 89.876261 
L 280.974881 85.209432 
L 278.681577 80.630649 
L 276.207006 76.147235 
L 273.555124 71.766365 
L 270.730176 67.495045 
L 267.967274 63.648 
L 264.986275 67.81191 
L 262.174173 72.091698 
L 259.535466 76.480516 
L 257.074375 80.971344 
L 254.794838 85.556997 
L 252.700502 90.230139 
L 250.794717 94.983294 
L 249.080532 99.808859 
L 247.560689 104.699112 
L 246.23762 109.646231 
L 245.113441 114.642302 
L 244.189951 119.679332 
L 243.580828 123.855215 
L 244.528195 116.878302 
L 244.975509 111.776889 
L 245.218462 106.661669 
L 245.256668 101.540825 
L 245.090063 96.42255 
L 244.718915 91.315031 
L 244.143818 86.226439 
L 243.365692 81.164916 
L 242.385781 76.138557 
L 241.205653 71.155406 
L 239.827196 66.223433 
L 239.021829 63.648 
L 237.539738 68.549827 
L 236.254853 73.507001 
L 235.169231 78.511591 
L 234.284606 83.555592 
L 233.602396 88.630933 
L 233.123691 93.729496 
L 232.849257 98.843124 
L 232.779533 103.963636 
L 232.914631 109.08284 
L 233.254334 114.192547 
L 233.7981 119.284582 
L 234.380364 123.345652 
L 234.733002 118.236821 
L 234.881059 113.117976 
L 234.824299 107.997304 
L 234.562811 102.882998 
L 234.097015 97.783239 
L 233.427656 92.706187 
L 232.555804 87.659963 
L 231.482855 82.65264 
L 230.210524 77.692229 
L 228.740848 72.786666 
L 227.076176 67.943798 
L 225.414577 63.648 
L 223.576791 68.427858 
L 221.931618 73.277385 
L 220.48169 78.188821 
L 219.229327 83.154311 
L 218.176532 88.16591 
L 217.324991 93.215601 
L 216.676064 98.295306 
L 216.23079 103.396897 
L 215.989881 108.512213 
L 215.953724 113.633072 
L 216.122375 118.751281 
L 216.495565 123.858651 
L 216.839238 127.099021 
L 213.638017 123.101936 
L 210.279516 119.236064 
L 206.769108 115.507587 
L 203.112408 111.922472 
L 199.315267 108.486454 
L 195.38376 105.205029 
L 191.324175 102.083448 
L 187.143007 99.126703 
L 182.846945 96.339526 
L 178.442863 93.726375 
L 173.937805 91.29143 
L 169.338979 89.038587 
L 164.653742 86.971451 
L 159.784446 85.054341 
L 163.790232 88.244666 
L 167.920393 91.272251 
L 172.168322 94.132251 
L 176.527223 96.820092 
L 180.990121 99.331474 
L 185.549879 101.662378 
L 190.1992 103.809076 
L 194.930647 105.768134 
L 199.736652 107.536417 
L 204.609524 109.111097 
L 209.541469 110.489655 
L 214.524596 111.669884 
L 219.550935 112.649898 
L 224.612442 113.428128 
L 229.701022 114.003329 
L 234.808534 114.37458 
L 239.926806 114.541289 
L 245.047651 114.503189 
L 250.162875 114.260339 
L 255.264297 113.81313 
L 260.343755 113.162275 
L 265.393123 112.308818 
L 270.404322 111.254122 
L 275.369336 109.999875 
L 280.280222 108.548084 
L 285.129124 106.90107 
L 289.908285 105.061471 
L 294.610058 103.032227 
L 299.226922 100.816585 
L 303.751491 98.418091 
L 308.176527 95.84058 
L 312.49495 93.088177 
L 315.842304 90.781799 
L 311.226695 93.000055 
L 306.703485 95.401111 
L 302.27991 97.981128 
L 297.963046 100.735976 
L 293.7598 103.661249 
L 289.676896 106.752268 
L 285.720865 110.004086 
L 281.898037 113.411502 
L 278.214527 116.969066 
L 274.676228 120.671084 
L 271.288801 124.511636 
L 268.057664 128.484576 
L 265.173495 132.325903 
L 266.212741 130.710908 
L 268.864447 126.329931 
L 271.33884 121.846418 
L 273.63196 117.267543 
L 275.74014 112.60063 
L 277.660007 107.853145 
L 279.38849 103.032683 
L 280.922822 98.146957 
L 282.260551 93.203781 
L 283.399535 88.211065 
L 284.337953 83.176795 
L 285.074303 78.109025 
L 285.607408 73.015863 
L 285.936413 67.905456 
L 286.054193 63.648 
L 286.108023 66.208055 
L 286.369202 71.322377 
L 286.834691 76.422164 
L 287.503744 81.499256 
L 288.375291 86.545533 
L 289.447939 91.55292 
L 290.71997 96.513408 
L 292.189351 101.41906 
L 293.85373 106.262028 
L 295.710445 111.034566 
L 297.756525 115.729037 
L 299.988698 120.337931 
L 302.403392 124.853876 
L 304.996743 129.269646 
L 307.764604 133.578178 
L 310.702547 137.772579 
L 313.80587 141.846138 
L 317.06961 145.792339 
L 320.488546 149.604868 
L 324.057207 153.277628 
L 327.769885 156.80474 
L 331.62064 160.180564 
L 335.603312 163.399699 
L 339.711529 166.456994 
L 343.938719 169.347559 
L 348.27812 172.066769 
L 352.722789 174.610274 
L 357.265615 176.974006 
L 361.599733 179.02001 
L 357.387306 176.107972 
L 353.061798 173.366716 
L 348.63013 170.800626 
L 344.09939 168.413809 
L 339.476827 166.210082 
L 334.769836 164.192971 
L 329.985947 162.365703 
L 325.132813 160.731201 
L 320.218199 159.292081 
L 315.249966 158.050643 
L 310.236063 157.008875 
L 305.184512 156.168443 
L 300.103392 155.530691 
L 295.000834 155.09664 
L 289.885 154.866984 
L 284.764074 154.84209 
L 283.449675 154.868741 
L 287.081018 151.257944 
L 290.565063 147.504821 
L 293.896236 143.615375 
L 297.069208 139.595829 
L 300.078903 135.452613 
L 302.920506 131.192356 
L 305.589471 126.821872 
L 308.081529 122.348155 
L 310.392692 117.77836 
L 312.519264 113.119798 
L 314.457842 108.379923 
L 316.205324 103.566317 
L 317.758916 98.68668 
L 318.629605 95.609545 
L 313.655812 94.390574 
L 308.637253 93.371476 
L 303.581954 92.553882 
L 298.498004 91.9391 
L 293.393537 91.528114 
L 288.276717 91.321581 
L 283.155731 91.319831 
L 278.038771 91.522867 
L 272.934023 91.930365 
L 267.849655 92.541672 
L 262.793799 93.355811 
L 257.774544 94.371479 
L 252.799919 95.587051 
L 247.877884 97.000583 
L 243.016312 98.609813 
L 238.222981 100.412167 
L 233.505559 102.404761 
L 228.871593 104.584408 
L 224.328497 106.94762 
L 219.883537 109.490618 
L 215.543826 112.209333 
L 211.316306 115.099415 
L 207.207739 118.156241 
L 203.2247 121.374921 
L 199.37356 124.750305 
L 195.660479 128.276994 
L 192.091398 131.949345 
L 188.672027 135.761484 
L 185.407836 139.707312 
L 182.304048 143.780517 
L 179.365626 147.974582 
L 176.597273 152.282798 
L 174.003417 156.698272 
L 171.588208 161.213941 
L 169.355509 165.822581 
L 167.308893 170.516818 
L 165.451633 175.289143 
L 163.786701 180.131921 
L 162.31676 185.037406 
L 161.044161 189.997748 
L 159.970942 195.005013 
L 159.098818 200.05119 
L 158.429185 205.128206 
L 157.963115 210.227939 
L 157.701351 215.342231 
L 157.644315 220.4629 
L 157.792096 225.581754 
L 158.144459 230.690603 
L 158.700839 235.781275 
L 159.460347 240.845626 
L 160.421767 245.875554 
L 161.583562 250.863011 
L 162.943872 255.80002 
L 164.500522 260.678682 
L 166.251022 265.491193 
L 168.19257 270.229852 
L 170.322061 274.88708 
L 172.636088 279.455425 
L 175.130949 283.92758 
L 176.009495 285.408 
L 178.56426 280.969793 
L 180.939501 276.432974 
L 183.131417 271.804798 
L 185.136502 267.092672 
L 186.951549 262.304133 
L 188.573653 257.446841 
L 190.00022 252.528568 
L 191.228967 247.557182 
L 192.257929 242.540636 
L 193.08546 237.486954 
L 193.710235 232.404223 
L 194.131256 227.300573 
L 194.347848 222.184169 
L 194.359665 217.063196 
L 194.166689 211.945847 
L 193.769227 206.840308 
L 193.271112 202.516268 
L 188.842673 199.944609 
L 184.314937 197.552098 
L 179.695148 195.342562 
L 174.990696 193.319535 
L 170.209108 191.486254 
L 165.358033 189.845653 
L 160.445232 188.400355 
L 155.478564 187.152672 
L 150.465975 186.104602 
L 145.415483 185.25782 
L 140.33517 184.613681 
L 135.233161 184.173215 
L 130.11762 183.937128 
L 124.996729 183.905797 
L 119.878682 184.079272 
L 114.771666 184.457275 
L 113.908123 184.541538 
L 116.817617 180.327354 
L 119.556261 176.000192 
L 122.119674 171.566975 
L 124.503755 167.034794 
L 126.70469 162.410901 
L 128.718959 157.702693 
L 130.543338 152.917702 
L 132.174909 148.063582 
L 133.611062 143.1481 
L 134.849499 138.179118 
L 135.888239 133.164587 
L 136.725621 128.112529 
L 137.244517 124.094643 
L 141.301919 120.970224 
L 145.231133 117.686053 
L 149.025871 114.247381 
L 152.680064 110.659712 
L 156.187866 106.928783 
L 159.543664 103.060564 
L 162.742091 99.061242 
L 165.778029 94.937217 
L 168.646621 90.695086 
L 171.343279 86.341635 
L 173.863688 81.883828 
L 176.203817 77.328798 
L 178.359921 72.683831 
L 180.328551 67.956359 
L 181.933664 63.648 
L 183.73129 68.443106 
L 185.719231 73.162491 
L 187.894307 77.798604 
L 190.253038 82.344029 
L 192.791651 86.791495 
L 195.506084 91.133885 
L 198.391996 95.364253 
L 201.444769 99.475832 
L 204.659519 103.462044 
L 208.031103 107.316511 
L 211.554129 111.033068 
L 215.222958 114.605768 
L 219.031724 118.028897 
L 222.974331 121.296978 
L 226.748025 124.187017 
L 229.407819 119.810946 
L 231.890489 115.332011 
L 234.192064 110.75738 
L 236.308861 106.094369 
L 238.237494 101.350438 
L 239.974878 96.533178 
L 241.518233 91.650294 
L 242.86509 86.709598 
L 244.013295 81.718994 
L 244.961011 76.686466 
L 245.706721 71.620065 
L 246.249232 66.527896 
L 246.465223 63.648 
L 246.507495 64.286768 
L 246.960525 69.387677 
L 247.617173 74.466388 
L 248.476391 79.514779 
L 249.536804 84.524772 
L 250.796714 89.488352 
L 252.254107 94.397579 
L 253.906651 99.244598 
L 255.751702 104.021657 
L 257.786308 108.721112 
L 260.007215 113.335445 
L 262.41087 117.857275 
L 264.993427 122.279368 
L 267.750755 126.594648 
L 270.678443 130.796213 
L 273.771806 134.877341 
L 277.025897 138.831502 
L 280.435509 142.652372 
L 283.995188 146.333838 
L 287.699239 149.87001 
L 291.541736 153.25523 
L 295.516532 156.484084 
L 299.617268 159.551406 
L 303.837385 162.452288 
L 308.17013 165.18209 
L 312.608573 167.736446 
L 317.145612 170.111267 
L 321.773989 172.302756 
L 326.486301 174.307406 
L 331.275007 176.122011 
L 336.132449 177.743666 
L 341.050853 179.169779 
L 346.022353 180.398067 
L 351.038994 181.426566 
L 356.092752 182.25363 
L 359.479402 182.69253 
L 356.343117 178.644294 
L 353.047453 174.724714 
L 349.597685 170.940061 
L 345.99933 167.296389 
L 342.258145 163.799528 
L 338.380116 160.455071 
L 334.371447 157.268369 
L 330.238549 154.24452 
L 325.988036 151.388362 
L 321.626707 148.704463 
L 317.161539 146.197118 
L 312.599676 143.870338 
L 307.948416 141.727845 
L 303.215199 139.773066 
L 298.407598 138.009129 
L 293.533303 136.438856 
L 288.600114 135.064759 
L 283.615921 133.889036 
L 278.588699 132.913568 
L 273.52649 132.139915 
L 268.437392 131.569316 
L 263.480319 131.210567 
L 260.94356 126.762044 
L 258.230937 122.418522 
L 255.346789 118.186951 
L 252.29573 114.0741 
L 249.082642 110.086549 
L 245.712665 106.230677 
L 242.191189 102.512652 
L 238.523848 98.938422 
L 234.71651 95.513706 
L 230.775266 92.243983 
L 226.70642 89.134482 
L 222.516481 86.190179 
L 218.212154 83.415784 
L 213.800323 80.815736 
L 209.288047 78.394194 
L 204.682545 76.155031 
L 199.991184 74.10183 
L 195.221469 72.237877 
L 190.381031 70.566152 
L 185.477614 69.08933 
L 180.519062 67.809773 
L 175.513308 66.72953 
L 170.838697 65.907816 
L 174.134071 69.827638 
L 177.58356 73.612546 
L 181.181647 77.256483 
L 184.922573 80.753621 
L 188.800355 84.098364 
L 192.80879 87.285361 
L 196.941464 90.309515 
L 201.191767 93.165987 
L 205.552898 95.850207 
L 210.017881 98.357881 
L 214.579572 100.684998 
L 219.230675 102.827834 
L 223.963747 104.782962 
L 228.771218 106.547253 
L 233.645397 108.117886 
L 238.578485 109.492347 
L 243.562591 110.668438 
L 248.589741 111.644277 
L 253.651893 112.418303 
L 258.740949 112.989278 
L 263.848767 113.356288 
L 268.967176 113.518746 
L 274.087987 113.476393 
L 279.203009 113.229296 
L 284.304058 112.77785 
L 289.382973 112.122777 
L 294.43163 111.265126 
L 299.441952 110.206269 
L 304.405923 108.947899 
L 309.315602 107.49203 
L 314.163134 105.840991 
L 318.940765 103.997423 
L 322.575839 102.444624 
L 322.058777 102.82206 
L 317.99152 105.93364 
L 314.051947 109.205377 
L 310.24636 112.632038 
L 306.580847 116.208142 
L 303.061272 119.927966 
L 299.693265 123.78556 
L 296.482215 127.774753 
L 293.433259 131.889163 
L 290.551274 136.122207 
L 287.840871 140.467114 
L 285.306386 144.916933 
L 282.951873 149.464545 
L 281.938764 151.569241 
L 286.975561 152.493997 
L 292.04531 153.216595 
L 297.1399 153.73588 
L 302.251181 154.05102 
L 307.370975 154.161511 
L 312.491092 154.067177 
L 317.603342 153.768168 
L 322.699545 153.264963 
L 327.771549 152.558366 
L 332.811239 151.649509 
L 337.810554 150.539844 
L 342.761495 149.231148 
L 347.656142 147.725514 
L 348.547112 147.428188 
L 344.770398 150.886646 
L 341.135007 154.493367 
L 337.646753 158.242579 
L 334.311219 162.128285 
L 331.133739 166.144268 
L 328.119398 170.284105 
L 325.273017 174.541172 
L 322.59915 178.908658 
L 320.102074 183.379577 
L 317.785785 187.946776 
L 315.653989 192.602949 
L 313.710094 197.340646 
L 311.957212 202.152289 
L 310.398147 207.03018 
L 309.035392 211.966514 
L 307.871128 216.953396 
L 306.907217 221.982847 
L 306.145202 227.046822 
L 305.586301 232.137218 
L 305.231409 237.245892 
L 305.081093 242.364672 
L 305.135594 247.485368 
L 305.394825 252.599789 
L 305.85837 257.699752 
L 306.525489 262.7771 
L 307.395114 267.823708 
L 308.173445 271.557055 
L 303.317552 273.183341 
L 298.530577 275.00251 
L 293.820179 277.011651 
L 289.193893 279.207551 
L 284.659119 281.586697 
L 280.223114 284.145283 
L 278.17537 285.408 
L 273.788222 282.766517 
L 269.298952 280.302585 
L 264.714742 278.020148 
L 260.042926 275.922856 
L 255.290977 274.014064 
L 250.466499 272.296826 
L 245.577208 270.77389 
L 240.630926 269.447691 
L 235.635568 268.320352 
L 230.599123 267.393675 
L 225.52965 266.669144 
L 220.435259 266.147917 
L 215.324099 265.830828 
L 210.204347 265.718385 
L 205.084194 265.810768 
L 199.971831 266.107827 
L 194.875436 266.60909 
L 189.803163 267.313752 
L 184.763127 268.220688 
L 179.763389 269.328447 
L 174.81195 270.635255 
L 169.916729 272.139023 
L 165.396232 273.721558 
L 169.273958 270.37675 
L 173.014826 266.87955 
L 176.612851 263.235552 
L 180.062276 259.450586 
L 183.357584 255.530708 
L 186.493503 251.482188 
L 189.465016 247.311503 
L 192.267369 243.025326 
L 194.89608 238.630512 
L 197.346941 234.134094 
L 199.616034 229.543264 
L 201.699727 224.865366 
L 203.594688 220.107885 
L 205.266332 215.373822 
L 201.085207 218.330626 
L 197.025666 221.452266 
L 193.094206 224.733747 
L 189.297114 228.16982 
L 185.640466 231.754987 
L 182.130111 235.483514 
L 178.771665 239.349434 
L 175.570501 243.346565 
L 172.531741 247.468511 
L 169.660245 251.708677 
L 166.960607 256.060281 
L 164.437147 260.516361 
L 162.0939 265.069789 
L 161.324563 266.669222 
L 166.435649 266.987505 
L 171.555375 267.101145 
L 176.675549 267.009959 
L 181.787982 266.714094 
L 186.884493 266.214023 
L 191.956931 265.510546 
L 196.997179 264.604788 
L 201.997175 263.498199 
L 206.94892 262.192548 
L 211.844492 260.689925 
L 216.676059 258.992733 
L 221.435892 257.103687 
L 226.116376 255.02581 
L 230.710023 252.762425 
L 235.209484 250.317154 
L 239.607561 247.693908 
L 243.897219 244.896885 
L 248.071594 241.930558 
L 252.124009 238.799674 
L 256.04798 235.509241 
L 259.83723 232.064522 
L 263.485697 228.47103 
L 266.987545 224.734512 
L 270.33717 220.860946 
L 273.529215 216.85653 
L 276.558573 212.727668 
L 279.420397 208.480968 
L 282.110109 204.123222 
L 284.623406 199.661402 
L 286.956268 195.102646 
L 289.104962 190.454246 
L 291.066051 185.723641 
L 292.836398 180.918396 
L 294.413169 176.0462 
L 295.793844 171.114848 
L 296.976213 166.132227 
L 297.958385 161.10631 
L 298.738787 156.045137 
L 299.316173 150.956805 
L 299.689617 145.849453 
L 299.858524 140.731253 
L 299.822622 135.610392 
L 299.581968 130.495064 
L 299.136949 125.39345 
L 298.488276 120.313713 
L 297.636986 115.26398 
L 296.584441 110.252328 
L 295.332326 105.286776 
L 293.882643 100.375267 
L 292.237712 95.525658 
L 290.400164 90.745709 
L 288.372939 86.043065 
L 286.15928 81.42525 
L 283.762728 76.899651 
L 281.187118 72.473509 
L 278.436569 68.153905 
L 275.297639 63.648 
L 272.364391 67.845685 
L 269.601352 72.157311 
L 267.012943 76.57598 
L 264.603303 81.094624 
L 262.376289 85.706013 
L 260.335462 90.40277 
L 258.484088 95.177382 
L 256.825128 100.022209 
L 255.361237 104.929502 
L 254.094756 109.89141 
L 253.027711 114.899994 
L 252.16181 119.947243 
L 251.498438 125.025081 
L 251.431591 125.644686 
L 253.798929 121.103738 
L 255.982784 116.471753 
L 257.979662 111.756143 
L 259.786369 106.964451 
L 261.400013 102.104343 
L 262.818015 97.183593 
L 264.038105 92.210075 
L 265.058331 87.191745 
L 265.877062 82.13663 
L 266.492987 77.052819 
L 266.905121 71.948444 
L 267.112805 66.83167 
L 267.138698 63.648 
L 267.19784 68.128543 
L 267.457359 73.242949 
L 267.921191 78.342887 
L 268.588596 83.420196 
L 269.458505 88.466755 
L 270.529526 93.474491 
L 271.799947 98.435391 
L 273.267735 103.34152 
L 274.930542 108.185029 
L 276.785707 112.958169 
L 278.830263 117.653304 
L 281.060939 122.262923 
L 283.474166 126.779651 
L 286.066083 131.196263 
L 288.832545 135.505694 
L 291.769126 139.701048 
L 294.871126 143.775615 
L 298.133585 147.722875 
L 301.551282 151.536515 
L 305.118751 155.210432 
L 308.830283 158.738751 
L 312.679942 162.115825 
L 316.661568 165.336252 
L 320.768793 168.394881 
L 324.995044 171.286818 
L 329.333561 174.007437 
L 333.777404 176.552386 
L 338.319463 178.917592 
L 342.952472 181.099273 
L 347.669019 183.093937 
L 352.461559 184.898395 
L 357.282637 186.497439 
L 353.455615 183.094733 
L 349.495583 179.847789 
L 345.408875 176.761801 
L 341.20203 173.841706 
L 336.881777 171.092176 
L 332.455028 168.51761 
L 327.928864 166.122125 
L 323.310527 163.909555 
L 318.607405 161.883439 
L 313.827023 160.047018 
L 308.977026 158.403231 
L 304.065175 156.954706 
L 299.099328 155.703762 
L 294.087428 154.652399 
L 289.037494 153.8023 
L 283.957605 153.154824 
L 282.638158 153.020311 
L 285.476931 148.758167 
L 288.142992 144.385912 
L 290.632077 139.910539 
L 292.940204 135.33921 
L 295.06368 130.679237 
L 296.999109 125.938075 
L 298.743393 121.123308 
L 300.293743 116.242641 
L 301.647678 111.30388 
L 302.803033 106.314926 
L 303.757958 101.283761 
L 304.510927 96.218434 
L 305.060734 91.127048 
L 305.4065 86.017748 
L 305.547672 80.898707 
L 305.484025 75.778117 
L 305.340977 72.592966 
L 301.004729 69.86873 
L 296.56301 67.320076 
L 292.022925 64.951083 
L 289.319905 63.648 
L 284.725548 65.909944 
L 280.22532 68.353804 
L 275.82642 70.97567 
L 271.535886 73.771347 
L 267.360581 76.736365 
L 263.307184 79.865978 
L 259.382181 83.155181 
L 255.591851 86.59871 
L 251.942257 90.191058 
L 248.439237 93.926478 
L 245.088397 97.798993 
L 241.895097 101.802408 
L 238.864444 105.930319 
L 236.001288 110.176121 
L 233.31021 114.533024 
L 230.795513 118.994055 
L 228.280546 123.924501 
L 224.682674 120.280353 
L 220.941953 116.782995 
L 217.064367 113.438025 
L 213.05612 110.250792 
L 208.923623 107.226395 
L 204.673489 104.369674 
L 200.312515 101.685198 
L 195.84768 99.177261 
L 191.286125 96.849876 
L 186.635149 94.706767 
L 181.902191 92.751361 
L 177.094823 90.986787 
L 172.220737 89.415868 
L 167.28773 88.041117 
L 162.303693 86.864733 
L 159.111075 86.220653 
L 162.525907 90.036859 
L 166.090614 93.713455 
L 169.799495 97.24456 
L 173.646616 100.624525 
L 177.625822 103.847943 
L 181.730748 106.909656 
L 185.954826 109.804767 
L 190.291298 112.528644 
L 194.733228 115.07693 
L 199.273509 117.445548 
L 203.904878 119.630708 
L 208.619925 121.628915 
L 213.411108 123.436972 
L 218.270761 125.051986 
L 220.575745 125.743465 
L 223.67626 121.667768 
L 226.611311 117.471344 
L 229.376202 113.160905 
L 231.96651 108.743349 
L 234.378091 104.225741 
L 236.607086 99.615309 
L 238.649931 94.919429 
L 240.503356 90.145613 
L 242.164397 85.301499 
L 243.630397 80.394836 
L 244.89901 75.433472 
L 245.968206 70.425347 
L 246.836275 65.378471 
L 247.086328 63.648 
L 247.885397 68.70626 
L 248.886104 73.728519 
L 250.086846 78.706743 
L 251.485705 83.632969 
L 253.08044 88.499315 
L 254.868502 93.297995 
L 256.84703 98.021334 
L 259.012859 102.661775 
L 261.362523 107.211893 
L 263.892263 111.664411 
L 266.598034 116.012204 
L 269.475505 120.248318 
L 272.520075 124.365975 
L 275.726871 128.358588 
L 279.090764 132.21977 
L 282.606372 135.943344 
L 286.268072 139.523352 
L 290.070005 142.954067 
L 294.006088 146.230002 
L 298.070026 149.345915 
L 302.255316 152.296821 
L 306.555263 155.078 
L 310.962988 157.685002 
L 315.47144 160.113657 
L 320.073406 162.36008 
L 324.761523 164.420675 
L 329.528293 166.292148 
L 334.366088 167.971504 
L 339.267171 169.456057 
L 344.223699 170.743431 
L 349.227743 171.831567 
L 354.271299 172.718724 
L 359.346297 173.403483 
L 363.792909 173.834683 
L 361.684333 178.501418 
L 361.105487 179.876068 
L 358.070012 184.000433 
L 355.201895 188.242886 
L 352.505725 192.59664 
L 349.985816 197.054729 
L 347.646198 201.610022 
L 345.490615 206.25523 
L 344.397201 208.815668 
L 341.361726 212.940034 
L 338.493609 217.182487 
L 335.797439 221.53624 
L 333.27753 225.99433 
L 330.937912 230.549622 
L 328.782329 235.194831 
L 327.688915 237.755269 
L 324.65344 241.879634 
L 321.785323 246.122087 
L 319.089153 250.475841 
L 316.569244 254.93393 
L 314.229626 259.489223 
L 312.074043 264.134431 
L 310.980629 266.694869 
L 307.945153 270.819235 
L 305.077037 275.061688 
L 302.380867 279.415441 
L 299.860958 283.87353 
L 299.04704 285.408 
L 296.587842 280.916135 
L 293.950985 276.526206 
L 291.140686 272.245233 
L 288.161442 268.080068 
L 285.018019 264.037371 
L 281.715445 260.123612 
L 278.259005 256.345051 
L 274.654227 252.707734 
L 270.906879 249.217478 
L 267.022955 245.879869 
L 263.00867 242.700244 
L 258.870444 239.683692 
L 254.614898 236.835037 
L 250.248841 234.158838 
L 245.779256 231.659375 
L 241.213295 229.340646 
L 236.558262 227.206363 
L 232.760745 225.628342 
L 227.818418 226.9692 
L 222.933664 228.506626 
L 218.114297 230.238161 
L 213.368029 232.161033 
L 208.702452 234.272168 
L 204.125029 236.568187 
L 199.643084 239.045418 
L 195.263787 241.699897 
L 190.994144 244.527378 
L 186.840985 247.523337 
L 182.810955 250.682983 
L 178.9105 254.001259 
L 175.145861 257.472857 
L 171.523061 261.092224 
L 168.047894 264.853569 
L 164.72592 268.750875 
L 163.444928 270.341801 
L 168.495248 269.493999 
L 173.507626 268.444917 
L 178.474042 267.196231 
L 183.386551 265.749941 
L 188.237294 264.10836 
L 193.018512 262.274115 
L 197.722555 260.250138 
L 202.341898 258.039669 
L 206.869151 255.646244 
L 211.297071 253.073691 
L 215.618574 250.326126 
L 219.826747 247.407946 
L 223.914859 244.323817 
L 227.876367 241.078675 
L 231.704936 237.67771 
L 235.394441 234.126364 
L 238.938978 230.430317 
L 242.332877 226.595484 
L 243.490503 225.213931 
L 247.793174 227.990895 
L 252.203452 230.593576 
L 256.714281 233.017812 
L 261.318446 235.259723 
L 266.008581 237.315723 
L 270.777182 239.182524 
L 275.616621 240.857138 
L 280.519156 242.336887 
L 285.476943 243.619403 
L 290.482052 244.702634 
L 295.526474 245.584848 
L 300.602141 246.264633 
L 305.700932 246.740902 
L 310.81469 247.012893 
L 315.935235 247.080171 
L 321.054374 246.942627 
L 322.425987 246.870928 
L 320.03397 242.342931 
L 317.462794 237.914211 
L 314.716574 233.591854 
L 311.799702 229.382773 
L 308.716845 225.293703 
L 305.472935 221.331185 
L 302.073161 217.501558 
L 298.522963 213.81095 
L 294.828019 210.265263 
L 290.994241 206.870171 
L 287.027762 203.631105 
L 282.934928 200.553247 
L 281.033984 199.208467 
L 285.791411 201.103563 
L 290.620816 202.806897 
L 295.514474 204.315744 
L 300.464555 205.627689 
L 305.46314 206.740635 
L 310.502233 207.652801 
L 315.573771 208.362727 
L 320.669643 208.869277 
L 325.781695 209.171642 
L 330.90175 209.269338 
L 336.021615 209.162208 
L 341.133102 208.850423 
L 344.564686 208.525576 
L 342.403146 203.883136 
L 340.057687 199.330848 
L 337.532061 194.875995 
L 334.830308 190.525704 
L 331.956752 186.286933 
L 328.915988 182.166465 
L 325.712882 178.170891 
L 322.352558 174.306603 
L 318.840391 170.579783 
L 315.182 166.996394 
L 311.383239 163.562167 
L 307.450184 160.282597 
L 303.389126 157.162931 
L 299.206564 154.208159 
L 294.909189 151.423009 
L 290.503874 148.811935 
L 285.997668 146.379116 
L 281.397779 144.128443 
L 276.711568 142.063517 
L 275.280765 141.477045 
L 274.08761 136.496997 
L 272.696261 131.568645 
L 271.108943 126.699875 
L 269.328197 121.898475 
L 267.356869 117.172126 
L 265.198115 112.52839 
L 262.855388 107.974696 
L 260.332436 103.518329 
L 257.633294 99.166417 
L 254.762282 94.925923 
L 251.723991 90.803631 
L 248.523283 86.806135 
L 245.165278 82.939831 
L 241.655348 79.210905 
L 237.999109 75.62532 
L 234.202409 72.188815 
L 230.271322 68.906885 
L 226.212138 65.784783 
L 223.227314 63.648 
L 219.080293 66.652451 
L 215.056736 69.820335 
L 211.163079 73.146584 
L 207.40555 76.625877 
L 203.790162 80.252649 
L 200.322698 84.021096 
L 197.008706 87.925191 
L 193.853486 91.958687 
L 190.862087 96.115132 
L 188.039294 100.387876 
L 185.389624 104.770084 
L 182.917314 109.254745 
L 180.626321 113.834685 
L 178.520309 118.502577 
L 176.602647 123.250953 
L 174.876404 128.072217 
L 173.344341 132.958656 
L 172.008908 137.902452 
L 170.872243 142.895697 
L 169.936164 147.930403 
L 169.202168 152.998514 
L 168.671429 158.091923 
L 168.344797 163.202482 
L 168.222795 168.322015 
L 168.305616 173.442332 
L 168.593129 178.555241 
L 169.084874 183.652562 
L 169.780065 188.726142 
L 170.677588 193.767864 
L 171.776008 198.769661 
L 173.073569 203.723532 
L 174.568193 208.621552 
L 176.257491 213.455885 
L 178.138759 218.218797 
L 180.208988 222.902669 
L 182.464865 227.500007 
L 184.902783 232.003456 
L 187.518841 236.405813 
L 190.308853 240.700034 
L 193.268357 244.879249 
L 196.392618 248.936773 
L 199.676637 252.866114 
L 203.115161 256.660986 
L 206.702689 260.315318 
L 210.433481 263.823265 
L 214.30157 267.179213 
L 218.300767 270.377795 
L 222.424674 273.413893 
L 226.666694 276.28265 
L 231.020041 278.979477 
L 235.477749 281.50006 
L 240.032688 283.840365 
L 243.360331 285.408 
L 247.980621 283.199511 
L 252.508899 280.808026 
L 256.937921 278.237371 
L 261.260601 275.491659 
L 265.470025 272.575282 
L 269.559457 269.492906 
L 273.522357 266.249461 
L 277.352383 262.850138 
L 281.043409 259.300373 
L 284.589529 255.605846 
L 287.985072 251.772467 
L 291.224604 247.806369 
L 294.302943 243.713897 
L 297.215165 239.501597 
L 299.95661 235.17621 
L 302.522893 230.744653 
L 304.909908 226.214017 
L 307.113837 221.59155 
L 309.131153 216.884647 
L 310.95863 212.100838 
L 312.593344 207.247776 
L 314.03268 202.333224 
L 315.274334 197.365046 
L 316.316321 192.351189 
L 317.156974 187.299674 
L 317.794948 182.218582 
L 318.229222 177.116043 
L 318.459101 172.000219 
L 318.484218 166.879294 
L 318.304533 161.761461 
L 317.920332 156.654907 
L 317.332232 151.567802 
L 316.541171 146.508283 
L 315.548417 141.484446 
L 314.355557 136.504327 
L 312.964499 131.575893 
L 311.37747 126.707029 
L 309.597007 121.905524 
L 307.625959 117.179058 
L 305.46748 112.535195 
L 303.125022 107.981362 
L 300.602333 103.524845 
L 297.903449 99.172773 
L 295.032688 94.93211 
L 291.994641 90.809638 
L 288.79417 86.811953 
L 285.436394 82.94545 
L 281.926684 79.216316 
L 278.270657 75.630515 
L 274.47416 72.193785 
L 270.543268 68.911623 
L 266.484268 65.789281 
L 263.493348 63.648 
L 259.346328 66.652451 
L 255.322771 69.820335 
L 251.429113 73.146584 
L 247.671585 76.625877 
L 244.056197 80.252649 
L 240.588733 84.021096 
L 237.27474 87.925191 
L 234.119521 91.958687 
L 231.128122 96.115132 
L 228.305329 100.387876 
L 225.655658 104.770084 
L 223.183349 109.254745 
L 220.892356 113.834685 
L 218.786343 118.502577 
L 216.868682 123.250953 
L 215.240126 127.782318 
L 210.490153 125.868616 
L 205.667451 124.146394 
L 200.779737 122.618405 
L 195.834829 121.287095 
L 190.840638 120.154594 
L 185.805154 119.222712 
L 180.736432 118.492942 
L 175.642582 117.966451 
L 170.531753 117.64408 
L 165.41212 117.526345 
L 160.291874 117.613436 
L 155.179207 117.905212 
L 150.082297 118.401207 
L 145.009298 119.100627 
L 139.559714 120.084604 
L 141.283592 124.906714 
L 143.198925 129.65603 
L 145.302647 134.324954 
L 147.591394 138.906017 
L 150.061504 143.391891 
L 152.709024 147.775398 
L 155.529721 152.049526 
L 158.519081 156.207437 
L 161.672322 160.242481 
L 164.9844 164.1482 
L 168.450015 167.918348 
L 172.063624 171.546892 
L 175.819445 175.028028 
L 179.71147 178.356187 
L 183.733473 181.526044 
L 185.64265 182.942108 
L 182.785817 187.192168 
L 180.101226 191.553071 
L 177.593172 196.01784 
L 175.265668 200.579334 
L 173.122437 205.230255 
L 171.166907 209.963161 
L 169.402207 214.770482 
L 167.83116 219.644527 
L 166.456279 224.577498 
L 165.279765 229.561504 
L 164.303499 234.588572 
L 163.529042 239.650658 
L 162.957635 244.739665 
L 162.590191 249.847452 
L 162.427298 254.965847 
L 162.469216 260.086662 
L 162.715879 265.201705 
L 163.109128 269.760177 
L 167.313789 272.683415 
L 171.631986 275.436174 
L 176.05681 278.014048 
L 180.581182 280.412915 
L 185.197864 282.628936 
L 189.89947 284.658566 
L 191.777856 285.408 
L 196.510935 283.452885 
L 201.162043 281.310062 
L 205.723741 278.982958 
L 210.188731 276.475296 
L 214.549869 273.791088 
L 218.80018 270.934628 
L 222.932862 267.910486 
L 226.941306 264.723499 
L 230.819098 261.378767 
L 234.560034 257.88164 
L 238.15813 254.237713 
L 241.60763 250.452815 
L 244.903015 246.533001 
L 248.039013 242.484543 
L 251.010608 238.313916 
L 253.813045 234.027794 
L 256.441842 229.633032 
L 258.892792 225.136661 
L 261.161974 220.545876 
L 261.987834 218.751556 
L 267.09629 219.109568 
L 272.214977 219.26301 
L 277.335706 219.211637 
L 282.450284 218.95553 
L 287.55053 218.4951 
L 292.628284 217.831082 
L 297.675422 216.96454 
L 302.683871 215.896859 
L 307.645617 214.629747 
L 312.552724 213.165232 
L 317.397341 211.505657 
L 322.171717 209.653676 
L 326.868215 207.612252 
L 331.479321 205.384651 
L 335.997658 202.974438 
L 340.415998 200.385466 
L 344.727273 197.62188 
L 348.924585 194.688099 
L 353.00122 191.588816 
L 355.530869 189.531589 
L 356.305762 184.469569 
L 356.877609 179.380611 
L 357.245493 174.272856 
L 357.408828 169.154475 
L 357.367352 164.033657 
L 357.319925 162.623147 
L 352.934792 159.978321 
L 348.447401 157.510969 
L 343.864932 155.225038 
L 339.194715 153.124186 
L 334.444223 151.211773 
L 329.621054 149.490859 
L 324.732925 147.964197 
L 319.787656 146.634229 
L 314.793158 145.503082 
L 309.757421 144.572568 
L 304.688502 143.844173 
L 299.594509 143.319064 
L 294.483593 142.99808 
L 289.363928 142.881735 
L 284.243706 142.970215 
L 279.131118 143.263378 
L 276.872182 143.458431 
L 278.589877 138.634115 
L 280.113278 133.744968 
L 281.439946 128.798813 
L 282.56776 123.803561 
L 283.494914 118.767205 
L 284.219927 113.697801 
L 284.741637 108.603459 
L 285.059211 103.492329 
L 285.17214 98.372588 
L 285.080244 93.252426 
L 284.783669 88.140035 
L 284.282891 83.043593 
L 283.578709 77.971253 
L 282.672252 72.93113 
L 281.564968 67.931288 
L 280.447352 63.648 
L 279.167889 68.606576 
L 278.087739 73.61235 
L 277.208631 78.657315 
L 276.53197 83.7334 
L 276.058841 88.832483 
L 275.789998 93.946408 
L 275.725873 99.066993 
L 275.866569 104.186046 
L 276.211859 109.295378 
L 276.761192 114.386816 
L 277.513688 119.452213 
L 278.468145 124.483467 
L 279.623034 129.472528 
L 280.976509 134.411415 
L 282.526405 139.292227 
L 284.27024 144.107156 
L 286.205227 148.848498 
L 288.328269 153.508669 
L 290.63597 158.080214 
L 293.124639 162.555818 
L 295.790292 166.928322 
L 298.628668 171.190731 
L 301.635223 175.336225 
L 304.80515 179.358174 
L 308.133375 183.250142 
L 311.614576 187.005903 
L 315.243183 190.619449 
L 319.01339 194.084999 
L 322.919167 197.397009 
L 326.954264 200.550181 
L 331.112227 203.539469 
L 335.386404 206.360092 
L 339.769957 209.007538 
L 343.187736 210.910523 
L 340.997328 209.584291 
L 336.539142 207.064552 
L 331.98376 204.725108 
L 327.338469 202.569702 
L 322.610701 200.601783 
L 317.808018 198.824498 
L 312.938105 197.24069 
L 308.008752 195.852894 
L 303.027844 194.66333 
L 298.003351 193.6739 
L 292.943311 192.886188 
L 287.855817 192.301454 
L 284.295534 192.014287 
L 288.491874 194.949458 
L 292.802233 197.714473 
L 297.219716 200.304908 
L 301.737254 202.716618 
L 306.347622 204.945746 
L 311.043443 206.988725 
L 315.817206 208.842287 
L 320.661273 210.503468 
L 325.567894 211.969608 
L 330.529221 213.238363 
L 335.537316 214.307703 
L 340.713809 215.195491 
L 337.442521 211.255545 
L 334.016293 207.449567 
L 330.440608 203.783646 
L 326.721185 200.263647 
L 322.863975 196.8952 
L 318.875148 193.683695 
L 314.761086 190.63427 
L 310.528371 187.751802 
L 306.183773 185.040904 
L 301.734243 182.505911 
L 297.1869 180.15088 
L 292.549018 177.979578 
L 287.357238 175.809688 
L 292.178466 174.083345 
L 296.926802 172.165585 
L 301.59465 170.059476 
L 306.174543 167.768387 
L 310.659153 165.295985 
L 315.041306 162.646223 
L 319.313992 159.823342 
L 323.470375 156.831857 
L 327.503805 153.676553 
L 331.407831 150.36248 
L 335.176207 146.894938 
L 338.802903 143.279474 
L 342.282119 139.521874 
L 343.308172 138.354077 
L 338.300983 139.427651 
L 333.340731 140.700601 
L 328.435351 142.170889 
L 323.59269 143.836165 
L 318.820497 145.693762 
L 314.126404 147.740711 
L 309.517923 149.973737 
L 305.002425 152.389266 
L 300.587135 154.983434 
L 296.279115 157.752093 
L 292.085258 160.690811 
L 288.012273 163.794888 
L 286.484371 165.027604 
L 291.386566 166.50848 
L 296.344058 167.792135 
L 301.348918 168.876517 
L 306.393137 169.759891 
L 311.468648 170.440843 
L 316.567329 170.918283 
L 321.681025 171.19145 
L 326.801554 171.259904 
L 331.920724 171.123537 
L 337.030346 170.782567 
L 342.122247 170.237539 
L 347.188278 169.489326 
L 352.220337 168.539123 
L 357.210373 167.388452 
L 359.69473 166.736429 
L 356.128756 170.411797 
L 352.71261 174.226826 
L 349.451757 178.175413 
L 346.351413 182.251241 
L 343.416539 186.447789 
L 340.65183 190.758344 
L 338.061709 195.17601 
L 335.650318 199.69372 
L 333.421517 204.304245 
L 331.378871 209.000212 
L 329.525647 213.774105 
L 327.86481 218.61829 
L 326.399018 223.525015 
L 325.130614 228.486432 
L 324.061629 233.494602 
L 323.193773 238.541515 
L 322.528433 243.619096 
L 322.173917 247.307526 
L 318.020833 250.30359 
L 313.990882 253.463336 
L 310.09051 256.78171 
L 306.325958 260.253403 
L 302.703248 263.87286 
L 299.228176 267.634293 
L 295.9063 271.531682 
L 292.742936 275.558793 
L 289.743143 279.709184 
L 286.911721 283.976215 
L 286.015558 285.408 
L 283.240675 281.103987 
L 280.295898 276.914382 
L 277.185936 272.845889 
L 273.915766 268.905014 
L 270.490619 265.098065 
L 266.915974 261.431129 
L 263.19755 257.910075 
L 259.341295 254.540534 
L 255.35338 251.327898 
L 251.240183 248.277305 
L 247.008286 245.393637 
L 242.664457 242.681506 
L 238.215647 240.145251 
L 233.668972 237.78893 
L 229.031706 235.616312 
L 224.311268 233.630873 
L 219.515209 231.83579 
L 214.651203 230.233933 
L 209.72703 228.827867 
L 204.750568 227.619839 
L 199.729779 226.611783 
L 194.672695 225.805311 
L 189.587405 225.201714 
L 184.482045 224.801958 
L 179.364783 224.60668 
L 174.243806 224.616195 
L 169.127305 224.830487 
L 164.023466 225.249213 
L 158.940454 225.871703 
L 153.886402 226.696961 
L 148.869393 227.723668 
L 143.897455 228.95018 
L 140.160877 230.012641 
L 143.819428 226.429415 
L 147.331761 222.702753 
L 150.692259 218.838615 
L 153.895544 214.843184 
L 156.936492 210.722852 
L 159.810238 206.484211 
L 162.512186 202.13404 
L 165.038011 197.6793 
L 167.383674 193.127118 
L 169.545422 188.484775 
L 171.519797 183.759699 
L 173.30364 178.959448 
L 174.894097 174.091702 
L 176.288624 169.164249 
L 177.48499 164.184971 
L 178.481281 159.161834 
L 179.275903 154.102873 
L 179.867585 149.016184 
L 180.25538 143.909902 
L 180.438669 138.792196 
L 180.417157 133.671255 
L 180.190879 128.55527 
L 179.760197 123.452426 
L 179.125801 118.370887 
L 178.288705 113.318781 
L 177.250248 108.304192 
L 176.012091 103.33514 
L 174.576216 98.419577 
L 172.94492 93.565365 
L 171.120811 88.780271 
L 169.106809 84.071948 
L 166.906135 79.447931 
L 165.064616 75.908817 
L 170.179646 75.661894 
L 175.28071 75.210622 
L 180.359648 74.555723 
L 185.408334 73.698245 
L 190.418692 72.639559 
L 195.382706 71.381359 
L 200.292435 69.925657 
L 205.140024 68.274784 
L 209.917718 66.431379 
L 214.617873 64.398391 
L 216.231914 63.648 
L 220.903353 65.746132 
L 225.654958 67.655778 
L 230.479128 69.373883 
L 235.368146 70.897698 
L 240.314188 72.224786 
L 245.309344 73.353023 
L 250.345622 74.280605 
L 255.414965 75.006047 
L 260.509262 75.52819 
L 265.620365 75.846197 
L 270.740097 75.959561 
L 275.860266 75.868099 
L 280.972683 75.571958 
L 286.069168 75.071612 
L 291.141567 74.367861 
L 296.181767 73.461831 
L 301.181703 72.354971 
L 304.683117 71.45352 
L 301.119319 75.130999 
L 297.705433 78.94805 
L 294.446918 82.898566 
L 291.348988 86.976229 
L 288.416599 91.174514 
L 285.654443 95.486706 
L 283.066937 99.905904 
L 280.658223 104.425041 
L 278.432152 109.036885 
L 276.392286 113.73406 
L 274.541889 118.50905 
L 272.883921 123.354217 
L 271.421033 128.26181 
L 270.155568 133.223976 
L 269.594983 135.734937 
L 274.355019 133.846402 
L 279.035726 131.769027 
L 283.629616 129.506136 
L 288.129339 127.061348 
L 292.527698 124.438575 
L 296.817656 121.642012 
L 300.99235 118.676133 
L 305.045101 115.545684 
L 308.969425 112.255672 
L 312.759045 108.811361 
L 316.407898 105.21826 
L 319.910147 101.482118 
L 321.188218 100.041193 
L 316.184539 101.131011 
L 311.228444 102.420051 
L 306.327861 103.906251 
L 301.490631 105.587233 
L 296.724491 107.460308 
L 292.037066 109.52248 
L 287.435856 111.770449 
L 282.92822 114.200619 
L 278.521372 116.809103 
L 274.22236 119.591727 
L 270.038062 122.54404 
L 265.975172 125.661319 
L 262.04019 128.938577 
L 261.075272 129.78396 
L 261.839715 124.720352 
L 262.401057 119.630225 
L 262.758398 114.521721 
L 262.911169 109.403014 
L 262.859123 104.282292 
L 262.602344 99.167747 
L 262.141244 94.067562 
L 261.47656 88.989896 
L 260.609355 83.942871 
L 259.541016 78.934563 
L 258.273253 73.972982 
L 256.808093 69.066068 
L 255.147882 64.221669 
L 254.936817 63.648 
L 253.253496 68.484417 
L 251.764926 73.384281 
L 250.47349 78.339752 
L 249.381252 83.342903 
L 248.489961 88.38573 
L 247.801042 93.460165 
L 247.315598 98.55809 
L 247.034404 103.671351 
L 246.957911 108.791766 
L 247.086242 113.911144 
L 247.41919 119.021296 
L 247.956223 124.114045 
L 248.032555 124.709908 
L 250.828958 120.419846 
L 253.451567 116.021389 
L 255.896187 111.521574 
L 258.158907 106.9276 
L 260.236108 102.246816 
L 262.124465 97.48671 
L 263.820958 92.654897 
L 265.322874 87.759108 
L 266.627808 82.807174 
L 267.733675 77.807018 
L 268.638703 72.766639 
L 269.341447 67.694099 
L 269.754681 63.648 
L 269.811195 64.285666 
L 270.377923 69.375196 
L 271.147724 74.437993 
L 272.119368 79.465956 
L 273.291299 84.451041 
L 274.661643 89.385275 
L 276.228208 94.260762 
L 277.988487 99.069704 
L 279.939664 103.804406 
L 282.078618 108.457295 
L 284.401928 113.020927 
L 286.905875 117.488001 
L 289.586455 121.851371 
L 292.439379 126.104055 
L 295.460083 130.239252 
L 298.643734 134.250345 
L 301.98524 138.130917 
L 305.479254 141.874761 
L 309.120188 145.475886 
L 312.902215 148.928533 
L 316.819287 152.227177 
L 320.865136 155.366541 
L 325.033289 158.341604 
L 329.31708 161.147605 
L 333.709654 163.780056 
L 338.203984 166.234744 
L 342.792881 168.507744 
L 347.469002 170.595419 
L 352.224869 172.49443 
L 357.052871 174.201737 
L 361.945285 175.71461 
L 363.289585 176.0931 
L 359.571379 172.571815 
L 355.715334 169.202035 
L 351.727617 165.989152 
L 347.61461 162.938304 
L 343.382891 160.054373 
L 339.039231 157.341973 
L 334.590578 154.805442 
L 330.044049 152.448839 
L 325.406918 150.275934 
L 320.686603 148.290202 
L 315.890656 146.494822 
L 311.026749 144.892664 
L 306.102663 143.486291 
L 301.126276 142.277955 
L 296.105549 141.269588 
L 291.048515 140.462803 
L 285.963262 139.858891 
L 280.857928 139.458817 
L 275.740678 139.263223 
L 273.277429 139.242078 
L 273.439314 134.123651 
L 273.396386 129.002844 
L 273.148714 123.887851 
L 272.696696 118.786853 
L 272.041054 113.708011 
L 271.182837 108.65945 
L 270.123417 103.649247 
L 268.864491 98.685417 
L 267.408071 93.775902 
L 265.756488 88.928555 
L 263.912383 84.151131 
L 261.878708 79.451272 
L 259.658715 74.836499 
L 257.255957 70.314193 
L 254.674276 65.891589 
L 253.271669 63.648 
L 253.271669 63.648 
" style="fill:none;stroke:#1f77b4;stroke-linecap:square;stroke-width:1.5;"/>
   </g>
   <g id="patch_4">
    <path d="M 82.520165 307.584 
L 82.520165 41.472 
" style="fill:none;stroke:#000000;stroke-linecap:square;stroke-linejoin:miter;stroke-width:0.8;"/>
   </g>
   <g id="patch_5">
    <path d="M 389.799835 307.584 
L 389.799835 41.472 
" style="fill:none;stroke:#000000;stroke-linecap:square;stroke-linejoin:miter;stroke-width:0.8;"/>
   </g>
   <g id="patch_6">
    <path d="M 82.520165 307.584 
L 389.799835 307.584 
" style="fill:none;stroke:#000000;stroke-linecap:square;stroke-linejoin:miter;stroke-width:0.8;"/>
   </g>
   <g id="patch_7">
    <path d="M 82.520165 41.472 
L 389.799835 41.472 
" style="fill:none;stroke:#000000;stroke-linecap:square;stroke-linejoin:miter;stroke-width:0.8;"/>
   </g>
  </g>
 </g>
 <defs>
  <clipPath id="p17fb662699">
   <rect height="266.112" width="307.27967" x="82.520165" y="41.472"/>
  </clipPath>
 </defs>
</svg>
