<?xml version="1.0" encoding="utf-8" standalone="no"?>
<!DOCTYPE svg PUBLIC "-//W3C//DTD SVG 1.1//EN"
  "http://www.w3.org/Graphics/SVG/1.1/DTD/svg11.dtd">
<!-- Created with matplotlib (https://matplotlib.org/) -->
<svg height="345.6pt" version="1.1" viewBox="0 0 460.8 345.6" width="460.8pt" xmlns="http://www.w3.org/2000/svg" xmlns:xlink="http://www.w3.org/1999/xlink">
 <defs>
  <style type="text/css">
*{stroke-linecap:butt;stroke-linejoin:round;}
  </style>
 </defs>
 <g id="figure_1">
  <g id="patch_1">
   <path d="M 0 345.6 
L 460.8 345.6 
L 460.8 0 
L 0 0 
z
" style="fill:#ffffff;"/>
  </g>
  <g id="axes_1">
   <g id="patch_2">
    <path d="M 57.6 263.808 
L 414.72 263.808 
L 414.72 85.248 
L 57.6 85.248 
z
" style="fill:#ffffff;"/>
   </g>
   <g id="PathCollection_1">
    <defs>
     <path d="M 0 3 
C 0.795609 3 1.55874 2.683901 2.12132 2.12132 
C 2.683901 1.55874 3 0.795609 3 0 
C 3 -0.795609 2.683901 -1.55874 2.12132 -2.12132 
C 1.55874 -2.683901 0.795609 -3 0 -3 
C -0.795609 -3 -1.55874 -2.683901 -2.12132 -2.12132 
C -2.683901 -1.55874 -3 -0.795609 -3 0 
C -3 0.795609 -2.683901 1.55874 -2.12132 2.12132 
C -1.55874 2.683901 -0.795609 3 0 3 
z
" id="m88e388b595" style="stroke:#000000;"/>
    </defs>
    <g clip-path="url(#pb015759268)">
     <use style="stroke:#000000;" x="89.718761" xlink:href="#m88e388b595" y="166.605767"/>
    </g>
   </g>
   <g id="patch_3">
    <path clip-path="url(#pb015759268)" d="M 161.76 211.728 
C 171.625555 211.728 181.088371 207.808373 188.064372 200.832372 
C 195.040373 193.856371 198.96 184.393555 198.96 174.528 
C 198.96 164.662445 195.040373 155.199629 188.064372 148.223628 
C 181.088371 141.247627 171.625555 137.328 161.76 137.328 
C 151.894445 137.328 142.431629 141.247627 135.455628 148.223628 
C 128.479627 155.199629 124.56 164.662445 124.56 174.528 
C 124.56 184.393555 128.479627 193.856371 135.455628 200.832372 
C 142.431629 207.808373 151.894445 211.728 161.76 211.728 
z
" style="fill:#cc0000;fill-opacity:0.1;stroke:#cc0000;stroke-dasharray:7.4,3.2;stroke-dashoffset:0;stroke-linejoin:miter;stroke-width:2;"/>
   </g>
   <g id="patch_4">
    <path clip-path="url(#pb015759268)" d="M 310.56 196.848 
C 316.479333 196.848 322.157023 194.496224 326.342623 190.310623 
C 330.528224 186.125023 332.88 180.447333 332.88 174.528 
C 332.88 168.608667 330.528224 162.930977 326.342623 158.745377 
C 322.157023 154.559776 316.479333 152.208 310.56 152.208 
C 304.640667 152.208 298.962977 154.559776 294.777377 158.745377 
C 290.591776 162.930977 288.24 168.608667 288.24 174.528 
C 288.24 180.447333 290.591776 186.125023 294.777377 190.310623 
C 298.962977 194.496224 304.640667 196.848 310.56 196.848 
z
" style="fill:#cc0000;fill-opacity:0.1;stroke:#cc0000;stroke-dasharray:7.4,3.2;stroke-dashoffset:0;stroke-linejoin:miter;stroke-width:2;"/>
   </g>
   <g id="matplotlib.axis_1">
    <g id="xtick_1">
     <g id="line2d_1">
      <defs>
       <path d="M 0 0 
L 0 3.5 
" id="m79143c7ee3" style="stroke:#000000;stroke-width:0.8;"/>
      </defs>
      <g>
       <use style="stroke:#000000;stroke-width:0.8;" x="87.36" xlink:href="#m79143c7ee3" y="263.808"/>
      </g>
     </g>
     <g id="text_1">
      <!-- 0.0 -->
      <defs>
       <path d="M 31.78125 66.40625 
Q 24.171875 66.40625 20.328125 58.90625 
Q 16.5 51.421875 16.5 36.375 
Q 16.5 21.390625 20.328125 13.890625 
Q 24.171875 6.390625 31.78125 6.390625 
Q 39.453125 6.390625 43.28125 13.890625 
Q 47.125 21.390625 47.125 36.375 
Q 47.125 51.421875 43.28125 58.90625 
Q 39.453125 66.40625 31.78125 66.40625 
z
M 31.78125 74.21875 
Q 44.046875 74.21875 50.515625 64.515625 
Q 56.984375 54.828125 56.984375 36.375 
Q 56.984375 17.96875 50.515625 8.265625 
Q 44.046875 -1.421875 31.78125 -1.421875 
Q 19.53125 -1.421875 13.0625 8.265625 
Q 6.59375 17.96875 6.59375 36.375 
Q 6.59375 54.828125 13.0625 64.515625 
Q 19.53125 74.21875 31.78125 74.21875 
z
" id="DejaVuSans-48"/>
       <path d="M 10.6875 12.40625 
L 21 12.40625 
L 21 0 
L 10.6875 0 
z
" id="DejaVuSans-46"/>
      </defs>
      <g transform="translate(79.408438 278.406437)scale(0.1 -0.1)">
       <use xlink:href="#DejaVuSans-48"/>
       <use x="63.623047" xlink:href="#DejaVuSans-46"/>
       <use x="95.410156" xlink:href="#DejaVuSans-48"/>
      </g>
     </g>
    </g>
    <g id="xtick_2">
     <g id="line2d_2">
      <g>
       <use style="stroke:#000000;stroke-width:0.8;" x="161.76" xlink:href="#m79143c7ee3" y="263.808"/>
      </g>
     </g>
     <g id="text_2">
      <!-- 0.5 -->
      <defs>
       <path d="M 10.796875 72.90625 
L 49.515625 72.90625 
L 49.515625 64.59375 
L 19.828125 64.59375 
L 19.828125 46.734375 
Q 21.96875 47.46875 24.109375 47.828125 
Q 26.265625 48.1875 28.421875 48.1875 
Q 40.625 48.1875 47.75 41.5 
Q 54.890625 34.8125 54.890625 23.390625 
Q 54.890625 11.625 47.5625 5.09375 
Q 40.234375 -1.421875 26.90625 -1.421875 
Q 22.3125 -1.421875 17.546875 -0.640625 
Q 12.796875 0.140625 7.71875 1.703125 
L 7.71875 11.625 
Q 12.109375 9.234375 16.796875 8.0625 
Q 21.484375 6.890625 26.703125 6.890625 
Q 35.15625 6.890625 40.078125 11.328125 
Q 45.015625 15.765625 45.015625 23.390625 
Q 45.015625 31 40.078125 35.4375 
Q 35.15625 39.890625 26.703125 39.890625 
Q 22.75 39.890625 18.8125 39.015625 
Q 14.890625 38.140625 10.796875 36.28125 
z
" id="DejaVuSans-53"/>
      </defs>
      <g transform="translate(153.808437 278.406437)scale(0.1 -0.1)">
       <use xlink:href="#DejaVuSans-48"/>
       <use x="63.623047" xlink:href="#DejaVuSans-46"/>
       <use x="95.410156" xlink:href="#DejaVuSans-53"/>
      </g>
     </g>
    </g>
    <g id="xtick_3">
     <g id="line2d_3">
      <g>
       <use style="stroke:#000000;stroke-width:0.8;" x="236.16" xlink:href="#m79143c7ee3" y="263.808"/>
      </g>
     </g>
     <g id="text_3">
      <!-- 1.0 -->
      <defs>
       <path d="M 12.40625 8.296875 
L 28.515625 8.296875 
L 28.515625 63.921875 
L 10.984375 60.40625 
L 10.984375 69.390625 
L 28.421875 72.90625 
L 38.28125 72.90625 
L 38.28125 8.296875 
L 54.390625 8.296875 
L 54.390625 0 
L 12.40625 0 
z
" id="DejaVuSans-49"/>
      </defs>
      <g transform="translate(228.208437 278.406437)scale(0.1 -0.1)">
       <use xlink:href="#DejaVuSans-49"/>
       <use x="63.623047" xlink:href="#DejaVuSans-46"/>
       <use x="95.410156" xlink:href="#DejaVuSans-48"/>
      </g>
     </g>
    </g>
    <g id="xtick_4">
     <g id="line2d_4">
      <g>
       <use style="stroke:#000000;stroke-width:0.8;" x="310.56" xlink:href="#m79143c7ee3" y="263.808"/>
      </g>
     </g>
     <g id="text_4">
      <!-- 1.5 -->
      <g transform="translate(302.608437 278.406437)scale(0.1 -0.1)">
       <use xlink:href="#DejaVuSans-49"/>
       <use x="63.623047" xlink:href="#DejaVuSans-46"/>
       <use x="95.410156" xlink:href="#DejaVuSans-53"/>
      </g>
     </g>
    </g>
    <g id="xtick_5">
     <g id="line2d_5">
      <g>
       <use style="stroke:#000000;stroke-width:0.8;" x="384.96" xlink:href="#m79143c7ee3" y="263.808"/>
      </g>
     </g>
     <g id="text_5">
      <!-- 2.0 -->
      <defs>
       <path d="M 19.1875 8.296875 
L 53.609375 8.296875 
L 53.609375 0 
L 7.328125 0 
L 7.328125 8.296875 
Q 12.9375 14.109375 22.625 23.890625 
Q 32.328125 33.6875 34.8125 36.53125 
Q 39.546875 41.84375 41.421875 45.53125 
Q 43.3125 49.21875 43.3125 52.78125 
Q 43.3125 58.59375 39.234375 62.25 
Q 35.15625 65.921875 28.609375 65.921875 
Q 23.96875 65.921875 18.8125 64.3125 
Q 13.671875 62.703125 7.8125 59.421875 
L 7.8125 69.390625 
Q 13.765625 71.78125 18.9375 73 
Q 24.125 74.21875 28.421875 74.21875 
Q 39.75 74.21875 46.484375 68.546875 
Q 53.21875 62.890625 53.21875 53.421875 
Q 53.21875 48.921875 51.53125 44.890625 
Q 49.859375 40.875 45.40625 35.40625 
Q 44.1875 33.984375 37.640625 27.21875 
Q 31.109375 20.453125 19.1875 8.296875 
z
" id="DejaVuSans-50"/>
      </defs>
      <g transform="translate(377.008437 278.406437)scale(0.1 -0.1)">
       <use xlink:href="#DejaVuSans-50"/>
       <use x="63.623047" xlink:href="#DejaVuSans-46"/>
       <use x="95.410156" xlink:href="#DejaVuSans-48"/>
      </g>
     </g>
    </g>
   </g>
   <g id="matplotlib.axis_2">
    <g id="ytick_1">
     <g id="line2d_6">
      <defs>
       <path d="M 0 0 
L -3.5 0 
" id="m56bfdf765f" style="stroke:#000000;stroke-width:0.8;"/>
      </defs>
      <g>
       <use style="stroke:#000000;stroke-width:0.8;" x="57.6" xlink:href="#m56bfdf765f" y="248.928"/>
      </g>
     </g>
     <g id="text_6">
      <!-- 0.0 -->
      <g transform="translate(34.696875 252.727219)scale(0.1 -0.1)">
       <use xlink:href="#DejaVuSans-48"/>
       <use x="63.623047" xlink:href="#DejaVuSans-46"/>
       <use x="95.410156" xlink:href="#DejaVuSans-48"/>
      </g>
     </g>
    </g>
    <g id="ytick_2">
     <g id="line2d_7">
      <g>
       <use style="stroke:#000000;stroke-width:0.8;" x="57.6" xlink:href="#m56bfdf765f" y="219.168"/>
      </g>
     </g>
     <g id="text_7">
      <!-- 0.2 -->
      <g transform="translate(34.696875 222.967219)scale(0.1 -0.1)">
       <use xlink:href="#DejaVuSans-48"/>
       <use x="63.623047" xlink:href="#DejaVuSans-46"/>
       <use x="95.410156" xlink:href="#DejaVuSans-50"/>
      </g>
     </g>
    </g>
    <g id="ytick_3">
     <g id="line2d_8">
      <g>
       <use style="stroke:#000000;stroke-width:0.8;" x="57.6" xlink:href="#m56bfdf765f" y="189.408"/>
      </g>
     </g>
     <g id="text_8">
      <!-- 0.4 -->
      <defs>
       <path d="M 37.796875 64.3125 
L 12.890625 25.390625 
L 37.796875 25.390625 
z
M 35.203125 72.90625 
L 47.609375 72.90625 
L 47.609375 25.390625 
L 58.015625 25.390625 
L 58.015625 17.1875 
L 47.609375 17.1875 
L 47.609375 0 
L 37.796875 0 
L 37.796875 17.1875 
L 4.890625 17.1875 
L 4.890625 26.703125 
z
" id="DejaVuSans-52"/>
      </defs>
      <g transform="translate(34.696875 193.207219)scale(0.1 -0.1)">
       <use xlink:href="#DejaVuSans-48"/>
       <use x="63.623047" xlink:href="#DejaVuSans-46"/>
       <use x="95.410156" xlink:href="#DejaVuSans-52"/>
      </g>
     </g>
    </g>
    <g id="ytick_4">
     <g id="line2d_9">
      <g>
       <use style="stroke:#000000;stroke-width:0.8;" x="57.6" xlink:href="#m56bfdf765f" y="159.648"/>
      </g>
     </g>
     <g id="text_9">
      <!-- 0.6 -->
      <defs>
       <path d="M 33.015625 40.375 
Q 26.375 40.375 22.484375 35.828125 
Q 18.609375 31.296875 18.609375 23.390625 
Q 18.609375 15.53125 22.484375 10.953125 
Q 26.375 6.390625 33.015625 6.390625 
Q 39.65625 6.390625 43.53125 10.953125 
Q 47.40625 15.53125 47.40625 23.390625 
Q 47.40625 31.296875 43.53125 35.828125 
Q 39.65625 40.375 33.015625 40.375 
z
M 52.59375 71.296875 
L 52.59375 62.3125 
Q 48.875 64.0625 45.09375 64.984375 
Q 41.3125 65.921875 37.59375 65.921875 
Q 27.828125 65.921875 22.671875 59.328125 
Q 17.53125 52.734375 16.796875 39.40625 
Q 19.671875 43.65625 24.015625 45.921875 
Q 28.375 48.1875 33.59375 48.1875 
Q 44.578125 48.1875 50.953125 41.515625 
Q 57.328125 34.859375 57.328125 23.390625 
Q 57.328125 12.15625 50.6875 5.359375 
Q 44.046875 -1.421875 33.015625 -1.421875 
Q 20.359375 -1.421875 13.671875 8.265625 
Q 6.984375 17.96875 6.984375 36.375 
Q 6.984375 53.65625 15.1875 63.9375 
Q 23.390625 74.21875 37.203125 74.21875 
Q 40.921875 74.21875 44.703125 73.484375 
Q 48.484375 72.75 52.59375 71.296875 
z
" id="DejaVuSans-54"/>
      </defs>
      <g transform="translate(34.696875 163.447219)scale(0.1 -0.1)">
       <use xlink:href="#DejaVuSans-48"/>
       <use x="63.623047" xlink:href="#DejaVuSans-46"/>
       <use x="95.410156" xlink:href="#DejaVuSans-54"/>
      </g>
     </g>
    </g>
    <g id="ytick_5">
     <g id="line2d_10">
      <g>
       <use style="stroke:#000000;stroke-width:0.8;" x="57.6" xlink:href="#m56bfdf765f" y="129.888"/>
      </g>
     </g>
     <g id="text_10">
      <!-- 0.8 -->
      <defs>
       <path d="M 31.78125 34.625 
Q 24.75 34.625 20.71875 30.859375 
Q 16.703125 27.09375 16.703125 20.515625 
Q 16.703125 13.921875 20.71875 10.15625 
Q 24.75 6.390625 31.78125 6.390625 
Q 38.8125 6.390625 42.859375 10.171875 
Q 46.921875 13.96875 46.921875 20.515625 
Q 46.921875 27.09375 42.890625 30.859375 
Q 38.875 34.625 31.78125 34.625 
z
M 21.921875 38.8125 
Q 15.578125 40.375 12.03125 44.71875 
Q 8.5 49.078125 8.5 55.328125 
Q 8.5 64.0625 14.71875 69.140625 
Q 20.953125 74.21875 31.78125 74.21875 
Q 42.671875 74.21875 48.875 69.140625 
Q 55.078125 64.0625 55.078125 55.328125 
Q 55.078125 49.078125 51.53125 44.71875 
Q 48 40.375 41.703125 38.8125 
Q 48.828125 37.15625 52.796875 32.3125 
Q 56.78125 27.484375 56.78125 20.515625 
Q 56.78125 9.90625 50.3125 4.234375 
Q 43.84375 -1.421875 31.78125 -1.421875 
Q 19.734375 -1.421875 13.25 4.234375 
Q 6.78125 9.90625 6.78125 20.515625 
Q 6.78125 27.484375 10.78125 32.3125 
Q 14.796875 37.15625 21.921875 38.8125 
z
M 18.3125 54.390625 
Q 18.3125 48.734375 21.84375 45.5625 
Q 25.390625 42.390625 31.78125 42.390625 
Q 38.140625 42.390625 41.71875 45.5625 
Q 45.3125 48.734375 45.3125 54.390625 
Q 45.3125 60.0625 41.71875 63.234375 
Q 38.140625 66.40625 31.78125 66.40625 
Q 25.390625 66.40625 21.84375 63.234375 
Q 18.3125 60.0625 18.3125 54.390625 
z
" id="DejaVuSans-56"/>
      </defs>
      <g transform="translate(34.696875 133.687219)scale(0.1 -0.1)">
       <use xlink:href="#DejaVuSans-48"/>
       <use x="63.623047" xlink:href="#DejaVuSans-46"/>
       <use x="95.410156" xlink:href="#DejaVuSans-56"/>
      </g>
     </g>
    </g>
    <g id="ytick_6">
     <g id="line2d_11">
      <g>
       <use style="stroke:#000000;stroke-width:0.8;" x="57.6" xlink:href="#m56bfdf765f" y="100.128"/>
      </g>
     </g>
     <g id="text_11">
      <!-- 1.0 -->
      <g transform="translate(34.696875 103.927219)scale(0.1 -0.1)">
       <use xlink:href="#DejaVuSans-49"/>
       <use x="63.623047" xlink:href="#DejaVuSans-46"/>
       <use x="95.410156" xlink:href="#DejaVuSans-48"/>
      </g>
     </g>
    </g>
   </g>
   <g id="line2d_12">
    <path clip-path="url(#pb015759268)" d="M 236.16 248.928 
L 236.16 100.128 
" style="fill:none;stroke:#cc0000;stroke-dasharray:7.4,3.2;stroke-dashoffset:0;stroke-width:2;"/>
   </g>
   <g id="line2d_13">
    <path clip-path="url(#pb015759268)" d="M 87.36 248.928 
L 384.96 248.928 
" style="fill:none;stroke:#009900;stroke-linecap:square;stroke-width:2;"/>
   </g>
   <g id="line2d_14">
    <path clip-path="url(#pb015759268)" d="M 384.96 248.928 
L 384.96 100.128 
" style="fill:none;stroke:#009900;stroke-linecap:square;stroke-width:2;"/>
   </g>
   <g id="line2d_15">
    <path clip-path="url(#pb015759268)" d="M 384.96 100.128 
L 87.36 100.128 
" style="fill:none;stroke:#009900;stroke-linecap:square;stroke-width:2;"/>
   </g>
   <g id="line2d_16">
    <path clip-path="url(#pb015759268)" d="M 87.36 100.128 
L 87.36 248.928 
" style="fill:none;stroke:#009900;stroke-linecap:square;stroke-width:2;"/>
   </g>
   <g id="line2d_17">
    <path clip-path="url(#pb015759268)" d="M 89.718761 166.605767 
L 87.36 170.105853 
L 90.714735 175.021881 
L 94.263375 179.799824 
L 98.000243 184.432037 
L 101.919361 188.91111 
L 106.014459 193.229877 
L 110.278987 197.381429 
L 114.706121 201.359125 
L 119.288779 205.156601 
L 124.01963 208.767782 
L 128.891106 212.186891 
L 133.895412 215.408458 
L 139.024545 218.427329 
L 144.270297 221.238675 
L 149.624277 223.837998 
L 155.077919 226.221139 
L 160.6225 228.384287 
L 166.249148 230.323981 
L 171.948863 232.037117 
L 177.712525 233.520954 
L 183.530915 234.77312 
L 189.394724 235.791611 
L 195.294572 236.574797 
L 201.221019 237.121426 
L 207.164585 237.430623 
L 213.115762 237.501893 
L 219.065028 237.335123 
L 225.002866 236.930579 
L 230.919777 236.288908 
L 239.124781 235.261279 
L 246.524149 234.486635 
L 253.901841 233.527269 
L 261.253245 232.38378 
L 268.573768 231.056882 
L 275.858835 229.547405 
L 283.103892 227.856291 
L 290.304412 225.984599 
L 297.455894 223.933497 
L 304.553869 221.704268 
L 311.593902 219.298304 
L 318.571591 216.71711 
L 325.482577 213.962298 
L 332.322541 211.035591 
L 339.087207 207.938816 
L 345.772348 204.673911 
L 352.373785 201.242914 
L 358.887394 197.647971 
L 365.309104 193.891328 
L 371.6349 189.975333 
L 377.86083 185.902433 
L 384.96 180.979417 
L 378.854914 176.727518 
L 372.64545 172.629559 
L 366.335488 168.688101 
L 359.928971 164.905607 
L 353.429904 161.284441 
L 346.842347 157.826867 
L 340.170419 154.535044 
L 333.418289 151.411032 
L 326.590177 148.456781 
L 319.690349 145.674138 
L 312.723119 143.064843 
L 305.692841 140.630525 
L 298.603908 138.372707 
L 291.46075 136.292799 
L 284.267832 134.392102 
L 277.02965 132.671803 
L 269.750726 131.132977 
L 262.43561 129.776586 
L 255.088874 128.603477 
L 247.715109 127.614385 
L 240.318923 126.809926 
L 236.16 126.439533 
L 243.566744 125.738921 
L 250.95366 124.853378 
L 258.316132 123.783459 
L 265.649558 122.529832 
L 272.949355 121.093279 
L 280.210961 119.4747 
L 287.429837 117.675105 
L 294.601472 115.695619 
L 301.721385 113.53748 
L 308.785124 111.202036 
L 315.788277 108.690746 
L 322.726465 106.005181 
L 329.595353 103.147018 
L 336.369041 100.128 
L 343.164578 103.156431 
L 350.033695 106.014044 
L 356.972097 108.699055 
L 363.97545 111.209785 
L 371.039377 113.544664 
L 378.159462 115.702234 
L 384.96 117.583427 
L 377.790765 119.571589 
L 370.673469 121.738343 
L 363.612561 124.082333 
L 356.612453 126.602094 
L 349.677519 129.296053 
L 342.812095 132.162526 
L 336.02047 135.19972 
L 329.306889 138.405738 
L 322.675549 141.778577 
L 316.130592 145.316127 
L 309.676111 149.016179 
L 303.316138 152.876421 
L 300.861836 154.425065 
L 293.857168 156.932123 
L 286.917359 159.613497 
L 280.046745 162.46751 
L 273.249622 165.492378 
L 266.530236 168.686212 
L 259.892788 172.047015 
L 253.341425 175.572686 
L 246.880241 179.261023 
L 240.513276 183.10972 
L 236.16 185.868602 
L 233.821813 191.341669 
L 231.704362 196.903861 
L 229.811032 202.546279 
L 228.144853 208.259897 
L 226.708491 214.035574 
L 225.504243 219.86407 
L 224.534036 225.736061 
L 223.799422 231.642153 
L 223.301576 237.572897 
L 223.041295 243.518806 
L 223.011169 248.928 
L 222.967174 242.976559 
L 222.68522 237.031639 
L 222.165758 231.102748 
L 221.40962 225.199373 
L 220.418014 219.330958 
L 219.192527 213.50689 
L 217.73512 207.736488 
L 216.048125 202.028982 
L 214.134239 196.393503 
L 211.996525 190.839067 
L 209.638403 185.374559 
L 207.063645 180.008723 
L 204.276371 174.750141 
L 201.281038 169.607227 
L 198.08244 164.588208 
L 197.233794 163.327556 
L 197.031122 157.379404 
L 196.590749 151.444116 
L 195.91338 145.531185 
L 195.000099 139.650071 
L 193.852367 133.810183 
L 192.472019 128.020863 
L 190.861265 122.291374 
L 189.02268 116.63088 
L 186.959207 111.048438 
L 184.674146 105.552978 
L 182.158806 100.128 
L 179.654792 105.527212 
L 177.368692 111.02224 
L 175.304162 116.604291 
L 173.464507 122.264437 
L 171.852669 127.993622 
L 170.471227 133.78268 
L 168.577871 142.508485 
L 167.309648 146.787846 
L 165.787099 150.983459 
L 164.015704 155.080223 
L 162.001839 159.063396 
L 159.75275 162.918641 
L 157.276533 166.632085 
L 154.582098 170.190363 
L 151.679144 173.580669 
L 148.578116 176.790801 
L 145.290177 179.809207 
L 141.827158 182.625023 
L 138.201524 185.228116 
L 134.426321 187.609117 
L 130.515138 189.759457 
L 128.324507 190.834681 
L 132.36718 188.943089 
L 136.516005 187.297316 
L 140.756051 185.903284 
L 145.07206 184.766011 
L 149.448497 183.88959 
L 153.869613 183.277174 
L 158.319496 182.930968 
L 162.782132 182.852219 
L 167.241459 183.041208 
L 171.68143 183.497256 
L 176.086064 184.218722 
L 180.439511 185.20301 
L 184.726102 186.446576 
L 188.93041 187.944946 
L 193.037304 189.692727 
L 197.890526 192.096641 
L 203.277688 194.626478 
L 208.761706 196.938861 
L 214.333809 199.030093 
L 219.985082 200.896827 
L 225.706484 202.536078 
L 231.488862 203.945222 
L 236.16 204.906761 
L 230.335434 206.129879 
L 224.56444 207.584939 
L 218.856248 209.269613 
L 213.219991 211.181206 
L 207.664686 213.31666 
L 202.19922 215.67256 
L 196.832336 218.245135 
L 191.572621 221.03027 
L 186.428489 224.02351 
L 181.408169 227.220066 
L 176.519694 230.614825 
L 171.770882 234.202355 
L 167.169333 237.976917 
L 162.722406 241.932473 
L 158.437216 246.062694 
L 155.656628 248.928 
L 151.483795 244.684293 
L 147.144598 240.610849 
L 142.645977 236.714185 
L 137.995129 233.000534 
L 133.199496 229.475839 
L 128.266748 226.145737 
L 123.204777 223.015556 
L 118.021681 220.090304 
L 112.725753 217.37466 
L 107.325464 214.872969 
L 101.829453 212.589234 
L 96.246514 210.527106 
L 90.585577 208.689887 
L 87.36 207.753507 
L 93.060962 206.044527 
L 98.689023 204.108936 
L 104.235179 201.949831 
L 109.690557 199.570667 
L 115.046431 196.975248 
L 120.294231 194.167727 
L 125.425563 191.152596 
L 129.099136 188.97974 
L 133.128506 187.059975 
L 137.265742 185.385282 
L 141.495954 183.961687 
L 145.803919 182.794315 
L 150.174132 181.887366 
L 154.590865 181.244105 
L 159.038223 180.866846 
L 163.500201 180.756948 
L 167.960739 180.914805 
L 172.403784 181.33985 
L 176.813348 182.030553 
L 181.173559 182.984428 
L 185.468726 184.198042 
L 189.68339 185.667028 
L 193.802385 187.386099 
L 196.222105 188.535259 
L 192.015373 187.043707 
L 187.905651 185.302588 
L 183.907728 183.318166 
L 180.035993 181.097583 
L 176.30438 178.648831 
L 172.726319 175.980724 
L 169.314687 173.102862 
L 166.081762 170.025605 
L 163.03918 166.760025 
L 160.197889 163.317876 
L 157.568117 159.711547 
L 155.159327 155.954014 
L 152.980187 152.058803 
L 151.038542 148.039931 
L 149.341378 143.911862 
L 147.983193 139.973122 
L 149.822311 144.039935 
L 151.414256 148.20971 
L 152.753301 152.467442 
L 153.834625 156.797806 
L 154.654338 161.185219 
L 155.209489 165.61389 
L 155.498079 170.067881 
L 155.519072 174.531162 
L 155.27239 178.98767 
L 154.758923 183.421367 
L 153.980516 187.816296 
L 152.939974 192.15664 
L 151.641039 196.426779 
L 150.088386 200.611345 
L 148.287605 204.695278 
L 146.388482 208.403602 
L 148.04674 204.259752 
L 149.950496 200.222793 
L 152.092898 196.307256 
L 154.466237 192.527232 
L 157.06197 188.896325 
L 159.870756 185.427602 
L 162.882486 182.133547 
L 166.086322 179.026014 
L 169.470732 176.116189 
L 173.023537 173.414542 
L 176.731951 170.930798 
L 180.582627 168.673894 
L 184.561706 166.651953 
L 188.654869 164.872252 
L 192.847385 163.341196 
L 196.837193 162.141293 
L 192.70022 163.816634 
L 188.47023 165.240891 
L 184.162448 166.408938 
L 179.792377 167.316571 
L 175.375745 167.960524 
L 170.928446 168.33848 
L 166.466486 168.449077 
L 162.005923 168.291918 
L 157.562811 167.867569 
L 153.15314 167.177557 
L 148.792779 166.224365 
L 144.497422 165.011423 
L 140.282528 163.543097 
L 136.163264 161.824671 
L 132.154457 159.86233 
L 128.524883 157.816717 
L 123.601243 154.473163 
L 118.547835 151.329177 
L 113.372744 148.389788 
L 108.084248 145.659698 
L 102.690807 143.143276 
L 97.201051 140.844546 
L 91.623761 138.767187 
L 87.36 137.34737 
L 92.997478 135.43938 
L 98.554147 133.307478 
L 104.021118 130.955073 
L 109.389645 128.38593 
L 114.65114 125.604157 
L 119.797184 122.614207 
L 124.819546 119.42086 
L 129.710191 116.029228 
L 134.461295 112.444734 
L 139.065257 108.673115 
L 143.514712 104.720403 
L 147.802541 100.592922 
L 148.264543 100.128 
L 152.53415 104.274328 
L 156.96615 108.246601 
L 161.553454 112.038464 
L 166.288723 115.64385 
L 171.164381 119.056992 
L 176.172628 122.27243 
L 181.305453 125.285019 
L 186.554643 128.08994 
L 191.911802 130.682706 
L 197.368358 133.059169 
L 202.915582 135.215526 
L 208.544601 137.14833 
L 214.246409 138.854486 
L 220.011884 140.331266 
L 225.831802 141.576308 
L 231.696854 142.587618 
L 236.16 143.196623 
L 243.59133 143.551655 
L 251.029213 143.720813 
L 258.469 143.70399 
L 265.906042 143.501197 
L 273.335691 143.112561 
L 280.753303 142.538324 
L 288.154243 141.778846 
L 295.533885 140.8346 
L 302.887617 139.706178 
L 310.210844 138.394285 
L 317.498989 136.89974 
L 324.747496 135.223477 
L 331.951837 133.366544 
L 339.107507 131.330102 
L 346.210036 129.115423 
L 353.254984 126.723891 
L 360.237948 124.157002 
L 367.154565 121.416358 
L 374.000512 118.503673 
L 380.77151 115.420768 
L 384.96 113.410049 
L 378.237956 110.221814 
L 371.438315 107.202609 
L 364.565326 104.354321 
L 357.623286 101.67873 
L 353.344883 100.128 
L 346.362742 102.697127 
L 339.447003 105.439987 
L 332.60199 108.354865 
L 325.831981 111.439939 
L 319.141205 114.693282 
L 312.533846 118.112861 
L 306.014031 121.696538 
L 299.585837 125.442073 
L 293.25328 129.347126 
L 287.020318 133.409256 
L 280.890846 137.625925 
L 274.868696 141.994497 
L 268.95763 146.512241 
L 263.161343 151.176336 
L 257.483458 155.983865 
L 251.927522 160.931824 
L 246.497009 166.017121 
L 241.195312 171.236577 
L 236.16 176.444553 
L 241.333085 181.791506 
L 246.638213 187.007475 
L 252.072069 192.0892 
L 257.631257 197.033504 
L 263.312302 201.837299 
L 269.111655 206.49758 
L 275.02569 211.011437 
L 281.050712 215.376048 
L 287.182955 219.588685 
L 293.418587 223.646716 
L 299.75371 227.547604 
L 306.184366 231.288911 
L 312.706536 234.8683 
L 319.316142 238.283533 
L 326.009056 241.532476 
L 332.781093 244.613098 
L 339.628021 247.523474 
L 343.112981 248.928 
L 349.996108 246.1043 
L 356.806499 243.109422 
L 363.539897 239.945237 
L 370.192095 236.613725 
L 376.758936 233.116965 
L 383.236314 229.457144 
L 384.96 228.446848 
L 378.507338 224.743624 
L 371.964121 221.202857 
L 365.334439 217.826759 
L 358.622435 214.617442 
L 351.832304 211.576909 
L 344.968289 208.707063 
L 338.034681 206.009696 
L 331.035812 203.486494 
L 323.976056 201.139034 
L 316.859826 198.968783 
L 308.991138 196.792794 
L 301.612085 197.74163 
L 294.259056 198.874627 
L 286.936647 200.191075 
L 279.649433 201.690154 
L 272.40197 203.370926 
L 265.198786 205.23234 
L 258.044384 207.273233 
L 250.943234 209.49233 
L 243.899775 211.888244 
L 236.16 214.750802 
L 243.134321 217.341085 
L 250.171213 219.756218 
L 257.266278 221.994692 
L 264.415082 224.055109 
L 271.613157 225.936181 
L 278.856005 227.636732 
L 286.139099 229.155698 
L 293.457887 230.492132 
L 300.807796 231.645198 
L 308.184231 232.614175 
L 315.582584 233.398457 
L 322.998229 233.997555 
L 330.426534 234.411093 
L 337.862854 234.638814 
L 345.302543 234.680576 
L 352.740951 234.536351 
L 360.17343 234.206231 
L 367.595334 233.690421 
L 375.002024 232.989244 
L 382.388873 232.103138 
L 384.96 231.750646 
L 377.581159 230.800159 
L 370.180865 230.03442 
L 362.763741 229.453909 
L 355.334424 229.058988 
L 347.897556 228.849904 
L 340.457786 228.826787 
L 333.019762 228.989653 
L 325.588134 229.338399 
L 318.167546 229.872808 
L 310.762636 230.592544 
L 303.378031 231.49716 
L 296.018347 232.586088 
L 288.688183 233.85865 
L 281.39212 235.314048 
L 274.134719 236.951375 
L 266.920514 238.769605 
L 259.754014 240.767604 
L 252.639699 242.944123 
L 245.582014 245.297801 
L 238.58537 247.827167 
L 236.16 248.75049 
L 236.621376 248.928 
L 243.533349 246.175665 
L 250.374361 243.251408 
L 257.140136 240.157058 
L 263.826446 236.894548 
L 270.429113 233.465917 
L 276.94401 229.873308 
L 283.367065 226.118967 
L 289.694264 222.205238 
L 295.921653 218.13457 
L 302.04534 213.909504 
L 308.061497 209.532683 
L 313.966366 205.006842 
L 319.756255 200.334808 
L 325.427546 195.519502 
L 330.976695 190.563933 
L 336.400234 185.471198 
L 341.694773 180.24448 
L 346.857002 174.887046 
L 351.883697 169.402244 
L 356.771716 163.793502 
L 361.518003 158.064324 
L 366.119592 152.218292 
L 370.573608 146.259059 
L 374.877267 140.190349 
L 379.027879 134.015955 
L 383.02285 127.739736 
L 384.96 124.566637 
L 381.043743 118.241003 
L 376.970585 112.015241 
L 372.743072 105.893244 
L 368.549874 100.128 
L 364.176935 106.14698 
L 359.955821 112.273391 
L 355.88917 118.503405 
L 351.979525 124.833127 
L 348.229327 131.258603 
L 344.640922 137.775815 
L 341.216551 144.380693 
L 337.958355 151.069106 
L 334.86837 157.836876 
L 331.948527 164.679773 
L 331.297422 166.273199 
L 338.103902 169.276954 
L 344.983341 172.109626 
L 351.93144 174.769445 
L 358.943856 177.254749 
L 366.016208 179.563984 
L 373.144074 181.695707 
L 380.323 183.648585 
L 384.96 184.808293 
L 377.750635 186.645622 
L 370.589451 188.662591 
L 363.480924 190.857941 
L 356.429497 193.2303 
L 349.439575 195.778184 
L 342.515529 198.500003 
L 335.661684 201.394053 
L 328.882325 204.458528 
L 322.181688 207.691512 
L 315.563961 211.090984 
L 309.03328 214.654819 
L 302.593727 218.380791 
L 296.249325 222.266571 
L 290.00404 226.309729 
L 283.861775 230.507741 
L 277.826369 234.857981 
L 271.901593 239.357731 
L 266.091151 244.004179 
L 260.244012 248.928 
L 254.554825 244.13385 
L 248.747575 239.483413 
L 242.825891 234.979595 
L 236.16 230.181117 
L 242.203717 225.84243 
L 248.137089 221.354022 
L 253.956408 216.718697 
L 259.658038 211.939352 
L 265.238416 207.018976 
L 270.694053 201.960642 
L 276.021539 196.767512 
L 281.217547 191.442831 
L 286.278827 185.989927 
L 289.615075 182.241139 
L 294.585464 178.967485 
L 299.682789 175.895213 
L 304.898895 173.029236 
L 310.225437 170.37414 
L 315.653894 167.934173 
L 321.175581 165.713239 
L 326.781665 163.714889 
L 329.560727 162.81669 
L 325.337759 167.01051 
L 320.950461 171.032101 
L 316.405851 174.87503 
L 311.7112 178.533149 
L 306.874019 182.000606 
L 301.902046 185.271854 
L 296.803235 188.34166 
L 294.257321 189.772837 
L 297.565322 184.825241 
L 301.068529 180.013887 
L 304.761336 175.346473 
L 308.637836 170.830465 
L 312.691827 166.473088 
L 316.916824 162.281312 
L 321.306068 158.261845 
L 323.517826 156.354471 
L 321.256036 161.859549 
L 318.77591 167.269777 
L 316.081417 172.576497 
L 313.176866 177.771223 
L 310.066906 182.845641 
L 306.756511 187.791636 
L 303.250976 192.601294 
L 301.461126 194.90919 
L 302.586969 189.065042 
L 303.945616 183.270591 
L 305.534892 177.535107 
L 307.352255 171.867764 
L 309.394797 166.27763 
L 311.659252 160.773647 
L 314.141996 155.364621 
L 315.438927 152.747769 
L 315.493698 158.69912 
L 315.310434 164.647901 
L 314.88943 170.584595 
L 314.231357 176.499704 
L 313.33727 182.383767 
L 312.208598 188.227368 
L 310.847148 194.021161 
L 310.094591 196.843147 
L 308.861379 191.020711 
L 307.861988 185.153616 
L 307.098018 179.251249 
L 306.570691 173.323054 
L 306.28085 167.378512 
L 306.228959 161.427135 
L 306.415102 155.478444 
L 306.593426 152.563285 
L 308.956152 158.025803 
L 311.098546 163.578436 
L 313.017181 169.2123 
L 314.708986 174.918382 
L 316.171255 180.687555 
L 317.40165 186.510587 
L 318.398201 192.378165 
L 318.801184 195.270837 
L 315.402684 190.384961 
L 312.202286 185.36709 
L 309.205108 180.225251 
L 306.415947 174.96767 
L 303.839264 169.602758 
L 301.479182 164.139097 
L 299.339475 158.585428 
L 298.371173 155.830008 
L 302.670611 159.945395 
L 306.802039 164.229422 
L 310.758847 168.675235 
L 314.534705 173.275721 
L 318.123572 178.023522 
L 321.519707 182.911042 
L 324.717677 187.930461 
L 326.212881 190.439308 
L 321.183083 187.257687 
L 316.284539 183.877472 
L 311.525086 180.304072 
L 306.912338 176.543203 
L 302.453674 172.600882 
L 298.156228 168.483415 
L 294.026874 164.197389 
L 292.06409 162.034654 
L 297.624691 164.156279 
L 303.096002 166.498572 
L 308.46927 169.057785 
L 313.735899 171.829825 
L 318.887463 174.810256 
L 323.91572 177.994311 
L 328.812628 181.376896 
L 331.165118 183.107714 
L 325.294329 182.13026 
L 319.467324 180.918818 
L 313.693425 179.475328 
L 307.981868 177.802098 
L 302.341791 175.901805 
L 296.782217 173.777489 
L 291.31204 171.432548 
L 288.663177 170.202316 
L 282.88606 165.514498 
L 276.993565 160.972558 
L 270.989375 156.579334 
L 264.877242 152.337572 
L 258.660985 148.249923 
L 252.344491 144.318942 
L 245.931706 140.547084 
L 239.426638 136.936709 
L 236.16 135.202841 
L 242.709431 131.673581 
L 249.168592 127.981705 
L 255.533448 124.12952 
L 261.800021 120.119435 
L 267.964393 115.953954 
L 274.022714 111.635682 
L 279.971195 107.167317 
L 285.80612 102.551652 
L 288.753681 100.128 
L 294.528942 104.818104 
L 300.419639 109.362376 
L 306.42209 113.757975 
L 312.532545 118.002156 
L 318.747183 122.092265 
L 325.062121 126.025746 
L 331.473413 129.80014 
L 337.977051 133.41309 
L 344.568971 136.862337 
L 351.245054 140.145725 
L 358.001127 143.261202 
L 364.832967 146.206822 
L 371.736305 148.980743 
L 378.706827 151.581232 
L 384.96 153.747291 
L 377.933378 156.192143 
L 370.970067 158.811879 
L 364.074419 161.604861 
L 357.250742 164.569343 
L 350.503302 167.703473 
L 343.836316 171.005292 
L 337.253949 174.472737 
L 332.745932 176.970707 
L 338.331965 181.884662 
L 344.039089 186.657444 
L 349.863737 191.286072 
L 355.802268 195.767653 
L 361.850971 200.099385 
L 368.006066 204.278562 
L 374.263707 208.302572 
L 380.619982 212.1689 
L 384.96 214.685905 
L 378.539451 218.44453 
L 372.214863 222.362478 
L 365.990191 226.437299 
L 359.869323 230.666447 
L 353.856086 235.04728 
L 347.954237 239.577059 
L 342.167466 244.252954 
L 336.664699 248.928 
L 330.993071 244.11309 
L 325.202856 239.44146 
L 319.297672 234.91603 
L 313.281208 230.539629 
L 307.157227 226.314991 
L 300.929554 222.244757 
L 294.602081 218.331471 
L 288.178764 214.577577 
L 281.663617 210.985423 
L 275.060711 207.557253 
L 268.374173 204.29521 
L 261.608182 201.201332 
L 254.766966 198.277553 
L 247.854801 195.5257 
L 240.876007 192.947493 
L 236.16 191.316328 
L 243.181043 188.8555 
L 250.138377 186.219932 
L 257.027655 183.411273 
L 263.844571 180.431278 
L 270.584865 177.281809 
L 277.244324 173.964834 
L 283.818786 170.482426 
L 289.4286 167.341461 
L 286.487314 160.507753 
L 283.376123 153.749706 
L 280.09697 147.071542 
L 276.651904 140.477436 
L 273.04308 133.971507 
L 269.272753 127.557823 
L 265.343278 121.240391 
L 261.257111 115.02316 
L 257.016807 108.910015 
L 252.625015 102.904777 
L 250.514963 100.128 
L 246.0531 106.08136 
L 241.741449 112.144394 
L 237.582706 118.313314 
L 236.16 120.502573 
L 240.264462 126.707741 
L 244.522754 132.808369 
L 248.932216 138.800644 
L 253.490091 144.680822 
L 258.193531 150.445228 
L 263.039596 156.090258 
L 268.025258 161.612386 
L 273.147401 167.008159 
L 278.402824 172.274206 
L 283.788241 177.407235 
L 289.873411 182.909373 
L 295.719927 184.022847 
L 301.51724 185.369228 
L 307.256075 186.946363 
L 312.927251 188.751729 
L 318.521695 190.782437 
L 323.418273 192.772101 
L 323.175572 186.825448 
L 323.170867 180.873847 
L 323.404166 174.926818 
L 323.875097 168.993876 
L 324.582905 163.084511 
L 325.409151 157.864113 
L 319.672816 159.450319 
L 313.877639 160.805865 
L 308.03289 161.92858 
L 302.14792 162.81667 
L 296.232143 163.468714 
L 290.960463 163.849022 
L 284.904931 168.171203 
L 278.959335 172.643406 
L 273.127389 177.262836 
L 267.41274 182.026606 
L 261.818959 186.931738 
L 256.349541 191.975168 
L 251.007904 197.153743 
L 245.797388 202.464227 
L 240.721248 207.9033 
L 236.16 213.03241 
L 241.109351 218.587106 
L 246.196008 224.016345 
L 251.416792 229.316734 
L 256.768441 234.484961 
L 262.24761 239.517796 
L 267.850874 244.412093 
L 273.282566 248.928 
L 279.000414 244.16807 
L 284.597489 239.266696 
L 290.070294 234.226941 
L 295.415407 229.051955 
L 300.629489 223.744973 
L 305.709282 218.30931 
L 310.651609 212.748364 
L 315.453383 207.065611 
L 320.111602 201.264602 
L 324.623356 195.348962 
L 328.985824 189.322388 
L 333.19628 183.188647 
L 337.252093 176.951573 
L 341.150728 170.615063 
L 344.889748 164.183077 
L 348.466818 157.659635 
L 351.8797 151.048814 
L 355.126263 144.354746 
L 358.204476 137.581614 
L 361.112418 130.733651 
L 363.848269 123.815137 
L 366.410321 116.830396 
L 368.796971 109.783793 
L 371.00673 102.679732 
L 371.753221 100.128 
L 373.899426 107.251519 
L 376.223029 114.319162 
L 378.722579 121.326513 
L 381.396514 128.269192 
L 384.243162 135.14286 
L 384.96 136.800458 
L 382.071692 143.656725 
L 379.355676 150.58305 
L 376.813649 157.575103 
L 374.447199 164.628516 
L 372.257805 171.73888 
L 370.246837 178.901751 
L 368.415549 186.112653 
L 366.765088 193.367079 
L 365.296484 200.660495 
L 364.010656 207.988343 
L 362.908406 215.346044 
L 361.990425 222.728999 
L 361.257285 230.132595 
L 360.709444 237.552203 
L 360.347246 244.983187 
L 360.230554 248.928 
L 360.192701 247.440483 
L 359.891904 240.00676 
L 359.405377 232.582879 
L 358.733424 225.17348 
L 357.876466 217.783193 
L 356.835038 210.416637 
L 355.60979 203.078416 
L 354.201489 195.773117 
L 352.611015 188.505303 
L 350.839361 181.279519 
L 348.887635 174.100279 
L 346.757056 166.972071 
L 344.448957 159.899349 
L 341.964779 152.886534 
L 339.306076 145.938008 
L 336.474508 139.058114 
L 333.471845 132.251152 
L 330.299965 125.521376 
L 326.960848 118.872991 
L 323.456583 112.310153 
L 319.789359 105.836963 
L 316.374071 100.128 
L 312.56307 106.5176 
L 308.912984 113.000469 
L 305.426093 119.572555 
L 302.104577 126.22975 
L 298.950512 132.967894 
L 295.965868 139.782776 
L 293.152511 146.670137 
L 290.512199 153.625672 
L 288.046582 160.645035 
L 285.757202 167.723838 
L 283.645489 174.857658 
L 281.712763 182.042036 
L 279.960231 189.272482 
L 278.388989 196.544477 
L 277.000019 203.853477 
L 275.794189 211.194914 
L 274.772253 218.564199 
L 273.934849 225.956727 
L 273.282501 233.367878 
L 272.815616 240.79302 
L 272.517588 248.928 
L 272.479734 247.440483 
L 272.178937 240.00676 
L 271.692411 232.582879 
L 271.020458 225.17348 
L 270.1635 217.783193 
L 269.122072 210.416637 
L 267.896824 203.078416 
L 266.488523 195.773117 
L 264.898049 188.505303 
L 263.126395 181.279519 
L 261.174669 174.100279 
L 259.04409 166.972071 
L 256.735991 159.899349 
L 254.251813 152.886534 
L 251.593109 145.938008 
L 248.761541 139.058114 
L 245.758879 132.251152 
L 242.586998 125.521376 
L 239.247882 118.872991 
L 236.16 113.069651 
L 239.64515 106.496642 
L 242.824886 100.128 
L 246.15183 106.782484 
L 249.644078 113.351724 
L 253.29945 119.831615 
L 257.115659 126.218105 
L 261.090322 132.507205 
L 265.220954 138.694983 
L 269.504974 144.777572 
L 273.939703 150.751172 
L 278.522371 156.612048 
L 283.250114 162.356538 
L 288.956285 168.918908 
L 281.954637 171.434389 
L 275.018058 174.124106 
L 268.150881 176.986379 
L 261.3574 180.01942 
L 254.64186 183.221332 
L 248.008458 186.590114 
L 241.46134 190.123662 
L 236.16 193.142549 
L 233.332912 198.379834 
L 230.71752 203.725983 
L 228.31801 209.172443 
L 226.138219 214.710502 
L 224.181635 220.331299 
L 222.451388 226.025842 
L 220.950246 231.785022 
L 219.680611 237.599625 
L 218.644513 243.460349 
L 217.893883 248.928 
L 217.075833 243.032886 
L 216.022695 237.1752 
L 214.736155 231.364314 
L 213.21827 225.609524 
L 211.471469 219.920037 
L 209.498547 214.304953 
L 207.302659 208.773258 
L 204.88732 203.333799 
L 202.256391 197.995279 
L 199.414084 192.766238 
L 196.490327 187.85633 
L 202.173227 186.088217 
L 207.780876 184.094262 
L 213.304302 181.877656 
L 218.73467 179.441945 
L 224.063291 176.791025 
L 229.281642 173.929138 
L 234.381374 170.860862 
L 236.16 169.724007 
L 231.104308 166.583695 
L 225.927081 163.648069 
L 220.636601 160.921826 
L 215.241333 158.409325 
L 209.749907 156.114587 
L 204.171108 154.041284 
L 198.513862 152.192731 
L 192.787219 150.571887 
L 189.510998 149.754584 
L 188.681254 143.861104 
L 187.616497 138.00552 
L 186.318431 132.197198 
L 184.789132 126.44543 
L 183.031047 120.75942 
L 181.046989 115.148262 
L 178.840131 109.620933 
L 176.414005 104.186277 
L 174.42828 100.128 
L 171.838277 105.486495 
L 169.464629 110.944276 
L 167.311132 116.492612 
L 165.381232 122.122627 
L 163.678016 127.825314 
L 162.20421 133.591549 
L 161.378546 137.329956 
L 160.81267 141.757269 
L 159.982333 146.142683 
L 158.890523 150.470416 
L 157.541169 154.724892 
L 155.939128 158.890799 
L 154.090165 162.953145 
L 152.000935 166.89731 
L 149.678957 170.709099 
L 147.132586 174.374793 
L 144.370988 177.881201 
L 141.404102 181.215703 
L 138.242603 184.366297 
L 134.897872 187.321647 
L 131.381945 190.071115 
L 127.708604 192.820095 
L 123.270937 196.786037 
L 118.995415 200.926266 
L 114.888878 205.234159 
L 110.957896 209.702823 
L 107.208757 214.32511 
L 103.64746 219.093625 
L 100.2797 224.00074 
L 97.110867 229.038604 
L 94.146029 234.199159 
L 91.38993 239.474147 
L 88.846979 244.85513 
L 87.36 248.286637 
L 87.630164 248.928 
L 89.84335 243.403202 
L 91.833833 237.79432 
L 93.598428 232.110326 
L 95.134312 226.360314 
L 96.439028 220.553482 
L 97.51049 214.699121 
L 98.346982 208.806595 
L 98.947168 202.885331 
L 99.310085 196.944804 
L 99.435155 190.994515 
L 99.322177 185.043984 
L 98.971331 179.102731 
L 98.383179 173.18026 
L 97.558662 167.286047 
L 96.499098 161.42952 
L 95.206184 155.620049 
L 93.681987 149.866928 
L 91.928946 144.17936 
L 89.949865 138.566445 
L 87.74791 133.037161 
L 87.36 132.125553 
L 89.59872 126.611052 
L 91.615128 121.011438 
L 93.405998 115.335668 
L 94.968465 109.592822 
L 96.30003 103.792088 
L 97.016479 100.128 
L 98.202092 105.960315 
L 99.619988 111.740553 
L 101.267897 117.459467 
L 103.143184 123.107908 
L 105.242848 128.676839 
L 107.56353 134.157351 
L 110.101518 139.540677 
L 112.852752 144.818204 
L 115.812829 149.98149 
L 118.977016 155.022274 
L 122.340249 159.932493 
L 125.88488 164.688499 
L 120.391579 166.978744 
L 114.994257 169.48683 
L 109.701549 172.208745 
L 104.521922 175.140135 
L 99.463663 178.27631 
L 94.534863 181.612253 
L 89.743408 185.142627 
L 87.36 187.012274 
L 92.078596 190.639454 
L 96.938465 194.075039 
L 101.931834 197.313534 
L 107.050715 200.349756 
L 112.286917 203.178849 
L 117.632064 205.796287 
L 123.077605 208.197882 
L 128.614829 210.379793 
L 134.234877 212.338529 
L 139.928758 214.070956 
L 145.687362 215.574302 
L 151.501479 216.846163 
L 157.361805 217.884505 
L 163.258967 218.687665 
L 169.183529 219.254359 
L 175.126014 219.583681 
L 181.076915 219.675103 
L 187.026712 219.528479 
L 192.965886 219.144044 
L 198.884937 218.522413 
L 204.774394 217.664581 
L 210.624836 216.571919 
L 216.426903 215.246176 
L 222.171314 213.689473 
L 227.848878 211.904299 
L 233.450513 209.893512 
L 236.16 208.828798 
L 243.444627 207.3172 
L 250.689191 205.623978 
L 257.889166 203.75019 
L 265.040051 201.697006 
L 272.137377 199.465711 
L 279.176709 197.057698 
L 286.153647 194.474473 
L 293.063831 191.717649 
L 295.274873 190.79291 
L 292.895295 197.841905 
L 290.692667 204.94818 
L 288.668365 212.107294 
L 286.823656 219.314774 
L 285.15969 226.566114 
L 283.67751 233.856783 
L 282.37804 241.182225 
L 281.208148 248.928 
L 280.101937 241.570894 
L 278.812163 234.243739 
L 277.339632 226.951114 
L 275.685265 219.697578 
L 273.850096 212.487663 
L 271.835271 205.325876 
L 269.642049 198.216692 
L 267.271802 191.164555 
L 264.72601 184.173871 
L 262.006265 177.249009 
L 259.114266 170.394299 
L 256.051821 163.614022 
L 252.820844 156.912418 
L 249.423354 150.293673 
L 245.861474 143.761926 
L 242.13743 137.321257 
L 238.25355 130.975692 
L 236.16 127.697044 
L 240.126492 121.402788 
L 243.934404 115.011347 
L 247.581357 108.526715 
L 251.065071 101.952945 
L 251.995233 100.128 
L 255.433619 106.725592 
L 259.035853 113.235171 
L 262.799685 119.65267 
L 266.722761 125.974077 
L 270.802629 132.195443 
L 275.036741 138.312878 
L 279.42245 144.32256 
L 283.957014 150.220733 
L 288.637601 156.00371 
L 292.840935 160.955339 
L 292.840935 160.955339 
" style="fill:none;stroke:#1f77b4;stroke-linecap:square;stroke-width:1.5;"/>
   </g>
   <g id="patch_5">
    <path d="M 57.6 263.808 
L 57.6 85.248 
" style="fill:none;stroke:#000000;stroke-linecap:square;stroke-linejoin:miter;stroke-width:0.8;"/>
   </g>
   <g id="patch_6">
    <path d="M 414.72 263.808 
L 414.72 85.248 
" style="fill:none;stroke:#000000;stroke-linecap:square;stroke-linejoin:miter;stroke-width:0.8;"/>
   </g>
   <g id="patch_7">
    <path d="M 57.6 263.808 
L 414.72 263.808 
" style="fill:none;stroke:#000000;stroke-linecap:square;stroke-linejoin:miter;stroke-width:0.8;"/>
   </g>
   <g id="patch_8">
    <path d="M 57.6 85.248 
L 414.72 85.248 
" style="fill:none;stroke:#000000;stroke-linecap:square;stroke-linejoin:miter;stroke-width:0.8;"/>
   </g>
  </g>
 </g>
 <defs>
  <clipPath id="pb015759268">
   <rect height="178.56" width="357.12" x="57.6" y="85.248"/>
  </clipPath>
 </defs>
</svg>
