<?xml version="1.0" encoding="utf-8" standalone="no"?>
<!DOCTYPE svg PUBLIC "-//W3C//DTD SVG 1.1//EN"
  "http://www.w3.org/Graphics/SVG/1.1/DTD/svg11.dtd">
<!-- Created with matplotlib (https://matplotlib.org/) -->
<svg height="345.6pt" version="1.1" viewBox="0 0 460.8 345.6" width="460.8pt" xmlns="http://www.w3.org/2000/svg" xmlns:xlink="http://www.w3.org/1999/xlink">
 <defs>
  <style type="text/css">
*{stroke-linecap:butt;stroke-linejoin:round;}
  </style>
 </defs>
 <g id="figure_1">
  <g id="patch_1">
   <path d="M 0 345.6 
L 460.8 345.6 
L 460.8 0 
L 0 0 
z
" style="fill:#ffffff;"/>
  </g>
  <g id="axes_1">
   <g id="patch_2">
    <path d="M 57.6 263.808 
L 414.72 263.808 
L 414.72 85.248 
L 57.6 85.248 
z
" style="fill:#ffffff;"/>
   </g>
   <g id="PathCollection_1">
    <defs>
     <path d="M 0 3 
C 0.795609 3 1.55874 2.683901 2.12132 2.12132 
C 2.683901 1.55874 3 0.795609 3 0 
C 3 -0.795609 2.683901 -1.55874 2.12132 -2.12132 
C 1.55874 -2.683901 0.795609 -3 0 -3 
C -0.795609 -3 -1.55874 -2.683901 -2.12132 -2.12132 
C -2.683901 -1.55874 -3 -0.795609 -3 0 
C -3 0.795609 -2.683901 1.55874 -2.12132 2.12132 
C -1.55874 2.683901 -0.795609 3 0 3 
z
" id="mcd4e08ca62" style="stroke:#000000;"/>
    </defs>
    <g clip-path="url(#pa1c56c7ae6)">
     <use style="stroke:#000000;" x="217.613892" xlink:href="#mcd4e08ca62" y="244.567046"/>
    </g>
   </g>
   <g id="patch_3">
    <path clip-path="url(#pa1c56c7ae6)" d="M 161.76 211.728 
C 171.625555 211.728 181.088371 207.808373 188.064372 200.832372 
C 195.040373 193.856371 198.96 184.393555 198.96 174.528 
C 198.96 164.662445 195.040373 155.199629 188.064372 148.223628 
C 181.088371 141.247627 171.625555 137.328 161.76 137.328 
C 151.894445 137.328 142.431629 141.247627 135.455628 148.223628 
C 128.479627 155.199629 124.56 164.662445 124.56 174.528 
C 124.56 184.393555 128.479627 193.856371 135.455628 200.832372 
C 142.431629 207.808373 151.894445 211.728 161.76 211.728 
z
" style="fill:#cc0000;fill-opacity:0.1;stroke:#cc0000;stroke-dasharray:7.4,3.2;stroke-dashoffset:0;stroke-linejoin:miter;stroke-width:2;"/>
   </g>
   <g id="patch_4">
    <path clip-path="url(#pa1c56c7ae6)" d="M 310.56 196.848 
C 316.479333 196.848 322.157023 194.496224 326.342623 190.310623 
C 330.528224 186.125023 332.88 180.447333 332.88 174.528 
C 332.88 168.608667 330.528224 162.930977 326.342623 158.745377 
C 322.157023 154.559776 316.479333 152.208 310.56 152.208 
C 304.640667 152.208 298.962977 154.559776 294.777377 158.745377 
C 290.591776 162.930977 288.24 168.608667 288.24 174.528 
C 288.24 180.447333 290.591776 186.125023 294.777377 190.310623 
C 298.962977 194.496224 304.640667 196.848 310.56 196.848 
z
" style="fill:#cc0000;fill-opacity:0.1;stroke:#cc0000;stroke-dasharray:7.4,3.2;stroke-dashoffset:0;stroke-linejoin:miter;stroke-width:2;"/>
   </g>
   <g id="matplotlib.axis_1">
    <g id="xtick_1">
     <g id="line2d_1">
      <defs>
       <path d="M 0 0 
L 0 3.5 
" id="mb07203ae6a" style="stroke:#000000;stroke-width:0.8;"/>
      </defs>
      <g>
       <use style="stroke:#000000;stroke-width:0.8;" x="87.36" xlink:href="#mb07203ae6a" y="263.808"/>
      </g>
     </g>
     <g id="text_1">
      <!-- 0.0 -->
      <defs>
       <path d="M 31.78125 66.40625 
Q 24.171875 66.40625 20.328125 58.90625 
Q 16.5 51.421875 16.5 36.375 
Q 16.5 21.390625 20.328125 13.890625 
Q 24.171875 6.390625 31.78125 6.390625 
Q 39.453125 6.390625 43.28125 13.890625 
Q 47.125 21.390625 47.125 36.375 
Q 47.125 51.421875 43.28125 58.90625 
Q 39.453125 66.40625 31.78125 66.40625 
z
M 31.78125 74.21875 
Q 44.046875 74.21875 50.515625 64.515625 
Q 56.984375 54.828125 56.984375 36.375 
Q 56.984375 17.96875 50.515625 8.265625 
Q 44.046875 -1.421875 31.78125 -1.421875 
Q 19.53125 -1.421875 13.0625 8.265625 
Q 6.59375 17.96875 6.59375 36.375 
Q 6.59375 54.828125 13.0625 64.515625 
Q 19.53125 74.21875 31.78125 74.21875 
z
" id="DejaVuSans-48"/>
       <path d="M 10.6875 12.40625 
L 21 12.40625 
L 21 0 
L 10.6875 0 
z
" id="DejaVuSans-46"/>
      </defs>
      <g transform="translate(79.408438 278.406437)scale(0.1 -0.1)">
       <use xlink:href="#DejaVuSans-48"/>
       <use x="63.623047" xlink:href="#DejaVuSans-46"/>
       <use x="95.410156" xlink:href="#DejaVuSans-48"/>
      </g>
     </g>
    </g>
    <g id="xtick_2">
     <g id="line2d_2">
      <g>
       <use style="stroke:#000000;stroke-width:0.8;" x="161.76" xlink:href="#mb07203ae6a" y="263.808"/>
      </g>
     </g>
     <g id="text_2">
      <!-- 0.5 -->
      <defs>
       <path d="M 10.796875 72.90625 
L 49.515625 72.90625 
L 49.515625 64.59375 
L 19.828125 64.59375 
L 19.828125 46.734375 
Q 21.96875 47.46875 24.109375 47.828125 
Q 26.265625 48.1875 28.421875 48.1875 
Q 40.625 48.1875 47.75 41.5 
Q 54.890625 34.8125 54.890625 23.390625 
Q 54.890625 11.625 47.5625 5.09375 
Q 40.234375 -1.421875 26.90625 -1.421875 
Q 22.3125 -1.421875 17.546875 -0.640625 
Q 12.796875 0.140625 7.71875 1.703125 
L 7.71875 11.625 
Q 12.109375 9.234375 16.796875 8.0625 
Q 21.484375 6.890625 26.703125 6.890625 
Q 35.15625 6.890625 40.078125 11.328125 
Q 45.015625 15.765625 45.015625 23.390625 
Q 45.015625 31 40.078125 35.4375 
Q 35.15625 39.890625 26.703125 39.890625 
Q 22.75 39.890625 18.8125 39.015625 
Q 14.890625 38.140625 10.796875 36.28125 
z
" id="DejaVuSans-53"/>
      </defs>
      <g transform="translate(153.808437 278.406437)scale(0.1 -0.1)">
       <use xlink:href="#DejaVuSans-48"/>
       <use x="63.623047" xlink:href="#DejaVuSans-46"/>
       <use x="95.410156" xlink:href="#DejaVuSans-53"/>
      </g>
     </g>
    </g>
    <g id="xtick_3">
     <g id="line2d_3">
      <g>
       <use style="stroke:#000000;stroke-width:0.8;" x="236.16" xlink:href="#mb07203ae6a" y="263.808"/>
      </g>
     </g>
     <g id="text_3">
      <!-- 1.0 -->
      <defs>
       <path d="M 12.40625 8.296875 
L 28.515625 8.296875 
L 28.515625 63.921875 
L 10.984375 60.40625 
L 10.984375 69.390625 
L 28.421875 72.90625 
L 38.28125 72.90625 
L 38.28125 8.296875 
L 54.390625 8.296875 
L 54.390625 0 
L 12.40625 0 
z
" id="DejaVuSans-49"/>
      </defs>
      <g transform="translate(228.208437 278.406437)scale(0.1 -0.1)">
       <use xlink:href="#DejaVuSans-49"/>
       <use x="63.623047" xlink:href="#DejaVuSans-46"/>
       <use x="95.410156" xlink:href="#DejaVuSans-48"/>
      </g>
     </g>
    </g>
    <g id="xtick_4">
     <g id="line2d_4">
      <g>
       <use style="stroke:#000000;stroke-width:0.8;" x="310.56" xlink:href="#mb07203ae6a" y="263.808"/>
      </g>
     </g>
     <g id="text_4">
      <!-- 1.5 -->
      <g transform="translate(302.608437 278.406437)scale(0.1 -0.1)">
       <use xlink:href="#DejaVuSans-49"/>
       <use x="63.623047" xlink:href="#DejaVuSans-46"/>
       <use x="95.410156" xlink:href="#DejaVuSans-53"/>
      </g>
     </g>
    </g>
    <g id="xtick_5">
     <g id="line2d_5">
      <g>
       <use style="stroke:#000000;stroke-width:0.8;" x="384.96" xlink:href="#mb07203ae6a" y="263.808"/>
      </g>
     </g>
     <g id="text_5">
      <!-- 2.0 -->
      <defs>
       <path d="M 19.1875 8.296875 
L 53.609375 8.296875 
L 53.609375 0 
L 7.328125 0 
L 7.328125 8.296875 
Q 12.9375 14.109375 22.625 23.890625 
Q 32.328125 33.6875 34.8125 36.53125 
Q 39.546875 41.84375 41.421875 45.53125 
Q 43.3125 49.21875 43.3125 52.78125 
Q 43.3125 58.59375 39.234375 62.25 
Q 35.15625 65.921875 28.609375 65.921875 
Q 23.96875 65.921875 18.8125 64.3125 
Q 13.671875 62.703125 7.8125 59.421875 
L 7.8125 69.390625 
Q 13.765625 71.78125 18.9375 73 
Q 24.125 74.21875 28.421875 74.21875 
Q 39.75 74.21875 46.484375 68.546875 
Q 53.21875 62.890625 53.21875 53.421875 
Q 53.21875 48.921875 51.53125 44.890625 
Q 49.859375 40.875 45.40625 35.40625 
Q 44.1875 33.984375 37.640625 27.21875 
Q 31.109375 20.453125 19.1875 8.296875 
z
" id="DejaVuSans-50"/>
      </defs>
      <g transform="translate(377.008437 278.406437)scale(0.1 -0.1)">
       <use xlink:href="#DejaVuSans-50"/>
       <use x="63.623047" xlink:href="#DejaVuSans-46"/>
       <use x="95.410156" xlink:href="#DejaVuSans-48"/>
      </g>
     </g>
    </g>
   </g>
   <g id="matplotlib.axis_2">
    <g id="ytick_1">
     <g id="line2d_6">
      <defs>
       <path d="M 0 0 
L -3.5 0 
" id="m7708d730d6" style="stroke:#000000;stroke-width:0.8;"/>
      </defs>
      <g>
       <use style="stroke:#000000;stroke-width:0.8;" x="57.6" xlink:href="#m7708d730d6" y="248.928"/>
      </g>
     </g>
     <g id="text_6">
      <!-- 0.0 -->
      <g transform="translate(34.696875 252.727219)scale(0.1 -0.1)">
       <use xlink:href="#DejaVuSans-48"/>
       <use x="63.623047" xlink:href="#DejaVuSans-46"/>
       <use x="95.410156" xlink:href="#DejaVuSans-48"/>
      </g>
     </g>
    </g>
    <g id="ytick_2">
     <g id="line2d_7">
      <g>
       <use style="stroke:#000000;stroke-width:0.8;" x="57.6" xlink:href="#m7708d730d6" y="219.168"/>
      </g>
     </g>
     <g id="text_7">
      <!-- 0.2 -->
      <g transform="translate(34.696875 222.967219)scale(0.1 -0.1)">
       <use xlink:href="#DejaVuSans-48"/>
       <use x="63.623047" xlink:href="#DejaVuSans-46"/>
       <use x="95.410156" xlink:href="#DejaVuSans-50"/>
      </g>
     </g>
    </g>
    <g id="ytick_3">
     <g id="line2d_8">
      <g>
       <use style="stroke:#000000;stroke-width:0.8;" x="57.6" xlink:href="#m7708d730d6" y="189.408"/>
      </g>
     </g>
     <g id="text_8">
      <!-- 0.4 -->
      <defs>
       <path d="M 37.796875 64.3125 
L 12.890625 25.390625 
L 37.796875 25.390625 
z
M 35.203125 72.90625 
L 47.609375 72.90625 
L 47.609375 25.390625 
L 58.015625 25.390625 
L 58.015625 17.1875 
L 47.609375 17.1875 
L 47.609375 0 
L 37.796875 0 
L 37.796875 17.1875 
L 4.890625 17.1875 
L 4.890625 26.703125 
z
" id="DejaVuSans-52"/>
      </defs>
      <g transform="translate(34.696875 193.207219)scale(0.1 -0.1)">
       <use xlink:href="#DejaVuSans-48"/>
       <use x="63.623047" xlink:href="#DejaVuSans-46"/>
       <use x="95.410156" xlink:href="#DejaVuSans-52"/>
      </g>
     </g>
    </g>
    <g id="ytick_4">
     <g id="line2d_9">
      <g>
       <use style="stroke:#000000;stroke-width:0.8;" x="57.6" xlink:href="#m7708d730d6" y="159.648"/>
      </g>
     </g>
     <g id="text_9">
      <!-- 0.6 -->
      <defs>
       <path d="M 33.015625 40.375 
Q 26.375 40.375 22.484375 35.828125 
Q 18.609375 31.296875 18.609375 23.390625 
Q 18.609375 15.53125 22.484375 10.953125 
Q 26.375 6.390625 33.015625 6.390625 
Q 39.65625 6.390625 43.53125 10.953125 
Q 47.40625 15.53125 47.40625 23.390625 
Q 47.40625 31.296875 43.53125 35.828125 
Q 39.65625 40.375 33.015625 40.375 
z
M 52.59375 71.296875 
L 52.59375 62.3125 
Q 48.875 64.0625 45.09375 64.984375 
Q 41.3125 65.921875 37.59375 65.921875 
Q 27.828125 65.921875 22.671875 59.328125 
Q 17.53125 52.734375 16.796875 39.40625 
Q 19.671875 43.65625 24.015625 45.921875 
Q 28.375 48.1875 33.59375 48.1875 
Q 44.578125 48.1875 50.953125 41.515625 
Q 57.328125 34.859375 57.328125 23.390625 
Q 57.328125 12.15625 50.6875 5.359375 
Q 44.046875 -1.421875 33.015625 -1.421875 
Q 20.359375 -1.421875 13.671875 8.265625 
Q 6.984375 17.96875 6.984375 36.375 
Q 6.984375 53.65625 15.1875 63.9375 
Q 23.390625 74.21875 37.203125 74.21875 
Q 40.921875 74.21875 44.703125 73.484375 
Q 48.484375 72.75 52.59375 71.296875 
z
" id="DejaVuSans-54"/>
      </defs>
      <g transform="translate(34.696875 163.447219)scale(0.1 -0.1)">
       <use xlink:href="#DejaVuSans-48"/>
       <use x="63.623047" xlink:href="#DejaVuSans-46"/>
       <use x="95.410156" xlink:href="#DejaVuSans-54"/>
      </g>
     </g>
    </g>
    <g id="ytick_5">
     <g id="line2d_10">
      <g>
       <use style="stroke:#000000;stroke-width:0.8;" x="57.6" xlink:href="#m7708d730d6" y="129.888"/>
      </g>
     </g>
     <g id="text_10">
      <!-- 0.8 -->
      <defs>
       <path d="M 31.78125 34.625 
Q 24.75 34.625 20.71875 30.859375 
Q 16.703125 27.09375 16.703125 20.515625 
Q 16.703125 13.921875 20.71875 10.15625 
Q 24.75 6.390625 31.78125 6.390625 
Q 38.8125 6.390625 42.859375 10.171875 
Q 46.921875 13.96875 46.921875 20.515625 
Q 46.921875 27.09375 42.890625 30.859375 
Q 38.875 34.625 31.78125 34.625 
z
M 21.921875 38.8125 
Q 15.578125 40.375 12.03125 44.71875 
Q 8.5 49.078125 8.5 55.328125 
Q 8.5 64.0625 14.71875 69.140625 
Q 20.953125 74.21875 31.78125 74.21875 
Q 42.671875 74.21875 48.875 69.140625 
Q 55.078125 64.0625 55.078125 55.328125 
Q 55.078125 49.078125 51.53125 44.71875 
Q 48 40.375 41.703125 38.8125 
Q 48.828125 37.15625 52.796875 32.3125 
Q 56.78125 27.484375 56.78125 20.515625 
Q 56.78125 9.90625 50.3125 4.234375 
Q 43.84375 -1.421875 31.78125 -1.421875 
Q 19.734375 -1.421875 13.25 4.234375 
Q 6.78125 9.90625 6.78125 20.515625 
Q 6.78125 27.484375 10.78125 32.3125 
Q 14.796875 37.15625 21.921875 38.8125 
z
M 18.3125 54.390625 
Q 18.3125 48.734375 21.84375 45.5625 
Q 25.390625 42.390625 31.78125 42.390625 
Q 38.140625 42.390625 41.71875 45.5625 
Q 45.3125 48.734375 45.3125 54.390625 
Q 45.3125 60.0625 41.71875 63.234375 
Q 38.140625 66.40625 31.78125 66.40625 
Q 25.390625 66.40625 21.84375 63.234375 
Q 18.3125 60.0625 18.3125 54.390625 
z
" id="DejaVuSans-56"/>
      </defs>
      <g transform="translate(34.696875 133.687219)scale(0.1 -0.1)">
       <use xlink:href="#DejaVuSans-48"/>
       <use x="63.623047" xlink:href="#DejaVuSans-46"/>
       <use x="95.410156" xlink:href="#DejaVuSans-56"/>
      </g>
     </g>
    </g>
    <g id="ytick_6">
     <g id="line2d_11">
      <g>
       <use style="stroke:#000000;stroke-width:0.8;" x="57.6" xlink:href="#m7708d730d6" y="100.128"/>
      </g>
     </g>
     <g id="text_11">
      <!-- 1.0 -->
      <g transform="translate(34.696875 103.927219)scale(0.1 -0.1)">
       <use xlink:href="#DejaVuSans-49"/>
       <use x="63.623047" xlink:href="#DejaVuSans-46"/>
       <use x="95.410156" xlink:href="#DejaVuSans-48"/>
      </g>
     </g>
    </g>
   </g>
   <g id="line2d_12">
    <path clip-path="url(#pa1c56c7ae6)" d="M 236.16 248.928 
L 236.16 100.128 
" style="fill:none;stroke:#cc0000;stroke-dasharray:7.4,3.2;stroke-dashoffset:0;stroke-width:2;"/>
   </g>
   <g id="line2d_13">
    <path clip-path="url(#pa1c56c7ae6)" d="M 87.36 248.928 
L 384.96 248.928 
" style="fill:none;stroke:#009900;stroke-linecap:square;stroke-width:2;"/>
   </g>
   <g id="line2d_14">
    <path clip-path="url(#pa1c56c7ae6)" d="M 384.96 248.928 
L 384.96 100.128 
" style="fill:none;stroke:#009900;stroke-linecap:square;stroke-width:2;"/>
   </g>
   <g id="line2d_15">
    <path clip-path="url(#pa1c56c7ae6)" d="M 384.96 100.128 
L 87.36 100.128 
" style="fill:none;stroke:#009900;stroke-linecap:square;stroke-width:2;"/>
   </g>
   <g id="line2d_16">
    <path clip-path="url(#pa1c56c7ae6)" d="M 87.36 100.128 
L 87.36 248.928 
" style="fill:none;stroke:#009900;stroke-linecap:square;stroke-width:2;"/>
   </g>
   <g id="line2d_17">
    <path clip-path="url(#pa1c56c7ae6)" d="M 217.613892 244.567046 
L 212.568141 247.723307 
L 210.754401 248.928 
L 205.755374 245.698246 
L 200.631191 242.670983 
L 195.390047 239.851054 
L 190.04033 237.24297 
L 184.590595 234.850905 
L 179.049563 232.678684 
L 173.426098 230.729783 
L 167.729195 229.007319 
L 161.967969 227.514049 
L 156.151637 226.25236 
L 150.289503 225.224272 
L 144.390945 224.431429 
L 138.4654 223.8751 
L 132.522348 223.556175 
L 126.571297 223.475163 
L 120.621765 223.632194 
L 114.683273 224.027018 
L 108.765319 224.659003 
L 102.877372 225.527136 
L 97.02885 226.630031 
L 91.229111 227.965922 
L 87.36 228.994529 
L 93.121701 230.485966 
L 98.938435 231.745803 
L 104.800896 232.772025 
L 110.699705 233.562991 
L 116.625427 234.117434 
L 122.56858 234.434468 
L 128.519657 234.513586 
L 134.469138 234.35466 
L 140.407505 233.957946 
L 146.325257 233.324079 
L 152.212928 232.454071 
L 158.061098 231.349315 
L 163.860412 230.011578 
L 169.601592 228.443001 
L 175.275453 226.646092 
L 180.872918 224.623727 
L 186.385033 222.379141 
L 191.80298 219.915924 
L 197.11809 217.238017 
L 202.321861 214.349705 
L 207.405968 211.255608 
L 212.362277 207.960675 
L 217.18286 204.470179 
L 221.860004 200.789703 
L 226.386227 196.925135 
L 230.754288 192.882658 
L 234.957199 188.668738 
L 236.16 187.398694 
L 232.006915 183.13566 
L 227.686676 179.042114 
L 223.206195 175.124606 
L 218.572639 171.389403 
L 213.793421 167.842481 
L 208.876187 164.489514 
L 203.828803 161.335865 
L 198.659345 158.386581 
L 193.989281 155.95077 
L 194.238875 150.004403 
L 194.250479 144.052811 
L 194.024073 138.105516 
L 193.56002 132.172031 
L 192.859062 126.26185 
L 191.922321 120.384428 
L 190.751295 114.549166 
L 189.347857 108.765401 
L 187.714253 103.042384 
L 186.786065 100.128 
L 185.035174 105.81623 
L 183.513152 111.569927 
L 182.222434 117.379887 
L 181.165085 123.236814 
L 180.342796 129.131338 
L 179.756884 135.054031 
L 179.408284 140.995416 
L 179.380524 141.76587 
L 184.163807 138.224432 
L 188.801644 134.494547 
L 193.286616 130.582181 
L 197.611547 126.493593 
L 201.769519 122.235324 
L 205.75388 117.814188 
L 209.558255 113.237256 
L 213.176559 108.51185 
L 216.603003 103.645531 
L 218.904345 100.128 
L 222.191966 105.089162 
L 225.675351 109.914886 
L 229.348927 114.597452 
L 233.206817 119.129368 
L 236.16 122.36397 
L 232.170398 126.780378 
L 228.360597 131.352795 
L 224.736691 136.073905 
L 221.304477 140.936157 
L 218.069448 145.931772 
L 215.036777 151.052757 
L 212.211317 156.29092 
L 209.597588 161.637882 
L 207.19977 167.085088 
L 205.021701 172.623824 
L 203.066865 178.245229 
L 201.338388 183.94031 
L 199.839037 189.699957 
L 198.571209 195.514954 
L 197.536933 201.375999 
L 196.737864 207.273717 
L 196.17528 213.198671 
L 195.850081 219.141383 
L 195.762787 225.092346 
L 195.913538 231.042039 
L 196.302092 236.980946 
L 196.927829 242.899563 
L 197.813104 248.928 
L 198.680622 243.039962 
L 199.311988 237.121942 
L 199.70619 231.183408 
L 199.8626 225.233861 
L 199.780965 219.282817 
L 199.461418 213.339799 
L 198.904469 207.414312 
L 198.11101 201.515838 
L 197.082309 195.653811 
L 195.765584 189.609785 
L 200.928667 186.649352 
L 205.969234 183.48482 
L 210.879221 180.12125 
L 215.650774 176.564023 
L 220.27626 172.818831 
L 224.748277 168.891664 
L 229.059673 164.788805 
L 233.203549 160.516819 
L 236.16 157.248691 
L 232.144449 152.855864 
L 227.956444 148.62713 
L 223.602684 144.569253 
L 219.090136 140.688727 
L 214.426017 136.991759 
L 209.617789 133.484262 
L 204.673146 130.171849 
L 199.599996 127.059819 
L 194.406456 124.15315 
L 189.100835 121.456492 
L 183.69162 118.97416 
L 178.187465 116.710123 
L 172.597176 114.668006 
L 166.929695 112.851074 
L 161.19409 111.262234 
L 155.399535 109.904028 
L 149.555303 108.778628 
L 143.670741 107.887836 
L 137.755263 107.233076 
L 131.818335 106.815396 
L 125.869452 106.635464 
L 119.918132 106.693567 
L 113.973897 106.989614 
L 108.046255 107.523129 
L 102.144689 108.293261 
L 96.278641 109.298776 
L 90.457495 110.538066 
L 87.36 111.297649 
L 93.153248 112.661413 
L 98.996399 113.792419 
L 104.880104 114.688856 
L 110.79495 115.34929 
L 116.731475 115.772666 
L 122.680183 115.958305 
L 128.631555 115.905911 
L 134.576072 115.615567 
L 140.504224 115.087738 
L 146.406525 114.323269 
L 152.273535 113.323381 
L 158.095868 112.089676 
L 163.864208 110.624127 
L 169.569327 108.929078 
L 175.202099 107.00724 
L 180.753513 104.86169 
L 186.214687 102.495858 
L 191.151729 100.128 
L 196.522163 102.693155 
L 201.99088 105.041498 
L 207.549131 107.169272 
L 213.188025 109.073074 
L 218.89854 110.749857 
L 224.67154 112.196939 
L 230.49779 113.412006 
L 236.16 114.362465 
L 230.291212 115.351863 
L 224.466684 116.57516 
L 218.695734 118.030396 
L 212.987593 119.715245 
L 207.351395 121.627011 
L 201.796155 123.762636 
L 196.330762 126.118702 
L 190.963957 128.691442 
L 185.704327 131.476738 
L 180.560287 134.470136 
L 175.540065 137.666846 
L 173.322974 139.170715 
L 171.261857 133.587402 
L 168.979115 128.090979 
L 166.478401 122.690237 
L 163.763716 117.393818 
L 160.839401 112.210193 
L 157.710136 107.147656 
L 154.380926 102.214306 
L 152.884346 100.128 
L 149.470509 105.003172 
L 146.254358 110.010961 
L 143.241038 115.143356 
L 140.435369 120.392147 
L 137.84184 125.748936 
L 135.4646 131.205153 
L 133.307452 136.752071 
L 131.373847 142.380814 
L 129.666878 148.082379 
L 128.189276 153.847643 
L 126.943406 159.667384 
L 126.280293 163.3463 
L 123.827202 168.768839 
L 121.592917 174.285137 
L 119.581012 179.886371 
L 117.794706 185.563579 
L 116.236856 191.307679 
L 114.909956 197.109482 
L 113.816127 202.959706 
L 112.957119 208.848991 
L 112.334307 214.767917 
L 111.948688 220.707015 
L 111.800877 226.656782 
L 111.891112 232.607701 
L 112.219248 238.550252 
L 112.78476 244.474927 
L 113.368092 248.928 
L 114.112146 243.02309 
L 114.619471 237.093149 
L 114.889257 231.147663 
L 114.92107 225.196145 
L 114.714861 219.248115 
L 114.270959 213.313089 
L 113.590074 207.400562 
L 112.673296 201.519993 
L 111.522091 195.680788 
L 110.138301 189.892291 
L 108.52414 184.16376 
L 106.68219 178.504361 
L 104.615398 172.923146 
L 102.32707 167.429046 
L 99.820867 162.03085 
L 97.100798 156.737193 
L 94.171215 151.556544 
L 91.036805 146.49719 
L 87.702582 141.567227 
L 87.36 141.083939 
L 90.713824 136.167289 
L 93.868351 131.120455 
L 96.818535 125.95151 
L 99.559657 120.668723 
L 102.087331 115.280547 
L 104.397514 109.795601 
L 106.48651 104.222659 
L 107.862187 100.128 
L 109.78854 105.759229 
L 111.938542 111.308921 
L 114.308752 116.768196 
L 116.895379 122.128321 
L 119.694285 127.380721 
L 122.700991 132.516994 
L 125.91069 137.528921 
L 129.318244 142.408486 
L 132.918203 147.147882 
L 134.545172 149.166747 
L 137.501069 152.510994 
L 140.251113 156.026471 
L 142.785406 159.700526 
L 145.094828 163.519935 
L 147.171067 167.470954 
L 149.006651 171.539363 
L 150.594974 175.71052 
L 151.930319 179.969413 
L 153.007881 184.300715 
L 153.823782 188.688838 
L 154.375086 193.11799 
L 154.659807 197.57223 
L 154.676922 202.035527 
L 154.426369 206.49182 
L 153.914032 210.891179 
L 155.272689 206.639665 
L 156.883839 202.477272 
L 158.741684 198.418981 
L 160.839537 194.479396 
L 163.169848 190.672695 
L 165.724231 187.01258 
L 168.493493 183.512221 
L 171.467667 180.184218 
L 174.63605 177.040547 
L 177.987238 174.092521 
L 181.509171 171.350751 
L 185.189175 168.825104 
L 189.014004 166.524669 
L 192.969894 164.457726 
L 197.010948 162.644791 
L 192.663466 163.655095 
L 188.263224 164.402889 
L 183.826061 164.885481 
L 179.367943 165.101135 
L 174.904916 165.049074 
L 170.453042 164.729486 
L 166.028343 164.143521 
L 161.646743 163.293287 
L 157.32401 162.181845 
L 153.075703 160.813195 
L 148.91711 159.192262 
L 144.863198 157.32488 
L 140.928557 155.217769 
L 137.127346 152.878513 
L 133.500693 150.336027 
L 136.594882 153.552751 
L 139.490615 156.949227 
L 142.177472 160.51323 
L 144.645781 164.231935 
L 146.886661 168.091958 
L 148.892046 172.079407 
L 150.654718 176.179932 
L 152.168335 180.378775 
L 153.427449 184.660825 
L 154.427528 189.010671 
L 155.164974 193.412658 
L 155.637131 197.850944 
L 155.842302 202.309557 
L 155.779747 206.772449 
L 155.45324 211.189489 
L 156.631544 206.884501 
L 158.065872 202.657916 
L 159.751062 198.524945 
L 161.681049 194.500461 
L 163.848887 190.598949 
L 166.246775 186.83445 
L 168.866082 183.220512 
L 171.697382 179.770141 
L 174.730485 176.495755 
L 177.954476 173.409138 
L 181.357751 170.521399 
L 184.928062 167.84293 
L 188.652561 165.383372 
L 192.517842 163.151575 
L 196.478915 161.169971 
L 192.177865 162.362569 
L 187.813042 163.295112 
L 183.400154 163.964245 
L 178.955083 164.367559 
L 174.493827 164.503604 
L 170.03244 164.371889 
L 165.58698 163.972888 
L 161.173445 163.308038 
L 156.807719 162.37973 
L 152.505513 161.191307 
L 148.282313 159.747045 
L 144.153315 158.052142 
L 140.133381 156.112697 
L 136.236977 153.935691 
L 132.506411 151.54828 
L 135.733396 154.631766 
L 138.769675 157.903207 
L 141.604322 161.350829 
L 144.227135 164.962224 
L 146.628674 168.724394 
L 148.800298 172.623801 
L 150.734189 176.646409 
L 152.423389 180.777744 
L 153.861818 185.002935 
L 155.044299 189.306777 
L 155.966576 193.673781 
L 156.625331 198.08823 
L 157.018193 202.534237 
L 157.143747 206.995801 
L 157.003652 211.422676 
L 157.999509 207.071862 
L 159.254467 202.788592 
L 160.764009 198.588282 
L 162.522701 194.486049 
L 164.524216 190.496656 
L 166.761348 186.63446 
L 169.226048 182.913362 
L 171.909445 179.346752 
L 174.801881 175.947468 
L 177.892947 172.727743 
L 181.171518 169.699165 
L 184.625795 166.872632 
L 188.243347 164.258318 
L 192.011154 161.865631 
L 195.88521 159.718879 
L 191.638233 161.091652 
L 187.316581 162.207288 
L 182.935808 163.061773 
L 178.511679 163.652032 
L 174.060118 163.97594 
L 169.597143 164.032332 
L 165.138819 163.821005 
L 160.701189 163.342719 
L 156.300224 162.599195 
L 151.951763 161.59311 
L 147.671456 160.328084 
L 143.474707 158.80867 
L 139.37662 157.040337 
L 135.391944 155.029448 
L 131.564094 152.801352 
L 134.918141 155.746124 
L 138.089573 158.886719 
L 141.066975 162.211835 
L 143.839632 165.709504 
L 146.397566 169.367139 
L 148.731571 173.171577 
L 150.833246 177.109124 
L 152.695028 181.165611 
L 154.310216 185.326438 
L 155.672999 189.576632 
L 156.77847 193.900895 
L 157.622652 198.283665 
L 158.202507 202.709169 
L 158.515947 207.16148 
L 158.841534 216.045431 
L 159.42118 221.96874 
L 160.237232 227.864131 
L 161.288383 233.722173 
L 162.572953 239.533495 
L 164.088887 245.288799 
L 165.176103 248.928 
L 166.838435 243.213262 
L 168.27091 237.436619 
L 169.471234 231.607314 
L 170.437488 225.734671 
L 171.168126 219.828086 
L 171.661979 213.897008 
L 171.844111 210.335132 
L 175.244465 215.219717 
L 178.837431 219.964417 
L 182.61726 224.561641 
L 186.577906 229.004035 
L 190.713032 233.284492 
L 195.016023 237.396165 
L 199.479996 241.332474 
L 204.097807 245.087124 
L 209.244846 248.928 
L 214.020369 245.376105 
L 218.650034 241.63608 
L 223.126435 237.713911 
L 227.44241 233.61587 
L 231.591055 229.348514 
L 235.565733 224.91867 
L 236.16 224.224794 
L 232.212594 219.77063 
L 228.090227 215.477884 
L 223.799494 211.353422 
L 219.347258 207.403843 
L 214.740642 203.635465 
L 209.987016 200.054317 
L 205.093985 196.666128 
L 200.069376 193.476318 
L 195.26898 190.683131 
L 191.370969 188.509004 
L 187.610341 186.10505 
L 184.000631 183.479919 
L 180.55483 180.643059 
L 177.285339 177.60468 
L 174.203925 174.375716 
L 171.321677 170.967789 
L 168.648969 167.393164 
L 166.195419 163.664704 
L 163.969857 159.795829 
L 161.980294 155.800462 
L 160.233888 151.692983 
L 158.736927 147.488173 
L 157.494796 143.201166 
L 156.511967 138.84739 
L 156.303634 137.730336 
L 156.694424 142.176526 
L 156.817899 146.638148 
L 156.673616 151.099146 
L 156.262093 155.543464 
L 155.584811 159.955109 
L 154.644209 164.318202 
L 153.44367 168.617042 
L 151.987516 172.836158 
L 150.280987 176.960364 
L 148.330225 180.974818 
L 146.142251 184.865074 
L 143.724938 188.617129 
L 141.086987 192.217481 
L 138.237891 195.653172 
L 135.187905 198.911837 
L 134.380745 199.711653 
L 137.839739 196.890895 
L 141.461654 194.282628 
L 145.233453 191.89624 
L 149.141562 189.740317 
L 153.171916 187.82262 
L 157.310011 186.15005 
L 161.540953 184.728627 
L 165.849516 183.563465 
L 170.220194 182.658759 
L 174.637257 182.017764 
L 179.084808 181.642788 
L 183.546841 181.535179 
L 188.007298 181.695325 
L 192.450125 182.12265 
L 196.859333 182.815616 
L 197.974436 183.034151 
L 193.697784 181.756823 
L 189.505422 180.225348 
L 185.412437 178.445238 
L 181.433559 176.4229 
L 177.583109 174.165611 
L 173.874944 171.681495 
L 170.322409 168.979494 
L 166.938289 166.06933 
L 163.734764 162.961478 
L 160.723363 159.667121 
L 157.914924 156.198118 
L 155.319554 152.566951 
L 152.946593 148.78669 
L 150.804582 144.870939 
L 148.901229 140.83379 
L 148.455674 139.78847 
L 149.801104 144.044189 
L 150.888922 148.372926 
L 151.715215 152.759105 
L 152.277008 157.186938 
L 152.572279 161.640491 
L 152.599966 166.103735 
L 152.35997 170.560609 
L 151.853153 174.995071 
L 151.08134 179.391163 
L 150.047308 183.733063 
L 148.75478 188.005145 
L 147.208406 192.192035 
L 145.413753 196.278664 
L 143.377278 200.250325 
L 141.10631 204.092723 
L 140.491748 205.048509 
L 143.256933 201.54493 
L 146.227232 198.213467 
L 149.391954 195.06611 
L 152.739708 192.114186 
L 156.258448 189.368318 
L 159.93551 186.83839 
L 163.757659 184.533505 
L 167.71114 182.461959 
L 171.781726 180.631207 
L 175.954766 179.047839 
L 180.215242 177.717552 
L 184.547821 176.645133 
L 188.936909 175.834444 
L 193.366712 175.2884 
L 197.821287 175.008968 
L 198.957247 174.980551 
L 194.505386 174.660781 
L 190.080711 174.074635 
L 185.699145 173.224222 
L 181.376458 172.112604 
L 177.128207 170.74378 
L 172.96968 169.122677 
L 168.915845 167.255129 
L 164.981289 165.147858 
L 161.180175 162.808446 
L 157.52618 160.245315 
L 154.032457 157.467687 
L 150.711578 154.48556 
L 147.575495 151.309667 
L 144.635494 147.951436 
L 141.902157 144.422953 
L 141.240574 143.499092 
L 143.476643 147.361903 
L 145.477059 151.351847 
L 147.234623 155.454564 
L 148.743008 159.65529 
L 149.996787 163.938905 
L 150.991447 168.289993 
L 151.723409 172.692895 
L 152.190038 177.131767 
L 152.389654 181.590631 
L 152.32154 186.053442 
L 151.985941 190.504137 
L 151.384064 194.9267 
L 150.518075 199.305214 
L 149.391092 203.62392 
L 148.007169 207.867277 
L 147.614437 208.933567 
L 149.55428 204.913825 
L 151.731672 201.017637 
L 154.138777 197.259025 
L 156.766932 193.651516 
L 159.606678 190.208093 
L 162.647796 186.941149 
L 165.87934 183.862442 
L 169.289681 180.983051 
L 172.866545 178.313339 
L 176.597059 175.862914 
L 180.467798 173.640595 
L 184.464831 171.65438 
L 188.573772 169.911417 
L 192.779834 168.41798 
L 197.067881 167.179442 
L 198.170662 166.905425 
L 193.755358 167.558423 
L 189.308843 167.945488 
L 184.847119 168.065224 
L 180.386243 167.917203 
L 175.942271 167.501956 
L 171.531196 166.820978 
L 167.168892 165.876719 
L 162.87106 164.672579 
L 158.653166 163.21289 
L 154.530391 161.502906 
L 150.517572 159.548781 
L 146.629152 157.357547 
L 142.879124 154.937091 
L 139.280983 152.296124 
L 135.847681 149.444151 
L 135.001539 148.685694 
L 138.021884 151.971852 
L 140.839742 155.433209 
L 143.444973 159.057308 
L 145.8282 162.831105 
L 147.980847 166.74102 
L 149.895166 170.77298 
L 151.564268 174.912474 
L 152.982146 179.144606 
L 154.143697 183.454145 
L 155.04474 187.825579 
L 155.682033 192.243177 
L 156.053283 196.691041 
L 156.157153 201.153163 
L 155.993269 205.613484 
L 155.562221 210.055951 
L 155.410002 211.182025 
L 156.432227 206.83733 
L 157.713139 202.56175 
L 159.248126 198.370672 
L 161.031665 194.27918 
L 163.057337 190.301999 
L 165.317851 186.453441 
L 167.805073 182.747359 
L 170.510051 179.197089 
L 173.423049 175.815409 
L 176.533585 172.61449 
L 179.830463 169.60585 
L 183.301819 166.800319 
L 186.935159 164.207992 
L 190.717408 161.8382 
L 194.634952 159.699471 
L 195.652098 159.192888 
L 191.483378 160.787594 
L 187.226534 162.129457 
L 182.896886 163.213647 
L 178.510017 164.036264 
L 174.081714 164.594347 
L 169.627916 164.885886 
L 165.16465 164.909833 
L 160.707979 164.666102 
L 156.273943 164.15557 
L 151.878499 163.380073 
L 147.537467 162.342404 
L 143.266469 161.046296 
L 139.080877 159.496415 
L 134.995753 157.698337 
L 131.0258 155.658535 
L 130.03535 155.10156 
L 133.696297 157.65475 
L 137.197558 160.422871 
L 140.526531 163.39596 
L 143.671235 166.563318 
L 146.620353 169.913545 
L 149.363271 173.434585 
L 151.890117 177.113765 
L 154.191798 180.937844 
L 156.260031 184.89306 
L 158.087371 188.965178 
L 159.667242 193.139544 
L 160.993958 197.401133 
L 162.062746 201.734608 
L 162.869757 206.124375 
L 163.412089 210.554634 
L 163.852282 214.642851 
L 164.718578 220.531069 
L 165.819647 226.379935 
L 167.153727 232.180091 
L 168.718684 237.922258 
L 170.512016 243.597251 
L 172.428412 248.928 
L 174.436449 243.325378 
L 176.218835 237.646938 
L 177.772718 231.901764 
L 179.095612 226.099046 
L 180.185402 220.248069 
L 181.040343 214.358191 
L 181.659067 208.438837 
L 181.855839 205.832908 
L 187.461087 207.8336 
L 193.141858 209.608542 
L 198.889064 211.154894 
L 204.693511 212.470182 
L 210.545912 213.552302 
L 216.436905 214.399522 
L 222.357065 215.010488 
L 228.296923 215.384222 
L 234.246974 215.520127 
L 236.16 215.513256 
L 228.72161 215.624694 
L 222.780709 215.981459 
L 216.858827 216.575512 
L 210.965438 217.405901 
L 205.10997 218.471299 
L 199.30179 219.770001 
L 193.550191 221.299929 
L 187.864372 223.058637 
L 182.253432 225.043309 
L 176.726345 227.250772 
L 171.291954 229.677494 
L 165.958953 232.319592 
L 160.735874 235.17284 
L 155.631072 238.232673 
L 150.652714 241.494196 
L 145.808764 244.952191 
L 140.70418 248.928 
L 136.015137 245.262695 
L 131.183272 241.787834 
L 126.216314 238.508976 
L 121.12221 235.431365 
L 115.909109 232.559926 
L 110.585352 229.899253 
L 105.159454 227.453601 
L 99.640096 225.226883 
L 94.036108 223.222662 
L 88.356456 221.444144 
L 87.36 221.157628 
L 93.051907 219.418728 
L 98.669724 217.453604 
L 104.204464 215.265399 
L 109.647271 212.857614 
L 114.989439 210.2341 
L 120.222421 207.399055 
L 125.337845 204.357014 
L 130.327529 201.112845 
L 133.594981 198.829681 
L 129.536872 203.183224 
L 125.656105 207.695565 
L 121.958887 212.359486 
L 118.451134 217.167526 
L 115.138457 222.111993 
L 112.026155 227.184976 
L 109.119209 232.378361 
L 106.422267 237.683838 
L 103.939646 243.09292 
L 101.547258 248.928 
L 99.296064 243.41858 
L 96.826352 238.003591 
L 94.142074 232.691696 
L 91.247524 227.491392 
L 88.147333 222.410999 
L 87.36 221.190151 
L 90.509642 216.140267 
L 93.454823 210.968469 
L 96.190832 205.683033 
L 98.71329 200.292413 
L 101.018164 194.805234 
L 103.101766 189.230273 
L 104.960762 183.57645 
L 106.592178 177.85281 
L 107.993405 172.068508 
L 109.162201 166.232799 
L 110.096695 160.355019 
L 110.795394 154.44457 
L 111.257179 148.510909 
L 111.481311 142.563528 
L 111.467432 136.611941 
L 111.215565 130.665669 
L 110.726111 124.734226 
L 109.999854 118.827101 
L 109.037956 112.953743 
L 107.841957 107.123549 
L 106.413768 101.345845 
L 106.081207 100.128 
L 104.604051 105.893379 
L 103.35863 111.713216 
L 102.346938 117.578202 
L 101.570591 123.478953 
L 101.030832 129.40603 
L 100.728525 135.349951 
L 100.664153 141.301206 
L 100.83782 147.250275 
L 101.249247 153.18764 
L 101.897776 159.103804 
L 102.782369 164.989301 
L 103.901612 170.834716 
L 105.253715 176.630697 
L 106.836513 182.367973 
L 108.647475 188.037364 
L 110.683703 193.629801 
L 112.941941 199.136338 
L 115.418574 204.548164 
L 118.109643 209.856623 
L 121.01084 215.053221 
L 124.117525 220.129646 
L 127.424728 225.077776 
L 130.927158 229.889695 
L 134.619212 234.557705 
L 138.494984 239.074338 
L 142.548272 243.432369 
L 146.772593 247.624826 
L 148.156883 248.928 
L 152.434424 244.789858 
L 156.543062 240.483969 
L 160.476224 236.017223 
L 164.227618 231.396766 
L 167.791242 226.629989 
L 171.161395 221.724518 
L 174.332686 216.6882 
L 177.300041 211.529093 
L 179.598421 207.172 
L 185.530167 207.657768 
L 191.476594 207.90594 
L 197.428188 207.916121 
L 203.375429 207.688293 
L 209.308802 207.222821 
L 215.218815 206.520449 
L 221.096014 205.582302 
L 226.930995 204.40988 
L 232.714425 203.005059 
L 236.16 202.050341 
L 230.411993 200.50697 
L 224.606865 199.194692 
L 218.753904 198.115608 
L 212.862472 197.271442 
L 206.941995 196.663547 
L 201.001945 196.292893 
L 195.051824 196.160075 
L 192.006485 196.18418 
L 193.934461 201.814854 
L 196.086062 207.363925 
L 198.457845 212.822517 
L 201.046017 218.181897 
L 203.846436 223.43349 
L 206.854623 228.568896 
L 210.065765 233.579898 
L 213.474725 238.458481 
L 217.07605 243.19684 
L 220.863978 247.787394 
L 221.854259 248.928 
L 225.688591 244.376135 
L 229.33783 239.674578 
L 232.796138 234.830851 
L 236.16 229.689765 
L 232.90459 224.707407 
L 229.452543 219.859217 
L 225.809381 215.152949 
L 221.980933 210.596134 
L 217.973323 206.196061 
L 213.792963 201.959769 
L 209.446541 197.894035 
L 204.941009 194.005364 
L 200.283575 190.299977 
L 196.597174 187.574506 
L 202.531853 188.023018 
L 208.479721 188.233847 
L 214.431262 188.206657 
L 220.376955 187.941489 
L 226.307289 187.43877 
L 232.212775 186.699303 
L 237.642212 185.939305 
L 245.042424 185.172764 
L 252.421162 184.221477 
L 259.773814 183.086038 
L 267.095785 181.767156 
L 274.3825 180.265656 
L 281.629405 178.582477 
L 289.824945 176.581467 
L 295.70605 175.668133 
L 301.618975 174.99071 
L 307.55426 174.550284 
L 313.502409 174.347558 
L 319.453908 174.382857 
L 325.399234 174.656124 
L 331.328877 175.166922 
L 332.865284 175.338363 
L 326.915351 175.479351 
L 320.96454 175.382293 
L 315.022369 175.047343 
L 309.098346 174.475038 
L 303.201948 173.666293 
L 297.342607 172.622401 
L 291.529698 171.345034 
L 288.587511 170.604719 
L 294.498643 171.297615 
L 300.377338 172.226338 
L 306.214191 173.389404 
L 311.999865 174.784952 
L 317.725105 176.410748 
L 323.38075 178.264192 
L 328.957754 180.34232 
L 331.767417 181.487015 
L 326.011379 179.973867 
L 320.320456 178.231749 
L 314.703751 176.263449 
L 309.17025 174.072114 
L 303.728805 171.661252 
L 298.388122 169.034718 
L 293.156743 166.196715 
L 290.534881 164.67016 
L 284.415452 160.43893 
L 278.192166 156.361991 
L 271.868912 152.441892 
L 265.449642 148.681084 
L 258.938367 145.081915 
L 252.339156 141.646636 
L 245.656135 138.377394 
L 238.89348 135.276231 
L 236.16 134.080216 
L 242.953407 131.04701 
L 249.668868 127.844934 
L 256.302188 124.475989 
L 262.84922 120.942281 
L 269.305873 117.246019 
L 275.668111 113.389512 
L 281.931958 109.375172 
L 288.0935 105.205505 
L 295.174664 100.128 
L 301.211494 104.476264 
L 307.355133 108.672264 
L 313.601741 112.713377 
L 319.947415 116.597079 
L 326.388188 120.320942 
L 332.920036 123.882639 
L 339.538876 127.279944 
L 346.240571 130.510733 
L 353.020933 133.572988 
L 359.875725 136.464795 
L 366.800662 139.184346 
L 373.791418 141.729942 
L 380.843622 144.099991 
L 384.96 145.393498 
L 377.874175 147.661053 
L 370.847248 150.105027 
L 363.883609 152.723892 
L 356.987611 155.516011 
L 350.163564 158.47964 
L 343.415732 161.612926 
L 336.748333 164.913912 
L 330.382562 168.104888 
L 324.844865 170.285597 
L 319.224392 172.243112 
L 313.530135 173.974302 
L 307.771204 175.476398 
L 301.956811 176.746997 
L 296.096259 177.784066 
L 290.198924 178.585945 
L 288.644388 178.757463 
L 294.401042 177.246664 
L 300.213508 175.967279 
L 306.072486 174.921353 
L 311.968603 174.110561 
L 317.892427 173.5362 
L 323.83448 173.199187 
L 329.785258 173.100063 
L 332.836898 173.141566 
L 326.934111 173.90228 
L 321.005625 174.426337 
L 315.060925 174.712898 
L 309.10952 174.761506 
L 303.160932 174.572082 
L 297.224677 174.144929 
L 291.310252 173.480732 
L 288.289086 173.048548 
L 294.240689 173.05046 
L 300.187454 173.290372 
L 306.11987 173.767898 
L 312.028443 174.482277 
L 317.903723 175.432363 
L 323.736311 176.616639 
L 329.516874 178.033208 
L 332.457758 178.848947 
L 326.555461 178.08444 
L 320.688458 177.084516 
L 314.866133 175.850773 
L 309.097803 174.385187 
L 303.392694 172.690101 
L 297.759934 170.768228 
L 292.208534 168.622642 
L 289.396418 167.436795 
L 295.1521 168.951293 
L 300.842614 170.694745 
L 306.458858 172.664363 
L 311.991845 174.856995 
L 317.432724 177.269133 
L 322.772791 179.89692 
L 328.003504 182.73615 
L 330.640491 184.272552 
L 336.732882 188.542621 
L 342.930109 192.659062 
L 349.228301 196.619302 
L 355.62352 200.420866 
L 362.11177 204.061378 
L 368.688996 207.538564 
L 375.351087 210.850249 
L 382.09388 213.994364 
L 384.96 215.269312 
L 378.184441 218.342181 
L 371.487813 221.58346 
L 364.874302 224.991125 
L 358.348039 228.563046 
L 351.913105 232.29699 
L 345.57352 236.190623 
L 339.333247 240.241514 
L 333.196186 244.447128 
L 327.00028 248.928 
L 320.973293 244.566103 
L 314.839153 240.356229 
L 308.601694 236.301007 
L 302.264814 232.402973 
L 295.832473 228.664562 
L 289.308692 225.088112 
L 282.697548 221.675856 
L 276.003172 218.429928 
L 269.229748 215.352357 
L 262.38151 212.445065 
L 255.462736 209.70987 
L 248.477752 207.14848 
L 241.430923 204.762498 
L 236.16 203.104883 
L 231.151954 199.889132 
L 226.019318 196.876222 
L 220.770303 194.070973 
L 215.413307 191.477872 
L 209.956899 189.101067 
L 204.40981 186.944363 
L 198.780912 185.011207 
L 193.324502 183.227901 
L 189.177191 181.578317 
L 185.136258 179.683013 
L 181.216246 177.548808 
L 177.431264 175.183385 
L 173.794934 172.595255 
L 170.320341 169.793733 
L 167.019991 166.788902 
L 163.905762 163.591576 
L 160.988861 160.213262 
L 158.279786 156.666117 
L 155.788287 152.962909 
L 153.52333 149.116965 
L 151.493068 145.142125 
L 149.704806 141.052694 
L 149.116714 139.54247 
L 149.589179 140.953444 
L 150.836002 145.239089 
L 151.823596 149.591786 
L 152.548408 153.995871 
L 153.00783 158.435494 
L 153.200207 162.894677 
L 153.124847 167.357371 
L 152.782022 171.807516 
L 152.172966 176.229096 
L 151.29987 180.606197 
L 150.165876 184.923069 
L 148.775066 189.164173 
L 147.132445 193.314247 
L 145.243925 197.358355 
L 143.116302 201.281943 
L 140.683639 205.181336 
L 141.555459 203.975517 
L 144.313119 200.466011 
L 147.276261 197.128181 
L 150.434221 193.97404 
L 153.775633 191.014938 
L 157.288472 188.261525 
L 160.960095 185.723711 
L 164.777289 183.410628 
L 168.726315 181.330602 
L 172.792962 179.491119 
L 176.962595 177.898798 
L 181.220206 176.55937 
L 185.550473 175.477656 
L 189.937812 174.657549 
L 194.366433 174.102 
L 198.953041 173.808509 
L 197.46508 173.802074 
L 193.006134 173.604303 
L 188.56707 173.139512 
L 184.163865 172.409372 
L 179.812365 171.416513 
L 175.528232 170.164507 
L 171.326883 168.65786 
L 167.223438 166.901995 
L 163.232667 164.90323 
L 159.36893 162.668759 
L 155.646134 160.206624 
L 152.077677 157.525686 
L 148.676401 154.635593 
L 145.454546 151.546746 
L 142.423709 148.270263 
L 139.513888 144.712727 
L 140.375246 145.926042 
L 142.811369 149.665911 
L 145.018851 153.545131 
L 146.989747 157.549739 
L 148.716964 161.665324 
L 150.194286 165.877074 
L 151.416396 170.169831 
L 152.378896 174.528147 
L 153.078322 178.936335 
L 153.512157 183.378531 
L 153.678839 187.838748 
L 153.577769 192.300934 
L 153.20931 196.749029 
L 152.574789 201.167027 
L 151.676488 205.539026 
L 150.47924 209.976335 
L 150.963892 208.569501 
L 152.585241 204.41107 
L 154.453029 200.357345 
L 156.560534 196.422915 
L 158.90017 192.621938 
L 161.463518 188.968096 
L 164.241353 185.474537 
L 167.223676 182.153835 
L 170.399756 179.01794 
L 173.758162 176.078139 
L 177.286806 173.345011 
L 180.97299 170.828393 
L 184.803447 168.537341 
L 188.764392 166.480102 
L 192.84157 164.66408 
L 197.145946 163.053035 
L 202.714112 160.951343 
L 208.193778 158.628664 
L 213.57618 156.088716 
L 218.852704 153.33556 
L 224.014912 150.373602 
L 229.054543 147.20758 
L 233.963536 143.842559 
L 236.16 142.240918 
L 231.313298 138.786781 
L 226.332345 135.529223 
L 221.225108 132.473456 
L 215.999759 129.624368 
L 210.664656 126.986517 
L 205.228335 124.564123 
L 199.699492 122.361062 
L 194.086972 120.380858 
L 188.399756 118.626679 
L 182.646939 117.10133 
L 176.837727 115.807254 
L 170.981413 114.746519 
L 165.087364 113.920822 
L 159.165011 113.331485 
L 153.223829 112.979451 
L 147.273321 112.865282 
L 141.323007 112.989161 
L 135.382406 113.35089 
L 129.461023 113.94989 
L 123.56833 114.785204 
L 117.713754 115.855494 
L 111.906661 117.159049 
L 106.156342 118.693783 
L 100.471995 120.45724 
L 94.862715 122.4466 
L 89.337474 124.658681 
L 87.36 125.513584 
L 92.852635 127.805426 
L 98.432526 129.875788 
L 104.090746 131.721358 
L 109.818243 133.339183 
L 115.605854 134.726675 
L 121.444321 135.881615 
L 127.324303 136.802155 
L 133.236394 137.486821 
L 139.171134 137.934519 
L 145.119031 138.144533 
L 151.070568 138.116527 
L 154.852554 137.974926 
L 160.456685 135.971105 
L 165.976202 133.744782 
L 171.402274 131.299517 
L 176.726222 128.639224 
L 181.939528 125.768157 
L 187.033851 122.69091 
L 192.001043 119.412406 
L 196.833156 115.93789 
L 201.52246 112.27292 
L 206.061454 108.423359 
L 210.442876 104.395367 
L 214.724678 100.128 
L 218.938876 104.330633 
L 223.317763 108.36138 
L 227.854334 112.213795 
L 232.541332 115.881714 
L 236.16 118.514524 
L 243.279559 120.673829 
L 250.45087 122.654489 
L 257.669451 124.455266 
L 264.930792 126.075035 
L 272.230354 127.512783 
L 279.563574 128.767611 
L 286.92587 129.838736 
L 294.312642 130.725488 
L 301.719271 131.427313 
L 309.14113 131.943772 
L 316.573579 132.274543 
L 324.011975 132.419418 
L 331.451668 132.378308 
L 338.888008 132.151237 
L 346.316348 131.738348 
L 353.732046 131.139899 
L 361.130467 130.356264 
L 368.506987 129.387933 
L 375.856997 128.23551 
L 383.175902 126.899717 
L 384.96 126.545334 
L 377.649396 125.164832 
L 370.306567 123.967507 
L 362.936103 122.954108 
L 355.54261 122.125268 
L 348.130709 121.481506 
L 340.705031 121.023222 
L 333.270217 120.750705 
L 325.830915 120.664123 
L 318.391773 120.763532 
L 310.95744 121.048869 
L 303.532563 121.519956 
L 296.121783 122.176498 
L 288.72973 123.018085 
L 281.361024 124.044191 
L 274.020271 125.254175 
L 266.712058 126.647281 
L 259.440953 128.222637 
L 252.2115 129.97926 
L 245.028217 131.916052 
L 237.895593 134.031802 
L 236.16 134.576144 
L 231.364823 138.101461 
L 226.714457 141.815714 
L 222.216341 145.712961 
L 217.877671 149.786967 
L 213.705389 154.031215 
L 209.706168 158.438914 
L 205.886408 163.003015 
L 202.252218 167.716214 
L 198.901138 172.436146 
L 198.901138 172.436146 
" style="fill:none;stroke:#1f77b4;stroke-linecap:square;stroke-width:1.5;"/>
   </g>
   <g id="patch_5">
    <path d="M 57.6 263.808 
L 57.6 85.248 
" style="fill:none;stroke:#000000;stroke-linecap:square;stroke-linejoin:miter;stroke-width:0.8;"/>
   </g>
   <g id="patch_6">
    <path d="M 414.72 263.808 
L 414.72 85.248 
" style="fill:none;stroke:#000000;stroke-linecap:square;stroke-linejoin:miter;stroke-width:0.8;"/>
   </g>
   <g id="patch_7">
    <path d="M 57.6 263.808 
L 414.72 263.808 
" style="fill:none;stroke:#000000;stroke-linecap:square;stroke-linejoin:miter;stroke-width:0.8;"/>
   </g>
   <g id="patch_8">
    <path d="M 57.6 85.248 
L 414.72 85.248 
" style="fill:none;stroke:#000000;stroke-linecap:square;stroke-linejoin:miter;stroke-width:0.8;"/>
   </g>
  </g>
 </g>
 <defs>
  <clipPath id="pa1c56c7ae6">
   <rect height="178.56" width="357.12" x="57.6" y="85.248"/>
  </clipPath>
 </defs>
</svg>
