<?xml version="1.0" encoding="utf-8" standalone="no"?>
<!DOCTYPE svg PUBLIC "-//W3C//DTD SVG 1.1//EN"
  "http://www.w3.org/Graphics/SVG/1.1/DTD/svg11.dtd">
<!-- Created with matplotlib (https://matplotlib.org/) -->
<svg height="345.6pt" version="1.1" viewBox="0 0 460.8 345.6" width="460.8pt" xmlns="http://www.w3.org/2000/svg" xmlns:xlink="http://www.w3.org/1999/xlink">
 <defs>
  <style type="text/css">
*{stroke-linecap:butt;stroke-linejoin:round;}
  </style>
 </defs>
 <g id="figure_1">
  <g id="patch_1">
   <path d="M 0 345.6 
L 460.8 345.6 
L 460.8 0 
L 0 0 
z
" style="fill:#ffffff;"/>
  </g>
  <g id="axes_1">
   <g id="patch_2">
    <path d="M 82.520165 307.584 
L 389.799835 307.584 
L 389.799835 41.472 
L 82.520165 41.472 
z
" style="fill:#ffffff;"/>
   </g>
   <g id="patch_3">
    <path clip-path="url(#p35b8091d61)" d="M 236.16 225.741278 
C 249.74192 225.741278 262.769389 220.345124 272.373256 210.741256 
C 281.977124 201.137389 287.373278 188.10992 287.373278 174.528 
C 287.373278 160.94608 281.977124 147.918611 272.373256 138.314744 
C 262.769389 128.710876 249.74192 123.314722 236.16 123.314722 
C 222.57808 123.314722 209.550611 128.710876 199.946744 138.314744 
C 190.342876 147.918611 184.946722 160.94608 184.946722 174.528 
C 184.946722 188.10992 190.342876 201.137389 199.946744 210.741256 
C 209.550611 220.345124 222.57808 225.741278 236.16 225.741278 
z
" style="fill:#009900;fill-opacity:0.5;stroke:#009900;stroke-linejoin:miter;stroke-width:2;"/>
   </g>
   <g id="matplotlib.axis_1">
    <g id="xtick_1">
     <g id="line2d_1">
      <defs>
       <path d="M 0 0 
L 0 3.5 
" id="m7220c03c2b" style="stroke:#000000;stroke-width:0.8;"/>
      </defs>
      <g>
       <use style="stroke:#000000;stroke-width:0.8;" x="108.126804" xlink:href="#m7220c03c2b" y="307.584"/>
      </g>
     </g>
     <g id="text_1">
      <!-- −2 -->
      <defs>
       <path d="M 10.59375 35.5 
L 73.1875 35.5 
L 73.1875 27.203125 
L 10.59375 27.203125 
z
" id="DejaVuSans-8722"/>
       <path d="M 19.1875 8.296875 
L 53.609375 8.296875 
L 53.609375 0 
L 7.328125 0 
L 7.328125 8.296875 
Q 12.9375 14.109375 22.625 23.890625 
Q 32.328125 33.6875 34.8125 36.53125 
Q 39.546875 41.84375 41.421875 45.53125 
Q 43.3125 49.21875 43.3125 52.78125 
Q 43.3125 58.59375 39.234375 62.25 
Q 35.15625 65.921875 28.609375 65.921875 
Q 23.96875 65.921875 18.8125 64.3125 
Q 13.671875 62.703125 7.8125 59.421875 
L 7.8125 69.390625 
Q 13.765625 71.78125 18.9375 73 
Q 24.125 74.21875 28.421875 74.21875 
Q 39.75 74.21875 46.484375 68.546875 
Q 53.21875 62.890625 53.21875 53.421875 
Q 53.21875 48.921875 51.53125 44.890625 
Q 49.859375 40.875 45.40625 35.40625 
Q 44.1875 33.984375 37.640625 27.21875 
Q 31.109375 20.453125 19.1875 8.296875 
z
" id="DejaVuSans-50"/>
      </defs>
      <g transform="translate(100.755711 322.182437)scale(0.1 -0.1)">
       <use xlink:href="#DejaVuSans-8722"/>
       <use x="83.789062" xlink:href="#DejaVuSans-50"/>
      </g>
     </g>
    </g>
    <g id="xtick_2">
     <g id="line2d_2">
      <g>
       <use style="stroke:#000000;stroke-width:0.8;" x="172.143402" xlink:href="#m7220c03c2b" y="307.584"/>
      </g>
     </g>
     <g id="text_2">
      <!-- −1 -->
      <defs>
       <path d="M 12.40625 8.296875 
L 28.515625 8.296875 
L 28.515625 63.921875 
L 10.984375 60.40625 
L 10.984375 69.390625 
L 28.421875 72.90625 
L 38.28125 72.90625 
L 38.28125 8.296875 
L 54.390625 8.296875 
L 54.390625 0 
L 12.40625 0 
z
" id="DejaVuSans-49"/>
      </defs>
      <g transform="translate(164.772308 322.182437)scale(0.1 -0.1)">
       <use xlink:href="#DejaVuSans-8722"/>
       <use x="83.789062" xlink:href="#DejaVuSans-49"/>
      </g>
     </g>
    </g>
    <g id="xtick_3">
     <g id="line2d_3">
      <g>
       <use style="stroke:#000000;stroke-width:0.8;" x="236.16" xlink:href="#m7220c03c2b" y="307.584"/>
      </g>
     </g>
     <g id="text_3">
      <!-- 0 -->
      <defs>
       <path d="M 31.78125 66.40625 
Q 24.171875 66.40625 20.328125 58.90625 
Q 16.5 51.421875 16.5 36.375 
Q 16.5 21.390625 20.328125 13.890625 
Q 24.171875 6.390625 31.78125 6.390625 
Q 39.453125 6.390625 43.28125 13.890625 
Q 47.125 21.390625 47.125 36.375 
Q 47.125 51.421875 43.28125 58.90625 
Q 39.453125 66.40625 31.78125 66.40625 
z
M 31.78125 74.21875 
Q 44.046875 74.21875 50.515625 64.515625 
Q 56.984375 54.828125 56.984375 36.375 
Q 56.984375 17.96875 50.515625 8.265625 
Q 44.046875 -1.421875 31.78125 -1.421875 
Q 19.53125 -1.421875 13.0625 8.265625 
Q 6.59375 17.96875 6.59375 36.375 
Q 6.59375 54.828125 13.0625 64.515625 
Q 19.53125 74.21875 31.78125 74.21875 
z
" id="DejaVuSans-48"/>
      </defs>
      <g transform="translate(232.97875 322.182437)scale(0.1 -0.1)">
       <use xlink:href="#DejaVuSans-48"/>
      </g>
     </g>
    </g>
    <g id="xtick_4">
     <g id="line2d_4">
      <g>
       <use style="stroke:#000000;stroke-width:0.8;" x="300.176598" xlink:href="#m7220c03c2b" y="307.584"/>
      </g>
     </g>
     <g id="text_4">
      <!-- 1 -->
      <g transform="translate(296.995348 322.182437)scale(0.1 -0.1)">
       <use xlink:href="#DejaVuSans-49"/>
      </g>
     </g>
    </g>
    <g id="xtick_5">
     <g id="line2d_5">
      <g>
       <use style="stroke:#000000;stroke-width:0.8;" x="364.193196" xlink:href="#m7220c03c2b" y="307.584"/>
      </g>
     </g>
     <g id="text_5">
      <!-- 2 -->
      <g transform="translate(361.011946 322.182437)scale(0.1 -0.1)">
       <use xlink:href="#DejaVuSans-50"/>
      </g>
     </g>
    </g>
   </g>
   <g id="matplotlib.axis_2">
    <g id="ytick_1">
     <g id="line2d_6">
      <defs>
       <path d="M 0 0 
L -3.5 0 
" id="mc6cbed96cb" style="stroke:#000000;stroke-width:0.8;"/>
      </defs>
      <g>
       <use style="stroke:#000000;stroke-width:0.8;" x="82.520165" xlink:href="#mc6cbed96cb" y="302.561196"/>
      </g>
     </g>
     <g id="text_6">
      <!-- −2.0 -->
      <defs>
       <path d="M 10.6875 12.40625 
L 21 12.40625 
L 21 0 
L 10.6875 0 
z
" id="DejaVuSans-46"/>
      </defs>
      <g transform="translate(51.237353 306.360414)scale(0.1 -0.1)">
       <use xlink:href="#DejaVuSans-8722"/>
       <use x="83.789062" xlink:href="#DejaVuSans-50"/>
       <use x="147.412109" xlink:href="#DejaVuSans-46"/>
       <use x="179.199219" xlink:href="#DejaVuSans-48"/>
      </g>
     </g>
    </g>
    <g id="ytick_2">
     <g id="line2d_7">
      <g>
       <use style="stroke:#000000;stroke-width:0.8;" x="82.520165" xlink:href="#mc6cbed96cb" y="270.552897"/>
      </g>
     </g>
     <g id="text_7">
      <!-- −1.5 -->
      <defs>
       <path d="M 10.796875 72.90625 
L 49.515625 72.90625 
L 49.515625 64.59375 
L 19.828125 64.59375 
L 19.828125 46.734375 
Q 21.96875 47.46875 24.109375 47.828125 
Q 26.265625 48.1875 28.421875 48.1875 
Q 40.625 48.1875 47.75 41.5 
Q 54.890625 34.8125 54.890625 23.390625 
Q 54.890625 11.625 47.5625 5.09375 
Q 40.234375 -1.421875 26.90625 -1.421875 
Q 22.3125 -1.421875 17.546875 -0.640625 
Q 12.796875 0.140625 7.71875 1.703125 
L 7.71875 11.625 
Q 12.109375 9.234375 16.796875 8.0625 
Q 21.484375 6.890625 26.703125 6.890625 
Q 35.15625 6.890625 40.078125 11.328125 
Q 45.015625 15.765625 45.015625 23.390625 
Q 45.015625 31 40.078125 35.4375 
Q 35.15625 39.890625 26.703125 39.890625 
Q 22.75 39.890625 18.8125 39.015625 
Q 14.890625 38.140625 10.796875 36.28125 
z
" id="DejaVuSans-53"/>
      </defs>
      <g transform="translate(51.237353 274.352116)scale(0.1 -0.1)">
       <use xlink:href="#DejaVuSans-8722"/>
       <use x="83.789062" xlink:href="#DejaVuSans-49"/>
       <use x="147.412109" xlink:href="#DejaVuSans-46"/>
       <use x="179.199219" xlink:href="#DejaVuSans-53"/>
      </g>
     </g>
    </g>
    <g id="ytick_3">
     <g id="line2d_8">
      <g>
       <use style="stroke:#000000;stroke-width:0.8;" x="82.520165" xlink:href="#mc6cbed96cb" y="238.544598"/>
      </g>
     </g>
     <g id="text_8">
      <!-- −1.0 -->
      <g transform="translate(51.237353 242.343817)scale(0.1 -0.1)">
       <use xlink:href="#DejaVuSans-8722"/>
       <use x="83.789062" xlink:href="#DejaVuSans-49"/>
       <use x="147.412109" xlink:href="#DejaVuSans-46"/>
       <use x="179.199219" xlink:href="#DejaVuSans-48"/>
      </g>
     </g>
    </g>
    <g id="ytick_4">
     <g id="line2d_9">
      <g>
       <use style="stroke:#000000;stroke-width:0.8;" x="82.520165" xlink:href="#mc6cbed96cb" y="206.536299"/>
      </g>
     </g>
     <g id="text_9">
      <!-- −0.5 -->
      <g transform="translate(51.237353 210.335518)scale(0.1 -0.1)">
       <use xlink:href="#DejaVuSans-8722"/>
       <use x="83.789062" xlink:href="#DejaVuSans-48"/>
       <use x="147.412109" xlink:href="#DejaVuSans-46"/>
       <use x="179.199219" xlink:href="#DejaVuSans-53"/>
      </g>
     </g>
    </g>
    <g id="ytick_5">
     <g id="line2d_10">
      <g>
       <use style="stroke:#000000;stroke-width:0.8;" x="82.520165" xlink:href="#mc6cbed96cb" y="174.528"/>
      </g>
     </g>
     <g id="text_10">
      <!-- 0.0 -->
      <g transform="translate(59.61704 178.327219)scale(0.1 -0.1)">
       <use xlink:href="#DejaVuSans-48"/>
       <use x="63.623047" xlink:href="#DejaVuSans-46"/>
       <use x="95.410156" xlink:href="#DejaVuSans-48"/>
      </g>
     </g>
    </g>
    <g id="ytick_6">
     <g id="line2d_11">
      <g>
       <use style="stroke:#000000;stroke-width:0.8;" x="82.520165" xlink:href="#mc6cbed96cb" y="142.519701"/>
      </g>
     </g>
     <g id="text_11">
      <!-- 0.5 -->
      <g transform="translate(59.61704 146.31892)scale(0.1 -0.1)">
       <use xlink:href="#DejaVuSans-48"/>
       <use x="63.623047" xlink:href="#DejaVuSans-46"/>
       <use x="95.410156" xlink:href="#DejaVuSans-53"/>
      </g>
     </g>
    </g>
    <g id="ytick_7">
     <g id="line2d_12">
      <g>
       <use style="stroke:#000000;stroke-width:0.8;" x="82.520165" xlink:href="#mc6cbed96cb" y="110.511402"/>
      </g>
     </g>
     <g id="text_12">
      <!-- 1.0 -->
      <g transform="translate(59.61704 114.310621)scale(0.1 -0.1)">
       <use xlink:href="#DejaVuSans-49"/>
       <use x="63.623047" xlink:href="#DejaVuSans-46"/>
       <use x="95.410156" xlink:href="#DejaVuSans-48"/>
      </g>
     </g>
    </g>
    <g id="ytick_8">
     <g id="line2d_13">
      <g>
       <use style="stroke:#000000;stroke-width:0.8;" x="82.520165" xlink:href="#mc6cbed96cb" y="78.503103"/>
      </g>
     </g>
     <g id="text_13">
      <!-- 1.5 -->
      <g transform="translate(59.61704 82.302322)scale(0.1 -0.1)">
       <use xlink:href="#DejaVuSans-49"/>
       <use x="63.623047" xlink:href="#DejaVuSans-46"/>
       <use x="95.410156" xlink:href="#DejaVuSans-53"/>
      </g>
     </g>
    </g>
    <g id="ytick_9">
     <g id="line2d_14">
      <g>
       <use style="stroke:#000000;stroke-width:0.8;" x="82.520165" xlink:href="#mc6cbed96cb" y="46.494804"/>
      </g>
     </g>
     <g id="text_14">
      <!-- 2.0 -->
      <g transform="translate(59.61704 50.294023)scale(0.1 -0.1)">
       <use xlink:href="#DejaVuSans-50"/>
       <use x="63.623047" xlink:href="#DejaVuSans-46"/>
       <use x="95.410156" xlink:href="#DejaVuSans-48"/>
      </g>
     </g>
    </g>
   </g>
   <g id="line2d_15">
    <path clip-path="url(#p35b8091d61)" d="M 300.176598 63.648 
L 172.143402 63.648 
" style="fill:none;stroke:#009900;stroke-linecap:square;stroke-width:2;"/>
   </g>
   <g id="line2d_16">
    <path clip-path="url(#p35b8091d61)" d="M 172.143402 63.648 
L 108.126804 174.528 
" style="fill:none;stroke:#009900;stroke-linecap:square;stroke-width:2;"/>
   </g>
   <g id="line2d_17">
    <path clip-path="url(#p35b8091d61)" d="M 108.126804 174.528 
L 172.143402 285.408 
" style="fill:none;stroke:#009900;stroke-linecap:square;stroke-width:2;"/>
   </g>
   <g id="line2d_18">
    <path clip-path="url(#p35b8091d61)" d="M 172.143402 285.408 
L 300.176598 285.408 
" style="fill:none;stroke:#009900;stroke-linecap:square;stroke-width:2;"/>
   </g>
   <g id="line2d_19">
    <path clip-path="url(#p35b8091d61)" d="M 300.176598 285.408 
L 364.193196 174.528 
" style="fill:none;stroke:#009900;stroke-linecap:square;stroke-width:2;"/>
   </g>
   <g id="line2d_20">
    <path clip-path="url(#p35b8091d61)" d="M 364.193196 174.528 
L 300.176598 63.648 
" style="fill:none;stroke:#009900;stroke-linecap:square;stroke-width:2;"/>
   </g>
   <g id="line2d_21">
    <path clip-path="url(#p35b8091d61)" d="M 254.992429 72.984518 
L 255.060551 78.105051 
L 255.333386 83.218765 
L 255.810497 88.317477 
L 256.49112 93.393032 
L 257.374166 98.437309 
L 258.458224 103.442238 
L 259.741558 108.399814 
L 261.222116 113.302104 
L 262.897529 118.141267 
L 264.765116 122.90956 
L 266.821891 127.599355 
L 269.064562 132.20315 
L 271.489542 136.713579 
L 272.455452 138.397126 
L 276.917225 140.910506 
L 281.475938 143.243452 
L 286.124298 145.392232 
L 290.854868 147.353408 
L 295.660079 149.123843 
L 300.532246 150.700705 
L 305.463573 152.081471 
L 310.446172 153.263932 
L 315.472071 154.246197 
L 320.533229 155.026693 
L 325.621551 155.604172 
L 330.728896 155.977712 
L 335.847093 156.146712 
L 340.967954 156.110905 
L 346.083287 155.870346 
L 351.184909 155.425421 
L 353.041287 155.212328 
L 350.044241 159.364702 
L 347.215643 163.633606 
L 344.560018 168.012208 
L 342.081614 172.493504 
L 339.784397 177.070326 
L 337.672042 181.735351 
L 335.747927 186.481116 
L 334.015132 191.300029 
L 332.476428 196.18438 
L 331.134276 201.126357 
L 329.990825 206.118052 
L 329.047903 211.15148 
L 328.307018 216.218589 
L 327.769356 221.311272 
L 327.435778 226.421382 
L 327.306816 231.540745 
L 327.382677 236.661169 
L 327.444537 238.178545 
L 322.942915 240.619837 
L 318.542521 243.239193 
L 314.250392 246.032423 
L 310.073396 248.995058 
L 306.018215 252.122359 
L 302.091336 255.409322 
L 298.299042 258.850689 
L 294.6474 262.440955 
L 291.14225 266.174376 
L 287.789202 270.044978 
L 284.593618 274.046571 
L 281.560611 278.172753 
L 278.695034 282.416922 
L 276.819423 285.408 
L 274.071957 281.086434 
L 271.153872 276.878195 
L 268.069836 272.790013 
L 264.824784 268.828431 
L 261.423906 264.999785 
L 257.872643 261.3102 
L 254.176678 257.765579 
L 250.341921 254.371592 
L 246.374509 251.13367 
L 242.280787 248.056992 
L 238.067306 245.14648 
L 233.740806 242.40679 
L 229.308208 239.842306 
L 224.776604 237.45713 
L 220.153243 235.255078 
L 215.445522 233.239672 
L 210.660971 231.414136 
L 205.807246 229.781392 
L 200.892111 228.344052 
L 195.923429 227.104414 
L 190.90915 226.064461 
L 185.857294 225.225859 
L 180.775944 224.589947 
L 175.673228 224.157744 
L 170.557311 223.929941 
L 165.436377 223.906902 
L 160.318617 224.088665 
L 155.21222 224.474938 
L 150.125353 225.065103 
L 145.066157 225.858216 
L 140.042723 226.85301 
L 138.532993 227.193064 
L 141.952551 223.381092 
L 145.216935 219.435424 
L 148.320924 215.362372 
L 151.259551 211.168451 
L 154.028115 206.860371 
L 156.622188 202.445024 
L 159.037618 197.929473 
L 161.270543 193.320943 
L 163.31739 188.626806 
L 165.174884 183.854572 
L 166.840053 179.011876 
L 168.310235 174.106463 
L 169.583076 169.146184 
L 170.656541 164.138971 
L 171.528912 159.092837 
L 172.198794 154.015854 
L 172.665115 148.916143 
L 172.927129 143.801864 
L 172.984416 138.681198 
L 172.836886 133.562337 
L 172.484774 128.453471 
L 171.928643 123.362771 
L 171.169384 118.298383 
L 170.20821 113.268408 
L 169.04666 108.280893 
L 167.686592 103.343818 
L 166.130181 98.46508 
L 164.379918 93.652484 
L 162.438602 88.913729 
L 160.280131 84.195789 
L 165.378384 83.713797 
L 170.453285 83.028315 
L 175.496714 82.14044 
L 180.500604 81.051592 
L 185.456948 79.763512 
L 190.357819 78.278261 
L 195.195375 76.598217 
L 199.961878 74.726065 
L 204.649702 72.664802 
L 209.251348 70.417724 
L 213.759454 67.988427 
L 218.166808 65.380797 
L 220.888974 63.648 
L 225.229212 66.365874 
L 229.674664 68.90801 
L 234.218219 71.270342 
L 238.852607 73.449091 
L 243.570415 75.440771 
L 248.364096 77.242196 
L 253.225979 78.850484 
L 258.148288 80.263062 
L 263.123148 81.47767 
L 268.1426 82.492365 
L 273.198613 83.305524 
L 278.2831 83.915846 
L 283.387927 84.322354 
L 288.504926 84.524399 
L 293.625912 84.521657 
L 298.742691 84.314132 
L 303.847079 83.902157 
L 308.93091 83.28639 
L 311.307555 82.927384 
L 308.156042 86.963776 
L 305.168462 91.122967 
L 302.349595 95.398302 
L 299.70395 99.782942 
L 297.235761 104.269872 
L 294.948975 108.851915 
L 292.847251 113.521739 
L 290.933952 118.271874 
L 289.212137 123.094722 
L 287.684563 127.982566 
L 286.353672 132.927587 
L 285.221594 137.921873 
L 284.290139 142.957436 
L 283.560798 148.02622 
L 283.034738 153.120114 
L 282.98171 153.778847 
L 287.093019 156.831983 
L 291.323133 159.718267 
L 295.665284 162.433084 
L 300.112525 164.97209 
L 304.657742 167.331222 
L 309.293663 169.506707 
L 314.012872 171.495065 
L 318.80782 173.293114 
L 323.670835 174.897977 
L 328.594137 176.307089 
L 333.569851 177.518194 
L 338.590016 178.529354 
L 343.646601 179.338953 
L 348.731516 179.945695 
L 353.836628 180.348609 
L 358.953768 180.54705 
L 360.706039 180.567933 
L 358.035165 176.198615 
L 355.191701 171.9396 
L 352.180197 167.797699 
L 349.005469 163.779539 
L 345.672598 159.891549 
L 342.186914 156.139948 
L 338.553994 152.530738 
L 334.779651 149.069693 
L 330.869921 145.76235 
L 326.831061 142.614 
L 322.669531 139.629679 
L 318.391988 136.814163 
L 314.005277 134.171955 
L 309.516414 131.707282 
L 304.932581 129.424087 
L 300.261111 127.326022 
L 295.509478 125.416445 
L 290.685283 123.69841 
L 285.796244 122.174666 
L 280.850182 120.84765 
L 275.85501 119.719485 
L 270.818718 118.791976 
L 265.749365 118.066607 
L 260.65506 117.544539 
L 255.543952 117.226605 
L 250.424219 117.113316 
L 245.304051 117.204852 
L 240.191639 117.501068 
L 235.095162 118.001488 
L 230.022772 118.705312 
L 224.982586 119.611415 
L 219.982666 120.718347 
L 215.03101 122.024337 
L 210.135541 123.527296 
L 205.30409 125.224819 
L 200.544387 127.114191 
L 195.864045 129.192389 
L 191.270554 131.456088 
L 186.77126 133.901667 
L 182.373362 136.525214 
L 178.083896 139.322531 
L 173.909724 142.289144 
L 169.857524 145.420306 
L 165.933778 148.711008 
L 162.144764 152.155986 
L 158.496543 155.749728 
L 154.994951 159.486486 
L 151.645591 163.360281 
L 148.45382 167.364916 
L 145.424746 171.493985 
L 142.563212 175.740881 
L 139.873799 180.098811 
L 137.360807 184.560804 
L 135.028258 189.11972 
L 132.879882 193.768266 
L 130.919117 198.499006 
L 129.1491 203.304372 
L 127.566217 208.19805 
L 132.573788 209.26984 
L 137.620214 210.140523 
L 142.697421 210.808706 
L 147.797287 211.273321 
L 152.911654 211.533623 
L 158.032339 211.589198 
L 163.15115 211.439955 
L 168.259899 211.086133 
L 173.350412 210.5283 
L 178.414545 209.767346 
L 183.444198 208.804489 
L 188.431324 207.641271 
L 193.367945 206.279551 
L 195.474869 205.632983 
L 192.790834 209.994228 
L 190.283349 214.459317 
L 187.956426 219.021107 
L 185.813787 223.672301 
L 183.85886 228.405456 
L 182.094772 233.213002 
L 180.524346 238.087247 
L 179.150095 243.020394 
L 177.974215 248.00455 
L 176.99859 253.031741 
L 176.224778 258.093926 
L 175.65402 263.183007 
L 175.287226 268.29084 
L 175.124985 273.409256 
L 175.167556 278.530065 
L 175.41487 283.645076 
L 175.547723 285.408 
L 175.59864 284.769863 
L 175.891 279.657229 
L 175.978674 274.536993 
L 175.861524 269.417347 
L 175.539736 264.30648 
L 175.013826 259.21257 
L 174.284634 254.143766 
L 173.353327 249.108175 
L 172.221395 244.113855 
L 170.890649 239.168795 
L 169.363218 234.280907 
L 167.641546 229.458009 
L 165.728386 224.707817 
L 163.626799 220.037931 
L 161.340148 215.455821 
L 158.87209 210.968819 
L 156.226574 206.584101 
L 153.407833 202.308683 
L 150.420375 198.149405 
L 147.26898 194.11292 
L 143.958689 190.205686 
L 140.494799 186.433954 
L 136.88285 182.803757 
L 133.128621 179.320904 
L 129.238118 175.990965 
L 125.217565 172.819269 
L 121.073395 169.810889 
L 116.812236 166.970638 
L 113.626187 165.00279 
L 115.310618 165.925251 
L 119.868114 168.260575 
L 124.515352 170.411779 
L 129.244898 172.375422 
L 134.049186 174.148364 
L 138.920529 175.727767 
L 143.851135 177.111105 
L 148.833116 178.296164 
L 153.858502 179.28105 
L 158.919253 180.064186 
L 164.007273 180.64432 
L 169.114422 181.020522 
L 174.23253 181.192193 
L 179.35341 181.159056 
L 184.468868 180.921166 
L 185.339699 180.860213 
L 184.709551 180.973016 
L 179.690271 181.988558 
L 174.715616 183.204006 
L 169.793546 184.617415 
L 164.931934 186.226524 
L 160.138558 188.028758 
L 155.421086 190.021235 
L 150.787066 192.200766 
L 146.24391 194.563866 
L 141.798887 197.106752 
L 137.459108 199.825359 
L 133.231516 202.715335 
L 129.122873 205.772059 
L 127.093385 207.379081 
L 131.834984 205.444724 
L 136.495437 203.3223 
L 141.067288 201.015206 
L 145.543222 198.527133 
L 149.91608 195.862059 
L 154.178866 193.02425 
L 158.324759 190.018245 
L 162.347129 186.848853 
L 166.239539 183.521144 
L 169.995762 180.040442 
L 173.60979 176.412315 
L 177.075841 172.642568 
L 180.38837 168.737231 
L 183.542077 164.702552 
L 186.531917 160.544986 
L 187.165473 159.617056 
L 187.043553 154.497522 
L 186.717004 149.386957 
L 186.186348 144.293539 
L 185.452434 139.225416 
L 184.516436 134.190696 
L 183.379851 129.197433 
L 182.044499 124.253615 
L 180.512514 119.367151 
L 178.786349 114.545859 
L 176.868764 109.797452 
L 174.762827 105.129526 
L 172.471908 100.549549 
L 169.999671 96.064848 
L 167.350071 91.682597 
L 164.527347 87.409807 
L 161.536016 83.253314 
L 161.132789 82.718941 
L 166.225336 83.257898 
L 171.335361 83.592776 
L 176.45469 83.72304 
L 181.575134 83.648481 
L 186.6885 83.369219 
L 191.786609 82.8857 
L 196.861304 82.198698 
L 201.904467 81.309312 
L 206.90803 80.218964 
L 211.863988 78.9294 
L 216.764414 77.442681 
L 221.601467 75.761187 
L 226.367408 73.887607 
L 231.054615 71.824939 
L 235.655587 69.576483 
L 240.162965 67.145836 
L 244.569537 64.536886 
L 245.983924 63.648 
L 250.356081 66.314222 
L 254.831362 68.803471 
L 259.402607 71.111765 
L 264.062502 73.235413 
L 268.803594 75.171015 
L 273.618296 76.915476 
L 278.498907 78.466005 
L 283.437618 79.820121 
L 288.426529 80.975658 
L 293.457659 81.930768 
L 298.522959 82.683923 
L 303.614325 83.233916 
L 308.723612 83.57987 
L 311.74677 83.688126 
L 309.383735 88.231315 
L 307.204269 92.865366 
L 305.211859 97.582866 
L 303.409693 102.376267 
L 301.800653 107.237902 
L 300.387313 112.159992 
L 299.171936 117.134664 
L 298.156464 122.153959 
L 297.342523 127.209847 
L 296.731414 132.294239 
L 296.324116 137.399003 
L 296.121279 142.51597 
L 296.123229 147.636957 
L 296.329962 152.753768 
L 296.741148 157.85822 
L 297.356129 162.942146 
L 298.17392 167.997412 
L 299.193214 173.015932 
L 300.41238 177.989677 
L 301.829468 182.91069 
L 303.442209 187.771097 
L 305.248026 192.563125 
L 307.244028 197.279106 
L 309.427022 201.911496 
L 311.793516 206.452884 
L 314.339725 210.896005 
L 317.061574 215.233751 
L 319.95471 219.459182 
L 323.014503 223.565539 
L 326.23606 227.546252 
L 329.614226 231.394953 
L 330.689836 232.55752 
L 325.68045 231.494245 
L 320.632552 230.632142 
L 315.554216 229.972591 
L 310.453567 229.516647 
L 305.338766 229.265039 
L 300.217994 229.21817 
L 295.099444 229.376114 
L 289.991304 229.73862 
L 284.901747 230.305107 
L 279.838914 231.074668 
L 274.810905 232.046074 
L 269.825764 233.217769 
L 264.891465 234.587879 
L 260.015904 236.154213 
L 255.206879 237.914264 
L 250.472084 239.865217 
L 245.819093 242.003951 
L 241.255352 244.327044 
L 236.788159 246.83078 
L 232.424663 249.511153 
L 228.171843 252.363875 
L 224.036503 255.384383 
L 220.02526 258.567845 
L 216.144529 261.909167 
L 212.40052 265.403004 
L 208.799222 269.043767 
L 205.346396 272.825631 
L 202.047567 276.742546 
L 198.90801 280.788246 
L 195.93275 284.956259 
L 195.625145 285.408 
L 192.667704 281.227325 
L 189.545446 277.16826 
L 186.263366 273.237299 
L 182.826715 269.440731 
L 179.240991 265.784628 
L 175.51193 262.274841 
L 171.645498 258.916985 
L 167.647879 255.71643 
L 163.525471 252.678297 
L 159.284867 249.807447 
L 154.932852 247.108472 
L 150.476388 244.58569 
L 147.748512 243.154811 
L 147.915132 238.036535 
L 147.876942 232.915691 
L 147.634004 227.800471 
L 147.186706 222.699057 
L 146.535763 217.61961 
L 145.682217 212.570258 
L 144.627434 207.559077 
L 143.373101 202.594084 
L 141.921224 197.683223 
L 140.274127 192.83435 
L 138.434444 188.055221 
L 136.405118 183.353484 
L 134.189397 178.736658 
L 131.790823 174.212131 
L 129.213236 169.78714 
L 126.460758 165.468764 
L 123.537793 161.263913 
L 120.449016 157.179312 
L 119.108417 155.507289 
L 124.178872 156.224918 
L 129.273968 156.739208 
L 134.385555 157.049338 
L 139.505455 157.15481 
L 144.625478 157.055457 
L 149.737432 156.751437 
L 154.833139 156.243236 
L 159.904448 155.531668 
L 164.943245 154.617871 
L 169.94147 153.503307 
L 174.891125 152.189759 
L 179.784294 150.679327 
L 184.613148 148.97443 
L 189.369961 147.077794 
L 194.45989 144.797532 
L 194.924809 139.697694 
L 195.185418 134.583343 
L 195.241298 129.462661 
L 195.092361 124.343841 
L 194.738844 119.235072 
L 194.181315 114.144525 
L 193.420663 109.080346 
L 192.458107 104.050635 
L 191.295186 99.06344 
L 189.933761 94.126738 
L 188.376009 89.248428 
L 186.624423 84.436313 
L 184.681805 79.698093 
L 182.551263 75.041346 
L 180.236204 70.473523 
L 177.740333 66.001932 
L 176.329942 63.648 
L 173.738811 68.065074 
L 171.326388 72.582232 
L 169.096533 77.192248 
L 167.052813 81.887747 
L 165.198498 86.661217 
L 163.536554 91.505022 
L 162.069639 96.411412 
L 160.800102 101.372538 
L 159.729972 106.380464 
L 158.860961 111.427178 
L 158.194461 116.504607 
L 157.731537 121.604627 
L 157.472929 126.719079 
L 157.419052 131.839782 
L 157.569991 136.958544 
L 157.925505 142.067175 
L 158.485026 147.157503 
L 159.247658 152.221384 
L 160.212182 157.250718 
L 161.377053 162.237458 
L 162.740409 167.173626 
L 164.300069 172.051327 
L 166.053537 176.862756 
L 167.998008 181.600217 
L 170.130372 186.25613 
L 172.447217 190.823047 
L 174.944837 195.293662 
L 177.619236 199.660822 
L 180.466136 203.917542 
L 183.480982 208.057012 
L 186.65895 212.072608 
L 189.994958 215.957908 
L 193.483668 219.706695 
L 197.119499 223.312972 
L 200.896634 226.770971 
L 204.809031 230.075158 
L 208.850431 233.220248 
L 213.014368 236.201209 
L 217.294181 239.013273 
L 221.683023 241.65194 
L 226.173873 244.11299 
L 230.759546 246.392486 
L 235.432708 248.48678 
L 240.18588 250.392522 
L 245.01146 252.106663 
L 249.901727 253.626462 
L 254.848858 254.949487 
L 259.844939 256.07362 
L 264.881977 256.997065 
L 269.951914 257.718343 
L 275.046639 258.236301 
L 280.158002 258.55011 
L 285.277824 258.659268 
L 290.397917 258.5636 
L 295.510089 258.26326 
L 300.606161 257.758727 
L 305.67798 257.05081 
L 310.717434 256.14064 
L 315.716459 255.029674 
L 318.058017 254.436473 
L 316.613057 249.523572 
L 314.972789 244.672385 
L 313.139837 239.89067 
L 311.117134 235.18608 
L 308.907916 230.566139 
L 306.515716 226.038238 
L 303.944362 221.609622 
L 301.197967 217.287375 
L 298.280925 213.078412 
L 295.197903 208.989467 
L 291.953833 205.02708 
L 288.553905 201.19759 
L 285.003557 197.507125 
L 282.902062 195.45596 
L 288.013795 195.763669 
L 293.133745 195.866716 
L 298.25372 195.764937 
L 303.365529 195.458495 
L 308.460995 194.947881 
L 313.531966 194.233911 
L 318.57033 193.317727 
L 323.568026 192.200795 
L 328.517059 190.884902 
L 333.409511 189.372153 
L 338.237557 187.664968 
L 342.993471 185.766079 
L 347.669646 183.678522 
L 352.2586 181.405638 
L 356.752992 178.951063 
L 361.145633 176.318724 
L 364.118097 174.397925 
L 363.545096 174.683374 
L 359.013921 177.069365 
L 354.581784 179.634647 
L 350.255777 182.375114 
L 346.042819 185.286384 
L 341.949651 188.363798 
L 337.982821 191.602434 
L 334.148675 194.997109 
L 330.453346 198.542395 
L 326.902748 202.232618 
L 323.502558 206.061876 
L 320.258218 210.024042 
L 317.174918 214.112778 
L 314.257589 218.321542 
L 311.5109 222.643602 
L 308.939244 227.072043 
L 306.546736 231.59978 
L 304.337203 236.219571 
L 302.314179 240.924024 
L 300.480902 245.705613 
L 298.840303 250.556689 
L 297.395008 255.469491 
L 296.147329 260.43616 
L 295.099262 265.44875 
L 294.252483 270.499241 
L 293.608347 275.579555 
L 293.167885 280.681564 
L 292.942558 285.408 
L 292.898833 284.12842 
L 292.596063 279.016392 
L 292.089109 273.92056 
L 291.378781 268.849078 
L 290.466216 263.810057 
L 289.352874 258.81156 
L 288.040537 253.861584 
L 286.531302 248.968046 
L 284.827586 244.138775 
L 282.932112 239.381498 
L 280.847915 234.703825 
L 278.578328 230.11324 
L 276.126982 225.617086 
L 273.497798 221.222555 
L 270.694984 216.93668 
L 268.689163 214.0837 
L 269.126722 214.550983 
L 272.710181 218.209307 
L 276.437066 221.721404 
L 280.301417 225.081656 
L 284.297051 228.284687 
L 288.417576 231.325373 
L 292.656401 234.198851 
L 297.006743 236.900522 
L 301.461643 239.426064 
L 306.013974 241.771438 
L 310.656455 243.932892 
L 315.381656 245.906966 
L 320.18202 247.690504 
L 321.66073 248.196392 
L 317.756112 244.883015 
L 313.722118 241.728433 
L 309.565201 238.73769 
L 305.292011 235.915571 
L 300.909385 233.266593 
L 296.424333 230.794991 
L 291.844032 228.504721 
L 287.175807 226.399446 
L 282.427129 224.482534 
L 277.605592 222.757051 
L 272.718912 221.225759 
L 267.774905 219.891107 
L 262.78148 218.755231 
L 262.187902 218.634101 
L 260.745087 223.547632 
L 259.499914 228.51493 
L 258.454377 233.528048 
L 257.610147 238.578966 
L 256.968575 243.659605 
L 256.530687 248.761835 
L 256.297185 253.877496 
L 256.268441 258.998401 
L 256.444502 264.11636 
L 256.825086 269.223185 
L 257.409584 274.310705 
L 258.197061 279.370783 
L 259.186257 284.395322 
L 259.411052 285.408 
L 260.440924 280.39164 
L 261.269372 275.338109 
L 261.895069 270.255491 
L 262.317016 265.151918 
L 262.534537 260.035553 
L 262.547283 254.914583 
L 262.355236 249.797199 
L 261.958701 244.691588 
L 261.358313 239.605918 
L 260.555033 234.548325 
L 259.550146 229.526901 
L 258.345259 224.549678 
L 257.394277 221.131705 
L 260.242707 225.387402 
L 263.25904 229.525787 
L 266.438452 233.540241 
L 269.775856 237.424342 
L 273.265913 241.171875 
L 276.903039 244.776845 
L 280.681417 248.233486 
L 284.595001 251.536266 
L 288.637531 254.679904 
L 292.802539 257.659368 
L 297.083363 260.469894 
L 301.473153 263.106984 
L 305.964887 265.56642 
L 310.367289 267.757206 
L 306.096868 264.930899 
L 301.716842 262.277624 
L 297.234216 259.801626 
L 292.656162 257.506865 
L 287.990004 255.397013 
L 283.243207 253.475446 
L 278.423365 251.745237 
L 273.538188 250.209154 
L 268.595492 248.869655 
L 263.603184 247.728882 
L 258.569251 246.788661 
L 253.501745 246.050496 
L 248.408774 245.515567 
L 243.298486 245.184731 
L 238.179055 245.058517 
L 233.058672 245.137126 
L 227.945528 245.420432 
L 222.847804 245.907984 
L 217.773654 246.599 
L 212.731196 247.492375 
L 207.728496 248.58668 
L 202.77356 249.880165 
L 197.874312 251.370759 
L 193.03859 253.056079 
L 188.274132 254.933428 
L 183.588559 256.999803 
L 178.989366 259.251897 
L 174.483913 261.686109 
L 170.079405 264.298544 
L 165.782891 267.085023 
L 162.776798 269.184565 
L 167.403 266.988488 
L 171.937682 264.609168 
L 176.373589 262.050413 
L 180.703625 259.316315 
L 184.920863 256.411249 
L 189.018556 253.339863 
L 192.990148 250.107069 
L 196.829286 246.71804 
L 200.529828 243.178197 
L 204.085855 239.493203 
L 207.491676 235.668954 
L 210.741844 231.711567 
L 213.831159 227.627373 
L 216.754678 223.422907 
L 217.536396 222.235036 
L 216.781865 227.30013 
L 216.230488 232.391347 
L 215.883146 237.50054 
L 215.740395 242.619536 
L 215.802464 247.740147 
L 216.069253 252.854179 
L 216.540335 257.953452 
L 217.214957 263.029807 
L 218.092039 268.075125 
L 219.170179 273.081333 
L 220.447651 278.040422 
L 221.922412 282.944459 
L 222.744998 285.408 
L 224.318932 280.534887 
L 225.696735 275.602731 
L 226.876202 270.619423 
L 227.855446 265.592935 
L 228.632902 260.531308 
L 229.207324 255.44264 
L 229.577794 250.335072 
L 229.74372 245.216774 
L 229.704836 240.095936 
L 229.461204 234.980748 
L 229.013214 229.879394 
L 228.413411 225.152009 
L 226.285593 229.810001 
L 224.345747 234.549357 
L 222.596977 239.362496 
L 221.042079 244.241716 
L 219.683542 249.179214 
L 218.523539 254.167088 
L 217.563925 259.197361 
L 216.806236 264.261985 
L 216.251685 269.352856 
L 215.901157 274.461832 
L 215.755214 279.580738 
L 215.81409 284.701386 
L 215.838307 285.408 
L 215.879295 284.12833 
L 215.915242 279.007469 
L 215.746379 273.889268 
L 215.372978 268.781913 
L 214.795637 263.693575 
L 214.015277 258.632396 
L 213.033149 253.60647 
L 211.850823 248.62384 
L 210.470191 243.692475 
L 208.893461 238.820266 
L 207.123156 234.015006 
L 205.162107 229.284383 
L 203.013453 224.635966 
L 200.680631 220.077189 
L 198.167372 215.615348 
L 195.477697 211.257579 
L 192.61591 207.010853 
L 189.586587 202.881966 
L 186.394577 198.877522 
L 183.044985 195.003928 
L 179.543169 191.26738 
L 175.894733 187.673856 
L 172.105512 184.229105 
L 168.18157 180.938638 
L 164.129182 177.807719 
L 159.954832 174.841356 
L 155.665199 172.044296 
L 151.267144 169.421013 
L 146.767703 166.975703 
L 142.174076 164.712279 
L 137.49361 162.634361 
L 132.733794 160.745275 
L 127.902241 159.048041 
L 123.006682 157.545375 
L 118.60749 156.37492 
L 122.230237 159.99434 
L 125.994825 163.465994 
L 129.895231 166.784328 
L 133.925214 169.944033 
L 138.078329 172.940054 
L 142.34793 175.767598 
L 146.727188 178.422142 
L 151.209096 180.899439 
L 155.786485 183.195525 
L 160.452031 185.306729 
L 165.198271 187.229672 
L 170.017612 188.961277 
L 174.902343 190.498775 
L 179.844651 191.839707 
L 184.836628 192.981926 
L 188.67855 193.719451 
L 185.752505 197.92216 
L 182.996864 202.238518 
L 180.416036 206.661619 
L 178.014148 211.184388 
L 175.795045 215.799589 
L 173.762275 220.499839 
L 171.919091 225.277619 
L 170.268442 230.125284 
L 168.812968 235.03508 
L 167.554998 239.999152 
L 166.496543 245.009559 
L 165.639299 250.058285 
L 164.984635 255.137253 
L 164.5336 260.238338 
L 164.286914 265.35338 
L 164.244972 270.474194 
L 164.266731 271.765205 
L 168.696776 274.334097 
L 173.226006 276.723779 
L 177.847174 278.930429 
L 182.552889 280.950516 
L 187.335621 282.780809 
L 192.18772 284.418379 
L 195.47911 285.408 
L 200.373416 283.901258 
L 205.203554 282.200002 
L 209.961796 280.306952 
L 214.640529 278.225138 
L 219.23227 275.957889 
L 223.729673 273.508834 
L 228.125542 270.881889 
L 232.412845 268.081258 
L 236.584723 265.11142 
L 240.634502 261.977127 
L 244.555703 258.683394 
L 248.342054 255.235489 
L 251.987497 251.638928 
L 255.486199 247.899465 
L 258.832565 244.023083 
L 262.02124 240.015982 
L 265.047122 235.884574 
L 267.905373 231.635467 
L 270.591418 227.27546 
L 273.10096 222.811527 
L 275.429986 218.250809 
L 277.574768 213.600604 
L 279.531876 208.86835 
L 281.29818 204.061618 
L 282.870852 199.188097 
L 284.247377 194.255585 
L 285.425554 189.271971 
L 288.649584 173.746196 
L 289.361085 168.674878 
L 289.869218 163.579163 
L 290.173171 158.467205 
L 290.272456 153.347182 
L 290.166916 148.227283 
L 289.856719 143.1157 
L 289.342361 138.02061 
L 288.624665 132.950165 
L 287.70478 127.912476 
L 286.584176 122.915602 
L 285.264648 117.967537 
L 283.748305 113.076197 
L 282.037573 108.249407 
L 280.13519 103.49489 
L 278.044199 98.82025 
L 275.767944 94.232967 
L 273.310068 89.740379 
L 270.674502 85.349673 
L 267.865463 81.067875 
L 264.887444 76.901832 
L 261.745211 72.858211 
L 258.443789 68.943481 
L 254.98846 65.163903 
L 253.521922 63.648 
L 250.004801 67.370144 
L 246.639338 71.229959 
L 243.43092 75.221268 
L 240.384677 79.337687 
L 237.505484 83.572631 
L 234.797947 87.919325 
L 232.266396 92.370814 
L 229.914883 96.919977 
L 227.747169 101.559537 
L 225.766722 106.282071 
L 223.976709 111.080025 
L 222.379996 115.945722 
L 220.979136 120.871378 
L 219.73909 126.018686 
L 215.764445 122.789646 
L 211.663852 119.722132 
L 207.443871 116.821052 
L 203.111254 114.091046 
L 198.672931 111.536483 
L 194.136003 109.161449 
L 189.507728 106.969743 
L 184.795511 104.964873 
L 180.006889 103.150044 
L 175.149524 101.52816 
L 170.231186 100.101817 
L 165.259744 98.873296 
L 160.243151 97.844562 
L 155.189432 97.017261 
L 153.044363 96.728505 
L 156.22023 100.745764 
L 159.554205 104.632809 
L 163.040952 108.383422 
L 166.674895 111.991601 
L 170.45022 115.451576 
L 174.360888 118.75781 
L 178.400641 121.905014 
L 182.563017 124.888154 
L 186.841358 127.702457 
L 191.228819 130.343421 
L 195.71838 132.806821 
L 200.30286 135.088716 
L 202.369728 136.044011 
L 200.786317 131.173969 
L 199.009422 126.371142 
L 197.041887 121.643214 
L 194.886858 116.997747 
L 192.547785 112.442175 
L 190.028408 107.983785 
L 187.332758 103.62971 
L 184.465149 99.386914 
L 181.430166 95.262186 
L 178.232666 91.262124 
L 174.877763 87.393128 
L 171.370826 83.661387 
L 167.717464 80.072871 
L 164.403696 77.053564 
L 169.287149 78.595119 
L 174.228341 79.940156 
L 179.219367 81.086522 
L 184.252244 82.032384 
L 189.318919 82.776227 
L 194.411288 83.316862 
L 199.521202 83.653424 
L 204.640489 83.785376 
L 209.760957 83.712504 
L 214.874415 83.434927 
L 219.972682 82.953088 
L 225.047603 82.267758 
L 230.091059 81.380034 
L 235.094981 80.291335 
L 240.051365 79.003404 
L 244.95228 77.518301 
L 249.789886 75.838401 
L 254.556445 73.966392 
L 259.244331 71.905269 
L 263.846044 69.658329 
L 268.354223 67.229167 
L 272.761655 64.621669 
L 274.309953 63.648 
L 278.679687 66.318192 
L 283.152705 68.811506 
L 287.721851 71.123952 
L 292.379815 73.251831 
L 297.119146 75.191739 
L 301.932262 76.940573 
L 306.811462 78.495535 
L 309.132904 79.160777 
L 307.945775 84.142266 
L 306.958803 89.167242 
L 306.173566 94.227667 
L 305.591319 99.315446 
L 305.212996 104.422438 
L 305.0392 109.540475 
L 305.07021 114.661367 
L 305.305976 119.776924 
L 305.746122 124.87896 
L 306.389942 129.959314 
L 307.236408 135.009858 
L 308.284164 140.022513 
L 309.531535 144.989259 
L 310.976525 149.902151 
L 312.616822 154.753329 
L 314.449803 159.535032 
L 316.472535 164.23961 
L 318.681781 168.859538 
L 321.074008 173.387424 
L 323.645389 177.816024 
L 326.39181 182.138254 
L 329.308877 186.3472 
L 332.391924 190.436127 
L 335.636018 194.398494 
L 339.03597 198.227963 
L 342.58634 201.918407 
L 346.314662 205.494528 
L 341.397106 204.065493 
L 336.426337 202.834251 
L 331.410307 201.802772 
L 326.357042 200.972705 
L 321.274625 200.345379 
L 316.171187 199.921797 
L 311.054892 199.702637 
L 305.933926 199.688249 
L 300.816481 199.878657 
L 295.710743 200.273556 
L 290.624881 200.872314 
L 285.567031 201.673974 
L 280.545285 202.677252 
L 278.656081 203.109165 
L 279.544289 208.152535 
L 280.633468 213.156353 
L 281.921875 218.112613 
L 283.407449 223.013385 
L 285.087813 227.850831 
L 286.960279 232.61721 
L 289.021852 237.304898 
L 291.269233 241.906396 
L 293.698828 246.414341 
L 296.306749 250.821523 
L 299.088824 255.12089 
L 302.040602 259.305565 
L 305.157362 263.368853 
L 308.434117 267.304254 
L 309.759878 268.809271 
L 304.727592 267.860272 
L 299.661382 267.113271 
L 294.569351 266.569461 
L 289.459648 266.229713 
L 284.340445 266.09457 
L 279.219932 266.16425 
L 274.106302 266.438639 
L 269.007735 266.917299 
L 263.932388 267.599465 
L 258.888379 268.484045 
L 253.88378 269.569624 
L 248.926594 270.854465 
L 244.024754 272.336513 
L 239.186101 274.013397 
L 234.418376 275.882434 
L 229.729206 277.940634 
L 225.126093 280.184705 
L 220.616401 282.611056 
L 215.897378 285.408 
L 211.49576 282.790701 
L 206.992997 280.351514 
L 202.396296 278.09434 
L 197.713008 276.02279 
L 192.950626 274.14018 
L 188.11677 272.449519 
L 183.219171 270.953514 
L 178.265666 269.654557 
L 173.264179 268.554726 
L 168.222711 267.655781 
L 163.149327 266.959161 
L 161.379627 266.764595 
L 163.378779 262.049948 
L 165.187796 257.259128 
L 166.803784 252.399799 
L 168.224159 247.479734 
L 169.446647 242.506804 
L 170.469293 237.488967 
L 171.290461 232.434247 
L 171.908837 227.350734 
L 172.323432 222.246558 
L 172.533583 217.129885 
L 172.538954 212.008901 
L 172.339536 206.891799 
L 171.935648 201.786765 
L 171.327935 196.701965 
L 170.517372 191.645535 
L 169.505253 186.625563 
L 168.293198 181.650081 
L 166.883147 176.727047 
L 165.277355 171.864339 
L 163.478391 167.069735 
L 161.489133 162.350905 
L 159.312763 157.715399 
L 156.952763 153.170632 
L 154.412909 148.723876 
L 151.697263 144.382244 
L 148.810171 140.152681 
L 145.756251 136.041954 
L 142.540388 132.05664 
L 139.167728 128.203114 
L 136.507543 125.371118 
L 141.498649 126.517141 
L 146.53159 127.462657 
L 151.598317 128.206152 
L 156.690722 128.746437 
L 161.80066 129.082649 
L 166.919955 129.214248 
L 172.040418 129.141025 
L 177.153857 128.863097 
L 182.252092 128.380908 
L 187.326966 127.695229 
L 192.370361 126.807159 
L 197.374208 125.718116 
L 202.330503 124.429845 
L 207.231316 122.944404 
L 212.068807 121.264172 
L 216.835237 119.391836 
L 221.522982 117.330391 
L 226.12454 115.083135 
L 230.632552 112.653663 
L 235.039805 110.045862 
L 239.339248 107.263905 
L 243.524004 104.31224 
L 247.587377 101.195591 
L 251.522867 97.918944 
L 255.324178 94.487539 
L 258.985229 90.906868 
L 262.500163 87.182658 
L 265.863357 83.320867 
L 269.06943 79.327673 
L 272.113253 75.209464 
L 274.989957 70.972829 
L 277.69494 66.624546 
L 279.411385 63.648 
L 281.998711 68.067304 
L 284.760692 72.379607 
L 287.69291 76.578012 
L 290.790674 80.6558 
L 294.049028 84.60645 
L 297.46276 88.42364 
L 301.026408 92.101263 
L 304.734271 95.633437 
L 308.580417 99.014511 
L 312.558694 102.239075 
L 316.662737 105.301972 
L 320.88598 108.1983 
L 325.221667 110.923427 
L 328.604632 112.8868 
L 328.64041 118.007661 
L 328.880939 123.122996 
L 329.325834 128.22462 
L 329.974384 133.304373 
L 330.825551 138.354127 
L 331.877973 143.365804 
L 333.129968 148.331387 
L 334.579531 153.242931 
L 336.224344 158.09258 
L 338.061775 162.872574 
L 340.088886 167.575267 
L 342.302433 172.193136 
L 344.698875 176.718793 
L 347.274377 181.144998 
L 350.024821 185.464669 
L 352.945805 189.670897 
L 354.351655 191.574049 
L 349.257216 191.053284 
L 344.146027 190.736659 
L 339.026265 190.624681 
L 333.906121 190.717528 
L 328.793785 191.015052 
L 323.697435 191.516777 
L 318.625227 192.2219 
L 313.585272 193.129293 
L 308.585635 194.237505 
L 303.634315 195.544763 
L 298.73923 197.048975 
L 293.908214 198.747735 
L 289.148995 200.638325 
L 284.469186 202.717721 
L 279.876273 204.982596 
L 275.433238 207.397631 
L 273.819577 212.257733 
L 272.401559 217.178478 
L 271.181453 222.151992 
L 270.16121 227.170319 
L 269.342462 232.225431 
L 268.726521 237.30924 
L 268.314369 242.413614 
L 268.106669 247.530387 
L 268.10375 252.651372 
L 268.305619 257.768378 
L 268.711952 262.873219 
L 269.322099 267.957727 
L 270.135084 273.013768 
L 271.149606 278.033255 
L 272.364043 283.008156 
L 273.02603 285.408 
L 274.336964 280.457651 
L 275.448889 275.458839 
L 276.360026 270.41956 
L 277.068916 265.347876 
L 277.574425 260.251901 
L 277.875746 255.139787 
L 277.972396 250.019713 
L 277.86422 244.899869 
L 277.551391 239.788447 
L 277.03441 234.693623 
L 276.314105 229.623548 
L 275.391626 224.586333 
L 274.26845 219.590036 
L 272.946375 214.642651 
L 271.901742 211.206709 
L 276.770678 212.793519 
L 281.699175 214.184354 
L 286.679348 215.376989 
L 291.70323 216.369517 
L 296.762784 217.160349 
L 301.849916 217.74822 
L 306.956487 218.132189 
L 312.074328 218.311644 
L 317.195252 218.286295 
L 322.311066 218.056185 
L 327.413585 217.621681 
L 332.494648 216.983477 
L 337.546125 216.142597 
L 340.507826 215.552263 
L 338.823909 210.716054 
L 336.947942 205.951051 
L 334.882926 201.264879 
L 332.632165 196.665034 
L 330.199259 192.158874 
L 327.588101 187.75361 
L 324.802869 183.456287 
L 321.848017 179.273781 
L 318.728273 175.212784 
L 315.448628 171.279791 
L 312.014329 167.481096 
L 308.430869 163.822774 
L 304.703982 160.310678 
L 300.83963 156.950428 
L 296.843994 153.747398 
L 292.723468 150.706713 
L 288.484642 147.833238 
L 284.134299 145.131569 
L 279.679398 142.606028 
L 275.127065 140.260656 
L 273.499401 139.477051 
L 271.512642 134.757169 
L 269.338728 130.12051 
L 266.981136 125.574494 
L 264.443638 121.126393 
L 261.730292 116.783323 
L 258.845441 112.552232 
L 255.793698 108.439888 
L 252.579947 104.452871 
L 249.209328 100.597559 
L 245.687234 96.88012 
L 242.019299 93.3065 
L 238.211392 89.882417 
L 234.269604 86.613349 
L 230.200241 83.504525 
L 226.009813 80.560919 
L 221.705024 77.78724 
L 217.292761 75.187925 
L 212.780083 72.767133 
L 208.174208 70.528736 
L 203.482506 68.476316 
L 198.712481 66.613155 
L 193.871766 64.942235 
L 189.612371 63.648 
L 184.716493 65.149625 
L 179.884579 66.845832 
L 175.124362 68.733907 
L 170.443454 70.81083 
L 167.058292 72.45567 
L 167.45017 77.56164 
L 168.045918 82.647855 
L 168.844585 87.706179 
L 169.844892 92.728518 
L 171.045239 97.706837 
L 172.443705 102.633174 
L 174.038054 107.499647 
L 175.825734 112.29847 
L 177.803886 117.021966 
L 179.969345 121.662579 
L 182.318647 126.212884 
L 184.848034 130.665603 
L 187.553458 135.013612 
L 190.430593 139.249955 
L 193.474835 143.367854 
L 194.522936 144.709302 
L 189.665266 143.08833 
L 184.746661 141.66291 
L 179.774988 140.435322 
L 174.758202 139.40753 
L 169.704328 138.581178 
L 164.621451 137.957588 
L 159.517703 137.537757 
L 154.401248 137.322358 
L 149.280273 137.311735 
L 144.162969 137.505904 
L 139.057523 137.904556 
L 133.972103 138.507053 
L 128.404971 139.405184 
L 130.216751 144.19496 
L 132.218622 148.908453 
L 134.407381 153.538123 
L 136.779526 158.076562 
L 139.331263 162.51651 
L 142.05851 166.850864 
L 144.956902 171.072691 
L 148.021805 175.175236 
L 151.248314 179.151935 
L 154.631268 182.996428 
L 158.165254 186.702564 
L 161.84462 190.264413 
L 165.663478 193.676278 
L 169.61572 196.932701 
L 173.695023 200.02847 
L 177.89486 202.958635 
L 182.208514 205.718508 
L 186.629082 208.303673 
L 191.149494 210.709994 
L 195.762516 212.933622 
L 200.460771 214.971 
L 205.23674 216.818868 
L 209.611558 218.32275 
L 213.334363 221.839172 
L 217.194809 225.203909 
L 221.186721 228.411578 
L 225.303713 231.457048 
L 229.539197 234.335445 
L 233.886399 237.042166 
L 238.338364 239.57288 
L 242.887969 241.923539 
L 247.527936 244.090381 
L 252.250842 246.069942 
L 257.049132 247.859053 
L 261.915128 249.454852 
L 266.841048 250.854787 
L 271.81901 252.056618 
L 276.84105 253.058423 
L 281.899135 253.858598 
L 286.985172 254.455863 
L 292.091026 254.849263 
L 297.208527 255.038169 
L 302.329488 255.022279 
L 307.445719 254.801617 
L 312.549032 254.376537 
L 317.631265 253.74772 
L 318.532536 253.614582 
L 316.569598 248.884743 
L 314.419088 244.237184 
L 312.084444 239.67934 
L 309.569403 235.218503 
L 306.877988 230.861808 
L 304.014505 226.616227 
L 300.983534 222.48855 
L 297.789924 218.485381 
L 294.438785 214.613125 
L 290.935477 210.877976 
L 287.285606 207.28591 
L 283.495009 203.842673 
L 280.040577 200.93434 
L 284.793771 202.840028 
L 289.619371 204.554115 
L 294.509655 206.073858 
L 299.456802 207.396826 
L 304.452896 208.520903 
L 309.489944 209.44429 
L 314.559889 210.165511 
L 319.65462 210.68341 
L 324.765986 210.997161 
L 329.88581 211.10626 
L 335.005902 211.010534 
L 340.11807 210.710136 
L 343.482419 210.400117 
L 341.308069 205.763663 
L 338.95005 201.217869 
L 336.412133 196.770006 
L 333.69838 192.427191 
L 330.813131 188.196371 
L 327.761002 184.084314 
L 324.546876 180.097599 
L 321.175895 176.242604 
L 317.653452 172.525495 
L 313.985181 168.95222 
L 310.176952 165.528495 
L 306.234857 162.259797 
L 302.165202 159.151356 
L 297.974497 156.208144 
L 293.669448 153.434869 
L 289.256941 150.835969 
L 284.744035 148.415601 
L 280.13795 146.177637 
L 278.222884 145.313043 
L 277.817743 140.208108 
L 277.208784 135.123458 
L 276.396979 130.067226 
L 275.383629 125.047503 
L 274.170354 120.072318 
L 272.759095 115.149631 
L 271.152111 110.287316 
L 269.35197 105.493153 
L 267.361555 100.774812 
L 265.184048 96.13984 
L 262.822933 91.595652 
L 260.281988 87.149519 
L 257.565278 82.808553 
L 254.677148 78.579699 
L 251.622219 74.469722 
L 248.405379 70.485196 
L 245.031774 66.632498 
L 242.222273 63.648 
L 238.727072 67.390736 
L 235.384337 71.270249 
L 232.199414 75.280332 
L 229.177399 79.414571 
L 226.323128 83.666351 
L 223.641165 88.028871 
L 221.135802 92.495151 
L 218.811046 97.058046 
L 216.670617 101.710257 
L 214.717939 106.444341 
L 212.956136 111.252724 
L 211.388026 116.127715 
L 210.016118 121.061514 
L 208.842607 126.046228 
L 207.86937 131.073882 
L 207.723505 131.934977 
L 202.714025 130.872146 
L 197.66605 130.010492 
L 192.587655 129.351392 
L 187.486966 128.8959 
L 182.372142 128.644747 
L 177.251366 128.598332 
L 172.13283 128.756731 
L 167.024723 129.119691 
L 161.935216 129.686629 
L 156.872451 130.45664 
L 151.844529 131.428492 
L 146.859491 132.60063 
L 141.925315 133.971179 
L 137.049892 135.537945 
L 132.241024 137.298424 
L 128.820172 138.686035 
L 129.55418 143.754145 
L 130.49027 148.788848 
L 131.626946 153.78209 
L 132.96239 158.725884 
L 134.494464 163.612319 
L 136.220718 168.433579 
L 138.13839 173.181951 
L 140.244413 177.849838 
L 142.535416 182.429773 
L 145.007736 186.914429 
L 147.657416 191.296631 
L 150.480218 195.569369 
L 153.471627 199.725807 
L 156.626855 203.759296 
L 159.940856 207.663384 
L 163.408329 211.431823 
L 167.023725 215.058587 
L 170.781261 218.537872 
L 174.674926 221.864112 
L 178.69849 225.031987 
L 182.845517 228.036429 
L 187.109373 230.87263 
L 191.483235 233.536054 
L 195.960108 236.022439 
L 200.532829 238.327809 
L 205.194082 240.448474 
L 209.93641 242.381043 
L 214.752227 244.122424 
L 219.633829 245.66983 
L 224.573406 247.020786 
L 229.563056 248.173131 
L 234.594795 249.125022 
L 239.660576 249.874935 
L 244.752293 250.421672 
L 249.8618 250.764357 
L 254.980925 250.902441 
L 260.101476 250.835705 
L 265.215263 250.564255 
L 270.314105 250.088525 
L 275.389843 249.409277 
L 280.434359 248.527596 
L 285.439582 247.444894 
L 290.397505 246.162902 
L 295.300196 244.683672 
L 300.139812 243.009569 
L 304.908611 241.143273 
L 309.598963 239.087768 
L 314.203365 236.846344 
L 318.714451 234.422585 
L 323.125004 231.82037 
L 327.427968 229.043861 
L 331.616459 226.097501 
L 335.683778 222.986002 
L 336.67849 222.184869 
L 337.390092 217.113565 
L 337.898326 212.017861 
L 338.202381 206.905909 
L 338.301768 201.785887 
L 338.19633 196.665986 
L 337.886235 191.554397 
L 337.371979 186.459297 
L 336.654384 181.388838 
L 335.734599 176.35113 
L 334.614096 171.354234 
L 333.294666 166.406143 
L 331.77842 161.514772 
L 330.067785 156.687949 
L 328.165497 151.933393 
L 326.074598 147.258711 
L 323.798435 142.671383 
L 321.340648 138.178746 
L 318.70517 133.787988 
L 315.896216 129.506133 
L 312.918281 125.340031 
L 309.776128 121.296348 
L 306.474784 117.381551 
L 303.019531 113.601905 
L 299.415896 109.963455 
L 295.669645 106.472022 
L 291.78677 103.133193 
L 287.773483 99.952307 
L 283.636205 96.934455 
L 279.381555 94.084464 
L 275.016338 91.406893 
L 270.547539 88.906025 
L 265.982307 86.585863 
L 261.327944 84.450117 
L 256.591898 82.502204 
L 251.781744 80.745241 
L 246.905177 79.182038 
L 241.97 77.815096 
L 236.984108 76.646602 
L 231.955476 75.678425 
L 226.89215 74.912114 
L 221.80223 74.348895 
L 216.693859 73.989669 
L 211.575209 73.835011 
L 206.454468 73.885168 
L 201.339829 74.140059 
L 196.239474 74.599278 
L 191.161563 75.26209 
L 186.114219 76.127433 
L 181.105516 77.193925 
L 176.143469 78.459858 
L 171.236014 79.923207 
L 166.391003 81.581632 
L 161.616187 83.432478 
L 160.43722 83.923703 
L 161.171227 88.991812 
L 162.107318 94.026516 
L 163.243994 99.019758 
L 164.579437 103.963551 
L 166.111511 108.849987 
L 167.837765 113.671247 
L 169.755437 118.419619 
L 171.86146 123.087506 
L 174.152463 127.667441 
L 176.624783 132.152097 
L 179.274463 136.534299 
L 182.097266 140.807037 
L 185.088674 144.963475 
L 188.243902 148.996964 
L 190.387058 151.557635 
L 185.272303 151.305073 
L 180.15154 151.257248 
L 175.032961 151.414237 
L 169.924753 151.775789 
L 164.83509 152.341326 
L 159.772114 153.109942 
L 154.743924 154.080409 
L 149.758564 155.251174 
L 144.82401 156.620363 
L 139.948156 158.185786 
L 135.138803 159.94494 
L 130.403644 161.895009 
L 125.750254 164.032874 
L 121.186079 166.355116 
L 116.718419 168.858018 
L 112.354422 171.537576 
L 108.278221 174.265739 
L 108.239847 174.723796 
L 112.911966 176.820414 
L 117.66419 178.72852 
L 122.488917 180.445061 
L 127.378428 181.967292 
L 132.3249 183.292777 
L 137.320422 184.419396 
L 142.357 185.345345 
L 147.426577 186.069145 
L 152.521044 186.589637 
L 157.632249 186.905988 
L 162.752017 187.017692 
L 167.872157 186.924571 
L 172.984477 186.626773 
L 178.0808 186.124775 
L 183.152971 185.41938 
L 186.014157 184.929647 
L 184.768485 185.225517 
L 179.81725 186.533098 
L 174.922264 188.03763 
L 170.091359 189.736705 
L 165.332263 191.627606 
L 160.652589 193.707308 
L 156.059825 195.972483 
L 151.561317 198.419508 
L 147.164263 201.044468 
L 142.875696 203.843163 
L 138.702477 206.811117 
L 134.651284 209.94358 
L 130.559886 213.383237 
L 135.375213 211.640501 
L 140.116997 209.706597 
L 144.777653 207.584619 
L 149.349724 205.277963 
L 153.825897 202.790317 
L 158.199009 200.125662 
L 162.462066 197.288261 
L 166.608248 194.282652 
L 170.63092 191.113645 
L 174.523648 187.786308 
L 178.280205 184.305965 
L 181.89458 180.678184 
L 185.021348 177.291712 
L 181.15543 173.933263 
L 177.158303 170.732095 
L 173.03636 167.693331 
L 168.796196 164.821831 
L 164.444594 162.122189 
L 159.988517 159.598724 
L 155.435092 157.255473 
L 150.791604 155.096185 
L 146.065483 153.124315 
L 141.264287 151.343016 
L 136.3957 149.755138 
L 131.467508 148.363222 
L 126.487597 147.169495 
L 124.198592 146.690848 
L 127.653891 150.470452 
L 131.25757 154.108859 
L 135.003863 157.600246 
L 138.886779 160.939028 
L 142.900104 164.119865 
L 147.037419 167.137667 
L 151.292104 169.987607 
L 155.657353 172.665125 
L 160.126182 175.165938 
L 164.691443 177.486045 
L 169.345831 179.621735 
L 174.081902 181.56959 
L 178.892077 183.326495 
L 183.768662 184.889639 
L 186.152691 185.576478 
L 182.322025 188.975082 
L 178.630332 192.524152 
L 175.083517 196.218013 
L 171.687253 200.050753 
L 168.446975 204.016241 
L 165.367866 208.108135 
L 162.454853 212.319887 
L 159.712594 216.644759 
L 157.145478 221.075833 
L 154.757611 225.60602 
L 152.552813 230.228072 
L 150.534611 234.934595 
L 148.706235 239.718061 
L 147.606495 242.90883 
L 152.640224 243.850148 
L 157.707568 244.589417 
L 162.800423 245.125455 
L 167.910639 245.457404 
L 173.030042 245.584734 
L 178.150442 245.50724 
L 183.263648 245.225047 
L 188.361478 244.738606 
L 193.435779 244.048696 
L 198.478431 243.156419 
L 203.481368 242.063204 
L 208.436587 240.770798 
L 213.336159 239.281271 
L 218.172248 237.597005 
L 222.937115 235.720694 
L 227.623138 233.65534 
L 232.222821 231.404247 
L 236.728805 228.971016 
L 241.133881 226.359541 
L 242.798813 225.309158 
L 247.705211 226.776046 
L 252.666344 228.045558 
L 257.674276 229.115661 
L 262.720995 229.984645 
L 267.798427 230.651118 
L 272.898449 231.114016 
L 278.012903 231.372596 
L 283.133606 231.426446 
L 288.252367 231.27548 
L 293.360996 230.919938 
L 298.451321 230.36039 
L 303.515198 229.597731 
L 308.544527 228.633181 
L 313.53126 227.468283 
L 318.467422 226.104901 
L 323.345114 224.545216 
L 328.156534 222.791722 
L 332.893984 220.847225 
L 337.549886 218.714837 
L 339.129678 217.939285 
L 338.718554 212.834829 
L 338.103634 207.750896 
L 337.285903 202.695619 
L 336.266669 197.677087 
L 335.047562 192.703328 
L 333.630534 187.782299 
L 332.01785 182.921871 
L 330.212091 178.129822 
L 328.216145 173.413817 
L 326.033206 168.781401 
L 323.666766 164.239985 
L 321.12061 159.796833 
L 318.398813 155.459055 
L 315.505728 151.233589 
L 312.445983 147.127196 
L 309.224474 143.146445 
L 305.846355 139.297703 
L 302.317028 135.58713 
L 298.642142 132.020659 
L 294.827574 128.603998 
L 290.879428 125.342611 
L 286.804019 122.241718 
L 282.607867 119.306277 
L 278.297685 116.540986 
L 273.880369 113.950268 
L 269.362985 111.538268 
L 264.75276 109.308844 
L 260.05707 107.265564 
L 255.283426 105.411695 
L 250.439466 103.750204 
L 245.532939 102.283749 
L 240.571694 101.014676 
L 235.563667 99.945015 
L 230.516872 99.076476 
L 225.439381 98.410451 
L 220.339318 97.948004 
L 215.224841 97.689875 
L 210.104133 97.636477 
L 204.985386 97.787895 
L 199.876788 98.143888 
L 194.786513 98.703885 
L 189.722703 99.466991 
L 184.693459 100.431985 
L 179.706828 101.597323 
L 174.770787 102.961141 
L 169.893233 104.521257 
L 165.081968 106.275176 
L 160.344689 108.22009 
L 155.688976 110.35289 
L 151.122275 112.670163 
L 146.651894 115.168201 
L 142.284984 117.843009 
L 139.98224 119.352767 
L 139.739184 124.467982 
L 139.700876 129.588825 
L 139.867378 134.707104 
L 140.238423 139.81463 
L 140.813418 144.903234 
L 141.591443 149.964773 
L 142.571254 154.99115 
L 143.751282 159.974326 
L 145.12964 164.906326 
L 146.704122 169.779263 
L 148.472211 174.585338 
L 150.431078 179.316865 
L 152.577588 183.966273 
L 154.908308 188.526125 
L 157.419509 192.989125 
L 160.107173 197.348134 
L 162.967002 201.596178 
L 165.99442 205.726462 
L 169.184583 209.732378 
L 172.532389 213.607517 
L 176.03248 217.345679 
L 179.679259 220.940885 
L 183.466891 224.387383 
L 187.389316 227.67966 
L 191.440259 230.812448 
L 195.61324 233.780735 
L 199.901583 236.579773 
L 204.298428 239.205085 
L 208.79674 241.652469 
L 213.389323 243.918011 
L 218.06883 245.998087 
L 222.827775 247.889369 
L 227.658544 249.588831 
L 232.55341 251.093754 
L 237.504541 252.401731 
L 242.504016 253.510669 
L 247.543839 254.418794 
L 252.615945 255.124654 
L 257.712221 255.62712 
L 262.824514 255.925386 
L 267.944645 256.018977 
L 273.064424 255.907742 
L 278.175658 255.59186 
L 283.270173 255.071836 
L 288.339816 254.348501 
L 293.376479 253.423013 
L 298.372104 252.296853 
L 303.318698 250.971822 
L 308.208349 249.450039 
L 313.033233 247.73394 
L 317.785632 245.82627 
L 322.457943 243.730081 
L 324.934389 242.526248 
L 324.523264 237.421791 
L 323.908344 232.337858 
L 323.090613 227.282582 
L 322.071379 222.26405 
L 320.852273 217.290291 
L 319.435244 212.369261 
L 317.82256 207.508834 
L 316.016801 202.716785 
L 314.020856 198.00078 
L 311.837917 193.368364 
L 309.471476 188.826947 
L 306.925321 184.383796 
L 304.203524 180.046017 
L 301.310439 175.820552 
L 298.250694 171.714158 
L 295.029185 167.733407 
L 291.651065 163.884666 
L 288.121739 160.174092 
L 284.446853 156.607622 
L 283.966982 156.16248 
L 284.335004 151.054735 
L 284.498476 145.936359 
L 284.457137 140.815539 
L 284.211052 135.700469 
L 283.760616 130.599331 
L 283.10655 125.520286 
L 282.249899 120.471459 
L 281.192033 115.460928 
L 279.934647 110.496708 
L 278.47975 105.586741 
L 276.829671 100.738881 
L 274.987048 95.960885 
L 272.954831 91.260396 
L 270.73627 86.644934 
L 268.334915 82.121883 
L 265.754606 77.698478 
L 262.999473 73.381797 
L 260.073921 69.178744 
L 256.982633 65.096044 
L 255.822827 63.648 
L 252.672705 67.685478 
L 249.686559 71.845699 
L 246.869165 76.122005 
L 244.225032 80.507556 
L 241.758389 84.995337 
L 239.473183 89.578167 
L 237.373069 94.248716 
L 235.461407 98.99951 
L 233.741255 103.822951 
L 232.215365 108.711321 
L 230.886178 113.6568 
L 229.755822 118.651477 
L 228.800134 123.846324 
L 226.482169 119.279975 
L 223.983453 114.809973 
L 221.307984 110.443468 
L 218.460041 106.187446 
L 215.444181 102.048716 
L 212.265228 98.033898 
L 208.928268 94.149416 
L 205.438639 90.401484 
L 201.801925 86.796098 
L 198.023942 83.339026 
L 194.110736 80.035798 
L 190.068565 76.891699 
L 185.903898 73.911758 
L 181.623396 71.100743 
L 177.233907 68.463152 
L 172.742454 66.003202 
L 171.231602 65.227284 
L 171.768165 65.576444 
L 176.122136 68.272262 
L 180.580428 70.791812 
L 185.135909 73.131062 
L 189.781292 75.286271 
L 194.509144 77.253989 
L 199.311902 79.03107 
L 204.181882 80.614671 
L 209.111295 82.002258 
L 214.092253 83.19161 
L 219.116788 84.180826 
L 224.176862 84.968324 
L 229.26438 85.552842 
L 234.371203 85.933446 
L 239.489161 86.109527 
L 244.610067 86.080804 
L 249.725728 85.847322 
L 254.827961 85.409455 
L 259.908602 84.767903 
L 264.959523 83.923693 
L 269.972646 82.878176 
L 274.939948 81.633023 
L 279.853485 80.190227 
L 284.705395 78.552096 
L 289.487916 76.721251 
L 294.193397 74.70062 
L 298.814311 72.493437 
L 303.767367 69.867394 
L 301.581433 71.200989 
L 297.291751 73.997975 
L 293.11735 76.964265 
L 289.064908 80.095114 
L 285.140908 83.385513 
L 281.351627 86.830198 
L 277.703129 90.423659 
L 274.201249 94.160146 
L 270.851589 98.033682 
L 267.659509 102.038071 
L 264.630116 106.166906 
L 261.768254 110.413581 
L 259.078504 114.771303 
L 256.565168 119.233102 
L 254.232266 123.791837 
L 253.093172 126.195117 
L 253.093172 126.195117 
" style="fill:none;stroke:#1f77b4;stroke-linecap:square;stroke-width:1.5;"/>
   </g>
   <g id="patch_4">
    <path d="M 82.520165 307.584 
L 82.520165 41.472 
" style="fill:none;stroke:#000000;stroke-linecap:square;stroke-linejoin:miter;stroke-width:0.8;"/>
   </g>
   <g id="patch_5">
    <path d="M 389.799835 307.584 
L 389.799835 41.472 
" style="fill:none;stroke:#000000;stroke-linecap:square;stroke-linejoin:miter;stroke-width:0.8;"/>
   </g>
   <g id="patch_6">
    <path d="M 82.520165 307.584 
L 389.799835 307.584 
" style="fill:none;stroke:#000000;stroke-linecap:square;stroke-linejoin:miter;stroke-width:0.8;"/>
   </g>
   <g id="patch_7">
    <path d="M 82.520165 41.472 
L 389.799835 41.472 
" style="fill:none;stroke:#000000;stroke-linecap:square;stroke-linejoin:miter;stroke-width:0.8;"/>
   </g>
   <g id="PathCollection_1">
    <defs>
     <path d="M 0 2.236068 
C 0.593012 2.236068 1.161816 2.000462 1.581139 1.581139 
C 2.000462 1.161816 2.236068 0.593012 2.236068 0 
C 2.236068 -0.593012 2.000462 -1.161816 1.581139 -1.581139 
C 1.161816 -2.000462 0.593012 -2.236068 0 -2.236068 
C -0.593012 -2.236068 -1.161816 -2.000462 -1.581139 -1.581139 
C -2.000462 -1.161816 -2.236068 -0.593012 -2.236068 0 
C -2.236068 0.593012 -2.000462 1.161816 -1.581139 1.581139 
C -1.161816 2.000462 -0.593012 2.236068 0 2.236068 
z
" id="me292f4831d" style="stroke:#000000;"/>
    </defs>
    <g clip-path="url(#p35b8091d61)">
     <use style="stroke:#000000;" x="253.093172" xlink:href="#me292f4831d" y="126.195117"/>
    </g>
   </g>
   <g id="Quiver_1">
    <path clip-path="url(#p35b8091d61)" d="M 252.496482 126.047997 
L 254.114804 119.484408 
L 252.774304 119.786858 
L 256.035575 114.261319 
L 256.354443 120.669579 
L 255.308183 119.778648 
L 253.689862 126.342237 
L 252.496482 126.047997 
"/>
   </g>
  </g>
 </g>
 <defs>
  <clipPath id="p35b8091d61">
   <rect height="266.112" width="307.27967" x="82.520165" y="41.472"/>
  </clipPath>
 </defs>
</svg>
