<?xml version="1.0" encoding="utf-8" standalone="no"?>
<!DOCTYPE svg PUBLIC "-//W3C//DTD SVG 1.1//EN"
  "http://www.w3.org/Graphics/SVG/1.1/DTD/svg11.dtd">
<!-- Created with matplotlib (https://matplotlib.org/) -->
<svg height="345.6pt" version="1.1" viewBox="0 0 460.8 345.6" width="460.8pt" xmlns="http://www.w3.org/2000/svg" xmlns:xlink="http://www.w3.org/1999/xlink">
 <defs>
  <style type="text/css">
*{stroke-linecap:butt;stroke-linejoin:round;}
  </style>
 </defs>
 <g id="figure_1">
  <g id="patch_1">
   <path d="M 0 345.6 
L 460.8 345.6 
L 460.8 0 
L 0 0 
z
" style="fill:#ffffff;"/>
  </g>
  <g id="axes_1">
   <g id="patch_2">
    <path d="M 82.520165 307.584 
L 389.799835 307.584 
L 389.799835 41.472 
L 82.520165 41.472 
z
" style="fill:#ffffff;"/>
   </g>
   <g id="PathCollection_1">
    <defs>
     <path d="M 0 2.236068 
C 0.593012 2.236068 1.161816 2.000462 1.581139 1.581139 
C 2.000462 1.161816 2.236068 0.593012 2.236068 0 
C 2.236068 -0.593012 2.000462 -1.161816 1.581139 -1.581139 
C 1.161816 -2.000462 0.593012 -2.236068 0 -2.236068 
C -0.593012 -2.236068 -1.161816 -2.000462 -1.581139 -1.581139 
C -2.000462 -1.161816 -2.236068 -0.593012 -2.236068 0 
C -2.236068 0.593012 -2.000462 1.161816 -1.581139 1.581139 
C -1.161816 2.000462 -0.593012 2.236068 0 2.236068 
z
" id="m4c144a8502" style="stroke:#000000;"/>
    </defs>
    <g clip-path="url(#pf5150704f1)">
     <use style="stroke:#000000;" x="170.212669" xlink:href="#m4c144a8502" y="66.992128"/>
    </g>
   </g>
   <g id="Quiver_1">
    <path clip-path="url(#pf5150704f1)" d="M 170.804998 66.828328 
L 172.606792 73.34394 
L 173.627649 72.424013 
L 173.488659 78.838695 
L 170.073679 73.40681 
L 171.422135 73.671539 
L 169.620341 67.155927 
L 170.804998 66.828328 
"/>
   </g>
   <g id="patch_3">
    <path clip-path="url(#pf5150704f1)" d="M 236.16 225.741278 
C 249.74192 225.741278 262.769389 220.345124 272.373256 210.741256 
C 281.977124 201.137389 287.373278 188.10992 287.373278 174.528 
C 287.373278 160.94608 281.977124 147.918611 272.373256 138.314744 
C 262.769389 128.710876 249.74192 123.314722 236.16 123.314722 
C 222.57808 123.314722 209.550611 128.710876 199.946744 138.314744 
C 190.342876 147.918611 184.946722 160.94608 184.946722 174.528 
C 184.946722 188.10992 190.342876 201.137389 199.946744 210.741256 
C 209.550611 220.345124 222.57808 225.741278 236.16 225.741278 
z
" style="fill:#009900;fill-opacity:0.5;stroke:#009900;stroke-linejoin:miter;stroke-width:2;"/>
   </g>
   <g id="matplotlib.axis_1">
    <g id="xtick_1">
     <g id="line2d_1">
      <defs>
       <path d="M 0 0 
L 0 3.5 
" id="me3a58a749f" style="stroke:#000000;stroke-width:0.8;"/>
      </defs>
      <g>
       <use style="stroke:#000000;stroke-width:0.8;" x="108.126804" xlink:href="#me3a58a749f" y="307.584"/>
      </g>
     </g>
     <g id="text_1">
      <!-- −2 -->
      <defs>
       <path d="M 10.59375 35.5 
L 73.1875 35.5 
L 73.1875 27.203125 
L 10.59375 27.203125 
z
" id="DejaVuSans-8722"/>
       <path d="M 19.1875 8.296875 
L 53.609375 8.296875 
L 53.609375 0 
L 7.328125 0 
L 7.328125 8.296875 
Q 12.9375 14.109375 22.625 23.890625 
Q 32.328125 33.6875 34.8125 36.53125 
Q 39.546875 41.84375 41.421875 45.53125 
Q 43.3125 49.21875 43.3125 52.78125 
Q 43.3125 58.59375 39.234375 62.25 
Q 35.15625 65.921875 28.609375 65.921875 
Q 23.96875 65.921875 18.8125 64.3125 
Q 13.671875 62.703125 7.8125 59.421875 
L 7.8125 69.390625 
Q 13.765625 71.78125 18.9375 73 
Q 24.125 74.21875 28.421875 74.21875 
Q 39.75 74.21875 46.484375 68.546875 
Q 53.21875 62.890625 53.21875 53.421875 
Q 53.21875 48.921875 51.53125 44.890625 
Q 49.859375 40.875 45.40625 35.40625 
Q 44.1875 33.984375 37.640625 27.21875 
Q 31.109375 20.453125 19.1875 8.296875 
z
" id="DejaVuSans-50"/>
      </defs>
      <g transform="translate(100.755711 322.182437)scale(0.1 -0.1)">
       <use xlink:href="#DejaVuSans-8722"/>
       <use x="83.789062" xlink:href="#DejaVuSans-50"/>
      </g>
     </g>
    </g>
    <g id="xtick_2">
     <g id="line2d_2">
      <g>
       <use style="stroke:#000000;stroke-width:0.8;" x="172.143402" xlink:href="#me3a58a749f" y="307.584"/>
      </g>
     </g>
     <g id="text_2">
      <!-- −1 -->
      <defs>
       <path d="M 12.40625 8.296875 
L 28.515625 8.296875 
L 28.515625 63.921875 
L 10.984375 60.40625 
L 10.984375 69.390625 
L 28.421875 72.90625 
L 38.28125 72.90625 
L 38.28125 8.296875 
L 54.390625 8.296875 
L 54.390625 0 
L 12.40625 0 
z
" id="DejaVuSans-49"/>
      </defs>
      <g transform="translate(164.772308 322.182437)scale(0.1 -0.1)">
       <use xlink:href="#DejaVuSans-8722"/>
       <use x="83.789062" xlink:href="#DejaVuSans-49"/>
      </g>
     </g>
    </g>
    <g id="xtick_3">
     <g id="line2d_3">
      <g>
       <use style="stroke:#000000;stroke-width:0.8;" x="236.16" xlink:href="#me3a58a749f" y="307.584"/>
      </g>
     </g>
     <g id="text_3">
      <!-- 0 -->
      <defs>
       <path d="M 31.78125 66.40625 
Q 24.171875 66.40625 20.328125 58.90625 
Q 16.5 51.421875 16.5 36.375 
Q 16.5 21.390625 20.328125 13.890625 
Q 24.171875 6.390625 31.78125 6.390625 
Q 39.453125 6.390625 43.28125 13.890625 
Q 47.125 21.390625 47.125 36.375 
Q 47.125 51.421875 43.28125 58.90625 
Q 39.453125 66.40625 31.78125 66.40625 
z
M 31.78125 74.21875 
Q 44.046875 74.21875 50.515625 64.515625 
Q 56.984375 54.828125 56.984375 36.375 
Q 56.984375 17.96875 50.515625 8.265625 
Q 44.046875 -1.421875 31.78125 -1.421875 
Q 19.53125 -1.421875 13.0625 8.265625 
Q 6.59375 17.96875 6.59375 36.375 
Q 6.59375 54.828125 13.0625 64.515625 
Q 19.53125 74.21875 31.78125 74.21875 
z
" id="DejaVuSans-48"/>
      </defs>
      <g transform="translate(232.97875 322.182437)scale(0.1 -0.1)">
       <use xlink:href="#DejaVuSans-48"/>
      </g>
     </g>
    </g>
    <g id="xtick_4">
     <g id="line2d_4">
      <g>
       <use style="stroke:#000000;stroke-width:0.8;" x="300.176598" xlink:href="#me3a58a749f" y="307.584"/>
      </g>
     </g>
     <g id="text_4">
      <!-- 1 -->
      <g transform="translate(296.995348 322.182437)scale(0.1 -0.1)">
       <use xlink:href="#DejaVuSans-49"/>
      </g>
     </g>
    </g>
    <g id="xtick_5">
     <g id="line2d_5">
      <g>
       <use style="stroke:#000000;stroke-width:0.8;" x="364.193196" xlink:href="#me3a58a749f" y="307.584"/>
      </g>
     </g>
     <g id="text_5">
      <!-- 2 -->
      <g transform="translate(361.011946 322.182437)scale(0.1 -0.1)">
       <use xlink:href="#DejaVuSans-50"/>
      </g>
     </g>
    </g>
   </g>
   <g id="matplotlib.axis_2">
    <g id="ytick_1">
     <g id="line2d_6">
      <defs>
       <path d="M 0 0 
L -3.5 0 
" id="ma1a6133a90" style="stroke:#000000;stroke-width:0.8;"/>
      </defs>
      <g>
       <use style="stroke:#000000;stroke-width:0.8;" x="82.520165" xlink:href="#ma1a6133a90" y="302.561196"/>
      </g>
     </g>
     <g id="text_6">
      <!-- −2.0 -->
      <defs>
       <path d="M 10.6875 12.40625 
L 21 12.40625 
L 21 0 
L 10.6875 0 
z
" id="DejaVuSans-46"/>
      </defs>
      <g transform="translate(51.237353 306.360414)scale(0.1 -0.1)">
       <use xlink:href="#DejaVuSans-8722"/>
       <use x="83.789062" xlink:href="#DejaVuSans-50"/>
       <use x="147.412109" xlink:href="#DejaVuSans-46"/>
       <use x="179.199219" xlink:href="#DejaVuSans-48"/>
      </g>
     </g>
    </g>
    <g id="ytick_2">
     <g id="line2d_7">
      <g>
       <use style="stroke:#000000;stroke-width:0.8;" x="82.520165" xlink:href="#ma1a6133a90" y="270.552897"/>
      </g>
     </g>
     <g id="text_7">
      <!-- −1.5 -->
      <defs>
       <path d="M 10.796875 72.90625 
L 49.515625 72.90625 
L 49.515625 64.59375 
L 19.828125 64.59375 
L 19.828125 46.734375 
Q 21.96875 47.46875 24.109375 47.828125 
Q 26.265625 48.1875 28.421875 48.1875 
Q 40.625 48.1875 47.75 41.5 
Q 54.890625 34.8125 54.890625 23.390625 
Q 54.890625 11.625 47.5625 5.09375 
Q 40.234375 -1.421875 26.90625 -1.421875 
Q 22.3125 -1.421875 17.546875 -0.640625 
Q 12.796875 0.140625 7.71875 1.703125 
L 7.71875 11.625 
Q 12.109375 9.234375 16.796875 8.0625 
Q 21.484375 6.890625 26.703125 6.890625 
Q 35.15625 6.890625 40.078125 11.328125 
Q 45.015625 15.765625 45.015625 23.390625 
Q 45.015625 31 40.078125 35.4375 
Q 35.15625 39.890625 26.703125 39.890625 
Q 22.75 39.890625 18.8125 39.015625 
Q 14.890625 38.140625 10.796875 36.28125 
z
" id="DejaVuSans-53"/>
      </defs>
      <g transform="translate(51.237353 274.352116)scale(0.1 -0.1)">
       <use xlink:href="#DejaVuSans-8722"/>
       <use x="83.789062" xlink:href="#DejaVuSans-49"/>
       <use x="147.412109" xlink:href="#DejaVuSans-46"/>
       <use x="179.199219" xlink:href="#DejaVuSans-53"/>
      </g>
     </g>
    </g>
    <g id="ytick_3">
     <g id="line2d_8">
      <g>
       <use style="stroke:#000000;stroke-width:0.8;" x="82.520165" xlink:href="#ma1a6133a90" y="238.544598"/>
      </g>
     </g>
     <g id="text_8">
      <!-- −1.0 -->
      <g transform="translate(51.237353 242.343817)scale(0.1 -0.1)">
       <use xlink:href="#DejaVuSans-8722"/>
       <use x="83.789062" xlink:href="#DejaVuSans-49"/>
       <use x="147.412109" xlink:href="#DejaVuSans-46"/>
       <use x="179.199219" xlink:href="#DejaVuSans-48"/>
      </g>
     </g>
    </g>
    <g id="ytick_4">
     <g id="line2d_9">
      <g>
       <use style="stroke:#000000;stroke-width:0.8;" x="82.520165" xlink:href="#ma1a6133a90" y="206.536299"/>
      </g>
     </g>
     <g id="text_9">
      <!-- −0.5 -->
      <g transform="translate(51.237353 210.335518)scale(0.1 -0.1)">
       <use xlink:href="#DejaVuSans-8722"/>
       <use x="83.789062" xlink:href="#DejaVuSans-48"/>
       <use x="147.412109" xlink:href="#DejaVuSans-46"/>
       <use x="179.199219" xlink:href="#DejaVuSans-53"/>
      </g>
     </g>
    </g>
    <g id="ytick_5">
     <g id="line2d_10">
      <g>
       <use style="stroke:#000000;stroke-width:0.8;" x="82.520165" xlink:href="#ma1a6133a90" y="174.528"/>
      </g>
     </g>
     <g id="text_10">
      <!-- 0.0 -->
      <g transform="translate(59.61704 178.327219)scale(0.1 -0.1)">
       <use xlink:href="#DejaVuSans-48"/>
       <use x="63.623047" xlink:href="#DejaVuSans-46"/>
       <use x="95.410156" xlink:href="#DejaVuSans-48"/>
      </g>
     </g>
    </g>
    <g id="ytick_6">
     <g id="line2d_11">
      <g>
       <use style="stroke:#000000;stroke-width:0.8;" x="82.520165" xlink:href="#ma1a6133a90" y="142.519701"/>
      </g>
     </g>
     <g id="text_11">
      <!-- 0.5 -->
      <g transform="translate(59.61704 146.31892)scale(0.1 -0.1)">
       <use xlink:href="#DejaVuSans-48"/>
       <use x="63.623047" xlink:href="#DejaVuSans-46"/>
       <use x="95.410156" xlink:href="#DejaVuSans-53"/>
      </g>
     </g>
    </g>
    <g id="ytick_7">
     <g id="line2d_12">
      <g>
       <use style="stroke:#000000;stroke-width:0.8;" x="82.520165" xlink:href="#ma1a6133a90" y="110.511402"/>
      </g>
     </g>
     <g id="text_12">
      <!-- 1.0 -->
      <g transform="translate(59.61704 114.310621)scale(0.1 -0.1)">
       <use xlink:href="#DejaVuSans-49"/>
       <use x="63.623047" xlink:href="#DejaVuSans-46"/>
       <use x="95.410156" xlink:href="#DejaVuSans-48"/>
      </g>
     </g>
    </g>
    <g id="ytick_8">
     <g id="line2d_13">
      <g>
       <use style="stroke:#000000;stroke-width:0.8;" x="82.520165" xlink:href="#ma1a6133a90" y="78.503103"/>
      </g>
     </g>
     <g id="text_13">
      <!-- 1.5 -->
      <g transform="translate(59.61704 82.302322)scale(0.1 -0.1)">
       <use xlink:href="#DejaVuSans-49"/>
       <use x="63.623047" xlink:href="#DejaVuSans-46"/>
       <use x="95.410156" xlink:href="#DejaVuSans-53"/>
      </g>
     </g>
    </g>
    <g id="ytick_9">
     <g id="line2d_14">
      <g>
       <use style="stroke:#000000;stroke-width:0.8;" x="82.520165" xlink:href="#ma1a6133a90" y="46.494804"/>
      </g>
     </g>
     <g id="text_14">
      <!-- 2.0 -->
      <g transform="translate(59.61704 50.294023)scale(0.1 -0.1)">
       <use xlink:href="#DejaVuSans-50"/>
       <use x="63.623047" xlink:href="#DejaVuSans-46"/>
       <use x="95.410156" xlink:href="#DejaVuSans-48"/>
      </g>
     </g>
    </g>
   </g>
   <g id="line2d_15">
    <path clip-path="url(#pf5150704f1)" d="M 300.176598 63.648 
L 172.143402 63.648 
" style="fill:none;stroke:#009900;stroke-linecap:square;stroke-width:2;"/>
   </g>
   <g id="line2d_16">
    <path clip-path="url(#pf5150704f1)" d="M 172.143402 63.648 
L 108.126804 174.528 
" style="fill:none;stroke:#009900;stroke-linecap:square;stroke-width:2;"/>
   </g>
   <g id="line2d_17">
    <path clip-path="url(#pf5150704f1)" d="M 108.126804 174.528 
L 172.143402 285.408 
" style="fill:none;stroke:#009900;stroke-linecap:square;stroke-width:2;"/>
   </g>
   <g id="line2d_18">
    <path clip-path="url(#pf5150704f1)" d="M 172.143402 285.408 
L 300.176598 285.408 
" style="fill:none;stroke:#009900;stroke-linecap:square;stroke-width:2;"/>
   </g>
   <g id="line2d_19">
    <path clip-path="url(#pf5150704f1)" d="M 300.176598 285.408 
L 364.193196 174.528 
" style="fill:none;stroke:#009900;stroke-linecap:square;stroke-width:2;"/>
   </g>
   <g id="line2d_20">
    <path clip-path="url(#pf5150704f1)" d="M 364.193196 174.528 
L 300.176598 63.648 
" style="fill:none;stroke:#009900;stroke-linecap:square;stroke-width:2;"/>
   </g>
   <g id="line2d_21">
    <path clip-path="url(#pf5150704f1)" d="M 125.681141 145.513292 
L 126.166234 150.611251 
L 126.854803 155.685734 
L 127.745747 160.728622 
L 128.83764 165.731848 
L 130.128735 170.687408 
L 131.616967 175.587375 
L 133.299955 180.423908 
L 135.175006 185.189271 
L 137.239121 189.87584 
L 139.488998 194.476118 
L 141.921038 198.982745 
L 144.531349 203.388511 
L 147.315755 207.686369 
L 150.269803 211.869442 
L 153.388766 215.931039 
L 156.667655 219.864662 
L 160.101225 223.664018 
L 163.683981 227.323028 
L 167.410193 230.83584 
L 171.2739 234.196833 
L 175.268919 237.400631 
L 179.388861 240.442107 
L 183.627134 243.316397 
L 187.976958 246.018903 
L 192.431374 248.5453 
L 196.983255 250.891547 
L 201.625321 253.05389 
L 206.350144 255.028871 
L 211.150166 256.81333 
L 216.017708 258.404411 
L 220.944982 259.79957 
L 225.924107 260.996575 
L 230.947116 261.99351 
L 236.005974 262.788781 
L 241.092588 263.381115 
L 246.19882 263.769566 
L 251.316502 263.953511 
L 256.437446 263.932656 
L 261.55346 263.707034 
L 266.656359 263.277007 
L 271.737979 262.643263 
L 276.790192 261.806815 
L 281.804915 260.769001 
L 286.774125 259.531482 
L 291.689873 258.096237 
L 296.544294 256.465563 
L 301.329623 254.642069 
L 306.038203 252.62867 
L 310.662503 250.42859 
L 315.195123 248.045346 
L 319.628814 245.482753 
L 323.956482 242.744908 
L 325.345988 241.813338 
L 325.620033 236.69969 
L 325.689368 231.579173 
L 325.553882 226.459979 
L 325.213791 221.350298 
L 324.669639 216.258304 
L 323.922297 211.192144 
L 322.97296 206.159921 
L 321.823147 201.169688 
L 320.474698 196.229426 
L 318.92977 191.347039 
L 317.190835 186.530339 
L 315.260673 181.78703 
L 313.142374 177.124701 
L 310.839326 172.550811 
L 308.355213 168.072677 
L 305.694009 163.697463 
L 302.859973 159.432168 
L 299.857637 155.283617 
L 296.691804 151.258445 
L 293.36754 147.363092 
L 289.890163 143.603791 
L 286.265235 139.986554 
L 282.498556 136.51717 
L 278.596151 133.201187 
L 274.564264 130.043912 
L 270.409345 127.050394 
L 266.13804 124.225423 
L 261.757184 121.573519 
L 257.273783 119.098924 
L 252.695012 116.805596 
L 248.028194 114.697204 
L 243.280796 112.777122 
L 238.460413 111.048421 
L 233.574756 109.513867 
L 228.631641 108.175915 
L 223.638976 107.036704 
L 218.604749 106.098058 
L 213.537012 105.361479 
L 208.443874 104.828143 
L 203.333482 104.498906 
L 198.214012 104.374293 
L 193.093654 104.454505 
L 187.980599 104.739411 
L 182.883027 105.228558 
L 177.809094 105.921161 
L 172.766916 106.816114 
L 167.764559 107.911985 
L 162.810027 109.207019 
L 157.911246 110.699147 
L 153.076052 112.385979 
L 148.312182 114.264819 
L 143.627255 116.33266 
L 140.998188 117.593093 
L 141.433776 122.69552 
L 142.073058 127.776447 
L 142.915012 132.827745 
L 143.95829 137.841334 
L 145.201224 142.809193 
L 146.641825 147.723373 
L 148.277788 152.576014 
L 150.106497 157.359353 
L 152.125025 162.065736 
L 154.330144 166.687635 
L 156.718326 171.217656 
L 159.28575 175.648552 
L 162.028309 179.973234 
L 164.941615 184.184783 
L 168.021008 188.276463 
L 171.261561 192.241726 
L 174.658091 196.074231 
L 178.205163 199.767844 
L 181.897102 203.316659 
L 185.728004 206.714996 
L 189.691738 209.95742 
L 193.781964 213.038743 
L 197.992138 215.954036 
L 202.315526 218.698635 
L 206.74521 221.268149 
L 211.274103 223.658468 
L 215.894962 225.865767 
L 220.600392 227.886516 
L 225.382867 229.717481 
L 230.234736 231.355734 
L 235.148236 232.798653 
L 240.115508 234.043931 
L 245.128604 235.089574 
L 250.179504 235.933911 
L 255.260129 236.57559 
L 260.362351 237.013585 
L 265.478006 237.247196 
L 270.598911 237.276048 
L 275.716874 237.100095 
L 280.823706 236.719619 
L 285.911239 236.135228 
L 290.971333 235.347858 
L 295.995893 234.358768 
L 300.976881 233.16954 
L 305.906328 231.782077 
L 310.776348 230.198599 
L 315.579151 228.421639 
L 320.307052 226.454038 
L 324.952489 224.298947 
L 329.508029 221.959811 
L 333.966384 219.440373 
L 338.320423 216.744664 
L 340.749976 215.132847 
L 341.024022 210.019198 
L 341.093357 204.898681 
L 340.957871 199.779488 
L 340.61778 194.669807 
L 340.073628 189.577813 
L 339.326285 184.511652 
L 338.376949 179.47943 
L 337.227136 174.489196 
L 335.878687 169.548934 
L 334.333759 164.666548 
L 332.594823 159.849847 
L 330.664662 155.106538 
L 328.546363 150.44421 
L 326.243315 145.870319 
L 323.759202 141.392185 
L 321.097998 137.016971 
L 318.263961 132.751677 
L 315.261625 128.603125 
L 312.095793 124.577953 
L 308.771529 120.682601 
L 305.294152 116.923299 
L 301.669224 113.306063 
L 297.902545 109.836678 
L 294.00014 106.520696 
L 289.968253 103.36342 
L 285.813334 100.369903 
L 281.542029 97.544932 
L 277.161172 94.893028 
L 272.677772 92.418432 
L 268.099001 90.125104 
L 263.432183 88.016713 
L 258.684785 86.096631 
L 253.864402 84.36793 
L 248.978745 82.833376 
L 244.03563 81.495423 
L 239.042965 80.356213 
L 234.008737 79.417567 
L 228.941001 78.680987 
L 223.847863 78.147652 
L 218.737471 77.818415 
L 213.618001 77.693802 
L 208.497643 77.774013 
L 203.384588 78.05892 
L 198.287016 78.548066 
L 193.213083 79.24067 
L 188.170905 80.135623 
L 183.168548 81.231493 
L 178.214016 82.526528 
L 173.315235 84.018655 
L 168.480041 85.705488 
L 163.716171 87.584328 
L 159.031244 89.652168 
L 156.402177 90.912601 
L 156.837765 96.015028 
L 157.477047 101.095956 
L 158.319001 106.147254 
L 159.362279 111.160843 
L 160.605213 116.128701 
L 162.045814 121.042882 
L 163.681777 125.895523 
L 165.510486 130.678861 
L 167.529014 135.385245 
L 169.734133 140.007144 
L 172.122315 144.537165 
L 174.689739 148.968061 
L 177.432297 153.292742 
L 180.345604 157.504292 
L 183.424997 161.595971 
L 185.906261 164.660803 
L 181.429646 167.147653 
L 177.056059 169.81153 
L 172.792497 172.648173 
L 168.645781 175.653044 
L 164.622545 178.821336 
L 160.729225 182.14798 
L 156.97205 185.627654 
L 153.357029 189.254792 
L 149.889948 193.023591 
L 146.576351 196.928022 
L 143.42154 200.961838 
L 140.430562 205.118586 
L 137.608203 209.391616 
L 134.958977 213.774093 
L 132.911988 217.457197 
L 138.032555 217.522674 
L 143.151646 217.383331 
L 148.261069 217.03939 
L 153.352651 216.491402 
L 158.418247 215.740244 
L 163.449753 214.787116 
L 168.439119 213.633544 
L 173.378364 212.281374 
L 178.259585 210.732768 
L 183.074974 208.990204 
L 187.816827 207.05647 
L 192.477559 204.934659 
L 194.305122 204.040186 
L 190.683268 207.660499 
L 187.209084 211.422752 
L 183.888129 215.320926 
L 180.725715 219.348784 
L 177.726903 223.499884 
L 174.896489 227.767584 
L 172.239002 232.145056 
L 169.758693 236.625298 
L 167.459529 241.201142 
L 165.34519 245.865268 
L 163.419057 250.610214 
L 161.684212 255.428389 
L 160.14343 260.312086 
L 159.328737 263.212348 
L 164.301092 264.437167 
L 169.31845 265.462165 
L 174.372784 266.285702 
L 179.456008 266.906461 
L 184.559989 267.323448 
L 189.676562 267.535998 
L 194.797543 267.543768 
L 199.914738 267.346749 
L 205.019961 266.945253 
L 210.105045 266.339924 
L 215.161854 265.53173 
L 220.1823 264.521964 
L 225.15835 263.312242 
L 230.082044 261.904498 
L 234.945504 260.300986 
L 239.740951 258.504269 
L 244.460713 256.517222 
L 249.097238 254.343025 
L 253.643111 251.985156 
L 258.091057 249.447386 
L 262.433962 246.733776 
L 266.664877 243.848666 
L 270.777034 240.796673 
L 274.763855 237.582679 
L 278.618962 234.211825 
L 282.336186 230.689504 
L 285.909582 227.021352 
L 289.333433 223.213236 
L 292.602261 219.271248 
L 295.710837 215.201695 
L 298.654187 211.011088 
L 301.427604 206.70613 
L 304.026649 202.293709 
L 306.447166 197.780883 
L 308.685282 193.174871 
L 310.737417 188.483044 
L 312.600286 183.712906 
L 314.270911 178.872088 
L 315.746619 173.968336 
L 317.025048 169.009493 
L 318.104154 164.003493 
L 318.982211 158.958345 
L 319.657812 153.88212 
L 320.129879 148.782938 
L 320.397655 143.668957 
L 320.460712 138.548359 
L 320.318949 133.429335 
L 319.972594 128.320075 
L 319.422199 123.228752 
L 318.668646 118.163512 
L 317.713141 113.132457 
L 316.557211 108.143637 
L 315.202706 103.205032 
L 313.651793 98.324543 
L 311.906953 93.509978 
L 309.970978 88.76904 
L 307.846964 84.109311 
L 305.53831 79.538248 
L 303.048709 75.063163 
L 300.382143 70.691215 
L 297.542879 66.429398 
L 295.552833 63.648 
L 292.600751 67.832461 
L 289.818364 72.131627 
L 287.210123 76.538619 
L 284.780202 81.046388 
L 282.532487 85.647723 
L 280.470574 90.335261 
L 278.597762 95.101505 
L 276.917047 99.938828 
L 275.431118 104.839493 
L 274.142351 109.795659 
L 273.052809 114.799398 
L 272.164235 119.842704 
L 271.478051 124.91751 
L 270.995353 130.015696 
L 270.716914 135.129107 
L 270.672715 136.690554 
L 275.747767 136.006188 
L 280.791391 135.119423 
L 285.79552 134.031675 
L 290.752148 132.744686 
L 295.653346 131.260514 
L 300.491271 129.581533 
L 305.258186 127.71043 
L 309.946464 125.650198 
L 314.548604 123.404133 
L 319.057244 120.975828 
L 323.465171 118.369168 
L 327.765334 115.588323 
L 329.482803 114.407836 
L 324.887059 116.666959 
L 320.385331 119.108056 
L 315.984823 121.727221 
L 311.692573 124.520264 
L 307.515448 127.482717 
L 303.460131 130.609842 
L 299.533109 133.896634 
L 295.740665 137.337836 
L 292.088867 140.927943 
L 288.583555 144.661211 
L 285.230338 148.531668 
L 282.265528 152.232705 
L 287.386392 152.197286 
L 292.501743 151.957116 
L 297.603398 151.512578 
L 302.683196 150.864384 
L 307.73301 150.013571 
L 312.744761 148.9615 
L 317.710431 147.709853 
L 322.622077 146.260634 
L 327.471841 144.616161 
L 332.251964 142.779064 
L 336.9548 140.752283 
L 341.572824 138.53906 
L 342.994707 137.81114 
L 342.455856 138.156758 
L 338.208628 141.017799 
L 334.079208 144.046395 
L 330.074203 147.237701 
L 326.20002 150.586612 
L 322.462856 154.087771 
L 318.868691 157.735575 
L 315.423274 161.52419 
L 312.132117 165.447555 
L 309.000486 169.499392 
L 306.033389 173.67322 
L 303.235575 177.962362 
L 300.611518 182.359955 
L 298.165418 186.858966 
L 295.901186 191.452195 
L 293.822446 196.132296 
L 291.932522 200.89178 
L 290.234439 205.723034 
L 288.730913 210.618329 
L 287.424349 215.569833 
L 286.316837 220.569625 
L 285.41015 225.609706 
L 284.705738 230.682014 
L 284.204727 235.778433 
L 283.907919 240.890811 
L 283.815789 246.010968 
L 283.928485 251.130715 
L 284.245826 256.241859 
L 284.767304 261.336225 
L 285.492086 266.405662 
L 286.419011 271.442061 
L 287.546597 276.437364 
L 288.873039 281.38358 
L 290.111117 285.408 
L 291.599484 280.508075 
L 292.890716 275.55255 
L 293.982747 270.549354 
L 294.87383 265.506491 
L 295.562539 260.432027 
L 296.047773 255.334082 
L 296.328755 250.22081 
L 296.405036 245.100391 
L 296.276494 239.981018 
L 295.943335 234.870881 
L 295.406091 229.778153 
L 294.665622 224.710984 
L 293.723113 219.677478 
L 292.580071 214.685689 
L 291.238325 209.743603 
L 289.700021 204.859125 
L 287.967621 200.04007 
L 286.043896 195.294147 
L 284.420767 191.665628 
L 288.981329 189.336299 
L 293.445095 186.82646 
L 297.804924 184.140126 
L 302.053841 181.281593 
L 306.185048 178.255436 
L 310.191937 175.066495 
L 314.068097 171.719872 
L 317.807327 168.220921 
L 321.403646 164.575239 
L 324.8513 160.788659 
L 328.144773 156.867239 
L 331.278796 152.817252 
L 334.248357 148.645176 
L 337.048703 144.357687 
L 339.675356 139.961644 
L 341.894235 135.905068 
L 336.774392 135.796857 
L 331.654317 135.893471 
L 326.542202 136.194757 
L 321.446223 136.700231 
L 316.374534 137.409086 
L 311.335249 138.320188 
L 306.336429 139.432078 
L 301.386071 140.742979 
L 296.492095 142.250792 
L 291.662331 143.953107 
L 286.904504 145.847198 
L 282.226226 147.930037 
L 280.434727 148.787984 
L 280.962595 148.425814 
L 285.119013 145.434378 
L 289.152481 142.279122 
L 293.056545 138.965094 
L 296.824961 135.497596 
L 300.4517 131.882175 
L 303.93096 128.124616 
L 307.257174 124.230928 
L 310.425022 120.207342 
L 313.429435 116.060295 
L 316.265607 111.79642 
L 318.929001 107.422539 
L 321.415356 102.94565 
L 322.103788 101.627007 
L 316.984845 101.482326 
L 311.864212 101.542465 
L 306.75008 101.807326 
L 301.65063 102.276486 
L 296.57402 102.949194 
L 291.528372 103.824374 
L 286.521758 104.900626 
L 281.562188 106.176229 
L 276.657595 107.649141 
L 271.815826 109.317007 
L 267.044627 111.177157 
L 262.35163 113.226617 
L 257.744344 115.462107 
L 253.230139 117.880051 
L 248.816237 120.476581 
L 244.509699 123.247544 
L 243.607934 123.859192 
L 240.314205 119.937986 
L 236.866305 116.151632 
L 233.269748 112.506185 
L 229.530289 109.007478 
L 225.653911 105.661108 
L 221.646814 102.472428 
L 217.515409 99.446541 
L 213.266306 96.588286 
L 208.906302 93.902236 
L 204.442371 91.392688 
L 199.881657 89.063657 
L 195.231454 86.918869 
L 190.499202 84.961755 
L 185.692472 83.195447 
L 180.818953 81.622769 
L 175.886442 80.246238 
L 170.90283 79.068056 
L 165.87609 78.090107 
L 163.986532 77.776113 
L 167.288643 81.690262 
L 170.744637 85.469231 
L 174.348985 89.106975 
L 178.095921 92.597673 
L 181.979451 95.935741 
L 185.993361 99.11584 
L 190.13123 102.132881 
L 194.386439 104.982039 
L 198.752181 107.658754 
L 203.22147 110.158745 
L 207.787157 112.478013 
L 212.441938 114.612846 
L 217.178367 116.559831 
L 221.988865 118.315851 
L 226.865738 119.878098 
L 231.801182 121.244072 
L 236.787304 122.411589 
L 241.816125 123.37878 
L 246.879601 124.144099 
L 251.969631 124.70632 
L 257.078073 125.064544 
L 262.196754 125.218199 
L 267.317485 125.167038 
L 272.432074 124.911144 
L 277.532338 124.450925 
L 282.61012 123.787118 
L 287.657294 122.920785 
L 292.665787 121.853312 
L 297.627586 120.586407 
L 302.534754 119.122095 
L 307.37944 117.462721 
L 312.153893 115.610938 
L 316.850475 113.56971 
L 321.461674 111.342301 
L 326.237983 108.787643 
L 324.04819 110.114892 
L 319.750413 112.899423 
L 315.567425 115.853592 
L 311.505918 118.972672 
L 307.57239 122.251675 
L 303.773134 125.685354 
L 300.114227 129.268216 
L 296.601523 132.99453 
L 293.240642 136.858334 
L 290.03696 140.853446 
L 286.995602 144.973476 
L 284.121434 149.211832 
L 282.245064 152.190437 
L 287.340608 152.700276 
L 292.452464 153.005939 
L 297.572455 153.106937 
L 302.692388 153.00311 
L 307.804075 152.694624 
L 312.899336 152.181971 
L 317.970021 151.465972 
L 323.008018 150.547772 
L 328.005267 149.428841 
L 332.953773 148.110968 
L 337.84562 146.596262 
L 342.672982 144.887146 
L 346.263278 143.472472 
L 342.270991 146.679673 
L 338.410151 150.043959 
L 334.686934 153.559945 
L 331.107298 157.222009 
L 327.676969 161.02429 
L 324.401434 164.960706 
L 321.285934 169.02496 
L 318.335453 173.21055 
L 315.554711 177.51078 
L 312.948156 181.91877 
L 310.519959 186.427468 
L 308.274005 191.029662 
L 306.213885 195.717989 
L 304.342896 200.484949 
L 302.664032 205.322915 
L 301.179977 210.224148 
L 299.893107 215.180806 
L 298.805479 220.184961 
L 297.918834 225.228607 
L 297.234591 230.303675 
L 296.753843 235.402046 
L 296.477361 240.515563 
L 296.405585 245.636046 
L 296.538632 250.755304 
L 296.876288 255.865147 
L 297.418013 260.957399 
L 298.162941 266.023915 
L 299.10988 271.056589 
L 300.257314 276.04737 
L 301.603408 280.988274 
L 301.987837 282.270842 
L 297.022468 283.523684 
L 292.111171 284.974086 
L 290.768907 285.408 
L 285.873889 283.903575 
L 280.922625 282.596101 
L 275.923037 281.487671 
L 270.883122 280.580058 
L 265.810944 279.874713 
L 260.714617 279.372766 
L 255.602293 279.075019 
L 250.482153 278.981949 
L 245.362386 279.093704 
L 240.251183 279.410106 
L 235.156722 279.930649 
L 230.087152 280.654499 
L 225.050583 281.580498 
L 220.055073 282.707167 
L 215.108613 284.032701 
L 210.662644 285.408 
L 205.767626 283.903575 
L 200.816362 282.596101 
L 195.816773 281.487671 
L 190.776859 280.580058 
L 185.70468 279.874713 
L 180.608353 279.372766 
L 175.49603 279.075019 
L 170.375889 278.981949 
L 168.443773 279.000055 
L 170.990578 274.557275 
L 173.357682 270.016205 
L 175.541298 265.384108 
L 177.537933 260.668395 
L 179.344393 255.87661 
L 180.957788 251.016418 
L 182.375536 246.095596 
L 183.595369 241.122015 
L 184.615337 236.103632 
L 185.433807 231.048476 
L 186.04947 225.964632 
L 186.461341 220.860236 
L 186.668761 215.743452 
L 186.671399 210.622466 
L 186.469249 205.505471 
L 186.062636 200.400653 
L 185.45221 195.316178 
L 184.638948 190.260181 
L 183.62415 185.240751 
L 182.40944 180.265916 
L 180.996762 175.343636 
L 179.388374 170.481785 
L 177.586852 165.688141 
L 175.595075 160.970374 
L 173.416231 156.33603 
L 171.053806 151.792524 
L 168.511579 147.347124 
L 165.793617 143.006942 
L 162.904267 138.77892 
L 159.848154 134.669824 
L 156.630164 130.686227 
L 153.255448 126.834502 
L 149.729403 123.12081 
L 146.05767 119.551093 
L 141.976214 115.899103 
L 146.83938 117.503507 
L 151.762816 118.912153 
L 156.738644 120.122788 
L 161.758905 121.133474 
L 166.815566 121.942594 
L 171.900539 122.548855 
L 177.005689 122.951287 
L 182.122847 123.149245 
L 187.243829 123.142412 
L 192.360442 122.930801 
L 197.464499 122.514749 
L 202.547836 121.894922 
L 207.602321 121.072311 
L 212.619866 120.048233 
L 217.592447 118.824326 
L 222.512106 117.402548 
L 227.370974 115.785172 
L 232.161278 113.974788 
L 236.875354 111.974291 
L 241.505661 109.786881 
L 246.044791 107.416058 
L 250.485482 104.865615 
L 254.820631 102.139632 
L 259.043302 99.242469 
L 263.14674 96.178762 
L 267.124379 92.953412 
L 270.969858 89.571578 
L 274.677023 86.038672 
L 278.239944 82.360344 
L 281.652922 78.54248 
L 284.910495 74.591187 
L 288.007454 70.512786 
L 290.938842 66.313803 
L 292.674136 63.648 
L 295.500309 67.918509 
L 298.494996 72.072586 
L 301.653406 76.103584 
L 304.970487 80.005055 
L 308.440932 83.770757 
L 312.059189 87.394666 
L 315.971747 91.006001 
L 317.094247 96.002449 
L 318.415653 100.950013 
L 319.933853 105.840777 
L 321.646416 110.666917 
L 323.550604 115.420713 
L 325.643369 120.094558 
L 327.921365 124.680977 
L 330.380946 129.172632 
L 333.018178 133.562337 
L 335.828842 137.843069 
L 338.808442 142.007981 
L 341.95221 146.050409 
L 345.255117 149.963886 
L 348.71188 153.742152 
L 352.316968 157.379162 
L 356.064614 160.869098 
L 356.563582 161.313121 
L 357.686081 166.309569 
L 359.007488 171.257133 
L 360.525687 176.147897 
L 361.549756 179.106573 
L 356.528978 180.114689 
L 351.552531 181.322777 
L 346.628376 182.728903 
L 341.764388 184.330818 
L 336.968352 186.12596 
L 332.247938 188.111456 
L 327.610698 190.284129 
L 323.064052 192.640505 
L 318.615272 195.176814 
L 314.271476 197.888998 
L 310.039613 200.772717 
L 305.926454 203.823359 
L 301.938577 207.036044 
L 298.082363 210.405631 
L 294.363982 213.926731 
L 290.789381 217.593709 
L 287.36428 221.400701 
L 284.094157 225.341614 
L 280.984245 229.410146 
L 278.039518 233.599786 
L 275.264688 237.903832 
L 272.664193 242.3154 
L 270.242193 246.827431 
L 268.002565 251.432706 
L 265.948889 256.12386 
L 264.084453 260.893386 
L 262.412238 265.733654 
L 260.934919 270.636922 
L 259.654861 275.595344 
L 258.574111 280.600989 
L 257.731216 285.408 
L 256.842021 280.364803 
L 255.751863 275.361199 
L 254.462486 270.405192 
L 252.975953 265.50471 
L 251.294642 260.667593 
L 249.421243 255.901581 
L 247.358752 251.214296 
L 245.11047 246.613239 
L 242.679993 242.105769 
L 240.07121 237.699098 
L 237.288293 233.400275 
L 234.335696 229.216178 
L 231.518451 225.530509 
L 227.731679 228.977951 
L 224.085797 232.574066 
L 220.586637 236.313102 
L 217.239798 240.189075 
L 214.050634 244.195786 
L 211.024246 248.326825 
L 208.165477 252.575582 
L 205.478899 256.935261 
L 202.968811 261.398887 
L 200.639228 265.95932 
L 198.493878 270.609263 
L 196.536191 275.341278 
L 194.7693 280.147794 
L 193.080292 285.408 
L 191.522402 280.529734 
L 189.77068 275.717668 
L 187.827928 270.979502 
L 185.697254 266.322816 
L 183.382067 261.755058 
L 180.886069 257.283537 
L 178.213255 252.915407 
L 175.367901 248.657654 
L 172.354558 244.51709 
L 169.178046 240.500341 
L 165.843449 236.613831 
L 162.3561 232.863778 
L 158.721578 229.256181 
L 154.945698 225.796812 
L 151.0345 222.491206 
L 146.994242 219.344649 
L 142.831387 216.362177 
L 138.552595 213.54856 
L 134.164711 210.9083 
L 129.674754 208.44562 
L 126.894882 207.035265 
L 127.131724 201.919758 
L 127.16381 196.798872 
L 126.99109 191.680799 
L 126.61384 186.573727 
L 126.032663 181.485826 
L 125.248489 176.425236 
L 124.262572 171.400053 
L 123.076491 166.418315 
L 121.692142 161.487992 
L 120.11174 156.616973 
L 119.485873 154.853517 
L 124.509557 153.859989 
L 129.489492 152.666362 
L 134.417712 151.274546 
L 139.286332 149.686767 
L 144.087563 147.905565 
L 148.813725 145.93379 
L 153.457256 143.774596 
L 158.010728 141.431437 
L 162.466857 138.908062 
L 166.818513 136.208509 
L 171.058735 133.337094 
L 175.180739 130.298413 
L 179.177931 127.097326 
L 183.043917 123.738955 
L 186.772511 120.228672 
L 190.357749 116.572093 
L 193.793894 112.775067 
L 197.075451 108.843669 
L 200.197169 104.784189 
L 203.154054 100.603121 
L 205.941375 96.307153 
L 208.554675 91.903158 
L 210.98977 87.398182 
L 213.242768 82.799431 
L 215.310061 78.114263 
L 217.188345 73.350174 
L 218.874613 68.514783 
L 220.357068 63.648 
L 221.849903 68.546566 
L 223.537434 73.381516 
L 225.416962 78.145115 
L 227.485479 82.829743 
L 229.739677 87.427905 
L 232.175949 91.932245 
L 234.790398 96.335557 
L 237.578841 100.630797 
L 240.536818 104.811093 
L 243.659596 108.869758 
L 246.942179 112.800298 
L 250.379316 116.596427 
L 253.965509 120.25207 
L 257.69502 123.761379 
L 261.561882 127.11874 
L 265.55991 130.318783 
L 269.682708 133.356388 
L 273.923679 136.226695 
L 278.27604 138.925112 
L 282.732827 141.447323 
L 287.286911 143.789293 
L 291.931006 145.947274 
L 296.657683 147.917815 
L 301.459379 149.697763 
L 306.328413 151.284271 
L 311.256996 152.6748 
L 316.237243 153.867126 
L 321.261187 154.859342 
L 326.32079 155.64986 
L 331.407958 156.237415 
L 336.514553 156.621068 
L 341.632406 156.800205 
L 346.753328 156.774539 
L 351.869127 156.544111 
L 353.732276 156.409156 
L 350.912156 160.683665 
L 348.265226 165.067529 
L 345.795721 169.553735 
L 343.507592 174.135107 
L 341.404499 178.804315 
L 339.489806 183.553889 
L 337.766578 188.376231 
L 336.23757 193.263627 
L 334.905229 198.208257 
L 333.771687 203.202212 
L 332.838756 208.237501 
L 332.107929 213.306071 
L 331.580375 218.399811 
L 331.256938 223.510573 
L 331.138137 228.630181 
L 331.165808 231.733114 
L 326.728253 234.289012 
L 322.396457 237.020321 
L 318.177349 239.92267 
L 314.077679 242.991417 
L 310.104006 246.221652 
L 306.262686 249.608208 
L 302.559864 253.145667 
L 299.001466 256.82837 
L 295.593182 260.650425 
L 292.340466 264.605717 
L 289.248521 268.68792 
L 286.322294 272.890503 
L 283.566467 277.206741 
L 280.985447 281.629731 
L 278.962895 285.408 
L 276.531347 280.901107 
L 273.921518 276.495056 
L 271.13758 272.196894 
L 268.183989 268.013498 
L 265.065469 263.951561 
L 261.78701 260.01758 
L 258.353856 256.217849 
L 254.771499 252.558447 
L 251.045671 249.045229 
L 247.182331 245.683814 
L 243.187661 242.47958 
L 239.068052 239.437653 
L 234.830092 236.5629 
L 230.480564 233.85992 
L 226.026424 231.333037 
L 221.474798 228.986293 
L 216.832969 226.823442 
L 212.108362 224.847945 
L 207.308535 223.062963 
L 202.441167 221.47135 
L 197.514045 220.075652 
L 192.535051 218.878104 
L 187.512151 217.88062 
L 182.45338 217.084797 
L 177.36683 216.491907 
L 172.26064 216.102899 
L 167.142979 215.918395 
L 162.022033 215.938691 
L 156.905994 216.163754 
L 151.803048 216.593223 
L 146.721358 217.226413 
L 141.669054 218.062309 
L 136.654218 219.099575 
L 134.197981 219.684603 
L 137.678452 215.928165 
L 141.005922 212.035551 
L 144.175066 208.012986 
L 147.180816 203.866908 
L 150.018363 199.603948 
L 152.683168 195.230926 
L 155.170966 190.754838 
L 157.477779 186.182845 
L 159.599915 181.522262 
L 161.533981 176.780544 
L 163.276881 171.965276 
L 164.825828 167.084163 
L 166.178343 162.145013 
L 167.332263 157.155727 
L 168.285742 152.124288 
L 169.037254 147.058745 
L 169.585598 141.967201 
L 169.929895 136.857801 
L 170.069596 131.738721 
L 170.004476 126.618148 
L 169.73464 121.504276 
L 169.260519 116.405285 
L 168.582872 111.329332 
L 167.702784 106.284538 
L 166.621661 101.278974 
L 165.341235 96.320646 
L 163.863552 91.417489 
L 162.190977 86.577345 
L 160.877609 83.160927 
L 165.931302 82.333467 
L 170.947863 81.304576 
L 175.919266 80.075899 
L 180.837559 78.649402 
L 185.694874 77.027366 
L 190.483439 75.212387 
L 195.195593 73.207368 
L 199.823799 71.015517 
L 204.360653 68.640341 
L 208.798895 66.085639 
L 212.685177 63.648 
L 217.029049 66.360062 
L 221.4779 68.896246 
L 226.024612 71.252495 
L 230.661912 73.425039 
L 235.382382 75.410403 
L 240.178469 77.20541 
L 245.042501 78.807189 
L 249.966696 80.213178 
L 254.943177 81.421126 
L 259.963982 82.429102 
L 265.021079 83.235494 
L 270.106379 83.83901 
L 275.211745 84.238685 
L 280.32901 84.433881 
L 285.449987 84.424285 
L 290.566485 84.209912 
L 295.670317 83.791105 
L 300.753318 83.168534 
L 305.807358 82.343196 
L 310.42862 81.405023 
L 307.043054 85.247215 
L 303.813842 89.221721 
L 300.746151 93.322181 
L 297.844889 97.542037 
L 295.114697 101.874536 
L 292.559942 106.312749 
L 290.184712 110.849574 
L 287.992807 115.477754 
L 285.987733 120.189886 
L 284.172697 124.978429 
L 282.550604 129.835724 
L 281.124049 134.754 
L 279.895313 139.72539 
L 278.866363 144.741938 
L 278.651402 145.939879 
L 283.67679 146.924752 
L 288.737543 147.707874 
L 293.825565 148.287994 
L 298.932715 148.664184 
L 304.050824 148.83584 
L 309.171703 148.80269 
L 314.28716 148.564786 
L 319.389012 148.122508 
L 324.469096 147.476565 
L 329.519287 146.627989 
L 334.531503 145.578138 
L 339.497728 144.328691 
L 344.410015 142.881648 
L 345.684987 142.470842 
L 341.938932 145.962486 
L 338.335502 149.601139 
L 334.880462 153.38098 
L 331.579339 157.295962 
L 328.437414 161.339823 
L 325.459713 165.506092 
L 322.651 169.788105 
L 320.015769 174.179012 
L 317.558236 178.671787 
L 315.282331 183.259244 
L 313.191696 187.934043 
L 311.289675 192.688706 
L 309.579312 197.515626 
L 308.063342 202.407081 
L 306.744191 207.355247 
L 305.623969 212.352206 
L 304.704467 217.389966 
L 303.987159 222.460466 
L 303.473189 227.555595 
L 303.163382 232.667201 
L 303.058232 237.787108 
L 303.157908 242.907124 
L 303.46225 248.019059 
L 303.970772 253.114734 
L 304.68266 258.185998 
L 305.596774 263.224738 
L 306.711654 268.222892 
L 307.767406 272.260335 
L 302.834054 273.633848 
L 297.959574 275.203545 
L 293.151764 276.966913 
L 288.418316 278.921131 
L 283.766802 281.063074 
L 279.204663 283.389314 
L 275.576615 285.408 
L 271.0923 282.935062 
L 266.512682 280.643426 
L 261.845085 278.536759 
L 257.096978 276.618432 
L 252.275956 274.891513 
L 247.389732 273.358764 
L 242.446123 272.022639 
L 237.453038 270.885274 
L 232.418464 269.948488 
L 227.350455 269.213782 
L 222.257121 268.682329 
L 217.146607 268.35498 
L 212.027092 268.23226 
L 206.906763 268.314363 
L 201.793814 268.601159 
L 196.696424 269.09219 
L 191.622746 269.786669 
L 186.580899 270.683485 
L 181.578948 271.781204 
L 176.624895 273.07807 
L 171.726666 274.572007 
L 166.867456 276.269793 
L 170.747814 272.928039 
L 174.491435 269.433785 
L 178.092328 265.792622 
L 181.544732 262.010373 
L 184.843126 258.093091 
L 187.982232 254.047042 
L 190.957028 249.878698 
L 193.762755 245.594728 
L 196.394925 241.201986 
L 198.849327 236.707499 
L 201.122033 232.118457 
L 203.20941 227.442202 
L 205.108116 222.686214 
L 206.815114 217.858103 
L 207.176347 216.750598 
L 203.25429 220.043313 
L 199.467044 223.490234 
L 195.820668 227.085848 
L 192.320994 230.824402 
L 188.973622 234.699915 
L 185.783907 238.706188 
L 182.756951 242.83681 
L 179.897598 247.085174 
L 177.21042 251.444484 
L 174.699719 255.907765 
L 172.369509 260.467877 
L 170.223519 265.117526 
L 168.265181 269.849271 
L 166.49763 274.655545 
L 166.288353 275.266758 
L 171.330018 276.164601 
L 176.403553 276.860114 
L 181.500844 277.352183 
L 186.613734 277.640021 
L 191.734046 277.723168 
L 196.853586 277.60149 
L 201.964166 277.275183 
L 207.057609 276.744768 
L 212.125767 276.011094 
L 217.160532 275.075335 
L 222.153849 273.938987 
L 227.09773 272.603868 
L 231.984266 271.072116 
L 236.80564 269.346179 
L 241.554138 267.428819 
L 246.222163 265.323103 
L 250.802249 263.032401 
L 255.287067 260.560376 
L 259.669444 257.910984 
L 263.942367 255.088463 
L 268.099002 252.097328 
L 272.132699 248.942364 
L 276.037004 245.62862 
L 279.805671 242.161395 
L 283.432673 238.546238 
L 286.912205 234.78893 
L 290.238701 230.895484 
L 293.406841 226.872128 
L 296.411555 222.725299 
L 299.248037 218.46163 
L 301.911748 214.087942 
L 304.398428 209.611233 
L 306.704098 205.038664 
L 308.82507 200.37755 
L 310.757951 195.635349 
L 312.499648 190.819646 
L 314.047375 185.938146 
L 315.398656 180.998658 
L 316.551329 176.009084 
L 317.503551 170.977407 
L 318.253798 165.911676 
L 318.800869 160.819995 
L 319.14389 155.71051 
L 319.282311 150.591395 
L 319.215912 145.470839 
L 318.944798 140.357034 
L 318.469403 135.258161 
L 317.790488 130.182378 
L 316.909139 125.137804 
L 315.826766 120.13251 
L 314.5451 115.174503 
L 313.066192 110.271715 
L 311.392408 105.431989 
L 309.526425 100.663067 
L 307.471229 95.97258 
L 305.230107 91.368031 
L 302.806645 86.856785 
L 300.20472 82.446061 
L 297.428494 78.142914 
L 294.482409 73.954229 
L 291.371178 69.886706 
L 288.099778 65.946853 
L 286.063264 63.648 
L 282.698305 67.508253 
L 279.490407 71.499981 
L 276.444701 75.616798 
L 273.566061 79.852117 
L 270.85909 84.199163 
L 268.32812 88.650983 
L 265.977201 93.200453 
L 263.810091 97.840295 
L 261.83026 102.563088 
L 260.040873 107.361275 
L 258.444795 112.22718 
L 257.044577 117.153019 
L 255.84246 122.130912 
L 254.892444 126.863596 
L 257.567706 122.496964 
L 260.066209 118.026843 
L 262.383957 113.460384 
L 264.517241 108.804892 
L 266.462649 104.067816 
L 268.217068 99.256734 
L 269.777692 94.379341 
L 271.142023 89.443442 
L 272.30788 84.456932 
L 273.273398 79.42779 
L 274.03703 74.364059 
L 274.597557 69.273842 
L 274.978751 63.648 
L 275.043548 64.926686 
L 275.430488 70.033033 
L 276.021318 75.119822 
L 276.815093 80.178915 
L 277.810543 85.202219 
L 279.006074 90.181697 
L 280.399776 95.109384 
L 281.989418 99.977396 
L 283.772456 104.777946 
L 285.74604 109.503353 
L 287.90701 114.146057 
L 290.251911 118.698633 
L 292.77699 123.153796 
L 295.478209 127.504419 
L 298.351245 131.743542 
L 301.391503 135.864383 
L 304.594119 139.86035 
L 307.953969 143.725051 
L 311.465678 147.452301 
L 315.123629 151.03614 
L 318.921969 154.470833 
L 322.854622 157.750885 
L 326.915296 160.87105 
L 331.097496 163.826335 
L 335.39453 166.612012 
L 339.799524 169.223626 
L 344.305431 171.656999 
L 348.905043 173.908236 
L 353.591002 175.973737 
L 358.35581 177.850198 
L 361.607472 179.006605 
L 357.687393 175.711536 
L 353.638681 172.575864 
L 349.467815 169.604606 
L 345.181466 166.802514 
L 340.786492 164.174073 
L 336.289924 161.723485 
L 331.698956 159.454673 
L 327.020931 157.371265 
L 322.263334 155.476595 
L 317.433776 153.773694 
L 312.539984 152.265285 
L 307.589786 150.953783 
L 302.591101 149.841284 
L 297.551926 148.92957 
L 292.480324 148.220098 
L 287.384407 147.714004 
L 282.272328 147.412097 
L 279.557486 147.335022 
L 281.615272 142.64567 
L 283.483887 137.87778 
L 285.160343 133.038978 
L 286.641957 128.137007 
L 287.92636 123.179709 
L 289.011496 118.175013 
L 289.89563 113.130926 
L 290.577347 108.055518 
L 291.055556 102.956909 
L 291.329493 97.843255 
L 291.398719 92.722736 
L 291.263124 87.603545 
L 290.922924 82.493871 
L 290.378664 77.401889 
L 289.631214 72.335745 
L 288.68177 67.303543 
L 287.860043 63.648 
L 286.763759 68.650266 
L 285.86839 73.69237 
L 285.175367 78.766246 
L 284.685799 83.863778 
L 284.40047 88.976809 
L 284.319835 94.097161 
L 284.444025 99.216641 
L 284.77284 104.32706 
L 285.305754 109.420242 
L 286.041915 114.488039 
L 286.980145 119.522344 
L 288.118943 124.515103 
L 289.456487 129.458329 
L 290.990638 134.344112 
L 292.71894 139.164639 
L 294.63863 143.912195 
L 296.746636 148.579187 
L 299.039585 153.158148 
L 301.51381 157.641753 
L 304.165353 162.022829 
L 306.98997 166.294367 
L 309.983144 170.449533 
L 313.140087 174.481681 
L 316.455747 178.38436 
L 319.92482 182.151326 
L 323.541757 185.776553 
L 327.300771 189.254241 
L 331.195849 192.578826 
L 335.220759 195.744991 
L 339.369063 198.74767 
L 343.634123 201.582059 
L 347.282557 203.818085 
L 345.040426 202.581304 
L 340.484213 200.243478 
L 335.838157 198.089723 
L 331.109689 196.123483 
L 326.306376 194.347904 
L 321.4359 192.765827 
L 316.506054 191.379782 
L 311.524725 190.191987 
L 306.49988 189.204343 
L 301.43956 188.418428 
L 296.351859 187.835502 
L 291.244917 187.456495 
L 285.760938 187.277385 
L 290.322079 189.60558 
L 294.972675 191.749516 
L 299.705285 193.705763 
L 304.512339 195.471191 
L 309.386146 197.042976 
L 314.318909 198.418604 
L 319.302736 199.595873 
L 324.329656 200.572901 
L 329.391625 201.348124 
L 334.480546 201.920302 
L 339.588277 202.28852 
L 344.706647 202.452188 
L 348.073457 202.448206 
L 345.487865 198.027887 
L 342.727576 193.714501 
L 339.797005 189.514946 
L 336.700841 185.435943 
L 333.444037 181.484015 
L 330.031804 177.665487 
L 326.469599 173.986465 
L 322.763122 170.452837 
L 318.918302 167.070255 
L 314.94129 163.84413 
L 310.838449 160.779624 
L 306.616343 157.881639 
L 302.281725 155.154811 
L 297.84153 152.603503 
L 293.302862 150.231796 
L 288.672981 148.043484 
L 283.959295 146.042069 
L 279.169344 144.230752 
L 276.85193 143.431912 
L 276.459942 138.32595 
L 275.864083 133.239748 
L 275.065307 128.181442 
L 274.064892 123.159125 
L 272.864438 118.18083 
L 271.465865 113.254524 
L 269.871412 108.388086 
L 268.083628 103.589302 
L 266.105374 98.865848 
L 263.939814 94.225282 
L 261.590414 89.675027 
L 259.060931 85.222363 
L 256.355413 80.874412 
L 253.478187 76.638132 
L 250.433856 72.520298 
L 247.227291 68.527499 
L 243.863622 64.666123 
L 242.930217 63.648 
L 239.525087 67.472865 
L 236.275635 71.430839 
L 233.187058 75.515591 
L 230.264299 79.720586 
L 227.512032 84.039096 
L 224.934662 88.464213 
L 222.53631 92.988858 
L 220.320815 97.605792 
L 218.291719 102.307629 
L 216.45227 107.086848 
L 214.80541 111.935802 
L 213.353774 116.846734 
L 212.099684 121.811788 
L 211.045147 126.823021 
L 210.445239 130.2386 
L 205.614674 128.538556 
L 200.719991 127.033042 
L 195.769017 125.724468 
L 190.769675 124.614927 
L 185.729963 123.706193 
L 180.657941 122.999721 
L 175.561726 122.496641 
L 170.449469 122.197758 
L 165.329349 122.103549 
L 160.209558 122.214166 
L 155.098285 122.529432 
L 150.003708 123.048842 
L 144.933977 123.771565 
L 139.897202 124.696445 
L 136.463459 125.447474 
L 138.047796 130.317215 
L 139.825604 135.119704 
L 141.794038 139.847259 
L 143.94995 144.492315 
L 146.289889 149.047442 
L 148.810114 153.505353 
L 151.506591 157.858917 
L 154.375007 162.101167 
L 157.410774 166.225318 
L 160.609035 170.224772 
L 163.964673 174.09313 
L 167.47232 177.824204 
L 171.126364 181.412026 
L 174.92096 184.850855 
L 178.850037 188.135189 
L 182.90731 191.259776 
L 187.086287 194.219615 
L 189.616105 195.893057 
L 189.01548 200.978699 
L 188.618706 206.084291 
L 188.42642 211.201666 
L 188.438927 216.322638 
L 188.656209 221.439012 
L 189.077918 226.542606 
L 189.703378 231.625253 
L 190.53159 236.678822 
L 191.561228 241.69523 
L 192.790646 246.666451 
L 194.217876 251.584531 
L 195.840634 256.441604 
L 197.656327 261.229899 
L 199.662047 265.941755 
L 201.854587 270.569634 
L 204.230439 275.106134 
L 206.785802 279.543996 
L 209.516589 283.876121 
L 210.541469 285.408 
L 213.334334 281.115634 
L 215.953316 276.715016 
L 218.394225 272.213187 
L 220.653157 267.617349 
L 222.726497 262.934854 
L 224.61093 258.173193 
L 226.303439 253.339983 
L 227.801317 248.442957 
L 229.102169 243.48995 
L 230.203912 238.488883 
L 231.104785 233.447759 
L 231.803346 228.374643 
L 232.100293 225.580117 
L 231.99219 227.497552 
L 231.844626 232.616412 
L 231.90188 237.737078 
L 232.16386 242.851359 
L 232.630148 247.951073 
L 233.299996 253.02806 
L 234.172334 258.0742 
L 235.245766 263.08142 
L 236.518575 268.041708 
L 237.988724 272.94713 
L 239.653862 277.789837 
L 241.511325 282.562084 
L 242.725524 285.408 
L 244.697764 280.682032 
L 246.479438 275.880976 
L 248.067696 271.012513 
L 249.459997 266.08443 
L 250.654114 261.104612 
L 251.648135 256.081025 
L 252.440472 251.021707 
L 253.029856 245.93475 
L 253.415345 240.828293 
L 253.596322 235.710506 
L 253.572497 230.589575 
L 253.343908 225.473693 
L 253.146289 222.842241 
L 256.083707 227.037009 
L 259.18652 231.110956 
L 262.449767 235.057566 
L 265.868225 238.870523 
L 269.436426 242.543729 
L 273.148663 246.071307 
L 276.998995 249.447612 
L 280.981264 252.667246 
L 285.089099 255.725055 
L 289.315927 258.616149 
L 293.654987 261.335902 
L 298.099338 263.879964 
L 302.641869 266.244264 
L 307.275313 268.42502 
L 309.438012 269.36676 
L 305.287251 266.36748 
L 301.019871 263.536584 
L 296.642698 260.878603 
L 292.162736 258.397789 
L 287.587151 256.098109 
L 282.923264 253.983244 
L 278.178535 252.056575 
L 273.360555 250.321187 
L 268.477032 248.779854 
L 263.535779 247.435044 
L 258.5447 246.288906 
L 253.51178 245.343275 
L 248.445071 244.599664 
L 243.352677 244.059261 
L 238.242747 243.722933 
L 233.123455 243.591216 
L 228.002991 243.664321 
L 222.889545 243.942133 
L 217.7913 244.424205 
L 212.71641 245.109767 
L 207.672995 245.997722 
L 202.669122 247.086649 
L 197.712798 248.374807 
L 192.811951 249.860135 
L 187.974421 251.540257 
L 183.207948 253.412484 
L 178.520156 255.473821 
L 173.918546 257.720971 
L 169.410478 260.15034 
L 165.003166 262.758039 
L 160.681281 265.555024 
L 165.240687 263.223433 
L 169.703208 260.711379 
L 174.061703 258.022882 
L 178.309201 255.162242 
L 182.438907 252.134035 
L 186.444213 248.943106 
L 190.318712 245.594561 
L 194.056206 242.093755 
L 197.650715 238.446289 
L 201.096489 234.657999 
L 204.388016 230.734946 
L 207.52003 226.683404 
L 210.48752 222.509855 
L 212.266998 219.826172 
L 212.020473 220.416965 
L 210.155223 225.186173 
L 208.482182 230.026156 
L 207.004027 234.929171 
L 205.723123 239.887375 
L 204.641519 244.892836 
L 203.760945 249.937545 
L 203.08281 255.013432 
L 202.608199 260.112378 
L 202.33787 265.226224 
L 202.272258 270.34679 
L 202.411466 275.465884 
L 202.755271 280.575317 
L 203.270284 285.408 
L 203.807757 280.315297 
L 204.141147 275.205174 
L 204.269919 270.085807 
L 204.193869 264.965386 
L 203.913117 259.852101 
L 203.428113 254.754133 
L 202.739632 249.679639 
L 201.848777 244.636735 
L 200.756971 239.63349 
L 199.465963 234.677907 
L 197.977817 229.777915 
L 196.294914 224.941352 
L 194.419946 220.175956 
L 192.355912 215.489351 
L 190.106116 210.889034 
L 187.674155 206.382365 
L 185.063922 201.976552 
L 182.27959 197.678646 
L 179.325615 193.495521 
L 176.206723 189.433869 
L 172.927903 185.500189 
L 169.4944 181.700773 
L 165.911708 178.0417 
L 162.185557 174.528823 
L 158.32191 171.167763 
L 154.326946 167.963895 
L 150.207057 164.922346 
L 145.968834 162.047982 
L 141.619058 159.345401 
L 137.164686 156.818926 
L 132.612846 154.472599 
L 127.970818 152.310174 
L 123.246029 150.335111 
L 122.306271 149.968443 
L 126.354536 153.104691 
L 130.52498 156.076543 
L 134.810929 158.879245 
L 139.205529 161.508312 
L 143.701748 163.959539 
L 148.292394 166.229005 
L 152.970122 168.313078 
L 157.727449 170.208426 
L 162.556764 171.912014 
L 167.450342 173.421119 
L 172.400354 174.733326 
L 177.39888 175.846536 
L 182.437925 176.758968 
L 185.013656 177.145511 
L 180.066175 178.467226 
L 175.175505 179.98573 
L 170.349472 181.698594 
L 165.595795 183.603078 
L 160.92208 185.696135 
L 156.335803 187.974416 
L 151.844301 190.434277 
L 147.454761 193.071783 
L 143.174204 195.882713 
L 139.009478 198.862572 
L 134.967245 202.006592 
L 131.053974 205.309744 
L 127.675673 208.387634 
L 132.55186 206.823249 
L 137.361588 205.065119 
L 142.097162 203.116058 
L 146.751007 200.979184 
L 151.315677 198.657915 
L 155.78387 196.155964 
L 160.148437 193.477335 
L 164.402396 190.626312 
L 168.538942 187.607457 
L 172.551458 184.425598 
L 176.433523 181.085827 
L 180.178928 177.593487 
L 183.781681 173.954163 
L 184.980195 172.67666 
L 181.703341 168.741343 
L 178.271736 164.940212 
L 174.690872 161.279349 
L 170.966477 157.764612 
L 167.104509 154.401621 
L 163.111146 151.195759 
L 158.992777 148.152152 
L 154.755991 145.275671 
L 150.407565 142.570917 
L 145.954456 140.042217 
L 141.403788 137.693617 
L 136.762841 135.528874 
L 131.831803 133.469739 
L 135.900798 136.579043 
L 140.090879 139.523144 
L 144.39534 142.297332 
L 148.807296 144.897167 
L 153.319688 147.318493 
L 157.925298 149.557433 
L 162.616759 151.610408 
L 167.386563 153.474132 
L 172.227081 155.145624 
L 177.130569 156.622209 
L 182.089183 157.901527 
L 187.347822 159.030544 
L 182.639842 157.015743 
L 177.855056 155.190823 
L 173.001121 153.558703 
L 168.085802 152.121994 
L 163.11696 150.882994 
L 158.102547 149.843686 
L 153.050584 149.005733 
L 147.969152 148.370475 
L 142.866381 147.938927 
L 137.750435 147.711782 
L 132.629497 147.689401 
L 127.511761 147.871821 
L 123.343294 148.172267 
L 125.595272 152.771517 
L 128.029369 157.277032 
L 130.641692 161.681606 
L 133.428062 165.978191 
L 136.38402 170.159915 
L 139.504838 174.220087 
L 142.785524 178.152212 
L 146.220828 181.949999 
L 149.805256 185.607372 
L 153.533072 189.118482 
L 157.398313 192.47771 
L 161.394796 195.679682 
L 165.516126 198.719277 
L 169.755712 201.59163 
L 174.10677 204.292149 
L 178.562339 206.816511 
L 183.115292 209.160678 
L 187.758345 211.320901 
L 192.484069 213.293724 
L 197.284906 215.07599 
L 202.153173 216.664848 
L 207.081085 218.057756 
L 210.649137 218.935159 
L 214.231226 222.594823 
L 217.956797 226.108314 
L 221.81989 229.470012 
L 225.814325 232.674538 
L 229.933712 235.716766 
L 234.171461 238.591829 
L 238.520792 241.295128 
L 242.974747 243.822337 
L 247.5262 246.169415 
L 252.167871 248.332605 
L 256.892334 250.308448 
L 261.69203 252.093782 
L 266.559282 253.685751 
L 271.486301 255.081809 
L 276.465208 256.279722 
L 281.488035 257.277573 
L 286.546748 258.073767 
L 291.633254 258.667029 
L 296.739415 259.056411 
L 301.857063 259.24129 
L 306.978011 259.221369 
L 312.094066 258.996681 
L 315.581648 258.72567 
L 313.343199 254.119821 
L 310.922356 249.60717 
L 308.322991 245.194936 
L 305.549263 240.890179 
L 302.60561 236.699784 
L 299.49674 232.630457 
L 296.227627 228.688705 
L 292.803501 224.880837 
L 289.22984 221.212943 
L 285.512361 217.690891 
L 281.65701 214.320316 
L 277.669957 211.106609 
L 274.364597 208.633844 
L 277.890371 212.347794 
L 281.561843 215.91778 
L 285.373139 219.33809 
L 289.318163 222.603253 
L 293.390603 225.708045 
L 297.583943 228.6475 
L 301.891477 231.416915 
L 306.306312 234.011859 
L 310.821385 236.428181 
L 315.429475 238.662015 
L 320.123207 240.709788 
L 324.90752 242.572786 
L 320.912465 239.369032 
L 316.79249 236.3276 
L 312.554186 233.453357 
L 308.204333 230.750899 
L 303.749889 228.22455 
L 299.197982 225.878353 
L 294.555893 223.71606 
L 289.831048 221.741131 
L 285.031007 219.956725 
L 280.163448 218.365696 
L 275.236158 216.970591 
L 270.257021 215.773641 
L 267.325819 215.166548 
L 267.070913 220.281187 
L 267.020742 225.401927 
L 267.175387 230.520578 
L 267.534599 235.628951 
L 268.097804 240.718872 
L 268.864101 245.7822 
L 269.832264 250.810834 
L 271.000745 255.79673 
L 272.367673 260.731911 
L 273.930863 265.608481 
L 275.687814 270.41864 
L 277.635713 275.154692 
L 279.771447 279.80906 
L 282.091597 284.374299 
L 282.649337 285.408 
L 285.01127 280.864238 
L 287.189612 276.229658 
L 289.180878 271.511675 
L 290.981882 266.717837 
L 292.589743 261.855812 
L 294.001888 256.933379 
L 295.21606 251.958413 
L 296.230314 246.938872 
L 297.043029 241.882787 
L 297.652905 236.798247 
L 298.058965 231.693384 
L 298.260561 226.576368 
L 298.257369 221.455382 
L 298.049395 216.338621 
L 297.636971 211.234269 
L 297.020758 206.150492 
L 296.20174 201.095424 
L 295.181229 196.077152 
L 293.960857 191.103703 
L 292.542576 186.183034 
L 290.928656 181.323017 
L 289.121677 176.531428 
L 287.323131 172.262188 
L 288.87701 167.382643 
L 290.234516 162.444862 
L 291.393478 157.456745 
L 292.352041 152.426272 
L 293.108672 147.361491 
L 293.662161 142.270503 
L 294.011622 137.161455 
L 294.156496 132.042518 
L 294.096551 126.921882 
L 293.831883 121.80774 
L 293.362916 116.708272 
L 292.6904 111.631637 
L 291.81541 106.585956 
L 290.739347 101.579302 
L 289.463932 96.619683 
L 287.991205 91.715034 
L 286.323522 86.873202 
L 284.463552 82.101933 
L 282.41427 77.408859 
L 280.178954 72.801488 
L 277.76118 68.287192 
L 275.025901 63.648 
L 272.420421 68.056625 
L 269.993323 72.565916 
L 267.748491 77.168657 
L 265.689514 81.857486 
L 263.819688 86.624901 
L 262.142003 91.463277 
L 260.659143 96.364871 
L 259.373481 101.321844 
L 258.287073 106.326264 
L 257.401658 111.370125 
L 256.718652 116.44536 
L 256.239147 121.543848 
L 255.963911 126.657432 
L 255.944093 127.290414 
L 259.41381 123.524041 
L 262.730137 119.621929 
L 265.887769 115.590321 
L 268.881653 111.435666 
L 271.707001 107.164611 
L 274.359292 102.783989 
L 276.834284 98.300807 
L 279.128016 93.722238 
L 281.23682 89.055606 
L 283.157321 84.308378 
L 284.886447 79.488147 
L 286.421433 74.602626 
L 287.759822 69.659629 
L 288.899474 64.667065 
L 289.106434 63.648 
L 290.205499 68.649655 
L 291.503698 73.603359 
L 292.998954 78.501187 
L 294.688874 83.335302 
L 296.570756 88.097971 
L 298.641589 92.781576 
L 300.898059 97.378624 
L 303.336558 101.881759 
L 305.953183 106.283778 
L 308.743749 110.577639 
L 311.703791 114.756473 
L 314.828575 118.813594 
L 318.1131 122.742511 
L 321.552113 126.53694 
L 325.140112 130.19081 
L 328.871357 133.698276 
L 332.739879 137.053726 
L 336.739488 140.251792 
L 340.863786 143.287359 
L 345.106176 146.155569 
L 349.321798 148.769983 
L 349.486402 153.888324 
L 349.855554 158.995987 
L 350.428663 164.084803 
L 351.204811 169.146631 
L 352.182758 174.173371 
L 353.360939 179.156984 
L 354.737468 184.089495 
L 356.142164 188.472796 
L 351.139625 189.567834 
L 346.184878 190.862045 
L 341.285849 192.353357 
L 336.450374 194.039386 
L 331.686191 195.917433 
L 327.000921 197.984494 
L 322.402059 200.237263 
L 317.896962 202.672135 
L 313.492837 205.285216 
L 309.196731 208.072324 
L 305.015516 211.029002 
L 300.95588 214.150518 
L 297.02432 217.431879 
L 293.227124 220.867837 
L 289.570366 224.452893 
L 286.059898 228.181313 
L 282.701335 232.047132 
L 279.50005 236.044165 
L 276.461164 240.166018 
L 273.589539 244.406098 
L 270.889769 248.75762 
L 268.366174 253.213623 
L 266.022789 257.766979 
L 263.863364 262.410403 
L 261.891355 267.136467 
L 260.109914 271.93761 
L 258.521894 276.806151 
L 257.129833 281.734301 
L 256.228768 285.408 
L 254.982895 280.440878 
L 253.539387 275.52755 
L 251.900552 270.675878 
L 250.069014 265.893622 
L 248.047701 261.188434 
L 245.839848 256.56784 
L 243.448987 252.039233 
L 240.878942 247.609857 
L 238.133824 243.286799 
L 235.218027 239.076974 
L 232.136214 234.987117 
L 228.893315 231.023772 
L 225.494518 227.193278 
L 222.262065 223.819452 
L 217.311758 225.130547 
L 212.417841 226.638552 
L 207.588143 228.341055 
L 202.83039 230.235333 
L 198.152194 232.318355 
L 193.561038 234.586789 
L 189.064268 237.037006 
L 184.669078 239.665085 
L 180.382498 242.466823 
L 176.211387 245.437738 
L 172.162417 248.573076 
L 168.242066 251.867822 
L 164.456605 255.316704 
L 160.812091 258.914206 
L 158.349444 261.516164 
L 163.323277 260.297358 
L 168.244392 258.880627 
L 173.104917 257.268237 
L 177.897075 255.462767 
L 182.613201 253.467106 
L 187.245749 251.284447 
L 191.787308 248.918282 
L 196.230614 246.372395 
L 200.568556 243.65086 
L 204.794197 240.75803 
L 208.900775 237.698534 
L 212.881721 234.477265 
L 216.730666 231.099378 
L 220.441454 227.570276 
L 223.717076 224.206703 
L 225.146936 229.124019 
L 226.772293 233.980223 
L 228.590546 238.767546 
L 230.598786 243.478328 
L 232.793801 248.105035 
L 235.17208 252.640263 
L 237.729816 257.076758 
L 240.462919 261.407421 
L 243.367017 265.625326 
L 246.437462 269.723724 
L 249.669344 273.696059 
L 253.057492 277.535975 
L 256.596485 281.23733 
L 260.280662 284.794202 
L 260.94713 285.408 
L 264.656386 281.877288 
L 268.221484 278.20107 
L 271.63672 274.385227 
L 274.896632 270.435862 
L 277.996003 266.359295 
L 280.929877 262.162048 
L 283.693558 257.850833 
L 286.282626 253.43255 
L 288.692939 248.914266 
L 290.92064 244.303209 
L 292.962167 239.606756 
L 294.814253 234.83242 
L 296.473934 229.98784 
L 297.938557 225.080765 
L 299.205777 220.119046 
L 300.273568 215.110621 
L 301.140221 210.063501 
L 301.80435 204.985762 
L 302.264893 199.885526 
L 302.521112 194.770954 
L 302.572597 189.650226 
L 302.419267 184.531536 
L 302.061367 179.423071 
L 301.499469 174.333005 
L 300.734471 169.269481 
L 299.767599 164.240598 
L 298.600399 159.254403 
L 297.234737 154.318871 
L 295.6728 149.4419 
L 293.917085 144.63129 
L 291.970401 139.894738 
L 289.835862 135.239821 
L 287.516885 130.673987 
L 285.017177 126.204539 
L 282.340739 121.838628 
L 279.491851 117.583238 
L 276.475073 113.445177 
L 273.295229 109.431066 
L 269.957406 105.547324 
L 266.466946 101.800167 
L 262.829431 98.195588 
L 259.050682 94.739354 
L 255.136742 91.436995 
L 251.093874 88.293793 
L 246.928545 85.314777 
L 242.647419 82.504712 
L 238.257345 79.868095 
L 233.765346 77.409142 
L 229.178608 75.131789 
L 224.504469 73.039678 
L 219.750407 71.136156 
L 214.924027 69.424268 
L 210.033051 67.906754 
L 205.085302 66.58604 
L 200.088697 65.46424 
L 195.051228 64.543148 
L 189.980955 63.824238 
L 188.453126 63.648 
L 183.374583 64.305954 
L 178.326414 65.16647 
L 173.316694 66.22817 
L 170.212669 66.992128 
L 170.212669 66.992128 
" style="fill:none;stroke:#1f77b4;stroke-linecap:square;stroke-width:1.5;"/>
   </g>
   <g id="patch_4">
    <path d="M 82.520165 307.584 
L 82.520165 41.472 
" style="fill:none;stroke:#000000;stroke-linecap:square;stroke-linejoin:miter;stroke-width:0.8;"/>
   </g>
   <g id="patch_5">
    <path d="M 389.799835 307.584 
L 389.799835 41.472 
" style="fill:none;stroke:#000000;stroke-linecap:square;stroke-linejoin:miter;stroke-width:0.8;"/>
   </g>
   <g id="patch_6">
    <path d="M 82.520165 307.584 
L 389.799835 307.584 
" style="fill:none;stroke:#000000;stroke-linecap:square;stroke-linejoin:miter;stroke-width:0.8;"/>
   </g>
   <g id="patch_7">
    <path d="M 82.520165 41.472 
L 389.799835 41.472 
" style="fill:none;stroke:#000000;stroke-linecap:square;stroke-linejoin:miter;stroke-width:0.8;"/>
   </g>
  </g>
 </g>
 <defs>
  <clipPath id="pf5150704f1">
   <rect height="266.112" width="307.27967" x="82.520165" y="41.472"/>
  </clipPath>
 </defs>
</svg>
