<?xml version="1.0" encoding="utf-8" standalone="no"?>
<!DOCTYPE svg PUBLIC "-//W3C//DTD SVG 1.1//EN"
  "http://www.w3.org/Graphics/SVG/1.1/DTD/svg11.dtd">
<!-- Created with matplotlib (https://matplotlib.org/) -->
<svg height="345.6pt" version="1.1" viewBox="0 0 460.8 345.6" width="460.8pt" xmlns="http://www.w3.org/2000/svg" xmlns:xlink="http://www.w3.org/1999/xlink">
 <defs>
  <style type="text/css">
*{stroke-linecap:butt;stroke-linejoin:round;}
  </style>
 </defs>
 <g id="figure_1">
  <g id="patch_1">
   <path d="M 0 345.6 
L 460.8 345.6 
L 460.8 0 
L 0 0 
z
" style="fill:#ffffff;"/>
  </g>
  <g id="axes_1">
   <g id="patch_2">
    <path d="M 57.6 307.584 
L 414.72 307.584 
L 414.72 41.472 
L 57.6 41.472 
z
" style="fill:#ffffff;"/>
   </g>
   <g id="PathCollection_1">
    <defs>
     <path d="M 0 3 
C 0.795609 3 1.55874 2.683901 2.12132 2.12132 
C 2.683901 1.55874 3 0.795609 3 0 
C 3 -0.795609 2.683901 -1.55874 2.12132 -2.12132 
C 1.55874 -2.683901 0.795609 -3 0 -3 
C -0.795609 -3 -1.55874 -2.683901 -2.12132 -2.12132 
C -2.683901 -1.55874 -3 -0.795609 -3 0 
C -3 0.795609 -2.683901 1.55874 -2.12132 2.12132 
C -1.55874 2.683901 -0.795609 3 0 3 
z
" id="C0_0_50f9511080"/>
    </defs>
    <g clip-path="url(#pe98b90281e)">
     <use style="fill:#ff7f0e;stroke:#ff7f0e;" x="75.964363" xlink:href="#C0_0_50f9511080" y="293.365895"/>
    </g>
    <g clip-path="url(#pe98b90281e)">
     <use style="fill:#ff7f0e;stroke:#ff7f0e;" x="75.964363" xlink:href="#C0_0_50f9511080" y="293.365895"/>
    </g>
    <g clip-path="url(#pe98b90281e)">
     <use style="fill:#ff7f0e;stroke:#ff7f0e;" x="109.066225" xlink:href="#C0_0_50f9511080" y="284.054637"/>
    </g>
    <g clip-path="url(#pe98b90281e)">
     <use style="fill:#ff7f0e;stroke:#ff7f0e;" x="109.066225" xlink:href="#C0_0_50f9511080" y="284.054637"/>
    </g>
    <g clip-path="url(#pe98b90281e)">
     <use style="fill:#1f77b4;stroke:#1f77b4;" x="119.770243" xlink:href="#C0_0_50f9511080" y="281.564407"/>
    </g>
    <g clip-path="url(#pe98b90281e)">
     <use style="fill:#1f77b4;stroke:#1f77b4;" x="119.770243" xlink:href="#C0_0_50f9511080" y="232.800709"/>
    </g>
    <g clip-path="url(#pe98b90281e)">
     <use style="fill:#ff7f0e;stroke:#ff7f0e;" x="130.463098" xlink:href="#C0_0_50f9511080" y="230.810427"/>
    </g>
    <g clip-path="url(#pe98b90281e)">
     <use style="fill:#ff7f0e;stroke:#ff7f0e;" x="130.463098" xlink:href="#C0_0_50f9511080" y="230.810427"/>
    </g>
    <g clip-path="url(#pe98b90281e)">
     <use style="fill:#ff7f0e;stroke:#ff7f0e;" x="163.559644" xlink:href="#C0_0_50f9511080" y="218.576439"/>
    </g>
    <g clip-path="url(#pe98b90281e)">
     <use style="fill:#ff7f0e;stroke:#ff7f0e;" x="163.559644" xlink:href="#C0_0_50f9511080" y="218.576439"/>
    </g>
    <g clip-path="url(#pe98b90281e)">
     <use style="fill:#ff7f0e;stroke:#ff7f0e;" x="196.65619" xlink:href="#C0_0_50f9511080" y="207.901386"/>
    </g>
    <g clip-path="url(#pe98b90281e)">
     <use style="fill:#ff7f0e;stroke:#ff7f0e;" x="196.65619" xlink:href="#C0_0_50f9511080" y="207.901386"/>
    </g>
    <g clip-path="url(#pe98b90281e)">
     <use style="fill:#ff7f0e;stroke:#ff7f0e;" x="228.197736" xlink:href="#C0_0_50f9511080" y="200.219823"/>
    </g>
    <g clip-path="url(#pe98b90281e)">
     <use style="fill:#ff7f0e;stroke:#ff7f0e;" x="228.197736" xlink:href="#C0_0_50f9511080" y="200.219823"/>
    </g>
    <g clip-path="url(#pe98b90281e)">
     <use style="fill:#ff7f0e;stroke:#ff7f0e;" x="229.752736" xlink:href="#C0_0_50f9511080" y="199.888703"/>
    </g>
    <g clip-path="url(#pe98b90281e)">
     <use style="fill:#ff7f0e;stroke:#ff7f0e;" x="229.752736" xlink:href="#C0_0_50f9511080" y="199.888703"/>
    </g>
    <g clip-path="url(#pe98b90281e)">
     <use style="fill:#ff7f0e;stroke:#ff7f0e;" x="262.849282" xlink:href="#C0_0_50f9511080" y="193.634085"/>
    </g>
    <g clip-path="url(#pe98b90281e)">
     <use style="fill:#ff7f0e;stroke:#ff7f0e;" x="262.849282" xlink:href="#C0_0_50f9511080" y="193.634085"/>
    </g>
    <g clip-path="url(#pe98b90281e)">
     <use style="fill:#ff7f0e;stroke:#ff7f0e;" x="295.945828" xlink:href="#C0_0_50f9511080" y="188.542046"/>
    </g>
    <g clip-path="url(#pe98b90281e)">
     <use style="fill:#ff7f0e;stroke:#ff7f0e;" x="295.945828" xlink:href="#C0_0_50f9511080" y="188.542046"/>
    </g>
    <g clip-path="url(#pe98b90281e)">
     <use style="fill:#1f77b4;stroke:#1f77b4;" x="312.113624" xlink:href="#C0_0_50f9511080" y="186.364998"/>
    </g>
    <g clip-path="url(#pe98b90281e)">
     <use style="fill:#1f77b4;stroke:#1f77b4;" x="312.113624" xlink:href="#C0_0_50f9511080" y="82.130259"/>
    </g>
    <g clip-path="url(#pe98b90281e)">
     <use style="fill:#ff7f0e;stroke:#ff7f0e;" x="329.27051" xlink:href="#C0_0_50f9511080" y="78.818017"/>
    </g>
    <g clip-path="url(#pe98b90281e)">
     <use style="fill:#ff7f0e;stroke:#ff7f0e;" x="329.27051" xlink:href="#C0_0_50f9511080" y="78.818017"/>
    </g>
    <g clip-path="url(#pe98b90281e)">
     <use style="fill:#ff7f0e;stroke:#ff7f0e;" x="355.671638" xlink:href="#C0_0_50f9511080" y="68.754277"/>
    </g>
    <g clip-path="url(#pe98b90281e)">
     <use style="fill:#ff7f0e;stroke:#ff7f0e;" x="355.671638" xlink:href="#C0_0_50f9511080" y="68.754277"/>
    </g>
    <g clip-path="url(#pe98b90281e)">
     <use style="fill:#ff7f0e;stroke:#ff7f0e;" x="362.813074" xlink:href="#C0_0_50f9511080" y="66.117715"/>
    </g>
    <g clip-path="url(#pe98b90281e)">
     <use style="fill:#ff7f0e;stroke:#ff7f0e;" x="362.813074" xlink:href="#C0_0_50f9511080" y="66.117715"/>
    </g>
    <g clip-path="url(#pe98b90281e)">
     <use style="fill:#ff7f0e;stroke:#ff7f0e;" x="396.355637" xlink:href="#C0_0_50f9511080" y="55.690105"/>
    </g>
    <g clip-path="url(#pe98b90281e)">
     <use style="fill:#ff7f0e;stroke:#ff7f0e;" x="396.355637" xlink:href="#C0_0_50f9511080" y="55.690105"/>
    </g>
   </g>
   <g id="matplotlib.axis_1">
    <g id="xtick_1">
     <g id="line2d_1">
      <defs>
       <path d="M 0 0 
L 0 3.5 
" id="md768c2c144" style="stroke:#000000;stroke-width:0.8;"/>
      </defs>
      <g>
       <use style="stroke:#000000;stroke-width:0.8;" x="112.045669" xlink:href="#md768c2c144" y="307.584"/>
      </g>
     </g>
     <g id="text_1">
      <!-- 2 -->
      <defs>
       <path d="M 19.1875 8.296875 
L 53.609375 8.296875 
L 53.609375 0 
L 7.328125 0 
L 7.328125 8.296875 
Q 12.9375 14.109375 22.625 23.890625 
Q 32.328125 33.6875 34.8125 36.53125 
Q 39.546875 41.84375 41.421875 45.53125 
Q 43.3125 49.21875 43.3125 52.78125 
Q 43.3125 58.59375 39.234375 62.25 
Q 35.15625 65.921875 28.609375 65.921875 
Q 23.96875 65.921875 18.8125 64.3125 
Q 13.671875 62.703125 7.8125 59.421875 
L 7.8125 69.390625 
Q 13.765625 71.78125 18.9375 73 
Q 24.125 74.21875 28.421875 74.21875 
Q 39.75 74.21875 46.484375 68.546875 
Q 53.21875 62.890625 53.21875 53.421875 
Q 53.21875 48.921875 51.53125 44.890625 
Q 49.859375 40.875 45.40625 35.40625 
Q 44.1875 33.984375 37.640625 27.21875 
Q 31.109375 20.453125 19.1875 8.296875 
z
" id="DejaVuSans-50"/>
      </defs>
      <g transform="translate(108.864419 322.182437)scale(0.1 -0.1)">
       <use xlink:href="#DejaVuSans-50"/>
      </g>
     </g>
    </g>
    <g id="xtick_2">
     <g id="line2d_2">
      <g>
       <use style="stroke:#000000;stroke-width:0.8;" x="177.918651" xlink:href="#md768c2c144" y="307.584"/>
      </g>
     </g>
     <g id="text_2">
      <!-- 4 -->
      <defs>
       <path d="M 37.796875 64.3125 
L 12.890625 25.390625 
L 37.796875 25.390625 
z
M 35.203125 72.90625 
L 47.609375 72.90625 
L 47.609375 25.390625 
L 58.015625 25.390625 
L 58.015625 17.1875 
L 47.609375 17.1875 
L 47.609375 0 
L 37.796875 0 
L 37.796875 17.1875 
L 4.890625 17.1875 
L 4.890625 26.703125 
z
" id="DejaVuSans-52"/>
      </defs>
      <g transform="translate(174.737401 322.182437)scale(0.1 -0.1)">
       <use xlink:href="#DejaVuSans-52"/>
      </g>
     </g>
    </g>
    <g id="xtick_3">
     <g id="line2d_3">
      <g>
       <use style="stroke:#000000;stroke-width:0.8;" x="243.791633" xlink:href="#md768c2c144" y="307.584"/>
      </g>
     </g>
     <g id="text_3">
      <!-- 6 -->
      <defs>
       <path d="M 33.015625 40.375 
Q 26.375 40.375 22.484375 35.828125 
Q 18.609375 31.296875 18.609375 23.390625 
Q 18.609375 15.53125 22.484375 10.953125 
Q 26.375 6.390625 33.015625 6.390625 
Q 39.65625 6.390625 43.53125 10.953125 
Q 47.40625 15.53125 47.40625 23.390625 
Q 47.40625 31.296875 43.53125 35.828125 
Q 39.65625 40.375 33.015625 40.375 
z
M 52.59375 71.296875 
L 52.59375 62.3125 
Q 48.875 64.0625 45.09375 64.984375 
Q 41.3125 65.921875 37.59375 65.921875 
Q 27.828125 65.921875 22.671875 59.328125 
Q 17.53125 52.734375 16.796875 39.40625 
Q 19.671875 43.65625 24.015625 45.921875 
Q 28.375 48.1875 33.59375 48.1875 
Q 44.578125 48.1875 50.953125 41.515625 
Q 57.328125 34.859375 57.328125 23.390625 
Q 57.328125 12.15625 50.6875 5.359375 
Q 44.046875 -1.421875 33.015625 -1.421875 
Q 20.359375 -1.421875 13.671875 8.265625 
Q 6.984375 17.96875 6.984375 36.375 
Q 6.984375 53.65625 15.1875 63.9375 
Q 23.390625 74.21875 37.203125 74.21875 
Q 40.921875 74.21875 44.703125 73.484375 
Q 48.484375 72.75 52.59375 71.296875 
z
" id="DejaVuSans-54"/>
      </defs>
      <g transform="translate(240.610383 322.182437)scale(0.1 -0.1)">
       <use xlink:href="#DejaVuSans-54"/>
      </g>
     </g>
    </g>
    <g id="xtick_4">
     <g id="line2d_4">
      <g>
       <use style="stroke:#000000;stroke-width:0.8;" x="309.664616" xlink:href="#md768c2c144" y="307.584"/>
      </g>
     </g>
     <g id="text_4">
      <!-- 8 -->
      <defs>
       <path d="M 31.78125 34.625 
Q 24.75 34.625 20.71875 30.859375 
Q 16.703125 27.09375 16.703125 20.515625 
Q 16.703125 13.921875 20.71875 10.15625 
Q 24.75 6.390625 31.78125 6.390625 
Q 38.8125 6.390625 42.859375 10.171875 
Q 46.921875 13.96875 46.921875 20.515625 
Q 46.921875 27.09375 42.890625 30.859375 
Q 38.875 34.625 31.78125 34.625 
z
M 21.921875 38.8125 
Q 15.578125 40.375 12.03125 44.71875 
Q 8.5 49.078125 8.5 55.328125 
Q 8.5 64.0625 14.71875 69.140625 
Q 20.953125 74.21875 31.78125 74.21875 
Q 42.671875 74.21875 48.875 69.140625 
Q 55.078125 64.0625 55.078125 55.328125 
Q 55.078125 49.078125 51.53125 44.71875 
Q 48 40.375 41.703125 38.8125 
Q 48.828125 37.15625 52.796875 32.3125 
Q 56.78125 27.484375 56.78125 20.515625 
Q 56.78125 9.90625 50.3125 4.234375 
Q 43.84375 -1.421875 31.78125 -1.421875 
Q 19.734375 -1.421875 13.25 4.234375 
Q 6.78125 9.90625 6.78125 20.515625 
Q 6.78125 27.484375 10.78125 32.3125 
Q 14.796875 37.15625 21.921875 38.8125 
z
M 18.3125 54.390625 
Q 18.3125 48.734375 21.84375 45.5625 
Q 25.390625 42.390625 31.78125 42.390625 
Q 38.140625 42.390625 41.71875 45.5625 
Q 45.3125 48.734375 45.3125 54.390625 
Q 45.3125 60.0625 41.71875 63.234375 
Q 38.140625 66.40625 31.78125 66.40625 
Q 25.390625 66.40625 21.84375 63.234375 
Q 18.3125 60.0625 18.3125 54.390625 
z
" id="DejaVuSans-56"/>
      </defs>
      <g transform="translate(306.483366 322.182437)scale(0.1 -0.1)">
       <use xlink:href="#DejaVuSans-56"/>
      </g>
     </g>
    </g>
    <g id="xtick_5">
     <g id="line2d_5">
      <g>
       <use style="stroke:#000000;stroke-width:0.8;" x="375.537598" xlink:href="#md768c2c144" y="307.584"/>
      </g>
     </g>
     <g id="text_5">
      <!-- 10 -->
      <defs>
       <path d="M 12.40625 8.296875 
L 28.515625 8.296875 
L 28.515625 63.921875 
L 10.984375 60.40625 
L 10.984375 69.390625 
L 28.421875 72.90625 
L 38.28125 72.90625 
L 38.28125 8.296875 
L 54.390625 8.296875 
L 54.390625 0 
L 12.40625 0 
z
" id="DejaVuSans-49"/>
       <path d="M 31.78125 66.40625 
Q 24.171875 66.40625 20.328125 58.90625 
Q 16.5 51.421875 16.5 36.375 
Q 16.5 21.390625 20.328125 13.890625 
Q 24.171875 6.390625 31.78125 6.390625 
Q 39.453125 6.390625 43.28125 13.890625 
Q 47.125 21.390625 47.125 36.375 
Q 47.125 51.421875 43.28125 58.90625 
Q 39.453125 66.40625 31.78125 66.40625 
z
M 31.78125 74.21875 
Q 44.046875 74.21875 50.515625 64.515625 
Q 56.984375 54.828125 56.984375 36.375 
Q 56.984375 17.96875 50.515625 8.265625 
Q 44.046875 -1.421875 31.78125 -1.421875 
Q 19.53125 -1.421875 13.0625 8.265625 
Q 6.59375 17.96875 6.59375 36.375 
Q 6.59375 54.828125 13.0625 64.515625 
Q 19.53125 74.21875 31.78125 74.21875 
z
" id="DejaVuSans-48"/>
      </defs>
      <g transform="translate(369.175098 322.182437)scale(0.1 -0.1)">
       <use xlink:href="#DejaVuSans-49"/>
       <use x="63.623047" xlink:href="#DejaVuSans-48"/>
      </g>
     </g>
    </g>
    <g id="text_6">
     <!-- $t$ -->
     <defs>
      <path d="M 42.28125 54.6875 
L 40.921875 47.703125 
L 23 47.703125 
L 17.1875 18.015625 
Q 16.890625 16.359375 16.75 15.234375 
Q 16.609375 14.109375 16.609375 13.484375 
Q 16.609375 10.359375 18.484375 8.9375 
Q 20.359375 7.515625 24.515625 7.515625 
L 33.59375 7.515625 
L 32.078125 0 
L 23.484375 0 
Q 15.484375 0 11.546875 3.125 
Q 7.625 6.25 7.625 12.59375 
Q 7.625 13.71875 7.765625 15.0625 
Q 7.90625 16.40625 8.203125 18.015625 
L 14.015625 47.703125 
L 6.390625 47.703125 
L 7.8125 54.6875 
L 15.28125 54.6875 
L 18.3125 70.21875 
L 27.296875 70.21875 
L 24.3125 54.6875 
z
" id="DejaVuSans-Oblique-116"/>
     </defs>
     <g transform="translate(234.16 335.860562)scale(0.1 -0.1)">
      <use transform="translate(0 0.78125)" xlink:href="#DejaVuSans-Oblique-116"/>
     </g>
    </g>
   </g>
   <g id="matplotlib.axis_2">
    <g id="ytick_1">
     <g id="line2d_6">
      <defs>
       <path d="M 0 0 
L -3.5 0 
" id="m01bc871c76" style="stroke:#000000;stroke-width:0.8;"/>
      </defs>
      <g>
       <use style="stroke:#000000;stroke-width:0.8;" x="57.6" xlink:href="#m01bc871c76" y="270.274252"/>
      </g>
     </g>
     <g id="text_7">
      <!-- 2 -->
      <g transform="translate(44.2375 274.073471)scale(0.1 -0.1)">
       <use xlink:href="#DejaVuSans-50"/>
      </g>
     </g>
    </g>
    <g id="ytick_2">
     <g id="line2d_7">
      <g>
       <use style="stroke:#000000;stroke-width:0.8;" x="57.6" xlink:href="#m01bc871c76" y="218.233894"/>
      </g>
     </g>
     <g id="text_8">
      <!-- 4 -->
      <g transform="translate(44.2375 222.033113)scale(0.1 -0.1)">
       <use xlink:href="#DejaVuSans-52"/>
      </g>
     </g>
    </g>
    <g id="ytick_3">
     <g id="line2d_8">
      <g>
       <use style="stroke:#000000;stroke-width:0.8;" x="57.6" xlink:href="#m01bc871c76" y="166.193535"/>
      </g>
     </g>
     <g id="text_9">
      <!-- 6 -->
      <g transform="translate(44.2375 169.992754)scale(0.1 -0.1)">
       <use xlink:href="#DejaVuSans-54"/>
      </g>
     </g>
    </g>
    <g id="ytick_4">
     <g id="line2d_9">
      <g>
       <use style="stroke:#000000;stroke-width:0.8;" x="57.6" xlink:href="#m01bc871c76" y="114.153176"/>
      </g>
     </g>
     <g id="text_10">
      <!-- 8 -->
      <g transform="translate(44.2375 117.952395)scale(0.1 -0.1)">
       <use xlink:href="#DejaVuSans-56"/>
      </g>
     </g>
    </g>
    <g id="ytick_5">
     <g id="line2d_10">
      <g>
       <use style="stroke:#000000;stroke-width:0.8;" x="57.6" xlink:href="#m01bc871c76" y="62.112818"/>
      </g>
     </g>
     <g id="text_11">
      <!-- 10 -->
      <g transform="translate(37.875 65.912036)scale(0.1 -0.1)">
       <use xlink:href="#DejaVuSans-49"/>
       <use x="63.623047" xlink:href="#DejaVuSans-48"/>
      </g>
     </g>
    </g>
    <g id="text_12">
     <!-- $\log(||\Delta ||)$ -->
     <defs>
      <path d="M 9.421875 75.984375 
L 18.40625 75.984375 
L 18.40625 0 
L 9.421875 0 
z
" id="DejaVuSans-108"/>
      <path d="M 30.609375 48.390625 
Q 23.390625 48.390625 19.1875 42.75 
Q 14.984375 37.109375 14.984375 27.296875 
Q 14.984375 17.484375 19.15625 11.84375 
Q 23.34375 6.203125 30.609375 6.203125 
Q 37.796875 6.203125 41.984375 11.859375 
Q 46.1875 17.53125 46.1875 27.296875 
Q 46.1875 37.015625 41.984375 42.703125 
Q 37.796875 48.390625 30.609375 48.390625 
z
M 30.609375 56 
Q 42.328125 56 49.015625 48.375 
Q 55.71875 40.765625 55.71875 27.296875 
Q 55.71875 13.875 49.015625 6.21875 
Q 42.328125 -1.421875 30.609375 -1.421875 
Q 18.84375 -1.421875 12.171875 6.21875 
Q 5.515625 13.875 5.515625 27.296875 
Q 5.515625 40.765625 12.171875 48.375 
Q 18.84375 56 30.609375 56 
z
" id="DejaVuSans-111"/>
      <path d="M 45.40625 27.984375 
Q 45.40625 37.75 41.375 43.109375 
Q 37.359375 48.484375 30.078125 48.484375 
Q 22.859375 48.484375 18.828125 43.109375 
Q 14.796875 37.75 14.796875 27.984375 
Q 14.796875 18.265625 18.828125 12.890625 
Q 22.859375 7.515625 30.078125 7.515625 
Q 37.359375 7.515625 41.375 12.890625 
Q 45.40625 18.265625 45.40625 27.984375 
z
M 54.390625 6.78125 
Q 54.390625 -7.171875 48.1875 -13.984375 
Q 42 -20.796875 29.203125 -20.796875 
Q 24.46875 -20.796875 20.265625 -20.09375 
Q 16.0625 -19.390625 12.109375 -17.921875 
L 12.109375 -9.1875 
Q 16.0625 -11.328125 19.921875 -12.34375 
Q 23.78125 -13.375 27.78125 -13.375 
Q 36.625 -13.375 41.015625 -8.765625 
Q 45.40625 -4.15625 45.40625 5.171875 
L 45.40625 9.625 
Q 42.625 4.78125 38.28125 2.390625 
Q 33.9375 0 27.875 0 
Q 17.828125 0 11.671875 7.65625 
Q 5.515625 15.328125 5.515625 27.984375 
Q 5.515625 40.671875 11.671875 48.328125 
Q 17.828125 56 27.875 56 
Q 33.9375 56 38.28125 53.609375 
Q 42.625 51.21875 45.40625 46.390625 
L 45.40625 54.6875 
L 54.390625 54.6875 
z
" id="DejaVuSans-103"/>
      <path d="M 31 75.875 
Q 24.46875 64.65625 21.28125 53.65625 
Q 18.109375 42.671875 18.109375 31.390625 
Q 18.109375 20.125 21.3125 9.0625 
Q 24.515625 -2 31 -13.1875 
L 23.1875 -13.1875 
Q 15.875 -1.703125 12.234375 9.375 
Q 8.59375 20.453125 8.59375 31.390625 
Q 8.59375 42.28125 12.203125 53.3125 
Q 15.828125 64.359375 23.1875 75.875 
z
" id="DejaVuSans-40"/>
      <path d="M 21 76.421875 
L 21 -23.578125 
L 12.703125 -23.578125 
L 12.703125 76.421875 
z
" id="DejaVuSans-124"/>
      <path d="M 34.1875 63.1875 
L 14.15625 8.203125 
L 54.25 8.203125 
z
M 0.78125 0 
L 28.609375 72.90625 
L 39.796875 72.90625 
L 67.578125 0 
z
" id="DejaVuSans-916"/>
      <path d="M 8.015625 75.875 
L 15.828125 75.875 
Q 23.140625 64.359375 26.78125 53.3125 
Q 30.421875 42.28125 30.421875 31.390625 
Q 30.421875 20.453125 26.78125 9.375 
Q 23.140625 -1.703125 15.828125 -13.1875 
L 8.015625 -13.1875 
Q 14.5 -2 17.703125 9.0625 
Q 20.90625 20.125 20.90625 31.390625 
Q 20.90625 42.671875 17.703125 53.65625 
Q 14.5 64.65625 8.015625 75.875 
z
" id="DejaVuSans-41"/>
     </defs>
     <g transform="translate(31.475 196.228)rotate(-90)scale(0.1 -0.1)">
      <use transform="translate(0 0.578125)" xlink:href="#DejaVuSans-108"/>
      <use transform="translate(27.783203 0.578125)" xlink:href="#DejaVuSans-111"/>
      <use transform="translate(88.964844 0.578125)" xlink:href="#DejaVuSans-103"/>
      <use transform="translate(152.441406 0.578125)" xlink:href="#DejaVuSans-40"/>
      <use transform="translate(191.455078 0.578125)" xlink:href="#DejaVuSans-124"/>
      <use transform="translate(225.146484 0.578125)" xlink:href="#DejaVuSans-124"/>
      <use transform="translate(258.837891 0.578125)" xlink:href="#DejaVuSans-916"/>
      <use transform="translate(327.246094 0.578125)" xlink:href="#DejaVuSans-124"/>
      <use transform="translate(360.9375 0.578125)" xlink:href="#DejaVuSans-124"/>
      <use transform="translate(394.628906 0.578125)" xlink:href="#DejaVuSans-41"/>
     </g>
    </g>
   </g>
   <g id="line2d_11">
    <path clip-path="url(#pe98b90281e)" d="M 75.964363 293.365895 
L 75.964363 293.365895 
L 109.066225 284.054637 
L 109.066225 284.054637 
L 119.770243 281.564407 
L 119.770243 232.800709 
L 130.463098 230.810427 
L 130.463098 230.810427 
L 163.559644 218.576439 
L 163.559644 218.576439 
L 196.65619 207.901386 
L 196.65619 207.901386 
L 228.197736 200.219823 
L 228.197736 200.219823 
L 229.752736 199.888703 
L 229.752736 199.888703 
L 262.849282 193.634085 
L 262.849282 193.634085 
L 295.945828 188.542046 
L 295.945828 188.542046 
L 312.113624 186.364998 
L 312.113624 82.130259 
L 329.27051 78.818017 
L 329.27051 78.818017 
L 355.671638 68.754277 
L 355.671638 68.754277 
L 362.813074 66.117715 
L 362.813074 66.117715 
L 396.355637 55.690105 
L 396.355637 55.690105 
" style="fill:none;stroke:#000000;stroke-linecap:square;stroke-width:0.5;"/>
   </g>
   <g id="patch_3">
    <path d="M 57.6 307.584 
L 57.6 41.472 
" style="fill:none;stroke:#000000;stroke-linecap:square;stroke-linejoin:miter;stroke-width:0.8;"/>
   </g>
   <g id="patch_4">
    <path d="M 414.72 307.584 
L 414.72 41.472 
" style="fill:none;stroke:#000000;stroke-linecap:square;stroke-linejoin:miter;stroke-width:0.8;"/>
   </g>
   <g id="patch_5">
    <path d="M 57.6 307.584 
L 414.72 307.584 
" style="fill:none;stroke:#000000;stroke-linecap:square;stroke-linejoin:miter;stroke-width:0.8;"/>
   </g>
   <g id="patch_6">
    <path d="M 57.6 41.472 
L 414.72 41.472 
" style="fill:none;stroke:#000000;stroke-linecap:square;stroke-linejoin:miter;stroke-width:0.8;"/>
   </g>
  </g>
 </g>
 <defs>
  <clipPath id="pe98b90281e">
   <rect height="266.112" width="357.12" x="57.6" y="41.472"/>
  </clipPath>
 </defs>
</svg>
