<?xml version="1.0" encoding="utf-8" standalone="no"?>
<!DOCTYPE svg PUBLIC "-//W3C//DTD SVG 1.1//EN"
  "http://www.w3.org/Graphics/SVG/1.1/DTD/svg11.dtd">
<!-- Created with matplotlib (https://matplotlib.org/) -->
<svg height="345.6pt" version="1.1" viewBox="0 0 460.8 345.6" width="460.8pt" xmlns="http://www.w3.org/2000/svg" xmlns:xlink="http://www.w3.org/1999/xlink">
 <defs>
  <style type="text/css">
*{stroke-linecap:butt;stroke-linejoin:round;}
  </style>
 </defs>
 <g id="figure_1">
  <g id="patch_1">
   <path d="M 0 345.6 
L 460.8 345.6 
L 460.8 0 
L 0 0 
z
" style="fill:#ffffff;"/>
  </g>
  <g id="axes_1">
   <g id="patch_2">
    <path d="M 57.6 263.808 
L 414.72 263.808 
L 414.72 85.248 
L 57.6 85.248 
z
" style="fill:#ffffff;"/>
   </g>
   <g id="PathCollection_1">
    <defs>
     <path d="M 0 3 
C 0.795609 3 1.55874 2.683901 2.12132 2.12132 
C 2.683901 1.55874 3 0.795609 3 0 
C 3 -0.795609 2.683901 -1.55874 2.12132 -2.12132 
C 1.55874 -2.683901 0.795609 -3 0 -3 
C -0.795609 -3 -1.55874 -2.683901 -2.12132 -2.12132 
C -2.683901 -1.55874 -3 -0.795609 -3 0 
C -3 0.795609 -2.683901 1.55874 -2.12132 2.12132 
C -1.55874 2.683901 -0.795609 3 0 3 
z
" id="m1f85709282" style="stroke:#000000;"/>
    </defs>
    <g clip-path="url(#p68eb1e6aec)">
     <use style="stroke:#000000;" x="139.578744" xlink:href="#m1f85709282" y="104.525761"/>
    </g>
   </g>
   <g id="patch_3">
    <path clip-path="url(#p68eb1e6aec)" d="M 161.76 211.728 
C 171.625555 211.728 181.088371 207.808373 188.064372 200.832372 
C 195.040373 193.856371 198.96 184.393555 198.96 174.528 
C 198.96 164.662445 195.040373 155.199629 188.064372 148.223628 
C 181.088371 141.247627 171.625555 137.328 161.76 137.328 
C 151.894445 137.328 142.431629 141.247627 135.455628 148.223628 
C 128.479627 155.199629 124.56 164.662445 124.56 174.528 
C 124.56 184.393555 128.479627 193.856371 135.455628 200.832372 
C 142.431629 207.808373 151.894445 211.728 161.76 211.728 
z
" style="fill:#cc0000;fill-opacity:0.1;stroke:#cc0000;stroke-dasharray:7.4,3.2;stroke-dashoffset:0;stroke-linejoin:miter;stroke-width:2;"/>
   </g>
   <g id="patch_4">
    <path clip-path="url(#p68eb1e6aec)" d="M 310.56 196.848 
C 316.479333 196.848 322.157023 194.496224 326.342623 190.310623 
C 330.528224 186.125023 332.88 180.447333 332.88 174.528 
C 332.88 168.608667 330.528224 162.930977 326.342623 158.745377 
C 322.157023 154.559776 316.479333 152.208 310.56 152.208 
C 304.640667 152.208 298.962977 154.559776 294.777377 158.745377 
C 290.591776 162.930977 288.24 168.608667 288.24 174.528 
C 288.24 180.447333 290.591776 186.125023 294.777377 190.310623 
C 298.962977 194.496224 304.640667 196.848 310.56 196.848 
z
" style="fill:#cc0000;fill-opacity:0.1;stroke:#cc0000;stroke-dasharray:7.4,3.2;stroke-dashoffset:0;stroke-linejoin:miter;stroke-width:2;"/>
   </g>
   <g id="matplotlib.axis_1">
    <g id="xtick_1">
     <g id="line2d_1">
      <defs>
       <path d="M 0 0 
L 0 3.5 
" id="mc95a458a68" style="stroke:#000000;stroke-width:0.8;"/>
      </defs>
      <g>
       <use style="stroke:#000000;stroke-width:0.8;" x="87.36" xlink:href="#mc95a458a68" y="263.808"/>
      </g>
     </g>
     <g id="text_1">
      <!-- 0.0 -->
      <defs>
       <path d="M 31.78125 66.40625 
Q 24.171875 66.40625 20.328125 58.90625 
Q 16.5 51.421875 16.5 36.375 
Q 16.5 21.390625 20.328125 13.890625 
Q 24.171875 6.390625 31.78125 6.390625 
Q 39.453125 6.390625 43.28125 13.890625 
Q 47.125 21.390625 47.125 36.375 
Q 47.125 51.421875 43.28125 58.90625 
Q 39.453125 66.40625 31.78125 66.40625 
z
M 31.78125 74.21875 
Q 44.046875 74.21875 50.515625 64.515625 
Q 56.984375 54.828125 56.984375 36.375 
Q 56.984375 17.96875 50.515625 8.265625 
Q 44.046875 -1.421875 31.78125 -1.421875 
Q 19.53125 -1.421875 13.0625 8.265625 
Q 6.59375 17.96875 6.59375 36.375 
Q 6.59375 54.828125 13.0625 64.515625 
Q 19.53125 74.21875 31.78125 74.21875 
z
" id="DejaVuSans-48"/>
       <path d="M 10.6875 12.40625 
L 21 12.40625 
L 21 0 
L 10.6875 0 
z
" id="DejaVuSans-46"/>
      </defs>
      <g transform="translate(79.408438 278.406437)scale(0.1 -0.1)">
       <use xlink:href="#DejaVuSans-48"/>
       <use x="63.623047" xlink:href="#DejaVuSans-46"/>
       <use x="95.410156" xlink:href="#DejaVuSans-48"/>
      </g>
     </g>
    </g>
    <g id="xtick_2">
     <g id="line2d_2">
      <g>
       <use style="stroke:#000000;stroke-width:0.8;" x="161.76" xlink:href="#mc95a458a68" y="263.808"/>
      </g>
     </g>
     <g id="text_2">
      <!-- 0.5 -->
      <defs>
       <path d="M 10.796875 72.90625 
L 49.515625 72.90625 
L 49.515625 64.59375 
L 19.828125 64.59375 
L 19.828125 46.734375 
Q 21.96875 47.46875 24.109375 47.828125 
Q 26.265625 48.1875 28.421875 48.1875 
Q 40.625 48.1875 47.75 41.5 
Q 54.890625 34.8125 54.890625 23.390625 
Q 54.890625 11.625 47.5625 5.09375 
Q 40.234375 -1.421875 26.90625 -1.421875 
Q 22.3125 -1.421875 17.546875 -0.640625 
Q 12.796875 0.140625 7.71875 1.703125 
L 7.71875 11.625 
Q 12.109375 9.234375 16.796875 8.0625 
Q 21.484375 6.890625 26.703125 6.890625 
Q 35.15625 6.890625 40.078125 11.328125 
Q 45.015625 15.765625 45.015625 23.390625 
Q 45.015625 31 40.078125 35.4375 
Q 35.15625 39.890625 26.703125 39.890625 
Q 22.75 39.890625 18.8125 39.015625 
Q 14.890625 38.140625 10.796875 36.28125 
z
" id="DejaVuSans-53"/>
      </defs>
      <g transform="translate(153.808437 278.406437)scale(0.1 -0.1)">
       <use xlink:href="#DejaVuSans-48"/>
       <use x="63.623047" xlink:href="#DejaVuSans-46"/>
       <use x="95.410156" xlink:href="#DejaVuSans-53"/>
      </g>
     </g>
    </g>
    <g id="xtick_3">
     <g id="line2d_3">
      <g>
       <use style="stroke:#000000;stroke-width:0.8;" x="236.16" xlink:href="#mc95a458a68" y="263.808"/>
      </g>
     </g>
     <g id="text_3">
      <!-- 1.0 -->
      <defs>
       <path d="M 12.40625 8.296875 
L 28.515625 8.296875 
L 28.515625 63.921875 
L 10.984375 60.40625 
L 10.984375 69.390625 
L 28.421875 72.90625 
L 38.28125 72.90625 
L 38.28125 8.296875 
L 54.390625 8.296875 
L 54.390625 0 
L 12.40625 0 
z
" id="DejaVuSans-49"/>
      </defs>
      <g transform="translate(228.208437 278.406437)scale(0.1 -0.1)">
       <use xlink:href="#DejaVuSans-49"/>
       <use x="63.623047" xlink:href="#DejaVuSans-46"/>
       <use x="95.410156" xlink:href="#DejaVuSans-48"/>
      </g>
     </g>
    </g>
    <g id="xtick_4">
     <g id="line2d_4">
      <g>
       <use style="stroke:#000000;stroke-width:0.8;" x="310.56" xlink:href="#mc95a458a68" y="263.808"/>
      </g>
     </g>
     <g id="text_4">
      <!-- 1.5 -->
      <g transform="translate(302.608437 278.406437)scale(0.1 -0.1)">
       <use xlink:href="#DejaVuSans-49"/>
       <use x="63.623047" xlink:href="#DejaVuSans-46"/>
       <use x="95.410156" xlink:href="#DejaVuSans-53"/>
      </g>
     </g>
    </g>
    <g id="xtick_5">
     <g id="line2d_5">
      <g>
       <use style="stroke:#000000;stroke-width:0.8;" x="384.96" xlink:href="#mc95a458a68" y="263.808"/>
      </g>
     </g>
     <g id="text_5">
      <!-- 2.0 -->
      <defs>
       <path d="M 19.1875 8.296875 
L 53.609375 8.296875 
L 53.609375 0 
L 7.328125 0 
L 7.328125 8.296875 
Q 12.9375 14.109375 22.625 23.890625 
Q 32.328125 33.6875 34.8125 36.53125 
Q 39.546875 41.84375 41.421875 45.53125 
Q 43.3125 49.21875 43.3125 52.78125 
Q 43.3125 58.59375 39.234375 62.25 
Q 35.15625 65.921875 28.609375 65.921875 
Q 23.96875 65.921875 18.8125 64.3125 
Q 13.671875 62.703125 7.8125 59.421875 
L 7.8125 69.390625 
Q 13.765625 71.78125 18.9375 73 
Q 24.125 74.21875 28.421875 74.21875 
Q 39.75 74.21875 46.484375 68.546875 
Q 53.21875 62.890625 53.21875 53.421875 
Q 53.21875 48.921875 51.53125 44.890625 
Q 49.859375 40.875 45.40625 35.40625 
Q 44.1875 33.984375 37.640625 27.21875 
Q 31.109375 20.453125 19.1875 8.296875 
z
" id="DejaVuSans-50"/>
      </defs>
      <g transform="translate(377.008437 278.406437)scale(0.1 -0.1)">
       <use xlink:href="#DejaVuSans-50"/>
       <use x="63.623047" xlink:href="#DejaVuSans-46"/>
       <use x="95.410156" xlink:href="#DejaVuSans-48"/>
      </g>
     </g>
    </g>
   </g>
   <g id="matplotlib.axis_2">
    <g id="ytick_1">
     <g id="line2d_6">
      <defs>
       <path d="M 0 0 
L -3.5 0 
" id="m0b9f4f43d6" style="stroke:#000000;stroke-width:0.8;"/>
      </defs>
      <g>
       <use style="stroke:#000000;stroke-width:0.8;" x="57.6" xlink:href="#m0b9f4f43d6" y="248.928"/>
      </g>
     </g>
     <g id="text_6">
      <!-- 0.0 -->
      <g transform="translate(34.696875 252.727219)scale(0.1 -0.1)">
       <use xlink:href="#DejaVuSans-48"/>
       <use x="63.623047" xlink:href="#DejaVuSans-46"/>
       <use x="95.410156" xlink:href="#DejaVuSans-48"/>
      </g>
     </g>
    </g>
    <g id="ytick_2">
     <g id="line2d_7">
      <g>
       <use style="stroke:#000000;stroke-width:0.8;" x="57.6" xlink:href="#m0b9f4f43d6" y="219.168"/>
      </g>
     </g>
     <g id="text_7">
      <!-- 0.2 -->
      <g transform="translate(34.696875 222.967219)scale(0.1 -0.1)">
       <use xlink:href="#DejaVuSans-48"/>
       <use x="63.623047" xlink:href="#DejaVuSans-46"/>
       <use x="95.410156" xlink:href="#DejaVuSans-50"/>
      </g>
     </g>
    </g>
    <g id="ytick_3">
     <g id="line2d_8">
      <g>
       <use style="stroke:#000000;stroke-width:0.8;" x="57.6" xlink:href="#m0b9f4f43d6" y="189.408"/>
      </g>
     </g>
     <g id="text_8">
      <!-- 0.4 -->
      <defs>
       <path d="M 37.796875 64.3125 
L 12.890625 25.390625 
L 37.796875 25.390625 
z
M 35.203125 72.90625 
L 47.609375 72.90625 
L 47.609375 25.390625 
L 58.015625 25.390625 
L 58.015625 17.1875 
L 47.609375 17.1875 
L 47.609375 0 
L 37.796875 0 
L 37.796875 17.1875 
L 4.890625 17.1875 
L 4.890625 26.703125 
z
" id="DejaVuSans-52"/>
      </defs>
      <g transform="translate(34.696875 193.207219)scale(0.1 -0.1)">
       <use xlink:href="#DejaVuSans-48"/>
       <use x="63.623047" xlink:href="#DejaVuSans-46"/>
       <use x="95.410156" xlink:href="#DejaVuSans-52"/>
      </g>
     </g>
    </g>
    <g id="ytick_4">
     <g id="line2d_9">
      <g>
       <use style="stroke:#000000;stroke-width:0.8;" x="57.6" xlink:href="#m0b9f4f43d6" y="159.648"/>
      </g>
     </g>
     <g id="text_9">
      <!-- 0.6 -->
      <defs>
       <path d="M 33.015625 40.375 
Q 26.375 40.375 22.484375 35.828125 
Q 18.609375 31.296875 18.609375 23.390625 
Q 18.609375 15.53125 22.484375 10.953125 
Q 26.375 6.390625 33.015625 6.390625 
Q 39.65625 6.390625 43.53125 10.953125 
Q 47.40625 15.53125 47.40625 23.390625 
Q 47.40625 31.296875 43.53125 35.828125 
Q 39.65625 40.375 33.015625 40.375 
z
M 52.59375 71.296875 
L 52.59375 62.3125 
Q 48.875 64.0625 45.09375 64.984375 
Q 41.3125 65.921875 37.59375 65.921875 
Q 27.828125 65.921875 22.671875 59.328125 
Q 17.53125 52.734375 16.796875 39.40625 
Q 19.671875 43.65625 24.015625 45.921875 
Q 28.375 48.1875 33.59375 48.1875 
Q 44.578125 48.1875 50.953125 41.515625 
Q 57.328125 34.859375 57.328125 23.390625 
Q 57.328125 12.15625 50.6875 5.359375 
Q 44.046875 -1.421875 33.015625 -1.421875 
Q 20.359375 -1.421875 13.671875 8.265625 
Q 6.984375 17.96875 6.984375 36.375 
Q 6.984375 53.65625 15.1875 63.9375 
Q 23.390625 74.21875 37.203125 74.21875 
Q 40.921875 74.21875 44.703125 73.484375 
Q 48.484375 72.75 52.59375 71.296875 
z
" id="DejaVuSans-54"/>
      </defs>
      <g transform="translate(34.696875 163.447219)scale(0.1 -0.1)">
       <use xlink:href="#DejaVuSans-48"/>
       <use x="63.623047" xlink:href="#DejaVuSans-46"/>
       <use x="95.410156" xlink:href="#DejaVuSans-54"/>
      </g>
     </g>
    </g>
    <g id="ytick_5">
     <g id="line2d_10">
      <g>
       <use style="stroke:#000000;stroke-width:0.8;" x="57.6" xlink:href="#m0b9f4f43d6" y="129.888"/>
      </g>
     </g>
     <g id="text_10">
      <!-- 0.8 -->
      <defs>
       <path d="M 31.78125 34.625 
Q 24.75 34.625 20.71875 30.859375 
Q 16.703125 27.09375 16.703125 20.515625 
Q 16.703125 13.921875 20.71875 10.15625 
Q 24.75 6.390625 31.78125 6.390625 
Q 38.8125 6.390625 42.859375 10.171875 
Q 46.921875 13.96875 46.921875 20.515625 
Q 46.921875 27.09375 42.890625 30.859375 
Q 38.875 34.625 31.78125 34.625 
z
M 21.921875 38.8125 
Q 15.578125 40.375 12.03125 44.71875 
Q 8.5 49.078125 8.5 55.328125 
Q 8.5 64.0625 14.71875 69.140625 
Q 20.953125 74.21875 31.78125 74.21875 
Q 42.671875 74.21875 48.875 69.140625 
Q 55.078125 64.0625 55.078125 55.328125 
Q 55.078125 49.078125 51.53125 44.71875 
Q 48 40.375 41.703125 38.8125 
Q 48.828125 37.15625 52.796875 32.3125 
Q 56.78125 27.484375 56.78125 20.515625 
Q 56.78125 9.90625 50.3125 4.234375 
Q 43.84375 -1.421875 31.78125 -1.421875 
Q 19.734375 -1.421875 13.25 4.234375 
Q 6.78125 9.90625 6.78125 20.515625 
Q 6.78125 27.484375 10.78125 32.3125 
Q 14.796875 37.15625 21.921875 38.8125 
z
M 18.3125 54.390625 
Q 18.3125 48.734375 21.84375 45.5625 
Q 25.390625 42.390625 31.78125 42.390625 
Q 38.140625 42.390625 41.71875 45.5625 
Q 45.3125 48.734375 45.3125 54.390625 
Q 45.3125 60.0625 41.71875 63.234375 
Q 38.140625 66.40625 31.78125 66.40625 
Q 25.390625 66.40625 21.84375 63.234375 
Q 18.3125 60.0625 18.3125 54.390625 
z
" id="DejaVuSans-56"/>
      </defs>
      <g transform="translate(34.696875 133.687219)scale(0.1 -0.1)">
       <use xlink:href="#DejaVuSans-48"/>
       <use x="63.623047" xlink:href="#DejaVuSans-46"/>
       <use x="95.410156" xlink:href="#DejaVuSans-56"/>
      </g>
     </g>
    </g>
    <g id="ytick_6">
     <g id="line2d_11">
      <g>
       <use style="stroke:#000000;stroke-width:0.8;" x="57.6" xlink:href="#m0b9f4f43d6" y="100.128"/>
      </g>
     </g>
     <g id="text_11">
      <!-- 1.0 -->
      <g transform="translate(34.696875 103.927219)scale(0.1 -0.1)">
       <use xlink:href="#DejaVuSans-49"/>
       <use x="63.623047" xlink:href="#DejaVuSans-46"/>
       <use x="95.410156" xlink:href="#DejaVuSans-48"/>
      </g>
     </g>
    </g>
   </g>
   <g id="line2d_12">
    <path clip-path="url(#p68eb1e6aec)" d="M 236.16 248.928 
L 236.16 100.128 
" style="fill:none;stroke:#cc0000;stroke-dasharray:7.4,3.2;stroke-dashoffset:0;stroke-width:2;"/>
   </g>
   <g id="line2d_13">
    <path clip-path="url(#p68eb1e6aec)" d="M 87.36 248.928 
L 384.96 248.928 
" style="fill:none;stroke:#009900;stroke-linecap:square;stroke-width:2;"/>
   </g>
   <g id="line2d_14">
    <path clip-path="url(#p68eb1e6aec)" d="M 384.96 248.928 
L 384.96 100.128 
" style="fill:none;stroke:#009900;stroke-linecap:square;stroke-width:2;"/>
   </g>
   <g id="line2d_15">
    <path clip-path="url(#p68eb1e6aec)" d="M 384.96 100.128 
L 87.36 100.128 
" style="fill:none;stroke:#009900;stroke-linecap:square;stroke-width:2;"/>
   </g>
   <g id="line2d_16">
    <path clip-path="url(#p68eb1e6aec)" d="M 87.36 100.128 
L 87.36 248.928 
" style="fill:none;stroke:#009900;stroke-linecap:square;stroke-width:2;"/>
   </g>
   <g id="line2d_17">
    <path clip-path="url(#p68eb1e6aec)" d="M 139.578744 104.525761 
L 134.315842 101.746651 
L 130.994061 100.128 
L 125.663774 102.775568 
L 120.443624 105.634174 
L 115.341965 108.699243 
L 110.366956 111.965872 
L 105.526557 115.428836 
L 100.828511 119.082594 
L 96.280334 122.921301 
L 91.889303 126.938816 
L 87.36 131.44166 
L 91.574588 135.643901 
L 95.95385 139.674241 
L 100.49078 143.526234 
L 105.178119 147.193717 
L 110.008369 150.670823 
L 114.973802 153.95199 
L 120.066476 157.031967 
L 125.278241 159.905828 
L 128.506539 161.499735 
L 132.480321 163.532067 
L 136.325086 165.799026 
L 140.026996 168.292453 
L 143.572729 171.003375 
L 146.949524 173.922035 
L 150.145227 177.037929 
L 153.148339 180.339843 
L 155.948051 183.815895 
L 158.534287 187.453573 
L 160.897739 191.239786 
L 163.029902 195.160909 
L 164.923102 199.202828 
L 166.570525 203.350998 
L 167.966243 207.59049 
L 168.897979 211.036756 
L 168.380936 206.603474 
L 168.13066 202.147166 
L 168.148053 197.68387 
L 168.433052 193.229648 
L 168.984631 188.800531 
L 169.800805 184.412458 
L 170.878637 180.081223 
L 172.214247 175.822413 
L 173.80283 171.651355 
L 175.638667 167.583061 
L 177.715152 163.632171 
L 180.024811 159.812905 
L 182.559333 156.139008 
L 185.309596 152.623703 
L 188.265701 149.279639 
L 188.674244 148.847979 
L 185.217643 151.67167 
L 181.597943 154.283008 
L 177.82817 156.672596 
L 173.921891 158.831833 
L 169.893165 160.752948 
L 165.75649 162.429028 
L 161.526755 163.85404 
L 157.219182 165.022856 
L 152.849273 165.93127 
L 148.432756 166.576011 
L 143.985524 166.95476 
L 139.523584 167.066154 
L 135.062993 166.909792 
L 130.619805 166.486236 
L 126.210011 165.797011 
L 125.62626 165.685329 
L 129.867233 167.076538 
L 134.017153 168.71955 
L 138.061083 170.608451 
L 141.98447 172.736443 
L 145.773195 175.095868 
L 149.413621 177.678235 
L 152.892647 180.474249 
L 156.197753 183.473848 
L 159.317043 186.666237 
L 162.239292 190.039926 
L 164.953982 193.582774 
L 167.451344 197.282031 
L 169.72239 201.124383 
L 171.758946 205.096002 
L 173.553684 209.182594 
L 174.391368 211.088469 
L 176.995128 216.440292 
L 179.810821 221.683712 
L 182.833943 226.81034 
L 186.059657 231.811975 
L 189.482803 236.680615 
L 193.097904 241.408471 
L 196.899178 245.987979 
L 199.50923 248.928 
L 203.43016 244.450514 
L 207.168903 239.819814 
L 210.719477 235.043308 
L 214.076201 230.128637 
L 217.233705 225.083665 
L 220.186939 219.916462 
L 222.931178 214.635294 
L 225.462031 209.24861 
L 227.77545 203.765028 
L 229.867734 198.19332 
L 231.735535 192.5424 
L 233.375865 186.821307 
L 234.786101 181.039196 
L 235.963986 175.205314 
L 236.16 174.099609 
L 235.026175 168.257005 
L 233.659615 162.464415 
L 232.062506 156.731107 
L 230.237403 151.066252 
L 228.187227 145.478913 
L 225.915257 139.978028 
L 223.425127 134.572398 
L 220.720821 129.270671 
L 217.806666 124.081328 
L 214.687324 119.012671 
L 211.367785 114.072808 
L 207.853359 109.269644 
L 204.149669 104.610861 
L 200.284265 100.128 
L 196.398216 104.635794 
L 192.69554 109.295383 
L 189.182159 114.099312 
L 185.863694 119.039896 
L 182.745455 124.109232 
L 179.832429 129.299209 
L 177.129277 134.601524 
L 174.782911 139.681999 
L 172.980267 143.765109 
L 170.936026 147.732779 
L 168.657548 151.570728 
L 166.15303 155.265144 
L 163.431487 158.802731 
L 160.502714 162.170758 
L 157.37725 165.357103 
L 154.066345 168.350299 
L 150.581913 171.139574 
L 146.936495 173.714889 
L 143.143211 176.066977 
L 139.215712 178.187371 
L 135.168133 180.068441 
L 131.015042 181.703417 
L 126.771383 183.086415 
L 125.635764 183.409416 
L 127.093192 183.109459 
L 131.497376 182.385251 
L 135.937062 181.926438 
L 140.396271 181.734673 
L 144.858955 181.810644 
L 149.309052 182.154079 
L 153.730549 182.763742 
L 158.107531 183.637439 
L 162.424247 184.772024 
L 166.66516 186.163416 
L 170.815009 187.806606 
L 174.858858 189.695681 
L 178.782154 191.823842 
L 182.570777 194.183429 
L 186.211092 196.765952 
L 189.455927 199.362968 
L 188.386749 198.328111 
L 185.306341 195.098187 
L 182.425156 191.689362 
L 179.753563 188.113903 
L 177.301175 184.384679 
L 175.07682 180.51511 
L 173.088502 176.519123 
L 171.343378 172.411099 
L 169.847728 168.205823 
L 168.606934 163.918429 
L 167.625462 159.564347 
L 166.906844 155.159246 
L 166.453667 150.718982 
L 166.267562 146.259533 
L 166.349197 141.796949 
L 166.665696 137.652884 
L 166.413434 139.11932 
L 165.48145 143.484263 
L 164.289404 147.785466 
L 162.841586 152.007449 
L 161.143206 156.135017 
L 159.200376 160.153317 
L 157.020089 164.047886 
L 154.610192 167.804708 
L 151.979357 171.410263 
L 149.137053 174.851575 
L 146.093508 178.116258 
L 142.859677 181.192563 
L 139.447197 184.069419 
L 135.86835 186.736472 
L 132.136016 189.184124 
L 128.534427 191.258252 
L 129.887953 190.640159 
L 134.018882 188.949968 
L 138.243728 187.510525 
L 142.547286 186.327012 
L 146.914069 185.403687 
L 151.328359 184.743873 
L 155.774272 184.349945 
L 160.235806 184.22332 
L 164.696904 184.364455 
L 169.141512 184.772842 
L 173.553634 185.447009 
L 177.91739 186.384533 
L 182.217076 187.582037 
L 186.437218 189.035213 
L 190.562628 190.738831 
L 194.3058 192.544962 
L 193.032383 191.775234 
L 189.30803 189.315456 
L 185.737877 186.636776 
L 182.334772 183.748836 
L 179.110963 180.66203 
L 176.078053 177.387465 
L 173.246957 173.936927 
L 170.627863 170.322834 
L 168.230197 166.558194 
L 166.062589 162.656554 
L 164.132839 158.631957 
L 162.447893 154.498886 
L 161.013814 150.272216 
L 159.835764 145.967159 
L 158.917983 141.599208 
L 158.300309 137.489229 
L 158.382165 138.974951 
L 158.449285 143.437777 
L 158.248677 147.896597 
L 157.78106 152.335364 
L 157.048119 156.738103 
L 156.05249 161.08897 
L 154.797758 165.372306 
L 153.288438 169.572696 
L 151.529962 173.675022 
L 149.528657 177.66452 
L 147.291728 181.526834 
L 144.827225 185.248062 
L 142.144016 188.814813 
L 139.251759 192.214249 
L 136.160863 195.434137 
L 133.113925 198.260728 
L 134.295075 197.355767 
L 137.943771 194.785098 
L 141.740048 192.437845 
L 145.670245 190.322456 
L 149.720217 188.446544 
L 153.875388 186.81686 
L 158.120805 185.439269 
L 162.441188 184.31873 
L 166.820989 183.459274 
L 171.244444 182.863995 
L 175.695636 182.535036 
L 180.158543 182.47358 
L 184.617105 182.679848 
L 189.055275 183.153098 
L 193.45708 183.891627 
L 197.509228 184.815504 
L 196.095993 184.349844 
L 191.916103 182.784648 
L 187.83759 180.971625 
L 183.875133 178.917301 
L 180.042991 176.629069 
L 176.354956 174.115163 
L 172.824302 171.384633 
L 169.463735 168.447303 
L 166.285349 165.313746 
L 163.300582 161.995239 
L 160.520178 158.503724 
L 157.954143 154.851769 
L 155.61171 151.052515 
L 153.501311 147.119636 
L 151.630541 143.067287 
L 150.109944 139.199312 
L 150.521776 140.62916 
L 151.584605 144.964101 
L 152.385582 149.354972 
L 152.921824 153.785973 
L 153.191399 158.241155 
L 153.19334 162.704485 
L 152.927637 167.1599 
L 152.395248 171.591364 
L 151.598089 175.982931 
L 150.539028 180.318794 
L 149.221878 184.583349 
L 147.651377 188.761249 
L 145.833179 192.837458 
L 143.773827 196.797305 
L 141.480733 200.626539 
L 139.142586 204.0626 
L 140.091608 202.916551 
L 143.073488 199.595451 
L 146.249149 196.459131 
L 149.607161 193.518881 
L 153.13544 190.785282 
L 156.821288 188.268171 
L 160.651439 185.976608 
L 164.612109 183.91884 
L 168.689045 182.102272 
L 172.867572 180.533443 
L 177.132654 179.217998 
L 181.46894 178.160671 
L 185.860825 177.365268 
L 190.292502 176.834651 
L 194.748023 176.570731 
L 209.311131 176.186693 
L 215.237895 175.643508 
L 221.138196 174.863749 
L 227.002596 173.848665 
L 232.821712 172.59988 
L 236.16 171.772495 
L 230.3713 170.389552 
L 224.531927 169.239201 
L 218.651224 168.323283 
L 212.738597 167.643264 
L 206.803506 167.20023 
L 200.855446 166.99489 
L 198.186217 166.980106 
L 193.73506 167.309533 
L 189.27216 167.371459 
L 184.813576 167.16566 
L 180.375357 166.692877 
L 175.973473 165.954811 
L 171.623768 164.954118 
L 167.341896 163.694401 
L 163.143266 162.180192 
L 159.04299 160.416941 
L 155.055824 158.410994 
L 151.196117 156.169571 
L 147.47776 153.700737 
L 143.914135 151.013378 
L 140.518068 148.117166 
L 138.097847 145.823601 
L 140.464781 149.607639 
L 142.60055 153.526798 
L 144.497467 157.566974 
L 146.148706 161.713627 
L 147.548323 165.951833 
L 148.691282 170.266339 
L 149.57347 174.641618 
L 150.19171 179.061923 
L 150.543779 183.511346 
L 150.628409 187.973874 
L 150.445296 192.433447 
L 149.995098 196.874014 
L 149.279436 201.279596 
L 148.300886 205.634335 
L 147.118809 210.305902 
L 146.138816 216.176267 
L 145.394358 222.081127 
L 144.886627 228.011033 
L 144.616435 233.9565 
L 144.584215 239.908016 
L 144.790017 245.85606 
L 144.989761 248.928 
L 145.318568 242.985487 
L 145.409475 237.034578 
L 145.262336 231.084794 
L 144.877387 225.145653 
L 144.255244 219.226656 
L 143.396902 213.337273 
L 142.303734 207.486926 
L 141.996633 206.043859 
L 136.238915 207.550596 
L 130.546055 209.286376 
L 124.927162 211.248421 
L 119.391224 213.433592 
L 113.947098 215.838394 
L 108.603493 218.458979 
L 103.368958 221.291155 
L 98.251867 224.330392 
L 93.260406 227.571826 
L 88.40256 231.010273 
L 87.36 231.787022 
L 92.187618 235.267781 
L 97.150568 238.552703 
L 102.240909 241.636532 
L 107.450499 244.514335 
L 112.771004 247.181508 
L 116.57283 248.928 
L 121.966216 246.411462 
L 127.254654 243.68126 
L 132.429682 240.74176 
L 137.483023 237.597665 
L 142.406591 234.254006 
L 147.19251 230.716131 
L 151.833124 226.9897 
L 156.321008 223.080675 
L 160.648983 218.995309 
L 164.810125 214.740138 
L 168.035024 211.194934 
L 169.380701 206.939295 
L 170.979143 202.772005 
L 172.824596 198.708063 
L 174.910418 194.762095 
L 177.229102 190.948302 
L 179.772305 187.280409 
L 182.530873 183.771617 
L 185.494878 180.434553 
L 188.653653 177.281228 
L 191.99583 174.322991 
L 195.509381 171.570486 
L 198.606239 169.409926 
L 194.395053 167.930997 
L 190.280127 166.20221 
L 186.276271 164.229787 
L 182.397894 162.020825 
L 178.658954 159.583276 
L 175.072908 156.925911 
L 171.65266 154.058294 
L 168.410521 150.990745 
L 165.358159 147.734305 
L 162.506559 144.300693 
L 159.865983 140.702266 
L 157.803944 137.538953 
L 152.738594 134.414243 
L 147.552341 131.494593 
L 142.253481 128.784673 
L 136.850492 126.288819 
L 131.352017 124.011023 
L 125.766853 121.954929 
L 120.103934 120.123827 
L 114.372321 118.520646 
L 108.581182 117.147951 
L 102.739783 116.007938 
L 96.857467 115.10243 
L 90.943646 114.432876 
L 87.36 114.143202 
L 93.288271 113.616724 
L 99.190747 112.8536 
L 105.057985 111.85505 
L 110.880598 110.622672 
L 116.649272 109.158437 
L 122.354778 107.464688 
L 127.987988 105.544135 
L 133.53989 103.399849 
L 139.001603 101.035262 
L 140.949953 100.128 
L 146.376943 102.571226 
L 151.897296 104.795476 
L 157.502179 106.797192 
L 163.182626 108.573171 
L 168.92955 110.120572 
L 174.733756 111.43692 
L 180.585959 112.520108 
L 186.476797 113.368404 
L 192.396846 113.980451 
L 198.336635 114.35527 
L 204.286662 114.492261 
L 210.237407 114.391204 
L 216.179351 114.052262 
L 222.102988 113.475977 
L 227.998841 112.66327 
L 233.857479 111.615442 
L 236.16 111.136982 
L 243.547286 110.254526 
L 250.910204 109.187684 
L 258.244153 107.937121 
L 265.544549 106.503619 
L 272.806831 104.888074 
L 280.026459 103.091496 
L 287.198921 101.115007 
L 290.539999 100.128 
L 297.688833 102.188315 
L 304.886935 104.069285 
L 312.129807 105.769732 
L 319.412922 107.288596 
L 326.731729 108.624925 
L 334.081654 109.777886 
L 341.458104 110.746758 
L 348.856467 111.530935 
L 356.272121 112.129928 
L 363.700431 112.543361 
L 371.136755 112.770976 
L 378.576445 112.812631 
L 384.96 112.700091 
L 383.472499 112.661624 
L 376.033131 112.580867 
L 368.594069 112.686101 
L 361.159962 112.977259 
L 353.735457 113.45416 
L 346.325192 114.116505 
L 338.933801 114.96388 
L 331.565901 115.995755 
L 324.226097 117.211487 
L 316.918978 118.610315 
L 309.649108 120.191365 
L 302.421033 121.953648 
L 295.239269 123.896064 
L 288.108304 126.017398 
L 281.032595 128.316325 
L 274.016565 130.791408 
L 267.064597 133.441099 
L 260.181038 136.263744 
L 253.370188 139.257578 
L 246.636305 142.42073 
L 239.983596 145.751223 
L 236.16 147.760834 
L 242.763668 151.187535 
L 249.450932 154.44809 
L 256.217611 157.540463 
L 263.059477 160.46272 
L 269.972254 163.213035 
L 276.951622 165.789689 
L 283.993218 168.191072 
L 290.203234 170.095806 
L 295.908883 171.789073 
L 301.542255 173.709151 
L 307.094339 175.852968 
L 312.556251 178.217093 
L 317.919255 180.797747 
L 323.174771 183.590798 
L 328.31439 186.59178 
L 329.043273 187.040034 
L 324.326698 183.410227 
L 319.759049 179.594711 
L 315.347634 175.59959 
L 311.099509 171.431255 
L 307.021472 167.096374 
L 303.120045 162.601883 
L 299.401471 157.954971 
L 297.988715 156.084974 
L 301.035626 161.1975 
L 303.875653 166.42778 
L 306.504253 171.767447 
L 308.91722 177.207958 
L 311.110695 182.740611 
L 313.081169 188.356554 
L 314.825488 194.046803 
L 316.35053 199.142183 
L 318.726398 206.19243 
L 321.27776 213.181082 
L 324.003024 220.103774 
L 326.900485 226.956177 
L 329.968333 233.734011 
L 333.20465 240.433038 
L 336.607415 247.049073 
L 337.612313 248.928 
L 341.06236 242.336498 
L 344.346558 235.660814 
L 347.462855 228.90512 
L 350.409304 222.073637 
L 353.184063 215.170635 
L 355.785397 208.200429 
L 358.211682 201.167374 
L 360.461401 194.075866 
L 362.533147 186.930337 
L 364.425626 179.735253 
L 366.137656 172.49511 
L 367.668165 165.214433 
L 369.016199 157.897772 
L 370.180914 150.549701 
L 371.161582 143.17481 
L 371.957591 135.77771 
L 372.568443 128.363024 
L 372.993756 120.935385 
L 373.233264 113.499435 
L 373.286818 106.059821 
L 373.196238 100.128 
L 373.162409 101.615614 
L 373.104852 109.055197 
L 373.233283 116.493895 
L 373.547623 123.927058 
L 374.047673 131.35004 
L 374.733123 138.758203 
L 375.603543 146.146916 
L 376.658389 153.511563 
L 377.897004 160.847539 
L 379.318611 168.150261 
L 380.922323 175.415165 
L 382.707138 182.63771 
L 384.96 190.809493 
L 382.970208 197.978275 
L 381.160239 205.194558 
L 379.531223 212.453829 
L 378.08418 219.751554 
L 376.820013 227.08317 
L 375.739512 234.444096 
L 374.843352 241.829732 
L 374.15791 248.928 
L 373.438975 241.523012 
L 372.535159 234.138309 
L 371.447027 226.778507 
L 370.175259 219.448205 
L 368.720651 212.151985 
L 367.08411 204.894406 
L 365.26666 197.680004 
L 363.269437 190.513289 
L 361.093688 183.398738 
L 358.740774 176.340798 
L 356.212166 169.34388 
L 353.509442 162.412358 
L 350.634294 155.550562 
L 347.588517 148.762782 
L 344.374014 142.05326 
L 340.992796 135.426188 
L 337.446974 128.885709 
L 333.738766 122.43591 
L 329.870488 116.080822 
L 325.844559 109.824416 
L 321.663493 103.670604 
L 319.152643 100.128 
L 314.882237 106.220155 
L 310.765453 112.417155 
L 306.804865 118.715128 
L 303.002947 125.110136 
L 299.362076 131.598185 
L 295.884527 138.175219 
L 292.572474 144.837127 
L 289.427985 151.579746 
L 286.453028 158.398862 
L 283.64946 165.290213 
L 281.019034 172.249493 
L 278.563393 179.272352 
L 276.284074 186.354401 
L 274.182499 193.491214 
L 272.259983 200.678331 
L 270.517726 207.91126 
L 268.956819 215.18548 
L 267.578236 222.496446 
L 266.382838 229.839589 
L 265.371374 237.210319 
L 264.544475 244.604029 
L 264.147375 248.928 
L 263.42844 241.523012 
L 262.524624 234.138309 
L 261.436492 226.778507 
L 260.164724 219.448205 
L 258.710115 212.151985 
L 257.073575 204.894406 
L 255.256125 197.680004 
L 253.258901 190.513289 
L 251.083153 183.398738 
L 248.730239 176.340798 
L 246.20163 169.34388 
L 243.498907 162.412358 
L 240.623759 155.550562 
L 237.577981 148.762782 
L 236.16 145.749859 
L 239.281536 138.996583 
L 242.233281 132.167388 
L 245.013393 125.26654 
L 247.620132 118.298353 
L 250.051871 111.267182 
L 252.307088 104.177421 
L 253.508335 100.128 
L 255.662703 107.249054 
L 257.994405 114.31403 
L 260.501985 121.318511 
L 263.183875 128.258121 
L 266.038399 135.128522 
L 269.063774 141.92542 
L 272.258107 148.644568 
L 275.619404 155.281767 
L 279.145563 161.832867 
L 282.834381 168.293776 
L 286.683552 174.660455 
L 288.430153 177.435282 
L 286.277453 184.556841 
L 284.303445 191.729986 
L 282.509364 198.950235 
L 280.896331 206.213074 
L 279.465354 213.513966 
L 278.217328 220.848347 
L 277.153032 228.211634 
L 276.273131 235.599225 
L 275.578177 243.006502 
L 275.15661 248.928 
L 274.609545 241.508334 
L 273.87718 234.104663 
L 272.95997 226.721611 
L 271.85849 219.363795 
L 270.573428 212.035812 
L 269.105587 204.742243 
L 267.455884 197.487644 
L 265.625351 190.276551 
L 263.615131 183.11347 
L 261.426481 176.002877 
L 259.060769 168.949217 
L 256.519473 161.956897 
L 253.804181 155.030289 
L 250.91659 148.17372 
L 247.858506 141.391476 
L 244.631838 134.687795 
L 241.238604 128.066867 
L 237.680925 121.532831 
L 236.16 118.853382 
L 239.785134 112.356527 
L 243.24673 105.771084 
L 246.048678 100.128 
L 249.370087 106.785248 
L 252.856873 113.35739 
L 256.506856 119.840317 
L 260.317754 126.229978 
L 264.287186 132.52238 
L 268.412672 138.71359 
L 272.691633 144.79974 
L 277.121394 150.777024 
L 281.699188 156.641708 
L 286.422153 162.390127 
L 289.800586 166.328664 
L 294.593391 169.857205 
L 299.241258 173.574584 
L 303.736752 177.474855 
L 308.072681 181.551778 
L 312.242109 185.79883 
L 316.238364 190.209219 
L 320.026938 194.740855 
L 318.964002 188.884939 
L 318.13609 182.991201 
L 317.544527 177.069071 
L 317.19026 171.12802 
L 317.073854 165.177556 
L 317.195497 159.227196 
L 317.551391 153.331235 
L 316.286691 145.99971 
L 314.839118 138.702091 
L 313.209575 131.442938 
L 311.399082 124.226787 
L 309.40877 117.058149 
L 307.239882 109.941503 
L 304.893774 102.881298 
L 303.925329 100.128 
L 301.510093 107.164857 
L 299.271515 114.259889 
L 297.210994 121.408663 
L 295.329818 128.606711 
L 293.629162 135.849534 
L 292.110089 143.132606 
L 290.773548 150.451375 
L 289.620376 157.801267 
L 288.651292 165.177688 
L 287.866902 172.576029 
L 287.267696 179.991666 
L 286.854049 187.419964 
L 286.62622 194.856281 
L 286.58435 202.29597 
L 286.728466 209.73438 
L 287.058479 217.166863 
L 287.57418 224.588775 
L 288.275249 231.995476 
L 289.161248 239.382337 
L 290.231621 246.744743 
L 290.585272 248.928 
L 291.710332 241.573752 
L 292.651203 234.193679 
L 293.407298 226.792393 
L 293.978143 219.374519 
L 294.363383 211.944694 
L 294.562776 204.50756 
L 294.576198 197.067766 
L 294.414523 189.939229 
L 286.992258 189.428643 
L 279.559549 189.103754 
L 272.121041 188.964765 
L 264.681383 189.011763 
L 257.245225 189.244718 
L 249.817214 189.663485 
L 242.401992 190.267802 
L 236.16 190.921604 
L 243.560829 191.682159 
L 250.978358 192.257474 
L 258.40795 192.647192 
L 265.844962 192.851066 
L 273.284747 192.868972 
L 280.722654 192.700896 
L 288.154036 192.346945 
L 296.349989 191.740146 
L 297.205869 199.130558 
L 298.246223 206.497266 
L 299.4704 213.835665 
L 300.877636 221.14117 
L 302.467051 228.409215 
L 304.237651 235.635258 
L 306.18833 242.814782 
L 308.002676 248.928 
L 310.106736 241.791919 
L 312.031756 234.605473 
L 313.776532 227.373151 
L 315.339973 220.099475 
L 316.721103 212.788989 
L 317.919058 205.446264 
L 318.933089 198.075887 
L 319.293068 195.068592 
L 318.557074 189.162672 
L 318.057843 183.232044 
L 317.796173 177.286196 
L 317.772482 171.33464 
L 317.986809 165.386897 
L 318.438812 159.452482 
L 319.07935 153.89785 
L 315.38511 158.564131 
L 311.507224 163.078948 
L 307.451894 167.43508 
L 303.22561 171.625557 
L 298.835132 175.643677 
L 294.287484 179.48301 
L 289.878372 182.921608 
L 295.795612 182.282976 
L 301.733657 181.881482 
L 307.683008 181.717767 
L 313.634147 181.792094 
L 319.577554 182.104344 
L 325.50372 182.654017 
L 331.047049 183.385946 
L 326.442241 179.615359 
L 321.9919 175.663646 
L 317.703145 171.537127 
L 313.582837 167.242404 
L 309.637567 162.786348 
L 305.873649 158.176088 
L 302.50813 153.710945 
L 296.691342 149.072444 
L 290.760421 144.580797 
L 284.719074 140.23881 
L 278.571076 136.049199 
L 272.32027 132.014581 
L 265.970563 128.137477 
L 259.525922 124.420312 
L 252.990375 120.865406 
L 246.368008 117.474984 
L 239.662958 114.251163 
L 236.16 112.648017 
L 232.123502 108.27443 
L 227.915335 104.065758 
L 223.65406 100.128 
L 219.285017 104.169416 
L 215.081082 108.382314 
L 211.04898 112.759955 
L 207.195163 117.295335 
L 203.525796 121.981199 
L 200.046748 126.810051 
L 196.763585 131.774164 
L 193.68156 136.865599 
L 190.805604 142.076209 
L 188.140317 147.397658 
L 187.850023 148.011011 
L 185.189816 151.59495 
L 182.31949 155.012924 
L 179.249373 158.25263 
L 175.990514 161.302411 
L 172.554643 164.151289 
L 168.954125 166.789013 
L 165.201917 169.206088 
L 161.311523 171.393816 
L 157.296945 173.344325 
L 153.172631 175.050593 
L 148.953423 176.50648 
L 144.654508 177.706747 
L 140.291355 178.647074 
L 135.879667 179.324077 
L 131.435323 179.735319 
L 126.974316 179.87932 
L 124.943561 179.856209 
L 129.229996 178.612106 
L 133.58332 177.627274 
L 137.987864 176.905258 
L 142.427777 176.448654 
L 146.887081 176.259107 
L 151.349727 176.337299 
L 155.799653 176.682948 
L 160.220845 177.294811 
L 164.597392 178.170685 
L 168.913543 179.307418 
L 173.153764 180.700919 
L 177.302795 182.346174 
L 181.345703 184.23726 
L 185.26794 186.367373 
L 189.055388 188.728845 
L 192.694418 191.313179 
L 194.297346 192.560223 
L 190.131732 190.957422 
L 186.069723 189.107718 
L 182.12594 187.017768 
L 178.314575 184.695094 
L 174.649345 182.148055 
L 171.143441 179.385817 
L 167.809481 176.418322 
L 164.659463 173.256249 
L 161.704724 169.910978 
L 158.955898 166.394549 
L 156.422877 162.719617 
L 154.114779 158.899408 
L 152.039908 154.94767 
L 150.205733 150.878626 
L 148.618855 146.706919 
L 147.284985 142.447564 
L 146.763198 140.484852 
L 149.110187 144.281293 
L 151.225302 148.211637 
L 153.100932 152.26174 
L 154.730326 156.417025 
L 156.107621 160.662537 
L 157.22786 164.982998 
L 158.08701 169.362859 
L 158.681981 173.786356 
L 159.01063 178.23757 
L 159.071775 182.700482 
L 158.865197 187.159029 
L 158.391637 191.597166 
L 157.652801 195.99892 
L 156.651348 200.34845 
L 155.390882 204.630102 
L 153.875939 208.828467 
L 153.103915 210.706892 
L 153.53213 206.26415 
L 154.22598 201.855081 
L 155.182966 197.495552 
L 156.399644 193.201252 
L 157.871637 188.987636 
L 159.593646 184.86987 
L 161.559475 180.862771 
L 163.762048 176.980762 
L 166.193438 173.237814 
L 168.844895 169.647397 
L 171.706876 166.222433 
L 174.769082 162.975248 
L 178.020492 159.917528 
L 181.449405 157.060278 
L 185.043479 154.413781 
L 188.789781 151.987561 
L 190.540956 150.959025 
L 187.512068 154.23731 
L 184.292051 157.328072 
L 180.892494 160.220187 
L 177.325631 162.903247 
L 173.6043 165.367596 
L 169.741893 167.604364 
L 165.752311 169.605501 
L 161.649911 171.363807 
L 157.449459 172.872952 
L 153.166071 174.127505 
L 148.815162 175.122952 
L 144.412392 175.85571 
L 139.973606 176.323141 
L 135.514778 176.523564 
L 131.051955 176.456257 
L 126.601198 176.121462 
L 124.58461 175.880902 
L 118.866656 174.229664 
L 113.087244 172.808404 
L 107.25562 171.619395 
L 101.381113 170.66454 
L 95.473121 169.945367 
L 89.541096 169.463025 
L 87.36 169.345584 
L 93.298467 168.950369 
L 99.216379 168.317995 
L 105.104269 167.449473 
L 110.952718 166.346193 
L 116.752369 165.009921 
L 122.493945 163.442793 
L 126.682705 162.141581 
L 123.342025 157.215991 
L 119.807046 152.427932 
L 116.083424 147.785065 
L 112.177114 143.294817 
L 108.094368 138.964371 
L 103.841715 134.800655 
L 99.42596 130.810331 
L 94.854167 126.999782 
L 90.133649 123.375103 
L 87.36 121.3809 
L 92.162483 117.865543 
L 96.820548 114.160949 
L 101.326743 110.273046 
L 105.673859 106.208054 
L 109.854941 101.972474 
L 111.574794 100.128 
L 115.683492 104.433831 
L 119.961092 108.571913 
L 124.400749 112.535627 
L 128.99536 116.318631 
L 133.737577 119.914874 
L 138.619811 123.318603 
L 143.634253 126.524371 
L 148.772881 129.527051 
L 154.027474 132.321839 
L 159.389625 134.904264 
L 164.850756 137.270194 
L 165.44113 137.510581 
L 171.266529 136.291439 
L 177.038515 134.840318 
L 182.747856 133.15954 
L 188.385416 131.251794 
L 193.942177 129.120131 
L 199.40925 126.767962 
L 204.777888 124.19905 
L 210.039502 121.417505 
L 215.185676 118.427776 
L 220.208176 115.234647 
L 225.098967 111.843225 
L 229.850225 108.258937 
L 234.45435 104.487516 
L 236.16 103.009898 
L 232.783639 100.128 
L 228.276521 104.014833 
L 223.92844 108.078793 
L 219.746353 112.31338 
L 215.736948 116.711818 
L 211.906642 121.267071 
L 208.261561 125.971852 
L 204.807536 130.818634 
L 201.550094 135.799663 
L 198.494446 140.906971 
L 195.64548 146.132387 
L 193.007753 151.467552 
L 192.219776 153.172859 
L 198.142438 152.586637 
L 204.03692 151.764041 
L 209.893792 150.706386 
L 215.703684 149.415365 
L 221.457301 147.893042 
L 227.14544 146.141854 
L 232.759 144.164602 
L 236.16 142.841877 
L 243.445397 141.333996 
L 250.690825 139.64447 
L 257.891754 137.774355 
L 265.043686 135.724821 
L 272.142149 133.497147 
L 279.182709 131.092726 
L 286.160964 128.51306 
L 293.072553 125.759763 
L 299.913158 122.834554 
L 306.678502 119.739262 
L 313.364358 116.475821 
L 319.966548 113.046271 
L 326.480944 109.452755 
L 332.903476 105.69752 
L 339.230131 101.782911 
L 341.802216 100.128 
L 348.088305 104.107422 
L 354.471906 107.928464 
L 360.949027 111.588739 
L 367.515623 115.085959 
L 374.167587 118.417938 
L 380.900764 121.582594 
L 384.96 123.392424 
L 378.180314 126.456175 
L 371.479332 129.688444 
L 364.861243 133.08721 
L 358.330181 136.650348 
L 351.89023 140.375633 
L 345.545414 144.260736 
L 339.299698 148.303228 
L 333.156985 152.500584 
L 327.121115 156.85018 
L 325.567977 158.007013 
L 329.361348 151.606931 
L 332.993548 145.114024 
L 336.462308 138.53235 
L 339.765458 131.866023 
L 342.900936 125.11921 
L 345.866781 118.296125 
L 348.66114 111.401035 
L 351.282267 104.438247 
L 352.806273 100.128 
L 355.320131 107.130231 
L 358.008241 114.067434 
L 360.868922 120.935273 
L 363.900388 127.729457 
L 367.100744 134.445738 
L 370.467989 141.079921 
L 374.000019 147.627858 
L 377.694627 154.085457 
L 381.549504 160.448683 
L 384.96 165.795011 
L 380.970414 172.074654 
L 377.139048 178.452064 
L 373.468299 184.923255 
L 369.96046 191.484183 
L 366.617723 198.130748 
L 363.442177 204.858796 
L 360.435808 211.664122 
L 357.600493 218.542473 
L 354.938005 225.489549 
L 352.450008 232.501011 
L 350.138057 239.572474 
L 348.003596 246.699521 
L 347.375804 248.928 
L 345.296853 241.784564 
L 343.039985 234.695328 
L 340.606609 227.664724 
L 337.998247 220.697144 
L 335.216529 213.796944 
L 332.263193 206.968436 
L 329.140085 200.215887 
L 325.849156 193.543518 
L 324.877516 191.650825 
L 330.830093 196.113733 
L 336.89237 200.426448 
L 343.06056 204.586274 
L 349.330807 208.590612 
L 355.699192 212.436958 
L 362.161737 216.12291 
L 368.714401 219.646163 
L 375.353089 223.004515 
L 382.073654 226.195868 
L 384.96 227.503964 
L 378.205835 230.623575 
L 371.531762 233.911047 
L 364.941954 237.364327 
L 358.440527 240.981255 
L 352.031546 244.759572 
L 345.359213 248.928 
L 339.052346 244.98159 
L 332.648801 241.194067 
L 326.152579 237.567801 
L 319.567739 234.105056 
L 312.898397 230.807997 
L 306.148721 227.678685 
L 299.32293 224.719075 
L 292.425289 221.931016 
L 285.46011 219.316252 
L 278.431745 216.876416 
L 271.344586 214.613034 
L 264.203063 212.527519 
L 257.01164 210.621176 
L 249.77481 208.895195 
L 242.497097 207.350655 
L 236.16 206.159535 
L 230.529371 204.231427 
L 224.826143 202.530026 
L 219.059438 201.058055 
L 213.238483 199.817867 
L 207.37259 198.811448 
L 201.471143 198.040407 
L 195.543583 197.505978 
L 191.202153 197.265625 
L 193.053258 202.922037 
L 195.129079 208.4999 
L 197.426293 213.99029 
L 199.941228 219.384424 
L 202.669858 224.673673 
L 205.60782 229.849575 
L 208.750412 234.90385 
L 212.092608 239.828412 
L 215.62906 244.615382 
L 219.079806 248.928 
L 222.791477 244.275573 
L 226.314132 239.47844 
L 229.642135 234.544276 
L 232.770162 229.480974 
L 235.693208 224.296634 
L 236.16 223.421618 
L 236.16 223.421618 
" style="fill:none;stroke:#1f77b4;stroke-linecap:square;stroke-width:1.5;"/>
   </g>
   <g id="patch_5">
    <path d="M 57.6 263.808 
L 57.6 85.248 
" style="fill:none;stroke:#000000;stroke-linecap:square;stroke-linejoin:miter;stroke-width:0.8;"/>
   </g>
   <g id="patch_6">
    <path d="M 414.72 263.808 
L 414.72 85.248 
" style="fill:none;stroke:#000000;stroke-linecap:square;stroke-linejoin:miter;stroke-width:0.8;"/>
   </g>
   <g id="patch_7">
    <path d="M 57.6 263.808 
L 414.72 263.808 
" style="fill:none;stroke:#000000;stroke-linecap:square;stroke-linejoin:miter;stroke-width:0.8;"/>
   </g>
   <g id="patch_8">
    <path d="M 57.6 85.248 
L 414.72 85.248 
" style="fill:none;stroke:#000000;stroke-linecap:square;stroke-linejoin:miter;stroke-width:0.8;"/>
   </g>
  </g>
 </g>
 <defs>
  <clipPath id="p68eb1e6aec">
   <rect height="178.56" width="357.12" x="57.6" y="85.248"/>
  </clipPath>
 </defs>
</svg>
