<?xml version="1.0" encoding="utf-8" standalone="no"?>
<!DOCTYPE svg PUBLIC "-//W3C//DTD SVG 1.1//EN"
  "http://www.w3.org/Graphics/SVG/1.1/DTD/svg11.dtd">
<!-- Created with matplotlib (https://matplotlib.org/) -->
<svg height="345.6pt" version="1.1" viewBox="0 0 460.8 345.6" width="460.8pt" xmlns="http://www.w3.org/2000/svg" xmlns:xlink="http://www.w3.org/1999/xlink">
 <defs>
  <style type="text/css">
*{stroke-linecap:butt;stroke-linejoin:round;white-space:pre;}
  </style>
 </defs>
 <g id="figure_1">
  <g id="patch_1">
   <path d="M 0 345.6 
L 460.8 345.6 
L 460.8 0 
L 0 0 
z
" style="fill:#ffffff;"/>
  </g>
  <g id="axes_1">
   <g id="patch_2">
    <path d="M 82.520165 307.584 
L 389.799835 307.584 
L 389.799835 41.472 
L 82.520165 41.472 
z
" style="fill:#ffffff;"/>
   </g>
   <g id="patch_3">
    <path clip-path="url(#p23a2269570)" d="M 236.16 225.741278 
C 249.74192 225.741278 262.769389 220.345124 272.373256 210.741256 
C 281.977124 201.137389 287.373278 188.10992 287.373278 174.528 
C 287.373278 160.94608 281.977124 147.918611 272.373256 138.314744 
C 262.769389 128.710876 249.74192 123.314722 236.16 123.314722 
C 222.57808 123.314722 209.550611 128.710876 199.946744 138.314744 
C 190.342876 147.918611 184.946722 160.94608 184.946722 174.528 
C 184.946722 188.10992 190.342876 201.137389 199.946744 210.741256 
C 209.550611 220.345124 222.57808 225.741278 236.16 225.741278 
z
" style="fill:#009900;fill-opacity:0.5;stroke:#009900;stroke-linejoin:miter;stroke-width:2;"/>
   </g>
   <g id="matplotlib.axis_1">
    <g id="xtick_1">
     <g id="line2d_1">
      <defs>
       <path d="M 0 0 
L 0 3.5 
" id="m79510c67f0" style="stroke:#000000;stroke-width:0.8;"/>
      </defs>
      <g>
       <use style="stroke:#000000;stroke-width:0.8;" x="108.126804" xlink:href="#m79510c67f0" y="307.584"/>
      </g>
     </g>
     <g id="text_1">
      <!-- −2 -->
      <defs>
       <path d="M 10.59375 35.5 
L 73.1875 35.5 
L 73.1875 27.203125 
L 10.59375 27.203125 
z
" id="DejaVuSans-8722"/>
       <path d="M 19.1875 8.296875 
L 53.609375 8.296875 
L 53.609375 0 
L 7.328125 0 
L 7.328125 8.296875 
Q 12.9375 14.109375 22.625 23.890625 
Q 32.328125 33.6875 34.8125 36.53125 
Q 39.546875 41.84375 41.421875 45.53125 
Q 43.3125 49.21875 43.3125 52.78125 
Q 43.3125 58.59375 39.234375 62.25 
Q 35.15625 65.921875 28.609375 65.921875 
Q 23.96875 65.921875 18.8125 64.3125 
Q 13.671875 62.703125 7.8125 59.421875 
L 7.8125 69.390625 
Q 13.765625 71.78125 18.9375 73 
Q 24.125 74.21875 28.421875 74.21875 
Q 39.75 74.21875 46.484375 68.546875 
Q 53.21875 62.890625 53.21875 53.421875 
Q 53.21875 48.921875 51.53125 44.890625 
Q 49.859375 40.875 45.40625 35.40625 
Q 44.1875 33.984375 37.640625 27.21875 
Q 31.109375 20.453125 19.1875 8.296875 
z
" id="DejaVuSans-50"/>
      </defs>
      <g transform="translate(100.755711 322.182437)scale(0.1 -0.1)">
       <use xlink:href="#DejaVuSans-8722"/>
       <use x="83.789062" xlink:href="#DejaVuSans-50"/>
      </g>
     </g>
    </g>
    <g id="xtick_2">
     <g id="line2d_2">
      <g>
       <use style="stroke:#000000;stroke-width:0.8;" x="172.143402" xlink:href="#m79510c67f0" y="307.584"/>
      </g>
     </g>
     <g id="text_2">
      <!-- −1 -->
      <defs>
       <path d="M 12.40625 8.296875 
L 28.515625 8.296875 
L 28.515625 63.921875 
L 10.984375 60.40625 
L 10.984375 69.390625 
L 28.421875 72.90625 
L 38.28125 72.90625 
L 38.28125 8.296875 
L 54.390625 8.296875 
L 54.390625 0 
L 12.40625 0 
z
" id="DejaVuSans-49"/>
      </defs>
      <g transform="translate(164.772308 322.182437)scale(0.1 -0.1)">
       <use xlink:href="#DejaVuSans-8722"/>
       <use x="83.789062" xlink:href="#DejaVuSans-49"/>
      </g>
     </g>
    </g>
    <g id="xtick_3">
     <g id="line2d_3">
      <g>
       <use style="stroke:#000000;stroke-width:0.8;" x="236.16" xlink:href="#m79510c67f0" y="307.584"/>
      </g>
     </g>
     <g id="text_3">
      <!-- 0 -->
      <defs>
       <path d="M 31.78125 66.40625 
Q 24.171875 66.40625 20.328125 58.90625 
Q 16.5 51.421875 16.5 36.375 
Q 16.5 21.390625 20.328125 13.890625 
Q 24.171875 6.390625 31.78125 6.390625 
Q 39.453125 6.390625 43.28125 13.890625 
Q 47.125 21.390625 47.125 36.375 
Q 47.125 51.421875 43.28125 58.90625 
Q 39.453125 66.40625 31.78125 66.40625 
z
M 31.78125 74.21875 
Q 44.046875 74.21875 50.515625 64.515625 
Q 56.984375 54.828125 56.984375 36.375 
Q 56.984375 17.96875 50.515625 8.265625 
Q 44.046875 -1.421875 31.78125 -1.421875 
Q 19.53125 -1.421875 13.0625 8.265625 
Q 6.59375 17.96875 6.59375 36.375 
Q 6.59375 54.828125 13.0625 64.515625 
Q 19.53125 74.21875 31.78125 74.21875 
z
" id="DejaVuSans-48"/>
      </defs>
      <g transform="translate(232.97875 322.182437)scale(0.1 -0.1)">
       <use xlink:href="#DejaVuSans-48"/>
      </g>
     </g>
    </g>
    <g id="xtick_4">
     <g id="line2d_4">
      <g>
       <use style="stroke:#000000;stroke-width:0.8;" x="300.176598" xlink:href="#m79510c67f0" y="307.584"/>
      </g>
     </g>
     <g id="text_4">
      <!-- 1 -->
      <g transform="translate(296.995348 322.182437)scale(0.1 -0.1)">
       <use xlink:href="#DejaVuSans-49"/>
      </g>
     </g>
    </g>
    <g id="xtick_5">
     <g id="line2d_5">
      <g>
       <use style="stroke:#000000;stroke-width:0.8;" x="364.193196" xlink:href="#m79510c67f0" y="307.584"/>
      </g>
     </g>
     <g id="text_5">
      <!-- 2 -->
      <g transform="translate(361.011946 322.182437)scale(0.1 -0.1)">
       <use xlink:href="#DejaVuSans-50"/>
      </g>
     </g>
    </g>
   </g>
   <g id="matplotlib.axis_2">
    <g id="ytick_1">
     <g id="line2d_6">
      <defs>
       <path d="M 0 0 
L -3.5 0 
" id="m886d9755cf" style="stroke:#000000;stroke-width:0.8;"/>
      </defs>
      <g>
       <use style="stroke:#000000;stroke-width:0.8;" x="82.520165" xlink:href="#m886d9755cf" y="302.561196"/>
      </g>
     </g>
     <g id="text_6">
      <!-- −2.0 -->
      <defs>
       <path d="M 10.6875 12.40625 
L 21 12.40625 
L 21 0 
L 10.6875 0 
z
" id="DejaVuSans-46"/>
      </defs>
      <g transform="translate(51.237353 306.360414)scale(0.1 -0.1)">
       <use xlink:href="#DejaVuSans-8722"/>
       <use x="83.789062" xlink:href="#DejaVuSans-50"/>
       <use x="147.412109" xlink:href="#DejaVuSans-46"/>
       <use x="179.199219" xlink:href="#DejaVuSans-48"/>
      </g>
     </g>
    </g>
    <g id="ytick_2">
     <g id="line2d_7">
      <g>
       <use style="stroke:#000000;stroke-width:0.8;" x="82.520165" xlink:href="#m886d9755cf" y="270.552897"/>
      </g>
     </g>
     <g id="text_7">
      <!-- −1.5 -->
      <defs>
       <path d="M 10.796875 72.90625 
L 49.515625 72.90625 
L 49.515625 64.59375 
L 19.828125 64.59375 
L 19.828125 46.734375 
Q 21.96875 47.46875 24.109375 47.828125 
Q 26.265625 48.1875 28.421875 48.1875 
Q 40.625 48.1875 47.75 41.5 
Q 54.890625 34.8125 54.890625 23.390625 
Q 54.890625 11.625 47.5625 5.09375 
Q 40.234375 -1.421875 26.90625 -1.421875 
Q 22.3125 -1.421875 17.546875 -0.640625 
Q 12.796875 0.140625 7.71875 1.703125 
L 7.71875 11.625 
Q 12.109375 9.234375 16.796875 8.0625 
Q 21.484375 6.890625 26.703125 6.890625 
Q 35.15625 6.890625 40.078125 11.328125 
Q 45.015625 15.765625 45.015625 23.390625 
Q 45.015625 31 40.078125 35.4375 
Q 35.15625 39.890625 26.703125 39.890625 
Q 22.75 39.890625 18.8125 39.015625 
Q 14.890625 38.140625 10.796875 36.28125 
z
" id="DejaVuSans-53"/>
      </defs>
      <g transform="translate(51.237353 274.352116)scale(0.1 -0.1)">
       <use xlink:href="#DejaVuSans-8722"/>
       <use x="83.789062" xlink:href="#DejaVuSans-49"/>
       <use x="147.412109" xlink:href="#DejaVuSans-46"/>
       <use x="179.199219" xlink:href="#DejaVuSans-53"/>
      </g>
     </g>
    </g>
    <g id="ytick_3">
     <g id="line2d_8">
      <g>
       <use style="stroke:#000000;stroke-width:0.8;" x="82.520165" xlink:href="#m886d9755cf" y="238.544598"/>
      </g>
     </g>
     <g id="text_8">
      <!-- −1.0 -->
      <g transform="translate(51.237353 242.343817)scale(0.1 -0.1)">
       <use xlink:href="#DejaVuSans-8722"/>
       <use x="83.789062" xlink:href="#DejaVuSans-49"/>
       <use x="147.412109" xlink:href="#DejaVuSans-46"/>
       <use x="179.199219" xlink:href="#DejaVuSans-48"/>
      </g>
     </g>
    </g>
    <g id="ytick_4">
     <g id="line2d_9">
      <g>
       <use style="stroke:#000000;stroke-width:0.8;" x="82.520165" xlink:href="#m886d9755cf" y="206.536299"/>
      </g>
     </g>
     <g id="text_9">
      <!-- −0.5 -->
      <g transform="translate(51.237353 210.335518)scale(0.1 -0.1)">
       <use xlink:href="#DejaVuSans-8722"/>
       <use x="83.789062" xlink:href="#DejaVuSans-48"/>
       <use x="147.412109" xlink:href="#DejaVuSans-46"/>
       <use x="179.199219" xlink:href="#DejaVuSans-53"/>
      </g>
     </g>
    </g>
    <g id="ytick_5">
     <g id="line2d_10">
      <g>
       <use style="stroke:#000000;stroke-width:0.8;" x="82.520165" xlink:href="#m886d9755cf" y="174.528"/>
      </g>
     </g>
     <g id="text_10">
      <!-- 0.0 -->
      <g transform="translate(59.61704 178.327219)scale(0.1 -0.1)">
       <use xlink:href="#DejaVuSans-48"/>
       <use x="63.623047" xlink:href="#DejaVuSans-46"/>
       <use x="95.410156" xlink:href="#DejaVuSans-48"/>
      </g>
     </g>
    </g>
    <g id="ytick_6">
     <g id="line2d_11">
      <g>
       <use style="stroke:#000000;stroke-width:0.8;" x="82.520165" xlink:href="#m886d9755cf" y="142.519701"/>
      </g>
     </g>
     <g id="text_11">
      <!-- 0.5 -->
      <g transform="translate(59.61704 146.31892)scale(0.1 -0.1)">
       <use xlink:href="#DejaVuSans-48"/>
       <use x="63.623047" xlink:href="#DejaVuSans-46"/>
       <use x="95.410156" xlink:href="#DejaVuSans-53"/>
      </g>
     </g>
    </g>
    <g id="ytick_7">
     <g id="line2d_12">
      <g>
       <use style="stroke:#000000;stroke-width:0.8;" x="82.520165" xlink:href="#m886d9755cf" y="110.511402"/>
      </g>
     </g>
     <g id="text_12">
      <!-- 1.0 -->
      <g transform="translate(59.61704 114.310621)scale(0.1 -0.1)">
       <use xlink:href="#DejaVuSans-49"/>
       <use x="63.623047" xlink:href="#DejaVuSans-46"/>
       <use x="95.410156" xlink:href="#DejaVuSans-48"/>
      </g>
     </g>
    </g>
    <g id="ytick_8">
     <g id="line2d_13">
      <g>
       <use style="stroke:#000000;stroke-width:0.8;" x="82.520165" xlink:href="#m886d9755cf" y="78.503103"/>
      </g>
     </g>
     <g id="text_13">
      <!-- 1.5 -->
      <g transform="translate(59.61704 82.302322)scale(0.1 -0.1)">
       <use xlink:href="#DejaVuSans-49"/>
       <use x="63.623047" xlink:href="#DejaVuSans-46"/>
       <use x="95.410156" xlink:href="#DejaVuSans-53"/>
      </g>
     </g>
    </g>
    <g id="ytick_9">
     <g id="line2d_14">
      <g>
       <use style="stroke:#000000;stroke-width:0.8;" x="82.520165" xlink:href="#m886d9755cf" y="46.494804"/>
      </g>
     </g>
     <g id="text_14">
      <!-- 2.0 -->
      <g transform="translate(59.61704 50.294023)scale(0.1 -0.1)">
       <use xlink:href="#DejaVuSans-50"/>
       <use x="63.623047" xlink:href="#DejaVuSans-46"/>
       <use x="95.410156" xlink:href="#DejaVuSans-48"/>
      </g>
     </g>
    </g>
   </g>
   <g id="line2d_15">
    <path clip-path="url(#p23a2269570)" d="M 300.176598 63.648 
L 172.143402 63.648 
" style="fill:none;stroke:#009900;stroke-linecap:square;stroke-width:2;"/>
   </g>
   <g id="line2d_16">
    <path clip-path="url(#p23a2269570)" d="M 172.143402 63.648 
L 108.126804 174.528 
" style="fill:none;stroke:#009900;stroke-linecap:square;stroke-width:2;"/>
   </g>
   <g id="line2d_17">
    <path clip-path="url(#p23a2269570)" d="M 108.126804 174.528 
L 172.143402 285.408 
" style="fill:none;stroke:#009900;stroke-linecap:square;stroke-width:2;"/>
   </g>
   <g id="line2d_18">
    <path clip-path="url(#p23a2269570)" d="M 172.143402 285.408 
L 300.176598 285.408 
" style="fill:none;stroke:#009900;stroke-linecap:square;stroke-width:2;"/>
   </g>
   <g id="line2d_19">
    <path clip-path="url(#p23a2269570)" d="M 300.176598 285.408 
L 364.193196 174.528 
" style="fill:none;stroke:#009900;stroke-linecap:square;stroke-width:2;"/>
   </g>
   <g id="line2d_20">
    <path clip-path="url(#p23a2269570)" d="M 364.193196 174.528 
L 300.176598 63.648 
" style="fill:none;stroke:#009900;stroke-linecap:square;stroke-width:2;"/>
   </g>
   <g id="line2d_21">
    <path clip-path="url(#p23a2269570)" d="M 231.828482 285.100572 
L 231.787758 285.408 
L 231.020009 280.344892 
L 230.050405 275.316535 
L 228.880495 270.330975 
L 227.512152 265.396186 
L 225.947564 260.520064 
L 224.189235 255.710409 
L 222.239978 250.974916 
L 220.10291 246.32116 
L 217.781452 241.756586 
L 215.279316 237.288497 
L 212.600505 232.924041 
L 209.749306 228.6702 
L 206.730279 224.533779 
L 203.548254 220.521396 
L 200.208322 216.639469 
L 196.715826 212.894209 
L 193.076353 209.291607 
L 189.295726 205.837428 
L 185.379992 202.537195 
L 181.335417 199.396191 
L 177.16847 196.419438 
L 172.885818 193.611701 
L 168.494312 190.977469 
L 164.000977 188.520958 
L 159.413002 186.246097 
L 154.737727 184.156527 
L 149.982632 182.255588 
L 145.155322 180.546323 
L 140.263522 179.031467 
L 135.315056 177.713442 
L 130.317842 176.594357 
L 125.279873 175.676003 
L 120.20921 174.959848 
L 115.113965 174.447038 
L 110.002288 174.138394 
L 108.383515 174.083365 
L 111.152371 178.391257 
L 114.091283 182.584978 
L 117.195548 186.65782 
L 120.4602 190.603266 
L 123.880017 194.415006 
L 127.449527 198.08694 
L 131.16302 201.613195 
L 135.014555 204.988128 
L 138.997971 208.206342 
L 143.106894 211.262688 
L 147.334753 214.152276 
L 151.674782 216.870483 
L 156.120038 219.412961 
L 160.663411 221.775642 
L 165.297632 223.954747 
L 170.015287 225.94679 
L 174.808829 227.748583 
L 179.670589 229.357245 
L 184.592789 230.770201 
L 189.567555 231.985192 
L 194.586929 233.000273 
L 199.64288 233.81382 
L 204.72732 234.424533 
L 209.832116 234.831434 
L 214.949099 235.033872 
L 220.070085 235.031524 
L 225.186881 234.824392 
L 230.291301 234.412809 
L 235.375178 233.797433 
L 240.430381 232.979248 
L 245.448822 231.959563 
L 250.422471 230.74001 
L 255.343374 229.32254 
L 260.203656 227.709419 
L 264.995543 225.90323 
L 269.711369 223.906861 
L 274.343589 221.723506 
L 278.884793 219.356658 
L 283.327716 216.810104 
L 287.66525 214.087917 
L 291.890456 211.194452 
L 295.996574 208.134339 
L 299.977036 204.912473 
L 303.825474 201.534007 
L 307.535731 198.004348 
L 311.101871 194.329141 
L 314.51819 190.514267 
L 317.779222 186.565828 
L 320.87975 182.49014 
L 323.814814 178.293725 
L 326.579718 173.983295 
L 329.170039 169.565746 
L 331.581634 165.048145 
L 333.810644 160.437721 
L 335.853502 155.741847 
L 337.706942 150.968037 
L 339.367998 146.123928 
L 340.834013 141.217268 
L 342.100952 136.263111 
L 337.169895 134.88138 
L 332.187528 133.697944 
L 327.161821 132.714697 
L 322.100815 131.93321 
L 317.012607 131.354735 
L 311.905335 130.980196 
L 306.787171 130.810194 
L 301.666303 130.845 
L 296.550923 131.084557 
L 291.449214 131.528484 
L 286.369339 132.17607 
L 281.319423 133.026278 
L 276.307546 134.07775 
L 271.341726 135.328801 
L 269.668432 135.798362 
L 270.261472 130.71183 
L 270.650631 125.605652 
L 270.835285 120.487995 
L 270.815141 115.367049 
L 270.590229 110.251004 
L 270.16091 105.148045 
L 269.52787 100.066336 
L 268.692123 95.014007 
L 267.655005 89.999141 
L 266.418175 85.029759 
L 264.983613 80.113812 
L 263.353612 75.259165 
L 261.530781 70.473584 
L 259.518036 65.764724 
L 258.539461 63.648 
L 256.441287 68.31942 
L 254.531598 73.071008 
L 252.81345 77.895163 
L 251.28959 82.784166 
L 249.962458 87.730197 
L 248.834175 92.725343 
L 247.906548 97.761612 
L 247.18106 102.830949 
L 246.658871 107.925242 
L 246.340818 113.036342 
L 246.227408 118.156072 
L 246.318824 123.276242 
L 246.363607 124.341485 
L 248.486004 119.68102 
L 250.420333 114.93941 
L 252.163502 110.124239 
L 253.712721 105.243212 
L 255.065512 100.304138 
L 256.21971 95.314917 
L 257.173469 90.283531 
L 257.925264 85.218029 
L 258.473892 80.126515 
L 258.818474 75.017135 
L 258.95846 69.898063 
L 258.893626 64.777487 
L 258.851731 63.648 
L 258.805024 64.927474 
L 258.746191 70.048123 
L 258.892177 75.167028 
L 259.242748 80.276001 
L 259.797342 85.366868 
L 260.555074 90.431485 
L 261.51473 95.461749 
L 262.674775 100.449614 
L 264.033354 105.3871 
L 265.588292 110.266308 
L 267.337104 115.079431 
L 269.27699 119.818771 
L 271.404847 124.476746 
L 273.717272 129.045903 
L 276.210564 133.518932 
L 278.880736 137.888679 
L 281.723515 142.148152 
L 284.734353 146.290537 
L 287.908435 150.309207 
L 291.240681 154.197733 
L 294.725762 157.949894 
L 298.358101 161.559688 
L 302.131888 165.02134 
L 306.041086 168.329312 
L 310.07944 171.478311 
L 314.24049 174.4633 
L 318.51758 177.279505 
L 322.903867 179.922418 
L 327.392333 182.387813 
L 331.975799 184.671745 
L 336.646931 186.77056 
L 341.398257 188.680901 
L 346.222176 190.399711 
L 351.11097 191.924242 
L 353.728501 192.653383 
L 350.038341 189.102718 
L 346.209143 185.702461 
L 342.247035 182.458051 
L 338.158354 179.374677 
L 333.949642 176.457274 
L 329.627631 173.710508 
L 325.199236 171.138774 
L 320.671541 168.746185 
L 316.05179 166.536569 
L 311.347373 164.513462 
L 306.565816 162.680099 
L 301.714769 161.039414 
L 296.801993 159.594032 
L 291.835346 158.346265 
L 286.822775 157.298108 
L 284.220223 156.835774 
L 287.439647 152.853336 
L 290.497241 148.745341 
L 293.388113 144.518361 
L 296.107639 140.179159 
L 298.651468 135.734675 
L 301.01553 131.19202 
L 303.196043 126.558462 
L 305.18952 121.841412 
L 306.992769 117.048418 
L 308.602908 112.187147 
L 310.01736 107.265377 
L 311.233863 102.29098 
L 312.250469 97.271915 
L 313.065553 92.216211 
L 313.686252 87.047408 
L 308.978366 85.032387 
L 304.193667 83.207243 
L 299.339808 81.574896 
L 294.424555 80.137957 
L 289.455772 78.898725 
L 284.441407 77.859183 
L 279.389483 77.020993 
L 274.308081 76.385497 
L 269.20533 75.953711 
L 264.089395 75.726326 
L 258.968458 75.703706 
L 253.850713 75.885887 
L 248.744348 76.272577 
L 243.65753 76.863158 
L 238.598398 77.656685 
L 233.575045 78.651889 
L 228.595508 79.847177 
L 223.667753 81.240638 
L 218.799663 82.830041 
L 213.999027 84.612845 
L 209.273523 86.586197 
L 204.630713 88.746941 
L 200.078023 91.091619 
L 195.622736 93.61648 
L 191.271981 96.317486 
L 187.032718 99.190315 
L 182.911727 102.230371 
L 178.915604 105.432791 
L 175.050739 108.792452 
L 171.323316 112.30398 
L 167.739299 115.961755 
L 164.30442 119.759927 
L 161.024175 123.692419 
L 157.903812 127.752941 
L 154.948323 131.934996 
L 152.162435 136.231893 
L 149.550605 140.63676 
L 147.117013 145.142548 
L 144.86555 149.74205 
L 142.799819 154.427908 
L 140.923126 159.192624 
L 139.238471 164.028577 
L 137.74855 168.92803 
L 136.455747 173.883144 
L 135.362129 178.885994 
L 134.469447 183.928575 
L 133.779129 189.00282 
L 133.292278 194.100611 
L 133.009674 199.213794 
L 132.931769 204.334188 
L 133.058688 209.453601 
L 133.390227 214.563844 
L 133.856408 219.092981 
L 138.012487 222.084889 
L 142.284885 224.908205 
L 146.666769 227.558412 
L 151.151128 230.031271 
L 155.730787 232.322825 
L 160.398421 234.429408 
L 165.146563 236.347651 
L 169.967615 238.074485 
L 174.853866 239.607146 
L 179.797499 240.943184 
L 184.790605 242.08046 
L 189.825195 243.017156 
L 194.893217 243.751772 
L 199.986561 244.283134 
L 205.09708 244.610392 
L 210.216598 244.733022 
L 215.336925 244.650827 
L 220.449869 244.36394 
L 225.547251 243.872819 
L 230.620916 243.178249 
L 235.662747 242.281343 
L 240.664678 241.183535 
L 245.618708 239.886581 
L 250.516911 238.392557 
L 255.351451 236.703851 
L 260.114594 234.823166 
L 264.798719 232.753511 
L 269.396333 230.498196 
L 273.900081 228.060829 
L 278.302758 225.445311 
L 282.59732 222.655824 
L 286.776898 219.696832 
L 290.834804 216.573068 
L 294.764547 213.28953 
L 298.55984 209.851471 
L 302.214611 206.26439 
L 305.723015 202.534027 
L 309.079437 198.666349 
L 312.278508 194.667544 
L 315.315111 190.544009 
L 318.184388 186.30234 
L 320.881748 181.949324 
L 323.402876 177.491924 
L 325.743739 172.937271 
L 327.900592 168.292652 
L 329.869985 163.565497 
L 331.648766 158.763368 
L 333.234091 153.893949 
L 334.623423 148.965028 
L 335.814539 143.984491 
L 336.805534 138.960307 
L 337.594823 133.900512 
L 338.126151 129.378554 
L 333.418265 127.363533 
L 328.633565 125.538389 
L 323.779707 123.906042 
L 318.864454 122.469103 
L 313.895671 121.229871 
L 308.881306 120.190329 
L 303.829382 119.352139 
L 298.74798 118.716643 
L 293.645229 118.284857 
L 288.529293 118.057472 
L 283.408357 118.034852 
L 278.290612 118.217033 
L 273.184246 118.603723 
L 268.097428 119.194304 
L 263.038296 119.987832 
L 258.014944 120.983035 
L 253.035407 122.178324 
L 248.107652 123.571784 
L 245.931702 124.255605 
L 241.941276 121.046087 
L 237.825696 117.998711 
L 233.591545 115.118352 
L 229.245597 112.409618 
L 224.794806 109.876842 
L 220.24629 107.524077 
L 215.607327 105.355085 
L 210.885338 103.373337 
L 206.087878 101.582004 
L 201.22262 99.983951 
L 196.29735 98.581734 
L 191.319945 97.377598 
L 186.298369 96.373467 
L 181.240656 95.57095 
L 176.154896 94.971329 
L 171.049225 94.575563 
L 165.931812 94.384287 
L 160.810844 94.397805 
L 155.694512 94.616097 
L 154.204988 94.718245 
L 156.521005 99.285582 
L 159.017814 103.75665 
L 161.691422 108.124295 
L 164.53755 112.381531 
L 167.551645 116.521547 
L 170.728886 120.537719 
L 174.064189 124.423624 
L 177.552219 128.173043 
L 181.187397 131.77998 
L 184.963905 135.238662 
L 188.875703 138.543559 
L 192.916532 141.689381 
L 195.411352 143.506273 
L 193.913808 142.30394 
L 189.83394 139.208914 
L 185.633569 136.279515 
L 181.319412 133.520429 
L 176.898372 130.93607 
L 172.377522 128.530573 
L 167.764094 126.307786 
L 163.065469 124.271265 
L 158.289162 122.424268 
L 153.442816 120.769749 
L 148.534183 119.310356 
L 143.571117 118.048424 
L 141.058124 117.48928 
L 144.558066 121.227583 
L 148.204701 124.822936 
L 151.992194 128.269586 
L 155.914487 131.56202 
L 159.965305 134.69497 
L 164.138167 137.663424 
L 168.426398 140.462635 
L 172.823137 143.088122 
L 177.321351 145.535687 
L 181.913843 147.801414 
L 186.593267 149.881678 
L 190.450509 151.43163 
L 186.084442 148.755447 
L 181.614848 146.256 
L 177.048878 143.937289 
L 172.393837 141.803022 
L 167.657171 139.856615 
L 162.846459 138.101181 
L 157.969396 136.539528 
L 153.033785 135.174155 
L 148.047521 134.007245 
L 143.018582 133.040667 
L 137.955013 132.275965 
L 132.846239 131.712683 
L 135.877045 135.840481 
L 139.070494 139.843777 
L 142.421478 143.716168 
L 145.924636 147.451457 
L 149.574364 151.04367 
L 153.364822 154.487059 
L 157.289947 157.776116 
L 161.34346 160.905578 
L 165.518875 163.870441 
L 169.809513 166.665959 
L 174.208511 169.287662 
L 178.708829 171.731355 
L 183.30327 173.993128 
L 184.947194 174.747846 
L 180.340287 176.984118 
L 175.826492 179.402829 
L 171.413031 182.000109 
L 167.106964 184.771802 
L 162.915179 187.713475 
L 158.844382 190.820422 
L 154.901086 194.087671 
L 151.0916 197.509998 
L 147.422018 201.081925 
L 143.89821 204.79774 
L 140.525813 208.651497 
L 137.310223 212.637031 
L 134.256584 216.747967 
L 133.293844 218.118591 
L 138.388109 217.596129 
L 143.457406 216.870367 
L 148.493625 215.942469 
L 153.48871 214.813917 
L 158.43467 213.486519 
L 163.323591 211.962396 
L 168.147653 210.243988 
L 172.899138 208.334043 
L 177.570446 206.235618 
L 182.154102 203.952068 
L 186.642774 201.487048 
L 191.072921 198.816993 
L 186.452138 201.024449 
L 181.923325 203.414921 
L 177.493728 205.984585 
L 173.170433 208.72933 
L 168.960358 211.644766 
L 164.870236 214.726227 
L 160.906611 217.968785 
L 157.075825 221.367252 
L 153.384005 224.916191 
L 149.837058 228.609925 
L 146.440658 232.442544 
L 143.577126 235.929758 
L 148.627476 235.082134 
L 153.63989 234.033227 
L 158.60635 232.784717 
L 163.51891 231.3386 
L 168.369711 229.69719 
L 173.150994 227.863112 
L 177.855108 225.839301 
L 182.474529 223.628995 
L 187.001866 221.235729 
L 191.429876 218.663332 
L 195.751476 215.915919 
L 199.959752 212.997886 
L 201.281619 212.028645 
L 198.619541 216.403327 
L 196.134534 220.880965 
L 193.830572 225.454395 
L 191.711342 230.116301 
L 189.780233 234.859224 
L 188.040335 239.675577 
L 186.494432 244.557655 
L 185.144996 249.497648 
L 183.994187 254.487652 
L 183.043845 259.519684 
L 182.295491 264.585695 
L 181.750323 269.67758 
L 181.409211 274.787193 
L 181.272702 279.90636 
L 181.354293 285.408 
L 181.437857 280.287695 
L 181.316595 275.168145 
L 180.990704 270.057539 
L 180.460703 264.964052 
L 179.727441 259.895835 
L 178.792092 254.860994 
L 177.65615 249.867585 
L 176.321434 244.923595 
L 174.790078 240.036934 
L 173.064534 235.21542 
L 171.14756 230.466766 
L 169.042224 225.798569 
L 166.751894 221.218297 
L 164.280235 216.733278 
L 161.631199 212.350686 
L 158.809025 208.077533 
L 155.818228 203.920655 
L 152.663593 199.886702 
L 149.350166 195.982127 
L 145.883248 192.213177 
L 142.268385 188.585882 
L 138.511361 185.106044 
L 134.618186 181.779231 
L 130.595088 178.610764 
L 126.448502 175.605713 
L 122.185064 172.768884 
L 117.811593 170.104817 
L 113.335086 167.617773 
L 112.39965 167.127214 
L 113.482141 167.810917 
L 117.878839 170.436473 
L 122.377015 172.884108 
L 126.969472 175.149906 
L 131.648863 177.230243 
L 136.407703 179.121789 
L 141.238377 180.82152 
L 146.133159 182.326716 
L 151.084217 183.634968 
L 156.083631 184.744185 
L 161.123403 185.652591 
L 166.19547 186.358733 
L 171.291718 186.861482 
L 176.403995 187.160033 
L 181.524121 187.253909 
L 186.52594 187.147823 
L 181.977089 189.499941 
L 177.525937 192.032083 
L 173.179604 194.740199 
L 168.945043 197.619955 
L 164.829028 200.666745 
L 160.838146 203.875695 
L 156.978779 207.24167 
L 153.257103 210.759287 
L 149.67907 214.422917 
L 146.250406 218.2267 
L 142.976595 222.16455 
L 139.862875 226.230168 
L 138.813773 227.679389 
L 143.900341 227.086656 
L 148.959136 226.290988 
L 153.982067 225.293659 
L 158.961098 224.096264 
L 163.888263 222.700718 
L 168.75568 221.109255 
L 173.555562 219.32442 
L 178.28023 217.349069 
L 182.922126 215.186361 
L 187.473824 212.839757 
L 191.928041 210.313011 
L 196.277653 207.610165 
L 196.786768 207.277786 
L 193.318982 211.045937 
L 190.004655 214.949748 
L 186.849091 218.982974 
L 183.857336 223.139163 
L 181.034178 227.411666 
L 178.384133 231.793648 
L 175.91144 236.278097 
L 173.620055 240.857842 
L 171.513644 245.525553 
L 169.595576 250.273766 
L 167.868921 255.094882 
L 166.33644 259.98119 
L 165.000584 264.924872 
L 163.863492 269.918019 
L 163.690797 270.767658 
L 168.573186 272.312579 
L 173.51345 273.661021 
L 178.503685 274.810826 
L 183.535909 275.760155 
L 188.60207 276.50749 
L 193.694065 277.051634 
L 198.803746 277.391718 
L 203.92294 277.527197 
L 209.043457 277.457854 
L 214.157105 277.183801 
L 219.255704 276.705476 
L 224.331096 276.023643 
L 229.375163 275.139395 
L 234.379834 274.054145 
L 239.337103 272.769629 
L 244.239041 271.287903 
L 249.077804 269.611338 
L 253.845652 267.742614 
L 258.534957 265.684722 
L 263.138217 263.440954 
L 267.648069 261.014899 
L 272.057297 258.410439 
L 276.358847 255.63174 
L 280.545838 252.683248 
L 284.611572 249.569679 
L 288.549544 246.296015 
L 292.353455 242.867493 
L 296.017218 239.289597 
L 299.534973 235.568051 
L 302.901092 231.70881 
L 306.11019 227.718047 
L 309.157134 223.602146 
L 312.037048 219.367692 
L 314.745325 215.02146 
L 317.277633 210.570402 
L 319.629921 206.021639 
L 321.798425 201.382448 
L 323.779676 196.660251 
L 325.570505 191.862602 
L 327.168047 186.997177 
L 328.569745 182.071759 
L 329.773359 177.094228 
L 330.776961 172.072546 
L 331.578947 167.014748 
L 332.178033 161.928925 
L 332.573262 156.823213 
L 332.764001 151.70578 
L 332.749944 146.584813 
L 332.531114 141.468504 
L 332.107861 136.365039 
L 331.480863 131.282581 
L 330.651123 126.229262 
L 329.619967 121.213166 
L 328.389046 116.242318 
L 326.960328 111.324669 
L 325.999485 108.374553 
L 322.545638 104.593621 
L 318.943357 100.953831 
L 315.198405 97.461005 
L 311.316772 94.120731 
L 307.304669 90.938353 
L 303.168514 87.918962 
L 298.914924 85.067388 
L 294.550704 82.388193 
L 290.082836 79.885664 
L 285.518467 77.563803 
L 280.864899 75.426326 
L 276.129577 73.476651 
L 271.320077 71.717899 
L 266.444093 70.152882 
L 261.509425 68.784104 
L 256.523967 67.613755 
L 251.495696 66.643708 
L 246.432656 65.875513 
L 241.342945 65.310401 
L 236.234708 64.949275 
L 231.116115 64.792712 
L 225.995356 64.840964 
L 220.880623 65.093953 
L 215.780098 65.551275 
L 210.70194 66.212197 
L 205.654274 67.075663 
L 200.645176 68.140291 
L 195.682658 69.404378 
L 190.774659 70.865902 
L 185.929032 72.522524 
L 181.153527 74.371594 
L 176.455786 76.410155 
L 171.843323 78.634944 
L 167.323518 81.042403 
L 162.9036 83.628681 
L 159.276455 85.934207 
L 159.074772 91.05122 
L 159.077877 96.172206 
L 159.285764 101.288971 
L 159.698101 106.39333 
L 160.314228 111.477117 
L 161.133159 116.532199 
L 162.153585 121.550488 
L 163.373873 126.523958 
L 164.79207 131.444651 
L 166.405908 136.304695 
L 168.212805 141.096315 
L 170.20987 145.811846 
L 172.393909 150.443744 
L 174.761428 154.984598 
L 177.308638 159.427145 
L 180.031465 163.764277 
L 182.925554 167.989055 
L 185.074851 170.90758 
L 181.508406 174.582491 
L 178.091771 178.397082 
L 174.830412 182.345251 
L 171.729546 186.420682 
L 168.794134 190.616854 
L 166.028873 194.927055 
L 163.438185 199.344389 
L 161.026216 203.861789 
L 158.796824 208.472029 
L 156.753576 213.167734 
L 154.899741 217.94139 
L 153.238283 222.785361 
L 151.771862 227.691899 
L 150.502823 232.653153 
L 149.433196 237.661187 
L 148.564692 242.707988 
L 148.348394 244.193837 
L 153.132201 246.021319 
L 157.985262 247.656037 
L 162.899812 249.095377 
L 167.867989 250.337037 
L 172.881845 251.379029 
L 177.93336 252.219687 
L 183.014451 252.857665 
L 188.116989 253.291944 
L 193.232813 253.521829 
L 198.353738 253.546951 
L 203.471571 253.367271 
L 208.578126 252.983075 
L 213.665231 252.39498 
L 218.724751 251.603924 
L 223.748589 250.611175 
L 228.728709 249.41832 
L 233.657144 248.027267 
L 238.52601 246.440242 
L 243.327517 244.659784 
L 248.053984 242.688741 
L 252.69785 240.530266 
L 257.251685 238.187813 
L 261.708205 235.665129 
L 266.060279 232.966249 
L 270.300946 230.095492 
L 274.42342 227.057449 
L 278.421109 223.856982 
L 282.287614 220.499209 
L 286.016752 216.989504 
L 289.602556 213.33348 
L 293.03929 209.536987 
L 296.321456 205.606097 
L 299.443803 201.547101 
L 302.401335 197.366491 
L 305.189322 193.070954 
L 307.803304 188.667365 
L 310.239097 184.162766 
L 312.492807 179.564364 
L 314.560827 174.879517 
L 316.439848 170.115718 
L 318.126866 165.280589 
L 319.61918 160.381865 
L 320.914404 155.427382 
L 322.010466 150.425068 
L 322.905611 145.382924 
L 323.598409 140.309016 
L 324.08775 135.211463 
L 324.372852 130.098419 
L 324.453259 124.978064 
L 324.328842 119.85859 
L 323.9998 114.748185 
L 323.466659 109.655027 
L 322.730273 104.587262 
L 322.252308 101.884252 
L 318.300606 98.627175 
L 314.221816 95.53073 
L 310.022464 92.599869 
L 305.709267 89.839283 
L 301.289127 87.253386 
L 296.769114 84.846316 
L 292.15646 82.621924 
L 287.458543 80.583768 
L 282.68288 78.735108 
L 277.83711 77.078904 
L 272.928985 75.617803 
L 267.966358 74.354143 
L 262.957168 73.289947 
L 257.909428 72.426916 
L 252.831214 71.766431 
L 247.730649 71.309548 
L 242.615894 71.057 
L 237.49513 71.009189 
L 232.376551 71.166192 
L 227.268345 71.527758 
L 222.178683 72.093309 
L 217.115709 72.861939 
L 212.087522 73.83242 
L 207.102165 75.003198 
L 202.167615 76.372401 
L 197.291765 77.937838 
L 192.482417 79.697004 
L 187.747263 81.647087 
L 183.093879 83.784965 
L 178.52971 86.107218 
L 174.062057 88.610133 
L 169.698068 91.289703 
L 165.444724 94.141644 
L 161.308829 97.161391 
L 157.297 100.344115 
L 153.415655 103.684723 
L 149.671003 107.177871 
L 146.069035 110.817972 
L 142.938362 114.232613 
L 141.409118 119.119935 
L 140.076537 124.064501 
L 138.942753 129.058401 
L 138.009578 134.093645 
L 137.278505 139.162179 
L 136.750705 144.255893 
L 136.427021 149.36664 
L 136.307971 154.486242 
L 136.393746 159.60651 
L 136.684209 164.719253 
L 137.178894 169.81629 
L 137.877011 174.889468 
L 138.777443 179.930671 
L 139.878748 184.931833 
L 141.179166 189.884955 
L 142.676615 194.782112 
L 144.368701 199.61547 
L 146.252716 204.377296 
L 148.325647 209.059973 
L 150.584176 213.656009 
L 153.024691 218.158051 
L 155.643288 222.558898 
L 158.435777 226.851509 
L 161.397691 231.029016 
L 164.524291 235.084737 
L 167.810577 239.012183 
L 171.251289 242.805071 
L 174.840924 246.457333 
L 178.57374 249.963127 
L 182.443764 253.316844 
L 186.444805 256.513118 
L 190.570463 259.546837 
L 194.814137 262.413147 
L 199.169038 265.107462 
L 203.6282 267.625473 
L 208.184489 269.963151 
L 212.830615 272.116755 
L 217.559146 274.082842 
L 222.362517 275.858265 
L 227.233044 277.440184 
L 232.162935 278.826069 
L 237.144303 280.013702 
L 242.16918 281.001184 
L 247.229525 281.786934 
L 252.317245 282.369696 
L 257.424199 282.748538 
L 262.542218 282.922852 
L 267.663114 282.892361 
L 272.778694 282.657113 
L 277.880775 282.217485 
L 282.961194 281.574179 
L 288.011824 280.728226 
L 293.024585 279.680978 
L 297.991458 278.43411 
L 302.904496 276.989618 
L 305.534744 276.127418 
L 304.437067 271.125458 
L 303.140242 266.171394 
L 301.646346 261.273152 
L 299.957766 256.438568 
L 298.077206 251.675377 
L 296.007673 246.991197 
L 293.752478 242.393524 
L 291.315229 237.889713 
L 288.699825 233.486967 
L 285.910451 229.192332 
L 282.951568 225.012677 
L 279.82791 220.95469 
L 276.544475 217.024861 
L 273.106515 213.229478 
L 271.519027 211.575794 
L 275.99895 216.147774 
L 279.743937 219.640564 
L 283.625602 222.9808 
L 287.637736 226.163139 
L 291.773921 229.18249 
L 296.027538 232.034022 
L 300.391785 234.713175 
L 304.859677 237.21566 
L 309.424069 239.537477 
L 314.077658 241.674909 
L 318.812998 243.624537 
L 323.340907 245.28624 
L 319.405431 242.009575 
L 315.342072 238.892908 
L 311.157329 235.941225 
L 306.857898 233.159248 
L 302.450657 230.551428 
L 297.942656 228.121937 
L 293.341107 225.874661 
L 288.653372 223.813195 
L 283.88695 221.940838 
L 279.049466 220.260584 
L 274.148659 218.775122 
L 269.19237 217.486829 
L 265.323645 216.626476 
L 264.630533 221.700341 
L 264.140876 226.797863 
L 263.855457 231.91089 
L 263.774733 237.03124 
L 263.898833 242.150722 
L 264.227558 247.261147 
L 264.760383 252.354338 
L 265.496455 257.422149 
L 266.434597 262.45647 
L 267.573307 267.449249 
L 268.910765 272.392498 
L 270.44483 277.278308 
L 272.173048 282.098865 
L 273.487634 285.408 
L 275.349233 280.637366 
L 277.01857 275.796104 
L 278.492972 270.891959 
L 279.770081 265.932776 
L 280.847854 260.926489 
L 281.724567 255.881108 
L 282.398817 250.804703 
L 282.869526 245.705395 
L 283.135941 240.591343 
L 283.197635 235.470729 
L 283.054509 230.351743 
L 282.706793 225.242575 
L 282.155044 220.151399 
L 281.400142 215.086359 
L 280.443297 210.055559 
L 279.286039 205.067047 
L 278.740006 202.983983 
L 283.805185 202.230022 
L 288.836163 201.274111 
L 293.82489 200.117779 
L 298.763386 198.762876 
L 303.643749 197.211569 
L 308.458173 195.466341 
L 313.198956 193.529983 
L 317.858513 191.405594 
L 322.42939 189.096571 
L 326.904274 186.606609 
L 331.276007 183.93969 
L 335.537595 181.100083 
L 339.68222 178.092329 
L 343.703252 174.921239 
L 347.594257 171.591888 
L 351.349012 168.109602 
L 354.961509 164.47995 
L 357.080862 162.209076 
L 352.100831 163.402305 
L 347.1725 164.793726 
L 342.303753 166.381116 
L 337.502379 168.161933 
L 332.77606 170.13333 
L 328.132356 172.292153 
L 323.578696 174.634947 
L 319.122365 177.157965 
L 314.770493 179.857171 
L 310.530041 182.728246 
L 306.407794 185.766597 
L 302.410346 188.967364 
L 298.544091 192.325426 
L 294.815216 195.83541 
L 291.229686 199.491703 
L 287.793236 203.288453 
L 284.511365 207.219588 
L 281.389322 211.278819 
L 278.432103 215.459651 
L 275.644437 219.755395 
L 273.030786 224.159181 
L 270.595329 228.663962 
L 268.341964 233.262532 
L 266.274295 237.947535 
L 264.39563 242.711474 
L 262.708975 247.54673 
L 261.217027 252.445566 
L 259.922174 257.400145 
L 258.826488 262.402542 
L 257.93172 267.444753 
L 257.239302 272.518712 
L 256.750342 277.616301 
L 256.465623 282.729367 
L 256.398207 285.408 
L 256.355578 283.487993 
L 256.101176 278.37333 
L 255.642445 273.272931 
L 254.98012 268.194956 
L 254.11526 263.147529 
L 253.049248 258.138725 
L 251.783791 253.176556 
L 250.320911 248.268962 
L 248.662951 243.423792 
L 246.812561 238.648799 
L 244.772703 233.951621 
L 242.54664 229.339773 
L 240.544307 225.553266 
L 238.973682 230.427446 
L 237.599228 235.360537 
L 236.423145 240.344644 
L 235.447314 245.371796 
L 234.673295 250.43395 
L 234.102328 255.523006 
L 233.735326 260.630825 
L 233.572875 265.749234 
L 233.615237 270.870045 
L 233.862342 275.985066 
L 234.313796 281.086114 
L 234.858111 285.408 
L 235.48283 280.325262 
L 235.903793 275.221607 
L 236.120328 270.105201 
L 236.132088 264.984228 
L 235.939055 259.866881 
L 235.541536 254.761346 
L 234.940169 249.675792 
L 234.135915 244.618355 
L 233.13006 239.597124 
L 231.924214 234.620133 
L 230.520307 229.695344 
L 229.066195 225.2476 
L 226.207818 229.496622 
L 223.521644 233.856549 
L 221.011969 238.320408 
L 218.682808 242.881056 
L 216.537887 247.531198 
L 214.580639 252.263394 
L 212.814193 257.070073 
L 211.241376 261.943547 
L 209.864704 266.876019 
L 208.68638 271.859597 
L 207.708288 276.88631 
L 206.931993 281.948115 
L 206.519822 285.408 
L 205.881556 280.326945 
L 205.040613 275.275478 
L 203.998337 270.261681 
L 202.756397 265.293574 
L 201.316779 260.379105 
L 199.681786 255.526137 
L 197.854034 250.742433 
L 195.836447 246.035646 
L 193.632253 241.413306 
L 191.244977 236.882807 
L 188.67844 232.451398 
L 185.936746 228.126168 
L 183.024282 223.914036 
L 179.945707 219.821741 
L 176.705947 215.855829 
L 173.310184 212.022646 
L 169.763851 208.328322 
L 166.072621 204.77877 
L 162.2424 201.379666 
L 158.279314 198.13645 
L 154.189704 195.054309 
L 149.980113 192.138174 
L 145.657275 189.39271 
L 141.228105 186.82231 
L 136.699689 184.431085 
L 132.079272 182.222862 
L 127.374246 180.201172 
L 122.592137 178.36925 
L 117.740596 176.730027 
L 112.827385 175.286125 
L 108.343922 174.151941 
L 111.92097 177.816533 
L 115.641701 181.335149 
L 119.500163 184.702161 
L 123.490183 187.912183 
L 127.605379 190.960079 
L 131.839166 193.840973 
L 136.184771 196.550256 
L 140.635243 199.083595 
L 145.183461 201.436935 
L 149.82215 203.606513 
L 154.543888 205.588857 
L 159.341122 207.380796 
L 164.206178 208.979464 
L 169.131271 210.382303 
L 174.108524 211.587069 
L 179.129973 212.591833 
L 184.187585 213.39499 
L 189.273269 213.995254 
L 194.37889 214.391664 
L 199.496278 214.583587 
L 204.242162 214.578612 
L 205.38704 219.56998 
L 206.730603 224.511572 
L 208.270703 229.395484 
L 210.004876 234.213902 
L 211.930346 238.959117 
L 214.044034 243.623538 
L 216.342559 248.199703 
L 218.822243 252.680291 
L 221.479119 257.058134 
L 224.308937 261.326229 
L 227.30717 265.477747 
L 230.46902 269.506047 
L 233.789431 273.404685 
L 237.26309 277.167423 
L 240.884439 280.788241 
L 244.647686 284.261349 
L 245.958959 285.408 
L 249.769108 281.986412 
L 253.439383 278.415196 
L 256.963912 274.700065 
L 260.337056 270.846962 
L 263.553418 266.862051 
L 266.607854 262.751708 
L 269.495477 258.522507 
L 272.211667 254.181215 
L 274.752079 249.734778 
L 277.112648 245.190307 
L 279.2896 240.555074 
L 281.27945 235.836494 
L 283.079015 231.042116 
L 284.685417 226.179609 
L 286.096086 221.256752 
L 287.308764 216.281422 
L 288.321513 211.261577 
L 289.132711 206.205248 
L 289.741061 201.120525 
L 290.145589 196.015541 
L 290.34565 190.898464 
L 290.340921 185.77748 
L 290.131412 180.660781 
L 289.717457 175.556553 
L 289.099718 170.472962 
L 288.279184 165.418139 
L 287.257167 160.400173 
L 286.035303 155.427091 
L 284.615546 150.506848 
L 283.000167 145.647316 
L 281.191751 140.856268 
L 279.193191 136.141371 
L 277.007683 131.510166 
L 274.638725 126.970062 
L 272.090107 122.528324 
L 269.365904 118.192055 
L 266.470477 113.968194 
L 263.408456 109.863498 
L 260.18474 105.884534 
L 256.804486 102.037666 
L 253.273103 98.32905 
L 249.59624 94.764618 
L 245.779778 91.350072 
L 241.829824 88.090876 
L 237.752696 84.992242 
L 233.554917 82.059129 
L 229.243202 79.296228 
L 224.82445 76.70796 
L 220.30573 74.298465 
L 215.69427 72.071598 
L 210.997447 70.030922 
L 206.222776 68.1797 
L 201.377896 66.520896 
L 196.470556 65.057162 
L 191.508607 63.79084 
L 190.891326 63.648 
L 185.923172 64.889752 
L 181.008649 66.329183 
L 176.155619 67.963992 
L 171.371846 69.791563 
L 167.698492 71.34681 
L 168.349737 76.426218 
L 169.203582 81.47552 
L 170.258663 86.486638 
L 171.513292 91.451556 
L 172.96546 96.362331 
L 174.612846 101.211106 
L 176.452813 105.990125 
L 178.482418 110.691742 
L 180.698414 115.308436 
L 183.097256 119.832821 
L 185.675107 124.257659 
L 188.427842 128.57587 
L 191.351057 132.780548 
L 194.440076 136.864965 
L 197.646337 140.771554 
L 193.295443 138.070773 
L 188.840026 135.546141 
L 184.287215 133.201698 
L 179.644293 131.041194 
L 174.918688 129.068086 
L 170.117959 127.28553 
L 165.249787 125.696377 
L 160.32196 124.303171 
L 155.342362 123.108139 
L 150.318958 122.113195 
L 145.259785 121.319928 
L 140.172937 120.72961 
L 139.237093 120.643399 
L 142.261496 124.775891 
L 145.448736 128.784133 
L 148.793712 132.661714 
L 152.291076 136.402429 
L 155.93523 140.000296 
L 159.720346 143.449557 
L 163.640367 146.744694 
L 167.689024 149.880437 
L 171.859838 152.851768 
L 176.146138 155.653935 
L 180.541065 158.282454 
L 185.03759 160.73312 
L 186.620647 161.541376 
L 181.501616 161.399883 
L 176.381021 161.46321 
L 171.267055 161.731256 
L 166.167898 162.203591 
L 161.091708 162.87946 
L 156.046606 163.757782 
L 151.040663 164.837152 
L 146.081888 166.115842 
L 141.178213 167.591808 
L 136.337484 169.262688 
L 131.567444 171.125809 
L 126.875724 173.178191 
L 122.269831 175.416549 
L 117.757132 177.837304 
L 113.344848 180.436582 
L 112.017107 181.266201 
L 113.148222 180.666356 
L 117.611013 178.154783 
L 121.969798 175.466755 
L 126.217604 172.606572 
L 130.347635 169.57881 
L 134.353284 166.388312 
L 138.228144 163.040183 
L 141.966015 159.53978 
L 145.560917 155.892701 
L 149.007099 152.104782 
L 152.299048 148.182083 
L 155.431498 144.130878 
L 158.399437 139.957649 
L 161.198118 135.669073 
L 163.823062 131.272009 
L 166.270072 126.773493 
L 168.535231 122.180721 
L 170.614916 117.501041 
L 172.505801 112.741938 
L 174.20486 107.911027 
L 175.709375 103.016036 
L 177.016939 98.064796 
L 178.12546 93.065228 
L 179.033165 88.02533 
L 179.738602 82.953164 
L 180.240642 77.856846 
L 180.538482 72.744528 
L 180.631646 67.62439 
L 180.562696 63.648 
L 180.513979 65.567862 
L 180.524887 70.688837 
L 180.740571 75.805279 
L 181.160686 80.909004 
L 181.784559 85.991846 
L 182.611193 91.045674 
L 183.639264 96.062403 
L 184.867129 101.034007 
L 186.292823 105.952533 
L 187.914065 110.810113 
L 189.728262 115.598974 
L 191.732511 120.311456 
L 193.923605 124.94002 
L 196.298041 129.477262 
L 198.852018 133.915922 
L 200.973436 137.316367 
L 196.774163 134.385394 
L 192.46104 131.624692 
L 188.040969 129.038677 
L 183.521021 126.631487 
L 178.908426 124.406971 
L 174.210563 122.36869 
L 169.434949 120.519903 
L 164.589223 118.863568 
L 159.681138 117.402336 
L 154.718545 116.138544 
L 149.709383 115.074214 
L 144.661666 114.211048 
L 143.082231 113.983425 
L 146.304255 117.963759 
L 149.682873 121.812063 
L 153.21268 125.52218 
L 156.888028 129.088175 
L 160.703037 132.504343 
L 164.651606 135.765218 
L 168.727416 138.865584 
L 172.923948 141.800482 
L 177.234488 144.565215 
L 181.652139 147.155361 
L 186.169835 149.566777 
L 190.364015 151.603611 
L 188.666663 150.705145 
L 184.076487 148.43473 
L 179.39919 146.349689 
L 174.642256 144.453357 
L 169.813293 142.748769 
L 164.920027 141.238652 
L 159.970287 139.925421 
L 154.971991 138.811177 
L 149.933135 137.897703 
L 144.861781 137.18646 
L 139.766041 136.678587 
L 134.654068 136.374894 
L 130.210908 136.277211 
L 132.879823 140.647725 
L 135.721378 144.908015 
L 138.731025 149.051265 
L 141.903951 153.070847 
L 145.23508 156.960331 
L 148.719082 160.713494 
L 152.350383 164.324332 
L 156.123175 167.787069 
L 160.031421 171.096164 
L 164.06887 174.246324 
L 168.229062 177.232509 
L 172.505342 180.049943 
L 176.890869 182.694117 
L 181.378626 185.160802 
L 185.961435 187.446051 
L 186.69373 187.790276 
L 183.841849 192.04366 
L 181.162339 196.407687 
L 178.659487 200.875375 
L 176.337297 205.439576 
L 174.199484 210.09299 
L 172.249468 214.828171 
L 170.490368 219.637544 
L 168.924999 224.513415 
L 167.555865 229.447984 
L 166.385156 234.433357 
L 165.414746 239.461558 
L 164.646186 244.524543 
L 164.080706 249.614213 
L 163.719211 254.722424 
L 163.56228 259.841005 
L 163.610162 264.961768 
L 163.862782 270.07652 
L 163.946634 271.210781 
L 168.224998 274.025048 
L 172.61248 276.665976 
L 177.102062 279.129339 
L 181.686561 281.411196 
L 186.358643 283.507897 
L 191.089473 285.408 
L 195.841323 283.498962 
L 200.51303 281.401428 
L 205.097122 279.118753 
L 209.586265 276.65459 
L 213.973276 274.012879 
L 218.251138 271.197848 
L 222.413007 268.214 
L 226.452224 265.066108 
L 230.362329 261.759209 
L 234.137065 258.298592 
L 237.770394 254.689795 
L 241.256504 250.938589 
L 244.589817 247.050977 
L 247.765 243.033177 
L 250.776974 238.891618 
L 253.620921 234.632925 
L 256.292291 230.263911 
L 258.78681 225.791565 
L 261.100488 221.223043 
L 262.357392 218.533642 
L 267.471653 218.796012 
L 272.592315 218.853657 
L 277.711186 218.706484 
L 282.820078 218.354728 
L 287.910816 217.798952 
L 292.975257 217.040046 
L 298.005299 216.079223 
L 302.992894 214.918021 
L 307.930065 213.558297 
L 312.808912 212.002226 
L 317.62163 210.252298 
L 322.36052 208.311313 
L 327.018 206.182375 
L 331.58662 203.868891 
L 336.059072 201.37456 
L 340.428199 198.703375 
L 344.687012 195.859608 
L 348.828698 192.847809 
L 352.846632 189.672795 
L 356.734385 186.339647 
L 358.074028 185.12671 
L 359.087693 180.10705 
L 359.899815 175.050869 
L 360.509094 169.966257 
L 360.655339 168.400253 
L 355.9724 166.327915 
L 351.210335 164.444503 
L 346.376764 162.753029 
L 341.479417 161.256199 
L 336.526131 159.956408 
L 331.524829 158.855736 
L 326.483512 157.955943 
L 321.410246 157.258468 
L 316.313146 156.764428 
L 311.200367 156.474612 
L 306.080088 156.389485 
L 300.960501 156.509183 
L 295.849795 156.833514 
L 290.756147 157.361959 
L 285.687706 158.093673 
L 284.719816 158.257039 
L 289.224703 155.821778 
L 293.628602 153.208319 
L 297.924468 150.42084 
L 302.105429 147.463803 
L 306.164795 144.341937 
L 310.096073 141.060237 
L 313.892973 137.623952 
L 317.549422 134.038581 
L 321.059569 130.309859 
L 324.417799 126.443751 
L 327.61874 122.446442 
L 330.657271 118.324327 
L 331.25305 117.473995 
L 326.15947 118.003094 
L 321.091123 118.735458 
L 316.056117 119.669917 
L 311.062506 120.804975 
L 306.11828 122.138815 
L 301.231349 123.669306 
L 296.409529 125.393997 
L 291.660536 127.31013 
L 286.991967 129.414639 
L 282.411289 131.704158 
L 277.925832 134.175024 
L 273.542772 136.823284 
L 271.919211 137.866321 
L 274.524173 133.457389 
L 276.950741 128.947814 
L 279.195033 124.344809 
L 281.253459 119.655738 
L 283.122725 114.888103 
L 284.799842 110.049531 
L 286.282126 105.147762 
L 287.567206 100.190639 
L 288.653026 95.186092 
L 289.537848 90.142126 
L 290.220259 85.066811 
L 290.699165 79.968267 
L 290.9738 74.85465 
L 291.043726 69.734141 
L 290.90883 64.614932 
L 290.860321 63.648 
L 290.827427 64.28732 
L 290.679417 69.406167 
L 290.736225 74.526838 
L 290.99776 79.641142 
L 291.463603 84.740896 
L 292.13301 89.817942 
L 293.004908 94.864158 
L 294.077905 99.87147 
L 295.350281 104.831869 
L 296.820004 109.737419 
L 298.48472 114.580272 
L 300.341767 119.35268 
L 302.388174 124.047008 
L 304.620667 128.655747 
L 307.035675 133.171524 
L 309.629334 137.587114 
L 312.397495 141.895453 
L 315.335729 146.089649 
L 318.439337 150.162993 
L 321.703351 154.108966 
L 325.122552 157.921258 
L 328.691469 161.593769 
L 332.404392 165.120623 
L 336.255382 168.496179 
L 340.238278 171.715036 
L 344.346708 174.772046 
L 348.574099 177.662316 
L 352.913689 180.381224 
L 357.358535 182.92442 
L 358.875127 183.739166 
L 357.787612 183.063482 
L 353.371627 180.470496 
L 348.855483 178.056176 
L 344.246404 175.824384 
L 339.551764 173.778692 
L 334.779073 171.922371 
L 329.935967 170.258393 
L 325.030193 168.789417 
L 320.069601 167.517796 
L 315.062125 166.445562 
L 310.015776 165.574432 
L 304.938628 164.905799 
L 299.838803 164.440732 
L 294.72446 164.179976 
L 289.60378 164.123947 
L 286.320203 164.195821 
L 291.053582 162.241435 
L 295.70502 160.099327 
L 300.267076 157.772925 
L 304.732452 155.26595 
L 309.094003 152.582413 
L 313.344753 149.726607 
L 317.477901 146.703101 
L 321.486835 143.516732 
L 325.365141 140.172596 
L 329.106615 136.676045 
L 332.705272 133.032671 
L 336.155355 129.248304 
L 337.291527 127.932944 
L 332.274715 128.960609 
L 327.303011 130.188072 
L 322.38437 131.613368 
L 317.52666 133.234217 
L 312.737651 135.048026 
L 308.025007 137.051893 
L 303.396266 139.242613 
L 298.858832 141.616681 
L 294.419965 144.170299 
L 290.086767 146.899382 
L 285.866169 149.799563 
L 282.351634 152.411652 
L 287.304654 151.110846 
L 292.201693 149.613013 
L 297.034918 147.920549 
L 301.796597 146.03616 
L 306.479111 143.962863 
L 311.07497 141.703974 
L 315.576822 139.263106 
L 319.977464 136.644164 
L 324.269855 133.851339 
L 328.447131 130.889098 
L 332.502606 127.762179 
L 335.673137 125.12981 
L 330.87715 126.925082 
L 326.15679 128.910707 
L 321.519609 131.083507 
L 316.973027 133.440007 
L 312.524317 135.976437 
L 308.180595 138.688738 
L 303.94881 141.572573 
L 299.835734 144.623328 
L 295.847945 147.836121 
L 291.991823 151.205813 
L 288.273537 154.727014 
L 284.748108 158.34172 
L 289.808111 159.129673 
L 294.895576 159.71465 
L 300.002365 160.095714 
L 305.120308 160.272256 
L 310.241216 160.243994 
L 315.356898 160.010973 
L 320.45917 159.573566 
L 325.539869 158.932472 
L 330.590867 158.088717 
L 335.604083 157.043651 
L 340.571498 155.798946 
L 345.485164 154.356592 
L 350.337222 152.718898 
L 351.381681 152.337806 
L 347.508135 155.687453 
L 343.771637 159.189322 
L 340.178165 162.83781 
L 336.733468 166.62708 
L 333.443057 170.55107 
L 330.312196 174.603502 
L 327.345893 178.777894 
L 324.548894 183.067568 
L 321.925674 187.46566 
L 319.480428 191.965135 
L 317.21707 196.558795 
L 315.139219 201.239291 
L 313.250201 205.999134 
L 311.553036 210.830711 
L 310.050441 215.726292 
L 308.744818 220.678044 
L 307.638257 225.678047 
L 306.732528 230.7183 
L 306.02908 235.790742 
L 305.529038 240.887256 
L 305.233202 245.99969 
L 305.142046 251.119865 
L 305.255715 256.23959 
L 305.574027 261.350674 
L 306.096474 266.44494 
L 306.822219 271.51424 
L 307.136802 273.352573 
L 302.356525 275.189272 
L 297.653521 277.215661 
L 293.035313 279.4285 
L 288.509289 281.824247 
L 284.082689 284.399071 
L 282.452922 285.408 
L 278.065366 282.767196 
L 273.575714 280.303959 
L 268.991151 278.022231 
L 264.31901 275.925662 
L 259.566766 274.017606 
L 254.742022 272.301115 
L 249.852495 270.778935 
L 244.906009 269.453502 
L 239.910476 268.326936 
L 234.873888 267.401039 
L 229.804303 266.677292 
L 224.709831 266.156854 
L 219.598622 265.840556 
L 214.478853 265.728905 
L 209.358714 265.82208 
L 204.246397 266.119931 
L 199.15008 266.621982 
L 194.077916 267.32743 
L 189.03802 268.235146 
L 184.038454 269.343678 
L 179.087217 270.651252 
L 174.192229 272.155778 
L 169.361322 273.854847 
L 166.187151 275.09147 
L 170.161369 271.861904 
L 174.00326 268.475996 
L 177.706678 264.939162 
L 181.265697 261.257059 
L 184.674625 257.435579 
L 187.928008 253.480834 
L 191.020641 249.399153 
L 193.947577 245.197064 
L 196.704132 240.88129 
L 199.285898 236.458736 
L 201.688743 231.936476 
L 203.908824 227.321745 
L 205.94259 222.621926 
L 207.786786 217.844537 
L 207.985135 217.294539 
L 204.307119 220.857782 
L 200.774537 224.565257 
L 197.393041 228.411031 
L 194.168039 232.388953 
L 191.104691 236.492659 
L 188.207898 240.715584 
L 185.482294 245.050971 
L 182.932239 249.491886 
L 180.561814 254.031223 
L 178.374809 258.661722 
L 176.374725 263.375973 
L 174.56476 268.166435 
L 172.94781 273.025445 
L 171.526463 277.945229 
L 170.416669 282.41721 
L 175.340561 283.824262 
L 180.316781 285.033284 
L 182.063125 285.408 
L 187.055727 284.268513 
L 191.998768 282.930287 
L 196.88434 281.395462 
L 201.704627 279.666494 
L 206.451919 277.746149 
L 211.11862 275.637499 
L 215.697264 273.343917 
L 220.180528 270.869074 
L 224.561237 268.216927 
L 228.832386 265.391719 
L 232.987139 262.397972 
L 237.018851 259.240473 
L 240.921072 255.924274 
L 244.687559 252.454681 
L 248.312287 248.837244 
L 251.789456 245.077749 
L 255.113504 241.182213 
L 258.279113 237.156866 
L 261.28122 233.008148 
L 264.11502 228.742696 
L 266.775981 224.367335 
L 269.259846 219.889063 
L 271.562641 215.315046 
L 273.680682 210.652599 
L 274.670241 208.28835 
L 279.068743 205.665818 
L 283.358855 202.869491 
L 287.533711 199.903842 
L 291.586634 196.773615 
L 295.511139 193.483818 
L 299.300948 190.039714 
L 302.949998 186.446814 
L 306.452452 182.710864 
L 309.802706 178.837842 
L 312.9954 174.833943 
L 316.025427 170.705574 
L 318.88794 166.459338 
L 321.57836 162.102028 
L 324.092381 157.640616 
L 326.425982 153.082238 
L 328.57543 148.434188 
L 330.537287 143.7039 
L 332.308413 138.898943 
L 333.885975 134.027003 
L 335.26745 129.095874 
L 336.069779 125.816813 
L 331.143744 124.417283 
L 326.165683 123.215862 
L 321.143561 122.214471 
L 316.08541 121.414712 
L 310.999323 120.817866 
L 305.893438 120.424885 
L 300.775921 120.2364 
L 295.654961 120.252712 
L 290.538749 120.473795 
L 285.43547 120.899295 
L 280.353289 121.528531 
L 275.300336 122.360497 
L 270.284695 123.393861 
L 265.314389 124.626971 
L 260.39737 126.057854 
L 256.267623 127.427221 
L 254.055591 122.808627 
L 251.660633 118.282184 
L 249.086582 113.855135 
L 246.337555 109.534562 
L 243.41795 105.327377 
L 240.332438 101.24031 
L 237.085955 97.279899 
L 233.683695 93.452482 
L 230.1311 89.764179 
L 226.433854 86.220894 
L 222.597872 82.828292 
L 218.629291 79.591803 
L 214.534459 76.516604 
L 210.319927 73.607614 
L 205.992437 70.869487 
L 201.558914 68.306604 
L 197.026448 65.923065 
L 192.236587 63.648 
L 187.609312 65.841816 
L 183.073468 68.218919 
L 178.63631 70.775505 
L 174.304938 73.507486 
L 170.086281 76.41049 
L 165.987087 79.479873 
L 162.013915 82.710725 
L 160.268204 84.216446 
L 159.365882 89.257311 
L 158.665862 94.330226 
L 158.169265 99.427078 
L 157.876885 104.539711 
L 157.789189 109.659946 
L 157.906319 114.779593 
L 158.228086 119.89046 
L 158.753975 124.984373 
L 159.483147 130.05318 
L 160.414433 135.088774 
L 161.546344 140.083099 
L 162.87707 145.028164 
L 164.404481 149.916059 
L 166.126134 154.738964 
L 168.039275 159.489164 
L 170.140842 164.159058 
L 172.427475 168.741177 
L 174.895514 173.22819 
L 177.541012 177.612918 
L 180.359736 181.888348 
L 183.347177 186.047638 
L 186.498556 190.084136 
L 187.967831 191.85759 
L 188.016628 196.978344 
L 188.270161 202.093051 
L 188.728026 207.193527 
L 189.389489 212.271614 
L 190.253492 217.319188 
L 191.318653 222.328173 
L 192.583268 227.290557 
L 194.045314 232.1984 
L 195.702451 237.043851 
L 197.55203 241.819159 
L 199.591091 246.516683 
L 201.816371 251.128909 
L 204.224311 255.648458 
L 206.811059 260.0681 
L 209.572476 264.380765 
L 212.504145 268.579553 
L 215.601376 272.657746 
L 218.859214 276.608822 
L 222.272446 280.426458 
L 225.835613 284.104547 
L 227.169164 285.408 
L 230.785522 281.782196 
L 234.253994 278.014676 
L 237.56903 274.111468 
L 240.725329 270.078816 
L 243.717839 265.923171 
L 246.541775 261.651182 
L 249.192617 257.269683 
L 251.666126 252.785683 
L 253.958344 248.206356 
L 256.065605 243.539027 
L 257.984536 238.791164 
L 259.712069 233.970362 
L 261.245439 229.084333 
L 262.582194 224.140894 
L 263.720194 219.147953 
L 264.054249 217.478096 
L 269.064839 218.535679 
L 274.113714 219.392046 
L 279.192796 220.045827 
L 284.293959 220.495976 
L 289.409044 220.741773 
L 294.529865 220.782824 
L 299.648233 220.619064 
L 304.755957 220.250755 
L 309.844868 219.678486 
L 314.906823 218.903173 
L 319.933725 217.926056 
L 324.917532 216.748697 
L 329.85027 215.372982 
L 334.724049 213.80111 
L 339.531071 212.035596 
L 343.469028 210.423311 
L 342.762655 205.351276 
L 341.854019 200.311545 
L 340.744574 195.312182 
L 339.436096 190.361183 
L 337.930677 185.46647 
L 336.230726 180.635873 
L 334.338962 175.87712 
L 332.258412 171.197824 
L 329.992405 166.60547 
L 327.544564 162.107406 
L 324.918808 157.710827 
L 322.119335 153.422768 
L 319.150625 149.250087 
L 316.017427 145.199461 
L 312.724753 141.27737 
L 309.277872 137.490087 
L 305.682296 133.843673 
L 301.943779 130.34396 
L 298.068301 126.996547 
L 294.062062 123.806789 
L 289.931472 120.77979 
L 285.683138 117.920392 
L 281.323857 115.233169 
L 276.860602 112.72242 
L 272.300514 110.392162 
L 267.650889 108.246123 
L 262.919164 106.287735 
L 258.112909 104.520133 
L 253.239813 102.946144 
L 248.307673 101.568286 
L 243.324378 100.388762 
L 238.297901 99.409461 
L 233.236283 98.631949 
L 228.147622 98.057469 
L 223.040058 97.686941 
L 217.921762 97.520958 
L 212.800923 97.559785 
L 207.685732 97.803359 
L 202.584374 98.251292 
L 197.505009 98.902866 
L 192.455762 99.757039 
L 187.444712 100.812446 
L 182.479876 102.067396 
L 177.569196 103.519884 
L 172.720527 105.167584 
L 167.941628 107.007861 
L 163.240142 109.037772 
L 158.623592 111.254068 
L 154.099363 113.653203 
L 149.674693 116.231341 
L 145.356659 118.984356 
L 141.152172 121.907844 
L 137.067955 124.997129 
L 136.432232 125.501561 
L 135.766744 130.579122 
L 135.304837 135.679234 
L 135.047249 140.793738 
L 134.994393 145.914452 
L 135.146353 151.033183 
L 135.502886 156.141743 
L 136.063422 161.231959 
L 136.827064 166.295688 
L 137.79259 171.32483 
L 138.958456 176.311337 
L 140.322797 181.247234 
L 141.883429 186.124623 
L 143.637857 190.935703 
L 145.583273 195.672776 
L 147.716565 200.328263 
L 150.034321 204.894718 
L 152.532832 209.364835 
L 155.208102 213.731462 
L 158.05585 217.987614 
L 161.071521 222.126482 
L 164.250291 226.141445 
L 167.587073 230.02608 
L 171.076531 233.774171 
L 174.713081 237.379723 
L 178.490905 240.836968 
L 182.403961 244.140375 
L 186.445988 247.284659 
L 190.610519 250.26479 
L 194.890893 253.076 
L 199.280261 255.713792 
L 203.771602 258.173947 
L 208.35773 260.452528 
L 213.031309 262.54589 
L 217.784861 264.450684 
L 222.610783 266.163863 
L 227.501353 267.682687 
L 232.448748 269.004725 
L 237.445053 270.127862 
L 242.482275 271.050302 
L 247.552356 271.770569 
L 252.647184 272.287511 
L 257.758609 272.600301 
L 262.878453 272.708438 
L 267.998527 272.611749 
L 273.110638 272.310389 
L 278.206609 271.80484 
L 283.278288 271.095912 
L 288.31756 270.184737 
L 293.316364 269.072774 
L 298.266702 267.761801 
L 303.160656 266.253917 
L 307.990396 264.551532 
L 312.748196 262.657372 
L 313.495023 262.339811 
L 312.788649 257.267776 
L 311.880013 252.228046 
L 310.770569 247.228682 
L 309.46209 242.277684 
L 307.956671 237.382971 
L 306.25672 232.552374 
L 304.364956 227.793621 
L 302.284407 223.114324 
L 300.018399 218.521971 
L 297.570559 214.023906 
L 294.944802 209.627328 
L 292.14533 205.339268 
L 289.17662 201.166588 
L 286.043422 197.115962 
L 283.501967 194.060999 
L 288.598006 193.556136 
L 293.66978 192.847889 
L 298.709174 191.937392 
L 303.708128 190.826102 
L 308.658643 189.515795 
L 313.552799 188.008569 
L 318.382768 186.306834 
L 323.140823 184.413313 
L 327.81935 182.331036 
L 332.410867 180.063333 
L 336.908027 177.613832 
L 341.303636 174.986452 
L 345.590661 172.185396 
L 349.762245 169.215145 
L 353.811714 166.080452 
L 357.520851 162.97116 
L 352.71147 164.730239 
L 347.976281 166.680234 
L 343.322858 168.818027 
L 338.758646 171.140197 
L 334.290948 173.64303 
L 329.926909 176.32252 
L 325.673513 179.174383 
L 321.537562 182.194054 
L 317.525675 185.376705 
L 313.644269 188.717242 
L 309.899553 192.210322 
L 306.297519 195.850356 
L 302.843929 199.631522 
L 299.544307 203.54777 
L 296.403933 207.592835 
L 293.42783 211.760246 
L 290.62076 216.043336 
L 287.987213 220.435253 
L 285.531402 224.92897 
L 283.257257 229.517299 
L 281.168415 234.1929 
L 279.268218 238.948292 
L 277.559706 243.775867 
L 276.045612 248.667904 
L 274.728358 253.616575 
L 273.610052 258.613964 
L 272.692483 263.652075 
L 271.977119 268.72285 
L 271.465103 273.818176 
L 271.157256 278.9299 
L 271.05407 284.049847 
L 271.061068 285.408 
L 270.941075 278.368084 
L 270.61078 273.257761 
L 270.076391 268.164733 
L 269.338763 263.097149 
L 268.399076 258.063116 
L 267.258832 253.070687 
L 265.919857 248.127849 
L 264.384292 243.24251 
L 262.654593 238.422484 
L 260.733529 233.675484 
L 258.624172 229.009103 
L 256.329897 224.430806 
L 255.081726 222.11758 
L 256.456547 227.050568 
L 258.027535 231.924632 
L 259.792177 236.731974 
L 261.747649 241.464905 
L 263.890825 246.115851 
L 266.218274 250.677373 
L 268.726273 255.142173 
L 271.410811 259.503108 
L 274.267593 263.753203 
L 277.292048 267.885657 
L 280.479337 271.893859 
L 283.824363 275.771398 
L 287.321773 279.512069 
L 290.965972 283.10989 
L 293.453855 285.408 
L 293.453855 285.408 
" style="fill:none;stroke:#1f77b4;stroke-linecap:square;stroke-width:1.5;"/>
   </g>
   <g id="patch_4">
    <path d="M 82.520165 307.584 
L 82.520165 41.472 
" style="fill:none;stroke:#000000;stroke-linecap:square;stroke-linejoin:miter;stroke-width:0.8;"/>
   </g>
   <g id="patch_5">
    <path d="M 389.799835 307.584 
L 389.799835 41.472 
" style="fill:none;stroke:#000000;stroke-linecap:square;stroke-linejoin:miter;stroke-width:0.8;"/>
   </g>
   <g id="patch_6">
    <path d="M 82.520165 307.584 
L 389.799835 307.584 
" style="fill:none;stroke:#000000;stroke-linecap:square;stroke-linejoin:miter;stroke-width:0.8;"/>
   </g>
   <g id="patch_7">
    <path d="M 82.520165 41.472 
L 389.799835 41.472 
" style="fill:none;stroke:#000000;stroke-linecap:square;stroke-linejoin:miter;stroke-width:0.8;"/>
   </g>
   <g id="PathCollection_1">
    <defs>
     <path d="M 0 2.236068 
C 0.593012 2.236068 1.161816 2.000462 1.581139 1.581139 
C 2.000462 1.161816 2.236068 0.593012 2.236068 0 
C 2.236068 -0.593012 2.000462 -1.161816 1.581139 -1.581139 
C 1.161816 -2.000462 0.593012 -2.236068 0 -2.236068 
C -0.593012 -2.236068 -1.161816 -2.000462 -1.581139 -1.581139 
C -2.000462 -1.161816 -2.236068 -0.593012 -2.236068 0 
C -2.236068 0.593012 -2.000462 1.161816 -1.581139 1.581139 
C -1.161816 2.000462 -0.593012 2.236068 0 2.236068 
z
" id="mdea53cb709" style="stroke:#000000;"/>
    </defs>
    <g clip-path="url(#p23a2269570)">
     <use style="stroke:#000000;" x="293.453855" xlink:href="#mdea53cb709" y="285.408"/>
    </g>
   </g>
   <g id="Quiver_1">
    <path clip-path="url(#p23a2269570)" d="M 293.042862 284.951089 
L 298.068887 280.430166 
L 296.78999 279.927336 
L 302.592082 277.188141 
L 299.255948 282.668804 
L 298.890873 281.343989 
L 293.864848 285.864911 
L 293.042862 284.951089 
"/>
   </g>
  </g>
 </g>
 <defs>
  <clipPath id="p23a2269570">
   <rect height="266.112" width="307.27967" x="82.520165" y="41.472"/>
  </clipPath>
 </defs>
</svg>
