<?xml version="1.0" encoding="utf-8" standalone="no"?>
<!DOCTYPE svg PUBLIC "-//W3C//DTD SVG 1.1//EN"
  "http://www.w3.org/Graphics/SVG/1.1/DTD/svg11.dtd">
<!-- Created with matplotlib (https://matplotlib.org/) -->
<svg height="345.6pt" version="1.1" viewBox="0 0 460.8 345.6" width="460.8pt" xmlns="http://www.w3.org/2000/svg" xmlns:xlink="http://www.w3.org/1999/xlink">
 <defs>
  <style type="text/css">
*{stroke-linecap:butt;stroke-linejoin:round;}
  </style>
 </defs>
 <g id="figure_1">
  <g id="patch_1">
   <path d="M 0 345.6 
L 460.8 345.6 
L 460.8 0 
L 0 0 
z
" style="fill:#ffffff;"/>
  </g>
  <g id="axes_1">
   <g id="patch_2">
    <path d="M 82.520165 307.584 
L 389.799835 307.584 
L 389.799835 41.472 
L 82.520165 41.472 
z
" style="fill:#ffffff;"/>
   </g>
   <g id="PathCollection_1">
    <defs>
     <path d="M 0 2.236068 
C 0.593012 2.236068 1.161816 2.000462 1.581139 1.581139 
C 2.000462 1.161816 2.236068 0.593012 2.236068 0 
C 2.236068 -0.593012 2.000462 -1.161816 1.581139 -1.581139 
C 1.161816 -2.000462 0.593012 -2.236068 0 -2.236068 
C -0.593012 -2.236068 -1.161816 -2.000462 -1.581139 -1.581139 
C -2.000462 -1.161816 -2.236068 -0.593012 -2.236068 0 
C -2.236068 0.593012 -2.000462 1.161816 -1.581139 1.581139 
C -1.161816 2.000462 -0.593012 2.236068 0 2.236068 
z
" id="m328dcf7475" style="stroke:#000000;"/>
    </defs>
    <g clip-path="url(#p31416dd7b0)">
     <use style="stroke:#000000;" x="213.387436" xlink:href="#m328dcf7475" y="128.656329"/>
    </g>
   </g>
   <g id="Quiver_1">
    <path clip-path="url(#p31416dd7b0)" d="M 212.786939 128.787045 
L 211.349066 122.181578 
L 210.278788 123.043507 
L 210.773121 116.64639 
L 213.88177 122.259212 
L 212.55006 121.920147 
L 213.987933 128.525613 
L 212.786939 128.787045 
"/>
   </g>
   <g id="patch_3">
    <path clip-path="url(#p31416dd7b0)" d="M 236.16 225.741278 
C 249.74192 225.741278 262.769389 220.345124 272.373256 210.741256 
C 281.977124 201.137389 287.373278 188.10992 287.373278 174.528 
C 287.373278 160.94608 281.977124 147.918611 272.373256 138.314744 
C 262.769389 128.710876 249.74192 123.314722 236.16 123.314722 
C 222.57808 123.314722 209.550611 128.710876 199.946744 138.314744 
C 190.342876 147.918611 184.946722 160.94608 184.946722 174.528 
C 184.946722 188.10992 190.342876 201.137389 199.946744 210.741256 
C 209.550611 220.345124 222.57808 225.741278 236.16 225.741278 
z
" style="fill:#009900;fill-opacity:0.5;stroke:#009900;stroke-linejoin:miter;stroke-width:2;"/>
   </g>
   <g id="matplotlib.axis_1">
    <g id="xtick_1">
     <g id="line2d_1">
      <defs>
       <path d="M 0 0 
L 0 3.5 
" id="mf2410fab49" style="stroke:#000000;stroke-width:0.8;"/>
      </defs>
      <g>
       <use style="stroke:#000000;stroke-width:0.8;" x="108.126804" xlink:href="#mf2410fab49" y="307.584"/>
      </g>
     </g>
     <g id="text_1">
      <!-- −2 -->
      <defs>
       <path d="M 10.59375 35.5 
L 73.1875 35.5 
L 73.1875 27.203125 
L 10.59375 27.203125 
z
" id="DejaVuSans-8722"/>
       <path d="M 19.1875 8.296875 
L 53.609375 8.296875 
L 53.609375 0 
L 7.328125 0 
L 7.328125 8.296875 
Q 12.9375 14.109375 22.625 23.890625 
Q 32.328125 33.6875 34.8125 36.53125 
Q 39.546875 41.84375 41.421875 45.53125 
Q 43.3125 49.21875 43.3125 52.78125 
Q 43.3125 58.59375 39.234375 62.25 
Q 35.15625 65.921875 28.609375 65.921875 
Q 23.96875 65.921875 18.8125 64.3125 
Q 13.671875 62.703125 7.8125 59.421875 
L 7.8125 69.390625 
Q 13.765625 71.78125 18.9375 73 
Q 24.125 74.21875 28.421875 74.21875 
Q 39.75 74.21875 46.484375 68.546875 
Q 53.21875 62.890625 53.21875 53.421875 
Q 53.21875 48.921875 51.53125 44.890625 
Q 49.859375 40.875 45.40625 35.40625 
Q 44.1875 33.984375 37.640625 27.21875 
Q 31.109375 20.453125 19.1875 8.296875 
z
" id="DejaVuSans-50"/>
      </defs>
      <g transform="translate(100.755711 322.182437)scale(0.1 -0.1)">
       <use xlink:href="#DejaVuSans-8722"/>
       <use x="83.789062" xlink:href="#DejaVuSans-50"/>
      </g>
     </g>
    </g>
    <g id="xtick_2">
     <g id="line2d_2">
      <g>
       <use style="stroke:#000000;stroke-width:0.8;" x="172.143402" xlink:href="#mf2410fab49" y="307.584"/>
      </g>
     </g>
     <g id="text_2">
      <!-- −1 -->
      <defs>
       <path d="M 12.40625 8.296875 
L 28.515625 8.296875 
L 28.515625 63.921875 
L 10.984375 60.40625 
L 10.984375 69.390625 
L 28.421875 72.90625 
L 38.28125 72.90625 
L 38.28125 8.296875 
L 54.390625 8.296875 
L 54.390625 0 
L 12.40625 0 
z
" id="DejaVuSans-49"/>
      </defs>
      <g transform="translate(164.772308 322.182437)scale(0.1 -0.1)">
       <use xlink:href="#DejaVuSans-8722"/>
       <use x="83.789062" xlink:href="#DejaVuSans-49"/>
      </g>
     </g>
    </g>
    <g id="xtick_3">
     <g id="line2d_3">
      <g>
       <use style="stroke:#000000;stroke-width:0.8;" x="236.16" xlink:href="#mf2410fab49" y="307.584"/>
      </g>
     </g>
     <g id="text_3">
      <!-- 0 -->
      <defs>
       <path d="M 31.78125 66.40625 
Q 24.171875 66.40625 20.328125 58.90625 
Q 16.5 51.421875 16.5 36.375 
Q 16.5 21.390625 20.328125 13.890625 
Q 24.171875 6.390625 31.78125 6.390625 
Q 39.453125 6.390625 43.28125 13.890625 
Q 47.125 21.390625 47.125 36.375 
Q 47.125 51.421875 43.28125 58.90625 
Q 39.453125 66.40625 31.78125 66.40625 
z
M 31.78125 74.21875 
Q 44.046875 74.21875 50.515625 64.515625 
Q 56.984375 54.828125 56.984375 36.375 
Q 56.984375 17.96875 50.515625 8.265625 
Q 44.046875 -1.421875 31.78125 -1.421875 
Q 19.53125 -1.421875 13.0625 8.265625 
Q 6.59375 17.96875 6.59375 36.375 
Q 6.59375 54.828125 13.0625 64.515625 
Q 19.53125 74.21875 31.78125 74.21875 
z
" id="DejaVuSans-48"/>
      </defs>
      <g transform="translate(232.97875 322.182437)scale(0.1 -0.1)">
       <use xlink:href="#DejaVuSans-48"/>
      </g>
     </g>
    </g>
    <g id="xtick_4">
     <g id="line2d_4">
      <g>
       <use style="stroke:#000000;stroke-width:0.8;" x="300.176598" xlink:href="#mf2410fab49" y="307.584"/>
      </g>
     </g>
     <g id="text_4">
      <!-- 1 -->
      <g transform="translate(296.995348 322.182437)scale(0.1 -0.1)">
       <use xlink:href="#DejaVuSans-49"/>
      </g>
     </g>
    </g>
    <g id="xtick_5">
     <g id="line2d_5">
      <g>
       <use style="stroke:#000000;stroke-width:0.8;" x="364.193196" xlink:href="#mf2410fab49" y="307.584"/>
      </g>
     </g>
     <g id="text_5">
      <!-- 2 -->
      <g transform="translate(361.011946 322.182437)scale(0.1 -0.1)">
       <use xlink:href="#DejaVuSans-50"/>
      </g>
     </g>
    </g>
   </g>
   <g id="matplotlib.axis_2">
    <g id="ytick_1">
     <g id="line2d_6">
      <defs>
       <path d="M 0 0 
L -3.5 0 
" id="m395a599606" style="stroke:#000000;stroke-width:0.8;"/>
      </defs>
      <g>
       <use style="stroke:#000000;stroke-width:0.8;" x="82.520165" xlink:href="#m395a599606" y="302.561196"/>
      </g>
     </g>
     <g id="text_6">
      <!-- −2.0 -->
      <defs>
       <path d="M 10.6875 12.40625 
L 21 12.40625 
L 21 0 
L 10.6875 0 
z
" id="DejaVuSans-46"/>
      </defs>
      <g transform="translate(51.237353 306.360414)scale(0.1 -0.1)">
       <use xlink:href="#DejaVuSans-8722"/>
       <use x="83.789062" xlink:href="#DejaVuSans-50"/>
       <use x="147.412109" xlink:href="#DejaVuSans-46"/>
       <use x="179.199219" xlink:href="#DejaVuSans-48"/>
      </g>
     </g>
    </g>
    <g id="ytick_2">
     <g id="line2d_7">
      <g>
       <use style="stroke:#000000;stroke-width:0.8;" x="82.520165" xlink:href="#m395a599606" y="270.552897"/>
      </g>
     </g>
     <g id="text_7">
      <!-- −1.5 -->
      <defs>
       <path d="M 10.796875 72.90625 
L 49.515625 72.90625 
L 49.515625 64.59375 
L 19.828125 64.59375 
L 19.828125 46.734375 
Q 21.96875 47.46875 24.109375 47.828125 
Q 26.265625 48.1875 28.421875 48.1875 
Q 40.625 48.1875 47.75 41.5 
Q 54.890625 34.8125 54.890625 23.390625 
Q 54.890625 11.625 47.5625 5.09375 
Q 40.234375 -1.421875 26.90625 -1.421875 
Q 22.3125 -1.421875 17.546875 -0.640625 
Q 12.796875 0.140625 7.71875 1.703125 
L 7.71875 11.625 
Q 12.109375 9.234375 16.796875 8.0625 
Q 21.484375 6.890625 26.703125 6.890625 
Q 35.15625 6.890625 40.078125 11.328125 
Q 45.015625 15.765625 45.015625 23.390625 
Q 45.015625 31 40.078125 35.4375 
Q 35.15625 39.890625 26.703125 39.890625 
Q 22.75 39.890625 18.8125 39.015625 
Q 14.890625 38.140625 10.796875 36.28125 
z
" id="DejaVuSans-53"/>
      </defs>
      <g transform="translate(51.237353 274.352116)scale(0.1 -0.1)">
       <use xlink:href="#DejaVuSans-8722"/>
       <use x="83.789062" xlink:href="#DejaVuSans-49"/>
       <use x="147.412109" xlink:href="#DejaVuSans-46"/>
       <use x="179.199219" xlink:href="#DejaVuSans-53"/>
      </g>
     </g>
    </g>
    <g id="ytick_3">
     <g id="line2d_8">
      <g>
       <use style="stroke:#000000;stroke-width:0.8;" x="82.520165" xlink:href="#m395a599606" y="238.544598"/>
      </g>
     </g>
     <g id="text_8">
      <!-- −1.0 -->
      <g transform="translate(51.237353 242.343817)scale(0.1 -0.1)">
       <use xlink:href="#DejaVuSans-8722"/>
       <use x="83.789062" xlink:href="#DejaVuSans-49"/>
       <use x="147.412109" xlink:href="#DejaVuSans-46"/>
       <use x="179.199219" xlink:href="#DejaVuSans-48"/>
      </g>
     </g>
    </g>
    <g id="ytick_4">
     <g id="line2d_9">
      <g>
       <use style="stroke:#000000;stroke-width:0.8;" x="82.520165" xlink:href="#m395a599606" y="206.536299"/>
      </g>
     </g>
     <g id="text_9">
      <!-- −0.5 -->
      <g transform="translate(51.237353 210.335518)scale(0.1 -0.1)">
       <use xlink:href="#DejaVuSans-8722"/>
       <use x="83.789062" xlink:href="#DejaVuSans-48"/>
       <use x="147.412109" xlink:href="#DejaVuSans-46"/>
       <use x="179.199219" xlink:href="#DejaVuSans-53"/>
      </g>
     </g>
    </g>
    <g id="ytick_5">
     <g id="line2d_10">
      <g>
       <use style="stroke:#000000;stroke-width:0.8;" x="82.520165" xlink:href="#m395a599606" y="174.528"/>
      </g>
     </g>
     <g id="text_10">
      <!-- 0.0 -->
      <g transform="translate(59.61704 178.327219)scale(0.1 -0.1)">
       <use xlink:href="#DejaVuSans-48"/>
       <use x="63.623047" xlink:href="#DejaVuSans-46"/>
       <use x="95.410156" xlink:href="#DejaVuSans-48"/>
      </g>
     </g>
    </g>
    <g id="ytick_6">
     <g id="line2d_11">
      <g>
       <use style="stroke:#000000;stroke-width:0.8;" x="82.520165" xlink:href="#m395a599606" y="142.519701"/>
      </g>
     </g>
     <g id="text_11">
      <!-- 0.5 -->
      <g transform="translate(59.61704 146.31892)scale(0.1 -0.1)">
       <use xlink:href="#DejaVuSans-48"/>
       <use x="63.623047" xlink:href="#DejaVuSans-46"/>
       <use x="95.410156" xlink:href="#DejaVuSans-53"/>
      </g>
     </g>
    </g>
    <g id="ytick_7">
     <g id="line2d_12">
      <g>
       <use style="stroke:#000000;stroke-width:0.8;" x="82.520165" xlink:href="#m395a599606" y="110.511402"/>
      </g>
     </g>
     <g id="text_12">
      <!-- 1.0 -->
      <g transform="translate(59.61704 114.310621)scale(0.1 -0.1)">
       <use xlink:href="#DejaVuSans-49"/>
       <use x="63.623047" xlink:href="#DejaVuSans-46"/>
       <use x="95.410156" xlink:href="#DejaVuSans-48"/>
      </g>
     </g>
    </g>
    <g id="ytick_8">
     <g id="line2d_13">
      <g>
       <use style="stroke:#000000;stroke-width:0.8;" x="82.520165" xlink:href="#m395a599606" y="78.503103"/>
      </g>
     </g>
     <g id="text_13">
      <!-- 1.5 -->
      <g transform="translate(59.61704 82.302322)scale(0.1 -0.1)">
       <use xlink:href="#DejaVuSans-49"/>
       <use x="63.623047" xlink:href="#DejaVuSans-46"/>
       <use x="95.410156" xlink:href="#DejaVuSans-53"/>
      </g>
     </g>
    </g>
    <g id="ytick_9">
     <g id="line2d_14">
      <g>
       <use style="stroke:#000000;stroke-width:0.8;" x="82.520165" xlink:href="#m395a599606" y="46.494804"/>
      </g>
     </g>
     <g id="text_14">
      <!-- 2.0 -->
      <g transform="translate(59.61704 50.294023)scale(0.1 -0.1)">
       <use xlink:href="#DejaVuSans-50"/>
       <use x="63.623047" xlink:href="#DejaVuSans-46"/>
       <use x="95.410156" xlink:href="#DejaVuSans-48"/>
      </g>
     </g>
    </g>
   </g>
   <g id="line2d_15">
    <path clip-path="url(#p31416dd7b0)" d="M 300.176598 63.648 
L 172.143402 63.648 
" style="fill:none;stroke:#009900;stroke-linecap:square;stroke-width:2;"/>
   </g>
   <g id="line2d_16">
    <path clip-path="url(#p31416dd7b0)" d="M 172.143402 63.648 
L 108.126804 174.528 
" style="fill:none;stroke:#009900;stroke-linecap:square;stroke-width:2;"/>
   </g>
   <g id="line2d_17">
    <path clip-path="url(#p31416dd7b0)" d="M 108.126804 174.528 
L 172.143402 285.408 
" style="fill:none;stroke:#009900;stroke-linecap:square;stroke-width:2;"/>
   </g>
   <g id="line2d_18">
    <path clip-path="url(#p31416dd7b0)" d="M 172.143402 285.408 
L 300.176598 285.408 
" style="fill:none;stroke:#009900;stroke-linecap:square;stroke-width:2;"/>
   </g>
   <g id="line2d_19">
    <path clip-path="url(#p31416dd7b0)" d="M 300.176598 285.408 
L 364.193196 174.528 
" style="fill:none;stroke:#009900;stroke-linecap:square;stroke-width:2;"/>
   </g>
   <g id="line2d_20">
    <path clip-path="url(#p31416dd7b0)" d="M 364.193196 174.528 
L 300.176598 63.648 
" style="fill:none;stroke:#009900;stroke-linecap:square;stroke-width:2;"/>
   </g>
   <g id="line2d_21">
    <path clip-path="url(#p31416dd7b0)" d="M 239.987784 252.871572 
L 245.108606 252.830505 
L 250.223689 252.584692 
L 255.324851 252.134528 
L 260.403931 251.480731 
L 265.452803 250.624348 
L 270.463391 249.566749 
L 275.427678 248.309627 
L 280.337722 246.854991 
L 285.185669 245.205169 
L 289.963763 243.362801 
L 294.66436 241.330834 
L 299.27994 239.112518 
L 303.803119 236.711403 
L 308.226661 234.131329 
L 312.543489 231.376425 
L 316.746697 228.451097 
L 320.829561 225.360026 
L 324.78555 222.108156 
L 328.608334 218.700691 
L 332.291798 215.14308 
L 335.830049 211.441015 
L 339.217427 207.60042 
L 342.448512 203.627437 
L 345.518136 199.528424 
L 348.421388 195.309937 
L 351.153623 190.978725 
L 353.71047 186.541718 
L 356.087839 182.006013 
L 358.281926 177.378867 
L 360.289222 172.667682 
L 361.427412 169.737521 
L 356.360443 168.99568 
L 351.267861 168.457058 
L 346.157814 168.122514 
L 341.038476 167.992586 
L 335.918037 168.067481 
L 330.804689 168.347079 
L 325.706613 168.830932 
L 320.631963 169.518267 
L 315.588858 170.407985 
L 310.585366 171.498661 
L 305.629492 172.78855 
L 300.729164 174.275591 
L 295.892222 175.957402 
L 291.126403 177.831294 
L 287.123581 179.579063 
L 291.331759 182.497238 
L 295.653266 185.244796 
L 300.08119 187.817343 
L 304.608446 190.210761 
L 309.227792 192.421224 
L 313.931838 194.445193 
L 318.713059 196.279432 
L 323.563805 197.921006 
L 328.476316 199.367289 
L 333.442734 200.615967 
L 338.455113 201.665042 
L 343.505434 202.512837 
L 347.718795 203.062499 
L 344.592283 199.00671 
L 341.306083 195.079193 
L 337.865453 191.28623 
L 334.275897 187.633889 
L 330.543158 184.128014 
L 326.673207 180.774213 
L 322.672235 177.577852 
L 318.546644 174.544043 
L 314.303032 171.677641 
L 309.948189 168.983231 
L 305.489082 166.465123 
L 300.932844 164.127347 
L 296.286765 161.973641 
L 291.558277 160.007451 
L 286.754944 158.231924 
L 284.443394 157.454228 
L 287.146184 153.104581 
L 289.672872 148.65033 
L 292.019417 144.098602 
L 294.182064 139.456678 
L 296.157354 134.731984 
L 297.942127 129.932079 
L 299.533526 125.064641 
L 300.929008 120.137458 
L 302.126338 115.158412 
L 303.123602 110.135468 
L 303.919203 105.076662 
L 304.511871 99.990087 
L 304.900655 94.88388 
L 305.084934 89.76621 
L 305.064414 84.645265 
L 304.839128 79.529236 
L 304.409434 74.426309 
L 303.877419 70.05801 
L 299.775955 66.991661 
L 295.555151 64.09178 
L 294.876037 63.648 
L 290.636943 66.521079 
L 286.516132 69.561378 
L 282.520197 72.764034 
L 278.65553 76.123923 
L 274.928315 79.63567 
L 271.344513 83.293657 
L 267.909858 87.092032 
L 264.629846 91.024717 
L 261.509722 95.085423 
L 258.554479 99.267652 
L 255.768844 103.564714 
L 253.157275 107.969735 
L 250.723948 112.475667 
L 248.472757 117.075301 
L 246.407302 121.761281 
L 245.43456 124.161519 
L 245.277253 119.042949 
L 244.915383 113.934764 
L 244.34953 108.845137 
L 243.580599 103.782208 
L 242.60982 98.754078 
L 241.438745 93.768791 
L 240.069249 88.834322 
L 238.503522 83.958566 
L 236.74407 79.149322 
L 234.793706 74.414284 
L 232.655552 69.761027 
L 230.333027 65.196996 
L 229.491613 63.648 
L 227.106472 68.179623 
L 224.904455 72.803001 
L 222.889085 77.510737 
L 221.063587 82.295302 
L 219.43088 87.14904 
L 217.993577 92.064186 
L 216.753978 97.032877 
L 215.714064 102.047165 
L 214.875501 107.099028 
L 214.239628 112.180383 
L 213.807465 117.283101 
L 213.579701 122.39902 
L 213.556702 127.519955 
L 213.577122 128.562649 
L 209.535102 125.418356 
L 205.370578 122.438215 
L 201.090211 119.626995 
L 196.700848 116.989193 
L 192.209513 114.529028 
L 187.62339 112.250437 
L 182.949817 110.157064 
L 178.196268 108.252259 
L 173.370351 106.539069 
L 168.479784 105.020234 
L 163.532392 103.698185 
L 158.53609 102.575036 
L 153.49887 101.652584 
L 150.464659 101.196684 
L 153.687701 105.176195 
L 157.067302 109.023635 
L 160.598056 112.73285 
L 164.274316 116.297905 
L 168.090199 119.713098 
L 172.039601 122.972964 
L 176.116203 126.072288 
L 180.313485 129.006113 
L 184.624731 131.769745 
L 189.043044 134.358762 
L 193.561356 136.769023 
L 198.172439 138.996671 
L 198.943057 139.347053 
L 196.489451 134.852132 
L 193.858059 130.458923 
L 191.053091 126.174457 
L 188.079033 122.005586 
L 184.940644 117.958981 
L 181.642944 114.041115 
L 178.191209 110.258255 
L 174.590961 106.616454 
L 170.847959 103.121537 
L 166.968192 99.779096 
L 162.957867 96.594478 
L 158.823399 93.572778 
L 155.982822 91.638946 
L 156.556329 91.923377 
L 161.194116 94.094882 
L 165.91503 96.079189 
L 170.711519 97.873122 
L 175.57591 99.473811 
L 180.50042 100.878697 
L 185.477171 102.085531 
L 190.498202 103.092382 
L 195.55548 103.897641 
L 200.640914 104.500018 
L 205.74637 104.89855 
L 210.863678 105.0926 
L 215.984653 105.081857 
L 221.101103 104.866338 
L 226.204841 104.446388 
L 231.287703 103.822678 
L 236.341558 102.996208 
L 241.35832 101.968298 
L 246.329964 100.740593 
L 251.248536 99.315058 
L 256.106168 97.693973 
L 260.895087 95.879931 
L 265.607634 93.875834 
L 270.236269 91.684888 
L 274.773587 89.310599 
L 279.212329 86.756765 
L 283.545395 84.027472 
L 287.765852 81.127085 
L 291.866949 78.060245 
L 295.842124 74.831858 
L 299.685018 71.447088 
L 302.911027 68.38417 
L 298.004391 69.850262 
L 293.160308 71.511395 
L 288.386527 73.36491 
L 283.690686 75.407843 
L 279.080296 77.636926 
L 274.562734 80.048592 
L 270.145226 82.638983 
L 265.83484 85.403955 
L 261.638471 88.339085 
L 257.562832 91.439678 
L 253.614444 94.700772 
L 249.799624 98.117151 
L 246.124474 101.683349 
L 242.594873 105.393662 
L 239.216468 109.242153 
L 235.994665 113.222666 
L 232.934616 117.328833 
L 230.041219 121.554085 
L 228.549402 123.883369 
L 224.611757 120.609311 
L 220.546335 117.495335 
L 216.359639 114.546424 
L 212.058367 111.767295 
L 207.649399 109.162394 
L 203.13979 106.735888 
L 198.536755 104.49166 
L 193.847655 102.433299 
L 189.079994 100.564098 
L 184.241399 98.887048 
L 179.33961 97.404832 
L 174.382469 96.119821 
L 169.377906 95.03407 
L 164.333928 94.149317 
L 159.258604 93.466977 
L 155.159043 93.065773 
L 158.155593 97.218506 
L 161.315811 101.248087 
L 164.634642 105.14807 
L 168.106776 108.912215 
L 171.726658 112.534501 
L 175.488497 116.009133 
L 179.386275 119.330552 
L 183.413757 122.493445 
L 187.5645 125.492751 
L 191.831862 128.323673 
L 196.209018 130.981682 
L 200.688964 133.462525 
L 203.634581 134.969221 
L 202.193005 130.055326 
L 200.55608 125.20301 
L 198.726423 120.420034 
L 196.706961 115.714051 
L 194.500925 111.092589 
L 192.111845 106.563042 
L 189.543543 102.132656 
L 186.800126 97.808518 
L 183.885985 93.597546 
L 180.805781 89.506477 
L 177.564441 85.541857 
L 174.167152 81.710026 
L 170.619347 78.017116 
L 166.926704 74.469034 
L 166.252585 73.851194 
L 171.161341 75.310172 
L 176.124515 76.571684 
L 181.134165 77.633714 
L 186.182278 78.494561 
L 191.260777 79.15285 
L 196.361539 79.607526 
L 201.476403 79.857862 
L 206.597186 79.903458 
L 211.715697 79.74424 
L 216.823747 79.380465 
L 221.913163 78.812712 
L 226.975804 78.041892 
L 232.003572 77.069236 
L 236.988421 75.896302 
L 241.922379 74.524964 
L 246.797551 72.957418 
L 251.606138 71.196171 
L 256.340448 69.244041 
L 260.992906 67.10415 
L 265.55607 64.779922 
L 267.626508 63.648 
L 272.146063 66.055929 
L 276.758295 68.281197 
L 281.455824 70.320246 
L 286.231137 72.169812 
L 291.076592 73.826938 
L 295.984439 75.288971 
L 300.946825 76.553573 
L 305.955813 77.618722 
L 308.510011 78.081895 
L 306.829544 82.919305 
L 305.343867 87.820046 
L 304.055355 92.776278 
L 302.96607 97.780073 
L 302.077755 102.823425 
L 301.391831 107.898266 
L 300.909395 112.996477 
L 300.631219 118.109902 
L 300.557748 123.230362 
L 300.689099 128.349663 
L 301.025063 133.459617 
L 301.565102 138.552049 
L 302.308351 143.618811 
L 303.253623 148.651799 
L 304.399404 153.64296 
L 305.743862 158.584309 
L 307.284846 163.467942 
L 309.019891 168.286046 
L 310.94622 173.030912 
L 313.060753 177.69495 
L 315.360106 182.270699 
L 317.840601 186.750838 
L 320.498269 191.128201 
L 323.32886 195.395783 
L 326.327844 199.546758 
L 329.490424 203.574486 
L 332.81154 207.472522 
L 336.28588 211.234631 
L 339.907885 214.854795 
L 340.554504 215.471415 
L 335.617727 214.110263 
L 330.630467 212.947619 
L 325.600703 211.985342 
L 320.536482 211.224971 
L 315.445905 210.667724 
L 310.337115 210.314491 
L 305.218287 210.165838 
L 300.097609 210.222002 
L 294.983272 210.482894 
L 289.88346 210.948096 
L 284.806329 211.616864 
L 279.760004 212.488128 
L 274.752556 213.560494 
L 269.791997 214.832248 
L 266.482025 215.79996 
L 263.669433 220.079426 
L 261.030224 224.467943 
L 258.56862 228.958489 
L 256.288559 233.543881 
L 254.193689 238.216784 
L 252.28736 242.969721 
L 250.572623 247.79509 
L 249.052221 252.685169 
L 247.728586 257.632137 
L 246.603836 262.62808 
L 245.67977 267.665004 
L 244.957867 272.734852 
L 244.43928 277.829512 
L 244.124841 282.940836 
L 244.046357 285.408 
L 244.011586 284.128146 
L 243.744591 279.014124 
L 243.273304 273.91487 
L 242.598478 268.838542 
L 241.721192 263.79326 
L 240.642851 258.787095 
L 239.365179 253.828057 
L 237.890221 248.924079 
L 236.220335 244.083007 
L 234.358195 239.312584 
L 232.306777 234.620443 
L 230.069365 230.01409 
L 227.649538 225.500894 
L 227.354269 224.97856 
L 223.5326 228.387277 
L 219.850301 231.946093 
L 216.313262 235.649316 
L 212.927142 239.49102 
L 209.697357 243.46506 
L 206.629076 247.565078 
L 203.727205 251.784515 
L 200.996388 256.116621 
L 198.440994 260.554465 
L 196.06511 265.090948 
L 193.872537 269.718812 
L 191.866783 274.430654 
L 190.051057 279.218936 
L 188.428264 284.075997 
L 188.020588 285.408 
L 186.450734 280.533571 
L 184.687212 275.725818 
L 182.73284 270.992432 
L 180.590748 266.340987 
L 178.26436 261.778924 
L 175.7574 257.31354 
L 173.073877 252.95198 
L 170.218085 248.701221 
L 167.194592 244.568064 
L 164.008235 240.559119 
L 160.664112 236.680802 
L 157.167573 232.939317 
L 153.524211 229.340648 
L 149.739854 225.890554 
L 145.820558 222.594553 
L 141.772593 219.457919 
L 137.602433 216.485669 
L 133.31675 213.682559 
L 129.359434 211.303994 
L 129.259253 206.183988 
L 128.954407 201.072083 
L 128.445382 195.976458 
L 127.732994 190.905264 
L 126.818382 185.866615 
L 125.70301 180.86857 
L 124.388661 175.919127 
L 122.877439 171.026203 
L 121.171761 166.197625 
L 119.274355 161.441118 
L 117.720613 157.911035 
L 122.808412 157.328967 
L 127.868865 156.543908 
L 132.893876 155.557112 
L 137.875406 154.370158 
L 142.805486 152.984946 
L 147.676229 151.403691 
L 152.479843 149.628923 
L 157.208642 147.663482 
L 161.855062 145.510511 
L 166.411669 143.173455 
L 170.871175 140.656053 
L 175.226444 137.962332 
L 179.470509 135.096601 
L 183.59658 132.063445 
L 187.598058 128.867717 
L 191.468539 125.514528 
L 195.201833 122.009244 
L 198.791967 118.357471 
L 202.233197 114.565052 
L 205.520018 110.638055 
L 208.647171 106.582761 
L 211.609655 102.405658 
L 214.40273 98.113428 
L 217.021927 93.712938 
L 219.463057 89.211229 
L 221.722213 84.615501 
L 223.795782 79.933107 
L 225.680447 75.171538 
L 227.373192 70.338411 
L 228.87131 65.441459 
L 229.366932 63.648 
L 230.793727 68.566207 
L 232.416056 73.423423 
L 234.231325 78.211878 
L 236.236628 82.923911 
L 238.428759 87.551985 
L 240.80421 92.088695 
L 243.359181 96.526783 
L 246.089584 100.859149 
L 248.991052 105.078863 
L 252.058942 109.179174 
L 255.288347 113.153523 
L 258.674101 116.99555 
L 262.210786 120.69911 
L 265.892746 124.258278 
L 269.714089 127.66736 
L 273.668702 130.920903 
L 277.750259 134.0137 
L 281.952229 136.940805 
L 286.267892 139.697534 
L 290.690343 142.279478 
L 295.212506 144.682505 
L 299.827147 146.902773 
L 304.526885 148.936727 
L 309.304199 150.781116 
L 314.151448 152.432987 
L 319.060877 153.889699 
L 324.024632 155.148921 
L 329.034772 156.208638 
L 334.083281 157.067156 
L 339.162084 157.7231 
L 344.263055 158.175422 
L 349.378034 158.423397 
L 354.916975 158.461114 
L 352.379472 162.909212 
L 350.021875 167.455226 
L 347.847956 172.091882 
L 345.861192 176.811763 
L 344.064763 181.607317 
L 342.461542 186.470874 
L 341.054094 191.394652 
L 339.844669 196.370774 
L 338.835205 201.391281 
L 338.027314 206.448139 
L 337.42229 211.533259 
L 337.021101 216.638506 
L 336.821163 221.937752 
L 332.484012 224.660549 
L 328.259213 227.554608 
L 324.153526 230.615299 
L 320.173517 233.837725 
L 316.325554 237.216732 
L 312.615794 240.746913 
L 309.050171 244.422622 
L 305.634389 248.237977 
L 302.373913 252.186875 
L 299.273958 256.262999 
L 296.339485 260.459827 
L 293.575187 264.770646 
L 290.985488 269.188559 
L 288.574529 273.706499 
L 286.346168 278.317238 
L 284.30397 283.013399 
L 283.347184 285.408 
L 281.399979 280.671662 
L 279.264929 276.016981 
L 276.945449 271.451401 
L 274.445249 266.982229 
L 271.768331 262.616612 
L 268.918975 258.361536 
L 265.901741 254.223807 
L 262.721456 250.210045 
L 259.383206 246.326671 
L 255.892334 242.579897 
L 252.254423 238.975719 
L 248.475292 235.519901 
L 244.560989 232.217972 
L 240.517776 229.075215 
L 236.352119 226.096657 
L 235.829161 225.74021 
L 231.610966 228.643884 
L 227.51226 231.713919 
L 223.539601 234.945403 
L 219.699345 238.333165 
L 215.997636 241.871788 
L 212.440394 245.555608 
L 209.033311 249.378734 
L 205.781838 253.335048 
L 202.691176 257.418222 
L 199.76627 261.621724 
L 197.011799 265.938828 
L 194.432169 270.362629 
L 192.031507 274.886048 
L 189.813654 279.50185 
L 187.782158 284.202651 
L 187.296746 285.408 
L 185.313062 280.686824 
L 183.142169 276.048751 
L 180.787539 271.5012 
L 178.252939 267.051447 
L 175.542423 262.70661 
L 172.660329 258.47364 
L 169.611266 254.359309 
L 166.400113 250.370199 
L 163.032006 246.512692 
L 159.512335 242.792959 
L 155.846729 239.216951 
L 152.041053 235.790388 
L 148.101395 232.518753 
L 144.034058 229.407278 
L 139.845549 226.460943 
L 137.054606 224.632422 
L 136.730325 219.521714 
L 136.20193 214.428061 
L 135.470265 209.359612 
L 134.536502 204.324477 
L 133.402134 199.33071 
L 132.068976 194.3863 
L 130.53916 189.499157 
L 128.815135 184.677099 
L 126.899658 179.927842 
L 124.795793 175.258981 
L 122.506907 170.677988 
L 120.03666 166.19219 
L 117.389006 161.808763 
L 116.378831 160.23507 
L 121.496793 160.411061 
L 126.617698 160.382247 
L 131.733355 160.148675 
L 136.83558 159.710718 
L 141.916209 159.069077 
L 146.967116 158.224778 
L 151.98022 157.179172 
L 156.947501 155.933932 
L 161.861012 154.491049 
L 166.712893 152.852833 
L 171.495382 151.021904 
L 176.200827 149.00119 
L 180.821702 146.793925 
L 185.350614 144.40364 
L 189.780317 141.834159 
L 194.103725 139.089593 
L 198.313921 136.174331 
L 202.40417 133.093039 
L 206.367929 129.850645 
L 210.198856 126.452336 
L 213.890822 122.903549 
L 217.437921 119.209962 
L 220.83448 115.377483 
L 224.075063 111.412244 
L 227.154486 107.320587 
L 230.067824 103.10906 
L 232.810415 98.784398 
L 235.377872 94.353522 
L 237.766088 89.823519 
L 239.971241 85.201636 
L 241.989805 80.495268 
L 243.81855 75.711943 
L 245.454549 70.859314 
L 246.895187 65.945145 
L 247.496195 63.648 
L 248.845452 68.588041 
L 250.391179 73.470175 
L 252.130903 78.286591 
L 254.06184 83.029584 
L 256.180902 87.691566 
L 258.484698 92.26508 
L 260.969544 96.742807 
L 263.631463 101.117586 
L 266.466197 105.382417 
L 269.469212 109.530477 
L 272.635703 113.555131 
L 275.960604 117.44994 
L 279.438596 121.208672 
L 283.064116 124.825316 
L 286.831362 128.294084 
L 290.734309 131.609428 
L 294.766713 134.766044 
L 298.922122 137.758882 
L 303.193889 140.583154 
L 307.575179 143.234341 
L 312.058984 145.708203 
L 316.638131 148.000782 
L 321.305293 150.10841 
L 326.053005 152.027716 
L 330.873671 153.755628 
L 335.759579 155.289383 
L 340.702913 156.626527 
L 345.695764 157.76492 
L 350.730145 158.702743 
L 355.456378 159.395387 
L 353.572428 164.157239 
L 351.880408 168.99062 
L 350.383025 173.887797 
L 349.082675 178.840937 
L 347.981438 183.842115 
L 347.081076 188.88333 
L 346.383028 193.956517 
L 345.888413 199.053561 
L 345.59802 204.166308 
L 345.527423 206.858066 
L 341.186749 209.575244 
L 336.958205 212.463828 
L 332.848557 215.519198 
L 328.864377 218.736467 
L 325.012041 222.110487 
L 321.297712 225.63586 
L 317.72733 229.306947 
L 314.306609 233.117875 
L 311.041021 237.062546 
L 307.935789 241.134651 
L 304.995883 245.327675 
L 302.226004 249.63491 
L 299.630584 254.049465 
L 297.213775 258.564278 
L 294.979444 263.172127 
L 292.931164 267.865638 
L 291.072214 272.637305 
L 289.405567 277.479494 
L 287.933888 282.384457 
L 287.131904 285.408 
L 285.780493 280.468547 
L 284.232638 275.587088 
L 282.490815 270.771431 
L 280.55781 266.02928 
L 278.436716 261.368222 
L 276.130926 256.795714 
L 273.644128 252.31907 
L 270.980302 247.945452 
L 268.143709 243.681857 
L 265.138886 239.535106 
L 261.970641 235.511834 
L 258.644042 231.618475 
L 255.164412 227.861259 
L 251.537316 224.246196 
L 250.847049 223.590108 
L 249.765681 228.59562 
L 248.885345 233.64037 
L 248.20745 238.71629 
L 247.733079 243.815258 
L 247.462993 248.929117 
L 247.397622 254.049686 
L 247.537071 259.168774 
L 247.881118 264.27819 
L 248.429212 269.369761 
L 249.180476 274.435341 
L 250.133708 279.466827 
L 251.287384 284.456169 
L 251.531513 285.408 
L 252.723447 280.427659 
L 253.715267 275.403637 
L 254.505386 270.343972 
L 255.092541 265.256757 
L 255.475791 260.150132 
L 255.654525 255.032266 
L 255.628455 249.911346 
L 255.397624 244.795564 
L 254.962402 239.693106 
L 254.323483 234.612133 
L 253.481891 229.560774 
L 252.438971 224.547111 
L 252.120616 223.190702 
L 252.370135 223.780238 
L 254.471752 228.45011 
L 256.758434 233.032204 
L 259.226521 237.519191 
L 261.872066 241.903891 
L 264.690835 246.17929 
L 267.678321 250.338549 
L 270.829742 254.375013 
L 274.140059 258.282226 
L 277.603974 262.053935 
L 281.215947 265.684108 
L 284.970198 269.166937 
L 288.860723 272.49685 
L 292.881297 275.668519 
L 297.025487 278.676872 
L 301.286665 281.517095 
L 302.119004 282.043655 
L 300.984533 281.45018 
L 296.389013 279.190601 
L 291.70681 277.116601 
L 286.945414 275.231498 
L 282.112443 273.538308 
L 277.215628 272.03974 
L 272.262803 270.738191 
L 267.261892 269.635743 
L 262.220896 268.73416 
L 257.147877 268.034884 
L 252.050953 267.539034 
L 246.938277 267.247404 
L 241.818029 267.160459 
L 236.6984 267.278339 
L 231.587579 267.600855 
L 226.493744 268.127492 
L 221.425043 268.857406 
L 216.389586 269.789431 
L 211.395427 270.922075 
L 206.450557 272.253525 
L 201.562886 273.781653 
L 196.740234 275.504013 
L 191.990315 277.417851 
L 187.320729 279.520103 
L 182.738945 281.807407 
L 178.252294 284.276105 
L 176.328139 285.408 
L 171.885213 282.861452 
L 170.128765 281.918546 
L 170.224584 276.798456 
L 170.115577 271.67863 
L 169.801919 266.567259 
L 169.284111 261.472518 
L 168.562983 256.40256 
L 167.639687 251.365495 
L 166.5157 246.369381 
L 165.192822 241.422211 
L 163.673167 236.531899 
L 161.959168 231.706268 
L 160.053566 226.95304 
L 157.95941 222.279817 
L 155.68005 217.694076 
L 153.219132 213.203153 
L 150.580594 208.814233 
L 147.768656 204.534337 
L 144.787818 200.370312 
L 141.642847 196.32882 
L 138.338775 192.416326 
L 134.880888 188.639088 
L 131.274718 185.003151 
L 127.526034 181.514331 
L 123.640833 178.178208 
L 119.62533 175.000121 
L 115.485949 171.985153 
L 111.236129 169.142492 
L 112.376101 169.72533 
L 116.992553 171.941829 
L 121.693949 173.971946 
L 126.472768 175.812434 
L 131.321364 177.460348 
L 136.23198 178.913051 
L 141.196762 180.16822 
L 146.207765 181.223847 
L 151.256974 182.078243 
L 156.33631 182.730041 
L 161.437649 183.178198 
L 166.552829 183.421997 
L 171.673666 183.461049 
L 176.791969 183.295291 
L 181.89955 182.924988 
L 185.575863 182.530807 
L 184.320441 182.782108 
L 179.325762 183.912455 
L 174.38028 185.241632 
L 169.491907 186.767513 
L 164.668463 188.487655 
L 159.917665 190.399308 
L 155.247112 192.499414 
L 150.664278 194.784611 
L 146.176492 197.251245 
L 141.790936 199.89537 
L 137.514624 202.712755 
L 133.354398 205.698894 
L 129.316914 208.849008 
L 128.384085 209.61464 
L 133.148807 207.73796 
L 137.834671 205.672243 
L 142.434179 203.420794 
L 146.939975 200.987214 
L 151.344849 198.375398 
L 155.641754 195.589522 
L 159.823818 192.634045 
L 163.884349 189.513694 
L 167.816851 186.23346 
L 171.615033 182.798593 
L 175.272818 179.214586 
L 178.784356 175.487174 
L 182.144029 171.622319 
L 185.428566 167.519326 
L 183.43452 162.802517 
L 181.253447 158.169223 
L 178.888836 153.626853 
L 176.34447 149.182677 
L 173.62442 144.843803 
L 170.733037 140.617172 
L 167.674946 136.509547 
L 164.455041 132.527499 
L 161.078471 128.677397 
L 157.55064 124.965403 
L 153.87719 121.397452 
L 150.063998 117.979255 
L 146.117166 114.716279 
L 143.727665 112.8655 
L 148.483393 114.764858 
L 153.31127 116.472517 
L 158.203574 117.985748 
L 163.152477 119.302127 
L 168.150063 120.419551 
L 173.188337 121.336231 
L 178.259238 122.0507 
L 183.354654 122.561815 
L 188.466433 122.86876 
L 193.586398 122.971042 
L 198.706357 122.868499 
L 203.818121 122.561294 
L 208.913511 122.049918 
L 213.984375 121.335191 
L 219.022602 120.418254 
L 224.020131 119.300576 
L 228.968967 117.983944 
L 233.861194 116.470464 
L 238.688984 114.762558 
L 243.444615 112.862958 
L 248.120478 110.774703 
L 252.709092 108.501134 
L 257.203118 106.045888 
L 261.595366 103.412892 
L 265.878808 100.60636 
L 270.046593 97.630781 
L 274.092052 94.490914 
L 278.008714 91.191785 
L 281.790314 87.738669 
L 285.430801 84.137092 
L 288.924351 80.392815 
L 292.265375 76.511828 
L 295.448529 72.500341 
L 298.46872 68.36477 
L 300.857863 64.827986 
L 295.750829 65.205748 
L 290.662987 65.787435 
L 285.602475 66.572116 
L 280.57739 67.558535 
L 275.595771 68.745116 
L 270.665587 70.129959 
L 265.794726 71.710849 
L 260.99098 73.485257 
L 256.262033 75.450344 
L 251.615452 77.602966 
L 247.058669 79.939681 
L 242.598976 82.456749 
L 238.243505 85.150144 
L 233.999225 88.015557 
L 229.872926 91.048404 
L 225.871209 94.243832 
L 222.000477 97.596731 
L 218.26692 101.101736 
L 214.676513 104.75324 
L 211.234999 108.5454 
L 207.947884 112.472152 
L 204.820426 116.527212 
L 201.85763 120.704093 
L 199.064233 124.996113 
L 196.444707 129.396407 
L 194.00324 133.897933 
L 191.743739 138.493492 
L 189.669819 143.17573 
L 187.784798 147.937158 
L 186.091691 152.770158 
L 184.593206 157.666999 
L 183.291742 162.619846 
L 182.189379 167.620775 
L 181.287882 172.661788 
L 180.588693 177.734818 
L 180.092931 182.831751 
L 179.801388 187.944431 
L 179.71453 193.064681 
L 179.832498 198.184309 
L 180.155102 203.295123 
L 180.681826 208.388949 
L 181.411827 213.457638 
L 182.343937 218.493079 
L 183.476667 223.487218 
L 184.808202 228.432066 
L 186.336413 233.319711 
L 188.058856 238.142334 
L 189.972774 242.89222 
L 192.075107 247.56177 
L 194.362489 252.143515 
L 196.831263 256.630123 
L 199.477479 261.014418 
L 202.296903 265.289386 
L 205.285025 269.448187 
L 208.437065 273.484169 
L 211.747979 277.390875 
L 215.212472 281.162054 
L 218.825 284.791674 
L 219.467924 285.408 
L 223.105613 281.803597 
L 226.596254 278.056609 
L 229.934264 274.173029 
L 233.114302 270.159071 
L 236.131281 266.021156 
L 238.980374 261.765904 
L 241.657024 257.400122 
L 244.156948 252.930795 
L 246.476147 248.365073 
L 248.61091 243.71026 
L 250.557823 238.973802 
L 252.313771 234.163277 
L 253.875944 229.286381 
L 255.241845 224.350916 
L 255.865786 221.798306 
L 260.280607 224.393275 
L 264.795667 226.809622 
L 269.403744 229.043481 
L 274.097465 231.09128 
L 278.869322 232.949743 
L 283.711681 234.615895 
L 288.616795 236.087072 
L 293.576817 237.360919 
L 298.583811 238.4354 
L 303.629768 239.308795 
L 308.706615 239.979707 
L 313.806231 240.447063 
L 318.920457 240.710114 
L 324.041111 240.768441 
L 325.967201 240.737365 
L 323.422938 236.293129 
L 320.702988 231.954192 
L 317.811703 227.727495 
L 314.753708 223.619799 
L 311.533894 219.637676 
L 308.157414 215.787497 
L 304.629668 212.07542 
L 300.956301 208.507385 
L 297.143189 205.089099 
L 293.196431 201.826032 
L 289.122343 198.723403 
L 284.927442 195.786175 
L 283.243606 194.675802 
L 288.24824 195.761222 
L 293.292277 196.645642 
L 298.367646 197.327648 
L 303.466228 197.806147 
L 308.579867 198.080374 
L 313.700381 198.149891 
L 318.81958 198.014586 
L 323.929273 197.674676 
L 329.021286 197.130705 
L 334.087473 196.383543 
L 339.119729 195.434385 
L 344.110004 194.28475 
L 349.050313 192.936476 
L 353.932755 191.391722 
L 354.585669 191.168725 
L 353.509209 186.162155 
L 352.2334 181.202638 
L 350.760284 176.298106 
L 349.092218 171.456406 
L 347.231869 166.685284 
L 345.182215 161.992373 
L 342.946533 157.38518 
L 340.528402 152.871075 
L 337.931688 148.45728 
L 335.160547 144.150857 
L 332.219412 139.958695 
L 329.112987 135.8875 
L 325.846243 131.943786 
L 322.424405 128.133861 
L 318.852949 124.46382 
L 315.137586 120.939535 
L 311.284261 117.566645 
L 307.29914 114.350544 
L 303.188596 111.296378 
L 298.959206 108.409033 
L 294.617736 105.693128 
L 290.171131 103.153007 
L 285.626506 100.792736 
L 280.99113 98.616089 
L 276.272419 96.626549 
L 271.477922 94.827298 
L 266.61531 93.221215 
L 261.692361 91.810869 
L 256.716951 90.598517 
L 251.69704 89.586098 
L 246.640658 88.775232 
L 241.555894 88.167216 
L 236.450884 87.763022 
L 231.333794 87.563298 
L 226.21281 87.568363 
L 221.096125 87.778208 
L 215.991924 88.192498 
L 210.908373 88.81057 
L 205.853605 89.631436 
L 200.835706 90.653782 
L 195.862704 91.875973 
L 190.942554 93.296053 
L 186.083128 94.911751 
L 181.292199 96.720481 
L 176.577433 98.719351 
L 171.946372 100.905162 
L 167.406423 103.274418 
L 162.964852 105.823328 
L 158.628762 108.547815 
L 154.405092 111.44352 
L 150.300597 114.505811 
L 146.321844 117.729788 
L 142.475198 121.110293 
L 138.766814 124.64192 
L 135.202623 128.319017 
L 134.1362 129.478406 
L 132.673345 134.386008 
L 131.407912 139.348183 
L 130.341926 144.356992 
L 129.477091 149.404424 
L 128.814791 154.482402 
L 128.356086 159.582803 
L 128.101709 164.697467 
L 128.052068 169.818213 
L 128.207242 174.936848 
L 128.566983 180.045183 
L 129.130715 185.135047 
L 129.897536 190.198295 
L 130.866219 195.226829 
L 132.035216 200.212604 
L 133.402655 205.147643 
L 134.96635 210.024052 
L 136.723798 214.834029 
L 138.672188 219.569879 
L 140.808403 224.224026 
L 143.129025 228.789025 
L 145.630343 233.257572 
L 148.308354 237.622519 
L 151.158774 241.876882 
L 154.177043 246.013856 
L 157.358333 250.026822 
L 160.697554 253.909361 
L 164.189364 257.65526 
L 167.828177 261.258528 
L 171.608171 264.713401 
L 175.5233 268.01435 
L 179.567301 271.156095 
L 183.733702 274.133611 
L 188.01584 276.942133 
L 192.406864 279.577169 
L 196.899748 282.034503 
L 201.487306 284.310204 
L 203.879666 285.408 
L 208.513037 283.22709 
L 213.05549 280.862639 
L 217.499756 278.318429 
L 221.838725 275.598532 
L 226.065458 272.707297 
L 230.17319 269.649351 
L 234.155352 266.429586 
L 238.005572 263.053152 
L 241.717691 259.525451 
L 245.285771 255.852126 
L 248.704102 252.039055 
L 251.967217 248.092337 
L 255.069895 244.018286 
L 258.007173 239.82342 
L 260.774351 235.51445 
L 263.367004 231.098269 
L 265.780982 226.581942 
L 268.012424 221.972694 
L 270.057761 217.277899 
L 271.913719 212.505067 
L 272.63735 210.475223 
L 277.414238 208.629733 
L 282.113506 206.594694 
L 286.727636 204.373362 
L 291.249244 201.969292 
L 295.671099 199.386328 
L 299.986126 196.628603 
L 304.187422 193.700529 
L 308.268265 190.60679 
L 312.222127 187.352336 
L 316.042684 183.942373 
L 319.723822 180.382355 
L 323.259653 176.677979 
L 326.64452 172.835171 
L 329.873008 168.860078 
L 332.939953 164.759059 
L 335.840447 160.538676 
L 338.569851 156.20568 
L 341.123798 151.767002 
L 343.498202 147.229745 
L 345.720301 142.532008 
L 340.61655 142.112213 
L 335.500094 141.89685 
L 330.379119 141.886262 
L 325.261816 142.080467 
L 320.156373 142.479155 
L 315.070957 143.081687 
L 310.013703 143.887099 
L 304.992703 144.894103 
L 300.015988 146.101088 
L 295.091521 147.506123 
L 290.227179 149.106961 
L 285.430745 150.90104 
L 282.255204 152.21137 
L 282.817156 151.90474 
L 287.256155 149.351351 
L 291.589494 146.622491 
L 295.810241 143.722527 
L 299.911645 140.656098 
L 303.887144 137.428109 
L 307.730377 134.043725 
L 311.435198 130.508359 
L 314.995677 126.827668 
L 318.406121 123.00754 
L 321.661072 119.054087 
L 324.755323 114.973632 
L 327.522916 111.013212 
L 322.421503 111.460525 
L 317.342059 112.111482 
L 312.292708 112.965042 
L 307.28153 114.019839 
L 302.316542 115.274187 
L 297.405685 116.726077 
L 292.556816 118.373188 
L 287.777693 120.212885 
L 283.075961 122.242224 
L 278.459141 124.457959 
L 273.934621 126.856545 
L 269.509637 129.434145 
L 265.079285 132.261289 
L 266.085695 127.24017 
L 266.89051 122.182821 
L 267.49244 117.097334 
L 267.890524 111.991844 
L 268.084125 106.874518 
L 268.072932 101.753544 
L 267.856963 96.637113 
L 267.436565 91.533412 
L 266.812409 86.450605 
L 265.985495 81.396823 
L 264.957144 76.380151 
L 263.729003 71.408615 
L 262.303036 66.490168 
L 261.380514 63.648 
L 259.840153 68.531829 
L 258.496325 73.47335 
L 257.351179 78.464657 
L 256.406549 83.497765 
L 255.663945 88.564622 
L 255.124555 93.657122 
L 254.789243 98.767119 
L 254.658544 103.886437 
L 254.732667 109.006887 
L 255.011495 114.120277 
L 255.494581 119.218427 
L 256.181152 124.29318 
L 256.746876 127.634712 
L 261.023397 124.817646 
L 265.183845 121.831817 
L 269.221564 118.682003 
L 273.130094 115.373242 
L 276.903183 111.910829 
L 280.534794 108.300303 
L 284.019117 104.547438 
L 287.350579 100.65824 
L 290.52385 96.638929 
L 293.533852 92.495937 
L 296.375772 88.235891 
L 299.045062 83.865605 
L 301.537452 79.392073 
L 303.848955 74.82245 
L 305.091619 72.161067 
L 299.986295 71.760856 
L 294.869051 71.565125 
L 289.748072 71.574185 
L 284.631552 71.788022 
L 279.527676 72.206295 
L 274.444609 72.828334 
L 269.390483 73.653143 
L 264.373383 74.679404 
L 259.401336 75.905474 
L 254.482296 77.329393 
L 249.624132 78.948882 
L 244.834616 80.76135 
L 240.121411 82.763898 
L 235.492056 84.953322 
L 230.953958 87.326119 
L 226.514377 89.878494 
L 222.180414 92.606364 
L 217.959004 95.505363 
L 213.8569 98.570855 
L 209.880664 101.797936 
L 206.036657 105.181442 
L 202.331029 108.715961 
L 198.769708 112.395838 
L 195.358392 116.215187 
L 192.102538 120.167897 
L 189.007354 124.247644 
L 186.077793 128.447903 
L 183.31854 132.761953 
L 180.734011 137.182893 
L 178.328339 141.70365 
L 176.105374 146.316992 
L 174.068671 151.015539 
L 172.221489 155.791774 
L 170.566784 160.638056 
L 169.107201 165.546632 
L 167.845077 170.50965 
L 166.78243 175.519169 
L 165.92096 180.567176 
L 165.262046 185.645594 
L 164.806741 190.7463 
L 164.555774 195.861133 
L 164.509547 200.981911 
L 164.668134 206.100441 
L 165.03128 211.208536 
L 165.598405 216.298022 
L 166.368602 221.360758 
L 167.340637 226.388645 
L 168.512958 231.37364 
L 169.883687 236.307766 
L 171.450632 241.183131 
L 173.211286 245.991935 
L 175.162833 250.726486 
L 177.30215 255.379208 
L 179.625816 259.942658 
L 182.130112 264.409537 
L 184.811032 268.772697 
L 187.664288 273.025159 
L 190.685315 277.16012 
L 193.869279 281.170964 
L 197.53216 285.408 
L 200.888491 281.540243 
L 204.087468 277.541362 
L 207.123973 273.417754 
L 209.993149 269.176018 
L 212.690406 264.822938 
L 215.211429 260.365478 
L 217.552184 255.81077 
L 219.708928 251.1661 
L 221.678208 246.438898 
L 223.456876 241.636728 
L 225.042086 236.76727 
L 226.431301 231.838317 
L 227.622299 226.857752 
L 227.995525 225.086295 
L 227.920716 225.722075 
L 227.436857 230.820151 
L 227.157253 235.933498 
L 227.082353 241.053937 
L 227.212275 246.173275 
L 227.546812 251.283323 
L 228.085429 256.375905 
L 228.827265 261.442875 
L 229.771131 266.476126 
L 230.915519 271.467606 
L 232.258598 276.409331 
L 233.798218 281.293394 
L 235.26498 285.408 
L 236.970314 280.579301 
L 238.481188 275.686269 
L 239.795184 270.736732 
L 240.9102 265.738608 
L 241.824453 260.699893 
L 242.536479 255.628649 
L 243.04514 250.532988 
L 243.349623 245.421061 
L 243.449439 240.301048 
L 243.344429 235.181138 
L 243.034762 230.069523 
L 242.564583 225.339231 
L 242.929843 227.873667 
L 243.812035 232.918094 
L 244.895244 237.923207 
L 246.177738 242.881 
L 247.657465 247.783541 
L 249.332058 252.622987 
L 251.198837 257.391597 
L 253.254817 262.081741 
L 255.496708 266.685916 
L 257.920923 271.196756 
L 260.523585 275.607046 
L 263.300529 279.909729 
L 266.247314 284.097922 
L 267.221727 285.408 
L 270.22168 281.257725 
L 273.053267 276.990804 
L 275.711958 272.614062 
L 278.193499 268.134503 
L 280.49392 263.559291 
L 282.609542 258.895746 
L 284.536979 254.15133 
L 286.273149 249.333631 
L 287.815273 244.450359 
L 289.160885 239.509323 
L 290.307832 234.51843 
L 291.254278 229.485663 
L 291.998711 224.419075 
L 292.539939 219.326769 
L 292.877096 214.216894 
L 293.009643 209.097623 
L 292.937368 203.977147 
L 292.660386 198.863656 
L 292.17914 193.765333 
L 291.494401 188.690332 
L 290.607263 183.646773 
L 289.519147 178.642724 
L 288.231792 173.686191 
L 287.187151 170.165697 
L 287.760683 165.076929 
L 288.13026 159.969296 
L 288.29529 154.850969 
L 288.255509 149.730137 
L 288.010982 144.614992 
L 287.562099 139.513717 
L 286.909579 134.434474 
L 286.054465 129.385386 
L 284.998125 124.374533 
L 283.742249 119.409931 
L 282.288847 114.499521 
L 280.640244 109.651159 
L 278.799076 104.872603 
L 276.76829 100.171496 
L 274.551135 95.555358 
L 272.151156 91.031576 
L 269.572194 86.607386 
L 266.818375 82.289866 
L 263.894103 78.085923 
L 260.804058 74.002282 
L 257.553183 70.045476 
L 254.146677 66.221836 
L 251.692237 63.648 
L 248.180842 67.375548 
L 244.821319 71.240532 
L 241.619041 75.236769 
L 238.579131 79.357868 
L 235.706452 83.597233 
L 233.005601 87.948084 
L 230.480898 92.403461 
L 228.136382 96.956234 
L 225.975804 101.599121 
L 224.00262 106.324695 
L 222.219987 111.125395 
L 220.630757 115.993542 
L 219.237471 120.921346 
L 218.04236 125.900925 
L 217.871913 126.691343 
L 213.678174 123.752456 
L 209.370266 120.983624 
L 204.95508 118.389278 
L 200.43968 115.973567 
L 195.831288 113.740356 
L 191.137278 111.693218 
L 186.36516 109.835428 
L 181.522566 108.169957 
L 176.617245 106.699471 
L 171.657044 105.426322 
L 166.649899 104.352547 
L 161.603819 103.479862 
L 156.526877 102.809665 
L 151.427196 102.343028 
L 149.861759 102.240938 
L 152.764244 106.459953 
L 155.833122 110.559524 
L 159.063485 114.533094 
L 162.450165 118.374305 
L 165.987743 122.077013 
L 169.67056 125.635293 
L 173.492724 129.043454 
L 177.448122 132.296043 
L 181.530424 135.387856 
L 185.7331 138.313948 
L 190.049428 141.069637 
L 194.4725 143.650515 
L 195.058713 143.975028 
L 191.331019 140.46379 
L 187.465894 137.104428 
L 183.469522 133.902317 
L 179.348297 130.862579 
L 175.108811 127.990079 
L 170.757847 125.28941 
L 166.302365 122.764893 
L 161.749493 120.420568 
L 157.106515 118.260184 
L 152.380859 116.287198 
L 147.580084 114.504765 
L 143.549611 113.173899 
L 147.383192 116.569214 
L 151.349482 119.80851 
L 155.442137 122.886606 
L 159.65461 125.798577 
L 163.980161 128.539766 
L 168.41187 131.105785 
L 172.942647 133.492531 
L 177.565245 135.696185 
L 182.272268 137.713222 
L 187.056186 139.540414 
L 191.909345 141.17484 
L 196.235358 142.452731 
L 193.749757 137.975423 
L 191.087099 133.601094 
L 188.251644 129.336742 
L 185.247929 125.189189 
L 182.080758 121.16507 
L 178.7552 117.270823 
L 175.276572 113.512678 
L 171.650442 109.896647 
L 167.88261 106.428515 
L 163.979103 103.11383 
L 159.946166 99.957895 
L 155.790252 96.965759 
L 153.716418 95.564473 
L 154.289971 95.848813 
L 158.928103 98.019579 
L 163.649333 100.003134 
L 168.446108 101.796303 
L 173.310753 103.396218 
L 178.235487 104.800319 
L 183.21243 106.006361 
L 188.233621 107.012412 
L 193.291027 107.816866 
L 198.376558 108.418433 
L 203.482077 108.816152 
L 208.599416 109.009387 
L 213.720389 108.997828 
L 218.836804 108.781494 
L 223.940475 108.360731 
L 229.023238 107.736213 
L 234.076961 106.908937 
L 239.09356 105.880228 
L 244.065008 104.651732 
L 248.983353 103.225413 
L 253.840726 101.603554 
L 258.629357 99.78875 
L 263.341585 97.783902 
L 267.969871 95.59222 
L 272.50681 93.217208 
L 276.945146 90.662667 
L 281.277777 87.932684 
L 285.497772 85.031625 
L 289.59838 81.964131 
L 293.573041 78.735111 
L 297.415397 75.34973 
L 301.119299 71.813403 
L 303.492665 69.391597 
L 298.541768 70.700457 
L 293.647171 72.206253 
L 288.816705 73.906577 
L 284.058097 75.798707 
L 279.378961 77.879618 
L 274.786782 80.145979 
L 270.288907 82.594166 
L 265.892531 85.220261 
L 261.604687 88.020064 
L 257.432235 90.989096 
L 253.38185 94.122606 
L 249.460013 97.415582 
L 245.672996 100.862756 
L 242.026859 104.458612 
L 238.527434 108.197399 
L 235.180319 112.073135 
L 231.990871 116.07962 
L 228.96419 120.210443 
L 226.214365 124.289726 
L 221.94776 121.457663 
L 217.571315 118.798484 
L 213.092031 116.316444 
L 208.517076 114.015513 
L 203.853767 111.899371 
L 199.109566 109.971405 
L 194.292061 108.234699 
L 189.40896 106.69203 
L 184.468075 105.345867 
L 179.47731 104.198364 
L 174.444648 103.251356 
L 169.378143 102.506359 
L 164.285898 101.964563 
L 159.17606 101.626837 
L 154.056804 101.493719 
L 150.273998 101.52692 
L 152.81873 105.970886 
L 155.539137 110.309536 
L 158.430869 114.535929 
L 161.489297 118.643302 
L 164.709531 122.625085 
L 168.086418 126.474908 
L 171.614555 130.186613 
L 175.288299 133.75426 
L 179.101772 137.172143 
L 183.048873 140.434794 
L 187.123289 143.536994 
L 191.3185 146.473778 
L 192.721146 147.401153 
L 191.065446 146.428065 
L 186.580821 143.955689 
L 182.000915 141.664628 
L 177.333054 139.558546 
L 172.584707 137.640814 
L 167.763468 135.9145 
L 162.877052 134.382364 
L 157.933276 133.046858 
L 152.940048 131.910119 
L 147.905356 130.973965 
L 142.837256 130.239894 
L 137.743854 129.70908 
L 134.148087 129.457817 
L 137.036594 133.686413 
L 140.09189 137.796117 
L 143.309086 141.780355 
L 146.683036 145.632753 
L 150.208341 149.347146 
L 153.879363 152.917594 
L 157.690229 156.338385 
L 161.634841 159.604045 
L 165.70689 162.709351 
L 169.89986 165.649334 
L 174.207044 168.419291 
L 178.621552 171.014791 
L 183.136322 173.431682 
L 184.947078 174.336963 
L 180.377289 176.648139 
L 175.903579 179.140209 
L 171.533102 181.809186 
L 167.272853 184.650801 
L 163.129645 187.660507 
L 159.110108 190.83349 
L 155.220671 194.164674 
L 151.467558 197.648729 
L 147.856771 201.280082 
L 144.394088 205.052923 
L 141.085048 208.961216 
L 137.934946 212.99871 
L 134.948819 217.158944 
L 133.757591 218.921825 
L 138.861227 218.500631 
L 143.943937 217.875683 
L 148.99759 217.04798 
L 154.014102 216.018847 
L 158.985446 214.789931 
L 163.903671 213.363196 
L 168.760907 211.740927 
L 173.549384 209.925717 
L 178.261442 207.920471 
L 182.889543 205.728398 
L 187.426282 203.353003 
L 192.109552 200.649981 
L 187.732945 203.308893 
L 183.466167 206.140696 
L 179.316044 209.140859 
L 175.289215 212.304583 
L 171.392122 215.626807 
L 167.631 219.102215 
L 164.011866 222.725248 
L 160.540509 226.49011 
L 157.222484 230.390778 
L 154.063097 234.421011 
L 151.067404 238.574362 
L 148.240198 242.844187 
L 147.890014 243.3999 
L 153.002936 243.112606 
L 158.100279 242.62108 
L 163.173888 241.926108 
L 168.215648 241.028801 
L 173.217492 239.930595 
L 178.171419 238.633247 
L 183.069503 237.138833 
L 187.903909 235.449743 
L 192.666902 233.56868 
L 197.350862 231.498652 
L 201.948297 229.242971 
L 206.451851 226.805247 
L 210.85432 224.189378 
L 215.2967 221.298959 
L 216.082721 226.359262 
L 217.070472 231.384086 
L 218.258373 236.36539 
L 219.644522 241.295207 
L 221.226702 246.165649 
L 223.002383 250.968925 
L 224.968723 255.697351 
L 227.122577 260.343361 
L 229.460498 264.899525 
L 231.978748 269.358551 
L 234.673297 273.713308 
L 237.539834 277.956829 
L 240.573774 282.082324 
L 243.21223 285.408 
L 246.381272 281.385355 
L 249.386916 277.239199 
L 252.224354 272.976167 
L 254.889047 268.603077 
L 257.376731 264.126925 
L 259.683427 259.554874 
L 261.805444 254.894236 
L 263.739389 250.152468 
L 265.482166 245.337156 
L 267.030988 240.456004 
L 268.383377 235.516819 
L 269.53717 230.527504 
L 270.49052 225.496041 
L 271.241903 220.430478 
L 271.790116 215.33892 
L 272.094566 211.017818 
L 277.206915 210.720509 
L 282.303285 210.218998 
L 287.375523 209.514088 
L 292.415516 208.606906 
L 297.415199 207.498904 
L 302.366575 206.191854 
L 307.261722 204.687847 
L 312.092809 202.98929 
L 316.852108 201.0989 
L 321.532005 199.0197 
L 326.125012 196.755018 
L 330.623782 194.308476 
L 335.021118 191.683988 
L 339.309985 188.885752 
L 343.483522 185.918246 
L 347.535052 182.786217 
L 351.458094 179.494675 
L 355.24637 176.048887 
L 358.893822 172.454363 
L 361.442376 169.76344 
L 356.468361 170.981505 
L 351.547035 172.397503 
L 346.68627 174.009168 
L 341.893843 175.813924 
L 337.17742 177.808881 
L 332.544546 179.99085 
L 328.002634 182.356339 
L 323.55895 184.901563 
L 319.220601 187.622452 
L 314.99453 190.514652 
L 310.887496 193.573536 
L 306.90607 196.794211 
L 303.056621 200.171525 
L 299.345308 203.700074 
L 295.778068 207.374213 
L 292.360607 211.188065 
L 289.098394 215.135528 
L 285.996647 219.210287 
L 283.060327 223.405824 
L 280.294133 227.715427 
L 277.70249 232.1322 
L 275.289543 236.649079 
L 273.059154 241.258836 
L 271.01489 245.954098 
L 269.160022 250.727354 
L 267.497516 255.570966 
L 266.030033 260.477186 
L 264.759921 265.438165 
L 263.68921 270.445967 
L 262.819615 275.49258 
L 262.152526 280.569931 
L 261.707811 285.408 
L 261.659724 284.769643 
L 261.160261 279.673072 
L 260.45739 274.600551 
L 259.552234 269.560194 
L 258.446242 264.560066 
L 257.141182 259.608165 
L 255.639143 254.712414 
L 253.942528 249.880644 
L 252.05405 245.120586 
L 249.976732 240.439854 
L 247.713896 235.845937 
L 245.269162 231.346184 
L 242.646442 226.947793 
L 241.692338 225.441585 
L 240.008037 230.277661 
L 238.518474 235.177222 
L 237.226033 240.132432 
L 236.132782 245.135361 
L 235.240469 250.178007 
L 234.550521 255.252303 
L 234.064043 260.35013 
L 233.781813 265.463333 
L 233.704283 270.583732 
L 233.831575 275.703137 
L 234.163488 280.813355 
L 234.637949 285.408 
L 235.153978 280.313079 
L 235.465851 275.201598 
L 235.57307 270.081735 
L 235.475464 264.961679 
L 235.173188 259.849621 
L 234.666726 254.753741 
L 233.956888 249.682189 
L 233.044811 244.643081 
L 231.931952 239.644476 
L 230.620092 234.694373 
L 229.111331 229.800689 
L 227.414771 224.989082 
L 224.18631 228.964198 
L 221.119394 233.065238 
L 218.218929 237.285641 
L 215.489556 241.618657 
L 212.93564 246.057352 
L 210.561267 250.594626 
L 208.370236 255.22322 
L 206.366052 259.93573 
L 204.551921 264.724616 
L 202.930746 269.582218 
L 201.50512 274.500764 
L 200.277324 279.472385 
L 199.249321 284.489128 
L 199.083566 285.408 
L 198.092176 280.383893 
L 196.900669 275.40345 
L 195.51095 270.474639 
L 193.925242 265.605344 
L 192.146083 260.803355 
L 190.176319 256.076355 
L 188.019101 251.431906 
L 185.67788 246.877437 
L 183.156401 242.420235 
L 180.458699 238.067431 
L 177.589089 233.825987 
L 174.552162 229.702691 
L 171.352777 225.704137 
L 167.99605 221.836723 
L 164.487354 218.106635 
L 160.832301 214.519842 
L 157.036737 211.082081 
L 153.106736 207.798852 
L 149.048585 204.675407 
L 144.868775 201.716744 
L 140.573993 198.927595 
L 136.171111 196.312422 
L 131.667171 193.875409 
L 127.06938 191.620456 
L 122.385092 189.551169 
L 117.621801 187.670858 
L 115.213653 186.802781 
L 116.068018 181.753568 
L 116.719786 176.674227 
L 117.167913 171.572886 
L 117.411682 166.457704 
L 117.450703 161.336867 
L 117.383932 158.494185 
L 121.855718 155.998664 
L 126.224134 153.326316 
L 130.48219 150.481415 
L 134.623074 147.468513 
L 138.640162 144.29243 
L 142.527028 140.958246 
L 146.277452 137.471296 
L 149.885436 133.837159 
L 153.345207 130.061648 
L 156.65123 126.150802 
L 159.798217 122.110879 
L 162.781133 117.948342 
L 165.595206 113.66985 
L 168.235933 109.282247 
L 170.699091 104.792553 
L 172.980739 100.20795 
L 175.077227 95.535772 
L 176.9852 90.783495 
L 178.701607 85.95872 
L 180.223701 81.069167 
L 181.549048 76.122658 
L 182.675527 71.127105 
L 183.601336 66.090501 
L 183.975824 63.648 
L 184.804258 68.701533 
L 185.834118 73.717896 
L 187.063754 78.689062 
L 188.491201 83.60708 
L 190.114174 88.464081 
L 191.930078 93.252295 
L 193.936006 97.964063 
L 196.12875 102.591846 
L 198.504802 107.128241 
L 201.060361 111.56599 
L 203.791338 115.897995 
L 206.693365 120.117324 
L 209.761799 124.217229 
L 212.991731 128.191149 
L 213.387436 128.656329 
L 213.387436 128.656329 
" style="fill:none;stroke:#1f77b4;stroke-linecap:square;stroke-width:1.5;"/>
   </g>
   <g id="patch_4">
    <path d="M 82.520165 307.584 
L 82.520165 41.472 
" style="fill:none;stroke:#000000;stroke-linecap:square;stroke-linejoin:miter;stroke-width:0.8;"/>
   </g>
   <g id="patch_5">
    <path d="M 389.799835 307.584 
L 389.799835 41.472 
" style="fill:none;stroke:#000000;stroke-linecap:square;stroke-linejoin:miter;stroke-width:0.8;"/>
   </g>
   <g id="patch_6">
    <path d="M 82.520165 307.584 
L 389.799835 307.584 
" style="fill:none;stroke:#000000;stroke-linecap:square;stroke-linejoin:miter;stroke-width:0.8;"/>
   </g>
   <g id="patch_7">
    <path d="M 82.520165 41.472 
L 389.799835 41.472 
" style="fill:none;stroke:#000000;stroke-linecap:square;stroke-linejoin:miter;stroke-width:0.8;"/>
   </g>
  </g>
 </g>
 <defs>
  <clipPath id="p31416dd7b0">
   <rect height="266.112" width="307.27967" x="82.520165" y="41.472"/>
  </clipPath>
 </defs>
</svg>
