<?xml version="1.0" encoding="utf-8" standalone="no"?>
<!DOCTYPE svg PUBLIC "-//W3C//DTD SVG 1.1//EN"
  "http://www.w3.org/Graphics/SVG/1.1/DTD/svg11.dtd">
<!-- Created with matplotlib (https://matplotlib.org/) -->
<svg height="345.6pt" version="1.1" viewBox="0 0 460.8 345.6" width="460.8pt" xmlns="http://www.w3.org/2000/svg" xmlns:xlink="http://www.w3.org/1999/xlink">
 <defs>
  <style type="text/css">
*{stroke-linecap:butt;stroke-linejoin:round;}
  </style>
 </defs>
 <g id="figure_1">
  <g id="patch_1">
   <path d="M 0 345.6 
L 460.8 345.6 
L 460.8 0 
L 0 0 
z
" style="fill:#ffffff;"/>
  </g>
  <g id="axes_1">
   <g id="patch_2">
    <path d="M 82.520165 307.584 
L 389.799835 307.584 
L 389.799835 41.472 
L 82.520165 41.472 
z
" style="fill:#ffffff;"/>
   </g>
   <g id="patch_3">
    <path clip-path="url(#p1d469c0c50)" d="M 236.16 225.741278 
C 249.74192 225.741278 262.769389 220.345124 272.373256 210.741256 
C 281.977124 201.137389 287.373278 188.10992 287.373278 174.528 
C 287.373278 160.94608 281.977124 147.918611 272.373256 138.314744 
C 262.769389 128.710876 249.74192 123.314722 236.16 123.314722 
C 222.57808 123.314722 209.550611 128.710876 199.946744 138.314744 
C 190.342876 147.918611 184.946722 160.94608 184.946722 174.528 
C 184.946722 188.10992 190.342876 201.137389 199.946744 210.741256 
C 209.550611 220.345124 222.57808 225.741278 236.16 225.741278 
z
" style="fill:#009900;fill-opacity:0.5;stroke:#009900;stroke-linejoin:miter;stroke-width:2;"/>
   </g>
   <g id="matplotlib.axis_1">
    <g id="xtick_1">
     <g id="line2d_1">
      <defs>
       <path d="M 0 0 
L 0 3.5 
" id="m9db95a9c76" style="stroke:#000000;stroke-width:0.8;"/>
      </defs>
      <g>
       <use style="stroke:#000000;stroke-width:0.8;" x="108.126804" xlink:href="#m9db95a9c76" y="307.584"/>
      </g>
     </g>
     <g id="text_1">
      <!-- −2 -->
      <defs>
       <path d="M 10.59375 35.5 
L 73.1875 35.5 
L 73.1875 27.203125 
L 10.59375 27.203125 
z
" id="DejaVuSans-8722"/>
       <path d="M 19.1875 8.296875 
L 53.609375 8.296875 
L 53.609375 0 
L 7.328125 0 
L 7.328125 8.296875 
Q 12.9375 14.109375 22.625 23.890625 
Q 32.328125 33.6875 34.8125 36.53125 
Q 39.546875 41.84375 41.421875 45.53125 
Q 43.3125 49.21875 43.3125 52.78125 
Q 43.3125 58.59375 39.234375 62.25 
Q 35.15625 65.921875 28.609375 65.921875 
Q 23.96875 65.921875 18.8125 64.3125 
Q 13.671875 62.703125 7.8125 59.421875 
L 7.8125 69.390625 
Q 13.765625 71.78125 18.9375 73 
Q 24.125 74.21875 28.421875 74.21875 
Q 39.75 74.21875 46.484375 68.546875 
Q 53.21875 62.890625 53.21875 53.421875 
Q 53.21875 48.921875 51.53125 44.890625 
Q 49.859375 40.875 45.40625 35.40625 
Q 44.1875 33.984375 37.640625 27.21875 
Q 31.109375 20.453125 19.1875 8.296875 
z
" id="DejaVuSans-50"/>
      </defs>
      <g transform="translate(100.755711 322.182437)scale(0.1 -0.1)">
       <use xlink:href="#DejaVuSans-8722"/>
       <use x="83.789062" xlink:href="#DejaVuSans-50"/>
      </g>
     </g>
    </g>
    <g id="xtick_2">
     <g id="line2d_2">
      <g>
       <use style="stroke:#000000;stroke-width:0.8;" x="172.143402" xlink:href="#m9db95a9c76" y="307.584"/>
      </g>
     </g>
     <g id="text_2">
      <!-- −1 -->
      <defs>
       <path d="M 12.40625 8.296875 
L 28.515625 8.296875 
L 28.515625 63.921875 
L 10.984375 60.40625 
L 10.984375 69.390625 
L 28.421875 72.90625 
L 38.28125 72.90625 
L 38.28125 8.296875 
L 54.390625 8.296875 
L 54.390625 0 
L 12.40625 0 
z
" id="DejaVuSans-49"/>
      </defs>
      <g transform="translate(164.772308 322.182437)scale(0.1 -0.1)">
       <use xlink:href="#DejaVuSans-8722"/>
       <use x="83.789062" xlink:href="#DejaVuSans-49"/>
      </g>
     </g>
    </g>
    <g id="xtick_3">
     <g id="line2d_3">
      <g>
       <use style="stroke:#000000;stroke-width:0.8;" x="236.16" xlink:href="#m9db95a9c76" y="307.584"/>
      </g>
     </g>
     <g id="text_3">
      <!-- 0 -->
      <defs>
       <path d="M 31.78125 66.40625 
Q 24.171875 66.40625 20.328125 58.90625 
Q 16.5 51.421875 16.5 36.375 
Q 16.5 21.390625 20.328125 13.890625 
Q 24.171875 6.390625 31.78125 6.390625 
Q 39.453125 6.390625 43.28125 13.890625 
Q 47.125 21.390625 47.125 36.375 
Q 47.125 51.421875 43.28125 58.90625 
Q 39.453125 66.40625 31.78125 66.40625 
z
M 31.78125 74.21875 
Q 44.046875 74.21875 50.515625 64.515625 
Q 56.984375 54.828125 56.984375 36.375 
Q 56.984375 17.96875 50.515625 8.265625 
Q 44.046875 -1.421875 31.78125 -1.421875 
Q 19.53125 -1.421875 13.0625 8.265625 
Q 6.59375 17.96875 6.59375 36.375 
Q 6.59375 54.828125 13.0625 64.515625 
Q 19.53125 74.21875 31.78125 74.21875 
z
" id="DejaVuSans-48"/>
      </defs>
      <g transform="translate(232.97875 322.182437)scale(0.1 -0.1)">
       <use xlink:href="#DejaVuSans-48"/>
      </g>
     </g>
    </g>
    <g id="xtick_4">
     <g id="line2d_4">
      <g>
       <use style="stroke:#000000;stroke-width:0.8;" x="300.176598" xlink:href="#m9db95a9c76" y="307.584"/>
      </g>
     </g>
     <g id="text_4">
      <!-- 1 -->
      <g transform="translate(296.995348 322.182437)scale(0.1 -0.1)">
       <use xlink:href="#DejaVuSans-49"/>
      </g>
     </g>
    </g>
    <g id="xtick_5">
     <g id="line2d_5">
      <g>
       <use style="stroke:#000000;stroke-width:0.8;" x="364.193196" xlink:href="#m9db95a9c76" y="307.584"/>
      </g>
     </g>
     <g id="text_5">
      <!-- 2 -->
      <g transform="translate(361.011946 322.182437)scale(0.1 -0.1)">
       <use xlink:href="#DejaVuSans-50"/>
      </g>
     </g>
    </g>
   </g>
   <g id="matplotlib.axis_2">
    <g id="ytick_1">
     <g id="line2d_6">
      <defs>
       <path d="M 0 0 
L -3.5 0 
" id="m412b2771e2" style="stroke:#000000;stroke-width:0.8;"/>
      </defs>
      <g>
       <use style="stroke:#000000;stroke-width:0.8;" x="82.520165" xlink:href="#m412b2771e2" y="302.561196"/>
      </g>
     </g>
     <g id="text_6">
      <!-- −2.0 -->
      <defs>
       <path d="M 10.6875 12.40625 
L 21 12.40625 
L 21 0 
L 10.6875 0 
z
" id="DejaVuSans-46"/>
      </defs>
      <g transform="translate(51.237353 306.360414)scale(0.1 -0.1)">
       <use xlink:href="#DejaVuSans-8722"/>
       <use x="83.789062" xlink:href="#DejaVuSans-50"/>
       <use x="147.412109" xlink:href="#DejaVuSans-46"/>
       <use x="179.199219" xlink:href="#DejaVuSans-48"/>
      </g>
     </g>
    </g>
    <g id="ytick_2">
     <g id="line2d_7">
      <g>
       <use style="stroke:#000000;stroke-width:0.8;" x="82.520165" xlink:href="#m412b2771e2" y="270.552897"/>
      </g>
     </g>
     <g id="text_7">
      <!-- −1.5 -->
      <defs>
       <path d="M 10.796875 72.90625 
L 49.515625 72.90625 
L 49.515625 64.59375 
L 19.828125 64.59375 
L 19.828125 46.734375 
Q 21.96875 47.46875 24.109375 47.828125 
Q 26.265625 48.1875 28.421875 48.1875 
Q 40.625 48.1875 47.75 41.5 
Q 54.890625 34.8125 54.890625 23.390625 
Q 54.890625 11.625 47.5625 5.09375 
Q 40.234375 -1.421875 26.90625 -1.421875 
Q 22.3125 -1.421875 17.546875 -0.640625 
Q 12.796875 0.140625 7.71875 1.703125 
L 7.71875 11.625 
Q 12.109375 9.234375 16.796875 8.0625 
Q 21.484375 6.890625 26.703125 6.890625 
Q 35.15625 6.890625 40.078125 11.328125 
Q 45.015625 15.765625 45.015625 23.390625 
Q 45.015625 31 40.078125 35.4375 
Q 35.15625 39.890625 26.703125 39.890625 
Q 22.75 39.890625 18.8125 39.015625 
Q 14.890625 38.140625 10.796875 36.28125 
z
" id="DejaVuSans-53"/>
      </defs>
      <g transform="translate(51.237353 274.352116)scale(0.1 -0.1)">
       <use xlink:href="#DejaVuSans-8722"/>
       <use x="83.789062" xlink:href="#DejaVuSans-49"/>
       <use x="147.412109" xlink:href="#DejaVuSans-46"/>
       <use x="179.199219" xlink:href="#DejaVuSans-53"/>
      </g>
     </g>
    </g>
    <g id="ytick_3">
     <g id="line2d_8">
      <g>
       <use style="stroke:#000000;stroke-width:0.8;" x="82.520165" xlink:href="#m412b2771e2" y="238.544598"/>
      </g>
     </g>
     <g id="text_8">
      <!-- −1.0 -->
      <g transform="translate(51.237353 242.343817)scale(0.1 -0.1)">
       <use xlink:href="#DejaVuSans-8722"/>
       <use x="83.789062" xlink:href="#DejaVuSans-49"/>
       <use x="147.412109" xlink:href="#DejaVuSans-46"/>
       <use x="179.199219" xlink:href="#DejaVuSans-48"/>
      </g>
     </g>
    </g>
    <g id="ytick_4">
     <g id="line2d_9">
      <g>
       <use style="stroke:#000000;stroke-width:0.8;" x="82.520165" xlink:href="#m412b2771e2" y="206.536299"/>
      </g>
     </g>
     <g id="text_9">
      <!-- −0.5 -->
      <g transform="translate(51.237353 210.335518)scale(0.1 -0.1)">
       <use xlink:href="#DejaVuSans-8722"/>
       <use x="83.789062" xlink:href="#DejaVuSans-48"/>
       <use x="147.412109" xlink:href="#DejaVuSans-46"/>
       <use x="179.199219" xlink:href="#DejaVuSans-53"/>
      </g>
     </g>
    </g>
    <g id="ytick_5">
     <g id="line2d_10">
      <g>
       <use style="stroke:#000000;stroke-width:0.8;" x="82.520165" xlink:href="#m412b2771e2" y="174.528"/>
      </g>
     </g>
     <g id="text_10">
      <!-- 0.0 -->
      <g transform="translate(59.61704 178.327219)scale(0.1 -0.1)">
       <use xlink:href="#DejaVuSans-48"/>
       <use x="63.623047" xlink:href="#DejaVuSans-46"/>
       <use x="95.410156" xlink:href="#DejaVuSans-48"/>
      </g>
     </g>
    </g>
    <g id="ytick_6">
     <g id="line2d_11">
      <g>
       <use style="stroke:#000000;stroke-width:0.8;" x="82.520165" xlink:href="#m412b2771e2" y="142.519701"/>
      </g>
     </g>
     <g id="text_11">
      <!-- 0.5 -->
      <g transform="translate(59.61704 146.31892)scale(0.1 -0.1)">
       <use xlink:href="#DejaVuSans-48"/>
       <use x="63.623047" xlink:href="#DejaVuSans-46"/>
       <use x="95.410156" xlink:href="#DejaVuSans-53"/>
      </g>
     </g>
    </g>
    <g id="ytick_7">
     <g id="line2d_12">
      <g>
       <use style="stroke:#000000;stroke-width:0.8;" x="82.520165" xlink:href="#m412b2771e2" y="110.511402"/>
      </g>
     </g>
     <g id="text_12">
      <!-- 1.0 -->
      <g transform="translate(59.61704 114.310621)scale(0.1 -0.1)">
       <use xlink:href="#DejaVuSans-49"/>
       <use x="63.623047" xlink:href="#DejaVuSans-46"/>
       <use x="95.410156" xlink:href="#DejaVuSans-48"/>
      </g>
     </g>
    </g>
    <g id="ytick_8">
     <g id="line2d_13">
      <g>
       <use style="stroke:#000000;stroke-width:0.8;" x="82.520165" xlink:href="#m412b2771e2" y="78.503103"/>
      </g>
     </g>
     <g id="text_13">
      <!-- 1.5 -->
      <g transform="translate(59.61704 82.302322)scale(0.1 -0.1)">
       <use xlink:href="#DejaVuSans-49"/>
       <use x="63.623047" xlink:href="#DejaVuSans-46"/>
       <use x="95.410156" xlink:href="#DejaVuSans-53"/>
      </g>
     </g>
    </g>
    <g id="ytick_9">
     <g id="line2d_14">
      <g>
       <use style="stroke:#000000;stroke-width:0.8;" x="82.520165" xlink:href="#m412b2771e2" y="46.494804"/>
      </g>
     </g>
     <g id="text_14">
      <!-- 2.0 -->
      <g transform="translate(59.61704 50.294023)scale(0.1 -0.1)">
       <use xlink:href="#DejaVuSans-50"/>
       <use x="63.623047" xlink:href="#DejaVuSans-46"/>
       <use x="95.410156" xlink:href="#DejaVuSans-48"/>
      </g>
     </g>
    </g>
   </g>
   <g id="line2d_15">
    <path clip-path="url(#p1d469c0c50)" d="M 300.176598 63.648 
L 172.143402 63.648 
" style="fill:none;stroke:#009900;stroke-linecap:square;stroke-width:2;"/>
   </g>
   <g id="line2d_16">
    <path clip-path="url(#p1d469c0c50)" d="M 172.143402 63.648 
L 108.126804 174.528 
" style="fill:none;stroke:#009900;stroke-linecap:square;stroke-width:2;"/>
   </g>
   <g id="line2d_17">
    <path clip-path="url(#p1d469c0c50)" d="M 108.126804 174.528 
L 172.143402 285.408 
" style="fill:none;stroke:#009900;stroke-linecap:square;stroke-width:2;"/>
   </g>
   <g id="line2d_18">
    <path clip-path="url(#p1d469c0c50)" d="M 172.143402 285.408 
L 300.176598 285.408 
" style="fill:none;stroke:#009900;stroke-linecap:square;stroke-width:2;"/>
   </g>
   <g id="line2d_19">
    <path clip-path="url(#p1d469c0c50)" d="M 300.176598 285.408 
L 364.193196 174.528 
" style="fill:none;stroke:#009900;stroke-linecap:square;stroke-width:2;"/>
   </g>
   <g id="line2d_20">
    <path clip-path="url(#p1d469c0c50)" d="M 364.193196 174.528 
L 300.176598 63.648 
" style="fill:none;stroke:#009900;stroke-linecap:square;stroke-width:2;"/>
   </g>
   <g id="line2d_21">
    <path clip-path="url(#p1d469c0c50)" d="M 319.87992 213.915837 
L 316.288152 217.566002 
L 312.845225 221.35688 
L 309.556646 225.282405 
L 306.427678 229.336299 
L 303.463324 233.512076 
L 300.668328 237.803055 
L 298.047162 242.202372 
L 295.604018 246.702988 
L 293.342804 251.297704 
L 291.267139 255.979169 
L 289.380343 260.739895 
L 287.685435 265.572263 
L 286.185125 270.468545 
L 284.881815 275.420906 
L 283.777588 280.421425 
L 282.882808 285.408 
L 281.977275 280.367711 
L 280.87091 275.367665 
L 279.56548 270.415862 
L 278.063076 265.520223 
L 276.3661 260.68858 
L 274.477268 255.928662 
L 272.3996 251.248086 
L 270.136421 246.654337 
L 267.691351 242.154767 
L 265.068302 237.756572 
L 262.271471 233.466789 
L 259.305331 229.292281 
L 256.174628 225.239726 
L 253.95013 222.552068 
L 254.075708 227.671515 
L 254.405908 232.781844 
L 254.940203 237.874882 
L 255.677738 242.942479 
L 256.617332 247.97653 
L 257.757484 252.96898 
L 259.096368 257.911842 
L 260.631843 262.79721 
L 262.361452 267.617268 
L 264.282429 272.364304 
L 266.3917 277.030724 
L 268.68589 281.609063 
L 270.768388 285.408 
L 273.216161 280.9099 
L 275.482101 276.317512 
L 277.562581 271.638185 
L 279.454274 266.879404 
L 281.154154 262.048782 
L 282.6595 257.154046 
L 283.967905 252.203029 
L 285.077276 247.203649 
L 285.985837 242.163905 
L 286.692136 237.091859 
L 287.195042 231.995627 
L 287.49375 226.88336 
L 287.587784 221.763237 
L 287.476992 216.643449 
L 287.161552 211.532187 
L 286.641968 206.437628 
L 285.919071 201.367921 
L 284.994019 196.331178 
L 284.136647 192.445623 
L 288.234266 189.374138 
L 292.20578 186.141248 
L 296.044837 182.752126 
L 299.745294 179.212194 
L 303.301231 175.527114 
L 306.70696 171.702783 
L 309.957033 167.745318 
L 313.046249 163.66105 
L 315.969667 159.456513 
L 318.72261 155.138435 
L 321.300674 150.713721 
L 323.699735 146.189452 
L 325.915954 141.572865 
L 327.945786 136.871346 
L 329.785984 132.092416 
L 331.433603 127.24372 
L 332.886009 122.333015 
L 333.257806 120.946333 
L 328.292549 119.693046 
L 323.281146 118.639319 
L 318.231613 117.786838 
L 313.15203 117.136966 
L 308.050522 116.690743 
L 302.93525 116.448883 
L 297.814398 116.411773 
L 292.696158 116.579472 
L 287.588718 116.951712 
L 282.50025 117.527897 
L 277.438893 118.307106 
L 272.412744 119.288091 
L 267.429845 120.469285 
L 262.498167 121.848796 
L 257.625599 123.424418 
L 252.819937 125.193631 
L 251.572563 125.68895 
L 248.697177 121.45142 
L 245.654635 117.332265 
L 242.449804 113.338074 
L 239.087812 109.475237 
L 235.574037 105.749933 
L 231.9141 102.168123 
L 228.113857 98.735536 
L 224.179386 95.457664 
L 220.116983 92.339751 
L 215.933146 89.386785 
L 211.634569 86.60349 
L 207.228127 83.994318 
L 202.720872 81.563444 
L 198.120012 79.314757 
L 193.43291 77.251853 
L 188.667062 75.378034 
L 183.830094 73.696297 
L 178.929743 72.209332 
L 173.973849 70.919519 
L 168.614984 69.759399 
L 172.050499 73.556996 
L 175.635128 77.214171 
L 179.363139 80.725074 
L 183.228566 84.084088 
L 187.225226 87.28584 
L 191.346725 90.325206 
L 195.586469 93.197326 
L 199.937676 95.897603 
L 204.393385 98.421719 
L 208.946468 100.765634 
L 213.58964 102.9256 
L 218.315474 104.898162 
L 223.116409 106.680162 
L 227.984764 108.26875 
L 232.912753 109.661386 
L 237.89249 110.855841 
L 242.916009 111.850204 
L 247.975273 112.642884 
L 253.06219 113.232614 
L 258.168621 113.618449 
L 263.286396 113.799773 
L 268.407328 113.776296 
L 273.523226 113.548055 
L 278.625904 113.115415 
L 283.7072 112.479068 
L 288.758984 111.640033 
L 293.773174 110.599651 
L 298.74175 109.359588 
L 303.656762 107.921826 
L 308.510347 106.288666 
L 313.294742 104.462721 
L 318.00229 102.446912 
L 321.599214 100.75306 
L 321.068725 101.111379 
L 316.89065 104.072493 
L 312.83433 107.198316 
L 308.906254 110.483848 
L 305.112707 113.923834 
L 301.459757 117.512769 
L 297.953248 121.244913 
L 294.598789 125.114294 
L 291.401748 129.114723 
L 288.367239 133.239799 
L 285.500116 137.482924 
L 282.804966 141.837309 
L 280.286101 146.295988 
L 279.652379 147.487052 
L 284.768087 147.254605 
L 289.870408 146.81777 
L 294.951178 146.177247 
L 300.002271 145.334059 
L 305.015605 144.289556 
L 309.983159 143.045408 
L 314.896988 141.603607 
L 319.749229 139.966457 
L 324.53212 138.13658 
L 329.23801 136.116902 
L 333.85937 133.910653 
L 338.388808 131.521365 
L 339.125966 131.110284 
L 336.936572 132.438191 
L 332.639633 135.224015 
L 328.457534 138.179443 
L 324.396966 141.299746 
L 320.464425 144.579932 
L 316.666202 148.014754 
L 313.008374 151.598717 
L 309.496791 155.326088 
L 306.137073 159.190903 
L 302.934593 163.186979 
L 299.894476 167.307924 
L 297.021584 171.547145 
L 294.320513 175.89786 
L 291.795586 180.353109 
L 289.45084 184.905764 
L 287.290028 189.548543 
L 285.316606 194.274017 
L 283.533731 199.074627 
L 281.944255 203.942693 
L 280.550721 208.870428 
L 279.355359 213.849947 
L 278.360081 218.873285 
L 277.566479 223.932405 
L 276.975822 229.019214 
L 276.589056 234.125574 
L 276.406799 239.243316 
L 276.429343 244.364253 
L 276.656652 249.480192 
L 277.088362 254.582949 
L 277.723783 259.66436 
L 278.561897 264.716297 
L 279.601365 269.730677 
L 280.840523 274.699479 
L 282.277389 279.614753 
L 283.909664 284.468636 
L 284.250756 285.408 
L 285.920868 280.567006 
L 287.396057 275.663097 
L 288.673961 270.704119 
L 289.752537 265.698005 
L 290.63006 260.652764 
L 291.305124 255.576467 
L 291.776651 250.477236 
L 292.043885 245.363227 
L 292.1064 240.242622 
L 291.964096 235.123613 
L 291.617199 230.01439 
L 291.066266 224.923125 
L 290.312177 219.857964 
L 289.356138 214.827011 
L 288.19968 209.838313 
L 286.844653 204.899852 
L 285.293223 200.019527 
L 283.547874 195.205147 
L 283.295222 194.55475 
L 287.983544 192.494619 
L 292.585732 190.248653 
L 297.094425 187.820446 
L 301.502409 185.213881 
L 305.802632 182.433128 
L 309.988215 179.482637 
L 314.052461 176.367127 
L 317.98887 173.091583 
L 321.791143 169.661245 
L 325.453197 166.0816 
L 328.969175 162.358375 
L 332.333451 158.497527 
L 335.540643 154.505232 
L 338.585621 150.387877 
L 341.463513 146.152048 
L 344.169714 141.804523 
L 344.740707 140.835301 
L 339.621244 140.960203 
L 334.510871 141.289729 
L 329.417763 141.823352 
L 324.350068 142.560218 
L 319.315894 143.499149 
L 314.323293 144.638642 
L 309.380254 145.976873 
L 304.494684 147.511704 
L 299.674398 149.240677 
L 294.927109 151.161028 
L 290.26041 153.269683 
L 285.681768 155.56327 
L 284.067875 156.4273 
L 289.037427 155.191155 
L 293.953572 153.75727 
L 298.808444 152.127938 
L 303.594276 150.305767 
L 308.303413 148.293671 
L 312.928321 146.094869 
L 317.461601 143.71288 
L 321.896 141.151512 
L 326.224425 138.414865 
L 330.439952 135.507316 
L 334.535835 132.433516 
L 338.18075 129.473123 
L 333.400274 131.3093 
L 328.697049 133.335177 
L 324.0786 135.547512 
L 319.552314 137.942767 
L 315.125434 140.517108 
L 310.805041 143.266418 
L 306.598047 146.186299 
L 302.511182 149.272079 
L 298.550985 152.518822 
L 294.72379 155.921333 
L 291.035721 159.47417 
L 287.492678 163.171648 
L 286.36452 164.413356 
L 291.035804 166.511833 
L 295.787269 168.42183 
L 300.611312 170.140291 
L 305.500216 171.664468 
L 310.446161 172.991921 
L 315.441234 174.120528 
L 320.477443 175.048482 
L 325.546732 175.774299 
L 330.640991 176.296818 
L 335.75207 176.615203 
L 340.871794 176.728944 
L 345.99197 176.637861 
L 351.104408 176.342098 
L 356.20093 175.842128 
L 361.273381 175.138752 
L 364.121245 174.652623 
L 363.882011 173.989012 
L 360.511314 170.133768 
L 356.989145 166.4164 
L 353.321138 162.842854 
L 349.513161 159.418848 
L 345.571307 156.14986 
L 341.501881 153.041118 
L 337.311394 150.097597 
L 333.006549 147.324005 
L 328.594233 144.724779 
L 324.081506 142.304078 
L 319.475586 140.065775 
L 314.783842 138.013449 
L 310.01378 136.150385 
L 305.17303 134.479563 
L 300.269338 133.003655 
L 295.310547 131.725024 
L 290.304592 130.645714 
L 285.259479 129.767452 
L 280.183282 129.091643 
L 275.084119 128.619369 
L 269.970149 128.351384 
L 264.849554 128.288119 
L 259.730524 128.429673 
L 258.592389 128.489019 
L 255.5859 124.343476 
L 252.416038 120.321477 
L 249.087874 116.429456 
L 245.606734 112.673639 
L 241.978185 109.060034 
L 238.208033 105.594424 
L 234.302309 102.282351 
L 230.267262 99.129115 
L 226.109347 96.13976 
L 221.835215 93.319069 
L 217.451705 90.671554 
L 212.965828 88.201449 
L 208.384762 85.912708 
L 203.715835 83.808992 
L 198.966517 81.893665 
L 194.144405 80.169793 
L 189.257213 78.640132 
L 184.312761 77.307131 
L 179.318958 76.172921 
L 174.283793 75.239318 
L 169.215321 74.507814 
L 166.075527 74.157869 
L 169.143022 78.258475 
L 172.372044 82.233135 
L 175.757427 86.075488 
L 179.293756 89.779389 
L 182.975372 93.338912 
L 186.796387 96.748363 
L 190.750686 100.002286 
L 194.831945 103.095476 
L 199.033634 106.022986 
L 203.349031 108.780131 
L 207.771233 111.362501 
L 212.293164 113.765964 
L 216.907592 115.986676 
L 221.607133 118.021084 
L 226.38427 119.865933 
L 231.231359 121.518271 
L 236.140648 122.975456 
L 237.461107 123.331252 
L 242.450672 122.178543 
L 247.390151 120.827227 
L 252.27164 119.279465 
L 257.08733 117.537734 
L 261.829518 115.60482 
L 266.490616 113.483815 
L 271.063169 111.178112 
L 275.53986 108.691401 
L 279.913529 106.027658 
L 284.177178 103.191146 
L 288.323986 100.186403 
L 292.34732 97.018235 
L 296.240742 93.69171 
L 299.998025 90.212151 
L 303.613157 86.585125 
L 307.080354 82.816432 
L 309.568339 79.914973 
L 304.539803 80.883642 
L 299.554024 82.052625 
L 294.618981 83.42005 
L 289.742568 84.98373 
L 284.932586 86.741164 
L 280.19673 88.68954 
L 275.542577 90.825742 
L 270.977571 93.146351 
L 266.509017 95.647656 
L 262.144063 98.325654 
L 257.889691 101.176062 
L 253.752709 104.194319 
L 249.739733 107.375598 
L 245.857185 110.714807 
L 242.111275 114.206606 
L 238.507997 117.845409 
L 235.053113 121.625394 
L 233.539009 123.381834 
L 229.77816 119.90613 
L 225.881329 116.5836 
L 221.854748 113.41956 
L 217.704861 110.41907 
L 213.438305 107.586932 
L 209.061907 104.927676 
L 204.582668 102.445556 
L 200.007754 100.144544 
L 195.344483 98.02832 
L 190.600315 96.10027 
L 185.782841 94.363478 
L 180.899767 92.820723 
L 175.958906 91.474473 
L 170.968161 90.326881 
L 165.935517 89.379784 
L 160.869024 88.634697 
L 157.913392 88.2951 
L 160.997752 92.383037 
L 164.243118 96.344363 
L 167.644299 100.17274 
L 171.195854 103.862043 
L 174.8921 107.406371 
L 178.727126 110.800054 
L 182.694794 114.037662 
L 186.788759 117.114016 
L 191.002471 120.024194 
L 195.329188 122.763541 
L 199.761989 125.327674 
L 204.293782 127.712491 
L 208.917317 129.914178 
L 210.099445 130.441184 
L 210.451277 125.332298 
L 210.598527 120.213429 
L 210.540958 115.092766 
L 210.278664 109.978501 
L 209.812063 104.878817 
L 209.141903 99.80187 
L 208.269255 94.755784 
L 207.195515 89.74863 
L 205.922402 84.78842 
L 204.451951 79.883089 
L 202.786516 75.040483 
L 200.92876 70.268351 
L 198.881656 65.574326 
L 197.975826 63.648 
L 195.850965 68.307342 
L 193.914127 73.047929 
L 192.168412 77.862176 
L 190.616611 82.742383 
L 189.261208 87.680741 
L 188.104371 92.669351 
L 187.147951 97.700232 
L 186.393477 102.765335 
L 185.842156 107.856558 
L 185.494872 112.965755 
L 185.352178 118.084753 
L 185.414304 123.205363 
L 185.68115 128.319392 
L 186.152289 133.418659 
L 186.826968 138.495008 
L 187.704106 143.540315 
L 188.782302 148.546511 
L 189.835498 152.691324 
L 185.211637 154.892327 
L 180.679491 157.276473 
L 176.246311 159.83995 
L 171.919189 162.578657 
L 167.705046 165.488212 
L 163.610626 168.56396 
L 159.642479 171.800981 
L 155.806951 175.194096 
L 152.11018 178.737877 
L 148.55808 182.426655 
L 145.156332 186.254529 
L 141.91038 190.215374 
L 138.825415 194.302855 
L 135.906374 198.510431 
L 133.157926 202.831373 
L 130.584468 207.258767 
L 128.86962 210.45561 
L 133.988953 210.585718 
L 139.109394 210.511003 
L 144.222752 210.231584 
L 149.320846 209.74791 
L 154.39552 209.060753 
L 159.438656 208.171213 
L 164.442186 207.080712 
L 169.398105 205.790997 
L 174.298485 204.304128 
L 179.135486 202.622487 
L 183.901371 200.748762 
L 188.588514 198.685951 
L 190.523395 197.768055 
L 188.83637 198.685763 
L 184.40688 201.255612 
L 180.0837 204.000538 
L 175.873746 206.916149 
L 171.783753 209.997781 
L 167.820264 213.240505 
L 163.989619 216.639132 
L 160.297948 220.188225 
L 156.751155 223.882107 
L 153.354915 227.714868 
L 150.114661 231.680376 
L 147.035578 235.772289 
L 145.088394 238.547351 
L 150.186285 238.061542 
L 155.260671 237.37226 
L 160.303434 236.480609 
L 165.306507 235.388014 
L 170.261885 234.096223 
L 175.161642 232.607303 
L 179.997939 230.923636 
L 184.763039 229.047916 
L 189.449318 226.983143 
L 194.04928 224.73262 
L 198.555566 222.299948 
L 202.960966 219.689019 
L 207.329906 216.855598 
L 206.308665 221.873722 
L 205.488913 226.928671 
L 204.87196 232.012358 
L 204.458794 237.11665 
L 204.250076 242.233381 
L 204.246139 247.354366 
L 204.44699 252.471412 
L 204.852308 257.576333 
L 205.461444 262.660962 
L 206.273424 267.717166 
L 207.286948 272.736854 
L 208.500396 277.711997 
L 209.911825 282.634635 
L 210.802065 285.408 
L 212.325112 280.518743 
L 213.651423 275.572492 
L 214.778875 270.577159 
L 215.705665 265.540735 
L 216.430311 260.471279 
L 216.951653 255.376899 
L 217.268857 250.265746 
L 217.381416 245.145997 
L 217.289149 240.025842 
L 216.992204 234.913472 
L 216.491057 229.817066 
L 215.786509 224.744777 
L 215.179191 221.246364 
L 210.842718 223.97024 
L 206.618639 226.865351 
L 202.513713 229.927063 
L 198.534507 233.15048 
L 194.687385 236.530445 
L 190.978504 240.061549 
L 187.413796 243.738145 
L 183.998963 247.55435 
L 180.73947 251.50406 
L 177.64053 255.580955 
L 174.707101 259.778514 
L 171.943877 264.09002 
L 169.355277 268.508578 
L 166.945442 273.027118 
L 166.042332 274.840637 
L 171.157053 275.093892 
L 176.277809 275.14241 
L 181.39641 274.986113 
L 186.504666 274.625252 
L 191.594406 274.060404 
L 196.657486 273.292472 
L 201.685807 272.322685 
L 206.671326 271.152595 
L 211.606065 269.784073 
L 216.48213 268.219309 
L 221.291722 266.460806 
L 226.027144 264.511378 
L 230.680823 262.374142 
L 235.245313 260.052518 
L 239.713311 257.550221 
L 244.07767 254.871252 
L 248.331408 252.019899 
L 252.46772 249.000722 
L 256.479988 245.818553 
L 260.361794 242.47848 
L 264.106928 238.985849 
L 267.709398 235.346245 
L 271.163441 231.565493 
L 274.463531 227.64964 
L 277.60439 223.604951 
L 280.580991 219.437896 
L 283.388574 215.155142 
L 286.022647 210.763541 
L 288.478995 206.270117 
L 290.75369 201.68206 
L 292.843091 197.00671 
L 294.743858 192.251545 
L 296.452948 187.424174 
L 297.967627 182.532319 
L 299.285473 177.583806 
L 300.404377 172.586551 
L 301.32255 167.548549 
L 302.038521 162.47786 
L 302.551146 157.382596 
L 302.859605 152.270908 
L 302.963404 147.150973 
L 302.862378 142.030984 
L 302.556687 136.919129 
L 302.046821 131.823588 
L 301.333596 126.752512 
L 300.418152 121.714014 
L 299.301954 116.716154 
L 297.986788 111.766928 
L 296.474758 106.874253 
L 294.768283 102.045957 
L 292.870092 97.289764 
L 290.783222 92.613283 
L 288.511012 88.023995 
L 286.057098 83.529242 
L 283.425404 79.136214 
L 280.62014 74.851941 
L 277.645796 70.683275 
L 274.507128 66.636885 
L 272.015439 63.648 
L 268.755255 67.597139 
L 265.655602 71.673492 
L 262.721439 75.870538 
L 259.95746 80.181561 
L 257.368087 84.599666 
L 254.957463 89.117784 
L 252.729443 93.728687 
L 250.687592 98.424999 
L 248.835177 103.199207 
L 247.175161 108.043673 
L 245.7102 112.950646 
L 244.442637 117.912278 
L 243.3745 122.92063 
L 243.208078 123.802026 
L 243.265936 123.16448 
L 243.613911 118.05533 
L 243.757296 112.936352 
L 243.695863 107.815734 
L 243.429708 102.701668 
L 242.959258 97.602337 
L 242.285265 92.525898 
L 241.408808 87.480472 
L 240.33129 82.47413 
L 239.054432 77.514883 
L 237.580279 72.610662 
L 235.911189 67.769316 
L 234.316211 63.648 
L 232.481036 68.428861 
L 230.838513 73.279286 
L 229.391268 78.191514 
L 228.141618 83.157687 
L 227.091562 88.169861 
L 226.242779 93.220016 
L 225.596627 98.300074 
L 225.154141 103.401908 
L 224.916027 108.517356 
L 224.882667 113.638233 
L 225.054114 118.756349 
L 225.430094 123.863515 
L 225.485416 124.439547 
L 223.768263 119.615038 
L 221.859555 114.863056 
L 219.762345 110.191203 
L 217.479988 105.606952 
L 215.016136 101.117639 
L 212.37473 96.730445 
L 209.559995 92.452387 
L 206.576436 88.290312 
L 203.428825 84.250876 
L 200.122196 80.340542 
L 196.661842 76.565565 
L 193.053296 72.931986 
L 189.302332 69.445616 
L 185.414951 66.112034 
L 182.326587 63.648 
L 178.338201 66.860052 
L 174.481453 70.229027 
L 170.762512 73.749536 
L 167.18733 77.415948 
L 163.761624 81.222395 
L 160.490876 85.16279 
L 157.346571 89.276863 
L 155.376718 94.003827 
L 153.59747 98.805782 
L 152.011671 103.675047 
L 150.621859 108.603833 
L 149.430258 113.584253 
L 148.438774 118.608341 
L 147.648993 123.66806 
L 147.062179 128.755313 
L 146.679269 133.861964 
L 146.500878 138.979842 
L 146.52729 144.100761 
L 146.758463 149.216527 
L 147.194027 154.318956 
L 147.833285 159.399886 
L 148.675215 164.451189 
L 149.71847 169.464782 
L 150.96138 174.432646 
L 152.401958 179.346834 
L 154.037899 184.199483 
L 155.866585 188.98283 
L 157.885091 193.689222 
L 160.090189 198.311132 
L 162.478349 202.841164 
L 165.045753 207.272072 
L 167.788291 211.596766 
L 170.701578 215.808329 
L 173.780952 219.900023 
L 177.021487 223.865302 
L 180.417998 227.697822 
L 183.965053 231.391452 
L 187.656976 234.940284 
L 191.487862 238.338639 
L 195.451581 241.581081 
L 199.541792 244.662424 
L 203.751953 247.577736 
L 208.075328 250.322356 
L 212.504999 252.89189 
L 217.033882 255.28223 
L 221.65473 257.489551 
L 226.360151 259.510322 
L 231.142618 261.34131 
L 235.994479 262.979585 
L 240.907972 264.422527 
L 245.875238 265.667828 
L 250.888329 266.713495 
L 255.939226 267.557855 
L 261.019848 268.199558 
L 266.122067 268.637577 
L 271.237721 268.871211 
L 276.358626 268.900087 
L 281.47659 268.724158 
L 286.583424 268.343706 
L 291.670959 267.759339 
L 296.731057 266.971993 
L 301.755622 265.982926 
L 306.736615 264.793722 
L 311.666069 263.406282 
L 313.143541 262.948596 
L 311.940417 257.970946 
L 310.539203 253.045391 
L 308.94214 248.179808 
L 307.151783 243.381983 
L 305.170996 238.659591 
L 303.002948 234.020187 
L 300.651108 229.471193 
L 298.119238 225.019886 
L 295.411388 220.673387 
L 292.531891 216.43865 
L 289.485352 212.32245 
L 286.276647 208.331371 
L 282.910907 204.471799 
L 279.862064 201.22874 
L 284.786402 202.634226 
L 289.763006 203.841667 
L 294.783914 204.849131 
L 299.841094 205.655007 
L 304.926455 206.258005 
L 310.031862 206.65716 
L 315.149146 206.851834 
L 320.270123 206.841715 
L 325.386598 206.626821 
L 330.490388 206.207493 
L 335.573326 205.584404 
L 340.627282 204.75855 
L 345.644169 203.731253 
L 347.596362 203.27456 
L 346.053859 198.391407 
L 344.317315 193.573843 
L 342.38951 188.829576 
L 340.273527 184.166196 
L 337.97275 179.591162 
L 335.490862 175.111795 
L 332.831832 170.73526 
L 329.999914 166.468558 
L 326.999639 162.318516 
L 323.835806 158.291772 
L 320.513477 154.394769 
L 317.037967 150.633741 
L 313.414836 147.014705 
L 309.649881 143.54345 
L 305.749124 140.225529 
L 301.718805 137.066252 
L 297.565373 134.070671 
L 293.295472 131.243579 
L 288.915933 128.589499 
L 284.433762 126.112677 
L 279.856131 123.817076 
L 275.190361 121.706367 
L 270.443917 119.783927 
L 265.624393 118.052832 
L 260.739498 116.515851 
L 255.797049 115.175444 
L 250.80495 114.033754 
L 245.77119 113.092608 
L 240.70382 112.353511 
L 235.610947 111.817647 
L 230.50072 111.485871 
L 225.381312 111.358716 
L 220.260915 111.436384 
L 215.147719 111.718751 
L 210.049905 112.205366 
L 204.975628 112.895449 
L 199.933006 113.787898 
L 194.930106 114.881283 
L 189.974931 116.173857 
L 185.075409 117.663551 
L 180.239379 119.347982 
L 175.474575 121.224456 
L 170.788622 123.289969 
L 166.189016 125.541219 
L 161.683115 127.974603 
L 157.278128 130.586228 
L 152.981101 133.371917 
L 148.798909 136.327213 
L 144.738243 139.447389 
L 140.805599 142.727451 
L 137.007268 146.162154 
L 133.349327 149.746002 
L 129.837627 153.473262 
L 126.477787 157.337971 
L 123.275182 161.333947 
L 120.234935 165.454796 
L 117.36191 169.693927 
L 114.660702 174.044557 
L 112.135635 178.499726 
L 111.312964 180.046591 
L 116.43275 180.157471 
L 121.552875 180.063526 
L 126.665147 179.764906 
L 131.761388 179.262088 
L 136.833446 178.555877 
L 141.873205 177.647403 
L 146.872604 176.538119 
L 151.823645 175.229799 
L 156.718406 173.724538 
L 161.549058 172.024742 
L 166.307872 170.133131 
L 170.987235 168.052731 
L 175.579661 165.786871 
L 180.077804 163.339175 
L 184.474467 160.71356 
L 187.415031 158.820425 
L 185.507627 154.067919 
L 183.4117 149.395491 
L 181.130601 144.810614 
L 178.667981 140.320625 
L 176.027779 135.932706 
L 173.214219 131.653876 
L 170.231802 127.490982 
L 167.085299 123.450682 
L 163.779744 119.539441 
L 160.320425 115.763515 
L 156.712877 112.128945 
L 152.96287 108.641546 
L 149.076404 105.306897 
L 148.40758 104.75965 
L 153.22713 106.490673 
L 158.112047 108.027581 
L 163.054517 109.367915 
L 168.046632 110.50953 
L 173.080407 111.450602 
L 178.147788 112.189623 
L 183.240668 112.725412 
L 188.350901 113.057111 
L 193.47031 113.18419 
L 198.590707 113.106446 
L 203.703898 112.824003 
L 208.801705 112.337313 
L 213.875972 111.647154 
L 218.91858 110.75463 
L 223.921464 109.66117 
L 228.87662 108.368523 
L 233.776119 106.878756 
L 238.612125 105.194253 
L 243.3769 103.317709 
L 248.062823 101.252125 
L 252.662395 99.000807 
L 257.16826 96.567356 
L 261.573209 93.955665 
L 265.870194 91.169912 
L 270.052342 88.214554 
L 274.112961 85.094319 
L 278.045557 81.814197 
L 281.843837 78.379438 
L 285.501725 74.795536 
L 289.013369 71.068223 
L 292.373151 67.203464 
L 295.235336 63.648 
L 298.455227 67.63006 
L 301.831783 71.480173 
L 305.359601 75.192181 
L 308.747044 78.492448 
L 310.015458 83.453861 
L 311.481261 88.360584 
L 313.142108 93.204764 
L 314.995343 97.978654 
L 317.038 102.674616 
L 319.266811 107.285137 
L 321.678211 111.802841 
L 324.268342 116.220501 
L 327.03306 120.53105 
L 329.967943 124.727592 
L 333.068296 128.803413 
L 336.329158 132.751993 
L 339.745312 136.567015 
L 343.311294 140.242375 
L 345.763594 142.606994 
L 347.032009 147.568408 
L 348.497812 152.47513 
L 350.158659 157.319311 
L 352.011894 162.093201 
L 354.05455 166.789162 
L 356.283361 171.399683 
L 358.694761 175.917388 
L 361.056373 179.961136 
L 355.935414 179.944374 
L 350.817881 180.132409 
L 345.711961 180.52494 
L 340.625822 181.12134 
L 335.567601 181.920654 
L 330.54539 182.921604 
L 325.567224 184.122588 
L 320.641066 185.521684 
L 315.774798 187.116656 
L 310.976204 188.90495 
L 306.252961 190.883707 
L 301.612625 193.04976 
L 297.06262 195.399644 
L 292.610225 197.9296 
L 288.262562 200.635581 
L 284.026588 203.513258 
L 279.909078 206.558027 
L 275.916621 209.765016 
L 272.055602 213.129096 
L 268.332198 216.644885 
L 264.752368 220.306758 
L 261.321836 224.108857 
L 258.046092 228.045099 
L 254.930376 232.109187 
L 251.979672 236.29462 
L 249.198702 240.594702 
L 246.591913 245.002554 
L 244.163476 249.511123 
L 241.917277 254.113198 
L 239.856908 258.801415 
L 237.985666 263.568275 
L 236.306544 268.406152 
L 234.822229 273.307306 
L 233.535095 278.263896 
L 232.447201 283.267993 
L 232.045467 285.408 
L 231.042829 280.386126 
L 229.840172 275.408364 
L 228.43942 270.482676 
L 226.842813 265.616944 
L 225.052906 260.818951 
L 223.072562 256.096374 
L 220.90495 251.456766 
L 218.553536 246.907551 
L 216.022083 242.456007 
L 213.314641 238.109254 
L 210.435541 233.874247 
L 207.389389 229.757761 
L 204.181057 225.766381 
L 200.81568 221.906493 
L 197.29864 218.184272 
L 193.635564 214.605672 
L 189.832312 211.176419 
L 185.894969 207.901998 
L 181.829834 204.787648 
L 177.643409 201.838351 
L 173.342393 199.058826 
L 168.933665 196.453519 
L 164.42428 194.026598 
L 159.821451 191.781945 
L 155.132541 189.723152 
L 150.365053 187.853513 
L 145.526612 186.176017 
L 140.624959 184.693349 
L 135.667936 183.407881 
L 130.663474 182.32167 
L 125.619577 181.436452 
L 120.544316 180.753645 
L 115.44581 180.274339 
L 111.306797 180.035909 
L 113.590559 175.452358 
L 115.689201 170.781148 
L 117.599365 166.029751 
L 119.317997 161.205769 
L 120.842346 156.316918 
L 122.169974 151.37102 
L 122.6445 149.382614 
L 126.321338 145.818156 
L 129.852695 142.109515 
L 133.23292 138.262623 
L 136.456608 134.283636 
L 139.5186 130.178918 
L 142.413998 125.955037 
L 145.138169 121.618749 
L 147.686756 117.176992 
L 150.055682 112.636871 
L 152.241156 108.005651 
L 154.239683 103.290739 
L 156.048065 98.499679 
L 157.663409 93.640135 
L 159.083131 88.719882 
L 160.152645 84.416601 
L 163.829483 80.852143 
L 167.36084 77.143501 
L 170.741066 73.29661 
L 173.964753 69.317622 
L 177.026745 65.212905 
L 178.128524 63.648 
L 181.128817 67.798029 
L 184.292668 71.824758 
L 187.615014 75.721747 
L 191.090541 79.482759 
L 194.713688 83.10178 
L 198.478659 86.573018 
L 202.379431 89.890921 
L 206.409763 93.050181 
L 210.563209 96.045743 
L 214.833122 98.872816 
L 219.212673 101.526876 
L 223.694855 104.003678 
L 228.272497 106.299259 
L 232.938276 108.409948 
L 237.684729 110.332366 
L 242.50426 112.06344 
L 247.389162 113.600399 
L 252.331617 114.940784 
L 257.323721 116.082452 
L 262.357485 117.023576 
L 267.424859 117.76265 
L 272.517734 118.298491 
L 277.627963 118.630244 
L 282.747371 118.757377 
L 287.867768 118.679686 
L 292.980962 118.397296 
L 298.078774 117.910659 
L 303.153048 117.220553 
L 308.195666 116.328082 
L 313.198562 115.234674 
L 318.15373 113.942078 
L 323.053245 112.452362 
L 327.470489 110.922405 
L 323.605387 114.281794 
L 319.877716 117.793058 
L 316.293441 121.45058 
L 312.858294 125.24851 
L 309.577772 129.180771 
L 306.457122 133.241072 
L 303.501337 137.422918 
L 300.715146 141.719619 
L 298.103006 146.124301 
L 295.669095 150.629918 
L 293.417308 155.229261 
L 291.351247 159.914973 
L 289.474217 164.679557 
L 287.789221 169.515391 
L 287.262872 171.16699 
L 289.504584 175.771252 
L 291.928624 180.282187 
L 294.531115 184.692577 
L 297.307893 188.995368 
L 300.254515 193.183675 
L 303.366268 197.250799 
L 306.638174 201.190232 
L 310.064997 204.995673 
L 313.641257 208.661034 
L 317.361231 212.180451 
L 321.218969 215.548293 
L 325.208299 218.759173 
L 329.322838 221.807954 
L 333.556006 224.689758 
L 334.778042 225.476542 
L 334.209731 225.181865 
L 329.611658 222.927485 
L 324.927112 220.858783 
L 320.163587 218.979067 
L 315.328704 217.291344 
L 310.430197 215.798316 
L 305.475903 214.502369 
L 300.473749 213.405579 
L 295.431735 212.509698 
L 290.357929 211.816161 
L 285.260447 211.326076 
L 280.147445 211.040229 
L 275.027102 210.959076 
L 272.108106 211.004479 
L 271.997784 216.124277 
L 272.092287 221.244391 
L 272.391465 226.356631 
L 272.894838 231.452818 
L 273.601602 236.524798 
L 274.510625 241.564459 
L 275.620454 246.563737 
L 276.929313 251.514635 
L 278.435109 256.409232 
L 280.135431 261.239698 
L 282.027561 265.998306 
L 284.10847 270.677442 
L 286.374831 275.269622 
L 288.823017 279.767497 
L 291.449112 284.163874 
L 292.236423 285.408 
L 294.912899 281.042112 
L 297.412646 276.572686 
L 299.731663 272.006872 
L 301.866242 267.351974 
L 303.812967 262.615439 
L 305.568724 257.804844 
L 307.130704 252.927886 
L 308.496409 247.992367 
L 309.663652 243.006181 
L 310.630568 237.977307 
L 311.395609 232.913789 
L 311.957552 227.823728 
L 312.315497 222.715267 
L 312.468871 217.596578 
L 312.41743 212.47585 
L 312.161256 207.361275 
L 311.700758 202.261035 
L 311.036673 197.18329 
L 310.170063 192.136163 
L 309.102316 187.127729 
L 307.835139 182.165999 
L 306.370559 177.258911 
L 304.71092 172.414317 
L 302.858875 167.639965 
L 300.81739 162.943494 
L 298.589728 158.332418 
L 296.179454 153.814112 
L 293.590425 149.395807 
L 290.826781 145.084568 
L 287.892944 140.887295 
L 284.793608 136.810701 
L 281.533731 132.861308 
L 278.118527 129.045435 
L 274.553462 125.369186 
L 270.844237 121.838442 
L 266.996787 118.458852 
L 263.017267 115.235822 
L 258.912043 112.174508 
L 254.687684 109.279808 
L 250.350946 106.556353 
L 245.908768 104.0085 
L 241.368256 101.640325 
L 236.736675 99.455616 
L 232.021433 97.457868 
L 227.230074 95.650277 
L 222.370263 94.035736 
L 217.449776 92.616827 
L 212.476483 91.39582 
L 207.458341 90.374668 
L 202.403377 89.555005 
L 197.31968 88.938142 
L 192.21538 88.525067 
L 187.098645 88.316439 
L 181.97766 88.312593 
L 176.860618 88.513535 
L 171.755704 88.918944 
L 166.671086 89.52817 
L 161.614897 90.340239 
L 156.080566 91.469649 
L 157.692573 96.3303 
L 159.497664 101.122601 
L 161.492953 105.838884 
L 163.675247 110.471604 
L 166.041054 115.01335 
L 168.586591 119.456856 
L 171.307784 123.795014 
L 174.20028 128.020882 
L 177.259453 132.127702 
L 180.480407 136.108902 
L 183.857991 139.958114 
L 187.3868 143.669179 
L 191.06119 147.236161 
L 192.187857 148.274419 
L 187.323456 146.673762 
L 182.398936 145.26891 
L 177.422177 144.06211 
L 172.401139 143.055292 
L 167.343856 142.250068 
L 162.258417 141.647725 
L 157.152959 141.249227 
L 152.035649 141.055212 
L 146.914674 141.06599 
L 141.798226 141.281543 
L 136.694491 141.701528 
L 131.611633 142.325272 
L 126.203962 143.217445 
L 128.001641 148.012531 
L 129.989636 152.731893 
L 132.164764 157.367982 
L 134.523547 161.913381 
L 137.06221 166.360817 
L 139.776692 170.703177 
L 142.662652 174.933512 
L 145.715471 179.045057 
L 148.930266 183.031232 
L 152.301894 186.885661 
L 155.824961 190.602178 
L 159.493832 194.174838 
L 163.302635 197.597923 
L 167.245279 200.865959 
L 171.315456 203.973718 
L 175.506655 206.916226 
L 179.81217 209.688778 
L 184.225113 212.286937 
L 188.738425 214.706548 
L 193.344886 216.943738 
L 198.037126 218.99493 
L 202.807638 220.856842 
L 207.648791 222.526495 
L 212.55284 224.001217 
L 217.511939 225.27865 
L 222.518155 226.356751 
L 227.56348 227.233794 
L 232.639841 227.908376 
L 237.739117 228.379418 
L 242.853151 228.646167 
L 247.973762 228.708195 
L 253.092758 228.565405 
L 258.201948 228.218023 
L 263.29316 227.666606 
L 268.358249 226.912035 
L 273.389112 225.955519 
L 278.3777 224.798587 
L 283.316032 223.443091 
L 288.19621 221.891197 
L 293.010424 220.145391 
L 297.750974 218.208463 
L 302.410275 216.083513 
L 306.980875 213.773941 
L 311.45546 211.283441 
L 315.826872 208.615997 
L 320.088118 205.775877 
L 324.232382 202.767624 
L 328.253032 199.596052 
L 332.143637 196.266233 
L 335.897973 192.783495 
L 339.510034 189.153409 
L 342.97404 185.381784 
L 346.284451 181.474652 
L 349.43597 177.438263 
L 352.423556 173.279077 
L 355.242429 169.003746 
L 357.88808 164.61911 
L 358.179182 164.111423 
L 353.058752 164.186902 
L 347.945436 164.467082 
L 342.847414 164.951517 
L 337.772843 165.639431 
L 332.72984 166.529723 
L 327.726472 167.620969 
L 322.770746 168.911424 
L 317.870587 170.399023 
L 313.033837 172.081386 
L 308.268231 173.955822 
L 303.581396 176.019332 
L 298.980827 178.268614 
L 294.473886 180.700071 
L 290.067783 183.309813 
L 286.101596 185.869821 
L 288.789422 190.228731 
L 291.649408 194.476669 
L 294.676978 198.606841 
L 297.86729 202.612638 
L 301.215239 206.487653 
L 304.715469 210.225686 
L 308.362381 213.820757 
L 312.15014 217.267115 
L 316.072687 220.559246 
L 320.123747 223.691884 
L 324.296838 226.660016 
L 328.585285 229.458896 
L 331.46924 231.207554 
L 329.228622 229.968033 
L 324.675271 227.62464 
L 320.03185 225.465206 
L 315.30579 223.493188 
L 310.504651 221.711739 
L 305.636113 220.123709 
L 300.707965 218.731639 
L 295.728091 217.537756 
L 290.704457 216.54397 
L 285.645102 215.75187 
L 280.558117 215.162724 
L 275.451643 214.777475 
L 270.333847 214.596738 
L 268.073452 214.582106 
L 267.017813 219.593107 
L 266.163405 224.642314 
L 265.511595 229.721649 
L 265.063426 234.822987 
L 264.819614 239.938166 
L 264.780549 245.059003 
L 264.946295 250.177307 
L 265.316586 255.284888 
L 265.890829 260.373576 
L 266.668107 265.43523 
L 267.647174 270.461753 
L 268.826466 275.445102 
L 270.204096 280.377306 
L 271.832347 285.408 
L 273.412453 280.536884 
L 274.796503 275.606478 
L 275.982281 270.624668 
L 276.967892 265.599424 
L 277.751758 260.538786 
L 278.332626 255.45085 
L 278.709566 250.343755 
L 278.881975 245.225672 
L 278.849577 240.104788 
L 278.612425 234.989296 
L 278.170897 229.887379 
L 277.5257 224.8072 
L 276.677866 219.756885 
L 275.628752 214.744514 
L 274.380035 209.778106 
L 274.134329 208.890046 
L 279.194921 209.674206 
L 284.282824 210.255369 
L 289.389897 210.632605 
L 294.50797 210.805311 
L 299.628856 210.773211 
L 304.744362 210.536355 
L 309.846304 210.095123 
L 314.926521 209.450221 
L 319.976885 208.602681 
L 324.989317 207.553857 
L 329.955797 206.305429 
L 334.868381 204.859393 
L 339.71921 203.218062 
L 344.500522 201.384064 
L 349.20467 199.36033 
L 350.090969 198.953773 
L 349.53025 193.863577 
L 348.766426 188.799875 
L 347.800718 183.770769 
L 346.634673 178.784303 
L 345.270155 173.848456 
L 343.709347 168.971122 
L 341.954746 164.160106 
L 340.00916 159.423103 
L 337.8757 154.767692 
L 335.557779 150.201321 
L 333.059107 145.731294 
L 330.38368 141.364763 
L 327.535779 137.108714 
L 324.519959 132.969954 
L 321.341045 128.955106 
L 318.004122 125.070591 
L 314.51453 121.322626 
L 310.87785 117.717204 
L 307.099901 114.260096 
L 303.186726 110.95683 
L 299.144586 107.812691 
L 294.979948 104.83271 
L 290.699473 102.021654 
L 286.31001 99.38402 
L 281.81858 96.924027 
L 277.23237 94.645611 
L 272.558716 92.552417 
L 267.805095 90.647794 
L 262.979112 88.934789 
L 258.088487 87.416141 
L 253.141045 86.094281 
L 248.144699 84.971324 
L 243.107444 84.049065 
L 238.037337 83.32898 
L 232.942491 82.812222 
L 227.831055 82.499616 
L 222.711206 82.391664 
L 217.591136 82.488537 
L 212.479035 82.790081 
L 207.383082 83.295813 
L 202.31143 84.004924 
L 197.27219 84.91628 
L 192.273427 86.028423 
L 187.323135 87.339574 
L 182.429235 88.847635 
L 177.599556 90.550193 
L 172.841825 92.444525 
L 168.163652 94.5276 
L 163.572523 96.796086 
L 159.07578 99.246354 
L 154.68062 101.874483 
L 150.394072 104.67627 
L 147.122882 106.984813 
L 146.680001 112.086612 
L 146.441491 117.202041 
L 146.407735 122.322916 
L 146.578787 127.441045 
L 146.954372 132.54824 
L 147.53389 137.63633 
L 148.316414 142.697176 
L 149.300691 147.722681 
L 150.485149 152.704805 
L 151.86789 157.635579 
L 153.446704 162.507113 
L 155.219064 167.311615 
L 157.182135 172.041399 
L 159.332777 176.688897 
L 161.66755 181.246675 
L 164.182717 185.707442 
L 166.874255 190.06406 
L 169.737859 194.309561 
L 172.768946 198.437152 
L 175.962669 202.44023 
L 179.313918 206.312391 
L 182.817331 210.047441 
L 186.467304 213.639405 
L 190.257998 217.082534 
L 194.183348 220.371323 
L 198.237074 223.500509 
L 202.412692 226.465085 
L 206.703522 229.260311 
L 211.102698 231.881713 
L 215.603184 234.325098 
L 220.197779 236.586557 
L 224.879133 238.662472 
L 229.639757 240.549523 
L 234.472035 242.24469 
L 239.368236 243.745262 
L 244.320528 245.048837 
L 249.320988 246.153331 
L 254.361615 247.056976 
L 259.434347 247.758327 
L 264.531068 248.256262 
L 269.643624 248.549985 
L 274.763836 248.639024 
L 279.883513 248.523239 
L 284.994465 248.202813 
L 290.088515 247.678261 
L 295.157514 246.95042 
L 300.193353 246.020455 
L 305.187974 244.889855 
L 310.133389 243.560427 
L 315.021684 242.034299 
L 319.845041 240.313912 
L 324.595743 238.402019 
L 328.254381 236.775852 
L 327.693662 231.685656 
L 326.929838 226.621955 
L 325.964131 221.592848 
L 324.798085 216.606383 
L 323.433567 211.670535 
L 321.872759 206.793202 
L 320.118159 201.982185 
L 318.172572 197.245183 
L 316.039112 192.589772 
L 313.721192 188.0234 
L 311.22252 183.553373 
L 308.547093 179.186843 
L 305.699191 174.930793 
L 302.683371 170.792033 
L 299.504457 166.777185 
L 296.167535 162.892671 
L 292.677942 159.144705 
L 289.041263 155.539284 
L 285.263313 152.082175 
L 281.350139 148.778909 
L 279.578824 147.369105 
L 278.408687 142.383598 
L 277.040118 137.448872 
L 275.475308 132.572821 
L 273.71676 127.763247 
L 271.767286 123.027842 
L 269.630006 118.374184 
L 267.308339 113.809716 
L 264.806 109.341742 
L 262.12699 104.977408 
L 259.275596 100.723697 
L 256.256381 96.587414 
L 253.074173 92.575176 
L 249.734064 88.693401 
L 246.241397 84.948301 
L 242.601759 81.345865 
L 238.820974 77.891858 
L 234.90509 74.591804 
L 230.860371 71.450984 
L 226.693288 68.474422 
L 222.410508 65.66688 
L 219.080783 63.648 
L 214.714605 66.324004 
L 210.458932 69.172467 
L 206.320571 72.188834 
L 202.306142 75.368279 
L 198.422069 78.705714 
L 194.674564 82.195802 
L 191.069623 85.832957 
L 187.613014 89.611363 
L 184.310265 93.524974 
L 181.16666 97.567529 
L 178.187229 101.732562 
L 175.376739 106.013408 
L 172.739684 110.403219 
L 170.280285 114.894974 
L 168.002475 119.481485 
L 165.909898 124.155415 
L 164.005903 128.909288 
L 162.293535 133.735497 
L 160.775534 138.626323 
L 159.454327 143.57394 
L 158.33203 148.570433 
L 157.410436 153.607811 
L 156.691021 158.678012 
L 156.174936 163.772927 
L 155.863006 168.884404 
L 155.755729 174.004267 
L 155.853279 179.124324 
L 156.155498 184.236385 
L 156.661903 189.332271 
L 157.371685 194.40383 
L 158.283706 199.442949 
L 159.39651 204.441566 
L 160.708314 209.391684 
L 162.217021 214.285385 
L 163.920218 219.114839 
L 165.815178 223.87232 
L 167.898871 228.550217 
L 170.167964 233.141047 
L 172.618825 237.637466 
L 175.247535 242.032279 
L 178.049888 246.318457 
L 181.021401 250.489142 
L 184.15732 254.537662 
L 187.452628 258.457541 
L 190.902053 262.242506 
L 194.500078 265.886504 
L 198.240946 269.383705 
L 202.118672 272.728513 
L 206.127053 275.915578 
L 210.259676 278.939802 
L 214.50993 281.796345 
L 218.871016 284.480639 
L 220.473861 285.408 
L 224.873314 282.787061 
L 229.164437 279.992288 
L 233.340368 277.028151 
L 237.394424 273.899392 
L 241.32012 270.611017 
L 245.111176 267.168286 
L 248.761527 263.576707 
L 252.265334 259.842026 
L 255.61699 255.970218 
L 258.811134 251.967476 
L 261.842657 247.840204 
L 264.706707 243.595005 
L 267.398705 239.23867 
L 269.914341 234.778168 
L 272.249593 230.220636 
L 274.400725 225.573364 
L 276.364294 220.843787 
L 278.13716 216.039472 
L 279.716487 211.168104 
L 281.099748 206.237476 
L 282.284729 201.255476 
L 283.269536 196.230075 
L 283.710324 193.548161 
L 286.55403 189.289307 
L 289.225152 184.920141 
L 291.719418 180.447654 
L 294.032836 175.879001 
L 296.161707 171.221489 
L 298.102624 166.482571 
L 299.852483 161.669828 
L 301.408483 156.790959 
L 302.768136 151.853769 
L 303.929266 146.866157 
L 304.890017 141.836101 
L 305.64885 136.771649 
L 306.204552 131.680903 
L 306.556234 126.572006 
L 306.703334 121.453133 
L 306.645615 116.332472 
L 306.383171 111.218215 
L 305.916421 106.118544 
L 305.246112 101.041617 
L 304.373316 95.995556 
L 303.29943 90.988434 
L 302.026171 86.028261 
L 300.555577 81.122973 
L 298.89 76.280416 
L 297.032104 71.508338 
L 294.984862 66.814374 
L 293.474921 63.648 
L 291.29985 68.284116 
L 289.311915 73.003503 
L 287.514294 77.798611 
L 285.909865 82.661769 
L 284.501194 87.585198 
L 283.290534 92.56102 
L 282.279822 97.581275 
L 281.470675 102.637932 
L 280.864388 107.722902 
L 280.461931 112.82805 
L 280.263947 117.945207 
L 280.270752 123.066189 
L 280.482338 128.182803 
L 280.898363 133.286862 
L 281.518165 138.370203 
L 282.340749 143.424691 
L 283.364801 148.442242 
L 284.588683 153.414829 
L 286.010436 158.334495 
L 287.627786 163.193372 
L 289.438146 167.983685 
L 291.438619 172.697771 
L 293.626005 177.328089 
L 295.996805 181.867231 
L 298.547225 186.307936 
L 301.273186 190.643099 
L 304.170327 194.865785 
L 307.234013 198.969238 
L 310.459343 202.946894 
L 313.841157 206.79239 
L 317.374044 210.499573 
L 321.052354 214.062514 
L 324.8702 217.475511 
L 328.821476 220.733105 
L 332.899861 223.830084 
L 334.903164 225.259823 
L 334.32247 224.990368 
L 329.629903 222.939925 
L 324.859094 221.078774 
L 320.017675 219.409893 
L 315.113391 217.935952 
L 310.154088 216.65931 
L 305.1477 215.582007 
L 300.102236 214.705769 
L 295.025767 214.031996 
L 289.926416 213.561767 
L 284.812339 213.295833 
L 279.691719 213.234621 
L 274.572746 213.378228 
L 269.077536 213.761094 
L 267.831956 218.72829 
L 266.786007 223.741322 
L 265.941363 228.792172 
L 265.299375 233.872758 
L 264.861069 238.974952 
L 264.627147 244.090593 
L 264.597984 249.211497 
L 264.773625 254.32947 
L 265.15379 259.436326 
L 265.737871 264.523894 
L 266.524933 269.584036 
L 267.513717 274.608656 
L 268.702642 279.589716 
L 270.089805 284.519248 
L 270.362719 285.408 
L 271.785641 280.488671 
L 273.010704 275.516376 
L 274.035948 270.499068 
L 274.859733 265.444775 
L 275.480742 260.361582 
L 275.89798 255.257621 
L 276.11078 250.141058 
L 276.118803 245.020078 
L 275.922034 239.902873 
L 275.520789 234.797631 
L 274.91571 229.712517 
L 274.107764 224.655667 
L 273.098245 219.635172 
L 271.888767 214.659063 
L 271.13692 211.936755 
L 275.985463 213.584825 
L 280.896033 215.037687 
L 285.860773 216.293016 
L 290.871742 217.348804 
L 295.920924 218.203363 
L 301.000239 218.855325 
L 306.101564 219.303646 
L 311.216736 219.547611 
L 316.337572 219.586828 
L 321.45588 219.421235 
L 326.563473 219.051097 
L 331.652178 218.477005 
L 336.713855 217.699879 
L 339.574799 217.168313 
L 337.825904 212.35522 
L 335.885935 207.615914 
L 333.757996 202.957977 
L 331.445492 198.38886 
L 328.952121 193.915874 
L 326.281873 189.546174 
L 323.43902 185.286751 
L 320.428109 181.144419 
L 317.253957 177.125804 
L 313.921642 173.237336 
L 310.436496 169.485236 
L 306.804094 165.875505 
L 303.030246 162.41392 
L 299.120991 159.106016 
L 295.082581 155.957088 
L 290.921479 152.972171 
L 286.64434 150.156042 
L 282.258007 147.513205 
L 278.193589 145.270911 
L 277.421528 140.208459 
L 276.44764 135.180931 
L 275.273483 130.196369 
L 273.900937 125.262747 
L 272.332196 120.38796 
L 270.56977 115.579805 
L 268.616479 110.845973 
L 266.475448 106.19404 
L 264.150102 101.631445 
L 261.64416 97.16549 
L 258.961633 92.803317 
L 256.106811 88.551907 
L 253.084261 84.418059 
L 249.898819 80.408388 
L 246.555582 76.529308 
L 243.059896 72.787024 
L 239.417355 69.187525 
L 235.633787 65.736567 
L 233.188578 63.648 
L 229.319533 67.002846 
L 225.587741 70.509729 
L 221.999172 74.163039 
L 218.559567 77.956932 
L 215.274428 81.885337 
L 212.149011 85.94197 
L 209.188317 90.120342 
L 206.397081 94.413767 
L 203.779769 98.815378 
L 201.340568 103.318133 
L 199.08338 107.914828 
L 197.011817 112.59811 
L 195.129192 117.360486 
L 193.438517 122.194337 
L 191.942497 127.091931 
L 190.643525 132.045432 
L 189.543679 137.046916 
L 188.64472 142.088382 
L 187.948084 147.161763 
L 187.454886 152.258944 
L 187.165916 157.371771 
L 187.099806 159.834559 
L 184.445971 164.214247 
L 181.969399 168.696556 
L 179.674053 173.274316 
L 177.563605 177.940204 
L 175.64143 182.686755 
L 173.910605 187.506376 
L 172.373897 192.391356 
L 171.033766 197.333881 
L 169.892355 202.326043 
L 168.95149 207.359856 
L 168.212677 212.427267 
L 167.677097 217.52017 
L 167.345607 222.630416 
L 167.218738 227.749831 
L 167.296692 232.870224 
L 167.579345 237.983404 
L 168.066245 243.081191 
L 168.756612 248.155429 
L 169.649342 253.198001 
L 170.743007 258.20084 
L 172.035858 263.155943 
L 173.525826 268.055381 
L 175.210527 272.891318 
L 177.087267 277.656016 
L 179.153042 282.341854 
L 180.628536 285.408 
L 182.818105 280.778714 
L 184.820801 276.065571 
L 186.633419 271.276112 
L 188.25306 266.417999 
L 189.677132 261.499003 
L 190.903358 256.526994 
L 191.929776 251.509927 
L 192.754744 246.455826 
L 193.376942 241.372779 
L 193.795374 236.268916 
L 194.009372 231.152403 
L 194.018592 226.031425 
L 193.823021 220.914174 
L 193.42297 215.808838 
L 192.819081 210.723583 
L 192.012319 205.666544 
L 191.003974 200.645813 
L 190.138455 196.996139 
L 186.915054 193.01692 
L 183.535105 189.169785 
L 180.004016 185.460889 
L 176.327434 181.896166 
L 172.511242 178.481319 
L 168.561546 175.22181 
L 164.484663 172.122854 
L 160.287116 169.189408 
L 155.975621 166.426166 
L 151.557073 163.837548 
L 147.038543 161.427696 
L 142.427259 159.200464 
L 137.730598 157.159416 
L 132.956074 155.307817 
L 128.111324 153.648629 
L 123.2041 152.184507 
L 121.319061 151.67834 
L 124.986584 155.252383 
L 128.794096 158.676906 
L 132.735507 161.946429 
L 136.804511 165.055723 
L 140.994599 167.999812 
L 145.299067 170.773988 
L 149.71103 173.373812 
L 154.223429 175.795125 
L 158.829046 178.034053 
L 163.520511 180.087015 
L 168.290321 181.950726 
L 173.130844 183.622205 
L 178.034336 185.098778 
L 182.992953 186.378082 
L 186.529756 187.162824 
L 182.689107 190.550141 
L 178.986986 194.088332 
L 175.429316 197.771739 
L 172.021789 201.594469 
L 168.769856 205.550405 
L 165.678719 209.63322 
L 162.753324 213.836382 
L 159.998351 218.153166 
L 157.418207 222.576666 
L 155.017019 227.099807 
L 152.79863 231.715351 
L 150.766587 236.415915 
L 148.924142 241.19398 
L 148.0513 243.679255 
L 153.093054 244.576594 
L 158.166659 245.271599 
L 163.263999 245.763158 
L 168.376918 246.050485 
L 173.497238 246.13312 
L 178.616766 246.01093 
L 183.727313 245.684112 
L 188.820703 245.153188 
L 193.888788 244.419007 
L 198.923459 243.482744 
L 203.916662 242.345896 
L 208.86041 241.010284 
L 213.746793 239.478042 
L 218.567994 237.751623 
L 223.3163 235.833788 
L 227.984115 233.727606 
L 232.563972 231.436445 
L 237.048543 228.963972 
L 241.430654 226.314142 
L 243.044876 225.276383 
L 247.953252 226.736638 
L 252.916097 227.999443 
L 257.92547 229.062777 
L 262.973359 229.924938 
L 268.051687 230.584549 
L 273.15233 231.040552 
L 278.267129 231.29222 
L 283.3879 231.339149 
L 288.506452 231.181264 
L 293.614596 230.818818 
L 298.70416 230.252391 
L 303.767002 229.482888 
L 308.795022 228.511542 
L 313.780177 227.339905 
L 318.714491 225.969852 
L 323.590071 224.403575 
L 328.399117 222.64358 
L 333.133935 220.692682 
L 337.78695 218.554003 
L 339.166159 217.876099 
L 338.753039 212.771804 
L 338.136132 207.688111 
L 337.316425 202.633155 
L 336.29523 197.615022 
L 335.074179 192.641739 
L 333.655227 187.721264 
L 332.040644 182.861468 
L 330.233012 178.070125 
L 328.235223 173.3549 
L 326.050473 168.723338 
L 323.682258 164.182846 
L 321.134367 159.740691 
L 318.410874 155.403976 
L 315.516137 151.179642 
L 312.454788 147.074445 
L 309.231723 143.094953 
L 305.852099 139.247533 
L 302.321323 135.538338 
L 298.645043 131.973305 
L 294.82914 128.558135 
L 290.879719 125.298292 
L 286.803098 122.198991 
L 282.605799 119.265191 
L 278.294537 116.501585 
L 273.876209 113.912593 
L 269.357882 111.502359 
L 264.746787 109.274738 
L 260.050298 107.233293 
L 255.27593 105.38129 
L 250.431321 103.721693 
L 245.524221 102.257155 
L 240.56248 100.990021 
L 235.554036 99.922318 
L 230.506901 99.055752 
L 225.429151 98.391712 
L 220.328907 97.931258 
L 215.21433 97.675128 
L 210.093602 97.623732 
L 204.974914 97.777151 
L 199.866456 98.13514 
L 194.776399 98.697127 
L 189.712888 99.462212 
L 184.684022 100.429172 
L 179.697847 101.596459 
L 174.762339 102.962206 
L 169.885395 104.524229 
L 165.074816 106.280027 
L 160.338298 108.226794 
L 155.683418 110.361413 
L 151.117624 112.68047 
L 146.64822 115.180255 
L 142.282355 117.85677 
L 139.969704 119.37448 
L 139.724143 124.489575 
L 139.683328 129.610399 
L 139.847324 134.728759 
L 140.215868 139.836467 
L 140.788372 144.925351 
L 141.563918 149.98727 
L 142.541267 155.014127 
L 143.718855 159.99788 
L 145.094798 164.930555 
L 146.666895 169.804261 
L 148.43263 174.611202 
L 150.389179 179.343687 
L 152.533413 183.994146 
L 154.8619 188.555138 
L 157.370915 193.019367 
L 160.056445 197.379692 
L 162.914193 201.629136 
L 165.939588 205.760902 
L 169.12779 209.768379 
L 172.473697 213.645156 
L 175.971958 217.385032 
L 179.616976 220.982024 
L 183.40292 224.430376 
L 187.323732 227.724573 
L 191.373141 230.859343 
L 195.544669 233.829674 
L 199.831641 236.630811 
L 204.227199 239.258275 
L 208.724312 241.707862 
L 213.315786 243.975653 
L 217.994274 246.05802 
L 222.752292 247.951631 
L 227.582228 249.653458 
L 232.476356 251.160778 
L 237.426846 252.471179 
L 242.425779 253.582565 
L 247.465156 254.493158 
L 252.536916 255.201501 
L 257.632945 255.706462 
L 262.745092 256.007232 
L 267.865176 256.103329 
L 272.985008 255.994602 
L 278.096397 255.681222 
L 283.191166 255.163692 
L 288.261163 254.44284 
L 293.298279 253.519818 
L 298.294454 252.396104 
L 303.241696 251.073495 
L 308.132091 249.554107 
L 312.957815 247.840371 
L 317.711148 245.935028 
L 322.384485 243.841127 
L 324.872836 242.632861 
L 324.459716 237.528565 
L 323.842809 232.444873 
L 323.023102 227.389916 
L 322.001907 222.371783 
L 320.780856 217.398501 
L 319.361904 212.478026 
L 317.747321 207.618229 
L 315.939689 202.826886 
L 313.9419 198.111662 
L 311.757151 193.480099 
L 309.388936 188.939608 
L 306.841044 184.497452 
L 304.117551 180.160738 
L 301.222814 175.936403 
L 298.161465 171.831206 
L 294.9384 167.851714 
L 291.558777 164.004294 
L 288.028 160.2951 
L 284.090546 156.487418 
L 284.517991 151.384302 
L 284.741024 146.268175 
L 284.759288 141.147221 
L 284.572754 136.029633 
L 284.18172 130.923598 
L 283.586812 125.837284 
L 282.788981 120.778829 
L 281.789505 115.756325 
L 280.589981 110.777807 
L 279.192329 105.851239 
L 277.598785 100.984503 
L 275.811898 96.185384 
L 273.834527 91.461561 
L 271.669835 86.82059 
L 269.321285 82.269896 
L 266.792634 77.81676 
L 264.087928 73.468304 
L 261.211494 69.231486 
L 258.167933 65.113083 
L 257.022171 63.648 
L 253.919106 67.721756 
L 250.98143 71.916343 
L 248.213843 76.225051 
L 245.620771 80.640986 
L 243.206364 85.157084 
L 240.974484 89.76612 
L 238.928702 94.460721 
L 237.07229 99.233376 
L 235.408218 104.07645 
L 233.939149 108.982195 
L 232.667432 113.942763 
L 231.595102 118.950219 
L 230.785215 123.597542 
L 228.864835 118.850264 
L 226.756152 114.183579 
L 224.462537 109.604951 
L 221.987661 105.121705 
L 219.335482 100.741015 
L 216.510244 96.469887 
L 213.516466 92.315155 
L 210.358938 88.283466 
L 207.042711 84.381269 
L 203.57309 80.614807 
L 199.955627 76.990106 
L 196.196108 73.512964 
L 192.300547 70.188944 
L 188.275177 67.023364 
L 184.126437 64.021288 
L 183.585264 63.648 
L 179.421164 66.628734 
L 175.379592 69.773603 
L 171.467014 73.077576 
L 167.68969 76.535367 
L 164.053662 80.141446 
L 160.257578 84.234852 
L 158.738007 89.12519 
L 157.415214 94.072383 
L 156.291313 99.068516 
L 155.368104 104.105598 
L 154.647062 109.175568 
L 154.129342 114.270317 
L 153.815772 119.381694 
L 153.706853 124.501522 
L 153.80276 129.62161 
L 154.103339 134.733768 
L 154.608109 139.829816 
L 155.316264 144.901603 
L 156.226669 149.941014 
L 157.337868 154.939988 
L 158.648085 159.890527 
L 160.155222 164.784711 
L 161.856868 169.614711 
L 163.750302 174.3728 
L 165.832495 179.051365 
L 168.100114 183.642923 
L 170.549533 188.140128 
L 173.176833 192.535784 
L 175.977811 196.822861 
L 178.947985 200.994499 
L 182.082605 205.044025 
L 185.376655 208.96496 
L 188.824866 212.751033 
L 192.421722 216.396185 
L 196.161467 219.894585 
L 200.03812 223.240638 
L 204.045478 226.428989 
L 208.177131 229.454538 
L 212.426468 232.312444 
L 216.786693 234.998137 
L 221.250829 237.507319 
L 225.811734 239.835976 
L 230.462113 241.980383 
L 235.194525 243.937109 
L 240.0014 245.703024 
L 244.875047 247.275302 
L 249.807671 248.651429 
L 254.79138 249.829203 
L 259.8182 250.80674 
L 264.880091 251.582475 
L 269.968954 252.155168 
L 275.076647 252.523903 
L 280.195001 252.68809 
L 285.315826 252.647466 
L 290.430931 252.402096 
L 295.532132 251.952373 
L 300.611268 251.299015 
L 305.660214 250.443069 
L 310.670893 249.385904 
L 315.635289 248.129211 
L 320.545459 246.675 
L 323.006999 245.864585 
L 323.006999 245.864585 
" style="fill:none;stroke:#1f77b4;stroke-linecap:square;stroke-width:1.5;"/>
   </g>
   <g id="patch_4">
    <path d="M 82.520165 307.584 
L 82.520165 41.472 
" style="fill:none;stroke:#000000;stroke-linecap:square;stroke-linejoin:miter;stroke-width:0.8;"/>
   </g>
   <g id="patch_5">
    <path d="M 389.799835 307.584 
L 389.799835 41.472 
" style="fill:none;stroke:#000000;stroke-linecap:square;stroke-linejoin:miter;stroke-width:0.8;"/>
   </g>
   <g id="patch_6">
    <path d="M 82.520165 307.584 
L 389.799835 307.584 
" style="fill:none;stroke:#000000;stroke-linecap:square;stroke-linejoin:miter;stroke-width:0.8;"/>
   </g>
   <g id="patch_7">
    <path d="M 82.520165 41.472 
L 389.799835 41.472 
" style="fill:none;stroke:#000000;stroke-linecap:square;stroke-linejoin:miter;stroke-width:0.8;"/>
   </g>
   <g id="PathCollection_1">
    <defs>
     <path d="M 0 2.236068 
C 0.593012 2.236068 1.161816 2.000462 1.581139 1.581139 
C 2.000462 1.161816 2.236068 0.593012 2.236068 0 
C 2.236068 -0.593012 2.000462 -1.161816 1.581139 -1.581139 
C 1.161816 -2.000462 0.593012 -2.236068 0 -2.236068 
C -0.593012 -2.236068 -1.161816 -2.000462 -1.581139 -1.581139 
C -2.000462 -1.161816 -2.236068 -0.593012 -2.236068 0 
C -2.236068 0.593012 -2.000462 1.161816 -1.581139 1.581139 
C -1.161816 2.000462 -0.593012 2.236068 0 2.236068 
z
" id="m50fc656877" style="stroke:#000000;"/>
    </defs>
    <g clip-path="url(#p1d469c0c50)">
     <use style="stroke:#000000;" x="323.006999" xlink:href="#m50fc656877" y="245.864585"/>
    </g>
   </g>
   <g id="Quiver_1">
    <path clip-path="url(#p1d469c0c50)" d="M 322.404138 245.983922 
L 321.091431 239.352447 
L 320.005045 240.193982 
L 320.62026 233.807357 
L 323.622214 239.47796 
L 322.297154 239.113773 
L 323.60986 245.745248 
L 322.404138 245.983922 
"/>
   </g>
  </g>
 </g>
 <defs>
  <clipPath id="p1d469c0c50">
   <rect height="266.112" width="307.27967" x="82.520165" y="41.472"/>
  </clipPath>
 </defs>
</svg>
