<?xml version="1.0" encoding="utf-8" standalone="no"?>
<!DOCTYPE svg PUBLIC "-//W3C//DTD SVG 1.1//EN"
  "http://www.w3.org/Graphics/SVG/1.1/DTD/svg11.dtd">
<!-- Created with matplotlib (https://matplotlib.org/) -->
<svg height="345.6pt" version="1.1" viewBox="0 0 460.8 345.6" width="460.8pt" xmlns="http://www.w3.org/2000/svg" xmlns:xlink="http://www.w3.org/1999/xlink">
 <defs>
  <style type="text/css">
*{stroke-linecap:butt;stroke-linejoin:round;}
  </style>
 </defs>
 <g id="figure_1">
  <g id="patch_1">
   <path d="M 0 345.6 
L 460.8 345.6 
L 460.8 0 
L 0 0 
z
" style="fill:#ffffff;"/>
  </g>
  <g id="axes_1">
   <g id="patch_2">
    <path d="M 82.520165 307.584 
L 389.799835 307.584 
L 389.799835 41.472 
L 82.520165 41.472 
z
" style="fill:#ffffff;"/>
   </g>
   <g id="PathCollection_1">
    <defs>
     <path d="M 0 2.236068 
C 0.593012 2.236068 1.161816 2.000462 1.581139 1.581139 
C 2.000462 1.161816 2.236068 0.593012 2.236068 0 
C 2.236068 -0.593012 2.000462 -1.161816 1.581139 -1.581139 
C 1.161816 -2.000462 0.593012 -2.236068 0 -2.236068 
C -0.593012 -2.236068 -1.161816 -2.000462 -1.581139 -1.581139 
C -2.000462 -1.161816 -2.236068 -0.593012 -2.236068 0 
C -2.236068 0.593012 -2.000462 1.161816 -1.581139 1.581139 
C -1.161816 2.000462 -0.593012 2.236068 0 2.236068 
z
" id="m165f8dc2bd" style="stroke:#000000;"/>
    </defs>
    <g clip-path="url(#pdc66fc002e)">
     <use style="stroke:#000000;" x="324.461147" xlink:href="#m165f8dc2bd" y="243.345926"/>
    </g>
   </g>
   <g id="Quiver_1">
    <path clip-path="url(#pdc66fc002e)" d="M 324.455072 243.960456 
L 317.695249 243.893625 
L 318.297628 245.128759 
L 312.170561 243.224416 
L 318.334081 241.441583 
L 317.707401 242.664566 
L 324.467223 242.731397 
L 324.455072 243.960456 
"/>
   </g>
   <g id="patch_3">
    <path clip-path="url(#pdc66fc002e)" d="M 236.16 225.741278 
C 249.74192 225.741278 262.769389 220.345124 272.373256 210.741256 
C 281.977124 201.137389 287.373278 188.10992 287.373278 174.528 
C 287.373278 160.94608 281.977124 147.918611 272.373256 138.314744 
C 262.769389 128.710876 249.74192 123.314722 236.16 123.314722 
C 222.57808 123.314722 209.550611 128.710876 199.946744 138.314744 
C 190.342876 147.918611 184.946722 160.94608 184.946722 174.528 
C 184.946722 188.10992 190.342876 201.137389 199.946744 210.741256 
C 209.550611 220.345124 222.57808 225.741278 236.16 225.741278 
z
" style="fill:#009900;fill-opacity:0.5;stroke:#009900;stroke-linejoin:miter;stroke-width:2;"/>
   </g>
   <g id="matplotlib.axis_1">
    <g id="xtick_1">
     <g id="line2d_1">
      <defs>
       <path d="M 0 0 
L 0 3.5 
" id="me4c5ba80fa" style="stroke:#000000;stroke-width:0.8;"/>
      </defs>
      <g>
       <use style="stroke:#000000;stroke-width:0.8;" x="108.126804" xlink:href="#me4c5ba80fa" y="307.584"/>
      </g>
     </g>
     <g id="text_1">
      <!-- −2 -->
      <defs>
       <path d="M 10.59375 35.5 
L 73.1875 35.5 
L 73.1875 27.203125 
L 10.59375 27.203125 
z
" id="DejaVuSans-8722"/>
       <path d="M 19.1875 8.296875 
L 53.609375 8.296875 
L 53.609375 0 
L 7.328125 0 
L 7.328125 8.296875 
Q 12.9375 14.109375 22.625 23.890625 
Q 32.328125 33.6875 34.8125 36.53125 
Q 39.546875 41.84375 41.421875 45.53125 
Q 43.3125 49.21875 43.3125 52.78125 
Q 43.3125 58.59375 39.234375 62.25 
Q 35.15625 65.921875 28.609375 65.921875 
Q 23.96875 65.921875 18.8125 64.3125 
Q 13.671875 62.703125 7.8125 59.421875 
L 7.8125 69.390625 
Q 13.765625 71.78125 18.9375 73 
Q 24.125 74.21875 28.421875 74.21875 
Q 39.75 74.21875 46.484375 68.546875 
Q 53.21875 62.890625 53.21875 53.421875 
Q 53.21875 48.921875 51.53125 44.890625 
Q 49.859375 40.875 45.40625 35.40625 
Q 44.1875 33.984375 37.640625 27.21875 
Q 31.109375 20.453125 19.1875 8.296875 
z
" id="DejaVuSans-50"/>
      </defs>
      <g transform="translate(100.755711 322.182437)scale(0.1 -0.1)">
       <use xlink:href="#DejaVuSans-8722"/>
       <use x="83.789062" xlink:href="#DejaVuSans-50"/>
      </g>
     </g>
    </g>
    <g id="xtick_2">
     <g id="line2d_2">
      <g>
       <use style="stroke:#000000;stroke-width:0.8;" x="172.143402" xlink:href="#me4c5ba80fa" y="307.584"/>
      </g>
     </g>
     <g id="text_2">
      <!-- −1 -->
      <defs>
       <path d="M 12.40625 8.296875 
L 28.515625 8.296875 
L 28.515625 63.921875 
L 10.984375 60.40625 
L 10.984375 69.390625 
L 28.421875 72.90625 
L 38.28125 72.90625 
L 38.28125 8.296875 
L 54.390625 8.296875 
L 54.390625 0 
L 12.40625 0 
z
" id="DejaVuSans-49"/>
      </defs>
      <g transform="translate(164.772308 322.182437)scale(0.1 -0.1)">
       <use xlink:href="#DejaVuSans-8722"/>
       <use x="83.789062" xlink:href="#DejaVuSans-49"/>
      </g>
     </g>
    </g>
    <g id="xtick_3">
     <g id="line2d_3">
      <g>
       <use style="stroke:#000000;stroke-width:0.8;" x="236.16" xlink:href="#me4c5ba80fa" y="307.584"/>
      </g>
     </g>
     <g id="text_3">
      <!-- 0 -->
      <defs>
       <path d="M 31.78125 66.40625 
Q 24.171875 66.40625 20.328125 58.90625 
Q 16.5 51.421875 16.5 36.375 
Q 16.5 21.390625 20.328125 13.890625 
Q 24.171875 6.390625 31.78125 6.390625 
Q 39.453125 6.390625 43.28125 13.890625 
Q 47.125 21.390625 47.125 36.375 
Q 47.125 51.421875 43.28125 58.90625 
Q 39.453125 66.40625 31.78125 66.40625 
z
M 31.78125 74.21875 
Q 44.046875 74.21875 50.515625 64.515625 
Q 56.984375 54.828125 56.984375 36.375 
Q 56.984375 17.96875 50.515625 8.265625 
Q 44.046875 -1.421875 31.78125 -1.421875 
Q 19.53125 -1.421875 13.0625 8.265625 
Q 6.59375 17.96875 6.59375 36.375 
Q 6.59375 54.828125 13.0625 64.515625 
Q 19.53125 74.21875 31.78125 74.21875 
z
" id="DejaVuSans-48"/>
      </defs>
      <g transform="translate(232.97875 322.182437)scale(0.1 -0.1)">
       <use xlink:href="#DejaVuSans-48"/>
      </g>
     </g>
    </g>
    <g id="xtick_4">
     <g id="line2d_4">
      <g>
       <use style="stroke:#000000;stroke-width:0.8;" x="300.176598" xlink:href="#me4c5ba80fa" y="307.584"/>
      </g>
     </g>
     <g id="text_4">
      <!-- 1 -->
      <g transform="translate(296.995348 322.182437)scale(0.1 -0.1)">
       <use xlink:href="#DejaVuSans-49"/>
      </g>
     </g>
    </g>
    <g id="xtick_5">
     <g id="line2d_5">
      <g>
       <use style="stroke:#000000;stroke-width:0.8;" x="364.193196" xlink:href="#me4c5ba80fa" y="307.584"/>
      </g>
     </g>
     <g id="text_5">
      <!-- 2 -->
      <g transform="translate(361.011946 322.182437)scale(0.1 -0.1)">
       <use xlink:href="#DejaVuSans-50"/>
      </g>
     </g>
    </g>
   </g>
   <g id="matplotlib.axis_2">
    <g id="ytick_1">
     <g id="line2d_6">
      <defs>
       <path d="M 0 0 
L -3.5 0 
" id="m6c272898e0" style="stroke:#000000;stroke-width:0.8;"/>
      </defs>
      <g>
       <use style="stroke:#000000;stroke-width:0.8;" x="82.520165" xlink:href="#m6c272898e0" y="302.561196"/>
      </g>
     </g>
     <g id="text_6">
      <!-- −2.0 -->
      <defs>
       <path d="M 10.6875 12.40625 
L 21 12.40625 
L 21 0 
L 10.6875 0 
z
" id="DejaVuSans-46"/>
      </defs>
      <g transform="translate(51.237353 306.360414)scale(0.1 -0.1)">
       <use xlink:href="#DejaVuSans-8722"/>
       <use x="83.789062" xlink:href="#DejaVuSans-50"/>
       <use x="147.412109" xlink:href="#DejaVuSans-46"/>
       <use x="179.199219" xlink:href="#DejaVuSans-48"/>
      </g>
     </g>
    </g>
    <g id="ytick_2">
     <g id="line2d_7">
      <g>
       <use style="stroke:#000000;stroke-width:0.8;" x="82.520165" xlink:href="#m6c272898e0" y="270.552897"/>
      </g>
     </g>
     <g id="text_7">
      <!-- −1.5 -->
      <defs>
       <path d="M 10.796875 72.90625 
L 49.515625 72.90625 
L 49.515625 64.59375 
L 19.828125 64.59375 
L 19.828125 46.734375 
Q 21.96875 47.46875 24.109375 47.828125 
Q 26.265625 48.1875 28.421875 48.1875 
Q 40.625 48.1875 47.75 41.5 
Q 54.890625 34.8125 54.890625 23.390625 
Q 54.890625 11.625 47.5625 5.09375 
Q 40.234375 -1.421875 26.90625 -1.421875 
Q 22.3125 -1.421875 17.546875 -0.640625 
Q 12.796875 0.140625 7.71875 1.703125 
L 7.71875 11.625 
Q 12.109375 9.234375 16.796875 8.0625 
Q 21.484375 6.890625 26.703125 6.890625 
Q 35.15625 6.890625 40.078125 11.328125 
Q 45.015625 15.765625 45.015625 23.390625 
Q 45.015625 31 40.078125 35.4375 
Q 35.15625 39.890625 26.703125 39.890625 
Q 22.75 39.890625 18.8125 39.015625 
Q 14.890625 38.140625 10.796875 36.28125 
z
" id="DejaVuSans-53"/>
      </defs>
      <g transform="translate(51.237353 274.352116)scale(0.1 -0.1)">
       <use xlink:href="#DejaVuSans-8722"/>
       <use x="83.789062" xlink:href="#DejaVuSans-49"/>
       <use x="147.412109" xlink:href="#DejaVuSans-46"/>
       <use x="179.199219" xlink:href="#DejaVuSans-53"/>
      </g>
     </g>
    </g>
    <g id="ytick_3">
     <g id="line2d_8">
      <g>
       <use style="stroke:#000000;stroke-width:0.8;" x="82.520165" xlink:href="#m6c272898e0" y="238.544598"/>
      </g>
     </g>
     <g id="text_8">
      <!-- −1.0 -->
      <g transform="translate(51.237353 242.343817)scale(0.1 -0.1)">
       <use xlink:href="#DejaVuSans-8722"/>
       <use x="83.789062" xlink:href="#DejaVuSans-49"/>
       <use x="147.412109" xlink:href="#DejaVuSans-46"/>
       <use x="179.199219" xlink:href="#DejaVuSans-48"/>
      </g>
     </g>
    </g>
    <g id="ytick_4">
     <g id="line2d_9">
      <g>
       <use style="stroke:#000000;stroke-width:0.8;" x="82.520165" xlink:href="#m6c272898e0" y="206.536299"/>
      </g>
     </g>
     <g id="text_9">
      <!-- −0.5 -->
      <g transform="translate(51.237353 210.335518)scale(0.1 -0.1)">
       <use xlink:href="#DejaVuSans-8722"/>
       <use x="83.789062" xlink:href="#DejaVuSans-48"/>
       <use x="147.412109" xlink:href="#DejaVuSans-46"/>
       <use x="179.199219" xlink:href="#DejaVuSans-53"/>
      </g>
     </g>
    </g>
    <g id="ytick_5">
     <g id="line2d_10">
      <g>
       <use style="stroke:#000000;stroke-width:0.8;" x="82.520165" xlink:href="#m6c272898e0" y="174.528"/>
      </g>
     </g>
     <g id="text_10">
      <!-- 0.0 -->
      <g transform="translate(59.61704 178.327219)scale(0.1 -0.1)">
       <use xlink:href="#DejaVuSans-48"/>
       <use x="63.623047" xlink:href="#DejaVuSans-46"/>
       <use x="95.410156" xlink:href="#DejaVuSans-48"/>
      </g>
     </g>
    </g>
    <g id="ytick_6">
     <g id="line2d_11">
      <g>
       <use style="stroke:#000000;stroke-width:0.8;" x="82.520165" xlink:href="#m6c272898e0" y="142.519701"/>
      </g>
     </g>
     <g id="text_11">
      <!-- 0.5 -->
      <g transform="translate(59.61704 146.31892)scale(0.1 -0.1)">
       <use xlink:href="#DejaVuSans-48"/>
       <use x="63.623047" xlink:href="#DejaVuSans-46"/>
       <use x="95.410156" xlink:href="#DejaVuSans-53"/>
      </g>
     </g>
    </g>
    <g id="ytick_7">
     <g id="line2d_12">
      <g>
       <use style="stroke:#000000;stroke-width:0.8;" x="82.520165" xlink:href="#m6c272898e0" y="110.511402"/>
      </g>
     </g>
     <g id="text_12">
      <!-- 1.0 -->
      <g transform="translate(59.61704 114.310621)scale(0.1 -0.1)">
       <use xlink:href="#DejaVuSans-49"/>
       <use x="63.623047" xlink:href="#DejaVuSans-46"/>
       <use x="95.410156" xlink:href="#DejaVuSans-48"/>
      </g>
     </g>
    </g>
    <g id="ytick_8">
     <g id="line2d_13">
      <g>
       <use style="stroke:#000000;stroke-width:0.8;" x="82.520165" xlink:href="#m6c272898e0" y="78.503103"/>
      </g>
     </g>
     <g id="text_13">
      <!-- 1.5 -->
      <g transform="translate(59.61704 82.302322)scale(0.1 -0.1)">
       <use xlink:href="#DejaVuSans-49"/>
       <use x="63.623047" xlink:href="#DejaVuSans-46"/>
       <use x="95.410156" xlink:href="#DejaVuSans-53"/>
      </g>
     </g>
    </g>
    <g id="ytick_9">
     <g id="line2d_14">
      <g>
       <use style="stroke:#000000;stroke-width:0.8;" x="82.520165" xlink:href="#m6c272898e0" y="46.494804"/>
      </g>
     </g>
     <g id="text_14">
      <!-- 2.0 -->
      <g transform="translate(59.61704 50.294023)scale(0.1 -0.1)">
       <use xlink:href="#DejaVuSans-50"/>
       <use x="63.623047" xlink:href="#DejaVuSans-46"/>
       <use x="95.410156" xlink:href="#DejaVuSans-48"/>
      </g>
     </g>
    </g>
   </g>
   <g id="line2d_15">
    <path clip-path="url(#pdc66fc002e)" d="M 300.176598 63.648 
L 172.143402 63.648 
" style="fill:none;stroke:#009900;stroke-linecap:square;stroke-width:2;"/>
   </g>
   <g id="line2d_16">
    <path clip-path="url(#pdc66fc002e)" d="M 172.143402 63.648 
L 108.126804 174.528 
" style="fill:none;stroke:#009900;stroke-linecap:square;stroke-width:2;"/>
   </g>
   <g id="line2d_17">
    <path clip-path="url(#pdc66fc002e)" d="M 108.126804 174.528 
L 172.143402 285.408 
" style="fill:none;stroke:#009900;stroke-linecap:square;stroke-width:2;"/>
   </g>
   <g id="line2d_18">
    <path clip-path="url(#pdc66fc002e)" d="M 172.143402 285.408 
L 300.176598 285.408 
" style="fill:none;stroke:#009900;stroke-linecap:square;stroke-width:2;"/>
   </g>
   <g id="line2d_19">
    <path clip-path="url(#pdc66fc002e)" d="M 300.176598 285.408 
L 364.193196 174.528 
" style="fill:none;stroke:#009900;stroke-linecap:square;stroke-width:2;"/>
   </g>
   <g id="line2d_20">
    <path clip-path="url(#pdc66fc002e)" d="M 364.193196 174.528 
L 300.176598 63.648 
" style="fill:none;stroke:#009900;stroke-linecap:square;stroke-width:2;"/>
   </g>
   <g id="line2d_21">
    <path clip-path="url(#pdc66fc002e)" d="M 154.190403 214.513655 
L 154.794122 209.42838 
L 155.194001 204.32303 
L 155.389401 199.205773 
L 155.380009 194.084795 
L 155.16584 188.968289 
L 154.747237 183.86444 
L 154.124869 178.781414 
L 153.299732 173.727341 
L 152.273146 168.710308 
L 151.046753 163.73834 
L 149.622516 158.819392 
L 148.002712 153.961333 
L 146.189934 149.171934 
L 144.18708 144.458859 
L 141.997356 139.829646 
L 139.624265 135.291702 
L 137.071602 130.852286 
L 135.138523 127.742331 
L 140.257666 127.879743 
L 145.378208 127.812335 
L 150.491959 127.540213 
L 155.590738 127.063814 
L 160.666388 126.383899 
L 165.710788 125.501556 
L 170.715869 124.418196 
L 175.673623 123.135553 
L 180.57612 121.655679 
L 185.415516 119.980941 
L 190.184069 118.114018 
L 194.874151 116.057898 
L 199.478259 113.815869 
L 203.989027 111.391518 
L 208.399238 108.788724 
L 212.701838 106.01165 
L 216.889942 103.064739 
L 220.956852 99.952706 
L 224.89606 96.68053 
L 228.701266 93.253445 
L 232.36638 89.676933 
L 235.885541 85.956716 
L 239.253118 82.098747 
L 242.463723 78.109196 
L 245.512221 73.994447 
L 248.393734 69.761081 
L 251.103653 65.415872 
L 252.138607 63.648 
L 254.778657 68.03601 
L 257.59207 72.314937 
L 260.574343 76.477934 
L 263.720707 80.518342 
L 267.026127 84.429698 
L 270.485315 88.205743 
L 274.092738 91.840437 
L 277.842625 95.327965 
L 281.728976 98.662748 
L 285.745574 101.839451 
L 289.885993 104.852992 
L 294.14361 107.69855 
L 298.511613 110.371573 
L 302.983015 112.867784 
L 307.550662 115.183189 
L 312.207247 117.314086 
L 316.94532 119.257064 
L 321.757301 121.009016 
L 326.635493 122.567138 
L 331.572092 123.928938 
L 335.521699 124.867511 
L 334.076276 129.780275 
L 332.828467 134.746912 
L 331.780269 139.759474 
L 330.933358 144.809944 
L 330.28909 149.890241 
L 329.848494 154.992238 
L 329.612277 160.107774 
L 329.580815 165.228664 
L 329.75416 170.346715 
L 330.132033 175.453741 
L 330.713831 180.541571 
L 331.498622 185.602066 
L 332.485151 190.627129 
L 333.67184 195.608722 
L 335.05679 200.538876 
L 336.637787 205.409702 
L 338.412299 210.21341 
L 340.586605 215.415814 
L 335.506022 216.057826 
L 330.455177 216.902494 
L 325.44215 217.948466 
L 320.47496 219.194069 
L 315.561554 220.637311 
L 310.709793 222.275881 
L 305.927437 224.10716 
L 301.222139 226.128217 
L 296.601426 228.335819 
L 292.072689 230.726435 
L 287.643173 233.296239 
L 283.319966 236.041122 
L 279.109983 238.956691 
L 275.019958 242.038282 
L 271.056437 245.280966 
L 267.225758 248.679554 
L 263.534051 252.22861 
L 259.987221 255.922456 
L 256.590943 259.755183 
L 253.350649 263.720659 
L 250.271524 267.812541 
L 247.358494 272.024281 
L 244.616219 276.349142 
L 242.049085 280.780206 
L 239.612267 285.408 
L 237.228247 280.875788 
L 234.664894 276.442536 
L 231.926308 272.115337 
L 229.01687 267.901114 
L 225.941237 263.806608 
L 222.704326 259.83837 
L 219.311318 256.002748 
L 215.76764 252.305878 
L 212.078961 248.753675 
L 208.251182 245.351821 
L 204.290427 242.105758 
L 200.203033 239.02068 
L 195.995538 236.101521 
L 191.674673 233.352953 
L 187.247351 230.779371 
L 182.720654 228.384894 
L 178.101825 226.173352 
L 173.398252 224.148283 
L 168.617461 222.312926 
L 163.767099 220.670218 
L 158.854925 219.222787 
L 153.8888 217.972948 
L 148.876666 216.922701 
L 143.826543 216.073726 
L 138.74651 215.427381 
L 133.644693 214.9847 
L 131.409815 214.855358 
L 133.658139 210.254321 
L 135.720672 205.567055 
L 137.594114 200.801059 
L 139.275469 195.963958 
L 140.762047 191.06349 
L 142.051469 186.107494 
L 143.141673 181.1039 
L 144.030914 176.060711 
L 144.71777 170.985996 
L 145.201142 165.887874 
L 145.480258 160.774499 
L 145.554669 155.654054 
L 145.424258 150.534728 
L 145.089232 145.424712 
L 144.550129 140.332182 
L 143.807809 135.265283 
L 142.863462 130.232122 
L 141.718597 125.240751 
L 140.375047 120.299154 
L 140.05514 119.226501 
L 145.017703 117.962588 
L 149.925753 116.501238 
L 154.771438 114.844786 
L 159.547008 112.995884 
L 164.244821 110.957488 
L 168.857362 108.732861 
L 173.377252 106.325561 
L 177.797261 103.739439 
L 182.110316 100.978633 
L 186.309519 98.047558 
L 190.388151 94.950905 
L 194.339688 91.693627 
L 198.157807 88.280935 
L 201.836402 84.718289 
L 205.369585 81.011388 
L 208.751707 77.166163 
L 211.977354 73.188765 
L 215.041368 69.085556 
L 217.938847 64.863102 
L 218.727586 63.648 
L 221.577104 67.902967 
L 224.594497 72.040581 
L 227.774936 76.054221 
L 231.113334 79.937467 
L 234.60435 83.684107 
L 238.242399 87.288146 
L 242.021662 90.743819 
L 245.936091 94.045598 
L 249.979425 97.188201 
L 254.145196 100.166599 
L 258.426739 102.976029 
L 262.817204 105.611995 
L 267.309567 108.070281 
L 271.896643 110.346954 
L 276.571092 112.438372 
L 281.325436 114.341189 
L 286.15207 116.052361 
L 291.043271 117.56915 
L 295.991216 118.88913 
L 300.987988 120.010189 
L 306.025593 120.930534 
L 311.095973 121.648692 
L 316.191015 122.163515 
L 321.30257 122.474178 
L 326.422459 122.580186 
L 331.542492 122.481367 
L 334.072159 122.356835 
L 331.340349 126.688314 
L 328.783936 131.125572 
L 326.407012 135.66151 
L 324.213377 140.288871 
L 322.206543 145.000252 
L 320.389719 149.788117 
L 318.765811 154.644806 
L 317.337418 159.562549 
L 316.106826 164.533479 
L 315.076001 169.549643 
L 314.246594 174.603017 
L 313.619932 179.685516 
L 313.197017 184.789009 
L 312.978525 189.905332 
L 312.964807 195.0263 
L 313.155883 200.143721 
L 313.551449 205.249407 
L 314.150872 210.33519 
L 314.953192 215.392935 
L 315.957126 220.41455 
L 317.161068 225.392002 
L 318.563093 230.317328 
L 320.160956 235.182647 
L 321.952102 239.980178 
L 323.822828 244.451528 
L 318.744009 245.107353 
L 313.69548 245.965751 
L 308.685315 247.02535 
L 303.72153 248.284454 
L 298.812067 249.74105 
L 293.964779 251.392807 
L 289.187421 253.237083 
L 284.487636 255.270927 
L 279.872942 257.491085 
L 275.350722 259.894005 
L 270.92821 262.475845 
L 266.612482 265.232472 
L 262.410442 268.159477 
L 258.328812 271.252178 
L 254.374122 274.505627 
L 250.552699 277.914619 
L 246.870655 281.4737 
L 243.12263 285.408 
L 239.594919 281.695891 
L 235.921585 278.127822 
L 232.108504 274.709501 
L 228.161777 271.446397 
L 224.087717 268.34373 
L 219.892843 265.406464 
L 215.583865 262.639298 
L 211.167676 260.046658 
L 206.651342 257.632693 
L 202.042088 255.401264 
L 197.347287 253.35594 
L 192.574451 251.499995 
L 187.731214 249.836396 
L 182.825325 248.367807 
L 177.864633 247.096575 
L 172.857072 246.024734 
L 167.810655 245.154001 
L 162.733455 244.485766 
L 157.633593 244.0211 
L 152.519229 243.760746 
L 148.063721 243.700769 
L 150.552672 239.225322 
L 152.860661 234.653923 
L 154.983997 229.993886 
L 156.919282 225.252666 
L 158.663421 220.437847 
L 160.213624 215.557132 
L 161.567411 210.61833 
L 162.722615 205.629342 
L 163.677388 200.598148 
L 164.430204 195.532798 
L 164.979858 190.441396 
L 165.32547 185.332085 
L 165.466488 180.213041 
L 165.402686 175.092452 
L 165.134166 169.97851 
L 164.661357 164.879397 
L 163.985017 159.80327 
L 163.106227 154.75825 
L 162.026392 149.752407 
L 160.747241 144.793751 
L 159.27082 139.890213 
L 157.599491 135.049639 
L 155.735927 130.279771 
L 153.68311 125.588242 
L 151.444324 120.982557 
L 149.023151 116.470083 
L 146.423463 112.05804 
L 145.261523 110.208781 
L 150.380789 110.341496 
L 155.501268 110.269388 
L 160.614767 109.992574 
L 165.713107 109.511496 
L 170.78813 108.826924 
L 175.831719 107.939952 
L 180.835803 106.852 
L 185.792379 105.564808 
L 190.693515 104.080436 
L 195.531373 102.401258 
L 200.298211 100.52996 
L 204.986404 98.469536 
L 209.588452 96.223283 
L 214.096993 93.794794 
L 218.504814 91.187954 
L 222.804864 88.406933 
L 226.990262 85.456181 
L 231.054315 82.340417 
L 234.990519 79.064627 
L 238.792577 75.634051 
L 242.454409 72.054178 
L 245.970154 68.330734 
L 249.334189 64.469675 
L 250.015871 63.648 
L 253.347594 67.536975 
L 256.832168 71.289607 
L 260.464021 74.899891 
L 264.237341 78.362051 
L 268.146092 81.67055 
L 272.184022 84.820094 
L 276.34467 87.805644 
L 280.62138 90.622425 
L 285.00731 93.26593 
L 289.495444 95.73193 
L 294.078601 98.01648 
L 298.749451 100.115925 
L 303.500519 102.026906 
L 308.324206 103.746367 
L 313.212795 105.271557 
L 318.158464 106.600035 
L 323.153303 107.729677 
L 325.938677 108.269231 
L 324.311565 113.124847 
L 322.879928 118.041646 
L 321.646055 123.011763 
L 320.611921 128.027246 
L 319.779179 133.080071 
L 319.149163 138.162155 
L 318.72288 143.265369 
L 318.501013 148.381547 
L 318.483915 153.502504 
L 318.671614 158.62005 
L 319.063811 163.725996 
L 319.659877 168.812174 
L 320.45886 173.870447 
L 321.45948 178.892724 
L 322.660137 183.870969 
L 324.058911 188.797218 
L 325.653563 193.663591 
L 327.441543 198.462302 
L 329.41999 203.185675 
L 331.585738 207.826153 
L 333.935324 212.376312 
L 336.464989 216.828873 
L 338.166389 219.607752 
L 333.04628 219.512956 
L 327.926475 219.622984 
L 322.815166 219.937663 
L 317.72053 220.456487 
L 312.650716 221.178628 
L 307.613835 222.102929 
L 302.617945 223.227913 
L 297.671039 224.551779 
L 292.78103 226.072409 
L 287.955742 227.787372 
L 283.202894 229.693922 
L 278.530089 231.789011 
L 273.944803 234.069287 
L 269.454372 236.531101 
L 265.065979 239.170515 
L 260.786644 241.983307 
L 256.623214 244.964976 
L 252.58235 248.110754 
L 248.670515 251.415606 
L 244.893968 254.874247 
L 241.258751 258.481143 
L 237.770679 262.230523 
L 234.435332 266.11639 
L 231.258046 270.132527 
L 228.243905 274.27251 
L 225.397729 278.529714 
L 222.724073 282.897329 
L 221.293142 285.408 
L 218.718741 280.981154 
L 215.969373 276.660798 
L 213.049436 272.453843 
L 209.963602 268.367019 
L 206.716806 264.406865 
L 203.314244 260.579716 
L 199.761358 256.891695 
L 196.063832 253.348701 
L 192.227582 249.956402 
L 188.258745 246.720226 
L 184.16367 243.64535 
L 179.948909 240.736693 
L 175.621204 237.998908 
L 171.187478 235.436374 
L 166.654824 233.053193 
L 162.030495 230.853175 
L 157.321887 228.839841 
L 152.536533 227.016412 
L 147.68209 225.385804 
L 142.766323 223.950627 
L 137.797096 222.713175 
L 135.678685 222.249258 
L 137.174801 217.351693 
L 138.473869 212.398217 
L 139.573812 207.396755 
L 140.47287 202.355307 
L 141.169604 197.281939 
L 141.662901 192.184767 
L 141.951971 187.071946 
L 142.036351 181.951655 
L 141.915907 176.832085 
L 141.59083 171.721427 
L 141.061642 166.627856 
L 140.329189 161.559522 
L 139.394642 156.524532 
L 138.259497 151.530941 
L 136.92557 146.586738 
L 135.394994 141.699833 
L 133.670218 136.878044 
L 132.114045 132.98088 
L 137.179577 132.229285 
L 142.211 131.275724 
L 147.200267 130.121722 
L 152.139395 128.769127 
L 157.020483 127.2201 
L 161.835722 125.477122 
L 166.577409 123.542979 
L 171.237958 121.420766 
L 175.809913 119.113879 
L 180.28596 116.626008 
L 184.658938 113.961132 
L 188.921852 111.123516 
L 193.067882 108.117698 
L 197.090395 104.948488 
L 200.982955 101.620955 
L 204.739336 98.140423 
L 208.353528 94.51246 
L 211.819749 90.742869 
L 215.132455 86.837682 
L 218.286344 82.803146 
L 221.276373 78.645715 
L 224.097757 74.37204 
L 226.745982 69.988959 
L 229.216813 65.503483 
L 230.17185 63.648 
L 232.569246 68.173152 
L 235.145681 72.598814 
L 237.897035 76.917905 
L 240.818905 81.123518 
L 243.906619 85.208922 
L 247.155234 89.167583 
L 250.559556 92.993168 
L 254.114137 96.679556 
L 257.813291 100.220849 
L 261.6511 103.611384 
L 265.621424 106.845735 
L 269.717912 109.918728 
L 273.93401 112.825448 
L 278.262974 115.561243 
L 282.697877 118.121738 
L 287.231626 120.502835 
L 291.856966 122.700727 
L 296.566499 124.711896 
L 301.35269 126.533125 
L 306.207883 128.161501 
L 311.124309 129.594418 
L 316.094105 130.829585 
L 321.109318 131.865025 
L 326.161927 132.699082 
L 331.243847 133.33042 
L 336.346949 133.758032 
L 340.77303 133.963083 
L 338.43279 138.518056 
L 336.276572 143.16297 
L 334.307827 147.890394 
L 332.529702 152.692766 
L 330.945044 157.562403 
L 329.556386 162.491513 
L 328.365951 167.472213 
L 327.375644 172.496533 
L 326.587047 177.556436 
L 326.001424 182.643827 
L 325.61971 187.750567 
L 325.442517 192.868487 
L 325.470128 197.989399 
L 325.702498 203.105111 
L 326.139257 208.207438 
L 326.779705 213.288218 
L 327.622818 218.339323 
L 328.667246 223.352673 
L 329.91132 228.320246 
L 330.984946 232.046375 
L 326.020533 233.303 
L 321.110343 234.757143 
L 316.26223 236.406478 
L 311.483951 238.248366 
L 306.78315 240.279861 
L 302.167348 242.497713 
L 297.643928 244.898374 
L 293.220127 247.478004 
L 288.903022 250.232474 
L 284.69952 253.15738 
L 280.616345 256.248041 
L 276.66003 259.499514 
L 272.836904 262.906596 
L 269.153083 266.463837 
L 265.61446 270.165546 
L 262.226697 274.005801 
L 258.995212 277.978459 
L 255.925177 282.077164 
L 253.611841 285.408 
L 250.673153 281.214122 
L 247.569105 277.141114 
L 244.304663 273.195494 
L 240.88505 269.383572 
L 237.315736 265.711448 
L 233.602431 262.184995 
L 229.751076 258.809856 
L 225.767832 255.591429 
L 221.659071 252.534864 
L 217.431367 249.645051 
L 213.091483 246.926612 
L 208.646362 244.383897 
L 204.103115 242.020974 
L 199.469011 239.841621 
L 194.751462 237.849327 
L 189.958016 236.047278 
L 185.096342 234.438357 
L 180.174217 233.025139 
L 175.199516 231.809883 
L 170.180196 230.794534 
L 165.124288 229.980717 
L 160.039881 229.369733 
L 154.935107 228.962559 
L 149.818135 228.759848 
L 144.697149 228.761924 
L 139.558953 228.970078 
L 142.297225 224.642681 
L 144.860258 220.209243 
L 147.24395 215.676858 
L 149.444488 211.052777 
L 151.458352 206.344395 
L 153.28232 201.559247 
L 154.913475 196.704988 
L 156.349206 191.789382 
L 157.587217 186.820295 
L 158.625527 181.805675 
L 159.462475 176.753544 
L 160.096722 171.671986 
L 160.527254 166.56913 
L 160.753382 161.453138 
L 160.774744 156.332197 
L 160.591305 151.214497 
L 160.20336 146.108226 
L 159.611529 141.021553 
L 158.816759 135.962617 
L 157.820321 130.939509 
L 156.623809 125.960266 
L 155.229138 121.032853 
L 153.638538 116.165154 
L 151.854554 111.364956 
L 149.880041 106.639937 
L 148.753507 104.160487 
L 153.845479 103.616138 
L 158.911611 102.868599 
L 163.943796 101.919067 
L 168.933986 100.769061 
L 173.874195 99.42042 
L 178.756522 97.875303 
L 183.573155 96.13618 
L 188.316389 94.205835 
L 192.978636 92.087355 
L 197.552436 89.784129 
L 202.030474 87.299843 
L 206.405585 84.638469 
L 210.67077 81.804267 
L 214.819205 78.80177 
L 218.844254 75.635782 
L 222.739477 72.311367 
L 226.498644 68.833844 
L 230.11574 65.208775 
L 231.587109 63.648 
L 235.142967 67.333156 
L 238.843348 70.873167 
L 242.682332 74.262371 
L 246.653777 77.495346 
L 250.75133 80.566919 
L 254.968436 83.472177 
L 259.298347 86.206472 
L 263.734138 88.765429 
L 268.268711 91.144956 
L 272.894813 93.341244 
L 277.605043 95.35078 
L 282.391865 97.170351 
L 287.247622 98.797044 
L 292.164545 100.228257 
L 297.134768 101.461701 
L 302.15034 102.495403 
L 307.203237 103.327708 
L 312.285376 103.957285 
L 317.388626 104.383128 
L 322.504823 104.604555 
L 323.836758 104.628599 
L 321.423296 109.145202 
L 319.192381 113.754705 
L 317.147581 118.449734 
L 315.292168 123.222777 
L 313.62911 128.0662 
L 312.161067 132.972252 
L 310.890388 137.933087 
L 309.819107 142.940767 
L 308.948936 147.987281 
L 308.281268 153.064556 
L 307.81717 158.164469 
L 307.557386 163.278862 
L 307.502331 168.399552 
L 307.652093 173.518348 
L 308.006433 178.627061 
L 308.564783 183.717517 
L 309.32625 188.781574 
L 310.289617 193.811129 
L 311.453342 198.798137 
L 312.815562 203.734619 
L 314.3741 208.612678 
L 316.126462 213.424511 
L 318.069844 218.162418 
L 320.201137 222.818822 
L 322.516931 227.386271 
L 325.013523 231.857461 
L 327.686918 236.225236 
L 328.153984 236.949746 
L 323.035682 236.783943 
L 317.914844 236.82295 
L 312.799662 237.066704 
L 307.69832 237.514816 
L 302.618977 238.166569 
L 297.569761 239.02092 
L 292.558748 240.076503 
L 287.593956 241.331628 
L 282.683327 242.784288 
L 277.834716 244.432159 
L 273.055881 246.272604 
L 268.354467 248.30268 
L 263.737995 250.519138 
L 259.21385 252.918433 
L 254.789271 255.496727 
L 250.471334 258.249894 
L 246.266949 261.17353 
L 242.182842 264.262958 
L 238.225545 267.513236 
L 234.40139 270.919163 
L 230.716495 274.475292 
L 227.176755 278.175932 
L 223.787832 282.015164 
L 221.010035 285.408 
L 217.754568 281.454972 
L 214.343625 277.635289 
L 210.782665 273.955064 
L 207.077382 270.420182 
L 203.233707 267.0363 
L 199.257786 263.808831 
L 195.155982 260.742937 
L 190.934855 257.843525 
L 186.60116 255.115232 
L 182.161828 252.562422 
L 177.623962 250.189181 
L 172.994822 247.999304 
L 168.281812 245.996295 
L 163.492474 244.183358 
L 158.634468 242.563394 
L 153.715567 241.138995 
L 148.74364 239.912438 
L 145.476836 239.220153 
L 147.028374 234.339863 
L 148.383512 229.401431 
L 149.540082 224.412759 
L 150.496232 219.381827 
L 151.250434 214.316683 
L 151.801481 209.225431 
L 152.148491 204.116215 
L 152.29091 198.99721 
L 152.228509 193.876604 
L 151.961389 188.762589 
L 151.489976 183.663346 
L 150.815025 178.587034 
L 149.937615 173.541774 
L 148.859151 168.535636 
L 147.581357 163.57663 
L 146.106278 158.672688 
L 144.436273 153.831656 
L 142.574015 149.06128 
L 140.522482 144.369189 
L 138.284957 139.762891 
L 135.865018 135.249755 
L 133.310546 130.90848 
L 138.431371 130.949095 
L 143.549725 130.7849 
L 148.657418 130.416156 
L 153.74628 129.843454 
L 158.808169 129.06771 
L 163.834988 128.090164 
L 168.818694 126.912382 
L 173.751315 125.536246 
L 178.62496 123.963959 
L 183.431832 122.198036 
L 188.164241 120.241302 
L 192.814616 118.096887 
L 197.375517 115.768222 
L 201.839649 113.259032 
L 206.199868 110.573332 
L 210.449201 107.715418 
L 214.580848 104.689861 
L 218.588201 101.501503 
L 222.464848 98.155444 
L 226.204587 94.657037 
L 229.801436 91.011879 
L 233.249641 87.225801 
L 236.543684 83.30486 
L 239.678297 79.255328 
L 242.648464 75.083685 
L 245.449434 70.796603 
L 248.076727 66.400942 
L 249.603743 63.648 
L 252.122168 68.106928 
L 254.816889 72.461578 
L 257.683594 76.704986 
L 260.717696 80.830361 
L 263.914343 84.831105 
L 267.268419 88.700817 
L 270.77456 92.433307 
L 274.427157 96.022602 
L 278.220365 99.462962 
L 282.148116 102.748882 
L 286.204128 105.875105 
L 290.381911 108.83663 
L 294.674781 111.62872 
L 299.075872 114.246907 
L 303.578141 116.687004 
L 308.174387 118.945106 
L 312.857257 121.0176 
L 317.619258 122.901173 
L 322.452773 124.592809 
L 327.35007 126.089803 
L 332.303312 127.38976 
L 337.653314 128.559577 
L 336.092489 133.436904 
L 334.727953 138.372747 
L 333.56189 143.359209 
L 332.596165 148.388312 
L 331.832323 153.452011 
L 331.271586 158.542205 
L 330.914851 163.650751 
L 330.762689 168.769476 
L 330.815343 173.890192 
L 331.072728 179.004706 
L 331.534434 184.104836 
L 332.199721 189.182424 
L 333.067526 194.229345 
L 334.136459 199.237527 
L 335.404811 204.198957 
L 336.870553 209.105697 
L 338.53134 213.949899 
L 339.682654 216.981503 
L 334.633755 217.837725 
L 329.623134 218.895165 
L 324.658807 220.15213 
L 319.748716 221.606609 
L 314.900717 223.256277 
L 310.122564 225.098493 
L 305.421903 227.130311 
L 300.806253 229.34848 
L 296.282997 231.749451 
L 291.859373 234.329384 
L 287.542458 237.084151 
L 283.339156 240.009345 
L 279.256194 243.100286 
L 275.300102 246.35203 
L 271.47721 249.759375 
L 267.793633 253.316868 
L 264.255264 257.01882 
L 260.867764 260.859308 
L 257.636552 264.832188 
L 254.566798 268.931104 
L 251.663412 273.149498 
L 248.931039 277.480623 
L 246.374051 281.917549 
L 244.524013 285.408 
L 242.105126 280.8943 
L 239.507674 276.480941 
L 236.735812 272.174981 
L 233.793975 267.983312 
L 230.686868 263.912637 
L 227.419464 259.969469 
L 223.996989 256.160117 
L 220.424918 252.490674 
L 216.708965 248.967012 
L 212.855076 245.594766 
L 208.869416 242.379332 
L 204.758361 239.325854 
L 200.528487 236.439217 
L 196.186563 233.724039 
L 191.739533 231.184663 
L 187.194512 228.825153 
L 182.558772 226.649282 
L 177.839729 224.660531 
L 173.044931 222.862083 
L 168.182049 221.256814 
L 163.258864 219.847293 
L 158.283252 218.635774 
L 153.263171 217.624195 
L 148.206653 216.814176 
L 143.121788 216.207011 
L 138.01671 215.803672 
L 132.899587 215.604804 
L 131.833472 215.589153 
L 134.257459 211.07819 
L 136.499117 206.473901 
L 138.55486 201.783653 
L 140.421398 197.014949 
L 142.095746 192.175418 
L 143.575224 187.272802 
L 144.857468 182.314945 
L 145.940424 177.309776 
L 146.82236 172.265305 
L 147.501866 167.189601 
L 147.977854 162.090784 
L 148.249564 156.977011 
L 148.316559 151.856462 
L 148.178734 146.737331 
L 147.836308 141.627806 
L 147.28983 136.536061 
L 146.540174 131.470243 
L 145.588538 126.438455 
L 144.436445 121.448747 
L 143.08574 116.509102 
L 142.583255 114.847677 
L 147.553636 113.614868 
L 152.470742 112.184284 
L 157.326706 110.558212 
L 162.113761 108.739254 
L 166.824248 106.73032 
L 171.450631 104.534624 
L 175.985509 102.155678 
L 180.421627 99.597288 
L 184.751888 96.863547 
L 188.969365 93.958828 
L 193.067311 90.887779 
L 197.039169 87.655312 
L 200.878587 84.266599 
L 204.57942 80.727061 
L 208.13575 77.04236 
L 211.541887 73.218392 
L 214.79238 69.261272 
L 217.882032 65.177334 
L 218.974603 63.648 
L 222.003971 67.776853 
L 225.196026 71.781262 
L 228.545662 75.654819 
L 232.047519 79.391328 
L 235.695995 82.984811 
L 239.485254 86.42952 
L 243.409234 89.719943 
L 247.461656 92.850817 
L 251.636039 95.817133 
L 255.925704 98.614145 
L 260.323788 101.23738 
L 264.823256 103.682639 
L 269.416908 105.946012 
L 274.097397 108.023877 
L 278.857235 109.912911 
L 283.688806 111.610091 
L 288.584382 113.112701 
L 293.53613 114.41834 
L 298.536129 115.524916 
L 303.57638 116.430661 
L 308.648819 117.134125 
L 313.745332 117.634183 
L 318.857766 117.930035 
L 323.97794 118.021208 
L 329.097665 117.907555 
L 331.434063 117.787518 
L 328.696243 122.115201 
L 326.133674 126.548907 
L 323.750456 131.081541 
L 321.550401 135.705853 
L 319.53703 140.414444 
L 317.713562 145.199783 
L 316.082915 150.054213 
L 314.647698 154.969969 
L 313.410207 159.939186 
L 312.372421 164.953915 
L 311.536001 170.006132 
L 310.902285 175.087757 
L 310.472287 180.190658 
L 310.246694 185.306673 
L 310.225868 190.427617 
L 310.409841 195.545298 
L 310.79832 200.651528 
L 311.390683 205.738139 
L 312.185983 210.796992 
L 313.182946 215.819996 
L 314.379979 220.799114 
L 315.775165 225.726381 
L 317.366274 230.593913 
L 319.150759 235.393925 
L 321.125767 240.118737 
L 323.452028 245.093773 
L 318.349429 245.527343 
L 313.268249 246.164617 
L 308.216618 247.004573 
L 303.202617 248.045869 
L 298.234268 249.286839 
L 293.319518 250.725497 
L 288.466231 252.359542 
L 283.68217 254.186359 
L 278.974989 256.203027 
L 274.352218 258.406319 
L 269.821253 260.792709 
L 265.389343 263.358381 
L 261.063578 266.09923 
L 256.850877 269.010872 
L 252.75798 272.088647 
L 248.791436 275.327632 
L 244.957589 278.722646 
L 241.262573 282.268258 
L 238.224356 285.408 
L 234.652466 281.738381 
L 230.936687 278.214534 
L 227.082965 274.842098 
L 223.097464 271.626467 
L 218.98656 268.572786 
L 214.756829 265.68594 
L 210.415039 262.970547 
L 205.968135 260.430951 
L 201.423231 258.071216 
L 196.787598 255.895116 
L 192.068653 253.906132 
L 187.273944 252.107447 
L 182.411142 250.501937 
L 177.488027 249.092173 
L 172.512474 247.880407 
L 167.492443 246.868581 
L 162.435966 246.058311 
L 157.351131 245.450895 
L 152.246073 245.047303 
L 148.749791 244.889076 
L 151.078334 240.328113 
L 153.222625 235.677681 
L 155.179233 230.94522 
L 156.945028 226.138301 
L 158.517185 221.264614 
L 159.893189 216.331956 
L 161.070839 211.348218 
L 162.04825 206.321374 
L 162.82386 201.259464 
L 163.396426 196.170587 
L 163.765034 191.062884 
L 163.929093 185.944526 
L 163.888341 180.823701 
L 163.642844 175.708603 
L 163.192993 170.607413 
L 162.539509 165.528293 
L 161.683438 160.479368 
L 160.626148 155.468716 
L 159.36933 150.504351 
L 157.914997 145.594217 
L 156.265474 140.746169 
L 154.4234 135.967961 
L 152.391722 131.267239 
L 150.173691 126.651523 
L 147.772854 122.128196 
L 145.193053 117.704495 
L 142.9658 114.185089 
L 148.083302 114.373964 
L 153.204264 114.358042 
L 158.320493 114.137349 
L 163.423804 113.712237 
L 168.506033 113.083388 
L 173.559049 112.251807 
L 178.574769 111.218825 
L 183.545169 109.986093 
L 188.462297 108.555584 
L 193.318287 106.929587 
L 198.105369 105.110703 
L 202.815887 103.101842 
L 207.442304 100.906217 
L 211.977218 98.52734 
L 216.413376 95.969019 
L 220.743679 93.235345 
L 224.961201 90.330691 
L 229.059194 87.259705 
L 233.031103 84.0273 
L 236.870572 80.638646 
L 240.571461 77.099165 
L 244.127847 73.414519 
L 247.534043 69.590603 
L 250.784598 65.633534 
L 252.318871 63.648 
L 255.491253 67.668012 
L 258.821855 71.557946 
L 262.305349 75.311581 
L 265.936162 78.922911 
L 269.708485 82.386158 
L 273.616283 85.695782 
L 277.653306 88.846488 
L 281.813094 91.833237 
L 286.088992 94.651249 
L 290.474161 97.296017 
L 294.961585 99.763309 
L 299.544084 102.049179 
L 304.214329 104.149969 
L 308.964846 106.062319 
L 313.788038 107.783169 
L 318.676187 109.309766 
L 323.621474 110.639668 
L 327.87048 111.615211 
L 326.381886 116.515067 
L 325.090425 121.470532 
L 323.998162 126.473677 
L 323.106845 131.516499 
L 322.417901 136.590931 
L 321.932431 141.688854 
L 321.651212 146.802113 
L 321.574693 151.922528 
L 321.702998 157.041907 
L 322.03592 162.15206 
L 322.572928 167.244812 
L 323.313162 172.312016 
L 324.255438 177.345565 
L 325.398249 182.337407 
L 326.739766 187.279556 
L 328.277843 192.164105 
L 330.01002 196.98324 
L 331.933525 201.729252 
L 334.045281 206.394548 
L 336.34191 210.971665 
L 338.819739 215.45328 
L 339.700622 216.950382 
L 334.579699 216.975855 
L 329.463891 217.206091 
L 324.361382 217.64072 
L 319.280335 218.279047 
L 314.228878 219.120051 
L 309.215093 220.162387 
L 304.247001 221.404388 
L 299.33255 222.844065 
L 294.479602 224.479117 
L 289.69592 226.306926 
L 284.989157 228.32457 
L 280.366844 230.528821 
L 275.836374 232.916151 
L 271.404996 235.482743 
L 267.079799 238.224489 
L 262.867702 241.137004 
L 258.775444 244.215628 
L 254.809572 247.455436 
L 250.976429 250.851245 
L 247.282149 254.397623 
L 243.732641 258.088896 
L 240.333584 261.919159 
L 237.090416 265.882284 
L 234.008324 269.971931 
L 231.09224 274.181557 
L 228.346829 278.504429 
L 225.776482 282.93363 
L 224.441254 285.408 
L 221.968788 280.923425 
L 219.318964 276.541309 
L 216.496023 272.268664 
L 213.504478 268.112323 
L 210.349118 264.078937 
L 207.034989 260.174959 
L 203.567393 256.406632 
L 199.951879 252.779987 
L 196.194229 249.300825 
L 192.300456 245.974711 
L 188.276788 242.806968 
L 184.129662 239.802662 
L 179.865714 236.9666 
L 175.491764 234.303319 
L 171.01481 231.81708 
L 166.442014 229.51186 
L 161.780692 227.391347 
L 157.0383 225.458933 
L 152.222426 223.717711 
L 147.340774 222.170464 
L 142.401153 220.819669 
L 137.411466 219.667487 
L 133.779407 218.959611 
L 135.417332 214.107632 
L 136.85992 209.194034 
L 138.104862 204.226679 
L 139.150167 199.213512 
L 139.994163 194.162555 
L 140.635499 189.081886 
L 141.07315 183.979635 
L 141.306415 178.863965 
L 141.334921 173.743057 
L 141.158623 168.625107 
L 140.777802 163.5183 
L 140.193068 158.430806 
L 139.405357 153.370766 
L 138.415927 148.346272 
L 137.226363 143.365365 
L 135.838568 138.436012 
L 134.254761 133.566098 
L 133.303097 130.921382 
L 138.334604 129.968263 
L 143.323973 128.8147 
L 148.26322 127.462539 
L 153.144444 125.913941 
L 157.959836 124.171386 
L 162.701693 122.23766 
L 167.362428 120.115857 
L 171.934586 117.809372 
L 176.410852 115.321894 
L 180.784064 112.657403 
L 185.047228 109.820161 
L 189.193521 106.814708 
L 193.216313 103.645851 
L 197.109166 100.31866 
L 200.865852 96.838458 
L 204.480363 93.210813 
L 207.946916 89.441527 
L 211.259965 85.536631 
L 214.414209 81.502372 
L 217.404603 77.345204 
L 220.226362 73.071777 
L 222.874973 68.688929 
L 225.346198 64.20367 
L 225.636289 63.648 
L 228.085525 68.145304 
L 230.712647 72.541067 
L 233.51345 76.828258 
L 236.483455 81.000017 
L 239.617911 85.04967 
L 242.911802 88.970739 
L 246.359859 92.756951 
L 249.956566 96.40225 
L 253.696169 99.900802 
L 257.572686 103.247012 
L 261.579915 106.435526 
L 265.711445 109.461242 
L 269.960666 112.319322 
L 274.320781 115.005192 
L 278.784815 117.514555 
L 283.345626 119.843398 
L 287.995917 121.987993 
L 292.72825 123.944912 
L 297.535053 125.711022 
L 302.408637 127.283498 
L 307.341205 128.659825 
L 312.324866 129.837802 
L 317.351646 130.815543 
L 322.413505 131.591484 
L 327.502345 132.164384 
L 332.610024 132.533326 
L 337.728371 132.697721 
L 340.046561 132.704802 
L 337.54841 137.17512 
L 335.231023 141.741762 
L 333.098107 146.397422 
L 331.153073 151.134652 
L 329.399034 155.945873 
L 327.838796 160.823388 
L 326.474854 165.759395 
L 325.30939 170.745997 
L 324.34427 175.775216 
L 323.581037 180.839007 
L 323.020912 185.929268 
L 322.664792 191.037857 
L 322.513245 196.156601 
L 322.566514 201.27731 
L 322.824515 206.391793 
L 323.286834 211.491868 
L 323.952732 216.569375 
L 324.821144 221.616193 
L 325.890679 226.624246 
L 327.159628 231.585523 
L 328.551917 236.260505 
L 323.571798 237.453365 
L 318.643365 238.844423 
L 313.774501 240.431454 
L 308.972995 242.211917 
L 304.246531 244.182965 
L 299.602667 246.341445 
L 295.048834 248.683903 
L 290.592318 251.206592 
L 286.240246 253.905477 
L 281.999583 256.776239 
L 277.877111 259.814286 
L 273.879427 263.014758 
L 270.012925 266.372534 
L 266.283791 269.882244 
L 262.69799 273.538271 
L 259.261261 277.334768 
L 255.979099 281.265661 
L 252.795315 285.408 
L 249.676256 281.346476 
L 246.397275 277.412931 
L 242.963616 273.613655 
L 239.380774 269.954729 
L 235.654479 266.442005 
L 231.790694 263.081103 
L 227.795599 259.877399 
L 223.675585 256.836019 
L 219.437245 253.961829 
L 215.087357 251.259426 
L 210.632882 248.733133 
L 206.080945 246.386993 
L 201.438829 244.224759 
L 196.71396 242.249889 
L 191.913896 240.465543 
L 187.046317 238.874576 
L 182.11901 237.479533 
L 177.139857 236.282645 
L 172.116824 235.285828 
L 167.057947 234.490676 
L 161.97132 233.898461 
L 156.865078 233.51013 
L 151.747392 233.326306 
L 146.626449 233.347281 
L 142.192253 233.531087 
L 144.922679 229.198736 
L 147.477674 224.760661 
L 149.853149 220.223964 
L 152.045305 215.595903 
L 154.050634 210.88388 
L 155.865928 206.095435 
L 157.488284 201.238227 
L 158.915105 196.320028 
L 160.14411 191.348705 
L 161.173332 186.332212 
L 162.001124 181.278574 
L 162.626162 176.195875 
L 163.047447 171.092246 
L 163.264304 165.975854 
L 163.276386 160.854882 
L 163.083675 155.737522 
L 162.686477 150.631963 
L 162.08543 145.546371 
L 161.281494 140.488883 
L 160.275955 135.467589 
L 159.070423 130.490522 
L 157.666825 125.565645 
L 156.067408 120.700836 
L 154.274729 115.903878 
L 152.291657 111.182445 
L 150.121364 106.544091 
L 148.839221 104.012025 
L 153.949792 103.685578 
L 159.043221 103.155023 
L 164.111358 102.421211 
L 169.146098 101.485313 
L 174.139384 100.348829 
L 179.083228 99.013575 
L 183.969722 97.481688 
L 188.791049 95.755619 
L 193.539494 93.838129 
L 198.207462 91.732286 
L 202.787485 89.441458 
L 207.272236 86.969311 
L 211.654539 84.319798 
L 215.927386 81.49716 
L 220.083939 78.505911 
L 224.117549 75.350837 
L 228.021763 72.036986 
L 231.790336 68.569658 
L 235.417238 64.954401 
L 236.658829 63.648 
L 240.234482 67.313952 
L 243.953874 70.833984 
L 247.811054 74.202465 
L 251.799853 77.414004 
L 255.913888 80.463466 
L 260.146579 83.345971 
L 264.491153 86.056907 
L 268.94066 88.591939 
L 273.487983 90.94701 
L 278.125846 93.118352 
L 282.84683 95.102493 
L 287.643381 96.896258 
L 292.507828 98.496777 
L 297.432387 99.901489 
L 302.409181 101.108149 
L 307.430247 102.114824 
L 312.487554 102.919905 
L 317.573009 103.522104 
L 322.678478 103.920457 
L 323.452441 103.962944 
L 321.216757 108.570136 
L 319.1671 113.263046 
L 317.306749 118.034167 
L 315.638679 122.875866 
L 314.165561 127.780396 
L 312.889749 132.739913 
L 311.813286 137.746482 
L 310.937893 142.792093 
L 310.264971 147.868674 
L 309.795597 152.968104 
L 309.53052 158.082226 
L 309.470166 163.202856 
L 309.614631 168.321805 
L 309.963684 173.430881 
L 310.516766 178.521913 
L 311.272993 183.586755 
L 312.231154 188.617304 
L 313.389717 193.605514 
L 314.746829 198.543403 
L 316.300318 203.423072 
L 318.047699 208.236715 
L 319.986177 212.976632 
L 322.11265 217.635238 
L 324.423717 222.205082 
L 326.915681 226.678852 
L 329.584554 231.049392 
L 330.630326 232.660596 
L 325.513358 232.457765 
L 320.392372 232.459721 
L 315.27556 232.66646 
L 310.171109 233.077651 
L 305.087184 233.692637 
L 300.031918 234.510434 
L 295.013399 235.529733 
L 290.039656 236.748905 
L 285.118645 238.165998 
L 280.258239 239.778745 
L 275.466213 241.584566 
L 270.750234 243.580573 
L 266.117846 245.763573 
L 261.576461 248.130072 
L 257.133342 250.676285 
L 252.7956 253.398139 
L 248.570172 256.291279 
L 244.463818 259.351077 
L 240.483109 262.572638 
L 236.634412 265.950808 
L 232.923884 269.480183 
L 229.357461 273.155116 
L 225.94085 276.969728 
L 222.679515 280.917917 
L 219.277365 285.408 
L 216.192864 281.32017 
L 212.947361 277.358956 
L 209.546048 273.530697 
L 205.994366 269.841516 
L 202.297996 266.297316 
L 198.462854 262.903766 
L 194.495073 259.666295 
L 190.401002 256.590083 
L 186.18719 253.68005 
L 181.860378 250.940853 
L 177.427488 248.376873 
L 172.895613 245.992213 
L 168.272001 243.790686 
L 163.564051 241.775816 
L 158.779292 239.950825 
L 153.925381 238.318633 
L 149.010083 236.881852 
L 144.04126 235.642779 
L 143.31732 235.479761 
L 144.75717 230.565361 
L 145.999346 225.597312 
L 147.041858 220.583564 
L 147.88304 215.532137 
L 148.521546 210.451113 
L 148.956355 205.348619 
L 149.186771 200.232819 
L 149.212424 195.111897 
L 149.033275 189.994045 
L 148.64961 184.887451 
L 148.062042 179.800284 
L 147.271512 174.740683 
L 146.279284 169.716741 
L 145.086946 164.736497 
L 143.696405 159.807918 
L 142.109886 154.938887 
L 140.329926 150.137195 
L 138.359374 145.410524 
L 136.201381 140.766434 
L 133.859401 136.212356 
L 132.084123 133.032707 
L 137.204068 132.929454 
L 142.315789 132.62154 
L 147.411108 132.109458 
L 152.481873 131.394027 
L 157.519973 130.476392 
L 162.517347 129.35802 
L 167.466 128.040702 
L 172.358017 126.526543 
L 177.18557 124.817968 
L 181.940937 122.917708 
L 186.616511 120.828805 
L 191.20481 118.554599 
L 195.698495 116.09873 
L 200.090377 113.465125 
L 204.37343 110.657999 
L 208.540802 107.681842 
L 212.585826 104.541414 
L 216.502031 101.241741 
L 220.283151 97.788101 
L 223.923139 94.186019 
L 227.416169 90.441258 
L 230.756656 86.559808 
L 233.939253 82.547879 
L 236.958871 78.411889 
L 239.810677 74.158455 
L 242.490111 69.794381 
L 244.992884 65.32665 
L 245.873709 63.648 
L 248.310059 68.152298 
L 250.924584 72.555565 
L 253.713102 76.850756 
L 256.671151 81.031001 
L 259.793999 85.089612 
L 263.07665 89.020096 
L 266.513853 92.816164 
L 270.100109 96.471745 
L 273.829681 99.98099 
L 277.696601 103.338285 
L 281.694685 106.538258 
L 285.817535 109.575791 
L 290.058556 112.446025 
L 294.410964 115.144367 
L 298.867795 117.666501 
L 303.421919 120.008391 
L 308.066052 122.166292 
L 312.792762 124.136751 
L 317.594489 125.916616 
L 322.463551 127.50304 
L 327.392158 128.893483 
L 332.372426 130.085723 
L 337.396387 131.077852 
L 339.292276 131.398342 
L 337.566902 136.219917 
L 336.03572 141.106632 
L 334.701178 146.050669 
L 333.565413 151.044119 
L 332.630242 156.078993 
L 331.897159 161.147236 
L 331.367339 166.240741 
L 331.041628 171.351359 
L 330.920548 176.470914 
L 331.004292 181.591215 
L 331.292727 186.704072 
L 331.785391 191.801305 
L 332.481496 196.87476 
L 333.379928 201.916319 
L 334.47925 206.917918 
L 335.777703 211.871556 
L 337.273211 216.769306 
L 338.211637 219.52938 
L 333.197332 220.569212 
L 328.228621 221.808731 
L 323.313451 223.245953 
L 318.459687 224.878581 
L 313.675092 226.704001 
L 308.967323 228.719295 
L 304.343909 230.921236 
L 299.812248 233.306304 
L 295.379588 235.870682 
L 291.053023 238.610267 
L 286.839472 241.520678 
L 282.745677 244.597258 
L 278.778187 247.835085 
L 274.943349 251.22898 
L 271.247298 254.773512 
L 267.695947 258.463012 
L 264.294977 262.291576 
L 261.04983 266.253081 
L 257.965696 270.341188 
L 255.04751 274.549358 
L 252.29994 278.870858 
L 249.727382 283.298775 
L 248.583444 285.408 
L 246.094317 280.932651 
L 243.428215 276.56042 
L 240.589403 272.298302 
L 237.582422 268.153116 
L 234.412084 264.131492 
L 231.083459 260.239865 
L 227.601874 256.484461 
L 223.972897 252.871287 
L 220.202334 249.406123 
L 216.296218 246.094513 
L 212.260798 242.941755 
L 208.102528 239.952893 
L 203.828062 237.132708 
L 199.444238 234.485712 
L 194.958069 232.016139 
L 190.376732 229.727941 
L 185.707556 227.624777 
L 180.958011 225.710014 
L 176.135694 223.986712 
L 171.248322 222.457631 
L 166.303711 221.125216 
L 161.309774 219.991598 
L 156.274498 219.058591 
L 151.20594 218.327687 
L 146.112208 217.800057 
L 141.00145 217.476543 
L 135.881844 217.357664 
L 132.869391 217.383418 
L 135.431277 212.949318 
L 137.813796 208.416316 
L 140.013138 203.791665 
L 142.025784 199.082763 
L 143.848514 194.297143 
L 145.478413 189.442462 
L 146.912872 184.526485 
L 148.149597 179.557077 
L 149.18661 174.542189 
L 150.022251 169.489842 
L 150.655184 164.40812 
L 151.084395 159.305153 
L 151.3092 154.189103 
L 151.329236 149.068156 
L 151.144474 143.950504 
L 150.755208 138.844333 
L 150.162061 133.757814 
L 149.365982 128.699083 
L 148.368244 123.676233 
L 147.170444 118.6973 
L 145.774498 113.770248 
L 144.862086 110.900625 
L 149.855143 109.763132 
L 154.798717 108.42688 
L 159.684902 106.894006 
L 164.50588 105.166964 
L 169.253938 103.248515 
L 173.92148 101.141729 
L 178.501041 98.849976 
L 182.985292 96.376923 
L 187.367061 93.726525 
L 191.639337 90.903024 
L 195.795285 87.910936 
L 199.828258 84.755047 
L 203.731803 81.440407 
L 207.499675 77.972319 
L 211.125847 74.356329 
L 214.604518 70.598224 
L 217.930121 66.704015 
L 220.359025 63.648 
L 223.564364 67.641784 
L 226.926847 71.504193 
L 230.441096 75.22905 
L 234.101488 78.810394 
L 237.902168 82.242498 
L 241.837056 85.519869 
L 245.899855 88.637265 
L 250.084068 91.589699 
L 254.383 94.372448 
L 258.789773 96.981059 
L 263.297338 99.41136 
L 267.898483 101.659462 
L 272.585848 103.721769 
L 277.351934 105.594982 
L 282.189116 107.276104 
L 287.089656 108.762445 
L 292.045713 110.051629 
L 297.04936 111.141591 
L 302.092592 112.03059 
L 307.16734 112.717201 
L 312.265486 113.200328 
L 317.378873 113.479197 
L 322.499323 113.553362 
L 327.618642 113.422704 
L 328.877351 113.359162 
L 326.16167 117.700772 
L 323.621779 122.147508 
L 321.261742 126.692255 
L 319.085334 131.327743 
L 317.096037 136.046557 
L 315.297034 140.841146 
L 313.691202 145.703842 
L 312.281111 150.626863 
L 311.069015 155.602336 
L 310.056856 160.6223 
L 309.24625 165.678723 
L 308.638497 170.763518 
L 308.234566 175.868549 
L 308.035106 180.98565 
L 308.040435 186.106633 
L 308.250544 191.223307 
L 308.665098 196.327487 
L 309.283433 201.411006 
L 310.104559 206.465732 
L 311.127164 211.483578 
L 312.349612 216.456517 
L 313.769946 221.376594 
L 315.385894 226.235936 
L 317.194872 231.026771 
L 319.193985 235.741435 
L 321.380035 240.372383 
L 323.65582 244.740795 
L 318.539808 244.966476 
L 313.436914 245.396561 
L 308.355301 246.030365 
L 303.303098 246.866871 
L 298.288387 247.904743 
L 293.319191 249.142319 
L 288.40346 250.577621 
L 283.549058 252.208351 
L 278.76375 254.031901 
L 274.055193 256.045353 
L 269.430919 258.245487 
L 264.898326 260.628783 
L 260.464664 263.191428 
L 256.137028 265.929322 
L 251.92234 268.838086 
L 247.827342 271.913065 
L 243.858587 275.149341 
L 240.022422 278.541736 
L 236.324986 282.084823 
L 233.111251 285.408 
L 229.544136 281.733739 
L 225.832943 278.205064 
L 221.983609 274.82762 
L 218.002292 271.60681 
L 213.895362 268.547786 
L 209.669389 265.655442 
L 205.331133 262.934406 
L 200.887534 260.389031 
L 196.345703 258.023388 
L 191.712904 255.841262 
L 186.996549 253.846144 
L 182.204182 252.041225 
L 177.343472 250.429394 
L 172.422194 249.013229 
L 167.448221 247.794996 
L 162.42951 246.776642 
L 157.374091 245.959799 
L 152.29005 245.345771 
L 148.840413 245.046038 
L 150.977302 240.3922 
L 152.926378 235.656632 
L 154.684523 230.84691 
L 156.248923 225.970728 
L 157.617077 221.035887 
L 158.786796 216.050282 
L 159.756208 211.021888 
L 160.523763 205.958751 
L 161.088232 200.868969 
L 161.448713 195.760686 
L 161.604628 190.642074 
L 161.555729 185.521321 
L 161.302093 180.406619 
L 160.844127 175.306152 
L 160.182563 170.228078 
L 159.318459 165.180521 
L 158.253198 160.171557 
L 156.988484 155.209199 
L 155.52634 150.301385 
L 153.869105 145.455967 
L 152.019432 140.680697 
L 149.980277 135.983213 
L 147.754905 131.371031 
L 145.346874 126.85153 
L 142.760038 122.43194 
L 140.371024 118.679373 
L 145.48777 118.887724 
L 150.608755 118.891292 
L 155.725787 118.690072 
L 160.830679 118.284387 
L 165.915264 117.674886 
L 170.971409 116.862542 
L 175.991024 115.848656 
L 180.96608 114.634851 
L 185.888617 113.223067 
L 190.75076 111.615563 
L 195.54473 109.814912 
L 200.26286 107.823993 
L 204.897599 105.645991 
L 209.441535 103.284392 
L 213.887397 100.742973 
L 218.228073 98.0258 
L 222.45662 95.137219 
L 226.566271 92.081852 
L 230.550453 88.864587 
L 234.402792 85.49057 
L 238.117125 81.9652 
L 241.687509 78.294116 
L 245.108233 74.483192 
L 248.373825 70.538523 
L 251.47906 66.46642 
L 253.482609 63.648 
L 256.47674 67.802477 
L 259.63461 71.833898 
L 262.951169 75.735813 
L 266.42111 79.501981 
L 270.038881 83.126374 
L 273.798696 86.603197 
L 277.694539 89.926886 
L 281.720178 93.092124 
L 285.869173 96.093848 
L 290.134886 98.927255 
L 294.510492 101.587812 
L 298.988993 104.071264 
L 303.563223 106.373637 
L 308.225865 108.491248 
L 312.969458 110.42071 
L 317.786415 112.158934 
L 322.66903 113.703142 
L 327.609491 115.050861 
L 330.215651 115.677167 
L 328.809193 120.601228 
L 327.60077 125.577593 
L 326.592315 130.598303 
L 325.785441 135.655323 
L 325.18144 140.740565 
L 324.781277 145.845893 
L 324.585594 150.963139 
L 324.594701 156.084117 
L 324.808587 161.200635 
L 325.226907 166.304507 
L 325.848993 171.387568 
L 326.673849 176.441687 
L 327.700157 181.458777 
L 328.926274 186.430813 
L 330.350238 191.34984 
L 331.969772 196.207989 
L 333.782285 200.997488 
L 335.784877 205.710674 
L 337.974344 210.340009 
L 340.347184 214.878085 
L 340.615814 215.365224 
L 335.498423 215.557089 
L 330.392798 215.953442 
L 325.307107 216.553649 
L 320.249485 217.356749 
L 315.228025 218.361457 
L 310.250759 219.566167 
L 305.32565 220.96895 
L 300.460577 222.567564 
L 295.663323 224.359449 
L 290.941562 226.341741 
L 286.302849 228.511266 
L 281.754604 230.864556 
L 277.304104 233.397844 
L 272.958468 236.107079 
L 268.724649 238.987925 
L 264.609419 242.035775 
L 260.619363 245.245752 
L 256.760863 248.612721 
L 253.040092 252.131296 
L 249.463004 255.795847 
L 246.035319 259.600512 
L 242.762522 263.539205 
L 239.649849 267.605625 
L 236.702279 271.793265 
L 233.924527 276.095428 
L 231.321039 280.505229 
L 228.695868 285.408 
L 226.286338 280.889298 
L 223.698035 276.470566 
L 220.935101 272.158873 
L 218.001955 267.961117 
L 214.903289 263.884014 
L 211.644062 259.934085 
L 208.229487 256.11765 
L 204.665026 252.440814 
L 200.956382 248.90946 
L 197.109488 245.529236 
L 193.130499 242.305552 
L 189.025779 239.243563 
L 184.801895 236.348168 
L 180.465606 233.623999 
L 176.023847 231.075415 
L 171.483725 228.706493 
L 166.852503 226.521022 
L 162.13759 224.522498 
L 157.346528 222.714119 
L 152.486984 221.098778 
L 147.56673 219.67906 
L 142.593637 218.457234 
L 137.575663 217.435257 
L 132.41714 216.600096 
L 134.237901 211.813726 
L 135.865801 206.958374 
L 137.298238 202.041808 
L 138.532918 197.071891 
L 139.567867 192.056577 
L 140.401429 187.003887 
L 141.03227 181.921905 
L 141.459382 176.818761 
L 141.682081 171.702619 
L 141.70001 166.581664 
L 141.513142 161.464088 
L 141.121775 156.358079 
L 140.526535 151.271804 
L 139.728374 146.213401 
L 138.728569 141.190962 
L 137.528721 136.212522 
L 136.130747 131.286045 
L 135.045703 127.903099 
L 140.043985 126.788792 
L 144.993709 125.475499 
L 149.886955 123.96532 
L 154.715897 122.260672 
L 159.472808 120.364281 
L 164.150078 118.279181 
L 168.740226 116.008708 
L 173.235907 113.556494 
L 177.62993 110.926462 
L 181.915265 108.12282 
L 186.085056 105.150053 
L 190.132633 102.012917 
L 194.05152 98.71643 
L 197.835448 95.265867 
L 201.478364 91.666746 
L 204.974439 87.924827 
L 208.318081 84.046095 
L 211.50394 80.036756 
L 214.526921 75.903223 
L 217.382186 71.65211 
L 220.065168 67.290217 
L 222.126932 63.648 
L 224.665913 68.095255 
L 227.380706 72.43742 
L 230.266968 76.667549 
L 233.320082 80.778875 
L 236.535162 84.764821 
L 239.907066 88.619009 
L 243.430399 92.335274 
L 247.099525 95.907671 
L 250.908574 99.330484 
L 254.851451 102.598238 
L 258.921851 105.705705 
L 263.11326 108.647914 
L 267.418973 111.420157 
L 271.832102 114.018001 
L 276.345587 116.437289 
L 280.952208 118.67415 
L 285.644595 120.725006 
L 290.41524 122.586576 
L 295.256512 124.255882 
L 300.160667 125.730254 
L 305.119857 127.007333 
L 310.126151 128.085075 
L 315.171538 128.961757 
L 320.247947 129.635976 
L 325.347257 130.106653 
L 330.461311 130.373036 
L 335.581926 130.434699 
L 338.699664 130.371909 
L 336.08475 134.774944 
L 333.648002 139.279027 
L 331.393318 143.876951 
L 329.324306 148.56136 
L 327.444275 153.324761 
L 325.756233 158.159532 
L 324.262881 163.05794 
L 322.966607 168.012148 
L 321.869485 173.01423 
L 320.973272 178.056185 
L 320.279399 183.129945 
L 319.788978 188.227394 
L 319.502792 193.340377 
L 319.421301 198.460715 
L 319.544633 203.580217 
L 319.872592 208.690691 
L 320.404653 213.783962 
L 321.139966 218.851882 
L 322.077353 223.886344 
L 323.215314 228.879294 
L 324.552031 233.822743 
L 326.085363 238.708784 
L 326.476522 239.855195 
L 321.468094 240.922975 
L 316.506373 242.190184 
L 311.599295 243.654796 
L 306.754711 245.314467 
L 301.980371 247.166542 
L 297.283913 249.208058 
L 292.672851 251.43575 
L 288.154562 253.846053 
L 283.736273 256.435111 
L 279.425052 259.198783 
L 275.227798 262.132647 
L 271.151224 265.232009 
L 267.201853 268.491912 
L 263.386002 271.90714 
L 259.709776 275.47223 
L 256.179056 279.181478 
L 252.79949 283.028949 
L 250.841126 285.408 
L 247.55513 281.480311 
L 244.114698 277.687169 
L 240.525332 274.034642 
L 236.792776 270.528573 
L 232.922999 267.17457 
L 228.922194 263.978001 
L 224.79676 260.943977 
L 220.553297 258.077354 
L 216.198595 255.382717 
L 211.739619 252.864377 
L 207.183503 250.526364 
L 202.537536 248.372416 
L 197.80915 246.40598 
L 193.00591 244.630203 
L 188.1355 243.047924 
L 183.205711 241.661675 
L 178.22443 240.473674 
L 173.199627 239.485821 
L 168.139339 238.699697 
L 163.051663 238.11656 
L 157.944737 237.737342 
L 152.826731 237.562649 
L 147.705833 237.592762 
L 144.605314 237.710632 
L 147.298183 233.354836 
L 149.814712 228.894838 
L 152.150877 224.337773 
L 154.302938 219.690932 
L 156.267454 214.961748 
L 158.041282 210.157788 
L 159.621584 205.286736 
L 161.005832 200.356385 
L 162.191811 195.374623 
L 163.177624 190.349419 
L 163.961693 185.288812 
L 164.542766 180.200899 
L 164.919911 175.09382 
L 165.092526 169.975743 
L 165.060334 164.854858 
L 164.823387 159.739356 
L 164.382065 154.637422 
L 163.737072 149.557216 
L 162.889441 144.506868 
L 161.840529 139.494455 
L 160.592012 134.527996 
L 159.145888 129.615438 
L 157.504472 124.764639 
L 155.670388 119.983359 
L 153.646571 115.279247 
L 151.436258 110.65983 
L 149.042986 106.132496 
L 148.338687 104.878977 
L 153.457931 104.745424 
L 158.56774 104.407264 
L 163.659939 103.865036 
L 168.726382 103.119608 
L 173.758963 102.172173 
L 178.74963 101.024246 
L 183.690401 99.677664 
L 188.573371 98.134581 
L 193.390729 96.397465 
L 198.134767 94.469096 
L 202.797895 92.352559 
L 207.372655 90.051239 
L 211.851728 87.568818 
L 216.227947 84.909268 
L 220.494312 82.076843 
L 224.643998 79.076075 
L 228.670366 75.911764 
L 232.566974 72.588972 
L 236.327589 69.113015 
L 239.946195 65.489454 
L 241.678413 63.648 
L 245.224766 67.342304 
L 248.916015 70.891837 
L 252.746255 74.29092 
L 256.709358 77.534115 
L 260.798984 80.616234 
L 265.008591 83.532346 
L 269.331444 86.277787 
L 273.760628 88.848163 
L 278.289056 91.239363 
L 282.909485 93.447562 
L 287.614522 95.469226 
L 292.396641 97.301122 
L 297.248191 98.940319 
L 302.16141 100.384195 
L 307.128439 101.630439 
L 312.141331 102.677058 
L 317.192068 103.522378 
L 322.272568 104.165046 
L 323.649214 104.303763 
L 321.614627 109.003227 
L 319.769596 113.780293 
L 318.117072 118.62732 
L 316.6597 123.536553 
L 315.39981 128.500138 
L 314.339419 133.510135 
L 313.480222 138.558529 
L 312.823595 143.637244 
L 312.370587 148.738154 
L 312.121923 153.8531 
L 312.078002 158.973898 
L 312.238893 164.092356 
L 312.604339 169.200286 
L 313.173756 174.289517 
L 313.946232 179.351906 
L 314.920532 184.379355 
L 316.095096 189.36382 
L 317.468047 194.297329 
L 319.037187 199.171988 
L 320.800006 203.979999 
L 322.753685 208.71367 
L 324.895097 213.365429 
L 327.220817 217.927833 
L 329.727124 222.393583 
L 332.410009 226.755536 
L 333.274132 228.081389 
L 328.15728 227.875656 
L 323.036294 227.874708 
L 317.919366 228.078545 
L 312.814682 228.486841 
L 307.730409 229.098944 
L 302.67468 229.913873 
L 297.655584 230.930327 
L 292.68115 232.146677 
L 287.759336 233.560979 
L 282.898016 235.170969 
L 278.104967 236.974073 
L 273.387857 238.967405 
L 268.754232 241.147777 
L 264.211505 243.5117 
L 259.766944 246.055393 
L 255.427658 248.774787 
L 251.20059 251.66553 
L 247.092502 254.722999 
L 243.109966 257.942302 
L 239.259353 261.318288 
L 235.546825 264.845558 
L 231.978319 268.518468 
L 228.559544 272.331142 
L 225.295971 276.27748 
L 222.192819 280.351171 
L 219.255054 284.545695 
L 218.68151 285.408 
L 215.777769 281.18985 
L 212.70767 277.091193 
L 209.476124 273.118585 
L 206.088301 269.278382 
L 202.54962 265.576728 
L 198.865744 262.019545 
L 195.042564 258.612522 
L 191.086199 255.361111 
L 187.002976 252.270514 
L 182.799429 249.345673 
L 178.482281 246.59127 
L 174.05844 244.011709 
L 169.534983 241.611119 
L 164.919145 239.393338 
L 160.218313 237.361916 
L 155.440005 235.520102 
L 150.591867 233.870843 
L 145.681654 232.416777 
L 140.839902 231.188747 
L 142.229068 226.259779 
L 143.420017 221.279203 
L 144.410844 216.254985 
L 145.199963 211.195164 
L 145.786111 206.107833 
L 146.168352 201.001132 
L 146.346074 195.883231 
L 146.318992 190.762316 
L 146.08715 185.64658 
L 145.650918 180.544208 
L 145.010995 175.463361 
L 144.168404 170.412169 
L 143.124493 165.398712 
L 141.880932 160.431011 
L 140.439711 155.517012 
L 138.803135 150.664577 
L 136.973823 145.88147 
L 134.954701 141.175341 
L 132.748999 136.55372 
L 131.476203 134.085655 
L 136.588983 133.795856 
L 141.686084 133.301832 
L 146.759353 132.604374 
L 151.800672 131.704596 
L 156.801978 130.60394 
L 161.755268 129.304165 
L 166.65262 127.807351 
L 171.486197 126.115892 
L 176.248268 124.232495 
L 180.931213 122.160172 
L 185.527542 119.902239 
L 190.029902 117.462308 
L 194.431088 114.844283 
L 198.724061 112.052351 
L 202.901953 109.090979 
L 206.958079 105.964905 
L 210.885952 102.679129 
L 214.679286 99.238909 
L 218.332014 95.649748 
L 221.838292 91.917387 
L 225.192511 88.047798 
L 228.389305 84.047172 
L 231.423559 79.921908 
L 234.29042 75.678606 
L 236.9853 71.324054 
L 239.503889 66.865219 
L 241.178851 63.648 
L 243.570125 68.176389 
L 246.140574 72.60553 
L 248.886086 76.928338 
L 251.802267 81.137897 
L 254.884454 85.227473 
L 258.127714 89.190523 
L 261.52686 93.020707 
L 265.076453 96.711898 
L 268.770815 100.25819 
L 272.604036 103.653911 
L 276.569984 106.893627 
L 280.662313 109.972156 
L 284.874477 112.884574 
L 289.199738 115.62622 
L 293.631175 118.192708 
L 298.1617 120.579934 
L 302.784065 122.784077 
L 307.490874 124.801613 
L 312.274598 126.629312 
L 317.127585 128.264251 
L 322.042069 129.703814 
L 327.01019 130.9457 
L 332.023999 131.98792 
L 337.075475 132.828807 
L 340.370694 133.266217 
L 338.449306 138.013087 
L 336.719279 142.832994 
L 335.183381 147.718229 
L 333.844068 152.660975 
L 332.703484 157.653326 
L 331.763453 162.687295 
L 331.025479 167.754829 
L 330.490742 172.84782 
L 330.160099 177.958121 
L 330.034078 183.077557 
L 330.11288 188.197937 
L 330.39638 193.31107 
L 330.884124 198.408776 
L 331.575331 203.4829 
L 332.468897 208.525324 
L 333.563391 213.527982 
L 334.857062 218.48287 
L 336.218118 222.982255 
L 331.233735 224.157168 
L 326.300322 225.530463 
L 321.425772 227.099944 
L 316.617885 228.863099 
L 311.88435 230.817108 
L 307.232741 232.958845 
L 302.6705 235.284884 
L 298.204924 237.791502 
L 293.843159 240.474692 
L 289.592182 243.330159 
L 285.458793 246.353336 
L 281.449605 249.539386 
L 277.571032 252.883212 
L 273.829279 256.379465 
L 270.230332 260.022552 
L 266.779948 263.806644 
L 263.483648 267.725688 
L 260.346704 271.773414 
L 257.374135 275.943347 
L 254.570697 280.228815 
L 251.940874 284.622962 
L 251.495781 285.408 
L 248.896995 280.995425 
L 246.123832 276.690304 
L 243.180729 272.499523 
L 240.072393 268.429787 
L 236.803797 264.487607 
L 233.380171 260.679289 
L 229.806991 257.010926 
L 226.089974 253.488386 
L 222.235066 250.117305 
L 218.248435 246.903076 
L 214.136457 243.85084 
L 209.905712 240.965481 
L 205.562967 238.251615 
L 201.11517 235.713583 
L 196.569437 233.355446 
L 191.93304 231.180976 
L 187.213395 229.193651 
L 182.418054 227.396652 
L 177.554688 225.792852 
L 172.631078 224.384819 
L 167.655099 223.174803 
L 162.634713 222.164741 
L 157.577951 221.356249 
L 152.492902 220.750621 
L 147.387703 220.348824 
L 142.27052 220.151503 
L 137.149539 220.158972 
L 134.520049 220.242441 
L 137.177512 215.864954 
L 139.657797 211.384698 
L 141.956936 206.808842 
L 144.071249 202.144704 
L 145.997356 197.399748 
L 147.732175 192.581563 
L 149.27293 187.697857 
L 150.617156 182.756445 
L 151.762704 177.76523 
L 152.707739 172.732199 
L 153.450752 167.665401 
L 153.990552 162.572944 
L 154.326276 157.462975 
L 154.457387 152.343667 
L 154.383676 147.223211 
L 154.10526 142.109799 
L 153.622585 137.01161 
L 152.936423 131.936801 
L 152.047872 126.893491 
L 150.958352 121.889748 
L 149.669608 116.933576 
L 148.1837 112.032904 
L 146.696787 107.72283 
L 151.722111 106.73763 
L 156.704018 105.552259 
L 161.634538 104.168613 
L 166.505782 102.588905 
L 171.309959 100.815663 
L 176.039382 98.851723 
L 180.686486 96.700228 
L 185.243835 94.36462 
L 189.70414 91.848634 
L 194.060264 89.156296 
L 198.305239 86.291913 
L 202.432274 83.260068 
L 206.434766 80.065611 
L 210.306313 76.713651 
L 214.04072 73.209553 
L 217.632013 69.558921 
L 221.074447 65.767595 
L 222.882793 63.648 
L 226.241912 67.513335 
L 229.752917 71.24125 
L 233.41019 74.82578 
L 237.207881 78.261191 
L 241.139914 81.541987 
L 245.199998 84.662919 
L 249.381639 87.618994 
L 253.678146 90.405484 
L 258.082646 93.017931 
L 262.588094 95.452155 
L 267.18728 97.704262 
L 271.872848 99.770649 
L 276.637301 101.648011 
L 281.473018 103.333343 
L 286.372262 104.823951 
L 291.327195 106.117448 
L 296.329892 107.211766 
L 301.372347 108.105155 
L 306.446495 108.796184 
L 311.544219 109.283749 
L 316.657362 109.56707 
L 321.777745 109.645692 
L 326.666349 109.529595 
L 324.005231 113.904861 
L 321.521206 118.383044 
L 319.218248 122.956979 
L 317.10004 127.61935 
L 315.169972 132.362696 
L 313.43113 137.179431 
L 311.886298 142.061848 
L 310.537946 147.002136 
L 309.388231 151.992392 
L 308.438993 157.024633 
L 307.691751 162.090809 
L 307.147698 167.182813 
L 306.807707 172.292501 
L 306.672321 177.411697 
L 306.741757 182.532213 
L 307.015903 187.645856 
L 307.494321 192.744446 
L 308.176245 197.819826 
L 309.060585 202.863876 
L 310.145926 207.868528 
L 311.430531 212.825774 
L 312.912346 217.727684 
L 314.589 222.566417 
L 316.45781 227.334231 
L 318.515787 232.023499 
L 320.759639 236.626719 
L 323.185775 241.136526 
L 324.461147 243.345926 
L 324.461147 243.345926 
" style="fill:none;stroke:#1f77b4;stroke-linecap:square;stroke-width:1.5;"/>
   </g>
   <g id="patch_4">
    <path d="M 82.520165 307.584 
L 82.520165 41.472 
" style="fill:none;stroke:#000000;stroke-linecap:square;stroke-linejoin:miter;stroke-width:0.8;"/>
   </g>
   <g id="patch_5">
    <path d="M 389.799835 307.584 
L 389.799835 41.472 
" style="fill:none;stroke:#000000;stroke-linecap:square;stroke-linejoin:miter;stroke-width:0.8;"/>
   </g>
   <g id="patch_6">
    <path d="M 82.520165 307.584 
L 389.799835 307.584 
" style="fill:none;stroke:#000000;stroke-linecap:square;stroke-linejoin:miter;stroke-width:0.8;"/>
   </g>
   <g id="patch_7">
    <path d="M 82.520165 41.472 
L 389.799835 41.472 
" style="fill:none;stroke:#000000;stroke-linecap:square;stroke-linejoin:miter;stroke-width:0.8;"/>
   </g>
  </g>
 </g>
 <defs>
  <clipPath id="pdc66fc002e">
   <rect height="266.112" width="307.27967" x="82.520165" y="41.472"/>
  </clipPath>
 </defs>
</svg>
