<?xml version="1.0" encoding="utf-8" standalone="no"?>
<!DOCTYPE svg PUBLIC "-//W3C//DTD SVG 1.1//EN"
  "http://www.w3.org/Graphics/SVG/1.1/DTD/svg11.dtd">
<!-- Created with matplotlib (https://matplotlib.org/) -->
<svg height="345.6pt" version="1.1" viewBox="0 0 460.8 345.6" width="460.8pt" xmlns="http://www.w3.org/2000/svg" xmlns:xlink="http://www.w3.org/1999/xlink">
 <defs>
  <style type="text/css">
*{stroke-linecap:butt;stroke-linejoin:round;}
  </style>
 </defs>
 <g id="figure_1">
  <g id="patch_1">
   <path d="M 0 345.6 
L 460.8 345.6 
L 460.8 0 
L 0 0 
z
" style="fill:#ffffff;"/>
  </g>
  <g id="axes_1">
   <g id="patch_2">
    <path d="M 57.6 263.808 
L 414.72 263.808 
L 414.72 85.248 
L 57.6 85.248 
z
" style="fill:#ffffff;"/>
   </g>
   <g id="PathCollection_1">
    <defs>
     <path d="M 0 3 
C 0.795609 3 1.55874 2.683901 2.12132 2.12132 
C 2.683901 1.55874 3 0.795609 3 0 
C 3 -0.795609 2.683901 -1.55874 2.12132 -2.12132 
C 1.55874 -2.683901 0.795609 -3 0 -3 
C -0.795609 -3 -1.55874 -2.683901 -2.12132 -2.12132 
C -2.683901 -1.55874 -3 -0.795609 -3 0 
C -3 0.795609 -2.683901 1.55874 -2.12132 2.12132 
C -1.55874 2.683901 -0.795609 3 0 3 
z
" id="m8f24429b11" style="stroke:#000000;"/>
    </defs>
    <g clip-path="url(#p800459dee9)">
     <use style="stroke:#000000;" x="211.416173" xlink:href="#m8f24429b11" y="194.526177"/>
    </g>
   </g>
   <g id="patch_3">
    <path clip-path="url(#p800459dee9)" d="M 161.76 211.728 
C 171.625555 211.728 181.088371 207.808373 188.064372 200.832372 
C 195.040373 193.856371 198.96 184.393555 198.96 174.528 
C 198.96 164.662445 195.040373 155.199629 188.064372 148.223628 
C 181.088371 141.247627 171.625555 137.328 161.76 137.328 
C 151.894445 137.328 142.431629 141.247627 135.455628 148.223628 
C 128.479627 155.199629 124.56 164.662445 124.56 174.528 
C 124.56 184.393555 128.479627 193.856371 135.455628 200.832372 
C 142.431629 207.808373 151.894445 211.728 161.76 211.728 
z
" style="fill:#cc0000;fill-opacity:0.1;stroke:#cc0000;stroke-dasharray:7.4,3.2;stroke-dashoffset:0;stroke-linejoin:miter;stroke-width:2;"/>
   </g>
   <g id="patch_4">
    <path clip-path="url(#p800459dee9)" d="M 310.56 196.848 
C 316.479333 196.848 322.157023 194.496224 326.342623 190.310623 
C 330.528224 186.125023 332.88 180.447333 332.88 174.528 
C 332.88 168.608667 330.528224 162.930977 326.342623 158.745377 
C 322.157023 154.559776 316.479333 152.208 310.56 152.208 
C 304.640667 152.208 298.962977 154.559776 294.777377 158.745377 
C 290.591776 162.930977 288.24 168.608667 288.24 174.528 
C 288.24 180.447333 290.591776 186.125023 294.777377 190.310623 
C 298.962977 194.496224 304.640667 196.848 310.56 196.848 
z
" style="fill:#cc0000;fill-opacity:0.1;stroke:#cc0000;stroke-dasharray:7.4,3.2;stroke-dashoffset:0;stroke-linejoin:miter;stroke-width:2;"/>
   </g>
   <g id="matplotlib.axis_1">
    <g id="xtick_1">
     <g id="line2d_1">
      <defs>
       <path d="M 0 0 
L 0 3.5 
" id="m53686effbc" style="stroke:#000000;stroke-width:0.8;"/>
      </defs>
      <g>
       <use style="stroke:#000000;stroke-width:0.8;" x="87.36" xlink:href="#m53686effbc" y="263.808"/>
      </g>
     </g>
     <g id="text_1">
      <!-- 0.0 -->
      <defs>
       <path d="M 31.78125 66.40625 
Q 24.171875 66.40625 20.328125 58.90625 
Q 16.5 51.421875 16.5 36.375 
Q 16.5 21.390625 20.328125 13.890625 
Q 24.171875 6.390625 31.78125 6.390625 
Q 39.453125 6.390625 43.28125 13.890625 
Q 47.125 21.390625 47.125 36.375 
Q 47.125 51.421875 43.28125 58.90625 
Q 39.453125 66.40625 31.78125 66.40625 
z
M 31.78125 74.21875 
Q 44.046875 74.21875 50.515625 64.515625 
Q 56.984375 54.828125 56.984375 36.375 
Q 56.984375 17.96875 50.515625 8.265625 
Q 44.046875 -1.421875 31.78125 -1.421875 
Q 19.53125 -1.421875 13.0625 8.265625 
Q 6.59375 17.96875 6.59375 36.375 
Q 6.59375 54.828125 13.0625 64.515625 
Q 19.53125 74.21875 31.78125 74.21875 
z
" id="DejaVuSans-48"/>
       <path d="M 10.6875 12.40625 
L 21 12.40625 
L 21 0 
L 10.6875 0 
z
" id="DejaVuSans-46"/>
      </defs>
      <g transform="translate(79.408438 278.406437)scale(0.1 -0.1)">
       <use xlink:href="#DejaVuSans-48"/>
       <use x="63.623047" xlink:href="#DejaVuSans-46"/>
       <use x="95.410156" xlink:href="#DejaVuSans-48"/>
      </g>
     </g>
    </g>
    <g id="xtick_2">
     <g id="line2d_2">
      <g>
       <use style="stroke:#000000;stroke-width:0.8;" x="161.76" xlink:href="#m53686effbc" y="263.808"/>
      </g>
     </g>
     <g id="text_2">
      <!-- 0.5 -->
      <defs>
       <path d="M 10.796875 72.90625 
L 49.515625 72.90625 
L 49.515625 64.59375 
L 19.828125 64.59375 
L 19.828125 46.734375 
Q 21.96875 47.46875 24.109375 47.828125 
Q 26.265625 48.1875 28.421875 48.1875 
Q 40.625 48.1875 47.75 41.5 
Q 54.890625 34.8125 54.890625 23.390625 
Q 54.890625 11.625 47.5625 5.09375 
Q 40.234375 -1.421875 26.90625 -1.421875 
Q 22.3125 -1.421875 17.546875 -0.640625 
Q 12.796875 0.140625 7.71875 1.703125 
L 7.71875 11.625 
Q 12.109375 9.234375 16.796875 8.0625 
Q 21.484375 6.890625 26.703125 6.890625 
Q 35.15625 6.890625 40.078125 11.328125 
Q 45.015625 15.765625 45.015625 23.390625 
Q 45.015625 31 40.078125 35.4375 
Q 35.15625 39.890625 26.703125 39.890625 
Q 22.75 39.890625 18.8125 39.015625 
Q 14.890625 38.140625 10.796875 36.28125 
z
" id="DejaVuSans-53"/>
      </defs>
      <g transform="translate(153.808437 278.406437)scale(0.1 -0.1)">
       <use xlink:href="#DejaVuSans-48"/>
       <use x="63.623047" xlink:href="#DejaVuSans-46"/>
       <use x="95.410156" xlink:href="#DejaVuSans-53"/>
      </g>
     </g>
    </g>
    <g id="xtick_3">
     <g id="line2d_3">
      <g>
       <use style="stroke:#000000;stroke-width:0.8;" x="236.16" xlink:href="#m53686effbc" y="263.808"/>
      </g>
     </g>
     <g id="text_3">
      <!-- 1.0 -->
      <defs>
       <path d="M 12.40625 8.296875 
L 28.515625 8.296875 
L 28.515625 63.921875 
L 10.984375 60.40625 
L 10.984375 69.390625 
L 28.421875 72.90625 
L 38.28125 72.90625 
L 38.28125 8.296875 
L 54.390625 8.296875 
L 54.390625 0 
L 12.40625 0 
z
" id="DejaVuSans-49"/>
      </defs>
      <g transform="translate(228.208437 278.406437)scale(0.1 -0.1)">
       <use xlink:href="#DejaVuSans-49"/>
       <use x="63.623047" xlink:href="#DejaVuSans-46"/>
       <use x="95.410156" xlink:href="#DejaVuSans-48"/>
      </g>
     </g>
    </g>
    <g id="xtick_4">
     <g id="line2d_4">
      <g>
       <use style="stroke:#000000;stroke-width:0.8;" x="310.56" xlink:href="#m53686effbc" y="263.808"/>
      </g>
     </g>
     <g id="text_4">
      <!-- 1.5 -->
      <g transform="translate(302.608437 278.406437)scale(0.1 -0.1)">
       <use xlink:href="#DejaVuSans-49"/>
       <use x="63.623047" xlink:href="#DejaVuSans-46"/>
       <use x="95.410156" xlink:href="#DejaVuSans-53"/>
      </g>
     </g>
    </g>
    <g id="xtick_5">
     <g id="line2d_5">
      <g>
       <use style="stroke:#000000;stroke-width:0.8;" x="384.96" xlink:href="#m53686effbc" y="263.808"/>
      </g>
     </g>
     <g id="text_5">
      <!-- 2.0 -->
      <defs>
       <path d="M 19.1875 8.296875 
L 53.609375 8.296875 
L 53.609375 0 
L 7.328125 0 
L 7.328125 8.296875 
Q 12.9375 14.109375 22.625 23.890625 
Q 32.328125 33.6875 34.8125 36.53125 
Q 39.546875 41.84375 41.421875 45.53125 
Q 43.3125 49.21875 43.3125 52.78125 
Q 43.3125 58.59375 39.234375 62.25 
Q 35.15625 65.921875 28.609375 65.921875 
Q 23.96875 65.921875 18.8125 64.3125 
Q 13.671875 62.703125 7.8125 59.421875 
L 7.8125 69.390625 
Q 13.765625 71.78125 18.9375 73 
Q 24.125 74.21875 28.421875 74.21875 
Q 39.75 74.21875 46.484375 68.546875 
Q 53.21875 62.890625 53.21875 53.421875 
Q 53.21875 48.921875 51.53125 44.890625 
Q 49.859375 40.875 45.40625 35.40625 
Q 44.1875 33.984375 37.640625 27.21875 
Q 31.109375 20.453125 19.1875 8.296875 
z
" id="DejaVuSans-50"/>
      </defs>
      <g transform="translate(377.008437 278.406437)scale(0.1 -0.1)">
       <use xlink:href="#DejaVuSans-50"/>
       <use x="63.623047" xlink:href="#DejaVuSans-46"/>
       <use x="95.410156" xlink:href="#DejaVuSans-48"/>
      </g>
     </g>
    </g>
   </g>
   <g id="matplotlib.axis_2">
    <g id="ytick_1">
     <g id="line2d_6">
      <defs>
       <path d="M 0 0 
L -3.5 0 
" id="m6aa4f42f03" style="stroke:#000000;stroke-width:0.8;"/>
      </defs>
      <g>
       <use style="stroke:#000000;stroke-width:0.8;" x="57.6" xlink:href="#m6aa4f42f03" y="248.928"/>
      </g>
     </g>
     <g id="text_6">
      <!-- 0.0 -->
      <g transform="translate(34.696875 252.727219)scale(0.1 -0.1)">
       <use xlink:href="#DejaVuSans-48"/>
       <use x="63.623047" xlink:href="#DejaVuSans-46"/>
       <use x="95.410156" xlink:href="#DejaVuSans-48"/>
      </g>
     </g>
    </g>
    <g id="ytick_2">
     <g id="line2d_7">
      <g>
       <use style="stroke:#000000;stroke-width:0.8;" x="57.6" xlink:href="#m6aa4f42f03" y="219.168"/>
      </g>
     </g>
     <g id="text_7">
      <!-- 0.2 -->
      <g transform="translate(34.696875 222.967219)scale(0.1 -0.1)">
       <use xlink:href="#DejaVuSans-48"/>
       <use x="63.623047" xlink:href="#DejaVuSans-46"/>
       <use x="95.410156" xlink:href="#DejaVuSans-50"/>
      </g>
     </g>
    </g>
    <g id="ytick_3">
     <g id="line2d_8">
      <g>
       <use style="stroke:#000000;stroke-width:0.8;" x="57.6" xlink:href="#m6aa4f42f03" y="189.408"/>
      </g>
     </g>
     <g id="text_8">
      <!-- 0.4 -->
      <defs>
       <path d="M 37.796875 64.3125 
L 12.890625 25.390625 
L 37.796875 25.390625 
z
M 35.203125 72.90625 
L 47.609375 72.90625 
L 47.609375 25.390625 
L 58.015625 25.390625 
L 58.015625 17.1875 
L 47.609375 17.1875 
L 47.609375 0 
L 37.796875 0 
L 37.796875 17.1875 
L 4.890625 17.1875 
L 4.890625 26.703125 
z
" id="DejaVuSans-52"/>
      </defs>
      <g transform="translate(34.696875 193.207219)scale(0.1 -0.1)">
       <use xlink:href="#DejaVuSans-48"/>
       <use x="63.623047" xlink:href="#DejaVuSans-46"/>
       <use x="95.410156" xlink:href="#DejaVuSans-52"/>
      </g>
     </g>
    </g>
    <g id="ytick_4">
     <g id="line2d_9">
      <g>
       <use style="stroke:#000000;stroke-width:0.8;" x="57.6" xlink:href="#m6aa4f42f03" y="159.648"/>
      </g>
     </g>
     <g id="text_9">
      <!-- 0.6 -->
      <defs>
       <path d="M 33.015625 40.375 
Q 26.375 40.375 22.484375 35.828125 
Q 18.609375 31.296875 18.609375 23.390625 
Q 18.609375 15.53125 22.484375 10.953125 
Q 26.375 6.390625 33.015625 6.390625 
Q 39.65625 6.390625 43.53125 10.953125 
Q 47.40625 15.53125 47.40625 23.390625 
Q 47.40625 31.296875 43.53125 35.828125 
Q 39.65625 40.375 33.015625 40.375 
z
M 52.59375 71.296875 
L 52.59375 62.3125 
Q 48.875 64.0625 45.09375 64.984375 
Q 41.3125 65.921875 37.59375 65.921875 
Q 27.828125 65.921875 22.671875 59.328125 
Q 17.53125 52.734375 16.796875 39.40625 
Q 19.671875 43.65625 24.015625 45.921875 
Q 28.375 48.1875 33.59375 48.1875 
Q 44.578125 48.1875 50.953125 41.515625 
Q 57.328125 34.859375 57.328125 23.390625 
Q 57.328125 12.15625 50.6875 5.359375 
Q 44.046875 -1.421875 33.015625 -1.421875 
Q 20.359375 -1.421875 13.671875 8.265625 
Q 6.984375 17.96875 6.984375 36.375 
Q 6.984375 53.65625 15.1875 63.9375 
Q 23.390625 74.21875 37.203125 74.21875 
Q 40.921875 74.21875 44.703125 73.484375 
Q 48.484375 72.75 52.59375 71.296875 
z
" id="DejaVuSans-54"/>
      </defs>
      <g transform="translate(34.696875 163.447219)scale(0.1 -0.1)">
       <use xlink:href="#DejaVuSans-48"/>
       <use x="63.623047" xlink:href="#DejaVuSans-46"/>
       <use x="95.410156" xlink:href="#DejaVuSans-54"/>
      </g>
     </g>
    </g>
    <g id="ytick_5">
     <g id="line2d_10">
      <g>
       <use style="stroke:#000000;stroke-width:0.8;" x="57.6" xlink:href="#m6aa4f42f03" y="129.888"/>
      </g>
     </g>
     <g id="text_10">
      <!-- 0.8 -->
      <defs>
       <path d="M 31.78125 34.625 
Q 24.75 34.625 20.71875 30.859375 
Q 16.703125 27.09375 16.703125 20.515625 
Q 16.703125 13.921875 20.71875 10.15625 
Q 24.75 6.390625 31.78125 6.390625 
Q 38.8125 6.390625 42.859375 10.171875 
Q 46.921875 13.96875 46.921875 20.515625 
Q 46.921875 27.09375 42.890625 30.859375 
Q 38.875 34.625 31.78125 34.625 
z
M 21.921875 38.8125 
Q 15.578125 40.375 12.03125 44.71875 
Q 8.5 49.078125 8.5 55.328125 
Q 8.5 64.0625 14.71875 69.140625 
Q 20.953125 74.21875 31.78125 74.21875 
Q 42.671875 74.21875 48.875 69.140625 
Q 55.078125 64.0625 55.078125 55.328125 
Q 55.078125 49.078125 51.53125 44.71875 
Q 48 40.375 41.703125 38.8125 
Q 48.828125 37.15625 52.796875 32.3125 
Q 56.78125 27.484375 56.78125 20.515625 
Q 56.78125 9.90625 50.3125 4.234375 
Q 43.84375 -1.421875 31.78125 -1.421875 
Q 19.734375 -1.421875 13.25 4.234375 
Q 6.78125 9.90625 6.78125 20.515625 
Q 6.78125 27.484375 10.78125 32.3125 
Q 14.796875 37.15625 21.921875 38.8125 
z
M 18.3125 54.390625 
Q 18.3125 48.734375 21.84375 45.5625 
Q 25.390625 42.390625 31.78125 42.390625 
Q 38.140625 42.390625 41.71875 45.5625 
Q 45.3125 48.734375 45.3125 54.390625 
Q 45.3125 60.0625 41.71875 63.234375 
Q 38.140625 66.40625 31.78125 66.40625 
Q 25.390625 66.40625 21.84375 63.234375 
Q 18.3125 60.0625 18.3125 54.390625 
z
" id="DejaVuSans-56"/>
      </defs>
      <g transform="translate(34.696875 133.687219)scale(0.1 -0.1)">
       <use xlink:href="#DejaVuSans-48"/>
       <use x="63.623047" xlink:href="#DejaVuSans-46"/>
       <use x="95.410156" xlink:href="#DejaVuSans-56"/>
      </g>
     </g>
    </g>
    <g id="ytick_6">
     <g id="line2d_11">
      <g>
       <use style="stroke:#000000;stroke-width:0.8;" x="57.6" xlink:href="#m6aa4f42f03" y="100.128"/>
      </g>
     </g>
     <g id="text_11">
      <!-- 1.0 -->
      <g transform="translate(34.696875 103.927219)scale(0.1 -0.1)">
       <use xlink:href="#DejaVuSans-49"/>
       <use x="63.623047" xlink:href="#DejaVuSans-46"/>
       <use x="95.410156" xlink:href="#DejaVuSans-48"/>
      </g>
     </g>
    </g>
   </g>
   <g id="line2d_12">
    <path clip-path="url(#p800459dee9)" d="M 236.16 248.928 
L 236.16 100.128 
" style="fill:none;stroke:#cc0000;stroke-dasharray:7.4,3.2;stroke-dashoffset:0;stroke-width:2;"/>
   </g>
   <g id="line2d_13">
    <path clip-path="url(#p800459dee9)" d="M 87.36 248.928 
L 384.96 248.928 
" style="fill:none;stroke:#009900;stroke-linecap:square;stroke-width:2;"/>
   </g>
   <g id="line2d_14">
    <path clip-path="url(#p800459dee9)" d="M 384.96 248.928 
L 384.96 100.128 
" style="fill:none;stroke:#009900;stroke-linecap:square;stroke-width:2;"/>
   </g>
   <g id="line2d_15">
    <path clip-path="url(#p800459dee9)" d="M 384.96 100.128 
L 87.36 100.128 
" style="fill:none;stroke:#009900;stroke-linecap:square;stroke-width:2;"/>
   </g>
   <g id="line2d_16">
    <path clip-path="url(#p800459dee9)" d="M 87.36 100.128 
L 87.36 248.928 
" style="fill:none;stroke:#009900;stroke-linecap:square;stroke-width:2;"/>
   </g>
   <g id="line2d_17">
    <path clip-path="url(#p800459dee9)" d="M 211.416173 194.526177 
L 217.211119 195.88271 
L 223.055676 197.006422 
L 228.940495 197.895516 
L 234.856161 198.548568 
L 237.64692 198.71703 
L 245.084745 198.888703 
L 252.524538 198.874396 
L 259.961648 198.674118 
L 267.391427 198.287994 
L 274.809233 197.716266 
L 282.210429 196.959291 
L 289.59039 196.017541 
L 296.944504 194.891606 
L 300.249828 194.324029 
L 303.467617 201.031975 
L 306.852082 207.657389 
L 310.401108 214.19613 
L 314.112476 220.644112 
L 317.983867 226.997303 
L 322.012862 233.251735 
L 326.196942 239.403499 
L 330.533493 245.448748 
L 333.135181 248.928 
L 337.559517 242.946698 
L 341.832953 236.856669 
L 345.95282 230.661718 
L 349.916541 224.365717 
L 353.72164 217.9726 
L 357.365739 211.486364 
L 360.84656 204.911062 
L 364.161927 198.250802 
L 367.30977 191.509749 
L 370.28812 184.692114 
L 373.095117 177.802158 
L 375.729005 170.844188 
L 378.188139 163.822552 
L 380.470983 156.741638 
L 382.576108 149.605871 
L 384.5022 142.419712 
L 384.96 140.598104 
L 383.0793 133.399931 
L 381.019253 126.251021 
L 378.781145 119.15584 
L 376.366376 112.118823 
L 373.776454 105.144368 
L 371.789546 100.128 
L 369.073607 107.054355 
L 366.531657 114.046437 
L 364.165286 121.099876 
L 361.975971 128.210264 
L 359.965082 135.373158 
L 358.133875 142.58408 
L 356.483495 149.838524 
L 355.014972 157.131957 
L 353.729226 164.459819 
L 352.627058 171.817532 
L 351.709159 179.200498 
L 350.976101 186.604101 
L 350.428343 194.023716 
L 350.066227 201.454704 
L 349.88998 208.892422 
L 349.899712 216.332222 
L 350.095416 223.769454 
L 350.47697 231.19947 
L 351.044136 238.617626 
L 351.79656 246.019286 
L 352.143542 248.928 
L 352.968785 241.534104 
L 353.608941 234.12189 
L 354.063611 226.69599 
L 354.332511 219.261045 
L 354.415473 211.821701 
L 354.312444 204.382609 
L 354.02349 196.948416 
L 353.54879 189.523769 
L 352.888642 182.113309 
L 352.043458 174.721666 
L 351.013767 167.353461 
L 349.800211 160.013297 
L 348.40355 152.705763 
L 346.824655 145.435426 
L 345.064515 138.206828 
L 343.124228 131.024488 
L 341.005008 123.892895 
L 338.708179 116.816505 
L 336.235176 109.799741 
L 333.587545 102.846989 
L 332.497539 100.128 
L 329.7816 107.054355 
L 327.239651 114.046437 
L 324.873279 121.099876 
L 322.683965 128.210264 
L 320.673076 135.373158 
L 318.841869 142.58408 
L 317.191488 149.838524 
L 315.804295 155.907265 
L 314.185518 161.634493 
L 312.339008 167.292406 
L 310.267718 172.871953 
L 307.974964 178.364207 
L 305.464411 183.760382 
L 302.740077 189.051846 
L 299.870522 194.121812 
L 302.641166 188.854449 
L 305.620231 183.702095 
L 308.802952 178.672993 
L 312.184239 173.775189 
L 315.75868 169.016518 
L 319.520558 164.404593 
L 323.463856 159.946792 
L 325.414482 157.868865 
L 324.458163 159.008857 
L 320.520345 163.471498 
L 316.407219 167.773099 
L 312.125364 171.906778 
L 307.681631 175.865922 
L 303.08313 179.644197 
L 298.337216 183.235559 
L 293.451482 186.634263 
L 292.314561 187.384374 
L 293.504491 186.490959 
L 298.351756 183.037612 
L 303.333241 179.780867 
L 308.440976 176.725932 
L 313.66679 173.877697 
L 319.002324 171.240716 
L 324.43904 168.819209 
L 329.968242 166.61705 
L 331.245653 166.144315 
L 329.884115 166.744599 
L 324.379988 169.008702 
L 318.789723 171.050887 
L 313.122264 172.867888 
L 307.386678 174.456798 
L 301.592141 175.815074 
L 295.747921 176.940545 
L 289.86337 177.831408 
L 285.548334 178.272292 
L 278.1522 179.077221 
L 270.778498 180.066784 
L 263.431836 181.24036 
L 256.116807 182.597217 
L 248.837981 184.136506 
L 241.599908 185.857267 
L 236.16 187.27735 
L 243.364275 189.134537 
L 250.612723 190.811057 
L 257.900814 192.305859 
L 265.223995 193.618012 
L 272.577687 194.746694 
L 279.957296 195.6912 
L 287.358209 196.45094 
L 294.775801 197.025439 
L 302.205436 197.414338 
L 309.642471 197.617394 
L 317.082257 197.63448 
L 324.520146 197.465586 
L 331.951489 197.110816 
L 339.371641 196.570393 
L 346.775966 195.844655 
L 354.159835 194.934054 
L 361.518634 193.83916 
L 368.847764 192.560658 
L 376.142645 191.099346 
L 383.398717 189.456138 
L 384.96 189.077535 
L 377.712904 187.39518 
L 370.426018 185.89451 
L 363.103897 184.576461 
L 355.751115 183.441859 
L 348.372269 182.491411 
L 340.97197 181.725713 
L 333.554844 181.145242 
L 331.908411 181.04166 
L 326.073206 179.870348 
L 320.28951 178.466626 
L 314.566573 176.832742 
L 308.913553 174.971307 
L 303.339491 172.885302 
L 297.853306 170.578062 
L 292.463775 168.053278 
L 289.678934 166.643618 
L 295.425896 168.190875 
L 301.106388 169.966711 
L 306.711322 171.968286 
L 312.23173 174.192397 
L 317.658782 176.635487 
L 322.983795 179.293646 
L 328.198251 182.162624 
L 330.885815 183.749912 
L 325.251288 181.833225 
L 319.697915 179.69275 
L 314.234581 177.331911 
L 308.870025 174.754486 
L 303.61283 171.964597 
L 298.471406 168.966709 
L 293.453977 165.765616 
L 290.875006 164.007382 
L 296.373376 166.28543 
L 301.776251 168.781533 
L 307.074986 171.491696 
L 312.261105 174.411585 
L 317.326311 177.536527 
L 322.262502 180.861524 
L 327.06178 184.381256 
L 329.521302 186.303034 
L 324.182236 183.673214 
L 318.952605 180.831992 
L 313.840776 177.783914 
L 308.854926 174.533854 
L 304.003033 171.087014 
L 299.292857 167.448907 
L 294.731934 163.625353 
L 292.402215 161.548121 
L 297.559501 164.518641 
L 302.593872 167.693021 
L 307.497274 171.066183 
L 312.261864 174.632731 
L 316.880019 178.386959 
L 321.344351 182.322861 
L 325.647718 186.43414 
L 327.837825 188.65808 
L 322.884032 185.359365 
L 318.066115 181.865191 
L 313.391782 178.181146 
L 308.86851 174.313124 
L 304.503535 170.267314 
L 300.303842 166.050188 
L 296.276148 161.668492 
L 294.234872 159.307206 
L 298.964317 162.920227 
L 303.545497 166.719486 
L 307.971083 170.698904 
L 312.233995 174.852116 
L 316.327413 179.172476 
L 320.244788 183.653073 
L 323.979853 188.28674 
L 325.863705 190.775431 
L 321.378517 186.863313 
L 317.053359 182.774964 
L 312.895152 178.516926 
L 308.910547 174.096009 
L 305.105919 169.519287 
L 301.487354 164.794081 
L 298.060641 159.927951 
L 296.342146 157.322332 
L 300.564194 161.517077 
L 304.61512 165.877304 
L 308.488443 170.396038 
L 312.177966 175.066048 
L 315.677788 179.879864 
L 318.982309 184.829786 
L 322.086243 189.907893 
L 323.632148 192.619472 
L 319.691014 188.159758 
L 315.931373 183.546009 
L 312.359241 178.785604 
L 308.980331 173.88616 
L 305.80005 168.855515 
L 302.823485 163.701717 
L 300.055397 158.43301 
L 298.68859 155.626888 
L 302.332218 160.332794 
L 305.784746 165.180643 
L 309.04065 170.162678 
L 312.094721 175.270929 
L 314.942073 180.497225 
L 317.578152 185.833203 
L 319.99874 191.270329 
L 321.180694 194.159181 
L 317.849911 189.226893 
L 314.719031 184.165354 
L 311.793063 178.982662 
L 309.076689 173.687109 
L 306.574252 168.287165 
L 304.289757 162.79147 
L 302.226859 157.208815 
L 301.234734 154.249395 
L 304.238649 159.387301 
L 307.0347 164.641221 
L 309.618415 170.002751 
L 311.985658 175.463313 
L 314.132643 181.014172 
L 316.055936 186.646447 
L 317.75246 192.351128 
L 318.550581 195.368658 
L 315.886179 190.046765 
L 313.436727 184.622582 
L 311.206144 179.104785 
L 309.197998 173.502203 
L 307.415502 167.823797 
L 305.861507 162.078653 
L 304.5385 156.275961 
L 303.937745 153.213026 
L 306.251416 158.696501 
L 308.343957 164.268113 
L 310.212019 169.918947 
L 311.852613 175.639963 
L 313.263115 181.42201 
L 314.441269 187.255837 
L 315.38519 193.132111 
L 315.786051 196.227557 
L 313.83285 190.605584 
L 312.10603 184.91 
L 310.608354 179.149918 
L 309.342218 173.334552 
L 308.309647 167.473206 
L 307.512294 161.575256 
L 306.951433 155.650139 
L 306.752154 152.535212 
L 308.336662 158.272016 
L 309.690491 164.067594 
L 310.811476 169.912675 
L 311.697824 175.797908 
L 312.348116 181.713878 
L 312.761312 187.651121 
L 312.936752 193.600138 
L 312.93361 196.721431 
L 312.064873 204.110342 
L 311.381111 211.518661 
L 310.882751 218.941757 
L 310.570105 226.374991 
L 310.443368 233.813718 
L 310.502619 241.253288 
L 310.758789 248.928 
L 311.009969 241.492435 
L 311.0752 234.052915 
L 310.954442 226.614089 
L 310.64777 219.180606 
L 310.155377 211.757111 
L 309.477569 204.348246 
L 308.566044 195.272997 
L 308.622628 189.321663 
L 308.917156 183.377352 
L 309.449158 177.449573 
L 310.217783 171.547811 
L 311.2218 165.681507 
L 312.459603 159.860044 
L 313.929213 154.092737 
L 314.36854 152.535333 
L 313.877718 158.466662 
L 313.150098 164.37362 
L 312.186844 170.246756 
L 310.989499 176.076674 
L 309.559977 181.854048 
L 307.900564 187.569634 
L 306.013917 193.214291 
L 304.940081 196.128901 
L 301.638209 202.795861 
L 298.504026 209.543277 
L 295.539491 216.36693 
L 292.746455 223.262557 
L 290.126664 230.225847 
L 287.681757 237.25245 
L 285.41326 244.337973 
L 284.047029 248.928 
L 281.892844 241.80689 
L 279.561323 234.741855 
L 277.053923 227.737309 
L 274.372211 220.79763 
L 271.517863 213.927156 
L 268.492663 207.13018 
L 265.298502 200.41095 
L 261.937376 193.773666 
L 258.411385 187.222475 
L 254.722733 180.761471 
L 250.873726 174.394693 
L 246.866768 168.12612 
L 242.704365 161.959669 
L 238.389117 155.899195 
L 236.16 152.889877 
L 240.55117 146.884184 
L 244.79084 140.7706 
L 248.876363 134.552946 
L 252.805183 128.235107 
L 256.574846 121.821032 
L 260.182996 115.31473 
L 263.627378 108.720266 
L 266.90584 102.041763 
L 267.807468 100.128 
L 271.038372 106.82964 
L 274.43579 113.448421 
L 277.997598 119.980208 
L 281.721571 126.420918 
L 285.605382 132.766525 
L 289.646602 139.013065 
L 293.842707 145.156632 
L 298.191074 151.193388 
L 300.681777 154.512928 
L 298.634645 147.360308 
L 296.409355 140.261097 
L 294.007299 133.21973 
L 291.429977 126.240609 
L 288.679002 119.328095 
L 285.75609 112.486509 
L 282.663071 105.720125 
L 279.950043 100.128 
L 276.716387 106.828312 
L 273.651232 113.607364 
L 270.756494 120.460918 
L 268.033981 127.384692 
L 265.485395 134.374358 
L 263.112328 141.425547 
L 260.916265 148.533854 
L 258.898577 155.694835 
L 257.060526 162.904016 
L 255.40326 170.15689 
L 253.927814 177.448925 
L 252.635111 184.775564 
L 251.52596 192.132227 
L 250.601052 199.514318 
L 249.860966 206.917222 
L 249.306165 214.336313 
L 248.936995 221.766955 
L 248.753688 229.204502 
L 248.756357 236.644308 
L 248.945 244.081722 
L 249.168134 248.928 
L 249.477992 241.494649 
L 249.601938 234.055875 
L 249.539896 226.616328 
L 249.291904 219.180656 
L 248.858117 211.753507 
L 248.238807 204.339522 
L 247.434359 196.943335 
L 246.445277 189.569568 
L 245.27218 182.22283 
L 243.9158 174.907712 
L 242.376984 167.628786 
L 240.656696 160.390601 
L 238.756009 153.197681 
L 236.676112 146.05452 
L 236.16 144.378863 
L 238.281946 137.24808 
L 240.224977 130.066483 
L 241.98788 122.838558 
L 243.569553 115.568825 
L 244.969007 108.261825 
L 246.305698 100.128 
L 247.502246 107.470955 
L 248.881974 114.781705 
L 250.444021 122.055681 
L 252.18741 129.288337 
L 254.111052 136.475153 
L 256.213745 143.611637 
L 258.494174 150.693328 
L 260.950914 157.715803 
L 263.58243 164.67467 
L 266.387078 171.565582 
L 269.363104 178.384232 
L 272.508648 185.126359 
L 275.821745 191.787748 
L 279.300325 198.364237 
L 282.942212 204.851715 
L 286.745131 211.246128 
L 290.706706 217.54348 
L 294.82446 223.739835 
L 299.09582 229.831321 
L 303.518117 235.814131 
L 308.088586 241.684525 
L 312.804372 247.438834 
L 314.06457 248.928 
L 318.817975 243.204727 
L 323.426827 237.364419 
L 327.888247 231.410727 
L 332.199446 225.347371 
L 336.35773 219.178142 
L 340.3605 212.906893 
L 344.205254 206.537546 
L 347.889589 200.074081 
L 351.411203 193.520536 
L 354.767896 186.881008 
L 357.957568 180.159646 
L 360.978227 173.360651 
L 363.827986 166.488271 
L 366.505062 159.546803 
L 369.007783 152.540584 
L 371.334584 145.473993 
L 373.484012 138.351446 
L 375.454724 131.177395 
L 377.245487 123.956322 
L 378.855182 116.692742 
L 380.282804 109.391193 
L 381.52746 102.056239 
L 381.823441 100.128 
L 383.019989 107.470955 
L 384.399717 114.781705 
L 384.96 117.494282 
L 383.512289 124.791874 
L 382.247452 132.123375 
L 381.166278 139.484202 
L 380.269443 146.869756 
L 379.557509 154.27542 
L 379.030919 161.696567 
L 378.690003 169.128558 
L 378.534974 176.566749 
L 378.565928 184.006491 
L 378.782848 191.443134 
L 379.185596 198.872031 
L 379.773921 206.288539 
L 380.547456 213.688023 
L 381.505718 221.065858 
L 382.648106 228.417434 
L 383.973907 235.738156 
L 384.96 240.602703 
L 383.323596 248.928 
L 381.901516 241.62537 
L 380.297334 234.36057 
L 378.512052 227.138141 
L 376.546786 219.962596 
L 374.402765 212.838419 
L 372.081327 205.770064 
L 369.583924 198.761948 
L 366.912117 191.81845 
L 364.067576 184.94391 
L 361.052077 178.142624 
L 357.867507 171.418843 
L 354.515855 164.776769 
L 350.999215 158.220554 
L 347.319786 151.754294 
L 343.479868 145.38203 
L 339.481859 139.107746 
L 335.328258 132.935362 
L 331.021663 126.868736 
L 326.564763 120.91166 
L 321.960344 115.067856 
L 317.211284 109.340977 
L 312.320551 103.734601 
L 309.040479 100.128 
L 304.058566 105.65351 
L 299.216333 111.301827 
L 294.516806 117.069423 
L 289.962922 122.952693 
L 285.557528 128.947959 
L 281.303377 135.051476 
L 277.203126 141.259428 
L 273.25934 147.567935 
L 269.474483 153.973056 
L 265.850919 160.470786 
L 262.390914 167.057066 
L 259.09663 173.727779 
L 255.970126 180.478756 
L 253.013356 187.305778 
L 250.228168 194.204578 
L 247.616302 201.170845 
L 245.17939 208.200225 
L 242.918957 215.288324 
L 240.836413 222.430714 
L 238.933062 229.62293 
L 237.210092 236.860477 
L 236.16 241.719035 
L 237.748688 248.928 
L 239.349122 241.662374 
L 240.767434 234.359011 
L 242.002738 227.022476 
L 243.054262 219.657355 
L 243.921348 212.268249 
L 244.603455 204.859778 
L 245.100156 197.436571 
L 245.411142 190.003267 
L 245.536216 182.564512 
L 245.475303 175.124955 
L 245.228438 167.689246 
L 244.795778 160.262031 
L 244.177592 152.847952 
L 243.374266 145.451643 
L 242.386303 138.077727 
L 241.214319 130.730811 
L 239.859048 123.415487 
L 238.321337 116.136328 
L 236.602146 108.897882 
L 236.16 107.156898 
L 237.876861 100.128 
L 239.644671 107.354726 
L 241.592578 114.535003 
L 243.719365 121.664343 
L 246.023702 128.738292 
L 248.504149 135.752427 
L 251.159156 142.702366 
L 253.987064 149.583765 
L 256.986105 156.392324 
L 260.154406 163.123787 
L 263.489985 169.773946 
L 266.990759 176.338648 
L 270.654539 182.813787 
L 274.479036 189.195318 
L 278.46186 195.479253 
L 282.600521 201.661663 
L 286.892433 207.738686 
L 291.334913 213.706524 
L 295.925186 219.561446 
L 300.660382 225.299794 
L 305.537542 230.917981 
L 310.553618 236.412496 
L 315.705476 241.779905 
L 320.989895 247.016854 
L 322.985655 248.928 
L 328.318471 243.740343 
L 333.519942 238.421 
L 338.586819 232.973296 
L 343.515934 227.400635 
L 348.304206 221.706501 
L 352.948644 215.894452 
L 357.446345 209.96812 
L 361.794497 203.93121 
L 365.990383 197.787493 
L 370.031381 191.54081 
L 373.914966 185.195064 
L 377.63871 178.754222 
L 381.200286 172.222309 
L 384.96 164.872279 
L 381.580981 158.244085 
L 378.03733 151.70243 
L 374.331261 145.251401 
L 370.465093 138.89503 
L 366.441239 132.637289 
L 362.262216 126.482089 
L 357.930634 120.433278 
L 353.449202 114.494635 
L 348.820719 108.669872 
L 344.048079 102.962629 
L 341.585583 100.128 
L 336.741315 105.774573 
L 332.03971 111.540475 
L 327.483707 117.422104 
L 323.076154 123.415782 
L 318.819803 129.517766 
L 314.717317 135.72424 
L 310.771258 142.031326 
L 306.984093 148.435083 
L 304.36764 153.084188 
L 297.811694 149.567045 
L 291.169878 146.214883 
L 284.446341 143.029797 
L 277.645287 140.013777 
L 270.770965 137.168707 
L 263.827673 134.496367 
L 256.819748 131.998427 
L 249.751571 129.676447 
L 242.627559 127.531878 
L 236.16 125.751434 
L 243.330539 123.767981 
L 250.449256 121.605903 
L 257.511703 119.266551 
L 264.513465 116.751388 
L 271.450166 114.061985 
L 278.317472 111.200022 
L 285.11109 108.16729 
L 291.826775 104.965682 
L 298.46033 101.5972 
L 301.230573 100.128 
L 307.828267 103.56619 
L 314.509845 106.838381 
L 321.271132 109.942526 
L 328.107901 112.876688 
L 335.01588 115.639031 
L 341.990752 118.227829 
L 349.028158 120.641465 
L 356.123699 122.87843 
L 363.272942 124.937325 
L 370.471417 126.816865 
L 377.714627 128.515875 
L 384.96 130.025858 
L 377.676781 131.544224 
L 370.433793 133.244177 
L 363.235562 135.124654 
L 356.086588 137.184481 
L 348.991338 139.42237 
L 341.954247 141.836923 
L 334.979712 144.426629 
L 328.072093 147.189872 
L 321.235706 150.124924 
L 315.477548 152.756456 
L 310.686366 147.06477 
L 305.754403 141.49463 
L 300.684743 136.049517 
L 295.480553 130.732833 
L 290.145086 125.547903 
L 284.681676 120.497965 
L 279.093739 115.586176 
L 273.384765 110.815605 
L 267.558324 106.189235 
L 261.618056 101.709957 
L 259.44413 100.128 
L 253.463638 104.55343 
L 247.595639 109.126974 
L 241.843801 113.845774 
L 236.16 118.752669 
L 235.558605 124.67381 
L 235.194473 130.614263 
L 235.068187 136.564527 
L 235.17995 142.51508 
L 235.529582 148.456405 
L 236.16 154.73956 
L 235.558605 160.660701 
L 235.194473 166.601154 
L 235.068187 172.551417 
L 235.17995 178.501971 
L 235.529582 184.443296 
L 236.16 190.726451 
L 235.558605 196.647592 
L 235.194473 202.588045 
L 235.068187 208.538308 
L 235.17995 214.488862 
L 235.529582 220.430187 
L 236.16 226.713342 
L 235.558605 232.634482 
L 235.194473 238.574936 
L 235.068187 244.525199 
L 235.127963 248.928 
L 235.182635 245.952552 
L 235.113432 240.001351 
L 234.8063 234.057678 
L 234.261731 228.131041 
L 233.480594 222.230922 
L 232.464141 216.366759 
L 231.213996 210.547934 
L 229.732161 204.783757 
L 228.021006 199.083447 
L 226.083267 193.456126 
L 223.922046 187.910794 
L 221.540799 182.456324 
L 218.943337 177.101441 
L 216.133814 171.854712 
L 213.116725 166.724532 
L 209.896897 161.719106 
L 206.47948 156.846442 
L 202.869943 152.114337 
L 199.07406 147.53036 
L 195.097902 143.101844 
L 190.947831 138.835874 
L 186.630487 134.739276 
L 182.152776 130.818602 
L 177.521862 127.080125 
L 172.745152 123.529825 
L 167.83029 120.173382 
L 162.785137 117.016167 
L 157.617764 114.063229 
L 152.336439 111.319293 
L 146.94961 108.788749 
L 141.465895 106.475644 
L 135.894067 104.38368 
L 130.24304 102.516203 
L 124.521853 100.8762 
L 121.57896 100.128 
L 115.825499 101.650917 
L 110.137542 103.402692 
L 104.524186 105.380524 
L 98.994413 107.581248 
L 93.557068 110.001344 
L 88.220851 112.63694 
L 87.36 113.087328 
L 92.678895 115.757709 
L 98.100323 118.213254 
L 103.615609 120.450037 
L 109.215931 122.464477 
L 114.89233 124.253354 
L 120.635724 125.813803 
L 126.436926 127.14333 
L 132.286654 128.239808 
L 138.17555 129.101481 
L 144.094194 129.726973 
L 150.033116 130.115281 
L 155.982816 130.265785 
L 161.933775 130.178245 
L 167.876474 129.852799 
L 173.801405 129.289969 
L 179.699089 128.490656 
L 185.560091 127.456137 
L 191.375036 126.188068 
L 197.13462 124.688478 
L 202.82963 122.959765 
L 208.450954 121.004695 
L 213.989599 118.826397 
L 219.436706 116.428354 
L 224.783559 113.814403 
L 230.021606 110.988725 
L 235.142465 107.955842 
L 236.16 107.319682 
L 231.063766 104.245599 
L 225.848679 101.377771 
L 223.409911 100.128 
L 218.142895 102.899303 
L 212.990914 105.879015 
L 207.962212 109.062367 
L 203.064832 112.444267 
L 198.306609 116.019305 
L 193.695155 119.781761 
L 189.237849 123.725617 
L 184.94182 127.844563 
L 180.813941 132.132009 
L 176.860816 136.581098 
L 174.40014 139.541333 
L 174.357384 133.589883 
L 174.076667 127.644904 
L 173.55844 121.715906 
L 172.80353 115.812374 
L 171.813145 109.943752 
L 170.588871 104.119429 
L 169.607888 100.128 
L 168.223215 105.916286 
L 167.071118 111.755315 
L 166.153442 117.635745 
L 165.471655 123.548168 
L 165.026847 129.483126 
L 164.819729 135.431124 
L 164.726836 138.93871 
L 164.318727 143.383343 
L 163.644835 147.795507 
L 162.707584 152.159322 
L 161.510348 156.459083 
L 160.057436 160.679315 
L 158.354076 164.804832 
L 156.406398 168.820784 
L 154.221413 172.712719 
L 151.806983 176.46663 
L 149.171799 180.069007 
L 146.325343 183.506886 
L 143.277861 186.767893 
L 140.040319 189.840293 
L 136.62437 192.713029 
L 133.042307 195.375761 
L 131.625776 196.34012 
L 132.804101 195.431483 
L 136.444769 192.849458 
L 140.233715 190.490388 
L 144.157302 188.362764 
L 148.20141 186.474243 
L 152.351483 184.831621 
L 156.592587 183.440809 
L 160.909458 182.306814 
L 165.28656 181.433717 
L 169.708139 180.824659 
L 174.158284 180.481832 
L 178.620978 180.406471 
L 183.080161 180.598847 
L 187.519784 181.058267 
L 191.923869 181.783078 
L 196.276567 182.770671 
L 197.930549 183.218878 
L 196.473871 182.915302 
L 192.144328 181.830693 
L 187.887614 180.488419 
L 183.719047 178.89331 
L 179.653631 177.051108 
L 175.705996 174.968442 
L 171.89035 172.652808 
L 168.220424 170.112539 
L 164.709427 167.356778 
L 161.369995 164.395442 
L 158.214145 161.23919 
L 155.253235 157.899379 
L 152.497922 154.388031 
L 149.958122 150.717781 
L 147.642975 146.901839 
L 145.560813 142.953939 
L 144.824994 141.406322 
L 145.542265 142.710006 
L 147.535689 146.703448 
L 149.286064 150.809237 
L 150.78709 155.012598 
L 152.033364 159.298402 
L 153.020402 163.651226 
L 153.744651 168.055404 
L 154.203504 172.495085 
L 154.395311 176.954292 
L 154.31938 181.416977 
L 153.975986 185.867078 
L 153.366364 190.28858 
L 152.492707 194.66557 
L 151.358161 198.982296 
L 149.966809 203.223222 
L 148.323657 207.373086 
L 146.959438 210.268555 
L 144.42232 215.652291 
L 142.102523 221.133178 
L 140.003759 226.702449 
L 138.129386 232.351192 
L 136.482401 238.070372 
L 135.06544 243.85084 
L 134.020538 248.928 
L 132.805773 243.101687 
L 131.35899 237.328611 
L 129.682502 231.61801 
L 127.778992 225.979018 
L 125.651505 220.420656 
L 123.303445 214.951818 
L 120.738568 209.581251 
L 117.960977 204.317548 
L 114.975116 199.16913 
L 111.785762 194.144232 
L 108.398016 189.250894 
L 104.817299 184.496943 
L 101.049338 179.889986 
L 97.100163 175.437392 
L 92.97609 171.146285 
L 88.683717 167.023528 
L 87.36 165.816734 
L 91.70169 161.745948 
L 95.87712 157.504796 
L 99.879608 153.100063 
L 103.702753 148.538798 
L 107.340438 143.828296 
L 110.786843 138.976093 
L 114.036455 133.989952 
L 117.084075 128.877849 
L 119.924828 123.647963 
L 122.554169 118.308661 
L 124.967892 112.868485 
L 127.162134 107.336136 
L 129.133387 101.720467 
L 129.646954 100.128 
L 131.554936 105.76548 
L 133.686831 111.322153 
L 136.039228 116.789127 
L 138.608364 122.157658 
L 141.390129 127.419156 
L 144.380073 132.565205 
L 147.573412 137.587571 
L 148.938984 139.60721 
L 148.220568 133.699126 
L 147.266466 127.824497 
L 146.078205 121.99272 
L 144.657686 116.213126 
L 143.007181 110.494961 
L 141.12933 104.847373 
L 139.364053 100.128 
L 137.296066 105.708771 
L 135.452904 111.367776 
L 133.837516 117.095961 
L 132.452487 122.884163 
L 131.300032 128.72312 
L 130.381995 134.603494 
L 129.699845 140.515875 
L 129.254672 146.450806 
L 129.04719 152.398791 
L 129.047082 156.816282 
L 124.08023 160.0953 
L 119.248477 163.570317 
L 114.559552 167.235773 
L 110.020958 171.085804 
L 105.639953 175.114251 
L 101.423548 179.314669 
L 97.378488 183.680338 
L 93.511244 188.204275 
L 89.828002 192.879241 
L 87.36 196.240925 
L 90.910785 201.017274 
L 94.649732 205.647809 
L 98.570861 210.125122 
L 102.667897 214.44205 
L 106.934288 218.591687 
L 111.363207 222.567395 
L 115.94757 226.362814 
L 120.680042 229.971871 
L 125.553052 233.388792 
L 130.558805 236.608112 
L 135.689292 239.62468 
L 140.936306 242.433671 
L 146.291452 245.030589 
L 151.746164 247.411282 
L 155.568965 248.928 
L 161.087387 246.698965 
L 166.512257 244.251035 
L 171.834897 241.588126 
L 177.046792 238.714499 
L 182.139603 235.63475 
L 187.105184 232.353806 
L 191.935589 228.876916 
L 196.623093 225.209643 
L 201.160195 221.357853 
L 205.539637 217.327708 
L 209.754413 213.125656 
L 213.797781 208.758419 
L 217.663272 204.232984 
L 221.344701 199.556591 
L 224.83618 194.73672 
L 228.132123 189.781082 
L 231.227256 184.697606 
L 234.116629 179.494424 
L 236.16 175.48966 
L 233.42914 170.201562 
L 230.488998 165.026899 
L 227.344275 159.973949 
L 224.000004 155.050796 
L 220.461535 150.265317 
L 216.734527 145.625166 
L 212.824945 141.137768 
L 208.739041 136.8103 
L 204.483354 132.649687 
L 200.06469 128.662584 
L 195.490119 124.855369 
L 190.766959 121.234134 
L 185.902767 117.804672 
L 180.905323 114.572468 
L 175.782624 111.542695 
L 170.542863 108.720198 
L 165.194424 106.109494 
L 159.745862 103.714758 
L 154.205895 101.539822 
L 150.213092 100.128 
L 144.613473 102.144396 
L 139.098968 104.383103 
L 133.678398 106.840542 
L 128.360436 109.512779 
L 123.153588 112.395541 
L 118.066185 115.484216 
L 113.106365 118.773861 
L 108.282063 122.259215 
L 103.600997 125.934702 
L 99.070656 129.794442 
L 94.698287 133.832259 
L 90.490885 138.041695 
L 87.36 141.404376 
L 91.435435 145.741704 
L 95.681057 149.912588 
L 100.090073 153.910356 
L 104.655431 157.728613 
L 109.369827 161.361251 
L 114.225719 164.802456 
L 119.215338 168.046726 
L 124.700476 171.298184 
L 128.922545 172.745752 
L 133.050215 174.443888 
L 137.068629 176.386479 
L 140.963328 178.566535 
L 144.720293 180.97621 
L 148.326003 183.606831 
L 151.767483 186.448931 
L 155.032347 189.492283 
L 158.108843 192.725932 
L 160.985902 196.138241 
L 163.653167 199.71693 
L 166.10104 203.449119 
L 168.320711 207.321376 
L 170.058646 210.790549 
L 173.762458 215.449235 
L 177.649606 219.956082 
L 181.71387 224.303879 
L 185.948748 228.485671 
L 190.347466 232.494768 
L 194.902987 236.324756 
L 199.608023 239.969509 
L 204.455046 243.423195 
L 209.436302 246.680289 
L 213.147991 248.928 
L 218.222101 245.817536 
L 223.167767 242.50665 
L 227.977077 239.000638 
L 232.642337 235.305109 
L 236.16 232.309268 
L 231.611728 228.470674 
L 226.913591 224.817033 
L 222.073106 221.35419 
L 217.098016 218.087684 
L 211.99628 215.022742 
L 206.77606 212.164267 
L 201.445707 209.516831 
L 196.013748 207.08467 
L 190.488874 204.871675 
L 185.567594 203.111885 
L 186.539448 208.983603 
L 187.745332 214.811762 
L 189.183314 220.587035 
L 190.851096 226.300185 
L 192.746009 231.942072 
L 194.865022 237.50367 
L 197.204744 242.97608 
L 199.761432 248.35055 
L 200.052002 248.928 
L 202.632015 243.564688 
L 204.995488 238.102493 
L 207.138642 232.550154 
L 209.058047 226.916553 
L 210.750633 221.210702 
L 212.213692 215.44173 
L 213.444883 209.618865 
L 214.442237 203.751424 
L 215.204158 197.848793 
L 215.729427 191.920414 
L 216.017205 185.975772 
L 216.067029 180.024378 
L 215.878822 174.075751 
L 215.452883 168.139409 
L 214.789895 162.224848 
L 213.890918 156.341531 
L 212.75739 150.49887 
L 211.391125 144.706211 
L 209.794307 138.972821 
L 207.969493 133.307873 
L 205.919601 127.72043 
L 203.64791 122.21943 
L 201.158055 116.813673 
L 198.45402 111.511808 
L 195.540129 106.322317 
L 192.421044 101.253501 
L 191.689848 100.128 
L 188.525171 105.168476 
L 185.56459 110.331473 
L 182.812842 115.608733 
L 180.27433 120.991811 
L 177.953113 126.472097 
L 175.852907 132.040824 
L 173.97707 137.689082 
L 173.507922 139.231735 
L 173.507922 139.231735 
" style="fill:none;stroke:#1f77b4;stroke-linecap:square;stroke-width:1.5;"/>
   </g>
   <g id="patch_5">
    <path d="M 57.6 263.808 
L 57.6 85.248 
" style="fill:none;stroke:#000000;stroke-linecap:square;stroke-linejoin:miter;stroke-width:0.8;"/>
   </g>
   <g id="patch_6">
    <path d="M 414.72 263.808 
L 414.72 85.248 
" style="fill:none;stroke:#000000;stroke-linecap:square;stroke-linejoin:miter;stroke-width:0.8;"/>
   </g>
   <g id="patch_7">
    <path d="M 57.6 263.808 
L 414.72 263.808 
" style="fill:none;stroke:#000000;stroke-linecap:square;stroke-linejoin:miter;stroke-width:0.8;"/>
   </g>
   <g id="patch_8">
    <path d="M 57.6 85.248 
L 414.72 85.248 
" style="fill:none;stroke:#000000;stroke-linecap:square;stroke-linejoin:miter;stroke-width:0.8;"/>
   </g>
  </g>
 </g>
 <defs>
  <clipPath id="p800459dee9">
   <rect height="178.56" width="357.12" x="57.6" y="85.248"/>
  </clipPath>
 </defs>
</svg>
