<?xml version="1.0" encoding="utf-8" standalone="no"?>
<!DOCTYPE svg PUBLIC "-//W3C//DTD SVG 1.1//EN"
  "http://www.w3.org/Graphics/SVG/1.1/DTD/svg11.dtd">
<!-- Created with matplotlib (https://matplotlib.org/) -->
<svg height="345.6pt" version="1.1" viewBox="0 0 460.8 345.6" width="460.8pt" xmlns="http://www.w3.org/2000/svg" xmlns:xlink="http://www.w3.org/1999/xlink">
 <defs>
  <style type="text/css">
*{stroke-linecap:butt;stroke-linejoin:round;}
  </style>
 </defs>
 <g id="figure_1">
  <g id="patch_1">
   <path d="M 0 345.6 
L 460.8 345.6 
L 460.8 0 
L 0 0 
z
" style="fill:#ffffff;"/>
  </g>
  <g id="axes_1">
   <g id="patch_2">
    <path d="M 57.6 263.808 
L 414.72 263.808 
L 414.72 85.248 
L 57.6 85.248 
z
" style="fill:#ffffff;"/>
   </g>
   <g id="PathCollection_1">
    <defs>
     <path d="M 0 3 
C 0.795609 3 1.55874 2.683901 2.12132 2.12132 
C 2.683901 1.55874 3 0.795609 3 0 
C 3 -0.795609 2.683901 -1.55874 2.12132 -2.12132 
C 1.55874 -2.683901 0.795609 -3 0 -3 
C -0.795609 -3 -1.55874 -2.683901 -2.12132 -2.12132 
C -2.683901 -1.55874 -3 -0.795609 -3 0 
C -3 0.795609 -2.683901 1.55874 -2.12132 2.12132 
C -1.55874 2.683901 -0.795609 3 0 3 
z
" id="mf8b8bed0e5" style="stroke:#000000;"/>
    </defs>
    <g clip-path="url(#pc6bf0c23c5)">
     <use style="stroke:#000000;" x="91.868187" xlink:href="#mf8b8bed0e5" y="237.71595"/>
    </g>
   </g>
   <g id="patch_3">
    <path clip-path="url(#pc6bf0c23c5)" d="M 161.76 211.728 
C 171.625555 211.728 181.088371 207.808373 188.064372 200.832372 
C 195.040373 193.856371 198.96 184.393555 198.96 174.528 
C 198.96 164.662445 195.040373 155.199629 188.064372 148.223628 
C 181.088371 141.247627 171.625555 137.328 161.76 137.328 
C 151.894445 137.328 142.431629 141.247627 135.455628 148.223628 
C 128.479627 155.199629 124.56 164.662445 124.56 174.528 
C 124.56 184.393555 128.479627 193.856371 135.455628 200.832372 
C 142.431629 207.808373 151.894445 211.728 161.76 211.728 
z
" style="fill:#cc0000;fill-opacity:0.1;stroke:#cc0000;stroke-dasharray:7.4,3.2;stroke-dashoffset:0;stroke-linejoin:miter;stroke-width:2;"/>
   </g>
   <g id="patch_4">
    <path clip-path="url(#pc6bf0c23c5)" d="M 310.56 196.848 
C 316.479333 196.848 322.157023 194.496224 326.342623 190.310623 
C 330.528224 186.125023 332.88 180.447333 332.88 174.528 
C 332.88 168.608667 330.528224 162.930977 326.342623 158.745377 
C 322.157023 154.559776 316.479333 152.208 310.56 152.208 
C 304.640667 152.208 298.962977 154.559776 294.777377 158.745377 
C 290.591776 162.930977 288.24 168.608667 288.24 174.528 
C 288.24 180.447333 290.591776 186.125023 294.777377 190.310623 
C 298.962977 194.496224 304.640667 196.848 310.56 196.848 
z
" style="fill:#cc0000;fill-opacity:0.1;stroke:#cc0000;stroke-dasharray:7.4,3.2;stroke-dashoffset:0;stroke-linejoin:miter;stroke-width:2;"/>
   </g>
   <g id="matplotlib.axis_1">
    <g id="xtick_1">
     <g id="line2d_1">
      <defs>
       <path d="M 0 0 
L 0 3.5 
" id="m204919923a" style="stroke:#000000;stroke-width:0.8;"/>
      </defs>
      <g>
       <use style="stroke:#000000;stroke-width:0.8;" x="87.36" xlink:href="#m204919923a" y="263.808"/>
      </g>
     </g>
     <g id="text_1">
      <!-- 0.0 -->
      <defs>
       <path d="M 31.78125 66.40625 
Q 24.171875 66.40625 20.328125 58.90625 
Q 16.5 51.421875 16.5 36.375 
Q 16.5 21.390625 20.328125 13.890625 
Q 24.171875 6.390625 31.78125 6.390625 
Q 39.453125 6.390625 43.28125 13.890625 
Q 47.125 21.390625 47.125 36.375 
Q 47.125 51.421875 43.28125 58.90625 
Q 39.453125 66.40625 31.78125 66.40625 
z
M 31.78125 74.21875 
Q 44.046875 74.21875 50.515625 64.515625 
Q 56.984375 54.828125 56.984375 36.375 
Q 56.984375 17.96875 50.515625 8.265625 
Q 44.046875 -1.421875 31.78125 -1.421875 
Q 19.53125 -1.421875 13.0625 8.265625 
Q 6.59375 17.96875 6.59375 36.375 
Q 6.59375 54.828125 13.0625 64.515625 
Q 19.53125 74.21875 31.78125 74.21875 
z
" id="DejaVuSans-48"/>
       <path d="M 10.6875 12.40625 
L 21 12.40625 
L 21 0 
L 10.6875 0 
z
" id="DejaVuSans-46"/>
      </defs>
      <g transform="translate(79.408438 278.406437)scale(0.1 -0.1)">
       <use xlink:href="#DejaVuSans-48"/>
       <use x="63.623047" xlink:href="#DejaVuSans-46"/>
       <use x="95.410156" xlink:href="#DejaVuSans-48"/>
      </g>
     </g>
    </g>
    <g id="xtick_2">
     <g id="line2d_2">
      <g>
       <use style="stroke:#000000;stroke-width:0.8;" x="161.76" xlink:href="#m204919923a" y="263.808"/>
      </g>
     </g>
     <g id="text_2">
      <!-- 0.5 -->
      <defs>
       <path d="M 10.796875 72.90625 
L 49.515625 72.90625 
L 49.515625 64.59375 
L 19.828125 64.59375 
L 19.828125 46.734375 
Q 21.96875 47.46875 24.109375 47.828125 
Q 26.265625 48.1875 28.421875 48.1875 
Q 40.625 48.1875 47.75 41.5 
Q 54.890625 34.8125 54.890625 23.390625 
Q 54.890625 11.625 47.5625 5.09375 
Q 40.234375 -1.421875 26.90625 -1.421875 
Q 22.3125 -1.421875 17.546875 -0.640625 
Q 12.796875 0.140625 7.71875 1.703125 
L 7.71875 11.625 
Q 12.109375 9.234375 16.796875 8.0625 
Q 21.484375 6.890625 26.703125 6.890625 
Q 35.15625 6.890625 40.078125 11.328125 
Q 45.015625 15.765625 45.015625 23.390625 
Q 45.015625 31 40.078125 35.4375 
Q 35.15625 39.890625 26.703125 39.890625 
Q 22.75 39.890625 18.8125 39.015625 
Q 14.890625 38.140625 10.796875 36.28125 
z
" id="DejaVuSans-53"/>
      </defs>
      <g transform="translate(153.808437 278.406437)scale(0.1 -0.1)">
       <use xlink:href="#DejaVuSans-48"/>
       <use x="63.623047" xlink:href="#DejaVuSans-46"/>
       <use x="95.410156" xlink:href="#DejaVuSans-53"/>
      </g>
     </g>
    </g>
    <g id="xtick_3">
     <g id="line2d_3">
      <g>
       <use style="stroke:#000000;stroke-width:0.8;" x="236.16" xlink:href="#m204919923a" y="263.808"/>
      </g>
     </g>
     <g id="text_3">
      <!-- 1.0 -->
      <defs>
       <path d="M 12.40625 8.296875 
L 28.515625 8.296875 
L 28.515625 63.921875 
L 10.984375 60.40625 
L 10.984375 69.390625 
L 28.421875 72.90625 
L 38.28125 72.90625 
L 38.28125 8.296875 
L 54.390625 8.296875 
L 54.390625 0 
L 12.40625 0 
z
" id="DejaVuSans-49"/>
      </defs>
      <g transform="translate(228.208437 278.406437)scale(0.1 -0.1)">
       <use xlink:href="#DejaVuSans-49"/>
       <use x="63.623047" xlink:href="#DejaVuSans-46"/>
       <use x="95.410156" xlink:href="#DejaVuSans-48"/>
      </g>
     </g>
    </g>
    <g id="xtick_4">
     <g id="line2d_4">
      <g>
       <use style="stroke:#000000;stroke-width:0.8;" x="310.56" xlink:href="#m204919923a" y="263.808"/>
      </g>
     </g>
     <g id="text_4">
      <!-- 1.5 -->
      <g transform="translate(302.608437 278.406437)scale(0.1 -0.1)">
       <use xlink:href="#DejaVuSans-49"/>
       <use x="63.623047" xlink:href="#DejaVuSans-46"/>
       <use x="95.410156" xlink:href="#DejaVuSans-53"/>
      </g>
     </g>
    </g>
    <g id="xtick_5">
     <g id="line2d_5">
      <g>
       <use style="stroke:#000000;stroke-width:0.8;" x="384.96" xlink:href="#m204919923a" y="263.808"/>
      </g>
     </g>
     <g id="text_5">
      <!-- 2.0 -->
      <defs>
       <path d="M 19.1875 8.296875 
L 53.609375 8.296875 
L 53.609375 0 
L 7.328125 0 
L 7.328125 8.296875 
Q 12.9375 14.109375 22.625 23.890625 
Q 32.328125 33.6875 34.8125 36.53125 
Q 39.546875 41.84375 41.421875 45.53125 
Q 43.3125 49.21875 43.3125 52.78125 
Q 43.3125 58.59375 39.234375 62.25 
Q 35.15625 65.921875 28.609375 65.921875 
Q 23.96875 65.921875 18.8125 64.3125 
Q 13.671875 62.703125 7.8125 59.421875 
L 7.8125 69.390625 
Q 13.765625 71.78125 18.9375 73 
Q 24.125 74.21875 28.421875 74.21875 
Q 39.75 74.21875 46.484375 68.546875 
Q 53.21875 62.890625 53.21875 53.421875 
Q 53.21875 48.921875 51.53125 44.890625 
Q 49.859375 40.875 45.40625 35.40625 
Q 44.1875 33.984375 37.640625 27.21875 
Q 31.109375 20.453125 19.1875 8.296875 
z
" id="DejaVuSans-50"/>
      </defs>
      <g transform="translate(377.008437 278.406437)scale(0.1 -0.1)">
       <use xlink:href="#DejaVuSans-50"/>
       <use x="63.623047" xlink:href="#DejaVuSans-46"/>
       <use x="95.410156" xlink:href="#DejaVuSans-48"/>
      </g>
     </g>
    </g>
   </g>
   <g id="matplotlib.axis_2">
    <g id="ytick_1">
     <g id="line2d_6">
      <defs>
       <path d="M 0 0 
L -3.5 0 
" id="md74113c55f" style="stroke:#000000;stroke-width:0.8;"/>
      </defs>
      <g>
       <use style="stroke:#000000;stroke-width:0.8;" x="57.6" xlink:href="#md74113c55f" y="248.928"/>
      </g>
     </g>
     <g id="text_6">
      <!-- 0.0 -->
      <g transform="translate(34.696875 252.727219)scale(0.1 -0.1)">
       <use xlink:href="#DejaVuSans-48"/>
       <use x="63.623047" xlink:href="#DejaVuSans-46"/>
       <use x="95.410156" xlink:href="#DejaVuSans-48"/>
      </g>
     </g>
    </g>
    <g id="ytick_2">
     <g id="line2d_7">
      <g>
       <use style="stroke:#000000;stroke-width:0.8;" x="57.6" xlink:href="#md74113c55f" y="219.168"/>
      </g>
     </g>
     <g id="text_7">
      <!-- 0.2 -->
      <g transform="translate(34.696875 222.967219)scale(0.1 -0.1)">
       <use xlink:href="#DejaVuSans-48"/>
       <use x="63.623047" xlink:href="#DejaVuSans-46"/>
       <use x="95.410156" xlink:href="#DejaVuSans-50"/>
      </g>
     </g>
    </g>
    <g id="ytick_3">
     <g id="line2d_8">
      <g>
       <use style="stroke:#000000;stroke-width:0.8;" x="57.6" xlink:href="#md74113c55f" y="189.408"/>
      </g>
     </g>
     <g id="text_8">
      <!-- 0.4 -->
      <defs>
       <path d="M 37.796875 64.3125 
L 12.890625 25.390625 
L 37.796875 25.390625 
z
M 35.203125 72.90625 
L 47.609375 72.90625 
L 47.609375 25.390625 
L 58.015625 25.390625 
L 58.015625 17.1875 
L 47.609375 17.1875 
L 47.609375 0 
L 37.796875 0 
L 37.796875 17.1875 
L 4.890625 17.1875 
L 4.890625 26.703125 
z
" id="DejaVuSans-52"/>
      </defs>
      <g transform="translate(34.696875 193.207219)scale(0.1 -0.1)">
       <use xlink:href="#DejaVuSans-48"/>
       <use x="63.623047" xlink:href="#DejaVuSans-46"/>
       <use x="95.410156" xlink:href="#DejaVuSans-52"/>
      </g>
     </g>
    </g>
    <g id="ytick_4">
     <g id="line2d_9">
      <g>
       <use style="stroke:#000000;stroke-width:0.8;" x="57.6" xlink:href="#md74113c55f" y="159.648"/>
      </g>
     </g>
     <g id="text_9">
      <!-- 0.6 -->
      <defs>
       <path d="M 33.015625 40.375 
Q 26.375 40.375 22.484375 35.828125 
Q 18.609375 31.296875 18.609375 23.390625 
Q 18.609375 15.53125 22.484375 10.953125 
Q 26.375 6.390625 33.015625 6.390625 
Q 39.65625 6.390625 43.53125 10.953125 
Q 47.40625 15.53125 47.40625 23.390625 
Q 47.40625 31.296875 43.53125 35.828125 
Q 39.65625 40.375 33.015625 40.375 
z
M 52.59375 71.296875 
L 52.59375 62.3125 
Q 48.875 64.0625 45.09375 64.984375 
Q 41.3125 65.921875 37.59375 65.921875 
Q 27.828125 65.921875 22.671875 59.328125 
Q 17.53125 52.734375 16.796875 39.40625 
Q 19.671875 43.65625 24.015625 45.921875 
Q 28.375 48.1875 33.59375 48.1875 
Q 44.578125 48.1875 50.953125 41.515625 
Q 57.328125 34.859375 57.328125 23.390625 
Q 57.328125 12.15625 50.6875 5.359375 
Q 44.046875 -1.421875 33.015625 -1.421875 
Q 20.359375 -1.421875 13.671875 8.265625 
Q 6.984375 17.96875 6.984375 36.375 
Q 6.984375 53.65625 15.1875 63.9375 
Q 23.390625 74.21875 37.203125 74.21875 
Q 40.921875 74.21875 44.703125 73.484375 
Q 48.484375 72.75 52.59375 71.296875 
z
" id="DejaVuSans-54"/>
      </defs>
      <g transform="translate(34.696875 163.447219)scale(0.1 -0.1)">
       <use xlink:href="#DejaVuSans-48"/>
       <use x="63.623047" xlink:href="#DejaVuSans-46"/>
       <use x="95.410156" xlink:href="#DejaVuSans-54"/>
      </g>
     </g>
    </g>
    <g id="ytick_5">
     <g id="line2d_10">
      <g>
       <use style="stroke:#000000;stroke-width:0.8;" x="57.6" xlink:href="#md74113c55f" y="129.888"/>
      </g>
     </g>
     <g id="text_10">
      <!-- 0.8 -->
      <defs>
       <path d="M 31.78125 34.625 
Q 24.75 34.625 20.71875 30.859375 
Q 16.703125 27.09375 16.703125 20.515625 
Q 16.703125 13.921875 20.71875 10.15625 
Q 24.75 6.390625 31.78125 6.390625 
Q 38.8125 6.390625 42.859375 10.171875 
Q 46.921875 13.96875 46.921875 20.515625 
Q 46.921875 27.09375 42.890625 30.859375 
Q 38.875 34.625 31.78125 34.625 
z
M 21.921875 38.8125 
Q 15.578125 40.375 12.03125 44.71875 
Q 8.5 49.078125 8.5 55.328125 
Q 8.5 64.0625 14.71875 69.140625 
Q 20.953125 74.21875 31.78125 74.21875 
Q 42.671875 74.21875 48.875 69.140625 
Q 55.078125 64.0625 55.078125 55.328125 
Q 55.078125 49.078125 51.53125 44.71875 
Q 48 40.375 41.703125 38.8125 
Q 48.828125 37.15625 52.796875 32.3125 
Q 56.78125 27.484375 56.78125 20.515625 
Q 56.78125 9.90625 50.3125 4.234375 
Q 43.84375 -1.421875 31.78125 -1.421875 
Q 19.734375 -1.421875 13.25 4.234375 
Q 6.78125 9.90625 6.78125 20.515625 
Q 6.78125 27.484375 10.78125 32.3125 
Q 14.796875 37.15625 21.921875 38.8125 
z
M 18.3125 54.390625 
Q 18.3125 48.734375 21.84375 45.5625 
Q 25.390625 42.390625 31.78125 42.390625 
Q 38.140625 42.390625 41.71875 45.5625 
Q 45.3125 48.734375 45.3125 54.390625 
Q 45.3125 60.0625 41.71875 63.234375 
Q 38.140625 66.40625 31.78125 66.40625 
Q 25.390625 66.40625 21.84375 63.234375 
Q 18.3125 60.0625 18.3125 54.390625 
z
" id="DejaVuSans-56"/>
      </defs>
      <g transform="translate(34.696875 133.687219)scale(0.1 -0.1)">
       <use xlink:href="#DejaVuSans-48"/>
       <use x="63.623047" xlink:href="#DejaVuSans-46"/>
       <use x="95.410156" xlink:href="#DejaVuSans-56"/>
      </g>
     </g>
    </g>
    <g id="ytick_6">
     <g id="line2d_11">
      <g>
       <use style="stroke:#000000;stroke-width:0.8;" x="57.6" xlink:href="#md74113c55f" y="100.128"/>
      </g>
     </g>
     <g id="text_11">
      <!-- 1.0 -->
      <g transform="translate(34.696875 103.927219)scale(0.1 -0.1)">
       <use xlink:href="#DejaVuSans-49"/>
       <use x="63.623047" xlink:href="#DejaVuSans-46"/>
       <use x="95.410156" xlink:href="#DejaVuSans-48"/>
      </g>
     </g>
    </g>
   </g>
   <g id="line2d_12">
    <path clip-path="url(#pc6bf0c23c5)" d="M 236.16 248.928 
L 236.16 100.128 
" style="fill:none;stroke:#cc0000;stroke-dasharray:7.4,3.2;stroke-dashoffset:0;stroke-width:2;"/>
   </g>
   <g id="line2d_13">
    <path clip-path="url(#pc6bf0c23c5)" d="M 87.36 248.928 
L 384.96 248.928 
" style="fill:none;stroke:#009900;stroke-linecap:square;stroke-width:2;"/>
   </g>
   <g id="line2d_14">
    <path clip-path="url(#pc6bf0c23c5)" d="M 384.96 248.928 
L 384.96 100.128 
" style="fill:none;stroke:#009900;stroke-linecap:square;stroke-width:2;"/>
   </g>
   <g id="line2d_15">
    <path clip-path="url(#pc6bf0c23c5)" d="M 384.96 100.128 
L 87.36 100.128 
" style="fill:none;stroke:#009900;stroke-linecap:square;stroke-width:2;"/>
   </g>
   <g id="line2d_16">
    <path clip-path="url(#pc6bf0c23c5)" d="M 87.36 100.128 
L 87.36 248.928 
" style="fill:none;stroke:#009900;stroke-linecap:square;stroke-width:2;"/>
   </g>
   <g id="line2d_17">
    <path clip-path="url(#pc6bf0c23c5)" d="M 91.868187 237.71595 
L 97.591 239.350265 
L 103.374591 240.754422 
L 109.209707 241.926173 
L 115.087013 242.863645 
L 120.997107 243.565337 
L 126.930534 244.030127 
L 132.877801 244.257272 
L 138.829394 244.246408 
L 144.775792 243.997552 
L 150.707482 243.511102 
L 156.614975 242.787838 
L 162.48882 241.828915 
L 168.319619 240.635868 
L 174.098045 239.210606 
L 179.814854 237.555408 
L 185.460899 235.672923 
L 191.027149 233.566163 
L 196.504699 231.238496 
L 201.884785 228.693648 
L 207.158801 225.93569 
L 212.31831 222.969033 
L 217.355057 219.798424 
L 222.260984 216.428935 
L 227.028244 212.865956 
L 231.649209 209.115188 
L 236.16 205.142738 
L 231.694282 201.208409 
L 227.074806 197.455808 
L 222.30896 193.890938 
L 217.404369 190.519503 
L 212.368881 187.346896 
L 207.21055 184.378193 
L 201.937628 181.618142 
L 198.557291 179.98688 
L 204.43054 179.024316 
L 210.260598 177.827654 
L 216.038139 176.398809 
L 221.753921 174.740067 
L 227.398798 172.854082 
L 232.963741 170.74387 
L 236.16 169.414772 
L 230.64565 167.175681 
L 225.046172 165.158896 
L 219.370522 163.367643 
L 213.627782 161.804789 
L 207.827138 160.472834 
L 201.977869 159.373908 
L 196.089334 158.509769 
L 195.287147 158.410605 
L 190.863778 159.006534 
L 186.412635 159.336148 
L 181.949737 159.39826 
L 177.491145 159.192647 
L 173.052906 158.720049 
L 168.650992 157.982168 
L 164.301245 156.981657 
L 160.01932 155.722119 
L 155.820627 154.208085 
L 151.720277 152.445006 
L 147.733027 150.439226 
L 143.873226 148.197964 
L 140.154766 145.729285 
L 139.138297 144.996685 
L 133.505385 143.075258 
L 127.800142 141.380625 
L 122.031695 139.915496 
L 116.209273 138.682215 
L 110.34219 137.682756 
L 104.439833 136.918716 
L 98.511643 136.391319 
L 92.567105 136.101409 
L 87.36 136.042922 
L 91.823662 136.003941 
L 97.769575 135.743745 
L 103.700327 135.245984 
L 109.606429 134.511454 
L 115.478434 133.54133 
L 121.306947 132.337165 
L 127.082645 130.900885 
L 132.796286 129.234787 
L 138.438731 127.341537 
L 144.000953 125.224164 
L 149.474053 122.886055 
L 154.849277 120.330951 
L 160.118023 117.562939 
L 165.271864 114.586447 
L 170.302555 111.406238 
L 175.202047 108.027398 
L 179.962503 104.455334 
L 184.576306 100.69576 
L 185.24132 100.128 
L 189.83295 103.914622 
L 194.572333 107.514599 
L 199.451885 110.922171 
L 204.463801 114.131888 
L 209.600062 117.138614 
L 214.852452 119.93754 
L 220.212567 122.524187 
L 225.671833 124.894418 
L 231.221517 127.04444 
L 236.16 128.74734 
L 230.538269 130.701238 
L 224.999169 132.878382 
L 219.551563 135.275289 
L 214.204164 137.888126 
L 208.965529 140.712711 
L 203.844038 143.744526 
L 198.847883 146.978722 
L 193.985058 150.410123 
L 191.546709 152.243657 
L 197.448169 147.714326 
L 202.001728 143.882004 
L 206.398392 139.870655 
L 210.631128 135.686694 
L 214.693164 131.336816 
L 218.578003 126.827979 
L 222.279429 122.167397 
L 225.79152 117.362525 
L 229.108659 112.42105 
L 232.225538 107.350878 
L 235.137171 102.16012 
L 236.115809 100.128 
L 233.489282 105.468687 
L 231.078427 110.910136 
L 228.887101 116.44364 
L 226.918808 122.060347 
L 225.176699 127.751273 
L 223.663559 133.507312 
L 222.381809 139.319257 
L 221.333501 145.177809 
L 220.520311 151.073596 
L 219.94354 156.997185 
L 219.60411 162.939102 
L 219.502566 168.889839 
L 219.639068 174.839876 
L 220.0134 180.779696 
L 220.624961 186.699795 
L 221.472775 192.590703 
L 222.555483 198.442995 
L 223.871355 204.247309 
L 225.418284 209.994359 
L 227.193798 215.674952 
L 229.195054 221.279999 
L 231.418851 226.800534 
L 233.861632 232.227725 
L 236.16 236.862921 
L 233.530022 242.201909 
L 231.115651 247.641798 
L 230.582389 248.928 
L 228.219025 243.465758 
L 225.639121 238.102394 
L 222.846802 232.846489 
L 219.846537 227.706451 
L 216.643125 222.690503 
L 213.241691 217.806669 
L 209.647677 213.062764 
L 205.866832 208.466375 
L 201.905204 204.024856 
L 197.769132 199.745313 
L 193.465233 195.634592 
L 192.801141 195.028917 
L 198.257202 197.406516 
L 203.803977 199.56403 
L 209.432593 201.498006 
L 215.134045 203.20535 
L 220.899212 204.683331 
L 226.718871 205.929585 
L 232.583712 206.942118 
L 236.16 207.441811 
L 243.590191 207.819929 
L 251.027513 208.012193 
L 258.467317 208.018483 
L 265.904953 207.838796 
L 273.335773 207.473243 
L 280.755133 206.922054 
L 288.158397 206.185572 
L 295.540937 205.264258 
L 302.898139 204.158687 
L 310.225406 202.869551 
L 317.518159 201.397655 
L 324.771839 199.74392 
L 331.981914 197.909378 
L 339.143876 195.895176 
L 346.253251 193.702573 
L 353.305595 191.33294 
L 360.2965 188.787757 
L 367.221598 186.068614 
L 374.076561 183.177212 
L 380.857104 180.115357 
L 384.96 178.162252 
L 378.226998 174.997225 
L 371.416982 172.001495 
L 364.534208 169.176934 
L 357.582979 166.525306 
L 350.567638 164.04827 
L 343.49257 161.747373 
L 336.362196 159.624053 
L 329.180973 157.679638 
L 323.361636 156.244113 
L 319.201341 150.07624 
L 314.888166 144.01429 
L 310.424805 138.062053 
L 305.814048 132.223248 
L 301.058778 126.501525 
L 296.161965 120.900459 
L 291.12667 115.423551 
L 285.95604 110.074223 
L 280.653307 104.85582 
L 275.611502 100.128 
L 270.18901 105.221849 
L 264.895546 110.449654 
L 259.734417 115.808149 
L 254.708849 121.293984 
L 249.821983 126.903731 
L 245.076874 132.633884 
L 240.476486 138.480862 
L 236.16 144.253878 
L 240.617426 150.21056 
L 245.222362 156.053957 
L 249.971927 161.780417 
L 254.863156 167.386361 
L 259.892989 172.868284 
L 265.058285 178.222762 
L 270.355815 183.446448 
L 275.782268 188.536078 
L 281.334253 193.488469 
L 287.0083 198.300528 
L 292.800862 202.969247 
L 298.708321 207.491708 
L 304.726983 211.865084 
L 310.853087 216.086643 
L 317.082806 220.153747 
L 323.412244 224.063852 
L 329.837447 227.814516 
L 336.354399 231.403395 
L 342.959027 234.828246 
L 349.647204 238.086928 
L 356.41475 241.177405 
L 363.257434 244.097745 
L 370.170981 246.846123 
L 375.772544 248.928 
L 382.739883 246.318996 
L 384.96 245.445593 
L 378.0138 242.780819 
L 371.003158 240.290514 
L 363.932456 237.976236 
L 356.806112 235.839429 
L 349.62858 233.881431 
L 342.404347 232.103464 
L 335.137926 230.506639 
L 327.83386 229.091955 
L 320.496712 227.860296 
L 313.131069 226.812431 
L 305.741534 225.949016 
L 298.332725 225.270589 
L 290.909272 224.777576 
L 283.475814 224.470283 
L 276.036998 224.348904 
L 268.597473 224.413513 
L 261.161887 224.664072 
L 253.734888 225.100422 
L 246.321117 225.722291 
L 238.925208 226.529291 
L 236.16 226.87919 
L 230.441993 228.530243 
L 224.794584 230.408634 
L 219.226808 232.511359 
L 213.747572 234.835054 
L 208.365642 237.376001 
L 203.089628 240.130135 
L 197.92797 243.09305 
L 192.888926 246.260007 
L 188.964316 248.928 
L 184.028824 245.601967 
L 178.964274 242.475961 
L 173.778768 239.554983 
L 168.480602 236.843707 
L 163.078252 234.34647 
L 157.58036 232.067267 
L 151.995722 230.009744 
L 146.333272 228.177193 
L 140.60207 226.572545 
L 134.811282 225.198367 
L 128.970175 224.056859 
L 123.088091 223.149846 
L 117.174442 222.478778 
L 111.238687 222.044731 
L 105.290323 221.848397 
L 99.338866 221.890092 
L 93.393837 222.169748 
L 87.36 222.698207 
L 93.288723 223.219575 
L 99.233553 223.503441 
L 105.184979 223.549349 
L 111.13348 223.357227 
L 117.069541 222.927382 
L 122.983664 222.260502 
L 128.866388 221.357654 
L 134.708303 220.220281 
L 140.500061 218.850204 
L 146.232399 217.249614 
L 151.896145 215.421072 
L 157.482238 213.367504 
L 161.50834 211.727149 
L 167.001571 214.017562 
L 172.582 216.086473 
L 178.2407 217.930572 
L 183.968617 219.546908 
L 189.756589 220.932895 
L 195.595356 222.086316 
L 201.475577 223.005327 
L 207.387846 223.688456 
L 213.322702 224.134611 
L 219.270654 224.343078 
L 225.222183 224.313524 
L 231.167771 224.045996 
L 249.516354 222.675892 
L 256.913759 221.88272 
L 264.289024 220.90488 
L 271.637542 219.742983 
L 278.954719 218.397755 
L 286.235983 216.870037 
L 293.476782 215.160785 
L 300.672591 213.271065 
L 307.818914 211.202059 
L 314.911284 208.95506 
L 321.945269 206.531473 
L 328.916472 203.932811 
L 335.820538 201.1607 
L 342.65315 198.216871 
L 349.410039 195.103165 
L 356.086982 191.821527 
L 362.679806 188.374008 
L 369.184391 184.762763 
L 375.596672 180.990049 
L 381.912641 177.058224 
L 384.96 175.081589 
L 378.692489 171.07297 
L 372.326732 167.222275 
L 365.866707 163.531911 
L 359.316451 160.004183 
L 352.680057 156.641297 
L 345.961674 153.445355 
L 339.165501 150.418353 
L 332.295783 147.562184 
L 325.356816 144.878633 
L 318.352935 142.369376 
L 311.288518 140.035982 
L 304.16798 137.879909 
L 296.99577 135.902505 
L 289.776372 134.105005 
L 282.514297 132.488533 
L 275.214083 131.0541 
L 267.880294 129.8026 
L 260.517512 128.734818 
L 253.130339 127.85142 
L 245.723392 127.152957 
L 238.301299 126.639868 
L 236.16 126.526449 
L 243.585597 126.066851 
L 250.997384 125.421776 
L 258.390731 124.591627 
L 265.761015 123.576923 
L 273.103631 122.378298 
L 280.413991 120.996502 
L 287.687525 119.432397 
L 294.919687 117.686962 
L 302.105958 115.761287 
L 309.241847 113.656575 
L 316.322893 111.374143 
L 323.344672 108.915416 
L 330.302795 106.281931 
L 337.192914 103.475334 
L 344.825107 100.128 
L 351.633936 103.126428 
L 358.51559 105.953716 
L 365.465768 108.608096 
L 372.480127 111.087912 
L 379.554283 113.391611 
L 384.96 115.021442 
L 377.843413 117.190522 
L 370.783271 119.53682 
L 363.783987 122.05887 
L 356.849935 124.755096 
L 349.985448 127.623813 
L 343.194816 130.663228 
L 336.482284 133.871441 
L 329.852047 137.246447 
L 323.308247 140.786137 
L 316.854976 144.4883 
L 310.496265 148.35062 
L 304.23609 152.370684 
L 301.78704 154.004414 
L 294.538364 155.679949 
L 287.333837 157.536159 
L 280.177962 159.571882 
L 273.075211 161.785848 
L 266.030023 164.176673 
L 259.046801 166.742861 
L 252.129909 169.48281 
L 245.28367 172.394807 
L 238.512362 175.477033 
L 236.16 176.596104 
L 232.539398 181.319749 
L 229.110588 186.184401 
L 225.879055 191.182278 
L 222.849968 196.305384 
L 220.028174 201.545523 
L 217.418187 206.894313 
L 215.024182 212.343195 
L 212.849989 217.883454 
L 210.899087 223.506225 
L 209.174596 229.202515 
L 207.679275 234.963209 
L 206.415517 240.779092 
L 205.385342 246.64086 
L 205.04856 248.928 
L 204.109577 243.050935 
L 202.936326 237.21612 
L 201.530683 231.43289 
L 199.894897 225.710497 
L 198.031584 220.058095 
L 195.943726 214.484727 
L 193.634663 208.99931 
L 191.108089 203.610617 
L 189.12201 199.730389 
L 186.502956 196.116267 
L 184.105331 192.351601 
L 181.937765 188.449937 
L 180.008059 184.425319 
L 178.323158 180.29223 
L 176.889125 176.065545 
L 175.711122 171.760475 
L 174.793388 167.392514 
L 174.139225 162.977382 
L 173.750989 158.530969 
L 173.630076 154.069276 
L 173.776922 149.608362 
L 174.190998 145.164281 
L 174.870813 140.753026 
L 175.056424 139.785445 
L 172.66713 143.555405 
L 170.056074 147.175309 
L 167.232653 150.63213 
L 164.207027 153.913426 
L 160.990086 157.00739 
L 157.593408 159.902885 
L 154.029216 162.589492 
L 150.310338 165.05754 
L 146.450158 167.298149 
L 142.462568 169.303254 
L 138.36192 171.06564 
L 134.162971 172.578962 
L 129.880833 173.837776 
L 125.530917 174.83755 
L 124.563293 175.022934 
L 128.949588 175.848605 
L 133.278479 176.935811 
L 137.534388 178.280638 
L 141.701997 179.878246 
L 145.766308 181.722886 
L 149.712694 183.807918 
L 153.52695 186.12584 
L 157.195352 188.668309 
L 160.704696 191.426176 
L 164.042352 194.389513 
L 167.196308 197.547658 
L 170.155214 200.889243 
L 172.908421 204.402244 
L 175.44602 208.074016 
L 175.976112 208.904477 
L 175.121083 204.52381 
L 174.530276 200.099755 
L 174.205815 195.648233 
L 174.14887 191.185266 
L 174.359644 186.726915 
L 174.83738 182.289226 
L 175.580357 177.888169 
L 176.585903 173.539583 
L 177.850398 169.259119 
L 179.369291 165.062182 
L 181.137116 160.963876 
L 183.147511 156.97895 
L 185.39324 153.121747 
L 187.866222 149.406147 
L 188.441764 148.606513 
L 184.68789 151.021001 
L 180.795989 153.206047 
L 176.780068 155.153787 
L 172.654578 156.857212 
L 168.434368 158.31019 
L 164.134626 159.507493 
L 159.770826 160.444812 
L 155.358672 161.118773 
L 150.914045 161.526951 
L 146.45294 161.667877 
L 141.991412 161.541044 
L 137.545518 161.146907 
L 133.131258 160.486887 
L 128.764519 159.563357 
L 127.808728 159.324345 
L 131.440308 161.919137 
L 134.909759 164.727023 
L 138.204595 167.737899 
L 141.312958 170.940929 
L 144.223661 174.324585 
L 146.926229 177.876689 
L 149.410935 181.584458 
L 151.668838 185.434549 
L 153.69181 189.413104 
L 155.472572 193.505805 
L 157.004715 197.697924 
L 158.282725 201.974372 
L 159.302002 206.319759 
L 160.058878 210.718448 
L 160.190287 211.694867 
L 161.258063 207.361142 
L 162.583785 203.099243 
L 164.162682 198.924509 
L 165.989072 194.851965 
L 168.056381 190.896266 
L 170.35717 187.07165 
L 172.883157 183.39188 
L 175.625253 179.870201 
L 178.573589 176.519285 
L 181.717554 173.351194 
L 185.045833 170.377328 
L 188.546448 167.60839 
L 192.2068 165.054346 
L 196.013716 162.724387 
L 196.87231 162.24119 
L 192.450949 162.851838 
L 188.000928 163.196263 
L 183.538261 163.273228 
L 179.07901 163.082455 
L 174.639222 162.624631 
L 170.234877 161.901403 
L 165.881824 160.915375 
L 161.595731 159.670094 
L 157.392022 158.170042 
L 153.285828 156.420619 
L 149.291924 154.42812 
L 145.424685 152.199716 
L 141.69803 149.743427 
L 138.125369 147.068092 
L 137.358901 146.449069 
L 139.561383 150.331129 
L 141.527119 154.338273 
L 143.249032 158.45608 
L 144.720927 162.66973 
L 145.937506 166.964058 
L 146.89439 171.323609 
L 147.588136 175.732695 
L 148.016248 180.175446 
L 148.177184 184.635874 
L 148.070366 189.097926 
L 147.696177 193.545544 
L 147.055964 197.96272 
L 146.152032 202.333558 
L 144.987633 206.642327 
L 144.695957 207.583384 
L 143.996417 213.493733 
L 143.533788 219.427329 
L 143.308809 225.374678 
L 143.321841 231.326267 
L 143.572862 237.272574 
L 144.061472 243.204087 
L 144.760761 248.928 
L 145.478825 243.019873 
L 145.960053 237.087757 
L 146.203675 231.141142 
L 146.2093 225.189541 
L 145.976921 219.242477 
L 145.506908 213.309461 
L 144.835485 207.65504 
L 139.637824 210.554333 
L 134.560261 213.659157 
L 129.610919 216.964546 
L 124.797716 220.465211 
L 120.128353 224.155554 
L 115.610299 228.029669 
L 111.250782 232.08136 
L 107.056777 236.304143 
L 103.034993 240.691265 
L 99.191864 245.235705 
L 96.289415 248.928 
L 92.591617 244.264539 
L 88.710288 239.752681 
L 87.36 238.265423 
L 91.301884 233.806372 
L 95.0623 229.193255 
L 98.635232 224.433451 
L 102.014966 219.534575 
L 105.196093 214.504465 
L 108.173524 209.351167 
L 110.942497 204.082925 
L 113.498582 198.708168 
L 115.837689 193.235495 
L 117.956077 187.673659 
L 119.850356 182.03156 
L 121.517496 176.318222 
L 122.95483 170.542787 
L 124.160059 164.714493 
L 125.131253 158.842666 
L 125.866861 152.936697 
L 126.365704 147.006037 
L 126.626985 141.060171 
L 126.650286 135.108614 
L 126.435569 129.160885 
L 125.983179 123.2265 
L 125.293838 117.314953 
L 124.36865 111.435701 
L 123.209094 105.598149 
L 121.89949 100.128 
L 120.520139 105.917557 
L 119.373413 111.757643 
L 118.461144 117.638914 
L 117.784794 123.551961 
L 117.345443 129.487326 
L 117.143795 135.435512 
L 117.180172 141.387004 
L 117.454516 147.332281 
L 117.966389 153.261831 
L 118.714971 159.166169 
L 119.699064 165.035848 
L 120.917096 170.86148 
L 122.367115 176.633743 
L 124.046804 182.343404 
L 125.953475 187.981328 
L 128.084078 193.538496 
L 130.435204 199.006017 
L 133.003092 204.375145 
L 135.783633 209.63729 
L 138.77238 214.784033 
L 141.964551 219.807142 
L 145.35504 224.69858 
L 148.938422 229.450523 
L 152.708965 234.055367 
L 156.660636 238.505746 
L 160.787114 242.794541 
L 165.081797 246.91489 
L 167.310609 248.928 
L 171.687578 244.895169 
L 175.899776 240.690533 
L 179.940464 236.320816 
L 183.803178 231.79301 
L 187.481737 227.114359 
L 190.970259 222.292347 
L 194.263161 217.334689 
L 197.355175 212.249315 
L 200.241356 207.044361 
L 202.917085 201.728154 
L 205.378082 196.309199 
L 207.620411 190.796165 
L 209.640483 185.197872 
L 211.435067 179.523275 
L 213.001293 173.781453 
L 214.336654 167.981592 
L 215.439014 162.13297 
L 216.30661 156.244943 
L 216.938054 150.326932 
L 217.332335 144.388403 
L 217.488823 138.438858 
L 217.407268 132.487813 
L 217.087799 126.54479 
L 216.530929 120.619297 
L 215.737548 114.720811 
L 214.708924 108.858771 
L 213.446704 103.042554 
L 212.721728 100.128 
L 211.342378 105.917557 
L 210.195651 111.757643 
L 209.283382 117.638914 
L 208.607032 123.551961 
L 208.167681 129.487326 
L 207.966033 135.435512 
L 208.00241 141.387004 
L 208.276755 147.332281 
L 208.788627 153.261831 
L 209.537209 159.166169 
L 210.521303 165.035848 
L 211.739334 170.86148 
L 213.189354 176.633743 
L 214.869043 182.343404 
L 216.775714 187.981328 
L 218.906316 193.538496 
L 221.257442 199.006017 
L 223.82533 204.375145 
L 226.605871 209.63729 
L 229.594618 214.784033 
L 232.78679 219.807142 
L 236.16 224.674683 
L 232.770481 229.566793 
L 229.579305 234.590535 
L 226.591578 239.737871 
L 223.812079 245.000567 
L 221.908861 248.928 
L 219.284896 243.586054 
L 216.449408 238.353312 
L 213.406935 233.238145 
L 210.162343 228.248735 
L 206.720824 223.393066 
L 203.087882 218.678905 
L 199.26933 214.113794 
L 195.271277 209.705035 
L 191.100118 205.459683 
L 187.139436 201.725872 
L 190.9209 206.321751 
L 194.883126 210.762737 
L 199.019774 215.041723 
L 203.324227 219.151864 
L 207.789599 223.086586 
L 212.408746 226.839593 
L 217.174278 230.404882 
L 222.078572 233.776748 
L 227.113782 236.949798 
L 232.271852 239.918954 
L 236.16 241.980485 
L 230.91638 244.795807 
L 225.789538 247.818565 
L 224.018995 248.928 
L 218.935102 245.833551 
L 213.731531 242.94488 
L 208.416605 240.266606 
L 202.998829 237.803015 
L 197.486869 235.558047 
L 191.889544 233.535295 
L 186.215807 231.737995 
L 180.474735 230.169021 
L 174.675514 228.830883 
L 168.82742 227.725723 
L 162.939809 226.855309 
L 157.022101 226.221032 
L 151.083761 225.823908 
L 145.134292 225.664571 
L 139.183209 225.743278 
L 133.240034 226.059901 
L 127.314274 226.613935 
L 121.41541 227.404493 
L 115.552878 228.43031 
L 109.736057 229.689745 
L 103.974253 231.180783 
L 98.276684 232.90104 
L 92.652464 234.847763 
L 87.36 236.914639 
L 92.9058 239.074657 
L 98.533543 241.011175 
L 104.234223 242.721093 
L 109.998722 244.201678 
L 115.817818 245.45056 
L 121.682201 246.465741 
L 127.58249 247.245597 
L 133.509245 247.788881 
L 139.452984 248.094723 
L 145.4042 248.162634 
L 151.353371 247.992506 
L 157.29098 247.584611 
L 163.207528 246.9396 
L 169.09355 246.058507 
L 174.93963 244.942741 
L 180.736415 243.594086 
L 186.47463 242.014701 
L 192.145098 240.207111 
L 197.738745 238.174209 
L 203.246624 235.919247 
L 208.659922 233.445832 
L 213.969981 230.757922 
L 219.168304 227.859816 
L 224.246575 224.75615 
L 229.196671 221.451891 
L 234.010672 217.952323 
L 236.16 216.292074 
L 231.410672 212.705229 
L 226.521707 209.311175 
L 221.500927 206.115342 
L 216.356363 203.122843 
L 211.096247 200.338465 
L 205.728993 197.766664 
L 200.263188 195.411552 
L 194.707575 193.276898 
L 194.030271 193.033935 
L 190.033558 191.047076 
L 186.163177 188.824134 
L 182.433058 186.373109 
L 178.856624 183.702821 
L 175.446746 180.822881 
L 172.215698 177.743653 
L 169.175106 174.47622 
L 166.335914 171.03234 
L 163.70834 167.424408 
L 161.30184 163.665409 
L 159.125075 159.76887 
L 157.18588 155.748815 
L 155.491232 151.619713 
L 154.047232 147.396422 
L 152.859075 143.094144 
L 151.917533 138.653694 
L 153.35163 142.880357 
L 154.529699 147.185409 
L 155.4475 151.553356 
L 156.10173 155.968478 
L 156.490034 160.414885 
L 156.611015 164.876576 
L 156.464237 169.337492 
L 156.050229 173.78158 
L 155.370481 178.192845 
L 154.427439 182.555412 
L 153.224496 186.85358 
L 151.765983 191.071881 
L 150.057149 195.195132 
L 148.104143 199.208496 
L 145.913993 203.097527 
L 143.451527 206.910708 
L 145.413935 202.901934 
L 147.613194 199.018047 
L 150.041389 195.273025 
L 152.689781 191.680347 
L 155.548839 188.252942 
L 158.608273 185.003145 
L 161.857073 181.942651 
L 165.283546 179.082476 
L 168.87536 176.432913 
L 172.61959 174.003497 
L 176.50276 171.802972 
L 180.510894 169.839257 
L 184.629569 168.119419 
L 188.84396 166.649648 
L 193.138901 165.435234 
L 197.573516 164.466586 
L 193.355692 165.926474 
L 189.057916 167.130817 
L 184.695657 168.075282 
L 180.284613 168.756468 
L 175.840661 169.171925 
L 171.379792 169.320157 
L 166.918063 169.200631 
L 162.471529 168.813776 
L 158.056194 168.160986 
L 153.687948 167.244609 
L 149.382512 166.067944 
L 145.155382 164.635225 
L 141.021769 162.951608 
L 136.996551 161.023153 
L 133.094214 158.8568 
L 129.266062 156.417671 
L 133.286749 158.355556 
L 137.183997 160.53105 
L 140.943781 162.936324 
L 144.552569 165.562722 
L 147.997375 168.400791 
L 151.265799 171.440317 
L 154.34608 174.670362 
L 157.227132 178.0793 
L 159.898585 181.654863 
L 162.350827 185.384184 
L 164.575031 189.25384 
L 166.563192 193.249904 
L 168.308155 197.357996 
L 169.803641 201.563331 
L 171.044268 205.850774 
L 172.039986 210.27939 
L 170.554361 206.070562 
L 169.323788 201.780223 
L 168.352695 197.423814 
L 167.644578 193.017014 
L 167.201984 188.575682 
L 167.026506 184.115802 
L 167.118777 179.653425 
L 167.478463 175.204612 
L 168.104271 170.785372 
L 168.993949 166.41161 
L 170.144293 162.099067 
L 171.551165 157.863263 
L 173.209501 153.719444 
L 175.113333 149.682522 
L 177.255809 145.767025 
L 179.671509 141.924045 
L 183.325389 137.226094 
L 186.788478 132.385785 
L 190.055236 127.410861 
L 193.120437 122.309281 
L 195.979178 117.089206 
L 198.626885 111.758987 
L 201.059322 106.327152 
L 203.272598 100.802391 
L 203.525372 100.128 
L 205.711882 105.663409 
L 208.118 111.106954 
L 210.739877 116.449925 
L 213.573319 121.683775 
L 216.613792 126.800132 
L 219.856433 131.790809 
L 223.296054 136.647823 
L 226.927153 141.363404 
L 230.74392 145.930008 
L 234.740249 150.340329 
L 236.16 151.824867 
L 232.103169 156.1796 
L 228.223726 160.693081 
L 224.527878 165.358087 
L 221.021536 170.167156 
L 217.71031 175.112595 
L 214.599498 180.186492 
L 211.694076 185.380729 
L 208.998692 190.686998 
L 206.517658 196.096808 
L 204.254943 201.601507 
L 202.214168 207.192286 
L 200.398597 212.860203 
L 198.811134 218.59619 
L 197.454319 224.39107 
L 196.330322 230.235573 
L 195.440943 236.120348 
L 194.787603 242.035982 
L 194.371349 247.973011 
L 194.326637 248.928 
L 193.948536 242.988419 
L 193.333217 237.068709 
L 192.481666 231.178341 
L 191.395243 225.326737 
L 190.075688 219.523259 
L 188.525111 213.777192 
L 186.745993 208.097727 
L 185.113795 203.483833 
L 183.022743 199.540634 
L 181.171904 195.479142 
L 179.567939 191.313975 
L 178.21662 187.060124 
L 177.122811 182.732896 
L 176.290448 178.347866 
L 175.722526 173.920814 
L 175.421091 169.467674 
L 175.387226 165.004472 
L 175.621053 160.547271 
L 176.121731 156.112112 
L 176.887458 151.714956 
L 177.915479 147.371628 
L 179.202093 143.097761 
L 179.615873 141.893543 
L 180.554692 136.016452 
L 181.257739 130.106519 
L 181.723889 124.173199 
L 181.952398 118.225984 
L 181.942898 112.274388 
L 181.695405 106.327933 
L 181.182735 100.128 
L 180.686901 106.058913 
L 180.428637 112.00491 
L 180.408356 117.956479 
L 180.626091 123.904098 
L 181.081492 129.838252 
L 181.773833 135.749449 
L 182.702004 141.628231 
L 183.165364 144.103497 
L 189.030101 143.090363 
L 194.849632 141.843512 
L 200.614648 140.364939 
L 206.315925 138.65701 
L 211.944342 136.722457 
L 217.490896 134.564374 
L 222.946713 132.186215 
L 228.303065 129.591784 
L 233.551383 126.785231 
L 236.16 125.287583 
L 230.969485 122.375515 
L 225.666671 119.673342 
L 220.26004 117.185386 
L 214.758243 114.915627 
L 209.17008 112.867698 
L 203.504491 111.044874 
L 197.770541 109.45007 
L 191.977403 108.08584 
L 186.134343 106.954364 
L 180.250711 106.057453 
L 174.335917 105.396543 
L 168.399426 104.972689 
L 162.450734 104.786572 
L 156.499357 104.838487 
L 150.554817 105.128352 
L 144.626623 105.655704 
L 138.72426 106.419698 
L 132.857169 107.419113 
L 127.034738 108.652349 
L 121.26628 110.117434 
L 115.561024 111.812024 
L 109.928097 113.733408 
L 104.376511 115.878512 
L 98.915146 118.243904 
L 93.552741 120.825801 
L 88.297873 123.620071 
L 87.36 124.147562 
L 92.594524 126.979759 
L 97.938118 129.600366 
L 103.382235 132.00519 
L 108.918164 134.190383 
L 114.537049 136.152451 
L 120.229902 137.888253 
L 125.987614 139.395014 
L 131.800975 140.670322 
L 137.660685 141.712138 
L 142.931943 142.444605 
L 145.079831 136.894095 
L 147.00404 131.262133 
L 148.701491 125.557728 
L 150.16947 119.790005 
L 151.405626 113.968193 
L 152.407984 108.101605 
L 153.174939 102.199625 
L 153.387455 100.128 
L 154.071737 106.040135 
L 154.991894 111.920177 
L 156.146454 117.758719 
L 157.533569 123.54642 
L 159.151022 129.274023 
L 160.996223 134.932363 
L 161.853893 137.328118 
L 162.498383 141.744673 
L 162.87688 146.191926 
L 162.98802 150.653872 
L 162.831403 155.114454 
L 162.407595 159.557618 
L 161.718119 163.967373 
L 160.765457 168.327849 
L 159.553038 172.623354 
L 158.085225 176.838427 
L 156.3673 180.9579 
L 154.405447 184.966946 
L 152.206725 188.851137 
L 149.779049 192.596495 
L 147.131154 196.18954 
L 144.27257 199.617341 
L 141.213586 202.867561 
L 139.615866 204.419091 
L 134.698214 207.771446 
L 129.918555 211.317773 
L 125.284534 215.052399 
L 120.803565 218.969349 
L 116.482816 223.062357 
L 112.329201 227.324875 
L 108.349363 231.750083 
L 104.549669 236.330903 
L 100.936199 241.060006 
L 97.514733 245.929826 
L 95.548661 248.928 
L 92.245517 243.977159 
L 88.747035 239.16237 
L 87.36 237.360378 
L 90.931652 232.599614 
L 94.310068 227.699829 
L 97.489842 222.668863 
L 100.465888 217.514764 
L 103.233444 212.245778 
L 105.788083 206.870334 
L 108.125718 201.397032 
L 110.24261 195.834626 
L 112.135371 190.192018 
L 113.800974 184.478232 
L 115.236755 178.70241 
L 116.440416 172.873793 
L 117.410031 167.001704 
L 118.14405 161.095538 
L 118.641298 155.164743 
L 118.90098 149.218808 
L 118.92268 143.267245 
L 118.706364 137.319574 
L 118.252378 131.385311 
L 117.561447 125.473949 
L 116.634677 119.594946 
L 115.473552 113.757706 
L 114.079928 107.971568 
L 112.456035 102.245789 
L 111.79207 100.128 
L 110.082957 105.828922 
L 108.603187 111.59363 
L 107.355128 117.412903 
L 106.340775 123.277429 
L 105.561753 129.177828 
L 105.019306 135.104659 
L 104.714304 141.048442 
L 104.647233 146.999667 
L 104.818202 152.948814 
L 105.226936 158.886366 
L 105.872783 164.802823 
L 106.754707 170.68872 
L 107.8713 176.534642 
L 109.220773 182.331236 
L 110.80097 188.069229 
L 112.60936 193.739441 
L 114.643053 199.332801 
L 116.898793 204.840361 
L 119.372972 210.25331 
L 122.061633 215.562988 
L 124.960474 220.760902 
L 128.064856 225.838735 
L 131.369815 230.788364 
L 134.870063 235.60187 
L 138.56 240.271554 
L 142.433722 244.789945 
L 146.270939 248.928 
L 150.313209 244.559747 
L 154.177562 240.033341 
L 157.857816 235.356022 
L 161.348084 230.535274 
L 164.642781 225.578808 
L 167.736637 220.494555 
L 170.624702 215.290647 
L 173.349661 209.876547 
L 178.652612 212.578453 
L 184.059368 215.066136 
L 189.56128 217.335617 
L 195.149546 219.383265 
L 200.815227 221.205803 
L 206.549257 222.800318 
L 212.342464 224.164256 
L 218.185581 225.295437 
L 224.069259 226.192051 
L 229.984085 226.852664 
L 236.16 227.288299 
L 234.674225 227.369527 
L 228.741474 227.842867 
L 222.832398 228.553075 
L 216.956449 229.499016 
L 211.123027 230.679175 
L 205.341466 232.091665 
L 199.621013 233.734225 
L 193.970822 235.604229 
L 188.39993 237.698685 
L 182.91725 240.014241 
L 177.531553 242.547194 
L 172.251455 245.293491 
L 167.085404 248.248739 
L 165.9625 248.928 
L 160.822714 245.927304 
L 155.567043 243.134546 
L 150.203895 240.554192 
L 144.74185 238.19037 
L 139.189647 236.046863 
L 133.556168 234.1271 
L 127.850425 232.434151 
L 122.081546 230.970725 
L 116.25876 229.739164 
L 110.391382 228.741437 
L 104.488799 227.97914 
L 98.560454 227.453494 
L 92.615831 227.165339 
L 87.36 227.108717 
L 91.823686 227.072516 
L 97.769759 226.816021 
L 103.70082 226.321953 
L 109.607378 225.5911 
L 115.479986 224.624633 
L 121.309248 223.424097 
L 127.085839 221.991413 
L 132.800516 220.328873 
L 138.444139 218.439137 
L 144.007678 216.325227 
L 149.482233 213.990527 
L 155.380814 211.176956 
L 159.562613 215.411828 
L 163.910417 219.476085 
L 168.417269 223.363225 
L 173.075961 227.06703 
L 177.879039 230.581574 
L 182.81882 233.901235 
L 187.8874 237.020702 
L 193.076671 239.934985 
L 198.378332 242.639421 
L 203.783901 245.129684 
L 209.284729 247.40179 
L 213.376278 248.928 
L 218.941412 246.818292 
L 224.417728 244.487725 
L 229.796466 241.940028 
L 235.069021 239.179277 
L 236.16 238.573963 
L 230.910779 235.7691 
L 225.553592 233.176394 
L 220.097009 230.799992 
L 214.54976 228.643695 
L 208.92072 226.710955 
L 203.218893 225.004862 
L 197.453402 223.528146 
L 191.63347 222.283169 
L 185.768407 221.271923 
L 179.867596 220.496026 
L 173.940478 219.956719 
L 167.996535 219.654866 
L 162.045275 219.590947 
L 156.096219 219.765067 
L 150.158885 220.176947 
L 144.242771 220.825927 
L 138.357341 221.710969 
L 132.512012 222.830658 
L 126.716133 224.183202 
L 120.978979 225.766438 
L 115.309725 227.577832 
L 109.717443 229.614487 
L 104.211079 231.873144 
L 98.799442 234.350191 
L 93.491188 237.041664 
L 88.294811 239.943257 
L 87.36 240.494635 
L 92.535076 243.434053 
L 97.823557 246.164171 
L 103.216984 248.680622 
L 103.779233 248.928 
L 109.183002 246.433835 
L 114.482709 243.725571 
L 119.669874 240.807543 
L 124.736201 237.684417 
L 129.673583 234.36119 
L 134.474123 230.843179 
L 139.130139 227.136011 
L 143.634184 223.245618 
L 147.979052 219.178223 
L 152.157792 214.940333 
L 155.573375 211.209953 
L 157.946892 216.667791 
L 160.536765 222.026349 
L 163.338852 227.277053 
L 166.348669 232.411503 
L 169.561403 237.421486 
L 172.971912 242.298986 
L 176.574741 247.0362 
L 178.099491 248.928 
L 181.779191 244.250246 
L 185.268888 239.429085 
L 188.562999 234.472229 
L 191.656253 229.387609 
L 194.543703 224.18336 
L 197.220728 218.867805 
L 199.683047 213.449451 
L 201.926719 207.936963 
L 203.948156 202.339163 
L 205.744124 196.665004 
L 207.31175 190.923564 
L 208.648525 185.124028 
L 209.752311 179.275675 
L 210.621343 173.38786 
L 211.254229 167.470003 
L 211.649959 161.53157 
L 211.807898 155.582063 
L 211.727793 149.630999 
L 211.409774 143.687899 
L 210.854348 137.762269 
L 210.062405 131.863591 
L 209.035211 126.0013 
L 207.774409 120.184775 
L 206.282017 114.423322 
L 204.560423 108.726157 
L 202.612379 103.102394 
L 201.478674 100.128 
L 199.410779 105.708806 
L 197.567712 111.367841 
L 195.952419 117.096053 
L 194.567486 122.884277 
L 193.415128 128.723254 
L 192.497189 134.603643 
L 191.815137 140.516035 
L 191.370063 146.450973 
L 191.173666 151.753535 
L 196.989655 153.016802 
L 202.85151 154.046481 
L 208.749852 154.840925 
L 214.675246 155.398863 
L 220.618211 155.719402 
L 226.56924 155.80203 
L 232.518814 155.646613 
L 236.16 155.433825 
L 230.216023 155.13263 
L 224.264756 155.069372 
L 218.31572 155.244151 
L 212.378431 155.656688 
L 206.462389 156.306324 
L 200.577058 157.192018 
L 195.192522 158.215231 
L 190.928641 159.534561 
L 186.59332 160.595838 
L 182.202161 161.395242 
L 177.770969 161.929896 
L 173.315691 162.197876 
L 168.852361 162.198218 
L 164.397041 161.930919 
L 159.965767 161.396943 
L 155.574487 160.598211 
L 151.239003 159.537597 
L 146.97492 158.218919 
L 142.797583 156.646922 
L 138.722026 154.827265 
L 134.762917 152.766494 
L 132.557731 151.483099 
L 135.596314 154.7524 
L 138.433389 158.198024 
L 141.058745 161.80757 
L 143.462934 165.568048 
L 145.637304 169.465924 
L 147.574029 173.487169 
L 149.266139 177.617312 
L 150.707543 181.841489 
L 151.893056 186.144497 
L 152.81841 190.51085 
L 153.480274 194.924834 
L 153.876268 199.370563 
L 154.004965 203.832038 
L 153.865902 208.293202 
L 153.666303 210.836843 
L 155.293604 206.680738 
L 157.167194 202.629691 
L 159.280329 198.698282 
L 161.625405 194.900659 
L 164.193981 191.25049 
L 166.976815 187.760912 
L 169.963889 184.444482 
L 173.144455 181.313138 
L 176.507066 178.378148 
L 180.03962 175.650074 
L 183.729403 173.138736 
L 187.563136 170.853171 
L 191.527022 168.801605 
L 195.606796 166.991421 
L 197.985175 166.067698 
L 193.534581 166.404651 
L 189.071792 166.474123 
L 184.612867 166.275863 
L 180.173854 165.810584 
L 175.770729 165.079962 
L 171.419338 164.086626 
L 167.135342 162.83415 
L 162.934158 161.327043 
L 158.830907 159.570727 
L 154.840354 157.571525 
L 150.976863 155.336631 
L 147.254337 152.874087 
L 143.686173 150.192758 
L 140.285214 147.302292 
L 138.421093 145.560166 
L 138.421093 145.560166 
" style="fill:none;stroke:#1f77b4;stroke-linecap:square;stroke-width:1.5;"/>
   </g>
   <g id="patch_5">
    <path d="M 57.6 263.808 
L 57.6 85.248 
" style="fill:none;stroke:#000000;stroke-linecap:square;stroke-linejoin:miter;stroke-width:0.8;"/>
   </g>
   <g id="patch_6">
    <path d="M 414.72 263.808 
L 414.72 85.248 
" style="fill:none;stroke:#000000;stroke-linecap:square;stroke-linejoin:miter;stroke-width:0.8;"/>
   </g>
   <g id="patch_7">
    <path d="M 57.6 263.808 
L 414.72 263.808 
" style="fill:none;stroke:#000000;stroke-linecap:square;stroke-linejoin:miter;stroke-width:0.8;"/>
   </g>
   <g id="patch_8">
    <path d="M 57.6 85.248 
L 414.72 85.248 
" style="fill:none;stroke:#000000;stroke-linecap:square;stroke-linejoin:miter;stroke-width:0.8;"/>
   </g>
  </g>
 </g>
 <defs>
  <clipPath id="pc6bf0c23c5">
   <rect height="178.56" width="357.12" x="57.6" y="85.248"/>
  </clipPath>
 </defs>
</svg>
