<?xml version="1.0" encoding="utf-8" standalone="no"?>
<!DOCTYPE svg PUBLIC "-//W3C//DTD SVG 1.1//EN"
  "http://www.w3.org/Graphics/SVG/1.1/DTD/svg11.dtd">
<!-- Created with matplotlib (https://matplotlib.org/) -->
<svg height="345.6pt" version="1.1" viewBox="0 0 460.8 345.6" width="460.8pt" xmlns="http://www.w3.org/2000/svg" xmlns:xlink="http://www.w3.org/1999/xlink">
 <defs>
  <style type="text/css">
*{stroke-linecap:butt;stroke-linejoin:round;}
  </style>
 </defs>
 <g id="figure_1">
  <g id="patch_1">
   <path d="M 0 345.6 
L 460.8 345.6 
L 460.8 0 
L 0 0 
z
" style="fill:#ffffff;"/>
  </g>
  <g id="axes_1">
   <g id="patch_2">
    <path d="M 82.520165 307.584 
L 389.799835 307.584 
L 389.799835 41.472 
L 82.520165 41.472 
z
" style="fill:#ffffff;"/>
   </g>
   <g id="patch_3">
    <path clip-path="url(#pe63db37be0)" d="M 236.16 225.741278 
C 249.74192 225.741278 262.769389 220.345124 272.373256 210.741256 
C 281.977124 201.137389 287.373278 188.10992 287.373278 174.528 
C 287.373278 160.94608 281.977124 147.918611 272.373256 138.314744 
C 262.769389 128.710876 249.74192 123.314722 236.16 123.314722 
C 222.57808 123.314722 209.550611 128.710876 199.946744 138.314744 
C 190.342876 147.918611 184.946722 160.94608 184.946722 174.528 
C 184.946722 188.10992 190.342876 201.137389 199.946744 210.741256 
C 209.550611 220.345124 222.57808 225.741278 236.16 225.741278 
z
" style="fill:#009900;fill-opacity:0.5;stroke:#009900;stroke-linejoin:miter;stroke-width:2;"/>
   </g>
   <g id="matplotlib.axis_1">
    <g id="xtick_1">
     <g id="line2d_1">
      <defs>
       <path d="M 0 0 
L 0 3.5 
" id="m726aa4343e" style="stroke:#000000;stroke-width:0.8;"/>
      </defs>
      <g>
       <use style="stroke:#000000;stroke-width:0.8;" x="108.126804" xlink:href="#m726aa4343e" y="307.584"/>
      </g>
     </g>
     <g id="text_1">
      <!-- −2 -->
      <defs>
       <path d="M 10.59375 35.5 
L 73.1875 35.5 
L 73.1875 27.203125 
L 10.59375 27.203125 
z
" id="DejaVuSans-8722"/>
       <path d="M 19.1875 8.296875 
L 53.609375 8.296875 
L 53.609375 0 
L 7.328125 0 
L 7.328125 8.296875 
Q 12.9375 14.109375 22.625 23.890625 
Q 32.328125 33.6875 34.8125 36.53125 
Q 39.546875 41.84375 41.421875 45.53125 
Q 43.3125 49.21875 43.3125 52.78125 
Q 43.3125 58.59375 39.234375 62.25 
Q 35.15625 65.921875 28.609375 65.921875 
Q 23.96875 65.921875 18.8125 64.3125 
Q 13.671875 62.703125 7.8125 59.421875 
L 7.8125 69.390625 
Q 13.765625 71.78125 18.9375 73 
Q 24.125 74.21875 28.421875 74.21875 
Q 39.75 74.21875 46.484375 68.546875 
Q 53.21875 62.890625 53.21875 53.421875 
Q 53.21875 48.921875 51.53125 44.890625 
Q 49.859375 40.875 45.40625 35.40625 
Q 44.1875 33.984375 37.640625 27.21875 
Q 31.109375 20.453125 19.1875 8.296875 
z
" id="DejaVuSans-50"/>
      </defs>
      <g transform="translate(100.755711 322.182437)scale(0.1 -0.1)">
       <use xlink:href="#DejaVuSans-8722"/>
       <use x="83.789062" xlink:href="#DejaVuSans-50"/>
      </g>
     </g>
    </g>
    <g id="xtick_2">
     <g id="line2d_2">
      <g>
       <use style="stroke:#000000;stroke-width:0.8;" x="172.143402" xlink:href="#m726aa4343e" y="307.584"/>
      </g>
     </g>
     <g id="text_2">
      <!-- −1 -->
      <defs>
       <path d="M 12.40625 8.296875 
L 28.515625 8.296875 
L 28.515625 63.921875 
L 10.984375 60.40625 
L 10.984375 69.390625 
L 28.421875 72.90625 
L 38.28125 72.90625 
L 38.28125 8.296875 
L 54.390625 8.296875 
L 54.390625 0 
L 12.40625 0 
z
" id="DejaVuSans-49"/>
      </defs>
      <g transform="translate(164.772308 322.182437)scale(0.1 -0.1)">
       <use xlink:href="#DejaVuSans-8722"/>
       <use x="83.789062" xlink:href="#DejaVuSans-49"/>
      </g>
     </g>
    </g>
    <g id="xtick_3">
     <g id="line2d_3">
      <g>
       <use style="stroke:#000000;stroke-width:0.8;" x="236.16" xlink:href="#m726aa4343e" y="307.584"/>
      </g>
     </g>
     <g id="text_3">
      <!-- 0 -->
      <defs>
       <path d="M 31.78125 66.40625 
Q 24.171875 66.40625 20.328125 58.90625 
Q 16.5 51.421875 16.5 36.375 
Q 16.5 21.390625 20.328125 13.890625 
Q 24.171875 6.390625 31.78125 6.390625 
Q 39.453125 6.390625 43.28125 13.890625 
Q 47.125 21.390625 47.125 36.375 
Q 47.125 51.421875 43.28125 58.90625 
Q 39.453125 66.40625 31.78125 66.40625 
z
M 31.78125 74.21875 
Q 44.046875 74.21875 50.515625 64.515625 
Q 56.984375 54.828125 56.984375 36.375 
Q 56.984375 17.96875 50.515625 8.265625 
Q 44.046875 -1.421875 31.78125 -1.421875 
Q 19.53125 -1.421875 13.0625 8.265625 
Q 6.59375 17.96875 6.59375 36.375 
Q 6.59375 54.828125 13.0625 64.515625 
Q 19.53125 74.21875 31.78125 74.21875 
z
" id="DejaVuSans-48"/>
      </defs>
      <g transform="translate(232.97875 322.182437)scale(0.1 -0.1)">
       <use xlink:href="#DejaVuSans-48"/>
      </g>
     </g>
    </g>
    <g id="xtick_4">
     <g id="line2d_4">
      <g>
       <use style="stroke:#000000;stroke-width:0.8;" x="300.176598" xlink:href="#m726aa4343e" y="307.584"/>
      </g>
     </g>
     <g id="text_4">
      <!-- 1 -->
      <g transform="translate(296.995348 322.182437)scale(0.1 -0.1)">
       <use xlink:href="#DejaVuSans-49"/>
      </g>
     </g>
    </g>
    <g id="xtick_5">
     <g id="line2d_5">
      <g>
       <use style="stroke:#000000;stroke-width:0.8;" x="364.193196" xlink:href="#m726aa4343e" y="307.584"/>
      </g>
     </g>
     <g id="text_5">
      <!-- 2 -->
      <g transform="translate(361.011946 322.182437)scale(0.1 -0.1)">
       <use xlink:href="#DejaVuSans-50"/>
      </g>
     </g>
    </g>
   </g>
   <g id="matplotlib.axis_2">
    <g id="ytick_1">
     <g id="line2d_6">
      <defs>
       <path d="M 0 0 
L -3.5 0 
" id="ma1ad198387" style="stroke:#000000;stroke-width:0.8;"/>
      </defs>
      <g>
       <use style="stroke:#000000;stroke-width:0.8;" x="82.520165" xlink:href="#ma1ad198387" y="302.561196"/>
      </g>
     </g>
     <g id="text_6">
      <!-- −2.0 -->
      <defs>
       <path d="M 10.6875 12.40625 
L 21 12.40625 
L 21 0 
L 10.6875 0 
z
" id="DejaVuSans-46"/>
      </defs>
      <g transform="translate(51.237353 306.360414)scale(0.1 -0.1)">
       <use xlink:href="#DejaVuSans-8722"/>
       <use x="83.789062" xlink:href="#DejaVuSans-50"/>
       <use x="147.412109" xlink:href="#DejaVuSans-46"/>
       <use x="179.199219" xlink:href="#DejaVuSans-48"/>
      </g>
     </g>
    </g>
    <g id="ytick_2">
     <g id="line2d_7">
      <g>
       <use style="stroke:#000000;stroke-width:0.8;" x="82.520165" xlink:href="#ma1ad198387" y="270.552897"/>
      </g>
     </g>
     <g id="text_7">
      <!-- −1.5 -->
      <defs>
       <path d="M 10.796875 72.90625 
L 49.515625 72.90625 
L 49.515625 64.59375 
L 19.828125 64.59375 
L 19.828125 46.734375 
Q 21.96875 47.46875 24.109375 47.828125 
Q 26.265625 48.1875 28.421875 48.1875 
Q 40.625 48.1875 47.75 41.5 
Q 54.890625 34.8125 54.890625 23.390625 
Q 54.890625 11.625 47.5625 5.09375 
Q 40.234375 -1.421875 26.90625 -1.421875 
Q 22.3125 -1.421875 17.546875 -0.640625 
Q 12.796875 0.140625 7.71875 1.703125 
L 7.71875 11.625 
Q 12.109375 9.234375 16.796875 8.0625 
Q 21.484375 6.890625 26.703125 6.890625 
Q 35.15625 6.890625 40.078125 11.328125 
Q 45.015625 15.765625 45.015625 23.390625 
Q 45.015625 31 40.078125 35.4375 
Q 35.15625 39.890625 26.703125 39.890625 
Q 22.75 39.890625 18.8125 39.015625 
Q 14.890625 38.140625 10.796875 36.28125 
z
" id="DejaVuSans-53"/>
      </defs>
      <g transform="translate(51.237353 274.352116)scale(0.1 -0.1)">
       <use xlink:href="#DejaVuSans-8722"/>
       <use x="83.789062" xlink:href="#DejaVuSans-49"/>
       <use x="147.412109" xlink:href="#DejaVuSans-46"/>
       <use x="179.199219" xlink:href="#DejaVuSans-53"/>
      </g>
     </g>
    </g>
    <g id="ytick_3">
     <g id="line2d_8">
      <g>
       <use style="stroke:#000000;stroke-width:0.8;" x="82.520165" xlink:href="#ma1ad198387" y="238.544598"/>
      </g>
     </g>
     <g id="text_8">
      <!-- −1.0 -->
      <g transform="translate(51.237353 242.343817)scale(0.1 -0.1)">
       <use xlink:href="#DejaVuSans-8722"/>
       <use x="83.789062" xlink:href="#DejaVuSans-49"/>
       <use x="147.412109" xlink:href="#DejaVuSans-46"/>
       <use x="179.199219" xlink:href="#DejaVuSans-48"/>
      </g>
     </g>
    </g>
    <g id="ytick_4">
     <g id="line2d_9">
      <g>
       <use style="stroke:#000000;stroke-width:0.8;" x="82.520165" xlink:href="#ma1ad198387" y="206.536299"/>
      </g>
     </g>
     <g id="text_9">
      <!-- −0.5 -->
      <g transform="translate(51.237353 210.335518)scale(0.1 -0.1)">
       <use xlink:href="#DejaVuSans-8722"/>
       <use x="83.789062" xlink:href="#DejaVuSans-48"/>
       <use x="147.412109" xlink:href="#DejaVuSans-46"/>
       <use x="179.199219" xlink:href="#DejaVuSans-53"/>
      </g>
     </g>
    </g>
    <g id="ytick_5">
     <g id="line2d_10">
      <g>
       <use style="stroke:#000000;stroke-width:0.8;" x="82.520165" xlink:href="#ma1ad198387" y="174.528"/>
      </g>
     </g>
     <g id="text_10">
      <!-- 0.0 -->
      <g transform="translate(59.61704 178.327219)scale(0.1 -0.1)">
       <use xlink:href="#DejaVuSans-48"/>
       <use x="63.623047" xlink:href="#DejaVuSans-46"/>
       <use x="95.410156" xlink:href="#DejaVuSans-48"/>
      </g>
     </g>
    </g>
    <g id="ytick_6">
     <g id="line2d_11">
      <g>
       <use style="stroke:#000000;stroke-width:0.8;" x="82.520165" xlink:href="#ma1ad198387" y="142.519701"/>
      </g>
     </g>
     <g id="text_11">
      <!-- 0.5 -->
      <g transform="translate(59.61704 146.31892)scale(0.1 -0.1)">
       <use xlink:href="#DejaVuSans-48"/>
       <use x="63.623047" xlink:href="#DejaVuSans-46"/>
       <use x="95.410156" xlink:href="#DejaVuSans-53"/>
      </g>
     </g>
    </g>
    <g id="ytick_7">
     <g id="line2d_12">
      <g>
       <use style="stroke:#000000;stroke-width:0.8;" x="82.520165" xlink:href="#ma1ad198387" y="110.511402"/>
      </g>
     </g>
     <g id="text_12">
      <!-- 1.0 -->
      <g transform="translate(59.61704 114.310621)scale(0.1 -0.1)">
       <use xlink:href="#DejaVuSans-49"/>
       <use x="63.623047" xlink:href="#DejaVuSans-46"/>
       <use x="95.410156" xlink:href="#DejaVuSans-48"/>
      </g>
     </g>
    </g>
    <g id="ytick_8">
     <g id="line2d_13">
      <g>
       <use style="stroke:#000000;stroke-width:0.8;" x="82.520165" xlink:href="#ma1ad198387" y="78.503103"/>
      </g>
     </g>
     <g id="text_13">
      <!-- 1.5 -->
      <g transform="translate(59.61704 82.302322)scale(0.1 -0.1)">
       <use xlink:href="#DejaVuSans-49"/>
       <use x="63.623047" xlink:href="#DejaVuSans-46"/>
       <use x="95.410156" xlink:href="#DejaVuSans-53"/>
      </g>
     </g>
    </g>
    <g id="ytick_9">
     <g id="line2d_14">
      <g>
       <use style="stroke:#000000;stroke-width:0.8;" x="82.520165" xlink:href="#ma1ad198387" y="46.494804"/>
      </g>
     </g>
     <g id="text_14">
      <!-- 2.0 -->
      <g transform="translate(59.61704 50.294023)scale(0.1 -0.1)">
       <use xlink:href="#DejaVuSans-50"/>
       <use x="63.623047" xlink:href="#DejaVuSans-46"/>
       <use x="95.410156" xlink:href="#DejaVuSans-48"/>
      </g>
     </g>
    </g>
   </g>
   <g id="line2d_15">
    <path clip-path="url(#pe63db37be0)" d="M 300.176598 63.648 
L 172.143402 63.648 
" style="fill:none;stroke:#009900;stroke-linecap:square;stroke-width:2;"/>
   </g>
   <g id="line2d_16">
    <path clip-path="url(#pe63db37be0)" d="M 172.143402 63.648 
L 108.126804 174.528 
" style="fill:none;stroke:#009900;stroke-linecap:square;stroke-width:2;"/>
   </g>
   <g id="line2d_17">
    <path clip-path="url(#pe63db37be0)" d="M 108.126804 174.528 
L 172.143402 285.408 
" style="fill:none;stroke:#009900;stroke-linecap:square;stroke-width:2;"/>
   </g>
   <g id="line2d_18">
    <path clip-path="url(#pe63db37be0)" d="M 172.143402 285.408 
L 300.176598 285.408 
" style="fill:none;stroke:#009900;stroke-linecap:square;stroke-width:2;"/>
   </g>
   <g id="line2d_19">
    <path clip-path="url(#pe63db37be0)" d="M 300.176598 285.408 
L 364.193196 174.528 
" style="fill:none;stroke:#009900;stroke-linecap:square;stroke-width:2;"/>
   </g>
   <g id="line2d_20">
    <path clip-path="url(#pe63db37be0)" d="M 364.193196 174.528 
L 300.176598 63.648 
" style="fill:none;stroke:#009900;stroke-linecap:square;stroke-width:2;"/>
   </g>
   <g id="line2d_21">
    <path clip-path="url(#pe63db37be0)" d="M 295.716287 117.547728 
L 300.684699 116.30701 
L 305.599522 114.868601 
L 310.452892 113.234803 
L 315.237046 111.408228 
L 319.944329 109.3918 
L 324.567212 107.188743 
L 325.146208 106.896633 
L 324.610704 107.247414 
L 320.391171 110.149145 
L 316.29105 113.21729 
L 312.316903 116.446942 
L 308.475086 119.832935 
L 304.771746 123.369851 
L 301.212807 127.052031 
L 297.803962 130.873586 
L 294.550666 134.828402 
L 291.458123 138.910151 
L 288.531279 143.112304 
L 285.774819 147.428138 
L 283.19315 151.850749 
L 282.597312 152.93226 
L 287.634217 153.856426 
L 292.704051 154.57843 
L 297.798702 155.097117 
L 302.910019 155.411657 
L 308.029826 155.521548 
L 313.149933 155.426613 
L 318.262147 155.127004 
L 323.358291 154.623201 
L 328.430212 153.916009 
L 333.469796 153.006561 
L 338.46898 151.89631 
L 343.419768 150.587033 
L 348.314238 149.080825 
L 349.309214 148.748187 
L 345.529129 152.202961 
L 341.890222 155.806134 
L 338.398314 159.551942 
L 335.058992 163.434394 
L 331.877598 167.447277 
L 328.85922 171.584172 
L 326.008689 175.838461 
L 323.330564 180.203338 
L 320.82913 184.67182 
L 318.508389 189.236758 
L 316.372052 193.890849 
L 314.423539 198.626649 
L 312.665965 203.43658 
L 311.102144 208.312948 
L 309.734576 213.247951 
L 308.565449 218.233696 
L 307.596634 223.262204 
L 306.829681 228.325433 
L 306.265817 233.415282 
L 305.905943 238.523607 
L 305.750635 243.642238 
L 305.800143 248.762985 
L 306.054386 253.877657 
L 306.512958 258.97807 
L 307.175125 264.056065 
L 308.039828 269.103519 
L 308.438988 271.09712 
L 303.607835 272.795489 
L 298.848463 274.685695 
L 294.168486 276.764713 
L 289.575391 279.029217 
L 285.076526 281.475585 
L 280.679088 284.099902 
L 278.627243 285.408 
L 274.280474 282.700584 
L 269.828914 280.169159 
L 265.279684 277.817773 
L 260.640064 275.650189 
L 255.917474 273.669874 
L 251.11947 271.879996 
L 246.253728 270.283419 
L 241.328033 268.882696 
L 236.350263 267.68007 
L 231.328383 266.677463 
L 226.270426 265.87648 
L 221.184484 265.278402 
L 216.078694 264.884185 
L 210.961223 264.694461 
L 205.840259 264.709533 
L 200.723993 264.929377 
L 195.620612 265.353641 
L 190.538279 265.981647 
L 185.485124 266.81239 
L 180.469233 267.84454 
L 175.498629 269.076446 
L 170.581263 270.506139 
L 165.725004 272.13133 
L 164.693609 272.50458 
L 168.558123 269.144515 
L 172.285178 265.632599 
L 175.868814 261.974449 
L 179.303295 258.175918 
L 182.583129 254.243082 
L 185.703068 250.182235 
L 188.65812 245.999871 
L 191.443559 241.702682 
L 194.054928 237.297543 
L 196.48805 232.7915 
L 198.739031 228.191763 
L 200.804272 223.505689 
L 202.680468 218.740777 
L 204.163659 214.515924 
L 199.828325 217.241612 
L 195.605457 220.138488 
L 191.501811 223.201916 
L 187.523952 226.426995 
L 183.678243 229.808567 
L 179.970838 233.341221 
L 176.407666 237.019307 
L 172.994429 240.836938 
L 169.736586 244.78801 
L 166.639351 248.8662 
L 163.707676 253.064984 
L 160.946254 257.377645 
L 158.434431 261.663366 
L 163.555288 261.626854 
L 168.670588 261.385591 
L 173.772148 260.939964 
L 178.851807 260.290685 
L 183.901439 259.438794 
L 188.912966 258.385652 
L 193.878369 257.132946 
L 198.789705 255.682678 
L 203.639118 254.037169 
L 208.418848 252.199052 
L 213.121251 250.171266 
L 217.738802 247.957057 
L 222.264115 245.559966 
L 226.68995 242.983828 
L 231.009227 240.232765 
L 235.215035 237.311177 
L 239.300648 234.223739 
L 243.259527 230.975389 
L 247.08534 227.571325 
L 250.771967 224.016992 
L 251.345028 223.438273 
L 256.390952 224.311858 
L 261.467774 224.982962 
L 266.567372 225.45051 
L 271.681588 225.713755 
L 276.80224 225.772275 
L 281.921137 225.625977 
L 287.030088 225.275094 
L 292.120921 224.720189 
L 297.185492 223.962148 
L 302.215698 223.002185 
L 307.203492 221.841835 
L 312.140895 220.482955 
L 317.020007 218.927719 
L 321.833024 217.178614 
L 326.572246 215.238438 
L 331.23009 213.110297 
L 335.799106 210.797593 
L 340.271984 208.304027 
L 344.641567 205.633589 
L 347.205289 203.951917 
L 347.455715 198.837058 
L 347.501401 193.716275 
L 347.342273 188.597762 
L 346.978587 183.489706 
L 346.410924 178.400279 
L 345.640193 173.337624 
L 344.667625 168.30984 
L 343.494778 163.32497 
L 342.123528 158.390988 
L 340.556067 153.515789 
L 338.794905 148.707171 
L 336.842857 143.972827 
L 334.703048 139.320331 
L 332.3789 134.757126 
L 329.874132 130.290512 
L 327.192751 125.927635 
L 324.339045 121.675475 
L 321.317582 117.540834 
L 318.133193 113.530326 
L 314.790975 109.650368 
L 311.296272 105.907166 
L 307.654677 102.306709 
L 303.872015 98.854758 
L 299.954338 95.556834 
L 295.907912 92.418213 
L 291.739212 89.443916 
L 287.454906 86.638702 
L 283.061849 84.007058 
L 278.567067 81.553195 
L 273.977753 79.281039 
L 269.301248 77.194223 
L 264.545033 75.296087 
L 259.716717 73.589667 
L 254.824025 72.077693 
L 249.874784 70.762584 
L 244.876911 69.646443 
L 239.838402 68.731057 
L 234.767318 68.01789 
L 229.671771 67.508083 
L 224.559913 67.202451 
L 219.439922 67.101484 
L 214.319989 67.205342 
L 209.208305 67.513859 
L 204.113046 68.026543 
L 199.042366 68.742573 
L 194.004374 69.660803 
L 189.007132 70.779765 
L 184.058634 72.097667 
L 179.166797 73.612403 
L 174.339445 75.321549 
L 169.584302 77.22237 
L 164.908976 79.311825 
L 162.397282 80.528775 
L 162.814268 85.632756 
L 163.435026 90.71598 
L 164.258562 95.770314 
L 165.283558 100.787672 
L 166.508375 105.760028 
L 167.931054 110.679427 
L 169.549318 115.537999 
L 171.360579 120.327972 
L 173.361939 125.041681 
L 175.550197 129.671588 
L 177.92185 134.210284 
L 180.473106 138.650508 
L 183.199883 142.985158 
L 186.097819 147.207299 
L 189.162277 151.310176 
L 189.991366 152.36368 
L 184.871811 152.484777 
L 179.761195 152.810505 
L 174.667692 153.340342 
L 169.599451 154.073441 
L 164.56458 155.00863 
L 159.571134 156.144412 
L 154.627101 157.478969 
L 149.740392 159.010168 
L 144.918822 160.735558 
L 140.170107 162.65238 
L 135.501842 164.757566 
L 130.921497 167.047749 
L 126.436398 169.519265 
L 122.053722 172.16816 
L 117.780478 174.990197 
L 113.623504 177.98086 
L 111.197521 179.846638 
L 115.914972 177.854112 
L 120.54897 175.674532 
L 125.092101 173.311386 
L 129.537097 170.768452 
L 133.876848 168.049801 
L 138.10441 165.15978 
L 142.213021 162.103014 
L 146.196107 158.884392 
L 150.047296 155.509063 
L 153.760428 151.982429 
L 157.329562 148.310129 
L 160.748988 144.498039 
L 164.013236 140.552259 
L 167.117084 136.479099 
L 170.055566 132.285076 
L 172.823982 127.976901 
L 175.417902 123.561464 
L 177.833177 119.04583 
L 180.065942 114.437223 
L 182.112627 109.743016 
L 183.969956 104.970717 
L 185.634959 100.127963 
L 187.104971 95.2225 
L 188.377641 90.262176 
L 189.450933 85.254927 
L 190.32313 80.208763 
L 190.992836 75.131756 
L 191.458981 70.03203 
L 191.720818 64.917742 
L 191.754083 63.648 
L 191.809255 65.567687 
L 192.097065 70.68058 
L 192.589107 75.777873 
L 193.284592 80.851412 
L 194.182408 85.893081 
L 195.28112 90.894814 
L 196.578968 95.84861 
L 198.073877 100.746543 
L 199.763456 105.580778 
L 201.645001 110.343581 
L 203.715502 115.027332 
L 205.971647 119.624539 
L 208.409827 124.127847 
L 211.026141 128.530051 
L 211.667616 129.551084 
L 211.398333 128.97031 
L 209.140239 124.37406 
L 206.70015 119.871786 
L 204.08197 115.470691 
L 201.289888 111.177816 
L 198.328369 107.000029 
L 195.202153 102.944012 
L 191.91624 99.016255 
L 188.475886 95.223041 
L 184.886597 91.570439 
L 181.154113 88.064291 
L 177.284407 84.710208 
L 173.283668 81.513555 
L 169.158298 78.479446 
L 165.148219 75.764013 
L 166.292094 76.339154 
L 170.923382 78.524484 
L 175.638356 80.522864 
L 180.429472 82.331097 
L 185.289066 83.946291 
L 190.209363 85.36586 
L 195.182492 86.587534 
L 200.200498 87.609359 
L 205.255351 88.4297 
L 210.338966 89.047245 
L 215.44321 89.461005 
L 220.559916 89.670319 
L 225.680901 89.674852 
L 230.79797 89.474596 
L 235.902939 89.069872 
L 240.987639 88.461328 
L 246.043936 87.649937 
L 251.063743 86.636997 
L 256.039027 85.424129 
L 260.961829 84.013272 
L 265.824275 82.406684 
L 270.618585 80.606936 
L 275.337089 78.616905 
L 279.972239 76.439777 
L 284.516619 74.079034 
L 288.96296 71.538452 
L 293.304148 68.822096 
L 297.533238 65.934312 
L 300.31795 63.892829 
L 295.644362 65.98617 
L 291.058223 68.264729 
L 286.566871 70.724863 
L 282.177491 73.362635 
L 277.897104 76.173826 
L 273.732559 79.153937 
L 269.690517 82.298203 
L 265.777446 85.601591 
L 261.999606 89.058819 
L 258.363039 92.664354 
L 254.873565 96.412429 
L 251.536764 100.297048 
L 248.357976 104.311997 
L 245.342286 108.450851 
L 242.494518 112.70699 
L 239.819228 117.073605 
L 237.320696 121.54371 
L 236.394182 123.315257 
L 234.007085 118.784664 
L 231.440723 114.353154 
L 228.6992 110.027815 
L 225.786903 105.815568 
L 222.70849 101.723151 
L 219.468887 97.757111 
L 216.073276 93.923793 
L 212.527089 90.229329 
L 208.835999 86.679631 
L 205.005912 83.280376 
L 201.042955 80.037003 
L 196.953467 76.9547 
L 192.743991 74.038398 
L 188.421261 71.292764 
L 183.992193 68.722188 
L 179.463872 66.330784 
L 174.843543 64.122378 
L 173.785102 63.648 
L 171.559838 64.658763 
L 172.110276 69.750081 
L 172.863873 74.815315 
L 173.819422 79.846361 
L 174.975395 84.835172 
L 176.329942 89.773765 
L 177.880897 94.65424 
L 179.625779 99.46879 
L 181.561795 104.209712 
L 183.685849 108.869422 
L 185.994543 113.440465 
L 188.484183 117.915529 
L 191.150786 122.287454 
L 193.990087 126.549246 
L 196.997542 130.694088 
L 200.168342 134.715348 
L 201.746963 136.599874 
L 200.854034 135.682316 
L 197.191914 132.102737 
L 193.389578 128.672468 
L 189.45311 125.396996 
L 185.388806 122.28156 
L 181.20317 119.331145 
L 176.902896 116.550471 
L 172.494865 113.943987 
L 167.986128 111.515861 
L 163.383899 109.269979 
L 158.695539 107.209934 
L 153.92855 105.339021 
L 149.04994 103.64705 
L 152.921692 106.998772 
L 156.924379 110.192984 
L 161.0516 113.224577 
L 165.29675 116.0887 
L 169.65304 118.780771 
L 174.113498 121.296483 
L 178.670991 123.631813 
L 183.318226 125.783023 
L 188.04777 127.746673 
L 192.852055 129.51962 
L 197.723396 131.09903 
L 202.654001 132.482374 
L 205.829743 133.262089 
L 206.11202 128.148889 
L 206.189597 123.02849 
L 206.062351 117.909085 
L 205.730486 112.798863 
L 205.194531 107.706 
L 204.455345 102.638643 
L 203.51411 97.604899 
L 202.372332 92.612821 
L 201.031837 87.670395 
L 199.49477 82.785527 
L 197.76359 77.966034 
L 195.841066 73.219624 
L 193.730275 68.553892 
L 191.261038 63.648 
L 188.952088 68.218914 
L 186.827773 72.878504 
L 184.89149 77.619318 
L 183.146339 82.43377 
L 181.59511 87.314159 
L 180.240286 92.252676 
L 179.084033 97.241421 
L 178.128202 102.272414 
L 177.374322 107.337606 
L 176.823598 112.428893 
L 176.476912 117.538131 
L 176.334818 122.657145 
L 176.397544 127.777748 
L 176.664989 132.891746 
L 177.136726 137.990958 
L 177.811999 143.067227 
L 178.689729 148.112432 
L 179.768511 153.118501 
L 181.046619 158.077427 
L 182.52201 162.981275 
L 184.192322 167.8222 
L 185.123434 170.277256 
L 182.583585 174.724015 
L 180.223589 179.268783 
L 178.047224 183.904292 
L 176.057971 188.623123 
L 174.259012 193.41773 
L 172.653225 198.28044 
L 171.243179 203.203474 
L 170.031129 208.178958 
L 169.019016 213.198931 
L 168.208457 218.255362 
L 167.60075 223.340163 
L 167.196867 228.445197 
L 166.997454 233.5623 
L 167.00283 238.683283 
L 167.212986 243.799956 
L 167.627587 248.904131 
L 168.245968 253.987644 
L 169.067142 259.042363 
L 170.089793 264.060199 
L 171.312286 269.033127 
L 172.732665 273.953191 
L 174.348659 278.812519 
L 176.15768 283.603337 
L 176.896682 285.408 
L 178.778463 280.64529 
L 180.46828 275.811139 
L 181.963431 270.91328 
L 183.261525 265.959548 
L 184.360483 260.957869 
L 185.258549 255.916245 
L 185.954285 250.84274 
L 186.446578 245.745471 
L 186.734641 240.632593 
L 186.818014 235.512285 
L 186.696562 230.392739 
L 186.370479 225.282145 
L 185.840289 220.188679 
L 185.106838 215.120488 
L 184.1713 210.085682 
L 183.035172 205.092315 
L 181.700272 200.148375 
L 180.168734 195.261772 
L 178.443009 190.440322 
L 176.525859 185.69174 
L 174.420349 181.023621 
L 172.129848 176.443435 
L 169.658021 171.958508 
L 167.008822 167.576015 
L 164.186488 163.302967 
L 161.195537 159.1462 
L 158.040751 155.112365 
L 154.727178 151.207914 
L 151.26012 147.439093 
L 147.645122 143.811933 
L 143.887968 140.332235 
L 139.994668 137.005567 
L 135.971452 133.83725 
L 132.913171 131.596754 
L 133.495795 131.862009 
L 138.203047 133.878511 
L 142.987172 135.705161 
L 147.840517 137.339036 
L 152.755317 138.777521 
L 157.72371 140.018317 
L 162.737748 141.059437 
L 167.789408 141.899216 
L 172.87061 142.536311 
L 177.973224 142.969703 
L 183.089088 143.198698 
L 188.210017 143.222929 
L 193.327819 143.042359 
L 195.900518 142.874028 
L 194.969649 137.838356 
L 193.838152 132.843938 
L 192.507836 127.898762 
L 190.98083 123.010741 
L 189.259577 118.187693 
L 187.34683 113.437335 
L 185.24565 108.767266 
L 182.959397 104.184958 
L 180.49173 99.69774 
L 177.846596 95.312793 
L 175.028226 91.03713 
L 172.04113 86.877591 
L 168.890086 82.840832 
L 165.580135 78.93331 
L 164.204444 77.39868 
L 169.228087 78.392413 
L 174.287451 79.184459 
L 179.374442 79.773551 
L 184.480921 80.158746 
L 189.598719 80.339429 
L 194.719648 80.31531 
L 199.835517 80.086427 
L 204.938141 79.653148 
L 210.019357 79.016164 
L 215.071036 78.176495 
L 220.085096 77.135485 
L 225.053516 75.894799 
L 229.968348 74.456421 
L 234.821728 72.822653 
L 239.605894 70.996108 
L 244.31319 68.979709 
L 248.936086 66.776681 
L 253.467187 64.390549 
L 254.792685 63.648 
L 259.295152 66.087732 
L 263.891581 68.345462 
L 268.574618 70.417578 
L 273.336772 72.300765 
L 278.170424 73.99201 
L 283.067841 75.488607 
L 288.021189 76.788164 
L 293.022543 77.888599 
L 298.063903 78.788154 
L 303.137202 79.485388 
L 308.234325 79.979187 
L 309.664103 80.080842 
L 307.491134 84.717943 
L 305.505338 89.43823 
L 303.709891 94.234153 
L 302.107667 99.098038 
L 300.701227 104.022104 
L 299.492823 108.998475 
L 298.484386 114.019188 
L 297.677532 119.076211 
L 297.07355 124.161455 
L 296.673406 129.266785 
L 296.477741 134.384032 
L 296.486869 139.50501 
L 296.700773 144.621527 
L 297.119112 149.725397 
L 297.741217 154.808456 
L 298.566093 159.862572 
L 299.592419 164.879658 
L 300.818555 169.851689 
L 302.242538 174.770711 
L 303.86209 179.628854 
L 305.674621 184.418346 
L 307.67723 189.131525 
L 309.866715 193.760851 
L 312.239571 198.298918 
L 314.792005 202.738466 
L 317.51993 207.072393 
L 320.418985 211.293765 
L 323.484531 215.395829 
L 326.711663 219.372023 
L 330.09522 223.215986 
L 333.828468 227.121251 
L 328.854727 225.902071 
L 323.83621 224.882762 
L 318.780946 224.064957 
L 313.697022 223.449962 
L 308.592571 223.038761 
L 303.47576 222.832014 
L 298.354774 222.830049 
L 293.237806 223.032871 
L 288.133041 223.440155 
L 283.048647 224.051249 
L 277.992757 224.865176 
L 272.973459 225.880633 
L 267.998784 227.095997 
L 263.076689 228.509322 
L 258.21505 230.118348 
L 253.421644 231.920501 
L 248.704138 233.912897 
L 244.070081 236.09235 
L 239.526885 238.455372 
L 235.081819 240.998184 
L 230.741994 243.716716 
L 226.514352 246.606621 
L 222.405658 249.663275 
L 218.422483 252.881788 
L 214.571201 256.25701 
L 210.857973 259.783543 
L 207.288738 263.455745 
L 203.869208 267.267741 
L 200.604851 271.213432 
L 197.500892 275.286507 
L 194.562295 279.480449 
L 191.793761 283.788549 
L 190.814653 285.408 
L 188.110097 281.059451 
L 185.233808 276.822534 
L 182.190389 272.704027 
L 178.984708 268.710518 
L 175.621894 264.848397 
L 172.107325 261.123842 
L 168.446626 257.542811 
L 164.645651 254.111034 
L 160.710483 250.834 
L 156.647416 247.716952 
L 152.46295 244.764877 
L 148.16378 241.982497 
L 146.480097 240.957852 
L 146.29883 235.840074 
L 145.913052 230.733639 
L 145.32338 225.646716 
L 144.530757 220.587442 
L 143.53645 215.563912 
L 142.342052 210.584162 
L 140.949472 205.656158 
L 139.360938 200.787784 
L 137.578992 195.986829 
L 135.606484 191.260973 
L 133.44657 186.617777 
L 131.102706 182.064668 
L 128.57864 177.60893 
L 125.878412 173.257693 
L 123.00634 169.017916 
L 119.96702 164.896383 
L 116.765314 160.899687 
L 116.309034 160.355963 
L 121.366756 161.158426 
L 126.452523 161.757992 
L 131.558198 162.153702 
L 136.675613 162.344923 
L 141.796581 162.331349 
L 146.91291 162.113002 
L 152.016416 161.690231 
L 157.098932 161.063712 
L 162.15233 160.234448 
L 167.168523 159.203766 
L 172.139487 157.973313 
L 177.057271 156.545059 
L 181.914005 154.921289 
L 186.701922 153.1046 
L 190.389346 151.553077 
L 189.139899 146.586853 
L 187.692855 141.674566 
L 186.05053 136.824074 
L 184.21555 132.043138 
L 182.190852 127.339405 
L 179.979674 122.720402 
L 177.585554 118.193516 
L 175.012322 113.765991 
L 172.264095 109.444909 
L 169.345269 105.237184 
L 166.260513 101.149546 
L 163.014763 97.188535 
L 159.613211 93.360488 
L 156.73038 90.344138 
L 161.710058 91.538838 
L 166.733528 92.533449 
L 171.792753 93.326379 
L 176.879641 93.91636 
L 181.986052 94.302447 
L 187.103819 94.484024 
L 192.224752 94.460799 
L 197.340661 94.232811 
L 202.443361 93.800422 
L 207.524688 93.164327 
L 212.576513 92.325541 
L 217.590755 91.285406 
L 222.559392 90.045588 
L 227.474475 88.608069 
L 232.328141 86.975149 
L 237.112625 85.14944 
L 241.820273 83.133863 
L 246.443554 80.931643 
L 250.975072 78.546302 
L 255.407577 75.981657 
L 259.733977 73.241811 
L 263.947353 70.331146 
L 268.040962 67.254319 
L 272.008257 64.016253 
L 272.43952 63.648 
L 276.392434 66.903607 
L 280.472375 69.998535 
L 284.672817 72.927833 
L 288.98704 75.686816 
L 293.408142 78.271069 
L 297.92905 80.676457 
L 302.542531 82.899134 
L 307.241205 84.935542 
L 312.017556 86.782425 
L 313.92392 87.459061 
L 313.055349 92.50585 
L 312.38929 97.583337 
L 311.926809 102.683397 
L 311.668646 107.797872 
L 311.615214 112.918579 
L 311.766598 118.037328 
L 312.122557 123.145928 
L 312.68252 128.236207 
L 313.445592 133.300022 
L 314.410553 138.329272 
L 315.575858 143.31591 
L 316.939643 148.251961 
L 318.499727 153.129526 
L 320.253614 157.940802 
L 322.198497 162.678094 
L 324.331266 167.333821 
L 326.648508 171.900537 
L 329.146517 176.370935 
L 331.821295 180.737863 
L 334.668565 184.994335 
L 337.683771 189.133542 
L 340.862088 193.148863 
L 344.198434 197.033872 
L 347.68747 200.782356 
L 348.534956 201.648867 
L 343.555241 200.45432 
L 338.53174 199.459865 
L 333.47249 198.667092 
L 328.385584 198.077268 
L 323.279161 197.691339 
L 318.161389 197.509921 
L 313.040456 197.533304 
L 307.924554 197.761451 
L 302.821868 198.193997 
L 297.740561 198.83025 
L 292.688761 199.669192 
L 287.674552 200.709482 
L 282.705953 201.949454 
L 278.648149 203.120955 
L 279.202905 208.211804 
L 279.960797 213.276397 
L 280.920613 218.306631 
L 282.080816 223.29446 
L 283.439551 228.231902 
L 284.994645 233.111061 
L 286.743609 237.924129 
L 288.683645 242.663407 
L 290.81165 247.321314 
L 293.12422 251.890398 
L 295.617654 256.363348 
L 298.287964 260.73301 
L 301.130878 264.992393 
L 304.141848 269.134683 
L 307.278349 273.107406 
L 302.210719 272.370095 
L 297.117658 271.836024 
L 292.007314 271.506049 
L 286.887862 271.380697 
L 281.767492 271.460169 
L 276.654396 271.744338 
L 271.556754 272.232748 
L 266.48272 272.924619 
L 261.440413 273.818844 
L 256.437898 274.913992 
L 251.483179 276.208312 
L 246.584183 277.699732 
L 241.748746 279.385866 
L 236.984604 281.264018 
L 232.299379 283.331182 
L 228.04373 285.408 
L 223.438152 283.168994 
L 218.746721 281.115953 
L 213.976943 279.252161 
L 209.136448 277.580601 
L 204.232981 276.103945 
L 199.274386 274.824557 
L 194.268595 273.744484 
L 189.223616 272.865453 
L 184.147522 272.18887 
L 179.048431 271.715818 
L 173.934503 271.447053 
L 168.813917 271.383006 
L 164.116184 271.50445 
L 166.783236 267.132799 
L 169.273336 262.657991 
L 171.582499 258.087185 
L 173.707032 253.427694 
L 175.643535 248.68697 
L 177.388911 243.8726 
L 178.940367 238.992284 
L 180.295422 234.05383 
L 181.451907 229.065138 
L 182.407973 224.03419 
L 183.16209 218.969033 
L 183.713051 213.877772 
L 184.059975 208.76855 
L 184.202308 203.649542 
L 184.139821 198.528937 
L 183.872614 193.414927 
L 183.401116 188.315692 
L 182.726079 183.239392 
L 181.848585 178.194146 
L 180.770036 173.188026 
L 179.492159 168.229041 
L 178.016997 163.325124 
L 176.346911 158.484121 
L 174.484572 153.713775 
L 172.43296 149.021719 
L 170.195357 144.415459 
L 167.775343 139.902363 
L 165.176788 135.489653 
L 162.403851 131.184386 
L 159.460967 126.993451 
L 156.352845 122.923552 
L 153.084456 118.981201 
L 149.661029 115.172703 
L 146.088042 111.504153 
L 145.080953 110.521537 
L 150.030358 111.836031 
L 155.028369 112.951549 
L 160.066992 113.866309 
L 165.138165 114.578845 
L 170.233775 115.088019 
L 175.345671 115.393015 
L 180.465674 115.493346 
L 185.585594 115.388851 
L 190.697241 115.079698 
L 195.792435 114.56638 
L 200.863027 113.84972 
L 205.900904 112.930863 
L 210.898006 111.81128 
L 215.846341 110.492762 
L 220.73799 108.977418 
L 225.565129 107.267672 
L 230.320035 105.36626 
L 234.995102 103.276223 
L 239.58285 101.000905 
L 244.075939 98.543946 
L 248.467183 95.909277 
L 252.749555 93.101112 
L 256.916206 90.123945 
L 260.960468 86.982537 
L 264.875873 83.681914 
L 268.656156 80.227358 
L 272.295269 76.624393 
L 275.787392 72.878785 
L 279.126937 68.996525 
L 282.308562 64.983825 
L 283.311195 63.648 
L 286.440203 67.701864 
L 289.728819 71.627358 
L 293.171783 75.418202 
L 296.763586 79.068333 
L 300.498483 82.571909 
L 304.370497 85.923328 
L 308.373436 89.117226 
L 312.500894 92.148495 
L 316.746269 95.012284 
L 319.164595 96.536175 
L 319.407889 101.651379 
L 319.855543 106.752762 
L 320.50684 111.832163 
L 321.360737 116.881456 
L 322.41587 121.892563 
L 323.670549 126.857468 
L 325.122768 131.768228 
L 326.770203 136.616987 
L 328.610219 141.395987 
L 330.639873 146.097583 
L 332.855916 150.714254 
L 335.254805 155.238615 
L 337.8327 159.663426 
L 340.58548 163.981609 
L 343.508738 168.186257 
L 346.597799 172.270642 
L 349.847721 176.228231 
L 353.253305 180.052692 
L 356.809103 183.737906 
L 358.128314 185.032683 
L 353.1773 183.724265 
L 348.177923 182.614883 
L 343.138181 181.706309 
L 338.066137 180.999998 
L 332.969906 180.49708 
L 327.857639 180.198358 
L 322.737517 180.104312 
L 317.617729 180.215092 
L 312.506466 180.530519 
L 307.411905 181.050091 
L 302.342197 181.772975 
L 297.305452 182.698015 
L 292.309727 183.823731 
L 287.363015 185.148322 
L 286.185192 185.495224 
L 290.092476 188.805456 
L 294.129009 191.95679 
L 298.288333 194.944185 
L 302.563793 197.762861 
L 306.948551 200.408311 
L 311.435591 202.876301 
L 316.017735 205.162883 
L 320.687653 207.264399 
L 325.437873 209.177487 
L 330.260797 210.899086 
L 335.148709 212.426444 
L 340.093789 213.757115 
L 341.366227 214.065469 
L 337.778471 210.411361 
L 334.04746 206.903647 
L 330.179161 203.54794 
L 326.179765 200.349608 
L 322.055668 197.313767 
L 317.813469 194.445275 
L 313.459954 191.74872 
L 309.002088 189.228416 
L 304.447003 186.888395 
L 299.801985 184.7324 
L 295.074466 182.763882 
L 290.272008 180.985988 
L 287.088033 179.925711 
L 292.173912 179.327093 
L 297.231784 178.525573 
L 302.253558 177.522433 
L 307.2312 176.319278 
L 312.156747 174.918034 
L 317.022319 173.32094 
L 321.820133 171.530553 
L 326.542513 169.549737 
L 331.181903 167.381661 
L 335.730883 165.029792 
L 340.182174 162.497895 
L 344.528656 159.790018 
L 348.763375 156.910494 
L 352.452294 154.192161 
L 347.764433 156.253342 
L 343.162748 158.500339 
L 338.6546 160.929557 
L 334.2472 163.53711 
L 329.9476 166.318826 
L 325.762679 169.270255 
L 321.69913 172.386675 
L 317.763456 175.663101 
L 313.961951 179.094291 
L 310.300699 182.674757 
L 306.785556 186.398769 
L 303.422145 190.260371 
L 300.215847 194.253385 
L 297.171792 198.371422 
L 294.294849 202.607895 
L 291.589622 206.956026 
L 289.060437 211.40886 
L 286.711341 215.959272 
L 284.546092 220.599983 
L 282.568154 225.323569 
L 280.780692 230.122473 
L 279.186564 234.989017 
L 277.788321 239.915417 
L 276.5882 244.893792 
L 275.58812 249.916176 
L 274.789683 254.974535 
L 274.194164 260.060778 
L 273.802518 265.166766 
L 273.61537 270.284331 
L 273.633019 275.405287 
L 273.855438 280.521441 
L 274.259969 285.408 
L 274.678122 280.304114 
L 274.891839 275.187589 
L 274.900779 270.066611 
L 274.704927 264.949371 
L 274.304597 259.844056 
L 273.700429 254.758834 
L 272.89339 249.70184 
L 271.88477 244.681164 
L 270.676184 239.704838 
L 269.269564 234.780823 
L 267.667162 229.916997 
L 265.87154 225.12114 
L 263.885571 220.400925 
L 262.888435 218.213131 
L 266.112976 222.191427 
L 269.494027 226.037593 
L 273.026179 229.745477 
L 276.703781 233.309147 
L 280.52095 236.722901 
L 284.47158 239.981279 
L 288.549351 243.079067 
L 292.747738 246.01131 
L 297.060025 248.773317 
L 301.479313 251.360669 
L 305.998533 253.769227 
L 310.610455 255.995138 
L 315.307701 258.034841 
L 315.852234 258.257001 
L 311.751222 255.190048 
L 307.530844 252.289546 
L 303.197853 249.560134 
L 298.759181 247.006178 
L 294.221928 244.631765 
L 289.593353 242.440692 
L 284.880862 240.436466 
L 280.091991 238.622293 
L 275.234404 237.001074 
L 270.315871 235.575404 
L 265.344261 234.347564 
L 260.327527 233.319516 
L 255.273695 232.492907 
L 250.19085 231.869059 
L 245.087123 231.448969 
L 239.97068 231.23331 
L 234.849705 231.222426 
L 229.732391 231.416335 
L 224.626925 231.814728 
L 219.541474 232.416966 
L 214.484174 233.222086 
L 209.463115 234.2288 
L 204.486331 235.435497 
L 199.561782 236.840248 
L 194.697348 238.440804 
L 189.90081 240.234606 
L 185.179841 242.218783 
L 180.541995 244.390161 
L 175.994691 246.745267 
L 171.545203 249.280333 
L 167.200649 251.991303 
L 162.967981 254.87384 
L 158.853969 257.923333 
L 157.080716 259.318662 
L 161.813848 257.363678 
L 166.465015 255.220983 
L 171.026778 252.894004 
L 175.491836 250.386466 
L 179.853049 247.702378 
L 184.103438 244.846035 
L 188.236204 241.822007 
L 192.244735 238.635131 
L 196.122619 235.290505 
L 199.863652 231.793481 
L 203.461849 228.149653 
L 206.911453 224.36485 
L 210.206946 220.445128 
L 211.173727 219.23243 
L 209.502926 224.073187 
L 208.027041 228.976885 
L 206.748431 233.935682 
L 205.669143 238.941642 
L 204.790904 243.986758 
L 204.115118 249.062959 
L 203.642866 254.162124 
L 203.374905 259.276095 
L 203.311662 264.396691 
L 203.453238 269.51572 
L 203.799408 274.624992 
L 204.349618 279.716335 
L 205.102987 284.781603 
L 205.210597 285.408 
L 205.989101 280.346534 
L 206.564578 275.257986 
L 206.936107 270.150494 
L 207.103094 265.032231 
L 207.06527 259.911385 
L 206.822698 254.796146 
L 206.375765 249.6947 
L 205.725187 244.615207 
L 204.872002 239.565794 
L 203.817578 234.554537 
L 202.5636 229.589455 
L 201.112076 224.67849 
L 199.465325 219.829499 
L 197.625985 215.050239 
L 195.596996 210.348355 
L 193.381604 205.731371 
L 190.983355 201.206672 
L 188.406085 196.781496 
L 185.653916 192.462924 
L 182.731251 188.257863 
L 179.642767 184.173042 
L 176.393404 180.214994 
L 172.988361 176.390052 
L 169.433084 172.704335 
L 165.733262 169.163739 
L 161.894813 165.773929 
L 157.923879 162.540327 
L 153.826811 159.468107 
L 149.610164 156.562184 
L 145.280684 153.827205 
L 140.845298 151.267548 
L 136.3111 148.887306 
L 131.685345 146.690287 
L 126.975432 144.680007 
L 125.660839 144.15816 
L 129.722544 147.276983 
L 133.90572 150.230887 
L 138.203673 153.015145 
L 142.60953 155.625304 
L 147.116241 158.057187 
L 151.716597 160.306905 
L 156.403237 162.370859 
L 161.168665 164.245745 
L 166.005256 165.928566 
L 170.905274 167.416629 
L 175.860878 168.707553 
L 180.864142 169.799273 
L 185.100555 170.561523 
L 184.460414 170.567066 
L 179.341913 170.726596 
L 174.233885 171.090684 
L 169.144504 171.658748 
L 164.08191 172.429878 
L 159.054202 173.402841 
L 154.069424 174.576081 
L 149.13555 175.94772 
L 144.260474 177.515564 
L 139.451995 179.277105 
L 134.717805 181.229525 
L 130.065477 183.369701 
L 125.502455 185.694208 
L 121.036039 188.199327 
L 117.32726 190.463657 
L 117.893718 190.165433 
L 122.370263 187.678459 
L 126.743776 185.01446 
L 131.007259 182.177699 
L 135.153891 179.172712 
L 139.177039 176.004308 
L 143.070266 172.677556 
L 146.827345 169.197777 
L 150.442264 165.570538 
L 153.909241 161.801643 
L 157.222729 157.89712 
L 160.377428 153.863216 
L 163.36829 149.706385 
L 166.19053 145.433276 
L 168.839634 141.050725 
L 171.311364 136.565745 
L 173.601766 131.985509 
L 175.707175 127.317345 
L 177.624223 122.568721 
L 179.349843 117.747234 
L 180.881275 112.860597 
L 182.216068 107.916628 
L 183.352088 102.923236 
L 184.287517 97.88841 
L 185.020858 92.820204 
L 185.550938 87.726726 
L 185.87691 82.616125 
L 185.998251 77.496576 
L 185.914768 72.376271 
L 185.626594 67.263399 
L 185.298576 63.648 
L 184.865562 68.750646 
L 184.636946 73.866527 
L 184.613094 78.987458 
L 184.794043 84.105247 
L 185.179504 89.211705 
L 185.768862 94.298665 
L 186.561171 99.357988 
L 187.555166 104.38158 
L 188.749256 109.361404 
L 190.141531 114.289495 
L 191.729763 119.157967 
L 193.511411 123.959032 
L 195.483626 128.68501 
L 197.643252 133.328341 
L 200.125255 138.137108 
L 195.600702 135.738584 
L 190.983852 133.522912 
L 186.282092 131.493638 
L 181.502944 129.654007 
L 176.654052 128.006962 
L 171.743175 126.555139 
L 166.778169 125.30086 
L 161.766977 124.246131 
L 156.717615 123.392641 
L 151.638162 122.741753 
L 146.536743 122.294511 
L 141.421519 122.051628 
L 138.451227 122.004559 
L 141.118477 126.37609 
L 143.958407 130.637462 
L 146.966475 134.78186 
L 150.137869 138.802651 
L 153.467515 142.693404 
L 156.950086 146.447895 
L 160.580011 150.060117 
L 164.351483 153.524291 
L 168.258468 156.834875 
L 172.294716 159.986574 
L 176.45377 162.974345 
L 180.728975 165.793408 
L 185.297397 168.545068 
L 180.416022 170.093189 
L 175.600459 171.835274 
L 170.858413 173.768537 
L 166.197471 175.889884 
L 161.625088 178.195923 
L 157.148579 180.682964 
L 152.775106 183.347028 
L 148.511666 186.183853 
L 144.365078 189.188901 
L 140.341978 192.357365 
L 136.4488 195.684175 
L 132.691773 199.16401 
L 129.076908 202.791303 
L 126.222989 205.871511 
L 131.212273 204.717584 
L 136.151421 203.365061 
L 141.032532 201.816106 
L 145.847796 200.073199 
L 150.589512 198.139126 
L 155.250092 196.016982 
L 159.822081 193.710163 
L 164.298165 191.222357 
L 168.671183 188.557546 
L 172.934138 185.719993 
L 177.080213 182.714236 
L 181.102772 179.545085 
L 184.975197 176.235571 
L 180.868828 173.175794 
L 176.643386 170.282675 
L 172.305629 167.560843 
L 167.862498 165.014652 
L 163.3211 162.648176 
L 158.688702 160.4652 
L 153.972713 158.469216 
L 149.180678 156.663419 
L 144.320263 155.050696 
L 139.399245 153.633628 
L 134.425496 152.414482 
L 129.406972 151.395208 
L 124.351702 150.577437 
L 122.124852 150.282669 
L 125.290567 154.307934 
L 128.614717 158.203384 
L 132.091984 161.962787 
L 135.716806 165.58013 
L 139.483384 169.049625 
L 143.385691 172.365721 
L 147.417486 175.523115 
L 151.572317 178.516754 
L 155.843539 181.34185 
L 160.224318 183.993882 
L 164.707646 186.468609 
L 169.286351 188.762071 
L 173.953107 190.870599 
L 178.700448 192.79082 
L 183.520781 194.519662 
L 188.406393 196.05436 
L 189.889118 196.478065 
L 187.929929 201.209458 
L 186.161512 206.015413 
L 184.586696 210.888242 
L 183.208001 215.820148 
L 182.027633 220.803243 
L 181.04748 225.829554 
L 180.269109 230.89104 
L 179.693766 235.979604 
L 179.322372 241.087105 
L 179.155521 246.205372 
L 179.193479 251.326218 
L 179.436186 256.44145 
L 179.883254 261.542884 
L 180.533967 266.62236 
L 181.387284 271.671751 
L 182.441841 276.68298 
L 183.695949 281.648029 
L 184.788159 285.408 
L 186.193501 280.48362 
L 187.400795 275.50698 
L 188.408111 270.486043 
L 189.213837 265.428839 
L 189.816685 260.34346 
L 190.21569 255.238042 
L 190.410213 250.120751 
L 190.399943 244.999775 
L 190.184897 239.883306 
L 189.765419 234.779529 
L 189.14218 229.696609 
L 188.316177 224.642678 
L 187.288732 219.625821 
L 186.061487 214.654063 
L 184.636407 209.735359 
L 183.015771 204.877578 
L 181.202171 200.08849 
L 179.198511 195.375758 
L 177.007993 190.746921 
L 174.634124 186.209383 
L 172.080701 181.770404 
L 169.351808 177.437086 
L 166.451812 173.216361 
L 163.385351 169.114981 
L 160.157332 165.139507 
L 156.772918 161.296299 
L 153.237524 157.591506 
L 149.556806 154.031055 
L 145.736651 150.62064 
L 141.783173 147.36572 
L 137.702694 144.2715 
L 133.501744 141.34293 
L 128.958996 138.445586 
L 130.650786 139.354481 
L 135.226901 141.653104 
L 139.891277 143.766893 
L 144.63645 145.692466 
L 149.45483 147.426742 
L 154.338709 148.966947 
L 159.280273 150.310618 
L 164.271616 151.455603 
L 169.304754 152.400072 
L 174.371635 153.142514 
L 179.464153 153.681741 
L 184.57416 154.01689 
L 189.178361 154.143559 
L 185.571146 150.508658 
L 181.82146 147.020914 
L 177.935301 143.685908 
L 173.918885 140.508974 
L 169.778639 137.495196 
L 165.521185 134.649393 
L 161.153335 131.97612 
L 156.682077 129.479652 
L 152.114563 127.163985 
L 147.458101 125.032821 
L 142.720139 123.08957 
L 138.682187 121.604525 
L 142.626567 124.870466 
L 146.698395 127.976061 
L 150.891156 130.916342 
L 155.198144 133.686605 
L 159.612467 136.282419 
L 164.127064 138.699631 
L 168.734713 140.934374 
L 173.428042 142.983072 
L 178.199543 144.842448 
L 183.041583 146.509528 
L 187.946415 147.981644 
L 191.772147 148.983561 
L 188.144926 145.368624 
L 184.376047 141.901629 
L 180.471541 138.588122 
L 176.437652 135.433404 
L 172.280836 132.442521 
L 168.00774 129.62026 
L 163.625203 126.971134 
L 159.140234 124.499382 
L 154.560009 122.208958 
L 149.891856 120.103527 
L 145.143241 118.186455 
L 141.43332 116.839422 
L 145.368729 120.116168 
L 149.432025 123.232917 
L 153.616707 126.184686 
L 157.916081 128.96675 
L 162.32327 131.57466 
L 166.831221 134.004243 
L 171.432724 136.251613 
L 176.120417 138.313175 
L 180.886801 140.185629 
L 185.724251 141.865982 
L 190.625027 143.351543 
L 194.722988 144.431922 
L 191.935067 140.136343 
L 188.977599 135.955687 
L 185.855315 131.896643 
L 182.57321 127.965703 
L 179.136534 124.169156 
L 175.550787 120.513077 
L 171.821703 117.003314 
L 167.955249 113.645482 
L 163.95761 110.444953 
L 159.835182 107.406847 
L 155.59456 104.536024 
L 151.242527 101.837077 
L 150.385619 101.333585 
L 153.747312 103.191316 
L 158.313368 105.509858 
L 162.968488 107.643952 
L 167.705226 109.590184 
L 172.516003 111.34544 
L 177.393124 112.906912 
L 182.328786 114.272103 
L 187.315092 115.438827 
L 192.344067 116.40522 
L 197.407665 117.169734 
L 202.497784 117.731146 
L 207.606283 118.088559 
L 212.724988 118.241401 
L 217.845711 118.189426 
L 222.960259 117.932719 
L 228.06045 117.47169 
L 233.138126 116.807077 
L 238.185163 115.939942 
L 243.193486 114.871673 
L 248.155084 113.603979 
L 253.062019 112.138889 
L 257.906441 110.478745 
L 262.6806 108.626203 
L 267.376858 106.584229 
L 271.987703 104.356087 
L 276.505757 101.945343 
L 280.923793 99.355853 
L 285.234744 96.591761 
L 289.431712 93.657487 
L 293.507983 90.557726 
L 297.457036 87.297438 
L 301.272554 83.881837 
L 304.948432 80.316389 
L 307.974782 77.154851 
L 303.00408 78.386362 
L 298.086601 79.815663 
L 293.230212 81.440468 
L 288.442682 83.258176 
L 283.731671 85.265881 
L 279.104716 87.460369 
L 274.569217 89.838132 
L 270.132431 92.395364 
L 265.801457 95.127974 
L 261.583222 98.031592 
L 257.484474 101.101571 
L 253.511772 104.333001 
L 249.67147 107.720712 
L 245.969713 111.259284 
L 242.412421 114.943057 
L 239.005287 118.766136 
L 235.75376 122.722407 
L 235.283458 123.322224 
L 231.921365 119.459474 
L 228.407493 115.734262 
L 224.747462 112.152548 
L 220.947129 108.72006 
L 217.012573 105.442291 
L 212.950088 102.324485 
L 208.766174 99.371628 
L 204.467524 96.588445 
L 200.061014 93.979388 
L 195.553695 91.548632 
L 190.952777 89.300065 
L 186.26562 87.237284 
L 181.499724 85.363589 
L 176.662711 83.681978 
L 171.762322 82.195142 
L 166.806394 80.905457 
L 162.704814 79.996113 
L 166.178085 83.75921 
L 169.799061 87.380402 
L 173.561949 90.853898 
L 177.460731 94.17414 
L 181.489168 97.335816 
L 185.640816 100.333869 
L 189.909033 103.163502 
L 194.286991 105.820188 
L 198.767687 108.299678 
L 203.343951 110.598005 
L 208.008464 112.711491 
L 212.753762 114.636756 
L 217.572255 116.370719 
L 222.456234 117.910607 
L 227.397885 119.253957 
L 232.389302 120.398618 
L 237.422502 121.342761 
L 242.489431 122.084874 
L 247.581984 122.62377 
L 252.692013 122.958587 
L 257.811344 123.08879 
L 262.931786 123.014171 
L 268.045149 122.734847 
L 273.143252 122.251267 
L 278.217939 121.564205 
L 283.261092 120.674758 
L 288.264642 119.584351 
L 293.220585 118.294727 
L 298.120992 116.80795 
L 302.958025 115.126398 
L 307.723945 113.252761 
L 312.411126 111.190038 
L 317.012072 108.941527 
L 321.519421 106.510825 
L 324.068787 105.030486 
L 318.560908 108.291771 
L 314.276272 111.09648 
L 310.107221 114.070285 
L 306.060426 117.20843 
L 302.14236 120.505892 
L 298.359291 123.957398 
L 294.717272 127.557426 
L 291.222129 131.300215 
L 287.879453 135.17978 
L 284.694592 139.189912 
L 281.672641 143.324198 
L 279.268977 146.879927 
L 284.318361 146.026564 
L 289.32958 144.971963 
L 294.294618 143.717809 
L 299.205531 142.266111 
L 304.054464 140.619189 
L 308.833659 138.779679 
L 313.535471 136.750524 
L 318.152377 134.534969 
L 322.676991 132.13656 
L 327.102075 129.559133 
L 331.420551 126.806811 
L 335.15141 124.226152 
L 330.527705 126.427483 
L 325.995729 128.811951 
L 321.562731 131.375743 
L 317.235803 134.114757 
L 313.021868 137.024611 
L 308.927666 140.10065 
L 304.959748 143.337953 
L 301.124462 146.73134 
L 297.427942 150.275384 
L 293.876104 153.964415 
L 290.474628 157.79253 
L 287.228957 161.753606 
L 286.105482 163.203307 
L 290.710571 165.443321 
L 295.401552 167.497389 
L 300.170923 169.362224 
L 305.011051 171.034844 
L 309.914195 172.512572 
L 314.872511 173.793045 
L 319.878065 174.874214 
L 324.922851 175.754349 
L 329.998797 176.432043 
L 335.097784 176.90621 
L 340.211654 177.176094 
L 345.332226 177.241261 
L 350.451308 177.101608 
L 355.56071 176.757358 
L 360.652259 176.209062 
L 363.447231 175.820049 
L 361.48002 171.091986 
L 359.32531 166.446372 
L 357.608919 163.185139 
L 354.742353 158.941638 
L 351.708385 154.816163 
L 348.511869 150.815315 
L 345.157919 146.945493 
L 341.6519 143.212889 
L 337.999421 139.623474 
L 334.206325 136.182991 
L 330.278681 132.896943 
L 326.222772 129.770587 
L 322.045086 126.808925 
L 317.752307 124.016695 
L 313.351302 121.398364 
L 308.849112 118.95812 
L 304.25294 116.699868 
L 299.570138 114.62722 
L 294.808198 112.743492 
L 289.974738 111.051698 
L 285.077491 109.554544 
L 280.12429 108.254425 
L 275.123061 107.153421 
L 270.081804 106.253294 
L 265.008584 105.555483 
L 259.911517 105.061106 
L 254.798757 104.770952 
L 249.678484 104.685485 
L 244.558889 104.804844 
L 239.448162 105.128836 
L 234.354479 105.656944 
L 229.28599 106.388322 
L 224.250801 107.321801 
L 219.25697 108.455887 
L 214.312485 109.788765 
L 209.425255 111.318305 
L 204.6031 113.042058 
L 199.853734 114.957266 
L 195.184755 117.060867 
L 190.603633 119.349495 
L 186.117695 121.819487 
L 181.734119 124.466894 
L 177.459917 127.28748 
L 173.301928 130.276732 
L 169.266803 133.429867 
L 165.360997 136.741843 
L 161.590759 140.20736 
L 157.962121 143.820875 
L 154.480887 147.576605 
L 151.152627 151.468544 
L 147.982665 155.490465 
L 144.976073 159.635933 
L 142.13766 163.898316 
L 139.471968 168.270797 
L 136.98326 172.746379 
L 134.675519 177.317903 
L 132.552436 181.978056 
L 130.617408 186.719381 
L 128.873529 191.534294 
L 127.323591 196.415093 
L 125.970073 201.353968 
L 125.277683 204.234193 
L 130.200295 205.645713 
L 135.175416 206.859252 
L 140.195086 207.872869 
L 145.251274 208.684941 
L 150.335892 209.294171 
L 155.440806 209.699582 
L 160.557848 209.900527 
L 165.678833 209.896685 
L 170.795568 209.68806 
L 175.899868 209.274988 
L 180.983566 208.658128 
L 186.03853 207.838468 
L 191.056672 206.81732 
L 195.545127 205.724666 
L 193.100572 210.224516 
L 190.837919 214.818524 
L 188.760787 219.499338 
L 186.872499 224.259472 
L 185.176077 229.091309 
L 183.674233 233.98712 
L 182.36937 238.939073 
L 181.263577 243.939245 
L 180.358621 248.979638 
L 179.655952 254.052187 
L 179.156692 259.148778 
L 178.861642 264.261258 
L 178.771271 269.381447 
L 178.885726 274.501154 
L 179.204823 279.612189 
L 179.728052 284.706375 
L 179.816296 285.408 
L 180.367653 280.316781 
L 180.714974 275.207587 
L 180.857704 270.08859 
L 180.795615 264.96798 
L 180.528806 259.853949 
L 180.057703 254.754678 
L 179.383061 249.678325 
L 178.505959 244.633011 
L 177.427799 239.626807 
L 176.150307 234.667723 
L 174.675526 229.763692 
L 173.005816 224.922558 
L 171.143848 220.152068 
L 169.092601 215.459853 
L 166.855356 210.853419 
L 164.435692 206.340135 
L 161.83748 201.927222 
L 159.064878 197.62174 
L 156.122319 193.430577 
L 153.014513 189.360436 
L 149.74643 185.417831 
L 146.323299 181.609068 
L 142.750597 177.94024 
L 139.034038 174.417216 
L 135.179569 171.045634 
L 131.193356 167.830886 
L 127.081775 164.778115 
L 122.851405 161.892206 
L 118.509013 159.177775 
L 117.375736 158.508381 
L 120.174922 160.060584 
L 124.731771 162.39717 
L 129.378413 164.549661 
L 134.107415 166.514615 
L 138.911211 168.288887 
L 143.782117 169.869639 
L 148.71234 171.254343 
L 153.693992 172.440783 
L 158.719105 173.427061 
L 163.779639 174.211599 
L 168.867498 174.793141 
L 173.974543 175.170759 
L 179.092603 175.343848 
L 184.213491 175.31213 
L 184.9524 175.290636 
L 174.719797 175.67778 
L 169.62329 176.177898 
L 164.550859 176.881422 
L 159.510619 177.787227 
L 154.510633 178.893862 
L 149.5589 180.199559 
L 144.663342 181.702227 
L 139.83179 183.399464 
L 135.071975 185.288554 
L 130.391511 187.366474 
L 125.797885 189.629901 
L 121.298446 192.075213 
L 119.023808 193.402165 
L 125.076189 189.804457 
L 129.348972 186.981723 
L 133.505457 183.990381 
L 137.538997 180.835216 
L 141.443136 177.521276 
L 145.211631 174.053864 
L 148.838452 170.438525 
L 152.317796 166.681044 
L 155.644099 162.787432 
L 158.812037 158.763918 
L 161.816544 154.616938 
L 164.652813 150.353128 
L 167.316306 145.979307 
L 169.802763 141.502474 
L 172.108205 136.92979 
L 174.228944 132.268571 
L 176.161588 127.526273 
L 177.903045 122.710483 
L 179.450528 117.828906 
L 180.801563 112.88935 
L 181.953987 107.899719 
L 182.905957 102.867994 
L 183.655951 97.802226 
L 184.202768 92.710517 
L 184.545534 87.601015 
L 184.6837 82.481893 
L 184.617045 77.36134 
L 184.345676 72.247549 
L 183.870027 67.1487 
L 183.423749 63.648 
L 182.807752 68.731803 
L 182.395546 73.836172 
L 182.18779 78.952943 
L 182.184816 84.073928 
L 182.38663 89.190936 
L 182.792908 94.295781 
L 183.403 99.380296 
L 184.21593 104.436346 
L 185.230399 109.455844 
L 186.444782 114.430758 
L 187.857137 119.353131 
L 189.465205 124.215087 
L 191.266414 129.008849 
L 193.25788 133.726747 
L 195.43642 138.361234 
L 197.03434 141.48284 
L 192.140118 139.975826 
L 187.189546 138.665734 
L 182.190545 137.55466 
L 177.151111 136.644382 
L 172.079306 135.936356 
L 166.983245 135.431714 
L 161.87108 135.131264 
L 156.750989 135.035486 
L 151.631164 135.144533 
L 146.519795 135.458232 
L 141.425059 135.976081 
L 136.355107 136.69725 
L 131.318049 137.620586 
L 129.171308 138.07785 
L 130.807258 142.930496 
L 132.635953 147.71384 
L 134.654468 152.420229 
L 136.859574 157.042134 
L 139.247743 161.572162 
L 141.815155 166.003065 
L 144.557702 170.327754 
L 147.470996 174.539312 
L 150.550378 178.631 
L 153.79092 182.596272 
L 157.187439 186.428786 
L 160.7345 190.12241 
L 164.42643 193.671235 
L 168.257322 197.069583 
L 172.221047 200.312018 
L 176.311265 203.393352 
L 180.521431 206.308657 
L 184.84481 209.053268 
L 189.274487 211.622795 
L 193.803374 214.013126 
L 198.424226 216.220438 
L 203.129651 218.2412 
L 207.912121 220.072179 
L 212.763985 221.710445 
L 217.677481 223.153378 
L 222.644749 224.39867 
L 227.657842 225.444327 
L 232.708741 226.288678 
L 237.789364 226.930371 
L 242.891584 227.368381 
L 248.007239 227.602006 
L 253.128144 227.630872 
L 258.246107 227.454933 
L 263.352941 227.074472 
L 268.440475 226.490095 
L 273.500571 225.702739 
L 278.525134 224.713663 
L 283.506125 223.52445 
L 288.435576 222.137 
L 293.305601 220.553536 
L 298.108408 218.776589 
L 302.836315 216.809002 
L 307.481758 214.653923 
L 312.037304 212.3148 
L 316.495667 209.795374 
L 320.849713 207.099677 
L 325.092478 204.232021 
L 329.217173 201.196993 
L 333.2172 197.99945 
L 337.086159 194.644505 
L 340.817862 191.137527 
L 344.406338 187.484126 
L 347.845847 183.690146 
L 351.130886 179.761658 
L 354.256199 175.704945 
L 357.216788 171.526498 
L 359.994176 167.255085 
L 354.880391 167.526562 
L 349.781552 168.002319 
L 344.705817 168.681594 
L 339.661305 169.563302 
L 334.656088 170.646031 
L 329.698172 171.928049 
L 324.795489 173.407305 
L 319.955882 175.081434 
L 315.187093 176.947755 
L 310.496752 179.003285 
L 305.892362 181.244734 
L 301.381289 183.668516 
L 296.97075 186.270755 
L 292.6678 189.047287 
L 288.479324 191.993669 
L 284.412023 195.10519 
L 282.24003 196.875946 
L 282.202902 201.996797 
L 282.370583 207.115038 
L 282.742805 212.222479 
L 283.318972 217.310949 
L 284.098163 222.372309 
L 285.079131 227.398461 
L 286.260307 232.381364 
L 287.639801 237.313047 
L 289.215407 242.185621 
L 290.984603 246.991289 
L 292.944559 251.722364 
L 295.09214 256.371278 
L 297.42391 260.930592 
L 299.936139 265.393014 
L 302.624808 269.751404 
L 305.485615 273.998789 
L 306.190576 274.991485 
L 301.085424 274.58908 
L 295.968264 274.391149 
L 290.847283 274.398008 
L 285.730671 274.609646 
L 280.626616 275.025725 
L 275.543282 275.645579 
L 270.488802 276.468216 
L 265.471262 277.492321 
L 260.498688 278.716254 
L 255.579036 280.138058 
L 250.720176 281.755459 
L 245.929882 283.565868 
L 241.570666 285.408 
L 236.85055 283.421795 
L 232.054783 281.625933 
L 227.191037 280.023287 
L 222.267092 278.616421 
L 217.290827 277.407586 
L 212.270201 276.398715 
L 207.213248 275.591422 
L 202.128056 274.987 
L 197.022761 274.586414 
L 191.905531 274.390306 
L 186.784552 274.39899 
L 181.668017 274.612451 
L 176.56411 275.030348 
L 171.480997 275.652013 
L 166.93362 276.384392 
L 166.93362 276.384392 
" style="fill:none;stroke:#1f77b4;stroke-linecap:square;stroke-width:1.5;"/>
   </g>
   <g id="patch_4">
    <path d="M 82.520165 307.584 
L 82.520165 41.472 
" style="fill:none;stroke:#000000;stroke-linecap:square;stroke-linejoin:miter;stroke-width:0.8;"/>
   </g>
   <g id="patch_5">
    <path d="M 389.799835 307.584 
L 389.799835 41.472 
" style="fill:none;stroke:#000000;stroke-linecap:square;stroke-linejoin:miter;stroke-width:0.8;"/>
   </g>
   <g id="patch_6">
    <path d="M 82.520165 307.584 
L 389.799835 307.584 
" style="fill:none;stroke:#000000;stroke-linecap:square;stroke-linejoin:miter;stroke-width:0.8;"/>
   </g>
   <g id="patch_7">
    <path d="M 82.520165 41.472 
L 389.799835 41.472 
" style="fill:none;stroke:#000000;stroke-linecap:square;stroke-linejoin:miter;stroke-width:0.8;"/>
   </g>
   <g id="PathCollection_1">
    <defs>
     <path d="M 0 2.236068 
C 0.593012 2.236068 1.161816 2.000462 1.581139 1.581139 
C 2.000462 1.161816 2.236068 0.593012 2.236068 0 
C 2.236068 -0.593012 2.000462 -1.161816 1.581139 -1.581139 
C 1.161816 -2.000462 0.593012 -2.236068 0 -2.236068 
C -0.593012 -2.236068 -1.161816 -2.000462 -1.581139 -1.581139 
C -2.000462 -1.161816 -2.236068 -0.593012 -2.236068 0 
C -2.236068 0.593012 -2.000462 1.161816 -1.581139 1.581139 
C -1.161816 2.000462 -0.593012 2.236068 0 2.236068 
z
" id="mfc2af721eb" style="stroke:#000000;"/>
    </defs>
    <g clip-path="url(#pe63db37be0)">
     <use style="stroke:#000000;" x="166.93362" xlink:href="#mfc2af721eb" y="276.384392"/>
    </g>
   </g>
   <g id="Quiver_1">
    <path clip-path="url(#pe63db37be0)" d="M 166.464083 275.987885 
L 170.825662 270.822976 
L 169.490081 270.499499 
L 174.863764 266.993648 
L 172.307304 272.878542 
L 171.764737 271.61599 
L 167.403157 276.7809 
L 166.464083 275.987885 
"/>
   </g>
  </g>
 </g>
 <defs>
  <clipPath id="pe63db37be0">
   <rect height="266.112" width="307.27967" x="82.520165" y="41.472"/>
  </clipPath>
 </defs>
</svg>
