<?xml version="1.0" encoding="utf-8" standalone="no"?>
<!DOCTYPE svg PUBLIC "-//W3C//DTD SVG 1.1//EN"
  "http://www.w3.org/Graphics/SVG/1.1/DTD/svg11.dtd">
<!-- Created with matplotlib (https://matplotlib.org/) -->
<svg height="345.6pt" version="1.1" viewBox="0 0 460.8 345.6" width="460.8pt" xmlns="http://www.w3.org/2000/svg" xmlns:xlink="http://www.w3.org/1999/xlink">
 <defs>
  <style type="text/css">
*{stroke-linecap:butt;stroke-linejoin:round;}
  </style>
 </defs>
 <g id="figure_1">
  <g id="patch_1">
   <path d="M 0 345.6 
L 460.8 345.6 
L 460.8 0 
L 0 0 
z
" style="fill:#ffffff;"/>
  </g>
  <g id="axes_1">
   <g id="patch_2">
    <path d="M 57.6 263.808 
L 414.72 263.808 
L 414.72 85.248 
L 57.6 85.248 
z
" style="fill:#ffffff;"/>
   </g>
   <g id="PathCollection_1">
    <defs>
     <path d="M 0 3 
C 0.795609 3 1.55874 2.683901 2.12132 2.12132 
C 2.683901 1.55874 3 0.795609 3 0 
C 3 -0.795609 2.683901 -1.55874 2.12132 -2.12132 
C 1.55874 -2.683901 0.795609 -3 0 -3 
C -0.795609 -3 -1.55874 -2.683901 -2.12132 -2.12132 
C -2.683901 -1.55874 -3 -0.795609 -3 0 
C -3 0.795609 -2.683901 1.55874 -2.12132 2.12132 
C -1.55874 2.683901 -0.795609 3 0 3 
z
" id="m011ca975c8" style="stroke:#000000;"/>
    </defs>
    <g clip-path="url(#p6c8c2c9ff7)">
     <use style="stroke:#000000;" x="134.92338" xlink:href="#m011ca975c8" y="130.101982"/>
    </g>
   </g>
   <g id="patch_3">
    <path clip-path="url(#p6c8c2c9ff7)" d="M 161.76 211.728 
C 171.625555 211.728 181.088371 207.808373 188.064372 200.832372 
C 195.040373 193.856371 198.96 184.393555 198.96 174.528 
C 198.96 164.662445 195.040373 155.199629 188.064372 148.223628 
C 181.088371 141.247627 171.625555 137.328 161.76 137.328 
C 151.894445 137.328 142.431629 141.247627 135.455628 148.223628 
C 128.479627 155.199629 124.56 164.662445 124.56 174.528 
C 124.56 184.393555 128.479627 193.856371 135.455628 200.832372 
C 142.431629 207.808373 151.894445 211.728 161.76 211.728 
z
" style="fill:#cc0000;fill-opacity:0.1;stroke:#cc0000;stroke-dasharray:7.4,3.2;stroke-dashoffset:0;stroke-linejoin:miter;stroke-width:2;"/>
   </g>
   <g id="patch_4">
    <path clip-path="url(#p6c8c2c9ff7)" d="M 310.56 196.848 
C 316.479333 196.848 322.157023 194.496224 326.342623 190.310623 
C 330.528224 186.125023 332.88 180.447333 332.88 174.528 
C 332.88 168.608667 330.528224 162.930977 326.342623 158.745377 
C 322.157023 154.559776 316.479333 152.208 310.56 152.208 
C 304.640667 152.208 298.962977 154.559776 294.777377 158.745377 
C 290.591776 162.930977 288.24 168.608667 288.24 174.528 
C 288.24 180.447333 290.591776 186.125023 294.777377 190.310623 
C 298.962977 194.496224 304.640667 196.848 310.56 196.848 
z
" style="fill:#cc0000;fill-opacity:0.1;stroke:#cc0000;stroke-dasharray:7.4,3.2;stroke-dashoffset:0;stroke-linejoin:miter;stroke-width:2;"/>
   </g>
   <g id="matplotlib.axis_1">
    <g id="xtick_1">
     <g id="line2d_1">
      <defs>
       <path d="M 0 0 
L 0 3.5 
" id="mab8bc74159" style="stroke:#000000;stroke-width:0.8;"/>
      </defs>
      <g>
       <use style="stroke:#000000;stroke-width:0.8;" x="87.36" xlink:href="#mab8bc74159" y="263.808"/>
      </g>
     </g>
     <g id="text_1">
      <!-- 0.0 -->
      <defs>
       <path d="M 31.78125 66.40625 
Q 24.171875 66.40625 20.328125 58.90625 
Q 16.5 51.421875 16.5 36.375 
Q 16.5 21.390625 20.328125 13.890625 
Q 24.171875 6.390625 31.78125 6.390625 
Q 39.453125 6.390625 43.28125 13.890625 
Q 47.125 21.390625 47.125 36.375 
Q 47.125 51.421875 43.28125 58.90625 
Q 39.453125 66.40625 31.78125 66.40625 
z
M 31.78125 74.21875 
Q 44.046875 74.21875 50.515625 64.515625 
Q 56.984375 54.828125 56.984375 36.375 
Q 56.984375 17.96875 50.515625 8.265625 
Q 44.046875 -1.421875 31.78125 -1.421875 
Q 19.53125 -1.421875 13.0625 8.265625 
Q 6.59375 17.96875 6.59375 36.375 
Q 6.59375 54.828125 13.0625 64.515625 
Q 19.53125 74.21875 31.78125 74.21875 
z
" id="DejaVuSans-48"/>
       <path d="M 10.6875 12.40625 
L 21 12.40625 
L 21 0 
L 10.6875 0 
z
" id="DejaVuSans-46"/>
      </defs>
      <g transform="translate(79.408438 278.406437)scale(0.1 -0.1)">
       <use xlink:href="#DejaVuSans-48"/>
       <use x="63.623047" xlink:href="#DejaVuSans-46"/>
       <use x="95.410156" xlink:href="#DejaVuSans-48"/>
      </g>
     </g>
    </g>
    <g id="xtick_2">
     <g id="line2d_2">
      <g>
       <use style="stroke:#000000;stroke-width:0.8;" x="161.76" xlink:href="#mab8bc74159" y="263.808"/>
      </g>
     </g>
     <g id="text_2">
      <!-- 0.5 -->
      <defs>
       <path d="M 10.796875 72.90625 
L 49.515625 72.90625 
L 49.515625 64.59375 
L 19.828125 64.59375 
L 19.828125 46.734375 
Q 21.96875 47.46875 24.109375 47.828125 
Q 26.265625 48.1875 28.421875 48.1875 
Q 40.625 48.1875 47.75 41.5 
Q 54.890625 34.8125 54.890625 23.390625 
Q 54.890625 11.625 47.5625 5.09375 
Q 40.234375 -1.421875 26.90625 -1.421875 
Q 22.3125 -1.421875 17.546875 -0.640625 
Q 12.796875 0.140625 7.71875 1.703125 
L 7.71875 11.625 
Q 12.109375 9.234375 16.796875 8.0625 
Q 21.484375 6.890625 26.703125 6.890625 
Q 35.15625 6.890625 40.078125 11.328125 
Q 45.015625 15.765625 45.015625 23.390625 
Q 45.015625 31 40.078125 35.4375 
Q 35.15625 39.890625 26.703125 39.890625 
Q 22.75 39.890625 18.8125 39.015625 
Q 14.890625 38.140625 10.796875 36.28125 
z
" id="DejaVuSans-53"/>
      </defs>
      <g transform="translate(153.808437 278.406437)scale(0.1 -0.1)">
       <use xlink:href="#DejaVuSans-48"/>
       <use x="63.623047" xlink:href="#DejaVuSans-46"/>
       <use x="95.410156" xlink:href="#DejaVuSans-53"/>
      </g>
     </g>
    </g>
    <g id="xtick_3">
     <g id="line2d_3">
      <g>
       <use style="stroke:#000000;stroke-width:0.8;" x="236.16" xlink:href="#mab8bc74159" y="263.808"/>
      </g>
     </g>
     <g id="text_3">
      <!-- 1.0 -->
      <defs>
       <path d="M 12.40625 8.296875 
L 28.515625 8.296875 
L 28.515625 63.921875 
L 10.984375 60.40625 
L 10.984375 69.390625 
L 28.421875 72.90625 
L 38.28125 72.90625 
L 38.28125 8.296875 
L 54.390625 8.296875 
L 54.390625 0 
L 12.40625 0 
z
" id="DejaVuSans-49"/>
      </defs>
      <g transform="translate(228.208437 278.406437)scale(0.1 -0.1)">
       <use xlink:href="#DejaVuSans-49"/>
       <use x="63.623047" xlink:href="#DejaVuSans-46"/>
       <use x="95.410156" xlink:href="#DejaVuSans-48"/>
      </g>
     </g>
    </g>
    <g id="xtick_4">
     <g id="line2d_4">
      <g>
       <use style="stroke:#000000;stroke-width:0.8;" x="310.56" xlink:href="#mab8bc74159" y="263.808"/>
      </g>
     </g>
     <g id="text_4">
      <!-- 1.5 -->
      <g transform="translate(302.608437 278.406437)scale(0.1 -0.1)">
       <use xlink:href="#DejaVuSans-49"/>
       <use x="63.623047" xlink:href="#DejaVuSans-46"/>
       <use x="95.410156" xlink:href="#DejaVuSans-53"/>
      </g>
     </g>
    </g>
    <g id="xtick_5">
     <g id="line2d_5">
      <g>
       <use style="stroke:#000000;stroke-width:0.8;" x="384.96" xlink:href="#mab8bc74159" y="263.808"/>
      </g>
     </g>
     <g id="text_5">
      <!-- 2.0 -->
      <defs>
       <path d="M 19.1875 8.296875 
L 53.609375 8.296875 
L 53.609375 0 
L 7.328125 0 
L 7.328125 8.296875 
Q 12.9375 14.109375 22.625 23.890625 
Q 32.328125 33.6875 34.8125 36.53125 
Q 39.546875 41.84375 41.421875 45.53125 
Q 43.3125 49.21875 43.3125 52.78125 
Q 43.3125 58.59375 39.234375 62.25 
Q 35.15625 65.921875 28.609375 65.921875 
Q 23.96875 65.921875 18.8125 64.3125 
Q 13.671875 62.703125 7.8125 59.421875 
L 7.8125 69.390625 
Q 13.765625 71.78125 18.9375 73 
Q 24.125 74.21875 28.421875 74.21875 
Q 39.75 74.21875 46.484375 68.546875 
Q 53.21875 62.890625 53.21875 53.421875 
Q 53.21875 48.921875 51.53125 44.890625 
Q 49.859375 40.875 45.40625 35.40625 
Q 44.1875 33.984375 37.640625 27.21875 
Q 31.109375 20.453125 19.1875 8.296875 
z
" id="DejaVuSans-50"/>
      </defs>
      <g transform="translate(377.008437 278.406437)scale(0.1 -0.1)">
       <use xlink:href="#DejaVuSans-50"/>
       <use x="63.623047" xlink:href="#DejaVuSans-46"/>
       <use x="95.410156" xlink:href="#DejaVuSans-48"/>
      </g>
     </g>
    </g>
   </g>
   <g id="matplotlib.axis_2">
    <g id="ytick_1">
     <g id="line2d_6">
      <defs>
       <path d="M 0 0 
L -3.5 0 
" id="mb8a77af306" style="stroke:#000000;stroke-width:0.8;"/>
      </defs>
      <g>
       <use style="stroke:#000000;stroke-width:0.8;" x="57.6" xlink:href="#mb8a77af306" y="248.928"/>
      </g>
     </g>
     <g id="text_6">
      <!-- 0.0 -->
      <g transform="translate(34.696875 252.727219)scale(0.1 -0.1)">
       <use xlink:href="#DejaVuSans-48"/>
       <use x="63.623047" xlink:href="#DejaVuSans-46"/>
       <use x="95.410156" xlink:href="#DejaVuSans-48"/>
      </g>
     </g>
    </g>
    <g id="ytick_2">
     <g id="line2d_7">
      <g>
       <use style="stroke:#000000;stroke-width:0.8;" x="57.6" xlink:href="#mb8a77af306" y="219.168"/>
      </g>
     </g>
     <g id="text_7">
      <!-- 0.2 -->
      <g transform="translate(34.696875 222.967219)scale(0.1 -0.1)">
       <use xlink:href="#DejaVuSans-48"/>
       <use x="63.623047" xlink:href="#DejaVuSans-46"/>
       <use x="95.410156" xlink:href="#DejaVuSans-50"/>
      </g>
     </g>
    </g>
    <g id="ytick_3">
     <g id="line2d_8">
      <g>
       <use style="stroke:#000000;stroke-width:0.8;" x="57.6" xlink:href="#mb8a77af306" y="189.408"/>
      </g>
     </g>
     <g id="text_8">
      <!-- 0.4 -->
      <defs>
       <path d="M 37.796875 64.3125 
L 12.890625 25.390625 
L 37.796875 25.390625 
z
M 35.203125 72.90625 
L 47.609375 72.90625 
L 47.609375 25.390625 
L 58.015625 25.390625 
L 58.015625 17.1875 
L 47.609375 17.1875 
L 47.609375 0 
L 37.796875 0 
L 37.796875 17.1875 
L 4.890625 17.1875 
L 4.890625 26.703125 
z
" id="DejaVuSans-52"/>
      </defs>
      <g transform="translate(34.696875 193.207219)scale(0.1 -0.1)">
       <use xlink:href="#DejaVuSans-48"/>
       <use x="63.623047" xlink:href="#DejaVuSans-46"/>
       <use x="95.410156" xlink:href="#DejaVuSans-52"/>
      </g>
     </g>
    </g>
    <g id="ytick_4">
     <g id="line2d_9">
      <g>
       <use style="stroke:#000000;stroke-width:0.8;" x="57.6" xlink:href="#mb8a77af306" y="159.648"/>
      </g>
     </g>
     <g id="text_9">
      <!-- 0.6 -->
      <defs>
       <path d="M 33.015625 40.375 
Q 26.375 40.375 22.484375 35.828125 
Q 18.609375 31.296875 18.609375 23.390625 
Q 18.609375 15.53125 22.484375 10.953125 
Q 26.375 6.390625 33.015625 6.390625 
Q 39.65625 6.390625 43.53125 10.953125 
Q 47.40625 15.53125 47.40625 23.390625 
Q 47.40625 31.296875 43.53125 35.828125 
Q 39.65625 40.375 33.015625 40.375 
z
M 52.59375 71.296875 
L 52.59375 62.3125 
Q 48.875 64.0625 45.09375 64.984375 
Q 41.3125 65.921875 37.59375 65.921875 
Q 27.828125 65.921875 22.671875 59.328125 
Q 17.53125 52.734375 16.796875 39.40625 
Q 19.671875 43.65625 24.015625 45.921875 
Q 28.375 48.1875 33.59375 48.1875 
Q 44.578125 48.1875 50.953125 41.515625 
Q 57.328125 34.859375 57.328125 23.390625 
Q 57.328125 12.15625 50.6875 5.359375 
Q 44.046875 -1.421875 33.015625 -1.421875 
Q 20.359375 -1.421875 13.671875 8.265625 
Q 6.984375 17.96875 6.984375 36.375 
Q 6.984375 53.65625 15.1875 63.9375 
Q 23.390625 74.21875 37.203125 74.21875 
Q 40.921875 74.21875 44.703125 73.484375 
Q 48.484375 72.75 52.59375 71.296875 
z
" id="DejaVuSans-54"/>
      </defs>
      <g transform="translate(34.696875 163.447219)scale(0.1 -0.1)">
       <use xlink:href="#DejaVuSans-48"/>
       <use x="63.623047" xlink:href="#DejaVuSans-46"/>
       <use x="95.410156" xlink:href="#DejaVuSans-54"/>
      </g>
     </g>
    </g>
    <g id="ytick_5">
     <g id="line2d_10">
      <g>
       <use style="stroke:#000000;stroke-width:0.8;" x="57.6" xlink:href="#mb8a77af306" y="129.888"/>
      </g>
     </g>
     <g id="text_10">
      <!-- 0.8 -->
      <defs>
       <path d="M 31.78125 34.625 
Q 24.75 34.625 20.71875 30.859375 
Q 16.703125 27.09375 16.703125 20.515625 
Q 16.703125 13.921875 20.71875 10.15625 
Q 24.75 6.390625 31.78125 6.390625 
Q 38.8125 6.390625 42.859375 10.171875 
Q 46.921875 13.96875 46.921875 20.515625 
Q 46.921875 27.09375 42.890625 30.859375 
Q 38.875 34.625 31.78125 34.625 
z
M 21.921875 38.8125 
Q 15.578125 40.375 12.03125 44.71875 
Q 8.5 49.078125 8.5 55.328125 
Q 8.5 64.0625 14.71875 69.140625 
Q 20.953125 74.21875 31.78125 74.21875 
Q 42.671875 74.21875 48.875 69.140625 
Q 55.078125 64.0625 55.078125 55.328125 
Q 55.078125 49.078125 51.53125 44.71875 
Q 48 40.375 41.703125 38.8125 
Q 48.828125 37.15625 52.796875 32.3125 
Q 56.78125 27.484375 56.78125 20.515625 
Q 56.78125 9.90625 50.3125 4.234375 
Q 43.84375 -1.421875 31.78125 -1.421875 
Q 19.734375 -1.421875 13.25 4.234375 
Q 6.78125 9.90625 6.78125 20.515625 
Q 6.78125 27.484375 10.78125 32.3125 
Q 14.796875 37.15625 21.921875 38.8125 
z
M 18.3125 54.390625 
Q 18.3125 48.734375 21.84375 45.5625 
Q 25.390625 42.390625 31.78125 42.390625 
Q 38.140625 42.390625 41.71875 45.5625 
Q 45.3125 48.734375 45.3125 54.390625 
Q 45.3125 60.0625 41.71875 63.234375 
Q 38.140625 66.40625 31.78125 66.40625 
Q 25.390625 66.40625 21.84375 63.234375 
Q 18.3125 60.0625 18.3125 54.390625 
z
" id="DejaVuSans-56"/>
      </defs>
      <g transform="translate(34.696875 133.687219)scale(0.1 -0.1)">
       <use xlink:href="#DejaVuSans-48"/>
       <use x="63.623047" xlink:href="#DejaVuSans-46"/>
       <use x="95.410156" xlink:href="#DejaVuSans-56"/>
      </g>
     </g>
    </g>
    <g id="ytick_6">
     <g id="line2d_11">
      <g>
       <use style="stroke:#000000;stroke-width:0.8;" x="57.6" xlink:href="#mb8a77af306" y="100.128"/>
      </g>
     </g>
     <g id="text_11">
      <!-- 1.0 -->
      <g transform="translate(34.696875 103.927219)scale(0.1 -0.1)">
       <use xlink:href="#DejaVuSans-49"/>
       <use x="63.623047" xlink:href="#DejaVuSans-46"/>
       <use x="95.410156" xlink:href="#DejaVuSans-48"/>
      </g>
     </g>
    </g>
   </g>
   <g id="line2d_12">
    <path clip-path="url(#p6c8c2c9ff7)" d="M 236.16 248.928 
L 236.16 100.128 
" style="fill:none;stroke:#cc0000;stroke-dasharray:7.4,3.2;stroke-dashoffset:0;stroke-width:2;"/>
   </g>
   <g id="line2d_13">
    <path clip-path="url(#p6c8c2c9ff7)" d="M 87.36 248.928 
L 384.96 248.928 
" style="fill:none;stroke:#009900;stroke-linecap:square;stroke-width:2;"/>
   </g>
   <g id="line2d_14">
    <path clip-path="url(#p6c8c2c9ff7)" d="M 384.96 248.928 
L 384.96 100.128 
" style="fill:none;stroke:#009900;stroke-linecap:square;stroke-width:2;"/>
   </g>
   <g id="line2d_15">
    <path clip-path="url(#p6c8c2c9ff7)" d="M 384.96 100.128 
L 87.36 100.128 
" style="fill:none;stroke:#009900;stroke-linecap:square;stroke-width:2;"/>
   </g>
   <g id="line2d_16">
    <path clip-path="url(#p6c8c2c9ff7)" d="M 87.36 100.128 
L 87.36 248.928 
" style="fill:none;stroke:#009900;stroke-linecap:square;stroke-width:2;"/>
   </g>
   <g id="line2d_17">
    <path clip-path="url(#p6c8c2c9ff7)" d="M 134.92338 130.101982 
L 137.404909 124.692399 
L 139.668128 119.187908 
L 141.709415 113.597315 
L 143.525506 107.929564 
L 145.113494 102.193723 
L 145.625446 100.128 
L 147.131237 105.885966 
L 148.866081 111.579111 
L 150.827201 117.198327 
L 153.011462 122.734624 
L 155.415369 128.179145 
L 158.035075 133.523181 
L 160.086693 137.365653 
L 162.377289 131.872498 
L 164.446385 126.292137 
L 166.290671 120.633499 
L 167.907196 114.905635 
L 169.293375 109.117709 
L 170.44699 103.27898 
L 170.969517 100.128 
L 171.997545 105.990145 
L 173.259173 111.80649 
L 174.752384 117.567732 
L 176.474788 123.264652 
L 178.423631 128.888138 
L 180.595795 134.429193 
L 182.987804 139.878952 
L 185.595832 145.228696 
L 186.28531 146.557494 
L 191.910756 148.500671 
L 197.609408 150.217336 
L 203.372151 151.704742 
L 209.189765 152.96051 
L 215.052942 153.982632 
L 220.952303 154.769471 
L 226.878411 155.319769 
L 232.821785 155.632646 
L 239.135988 155.70424 
L 246.574665 155.574625 
L 254.007777 155.259103 
L 261.43068 154.757871 
L 268.838734 154.071242 
L 276.227308 153.199646 
L 283.591787 152.143628 
L 290.927566 150.903846 
L 298.230062 149.481077 
L 305.49471 147.876208 
L 312.716971 146.090244 
L 319.89233 144.124301 
L 327.016304 141.979606 
L 334.08444 139.657501 
L 341.09232 137.159436 
L 348.035566 134.486973 
L 354.909837 131.641782 
L 361.710838 128.625642 
L 368.434318 125.440436 
L 375.076075 122.088157 
L 381.631959 118.570898 
L 384.96 116.703495 
L 378.449757 113.10246 
L 371.851531 109.66529 
L 365.169448 106.394133 
L 358.407681 103.291032 
L 351.013847 100.128 
L 344.170702 103.047263 
L 337.40267 106.136674 
L 330.713981 109.394303 
L 324.108813 112.818113 
L 317.591296 116.405966 
L 311.165503 120.155619 
L 304.835449 124.064728 
L 298.60509 128.13085 
L 292.478321 132.351445 
L 286.458971 136.723874 
L 280.5508 141.245405 
L 274.757503 145.913211 
L 269.082698 150.724377 
L 263.529934 155.675894 
L 258.10268 160.764669 
L 252.804328 165.987521 
L 247.638189 171.341186 
L 242.607492 176.822318 
L 237.715381 182.427491 
L 236.16 184.270277 
L 241.006532 189.914907 
L 245.992651 195.436622 
L 251.11524 200.831971 
L 256.371097 206.097584 
L 261.75694 211.230168 
L 267.2694 216.226517 
L 272.905034 221.083506 
L 278.660318 225.798102 
L 284.531657 230.367358 
L 290.515381 234.788418 
L 296.60775 239.058519 
L 302.804956 243.174991 
L 309.103127 247.135264 
L 312.073645 248.928 
L 318.417558 245.041422 
L 324.662335 240.997478 
L 330.804071 236.798694 
L 336.83893 232.447695 
L 342.76314 227.947199 
L 348.572997 223.300021 
L 354.264872 218.509063 
L 359.835207 213.57732 
L 365.28052 208.507874 
L 370.597409 203.303894 
L 375.78255 197.968631 
L 380.832704 192.505421 
L 384.96 187.829433 
L 380.025444 182.26159 
L 374.953249 176.818838 
L 369.746584 171.504578 
L 364.408704 166.322132 
L 358.942943 161.274739 
L 353.352719 156.365552 
L 347.641525 151.59764 
L 341.812931 146.973984 
L 335.870578 142.497472 
L 329.818181 138.170902 
L 323.659522 133.996978 
L 317.398451 129.978309 
L 311.038879 126.117406 
L 304.584783 122.416682 
L 298.040195 118.878451 
L 291.409205 115.504922 
L 284.695958 112.298206 
L 277.904649 109.260305 
L 271.039523 106.393118 
L 264.10487 103.698438 
L 257.105024 101.177948 
L 254.015974 100.128 
L 246.988917 102.5716 
L 240.025139 105.190094 
L 236.16 106.73008 
L 243.08649 109.445674 
L 250.078699 111.987276 
L 257.132256 114.353296 
L 264.242753 116.542256 
L 271.405746 118.552788 
L 278.61676 120.383636 
L 285.871286 122.033655 
L 293.164792 123.501815 
L 300.492719 124.787197 
L 307.850487 125.888998 
L 315.233498 126.80653 
L 322.637138 127.539219 
L 330.056779 128.086607 
L 337.487786 128.448353 
L 344.925513 128.624229 
L 352.365312 128.614127 
L 359.802534 128.418053 
L 367.232531 128.036129 
L 374.650659 127.468593 
L 382.052282 126.715801 
L 384.96 126.368795 
L 377.566143 125.543209 
L 370.153958 124.902708 
L 362.72808 124.447693 
L 355.293147 124.178448 
L 347.853807 124.09514 
L 340.414709 124.197823 
L 332.980503 124.486432 
L 325.555835 124.960786 
L 318.145344 125.620589 
L 310.753662 126.46543 
L 303.385408 127.494779 
L 296.045188 128.707993 
L 288.737589 130.104315 
L 281.467178 131.682872 
L 274.238499 133.442676 
L 267.056069 135.382629 
L 259.924377 137.501518 
L 252.847881 139.798018 
L 245.831002 142.270694 
L 238.878126 144.918002 
L 236.16 146.00751 
L 231.98066 150.244809 
L 227.974111 154.645848 
L 224.14676 159.203585 
L 220.504732 163.91073 
L 217.053853 168.759752 
L 213.799644 173.742893 
L 210.747309 178.852183 
L 207.901734 184.079446 
L 205.267469 189.416321 
L 202.84873 194.854269 
L 200.649385 200.384591 
L 198.672954 205.99844 
L 196.922597 211.686834 
L 195.401116 217.440674 
L 194.110944 223.250755 
L 193.054145 229.107781 
L 192.23241 235.002383 
L 191.647054 240.925131 
L 191.299012 246.866549 
L 191.233887 248.928 
L 191.189772 247.44066 
L 190.864672 241.497943 
L 190.302187 235.572979 
L 189.503217 229.675249 
L 188.469039 223.814186 
L 187.201308 217.999168 
L 185.702053 212.239496 
L 183.973671 206.544386 
L 183.391364 204.792238 
L 181.474891 200.761301 
L 179.803577 196.622699 
L 178.383438 192.391325 
L 177.219585 188.082408 
L 176.316206 183.711456 
L 175.676552 179.294199 
L 175.302926 174.846534 
L 175.196672 170.384468 
L 175.358173 165.924061 
L 175.786846 161.481364 
L 176.481151 157.072366 
L 177.438587 152.712936 
L 178.655709 148.418761 
L 180.128137 144.205298 
L 180.781978 142.559197 
L 182.099664 136.755295 
L 183.184203 130.903341 
L 184.033858 125.012699 
L 184.647271 119.092792 
L 185.02346 113.153089 
L 185.161824 107.203095 
L 185.06214 101.252326 
L 185.016545 100.128 
L 184.871864 106.077844 
L 184.965229 112.028715 
L 185.296491 117.971092 
L 185.865119 123.895469 
L 186.670204 129.792368 
L 187.710459 135.652356 
L 188.984218 141.466057 
L 190.489445 147.22417 
L 192.386348 153.412441 
L 197.077997 157.074409 
L 201.912332 160.545832 
L 206.881621 163.821156 
L 211.977913 166.895142 
L 217.193055 169.762872 
L 222.518704 172.419758 
L 227.946341 174.861549 
L 233.467281 177.08434 
L 236.16 178.076766 
L 243.505685 179.256438 
L 250.878564 180.252119 
L 258.274028 181.063186 
L 265.687455 181.689132 
L 273.114213 182.129566 
L 280.54966 182.384213 
L 287.989149 182.452914 
L 289.690329 182.442496 
L 284.138809 187.395408 
L 278.712833 192.485546 
L 273.415793 197.709729 
L 268.250999 203.064691 
L 263.22168 208.547086 
L 258.330977 214.153489 
L 253.581948 219.880394 
L 248.977561 225.724223 
L 244.520693 231.681323 
L 240.21413 237.747972 
L 236.16 243.768647 
L 239.620983 248.928 
L 243.752834 242.741036 
L 247.728735 236.452719 
L 251.546203 230.066981 
L 255.202851 223.587811 
L 258.696394 217.019259 
L 262.024649 210.36543 
L 265.185535 203.630483 
L 268.177077 196.818626 
L 270.997406 189.934117 
L 273.644759 182.981259 
L 276.117481 175.964396 
L 278.414027 168.887915 
L 280.532962 161.756237 
L 282.472962 154.573819 
L 284.232813 147.345151 
L 285.811417 140.074751 
L 287.207786 132.767161 
L 288.421049 125.426949 
L 289.450445 118.058702 
L 290.295334 110.667026 
L 290.955185 103.256539 
L 291.177809 100.128 
L 291.759525 107.545029 
L 292.526465 114.9452 
L 293.478151 122.323886 
L 294.613987 129.676477 
L 295.933264 136.998377 
L 297.435158 144.285011 
L 299.118728 151.531825 
L 299.962537 154.884268 
L 294.893563 149.438516 
L 289.690043 144.121177 
L 284.355229 138.935574 
L 278.892456 133.884948 
L 273.305137 128.972455 
L 267.596765 124.201166 
L 261.770907 119.574062 
L 255.831203 115.094035 
L 249.781367 110.763885 
L 243.625178 106.586319 
L 236.16 101.813696 
L 235.305287 100.128 
L 232.686501 105.472487 
L 230.283533 110.917423 
L 228.100226 116.454096 
L 226.140073 122.07365 
L 224.406211 127.767094 
L 222.901412 133.525319 
L 221.628085 139.339115 
L 220.588266 145.199179 
L 219.783619 151.096138 
L 219.215431 157.020557 
L 218.884611 162.962959 
L 218.791689 168.913837 
L 218.936812 174.863671 
L 219.31975 180.802942 
L 219.939888 186.722148 
L 220.796235 192.611821 
L 221.887422 198.462539 
L 223.211702 204.26494 
L 224.766957 210.009743 
L 226.550699 215.687758 
L 228.560074 221.289899 
L 230.791867 226.807207 
L 233.242509 232.230853 
L 236.16 238.02882 
L 233.475168 243.340435 
L 230.93031 248.928 
L 228.466885 243.510148 
L 225.788774 238.195141 
L 222.900262 232.991481 
L 219.80597 227.907493 
L 216.510847 222.95131 
L 213.020165 218.130862 
L 209.339509 213.453859 
L 205.474768 208.927785 
L 201.432122 204.559879 
L 197.218041 200.35713 
L 192.839265 196.326261 
L 189.957753 193.939359 
L 186.644163 190.949134 
L 183.515842 187.765594 
L 180.584049 184.400196 
L 177.859333 180.865052 
L 175.351502 177.172884 
L 173.069581 173.336981 
L 171.021782 169.371147 
L 169.215476 165.289655 
L 167.657162 161.107194 
L 166.35245 156.838817 
L 165.306034 152.499885 
L 164.521682 148.106013 
L 164.002215 143.673015 
L 163.749502 139.216844 
L 163.723226 137.379841 
L 163.111208 141.801012 
L 162.235181 146.177528 
L 161.098296 150.493639 
L 159.704646 154.73381 
L 158.059246 158.882783 
L 156.168017 162.925626 
L 154.037767 166.847787 
L 151.676162 170.635153 
L 149.0917 174.274092 
L 146.293684 177.751509 
L 143.292183 181.054887 
L 140.097999 184.172339 
L 136.722629 187.092646 
L 133.178218 189.805297 
L 123.207295 196.918842 
L 118.591876 200.676433 
L 114.130413 204.615586 
L 109.830042 208.729999 
L 105.697644 213.01309 
L 101.739829 217.458006 
L 97.96293 222.057638 
L 94.372987 226.804626 
L 90.975746 231.691376 
L 87.776639 236.710071 
L 87.36 237.397637 
L 90.531944 242.433543 
L 93.902734 247.338577 
L 95.05843 248.928 
L 98.493704 244.06791 
L 101.731878 239.074334 
L 104.767773 233.955259 
L 107.596531 228.718876 
L 110.213626 223.373561 
L 112.614873 217.927866 
L 114.796429 212.390502 
L 116.754805 206.770329 
L 118.486867 201.076338 
L 119.989844 195.317636 
L 121.261333 189.503439 
L 122.299299 183.643045 
L 123.102082 177.745832 
L 123.668397 171.821234 
L 123.997338 165.878728 
L 124.088379 159.927821 
L 123.941374 153.978034 
L 123.556559 148.038884 
L 122.934549 142.119873 
L 122.076339 136.230471 
L 120.983303 130.380099 
L 119.657188 124.578117 
L 118.100117 118.833806 
L 116.31458 113.156356 
L 114.303434 107.55485 
L 112.069896 102.038248 
L 111.235763 100.128 
L 108.925169 105.612773 
L 106.835754 111.185558 
L 104.970864 116.837439 
L 103.333479 122.559375 
L 101.926221 128.342212 
L 100.751341 134.176699 
L 99.810717 140.053502 
L 99.105856 145.963218 
L 98.637883 151.896395 
L 98.407549 157.843539 
L 98.415222 163.795137 
L 98.660888 169.741668 
L 99.144157 175.673618 
L 99.864253 181.581498 
L 100.820025 187.455856 
L 102.009945 193.287294 
L 103.432108 199.066484 
L 105.084239 204.784179 
L 106.963696 210.431234 
L 109.067471 215.998613 
L 111.3922 221.47741 
L 113.934162 226.85886 
L 116.689291 232.134355 
L 119.653181 237.295454 
L 122.821088 242.3339 
L 126.187945 247.241634 
L 127.413097 248.928 
L 130.848371 244.06791 
L 134.086546 239.074334 
L 137.12244 233.955259 
L 139.951198 228.718876 
L 142.568294 223.373561 
L 144.96954 217.927866 
L 147.151096 212.390502 
L 148.292201 209.204482 
L 147.708158 210.573065 
L 145.509698 216.103739 
L 143.534164 221.717904 
L 141.784717 227.406578 
L 140.264156 233.160661 
L 138.974913 238.970948 
L 137.919051 244.828143 
L 137.322756 248.928 
L 136.430368 243.04368 
L 135.303383 237.199753 
L 133.943605 231.405567 
L 132.353209 225.670393 
L 130.534739 220.003405 
L 128.491105 214.41367 
L 126.225576 208.91013 
L 123.741776 203.501588 
L 121.043679 198.196699 
L 118.135601 193.003948 
L 115.022195 187.931643 
L 111.70844 182.987898 
L 108.19964 178.180622 
L 104.501406 173.517506 
L 100.619656 169.00601 
L 96.560599 164.653352 
L 92.330729 160.466494 
L 87.936812 156.452135 
L 87.36 155.948558 
L 91.774515 151.956863 
L 96.025875 147.791827 
L 100.107276 143.460113 
L 104.01219 138.968652 
L 107.734371 134.324628 
L 111.267862 129.535472 
L 114.607012 124.608844 
L 117.746479 119.552627 
L 120.681239 114.37491 
L 123.406599 109.083974 
L 125.918197 103.688286 
L 127.434599 100.128 
L 129.805037 105.587176 
L 132.391887 110.947193 
L 135.191012 116.199477 
L 138.197934 121.335623 
L 141.407841 126.347417 
L 144.815599 131.22684 
L 148.415756 135.966086 
L 150.852358 138.963083 
L 152.860187 142.949302 
L 154.625373 147.048745 
L 156.141564 151.246659 
L 157.403303 155.527936 
L 158.406049 159.877168 
L 159.146193 164.278703 
L 159.621072 168.716699 
L 159.828976 173.175184 
L 159.769158 177.638114 
L 159.441832 182.089426 
L 158.848176 186.513099 
L 157.990328 190.893215 
L 156.871373 195.214009 
L 155.495341 199.459931 
L 153.867182 203.6157 
L 151.992756 207.66636 
L 150.742409 210.05901 
L 151.328417 205.634317 
L 152.178692 201.252724 
L 153.290175 196.930003 
L 154.658866 192.681708 
L 156.279838 188.523131 
L 158.147259 184.469237 
L 160.254407 180.534615 
L 162.593699 176.733427 
L 165.156716 173.079352 
L 167.934234 169.585542 
L 170.916257 166.264569 
L 174.092052 163.128387 
L 177.450191 160.188281 
L 180.978588 157.454833 
L 184.664544 154.937881 
L 188.494793 152.646483 
L 190.875544 151.373625 
L 187.899267 154.699747 
L 184.728897 157.841415 
L 181.375846 160.787322 
L 177.85218 163.526865 
L 174.170581 166.050185 
L 170.344298 168.348201 
L 166.387102 170.412643 
L 162.313235 172.236081 
L 158.137358 173.811952 
L 153.8745 175.134585 
L 149.540002 176.19922 
L 145.149464 177.002025 
L 140.718687 177.540111 
L 136.263618 177.811542 
L 131.800289 177.815341 
L 127.344764 177.551494 
L 124.660632 177.262396 
L 128.993283 176.190269 
L 133.382427 175.379875 
L 137.812266 174.83413 
L 142.26686 174.554998 
L 146.730176 174.543484 
L 151.18615 174.799628 
L 155.618747 175.32251 
L 160.012013 176.110247 
L 164.350138 177.160004 
L 168.617509 178.468004 
L 172.798768 180.029538 
L 176.878867 181.838988 
L 180.843123 183.889841 
L 184.677267 186.174716 
L 188.367502 188.68539 
L 191.900547 191.412828 
L 193.955649 193.163456 
L 189.771696 191.609151 
L 185.688475 189.806758 
L 181.72068 187.762761 
L 177.882592 185.484517 
L 174.188022 182.980226 
L 170.650268 180.2589 
L 167.282062 177.330333 
L 164.095525 174.205065 
L 161.102126 170.894343 
L 158.312637 167.410083 
L 155.737098 163.764823 
L 153.384779 159.971683 
L 151.264144 156.044314 
L 149.382825 151.996851 
L 147.747595 147.843859 
L 146.364336 143.600286 
L 145.652164 140.99626 
L 148.234 144.637062 
L 150.592874 148.426129 
L 152.720295 152.349826 
L 154.608607 156.394032 
L 156.251015 160.54419 
L 157.641607 164.785366 
L 158.775378 169.102295 
L 159.64825 173.479442 
L 160.257079 177.901053 
L 160.599675 182.351216 
L 160.674805 186.813914 
L 160.482199 191.273087 
L 160.022549 195.712686 
L 159.297511 200.116734 
L 158.309693 204.46938 
L 157.06265 208.754961 
L 156.184499 211.307801 
L 156.101655 206.84524 
L 156.286552 202.385741 
L 156.738526 197.945354 
L 157.45595 193.540059 
L 158.436243 189.185711 
L 159.675875 184.897981 
L 161.170387 180.6923 
L 162.914398 176.583804 
L 164.901633 172.587278 
L 167.12494 168.717107 
L 169.576317 164.987218 
L 172.246942 161.411036 
L 175.127204 158.00143 
L 178.206736 154.770672 
L 181.474456 151.730388 
L 184.918603 148.891521 
L 187.082026 147.276669 
L 192.456405 144.719791 
L 197.724238 141.95004 
L 202.877096 138.971848 
L 207.906737 135.789978 
L 212.805114 132.409522 
L 217.56439 128.835887 
L 222.176952 125.07479 
L 226.635421 121.132248 
L 230.932664 117.014568 
L 235.061807 112.728339 
L 236.16 111.528676 
L 232.077953 107.197571 
L 227.825973 103.033168 
L 224.647624 100.128 
L 220.276926 104.167626 
L 216.071266 108.378802 
L 212.037373 112.754792 
L 208.181698 117.288594 
L 204.510412 121.972954 
L 201.029387 126.800381 
L 197.744192 131.76315 
L 194.660082 136.853321 
L 191.781992 142.062753 
L 189.114526 147.383111 
L 188.506973 148.673804 
L 193.938366 146.240381 
L 199.268104 143.591706 
L 204.487659 140.732018 
L 209.588683 137.66589 
L 214.563014 134.398228 
L 219.402694 130.93426 
L 224.099981 127.279527 
L 228.647361 123.439876 
L 233.037558 119.42145 
L 236.16 116.357682 
L 231.889823 112.211941 
L 227.457277 108.240277 
L 222.869452 104.449045 
L 218.133687 100.84431 
L 217.144009 100.128 
L 212.378809 103.693732 
L 207.760011 107.447169 
L 203.295006 111.382306 
L 198.990935 115.492848 
L 194.854685 119.772219 
L 190.892873 124.213573 
L 187.111836 128.809805 
L 183.517625 133.553561 
L 180.115987 138.437253 
L 177.565051 142.500424 
L 175.180658 146.273485 
L 172.574308 149.896778 
L 169.75538 153.357265 
L 166.734021 156.64249 
L 163.521103 159.740631 
L 160.128189 162.640537 
L 156.567491 165.331773 
L 152.851823 167.804652 
L 148.994558 170.050275 
L 145.009577 172.06056 
L 140.911222 173.828272 
L 136.714243 175.347049 
L 132.433744 176.611425 
L 128.085131 177.616851 
L 124.742254 178.205832 
L 129.204979 178.132324 
L 133.664081 178.326551 
L 138.103513 178.787814 
L 142.507297 179.514453 
L 146.859584 180.503853 
L 151.144712 181.752453 
L 155.347257 183.25576 
L 159.452096 185.008363 
L 163.444455 187.003955 
L 167.309966 189.235354 
L 171.034718 191.69453 
L 174.605305 194.372631 
L 178.008877 197.260019 
L 181.233186 200.346304 
L 184.266626 203.620377 
L 184.540935 203.936655 
L 182.107918 200.194764 
L 179.903659 196.313713 
L 177.93609 192.307469 
L 176.212291 188.190451 
L 174.738467 183.977476 
L 173.519923 179.683705 
L 172.561042 175.324592 
L 171.865277 170.915824 
L 171.435132 166.47327 
L 171.272153 162.012916 
L 171.376929 157.550815 
L 171.749082 153.103027 
L 172.387272 148.685558 
L 173.289203 144.314307 
L 174.451628 140.005004 
L 174.573867 139.604586 
L 172.696129 143.653712 
L 170.578969 147.582955 
L 168.230005 151.378174 
L 165.657692 155.025711 
L 162.871286 158.512437 
L 159.880816 161.825806 
L 156.697045 164.953891 
L 153.33143 167.885436 
L 149.796085 170.60989 
L 146.103732 173.117448 
L 142.26766 175.399086 
L 138.301674 177.446591 
L 134.220049 179.252596 
L 130.037473 180.8106 
L 125.768999 182.114997 
L 125.364818 182.224148 
L 129.792859 181.663996 
L 134.246521 181.370376 
L 138.709775 181.344343 
L 143.166559 181.585992 
L 147.600833 182.094453 
L 151.996639 182.867895 
L 156.338155 183.903536 
L 160.609759 185.197648 
L 164.796075 186.745573 
L 168.882038 188.541742 
L 172.852944 190.579689 
L 176.6945 192.85208 
L 180.392882 195.350738 
L 183.93478 198.066669 
L 187.307446 200.990099 
L 188.760123 202.224276 
L 193.435315 205.907232 
L 198.254045 209.400284 
L 203.208607 212.697845 
L 208.291072 215.794638 
L 213.49331 218.68571 
L 218.806999 221.366435 
L 224.223639 223.832525 
L 229.734563 226.080034 
L 235.330955 228.105368 
L 236.16 228.384064 
L 230.5518 230.376468 
L 225.027761 232.591546 
L 219.596719 235.025755 
L 214.267365 237.6752 
L 209.048223 240.535644 
L 203.947643 243.602509 
L 198.973785 246.87089 
L 196.051516 248.928 
L 191.157583 245.541114 
L 186.132125 242.352642 
L 180.983182 239.367685 
L 175.718991 236.591019 
L 170.347974 234.027085 
L 164.878723 231.679986 
L 159.319988 229.553475 
L 153.680662 227.650956 
L 147.969766 225.975472 
L 142.196437 224.529702 
L 136.36991 223.315961 
L 130.499507 222.336189 
L 124.59462 221.591955 
L 118.664694 221.084449 
L 112.719217 220.814482 
L 106.7677 220.782487 
L 100.819664 220.988514 
L 94.884624 221.432235 
L 88.972076 222.112939 
L 87.36 222.340272 
L 93.264747 223.085624 
L 99.194576 223.594252 
L 105.140002 223.865344 
L 111.091513 223.898466 
L 117.039588 223.693564 
L 122.974711 223.250967 
L 128.887388 222.571381 
L 134.768159 221.655896 
L 140.607616 220.505974 
L 146.396418 219.123457 
L 152.125303 217.510555 
L 157.785107 215.669849 
L 163.366775 213.604283 
L 168.861378 211.317162 
L 170.029865 210.797124 
L 175.975354 210.527416 
L 181.905301 210.020168 
L 187.810221 209.27619 
L 193.680667 208.296675 
L 199.507246 207.083187 
L 205.280639 205.637669 
L 210.991607 203.962433 
L 216.631017 202.06016 
L 222.189844 199.933891 
L 227.659197 197.58703 
L 233.030326 195.02333 
L 236.16 193.405223 
L 230.851075 190.715076 
L 225.438819 188.23938 
L 219.931891 185.982097 
L 214.339101 183.946839 
L 208.669396 182.13686 
L 202.931846 180.555057 
L 198.622542 179.527299 
L 194.254511 178.609899 
L 189.949351 177.432224 
L 185.722556 175.998514 
L 181.589338 174.313929 
L 177.564573 172.38453 
L 173.662744 170.217263 
L 169.897894 167.819926 
L 166.283573 165.201147 
L 162.832788 162.370352 
L 159.557958 159.337727 
L 156.47087 156.114188 
L 153.582633 152.711336 
L 150.903643 149.141416 
L 148.443539 145.417277 
L 146.211177 141.552322 
L 145.862214 140.896164 
L 147.473521 145.058496 
L 148.83234 149.309958 
L 149.933778 153.63525 
L 150.773872 158.018806 
L 151.3496 162.444849 
L 151.658888 166.89745 
L 151.700623 171.360586 
L 151.474656 175.818192 
L 150.9818 180.254228 
L 150.223828 184.652727 
L 149.203468 188.997861 
L 147.924393 193.27399 
L 146.391206 197.465727 
L 144.609424 201.557985 
L 142.58546 205.536036 
L 142.225485 206.186217 
L 144.837247 202.566823 
L 147.661343 199.110553 
L 150.687609 195.829847 
L 153.905154 192.736511 
L 157.302397 189.841679 
L 160.867113 187.155768 
L 164.586473 184.688444 
L 168.44709 182.448589 
L 172.435071 180.444262 
L 176.536063 178.682676 
L 180.735307 177.170173 
L 185.017691 175.912195 
L 189.367802 174.91327 
L 193.769985 174.176992 
L 198.208396 173.706011 
L 198.94972 173.653494 
L 194.491683 173.436175 
L 190.0547 172.951925 
L 185.654738 172.202487 
L 181.307633 171.190558 
L 177.02903 169.919781 
L 172.834328 168.394728 
L 168.738621 166.620888 
L 164.756652 164.604645 
L 160.902749 162.353255 
L 157.190784 159.874822 
L 153.634115 157.178264 
L 150.245543 154.273286 
L 147.037263 151.170343 
L 144.02082 147.880602 
L 141.207072 144.415903 
L 140.759031 143.822963 
L 143.006371 147.679228 
L 145.018431 151.663313 
L 146.787968 155.76088 
L 148.308614 159.957183 
L 149.574897 164.237118 
L 150.58226 168.585283 
L 151.327076 172.986029 
L 151.806666 177.423519 
L 152.019303 181.881781 
L 151.964222 186.344772 
L 151.641621 190.796428 
L 151.052662 195.22073 
L 150.199463 199.601754 
L 149.085097 203.923733 
L 147.713572 208.171114 
L 147.460598 208.869914 
L 149.469112 204.884041 
L 151.713021 201.025778 
L 154.184249 197.309012 
L 156.873903 193.747119 
L 159.772302 190.352918 
L 162.869015 187.138624 
L 166.152898 184.115806 
L 169.612132 181.295342 
L 173.234268 178.687382 
L 177.006269 176.301313 
L 180.914561 174.145723 
L 184.945078 172.228367 
L 189.083315 170.556149 
L 193.314378 169.135084 
L 197.62304 167.970288 
L 198.346815 167.80156 
L 193.910264 168.289757 
L 189.452422 168.511042 
L 184.989333 168.464618 
L 180.537059 168.150654 
L 176.111623 167.570279 
L 171.728952 166.725581 
L 167.404819 165.6196 
L 163.154787 164.256317 
L 158.99415 162.640639 
L 154.937882 160.778379 
L 151.000582 158.676241 
L 147.196419 156.341788 
L 143.539086 153.783424 
L 140.041743 151.010355 
L 136.716978 148.032561 
L 136.181063 147.517669 
L 139.008233 150.971425 
L 141.623214 154.588494 
L 144.016595 158.35586 
L 146.179764 162.259963 
L 148.104934 166.286753 
L 149.785178 170.421738 
L 151.214447 174.650036 
L 152.387599 178.956431 
L 153.300412 183.325423 
L 153.949599 187.741289 
L 154.332826 192.188137 
L 154.448711 196.649963 
L 154.29684 201.110709 
L 153.877757 205.554321 
L 153.192972 209.964807 
L 153.053325 210.69475 
L 154.408361 206.442081 
L 156.015965 202.278317 
L 157.870353 198.218445 
L 159.964849 194.277074 
L 162.291918 190.46839 
L 164.843182 186.8061 
L 167.609462 183.303385 
L 170.5808 179.972849 
L 173.746504 176.82648 
L 177.09518 173.875601 
L 180.614777 171.130832 
L 184.292628 168.602052 
L 188.115496 166.29836 
L 192.069624 164.228048 
L 196.140781 162.398567 
L 196.828905 162.117848 
L 192.524795 163.299351 
L 188.157582 164.220637 
L 183.742983 164.87839 
L 179.296887 165.270242 
L 174.835294 165.394783 
L 170.374262 165.251565 
L 165.929846 164.841104 
L 161.518039 164.164876 
L 157.154721 163.225315 
L 152.855595 162.025803 
L 148.636132 160.570656 
L 144.511518 158.865112 
L 140.496598 156.915309 
L 136.60582 154.728264 
L 132.853188 152.311848 
L 132.242803 151.887879 
L 135.579096 154.852751 
L 138.731601 158.012345 
L 141.68897 161.355291 
L 144.440561 164.869556 
L 146.976472 168.542495 
L 149.287575 172.360887 
L 151.365554 176.310991 
L 153.202929 180.378592 
L 154.793088 184.549049 
L 156.130308 188.807353 
L 157.209777 193.138181 
L 158.02761 197.525944 
L 158.580863 201.954853 
L 158.867546 206.408967 
L 158.886626 210.872256 
L 158.8638 211.615087 
L 159.531468 207.201977 
L 160.462563 202.836845 
L 161.653733 198.535399 
L 163.100691 194.313122 
L 164.79823 190.185207 
L 166.740241 186.166512 
L 168.919735 182.271499 
L 171.328867 178.514186 
L 173.958968 174.908095 
L 176.800571 171.466205 
L 179.843451 168.200902 
L 183.076655 165.123938 
L 186.488549 162.246387 
L 190.066853 159.578605 
L 193.798688 157.130193 
L 194.433953 156.744503 
L 190.369925 158.589765 
L 186.20256 160.188011 
L 181.946858 161.53349 
L 177.618133 162.621358 
L 173.231964 163.447701 
L 168.804137 164.009545 
L 164.350588 164.304868 
L 159.887343 164.332606 
L 155.430467 164.092661 
L 150.995999 163.585895 
L 146.599899 162.814133 
L 142.257986 161.780152 
L 137.985889 160.487672 
L 133.798981 158.941347 
L 129.712332 157.14674 
L 127.676037 156.235876 
L 122.152432 154.019715 
L 116.544623 152.026211 
L 110.86158 150.258555 
L 105.112396 148.719574 
L 99.306268 147.41173 
L 93.452484 146.337115 
L 87.36 145.473105 
L 93.253208 144.641433 
L 99.108445 143.574762 
L 104.916342 142.274796 
L 110.667609 140.743616 
L 116.353044 138.983672 
L 121.963553 136.997779 
L 127.490159 134.789114 
L 132.924022 132.36121 
L 138.256448 129.717952 
L 143.478906 126.863568 
L 148.583042 123.802624 
L 153.560691 120.540018 
L 158.403888 117.080968 
L 163.104886 113.43101 
L 167.656164 109.595981 
L 172.050442 105.582017 
L 176.280689 101.39554 
L 177.496804 100.128 
L 181.677335 104.364123 
L 186.023923 108.429681 
L 190.529612 112.318169 
L 195.187195 116.023368 
L 199.989222 119.539349 
L 204.928009 122.860488 
L 209.995655 125.981472 
L 215.184054 128.897307 
L 220.484906 131.60333 
L 225.889729 134.09521 
L 231.389877 136.368962 
L 236.16 138.136773 
L 230.585342 140.221184 
L 225.098498 142.526856 
L 219.708245 145.050098 
L 214.423206 147.786875 
L 209.251837 150.732808 
L 204.20241 153.883184 
L 199.283003 157.232963 
L 195.885766 159.720161 
L 201.727218 158.580414 
L 207.518419 157.207983 
L 213.250106 155.605064 
L 218.913108 153.774221 
L 224.498366 151.718382 
L 229.996945 149.440838 
L 235.400048 146.94523 
L 236.16 146.572929 
L 230.771177 144.046633 
L 225.28564 141.737854 
L 219.712164 139.650285 
L 214.059665 137.787265 
L 208.337187 136.151775 
L 202.553885 134.746431 
L 196.719009 133.573482 
L 190.841896 132.634804 
L 184.931946 131.931898 
L 178.998615 131.46589 
L 173.051395 131.237525 
L 167.099799 131.247167 
L 161.15335 131.494802 
L 155.22156 131.980034 
L 149.313919 132.702086 
L 143.439878 133.659802 
L 137.608834 134.851652 
L 131.830116 136.275728 
L 126.112967 137.929752 
L 120.466535 139.811078 
L 114.899853 141.916696 
L 109.421825 144.243238 
L 104.041217 146.786981 
L 98.766635 149.543857 
L 93.606517 152.509454 
L 88.569119 155.679029 
L 87.36 156.482484 
L 92.366235 159.701054 
L 97.497174 162.716853 
L 102.744609 165.525057 
L 108.100145 168.121173 
L 113.555213 170.501048 
L 119.101088 172.660875 
L 124.560003 174.54273 
L 128.946278 175.36851 
L 133.275142 176.455823 
L 137.531017 177.800756 
L 141.698587 179.398468 
L 145.762852 181.243209 
L 149.709185 183.32834 
L 153.523385 185.646357 
L 157.191723 188.188917 
L 160.700998 190.94687 
L 164.03858 193.910291 
L 167.192458 197.068514 
L 170.151281 200.410173 
L 172.904401 203.923242 
L 175.441908 207.595077 
L 176.210151 208.806756 
L 175.268986 204.443784 
L 174.591136 200.032227 
L 174.17904 195.587961 
L 174.034182 191.126982 
L 174.157083 186.665344 
L 174.5473 182.219104 
L 175.203429 177.804264 
L 176.123109 173.436712 
L 177.30303 169.132168 
L 178.738946 164.906122 
L 180.425688 160.773784 
L 182.357187 156.750025 
L 184.52649 152.849328 
L 186.925792 149.08573 
L 187.744367 147.907469 
L 184.088587 150.468053 
L 180.285842 152.804814 
L 176.349819 154.909343 
L 172.294683 156.774065 
L 168.135028 158.39227 
L 163.885823 159.758132 
L 159.562363 160.866738 
L 155.180206 161.714097 
L 150.755123 162.297159 
L 146.30304 162.613827 
L 141.83998 162.662959 
L 137.382005 162.444381 
L 132.945159 161.958878 
L 128.545409 161.208197 
L 127.141821 160.911037 
L 130.920456 163.286586 
L 134.549845 165.884443 
L 138.016925 168.695257 
L 141.309218 171.708913 
L 144.414876 174.914566 
L 147.322721 178.300677 
L 150.022289 181.855062 
L 152.503865 185.564927 
L 154.758516 189.416922 
L 156.778129 193.397184 
L 158.555436 197.491387 
L 160.084039 201.684797 
L 161.358439 205.962323 
L 162.374047 210.308569 
L 162.644882 211.717474 
L 163.367835 207.313084 
L 164.353593 202.95997 
L 165.598608 198.673799 
L 167.098397 194.469997 
L 168.847565 190.363694 
L 170.839816 186.369666 
L 173.067979 182.502289 
L 175.524037 178.775481 
L 178.199149 175.202654 
L 181.083689 171.796666 
L 184.167275 168.569777 
L 187.438809 165.533597 
L 190.886517 162.699056 
L 194.497992 160.076354 
L 195.691369 159.279978 
L 191.351606 160.322941 
L 186.957112 161.103798 
L 182.523702 161.619738 
L 178.067331 161.868905 
L 173.604039 161.850401 
L 169.149888 161.564294 
L 164.720909 161.011613 
L 160.333039 160.194348 
L 156.002073 159.115438 
L 151.743595 157.778768 
L 147.572932 156.189148 
L 143.505095 154.352299 
L 139.554722 152.274831 
L 135.736031 149.964221 
L 134.538945 149.173431 
L 137.184342 152.768316 
L 139.609415 156.51536 
L 141.805436 160.401078 
L 143.764503 164.411487 
L 145.479564 168.532152 
L 146.944448 172.748244 
L 148.153882 177.04459 
L 149.103513 181.405728 
L 149.789924 185.815961 
L 150.210645 190.259418 
L 150.364161 194.720108 
L 150.24992 199.181976 
L 149.868333 203.628965 
L 149.220773 208.04507 
L 148.956527 209.455225 
L 151.243038 205.622057 
L 153.755288 201.932894 
L 156.484234 198.401014 
L 159.420055 195.039129 
L 162.552185 191.859336 
L 165.869352 188.873081 
L 169.359617 186.09111 
L 173.01042 183.523435 
L 176.808622 181.179297 
L 180.740553 179.067133 
L 184.792063 177.194544 
L 188.94857 175.56827 
L 193.195115 174.194162 
L 197.516416 173.077167 
L 198.9186 172.773451 
L 194.498504 172.153719 
L 190.123523 171.270056 
L 185.809403 170.125641 
L 181.571669 168.724594 
L 177.425574 167.071957 
L 173.386038 165.173677 
L 169.467599 163.036586 
L 165.68436 160.668375 
L 162.049936 158.077568 
L 158.577408 155.273488 
L 155.279272 152.266227 
L 152.167398 149.066608 
L 149.252986 145.686146 
L 146.546524 142.137008 
L 145.722452 140.962585 
L 146.866642 145.276765 
L 147.750078 149.651792 
L 148.36958 154.07192 
L 148.722919 158.521243 
L 148.808823 162.983747 
L 148.626982 167.443371 
L 148.178052 171.884067 
L 147.463648 176.289853 
L 146.486341 180.644871 
L 145.249648 184.93345 
L 143.758019 189.140155 
L 142.016825 193.249846 
L 140.03233 197.247733 
L 137.811676 201.119427 
L 137.049104 202.334683 
L 140.581126 199.605921 
L 144.270419 197.093863 
L 148.103706 194.807551 
L 152.067192 192.755211 
L 156.146613 190.944232 
L 160.327286 189.381129 
L 164.594166 188.071529 
L 168.931897 187.020145 
L 173.324868 186.230761 
L 177.757268 185.706217 
L 182.213146 185.448402 
L 186.676466 185.458243 
L 191.131164 185.735704 
L 195.561208 186.279788 
L 196.977158 186.510978 
L 193.091554 184.314754 
L 189.344636 181.889486 
L 185.749889 179.243902 
L 182.320251 176.387524 
L 179.068064 173.33063 
L 176.005033 170.084223 
L 173.142181 166.659986 
L 170.489812 163.070243 
L 168.057471 159.327913 
L 165.853912 155.446464 
L 163.887065 151.439865 
L 162.164009 147.322536 
L 160.690946 143.109295 
L 159.473176 138.815304 
L 159.136744 137.420608 
L 158.620573 141.853991 
L 157.839488 146.248445 
L 156.7963 150.588154 
L 155.494762 154.857501 
L 153.939559 159.041119 
L 152.136288 163.123953 
L 150.091439 167.091309 
L 147.812371 170.928908 
L 145.307287 174.62294 
L 142.585201 178.160109 
L 139.655911 181.527686 
L 136.529958 184.713552 
L 133.218593 187.70624 
L 129.733733 190.49498 
L 128.578908 191.346298 
L 132.865143 190.101507 
L 137.218309 189.115975 
L 141.622737 188.39325 
L 146.062577 187.935932 
L 150.52185 187.745668 
L 154.984508 187.823143 
L 159.43449 188.168077 
L 163.855781 188.779228 
L 168.232468 189.654399 
L 172.548802 190.790438 
L 176.789246 192.183258 
L 180.938542 193.827845 
L 184.981754 195.718282 
L 188.904333 197.847764 
L 190.137094 198.581701 
L 187.32646 195.114475 
L 184.728793 191.484951 
L 182.35344 187.706192 
L 180.208951 183.791798 
L 178.303044 179.755854 
L 176.642578 175.612888 
L 175.233529 171.377809 
L 174.080967 167.065858 
L 173.189042 162.692554 
L 172.560962 158.273636 
L 172.198989 153.825008 
L 172.104424 149.362679 
L 172.277609 144.90271 
L 172.717919 140.461151 
L 172.915924 139.04018 
L 172.915924 139.04018 
" style="fill:none;stroke:#1f77b4;stroke-linecap:square;stroke-width:1.5;"/>
   </g>
   <g id="patch_5">
    <path d="M 57.6 263.808 
L 57.6 85.248 
" style="fill:none;stroke:#000000;stroke-linecap:square;stroke-linejoin:miter;stroke-width:0.8;"/>
   </g>
   <g id="patch_6">
    <path d="M 414.72 263.808 
L 414.72 85.248 
" style="fill:none;stroke:#000000;stroke-linecap:square;stroke-linejoin:miter;stroke-width:0.8;"/>
   </g>
   <g id="patch_7">
    <path d="M 57.6 263.808 
L 414.72 263.808 
" style="fill:none;stroke:#000000;stroke-linecap:square;stroke-linejoin:miter;stroke-width:0.8;"/>
   </g>
   <g id="patch_8">
    <path d="M 57.6 85.248 
L 414.72 85.248 
" style="fill:none;stroke:#000000;stroke-linecap:square;stroke-linejoin:miter;stroke-width:0.8;"/>
   </g>
  </g>
 </g>
 <defs>
  <clipPath id="p6c8c2c9ff7">
   <rect height="178.56" width="357.12" x="57.6" y="85.248"/>
  </clipPath>
 </defs>
</svg>
