<?xml version="1.0" encoding="utf-8" standalone="no"?>
<!DOCTYPE svg PUBLIC "-//W3C//DTD SVG 1.1//EN"
  "http://www.w3.org/Graphics/SVG/1.1/DTD/svg11.dtd">
<!-- Created with matplotlib (https://matplotlib.org/) -->
<svg height="345.6pt" version="1.1" viewBox="0 0 460.8 345.6" width="460.8pt" xmlns="http://www.w3.org/2000/svg" xmlns:xlink="http://www.w3.org/1999/xlink">
 <defs>
  <style type="text/css">
*{stroke-linecap:butt;stroke-linejoin:round;white-space:pre;}
  </style>
 </defs>
 <g id="figure_1">
  <g id="patch_1">
   <path d="M 0 345.6 
L 460.8 345.6 
L 460.8 0 
L 0 0 
z
" style="fill:#ffffff;"/>
  </g>
  <g id="axes_1">
   <g id="patch_2">
    <path d="M 57.6 263.808 
L 414.72 263.808 
L 414.72 85.248 
L 57.6 85.248 
z
" style="fill:#ffffff;"/>
   </g>
   <g id="PathCollection_1">
    <defs>
     <path d="M 0 3 
C 0.795609 3 1.55874 2.683901 2.12132 2.12132 
C 2.683901 1.55874 3 0.795609 3 0 
C 3 -0.795609 2.683901 -1.55874 2.12132 -2.12132 
C 1.55874 -2.683901 0.795609 -3 0 -3 
C -0.795609 -3 -1.55874 -2.683901 -2.12132 -2.12132 
C -2.683901 -1.55874 -3 -0.795609 -3 0 
C -3 0.795609 -2.683901 1.55874 -2.12132 2.12132 
C -1.55874 2.683901 -0.795609 3 0 3 
z
" id="m88bb3945c5" style="stroke:#000000;"/>
    </defs>
    <g clip-path="url(#paf62a45858)">
     <use style="stroke:#000000;" x="217.940734" xlink:href="#m88bb3945c5" y="134.521496"/>
    </g>
   </g>
   <g id="patch_3">
    <path clip-path="url(#paf62a45858)" d="M 161.76 211.728 
C 171.625555 211.728 181.088371 207.808373 188.064372 200.832372 
C 195.040373 193.856371 198.96 184.393555 198.96 174.528 
C 198.96 164.662445 195.040373 155.199629 188.064372 148.223628 
C 181.088371 141.247627 171.625555 137.328 161.76 137.328 
C 151.894445 137.328 142.431629 141.247627 135.455628 148.223628 
C 128.479627 155.199629 124.56 164.662445 124.56 174.528 
C 124.56 184.393555 128.479627 193.856371 135.455628 200.832372 
C 142.431629 207.808373 151.894445 211.728 161.76 211.728 
z
" style="fill:#cc0000;fill-opacity:0.1;stroke:#cc0000;stroke-dasharray:7.4,3.2;stroke-dashoffset:0;stroke-linejoin:miter;stroke-width:2;"/>
   </g>
   <g id="patch_4">
    <path clip-path="url(#paf62a45858)" d="M 310.56 196.848 
C 316.479333 196.848 322.157023 194.496224 326.342623 190.310623 
C 330.528224 186.125023 332.88 180.447333 332.88 174.528 
C 332.88 168.608667 330.528224 162.930977 326.342623 158.745377 
C 322.157023 154.559776 316.479333 152.208 310.56 152.208 
C 304.640667 152.208 298.962977 154.559776 294.777377 158.745377 
C 290.591776 162.930977 288.24 168.608667 288.24 174.528 
C 288.24 180.447333 290.591776 186.125023 294.777377 190.310623 
C 298.962977 194.496224 304.640667 196.848 310.56 196.848 
z
" style="fill:#cc0000;fill-opacity:0.1;stroke:#cc0000;stroke-dasharray:7.4,3.2;stroke-dashoffset:0;stroke-linejoin:miter;stroke-width:2;"/>
   </g>
   <g id="matplotlib.axis_1">
    <g id="xtick_1">
     <g id="line2d_1">
      <defs>
       <path d="M 0 0 
L 0 3.5 
" id="mf8c03b85cf" style="stroke:#000000;stroke-width:0.8;"/>
      </defs>
      <g>
       <use style="stroke:#000000;stroke-width:0.8;" x="87.36" xlink:href="#mf8c03b85cf" y="263.808"/>
      </g>
     </g>
     <g id="text_1">
      <!-- 0.0 -->
      <defs>
       <path d="M 31.78125 66.40625 
Q 24.171875 66.40625 20.328125 58.90625 
Q 16.5 51.421875 16.5 36.375 
Q 16.5 21.390625 20.328125 13.890625 
Q 24.171875 6.390625 31.78125 6.390625 
Q 39.453125 6.390625 43.28125 13.890625 
Q 47.125 21.390625 47.125 36.375 
Q 47.125 51.421875 43.28125 58.90625 
Q 39.453125 66.40625 31.78125 66.40625 
z
M 31.78125 74.21875 
Q 44.046875 74.21875 50.515625 64.515625 
Q 56.984375 54.828125 56.984375 36.375 
Q 56.984375 17.96875 50.515625 8.265625 
Q 44.046875 -1.421875 31.78125 -1.421875 
Q 19.53125 -1.421875 13.0625 8.265625 
Q 6.59375 17.96875 6.59375 36.375 
Q 6.59375 54.828125 13.0625 64.515625 
Q 19.53125 74.21875 31.78125 74.21875 
z
" id="DejaVuSans-48"/>
       <path d="M 10.6875 12.40625 
L 21 12.40625 
L 21 0 
L 10.6875 0 
z
" id="DejaVuSans-46"/>
      </defs>
      <g transform="translate(79.408438 278.406437)scale(0.1 -0.1)">
       <use xlink:href="#DejaVuSans-48"/>
       <use x="63.623047" xlink:href="#DejaVuSans-46"/>
       <use x="95.410156" xlink:href="#DejaVuSans-48"/>
      </g>
     </g>
    </g>
    <g id="xtick_2">
     <g id="line2d_2">
      <g>
       <use style="stroke:#000000;stroke-width:0.8;" x="161.76" xlink:href="#mf8c03b85cf" y="263.808"/>
      </g>
     </g>
     <g id="text_2">
      <!-- 0.5 -->
      <defs>
       <path d="M 10.796875 72.90625 
L 49.515625 72.90625 
L 49.515625 64.59375 
L 19.828125 64.59375 
L 19.828125 46.734375 
Q 21.96875 47.46875 24.109375 47.828125 
Q 26.265625 48.1875 28.421875 48.1875 
Q 40.625 48.1875 47.75 41.5 
Q 54.890625 34.8125 54.890625 23.390625 
Q 54.890625 11.625 47.5625 5.09375 
Q 40.234375 -1.421875 26.90625 -1.421875 
Q 22.3125 -1.421875 17.546875 -0.640625 
Q 12.796875 0.140625 7.71875 1.703125 
L 7.71875 11.625 
Q 12.109375 9.234375 16.796875 8.0625 
Q 21.484375 6.890625 26.703125 6.890625 
Q 35.15625 6.890625 40.078125 11.328125 
Q 45.015625 15.765625 45.015625 23.390625 
Q 45.015625 31 40.078125 35.4375 
Q 35.15625 39.890625 26.703125 39.890625 
Q 22.75 39.890625 18.8125 39.015625 
Q 14.890625 38.140625 10.796875 36.28125 
z
" id="DejaVuSans-53"/>
      </defs>
      <g transform="translate(153.808437 278.406437)scale(0.1 -0.1)">
       <use xlink:href="#DejaVuSans-48"/>
       <use x="63.623047" xlink:href="#DejaVuSans-46"/>
       <use x="95.410156" xlink:href="#DejaVuSans-53"/>
      </g>
     </g>
    </g>
    <g id="xtick_3">
     <g id="line2d_3">
      <g>
       <use style="stroke:#000000;stroke-width:0.8;" x="236.16" xlink:href="#mf8c03b85cf" y="263.808"/>
      </g>
     </g>
     <g id="text_3">
      <!-- 1.0 -->
      <defs>
       <path d="M 12.40625 8.296875 
L 28.515625 8.296875 
L 28.515625 63.921875 
L 10.984375 60.40625 
L 10.984375 69.390625 
L 28.421875 72.90625 
L 38.28125 72.90625 
L 38.28125 8.296875 
L 54.390625 8.296875 
L 54.390625 0 
L 12.40625 0 
z
" id="DejaVuSans-49"/>
      </defs>
      <g transform="translate(228.208437 278.406437)scale(0.1 -0.1)">
       <use xlink:href="#DejaVuSans-49"/>
       <use x="63.623047" xlink:href="#DejaVuSans-46"/>
       <use x="95.410156" xlink:href="#DejaVuSans-48"/>
      </g>
     </g>
    </g>
    <g id="xtick_4">
     <g id="line2d_4">
      <g>
       <use style="stroke:#000000;stroke-width:0.8;" x="310.56" xlink:href="#mf8c03b85cf" y="263.808"/>
      </g>
     </g>
     <g id="text_4">
      <!-- 1.5 -->
      <g transform="translate(302.608437 278.406437)scale(0.1 -0.1)">
       <use xlink:href="#DejaVuSans-49"/>
       <use x="63.623047" xlink:href="#DejaVuSans-46"/>
       <use x="95.410156" xlink:href="#DejaVuSans-53"/>
      </g>
     </g>
    </g>
    <g id="xtick_5">
     <g id="line2d_5">
      <g>
       <use style="stroke:#000000;stroke-width:0.8;" x="384.96" xlink:href="#mf8c03b85cf" y="263.808"/>
      </g>
     </g>
     <g id="text_5">
      <!-- 2.0 -->
      <defs>
       <path d="M 19.1875 8.296875 
L 53.609375 8.296875 
L 53.609375 0 
L 7.328125 0 
L 7.328125 8.296875 
Q 12.9375 14.109375 22.625 23.890625 
Q 32.328125 33.6875 34.8125 36.53125 
Q 39.546875 41.84375 41.421875 45.53125 
Q 43.3125 49.21875 43.3125 52.78125 
Q 43.3125 58.59375 39.234375 62.25 
Q 35.15625 65.921875 28.609375 65.921875 
Q 23.96875 65.921875 18.8125 64.3125 
Q 13.671875 62.703125 7.8125 59.421875 
L 7.8125 69.390625 
Q 13.765625 71.78125 18.9375 73 
Q 24.125 74.21875 28.421875 74.21875 
Q 39.75 74.21875 46.484375 68.546875 
Q 53.21875 62.890625 53.21875 53.421875 
Q 53.21875 48.921875 51.53125 44.890625 
Q 49.859375 40.875 45.40625 35.40625 
Q 44.1875 33.984375 37.640625 27.21875 
Q 31.109375 20.453125 19.1875 8.296875 
z
" id="DejaVuSans-50"/>
      </defs>
      <g transform="translate(377.008437 278.406437)scale(0.1 -0.1)">
       <use xlink:href="#DejaVuSans-50"/>
       <use x="63.623047" xlink:href="#DejaVuSans-46"/>
       <use x="95.410156" xlink:href="#DejaVuSans-48"/>
      </g>
     </g>
    </g>
   </g>
   <g id="matplotlib.axis_2">
    <g id="ytick_1">
     <g id="line2d_6">
      <defs>
       <path d="M 0 0 
L -3.5 0 
" id="m882306b979" style="stroke:#000000;stroke-width:0.8;"/>
      </defs>
      <g>
       <use style="stroke:#000000;stroke-width:0.8;" x="57.6" xlink:href="#m882306b979" y="248.928"/>
      </g>
     </g>
     <g id="text_6">
      <!-- 0.0 -->
      <g transform="translate(34.696875 252.727219)scale(0.1 -0.1)">
       <use xlink:href="#DejaVuSans-48"/>
       <use x="63.623047" xlink:href="#DejaVuSans-46"/>
       <use x="95.410156" xlink:href="#DejaVuSans-48"/>
      </g>
     </g>
    </g>
    <g id="ytick_2">
     <g id="line2d_7">
      <g>
       <use style="stroke:#000000;stroke-width:0.8;" x="57.6" xlink:href="#m882306b979" y="219.168"/>
      </g>
     </g>
     <g id="text_7">
      <!-- 0.2 -->
      <g transform="translate(34.696875 222.967219)scale(0.1 -0.1)">
       <use xlink:href="#DejaVuSans-48"/>
       <use x="63.623047" xlink:href="#DejaVuSans-46"/>
       <use x="95.410156" xlink:href="#DejaVuSans-50"/>
      </g>
     </g>
    </g>
    <g id="ytick_3">
     <g id="line2d_8">
      <g>
       <use style="stroke:#000000;stroke-width:0.8;" x="57.6" xlink:href="#m882306b979" y="189.408"/>
      </g>
     </g>
     <g id="text_8">
      <!-- 0.4 -->
      <defs>
       <path d="M 37.796875 64.3125 
L 12.890625 25.390625 
L 37.796875 25.390625 
z
M 35.203125 72.90625 
L 47.609375 72.90625 
L 47.609375 25.390625 
L 58.015625 25.390625 
L 58.015625 17.1875 
L 47.609375 17.1875 
L 47.609375 0 
L 37.796875 0 
L 37.796875 17.1875 
L 4.890625 17.1875 
L 4.890625 26.703125 
z
" id="DejaVuSans-52"/>
      </defs>
      <g transform="translate(34.696875 193.207219)scale(0.1 -0.1)">
       <use xlink:href="#DejaVuSans-48"/>
       <use x="63.623047" xlink:href="#DejaVuSans-46"/>
       <use x="95.410156" xlink:href="#DejaVuSans-52"/>
      </g>
     </g>
    </g>
    <g id="ytick_4">
     <g id="line2d_9">
      <g>
       <use style="stroke:#000000;stroke-width:0.8;" x="57.6" xlink:href="#m882306b979" y="159.648"/>
      </g>
     </g>
     <g id="text_9">
      <!-- 0.6 -->
      <defs>
       <path d="M 33.015625 40.375 
Q 26.375 40.375 22.484375 35.828125 
Q 18.609375 31.296875 18.609375 23.390625 
Q 18.609375 15.53125 22.484375 10.953125 
Q 26.375 6.390625 33.015625 6.390625 
Q 39.65625 6.390625 43.53125 10.953125 
Q 47.40625 15.53125 47.40625 23.390625 
Q 47.40625 31.296875 43.53125 35.828125 
Q 39.65625 40.375 33.015625 40.375 
z
M 52.59375 71.296875 
L 52.59375 62.3125 
Q 48.875 64.0625 45.09375 64.984375 
Q 41.3125 65.921875 37.59375 65.921875 
Q 27.828125 65.921875 22.671875 59.328125 
Q 17.53125 52.734375 16.796875 39.40625 
Q 19.671875 43.65625 24.015625 45.921875 
Q 28.375 48.1875 33.59375 48.1875 
Q 44.578125 48.1875 50.953125 41.515625 
Q 57.328125 34.859375 57.328125 23.390625 
Q 57.328125 12.15625 50.6875 5.359375 
Q 44.046875 -1.421875 33.015625 -1.421875 
Q 20.359375 -1.421875 13.671875 8.265625 
Q 6.984375 17.96875 6.984375 36.375 
Q 6.984375 53.65625 15.1875 63.9375 
Q 23.390625 74.21875 37.203125 74.21875 
Q 40.921875 74.21875 44.703125 73.484375 
Q 48.484375 72.75 52.59375 71.296875 
z
" id="DejaVuSans-54"/>
      </defs>
      <g transform="translate(34.696875 163.447219)scale(0.1 -0.1)">
       <use xlink:href="#DejaVuSans-48"/>
       <use x="63.623047" xlink:href="#DejaVuSans-46"/>
       <use x="95.410156" xlink:href="#DejaVuSans-54"/>
      </g>
     </g>
    </g>
    <g id="ytick_5">
     <g id="line2d_10">
      <g>
       <use style="stroke:#000000;stroke-width:0.8;" x="57.6" xlink:href="#m882306b979" y="129.888"/>
      </g>
     </g>
     <g id="text_10">
      <!-- 0.8 -->
      <defs>
       <path d="M 31.78125 34.625 
Q 24.75 34.625 20.71875 30.859375 
Q 16.703125 27.09375 16.703125 20.515625 
Q 16.703125 13.921875 20.71875 10.15625 
Q 24.75 6.390625 31.78125 6.390625 
Q 38.8125 6.390625 42.859375 10.171875 
Q 46.921875 13.96875 46.921875 20.515625 
Q 46.921875 27.09375 42.890625 30.859375 
Q 38.875 34.625 31.78125 34.625 
z
M 21.921875 38.8125 
Q 15.578125 40.375 12.03125 44.71875 
Q 8.5 49.078125 8.5 55.328125 
Q 8.5 64.0625 14.71875 69.140625 
Q 20.953125 74.21875 31.78125 74.21875 
Q 42.671875 74.21875 48.875 69.140625 
Q 55.078125 64.0625 55.078125 55.328125 
Q 55.078125 49.078125 51.53125 44.71875 
Q 48 40.375 41.703125 38.8125 
Q 48.828125 37.15625 52.796875 32.3125 
Q 56.78125 27.484375 56.78125 20.515625 
Q 56.78125 9.90625 50.3125 4.234375 
Q 43.84375 -1.421875 31.78125 -1.421875 
Q 19.734375 -1.421875 13.25 4.234375 
Q 6.78125 9.90625 6.78125 20.515625 
Q 6.78125 27.484375 10.78125 32.3125 
Q 14.796875 37.15625 21.921875 38.8125 
z
M 18.3125 54.390625 
Q 18.3125 48.734375 21.84375 45.5625 
Q 25.390625 42.390625 31.78125 42.390625 
Q 38.140625 42.390625 41.71875 45.5625 
Q 45.3125 48.734375 45.3125 54.390625 
Q 45.3125 60.0625 41.71875 63.234375 
Q 38.140625 66.40625 31.78125 66.40625 
Q 25.390625 66.40625 21.84375 63.234375 
Q 18.3125 60.0625 18.3125 54.390625 
z
" id="DejaVuSans-56"/>
      </defs>
      <g transform="translate(34.696875 133.687219)scale(0.1 -0.1)">
       <use xlink:href="#DejaVuSans-48"/>
       <use x="63.623047" xlink:href="#DejaVuSans-46"/>
       <use x="95.410156" xlink:href="#DejaVuSans-56"/>
      </g>
     </g>
    </g>
    <g id="ytick_6">
     <g id="line2d_11">
      <g>
       <use style="stroke:#000000;stroke-width:0.8;" x="57.6" xlink:href="#m882306b979" y="100.128"/>
      </g>
     </g>
     <g id="text_11">
      <!-- 1.0 -->
      <g transform="translate(34.696875 103.927219)scale(0.1 -0.1)">
       <use xlink:href="#DejaVuSans-49"/>
       <use x="63.623047" xlink:href="#DejaVuSans-46"/>
       <use x="95.410156" xlink:href="#DejaVuSans-48"/>
      </g>
     </g>
    </g>
   </g>
   <g id="line2d_12">
    <path clip-path="url(#paf62a45858)" d="M 236.16 248.928 
L 236.16 100.128 
" style="fill:none;stroke:#cc0000;stroke-dasharray:7.4,3.2;stroke-dashoffset:0;stroke-width:2;"/>
   </g>
   <g id="line2d_13">
    <path clip-path="url(#paf62a45858)" d="M 87.36 248.928 
L 384.96 248.928 
" style="fill:none;stroke:#009900;stroke-linecap:square;stroke-width:2;"/>
   </g>
   <g id="line2d_14">
    <path clip-path="url(#paf62a45858)" d="M 384.96 248.928 
L 384.96 100.128 
" style="fill:none;stroke:#009900;stroke-linecap:square;stroke-width:2;"/>
   </g>
   <g id="line2d_15">
    <path clip-path="url(#paf62a45858)" d="M 384.96 100.128 
L 87.36 100.128 
" style="fill:none;stroke:#009900;stroke-linecap:square;stroke-width:2;"/>
   </g>
   <g id="line2d_16">
    <path clip-path="url(#paf62a45858)" d="M 87.36 100.128 
L 87.36 248.928 
" style="fill:none;stroke:#009900;stroke-linecap:square;stroke-width:2;"/>
   </g>
   <g id="line2d_17">
    <path clip-path="url(#paf62a45858)" d="M 217.940734 134.521496 
L 218.083854 140.471378 
L 218.464791 146.410778 
L 219.082937 152.330193 
L 219.937301 158.220154 
L 221.026518 164.071239 
L 222.348844 169.874086 
L 223.902165 175.619412 
L 225.683995 181.298027 
L 227.691483 186.900845 
L 229.921419 192.418903 
L 232.370235 197.843374 
L 235.034013 203.165579 
L 236.16 205.266165 
L 233.411321 210.545023 
L 230.875938 215.929577 
L 228.557908 221.411211 
L 226.460939 226.981157 
L 224.588385 232.630505 
L 222.943244 238.350215 
L 221.528145 244.131139 
L 220.537744 248.928 
L 219.313676 243.103634 
L 217.857676 237.332876 
L 216.172071 231.624959 
L 214.259559 225.989014 
L 212.123198 220.434057 
L 209.766408 214.968975 
L 207.192958 209.602511 
L 204.406965 204.343251 
L 201.412886 199.199607 
L 198.215511 194.179808 
L 195.487888 190.220979 
L 201.409544 189.624685 
L 207.302618 188.792065 
L 213.157683 187.724451 
L 218.965371 186.423551 
L 224.716391 184.891446 
L 230.401544 183.130587 
L 236.16 181.087832 
L 230.55193 179.095062 
L 224.868656 177.328149 
L 219.119271 175.78992 
L 213.312972 174.482835 
L 207.459048 173.408986 
L 201.566863 172.57009 
L 198.891295 172.268148 
L 194.43383 172.039408 
L 189.998102 171.543792 
L 185.600075 170.783084 
L 181.255577 169.760022 
L 176.980244 168.478287 
L 172.789462 166.942492 
L 168.698313 165.158165 
L 164.721522 163.131727 
L 160.8734 160.870471 
L 157.167797 158.382536 
L 153.618049 155.676874 
L 150.23693 152.763224 
L 147.03661 149.652072 
L 144.028606 146.354614 
L 141.543604 143.300811 
L 143.535028 147.295251 
L 145.283345 151.401917 
L 146.782264 155.606029 
L 148.026391 159.892457 
L 149.011247 164.245775 
L 149.733289 168.650315 
L 150.189918 173.090226 
L 150.37949 177.549529 
L 150.301323 182.012175 
L 149.955699 186.462103 
L 149.343861 190.883299 
L 148.468012 195.259851 
L 147.331303 199.576008 
L 145.937825 203.816237 
L 144.499516 207.481235 
L 146.9996 203.783817 
L 149.716897 200.242967 
L 152.641628 196.871429 
L 155.763266 193.681337 
L 159.070579 190.684171 
L 162.551661 187.890718 
L 166.193987 185.311031 
L 169.984447 182.954395 
L 173.909399 180.82929 
L 177.954718 178.943366 
L 182.105845 177.303409 
L 186.347841 175.915321 
L 190.665439 174.784097 
L 195.043101 173.91381 
L 198.941824 173.365266 
L 194.493054 173.005039 
L 190.07389 172.378695 
L 185.700236 171.488486 
L 181.387833 170.337618 
L 177.152201 168.930232 
L 173.008582 167.271393 
L 168.971891 165.367071 
L 165.056655 163.224119 
L 161.276963 160.850251 
L 157.64642 158.254008 
L 154.178091 155.444736 
L 150.884458 152.432544 
L 147.777375 149.228272 
L 144.868024 145.843454 
L 142.474256 142.717623 
L 144.346894 146.76911 
L 145.973219 150.925597 
L 147.347377 155.172126 
L 148.464424 159.493413 
L 149.320339 163.873907 
L 149.912042 168.297843 
L 150.237404 172.749299 
L 150.295253 177.212254 
L 150.085381 181.670648 
L 149.608543 186.108434 
L 148.866457 190.509641 
L 147.861791 194.85843 
L 146.598163 199.13915 
L 145.080119 203.336394 
L 143.534244 206.957336 
L 146.142388 203.335333 
L 148.963028 199.876242 
L 151.986013 196.592513 
L 155.200465 193.495963 
L 158.594813 190.597737 
L 162.156843 187.908264 
L 165.873735 185.437225 
L 169.732111 183.193512 
L 173.718087 181.1852 
L 177.817316 179.419517 
L 182.015047 177.902818 
L 186.296171 176.64056 
L 190.645282 175.637287 
L 195.046726 174.89661 
L 198.959944 174.463397 
L 194.523747 173.971997 
L 190.124999 173.21547 
L 185.77953 172.196538 
L 181.502981 170.918867 
L 177.310741 169.387056 
L 173.217898 167.606619 
L 169.239183 165.583962 
L 165.388913 163.326364 
L 161.680947 160.841952 
L 158.128628 158.139666 
L 154.744742 155.229231 
L 151.541466 152.121122 
L 148.530329 148.826525 
L 145.722167 145.357297 
L 143.421718 142.162163 
L 145.173938 146.267165 
L 146.676852 150.469851 
L 147.925053 154.755095 
L 148.914046 159.107474 
L 149.640275 163.511326 
L 150.101123 167.950801 
L 150.294934 172.409922 
L 150.221009 176.87264 
L 149.879615 181.322895 
L 149.27198 185.74467 
L 148.400291 190.122053 
L 147.267685 194.439288 
L 145.878238 198.680839 
L 144.236952 202.831441 
L 142.584859 206.40517 
L 145.298789 202.861739 
L 148.220314 199.487423 
L 151.338919 196.294364 
L 154.643381 193.294056 
L 158.121807 190.497295 
L 161.761679 187.914148 
L 165.549896 185.55391 
L 169.472827 183.425075 
L 173.516352 181.535307 
L 177.665918 179.891404 
L 181.906593 178.499285 
L 186.223114 177.363958 
L 190.599946 176.48951 
L 195.021338 175.879089 
L 201.889786 175.127676 
L 207.749108 174.08368 
L 213.561994 172.806208 
L 219.319146 171.297305 
L 225.011352 169.559385 
L 230.629507 167.595227 
L 236.16 165.409908 
L 230.624811 163.222841 
L 225.00659 161.258872 
L 219.314325 159.521143 
L 213.557123 158.012434 
L 207.744193 156.735159 
L 201.884836 155.69136 
L 195.988425 154.882708 
L 193.159049 154.579574 
L 195.040577 148.933209 
L 196.694806 143.21612 
L 198.119088 137.437452 
L 199.311147 131.606451 
L 200.269074 125.732444 
L 200.991337 119.824829 
L 201.476781 113.893057 
L 201.724629 107.946616 
L 201.734484 101.995021 
L 201.68851 100.128 
L 201.649982 101.615495 
L 201.644655 107.567096 
L 201.877332 113.514149 
L 202.347642 119.447141 
L 203.054832 125.356579 
L 203.997771 131.233011 
L 205.17495 137.067034 
L 206.584486 142.849316 
L 208.224125 148.570607 
L 210.091242 154.221753 
L 212.182852 159.793714 
L 214.495607 165.277576 
L 217.025809 170.664566 
L 219.769409 175.946066 
L 222.722018 181.113626 
L 225.878912 186.15898 
L 229.235042 191.074057 
L 232.785038 195.850992 
L 236.16 200.048459 
L 232.439451 204.693789 
L 228.907641 209.484186 
L 225.570222 214.411986 
L 222.432531 219.469305 
L 219.499589 224.648054 
L 216.776088 229.939946 
L 214.266384 235.336516 
L 211.974493 240.82913 
L 209.904082 246.409003 
L 209.051475 248.928 
L 207.081115 243.312017 
L 204.887751 237.77932 
L 202.474893 232.33876 
L 199.8464 226.99904 
L 197.006478 221.768703 
L 193.959671 216.656117 
L 190.710851 211.66946 
L 187.265217 206.816709 
L 181.38171 198.857799 
L 179.021418 195.069615 
L 176.892527 191.146715 
L 175.0027 187.103218 
L 173.358737 182.953675 
L 171.966557 178.71302 
L 170.831168 174.396516 
L 169.956657 170.019696 
L 169.346171 165.598313 
L 169.001908 161.148279 
L 168.925106 156.68561 
L 169.116042 152.226365 
L 169.574029 147.786594 
L 170.297417 143.382275 
L 171.283605 139.029259 
L 171.396438 138.597803 
L 170.558974 141.453332 
L 169.090394 145.668139 
L 167.37172 149.787299 
L 165.409137 153.795988 
L 163.209709 157.679779 
L 160.781351 161.424695 
L 158.132803 165.017258 
L 155.273596 168.444539 
L 152.214021 171.694203 
L 148.965088 174.754555 
L 145.538491 177.614581 
L 141.946561 180.263989 
L 138.202225 182.693242 
L 134.31896 184.893598 
L 130.31074 186.857139 
L 127.162547 188.197537 
L 128.553543 187.669144 
L 132.78602 186.252294 
L 137.09584 185.091791 
L 141.467493 184.19181 
L 145.885246 183.55559 
L 150.3332 183.185422 
L 154.795347 183.082636 
L 159.255628 183.247604 
L 163.69799 183.679731 
L 168.106447 184.377463 
L 172.465132 185.338287 
L 176.758359 186.558747 
L 180.970676 188.03445 
L 185.086925 189.760085 
L 189.092291 191.729441 
L 192.972358 193.935431 
L 197.193302 196.443277 
L 202.417132 199.295149 
L 207.750829 201.935843 
L 213.185859 204.361133 
L 218.713527 206.56714 
L 224.32499 208.550334 
L 230.011271 210.307544 
L 236.16 211.932348 
L 230.403826 213.444973 
L 224.712744 215.186575 
L 219.095861 217.154365 
L 213.562161 219.345198 
L 208.120497 221.755566 
L 202.779575 224.381616 
L 197.54794 227.219144 
L 192.43396 230.263613 
L 187.445817 233.510151 
L 182.59149 236.953564 
L 177.878747 240.588345 
L 173.315125 244.408677 
L 168.907927 248.40845 
L 168.360754 248.928 
L 163.973894 244.90593 
L 159.429704 241.062506 
L 154.735452 237.403875 
L 149.898649 233.93589 
L 144.927033 230.6641 
L 139.828556 227.593738 
L 134.611376 224.729718 
L 129.283839 222.076619 
L 123.854468 219.638688 
L 118.331949 217.419823 
L 112.725116 215.423576 
L 107.042939 213.653138 
L 101.294509 212.111343 
L 95.489022 210.800658 
L 89.635765 209.723178 
L 87.36 209.369203 
L 93.229233 208.382446 
L 99.054311 207.161772 
L 104.825916 205.709134 
L 110.534814 204.026855 
L 116.171872 202.117626 
L 121.728073 199.984502 
L 127.194527 197.630896 
L 131.199283 195.738436 
L 126.956081 199.911782 
L 122.883162 204.251472 
L 118.987043 208.750564 
L 115.273955 213.401861 
L 111.74984 218.197922 
L 108.420335 223.131073 
L 105.290767 228.193422 
L 102.366142 233.376872 
L 99.651139 238.673129 
L 97.150102 244.073721 
L 95.120497 248.928 
L 92.811956 243.442363 
L 90.285894 238.05343 
L 87.36 232.428417 
L 90.113343 227.15199 
L 92.653482 221.769679 
L 94.976355 216.290095 
L 97.078244 210.722003 
L 98.955789 205.074313 
L 100.605983 199.356058 
L 102.026189 193.576387 
L 103.214134 187.744546 
L 104.167916 181.869865 
L 104.886012 175.961742 
L 105.367271 170.029628 
L 105.610923 164.083014 
L 105.61658 158.131414 
L 105.384232 152.184348 
L 104.91425 146.25133 
L 104.207387 140.341853 
L 103.264773 134.465369 
L 102.087917 128.63128 
L 100.6787 122.84892 
L 99.039378 117.127539 
L 97.172573 111.476289 
L 95.081272 105.904213 
L 92.638277 100.128 
L 90.314035 105.607003 
L 88.210753 111.174569 
L 87.36 113.638705 
L 89.365423 119.242262 
L 91.593324 124.761142 
L 94.04014 130.186515 
L 96.701955 135.509702 
L 99.574512 140.722187 
L 102.653216 145.815631 
L 105.933139 150.781885 
L 109.409037 155.613005 
L 113.075347 160.301261 
L 116.926205 164.839154 
L 120.95545 169.219424 
L 124.596004 172.89172 
L 120.060734 176.745667 
L 115.683208 180.777893 
L 111.470429 184.981948 
L 107.429138 189.351106 
L 103.565799 193.878378 
L 99.886593 198.556522 
L 96.397406 203.378052 
L 93.103819 208.335255 
L 90.011102 213.420202 
L 87.36 218.180679 
L 90.264469 223.37545 
L 93.37435 228.449917 
L 96.684668 233.395964 
L 100.190128 238.205676 
L 103.88512 242.871361 
L 107.763735 247.385553 
L 109.163136 248.928 
L 113.104551 244.468535 
L 116.864483 239.855023 
L 120.436916 235.094844 
L 123.816135 230.195613 
L 126.996734 225.165169 
L 129.973624 220.011558 
L 132.742044 214.743026 
L 135.297565 209.368001 
L 137.636097 203.895082 
L 137.950449 203.110255 
L 140.345238 199.343784 
L 142.96157 195.727691 
L 145.790029 192.274991 
L 148.820437 188.99811 
L 152.041886 185.908841 
L 155.442783 183.018302 
L 159.010889 180.336896 
L 162.733362 177.874272 
L 166.596805 175.639295 
L 170.587314 173.640007 
L 174.690528 171.883603 
L 178.89168 170.376405 
L 183.175649 169.123837 
L 187.527018 168.130407 
L 191.930128 167.39969 
L 196.369131 166.934317 
L 198.15326 166.822767 
L 193.94077 168.297978 
L 189.647401 169.517937 
L 185.288604 170.478253 
L 180.880066 171.17547 
L 176.437653 171.607079 
L 171.977353 171.771527 
L 167.515219 171.668221 
L 163.067308 171.297533 
L 158.649629 170.660798 
L 154.278081 169.760307 
L 149.968396 168.599301 
L 145.736085 167.181958 
L 141.596379 165.513379 
L 137.564177 163.599569 
L 133.653991 161.447416 
L 129.879893 159.064666 
L 128.409741 158.047702 
L 124.076938 153.967457 
L 119.584434 150.063742 
L 114.939417 146.342802 
L 110.149317 142.810589 
L 105.221798 139.472755 
L 100.164743 136.334639 
L 94.986242 133.401261 
L 89.694579 130.677314 
L 87.36 129.559102 
L 92.698247 126.927619 
L 97.926992 124.084769 
L 103.037872 121.035098 
L 108.022709 117.783486 
L 112.873528 114.335134 
L 117.582571 110.69556 
L 122.142302 106.870585 
L 126.545428 102.86633 
L 129.362682 100.128 
L 133.658558 104.247106 
L 138.115718 108.191128 
L 142.727031 111.953756 
L 147.48512 115.528972 
L 152.382374 118.911054 
L 157.410958 122.094594 
L 162.562828 125.074497 
L 167.82974 127.845997 
L 173.203271 130.404659 
L 178.674822 132.746391 
L 184.235641 134.867446 
L 189.876831 136.764431 
L 195.589368 138.434312 
L 201.364113 139.874416 
L 207.191828 141.08244 
L 213.063189 142.056451 
L 218.968804 142.794891 
L 224.899225 143.296579 
L 230.844964 143.560712 
L 237.647949 143.583292 
L 245.085759 143.410975 
L 252.516938 143.052785 
L 259.936841 142.508947 
L 267.34083 141.779801 
L 274.72428 140.865803 
L 282.082574 139.767522 
L 289.411115 138.485647 
L 296.705323 137.020978 
L 303.960638 135.374431 
L 311.172527 133.547034 
L 318.336481 131.53993 
L 325.448025 129.354372 
L 332.502714 126.991728 
L 339.496138 124.453473 
L 346.423926 121.741194 
L 353.281751 118.856585 
L 360.065324 115.801451 
L 366.770407 112.577699 
L 373.39281 109.187345 
L 379.928393 105.632508 
L 384.96 102.74888 
L 380.396403 100.128 
L 373.958438 103.856716 
L 367.615693 107.745199 
L 361.372132 111.79102 
L 355.231657 115.991648 
L 349.198105 120.34446 
L 343.275248 124.846735 
L 337.466787 129.495659 
L 331.776352 134.288327 
L 326.207499 139.221743 
L 320.763709 144.292825 
L 315.448383 149.498402 
L 312.685767 152.30946 
L 308.535333 146.134947 
L 304.231849 140.066113 
L 299.778005 134.106751 
L 295.176584 128.260586 
L 290.430462 122.531272 
L 285.542605 116.922388 
L 280.516069 111.437441 
L 275.353993 106.079859 
L 269.303999 100.128 
L 263.991252 105.336209 
L 258.810357 110.675595 
L 253.764551 116.142821 
L 248.856989 121.734471 
L 244.090737 127.44705 
L 239.468774 133.276987 
L 236.16 137.641851 
L 240.673887 143.555864 
L 245.334198 149.355193 
L 250.138021 155.036214 
L 255.082354 160.595377 
L 260.164106 166.029207 
L 265.380102 171.334308 
L 270.727082 176.507366 
L 276.201704 181.545147 
L 281.800546 186.444502 
L 287.52011 191.202369 
L 293.356821 195.815776 
L 299.307032 200.281838 
L 305.367023 204.597765 
L 311.533007 208.76086 
L 317.801131 212.76852 
L 324.167477 216.61824 
L 330.628067 220.307616 
L 337.178863 223.834341 
L 343.815771 227.196211 
L 350.534643 230.391125 
L 357.33128 233.417087 
L 364.201435 236.272205 
L 371.140812 238.954694 
L 378.145077 241.462879 
L 384.96 243.716036 
L 377.897283 246.05457 
L 369.938256 248.928 
L 362.94488 246.389613 
L 355.890236 244.026836 
L 348.778733 241.841145 
L 341.614816 239.833906 
L 334.402962 238.006374 
L 327.147678 236.35969 
L 319.853498 234.894883 
L 312.524981 233.612871 
L 305.166707 232.514452 
L 297.783275 231.600315 
L 290.379299 230.871029 
L 282.959406 230.327052 
L 275.528234 229.968723 
L 268.090427 229.796265 
L 260.650633 229.809788 
L 253.213502 230.009281 
L 245.783682 230.394621 
L 238.365816 230.965567 
L 236.16 231.17139 
L 243.57341 231.79754 
L 251.000156 232.238178 
L 258.435596 232.493029 
L 265.875083 232.561934 
L 273.313968 232.444849 
L 280.747602 232.141849 
L 288.171338 231.653122 
L 295.580538 230.978973 
L 302.970571 230.119824 
L 310.336817 229.076212 
L 317.674675 227.848789 
L 324.979557 226.438323 
L 332.246898 224.845694 
L 339.472157 223.071898 
L 346.650818 221.118044 
L 353.778394 218.985353 
L 360.850431 216.675157 
L 367.86251 214.188901 
L 374.810248 211.528138 
L 381.689302 208.69453 
L 384.96 207.275984 
L 378.115384 204.360175 
L 371.200018 201.616374 
L 364.218226 199.046297 
L 357.174371 196.65155 
L 350.072854 194.433629 
L 342.918114 192.39392 
L 335.714622 190.533699 
L 327.79655 188.7084 
L 330.825837 195.503556 
L 334.024039 202.220863 
L 337.389156 208.856125 
L 340.919086 215.405195 
L 344.611623 221.863979 
L 348.464459 228.22844 
L 352.475186 234.494602 
L 356.641297 240.658549 
L 360.96019 246.716427 
L 362.594724 248.928 
L 366.96941 242.91029 
L 371.192303 236.785104 
L 375.260762 230.556272 
L 379.172245 224.227684 
L 382.924307 217.803298 
L 384.96 214.156091 
L 381.298472 207.679677 
L 377.476195 201.296816 
L 373.495557 195.011497 
L 369.359046 188.827647 
L 365.069248 182.749132 
L 360.628843 176.77975 
L 356.040607 170.923232 
L 351.307407 165.183238 
L 346.432201 159.563355 
L 341.418036 154.067095 
L 336.268045 148.697895 
L 330.985448 143.459108 
L 325.573546 138.35401 
L 320.035721 133.38579 
L 314.375433 128.557554 
L 308.596221 123.872319 
L 302.701696 119.333014 
L 296.695542 114.942475 
L 290.581514 110.703445 
L 284.36343 106.618576 
L 278.045179 102.690419 
L 273.72444 100.128 
L 267.340785 103.948951 
L 261.054639 107.928282 
L 254.869929 112.063508 
L 248.790523 116.352042 
L 242.820218 120.791207 
L 236.16 126.025501 
L 235.035065 131.869823 
L 234.14474 137.754456 
L 233.490451 143.669985 
L 233.073242 149.606947 
L 232.893783 155.555844 
L 232.952359 161.507159 
L 233.248878 167.451371 
L 233.782864 173.378971 
L 234.553465 179.280476 
L 235.559446 185.146444 
L 236.16 188.109072 
L 235.035065 193.953394 
L 234.14474 199.838027 
L 233.490451 205.753556 
L 233.073242 211.690518 
L 232.893783 217.639415 
L 232.952359 223.59073 
L 233.248878 229.534942 
L 233.782864 235.462542 
L 234.553465 241.364046 
L 235.559446 247.230014 
L 235.895977 248.928 
L 236.16 247.604761 
L 234.90532 241.786913 
L 233.418991 236.023892 
L 231.703392 230.324918 
L 229.761267 224.699109 
L 227.595723 219.155464 
L 225.210225 213.702852 
L 222.608588 208.349996 
L 219.794975 203.105459 
L 216.773888 197.977632 
L 213.550158 192.974718 
L 210.128944 188.10472 
L 206.515719 183.37543 
L 202.716263 178.794414 
L 198.959914 174.608025 
L 194.924315 172.701389 
L 191.010307 170.556194 
L 187.231977 168.18016 
L 183.602923 165.581837 
L 180.136204 162.770577 
L 176.844298 159.756497 
L 173.739053 156.550446 
L 170.831642 153.16396 
L 168.132531 149.609229 
L 165.651432 145.899044 
L 163.397276 142.046759 
L 161.378175 138.066238 
L 161.039249 137.334983 
L 159.219925 141.410689 
L 157.159479 145.369967 
L 154.865326 149.198567 
L 152.345724 152.882712 
L 149.609739 156.409141 
L 146.667219 159.765165 
L 143.528753 162.938704 
L 140.205636 165.918337 
L 136.709829 168.693342 
L 133.053912 171.25373 
L 129.251042 173.590287 
L 125.314906 175.694605 
L 124.591116 176.049192 
L 128.705039 177.780362 
L 132.707752 179.755105 
L 136.584849 181.966312 
L 140.322377 184.406027 
L 143.906883 187.065468 
L 147.325469 189.935066 
L 150.565831 193.004492 
L 153.616307 196.262699 
L 156.465918 199.697962 
L 159.104409 203.297918 
L 161.522285 207.049611 
L 163.710843 210.939537 
L 164.080929 211.655527 
L 165.723142 207.505292 
L 167.611266 203.460999 
L 169.738503 199.537202 
L 172.097199 195.748024 
L 174.678865 192.107101 
L 177.47421 188.627537 
L 180.473174 185.321855 
L 183.664962 182.20195 
L 187.03809 179.279052 
L 190.580416 176.563681 
L 194.279192 174.065607 
L 198.121107 171.793822 
L 198.828965 171.40841 
L 194.644341 169.855914 
L 190.560342 168.055285 
L 186.591664 166.013003 
L 182.752591 163.736418 
L 179.056939 161.233724 
L 175.51801 158.513927 
L 172.148538 155.586816 
L 168.960651 152.462925 
L 165.965821 149.153497 
L 163.174827 145.670443 
L 160.597713 142.026296 
L 158.243755 138.234173 
L 157.843194 137.534776 
L 156.381136 141.751849 
L 154.668835 145.873662 
L 152.712455 149.885382 
L 150.519037 153.77257 
L 148.096474 157.521238 
L 145.453486 161.117894 
L 142.599584 164.549593 
L 139.545038 167.803986 
L 136.300843 170.869359 
L 132.878674 173.734682 
L 129.290846 176.389642 
L 125.550273 178.824684 
L 124.85966 179.240206 
L 129.107227 180.61115 
L 133.264944 182.234329 
L 137.317847 184.1039 
L 141.25135 186.213135 
L 145.051297 188.554443 
L 148.704011 191.119399 
L 152.196348 193.89877 
L 155.515738 196.882554 
L 158.650235 200.060013 
L 161.588559 203.419711 
L 164.320134 206.949557 
L 166.83513 210.636848 
L 167.265423 211.318356 
L 168.544617 207.042262 
L 170.077921 202.850569 
L 171.859817 198.758361 
L 173.883892 194.780366 
L 176.142861 190.930902 
L 178.628595 187.223821 
L 181.332146 183.672465 
L 184.243787 180.289616 
L 187.353037 177.087448 
L 190.648707 174.077485 
L 194.118936 171.27056 
L 197.751235 168.676774 
L 198.423323 168.231912 
L 194.120684 167.04506 
L 189.896956 165.602341 
L 185.76734 163.908945 
L 181.746698 161.970969 
L 177.849499 159.795386 
L 174.08977 157.390027 
L 170.481041 154.763547 
L 167.0363 151.9254 
L 163.767945 148.885799 
L 160.687737 145.655684 
L 157.806763 142.246681 
L 155.135391 138.671056 
L 154.676164 138.0087 
L 153.582205 142.33589 
L 152.230739 146.589695 
L 150.626629 150.754806 
L 148.775649 154.816233 
L 146.684461 158.75936 
L 144.36059 162.569995 
L 141.812399 166.234425 
L 139.04906 169.739461 
L 136.080518 173.072489 
L 132.917456 176.221513 
L 129.571257 179.175201 
L 126.053965 181.922923 
L 125.401647 182.3963 
L 122.448353 187.56347 
L 119.704053 192.844606 
L 117.173138 198.23126 
L 114.859656 203.714816 
L 112.767308 209.2865 
L 110.899441 214.937398 
L 109.259045 220.658472 
L 107.848742 226.440567 
L 106.67079 232.274435 
L 105.727072 238.150741 
L 105.019099 244.060086 
L 104.614999 248.928 
L 104.101367 242.998602 
L 103.351033 237.094486 
L 102.365198 231.225099 
L 101.145439 225.399829 
L 99.693706 219.627996 
L 98.012324 213.918834 
L 96.10398 208.281476 
L 93.971729 202.724941 
L 91.618981 197.258117 
L 89.0495 191.889751 
L 87.36 188.634463 
L 90.061009 183.331055 
L 92.547777 177.923878 
L 94.816327 172.421582 
L 96.863029 166.83297 
L 98.68461 161.166981 
L 100.278154 155.432681 
L 101.641112 149.639243 
L 102.771305 143.795935 
L 103.666923 137.912106 
L 104.326535 131.997168 
L 104.749085 126.060583 
L 104.933896 120.11185 
L 104.880674 114.160485 
L 104.589503 108.216008 
L 104.06085 102.287931 
L 103.808621 100.128 
L 103.193392 106.047719 
L 102.81538 111.987306 
L 102.675191 117.937257 
L 102.773049 123.888056 
L 103.108796 129.830182 
L 103.681897 135.754128 
L 104.491434 141.650417 
L 105.536113 147.509617 
L 106.814261 153.322355 
L 108.323834 159.079331 
L 110.062417 164.771335 
L 112.02723 170.389261 
L 114.215127 175.924122 
L 116.62261 181.367062 
L 119.245827 186.709376 
L 122.080581 191.942516 
L 125.122337 197.058109 
L 128.36623 202.047973 
L 131.807069 206.904125 
L 135.43935 211.618795 
L 139.257262 216.184442 
L 143.254697 220.59376 
L 147.425261 224.839697 
L 151.762281 228.91546 
L 156.258818 232.814528 
L 160.90768 236.530663 
L 165.701429 240.057921 
L 170.632397 243.390659 
L 175.692694 246.523545 
L 179.911352 248.928 
L 185.071177 245.961892 
L 190.108261 242.791819 
L 195.014547 239.422852 
L 199.782185 235.86038 
L 204.403549 232.110104 
L 208.871246 228.178022 
L 213.178127 224.070425 
L 217.317304 219.793884 
L 221.282153 215.355241 
L 225.066333 210.761597 
L 228.663789 206.020301 
L 232.068766 201.138937 
L 235.275817 196.125315 
L 236.16 194.661353 
L 233.010785 189.611202 
L 229.662136 184.691026 
L 226.119412 179.908695 
L 222.388279 175.271861 
L 218.474707 170.787942 
L 214.384956 166.46411 
L 210.125569 162.307284 
L 205.703361 158.324112 
L 201.125406 154.520968 
L 196.399027 150.903935 
L 191.531786 147.478801 
L 186.53147 144.251043 
L 181.406078 141.225827 
L 176.163809 138.407992 
L 170.813049 135.802046 
L 165.36236 133.412157 
L 159.820461 131.242149 
L 154.196217 129.295495 
L 148.498627 127.575306 
L 142.736805 126.084337 
L 136.919969 124.824972 
L 131.057425 123.799226 
L 125.158551 123.008739 
L 119.232785 122.454777 
L 113.289606 122.138225 
L 107.338522 122.05959 
L 101.389054 122.218998 
L 95.45072 122.616193 
L 89.533019 123.250541 
L 87.36 123.543825 
L 93.267711 124.265305 
L 99.199548 124.749963 
L 105.146021 124.997023 
L 111.097617 125.006089 
L 117.044815 124.777148 
L 122.978101 124.310566 
L 128.887983 123.607089 
L 134.765005 122.667842 
L 140.599767 121.494328 
L 146.382934 120.088425 
L 152.105254 118.452381 
L 157.757572 116.588815 
L 163.330846 114.500706 
L 168.81616 112.191396 
L 174.204738 109.66458 
L 179.487961 106.924298 
L 184.657375 103.974937 
L 189.704712 100.821213 
L 190.756551 100.128 
L 195.777008 103.324341 
L 200.921268 106.31736 
L 206.181103 109.10227 
L 211.548096 111.674615 
L 217.013664 114.03028 
L 222.56906 116.165496 
L 228.205399 118.076847 
L 233.913663 119.761277 
L 236.16 120.356767 
L 230.426126 121.951843 
L 224.760624 123.774937 
L 219.172559 125.823132 
L 213.670869 128.093152 
L 208.264356 130.581365 
L 202.961671 133.283791 
L 197.771295 136.196106 
L 192.701532 139.313651 
L 187.760493 142.631439 
L 184.430815 145.034371 
L 186.520775 139.461791 
L 188.386219 133.810092 
L 190.024163 128.088316 
L 191.431987 122.305617 
L 192.607438 116.471245 
L 193.548637 110.594534 
L 194.254077 104.684887 
L 194.6352 100.128 
L 195.158718 106.056534 
L 195.918896 111.95939 
L 196.914516 117.827125 
L 198.143987 123.650353 
L 199.605342 129.419757 
L 201.296242 135.126108 
L 203.213983 140.760276 
L 205.355497 146.313248 
L 207.717357 151.776141 
L 210.295786 157.140214 
L 213.086657 162.396888 
L 216.085508 167.537751 
L 219.287539 172.554581 
L 222.687628 177.43935 
L 226.280337 182.184245 
L 230.059917 186.781674 
L 234.020322 191.224283 
L 236.16 193.482148 
L 232.107593 197.840999 
L 228.232735 202.358416 
L 224.541626 207.027173 
L 221.040169 211.8398 
L 217.733966 216.788598 
L 214.628308 221.865651 
L 211.728161 227.062836 
L 209.038167 232.371839 
L 206.562627 237.784166 
L 204.305503 243.291159 
L 202.255395 248.928 
L 200.222045 243.334516 
L 197.966642 237.826818 
L 195.492793 232.413718 
L 192.804457 227.103875 
L 189.905934 221.905784 
L 186.801862 216.827761 
L 183.497206 211.87793 
L 179.936948 206.984718 
L 182.208991 212.485573 
L 184.699193 217.89117 
L 187.403569 223.192861 
L 190.317792 228.382165 
L 193.437202 233.450781 
L 196.756807 238.390599 
L 200.271297 243.193717 
L 203.975049 247.852451 
L 204.874378 248.928 
L 208.62186 244.304369 
L 212.181448 239.534578 
L 215.547448 234.626256 
L 218.714475 229.587256 
L 221.677463 224.425639 
L 224.431671 219.149664 
L 226.972693 213.767769 
L 229.296465 208.288566 
L 231.399267 202.72082 
L 233.277738 197.073437 
L 234.92887 191.355453 
L 236.16 186.410142 
L 234.705642 180.63897 
L 233.021663 174.930573 
L 231.110755 169.294084 
L 228.975976 163.738519 
L 226.620742 158.272766 
L 224.04882 152.90557 
L 221.264324 147.645516 
L 218.27171 142.50102 
L 215.075764 137.480312 
L 211.6816 132.591423 
L 208.094648 127.842175 
L 204.320645 123.240166 
L 200.365631 118.792758 
L 196.23593 114.507066 
L 191.938152 110.389946 
L 187.47917 106.447985 
L 182.866118 102.687488 
L 179.497287 100.128 
L 174.779189 103.755827 
L 170.209938 107.569425 
L 165.796846 111.562694 
L 161.546972 115.729246 
L 157.467116 120.062414 
L 153.563803 124.555268 
L 149.843278 129.200618 
L 146.311494 133.991034 
L 142.974101 138.918851 
L 139.836437 143.976187 
L 139.315239 144.861981 
L 133.584037 146.466629 
L 127.921587 148.299181 
L 122.336949 150.356705 
L 116.839058 152.635909 
L 111.436708 155.133147 
L 106.138542 157.844423 
L 100.953037 160.765401 
L 95.888487 163.891408 
L 90.952995 167.217442 
L 87.36 169.825685 
L 92.194064 173.297487 
L 97.163096 176.573201 
L 102.259147 179.647586 
L 107.474064 182.515725 
L 112.799505 185.173028 
L 118.22695 187.615244 
L 123.747716 189.838468 
L 128.722508 191.626659 
L 127.14473 197.365317 
L 125.797699 203.162479 
L 124.683571 209.008871 
L 123.804126 214.89514 
L 123.160774 220.811868 
L 122.754541 226.749592 
L 122.58608 232.69881 
L 122.655658 238.650007 
L 122.963165 244.59366 
L 123.338195 248.928 
L 123.819329 242.995876 
L 124.062857 237.049258 
L 124.068389 231.097657 
L 123.835916 225.150596 
L 123.36581 219.217588 
L 122.658823 213.308125 
L 121.716086 207.431661 
L 120.539107 201.597598 
L 119.129769 195.815267 
L 117.490327 190.09392 
L 115.623403 184.44271 
L 113.531985 178.870677 
L 111.219418 173.386736 
L 108.689401 167.999659 
L 105.945982 162.718065 
L 102.993551 157.550403 
L 99.83683 152.50494 
L 96.480869 147.589749 
L 92.931037 142.812692 
L 89.193014 138.181411 
L 87.36 136.042504 
L 91.185023 131.482814 
L 94.824648 126.77381 
L 98.273051 121.923028 
L 101.524717 116.938225 
L 104.574442 111.827379 
L 107.417349 106.598663 
L 110.048889 101.260445 
L 110.57348 100.128 
L 113.160154 105.488103 
L 115.959105 110.740478 
L 118.965857 115.876724 
L 122.175599 120.888624 
L 125.583196 125.768159 
L 129.183196 130.507524 
L 132.969841 135.099136 
L 136.937073 139.53565 
L 141.893251 144.844932 
L 144.562167 148.422391 
L 147.01176 152.153451 
L 149.233217 156.024684 
L 151.218541 160.022159 
L 152.960588 164.131489 
L 154.453089 168.337884 
L 155.690672 172.626206 
L 156.668882 176.981022 
L 157.384201 181.386659 
L 157.834052 185.827262 
L 158.016817 190.286849 
L 157.931839 194.74937 
L 157.579424 199.198766 
L 156.960838 203.619023 
L 156.07831 207.994233 
L 155.267395 211.157033 
L 155.748197 206.719675 
L 156.494215 202.319133 
L 157.502766 197.971243 
L 158.770218 193.691654 
L 160.29201 189.495767 
L 162.062667 185.398683 
L 164.075815 181.415148 
L 166.324209 177.559497 
L 168.799757 173.845607 
L 171.493551 170.286844 
L 174.395894 166.896015 
L 177.496343 163.685324 
L 180.783739 160.666326 
L 184.24625 157.849886 
L 187.871415 155.24614 
L 191.895719 152.717947 
L 188.464707 155.572674 
L 184.868687 158.216528 
L 181.120602 160.639992 
L 177.233942 162.834346 
L 173.222692 164.791691 
L 169.101291 166.504983 
L 164.88457 167.968056 
L 160.587705 169.175645 
L 156.226161 170.123404 
L 151.815633 170.807922 
L 147.371996 171.226735 
L 142.911241 171.378336 
L 138.449422 171.26218 
L 134.002597 170.878684 
L 129.58677 170.229229 
L 124.936625 169.247939 
L 129.387435 169.582016 
L 133.810204 170.18238 
L 138.189013 171.046871 
L 142.508105 172.172377 
L 146.751935 173.554848 
L 150.90523 175.189308 
L 154.953042 177.069875 
L 158.880805 179.189782 
L 162.674381 181.541398 
L 166.320118 184.11626 
L 169.804896 186.905102 
L 173.116174 189.897887 
L 176.242033 193.083844 
L 179.171225 196.451507 
L 181.893207 199.988756 
L 184.552852 203.92742 
L 187.324848 209.194071 
L 190.305237 214.34566 
L 193.48925 219.373944 
L 196.871794 224.270879 
L 200.447458 229.028632 
L 204.210521 233.639591 
L 208.154963 238.096378 
L 212.274473 242.391866 
L 216.562463 246.519181 
L 219.231343 248.928 
L 223.617794 244.905485 
L 227.839879 240.710776 
L 231.890843 236.350585 
L 235.764206 231.831885 
L 236.16 231.348948 
L 242.840693 228.07495 
L 249.437457 224.634976 
L 255.946169 221.031175 
L 262.362761 217.265798 
L 268.683224 213.341201 
L 274.903607 209.259834 
L 281.020023 205.02425 
L 287.028649 200.637095 
L 292.92573 196.10111 
L 297.36352 192.528981 
L 301.540855 188.289706 
L 305.884375 184.220871 
L 310.38713 180.328985 
L 315.041917 176.620274 
L 319.84129 173.100672 
L 324.77757 169.775808 
L 329.842861 166.651003 
L 331.142285 165.893652 
L 325.378307 167.376265 
L 319.559651 168.627195 
L 313.695626 169.64444 
L 307.795612 170.426372 
L 301.869049 170.971742 
L 295.925417 171.279676 
L 289.974225 171.349681 
L 288.470337 171.329692 
L 288.470337 171.329692 
" style="fill:none;stroke:#1f77b4;stroke-linecap:square;stroke-width:1.5;"/>
   </g>
   <g id="patch_5">
    <path d="M 57.6 263.808 
L 57.6 85.248 
" style="fill:none;stroke:#000000;stroke-linecap:square;stroke-linejoin:miter;stroke-width:0.8;"/>
   </g>
   <g id="patch_6">
    <path d="M 414.72 263.808 
L 414.72 85.248 
" style="fill:none;stroke:#000000;stroke-linecap:square;stroke-linejoin:miter;stroke-width:0.8;"/>
   </g>
   <g id="patch_7">
    <path d="M 57.6 263.808 
L 414.72 263.808 
" style="fill:none;stroke:#000000;stroke-linecap:square;stroke-linejoin:miter;stroke-width:0.8;"/>
   </g>
   <g id="patch_8">
    <path d="M 57.6 85.248 
L 414.72 85.248 
" style="fill:none;stroke:#000000;stroke-linecap:square;stroke-linejoin:miter;stroke-width:0.8;"/>
   </g>
  </g>
 </g>
 <defs>
  <clipPath id="paf62a45858">
   <rect height="178.56" width="357.12" x="57.6" y="85.248"/>
  </clipPath>
 </defs>
</svg>
